<?xml version="1.0" encoding="UTF-8"?>
<!-- Generator: visioncortex VTracer 0.6.4 -->
<svg version="1.1" xmlns="http://www.w3.org/2000/svg" width="1024" height="1024">
<path d="M0 0 C337.92 0 675.84 0 1024 0 C1024 337.92 1024 675.84 1024 1024 C686.08 1024 348.16 1024 0 1024 C0 686.08 0 348.16 0 0 Z " fill="#001156" transform="translate(0,0)"/>
<path d="M0 0 C50.82 0 101.64 0 154 0 C154 337.92 154 675.84 154 1024 C103.18 1024 52.36 1024 0 1024 C0 686.08 0 348.16 0 0 Z " fill="#000C34" transform="translate(870,0)"/>
<path d="M0 0 C50.82 0 101.64 0 154 0 C154 337.92 154 675.84 154 1024 C103.18 1024 52.36 1024 0 1024 C0 686.08 0 348.16 0 0 Z " fill="#000C34" transform="translate(0,0)"/>
<path d="M0 0 C0.648 0.214 1.296 0.427 1.964 0.647 C14.575 4.841 26.927 10.618 38 18 C38.401 17.443 38.802 16.886 39.215 16.312 C46.747 6.202 55.124 -2.022 68 -4 C80.791 -4.791 90.796 -4.031 101.121 4.312 C109.112 11.489 114.327 19.952 115.238 30.848 C115.534 43.674 111.479 54.228 102.812 63.688 C94.191 71.915 83.167 74.518 71.562 74.309 C61.419 73.43 52.174 68.452 45.184 61.086 C39.962 54.517 35.838 46.417 35.902 37.891 C35.906 37.137 35.909 36.382 35.912 35.605 C35.92 34.828 35.929 34.051 35.938 33.25 C35.942 32.457 35.947 31.664 35.951 30.848 C35.963 28.898 35.981 26.949 36 25 C-2.063 2.212 -46.828 -9.432 -90.992 0.688 C-136.889 12.363 -175.913 39.652 -200.312 80.5 C-210.992 98.97 -217.747 118.936 -221 140 C-221.172 141.083 -221.344 142.166 -221.521 143.281 C-222.332 149.581 -222.244 155.908 -222.25 162.25 C-222.251 162.965 -222.252 163.68 -222.253 164.417 C-222.243 175.118 -221.718 185.471 -219.44 195.956 C-219.005 197.979 -218.63 200.007 -218.262 202.043 C-213.617 226.011 -202.108 249.889 -187 269 C-186.374 269.829 -185.747 270.658 -185.102 271.512 C-157.308 307.133 -115.636 330.476 -71 337 C-34.089 341.017 1.564 336.347 35 320 C35.996 319.517 35.996 319.517 37.011 319.023 C46.695 314.26 55.44 308.557 64 302 C64.956 301.269 65.913 300.538 66.898 299.785 C95.541 277.092 115.16 245.575 124.75 210.5 C124.949 209.79 125.148 209.08 125.352 208.348 C128.805 195.06 129.404 181.409 129.375 167.75 C129.376 166.991 129.377 166.231 129.378 165.449 C129.37 153.94 128.379 143.225 125.458 132.054 C124.644 128.404 124.347 124.72 124 121 C127.855 122.744 127.855 122.744 129.16 125.047 C142.341 164.534 135.073 209.681 117.073 246.277 C113.526 253.241 109.673 259.722 105 266 C104.352 266.929 103.703 267.859 103.035 268.816 C96.506 277.947 88.816 285.97 81 294 C80.401 294.617 79.803 295.234 79.186 295.87 C51.165 324.37 6.963 342.61 -32.76 344.145 C-34.671 344.157 -34.671 344.157 -36.621 344.168 C-37.667 344.174 -37.667 344.174 -38.734 344.181 C-40.969 344.191 -43.203 344.191 -45.438 344.188 C-46.203 344.186 -46.968 344.185 -47.757 344.184 C-94.453 344.036 -138.566 326.914 -172.461 294.467 C-173.489 293.487 -174.524 292.514 -175.566 291.549 C-195.403 273.159 -207.864 250.802 -218 226 C-218.422 224.981 -218.422 224.981 -218.853 223.942 C-224.127 210.939 -225.747 196.764 -228 183 C-228.181 181.988 -228.362 180.976 -228.549 179.933 C-234.41 141.857 -221.412 97.593 -198.926 66.715 C-193.018 58.789 -186.848 51.137 -180 44 C-179.162 43.111 -178.324 42.221 -177.461 41.305 C-153.753 16.776 -122.067 1.275 -89 -6 C-88.067 -6.214 -87.133 -6.428 -86.172 -6.648 C-57.788 -12.807 -27.266 -9.29 0 0 Z " fill="#00C72E" transform="translate(573,295)"/>
<path d="M0 0 C0.796 0.008 1.593 0.015 2.414 0.023 C8.403 0.191 13.074 1.053 18.125 4.438 C18.829 4.885 19.533 5.332 20.258 5.793 C27.22 10.584 32.358 17.009 34.125 25.438 C35.205 36.341 33.703 46.962 26.797 55.809 C19.263 63.148 10.963 66.379 0.688 66.75 C-8.681 66.543 -16.934 63.046 -23.789 56.652 C-31.464 48.438 -33.539 41.26 -33.191 30.027 C-32.384 20.865 -28.823 13.882 -21.953 7.711 C-14.95 2.201 -8.845 -0.117 0 0 Z " fill="#001157" transform="translate(647.875,296.5625)"/>
<path d="M0 0 C23.577 -0.713 45.613 1.372 68 9 C68.648 9.214 69.296 9.427 69.964 9.647 C82.575 13.841 94.927 19.618 106 27 C106.401 26.443 106.802 25.886 107.215 25.312 C114.747 15.202 123.124 6.978 136 5 C148.791 4.209 158.796 4.969 169.121 13.312 C177.112 20.489 182.327 28.952 183.238 39.848 C183.534 52.674 179.479 63.228 170.812 72.688 C162.191 80.915 151.167 83.518 139.562 83.309 C129.419 82.43 120.174 77.452 113.184 70.086 C107.962 63.517 103.838 55.417 103.902 46.891 C103.907 45.759 103.907 45.759 103.912 44.605 C103.925 43.44 103.925 43.44 103.938 42.25 C103.942 41.457 103.947 40.664 103.951 39.848 C103.963 37.898 103.981 35.949 104 34 C80.503 19.932 55.562 9.376 28 7 C28 6.67 28 6.34 28 6 C22.365 4.795 16.855 4.887 11.125 4.938 C9.663 4.944 9.663 4.944 8.172 4.951 C5.781 4.963 3.391 4.979 1 5 C0.505 2.525 0.505 2.525 0 0 Z M115.555 23.828 C109.446 32.361 108.948 41.814 110 52 C113.196 61.94 118.936 69.062 128.125 73.875 C137.104 78.207 147.215 78.244 156.586 75.031 C166.26 70.899 171.973 64.532 175.875 54.812 C178.333 46.409 178.417 36.839 174.254 29.02 C173.84 28.353 173.426 27.687 173 27 C172.576 26.303 172.152 25.605 171.715 24.887 C166.919 17.793 160.268 13.201 152 11 C137.232 9.117 125.255 11.834 115.555 23.828 Z " fill="#00AB2D" transform="translate(505,286)"/>
<path d="M0 0 C1.043 0.217 1.043 0.217 2.108 0.438 C13.949 2.963 27.336 6.107 38 12 C37.67 13.32 37.34 14.64 37 16 C31.247 15.093 25.916 13.667 20.438 11.688 C13.466 9.222 6.371 7.689 -0.875 6.25 C-1.933 6.039 -2.991 5.829 -4.08 5.612 C-13.137 3.869 -21.957 2.846 -31.18 2.797 C-32.032 2.791 -32.884 2.785 -33.762 2.78 C-35.559 2.77 -37.356 2.764 -39.152 2.76 C-41.834 2.75 -44.514 2.719 -47.195 2.688 C-62.859 2.59 -77.972 4.44 -93.062 8.75 C-93.977 9.007 -94.892 9.265 -95.835 9.53 C-128.5 18.976 -156.384 36.789 -181 60 C-181.784 60.73 -182.567 61.459 -183.375 62.211 C-207.441 85.331 -223.815 116.439 -234.099 147.834 C-235.792 152.896 -235.792 152.896 -238 154 C-238.287 147.875 -237.774 142.785 -235.75 137 C-235.493 136.249 -235.235 135.499 -234.97 134.726 C-229.075 118.311 -221.171 102.188 -211 88 C-210.563 87.379 -210.125 86.758 -209.674 86.118 C-202.718 76.287 -195.075 67.348 -186.674 58.726 C-185.113 57.116 -183.576 55.488 -182.043 53.852 C-137.183 6.645 -63.142 -13.579 0 0 Z " fill="#009F31" transform="translate(559,258)"/>
<path d="M0 0 C3.855 1.744 3.855 1.744 5.16 4.047 C18.341 43.534 11.073 88.681 -6.927 125.277 C-10.474 132.241 -14.327 138.722 -19 145 C-19.648 145.929 -20.297 146.859 -20.965 147.816 C-27.494 156.947 -35.184 164.97 -43 173 C-43.599 173.617 -44.197 174.234 -44.814 174.87 C-63.236 193.607 -87.792 206.085 -112.438 214.438 C-113.408 214.768 -114.378 215.098 -115.377 215.438 C-124.278 218.333 -133.344 220.349 -142.75 220.125 C-143.755 220.107 -144.761 220.089 -145.797 220.07 C-146.524 220.047 -147.251 220.024 -148 220 C-146.515 219.01 -146.515 219.01 -145 218 C-145 217.34 -145 216.68 -145 216 C-144.444 215.915 -143.887 215.831 -143.314 215.744 C-114.617 211.264 -87.473 201.432 -64 184 C-63.415 183.573 -62.829 183.145 -62.226 182.705 C-30.962 159.718 -9.441 126.775 0.75 89.5 C1.048 88.435 1.048 88.435 1.352 87.348 C4.805 74.06 5.404 60.409 5.375 46.75 C5.376 45.991 5.377 45.231 5.378 44.449 C5.37 32.94 4.379 22.225 1.458 11.054 C0.644 7.404 0.347 3.72 0 0 Z " fill="#009B2D" transform="translate(697,416)"/>
<path d="M0 0 C8.421 6.804 13.661 14.533 15.812 25.25 C16.821 37.298 14.194 47.598 6.812 57.25 C2.757 61.996 -1.431 65.752 -7.188 68.25 C-9.625 67.5 -9.625 67.5 -11.188 66.25 C-11.188 65.59 -11.188 64.93 -11.188 64.25 C-8.712 63.755 -8.712 63.755 -6.188 63.25 C-6.105 62.652 -6.023 62.054 -5.938 61.438 C-4.972 58.621 -3.699 57.772 -1.188 56.25 C-0.528 56.25 0.133 56.25 0.812 56.25 C1.09 55.693 1.367 55.136 1.652 54.562 C2.449 52.975 3.254 51.392 4.066 49.812 C4.498 48.967 4.93 48.121 5.375 47.25 C5.809 46.404 6.244 45.559 6.691 44.688 C9.895 37.723 10.038 28.977 8.129 21.613 C7.177 19.351 6.108 17.334 4.812 15.25 C4.377 14.541 3.941 13.832 3.492 13.102 C-1.195 6.212 -7.19 2.436 -15.188 0.25 C-18.349 -0.163 -21.504 -0.347 -24.688 -0.5 C-25.516 -0.555 -26.345 -0.611 -27.199 -0.668 C-32.101 -0.925 -35.505 -0.358 -40.188 1.25 C-41.178 0.59 -42.168 -0.07 -43.188 -0.75 C-33.627 -12.701 -10.612 -7.384 0 0 Z " fill="#008C2E" transform="translate(672.1875,297.75)"/>
<path d="M0 0 C0.66 0 1.32 0 2 0 C2.684 1.772 2.684 1.772 3 4 C1.848 5.812 1.848 5.812 0.062 7.645 C-0.586 8.322 -1.234 8.999 -1.902 9.697 C-2.595 10.395 -3.287 11.093 -4 11.812 C-4.992 12.842 -4.992 12.842 -6.004 13.893 C-7.987 15.944 -9.991 17.974 -12 20 C-12.92 20.943 -12.92 20.943 -13.858 21.905 C-32.258 40.631 -56.816 53.093 -81.438 61.438 C-82.408 61.768 -83.378 62.098 -84.377 62.438 C-93.278 65.333 -102.344 67.349 -111.75 67.125 C-112.755 67.107 -113.761 67.089 -114.797 67.07 C-115.524 67.047 -116.251 67.024 -117 67 C-115.515 66.01 -115.515 66.01 -114 65 C-114 64.34 -114 63.68 -114 63 C-113.444 62.915 -112.887 62.831 -112.314 62.744 C-83.617 58.264 -56.473 48.432 -33 31 C-32.415 30.573 -31.829 30.145 -31.226 29.705 C-20.531 21.842 -10.825 12.89 -2.312 2.688 C-1.168 1.357 -1.168 1.357 0 0 Z " fill="#00AA2F" transform="translate(666,569)"/>
<path d="M0 0 C2.625 0.375 2.625 0.375 5 1 C4.129 2.161 3.258 3.323 2.387 4.484 C1.837 5.218 1.287 5.953 0.72 6.709 C-0.362 8.15 -1.447 9.589 -2.537 11.025 C-18.017 31.479 -29.121 53.481 -37.099 77.835 C-38.792 82.896 -38.792 82.896 -41 84 C-41.287 77.875 -40.774 72.785 -38.75 67 C-38.493 66.249 -38.235 65.499 -37.97 64.726 C-32.09 48.355 -24.242 32.1 -14 18 C-13.499 17.31 -12.997 16.62 -12.481 15.909 C-3.144 3.144 -3.144 3.144 0 0 Z " fill="#009D31" transform="translate(362,328)"/>
<path d="M0 0 C0 0.33 0 0.66 0 1 C-2.52 1.339 -5.041 1.671 -7.562 2 C-8.619 2.143 -8.619 2.143 -9.697 2.289 C-14.174 2.867 -18.487 3.095 -23 3 C-23 3.66 -23 4.32 -23 5 C-21.465 4.675 -21.465 4.675 -19.898 4.344 C-4.628 1.403 10.522 1.7 26 2 C26 2.33 26 2.66 26 3 C25.039 3.045 24.078 3.09 23.089 3.136 C-0.863 4.165 -0.863 4.165 -24.586 7.414 C-28.867 8.149 -31.874 8.375 -36 7 C-37.331 6.658 -38.664 6.322 -40 6 C-27.317 1.068 -13.542 -0.646 0 0 Z " fill="#00B32E" transform="translate(505,256)"/>
<path d="M0 0 C1.914 5.742 -0.504 10.628 -2.75 16 C-5.392 22.382 -7.725 28.819 -9.922 35.367 C-11 38 -11 38 -13 39 C-13.291 32.333 -12.513 27.25 -10.25 21 C-9.976 20.216 -9.703 19.432 -9.421 18.625 C-4.197 3.866 -4.197 3.866 0 0 Z " fill="#008C34" transform="translate(334,373)"/>
<path d="M0 0 C1.938 0.5 1.938 0.5 4 2 C5.556 8.892 5.556 8.892 4.047 11.898 C2.725 14.552 2.585 16.803 2.375 19.75 C2.3 20.735 2.225 21.72 2.148 22.734 C2.099 23.482 2.05 24.23 2 25 C1.34 25 0.68 25 0 25 C0.33 25.99 0.66 26.98 1 28 C1.122 30.513 1.185 32.987 1.188 35.5 C1.2 36.177 1.212 36.854 1.225 37.551 C1.236 41.264 1.113 42.83 -1 46 C-1.029 41.688 -1.047 37.375 -1.062 33.062 C-1.071 31.85 -1.079 30.638 -1.088 29.389 C-1.106 22.834 -0.89 16.496 0 10 C0.66 10 1.32 10 2 10 C1.67 9.092 1.34 8.185 1 7.25 C0 4 0 4 0 0 Z " fill="#00B333" transform="translate(347,425)"/>
<path d="M0 0 C2.792 1.009 3.826 1.679 5.266 4.328 C7.974 12.368 8.45 19.55 8 28 C5.048 25.048 4.913 22.045 4 18 C3.67 18 3.34 18 3 18 C2.491 16.127 1.993 14.252 1.5 12.375 C1.222 11.331 0.943 10.287 0.656 9.211 C0.009 6.043 -0.116 3.223 0 0 Z " fill="#00902F" transform="translate(697,416)"/>
<path d="M0 0 C0 0.33 0 0.66 0 1 C3.3 1.66 6.6 2.32 10 3 C10 3.66 10 4.32 10 5 C6.218 6.248 2.532 6.035 -1.391 5.879 C-2.095 5.855 -2.8 5.832 -3.526 5.807 C-5.767 5.731 -8.009 5.647 -10.25 5.562 C-11.773 5.509 -13.297 5.457 -14.82 5.404 C-18.547 5.275 -22.274 5.14 -26 5 C-26 4.67 -26 4.34 -26 4 C-17.585 3.505 -17.585 3.505 -9 3 C-10.32 2.34 -11.64 1.68 -13 1 C-8.624 0.407 -4.425 -0.138 0 0 Z " fill="#008D36" transform="translate(538,255)"/>
<path d="M0 0 C3.96 0 7.92 0 12 0 C12 0.33 12 0.66 12 1 C10.35 1.33 8.7 1.66 7 2 C11.399 3.466 15.812 3.042 20.4 2.961 C25.367 2.908 30.082 3.287 35 4 C35 4.33 35 4.66 35 5 C20.48 5.33 5.96 5.66 -9 6 C-9 5.67 -9 5.34 -9 5 C-5.7 4.34 -2.4 3.68 1 3 C0.67 2.01 0.34 1.02 0 0 Z " fill="#00CB2B" transform="translate(500,287)"/>
<path d="M0 0 C0.33 0 0.66 0 1 0 C1.338 3.708 1.669 7.416 2 11.125 C2.095 12.172 2.191 13.218 2.289 14.297 C3.279 25.468 3.279 25.468 3 29 C1 30.875 1 30.875 -1 32 C-1.897 28.932 -2.117 26.207 -2.098 23.016 C-2.093 21.614 -2.093 21.614 -2.088 20.184 C-2.08 19.216 -2.071 18.247 -2.062 17.25 C-2.058 16.266 -2.053 15.283 -2.049 14.27 C-2.037 11.846 -2.021 9.423 -2 7 C-1.67 7 -1.34 7 -1 7 C-0.67 4.69 -0.34 2.38 0 0 Z " fill="#008533" transform="translate(705,448)"/>
<path d="M0 0 C2 3.75 2 3.75 2 6 C1.34 6 0.68 6 0 6 C-0.33 19.2 -0.66 32.4 -1 46 C-3.206 42.691 -3.256 41.651 -3.266 37.801 C-3.27 36.763 -3.274 35.726 -3.278 34.656 C-3.268 33.553 -3.259 32.449 -3.25 31.312 C-3.245 30.192 -3.241 29.071 -3.236 27.916 C-2.998 5.997 -2.998 5.997 0 0 Z " fill="#00BE32" transform="translate(347,429)"/>
<path d="M0 0 C1.931 -0.049 3.863 0.01 5.793 0.084 C6.453 0.744 7.113 1.404 7.793 2.084 C11.376 2.251 11.376 2.251 14.793 2.084 C9.291 5.752 3.188 5.212 -3.207 5.084 C-1.887 4.754 -0.567 4.424 0.793 4.084 C0.793 3.424 0.793 2.764 0.793 2.084 C-11.087 2.084 -22.967 2.084 -35.207 2.084 C-35.207 1.754 -35.207 1.424 -35.207 1.084 C-30.654 0.94 -26.101 0.797 -21.547 0.656 C-20.001 0.608 -18.456 0.56 -16.91 0.511 C-14.675 0.44 -12.441 0.371 -10.207 0.302 C-9.186 0.27 -9.186 0.27 -8.145 0.236 C-5.43 0.154 -2.714 0.103 0 0 Z " fill="#00C82B" transform="translate(546.20703125,632.916259765625)"/>
<path d="M0 0 C0.976 0.003 1.953 0.006 2.959 0.01 C3.966 0.018 4.974 0.027 6.012 0.035 C7.038 0.04 8.065 0.044 9.123 0.049 C11.648 0.061 14.174 0.077 16.699 0.098 C16.699 0.758 16.699 1.418 16.699 2.098 C13.287 4.373 12.339 4.293 8.375 4.074 C7.347 4.023 6.319 3.971 5.26 3.918 C4.188 3.854 3.116 3.789 2.012 3.723 C0.387 3.638 0.387 3.638 -1.271 3.551 C-3.949 3.409 -6.625 3.258 -9.301 3.098 C-9.631 2.438 -9.961 1.778 -10.301 1.098 C-6.801 0.301 -3.587 -0.021 0 0 Z " fill="#00AB32" transform="translate(530.30078125,634.90234375)"/>
<path d="M0 0 C0.33 0.66 0.66 1.32 1 2 C1.99 2.66 2.98 3.32 4 4 C3.241 4.133 2.481 4.266 1.699 4.402 C0.705 4.579 -0.289 4.756 -1.312 4.938 C-2.792 5.199 -2.792 5.199 -4.301 5.465 C-7.082 5.957 -7.082 5.957 -10 7 C-12.352 6.402 -14.689 5.741 -17 5 C-10.939 0.959 -7.307 -0.17 0 0 Z " fill="#00B731" transform="translate(500,287)"/>
<path d="M0 0 C0.66 1.32 1.32 2.64 2 4 C-3.07 10.479 -3.07 10.479 -7 12 C-7.743 12.371 -8.485 12.743 -9.25 13.125 C-9.827 13.414 -10.405 13.702 -11 14 C-11.99 13.34 -12.98 12.68 -14 12 C-13.274 11.602 -12.549 11.203 -11.801 10.793 C-8.841 8.898 -6.632 6.83 -4.188 4.312 C-3.002 3.1 -3.002 3.1 -1.793 1.863 C-1.201 1.248 -0.61 0.634 0 0 Z " fill="#00B733" transform="translate(400,334)"/>
<path d="M0 0 C0.557 0.722 1.114 1.444 1.688 2.188 C3.954 5.07 3.954 5.07 6.75 7.562 C9 10 9 10 9 14 C5.109 13.424 2.794 11.718 0 9 C-1.168 5.663 -1.112 3.337 0 0 Z " fill="#00BE31" transform="translate(372,547)"/>
<path d="M0 0 C0.66 0.33 1.32 0.66 2 1 C1.94 2.626 1.851 4.251 1.75 5.875 C1.704 6.78 1.657 7.685 1.609 8.617 C1 11 1 11 -1.047 12.32 C-1.691 12.545 -2.336 12.769 -3 13 C-4.446 8.438 -3.403 5.506 -2 1 C-1.34 0.67 -0.68 0.34 0 0 Z " fill="#00B732" transform="translate(352,411)"/>
<path d="M0 0 C1.021 0.217 1.021 0.217 2.062 0.438 C5.087 1.077 5.087 1.077 8.562 1.25 C12 2 12 2 14.438 4.562 C14.953 5.367 15.469 6.171 16 7 C13.451 8.274 11.826 8.276 9 8 C7.562 6.688 7.562 6.688 6 5 C4.024 3.954 2.026 2.946 0 2 C0 1.34 0 0.68 0 0 Z " fill="#00B932" transform="translate(452,620)"/>
<path d="M0 0 C5.75 0.75 5.75 0.75 8 3 C9.967 3.673 9.967 3.673 12.125 4.125 C13.404 4.414 14.683 4.702 16 5 C14.02 5.99 14.02 5.99 12 7 C12 6.34 12 5.68 12 5 C11.154 5.165 10.309 5.33 9.438 5.5 C5.909 6.013 2.561 6.071 -1 6 C-0.34 5.67 0.32 5.34 1 5 C0.505 2.525 0.505 2.525 0 0 Z " fill="#00B432" transform="translate(481,628)"/>
<path d="M0 0 C0.66 0 1.32 0 2 0 C2.133 0.603 2.266 1.207 2.402 1.828 C2.579 2.627 2.756 3.427 2.938 4.25 C3.112 5.039 3.286 5.828 3.465 6.641 C3.811 8.169 4.206 9.687 4.656 11.188 C4.77 11.786 4.883 12.384 5 13 C3.562 14.75 3.562 14.75 2 16 C-0.309 13.554 -0.99 12.406 -1.074 8.984 C-0.947 7.917 -0.819 6.85 -0.688 5.75 C-0.568 4.672 -0.448 3.595 -0.324 2.484 C-0.217 1.665 -0.11 0.845 0 0 Z " fill="#00B333" transform="translate(347,473)"/>
<path d="M0 0 C0.66 0.33 1.32 0.66 2 1 C0.515 2.485 0.515 2.485 -1 4 C0.65 3.34 2.3 2.68 4 2 C0.256 6.095 -3.867 9.745 -9 12 C-9.99 11.67 -10.98 11.34 -12 11 C-7.25 8 -7.25 8 -5 8 C-5 7.34 -5 6.68 -5 6 C-5.66 5.67 -6.32 5.34 -7 5 C-4.69 3.35 -2.38 1.7 0 0 Z " fill="#00B12B" transform="translate(632,601)"/>
<path d="M0 0 C-3 2 -3 2 -5.25 2.375 C-7.863 2.969 -9.414 3.715 -11.688 5.062 C-15 7 -15 7 -17 7 C-15.669 3.007 -13.578 1.887 -10 -0.125 C-5.882 -1.927 -3.978 -2.415 0 0 Z " fill="#009635" transform="translate(436,277)"/>
<path d="M0 0 C0.66 0.33 1.32 0.66 2 1 C2.25 4.312 2.25 4.312 2 8 C0 9.938 0 9.938 -2 11 C-2 10.34 -2 9.68 -2 9 C-2.99 8.67 -3.98 8.34 -5 8 C-3.375 2.25 -3.375 2.25 0 0 Z " fill="#00B931" transform="translate(357,398)"/>
<path d="M0 0 C2.676 2.676 2.832 4.949 3.625 8.625 C4.016 10.408 4.016 10.408 4.414 12.227 C4.704 13.599 4.704 13.599 5 15 C5.66 15 6.32 15 7 15 C7 17.31 7 19.62 7 22 C6.67 22 6.34 22 6 22 C6 20.35 6 18.7 6 17 C3.489 18.255 3.129 19.501 2 22 C1.939 20.915 1.879 19.829 1.816 18.711 C1.732 17.266 1.647 15.82 1.562 14.375 C1.523 13.662 1.484 12.949 1.443 12.215 C1.197 8.082 0.765 4.077 0 0 Z " fill="#009429" transform="translate(680,316)"/>
<path d="M0 0 C-1.726 0.819 -3.456 1.63 -5.188 2.438 C-6.632 3.116 -6.632 3.116 -8.105 3.809 C-12.19 5.49 -14.751 6.416 -19 5 C-21.143 5.389 -21.143 5.389 -23 6 C-20.882 3.671 -18.967 2.112 -16 1 C-15.01 1.33 -14.02 1.66 -13 2 C-9.818 2.204 -9.818 2.204 -6.5 0.438 C-3 -1 -3 -1 0 0 Z " fill="#00B02E" transform="translate(451,271)"/>
<path d="M0 0 C3.962 4.235 5.432 8.547 7 14 C3.551 12.615 2.356 11.386 0.875 8 C-0.267 5.433 -0.982 4.018 -3 2 C-2.01 1.34 -1.02 0.68 0 0 Z " fill="#00B832" transform="translate(362,528)"/>
<path d="M0 0 C6.435 2.97 6.435 2.97 13 6 C11.02 6.99 11.02 6.99 9 8 C8.67 8.66 8.34 9.32 8 10 C4.312 9.502 2.395 8.899 0 6 C1.98 6.66 3.96 7.32 6 8 C4.951 5.378 4.351 4.206 1.875 2.75 C0.947 2.379 0.947 2.379 0 2 C0 1.34 0 0.68 0 0 Z " fill="#00AF29" transform="translate(627,356)"/>
<path d="M0 0 C3.63 0.99 7.26 1.98 11 3 C9.68 3.33 8.36 3.66 7 4 C7 4.99 7 5.98 7 7 C1.25 6.25 1.25 6.25 -1 4 C0.32 4 1.64 4 3 4 C3 3.34 3 2.68 3 2 C2.01 1.67 1.02 1.34 0 1 C0 0.67 0 0.34 0 0 Z " fill="#00D02C" transform="translate(464,623)"/>
<path d="M0 0 C1.65 0 3.3 0 5 0 C5 3.3 5 6.6 5 10 C1 7 1 7 0.25 3.312 C0.168 2.219 0.085 1.126 0 0 Z " fill="#00BA31" transform="translate(356,518)"/>
<path d="M0 0 C0.66 0 1.32 0 2 0 C4.188 2.25 4.188 2.25 6 5 C5.75 7.312 5.75 7.312 5 9 C2.562 8.375 2.562 8.375 0 7 C-0.875 3.938 -0.875 3.938 -1 1 C-0.67 0.67 -0.34 0.34 0 0 Z " fill="#009F32" transform="translate(615,345)"/>
<path d="M0 0 C0.66 0 1.32 0 2 0 C0.43 5.945 -0.904 9.433 -6 13 C-5.34 10.03 -4.68 7.06 -4 4 C-3.01 4 -2.02 4 -1 4 C-0.67 2.68 -0.34 1.36 0 0 Z " fill="#008937" transform="translate(343,356)"/>
<path d="M0 0 C1.772 0.114 3.542 0.242 5.312 0.375 C6.792 0.479 6.792 0.479 8.301 0.586 C11 1 11 1 14 3 C13.34 3 12.68 3 12 3 C12.33 4.32 12.66 5.64 13 7 C12.01 7 11.02 7 10 7 C10 6.34 10 5.68 10 5 C6.751 2.679 3.941 1.563 0 1 C0 0.67 0 0.34 0 0 Z " fill="#00C22B" transform="translate(545,289)"/>
<path d="M0 0 C0.598 0.639 1.196 1.279 1.812 1.938 C3.908 4.203 3.908 4.203 7 5 C7.33 4.34 7.66 3.68 8 3 C8.66 4.65 9.32 6.3 10 8 C7.25 8.312 7.25 8.312 4 8 C1.625 5.688 1.625 5.688 0 3 C0 2.01 0 1.02 0 0 Z " fill="#00CE2E" transform="translate(374,556)"/>
<path d="M0 0 C1.32 0 2.64 0 4 0 C3.67 1.65 3.34 3.3 3 5 C2.443 5.124 1.886 5.247 1.312 5.375 C-1.221 6.06 -3.579 6.991 -6 8 C-4.73 6.503 -3.461 5.005 -2.191 3.508 C-0.912 1.994 -0.912 1.994 0 0 Z " fill="#009933" transform="translate(634,599)"/>
<path d="M0 0 C1.183 3.55 0.9 5.4 0 9 C-1.438 10.75 -1.438 10.75 -3 12 C-3.66 12.66 -4.32 13.32 -5 14 C-4.346 8.93 -2.145 4.58 0 0 Z " fill="#008338" transform="translate(334,373)"/>
<path d="M0 0 C2.217 1.109 4.036 2.494 6 4 C3.03 4.66 0.06 5.32 -3 6 C-2.625 3.562 -2.625 3.562 -2 1 C-1.34 0.67 -0.68 0.34 0 0 Z " fill="#00A331" transform="translate(559,291)"/>
<path d="M0 0 C2 3.75 2 3.75 2 6 C1.34 6 0.68 6 0 6 C0 8.97 0 11.94 0 15 C-2 13 -2 13 -2.012 10.469 C-1.905 9.489 -1.798 8.509 -1.688 7.5 C-1.588 6.52 -1.489 5.541 -1.387 4.531 C-1 2 -1 2 0 0 Z " fill="#00CB2D" transform="translate(347,429)"/>
<path d="M0 0 C0.33 0.99 0.66 1.98 1 3 C0.34 2.67 -0.32 2.34 -1 2 C-0.67 1.34 -0.34 0.68 0 0 Z M-3 3 C-1.68 3.66 -0.36 4.32 1 5 C-3.455 6.485 -3.455 6.485 -8 8 C-8 7.01 -8 6.02 -8 5 C-6.35 4.67 -4.7 4.34 -3 4 C-3 3.67 -3 3.34 -3 3 Z " fill="#00B430" transform="translate(456,297)"/>
<path d="M0 0 C2.64 0 5.28 0 8 0 C6.938 2 6.938 2 5 4 C1.312 4.25 1.312 4.25 -2 4 C-1.34 2.68 -0.68 1.36 0 0 Z " fill="#00A036" transform="translate(524,286)"/>
<path d="M0 0 C3.96 0 7.92 0 12 0 C11.67 0.99 11.34 1.98 11 3 C9.742 2.876 8.484 2.753 7.188 2.625 C6.126 2.521 6.126 2.521 5.043 2.414 C3 2 3 2 0 0 Z " fill="#00B530" transform="translate(556,632)"/>
<path d="M0 0 C1.938 0.312 1.938 0.312 4 1 C4.33 1.99 4.66 2.98 5 4 C4.67 4.66 4.34 5.32 4 6 C1.69 5.34 -0.62 4.68 -3 4 C-2.505 3.526 -2.01 3.051 -1.5 2.562 C0.115 1.241 0.115 1.241 0 0 Z " fill="#00B033" transform="translate(478,290)"/>
<path d="M0 0 C0.99 0 1.98 0 3 0 C3.33 1.65 3.66 3.3 4 5 C-3.75 4.25 -3.75 4.25 -6 2 C-3.36 2.33 -0.72 2.66 2 3 C2 2.34 2 1.68 2 1 C1.34 0.67 0.68 0.34 0 0 Z " fill="#00D22A" transform="translate(478,628)"/>
<path d="M0 0 C1.65 0.33 3.3 0.66 5 1 C2.453 3.001 0.047 4.857 -3 6 C-5.25 5.625 -5.25 5.625 -7 5 C-6.031 4.546 -5.061 4.092 -4.062 3.625 C-0.929 2.342 -0.929 2.342 0 0 Z " fill="#00A034" transform="translate(604,617)"/>
<path d="M0 0 C2.962 0.613 4.381 1.254 7 3 C3.927 3.911 1.199 4.089 -2 4 C-2 3.34 -2 2.68 -2 2 C-1.34 2 -0.68 2 0 2 C0 1.34 0 0.68 0 0 Z " fill="#00A533" transform="translate(536,287)"/>
<path d="M0 0 C0 0.33 0 0.66 0 1 C-9.41 1.185 -9.41 1.185 -14 0 C-14 -0.33 -14 -0.66 -14 -1 C-8.511 -2.12 -5.166 -1.792 0 0 Z " fill="#00D228" transform="translate(510,637)"/>
<path d="M0 0 C1.32 0 2.64 0 4 0 C1.295 6.852 1.295 6.852 -1 8 C-0.67 5.36 -0.34 2.72 0 0 Z " fill="#00AD34" transform="translate(351,498)"/>
<path d="M0 0 C-0.33 1.65 -0.66 3.3 -1 5 C-2.65 4.67 -4.3 4.34 -6 4 C-3.333 0 -3.333 0 0 0 Z " fill="#00B534" transform="translate(374,368)"/>
<path d="M0 0 C0.99 0.33 1.98 0.66 3 1 C2.01 2.65 1.02 4.3 0 6 C-0.99 5.67 -1.98 5.34 -3 5 C-2.625 3.062 -2.625 3.062 -2 1 C-1.34 0.67 -0.68 0.34 0 0 Z " fill="#008931" transform="translate(672,356)"/>
<path d="M0 0 C0.66 0.33 1.32 0.66 2 1 C1.25 3.438 1.25 3.438 0 6 C-2.125 6.812 -2.125 6.812 -4 7 C-3.436 3.73 -2.5 2.174 0 0 Z " fill="#008D37" transform="translate(359,334)"/>
<path d="M0 0 C0.598 0.351 1.196 0.701 1.812 1.062 C0.822 2.053 -0.168 3.043 -1.188 4.062 C-3.188 3.062 -3.188 3.062 -5.188 0.062 C-2.188 -0.938 -2.188 -0.938 0 0 Z " fill="#00A130" transform="translate(583.1875,300.9375)"/>
<path d="M0 0 C1.98 0 3.96 0 6 0 C6.33 0.66 6.66 1.32 7 2 C7.99 2.66 8.98 3.32 10 4 C8.721 3.897 7.442 3.794 6.125 3.688 C5.046 3.6 5.046 3.6 3.945 3.512 C2 3 2 3 0 0 Z " fill="#00A335" transform="translate(494,287)"/>
<path d="M0 0 C0.99 0.33 1.98 0.66 3 1 C1 4 1 4 -1.125 4.688 C-1.744 4.791 -2.363 4.894 -3 5 C-3 4.01 -3 3.02 -3 2 C-2.01 1.34 -1.02 0.68 0 0 Z " fill="#00B534" transform="translate(427,313)"/>
<path d="M0 0 C0.99 0.33 1.98 0.66 3 1 C3.33 1.99 3.66 2.98 4 4 C3.01 4.66 2.02 5.32 1 6 C0.34 5.67 -0.32 5.34 -1 5 C-0.67 3.35 -0.34 1.7 0 0 Z " fill="#009337" transform="translate(386,303)"/>
</svg>
