<?xml version="1.0" encoding="UTF-8"?>
<!-- Generator: visioncortex VTracer 0.6.4 -->
<svg version="1.1" xmlns="http://www.w3.org/2000/svg" width="1024" height="1024">
<path d="M0 0 C337.92 0 675.84 0 1024 0 C1024 337.92 1024 675.84 1024 1024 C686.08 1024 348.16 1024 0 1024 C0 686.08 0 348.16 0 0 Z " fill="#000000" transform="translate(0,0)"/>
<path d="M0 0 C2.049 -0.004 4.099 -0.01 6.148 -0.015 C11.694 -0.029 17.239 -0.029 22.785 -0.027 C27.424 -0.026 32.063 -0.031 36.703 -0.036 C47.654 -0.047 58.605 -0.047 69.556 -0.041 C80.83 -0.035 92.104 -0.047 103.379 -0.069 C113.079 -0.086 122.78 -0.092 132.48 -0.089 C138.265 -0.087 144.049 -0.09 149.834 -0.104 C155.277 -0.116 160.719 -0.114 166.162 -0.101 C168.151 -0.099 170.141 -0.102 172.13 -0.11 C188.768 -0.174 204.966 0.485 217.669 12.65 C228.016 23.654 229.004 35.749 229.089 50.333 C229.1 51.7 229.121 53.067 229.15 54.434 C229.447 68.156 227.378 80.846 217.794 91.275 C207.171 100.701 194.891 103.425 181.042 103.422 C180.185 103.426 179.328 103.429 178.445 103.433 C175.586 103.444 172.727 103.448 169.868 103.452 C167.812 103.458 165.757 103.465 163.701 103.472 C156.961 103.493 150.221 103.503 143.481 103.513 C141.155 103.517 138.829 103.521 136.503 103.525 C125.572 103.544 114.641 103.559 103.709 103.567 C91.118 103.577 78.527 103.603 65.936 103.643 C56.186 103.674 46.436 103.688 36.686 103.692 C30.871 103.694 25.057 103.703 19.242 103.728 C13.766 103.752 8.289 103.756 2.813 103.745 C0.813 103.745 -1.187 103.751 -3.186 103.765 C-32.248 103.954 -32.248 103.954 -43.281 94.189 C-44.234 93.241 -44.234 93.241 -45.206 92.275 C-46.175 91.327 -46.175 91.327 -47.163 90.361 C-57.349 79.596 -58.555 66.514 -58.456 52.275 C-58.464 51.163 -58.472 50.052 -58.48 48.907 C-58.447 35.095 -55.776 22.705 -46.206 12.275 C-32.466 -0.069 -17.534 -0.025 0 0 Z " fill="#FE24C1" transform="translate(439.206298828125,747.725341796875)"/>
</svg>
