<?xml version="1.0" encoding="UTF-8"?>
<!-- Generator: visioncortex VTracer 0.6.4 -->
<svg version="1.1" xmlns="http://www.w3.org/2000/svg" width="1024" height="1024">
<path d="M0 0 C337.92 0 675.84 0 1024 0 C1024 337.92 1024 675.84 1024 1024 C686.08 1024 348.16 1024 0 1024 C0 686.08 0 348.16 0 0 Z " fill="#B8776B" transform="translate(0,0)"/>
<path d="M0 0 C1.619 -0.008 1.619 -0.008 3.271 -0.016 C17.638 -0.07 31.728 0.605 46 2.25 C47.435 2.408 48.869 2.565 50.304 2.721 C59.146 3.721 67.473 5.785 76 8.25 C82.491 10.101 88.883 11.643 95.539 12.777 C98.465 13.339 101.215 14.196 104 15.25 C104 15.91 104 16.57 104 17.25 C105.516 17.157 105.516 17.157 107.062 17.062 C111.555 17.276 114.011 18.296 118 20.25 C118 21.24 118 22.23 118 23.25 C118.969 23.332 119.939 23.415 120.938 23.5 C127.118 24.385 132.515 27.477 138 30.312 C140.729 31.707 143.382 32.735 146.312 33.625 C151.033 35.106 155.143 37.389 159.422 39.848 C161.973 41.303 161.973 41.303 164.719 42.324 C167.542 43.47 168.84 45.09 171 47.25 C173.36 48.848 175.753 50.377 178.172 51.883 C178.775 52.334 179.378 52.785 180 53.25 C180 53.91 180 54.57 180 55.25 C181.32 55.25 182.64 55.25 184 55.25 C184 55.91 184 56.57 184 57.25 C184.722 57.312 185.444 57.374 186.188 57.438 C189.897 58.509 191.346 60.47 194 63.25 C195.149 64.108 196.317 64.941 197.5 65.75 C200.699 67.969 203.271 70.458 206 73.25 C210.442 77.348 214.906 81.41 219.625 85.188 C220.409 85.868 221.192 86.549 222 87.25 C222 87.91 222 88.57 222 89.25 C222.99 89.58 223.98 89.91 225 90.25 C226.375 91.5 226.375 91.5 228 93.25 C228.773 94.007 229.547 94.763 230.344 95.543 C232.789 98.035 234.957 100.58 237.125 103.312 C240.498 107.496 244.011 111.463 247.688 115.375 C251.4 119.352 254.66 123.374 257.551 127.988 C259.214 130.584 261.032 133.029 262.875 135.5 C267.294 141.531 271.14 147.852 275 154.25 C275.723 155.419 276.449 156.587 277.176 157.754 C277.533 158.329 277.891 158.904 278.26 159.497 C279.252 161.09 280.245 162.684 281.238 164.277 C282.978 167.213 284.5 170.187 286 173.25 C286.57 174.332 287.14 175.413 287.727 176.527 C293.758 188.074 298.429 200.065 303 212.25 C303.264 212.944 303.529 213.638 303.801 214.353 C307.775 224.793 310.847 235.52 313.521 246.362 C313.986 248.291 313.986 248.291 314.684 250.301 C316.809 256.678 317.733 262.964 318.473 269.637 C318.917 273.267 318.917 273.267 320.023 276.746 C321.061 280.467 321.379 283.769 321.562 287.625 C321.599 288.329 321.635 289.033 321.672 289.758 C321.903 294.453 322.073 299.15 322.246 303.848 C322.289 304.978 322.331 306.109 322.375 307.274 C322.458 309.531 322.535 311.789 322.608 314.046 C322.663 315.599 322.663 315.599 322.719 317.184 C322.749 318.112 322.779 319.041 322.811 319.998 C322.863 322.284 322.863 322.284 324 324.25 C323.934 325.754 323.796 327.255 323.625 328.75 C323.191 332.9 322.922 337.018 322.773 341.188 C322.098 358.369 318.979 375.542 315 392.25 C314.777 393.209 314.554 394.168 314.324 395.156 C308.248 420.41 298.926 444.182 287 467.25 C286.541 468.195 286.082 469.14 285.609 470.113 C283.933 473.38 282.076 476.453 280.125 479.562 C277.816 483.262 275.562 486.969 273.5 490.812 C265.643 505.16 254.995 517.388 244.35 529.689 C243.203 531.015 242.062 532.345 240.922 533.676 C237.675 537.442 234.297 540.989 230.746 544.469 C228.924 546.327 227.246 548.265 225.562 550.25 C222.032 554.34 218.119 557.77 214 561.25 C212.77 562.354 211.541 563.458 210.312 564.562 C204.103 570.007 197.442 574.923 190.836 579.871 C189.619 580.785 188.411 581.709 187.211 582.645 C180.674 587.693 173.679 591.801 166.438 595.75 C163.385 597.423 160.498 599.223 157.625 601.188 C152.621 604.591 147.359 607.448 142 610.25 C141.301 610.617 140.603 610.985 139.883 611.363 C138 612.25 138 612.25 134.688 613.188 C130.178 614.487 126.038 616.326 121.77 618.262 C117.558 620.159 113.407 621.844 109 623.25 C107.748 623.725 106.498 624.204 105.25 624.688 C85.185 632.25 85.185 632.25 76 632.25 C75.134 632.539 74.267 632.827 73.375 633.125 C65.855 635.632 58.081 636.78 50.25 637.875 C49.331 638.009 48.412 638.143 47.465 638.281 C46.129 638.471 46.129 638.471 44.766 638.664 C43.969 638.777 43.173 638.89 42.353 639.006 C39.886 639.262 37.478 639.258 35 639.25 C33.33 639.566 31.663 639.899 30 640.25 C26.009 640.69 22.004 640.959 18 641.25 C16.113 641.391 16.113 641.391 14.188 641.535 C-2.464 642.721 -18.926 642.298 -35.527 640.496 C-39.391 640.112 -43.266 639.875 -47.141 639.629 C-50 639.25 -50 639.25 -52.762 638.324 C-56.969 636.929 -61.202 636.257 -65.562 635.5 C-88.138 631.369 -109.16 623.671 -130 614.25 C-130.638 613.965 -131.276 613.68 -131.934 613.387 C-140.197 609.693 -148.09 605.611 -155.898 601.035 C-158.422 599.583 -160.937 598.254 -163.562 597 C-166.775 595.365 -169.239 593.538 -172 591.25 C-172.99 590.92 -173.98 590.59 -175 590.25 C-175 589.59 -175 588.93 -175 588.25 C-176.32 588.25 -177.64 588.25 -179 588.25 C-179.33 587.59 -179.66 586.93 -180 586.25 C-181.975 585.202 -183.975 584.198 -186 583.25 C-186 582.59 -186 581.93 -186 581.25 C-186.686 581.017 -187.372 580.783 -188.078 580.543 C-191.633 578.97 -194.632 576.848 -197.75 574.562 C-198.676 573.891 -198.676 573.891 -199.622 573.206 C-216.546 560.883 -216.546 560.883 -222 555.25 C-222 554.59 -222 553.93 -222 553.25 C-222.557 553.003 -223.114 552.755 -223.688 552.5 C-228.807 549.733 -232.269 545.877 -235.988 541.512 C-238.186 539.04 -240.507 536.746 -242.875 534.438 C-247.983 529.384 -252.8 524.094 -257 518.25 C-257 517.59 -257 516.93 -257 516.25 C-257.66 516.25 -258.32 516.25 -259 516.25 C-260.621 514.238 -260.621 514.238 -262.438 511.562 C-263.034 510.692 -263.631 509.822 -264.246 508.926 C-269 501.673 -269 501.673 -269 499.25 C-269.66 499.25 -270.32 499.25 -271 499.25 C-271.33 497.93 -271.66 496.61 -272 495.25 C-272.66 495.25 -273.32 495.25 -274 495.25 C-278 488.5 -278 488.5 -278 486.25 C-278.66 486.25 -279.32 486.25 -280 486.25 C-280.245 485.749 -280.49 485.247 -280.742 484.73 C-282.897 480.369 -285.103 476.039 -287.383 471.742 C-287.812 470.932 -288.242 470.123 -288.684 469.288 C-289.539 467.68 -290.397 466.073 -291.257 464.468 C-296.576 454.458 -300.64 444.969 -303.125 433.875 C-303.599 431.782 -304.08 429.691 -304.57 427.602 C-304.774 426.692 -304.978 425.783 -305.188 424.846 C-306.082 421.986 -307.41 419.779 -309 417.25 C-309.869 414.64 -310.557 412.02 -311.254 409.359 C-311.791 407.065 -311.791 407.065 -314 406.25 C-314.585 404.042 -315.069 401.806 -315.5 399.562 C-316.183 396.047 -316.846 392.691 -318.027 389.309 C-319.222 385.552 -319.651 381.908 -320.062 378 C-320.448 372.973 -320.448 372.973 -322 368.25 C-324.482 353.05 -325.295 337.628 -325.25 322.25 C-325.245 320.296 -325.245 320.296 -325.24 318.302 C-325.114 305.398 -324.079 293.372 -321.062 280.812 C-319.131 272.504 -317.343 264.338 -316.422 255.852 C-315.973 253.085 -315.073 250.83 -314 248.25 C-313.619 245.924 -313.275 243.591 -313 241.25 C-312.01 240.92 -311.02 240.59 -310 240.25 C-309.326 236.223 -309.326 236.223 -308.668 232.193 C-308.308 229.961 -307.936 227.73 -307.562 225.5 C-307.441 224.733 -307.319 223.966 -307.193 223.176 C-306.227 217.477 -306.227 217.477 -304 215.25 C-303.411 213.29 -302.899 211.306 -302.438 209.312 C-301.715 206.233 -301.001 203.252 -300 200.25 C-299.34 199.92 -298.68 199.59 -298 199.25 C-297.229 197.217 -296.557 195.146 -295.938 193.062 C-295.596 191.935 -295.254 190.807 -294.902 189.645 C-294.071 186.518 -293.471 183.449 -293 180.25 C-292.34 180.25 -291.68 180.25 -291 180.25 C-290.823 179.399 -290.823 179.399 -290.643 178.53 C-289.424 174.21 -286.976 170.41 -284.812 166.5 C-284.108 165.197 -284.108 165.197 -283.389 163.867 C-280.679 158.943 -277.788 154.394 -274.303 149.981 C-273.036 148.297 -272.004 146.601 -271 144.75 C-269.164 141.384 -266.942 138.438 -264.562 135.438 C-262.879 133.081 -261.511 130.601 -260.094 128.079 C-258.297 125.075 -256.177 122.36 -254 119.625 C-253.527 119.027 -253.054 118.428 -252.567 117.812 C-248.202 112.363 -243.518 107.245 -238.73 102.168 C-236.441 99.721 -234.235 97.237 -232.062 94.688 C-229.597 91.829 -226.959 89.602 -224 87.25 C-223.044 86.162 -222.108 85.056 -221.188 83.938 C-215.367 76.997 -208.167 71.825 -200.914 66.473 C-197.622 63.962 -194.553 61.283 -191.523 58.465 C-190 57.25 -190 57.25 -188 57.25 C-188 56.59 -188 55.93 -188 55.25 C-186.391 53.996 -186.391 53.996 -184.25 52.688 C-183.554 52.253 -182.858 51.819 -182.141 51.371 C-180.074 50.289 -178.247 49.807 -176 49.25 C-175.423 48.673 -174.845 48.095 -174.25 47.5 C-169.882 43.132 -164.667 40.451 -158.961 38.191 C-156.405 36.965 -154.162 35.398 -151.812 33.812 C-146.852 30.552 -142.028 28.691 -136.336 27.074 C-133.833 26.495 -133.833 26.495 -133 24.25 C-130.216 23.234 -127.453 22.313 -124.625 21.438 C-119.427 19.778 -114.401 18.115 -109.5 15.688 C-96.563 9.572 -82.186 7.4 -68.18 5.145 C-65.081 4.64 -62.084 4.043 -59.059 3.207 C-40.5 -1.61 -19.004 0.042 0 0 Z " fill="#F0C8AA" transform="translate(515,95.75)"/>
<path d="M0 0 C0.664 1.738 0.664 1.738 1 4 C-0.039 6.043 -0.039 6.043 -1.625 8.188 C-3.666 11.065 -5.545 13.879 -7.188 17 C-13.359 28.328 -20.612 39.204 -29 49 C-29.971 50.144 -30.943 51.289 -31.914 52.434 C-34.479 55.447 -37.061 58.446 -39.65 61.439 C-40.797 62.765 -41.938 64.095 -43.078 65.426 C-46.325 69.192 -49.703 72.739 -53.254 76.219 C-55.076 78.077 -56.754 80.015 -58.438 82 C-61.968 86.09 -65.881 89.52 -70 93 C-71.23 94.104 -72.459 95.208 -73.688 96.312 C-79.897 101.757 -86.558 106.673 -93.164 111.621 C-94.381 112.535 -95.589 113.459 -96.789 114.395 C-103.326 119.443 -110.321 123.551 -117.562 127.5 C-120.615 129.173 -123.502 130.973 -126.375 132.938 C-131.379 136.341 -136.641 139.198 -142 142 C-142.699 142.367 -143.397 142.735 -144.117 143.113 C-146 144 -146 144 -149.312 144.938 C-153.822 146.237 -157.962 148.076 -162.23 150.012 C-166.442 151.909 -170.593 153.594 -175 155 C-176.252 155.475 -177.502 155.954 -178.75 156.438 C-198.815 164 -198.815 164 -208 164 C-208.866 164.289 -209.733 164.577 -210.625 164.875 C-218.145 167.382 -225.919 168.53 -233.75 169.625 C-234.669 169.759 -235.588 169.893 -236.535 170.031 C-237.426 170.158 -238.317 170.284 -239.234 170.414 C-240.031 170.527 -240.827 170.64 -241.647 170.756 C-244.114 171.012 -246.522 171.008 -249 171 C-250.67 171.316 -252.337 171.649 -254 172 C-257.991 172.44 -261.996 172.709 -266 173 C-267.258 173.094 -268.516 173.188 -269.812 173.285 C-286.464 174.471 -302.926 174.048 -319.527 172.246 C-323.391 171.862 -327.266 171.625 -331.141 171.379 C-334 171 -334 171 -336.762 170.074 C-340.969 168.679 -345.202 168.007 -349.562 167.25 C-372.138 163.119 -393.16 155.421 -414 146 C-414.638 145.715 -415.276 145.43 -415.934 145.137 C-424.197 141.443 -432.09 137.361 -439.898 132.785 C-442.422 131.333 -444.937 130.004 -447.562 128.75 C-450.775 127.115 -453.239 125.288 -456 123 C-457.485 122.505 -457.485 122.505 -459 122 C-459 121.34 -459 120.68 -459 120 C-460.32 120 -461.64 120 -463 120 C-463.33 119.34 -463.66 118.68 -464 118 C-465.975 116.952 -467.975 115.948 -470 115 C-470 114.34 -470 113.68 -470 113 C-470.686 112.767 -471.372 112.533 -472.078 112.293 C-475.633 110.72 -478.632 108.598 -481.75 106.312 C-482.368 105.865 -482.985 105.417 -483.622 104.956 C-500.546 92.633 -500.546 92.633 -506 87 C-506 86.34 -506 85.68 -506 85 C-506.557 84.753 -507.114 84.505 -507.688 84.25 C-512.807 81.483 -516.269 77.627 -519.988 73.262 C-522.186 70.79 -524.507 68.496 -526.875 66.188 C-531.983 61.134 -536.8 55.844 -541 50 C-541 49.34 -541 48.68 -541 48 C-541.66 48 -542.32 48 -543 48 C-544.621 45.988 -544.621 45.988 -546.438 43.312 C-547.034 42.442 -547.631 41.572 -548.246 40.676 C-553 33.423 -553 33.423 -553 31 C-553.66 31 -554.32 31 -555 31 C-555.33 29.68 -555.66 28.36 -556 27 C-556.66 27 -557.32 27 -558 27 C-557.67 26.01 -557.34 25.02 -557 24 C-554.5 25.188 -554.5 25.188 -552 27 C-551.688 29.688 -551.688 29.688 -552 32 C-551.01 32.33 -550.02 32.66 -549 33 C-549 33.66 -549 34.32 -549 35 C-548.34 35 -547.68 35 -547 35 C-546.769 35.866 -546.539 36.732 -546.301 37.625 C-544.812 41.488 -542.896 43.881 -540.188 47 C-539.335 47.99 -538.483 48.98 -537.605 50 C-536.746 50.99 -535.886 51.98 -535 53 C-534.154 54.05 -533.309 55.101 -532.465 56.152 C-530.228 58.736 -528.142 60.59 -525.375 62.562 C-521.982 65.103 -519.996 67.218 -518 71 C-516.676 72.012 -515.344 73.014 -514 74 C-513.67 74.99 -513.34 75.98 -513 77 C-511.378 78.682 -511.378 78.682 -509.375 80.312 C-508.66 80.921 -507.944 81.529 -507.207 82.156 C-506.479 82.765 -505.75 83.373 -505 84 C-503.685 85.102 -502.373 86.206 -501.062 87.312 C-500.214 88.018 -500.214 88.018 -499.348 88.738 C-498 90 -498 90 -497 92 C-494.69 93.054 -492.357 94.057 -490 95 C-490 95.66 -490 96.32 -490 97 C-489.453 97.245 -488.907 97.49 -488.344 97.742 C-485.486 99.276 -483.068 101.144 -480.5 103.125 C-475.217 107.152 -469.815 110.81 -464.203 114.371 C-463.476 114.909 -462.749 115.446 -462 116 C-462 116.66 -462 117.32 -462 118 C-461.134 118.186 -461.134 118.186 -460.25 118.375 C-457.977 119.006 -456.075 119.889 -454 121 C-454 121.66 -454 122.32 -454 123 C-452.35 123.33 -450.7 123.66 -449 124 C-448.67 124.99 -448.34 125.98 -448 127 C-447.285 127.112 -446.569 127.224 -445.832 127.34 C-442.809 128.045 -440.437 129.133 -437.688 130.562 C-436.804 131.018 -435.921 131.473 -435.012 131.941 C-434.348 132.291 -433.684 132.64 -433 133 C-433 133.66 -433 134.32 -433 135 C-431.02 135.33 -429.04 135.66 -427 136 C-427 136.66 -427 137.32 -427 138 C-426.299 138.116 -425.597 138.232 -424.875 138.352 C-421.732 139.06 -418.969 140.125 -416 141.375 C-414.484 142.005 -414.484 142.005 -412.938 142.648 C-410 144 -410 144 -407.605 145.477 C-404.319 147.398 -400.876 148.698 -397.312 150 C-396.598 150.264 -395.884 150.528 -395.149 150.801 C-390.677 152.437 -386.192 153.923 -381.609 155.223 C-377.09 156.569 -372.65 158.164 -368.199 159.719 C-357.376 163.174 -346.262 164.834 -335.035 166.308 C-332.634 166.624 -330.235 166.952 -327.836 167.281 C-312.951 169.293 -298.153 170.233 -283.125 170.25 C-282.415 170.251 -281.706 170.253 -280.975 170.254 C-267.486 170.249 -254.332 169.099 -241 167 C-239.715 166.8 -239.715 166.8 -238.404 166.596 C-234.59 165.993 -230.783 165.36 -226.98 164.688 C-222.173 163.839 -217.342 163.176 -212.504 162.527 C-209.767 162.113 -209.767 162.113 -207 160 C-204.659 159.458 -202.302 158.988 -199.938 158.562 C-193.804 157.401 -187.925 155.959 -182 154 C-180.533 153.527 -179.065 153.055 -177.598 152.582 C-175.981 152.056 -174.366 151.528 -172.75 151 C-171.981 150.751 -171.211 150.502 -170.419 150.245 C-166.067 148.802 -162.071 147.134 -158 145 C-155.197 143.647 -152.379 142.325 -149.562 141 C-148.475 140.486 -148.475 140.486 -147.365 139.961 C-143.946 138.351 -140.529 136.797 -137.027 135.375 C-133.909 134.342 -133.909 134.342 -133 132 C-131.673 131.644 -130.338 131.314 -129 131 C-127.518 130.275 -126.06 129.501 -124.625 128.688 C-123.841 128.244 -123.058 127.801 -122.25 127.344 C-120.316 126.189 -118.469 124.978 -116.625 123.688 C-114 122 -114 122 -111 122 C-111 121.34 -111 120.68 -111 120 C-109.207 118.598 -109.207 118.598 -106.812 117.062 C-105.585 116.268 -105.585 116.268 -104.332 115.457 C-102.573 114.358 -100.792 113.295 -99 112.25 C-96.86 111.154 -96.86 111.154 -96 109 C-91.5 106 -91.5 106 -89 106 C-88.67 105.01 -88.34 104.02 -88 103 C-87.01 103 -86.02 103 -85 103 C-85 102.34 -85 101.68 -85 101 C-83.321 99.504 -81.58 98.077 -79.812 96.688 C-76.783 94.299 -73.965 91.964 -71.262 89.207 C-69 87 -69 87 -67 87 C-67 86.34 -67 85.68 -67 85 C-66.34 85 -65.68 85 -65 85 C-65 84.34 -65 83.68 -65 83 C-61.538 80 -61.538 80 -59 80 C-58.67 79.01 -58.34 78.02 -58 77 C-57.34 77 -56.68 77 -56 77 C-56 76.34 -56 75.68 -56 75 C-55.34 75 -54.68 75 -54 75 C-53.773 74.464 -53.546 73.928 -53.312 73.375 C-51.544 70.175 -49.463 67.71 -47 65 C-46.34 65 -45.68 65 -45 65 C-44.586 64.107 -44.586 64.107 -44.164 63.195 C-43.06 61.114 -41.943 59.618 -40.375 57.875 C-30.956 47.133 -21.438 35.811 -15 23 C-14.34 23 -13.68 23 -13 23 C-12.794 22.031 -12.587 21.061 -12.375 20.062 C-10.952 15.068 -8 11.174 -5 7 C-4.504 6.297 -4.007 5.595 -3.496 4.871 C-2.34 3.241 -1.171 1.619 0 0 Z " fill="#FEB993" transform="translate(799,564)"/>
<path d="M0 0 C1.759 0.203 3.518 0.405 5.277 0.605 C15.843 1.843 15.843 1.843 17 3 C18.512 3.391 20.035 3.74 21.562 4.062 C22.802 4.327 22.802 4.327 24.066 4.598 C24.704 4.73 25.343 4.863 26 5 C26 5.33 26 5.66 26 6 C24.395 5.859 22.791 5.712 21.188 5.562 C20.294 5.481 19.401 5.4 18.48 5.316 C16 5 16 5 13 4 C-30.736 -3.414 -80.325 -4.179 -123.496 6.413 C-127.244 7.292 -131.021 7.961 -134.812 8.625 C-143.841 10.29 -151.627 12.758 -159.918 16.66 C-163.556 18.242 -167.24 19.554 -171 20.812 C-171.647 21.031 -172.295 21.25 -172.962 21.476 C-175.772 22.396 -178.022 23 -181 23 C-181.33 23.99 -181.66 24.98 -182 26 C-184.23 26.852 -184.23 26.852 -187.188 27.625 C-193.203 29.47 -197.89 32.197 -203.014 35.739 C-206.912 38.414 -210.647 40.233 -215 42 C-218.789 43.877 -221.592 45.388 -224 49 C-226.296 50.083 -228.635 51.078 -231 52 C-231.969 52.392 -232.939 52.784 -233.938 53.188 C-234.618 53.456 -235.299 53.724 -236 54 C-236 54.66 -236 55.32 -236 56 C-237.525 57.42 -239.124 58.76 -240.75 60.062 C-241.75 60.864 -242.751 61.666 -243.781 62.492 C-247.885 65.713 -252.077 68.815 -256.262 71.93 C-261.071 75.566 -265.421 79.103 -269 84 C-269.66 84 -270.32 84 -271 84 C-271.257 84.596 -271.513 85.191 -271.777 85.805 C-273.118 88.212 -274.425 89.406 -276.562 91.125 C-285.097 98.366 -292.046 107.276 -299 116 C-299.425 116.531 -299.85 117.061 -300.288 117.608 C-305.005 123.521 -309.437 129.344 -312.926 136.09 C-314.573 139.019 -316.853 141.423 -319 144 C-320.302 146.219 -321.513 148.467 -322.691 150.754 C-324 153 -324 153 -325.828 155.207 C-328.737 158.947 -330.919 162.975 -333.188 167.125 C-333.638 167.936 -334.089 168.747 -334.553 169.582 C-336.279 172.713 -337.866 175.599 -339 179 C-339.66 179 -340.32 179 -341 179 C-341.103 180.279 -341.206 181.558 -341.312 182.875 C-341.892 188.019 -342.808 193.279 -345 198 C-345.99 198.33 -346.98 198.66 -348 199 C-348.738 200.869 -348.738 200.869 -349.062 203.125 C-351.182 214.182 -351.182 214.182 -353 216 C-353.661 219.486 -354.242 222.976 -354.807 226.479 C-355.53 230.802 -356.331 234.919 -358 239 C-358.66 239.33 -359.32 239.66 -360 240 C-360.623 242.01 -360.623 242.01 -361 244.438 C-362.662 253.681 -364.584 262.869 -366.5 272.062 C-366.819 273.599 -366.819 273.599 -367.145 275.166 C-367.355 276.175 -367.565 277.183 -367.781 278.223 C-367.986 279.212 -368.191 280.2 -368.402 281.219 C-368.767 282.916 -369.15 284.608 -369.566 286.292 C-372.402 297.806 -372.2 309.773 -372.188 321.562 C-372.189 322.606 -372.189 322.606 -372.19 323.671 C-372.189 333.817 -371.723 343.8 -370.438 353.871 C-369.896 358.263 -369.93 362.578 -370 367 C-370.33 367 -370.66 367 -371 367 C-373.389 352.745 -374.499 338.947 -374.375 324.5 C-374.371 323.55 -374.367 322.601 -374.363 321.623 C-374.251 298.853 -372.297 276.6 -367.485 254.306 C-367.032 252.154 -366.63 250 -366.242 247.836 C-360.464 217.112 -347.135 186.135 -332 159 C-331.572 158.23 -331.144 157.461 -330.703 156.667 C-328.722 153.112 -326.729 149.564 -324.715 146.027 C-323.776 144.37 -322.852 142.703 -322 141 C-321.34 141 -320.68 141 -320 141 C-319.66 140.01 -319.66 140.01 -319.312 139 C-317.095 133.932 -314.151 129.431 -310.688 125.125 C-308.793 123.191 -308.793 123.191 -309 121 C-307.356 119.311 -305.686 117.647 -304 116 C-303.34 115.175 -302.68 114.35 -302 113.5 C-299.831 110.788 -297.457 108.457 -295 106 C-290.079 100.644 -285.264 95.194 -280.508 89.691 C-277.6 86.429 -277.6 86.429 -276 85 C-275.34 85 -274.68 85 -274 85 C-273.505 83.515 -273.505 83.515 -273 82 C-271.469 80.457 -271.469 80.457 -269.5 78.812 C-266.607 76.368 -263.783 73.881 -261 71.312 C-248.975 60.644 -235.481 51.699 -222 43 C-220.993 42.347 -220.993 42.347 -219.966 41.681 C-215.503 38.832 -210.951 36.368 -206.188 34.062 C-201.475 31.75 -196.826 29.389 -192.25 26.812 C-186.674 23.734 -180.907 21.363 -175 19 C-173.939 18.539 -172.878 18.077 -171.785 17.602 C-163.727 14.175 -155.551 11.573 -147.125 9.188 C-146.067 8.885 -145.009 8.583 -143.919 8.272 C-139.205 6.973 -134.681 5.87 -129.805 5.426 C-127.921 5.215 -127.921 5.215 -126 5 C-125.67 4.34 -125.34 3.68 -125 3 C-122.419 2.563 -119.913 2.246 -117.312 2 C-115.755 1.838 -114.198 1.674 -112.641 1.508 C-111.859 1.426 -111.077 1.343 -110.271 1.259 C-107.021 0.888 -103.795 0.38 -100.562 -0.125 C-94.996 -0.949 -89.62 -1.233 -84 -1 C-83.67 -1.66 -83.34 -2.32 -83 -3 C-82.308 -2.988 -81.616 -2.977 -80.902 -2.965 C-75.389 -2.914 -69.991 -3.063 -64.5 -3.562 C-42.987 -5.076 -21.335 -2.579 0 0 Z " fill="#949F8E" transform="translate(563,97)"/>
<path d="M0 0 C1.98 0.99 3.96 1.98 6 3 C6 4.65 6 6.3 6 8 C6.99 8.33 7.98 8.66 9 9 C9 9.66 9 10.32 9 11 C9.66 11 10.32 11 11 11 C11.231 11.866 11.461 12.732 11.699 13.625 C13.188 17.488 15.104 19.881 17.812 23 C18.665 23.99 19.517 24.98 20.395 26 C21.254 26.99 22.114 27.98 23 29 C23.846 30.05 24.691 31.101 25.535 32.152 C27.772 34.736 29.858 36.59 32.625 38.562 C36.018 41.103 38.004 43.218 40 47 C41.324 48.012 42.656 49.014 44 50 C44.33 50.99 44.66 51.98 45 53 C46.622 54.682 46.622 54.682 48.625 56.312 C49.698 57.225 49.698 57.225 50.793 58.156 C51.521 58.765 52.25 59.373 53 60 C54.315 61.102 55.627 62.206 56.938 63.312 C57.786 64.018 57.786 64.018 58.652 64.738 C60 66 60 66 61 68 C63.31 69.054 65.643 70.057 68 71 C68 71.66 68 72.32 68 73 C68.547 73.245 69.093 73.49 69.656 73.742 C72.514 75.276 74.932 77.144 77.5 79.125 C82.783 83.152 88.185 86.81 93.797 90.371 C94.524 90.909 95.251 91.446 96 92 C96 92.66 96 93.32 96 94 C96.866 94.186 96.866 94.186 97.75 94.375 C100.023 95.006 101.925 95.889 104 97 C104 97.66 104 98.32 104 99 C105.65 99.33 107.3 99.66 109 100 C109.33 100.99 109.66 101.98 110 103 C110.715 103.112 111.431 103.224 112.168 103.34 C115.191 104.045 117.563 105.133 120.312 106.562 C121.196 107.018 122.079 107.473 122.988 107.941 C123.652 108.291 124.316 108.64 125 109 C125 109.66 125 110.32 125 111 C126.98 111.33 128.96 111.66 131 112 C131 112.66 131 113.32 131 114 C131.701 114.116 132.403 114.232 133.125 114.352 C136.268 115.06 139.031 116.125 142 117.375 C143.011 117.795 144.021 118.215 145.062 118.648 C148 120 148 120 150.395 121.477 C153.681 123.398 157.124 124.698 160.688 126 C161.402 126.264 162.116 126.528 162.851 126.801 C167.323 128.437 171.808 129.923 176.391 131.223 C180.91 132.569 185.35 134.164 189.801 135.719 C200.624 139.174 211.738 140.834 222.965 142.308 C225.366 142.624 227.765 142.952 230.164 143.281 C245.433 145.345 260.541 146.156 275.938 146.062 C277.411 146.057 278.884 146.053 280.357 146.049 C283.905 146.038 287.452 146.021 291 146 C287.989 148.007 287.346 148.257 283.963 148.335 C283.154 148.358 282.346 148.381 281.513 148.405 C280.641 148.419 279.769 148.434 278.871 148.449 C277.967 148.471 277.063 148.493 276.131 148.515 C274.214 148.559 272.296 148.598 270.379 148.633 C267.473 148.687 264.568 148.757 261.662 148.83 C259.794 148.871 257.926 148.911 256.059 148.949 C254.772 148.98 254.772 148.98 253.46 149.012 C248.303 149.097 243.29 148.825 238.165 148.245 C234.408 147.82 230.632 147.619 226.859 147.379 C224 147 224 147 221.238 146.074 C217.031 144.679 212.798 144.007 208.438 143.25 C185.862 139.119 164.84 131.421 144 122 C143.362 121.715 142.724 121.43 142.066 121.137 C133.803 117.443 125.91 113.361 118.102 108.785 C115.578 107.333 113.063 106.004 110.438 104.75 C107.225 103.115 104.761 101.288 102 99 C100.515 98.505 100.515 98.505 99 98 C99 97.34 99 96.68 99 96 C97.68 96 96.36 96 95 96 C94.67 95.34 94.34 94.68 94 94 C92.025 92.952 90.025 91.948 88 91 C88 90.34 88 89.68 88 89 C87.314 88.767 86.628 88.533 85.922 88.293 C82.367 86.72 79.368 84.598 76.25 82.312 C75.632 81.865 75.015 81.417 74.378 80.956 C57.454 68.633 57.454 68.633 52 63 C52 62.34 52 61.68 52 61 C51.443 60.753 50.886 60.505 50.312 60.25 C45.193 57.483 41.731 53.627 38.012 49.262 C35.814 46.79 33.493 44.496 31.125 42.188 C26.017 37.134 21.2 31.844 17 26 C17 25.34 17 24.68 17 24 C16.34 24 15.68 24 15 24 C13.379 21.988 13.379 21.988 11.562 19.312 C10.966 18.442 10.369 17.572 9.754 16.676 C5 9.423 5 9.423 5 7 C4.34 7 3.68 7 3 7 C2.67 5.68 2.34 4.36 2 3 C1.34 3 0.68 3 0 3 C0 2.01 0 1.02 0 0 Z " fill="#EEB299" transform="translate(241,588)"/>
<path d="M0 0 C34.966 -0.412 34.966 -0.412 51.826 1.727 C53.908 1.988 55.991 2.217 58.078 2.438 C66.999 3.465 75.394 5.512 84 8 C90.491 9.851 96.883 11.393 103.539 12.527 C106.465 13.089 109.215 13.946 112 15 C112 15.66 112 16.32 112 17 C113.011 16.938 114.021 16.876 115.062 16.812 C119.555 17.026 122.011 18.046 126 20 C126 20.99 126 21.98 126 23 C126.969 23.082 127.939 23.165 128.938 23.25 C133.671 23.9 137.74 25.923 142 28 C142 29.32 142 30.64 142 32 C135.519 32.531 130.708 30.672 124.75 28.25 C122.865 27.509 120.979 26.768 119.094 26.027 C118.203 25.673 117.312 25.318 116.395 24.953 C103.626 19.873 90.504 15.435 76.871 13.469 C71.837 12.647 66.926 11.31 62 10 C62.33 8.68 62.66 7.36 63 6 C62.08 5.951 61.159 5.902 60.211 5.852 C54.007 5.485 47.945 5.05 41.812 4 C27.782 1.834 13.18 1.875 -1 2 C-0.67 1.34 -0.34 0.68 0 0 Z " fill="#FEF7E1" transform="translate(507,96)"/>
<path d="M0 0 C5.141 2.768 9.402 5.108 12.312 10.375 C13.895 12.836 14.998 13.88 17.25 15.625 C22.066 19.581 24.833 24.708 28 30 C29.14 31.795 30.286 33.587 31.438 35.375 C32.007 36.277 32.577 37.18 33.164 38.109 C34.475 40.173 35.805 42.224 37.148 44.266 C40.669 49.73 43.359 54.133 44.316 60.562 C45.283 64.01 47.104 66.895 48.938 69.938 C53.014 76.725 56 82.986 56 91 C53 90 53 90 51.395 86.91 C50.856 85.632 50.329 84.349 49.812 83.062 C49.54 82.416 49.267 81.77 48.986 81.104 C47 76.309 47 76.309 47 74 C46.34 74 45.68 74 45 74 C44.319 72.175 44.319 72.175 43.625 70.312 C43.35 69.585 43.076 68.858 42.793 68.109 C42.162 66.432 41.547 64.748 40.938 63.062 C40.184 60.83 40.184 60.83 38 60 C36.962 58.115 35.993 56.191 35.062 54.25 C32.188 47.114 32.188 47.114 27 42 C22.639 34.997 22.639 34.997 22 31 C21.34 31 20.68 31 20 31 C19.423 29.948 18.845 28.896 18.25 27.812 C16.873 25.384 15.511 23.389 13.75 21.188 C12 19 12 19 12 17 C11.34 17 10.68 17 10 17 C0 6.157 0 6.157 0 0 Z " fill="#FEF0D3" transform="translate(755,209)"/>
<path d="M0 0 C2.132 3.89 2.293 6.862 2.379 11.32 C2.396 12.02 2.413 12.72 2.43 13.441 C2.483 15.669 2.524 17.897 2.562 20.125 C2.606 22.36 2.653 24.595 2.705 26.83 C2.752 28.853 2.789 30.876 2.826 32.899 C2.789 35.909 2.789 35.909 4 38 C3.934 39.504 3.796 41.005 3.625 42.5 C3.191 46.65 2.922 50.768 2.773 54.938 C2.098 72.119 -1.021 89.292 -5 106 C-5.223 106.959 -5.446 107.918 -5.676 108.906 C-11.548 133.314 -19.779 159.496 -33 181 C-33.66 181.33 -34.32 181.66 -35 182 C-34.494 176.85 -33.327 173.166 -30.875 168.625 C-28.015 163.166 -25.473 157.636 -23.125 151.938 C-22.827 151.224 -22.529 150.51 -22.222 149.774 C-20.77 146.211 -19.579 142.81 -19 139 C-18.34 139 -17.68 139 -17 139 C-16.732 137.763 -16.464 136.525 -16.188 135.25 C-15.313 131.349 -14.424 127.452 -13.5 123.562 C-13.263 122.553 -13.026 121.544 -12.781 120.504 C-12 118 -12 118 -10 116 C-9.5 113.959 -9.097 111.893 -8.746 109.82 C-8.531 108.582 -8.317 107.343 -8.096 106.066 C-7.878 104.766 -7.661 103.465 -7.438 102.125 C-7 99.565 -6.561 97.005 -6.121 94.445 C-5.834 92.736 -5.834 92.736 -5.541 90.993 C-5.113 88.624 -4.625 86.322 -4 84 C-3.34 84 -2.68 84 -2 84 C0.865 56.08 0.199 28.026 0 0 Z " fill="#FDBC94" transform="translate(835,382)"/>
<path d="M0 0 C1.98 0.99 3.96 1.98 6 3 C6 4.65 6 6.3 6 8 C6.99 8.33 7.98 8.66 9 9 C9 9.66 9 10.32 9 11 C9.66 11 10.32 11 11 11 C11.231 11.866 11.461 12.732 11.699 13.625 C13.188 17.488 15.104 19.881 17.812 23 C18.665 23.99 19.517 24.98 20.395 26 C21.254 26.99 22.114 27.98 23 29 C23.846 30.05 24.691 31.101 25.535 32.152 C27.772 34.736 29.858 36.59 32.625 38.562 C36.018 41.103 38.004 43.218 40 47 C41.324 48.012 42.656 49.014 44 50 C44.33 50.99 44.66 51.98 45 53 C46.622 54.682 46.622 54.682 48.625 56.312 C49.698 57.225 49.698 57.225 50.793 58.156 C51.521 58.765 52.25 59.373 53 60 C54.315 61.102 55.627 62.206 56.938 63.312 C57.786 64.018 57.786 64.018 58.652 64.738 C60 66 60 66 61 68 C63.31 69.054 65.643 70.057 68 71 C68 71.66 68 72.32 68 73 C68.547 73.245 69.093 73.49 69.656 73.742 C72.514 75.276 74.932 77.144 77.5 79.125 C82.783 83.152 88.185 86.81 93.797 90.371 C94.524 90.909 95.251 91.446 96 92 C96 92.66 96 93.32 96 94 C96.866 94.186 96.866 94.186 97.75 94.375 C100.023 95.006 101.925 95.889 104 97 C104 97.66 104 98.32 104 99 C105.65 99.33 107.3 99.66 109 100 C109.33 100.99 109.66 101.98 110 103 C111.114 103.186 111.114 103.186 112.25 103.375 C114.849 103.966 116.764 104.563 119 106 C119.33 106.99 119.66 107.98 120 109 C113.309 106.491 107.514 103.569 102 99 C100.515 98.505 100.515 98.505 99 98 C99 97.34 99 96.68 99 96 C97.68 96 96.36 96 95 96 C94.67 95.34 94.34 94.68 94 94 C92.025 92.952 90.025 91.948 88 91 C88 90.34 88 89.68 88 89 C87.314 88.767 86.628 88.533 85.922 88.293 C82.367 86.72 79.368 84.598 76.25 82.312 C75.632 81.865 75.015 81.417 74.378 80.956 C57.454 68.633 57.454 68.633 52 63 C52 62.34 52 61.68 52 61 C51.443 60.753 50.886 60.505 50.312 60.25 C45.193 57.483 41.731 53.627 38.012 49.262 C35.814 46.79 33.493 44.496 31.125 42.188 C26.017 37.134 21.2 31.844 17 26 C17 25.34 17 24.68 17 24 C16.34 24 15.68 24 15 24 C13.379 21.988 13.379 21.988 11.562 19.312 C10.966 18.442 10.369 17.572 9.754 16.676 C5 9.423 5 9.423 5 7 C4.34 7 3.68 7 3 7 C2.67 5.68 2.34 4.36 2 3 C1.34 3 0.68 3 0 3 C0 2.01 0 1.02 0 0 Z " fill="#D6B099" transform="translate(241,588)"/>
<path d="M0 0 C3.97 1.173 6.749 2.483 10 5 C11.154 5.402 11.154 5.402 12.332 5.812 C15.508 7.226 17.245 8.981 19.625 11.5 C22.042 14.041 24.07 16.047 27 18 C27 18.66 27 19.32 27 20 C27.99 20.33 28.98 20.66 30 21 C30.667 22.667 31.333 24.333 32 26 C34.295 29.24 36.672 31.782 40 34 C41.618 36.64 42 37.84 42 41 C41.34 41 40.68 41 40 41 C40 40.34 40 39.68 40 39 C39.361 38.897 38.721 38.794 38.062 38.688 C37.382 38.461 36.701 38.234 36 38 C35.67 37.01 35.34 36.02 35 35 C33 33.791 33 33.791 31 33 C31 32.34 31 31.68 31 31 C30.34 31 29.68 31 29 31 C27.59 29.531 27.59 29.531 25.938 27.5 C22.523 23.452 18.777 20.062 14.723 16.664 C14.154 16.115 13.586 15.566 13 15 C13 14.34 13 13.68 13 13 C12.01 13 11.02 13 10 13 C8.747 11.582 7.502 10.154 6.34 8.66 C4.842 6.738 4.842 6.738 2.188 4.25 C0 2 0 2 0 0 Z " fill="#FEF6DE" transform="translate(710,165)"/>
<path d="M0 0 C4.455 0.99 4.455 0.99 9 2 C9 2.66 9 3.32 9 4 C9.594 4.063 10.189 4.126 10.801 4.191 C18.522 5.332 23.654 8.637 30 13 C32.955 14.818 35.916 16.623 38.883 18.422 C41 20 41 20 42 23 C44.015 23.733 44.015 23.733 46 24 C46.495 25.98 46.495 25.98 47 28 C48.65 28.33 50.3 28.66 52 29 C52.495 30.485 52.495 30.485 53 32 C53.66 32 54.32 32 55 32 C55 32.66 55 33.32 55 34 C51.656 33.443 48.967 32.648 46 31 C46 30.34 46 29.68 46 29 C44.904 28.604 44.904 28.604 43.785 28.2 C40.989 26.995 38.873 25.607 36.434 23.797 C30.879 19.821 25.047 16.529 19.062 13.25 C17.03 12.135 15 11.015 12.973 9.891 C12.088 9.406 11.204 8.922 10.293 8.423 C8.175 7.108 6.709 5.789 5 4 C3.337 2.994 1.671 1.993 0 1 C0 0.67 0 0.34 0 0 Z " fill="#FEF8E3" transform="translate(652,129)"/>
<path d="M0 0 C1.759 0.203 3.518 0.405 5.277 0.605 C15.843 1.843 15.843 1.843 17 3 C18.512 3.391 20.035 3.74 21.562 4.062 C22.802 4.327 22.802 4.327 24.066 4.598 C24.704 4.73 25.343 4.863 26 5 C26 5.33 26 5.66 26 6 C24.395 5.859 22.791 5.712 21.188 5.562 C20.294 5.481 19.401 5.4 18.48 5.316 C16 5 16 5 13 4 C-30.607 -3.392 -80.935 -4.577 -123.895 6.573 C-126 7 -126 7 -130 7 C-130 6.34 -130 5.68 -130 5 C-128.68 5 -127.36 5 -126 5 C-125.67 4.34 -125.34 3.68 -125 3 C-122.419 2.563 -119.913 2.246 -117.312 2 C-115.755 1.838 -114.198 1.674 -112.641 1.508 C-111.468 1.385 -111.468 1.385 -110.271 1.259 C-107.021 0.888 -103.795 0.38 -100.562 -0.125 C-94.996 -0.949 -89.62 -1.233 -84 -1 C-83.67 -1.66 -83.34 -2.32 -83 -3 C-82.308 -2.988 -81.616 -2.977 -80.902 -2.965 C-75.389 -2.914 -69.991 -3.063 -64.5 -3.562 C-42.987 -5.076 -21.335 -2.579 0 0 Z " fill="#BEAB91" transform="translate(563,97)"/>
<path d="M0 0 C5.828 0.353 10.898 1.171 16.375 3.176 C20.97 4.619 25.719 5.384 30.449 6.254 C33.75 6.947 36.828 7.865 40 9 C40 9.66 40 10.32 40 11 C41.011 10.938 42.021 10.876 43.062 10.812 C47.555 11.026 50.011 12.046 54 14 C54 14.99 54 15.98 54 17 C54.969 17.082 55.939 17.165 56.938 17.25 C61.671 17.9 65.74 19.923 70 22 C70 23.32 70 24.64 70 26 C63.773 26.468 59.272 24.883 53.562 22.5 C52.736 22.166 51.909 21.832 51.057 21.488 C49.033 20.67 47.016 19.836 45 19 C47.491 18.313 49.379 18 52 18 C52 17.34 52 16.68 52 16 C51.072 15.918 50.144 15.835 49.188 15.75 C43.865 14.991 39.006 12.885 34 11 C27.291 8.571 20.804 6.644 13.758 5.504 C9.09 4.651 4.553 3.321 0 2 C0 1.34 0 0.68 0 0 Z " fill="#FDEACB" transform="translate(579,102)"/>
<path d="M0 0 C-4.063 2.709 -8.1 4 -13 4 C-14.798 4.413 -16.588 4.855 -18.375 5.312 C-24.544 6.775 -30.724 7.791 -37 8.688 C-37.908 8.819 -38.816 8.95 -39.751 9.085 C-43.887 9.659 -47.822 10.009 -52 10 C-53.67 10.316 -55.337 10.649 -57 11 C-60.991 11.44 -64.996 11.709 -69 12 C-70.258 12.094 -71.516 12.188 -72.812 12.285 C-84.891 13.145 -96.968 13.689 -109 12 C-109 11.67 -109 11.34 -109 11 C-107.983 10.98 -106.966 10.96 -105.917 10.94 C-102.074 10.863 -98.231 10.774 -94.388 10.683 C-92.738 10.645 -91.087 10.61 -89.437 10.578 C-79.114 10.377 -69.2 9.691 -59 8 C-57.663 7.816 -56.324 7.639 -54.984 7.473 C-48.419 6.64 -41.898 5.676 -35.375 4.562 C-28.491 3.391 -21.598 2.315 -14.688 1.312 C-13.798 1.181 -12.908 1.05 -11.992 0.914 C-7.965 0.339 -4.081 -0.177 0 0 Z " fill="#F9AD91" transform="translate(602,725)"/>
<path d="M0 0 C0.66 0 1.32 0 2 0 C2.33 0.99 2.66 1.98 3 3 C2.443 3.681 1.886 4.361 1.312 5.062 C-1.329 8.418 -2.541 11.61 -3.973 15.598 C-5.032 18.076 -6.326 19.901 -8 22 C-9.183 24.157 -10.091 26.249 -10.938 28.562 C-12 31 -12 31 -13.5 32.375 C-15.349 34.378 -15.6 35.774 -16.062 38.438 C-16.633 41.65 -17.478 44.116 -19 47 C-19.433 48.361 -19.433 48.361 -19.875 49.75 C-21.242 53.698 -23.067 57.304 -25 61 C-25.33 61 -25.66 61 -26 61 C-25.559 55.774 -25.074 50.879 -23 46 C-22.01 45.505 -22.01 45.505 -21 45 C-20.229 42.967 -19.557 40.896 -18.938 38.812 C-18.596 37.685 -18.254 36.557 -17.902 35.395 C-17.071 32.268 -16.471 29.199 -16 26 C-15.34 26 -14.68 26 -14 26 C-13.885 25.437 -13.77 24.874 -13.652 24.293 C-12.92 21.72 -11.857 19.648 -10.566 17.305 C-10.082 16.424 -9.598 15.544 -9.1 14.637 C-8.592 13.725 -8.085 12.814 -7.562 11.875 C-7.059 10.956 -6.556 10.037 -6.037 9.09 C-2.263 2.263 -2.263 2.263 0 0 Z " fill="#D0C7AA" transform="translate(238,250)"/>
<path d="M0 0 C0.495 0.99 0.495 0.99 1 2 C0.42 2.692 0.42 2.692 -0.172 3.398 C-3.172 7.156 -5.396 10.597 -7.062 15.125 C-8.696 19.559 -10.877 22.42 -14 26 C-15.307 28.217 -16.513 30.466 -17.691 32.754 C-19 35 -19 35 -20.828 37.207 C-23.737 40.947 -25.919 44.975 -28.188 49.125 C-28.863 50.341 -28.863 50.341 -29.553 51.582 C-31.279 54.713 -32.866 57.599 -34 61 C-34.66 61 -35.32 61 -36 61 C-36.33 63.97 -36.66 66.94 -37 70 C-37.66 70 -38.32 70 -39 70 C-39.66 71.65 -40.32 73.3 -41 75 C-42.929 69.212 -38.536 63.082 -35.922 57.838 C-30.782 47.758 -25.311 37.86 -19.715 28.027 C-18.776 26.37 -17.852 24.703 -17 23 C-16.34 23 -15.68 23 -15 23 C-14.773 22.34 -14.546 21.68 -14.312 21 C-12.095 15.932 -9.151 11.431 -5.688 7.125 C-3.793 5.191 -3.793 5.191 -4 3 C-2 1.375 -2 1.375 0 0 Z " fill="#8F9D8D" transform="translate(258,215)"/>
<path d="M0 0 C0.955 2.17 1.144 3.563 0.398 5.824 C-0.359 7.568 -1.176 9.286 -2 11 C-2.66 11 -3.32 11 -4 11 C-4.121 11.568 -4.242 12.137 -4.367 12.723 C-7.318 26.318 -7.318 26.318 -9 28 C-9.661 31.486 -10.242 34.976 -10.807 38.479 C-11.53 42.802 -12.331 46.919 -14 51 C-14.99 51.495 -14.99 51.495 -16 52 C-16.615 54.284 -16.615 54.284 -17 56.938 C-17.78 61.78 -17.78 61.78 -20 64 C-20.466 56.806 -18.765 50.896 -16.625 44.062 C-14.036 35.747 -14.036 35.747 -11.953 27.297 C-11.005 22.802 -9.643 18.52 -8.125 14.188 C-7.76 13.082 -7.76 13.082 -7.387 11.955 C-5.903 7.699 -4.489 5.014 -1 2 C-0.67 1.34 -0.34 0.68 0 0 Z " fill="#919E8E" transform="translate(219,285)"/>
<path d="M0 0 C2.772 2.772 2.537 5.584 2.875 9.312 C3.567 15.94 5.053 21.869 7.18 28.203 C8.198 31.675 8.333 34.421 8 38 C8.99 38.33 9.98 38.66 11 39 C12.062 41.766 12.062 41.766 13 45.25 C14.287 50.025 14.287 50.025 16.484 54.414 C18.495 57.844 19.326 61.282 20.25 65.125 C20.436 65.84 20.621 66.556 20.812 67.293 C22.127 72.62 22.127 72.62 21 76 C17.562 69.715 15.254 64.065 14 57 C13.34 57 12.68 57 12 57 C11.752 55.948 11.505 54.896 11.25 53.812 C10.348 50.178 9.263 46.63 8.125 43.062 C3.905 29.488 -0.65 14.307 0 0 Z " fill="#A9A792" transform="translate(193,464)"/>
<path d="M0 0 C6.467 3.482 10.228 6.604 14 13 C14.516 13.495 15.031 13.99 15.562 14.5 C17 16 17 16 17.895 18.305 C19.365 21.89 21.517 24.773 23.758 27.914 C25 30 25 30 25 33 C21.101 32.025 20.11 31.177 17.938 27.688 C17.622 27.069 17.306 26.45 16.98 25.812 C15.929 23.74 15.929 23.74 13.75 21.188 C12 19 12 19 12 17 C11.34 17 10.68 17 10 17 C0 6.157 0 6.157 0 0 Z " fill="#FEF7E1" transform="translate(755,209)"/>
<path d="M0 0 C18.121 -0.213 35.989 -0.283 54 2 C55.5 2.171 57 2.34 58.5 2.508 C68.539 3.693 68.539 3.693 72 6 C63.247 6.373 54.973 5.834 46.312 4.562 C30.659 2.295 14.806 1.885 -1 2 C-0.67 1.34 -0.34 0.68 0 0 Z " fill="#FCE7C3" transform="translate(507,96)"/>
<path d="M0 0 C2.132 3.89 2.293 6.862 2.379 11.32 C2.396 12.02 2.413 12.72 2.43 13.441 C2.483 15.669 2.524 17.897 2.562 20.125 C2.606 22.36 2.653 24.595 2.705 26.83 C2.752 28.853 2.789 30.876 2.826 32.899 C2.789 35.909 2.789 35.909 4 38 C3.934 39.504 3.796 41.005 3.625 42.5 C3.191 46.651 2.922 50.771 2.773 54.942 C2.284 67.454 0.154 79.682 -2 92 C-2.33 92 -2.66 92 -3 92 C-3.093 86.482 -2.783 81.217 -2.062 75.75 C-0.6 64.418 0.149 53.227 0.098 41.797 C0.096 40.593 0.095 39.389 0.093 38.149 C0.088 34.349 0.075 30.55 0.062 26.75 C0.057 24.155 0.053 21.56 0.049 18.965 C0.038 12.643 0.021 6.322 0 0 Z " fill="#FCAF89" transform="translate(835,382)"/>
<path d="M0 0 C1.875 0.25 1.875 0.25 4 1 C4.704 2.314 5.363 3.652 6 5 C7.648 6.685 9.318 8.349 11 10 C18.493 17.958 25.472 26.236 32 35 C31.67 35.66 31.34 36.32 31 37 C28.484 34.62 26.302 32.549 24.625 29.5 C22.334 25.975 19.498 24.31 16 22 C16.66 23.65 17.32 25.3 18 27 C17.34 27 16.68 27 16 27 C12 22.529 12 22.529 12 20 C11.01 19.67 10.02 19.34 9 19 C8.67 18.01 8.34 17.02 8 16 C8.66 16 9.32 16 10 16 C10 16.66 10 17.32 10 18 C10.66 18 11.32 18 12 18 C10.067 12.811 8.186 9.778 4 6 C2.63 4.704 1.285 3.38 0 2 C0 1.34 0 0.68 0 0 Z " fill="#FDE6C8" transform="translate(740,188)"/>
<path d="M0 0 C0.66 0.33 1.32 0.66 2 1 C-2.333 5.333 -6.667 9.667 -11 14 C-11.722 14.763 -12.444 15.526 -13.188 16.312 C-15 18 -15 18 -17 18 C-17.104 18.595 -17.208 19.189 -17.316 19.802 C-18.107 22.345 -19.029 23.353 -20.949 25.172 C-21.548 25.75 -22.146 26.329 -22.762 26.925 C-23.715 27.828 -23.715 27.828 -24.688 28.75 C-29.656 33.568 -33.979 38.35 -38 44 C-38.99 44.66 -39.98 45.32 -41 46 C-40.693 40.563 -37.49 37.866 -33.875 34.188 C-32.684 32.945 -31.494 31.701 -30.305 30.457 C-29.446 29.565 -29.446 29.565 -28.569 28.655 C-26.641 26.621 -24.812 24.513 -23 22.375 C-20.557 19.536 -17.935 17.333 -15 15 C-14.044 13.912 -13.108 12.806 -12.188 11.688 C-8.846 7.658 -4.988 4.37 -1 1 C-0.67 0.67 -0.34 0.34 0 0 Z " fill="#DCD1B1" transform="translate(306,168)"/>
<path d="M0 0 C5.828 0.353 10.898 1.171 16.375 3.176 C20.97 4.619 25.719 5.384 30.449 6.254 C33.75 6.947 36.828 7.865 40 9 C40 9.66 40 10.32 40 11 C41.011 10.938 42.021 10.876 43.062 10.812 C47.555 11.026 50.011 12.046 54 14 C49.992 15.585 46.483 14.383 42.5 13.312 C41.434 13.037 41.434 13.037 40.347 12.756 C36.064 11.626 31.873 10.329 27.688 8.875 C23.069 7.271 18.578 6.284 13.758 5.504 C9.09 4.651 4.553 3.321 0 2 C0 1.34 0 0.68 0 0 Z " fill="#FCE5C3" transform="translate(579,102)"/>
<path d="M0 0 C0.33 0 0.66 0 1 0 C1.01 0.58 1.021 1.16 1.031 1.757 C1.139 7.792 1.254 13.826 1.372 19.861 C1.416 22.113 1.457 24.365 1.497 26.618 C1.555 29.855 1.619 33.091 1.684 36.328 C1.7 37.336 1.717 38.343 1.734 39.381 C1.754 40.322 1.774 41.262 1.795 42.231 C1.818 43.471 1.818 43.471 1.842 44.735 C1.996 46.941 2.465 48.862 3 51 C2.915 53.42 2.764 55.837 2.562 58.25 C2.461 59.513 2.359 60.777 2.254 62.078 C2.17 63.042 2.086 64.007 2 65 C1.67 65 1.34 65 1 65 C-0.635 52.854 -1.2 40.807 -1.188 28.562 C-1.188 27.888 -1.189 27.214 -1.19 26.519 C-1.189 17.635 -0.817 8.847 0 0 Z " fill="#BDB99F" transform="translate(191,390)"/>
<path d="M0 0 C1.98 0.99 3.96 1.98 6 3 C6 4.65 6 6.3 6 8 C6.99 8.33 7.98 8.66 9 9 C9 9.66 9 10.32 9 11 C9.66 11 10.32 11 11 11 C11.236 11.873 11.472 12.745 11.715 13.645 C13.153 17.4 14.926 19.663 17.562 22.688 C18.462 23.731 19.36 24.776 20.258 25.82 C20.713 26.345 21.169 26.87 21.638 27.411 C23.789 29.92 25.859 32.493 27.938 35.062 C30.188 37.843 32.413 40.527 35 43 C34.505 43.99 34.505 43.99 34 45 C27.822 39.125 22.022 32.905 17 26 C17 25.34 17 24.68 17 24 C16.34 24 15.68 24 15 24 C13.379 21.988 13.379 21.988 11.562 19.312 C10.966 18.442 10.369 17.572 9.754 16.676 C5 9.423 5 9.423 5 7 C4.34 7 3.68 7 3 7 C2.67 5.68 2.34 4.36 2 3 C1.34 3 0.68 3 0 3 C0 2.01 0 1.02 0 0 Z " fill="#C2A894" transform="translate(241,588)"/>
<path d="M0 0 C1.239 3.541 0.743 5.714 -0.363 9.254 C-0.673 10.274 -0.983 11.294 -1.303 12.346 C-1.636 13.407 -1.969 14.469 -2.312 15.562 C-4.48 22.534 -6.359 29.352 -7.558 36.558 C-8.141 39.776 -9.091 42.861 -10 46 C-10.611 48.968 -11.123 51.949 -11.625 54.938 C-11.759 55.717 -11.893 56.496 -12.031 57.299 C-12.358 59.199 -12.679 61.099 -13 63 C-13.33 63 -13.66 63 -14 63 C-13.438 53.851 -11.826 44.964 -10 36 C-9.785 34.918 -9.785 34.918 -9.566 33.814 C-7.247 22.209 -3.954 11.15 0 0 Z " fill="#809286" transform="translate(206,313)"/>
<path d="M0 0 C7.027 1.622 13.269 6.631 18 12 C18.688 14.688 18.688 14.688 19 17 C17.35 16.67 15.7 16.34 14 16 C13.67 15.01 13.34 14.02 13 13 C12.01 13 11.02 13 10 13 C8.747 11.582 7.502 10.154 6.34 8.66 C4.842 6.738 4.842 6.738 2.188 4.25 C0 2 0 2 0 0 Z " fill="#FEF6DF" transform="translate(710,165)"/>
<path d="M0 0 C2.421 2.421 2.72 4.083 3.562 7.375 C3.811 8.331 4.06 9.288 4.316 10.273 C4.718 11.875 5.115 13.477 5.5 15.082 C5.848 16.418 6.247 17.741 6.684 19.051 C8.809 25.428 9.733 31.714 10.473 38.387 C10.925 42.058 10.925 42.058 12.082 45.742 C13.081 49.287 12.864 51.459 12 55 C11.67 55 11.34 55 11 55 C9.723 49.689 8.743 44.429 8.062 39.011 C6.952 30.295 5.138 22.3 1.981 14.088 C0.143 9.167 -0.265 5.26 0 0 Z " fill="#FBAE89" transform="translate(823,327)"/>
<path d="M0 0 C0.66 0 1.32 0 2 0 C2.33 0.99 2.66 1.98 3 3 C1.703 4.695 0.359 6.354 -1 8 C-2.311 10.277 -3.541 12.584 -4.754 14.914 C-6 17 -6 17 -7.484 18.449 C-9.464 20.475 -10.464 22.641 -11.688 25.188 C-12.124 26.089 -12.561 26.99 -13.012 27.918 C-13.338 28.605 -13.664 29.292 -14 30 C-14.66 30 -15.32 30 -16 30 C-16 28.68 -16 27.36 -16 26 C-15.34 26 -14.68 26 -14 26 C-13.885 25.437 -13.77 24.874 -13.652 24.293 C-12.92 21.72 -11.857 19.648 -10.566 17.305 C-10.082 16.424 -9.598 15.544 -9.1 14.637 C-8.592 13.725 -8.085 12.814 -7.562 11.875 C-7.059 10.956 -6.556 10.037 -6.037 9.09 C-2.263 2.263 -2.263 2.263 0 0 Z " fill="#DBCFAF" transform="translate(238,250)"/>
<path d="M0 0 C1.176 0.402 1.176 0.402 2.375 0.812 C4.288 1.439 6.21 2.05 8.168 2.52 C16.057 4.514 22.283 8.568 29 13 C28.34 13.33 27.68 13.66 27 14 C25.332 13.033 23.667 12.061 22.02 11.059 C18.803 9.373 15.543 8.746 12 8 C12 7.34 12 6.68 12 6 C9.36 5.67 6.72 5.34 4 5 C5.98 6.32 7.96 7.64 10 9 C6.371 9 4.138 7.93 0.812 6.5 C-0.274 6.036 -1.361 5.572 -2.48 5.094 C-3.728 4.552 -3.728 4.552 -5 4 C-5 3.67 -5 3.34 -5 3 C-3.35 3 -1.7 3 0 3 C0 2.01 0 1.02 0 0 Z " fill="#FEF1D4" transform="translate(649,125)"/>
<path d="M0 0 C4.412 4.065 7.602 8.552 10.875 13.562 C11.397 14.356 11.92 15.149 12.458 15.967 C21.815 30.276 21.815 30.276 24 35 C23.67 35.66 23.34 36.32 23 37 C22.67 36.01 22.34 35.02 22 34 C21.34 34 20.68 34 20 34 C18.609 32.025 17.355 30.073 16.125 28 C15.766 27.407 15.406 26.814 15.036 26.203 C13.123 23.012 11.344 19.799 9.75 16.438 C8.094 13.185 6.663 11.414 4 9 C0 4.556 0 4.556 0 0 Z " fill="#FCC098" transform="translate(772,225)"/>
<path d="M0 0 C1.639 4.062 0.317 7.665 -0.812 11.688 C-0.991 12.377 -1.17 13.066 -1.354 13.775 C-1.833 15.537 -2.41 17.272 -3 19 C-3.66 19.33 -4.32 19.66 -5 20 C-5.615 22.284 -5.615 22.284 -6 24.938 C-6.78 29.78 -6.78 29.78 -9 32 C-9.377 25.27 -8.059 19.882 -6 13.5 C-5.571 12.123 -5.571 12.123 -5.133 10.719 C-4.432 8.476 -3.721 6.237 -3 4 C-2.34 4 -1.68 4 -1 4 C-0.67 2.68 -0.34 1.36 0 0 Z " fill="#CFC7A7" transform="translate(208,317)"/>
<path d="M0 0 C5.172 4.815 7.755 10.088 9.875 16.75 C10.246 17.492 10.618 18.235 11 19 C11.66 19.165 12.32 19.33 13 19.5 C13.66 19.665 14.32 19.83 15 20 C16.188 22.5 16.188 22.5 17 25 C17.33 25.33 17.66 25.66 18 26 C18.041 27.666 18.043 29.334 18 31 C16.624 29.71 15.292 28.373 14 27 C14 26.34 14 25.68 14 25 C13.34 25 12.68 25 12 25 C11.72 24.429 11.441 23.858 11.152 23.27 C8.045 16.985 4.748 10.822 1.355 4.688 C0 2 0 2 0 0 Z " fill="#B9AA94" transform="translate(223,557)"/>
<path d="M0 0 C0.33 0 0.66 0 1 0 C1.329 7.008 0.082 13.3 -1.438 20.125 C-1.896 22.232 -2.353 24.338 -2.809 26.445 C-3.02 27.415 -3.231 28.385 -3.449 29.384 C-4.051 32.244 -4.565 35.109 -5 38 C-5.33 38 -5.66 38 -6 38 C-7.052 25.26 -3.643 12.143 0 0 Z " fill="#B1B39A" transform="translate(198,349)"/>
<path d="M0 0 C2 1 2 1 2.965 3.766 C3.286 4.915 3.607 6.065 3.938 7.25 C5.269 12.023 5.269 12.023 7.488 16.414 C9.494 19.845 10.326 23.283 11.25 27.125 C11.436 27.84 11.621 28.556 11.812 29.293 C13.127 34.62 13.127 34.62 12 38 C8.848 32.429 6.739 27.89 6.375 21.492 C5.717 17.12 3.86 13.17 2.156 9.113 C1.02 6.055 0.426 3.227 0 0 Z " fill="#D4C3A4" transform="translate(202,502)"/>
<path d="M0 0 C0.66 0.33 1.32 0.66 2 1 C1.466 1.643 0.933 2.286 0.383 2.949 C-3.947 8.2 -8.211 13.492 -12.375 18.875 C-12.791 19.41 -13.207 19.944 -13.636 20.495 C-15.987 23.551 -18.086 26.654 -20 30 C-20 25.258 -17.188 21.553 -14.375 17.875 C-12.876 16.017 -12.876 16.017 -12.125 13.562 C-10.238 9.264 -6.868 6.69 -3.25 3.812 C-0.925 2.197 -0.925 2.197 0 0 Z " fill="#9DA994" transform="translate(271,201)"/>
<path d="M0 0 C0.744 0.563 0.744 0.563 1.504 1.137 C2.183 1.648 2.863 2.16 3.562 2.688 C4.286 3.233 5.009 3.778 5.754 4.34 C7.807 5.858 9.894 7.307 12 8.75 C12.99 9.493 13.98 10.235 15 11 C15 11.66 15 12.32 15 13 C16.32 13 17.64 13 19 13 C19 13.66 19 14.32 19 15 C19.784 15.083 20.567 15.165 21.375 15.25 C24 16 24 16 25.312 18.062 C25.539 18.702 25.766 19.341 26 20 C23.69 19.67 21.38 19.34 19 19 C18.67 17.68 18.34 16.36 18 15 C17.165 14.907 17.165 14.907 16.312 14.812 C13.664 13.882 12.505 12.494 10.633 10.469 C7.793 7.914 4.428 6.193 1.109 4.332 C-1 3 -1 3 -2 1 C-1.34 0.67 -0.68 0.34 0 0 Z " fill="#F6CCA9" transform="translate(680,138)"/>
<path d="M0 0 C0 4.147 -2.244 6.174 -4.75 9.25 C-7.518 12.67 -10.056 15.973 -12.141 19.859 C-14 23 -14 23 -17 24 C-13.877 15.588 -7.55 5.034 0 0 Z " fill="#D4CBAC" transform="translate(256,226)"/>
<path d="M0 0 C6.193 -0.199 12.124 0.569 18.25 1.438 C19.243 1.572 20.235 1.707 21.258 1.846 C28.594 2.865 28.594 2.865 32 4 C32 4.66 32 5.32 32 6 C29.624 5.885 27.25 5.758 24.875 5.625 C24.21 5.594 23.545 5.563 22.859 5.531 C18.574 5.279 15.023 4.443 11 3 C9.049 2.587 7.09 2.211 5.125 1.875 C4.158 1.707 3.191 1.54 2.195 1.367 C1.471 1.246 0.746 1.125 0 1 C0 0.67 0 0.34 0 0 Z " fill="#EFA892" transform="translate(448,730)"/>
<path d="M0 0 C0.33 0 0.66 0 1 0 C1.125 7.625 1.125 7.625 0 11 C-0.176 12.726 -0.318 14.456 -0.438 16.188 C-0.834 20.997 -1.687 25.362 -3 30 C-3.33 30 -3.66 30 -4 30 C-4.581 19.649 -2.577 9.981 0 0 Z " fill="#CBC3A4" transform="translate(196,368)"/>
<path d="M0 0 C3.208 2.139 3.714 3.005 5.227 6.395 C5.618 7.268 6.01 8.141 6.414 9.041 C7.013 10.413 7.013 10.413 7.625 11.812 C8.032 12.715 8.44 13.618 8.859 14.549 C10.707 18.711 12.227 22.491 13 27 C10.607 24.843 9.386 22.978 8.188 20 C6.2 15.275 3.752 10.906 1.172 6.48 C0 4 0 4 0 0 Z " fill="#FBB690" transform="translate(799,268)"/>
<path d="M0 0 C9.122 4.362 9.122 4.362 12 7 C12 7.66 12 8.32 12 9 C11.34 9 10.68 9 10 9 C10.33 9.99 10.66 10.98 11 12 C7.634 10.557 5.49 8.667 3 6 C3.33 5.34 3.66 4.68 4 4 C2.68 3.34 1.36 2.68 0 2 C0 1.34 0 0.68 0 0 Z " fill="#FEF4DA" transform="translate(682,143)"/>
<path d="M0 0 C1.626 0.309 3.251 0.622 4.875 0.938 C5.78 1.112 6.685 1.286 7.617 1.465 C10 2 10 2 12 3 C12 3.66 12 4.32 12 5 C13.011 4.938 14.021 4.876 15.062 4.812 C19.555 5.026 22.011 6.046 26 8 C19.781 10.151 12.757 7.207 6.992 4.684 C4.631 3.503 2.303 2.289 0 1 C0 0.67 0 0.34 0 0 Z " fill="#E4BA9B" transform="translate(607,108)"/>
<path d="M0 0 C4.585 0.449 8.679 1.419 13 3 C13 3.99 13 4.98 13 6 C6.604 6.369 6.604 6.369 3.75 4.625 C3.173 4.089 2.595 3.552 2 3 C1.01 2.34 0.02 1.68 -1 1 C-0.67 0.67 -0.34 0.34 0 0 Z " fill="#FEFAE8" transform="translate(636,122)"/>
<path d="M0 0 C0.99 0.495 0.99 0.495 2 1 C2.562 2.961 2.562 2.961 3 5.375 C3.602 8.675 4.076 10.114 6 13 C6 14.32 6 15.64 6 17 C4.125 16.875 4.125 16.875 2 16 C0.353 12.393 -0.272 10.815 1 7 C0.722 4.659 0.395 2.324 0 0 Z " fill="#FDDFBC" transform="translate(796,262)"/>
<path d="M0 0 C3.454 2.669 4.125 5.842 5 10 C4.625 12.438 4.625 12.438 4 14 C3.34 13.67 2.68 13.34 2 13 C2 12.34 2 11.68 2 11 C1.34 10.67 0.68 10.34 0 10 C-0.891 6.355 -1.237 3.573 0 0 Z " fill="#FEEDCD" transform="translate(793,259)"/>
<path d="M0 0 C7.224 2.733 7.224 2.733 9.188 5.938 C10 8 10 8 10 11 C9.34 11 8.68 11 8 11 C8 10.34 8 9.68 8 9 C7.134 8.938 7.134 8.938 6.25 8.875 C2.831 7.545 1.773 5.103 0 2 C0 1.34 0 0.68 0 0 Z " fill="#FEFAE8" transform="translate(742,195)"/>
<path d="M0 0 C5.344 -0.218 10.511 0.203 15.812 0.875 C17.098 1.037 18.383 1.2 19.707 1.367 C23 2 23 2 26 4 C23.604 4.054 21.209 4.094 18.812 4.125 C17.802 4.15 17.802 4.15 16.771 4.176 C12.675 4.216 9.702 3.72 6 2 C4.008 1.624 2.008 1.28 0 1 C0 0.67 0 0.34 0 0 Z " fill="#F8DDBA" transform="translate(553,98)"/>
<path d="M0 0 C0.33 0 0.66 0 1 0 C1.098 6.152 1.098 6.152 1 8 C0.67 8.33 0.34 8.66 0 9 C-0.533 11.541 -0.964 14.093 -1.402 16.652 C-2 19 -2 19 -4 21 C-4.594 13.427 -2.433 7.125 0 0 Z " fill="#B2B49C" transform="translate(203,328)"/>
<path d="M0 0 C0.66 0.33 1.32 0.66 2 1 C0.77 8.478 -0.888 15.722 -3 23 C-4.336 19.201 -3.771 15.995 -3.188 12.062 C-3.016 10.857 -2.845 9.652 -2.668 8.41 C-2.072 5.369 -1.266 2.816 0 0 Z " fill="#D7CBAB" transform="translate(201,344)"/>
<path d="M0 0 C0.715 1.578 0.715 1.578 1 4 C-0.057 6.385 -1.132 8.512 -2.438 10.75 C-2.776 11.352 -3.114 11.954 -3.463 12.574 C-4.298 14.056 -5.147 15.529 -6 17 C-6.66 17 -7.32 17 -8 17 C-8 15.68 -8 14.36 -8 13 C-7.34 13 -6.68 13 -6 13 C-5.832 12.157 -5.832 12.157 -5.66 11.297 C-4.909 8.685 -3.788 6.605 -2.438 4.25 C-1.982 3.451 -1.527 2.652 -1.059 1.828 C-0.535 0.923 -0.535 0.923 0 0 Z " fill="#BABAA0" transform="translate(230,263)"/>
<path d="M0 0 C6.096 1.648 11.669 4.658 17 8 C17.33 8.66 17.66 9.32 18 10 C14.597 8.941 11.986 7.991 9 6 C6.954 5.338 6.954 5.338 4.812 4.875 C3.554 4.586 2.296 4.298 1 4 C0.67 2.68 0.34 1.36 0 0 Z " fill="#E9B392" transform="translate(660,129)"/>
<path d="M0 0 C3.395 1.458 5.523 3.338 8.062 6 C10.337 8.374 12.245 10.163 15 12 C15 12.66 15 13.32 15 14 C15.99 14.33 16.98 14.66 18 15 C17.67 15.66 17.34 16.32 17 17 C11.054 11.961 5.302 6.72 0 1 C0 0.67 0 0.34 0 0 Z " fill="#F4B993" transform="translate(722,171)"/>
<path d="M0 0 C1.98 0.99 3.96 1.98 6 3 C6 4.65 6 6.3 6 8 C6.99 8.33 7.98 8.66 9 9 C9 9.66 9 10.32 9 11 C9.66 11 10.32 11 11 11 C10.67 11.99 10.34 12.98 10 14 C10 13.34 10 12.68 10 12 C9.361 11.732 8.721 11.464 8.062 11.188 C6 10 6 10 5 7 C4.34 7 3.68 7 3 7 C2.67 5.68 2.34 4.36 2 3 C1.34 3 0.68 3 0 3 C0 2.01 0 1.02 0 0 Z " fill="#CCB49B" transform="translate(241,588)"/>
<path d="M0 0 C3.646 3.646 4.125 8.45 4.125 13.438 C4.084 14.613 4.043 15.789 4 17 C0.891 13.891 0.118 10.111 -0.125 5.762 C-0.125 3.841 -0.067 1.92 0 0 Z " fill="#FCBF98" transform="translate(823,327)"/>
<path d="M0 0 C0.66 0 1.32 0 2 0 C2.454 6.463 1.594 9.609 -2 15 C-2.33 15 -2.66 15 -3 15 C-2.555 9.727 -1.916 4.982 0 0 Z " fill="#CCC6A8" transform="translate(215,296)"/>
<path d="M0 0 C1.875 0.25 1.875 0.25 4 1 C4.704 2.314 5.363 3.652 6 5 C7.623 6.709 9.293 8.374 11 10 C12.333 11.333 13.667 12.667 15 14 C14.67 14.66 14.34 15.32 14 16 C8.927 11.764 3.804 7.461 0 2 C0 1.34 0 0.68 0 0 Z " fill="#F8BB96" transform="translate(740,188)"/>
<path d="M0 0 C0 0.66 0 1.32 0 2 C-1.68 3.289 -1.68 3.289 -3.875 4.625 C-4.594 5.071 -5.314 5.517 -6.055 5.977 C-8 7 -8 7 -10 7 C-10 7.66 -10 8.32 -10 9 C-11.965 10.068 -13.969 11.066 -16 12 C-16.66 11.67 -17.32 11.34 -18 11 C-15.896 9.541 -13.792 8.083 -11.688 6.625 C-10.795 6.006 -10.795 6.006 -9.885 5.375 C-2.126 0 -2.126 0 0 0 Z " fill="#87988B" transform="translate(337,144)"/>
<path d="M0 0 C0.66 0 1.32 0 2 0 C5.068 5.625 6.891 10.694 8 17 C5.552 13.97 3.905 10.925 2.312 7.375 C1.876 6.413 1.439 5.452 0.988 4.461 C0 2 0 2 0 0 Z " fill="#BCAE96" transform="translate(215,540)"/>
<path d="M0 0 C2.525 2.525 3.043 4.735 4.125 8.125 C4.478 9.221 4.831 10.316 5.195 11.445 C5.461 12.288 5.726 13.131 6 14 C5.01 14.33 4.02 14.66 3 15 C3 13.68 3 12.36 3 11 C2.34 11 1.68 11 1 11 C0.67 7.37 0.34 3.74 0 0 Z " fill="#FDE8C5" transform="translate(815,311)"/>
<path d="M0 0 C6.113 2.821 12.899 6.797 16 13 C12.293 11.38 9.427 9.061 6.312 6.5 C5.339 5.706 4.366 4.912 3.363 4.094 C1 2 1 2 0 0 Z " fill="#F2B792" transform="translate(706,158)"/>
<path d="M0 0 C0.744 0.563 0.744 0.563 1.504 1.137 C5.957 4.492 10.45 7.777 15 11 C14.01 11.495 14.01 11.495 13 12 C10.539 10.707 10.539 10.707 7.625 8.812 C6.669 8.2 5.712 7.588 4.727 6.957 C2.202 5.145 0.118 3.264 -2 1 C-1.34 0.67 -0.68 0.34 0 0 Z " fill="#EBB392" transform="translate(680,138)"/>
<path d="M0 0 C2 1 2 1 2.852 3.145 C3.107 4.025 3.362 4.905 3.625 5.812 C3.885 6.685 4.146 7.558 4.414 8.457 C5 11 5 11 5 15 C4.01 14.67 3.02 14.34 2 14 C0.955 9.373 0.482 4.711 0 0 Z " fill="#FEE3BE" transform="translate(806,285)"/>
<path d="M0 0 C0.33 0.66 0.66 1.32 1 2 C-6.114 12.743 -6.114 12.743 -11 16 C-9.94 12.725 -8.607 10.386 -6.375 7.812 C-3.785 5.359 -3.785 5.359 -4 3 C-2 1.375 -2 1.375 0 0 Z " fill="#7B9086" transform="translate(258,215)"/>
<path d="M0 0 C2.648 2.578 4.944 4.916 7 8 C6.625 10.188 6.625 10.188 6 12 C4.988 10.759 3.991 9.507 3 8.25 C2.443 7.554 1.886 6.858 1.312 6.141 C0 4 0 4 0 0 Z " fill="#FCC9A1" transform="translate(772,225)"/>
<path d="M0 0 C0.99 0.33 1.98 0.66 3 1 C4.125 3.5 4.125 3.5 5 6 C5.33 6.33 5.66 6.66 6 7 C6.041 8.666 6.043 10.334 6 12 C1.641 8.513 1.054 5.272 0 0 Z " fill="#CAB59A" transform="translate(235,576)"/>
<path d="M0 0 C0.33 0.66 0.66 1.32 1 2 C0.381 2.908 -0.238 3.815 -0.875 4.75 C-2.444 7.149 -3.804 9.41 -5 12 C-5.66 12 -6.32 12 -7 12 C-5.941 8.597 -4.991 5.986 -3 3 C-2.34 3 -1.68 3 -1 3 C-0.67 2.01 -0.34 1.02 0 0 Z " fill="#DDD0B0" transform="translate(233,264)"/>
<path d="M0 0 C4.56 3.613 8.017 6.988 11 12 C10.67 12.66 10.34 13.32 10 14 C5.484 9.729 2.736 5.507 0 0 Z " fill="#F9BB95" transform="translate(761,211)"/>
<path d="M0 0 C0 3.49 -0.904 5.115 -2.5 8.188 C-2.964 9.089 -3.428 9.99 -3.906 10.918 C-4.267 11.605 -4.628 12.292 -5 13 C-5.66 13 -6.32 13 -7 13 C-5.603 8.112 -3.656 3.656 0 0 Z " fill="#BCBBA1" transform="translate(238,250)"/>
<path d="M0 0 C-1.619 1.03 -3.245 2.049 -4.875 3.062 C-5.78 3.631 -6.685 4.199 -7.617 4.785 C-8.404 5.186 -9.19 5.587 -10 6 C-10.66 5.67 -11.32 5.34 -12 5 C-8.095 0.817 -5.723 -1.657 0 0 Z " fill="#A1A793" transform="translate(365,130)"/>
<path d="M0 0 C3.289 2.193 3.595 2.848 4.75 6.438 C5.013 7.22 5.276 8.002 5.547 8.809 C6 11 6 11 5 14 C4.157 12.422 3.326 10.837 2.5 9.25 C2.036 8.368 1.572 7.487 1.094 6.578 C0 4 0 4 0 0 Z " fill="#B1A993" transform="translate(209,526)"/>
<path d="M0 0 C0.33 0 0.66 0 1 0 C1.125 7.625 1.125 7.625 0 11 C-0.352 12.997 -0.688 14.997 -1 17 C-1.33 17 -1.66 17 -2 17 C-2.221 10.902 -2.012 5.784 0 0 Z " fill="#D5CAAB" transform="translate(196,368)"/>
<path d="M0 0 C0 3 0 3 -1.531 4.605 C-2.181 5.128 -2.831 5.65 -3.5 6.188 C-4.15 6.717 -4.799 7.247 -5.469 7.793 C-5.974 8.191 -6.479 8.59 -7 9 C-6.075 5.216 -5.606 3.433 -2.375 1.125 C-1.199 0.568 -1.199 0.568 0 0 Z " fill="#E9D9B9" transform="translate(288,187)"/>
<path d="M0 0 C0 4.39 -2.128 5.769 -5 9 C-5.33 7.68 -5.66 6.36 -6 5 C-4.02 3.35 -2.04 1.7 0 0 Z " fill="#E3D5B4" transform="translate(256,226)"/>
<path d="M0 0 C1.395 3.17 0.914 4.223 -0.375 7.562 C-0.911 8.697 -1.447 9.831 -2 11 C-2.33 11.99 -2.66 12.98 -3 14 C-3.33 14 -3.66 14 -4 14 C-3.125 6.375 -3.125 6.375 -2 3 C-1.34 3 -0.68 3 0 3 C0 2.01 0 1.02 0 0 Z " fill="#D9CDAE" transform="translate(221,286)"/>
<path d="M0 0 C0.99 0.33 1.98 0.66 3 1 C-1.75 5 -1.75 5 -4 5 C-4.66 6.32 -5.32 7.64 -6 9 C-6.66 9 -7.32 9 -8 9 C-8 8.34 -8 7.68 -8 7 C-7.34 7 -6.68 7 -6 7 C-5.67 6.01 -5.34 5.02 -5 4 C-2.625 1.75 -2.625 1.75 0 0 Z " fill="#8B9B8E" transform="translate(295,175)"/>
<path d="M0 0 C-1.43 0.866 -2.869 1.718 -4.312 2.562 C-5.513 3.276 -5.513 3.276 -6.738 4.004 C-9 5 -9 5 -12 4 C-10.68 3.67 -9.36 3.34 -8 3 C-8 2.34 -8 1.68 -8 1 C-3.375 -1.125 -3.375 -1.125 0 0 Z " fill="#FDAE8C" transform="translate(662,703)"/>
<path d="M0 0 C1.124 3.304 0.896 5.051 -0.438 8.25 C-0.725 8.956 -1.012 9.663 -1.309 10.391 C-1.537 10.922 -1.765 11.453 -2 12 C-3.411 7.408 -2.113 4.226 0 0 Z " fill="#9CA794" transform="translate(209,309)"/>
<path d="M0 0 C0.955 2.17 1.144 3.563 0.398 5.824 C-0.359 7.568 -1.176 9.286 -2 11 C-2.33 11 -2.66 11 -3 11 C-3.326 6.325 -2.706 3.833 0 0 Z " fill="#B4B69D" transform="translate(219,285)"/>
<path d="M0 0 C1.98 0.66 3.96 1.32 6 2 C6 2.99 6 3.98 6 5 C4.35 4.67 2.7 4.34 1 4 C0.67 2.68 0.34 1.36 0 0 Z " fill="#FDFBE9" transform="translate(710,165)"/>
<path d="M0 0 C0.931 2.606 1.149 3.642 0.062 6.25 C-0.463 7.116 -0.463 7.116 -1 8 C-1.66 8 -2.32 8 -3 8 C-3.33 8.99 -3.66 9.98 -4 11 C-3.67 8.69 -3.34 6.38 -3 4 C-2.34 4 -1.68 4 -1 4 C-0.67 2.68 -0.34 1.36 0 0 Z " fill="#B7B79D" transform="translate(208,317)"/>
<path d="M0 0 C0.66 0.66 1.32 1.32 2 2 C1.01 4.64 0.02 7.28 -1 10 C-1.33 10 -1.66 10 -2 10 C-2.195 3.945 -2.195 3.945 -2 2 C-1.34 1.34 -0.68 0.68 0 0 Z " fill="#D0C8AA" transform="translate(211,311)"/>
<path d="M0 0 C0.931 2.606 1.149 3.642 0.062 6.25 C-0.463 7.116 -0.463 7.116 -1 8 C-1.66 8 -2.32 8 -3 8 C-3 6.68 -3 5.36 -3 4 C-2.34 4 -1.68 4 -1 4 C-0.67 2.68 -0.34 1.36 0 0 Z " fill="#B2B39A" transform="translate(225,272)"/>
<path d="M0 0 C1.98 0.66 3.96 1.32 6 2 C6 2.99 6 3.98 6 5 C4.35 4.67 2.7 4.34 1 4 C0.67 2.68 0.34 1.36 0 0 Z " fill="#F2CCAB" transform="translate(660,129)"/>
</svg>
