<svg width="1024" height="1024" viewBox="0 0 1024 1024" xmlns="http://www.w3.org/2000/svg">
  <!-- Paths from traced SVG -->
  <path d="M0 0 C337.92 0 675.84 0 1024 0 C1024 337.92 1024 675.84 1024 1024 C686.08 1024 348.16 1024 0 1024 C0 686.08 0 348.16 0 0 Z " fill="#111111" transform="translate(0,0)"/>
  <path d="M0 0 C2.582 -0.002 5.164 -0.02 7.746 -0.039 C19.309 -0.079 30.58 0.76 42.049 2.185 C43.309 2.331 44.57 2.477 45.869 2.628 C77.496 6.356 106.739 14.924 136.049 27.185 C137.185 27.658 137.185 27.658 138.345 28.14 C152.13 33.9 152.13 33.9 158.154 37.955 C160.425 39.43 162.779 40.67 165.174 41.935 C216.095 69.532 255.431 114.746 282.844 164.992 C283.963 167.029 285.103 169.052 286.252 171.072 C290.615 178.848 293.853 186.642 296.627 195.115 C297.591 198.01 298.725 200.756 299.998 203.529 C302.258 208.507 303.97 213.6 305.611 218.81 C305.917 219.78 306.223 220.749 306.538 221.748 C308.937 229.51 310.65 237.179 312.049 245.185 C312.375 246.837 312.706 248.488 313.041 250.138 C315.316 261.452 317.054 272.688 318.049 284.185 C318.161 285.427 318.273 286.668 318.388 287.947 C320.911 321.01 319.075 355.382 310.724 387.54 C310.129 389.872 309.599 392.204 309.111 394.56 C303.32 420.737 293.509 446.253 281.173 470.01 C279.941 472.393 278.731 474.787 277.521 477.181 C267.18 497.472 254.819 516.071 241.049 534.185 C240.474 534.946 239.899 535.706 239.306 536.49 C226.698 552.959 212.602 569.445 196.799 582.935 C194.928 584.537 193.131 586.098 191.439 587.888 C190.049 589.185 190.049 589.185 188.049 589.185 C187.719 590.175 187.389 591.165 187.049 592.185 C185.064 593.925 183.085 595.532 180.986 597.123 C180.36 597.604 179.735 598.085 179.09 598.58 C177.756 599.603 176.42 600.622 175.081 601.638 C173.12 603.131 171.173 604.641 169.228 606.154 C151.357 619.946 131.89 631.012 111.986 641.56 C111.2 641.977 110.415 642.395 109.605 642.824 C105.16 645.159 100.697 647.274 96.049 649.185 C95.346 649.477 94.644 649.768 93.921 650.068 C82.122 654.942 70.27 659.486 58.049 663.185 C56.848 663.552 56.848 663.552 55.623 663.927 C29.09 671.86 1.058 676.098 -26.614 676.171 C-30.003 676.186 -33.388 676.256 -36.776 676.334 C-67.164 676.882 -98.956 674.235 -128.057 665.08 C-130.921 664.195 -133.807 663.483 -136.718 662.768 C-150.108 659.275 -163.233 654.608 -175.951 649.185 C-177.22 648.659 -178.488 648.133 -179.756 647.607 C-213.162 633.566 -243.641 613.374 -270.166 588.76 C-271.876 587.116 -271.876 587.116 -273.951 586.185 C-273.291 584.865 -272.631 583.545 -271.951 582.185 C-271.353 582.515 -270.755 582.845 -270.139 583.185 C-267.898 584.393 -267.898 584.393 -264.951 584.185 C-262.829 582.469 -262.829 582.469 -260.701 580.185 C-259.974 579.443 -259.247 578.7 -258.498 577.935 C-256.547 575.829 -254.667 573.699 -252.798 571.523 C-248.998 567.173 -244.972 563.095 -240.865 559.037 C-240.123 558.298 -239.381 557.56 -238.616 556.799 C-236.272 554.467 -233.925 552.138 -231.576 549.81 C-228.462 546.722 -225.35 543.63 -222.24 540.537 C-221.524 539.829 -220.807 539.12 -220.069 538.391 C-219.082 537.408 -219.082 537.408 -218.075 536.406 C-217.494 535.831 -216.914 535.256 -216.315 534.663 C-214.848 533.211 -214.848 533.211 -213.951 531.185 C-214.506 530.975 -215.06 530.765 -215.631 530.549 C-218.768 528.706 -220.803 526.152 -223.076 523.373 C-223.554 522.799 -224.031 522.225 -224.522 521.634 C-229.496 515.61 -234.242 509.417 -238.951 503.185 C-239.516 502.457 -240.081 501.729 -240.662 500.978 C-244.035 496.598 -247.042 492.041 -249.971 487.353 C-251.41 485.051 -252.864 482.765 -254.338 480.486 C-259.517 472.419 -264.107 464.251 -268.26 455.611 C-269.828 452.292 -269.828 452.292 -271.487 449.728 C-273.023 447.06 -274.08 444.349 -275.121 441.457 C-276.029 438.973 -277.009 436.527 -278.002 434.076 C-291.745 399.928 -301.077 362.98 -301.119 325.974 C-301.123 324.926 -301.126 323.878 -301.129 322.798 C-301.135 320.588 -301.137 318.377 -301.137 316.167 C-301.139 312.854 -301.157 309.541 -301.176 306.228 C-301.256 276.223 -297.44 246.295 -288.096 217.709 C-287.19 214.919 -286.362 212.134 -285.576 209.31 C-274.774 173.036 -254.462 137.821 -229.951 109.185 C-228.967 108.015 -227.983 106.844 -226.998 105.674 C-217.142 94.041 -206.658 82.981 -194.951 73.185 C-193.978 72.346 -193.005 71.507 -192.002 70.642 C-180.611 60.84 -168.716 52.103 -155.951 44.185 C-155.349 43.809 -154.747 43.432 -154.127 43.044 C-115.768 19.135 -73.673 6.152 -28.951 1.185 C-28 1.079 -27.049 0.972 -26.069 0.862 C-17.392 0.011 -8.711 -0.001 0 0 Z" fill="#F97225" transform="translate(502.951416015625,119.814697265625)"/>
  <path d="M0 0 C2.582 -0.002 5.164 -0.02 7.746 -0.039 C19.309 -0.079 30.58 0.76 42.049 2.185 C43.309 2.331 44.57 2.477 45.869 2.628 C77.496 6.356 106.739 14.924 136.049 27.185 C137.185 27.658 137.185 27.658 138.345 28.14 C152.13 33.9 152.13 33.9 158.154 37.955 C160.425 39.43 162.779 40.67 165.174 41.935 C216.095 69.532 255.431 114.746 282.844 164.992 C283.963 167.029 285.103 169.052 286.252 171.072 C290.615 178.848 293.853 186.642 296.627 195.115 C297.591 198.01 298.725 200.756 299.998 203.529 C302.258 208.507 303.97 213.6 305.611 218.81 C305.917 219.78 306.223 220.749 306.538 221.748 C308.937 229.51 310.65 237.179 312.049 245.185 C312.375 246.837 312.706 248.488 313.041 250.138 C315.316 261.452 317.054 272.688 318.049 284.185 C318.161 285.427 318.273 286.668 318.388 287.947 C320.911 321.01 319.075 355.382 310.724 387.54 C310.129 389.872 309.599 392.204 309.111 394.56 C303.32 420.737 293.509 446.253 281.173 470.01 C279.941 472.393 278.731 474.787 277.521 477.181 C267.18 497.472 254.819 516.071 241.049 534.185 C240.474 534.946 239.899 535.706 239.306 536.49 C226.698 552.959 212.602 569.445 196.799 582.935 C194.928 584.537 193.131 586.098 191.439 587.888 C190.049 589.185 190.049 589.185 188.049 589.185 C187.719 590.175 187.389 591.165 187.049 592.185 C185.064 593.925 183.085 595.532 180.986 597.123 C180.36 597.604 179.735 598.085 179.09 598.58 C177.756 599.603 176.42 600.622 175.081 601.638 C173.12 603.131 171.173 604.641 169.228 606.154 C151.357 619.946 131.89 631.012 111.986 641.56 C111.2 641.977 110.415 642.395 109.605 642.824 C105.16 645.159 100.697 647.274 96.049 649.185 C95.346 649.477 94.644 649.768 93.921 650.068 C82.122 654.942 70.27 659.486 58.049 663.185 C56.848 663.552 56.848 663.552 55.623 663.927 C29.09 671.86 1.058 676.098 -26.614 676.171 C-30.003 676.186 -33.388 676.256 -36.776 676.334 C-67.164 676.882 -98.956 674.235 -128.057 665.08 C-130.921 664.195 -133.807 663.483 -136.718 662.768 C-150.108 659.275 -163.233 654.608 -175.951 649.185 C-177.22 648.659 -178.488 648.133 -179.756 647.607 C-213.162 633.566 -243.641 613.374 -270.166 588.76 C-271.876 587.116 -271.876 587.116 -273.951 586.185 C-273.291 584.865 -272.631 583.545 -271.951 582.185 C-271.353 582.515 -270.755 582.845 -270.139 583.185 C-267.898 584.393 -267.898 584.393 -264.951 584.185 C-262.829 582.469 -262.829 582.469 -260.701 580.185 C-259.974 579.443 -259.247 578.7 -258.498 577.935 C-256.547 575.829 -254.667 573.699 -252.798 571.523 C-248.998 567.173 -244.972 563.095 -240.865 559.037 C-240.123 558.298 -239.381 557.56 -238.616 556.799 C-236.272 554.467 -233.925 552.138 -231.576 549.81 C-228.462 546.722 -225.35 543.63 -222.24 540.537 C-221.524 539.829 -220.807 539.12 -220.069 538.391 C-219.082 537.408 -219.082 537.408 -218.075 536.406 C-217.494 535.831 -216.914 535.256 -216.315 534.663 C-214.848 533.211 -214.848 533.211 -213.951 531.185 C-214.506 530.975 -215.06 530.765 -215.631 530.549 C-218.768 528.706 -220.803 526.152 -223.076 523.373 C-223.554 522.799 -224.031 522.225 -224.522 521.634 C-229.496 515.61 -234.242 509.417 -238.951 503.185 C-239.516 502.457 -240.081 501.729 -240.662 500.978 C-244.035 496.598 -247.042 492.041 -249.971 487.353 C-251.41 485.051 -252.864 482.765 -254.338 480.486 C-259.517 472.419 -264.107 464.251 -268.26 455.611 C-269.828 452.292 -269.828 452.292 -271.487 449.728 C-273.023 447.06 -274.08 444.349 -275.121 441.457 C-276.029 438.973 -277.009 436.527 -278.002 434.076 C-291.745 399.928 -301.077 362.98 -301.119 325.974 C-301.123 324.926 -301.126 323.878 -301.129 322.798 C-301.135 320.588 -301.137 318.377 -301.137 316.167 C-301.139 312.854 -301.157 309.541 -301.176 306.228 C-301.256 276.223 -297.44 246.295 -288.096 217.709 C-287.19 214.919 -286.362 212.134 -285.576 209.31 C-274.774 173.036 -254.462 137.821 -229.951 109.185 C-228.967 108.015 -227.983 106.844 -226.998 105.674 C-217.142 94.041 -206.658 82.981 -194.951 73.185 C-193.978 72.346 -193.005 71.507 -192.002 70.642 C-180.611 60.84 -168.716 52.103 -155.951 44.185 C-155.349 43.809 -154.747 43.432 -154.127 43.044 C-115.768 19.135 -73.673 6.152 -28.951 1.185 C-28 1.079 -27.049 0.972 -26.069 0.862 C-17.392 0.011 -8.711 -0.001 0 0 Z" fill="#F97225" transform="translate(502.951416015625,119.814697265625)"/>
  <path d="M0 0 C1.582 0.001 1.582 0.001 3.164 0.003 C69.21 0.128 125.414 16.451 162.75 46.188 C163.558 47.012 164.366 47.837 165.2 48.688 C177.009 60.965 185.657 75.774 192.75 91.188 C193.326 92.433 193.326 92.433 193.914 93.703 C209.306 129.492 209.092 171.747 194.964 207.887 C188.81 222.783 180.416 237.078 169.75 249.188 C169.009 250.037 168.268 250.886 167.504 251.762 C160.833 259.288 154.116 266.224 146 272.188 C145.298 272.707 144.597 273.226 143.875 273.76 C117.443 293.153 88.996 303.623 56.188 303.688 C55.381 303.69 54.573 303.693 53.736 303.696 C37.304 303.685 23.27 301.666 8.596 297.188 C7.789 296.942 6.982 296.696 6.151 296.443 C-29.679 285.106 -59.54 257.704 -77.635 225.387 C-78.679 223.527 -79.757 221.685 -80.916 219.895 C-97.875 189.605 -101.684 147.623 -92.667 114.367 C-90.147 105.614 -87.554 97 -83.316 88.912 C-82.339 87.075 -82.339 87.075 -81.409 84.602 C-76.117 71.521 -67.073 59.765 -57.565 49.516 C-55.702 47.482 -54.001 45.393 -52.268 43.25 C-34.322 22.747 -7.592 10.708 18.88 3.375 C19.589 3.168 20.297 2.961 21.027 2.748 C31.377 -0.111 41.897 -0.019 53 0 Z" fill="#111111" transform="translate(509.125,280.8125)"/>
  <path d="M0 0 C0.33 0 0.66 0 1 0 C1.33 9.57 1.66 19.14 2 29 C0.68 29 -0.64 29 -2 29 C-2.33 29.99 -2.66 30.98 -3 32 C-2.859 29.541 -2.713 27.083 -2.562 24.625 C-2.523 23.926 -2.484 23.228 -2.443 22.508 C-2.113 17.227 -2.113 17.227 -1 15 C-0.768 12.454 -0.581 9.926 -0.438 7.375 C-0.394 6.669 -0.351 5.962 -0.307 5.234 C-0.201 3.49 -0.1 1.745 0 0 Z" fill="#FC7F38" transform="translate(814,443)"/>
  <path d="M0 0 C0.66 0 1.32 0 2 0 C3.771 6.002 1.897 10.278 -0.25 15.875 C-0.611 16.836 -0.971 17.797 -1.343 18.787 C-22.325 73.566 -22.325 73.566 -36.848 87.812 C-39.728 90.74 -42.024 93.998 -44.438 97.312 C-58.316 116.021 -74.365 133.919 -93 148 C-94.088 148.843 -95.175 149.687 -96.262 150.531 C-104.677 157 -104.677 157 -107 157 C-107 157.66 -107 158.32 -107 159 C-108.354 160.11 -108.354 160.11 -110.262 161.32 C-110.962 161.769 -111.662 162.218 -112.383 162.68 C-113.524 163.395 -113.524 163.395 -114.688 164.125 C-115.852 164.864 -115.852 164.864 -117.041 165.618 C-118.62 166.619 -120.202 167.615 -121.786 168.609 C-123.685 169.802 -125.575 171.009 -127.461 172.223 C-135.015 177.008 -142.799 181.089 -150.847 184.96 C-153.135 186.065 -155.413 187.191 -157.691 188.316 C-159.231 189.066 -160.772 189.815 -162.312 190.562 C-163.398 191.101 -163.398 191.101 -164.505 191.65 C-169.657 194.114 -169.657 194.114 -173 193 C-170.774 191.847 -168.545 190.702 -166.312 189.562 C-165.687 189.237 -165.061 188.912 -164.416 188.576 C-160.963 186.822 -157.848 185.522 -154 185 C-153.67 184.01 -153.34 183.02 -153 182 C-151.241 180.777 -151.241 180.777 -148.949 179.582 C-148.111 179.137 -147.274 178.691 -146.411 178.232 C-145.512 177.764 -144.613 177.295 -143.688 176.812 C-135.791 172.582 -128.314 168.184 -121 163 C-119.886 162.224 -118.771 161.448 -117.656 160.672 C-101.397 149.282 -86.703 136.732 -72.625 122.75 C-72.066 122.196 -71.507 121.642 -70.932 121.071 C-64.135 114.247 -58.019 106.922 -52.125 99.312 C-51.516 98.526 -50.906 97.739 -50.279 96.928 C-38.479 81.596 -28.714 65.487 -19.75 48.375 C-19.159 47.255 -18.569 46.136 -17.96 44.982 C-14.082 37.492 -10.878 29.924 -8 22 C-7.339 20.226 -6.677 18.453 -6.016 16.68 C-5.426 15.078 -4.838 13.477 -4.25 11.875 C-3.947 11.053 -3.644 10.23 -3.332 9.383 C-2.186 6.265 -1.051 3.152 0 0 Z" fill="#F9BD67" transform="translate(519,274)"/>
  <path d="M0 0 C0.66 0 1.32 0 2 0 C3.911 6.176 1.654 10.868 -0.562 16.625 C-0.927 17.6 -1.292 18.576 -1.668 19.581 C-4.351 26.629 -7.326 33.404 -11 40 C-13.204 33.877 -10.84 28.107 -8.25 22.5 C-4.977 15.149 -2.427 7.666 0 0 Z" fill="#FD8648" transform="translate(800,527)"/>
  <path d="M0 0 C0.66 0.33 1.32 0.66 2 1 C-1.011 6.929 -4.743 11.141 -9.5 15.75 C-10.164 16.409 -10.828 17.067 -11.512 17.746 C-19.9 26 -19.9 26 -23 26 C-23.227 26.59 -23.454 27.181 -23.688 27.789 C-25.372 30.626 -27.185 31.671 -30 33.375 C-30.98 33.971 -31.959 34.566 -32.969 35.18 C-33.969 35.78 -34.969 36.381 -36 37 C-36.938 37.601 -37.877 38.201 -38.844 38.82 C-40.159 39.652 -40.159 39.652 -41.5 40.5 C-42.294 41.005 -43.088 41.511 -43.906 42.031 C-46 43 -46 43 -49 42 C-47.889 42.299 -46.778 41.597 -45.633 40.875 C-37.402 35.642 -29.393 30.392 -22 24 C-21.196 23.317 -20.391 22.634 -19.562 21.93 C-8.484 12.569 -8.484 12.569 0 0 Z" fill="#F9DD9B" transform="translate(630,525)"/>
  <path d="M0 0 C7.993 14.388 3.08 37.62 0 53 C-2.774 48.055 -2.362 43.312 -1.509 37.864 C-0.982 33.86 -0.779 29.91 -0.684 25.879 C-0.663 25.134 -0.642 24.389 -0.621 23.622 C-0.556 21.269 -0.497 18.916 -0.438 16.562 C-0.394 14.956 -0.351 13.35 -0.307 11.744 C-0.2 7.83 -0.099 3.915 0 0 Z" fill="#FCC375" transform="translate(662,411)"/>
  <path d="M0 0 C-1.098 0.842 -2.203 1.673 -3.312 2.5 C-3.927 2.964 -4.542 3.428 -5.176 3.906 C-7 5 -7 5 -10 5 C-10.33 5.99 -10.66 6.98 -11 8 C-13.727 9.086 -16.313 9.955 -19.125 10.75 C-19.873 10.983 -20.62 11.217 -21.391 11.457 C-26.358 12.902 -29.94 13.101 -35 12 C-34.402 11.732 -33.804 11.464 -33.188 11.188 C-31.028 10.015 -29.642 8.806 -28 7 C-27.34 7.33 -26.68 7.66 -26 8 C-25.67 7.34 -25.34 6.68 -25 6 C-23.68 6.33 -22.36 6.66 -21 7 C-20.67 6.01 -20.34 5.02 -20 4 C-17.379 2.922 -14.892 2.05 -12.188 1.25 C-11.462 1.017 -10.737 0.783 -9.99 0.543 C-6.24 -0.603 -3.737 -1.181 0 0 Z" fill="#F1652D" transform="translate(617,722)"/>
  <path d="M0 0 C0.495 1.485 0.495 1.485 1 3 C0.361 3.227 -0.279 3.454 -0.938 3.688 C-1.618 4.121 -2.299 4.554 -3 5 C-3.186 6.176 -3.186 6.176 -3.375 7.375 C-4 10 -4 10 -7 12.188 C-7.99 12.786 -8.98 13.384 -10 14 C-10.33 14.66 -10.66 15.32 -11 16 C-11.99 16 -12.98 16 -14 16 C-14.247 16.557 -14.495 17.114 -14.75 17.688 C-17.352 22.502 -20.73 25.667 -25 29 C-28.507 32.183 -28.507 32.183 -31 36.125 C-32.433 38.812 -34.297 39.716 -37 41 C-37.66 40.67 -38.32 40.34 -39 40 C-38.522 39.527 -38.043 39.054 -37.551 38.566 C-35.343 36.38 -33.14 34.19 -30.938 32 C-30.185 31.256 -29.433 30.512 -28.658 29.746 C-24.512 25.617 -20.559 21.404 -16.744 16.969 C-13.668 13.497 -10.362 10.258 -7.062 7 C-6.379 6.321 -5.695 5.641 -4.99 4.941 C-3.329 3.292 -1.666 1.645 0 0 Z" fill="#FE891B" transform="translate(691,258)"/>
  <path d="M0 0 C0.33 0 0.66 0 1 0 C2.407 15.754 -6.498 32.402 -13.562 46 C-14.127 47.096 -14.127 47.096 -14.702 48.215 C-16.772 52.111 -18.836 54.894 -22 58 C-23.003 59.998 -24.003 61.999 -25 64 C-26.624 66.137 -28.247 68.165 -30 70.188 C-30.717 71.024 -30.717 71.024 -31.448 71.876 C-44.071 86.421 -44.071 86.421 -51 91 C-51.66 91 -52.32 91 -53 91 C-53.34 91.886 -53.34 91.886 -53.688 92.789 C-55.372 95.626 -57.185 96.671 -60 98.375 C-61.47 99.268 -61.47 99.268 -62.969 100.18 C-63.969 100.78 -64.969 101.381 -66 102 C-66.938 102.601 -67.877 103.201 -68.844 103.82 C-69.72 104.375 -70.597 104.929 -71.5 105.5 C-72.294 106.005 -73.088 106.511 -73.906 107.031 C-76 108 -76 108 -79 107 C-77.889 106.299 -76.778 105.597 -75.633 104.875 C-67.402 99.642 -59.393 94.392 -52 88 C-51.196 87.317 -50.391 86.634 -49.562 85.93 C-39.79 77.409 -30.937 67.991 -24 57 C-23.625 56.412 -23.25 55.823 -22.864 55.217 C-11.903 37.85 -5.165 19.819 0 0 Z" fill="#F6CC83" transform="translate(660,460)"/>
  <path d="M0 0 C0.66 0 1.32 0 2 0 C3.911 6.176 1.654 10.868 -0.562 16.625 C-0.927 17.6 -1.292 18.576 -1.668 19.581 C-4.351 26.629 -7.326 33.404 -11 40 C-13.204 33.877 -10.84 28.107 -8.25 22.5 C-4.977 15.149 -2.427 7.666 0 0 Z" fill="#F58144" transform="translate(800,527)"/>
  <path d="M0 0 C0.66 0.33 1.32 0.66 2 1 C-1.011 6.929 -4.743 11.141 -9.5 15.75 C-10.164 16.409 -10.828 17.067 -11.512 17.746 C-19.9 26 -19.9 26 -23 26 C-23.227 26.59 -23.454 27.181 -23.688 27.789 C-25.372 30.626 -27.185 31.671 -30 33.375 C-30.98 33.971 -31.959 34.566 -32.969 35.18 C-33.969 35.78 -34.969 36.381 -36 37 C-36.938 37.601 -37.877 38.201 -38.844 38.82 C-40.159 39.652 -40.159 39.652 -41.5 40.5 C-42.294 41.005 -43.088 41.511 -43.906 42.031 C-46 43 -46 43 -49 42 C-47.889 42.299 -46.778 41.597 -45.633 40.875 C-37.402 35.642 -29.393 30.392 -22 24 C-21.196 23.317 -20.391 22.634 -19.562 21.93 C-8.484 12.569 -8.484 12.569 0 0 Z" fill="#F9DD9B" transform="translate(630,525)"/>
  <path d="M0 0 C7.993 14.388 3.08 37.62 0 53 C-2.774 48.055 -2.362 43.312 -1.509 37.864 C-0.982 33.86 -0.779 29.91 -0.684 25.879 C-0.663 25.134 -0.642 24.389 -0.621 23.622 C-0.556 21.269 -0.497 18.916 -0.438 16.562 C-0.394 14.956 -0.351 13.35 -0.307 11.744 C-0.2 7.83 -0.099 3.915 0 0 Z" fill="#FCC375" transform="translate(662,411)"/>
  <path d="M0 0 C-1.098 0.842 -2.203 1.673 -3.312 2.5 C-3.927 2.964 -4.542 3.428 -5.176 3.906 C-7 5 -7 5 -10 5 C-10.33 5.99 -10.66 6.98 -11 8 C-13.727 9.086 -16.313 9.955 -19.125 10.75 C-19.873 10.983 -20.62 11.217 -21.391 11.457 C-26.358 12.902 -29.94 13.101 -35 12 C-34.402 11.732 -33.804 11.464 -33.188 11.188 C-31.028 10.015 -29.642 8.806 -28 7 C-27.34 7.33 -26.68 7.66 -26 8 C-25.67 7.34 -25.34 6.68 -25 6 C-23.68 6.33 -22.36 6.66 -21 7 C-20.67 6.01 -20.34 5.02 -20 4 C-17.379 2.922 -14.892 2.05 -12.188 1.25 C-11.462 1.017 -10.737 0.783 -9.99 0.543 C-6.24 -0.603 -3.737 -1.181 0 0 Z" fill="#F1652D" transform="translate(617,722)"/>
  <path d="M0 0 C0.495 1.485 0.495 1.485 1 3 C0.361 3.227 -0.279 3.454 -0.938 3.688 C-1.618 4.121 -2.299 4.554 -3 5 C-3.186 6.176 -3.186 6.176 -3.375 7.375 C-4 10 -4 10 -7 12.188 C-7.99 12.786 -8.98 13.384 -10 14 C-10.33 14.66 -10.66 15.32 -11 16 C-11.99 16 -12.98 16 -14 16 C-14.247 16.557 -14.495 17.114 -14.75 17.688 C-17.352 22.502 -20.73 25.667 -25 29 C-28.507 32.183 -28.507 32.183 -31 36.125 C-32.433 38.812 -34.297 39.716 -37 41 C-37.66 40.67 -38.32 40.34 -39 40 C-38.522 39.527 -38.043 39.054 -37.551 38.566 C-35.343 36.38 -33.14 34.19 -30.938 32 C-30.185 31.256 -29.433 30.512 -28.658 29.746 C-24.512 25.617 -20.559 21.404 -16.744 16.969 C-13.668 13.497 -10.362 10.258 -7.062 7 C-6.379 6.321 -5.695 5.641 -4.99 4.941 C-3.329 3.292 -1.666 1.645 0 0 Z" fill="#FE891B" transform="translate(691,258)"/>
  <!-- Text elements from text SVG -->
  <text x="193" y="973" font-size="62" fill="#b9c2ca">aunching</text>
  <text x="497" y="973" font-size="62" fill="#ced6de">Spring</text>
  <text x="731" y="963" font-size="49" fill="#b7c5cd">2024</text>
</svg>