<?xml version="1.0" encoding="UTF-8"?>
<!-- Generator: visioncortex VTracer 0.6.4 -->
<svg version="1.1" xmlns="http://www.w3.org/2000/svg" width="1024" height="1024">
<path d="M0 0 C337.92 0 675.84 0 1024 0 C1024 337.92 1024 675.84 1024 1024 C686.08 1024 348.16 1024 0 1024 C0 686.08 0 348.16 0 0 Z " fill="#111111" transform="translate(0,0)"/>
<path d="M0 0 C2.582 -0.002 5.164 -0.02 7.746 -0.039 C19.309 -0.079 30.58 0.76 42.049 2.185 C43.309 2.331 44.57 2.477 45.869 2.628 C77.496 6.356 106.739 14.924 136.049 27.185 C137.185 27.658 137.185 27.658 138.345 28.14 C152.13 33.9 152.13 33.9 158.154 37.955 C160.425 39.43 162.779 40.67 165.174 41.935 C216.095 69.532 255.431 114.746 282.844 164.992 C283.963 167.029 285.103 169.052 286.252 171.072 C290.615 178.848 293.853 186.642 296.627 195.115 C297.591 198.01 298.725 200.756 299.998 203.529 C302.258 208.507 303.97 213.6 305.611 218.81 C305.917 219.78 306.223 220.749 306.538 221.748 C308.937 229.51 310.65 237.179 312.049 245.185 C312.375 246.837 312.706 248.488 313.041 250.138 C315.316 261.452 317.054 272.688 318.049 284.185 C318.161 285.427 318.273 286.668 318.388 287.947 C320.911 321.01 319.075 355.382 310.724 387.54 C310.129 389.872 309.599 392.204 309.111 394.56 C303.32 420.737 293.509 446.253 281.173 470.01 C279.941 472.393 278.731 474.787 277.521 477.181 C267.18 497.472 254.819 516.071 241.049 534.185 C240.474 534.946 239.899 535.706 239.306 536.49 C226.698 552.959 212.602 569.445 196.799 582.935 C194.928 584.537 193.131 586.098 191.439 587.888 C190.049 589.185 190.049 589.185 188.049 589.185 C187.719 590.175 187.389 591.165 187.049 592.185 C185.064 593.925 183.085 595.532 180.986 597.123 C180.36 597.604 179.735 598.085 179.09 598.58 C177.756 599.603 176.42 600.622 175.081 601.638 C173.12 603.131 171.173 604.641 169.228 606.154 C151.357 619.946 131.89 631.012 111.986 641.56 C111.2 641.977 110.415 642.395 109.605 642.824 C105.16 645.159 100.697 647.274 96.049 649.185 C95.346 649.477 94.644 649.768 93.921 650.068 C82.122 654.942 70.27 659.486 58.049 663.185 C56.848 663.552 56.848 663.552 55.623 663.927 C29.09 671.86 1.058 676.098 -26.614 676.171 C-30.003 676.186 -33.388 676.256 -36.776 676.334 C-67.164 676.882 -98.956 674.235 -128.057 665.08 C-130.921 664.195 -133.807 663.483 -136.718 662.768 C-150.108 659.275 -163.233 654.608 -175.951 649.185 C-177.22 648.659 -178.488 648.133 -179.756 647.607 C-213.162 633.566 -243.641 613.374 -270.166 588.76 C-271.876 587.116 -271.876 587.116 -273.951 586.185 C-273.291 584.865 -272.631 583.545 -271.951 582.185 C-271.353 582.515 -270.755 582.845 -270.139 583.185 C-267.898 584.393 -267.898 584.393 -264.951 584.185 C-262.829 582.469 -262.829 582.469 -260.701 580.185 C-259.974 579.443 -259.247 578.7 -258.498 577.935 C-256.547 575.829 -254.667 573.699 -252.798 571.523 C-248.998 567.173 -244.972 563.095 -240.865 559.037 C-240.123 558.298 -239.381 557.56 -238.616 556.799 C-236.272 554.467 -233.925 552.138 -231.576 549.81 C-228.462 546.722 -225.35 543.63 -222.24 540.537 C-221.524 539.829 -220.807 539.12 -220.069 538.391 C-219.082 537.408 -219.082 537.408 -218.075 536.406 C-217.494 535.831 -216.914 535.256 -216.315 534.663 C-214.848 533.211 -214.848 533.211 -213.951 531.185 C-214.506 530.975 -215.06 530.765 -215.631 530.549 C-218.768 528.706 -220.803 526.152 -223.076 523.373 C-223.554 522.799 -224.031 522.225 -224.522 521.634 C-229.496 515.61 -234.242 509.417 -238.951 503.185 C-239.516 502.457 -240.081 501.729 -240.662 500.978 C-244.035 496.598 -247.042 492.041 -249.971 487.353 C-251.41 485.051 -252.864 482.765 -254.338 480.486 C-259.517 472.419 -264.107 464.251 -268.26 455.611 C-269.828 452.292 -269.828 452.292 -271.487 449.728 C-273.023 447.06 -274.08 444.349 -275.121 441.457 C-276.029 438.973 -277.009 436.527 -278.002 434.076 C-291.745 399.928 -301.077 362.98 -301.119 325.974 C-301.123 324.926 -301.126 323.878 -301.129 322.798 C-301.135 320.588 -301.137 318.377 -301.137 316.167 C-301.139 312.854 -301.157 309.541 -301.176 306.228 C-301.256 276.223 -297.44 246.295 -288.096 217.709 C-287.19 214.919 -286.362 212.134 -285.576 209.31 C-274.774 173.036 -254.462 137.821 -229.951 109.185 C-228.967 108.015 -227.983 106.844 -226.998 105.674 C-217.142 94.041 -206.658 82.981 -194.951 73.185 C-193.978 72.346 -193.005 71.507 -192.002 70.642 C-180.611 60.84 -168.716 52.103 -155.951 44.185 C-155.349 43.809 -154.747 43.432 -154.127 43.044 C-115.768 19.135 -73.673 6.152 -28.951 1.185 C-28 1.079 -27.049 0.972 -26.069 0.862 C-17.392 0.011 -8.711 -0.001 0 0 Z " fill="#F97225" transform="translate(502.951416015625,119.814697265625)"/>
<path d="M0 0 C2.582 -0.002 5.164 -0.02 7.746 -0.039 C19.309 -0.079 30.58 0.76 42.049 2.185 C43.309 2.331 44.57 2.477 45.869 2.628 C77.496 6.356 106.739 14.924 136.049 27.185 C137.185 27.658 137.185 27.658 138.345 28.14 C152.13 33.9 152.13 33.9 158.154 37.955 C160.425 39.43 162.779 40.67 165.174 41.935 C216.095 69.532 255.431 114.746 282.844 164.992 C283.963 167.029 285.103 169.052 286.252 171.072 C290.615 178.848 293.853 186.642 296.627 195.115 C297.591 198.01 298.725 200.756 299.998 203.529 C302.258 208.507 303.97 213.6 305.611 218.81 C305.917 219.78 306.223 220.749 306.538 221.748 C308.937 229.51 310.65 237.179 312.049 245.185 C312.375 246.837 312.706 248.488 313.041 250.138 C315.316 261.452 317.054 272.688 318.049 284.185 C318.161 285.427 318.273 286.668 318.388 287.947 C320.911 321.01 319.075 355.382 310.724 387.54 C310.129 389.872 309.599 392.204 309.111 394.56 C303.32 420.737 293.509 446.253 281.173 470.01 C279.941 472.393 278.731 474.787 277.521 477.181 C267.18 497.472 254.819 516.071 241.049 534.185 C240.474 534.946 239.899 535.706 239.306 536.49 C226.698 552.959 212.602 569.445 196.799 582.935 C194.928 584.537 193.131 586.098 191.439 587.888 C190.049 589.185 190.049 589.185 188.049 589.185 C187.719 590.175 187.389 591.165 187.049 592.185 C185.064 593.925 183.085 595.532 180.986 597.123 C180.36 597.604 179.735 598.085 179.09 598.58 C177.756 599.603 176.42 600.622 175.081 601.638 C173.12 603.131 171.173 604.641 169.228 606.154 C151.357 619.946 131.89 631.012 111.986 641.56 C111.2 641.977 110.415 642.395 109.605 642.824 C105.16 645.159 100.697 647.274 96.049 649.185 C95.346 649.477 94.644 649.768 93.921 650.068 C82.122 654.942 70.27 659.486 58.049 663.185 C56.848 663.552 56.848 663.552 55.623 663.927 C29.09 671.86 1.058 676.098 -26.614 676.171 C-30.003 676.186 -33.388 676.256 -36.776 676.334 C-67.164 676.882 -98.956 674.235 -128.057 665.08 C-130.921 664.195 -133.807 663.483 -136.718 662.768 C-150.108 659.275 -163.233 654.608 -175.951 649.185 C-177.22 648.659 -178.488 648.133 -179.756 647.607 C-213.162 633.566 -243.641 613.374 -270.166 588.76 C-271.876 587.116 -271.876 587.116 -273.951 586.185 C-273.291 584.865 -272.631 583.545 -271.951 582.185 C-271.353 582.515 -270.755 582.845 -270.139 583.185 C-267.898 584.393 -267.898 584.393 -264.951 584.185 C-262.829 582.469 -262.829 582.469 -260.701 580.185 C-259.974 579.443 -259.247 578.7 -258.498 577.935 C-256.547 575.829 -254.667 573.699 -252.798 571.523 C-248.998 567.173 -244.972 563.095 -240.865 559.037 C-240.123 558.298 -239.381 557.56 -238.616 556.799 C-236.272 554.467 -233.925 552.138 -231.576 549.81 C-228.462 546.722 -225.35 543.63 -222.24 540.537 C-221.524 539.829 -220.807 539.12 -220.069 538.391 C-219.082 537.408 -219.082 537.408 -218.075 536.406 C-217.494 535.831 -216.914 535.256 -216.315 534.663 C-214.848 533.211 -214.848 533.211 -213.951 531.185 C-214.506 530.975 -215.06 530.765 -215.631 530.549 C-218.768 528.706 -220.803 526.152 -223.076 523.373 C-223.554 522.799 -224.031 522.225 -224.522 521.634 C-229.496 515.61 -234.242 509.417 -238.951 503.185 C-239.516 502.457 -240.081 501.729 -240.662 500.978 C-244.035 496.598 -247.042 492.041 -249.971 487.353 C-251.41 485.051 -252.864 482.765 -254.338 480.486 C-259.517 472.419 -264.107 464.251 -268.26 455.611 C-269.828 452.292 -269.828 452.292 -271.487 449.728 C-273.023 447.06 -274.08 444.349 -275.121 441.457 C-276.029 438.973 -277.009 436.527 -278.002 434.076 C-291.745 399.928 -301.077 362.98 -301.119 325.974 C-301.123 324.926 -301.126 323.878 -301.129 322.798 C-301.135 320.588 -301.137 318.377 -301.137 316.167 C-301.139 312.854 -301.157 309.541 -301.176 306.228 C-301.256 276.223 -297.44 246.295 -288.096 217.709 C-287.19 214.919 -286.362 212.134 -285.576 209.31 C-274.774 173.036 -254.462 137.821 -229.951 109.185 C-228.967 108.015 -227.983 106.844 -226.998 105.674 C-217.142 94.041 -206.658 82.981 -194.951 73.185 C-193.978 72.346 -193.005 71.507 -192.002 70.642 C-180.611 60.84 -168.716 52.103 -155.951 44.185 C-155.349 43.809 -154.747 43.432 -154.127 43.044 C-115.768 19.135 -73.673 6.152 -28.951 1.185 C-28 1.079 -27.049 0.972 -26.069 0.862 C-17.392 0.011 -8.711 -0.001 0 0 Z M227.602 97.384 C227.042 97.946 226.481 98.509 225.903 99.088 C225.265 99.723 224.627 100.357 223.97 101.011 C223.281 101.708 222.591 102.405 221.881 103.123 C221.168 103.836 220.455 104.55 219.72 105.285 C218.205 106.803 216.693 108.323 215.183 109.845 C212.893 112.153 210.596 114.453 208.297 116.752 C206.824 118.229 205.352 119.707 203.881 121.185 C203.201 121.866 202.522 122.546 201.822 123.248 C197.945 127.162 194.259 131.186 190.658 135.355 C188.472 137.841 186.155 140.173 183.799 142.498 C183.337 142.956 182.875 143.414 182.399 143.886 C180.467 145.802 178.529 147.712 176.592 149.622 C175.158 151.037 173.728 152.455 172.299 153.873 C171.038 155.116 171.038 155.116 169.752 156.385 C167.688 158.523 165.744 160.676 163.81 162.926 C159.64 167.733 155.144 172.179 150.615 176.646 C148.815 178.434 147.015 180.222 145.215 182.01 C142.396 184.803 139.576 187.595 136.754 190.384 C134.016 193.092 131.284 195.806 128.552 198.521 C127.699 199.361 126.847 200.2 125.968 201.065 C125.189 201.84 124.411 202.615 123.609 203.413 C122.92 204.095 122.23 204.777 121.52 205.48 C119.831 207.062 119.831 207.062 120.049 209.185 C119.622 208.808 119.195 208.43 118.756 208.041 C116.528 206.08 114.288 204.133 112.049 202.185 C111.092 201.34 110.136 200.494 109.15 199.623 C97.096 189.079 84.292 180.817 69.797 174.02 C68.315 173.313 66.857 172.557 65.404 171.791 C59.085 168.575 52.433 166.761 45.611 164.935 C44.658 164.677 43.704 164.418 42.722 164.152 C30.802 161.098 18.922 161.004 6.674 160.998 C5.366 160.986 4.059 160.973 2.713 160.961 C-9.784 160.942 -21.599 162.418 -33.576 165.998 C-34.479 166.264 -35.381 166.529 -36.311 166.803 C-52.927 171.797 -67.21 179.641 -80.951 190.185 C-81.778 190.807 -82.604 191.428 -83.455 192.068 C-87.595 195.219 -91.292 198.477 -94.951 202.185 C-95.942 203.135 -96.936 204.081 -97.932 205.025 C-109.675 216.29 -118.358 228.841 -125.951 243.185 C-126.547 244.298 -127.143 245.41 -127.756 246.556 C-144.714 280.359 -147.074 322.023 -135.576 357.935 C-134.421 361.372 -133.207 364.784 -131.951 368.185 C-131.516 369.379 -131.08 370.573 -130.631 371.802 C-124.169 388.277 -113.446 403.709 -101.139 416.361 C-99.951 418.185 -99.951 418.185 -100.181 420.087 C-101.092 422.568 -102.185 423.749 -104.084 425.576 C-104.726 426.204 -105.368 426.831 -106.03 427.478 C-106.705 428.124 -107.38 428.77 -108.076 429.435 C-111.884 433.115 -115.647 436.761 -119.073 440.802 C-122.385 444.656 -125.933 448.229 -129.541 451.802 C-130.135 452.39 -130.728 452.978 -131.339 453.584 C-133.823 456.039 -136.309 458.491 -138.8 460.938 C-140.635 462.743 -142.463 464.553 -144.291 466.365 C-144.86 466.92 -145.429 467.475 -146.014 468.047 C-147.365 469.389 -148.664 470.783 -149.951 472.185 C-149.951 472.845 -149.951 473.505 -149.951 474.185 C-150.532 474.428 -151.112 474.67 -151.71 474.92 C-154.369 476.421 -155.84 478.102 -157.819 480.427 C-161.639 484.78 -165.601 488.925 -169.709 493.006 C-170.306 493.599 -170.904 494.193 -171.519 494.805 C-173.369 496.642 -175.222 498.477 -177.076 500.31 C-186.022 508.996 -186.022 508.996 -194.444 518.177 C-200.432 525.229 -207.273 531.558 -213.845 538.058 C-215.695 539.89 -217.542 541.725 -219.389 543.56 C-219.943 544.106 -220.498 544.652 -221.069 545.215 C-223.97 548.099 -226.735 551.048 -229.409 554.145 C-232.833 558.103 -236.464 561.794 -240.198 565.459 C-241.542 566.791 -242.886 568.123 -244.231 569.455 C-246.325 571.524 -248.421 573.591 -250.519 575.656 C-252.562 577.67 -254.599 579.689 -256.635 581.709 C-257.269 582.33 -257.904 582.95 -258.557 583.59 C-260.06 585.084 -261.511 586.63 -262.951 588.185 C-262.951 588.845 -262.951 589.505 -262.951 590.185 C-261.09 591.77 -259.226 593.234 -257.264 594.685 C-256.059 595.591 -254.855 596.497 -253.651 597.404 C-252.723 598.098 -252.723 598.098 -251.777 598.806 C-250.076 600.091 -248.395 601.397 -246.721 602.717 C-226.705 618.431 -204.282 633.026 -180.479 642.201 C-177.798 643.245 -175.159 644.368 -172.514 645.498 C-142.775 657.864 -111.528 666.401 -79.484 669.893 C-77.24 670.152 -75.015 670.463 -72.783 670.806 C-34.275 676.458 15.194 674.103 51.725 660.058 C54.42 659.046 57.111 658.353 59.924 657.748 C66.561 656.155 72.736 653.756 79.049 651.185 C80.395 650.652 81.741 650.12 83.088 649.588 C96.913 644.072 110.053 637.43 123.049 630.185 C124.271 629.523 125.494 628.862 126.717 628.201 C140.409 620.736 152.987 611.96 165.252 602.349 C167.58 600.548 169.933 598.846 172.361 597.185 C173.248 596.525 174.135 595.865 175.049 595.185 C175.049 594.525 175.049 593.865 175.049 593.185 C175.59 592.962 176.131 592.739 176.689 592.51 C179.798 590.765 182.228 588.433 184.799 585.998 C185.876 584.99 186.954 583.984 188.033 582.978 C188.553 582.493 189.073 582.007 189.609 581.507 C191.376 579.885 193.206 578.347 195.049 576.81 C199.213 573.209 202.854 569.158 206.55 565.089 C209.527 561.814 212.561 558.646 215.736 555.56 C220.593 550.764 224.792 545.512 229.049 540.185 C231.234 537.547 233.423 534.912 235.615 532.279 C268.995 489.844 295.573 439.071 307.049 386.185 C307.403 384.599 307.757 383.013 308.111 381.427 C313.03 359.099 314.282 336.99 314.299 314.185 C314.3 313.191 314.301 312.197 314.302 311.173 C314.291 296.267 313.679 281.886 311.049 267.185 C310.731 265.256 310.415 263.326 310.099 261.396 C308.437 251.51 306.417 241.819 303.617 232.188 C302.984 229.959 302.399 227.72 301.814 225.478 C289.701 179.912 266.012 137.3 235.228 101.76 C233.049 99.185 233.049 99.185 231.049 96.185 C228.992 95.973 228.992 95.973 227.602 97.384 Z " fill="#FEB02D" transform="translate(502.951416015625,119.814697265625)"/>
<path d="M0 0 C1.034 0.001 1.034 0.001 2.089 0.003 C44.605 0.128 80.707 16.451 110.875 46.188 C111.713 47.012 112.551 47.837 113.414 48.688 C125.205 60.965 133.853 75.774 140.875 91.188 C141.451 92.433 141.451 92.433 142.039 93.703 C157.431 129.492 157.217 171.747 143.09 207.887 C136.936 222.783 128.542 237.078 117.875 249.188 C117.134 250.037 116.393 250.886 115.629 251.762 C108.958 259.288 102.241 266.224 94.125 272.188 C93.423 272.707 92.722 273.226 91.999 273.76 C65.567 293.153 36.119 303.623 3.312 303.688 C2.505 303.69 1.697 303.693 0.864 303.696 C-14.416 303.685 -28.451 301.666 -43.125 297.188 C-43.932 296.942 -44.739 296.696 -45.57 296.443 C-81.371 285.106 -111.233 257.704 -129.328 225.387 C-130.372 223.527 -131.45 221.685 -132.609 219.895 C-149.568 189.605 -153.377 147.623 -144.36 114.367 C-141.84 105.614 -139.247 97 -135.009 88.912 C-134.032 87.075 -134.032 87.075 -133.102 84.602 C-127.81 71.521 -118.766 59.765 -109.258 49.516 C-107.395 47.482 -105.671 45.393 -103.938 43.25 C-85.992 22.747 -59.261 10.708 -33.688 3.375 C-32.979 3.168 -32.271 2.961 -31.541 2.748 C-21.191 -0.111 -10.671 -0.019 0 0 Z " fill="#111111" transform="translate(509.125,280.8125)"/>
<path d="M0 0 C0.33 0.66 0.66 1.32 1 2 C0.231 3.613 0.231 3.613 -1.027 5.527 C-1.715 6.583 -1.715 6.583 -2.416 7.661 C-2.918 8.412 -3.42 9.163 -3.938 9.938 C-4.445 10.709 -4.953 11.48 -5.476 12.275 C-8.844 17.356 -12.318 22.343 -15.957 27.234 C-17.523 29.354 -19.058 31.486 -20.574 33.641 C-21.018 34.27 -21.462 34.9 -21.92 35.548 C-22.783 36.774 -23.643 38.001 -24.5 39.231 C-26.781 42.459 -29.174 45.248 -32 48 C-33.264 49.572 -34.513 51.157 -35.75 52.75 C-40.497 58.625 -45.749 63.893 -51.151 69.165 C-54.443 72.389 -57.611 75.643 -60.617 79.137 C-63.565 82.56 -66.644 85.6 -70 88.625 C-70.515 89.09 -71.031 89.555 -71.562 90.034 C-73.037 91.361 -74.518 92.681 -76 94 C-76.745 94.672 -77.49 95.343 -78.258 96.035 C-82.738 100 -82.738 100 -85 100 C-85 100.66 -85 101.32 -85 102 C-86.78 103.483 -88.627 104.887 -90.5 106.25 C-91.521 106.998 -92.542 107.745 -93.594 108.516 C-94.14 108.912 -94.686 109.308 -95.249 109.717 C-97.134 111.098 -98.994 112.509 -100.855 113.922 C-105.079 117.094 -109.417 120.072 -113.812 123 C-114.599 123.525 -115.386 124.049 -116.197 124.59 C-121.153 127.863 -126.15 130.92 -131.445 133.621 C-133.604 134.786 -135.617 136.028 -137.676 137.355 C-142.29 140.266 -147.121 142.576 -152.062 144.875 C-152.984 145.308 -153.906 145.74 -154.856 146.186 C-156.709 147.056 -158.564 147.924 -160.419 148.79 C-162.69 149.855 -164.952 150.936 -167.211 152.027 C-175.302 155.919 -183.489 159.145 -192 162 C-193.179 162.412 -193.179 162.412 -194.383 162.832 C-205.384 166.628 -216.637 169.53 -228 172 C-229.344 172.323 -230.688 172.645 -232.031 172.969 C-279.237 183.851 -332.202 181.65 -379 170 C-380.167 169.712 -380.167 169.712 -381.358 169.419 C-401.433 164.376 -424.329 158.561 -442.195 147.972 C-444.028 146.985 -445.822 146.281 -447.785 145.594 C-452.944 143.749 -457.647 141.139 -462.438 138.5 C-463.401 137.971 -464.365 137.442 -465.357 136.897 C-474.18 131.996 -482.669 126.692 -491 121 C-491.602 120.591 -492.204 120.181 -492.825 119.76 C-500.818 114.291 -508.387 108.375 -515.848 102.202 C-516.491 101.67 -517.134 101.138 -517.797 100.59 C-518.368 100.114 -518.938 99.638 -519.526 99.148 C-521.015 97.91 -521.015 97.91 -523 97 C-521.643 93.964 -520.125 91.883 -517.763 89.552 C-517.105 88.897 -516.447 88.243 -515.769 87.568 C-515.058 86.87 -514.346 86.172 -513.613 85.453 C-512.878 84.723 -512.143 83.993 -511.385 83.241 C-509.032 80.906 -506.673 78.577 -504.312 76.25 C-501.971 73.936 -499.63 71.621 -497.293 69.302 C-495.84 67.861 -494.384 66.423 -492.926 64.988 C-488.942 61.042 -485.155 56.993 -481.507 52.735 C-479.463 50.382 -477.283 48.186 -475.062 46 C-474.29 45.237 -473.518 44.474 -472.723 43.688 C-472.154 43.131 -471.586 42.574 -471 42 C-467.048 45.279 -463.333 48.632 -459.75 52.312 C-451.406 60.741 -440.738 70.631 -430 76 C-430 76.66 -430 77.32 -430 78 C-428.962 78.367 -428.962 78.367 -427.902 78.742 C-424.538 80.2 -421.599 82.099 -418.562 84.125 C-411.536 88.721 -404.353 92.943 -397 97 C-396.369 97.35 -395.738 97.7 -395.087 98.06 C-387.565 102.212 -380.086 106.054 -372 109 C-370.587 109.538 -369.174 110.077 -367.762 110.617 C-357.306 114.585 -346.829 118.195 -336 121 C-334.578 121.37 -334.578 121.37 -333.128 121.747 C-314.84 126.392 -296.774 128.648 -278 130 C-277.041 130.071 -276.082 130.141 -275.093 130.214 C-232.825 133.218 -191.177 127.313 -151 114 C-150.307 113.775 -149.615 113.549 -148.901 113.317 C-139.586 110.265 -130.788 106.298 -122 102 C-121.353 101.687 -120.705 101.373 -120.039 101.05 C-104.144 93.34 -87.743 85.111 -73.734 74.242 C-72 73 -72 73 -70 73 C-70 72.34 -70 71.68 -70 71 C-68.009 69.488 -66.009 68.082 -63.938 66.688 C-45.568 53.898 -28.56 37.8 -15 20 C-13.882 18.552 -12.763 17.104 -11.645 15.656 C-5.642 7.959 -5.642 7.959 0 0 Z " fill="#111111" transform="translate(763,613)"/>
<path d="M0 0 C9.027 7.222 16.456 16.109 23.938 24.875 C24.386 25.398 24.834 25.921 25.296 26.459 C28.138 29.826 30.599 33.31 33 37 C34.008 38.47 35.019 39.939 36.031 41.406 C44.04 53.12 51.144 65.081 57.743 77.638 C58.826 79.672 59.94 81.679 61.09 83.676 C64.8 90.195 67.53 96.724 69.873 103.827 C71.063 107.436 72.367 110.897 73.953 114.352 C76.211 119.327 77.922 124.418 79.562 129.625 C79.868 130.594 80.174 131.564 80.49 132.562 C82.888 140.325 84.601 147.993 86 156 C86.327 157.652 86.658 159.303 86.992 160.953 C89.267 172.266 91.006 183.503 92 195 C92.112 196.241 92.224 197.483 92.34 198.762 C94.862 231.825 93.026 266.196 84.675 298.354 C84.08 300.687 83.551 303.018 83.062 305.375 C77.271 331.552 67.461 357.068 55.125 380.825 C53.893 383.208 52.683 385.602 51.473 387.996 C41.131 408.286 28.771 426.886 15 445 C14.425 445.761 13.85 446.521 13.258 447.305 C0.65 463.774 -13.447 480.259 -29.25 493.75 C-31.121 495.351 -32.918 496.913 -34.609 498.703 C-36 500 -36 500 -38 500 C-38.33 500.99 -38.66 501.98 -39 503 C-40.985 504.74 -42.964 506.347 -45.062 507.938 C-45.688 508.418 -46.314 508.899 -46.958 509.395 C-48.292 510.418 -49.629 511.437 -50.968 512.453 C-52.929 513.946 -54.875 515.455 -56.82 516.969 C-74.692 530.76 -94.158 541.826 -114.062 552.375 C-114.848 552.792 -115.634 553.209 -116.443 553.639 C-120.889 555.973 -125.352 558.088 -130 560 C-130.702 560.291 -131.404 560.583 -132.128 560.883 C-143.926 565.756 -155.778 570.3 -168 574 C-169.201 574.367 -169.201 574.367 -170.426 574.741 C-196.959 582.674 -224.991 586.912 -252.663 586.985 C-256.052 587 -259.436 587.07 -262.824 587.148 C-293.212 587.696 -325.005 585.049 -354.105 575.895 C-356.97 575.009 -359.856 574.298 -362.766 573.583 C-376.156 570.089 -389.281 565.423 -402 560 C-403.268 559.474 -404.536 558.948 -405.805 558.422 C-439.21 544.38 -469.69 524.188 -496.215 499.574 C-497.925 497.931 -497.925 497.931 -500 497 C-499.01 495.02 -499.01 495.02 -498 493 C-497.402 493.33 -496.804 493.66 -496.188 494 C-493.946 495.208 -493.946 495.208 -491 495 C-488.878 493.284 -488.878 493.284 -486.75 491 C-486.023 490.257 -485.296 489.515 -484.547 488.75 C-482.592 486.639 -480.707 484.505 -478.833 482.324 C-475.102 478.054 -471.157 474.046 -467.125 470.062 C-466.033 468.976 -466.033 468.976 -464.918 467.867 C-461.839 464.805 -458.754 461.748 -455.67 458.69 C-453.403 456.442 -451.139 454.19 -448.875 451.938 C-448.189 451.26 -447.504 450.583 -446.797 449.885 C-442.898 446.005 -439.19 442.024 -435.618 437.84 C-432.16 433.906 -428.345 430.307 -424.605 426.645 C-421.538 423.615 -418.58 420.561 -415.781 417.281 C-410.352 410.985 -404.31 405.255 -398.397 399.418 C-391.257 392.42 -391.257 392.42 -384.531 385.031 C-379.04 378.596 -372.839 372.786 -366.825 366.845 C-361.305 361.387 -355.845 355.946 -350.806 350.033 C-346.77 345.49 -342.378 341.276 -338.062 337 C-337.082 336.025 -336.103 335.05 -335.123 334.074 C-332.751 331.714 -330.377 329.356 -328 327 C-327.01 327.66 -326.02 328.32 -325 329 C-325.58 332.412 -326.655 334.008 -329.133 336.391 C-329.775 337.018 -330.417 337.646 -331.078 338.293 C-331.754 338.939 -332.429 339.585 -333.125 340.25 C-336.941 343.937 -340.711 347.594 -344.148 351.641 C-350.118 358.581 -356.816 364.869 -363.321 371.3 C-365.101 373.063 -366.879 374.828 -368.656 376.594 C-369.189 377.118 -369.721 377.642 -370.27 378.182 C-373.103 380.997 -375.795 383.88 -378.404 386.904 C-382.045 391.11 -385.92 395.03 -389.875 398.938 C-390.603 399.662 -391.331 400.386 -392.082 401.133 C-395.161 404.195 -398.246 407.252 -401.33 410.31 C-403.597 412.558 -405.861 414.81 -408.125 417.062 C-408.811 417.74 -409.496 418.417 -410.203 419.115 C-414.08 422.973 -417.739 426.946 -421.312 431.087 C-423.936 434.061 -426.737 436.842 -429.562 439.625 C-430.157 440.216 -430.752 440.807 -431.365 441.417 C-433.871 443.906 -436.383 446.389 -438.894 448.873 C-440.744 450.705 -442.591 452.54 -444.438 454.375 C-444.992 454.921 -445.546 455.467 -446.117 456.03 C-449.019 458.914 -451.785 461.863 -454.459 464.959 C-457.877 468.91 -461.494 472.606 -465.211 476.273 C-465.865 476.923 -466.518 477.573 -467.192 478.243 C-469.25 480.289 -471.312 482.333 -473.375 484.375 C-476.115 487.088 -478.851 489.805 -481.586 492.523 C-482.215 493.144 -482.844 493.765 -483.492 494.405 C-486.63 497.408 -486.63 497.408 -489 501 C-488.149 501.385 -488.149 501.385 -487.281 501.777 C-484.745 503.137 -482.72 504.731 -480.5 506.562 C-458.283 524.563 -433.329 541.685 -406.527 552.016 C-403.847 553.06 -401.208 554.182 -398.562 555.312 C-368.824 567.678 -337.577 576.216 -305.533 579.708 C-303.289 579.967 -301.064 580.277 -298.832 580.621 C-260.324 586.273 -210.855 583.917 -174.323 569.872 C-171.628 568.86 -168.938 568.168 -166.125 567.562 C-159.488 565.969 -153.313 563.571 -147 561 C-145.654 560.467 -144.308 559.934 -142.961 559.402 C-129.136 553.887 -115.995 547.245 -103 540 C-101.778 539.338 -100.555 538.676 -99.332 538.016 C-83.614 529.447 -69.006 519.185 -55.262 507.715 C-53 506 -53 506 -51 506 C-51 505.34 -51 504.68 -51 504 C-49.529 502.691 -47.994 501.455 -46.438 500.25 C-36.904 492.615 -27.54 484.393 -19.727 474.977 C-17.486 472.411 -15.06 470.069 -12.625 467.688 C-6.486 461.617 -0.801 455.201 4 448 C4.66 448 5.32 448 6 448 C6.257 447.442 6.513 446.884 6.777 446.309 C8.163 443.692 9.794 441.438 11.562 439.062 C42.916 396.323 68.694 349.104 80 297 C80.354 295.414 80.708 293.828 81.062 292.242 C85.981 269.914 87.234 247.805 87.25 225 C87.251 224.006 87.252 223.012 87.253 221.988 C87.243 207.082 86.63 192.701 84 178 C83.682 176.071 83.366 174.141 83.051 172.211 C81.388 162.325 79.368 152.633 76.568 143.002 C75.936 140.774 75.35 138.535 74.766 136.293 C62.861 91.509 39.714 48.942 9.389 13.984 C6.089 10.178 6.089 10.178 5 8 C2.16 9.292 0.103 10.648 -2.097 12.854 C-2.964 13.716 -2.964 13.716 -3.848 14.595 C-4.461 15.216 -5.075 15.837 -5.707 16.477 C-6.351 17.121 -6.994 17.765 -7.657 18.428 C-9.019 19.793 -10.378 21.16 -11.735 22.529 C-13.789 24.602 -15.852 26.667 -17.916 28.73 C-19.243 30.062 -20.569 31.394 -21.895 32.727 C-22.502 33.335 -23.11 33.944 -23.736 34.571 C-27.432 38.307 -30.926 42.17 -34.365 46.144 C-36.561 48.637 -38.885 50.98 -41.25 53.312 C-41.712 53.771 -42.174 54.229 -42.649 54.7 C-44.581 56.616 -46.519 58.526 -48.457 60.437 C-49.89 61.851 -51.32 63.269 -52.75 64.688 C-53.59 65.516 -54.431 66.345 -55.297 67.199 C-57.36 69.337 -59.306 71.491 -61.241 73.741 C-65.405 78.54 -69.885 82.992 -74.398 87.461 C-75.274 88.333 -76.15 89.204 -77.052 90.103 C-80.297 93.334 -83.547 96.56 -86.797 99.786 C-90 102.967 -93.2 106.151 -96.398 109.336 C-97.246 110.175 -98.094 111.015 -98.968 111.88 C-100.135 113.042 -100.135 113.042 -101.326 114.228 C-102.013 114.91 -102.7 115.592 -103.408 116.295 C-105.08 117.925 -105.08 117.925 -106 120 C-107.32 119.34 -108.64 118.68 -110 118 C-105.262 107.725 -94.778 99.702 -86.825 91.845 C-85.183 90.222 -83.545 88.595 -81.906 86.969 C-81.417 86.488 -80.929 86.008 -80.425 85.513 C-77.708 82.814 -75.138 80.038 -72.637 77.137 C-68.915 72.841 -64.948 68.838 -60.906 64.844 C-60.156 64.097 -59.406 63.351 -58.632 62.581 C-55.458 59.423 -52.277 56.271 -49.097 53.118 C-46.761 50.799 -44.427 48.478 -42.094 46.156 C-41.033 45.107 -41.033 45.107 -39.95 44.037 C-36.019 40.126 -32.304 36.103 -28.683 31.903 C-26.059 28.936 -23.247 26.18 -20.41 23.418 C-19.202 22.227 -17.995 21.037 -16.787 19.846 C-14.912 18.001 -13.034 16.16 -11.151 14.323 C-9.314 12.528 -7.487 10.724 -5.66 8.918 C-5.092 8.368 -4.523 7.818 -3.937 7.251 C-2.567 5.89 -1.275 4.45 0 3 C0 2.01 0 1.02 0 0 Z " fill="#F8F7F5" transform="translate(729,209)"/>
<path d="M0 0 C1.222 0.046 1.222 0.046 2.469 0.092 C21.892 1.005 40.252 6.635 57.233 16.031 C58.965 16.981 60.722 17.882 62.48 18.781 C69.843 22.579 76.457 26.929 83 32 C83.855 32.65 84.709 33.299 85.59 33.969 C91.51 38.566 96.817 43.591 102 49 C100.515 50.485 100.515 50.485 99 52 C98.331 51.345 97.662 50.69 96.973 50.016 C84.56 38.119 70.565 28.324 55 21 C54.346 20.692 53.692 20.384 53.018 20.067 C44.789 16.279 36.465 13.371 27.688 11.125 C26.9 10.922 26.113 10.718 25.302 10.509 C13.903 7.778 2.287 7.818 -9.375 7.812 C-10.682 7.8 -11.989 7.788 -13.336 7.775 C-25.833 7.757 -37.648 9.233 -49.625 12.812 C-50.527 13.078 -51.43 13.344 -52.36 13.618 C-72.054 19.537 -88.086 29.742 -104.027 42.555 C-106 44 -106 44 -108.129 44.945 C-110.516 46.291 -110.81 47.559 -112 50 C-113.626 51.666 -115.299 53.286 -117 54.875 C-127.126 64.69 -134.437 76.603 -141 89 C-141.596 90.112 -142.191 91.225 -142.805 92.371 C-159.763 126.174 -162.123 167.838 -150.625 203.75 C-149.469 207.187 -148.256 210.598 -147 214 C-146.346 215.791 -146.346 215.791 -145.68 217.617 C-140.485 230.861 -132.401 242.807 -123.613 253.914 C-121.593 256.526 -119.782 259.221 -118 262 C-121.715 260.762 -122.585 259.272 -124.938 256.188 C-126.936 253.581 -128.854 251.143 -131.207 248.848 C-133.369 246.62 -133.662 245.038 -134 242 C-134.99 241.67 -135.98 241.34 -137 241 C-140.31 237.377 -142.661 233.318 -144.938 229 C-145.285 228.343 -145.633 227.686 -145.991 227.009 C-149.181 220.858 -151.741 214.55 -154 208 C-154.314 207.118 -154.627 206.237 -154.95 205.328 C-160.779 188.54 -162.378 171.418 -162.375 153.75 C-162.377 153.059 -162.379 152.369 -162.38 151.657 C-162.378 142.593 -161.662 133.909 -160 125 C-159.869 124.281 -159.738 123.562 -159.604 122.821 C-158.249 115.703 -156.579 108.773 -154 102 C-153.555 100.823 -153.111 99.646 -152.652 98.434 C-145.757 80.514 -135.007 65.816 -123 51 C-122.566 50.463 -122.133 49.925 -121.686 49.372 C-118.143 45.04 -114.262 41.593 -110 38 C-109.135 37.236 -108.27 36.471 -107.379 35.684 C-87.304 18.278 -62.379 5.738 -36 2 C-34.093 1.694 -34.093 1.694 -32.148 1.383 C-21.424 -0.186 -10.823 -0.408 0 0 Z " fill="#F9BD67" transform="translate(519,274)"/>
<path d="M0 0 C0.66 0 1.32 0 2 0 C3.771 6.002 1.897 10.278 -0.25 15.875 C-0.611 16.836 -0.971 17.797 -1.343 18.787 C-22.325 73.566 -22.325 73.566 -36.848 87.812 C-39.728 90.74 -42.024 93.998 -44.438 97.312 C-58.316 116.021 -74.365 133.919 -93 148 C-94.088 148.843 -95.175 149.687 -96.262 150.531 C-104.677 157 -104.677 157 -107 157 C-107 157.66 -107 158.32 -107 159 C-108.354 160.11 -108.354 160.11 -110.262 161.32 C-110.962 161.769 -111.662 162.218 -112.383 162.68 C-113.524 163.395 -113.524 163.395 -114.688 164.125 C-115.852 164.864 -115.852 164.864 -117.041 165.618 C-118.62 166.619 -120.202 167.615 -121.786 168.609 C-123.685 169.802 -125.575 171.009 -127.461 172.223 C-135.015 177.008 -142.799 181.089 -150.847 184.96 C-153.135 186.065 -155.413 187.191 -157.691 188.316 C-159.231 189.066 -160.772 189.815 -162.312 190.562 C-163.398 191.101 -163.398 191.101 -164.505 191.65 C-169.657 194.114 -169.657 194.114 -173 193 C-170.774 191.847 -168.545 190.702 -166.312 189.562 C-165.687 189.237 -165.061 188.912 -164.416 188.576 C-160.963 186.822 -157.848 185.522 -154 185 C-153.67 184.01 -153.34 183.02 -153 182 C-151.241 180.777 -151.241 180.777 -148.949 179.582 C-148.111 179.137 -147.274 178.691 -146.411 178.232 C-145.512 177.764 -144.613 177.295 -143.688 176.812 C-135.791 172.582 -128.314 168.184 -121 163 C-119.886 162.224 -118.771 161.448 -117.656 160.672 C-101.397 149.282 -86.703 136.732 -72.625 122.75 C-72.066 122.196 -71.507 121.642 -70.932 121.071 C-64.135 114.247 -58.019 106.922 -52.125 99.312 C-51.516 98.526 -50.906 97.739 -50.279 96.928 C-38.479 81.596 -28.714 65.487 -19.75 48.375 C-19.159 47.255 -18.569 46.136 -17.96 44.982 C-14.082 37.492 -10.878 29.924 -8 22 C-7.339 20.226 -6.677 18.453 -6.016 16.68 C-5.426 15.078 -4.838 13.477 -4.25 11.875 C-3.947 11.053 -3.644 10.23 -3.332 9.383 C-2.186 6.265 -1.051 3.152 0 0 Z " fill="#F79A5E" transform="translate(800,527)"/>
<path d="M0 0 C27.463 26.586 40.415 65.727 41.406 103.239 C41.595 122.345 38.603 141.059 32 159 C31.633 160.004 31.265 161.008 30.887 162.043 C28.46 168.222 25.495 174.114 22.438 180 C22.061 180.731 21.685 181.462 21.298 182.215 C19.228 186.111 17.164 188.894 14 192 C12.997 193.998 11.997 195.999 11 198 C9.376 200.137 7.753 202.165 6 204.188 C5.522 204.745 5.045 205.302 4.552 205.876 C-8.071 220.421 -8.071 220.421 -15 225 C-15.66 225 -16.32 225 -17 225 C-17.34 225.886 -17.34 225.886 -17.688 226.789 C-19.372 229.626 -21.185 230.671 -24 232.375 C-25.47 233.268 -25.47 233.268 -26.969 234.18 C-28.469 235.081 -28.469 235.081 -30 236 C-31.408 236.901 -31.408 236.901 -32.844 237.82 C-33.72 238.375 -34.597 238.929 -35.5 239.5 C-36.294 240.005 -37.088 240.511 -37.906 241.031 C-40 242 -40 242 -43 241 C-41.889 240.299 -40.778 239.597 -39.633 238.875 C-31.402 233.642 -23.393 228.392 -16 222 C-15.196 221.317 -14.391 220.634 -13.562 219.93 C-3.79 211.409 5.063 201.991 12 191 C12.375 190.412 12.75 189.823 13.136 189.217 C34.028 156.114 43.768 114.848 35 76 C28.992 52.04 19.209 31.425 4.315 11.758 C2.159 8.875 0.082 5.937 -2 3 C-1.34 2.01 -0.68 1.02 0 0 Z " fill="#F4B868" transform="translate(624,326)"/>
<path d="M0 0 C0.66 0 1.32 0 2 0 C3.771 6.002 1.897 10.278 -0.25 15.875 C-0.611 16.836 -0.971 17.797 -1.343 18.787 C-21.047 70.23 -21.047 70.23 -35 86 C-37.062 86.82 -37.062 86.82 -39 87 C-39.66 86.67 -40.32 86.34 -41 86 C-39.798 82.772 -38.493 80.054 -36.5 77.25 C-24.88 60.13 -14.929 41.503 -8 22 C-7.397 20.363 -6.791 18.726 -6.184 17.09 C-4.935 13.726 -3.69 10.361 -2.453 6.992 C-2.197 6.295 -1.941 5.597 -1.677 4.878 C-1.094 3.261 -0.544 1.631 0 0 Z " fill="#FD965B" transform="translate(800,527)"/>
<path d="M0 0 C0.33 0 0.66 0 1 0 C2.407 15.754 -6.498 32.402 -13.562 46 C-14.127 47.096 -14.127 47.096 -14.702 48.215 C-16.772 52.111 -18.836 54.894 -22 58 C-23.003 59.998 -24.003 61.999 -25 64 C-26.624 66.137 -28.247 68.165 -30 70.188 C-30.717 71.024 -30.717 71.024 -31.448 71.876 C-44.071 86.421 -44.071 86.421 -51 91 C-51.66 91 -52.32 91 -53 91 C-53.34 91.886 -53.34 91.886 -53.688 92.789 C-55.372 95.626 -57.185 96.671 -60 98.375 C-61.47 99.268 -61.47 99.268 -62.969 100.18 C-63.969 100.78 -64.969 101.381 -66 102 C-66.938 102.601 -67.877 103.201 -68.844 103.82 C-69.72 104.375 -70.597 104.929 -71.5 105.5 C-72.294 106.005 -73.088 106.511 -73.906 107.031 C-76 108 -76 108 -79 107 C-77.889 106.299 -76.778 105.597 -75.633 104.875 C-67.402 99.642 -59.393 94.392 -52 88 C-51.196 87.317 -50.391 86.634 -49.562 85.93 C-39.79 77.409 -30.937 67.991 -24 57 C-23.625 56.412 -23.25 55.823 -22.864 55.217 C-11.903 37.85 -5.165 19.819 0 0 Z " fill="#F6CC83" transform="translate(660,460)"/>
<path d="M0 0 C1.158 3.463 0.841 5.959 0.145 9.516 C-0.064 10.595 -0.272 11.674 -0.487 12.785 C-0.718 13.929 -0.949 15.072 -1.188 16.25 C-1.419 17.419 -1.65 18.588 -1.888 19.793 C-5.155 36.072 -9.633 51.819 -14.688 67.625 C-15.008 68.629 -15.328 69.633 -15.658 70.668 C-16.438 73.112 -17.219 75.556 -18 78 C-18.33 76.68 -18.66 75.36 -19 74 C-19.66 74 -20.32 74 -21 74 C-20.292 68.309 -18.486 63.103 -16.688 57.688 C-13.609 48.203 -11.079 38.746 -9 29 C-8.636 27.336 -8.271 25.672 -7.906 24.008 C-7.541 22.318 -7.176 20.628 -6.812 18.938 C-6.645 18.164 -6.478 17.39 -6.306 16.593 C-5.53 12.906 -4.898 9.285 -4.516 5.535 C-4.345 4.369 -4.175 3.202 -4 2 C-1.938 0.5 -1.938 0.5 0 0 Z " fill="#F3EFEC" transform="translate(818,477)"/>
<path d="M0 0 C2.187 -0.027 4.375 -0.047 6.562 -0.062 C7.781 -0.074 8.999 -0.086 10.254 -0.098 C14 0 14 0 17.221 0.498 C21.238 1.032 25.165 1.144 29.207 1.133 C30.355 1.134 30.355 1.134 31.527 1.136 C33.138 1.136 34.749 1.135 36.36 1.13 C38.795 1.125 41.23 1.13 43.666 1.137 C50.844 1.14 57.919 1.082 65.056 0.223 C67.586 -0.067 70.081 -0.099 72.625 -0.062 C73.882 -0.049 73.882 -0.049 75.164 -0.035 C75.77 -0.024 76.376 -0.012 77 0 C77 0.99 77 1.98 77 3 C51.945 9.341 23.211 6.947 -2 3 C-1.34 2.67 -0.68 2.34 0 2 C0 1.34 0 0.68 0 0 Z " fill="#FAFAFA" transform="translate(423,790)"/>
<path d="M0 0 C1.32 0.33 2.64 0.66 4 1 C3.66 8.148 2.176 14.401 -0.096 21.142 C-4.511 34.907 -4.265 49.16 -4.125 63.438 C-4.115 65.248 -4.106 67.059 -4.098 68.869 C-4.076 73.246 -4.042 77.623 -4 82 C-4.33 82 -4.66 82 -5 82 C-6.024 73.381 -6.155 64.804 -6.13 56.138 C-6.125 53.872 -6.13 51.606 -6.137 49.34 C-6.139 42.152 -5.892 35.14 -5 28 C-5.186 26.866 -5.371 25.731 -5.562 24.562 C-6.556 16.475 -3.621 7.241 0 0 Z " fill="#FCC76F" transform="translate(366,374)"/>
<path d="M0 0 C0.66 0 1.32 0 2 0 C3.911 6.176 1.654 10.868 -0.562 16.625 C-0.927 17.6 -1.292 18.576 -1.668 19.581 C-4.351 26.629 -7.326 33.404 -11 40 C-13.204 33.877 -10.84 28.107 -8.25 22.5 C-4.977 15.149 -2.427 7.666 0 0 Z " fill="#FD8648" transform="translate(800,527)"/>
<path d="M0 0 C0.66 0.33 1.32 0.66 2 1 C-1.011 6.929 -4.743 11.141 -9.5 15.75 C-10.164 16.409 -10.828 17.067 -11.512 17.746 C-19.9 26 -19.9 26 -23 26 C-23.227 26.59 -23.454 27.181 -23.688 27.789 C-25.372 30.626 -27.185 31.671 -30 33.375 C-30.98 33.971 -31.959 34.566 -32.969 35.18 C-33.969 35.78 -34.969 36.381 -36 37 C-36.938 37.601 -37.877 38.201 -38.844 38.82 C-40.159 39.652 -40.159 39.652 -41.5 40.5 C-42.294 41.005 -43.088 41.511 -43.906 42.031 C-46 43 -46 43 -49 42 C-47.889 41.299 -46.778 40.597 -45.633 39.875 C-37.402 34.642 -29.393 29.392 -22 23 C-21.196 22.317 -20.391 21.634 -19.562 20.93 C-8.484 11.569 -8.484 11.569 0 0 Z " fill="#F9DD9B" transform="translate(630,525)"/>
<path d="M0 0 C7.993 14.388 3.08 37.62 0 53 C-2.774 48.055 -2.362 43.312 -1.509 37.864 C-0.982 33.86 -0.779 29.91 -0.684 25.879 C-0.663 25.134 -0.642 24.389 -0.621 23.622 C-0.556 21.269 -0.497 18.916 -0.438 16.562 C-0.394 14.956 -0.351 13.35 -0.307 11.744 C-0.2 7.83 -0.099 3.915 0 0 Z " fill="#FCC375" transform="translate(662,411)"/>
<path d="M0 0 C-1.098 0.842 -2.203 1.673 -3.312 2.5 C-3.927 2.964 -4.542 3.428 -5.176 3.906 C-7 5 -7 5 -10 5 C-10.33 5.99 -10.66 6.98 -11 8 C-13.727 9.086 -16.313 9.955 -19.125 10.75 C-19.873 10.983 -20.62 11.217 -21.391 11.457 C-26.358 12.902 -29.94 13.101 -35 12 C-34.402 11.732 -33.804 11.464 -33.188 11.188 C-31.028 10.015 -29.642 8.806 -28 7 C-27.34 7.33 -26.68 7.66 -26 8 C-25.67 7.34 -25.34 6.68 -25 6 C-23.68 6.33 -22.36 6.66 -21 7 C-20.67 6.01 -20.34 5.02 -20 4 C-17.379 2.922 -14.892 2.05 -12.188 1.25 C-11.462 1.017 -10.737 0.783 -9.99 0.543 C-6.24 -0.603 -3.737 -1.181 0 0 Z " fill="#F1652D" transform="translate(617,722)"/>
<path d="M0 0 C0.495 1.485 0.495 1.485 1 3 C0.361 3.227 -0.279 3.454 -0.938 3.688 C-1.618 4.121 -2.299 4.554 -3 5 C-3.186 6.176 -3.186 6.176 -3.375 7.375 C-4 10 -4 10 -7 12.188 C-7.99 12.786 -8.98 13.384 -10 14 C-10.33 14.66 -10.66 15.32 -11 16 C-11.99 16 -12.98 16 -14 16 C-14.247 16.557 -14.495 17.114 -14.75 17.688 C-17.352 22.502 -20.73 25.667 -25 29 C-28.507 32.183 -28.507 32.183 -31 36.125 C-32.433 38.812 -34.297 39.716 -37 41 C-37.66 40.67 -38.32 40.34 -39 40 C-38.522 39.527 -38.043 39.054 -37.551 38.566 C-35.343 36.38 -33.14 34.19 -30.938 32 C-30.185 31.256 -29.433 30.512 -28.658 29.746 C-24.512 25.617 -20.559 21.404 -16.744 16.969 C-13.668 13.497 -10.362 10.258 -7.062 7 C-6.379 6.321 -5.695 5.641 -4.99 4.941 C-3.329 3.292 -1.666 1.645 0 0 Z " fill="#FE891B" transform="translate(691,258)"/>
<path d="M0 0 C1.32 0.33 2.64 0.66 4 1 C2.614 5.707 0.665 9.619 -1.875 13.812 C-2.214 14.397 -2.553 14.982 -2.902 15.584 C-4.406 18.051 -5.448 19.754 -8.133 20.949 C-10 21 -10 21 -12 20 C-10.718 16.527 -9.221 13.609 -7.125 10.562 C-6.599 9.792 -6.073 9.021 -5.531 8.227 C-5.026 7.492 -4.521 6.757 -4 6 C-3.206 4.814 -2.414 3.627 -1.625 2.438 C-0.821 1.231 -0.821 1.231 0 0 Z " fill="#F58144" transform="translate(771,593)"/>
<path d="M0 0 C1.32 0.99 2.64 1.98 4 3 C3.845 5.709 3.518 7.466 1.598 9.445 C0.102 10.677 -1.446 11.843 -3 13 C-3 12.34 -3 11.68 -3 11 C-7.214 13.27 -10.416 16.152 -13.738 19.543 C-14.264 20.071 -14.79 20.6 -15.331 21.144 C-16.996 22.821 -18.654 24.504 -20.312 26.188 C-21.445 27.331 -22.579 28.473 -23.713 29.615 C-26.481 32.405 -29.242 35.201 -32 38 C-32 35 -32 35 -30.785 33.445 C-30.217 32.892 -29.648 32.339 -29.062 31.77 C-28.422 31.139 -27.781 30.508 -27.121 29.858 C-26.421 29.183 -25.721 28.508 -25 27.812 C-24.29 27.114 -23.579 26.415 -22.848 25.695 C-19.8 22.696 -16.735 19.716 -13.672 16.733 C-11.442 14.557 -9.221 12.373 -7 10.188 C-6.3 9.512 -5.6 8.837 -4.879 8.142 C-3.918 7.196 -3.918 7.196 -2.938 6.23 C-2.369 5.678 -1.801 5.125 -1.215 4.555 C0.308 2.935 0.308 2.935 0 0 Z " fill="#FDF5E8" transform="translate(729,209)"/>
<path d="M0 0 C0.66 0.33 1.32 0.66 2 1 C-9.2 8 -9.2 8 -13 8 C-13.33 8.99 -13.66 9.98 -14 11 C-15.766 11.891 -15.766 11.891 -18.035 12.605 C-18.844 12.867 -19.653 13.128 -20.486 13.396 C-21.336 13.658 -22.187 13.919 -23.062 14.188 C-23.917 14.46 -24.771 14.733 -25.65 15.014 C-27.764 15.687 -29.88 16.348 -32 17 C-32.33 16.34 -32.66 15.68 -33 15 C-32.362 14.662 -31.724 14.325 -31.066 13.977 C-30.24 13.531 -29.414 13.085 -28.562 12.625 C-27.739 12.184 -26.915 11.743 -26.066 11.289 C-23.865 10.166 -23.865 10.166 -23 8 C-20.67 7.257 -18.364 6.614 -16 6 C-11.308 4.697 -6.867 3.434 -2.5 1.25 C-1.675 0.837 -0.85 0.425 0 0 Z " fill="#F3763F" transform="translate(640,712)"/>
<path d="M0 0 C0.33 0.66 0.66 1.32 1 2 C0.231 3.613 0.231 3.613 -1.027 5.527 C-1.486 6.232 -1.945 6.937 -2.418 7.663 C-2.919 8.413 -3.421 9.164 -3.938 9.938 C-4.441 10.703 -4.944 11.468 -5.463 12.257 C-8.952 17.527 -12.572 22.675 -16.34 27.75 C-18.326 30.442 -20.18 33.194 -22 36 C-22.99 35.34 -23.98 34.68 -25 34 C-22.222 28.104 -18.11 23.178 -13.75 18.375 C-8.642 12.659 -4.381 6.276 0 0 Z " fill="#110E0F" transform="translate(763,613)"/>
<path d="M0 0 C0 4.316 -2.133 5.928 -5 9 C-5.66 9 -6.32 9 -7 9 C-7.247 9.577 -7.495 10.155 -7.75 10.75 C-9.183 13.329 -10.784 15.061 -13 17 C-13.66 17 -14.32 17 -15 17 C-15.387 17.874 -15.387 17.874 -15.781 18.766 C-17.098 21.18 -18.551 22.817 -20.5 24.75 C-21.108 25.364 -21.717 25.977 -22.344 26.609 C-24 28 -24 28 -26 28 C-26.247 28.577 -26.495 29.155 -26.75 29.75 C-28.167 32.3 -29.876 34.018 -32 36 C-32.66 35.67 -33.32 35.34 -34 35 C-22.926 23.067 -11.577 11.446 0 0 Z " fill="#FE8A17" transform="translate(726,222)"/>
<path d="M0 0 C0.911 2.97 1.018 5.065 0.441 8.109 C0.303 8.863 0.164 9.618 0.021 10.395 C-0.13 11.172 -0.281 11.949 -0.438 12.75 C-0.585 13.543 -0.733 14.336 -0.885 15.152 C-1.249 17.103 -1.624 19.052 -2 21 C-3.65 21.33 -5.3 21.66 -7 22 C-6.692 19.329 -6.352 16.666 -6 14 C-5.878 12.966 -5.755 11.932 -5.629 10.867 C-5.41 9.262 -5.41 9.262 -5.188 7.625 C-5.057 6.607 -4.927 5.588 -4.793 4.539 C-4 2 -4 2 -1.926 0.648 C-1.29 0.434 -0.655 0.22 0 0 Z " fill="#EFE9E6" transform="translate(818,477)"/>
<path d="M0 0 C2.375 0.5 2.375 0.5 5 2 C6.68 6.801 7.255 10.896 7 16 C5.68 15.67 4.36 15.34 3 15 C2.67 15.66 2.34 16.32 2 17 C1.466 15.108 0.948 13.211 0.438 11.312 C0.147 10.257 -0.143 9.201 -0.441 8.113 C-1.001 4.993 -0.847 3.023 0 0 Z " fill="#F2EFEB" transform="translate(806,345)"/>
<path d="M0 0 C0.33 0 0.66 0 1 0 C0.525 5.681 -1.013 9.52 -3.938 14.375 C-4.298 15.003 -4.658 15.631 -5.029 16.277 C-7.715 20.858 -7.715 20.858 -10 22 C-10.454 22.928 -10.908 23.856 -11.375 24.812 C-12.94 27.882 -14.459 29.722 -17 32 C-16.53 26.947 -15.124 24.887 -12 21 C-10.208 18.195 -8.542 15.319 -6.875 12.438 C-6.433 11.683 -5.991 10.928 -5.535 10.15 C-3.586 6.809 -1.703 3.475 0 0 Z " fill="#F4D08E" transform="translate(648,496)"/>
<path d="M0 0 C0.66 0.33 1.32 0.66 2 1 C-4.694 6.59 -11.576 11.438 -19 16 C-20.161 16.748 -21.322 17.498 -22.48 18.25 C-23.653 19 -24.827 19.75 -26 20.5 C-27.072 21.191 -28.145 21.882 -29.25 22.594 C-30.158 23.058 -31.065 23.522 -32 24 C-32.99 23.67 -33.98 23.34 -35 23 C-33.271 21.895 -31.542 20.791 -29.812 19.688 C-28.85 19.073 -27.887 18.458 -26.895 17.824 C-25.939 17.222 -24.984 16.62 -24 16 C-23.096 15.429 -22.193 14.858 -21.262 14.27 C-19 13 -19 13 -17 13 C-17 12.34 -17 11.68 -17 11 C-16.42 10.697 -15.84 10.394 -15.242 10.082 C-10.327 7.446 -6.186 4.676 -2 1 C-1.34 0.67 -0.68 0.34 0 0 Z " fill="#F6571E" transform="translate(692,679)"/>
<path d="M0 0 C1.131 0.078 1.131 0.078 2.285 0.158 C4.149 0.288 6.012 0.425 7.875 0.562 C6.885 0.893 5.895 1.222 4.875 1.562 C4.875 2.222 4.875 2.883 4.875 3.562 C5.865 4.222 6.855 4.883 7.875 5.562 C5.833 5.42 3.791 5.273 1.75 5.125 C0.613 5.044 -0.524 4.963 -1.695 4.879 C-4.879 4.585 -7.98 4.131 -11.125 3.562 C-10.795 2.572 -10.465 1.582 -10.125 0.562 C-6.912 -1.044 -3.495 -0.263 0 0 Z " fill="#EFEFEF" transform="translate(418.125,788.4375)"/>
<path d="M0 0 C0.66 1.32 1.32 2.64 2 4 C1.336 4.713 0.672 5.426 -0.012 6.16 C-4.689 11.234 -9.163 16.245 -13 22 C-13 19 -13 19 -11 16 C-11.062 14.793 -11.062 14.793 -11.125 13.562 C-11 11 -11 11 -9.125 8.688 C-7 7 -7 7 -5 7 C-4.67 5.68 -4.34 4.36 -4 3 C-2.68 3 -1.36 3 0 3 C0 2.01 0 1.02 0 0 Z " fill="#FBC970" transform="translate(400,325)"/>
<path d="M0 0 C0 3 0 3 -1.863 5.051 C-3.076 6.17 -3.076 6.17 -4.312 7.312 C-7.835 10.692 -9.939 13.553 -12 18 C-13.938 19.062 -13.938 19.062 -16 20 C-17.358 21.646 -18.693 23.313 -20 25 C-20.99 25.66 -21.98 26.32 -23 27 C-23.99 26.67 -24.98 26.34 -26 26 C-17.42 17.42 -8.84 8.84 0 0 Z " fill="#FE8A1B" transform="translate(651,299)"/>
<path d="M0 0 C0 3.608 -0.376 6.753 -2 10 C-2.66 9.67 -3.32 9.34 -4 9 C-6.083 8.782 -6.083 8.782 -7.525 10.313 C-8.111 10.916 -8.697 11.519 -9.301 12.141 C-9.949 12.799 -10.596 13.458 -11.264 14.137 C-11.94 14.834 -12.616 15.531 -13.312 16.25 C-21.394 24.544 -21.394 24.544 -26 28 C-26.66 27.67 -27.32 27.34 -28 27 C-26.602 25.71 -26.602 25.71 -25.176 24.395 C-16.592 16.445 -8.21 8.335 0 0 Z " fill="#050406" transform="translate(740,643)"/>
<path d="M0 0 C1.762 0.051 1.762 0.051 4 1 C5.489 3.41 6.663 5.625 7.812 8.188 C8.299 9.178 8.299 9.178 8.795 10.189 C10.787 14.511 11.322 17.251 10 22 C7.182 19.182 5.987 15.734 4.438 12.125 C4.121 11.404 3.805 10.684 3.479 9.941 C2.048 6.643 0.803 3.514 0 0 Z " fill="#FABF6B" transform="translate(644,359)"/>
<path d="M0 0 C1.92 6.667 1.697 13.595 -1 20 C-1.66 20 -2.32 20 -3 20 C-3.124 20.949 -3.247 21.898 -3.375 22.875 C-4 26 -4 26 -6 28 C-6.567 21.902 -4.905 16.959 -3.023 11.18 C-1.833 7.482 -0.889 3.779 0 0 Z " fill="#FB702C" transform="translate(808,498)"/>
<path d="M0 0 C7.115 -0.537 12.45 1.303 19 4 C16.657 6.716 16.258 6.977 12.438 7.312 C9 7 9 7 7 5 C5.484 4.536 5.484 4.536 3.938 4.062 C2.968 3.712 1.999 3.361 1 3 C0.67 2.01 0.34 1.02 0 0 Z " fill="#FBB964" transform="translate(545,280)"/>
<path d="M0 0 C0.33 0 0.66 0 1 0 C1.33 9.57 1.66 19.14 2 29 C0.68 29 -0.64 29 -2 29 C-2.33 29.99 -2.66 30.98 -3 32 C-2.859 29.541 -2.713 27.083 -2.562 24.625 C-2.523 23.926 -2.484 23.228 -2.443 22.508 C-2.113 17.227 -2.113 17.227 -1 15 C-0.768 12.454 -0.581 9.926 -0.438 7.375 C-0.394 6.669 -0.351 5.962 -0.307 5.234 C-0.201 3.49 -0.1 1.745 0 0 Z " fill="#FC7F38" transform="translate(814,443)"/>
<path d="M0 0 C3.511 1.17 4.049 2.08 6.137 5.035 C6.714 5.844 7.29 6.653 7.885 7.486 C8.777 8.762 8.777 8.762 9.688 10.062 C10.294 10.917 10.901 11.771 11.525 12.65 C13.024 14.762 14.515 16.879 16 19 C15.34 19.66 14.68 20.32 14 21 C13.34 20.34 12.68 19.68 12 19 C12 18.01 12 17.02 12 16 C11.34 16 10.68 16 10 16 C9.67 14.68 9.34 13.36 9 12 C7.35 11.67 5.7 11.34 4 11 C3.876 10.216 3.753 9.433 3.625 8.625 C3.209 5.859 3.209 5.859 1 4 C0.375 1.875 0.375 1.875 0 0 Z " fill="#FD8E24" transform="translate(748,236)"/>
<path d="M0 0 C1.945 -0.293 1.945 -0.293 4.125 -0.188 C5.404 -0.126 6.683 -0.064 8 0 C7.67 0.99 7.34 1.98 7 3 C7.33 3.66 7.66 4.32 8 5 C1.626 5.962 -4.559 6.107 -11 6 C-8 4 -8 4 -4.938 3.562 C-3.483 3.284 -3.483 3.284 -2 3 C-1.34 2.01 -0.68 1.02 0 0 Z " fill="#DEDEDE" transform="translate(501,789)"/>
<path d="M0 0 C-1.012 2.762 -1.57 3.796 -4.277 5.082 C-5.155 5.323 -6.033 5.564 -6.938 5.812 C-7.813 6.066 -8.688 6.32 -9.59 6.582 C-12 7 -12 7 -15 6 C-14.34 5.01 -13.68 4.02 -13 3 C-13.66 2.67 -14.32 2.34 -15 2 C-12.877 1.471 -10.752 0.952 -8.625 0.438 C-7.442 0.147 -6.258 -0.143 -5.039 -0.441 C-2 -1 -2 -1 0 0 Z " fill="#EAEAEA" transform="translate(550,782)"/>
<path d="M0 0 C4.875 1.75 4.875 1.75 6 4 C5.34 4 4.68 4 4 4 C4 4.66 4 5.32 4 6 C4.722 6.248 5.444 6.495 6.188 6.75 C9.251 8.111 11.413 9.89 14 12 C14.99 12.33 15.98 12.66 17 13 C17.33 13.99 17.66 14.98 18 16 C13.36 14.439 9.788 11.917 5.875 9.062 C5.255 8.62 4.635 8.177 3.996 7.721 C1.117 5.643 -1.537 3.554 -4 1 C-2.68 1.33 -1.36 1.66 0 2 C0 1.34 0 0.68 0 0 Z " fill="#F2CB72" transform="translate(590,299)"/>
<path d="M0 0 C0.33 0 0.66 0 1 0 C0.885 2.98 0.758 5.958 0.625 8.938 C0.594 9.768 0.563 10.599 0.531 11.455 C0.264 17.182 -0.618 22.434 -2 28 C-2.33 28 -2.66 28 -3 28 C-3.31 18.193 -3.399 9.368 0 0 Z " fill="#FB7633" transform="translate(811,482)"/>
<path d="M0 0 C0.99 0.495 0.99 0.495 2 1 C2 1.66 2 2.32 2 3 C2.53 3.22 3.06 3.441 3.605 3.668 C6.857 5.477 9.524 7.877 12.312 10.312 C16.733 14.12 21.157 17.734 26 21 C20.464 21 16.25 16.271 12 13 C10.449 11.815 10.449 11.815 8.867 10.605 C1.203 4.572 1.203 4.572 0.195 1.734 C0.131 1.162 0.066 0.59 0 0 Z " fill="#E7AC56" transform="translate(404,539)"/>
<path d="M0 0 C0.99 0 1.98 0 3 0 C2.67 1.65 2.34 3.3 2 5 C2.99 4.34 3.98 3.68 5 3 C3.411 7.289 0.569 9.323 -3 12 C-3.66 12 -4.32 12 -5 12 C-5.25 9.25 -5.25 9.25 -5 6 C-3.062 3.75 -3.062 3.75 -1 2 C-0.67 1.34 -0.34 0.68 0 0 Z " fill="#FBC56D" transform="translate(415,307)"/>
<path d="M0 0 C0.579 1.886 0.579 1.886 1 4 C-2.018 8.359 -6.41 11.463 -11 14 C-12.685 15.31 -14.356 16.638 -16 18 C-14.642 14.957 -13.115 12.877 -10.742 10.547 C-10.117 9.928 -9.492 9.309 -8.848 8.672 C-8.197 8.038 -7.546 7.403 -6.875 6.75 C-6.216 6.1 -5.558 5.451 -4.879 4.781 C-3.257 3.183 -1.631 1.589 0 0 Z " fill="#F95B16" transform="translate(310,637)"/>
<path d="M0 0 C3.278 3.044 5.541 6.276 8 10 C9.156 11.508 10.324 13.008 11.5 14.5 C14.18 17.907 16.661 21.352 19 25 C15.285 23.762 14.415 22.272 12.062 19.188 C10.064 16.581 8.146 14.143 5.793 11.848 C3.631 9.62 3.338 8.038 3 5 C2.01 4.67 1.02 4.34 0 4 C0 2.68 0 1.36 0 0 Z " fill="#F3C56C" transform="translate(382,511)"/>
<path d="M0 0 C0.99 0.99 1.98 1.98 3 3 C1.625 5.5 1.625 5.5 0 8 C-0.66 8 -1.32 8 -2 8 C-2 9.32 -2 10.64 -2 12 C-2.66 12 -3.32 12 -4 12 C-3.67 13.32 -3.34 14.64 -3 16 C-3.99 16.33 -4.98 16.66 -6 17 C-7.209 19 -7.209 19 -8 21 C-7.386 13.427 -3.37 6.678 0 0 Z " fill="#F4C844" transform="translate(233,291)"/>
<path d="M0 0 C3.538 -0.072 6.87 -0.019 10.375 0.5 C14.618 1.085 18.726 1.087 23 1 C23 1.66 23 2.32 23 3 C14.91 4.045 7.945 3.892 0 2 C0 1.34 0 0.68 0 0 Z " fill="#E85A20" transform="translate(450,738)"/>
<path d="M0 0 C3.044 -0.082 5.072 0.024 8 1 C10.573 1.07 13.116 1.094 15.688 1.062 C16.389 1.058 17.091 1.053 17.814 1.049 C19.543 1.037 21.272 1.019 23 1 C23 1.66 23 2.32 23 3 C29.435 2.505 29.435 2.505 36 2 C35.67 2.66 35.34 3.32 35 4 C27.459 4.12 19.967 3.965 12.438 3.562 C11.664 3.523 10.891 3.484 10.094 3.444 C6.609 3.244 3.365 2.919 0 2 C0 1.34 0 0.68 0 0 Z " fill="#F66221" transform="translate(481,741)"/>
<path d="M0 0 C0.66 0.33 1.32 0.66 2 1 C0.519 3.822 -0.995 6.515 -3 9 C-5.375 9.125 -5.375 9.125 -8 9 C-10.547 10.776 -12.772 12.843 -15 15 C-15.66 14.67 -16.32 14.34 -17 14 C-11.515 9.083 -5.86 4.463 0 0 Z " fill="#F1CC4C" transform="translate(330,175)"/>
<path d="M0 0 C0.33 0.66 0.66 1.32 1 2 C-2.423 7.745 -2.423 7.745 -5.125 8.938 C-7 9 -7 9 -9 8 C-7.926 5.085 -7.222 3.222 -5 1 C-4.01 1.33 -3.02 1.66 -2 2 C-1.34 1.34 -0.68 0.68 0 0 Z " fill="#C37749" transform="translate(768,605)"/>
<path d="M0 0 C1.601 4.002 0.293 7.046 -1 11 C-2.32 11 -3.64 11 -5 11 C-4.34 7.7 -3.68 4.4 -3 1 C-2.01 0.67 -1.02 0.34 0 0 Z " fill="#FAF9F6" transform="translate(814,498)"/>
<path d="M0 0 C0 3.319 -0.437 4.025 -2.312 6.625 C-2.742 7.236 -3.171 7.847 -3.613 8.477 C-5 10 -5 10 -8 11 C-8.474 11.639 -8.949 12.279 -9.438 12.938 C-11.126 15.167 -12.449 15.945 -15 17 C-13.679 14.068 -12.254 12.013 -9.961 9.766 C-9.091 8.905 -9.091 8.905 -8.203 8.027 C-7.6 7.441 -6.997 6.854 -6.375 6.25 C-5.764 5.648 -5.153 5.046 -4.523 4.426 C-3.02 2.946 -1.511 1.472 0 0 Z " fill="#FCB822" transform="translate(297,205)"/>
<path d="M0 0 C0.66 0 1.32 0 2 0 C2.506 1.268 3.005 2.54 3.5 3.812 C3.778 4.52 4.057 5.228 4.344 5.957 C5 8 5 8 5 11 C4.34 11 3.68 11 3 11 C2.67 11.99 2.34 12.98 2 14 C1.469 12.232 0.95 10.461 0.438 8.688 C0.147 7.701 -0.143 6.715 -0.441 5.699 C-1 3 -1 3 0 0 Z " fill="#EEAE62" transform="translate(654,378)"/>
<path d="M0 0 C3.96 1.98 7.92 3.96 12 6 C11.67 6.99 11.34 7.98 11 9 C7.206 7.549 3.535 6.009 0 4 C-0.33 3.01 -0.66 2.02 -1 1 C-0.67 0.67 -0.34 0.34 0 0 Z " fill="#FDB864" transform="translate(579,292)"/>
<path d="M0 0 C0.66 0 1.32 0 2 0 C2.33 1.98 2.66 3.96 3 6 C1.68 6 0.36 6 -1 6 C-0.67 4.02 -0.34 2.04 0 0 Z M-2 6 C-1.67 6 -1.34 6 -1 6 C-0.822 10.548 -1.002 13.879 -3 18 C-3.66 18 -4.32 18 -5 18 C-4.69 16.562 -4.377 15.125 -4.062 13.688 C-3.888 12.887 -3.714 12.086 -3.535 11.262 C-3 9 -3 9 -2 6 Z " fill="#FC8A4C" transform="translate(800,527)"/>
<path d="M0 0 C0.99 0.33 1.98 0.66 3 1 C2.036 13.67 2.036 13.67 1 19 C-2.683 13.475 -1.03 6.182 0 0 Z " fill="#E5B16C" transform="translate(661,445)"/>
<path d="M0 0 C1 3 1 3 0.227 5.161 C-0.184 5.976 -0.596 6.792 -1.02 7.633 C-1.465 8.521 -1.91 9.409 -2.369 10.324 C-2.845 11.248 -3.322 12.173 -3.812 13.125 C-4.277 14.057 -4.742 14.989 -5.221 15.949 C-8.729 22.864 -8.729 22.864 -11 24 C-10.374 17.365 -10.374 17.365 -8.688 15.719 C-6.174 13.159 -4.849 10.011 -3.312 6.812 C-2.992 6.158 -2.672 5.504 -2.342 4.83 C-1.556 3.223 -0.777 1.612 0 0 Z " fill="#F9722F" transform="translate(787,568)"/>
<path d="M0 0 C1.32 0 2.64 0 4 0 C3.34 6.27 2.68 12.54 2 19 C1.34 18.67 0.68 18.34 0 18 C0.084 17.036 0.168 16.072 0.254 15.078 C0.356 13.815 0.458 12.552 0.562 11.25 C0.667 9.997 0.771 8.744 0.879 7.453 C0.979 4.605 0.906 2.657 0 0 Z " fill="#F0C672" transform="translate(360,398)"/>
<path d="M0 0 C0 0.66 0 1.32 0 2 C1.643 3.038 3.312 4.036 5 5 C5.66 5.66 6.32 6.32 7 7 C0.77 6.495 -4.455 3.674 -10 1 C-6.368 -0.816 -3.906 -1.256 0 0 Z " fill="#FACC70" transform="translate(566,286)"/>
<path d="M0 0 C2.667 0.312 5.333 0.625 8 0.938 C9.116 1.068 9.116 1.068 10.254 1.201 C15.172 1.779 20.087 2.38 25 3 C25 3.33 25 3.66 25 4 C16.115 4.35 8.442 3.895 0 1 C0 0.67 0 0.34 0 0 Z " fill="#080709" transform="translate(476,579)"/>
<path d="M0 0 C3.536 3.173 5.586 5.167 6 10 C4.25 9.875 4.25 9.875 2 9 C-0.25 5.938 -0.25 5.938 -2 3 C-1.34 2.01 -0.68 1.02 0 0 Z " fill="#F3B15C" transform="translate(624,326)"/>
<path d="M0 0 C1.343 4.03 0.029 6.719 -1.312 10.562 C-1.539 11.248 -1.765 11.933 -1.998 12.639 C-3.016 15.628 -3.739 17.739 -6 20 C-5.556 16.892 -5.014 14.04 -4 11.062 C-2.871 7.923 -2.871 7.923 -2.5 4.188 C-2.335 3.136 -2.17 2.084 -2 1 C-1.34 0.67 -0.68 0.34 0 0 Z " fill="#FB6F28" transform="translate(801,532)"/>
<path d="M0 0 C0.33 0.66 0.66 1.32 1 2 C0.196 3.696 0.196 3.696 -1.09 5.695 C-1.544 6.411 -1.999 7.126 -2.467 7.863 C-2.952 8.61 -3.437 9.356 -3.938 10.125 C-4.419 10.879 -4.9 11.633 -5.396 12.41 C-6.591 14.278 -7.792 16.141 -9 18 C-9.66 17.01 -10.32 16.02 -11 15 C-7.37 10.05 -3.74 5.1 0 0 Z " fill="#191315" transform="translate(763,613)"/>
<path d="M0 0 C-2.231 4.976 -5.141 7.508 -10 10 C-10.66 9.67 -11.32 9.34 -12 9 C-10.572 7.491 -9.132 5.993 -7.688 4.5 C-6.887 3.665 -6.086 2.829 -5.262 1.969 C-3 0 -3 0 0 0 Z " fill="#FA6C1B" transform="translate(389,559)"/>
<path d="M0 0 C0.99 0.33 1.98 0.66 3 1 C2.34 1.66 1.68 2.32 1 3 C1.99 3.99 2.98 4.98 4 6 C1.625 7.562 1.625 7.562 -1 9 C-1.66 8.67 -2.32 8.34 -3 8 C-2.744 5.657 -2.407 3.322 -2 1 C-1.34 0.67 -0.68 0.34 0 0 Z " fill="#FDC66C" transform="translate(439,291)"/>
<path d="M0 0 C0 3.812 -0.546 6.459 -2 10 C-4.299 11.524 -6.33 12.159 -9 13 C-7.509 9.717 -5.614 7.069 -3.375 4.25 C-2.743 3.451 -2.112 2.652 -1.461 1.828 C-0.979 1.225 -0.497 0.622 0 0 Z " fill="#F2CC4E" transform="translate(272,230)"/>
<path d="M0 0 C3.35 1.117 3.793 1.747 5.688 4.562 C6.343 5.523 6.343 5.523 7.012 6.504 C7.338 6.998 7.664 7.491 8 8 C6.68 8.33 5.36 8.66 4 9 C3.34 7.35 2.68 5.7 2 4 C0.68 4.33 -0.64 4.66 -2 5 C-1.125 1.125 -1.125 1.125 0 0 Z " fill="#FC8C1F" transform="translate(732,216)"/>
<path d="M0 0 C3.761 0.508 5.541 1.113 8 4 C8.722 4.722 9.444 5.444 10.188 6.188 C10.786 6.786 11.384 7.384 12 8 C2.405 5.109 2.405 5.109 -1 2 C-0.67 1.34 -0.34 0.68 0 0 Z " fill="#FBB868" transform="translate(565,286)"/>
<path d="M0 0 C1.98 0.495 1.98 0.495 4 1 C3.34 3.64 2.68 6.28 2 9 C1.01 8.67 0.02 8.34 -1 8 C-0.67 5.36 -0.34 2.72 0 0 Z " fill="#FCF9F4" transform="translate(805,523)"/>
<path d="M0 0 C-5.94 3.465 -5.94 3.465 -12 7 C-12.33 6.34 -12.66 5.68 -13 5 C-10.365 1.977 -8.732 0.201 -4.812 -0.875 C-2 -1 -2 -1 0 0 Z " fill="#F79E62" transform="translate(664,704)"/>
<path d="M0 0 C-1.393 3.367 -2.979 4.986 -6 7 C-6 6.34 -6 5.68 -6 5 C-6.66 4.67 -7.32 4.34 -8 4 C-7.67 3.01 -7.34 2.02 -7 1 C-4 0 -4 0 0 0 Z " fill="#0C0C0C" transform="translate(728,663)"/>
<path d="M0 0 C1.25 1.562 1.25 1.562 2 4 C0.932 6.57 -0.465 8.653 -2 11 C-2.66 10.01 -3.32 9.02 -4 8 C-3.068 4.894 -1.808 2.712 0 0 Z " fill="#FD9A5C" transform="translate(768,598)"/>
<path d="M0 0 C1.081 3.242 0.964 3.897 0.004 7.012 C-0.225 7.769 -0.454 8.526 -0.689 9.307 C-0.936 10.092 -1.183 10.878 -1.438 11.688 C-1.68 12.485 -1.923 13.282 -2.174 14.104 C-2.775 16.071 -3.386 18.036 -4 20 C-5.709 13.85 -3.94 8.097 -1.375 2.375 C-0.694 1.199 -0.694 1.199 0 0 Z " fill="#F5D479" transform="translate(369,378)"/>
<path d="M0 0 C3 1 3 1 5 3 C6.317 3.697 7.649 4.37 9 5 C7.375 6.188 7.375 6.188 5 7 C1.75 5.625 1.75 5.625 -1 4 C-0.67 2.68 -0.34 1.36 0 0 Z " fill="#E55F24" transform="translate(376,712)"/>
<path d="M0 0 C1.32 0.66 2.64 1.32 4 2 C3.25 4.438 3.25 4.438 2 7 C-0.125 7.812 -0.125 7.812 -2 8 C-2.201 4.284 -2.152 3.228 0 0 Z " fill="#F59154" transform="translate(758,612)"/>
<path d="M0 0 C0.33 0.66 0.66 1.32 1 2 C1.66 2.33 2.32 2.66 3 3 C2.34 4.98 1.68 6.96 1 9 C-0.32 9 -1.64 9 -3 9 C-2.443 5.656 -1.648 2.967 0 0 Z " fill="#FC8E51" transform="translate(775,585)"/>
<path d="M0 0 C0.99 0 1.98 0 3 0 C2.393 4.128 0.962 7.332 -1 11 C-2.188 9.438 -2.188 9.438 -3 7 C-1.625 3.25 -1.625 3.25 0 0 Z " fill="#F7C581" transform="translate(651,488)"/>
<path d="M0 0 C0.33 0 0.66 0 1 0 C1.33 1.98 1.66 3.96 2 6 C2.33 6 2.66 6 3 6 C3.25 12.625 3.25 12.625 1 16 C-0.141 12.578 -0.098 9.913 -0.062 6.312 C-0.049 4.543 -0.049 4.543 -0.035 2.738 C-0.024 1.835 -0.012 0.931 0 0 Z " fill="#FEBE6E" transform="translate(358,439)"/>
<path d="M0 0 C3.083 1.199 6.063 2.477 9 4 C9 4.99 9 5.98 9 7 C6 7 6 7 4.395 5.469 C3.872 4.819 3.35 4.169 2.812 3.5 C2.283 2.85 1.753 2.201 1.207 1.531 C0.809 1.026 0.41 0.521 0 0 Z " fill="#FDC76F" transform="translate(611,318)"/>
<path d="M0 0 C0.66 0.33 1.32 0.66 2 1 C-1.63 4.63 -5.26 8.26 -9 12 C-9.33 10.68 -9.66 9.36 -10 8 C-8.917 7.412 -8.917 7.412 -7.812 6.812 C-4.773 4.854 -2.479 2.62 0 0 Z " fill="#FD8D16" transform="translate(356,580)"/>
<path d="M0 0 C2.475 0.495 2.475 0.495 5 1 C5.544 4.058 6 6.888 6 10 C4.994 8.713 3.996 7.42 3 6.125 C2.443 5.406 1.886 4.686 1.312 3.945 C0 2 0 2 0 0 Z " fill="#F2C16E" transform="translate(633,342)"/>
<path d="M0 0 C1.562 1.188 1.562 1.188 3 3 C2.808 6.845 1.745 8.447 -1 11 C-1.027 9.542 -1.046 8.083 -1.062 6.625 C-1.074 5.813 -1.086 5.001 -1.098 4.164 C-1 2 -1 2 0 0 Z " fill="#FC7C39" transform="translate(789,556)"/>
<path d="M0 0 C0.33 0 0.66 0 1 0 C1 3.63 1 7.26 1 11 C0.34 11 -0.32 11 -1 11 C-1.33 11.99 -1.66 12.98 -2 14 C-2.212 8.808 -1.591 4.873 0 0 Z " fill="#0A090A" transform="translate(815,500)"/>
<path d="M0 0 C0 3.808 -0.978 5.793 -3 9 C-5.688 9.875 -5.688 9.875 -8 10 C-7.044 8.707 -6.085 7.416 -5.125 6.125 C-4.591 5.406 -4.058 4.686 -3.508 3.945 C-2 2 -2 2 0 0 Z " fill="#FCD952" transform="translate(281,220)"/>
<path d="M0 0 C0.66 0.33 1.32 0.66 2 1 C1.188 3.438 1.188 3.438 0 6 C-0.99 6.33 -1.98 6.66 -3 7 C-3 6.34 -3 5.68 -3 5 C-4.32 4.34 -5.64 3.68 -7 3 C-7 2.34 -7 1.68 -7 1 C-6.34 1 -5.68 1 -5 1 C-4.67 1.66 -4.34 2.32 -4 3 C-2.68 3 -1.36 3 0 3 C0 2.01 0 1.02 0 0 Z " fill="#FC9C2F" transform="translate(292,644)"/>
<path d="M0 0 C0.936 3.155 1.106 5.966 1.062 9.25 C1.053 10.142 1.044 11.034 1.035 11.953 C1.024 12.629 1.012 13.304 1 14 C0.01 14 -0.98 14 -2 14 C-3.211 10.368 -2.628 8.935 -1.562 5.312 C-1.275 4.319 -0.988 3.325 -0.691 2.301 C-0.463 1.542 -0.235 0.782 0 0 Z " fill="#FC894A" transform="translate(808,498)"/>
<path d="M0 0 C0.33 0 0.66 0 1 0 C0.508 6.4 0.508 6.4 -2.062 9.438 C-2.702 9.953 -3.341 10.469 -4 11 C-3.393 6.872 -1.962 3.668 0 0 Z " fill="#FAD78F" transform="translate(656,478)"/>
<path d="M0 0 C1.963 3.505 2.959 7.134 4 11 C3.01 11.495 3.01 11.495 2 12 C1.328 10.711 0.663 9.419 0 8.125 C-0.371 7.406 -0.742 6.686 -1.125 5.945 C-2 4 -2 4 -2 2 C-1.34 2 -0.68 2 0 2 C0 1.34 0 0.68 0 0 Z " fill="#FE8E2C" transform="translate(786,297)"/>
<path d="M0 0 C0.66 0.99 1.32 1.98 2 3 C1.34 3 0.68 3 0 3 C0.33 4.32 0.66 5.64 1 7 C0.01 7.33 -0.98 7.66 -2 8 C-3.209 10 -3.209 10 -4 12 C-3.457 7.435 -2.205 4.027 0 0 Z " fill="#FBD754" transform="translate(229,300)"/>
<path d="M0 0 C0.66 0.33 1.32 0.66 2 1 C-0.095 4.143 -0.588 4.509 -3.938 5.688 C-4.627 5.939 -5.317 6.19 -6.027 6.449 C-8 7 -8 7 -11 7 C-9.543 6.019 -8.084 5.041 -6.625 4.062 C-5.813 3.517 -5.001 2.972 -4.164 2.41 C-2 1 -2 1 0 0 Z " fill="#F0D353" transform="translate(352,161)"/>
<path d="M0 0 C0.66 0.33 1.32 0.66 2 1 C2.33 1.99 2.66 2.98 3 4 C-0.3 4.33 -3.6 4.66 -7 5 C-7 4.34 -7 3.68 -7 3 C-3.535 2.505 -3.535 2.505 0 2 C0 1.34 0 0.68 0 0 Z " fill="#EB5B22" transform="translate(562,736)"/>
<path d="M0 0 C0.66 0.66 1.32 1.32 2 2 C0.68 2.33 -0.64 2.66 -2 3 C-2 3.66 -2 4.32 -2 5 C-4.31 5.66 -6.62 6.32 -9 7 C-9 6.34 -9 5.68 -9 5 C-6.03 3.35 -3.06 1.7 0 0 Z " fill="#F1793F" transform="translate(616,722)"/>
<path d="M0 0 C0 3 0 3 -1.75 5.043 C-2.493 5.751 -3.235 6.458 -4 7.188 C-4.743 7.903 -5.485 8.618 -6.25 9.355 C-6.827 9.898 -7.405 10.441 -8 11 C-8.33 10.01 -8.66 9.02 -9 8 C-6.03 5.36 -3.06 2.72 0 0 Z " fill="#FE8B14" transform="translate(330,607)"/>
<path d="M0 0 C2.401 2.881 4.473 5.564 6 9 C5.01 9 4.02 9 3 9 C1.68 6.36 0.36 3.72 -1 1 C-0.67 0.67 -0.34 0.34 0 0 Z " fill="#FB8B27" transform="translate(764,257)"/>
<path d="M0 0 C0.66 0.33 1.32 0.66 2 1 C-0.64 3.64 -3.28 6.28 -6 9 C-6.33 8.01 -6.66 7.02 -7 6 C-6.01 5.67 -5.02 5.34 -4 5 C-3.67 4.01 -3.34 3.02 -3 2 C-2.01 1.34 -1.02 0.68 0 0 Z " fill="#FE8E1A" transform="translate(399,536)"/>
<path d="M0 0 C1.124 3.304 0.896 5.051 -0.438 8.25 C-0.725 8.956 -1.012 9.663 -1.309 10.391 C-1.537 10.922 -1.765 11.453 -2 12 C-2.33 12 -2.66 12 -3 12 C-3 9.69 -3 7.38 -3 5 C-2.34 5 -1.68 5 -1 5 C-0.67 3.35 -0.34 1.7 0 0 Z " fill="#FC8646" transform="translate(805,514)"/>
<path d="M0 0 C0.688 1.75 0.688 1.75 1 4 C-0.438 6.25 -0.438 6.25 -2 8 C-2.33 7.01 -2.66 6.02 -3 5 C-3.66 4.67 -4.32 4.34 -5 4 C-5 3.34 -5 2.68 -5 2 C-3.35 2 -1.7 2 0 2 C0 1.34 0 0.68 0 0 Z " fill="#F9CB71" transform="translate(372,370)"/>
<path d="M0 0 C2.252 2.688 3.882 4.646 5 8 C4.01 8 3.02 8 2 8 C0.25 5.688 0.25 5.688 -1 3 C-0.67 2.01 -0.34 1.02 0 0 Z " fill="#FCB060" transform="translate(643,352)"/>
<path d="M0 0 C0 1.98 0 3.96 0 6 C-0.99 6.33 -1.98 6.66 -3 7 C-3.66 6.34 -4.32 5.68 -5 5 C-4.75 2.938 -4.75 2.938 -4 1 C-2 0 -2 0 0 0 Z " fill="#FEB864" transform="translate(437,293)"/>
<path d="M0 0 C1.32 0.33 2.64 0.66 4 1 C0.535 3.97 0.535 3.97 -3 7 C-3 5.68 -3 4.36 -3 3 C-2.34 3 -1.68 3 -1 3 C-0.67 2.01 -0.34 1.02 0 0 Z " fill="#FD951D" transform="translate(658,280)"/>
<path d="M0 0 C2.932 2.853 5.643 5.651 8 9 C7.34 9.66 6.68 10.32 6 11 C4.994 9.546 3.996 8.086 3 6.625 C2.443 5.813 1.886 5.001 1.312 4.164 C0 2 0 2 0 0 Z " fill="#FC8D21" transform="translate(740,225)"/>
<path d="M0 0 C0.66 0.33 1.32 0.66 2 1 C-0.64 3.64 -3.28 6.28 -6 9 C-6.66 8.01 -7.32 7.02 -8 6 C-7.051 5.381 -6.102 4.762 -5.125 4.125 C-2.056 2.18 -2.056 2.18 0 0 Z " fill="#FA9413" transform="translate(728,211)"/>
<path d="M0 0 C-3 2 -3 2 -5 2 C-5 2.66 -5 3.32 -5 4 C-7.31 4 -9.62 4 -12 4 C-8.473 0.473 -4.893 -0.28 0 0 Z " fill="#19191A" transform="translate(596,771)"/>
<path d="M0 0 C0 0.99 0 1.98 0 3 C-2.31 3.33 -4.62 3.66 -7 4 C-7 3.01 -7 2.02 -7 1 C-3.535 0.505 -3.535 0.505 0 0 Z " fill="#F8541F" transform="translate(655,703)"/>
<path d="M0 0 C0.66 0.66 1.32 1.32 2 2 C1.381 2.247 0.763 2.495 0.125 2.75 C-2.351 4.206 -2.951 5.378 -4 8 C-4.66 7.67 -5.32 7.34 -6 7 C-6 6.34 -6 5.68 -6 5 C-4.041 3.286 -2.041 1.616 0 0 Z " fill="#F0CF92" transform="translate(609,547)"/>
<path d="M0 0 C4.875 1.75 4.875 1.75 6 4 C-0.523 4.369 -0.523 4.369 -2.938 2.5 C-3.463 1.757 -3.463 1.757 -4 1 C-2.68 1.33 -1.36 1.66 0 2 C0 1.34 0 0.68 0 0 Z " fill="#FDC86F" transform="translate(590,299)"/>
<path d="M0 0 C0.99 1.32 1.98 2.64 3 4 C1.35 5.65 -0.3 7.3 -2 9 C-2.66 8.67 -3.32 8.34 -4 8 C-3.526 7.608 -3.051 7.216 -2.562 6.812 C-0.648 4.592 -0.387 2.866 0 0 Z " fill="#F4C771" transform="translate(425,301)"/>
<path d="M0 0 C0.66 0.33 1.32 0.66 2 1 C2 1.66 2 2.32 2 3 C1.402 3.268 0.804 3.536 0.188 3.812 C-1.972 4.985 -3.358 6.194 -5 8 C-5.66 7.67 -6.32 7.34 -7 7 C-4.667 4.667 -2.333 2.333 0 0 Z " fill="#FDB821" transform="translate(310,193)"/>
<path d="M0 0 C-0.33 0.99 -0.66 1.98 -1 3 C-1.66 3 -2.32 3 -3 3 C-3.33 3.99 -3.66 4.98 -4 6 C-5.32 5.34 -6.64 4.68 -8 4 C-2.25 0 -2.25 0 0 0 Z " fill="#F68852" transform="translate(654,706)"/>
<path d="M0 0 C-1.264 0.7 -2.537 1.384 -3.812 2.062 C-4.52 2.445 -5.228 2.828 -5.957 3.223 C-8 4 -8 4 -11 3 C-4.036 -1.42 -4.036 -1.42 0 0 Z " fill="#F5DEA3" transform="translate(581,569)"/>
<path d="M0 0 C0.33 0 0.66 0 1 0 C0.125 6.75 0.125 6.75 -1 9 C-1.66 9 -2.32 9 -3 9 C-2.443 5.656 -1.648 2.967 0 0 Z " fill="#F9DA95" transform="translate(648,496)"/>
<path d="M0 0 C2.97 0.99 5.94 1.98 9 3 C9 3.99 9 4.98 9 6 C5.063 4.688 2.773 3.081 0 0 Z " fill="#F4BA69" transform="translate(607,315)"/>
<path d="M0 0 C-0.99 0.495 -0.99 0.495 -2 1 C-2 1.66 -2 2.32 -2 3 C-4.97 2.67 -7.94 2.34 -11 2 C-11 1.67 -11 1.34 -11 1 C-7.266 0.121 -3.832 -0.089 0 0 Z " fill="#FDD952" transform="translate(466,123)"/>
<path d="M0 0 C1.32 0 2.64 0 4 0 C3.67 2.64 3.34 5.28 3 8 C1.586 5.361 0.628 2.929 0 0 Z " fill="#FDD57A" transform="translate(360,398)"/>
<path d="M0 0 C1.32 0.33 2.64 0.66 4 1 C4.33 2.98 4.66 4.96 5 7 C4.01 6.67 3.02 6.34 2 6 C0.812 2.938 0.812 2.938 0 0 Z " fill="#FD842C" transform="translate(800,341)"/>
<path d="M0 0 C-3.465 2.97 -3.465 2.97 -7 6 C-6.75 3.625 -6.75 3.625 -6 1 C-2.693 -1.347 -2.693 -1.347 0 0 Z " fill="#FD9617" transform="translate(633,311)"/>
<path d="M0 0 C0.688 1.625 0.688 1.625 1 4 C-0.438 7.25 -0.438 7.25 -2 10 C-2.66 10 -3.32 10 -4 10 C-3.524 8.52 -3.044 7.041 -2.562 5.562 C-2.296 4.739 -2.029 3.915 -1.754 3.066 C-1 1 -1 1 0 0 Z " fill="#F1D255" transform="translate(238,281)"/>
<path d="M0 0 C0.66 0 1.32 0 2 0 C0.731 3.914 -0.512 5.791 -4 8 C-3.34 6.02 -2.68 4.04 -2 2 C-1.34 2 -0.68 2 0 2 C0 1.34 0 0.68 0 0 Z " fill="#F95C1E" transform="translate(746,625)"/>
<path d="M0 0 C0.99 0 1.98 0 3 0 C2.67 2.31 2.34 4.62 2 7 C0.438 5.188 0.438 5.188 -1 3 C-0.67 2.01 -0.34 1.02 0 0 Z " fill="#271B16" transform="translate(657,459)"/>
</svg>
