<?xml version="1.0" encoding="UTF-8" standalone="no"?>
<svg xmlns="http://www.w3.org/2000/svg" xmlns:xlink="http://www.w3.org/1999/xlink"
     viewBox="0.0 0.0 1024.0 1024.0" width="100%" height="100%">
    <path d="M0 0 C337.92 0 675.84 0 1024 0 C1024 337.92 1024 675.84 1024 1024 C686.08 1024 348.16 1024 0 1024 C0 686.08 0 348.16 0 0 Z " fill="#02142B" transform="translate(0,0)"/>
    <path d="M0 0 C0.93 0.231 1.86 0.462 2.818 0.7 C16.049 4.078 28.094 8.322 40 15 C41.28 15.661 41.28 15.661 42.586 16.336 C75.616 33.604 100.089 66.273 112 101 C112.422 102.22 112.422 102.22 112.853 103.465 C125.486 140.898 122.45 184.534 105 220 C98.936 231.858 91.98 242.191 83 252 C81.768 253.435 80.539 254.872 79.312 256.312 C68.421 268.624 56.06 277.659 42 286 C40.881 286.665 39.762 287.33 38.609 288.016 C30.673 292.511 22.664 295.33 14 298 C12.499 298.538 10.998 299.079 9.5 299.625 C-14.315 307.504 -38.586 306.72 -63 303 C-63.729 302.893 -64.459 302.786 -65.21 302.676 C-76.103 301.032 -85.96 297.387 -96 293 C-96.687 292.7 -97.375 292.399 -98.083 292.09 C-123.368 280.787 -145.856 261.168 -161 238 C-161.729 237 -161.729 237 -162.473 235.98 C-171.247 223.743 -176.309 209.176 -181 195 C-181.362 193.966 -181.724 192.932 -182.098 191.867 C-182.996 189.012 -183.583 186.265 -184.062 183.312 C-184.218 182.381 -184.374 181.449 -184.535 180.488 C-190.515 135.611 -181.976 92.596 -154.652 56.111 C-150.451 50.742 -145.812 45.82 -141 41 C-140.458 40.441 -139.917 39.882 -139.359 39.305 C-104.434 3.566 -48.572 -12.214 0 0 Z " fill="#A58723" transform="translate(547,388)"/>
    <path d="M0 0 C0.93 0.231 1.86 0.462 2.818 0.7 C16.049 4.078 28.094 8.322 40 15 C41.28 15.661 41.28 15.661 42.586 16.336 C75.616 33.604 100.089 66.273 112 101 C112.422 102.22 112.422 102.22 112.853 103.465 C125.486 140.898 122.45 184.534 105 220 C98.936 231.858 91.98 242.191 83 252 C81.768 253.435 80.539 254.872 79.312 256.312 C68.421 268.624 56.06 277.659 42 286 C40.881 286.665 39.762 287.33 38.609 288.016 C30.673 292.511 22.664 295.33 14 298 C12.499 298.538 10.998 299.079 9.5 299.625 C-14.315 307.504 -38.586 306.72 -63 303 C-63.729 302.893 -64.459 302.786 -65.21 302.676 C-76.103 301.032 -85.96 297.387 -96 293 C-96.687 292.7 -97.375 292.399 -98.083 292.09 C-123.368 280.787 -145.856 261.168 -161 238 C-161.729 237 -161.729 237 -162.473 235.98 C-171.247 223.743 -176.309 209.176 -181 195 C-181.362 193.966 -181.724 192.932 -182.098 191.867 C-182.996 189.012 -183.583 186.265 -184.062 183.312 C-184.218 182.381 -184.374 181.449 -184.535 180.488 C-190.515 135.611 -181.976 92.596 -154.652 56.111 C-150.451 50.742 -145.812 45.82 -141 41 C-140.458 40.441 -139.917 39.882 -139.359 39.305 C-104.434 3.566 -48.572 -12.214 0 0 Z M-38.688 -1.5 C-42 -1 -42 -1 -45.625 -1.062 C-51.525 -1.154 -58.679 -0.66 -64 2 C-65.393 2.153 -66.79 2.274 -68.188 2.375 C-72.582 2.818 -75.977 4.138 -80 6 C-81.093 6.309 -82.186 6.619 -83.312 6.938 C-94.592 10.187 -104.954 15.391 -114.184 22.645 C-116 24 -116 24 -119.312 25.812 C-127.691 30.433 -138.865 38.596 -142 48 C-142.588 48.285 -143.176 48.57 -143.781 48.863 C-149.615 51.852 -154.216 59.263 -157.312 64.938 C-158.946 67.902 -160.635 69.635 -163 72 C-164.032 73.984 -165.025 75.988 -166 78 C-166.643 79.246 -167.289 80.491 -167.938 81.734 C-171.688 89.003 -175.121 95.986 -177 104 C-177.523 106.193 -178.047 108.11 -178.938 110.188 C-181.405 116.719 -182.808 124.014 -183 131 C-182.67 131.66 -182.34 132.32 -182 133 C-182.66 133 -183.32 133 -184 133 C-185.758 151.055 -185.496 168.315 -181 186 C-180.67 186.33 -180.34 186.66 -180 187 C-179.876 188.155 -179.752 189.31 -179.625 190.5 C-179.066 195.281 -177.701 199.511 -176 204 C-175.509 205.307 -175.509 205.307 -175.008 206.641 C-172.526 212.906 -169.613 218.905 -166.5 224.875 C-166.132 225.588 -165.765 226.302 -165.386 227.037 C-163.004 231.522 -160.314 235.159 -157 239 C-155.942 240.97 -154.922 242.963 -154 245 C-153.34 245 -152.68 245 -152 245 C-151.763 245.715 -151.526 246.431 -151.281 247.168 C-149.792 250.46 -147.932 252.648 -145.5 255.312 C-144.309 256.637 -144.309 256.637 -143.094 257.988 C-141.244 260.231 -141.244 260.231 -139 260 C-139 260.66 -139 261.32 -139 262 C-138.34 262 -137.68 262 -137 262 C-137 262.66 -137 263.32 -137 264 C-132.563 268.575 -127.341 272.544 -122 276 C-121.01 276 -120.02 276 -119 276 C-118.505 277.485 -118.505 277.485 -118 279 C-116.251 280.253 -116.251 280.253 -114.062 281.312 C-110.699 283.073 -107.503 284.945 -104.312 287 C-98.241 290.679 -91.716 292.793 -85 295 C-84.184 295.287 -83.368 295.575 -82.527 295.871 C-70.869 299.955 -59.235 301.805 -47 303 C-45.877 303.113 -44.754 303.227 -43.598 303.344 C-33.571 304.273 -24.09 304.11 -14.125 302.625 C-12.741 302.436 -12.741 302.436 -11.328 302.242 C-10.439 302.113 -9.549 301.984 -8.633 301.852 C-7.838 301.736 -7.042 301.621 -6.223 301.502 C-3.96 301.087 -3.96 301.087 -1.925 299.943 C0 299 0 299 3.438 299.062 C7.421 298.993 8.726 298.099 12 296 C13.993 295.626 15.994 295.293 18 295 C19.689 294.394 21.356 293.722 23 293 C24.196 292.526 25.393 292.051 26.625 291.562 C29.923 290.271 29.923 290.271 31.688 288.312 C32.121 287.879 32.554 287.446 33 287 C34.32 287 35.64 287 37 287 C37.33 286.34 37.66 285.68 38 285 C39.33 284.567 39.33 284.567 40.688 284.125 C44.303 282.897 46.97 281.309 50 279 C50 278.34 50 277.68 50 277 C51.052 276.907 51.052 276.907 52.125 276.812 C56.764 275.501 59.617 272.383 63 269 C63.66 268.67 64.32 268.34 65 268 C65 267.34 65 266.68 65 266 C65.99 266 66.98 266 68 266 C70.534 263.775 72.579 261.866 74.062 258.812 C75.287 256.445 76.64 256.144 79 255 C81.351 252.397 82 251.579 82 248 C82.557 247.794 83.114 247.587 83.688 247.375 C86.996 245.408 88.716 243.109 91 240 C91 239.01 91 238.02 91 237 C91.66 237 92.32 237 93 237 C94.262 235.381 94.262 235.381 95.438 233.312 C95.877 232.576 96.317 231.84 96.77 231.082 C97.176 230.395 97.582 229.708 98 229 C98.536 228.175 99.072 227.35 99.625 226.5 C102.299 221.638 104.142 216.491 105 211 C105.66 211 106.32 211 107 211 C107.103 210.319 107.206 209.639 107.312 208.938 C108 206 108 206 109.383 202.848 C124.106 169.062 120.165 127.43 107.453 93.758 C101.07 78.349 92.528 62.217 81 50 C80.34 50 79.68 50 79 50 C78.773 49.443 78.546 48.886 78.312 48.312 C76.643 45.371 74.413 43.351 72 41 C71.67 40.34 71.34 39.68 71 39 C70.34 39 69.68 39 69 39 C69 38.34 69 37.68 69 37 C67.24 35.538 65.414 34.156 63.562 32.812 C62.458 32.008 61.353 31.202 60.25 30.395 C59.7 29.993 59.149 29.592 58.582 29.178 C55.65 26.995 52.844 24.651 50.035 22.312 C48.022 20.834 48.022 20.834 45.371 20.5 C43 20 43 20 41 17 C38.506 15.544 38.506 15.544 35.625 14.312 C34.669 13.876 33.712 13.439 32.727 12.988 C29.857 11.773 29.857 11.773 26 12 C26 11.34 26 10.68 26 10 C21.355 8.391 16.837 6.915 12 6 C11.154 5.711 10.309 5.423 9.438 5.125 C-3.6 0.604 -3.6 0.604 -17 1 C-17.33 0.34 -17.66 -0.32 -18 -1 C-20.48 -1.547 -20.48 -1.547 -23.375 -1.75 C-24.841 -1.897 -24.841 -1.897 -26.336 -2.047 C-29.231 -2.236 -29.231 -2.236 -32 0 C-32.33 -0.66 -32.66 -1.32 -33 -2 C-35.964 -2.091 -35.964 -2.091 -38.688 -1.5 Z " fill="#EDBE1D" transform="translate(547,388)"/>
    <path d="M0 0 C1.895 5.685 -0.717 12.227 -2 18 C-2.241 19.114 -2.482 20.227 -2.73 21.375 C-3.958 26.69 -5.423 31.358 -8.035 36.148 C-9.013 38.025 -9.734 39.88 -10.438 41.875 C-13.548 50.438 -18.141 58.324 -23 66 C-23.477 66.767 -23.954 67.534 -24.445 68.324 C-32.087 79.941 -42.405 89.89 -52.793 99.047 C-54.599 100.645 -56.321 102.271 -58 104 C-58.99 103.67 -59.98 103.34 -61 103 C-57.545 99.489 -53.986 96.161 -50.312 92.875 C-25.627 70.393 -6.434 38.573 -2.426 4.906 C-2 2 -2 2 0 0 Z " fill="#3A3D25" transform="translate(667,560)"/>
    <path d="M0 0 C0.753 0.254 1.506 0.508 2.281 0.77 C33.192 10.785 63.376 9.989 95 4 C95.495 4.99 95.495 4.99 96 6 C78.56 15.863 46.446 14.385 27.223 10.34 C24.835 9.802 24.835 9.802 22 11 C21.67 10.34 21.34 9.68 21 9 C19.68 9 18.36 9 17 9 C16.67 8.34 16.34 7.68 16 7 C13.919 6.417 13.919 6.417 11.438 6.062 C6.665 5.204 2.485 3.827 -2 2 C-1.34 1.34 -0.68 0.68 0 0 Z " fill="#394027" transform="translate(460,684)"/>
    <path d="M0 0 C0.99 0.33 1.98 0.66 3 1 C3.133 2.109 3.266 3.217 3.402 4.359 C3.581 5.823 3.759 7.286 3.938 8.75 C4.025 9.48 4.112 10.209 4.201 10.961 C4.688 15.056 4.688 15.056 5.565 19.079 C6.133 21.588 5.525 23.508 5 26 C5.33 26.66 5.66 27.32 6 28 C6.043 30 6.04 32 6 34 C6 35.32 6 36.64 6 38 C5.898 39.876 5.771 41.752 5.625 43.625 C5.555 44.587 5.486 45.548 5.414 46.539 C5 49 5 49 3 51 C1.824 46.432 1.969 41.987 2.062 37.312 C2.205 24.821 1.103 12.433 0 0 Z " fill="#434323" transform="translate(664,508)"/>
    <path d="M0 0 C2.169 0.506 4 1 6 2 C6 2.66 6 3.32 6 4 C6.577 4.268 7.155 4.536 7.75 4.812 C12.347 7.239 15.204 10.35 18.484 14.301 C20.082 16.191 20.082 16.191 22.688 18.125 C25.232 20.188 26.542 22.083 28 25 C28 25.66 28 26.32 28 27 C28.66 27 29.32 27 30 27 C31.026 28.651 32.023 30.32 33 32 C33.536 32.536 34.072 33.072 34.625 33.625 C36 35 36 35 37 38 C37.99 38.495 37.99 38.495 39 39 C38.67 40.32 38.34 41.64 38 43 C35.436 39.879 33.075 36.684 30.805 33.344 C22.733 21.581 13.176 10.847 1.695 2.32 C1.136 1.885 0.576 1.449 0 1 C0 0.67 0 0.34 0 0 Z " fill="#373A25" transform="translate(607,416)"/>
    <path d="M0 0 C-3.802 3.729 -8.194 4.006 -13.25 4.688 C-14.156 4.815 -15.063 4.942 -15.997 5.073 C-26.968 6.463 -37.964 6.281 -49 6 C-49 5.67 -49 5.34 -49 5 C-48.362 4.955 -47.724 4.91 -47.067 4.864 C-26.189 3.424 -26.189 3.424 -5.688 -0.617 C-3.54 -1.104 -2.071 -0.666 0 0 Z " fill="#2E3524" transform="translate(556,689)"/>
    <path d="M0 0 C2.366 3.549 2.109 4.576 1.625 8.688 C1.514 9.681 1.403 10.675 1.289 11.699 C1.194 12.458 1.098 13.218 1 14 C0.34 14 -0.32 14 -1 14 C-1.025 18.163 -1.043 22.325 -1.055 26.488 C-1.06 27.902 -1.067 29.316 -1.075 30.73 C-1.088 32.771 -1.093 34.811 -1.098 36.852 C-1.103 38.077 -1.108 39.302 -1.114 40.565 C-1.078 43.993 -1.078 43.993 -0.435 47.298 C0.055 50.34 -0.343 51.466 -2 54 C-5.208 36.537 -3.879 17.25 0 0 Z " fill="#F7CA1F" transform="translate(364,507)"/>
    <path d="M0 0 C2.996 0.368 5.998 0.686 9 1 C5.377 3.298 2.487 3.162 -1.734 2.977 C-3.678 2.899 -3.678 2.899 -5.66 2.82 C-7.023 2.755 -8.387 2.69 -9.75 2.625 C-11.129 2.567 -12.508 2.509 -13.887 2.453 C-17.258 2.312 -20.629 2.16 -24 2 C-24 1.34 -24 0.68 -24 0 C-16.187 -1.736 -7.824 -1.565 0 0 Z " fill="#3C3D23" transform="translate(526,383)"/>
    <path d="M0 0 C0.99 0 1.98 0 3 0 C2.934 0.832 2.869 1.665 2.801 2.522 C2.125 11.471 1.716 20.404 1.438 29.375 C1.394 30.708 1.351 32.042 1.307 33.375 C1.202 36.583 1.1 39.792 1 43 C0.67 43 0.34 43 0 43 C-0.17 38.966 -0.331 34.932 -0.482 30.897 C-0.535 29.53 -0.59 28.164 -0.648 26.798 C-1.03 17.775 -0.92 8.987 0 0 Z " fill="#51481E" transform="translate(360,511)"/>
    <path d="M0 0 C0.99 0.33 1.98 0.66 3 1 C2.66 1.525 2.319 2.049 1.969 2.59 C-2.75 10.132 -6.446 18.066 -10.134 26.144 C-11.054 28.115 -12.019 30.059 -13 32 C-14 30 -14 30 -12.82 26.41 C-12.263 24.958 -11.697 23.509 -11.125 22.062 C-10.565 20.616 -10.005 19.169 -9.445 17.723 C-8.968 16.494 -8.491 15.266 -8 14 C-7.67 13.01 -7.34 12.02 -7 11 C-6.34 11 -5.68 11 -5 11 C-5.124 9.886 -5.124 9.886 -5.25 8.75 C-4.927 5.192 -3.622 4.304 -1 2 C-0.67 1.34 -0.34 0.68 0 0 Z " fill="#353925" transform="translate(382,456)"/>
    <path d="M0 0 C0.33 0 0.66 0 1 0 C1.121 0.932 1.242 1.864 1.367 2.824 C2.473 11.234 3.672 19.622 5 28 C4.01 27.67 3.02 27.34 2 27 C1.867 26.145 1.734 25.291 1.598 24.41 C1.421 23.305 1.244 22.201 1.062 21.062 C0.888 19.96 0.714 18.858 0.535 17.723 C0.282 15.096 0.282 15.096 -1 14 C-1.287 12.028 -1.506 10.047 -1.688 8.062 C-1.794 6.981 -1.901 5.899 -2.012 4.785 C-2 2 -2 2 0 0 Z " fill="#363922" transform="translate(361,554)"/>
    <path d="M0 0 C0.33 0 0.66 0 1 0 C1.901 6.756 2.138 13.443 2.188 20.25 C2.207 21.545 2.207 21.545 2.227 22.866 C2.234 27.653 1.859 31.502 0 36 C-0.33 36 -0.66 36 -1 36 C-1.029 32.063 -1.047 28.125 -1.062 24.188 C-1.071 23.087 -1.079 21.987 -1.088 20.854 C-1.109 13.843 -0.777 6.968 0 0 Z " fill="#F6C720" transform="translate(665,524)"/>
    <path d="M0 0 C0 0.99 0 1.98 0 3 C-13.449 9.704 -13.449 9.704 -21 10 C-21 10.66 -21 11.32 -21 12 C-21.66 12 -22.32 12 -23 12 C-23 11.01 -23 10.02 -23 9 C-7.255 2.665 -7.255 2.665 0 0 Z " fill="#3D3F24" transform="translate(580,678)"/>
    <path d="M0 0 C4.437 0.612 8.025 2.369 11.938 4.438 C16.199 6.677 20.38 8.596 25 10 C25 10.33 25 10.66 25 11 C22.69 11.33 20.38 11.66 18 12 C18 11.34 18 10.68 18 10 C17.484 9.876 16.969 9.753 16.438 9.625 C15.231 9.316 15.231 9.316 14 9 C12.824 8.711 11.649 8.423 10.438 8.125 C7.199 7.065 6.132 6.469 4 4 C3.34 4 2.68 4 2 4 C2 3.34 2 2.68 2 2 C1.34 2 0.68 2 0 2 C0 1.34 0 0.68 0 0 Z " fill="#363B26" transform="translate(434,673)"/>
    <path d="M0 0 C3.41 1.42 5.036 3.025 7.188 6 C11.147 11.293 15.526 16.14 20 21 C19.34 21.66 18.68 22.32 18 23 C17.59 22.495 17.18 21.989 16.758 21.469 C15.95 20.494 15.95 20.494 15.125 19.5 C14.591 18.85 14.058 18.201 13.508 17.531 C13.01 17.026 12.513 16.521 12 16 C11.34 16 10.68 16 10 16 C9.752 15.258 9.505 14.515 9.25 13.75 C7.881 10.738 6.393 9.252 4 7 C0 2.333 0 2.333 0 0 Z " fill="#363A26" transform="translate(386,628)"/>
    <path d="M0 0 C0.99 0.33 1.98 0.66 3 1 C3 12.828 3 12.828 2.625 17.625 C2.555 18.587 2.486 19.548 2.414 20.539 C2 23 2 23 0 25 C-0.787 21.597 -1.081 18.62 -0.879 15.137 C-0.831 14.25 -0.782 13.364 -0.732 12.451 C-0.676 11.539 -0.62 10.627 -0.562 9.688 C-0.51 8.756 -0.458 7.825 -0.404 6.865 C-0.275 4.576 -0.14 2.288 0 0 Z " fill="#2F3722" transform="translate(667,534)"/>
    <path d="M0 0 C0.66 0.99 1.32 1.98 2 3 C1.039 3.853 1.039 3.853 0.059 4.723 C-5.115 9.341 -10.168 14.024 -15 19 C-15.99 18.67 -16.98 18.34 -18 18 C-17.34 18 -16.68 18 -16 18 C-15.752 17.381 -15.505 16.762 -15.25 16.125 C-13.794 13.649 -12.622 13.049 -10 12 C-10 10.35 -10 8.7 -10 7 C-8.68 7.33 -7.36 7.66 -6 8 C-5.67 7.01 -5.34 6.02 -5 5 C-3.562 3.312 -3.562 3.312 -2 2 C-1.34 2 -0.68 2 0 2 C0 1.34 0 0.68 0 0 Z " fill="#343A26" transform="translate(414,418)"/>
    <path d="M0 0 C0.66 0.99 1.32 1.98 2 3 C-2.666 3.675 -7.333 4.339 -12 5 C-12.871 5.129 -13.743 5.258 -14.641 5.391 C-19.774 6.113 -19.774 6.113 -22 5 C-22 4.34 -22 3.68 -22 3 C-20.969 3.041 -19.938 3.082 -18.875 3.125 C-15.05 3.002 -12.586 2.219 -9 1 C-6.009 0.552 -3.013 0.254 0 0 Z " fill="#323925" transform="translate(497,383)"/>
    <path d="M0 0 C0 3 0 3 -2.125 5.25 C-3.074 6.158 -4.022 7.065 -5 8 C-7.041 10.299 -9.025 12.644 -11 15 C-11.99 14.34 -12.98 13.68 -14 13 C-12.236 11.014 -10.464 9.037 -8.688 7.062 C-8.188 6.499 -7.688 5.935 -7.174 5.354 C-3.34 1.113 -3.34 1.113 0 0 Z " fill="#E6B51B" transform="translate(407,430)"/>
    <path d="M0 0 C0 0.66 0 1.32 0 2 C-9.405 6.95 -9.405 6.95 -19 12 C-19.33 11.34 -19.66 10.68 -20 10 C-14.5 5 -14.5 5 -10 5 C-10 4.34 -10 3.68 -10 3 C-8.71 2.496 -7.418 1.997 -6.125 1.5 C-5.406 1.222 -4.686 0.943 -3.945 0.656 C-2 0 -2 0 0 0 Z " fill="#383B24" transform="translate(454,395)"/>
    <path d="M0 0 C0.846 0.266 1.691 0.531 2.562 0.805 C8.677 2.709 14.766 4.533 21 6 C21 6.66 21 7.32 21 8 C19.68 8.33 18.36 8.66 17 9 C16.67 8.34 16.34 7.68 16 7 C13.919 6.417 13.919 6.417 11.438 6.062 C6.665 5.204 2.485 3.827 -2 2 C-1.34 1.34 -0.68 0.68 0 0 Z " fill="#3C3F27" transform="translate(460,684)"/>
    <path d="M0 0 C1.65 0 3.3 0 5 0 C1.29 3.001 -2.49 5.893 -6.312 8.75 C-6.862 9.161 -7.412 9.572 -7.979 9.996 C-9.318 10.998 -10.659 11.999 -12 13 C-12.33 12.01 -12.66 11.02 -13 10 C-8.912 6.154 -5.593 3.364 0 2 C0 1.34 0 0.68 0 0 Z " fill="#3B3C24" transform="translate(429,407)"/>
    <path d="M0 0 C7.602 0.33 13.973 2.128 21 5 C21 5.66 21 6.32 21 7 C18.69 7 16.38 7 14 7 C13.67 6.34 13.34 5.68 13 5 C11.948 4.856 10.896 4.711 9.812 4.562 C5.954 3.993 3.376 2.894 0 1 C0 0.67 0 0.34 0 0 Z " fill="#F2C51F" transform="translate(545,389)"/>
    <path d="M0 0 C0.33 0.99 0.66 1.98 1 3 C-1.79 4.004 -4.582 5.003 -7.375 6 C-8.566 6.429 -8.566 6.429 -9.781 6.867 C-10.922 7.273 -10.922 7.273 -12.086 7.688 C-13.139 8.065 -13.139 8.065 -14.212 8.449 C-16 9 -16 9 -18 9 C-18 8.34 -18 7.68 -18 7 C-17.01 7 -16.02 7 -15 7 C-15 6.34 -15 5.68 -15 5 C-10.037 2.629 -5.541 0.568 0 0 Z " fill="#353725" transform="translate(473,387)"/>
    <path d="M0 0 C8.492 -0.135 16.615 0.751 25 2 C25 2.33 25 2.66 25 3 C17.278 4.576 9.664 3.602 2 2 C1.34 1.34 0.68 0.68 0 0 Z " fill="#F1C420" transform="translate(482,689)"/>
    <path d="M0 0 C0.667 1.333 1.333 2.667 2 4 C2.495 4.846 2.99 5.691 3.5 6.562 C5.511 11.172 6.712 15.964 7 21 C6.34 21.66 5.68 22.32 5 23 C2.03 12.11 2.03 12.11 -1 1 C-0.67 0.67 -0.34 0.34 0 0 Z " fill="#424122" transform="translate(657,481)"/>
    <path d="M0 0 C0.66 0.33 1.32 0.66 2 1 C1.723 2.085 1.446 3.171 1.16 4.289 C0.794 5.734 0.428 7.18 0.062 8.625 C-0.12 9.338 -0.302 10.051 -0.49 10.785 C-1.513 14.84 -2.38 18.859 -3 23 C-3.99 22.67 -4.98 22.34 -6 22 C-5.856 21.154 -5.711 20.309 -5.562 19.438 C-5.172 17.05 -4.843 14.653 -4.562 12.25 C-4 9 -4 9 -2 7 C-1.281 4.682 -0.609 2.349 0 0 Z " fill="#3B3D24" transform="translate(367,488)"/>
    <path d="M0 0 C0.66 0 1.32 0 2 0 C2.838 1.455 3.671 2.914 4.5 4.375 C5.196 5.593 5.196 5.593 5.906 6.836 C7 9 7 9 7 11 C7.66 11 8.32 11 9 11 C9.99 14.3 10.98 17.6 12 21 C11.34 21.33 10.68 21.66 10 22 C6.667 14.667 3.333 7.333 0 0 Z " fill="#373A25" transform="translate(645,459)"/>
    <path d="M0 0 C0 3 0 3 -1.391 4.57 C-2.311 5.34 -2.311 5.34 -3.25 6.125 C-3.853 6.643 -4.457 7.161 -5.078 7.695 C-7.075 9.051 -8.642 9.572 -11 10 C-11 9.34 -11 8.68 -11 8 C-11.66 7.67 -12.32 7.34 -13 7 C-8.71 4.69 -4.42 2.38 0 0 Z " fill="#414124" transform="translate(596,669)"/>
    <path d="M0 0 C0.99 0 1.98 0 3 0 C5.31 5.61 7.62 11.22 10 17 C9.01 17 8.02 17 7 17 C6.208 15.104 5.416 13.208 4.625 11.312 C4.184 10.257 3.743 9.201 3.289 8.113 C2.172 5.416 1.077 2.713 0 0 Z " fill="#373B25" transform="translate(366,590)"/>
    <path d="M0 0 C5.333 4 10.667 8 16 12 C15.34 12.66 14.68 13.32 14 14 C11.084 12.693 9.161 11.341 7 9 C3.987 5.78 3.987 5.78 0 4 C0 2.68 0 1.36 0 0 Z " fill="#383B25" transform="translate(408,652)"/>
    <path d="M0 0 C5.94 0.66 11.88 1.32 18 2 C18 2.33 18 2.66 18 3 C17.108 3.061 16.216 3.121 15.297 3.184 C13.541 3.309 13.541 3.309 11.75 3.438 C10.01 3.559 10.01 3.559 8.234 3.684 C5.69 3.932 3.44 4.281 1 5 C0.505 2.525 0.505 2.525 0 0 Z " fill="#434323" transform="translate(481,690)"/>
    <path d="M0 0 C3.043 3.652 4.956 7.746 7 12 C7.33 12.66 7.66 13.32 8 14 C7.34 14.66 6.68 15.32 6 16 C5.752 15.484 5.505 14.969 5.25 14.438 C4.093 12.1 4.093 12.1 2.977 10.352 C0.765 6.759 -0.529 4.364 0 0 Z " fill="#3F3F25" transform="translate(376,608)"/>
    <path d="M0 0 C0.495 0.392 0.99 0.784 1.5 1.188 C0.551 1.476 -0.397 1.765 -1.375 2.062 C-4.552 2.956 -4.552 2.956 -6.5 5.188 C-10.125 4.812 -10.125 4.812 -13.5 4.188 C-9.494 1.517 -4.842 -1.574 0 0 Z " fill="#E9B91C" transform="translate(472.5,390.8125)"/>
    <path d="M0 0 C2.64 0.66 5.28 1.32 8 2 C8 2.66 8 3.32 8 4 C8.639 4.289 9.279 4.577 9.938 4.875 C12 6 12 6 13 8 C8.173 6.587 4.284 4.57 0 2 C0 1.34 0 0.68 0 0 Z " fill="#363B25" transform="translate(582,399)"/>
    <path d="M0 0 C2.938 1.438 2.938 1.438 5 3 C5 3.66 5 4.32 5 5 C3.227 4.549 1.457 4.089 -0.312 3.625 C-1.792 3.242 -1.792 3.242 -3.301 2.852 C-6 2 -6 2 -9 0 C-5.848 -1.576 -3.384 -0.688 0 0 Z " fill="#3E3E22" transform="translate(570,392)"/>
    <path d="M0 0 C0.681 0.088 1.361 0.175 2.062 0.266 C4 0.75 4 0.75 7 2.75 C2.047 4.348 -2.133 3.033 -7 1.75 C-3.831 -0.363 -3.494 -0.503 0 0 Z " fill="#E2B61D" transform="translate(476,686.25)"/>
    <path d="M0 0 C1.099 3.297 0.871 4.405 0.062 7.688 C-0.132 8.496 -0.327 9.304 -0.527 10.137 C-0.683 10.752 -0.839 11.366 -1 12 C-1.66 12 -2.32 12 -3 12 C-2.886 10.374 -2.758 8.749 -2.625 7.125 C-2.555 6.22 -2.486 5.315 -2.414 4.383 C-2 2 -2 2 0 0 Z " fill="#353925" transform="translate(667,560)"/>
    <path d="M0 0 C8.55 4.75 8.55 4.75 11 10 C9.159 8.909 7.327 7.802 5.5 6.688 C4.479 6.073 3.458 5.458 2.406 4.824 C1.215 3.921 1.215 3.921 0 3 C0 2.01 0 1.02 0 0 Z " fill="#363A25" transform="translate(596,406)"/>
    <path d="M0 0 C4.29 0.99 8.58 1.98 13 3 C12.67 3.66 12.34 4.32 12 5 C6.06 4.01 6.06 4.01 0 3 C0 2.01 0 1.02 0 0 Z " fill="#303726" transform="translate(537,384)"/>
    <path d="M0 0 C4.95 0 9.9 0 15 0 C15 0.33 15 0.66 15 1 C9.693 2.427 5.461 3.4 0 2 C0 1.34 0 0.68 0 0 Z " fill="#3C3B20" transform="translate(475,386)"/>
    <path d="M0 0 C0 3 0 3 -1.75 5.25 C-4 7 -4 7 -6.25 6.75 C-6.827 6.503 -7.405 6.255 -8 6 C-5.385 3.88 -2.804 1.869 0 0 Z " fill="#3D3E25" transform="translate(605,663)"/>
    <path d="M0 0 C2.143 2.143 2.514 3.141 3.25 6 C3.441 6.701 3.632 7.403 3.828 8.125 C3.885 8.744 3.942 9.362 4 10 C3.34 10.66 2.68 11.32 2 12 C1.468 10.567 0.95 9.128 0.438 7.688 C0.147 6.887 -0.143 6.086 -0.441 5.262 C-1 3 -1 3 0 0 Z " fill="#E6B51B" transform="translate(368,583)"/>
    <path d="M0 0 C5.61 0 11.22 0 17 0 C16.01 0.99 15.02 1.98 14 3 C12.141 2.723 12.141 2.723 10 2 C8.253 1.786 6.503 1.599 4.75 1.438 C3.858 1.354 2.966 1.27 2.047 1.184 C1.371 1.123 0.696 1.062 0 1 C0 0.67 0 0.34 0 0 Z " fill="#F8D122" transform="translate(503,385)"/>
    <path d="M0 0 C1.438 0.142 2.875 0.289 4.312 0.438 C5.113 0.519 5.914 0.6 6.738 0.684 C9 1 9 1 12 2 C12 2.66 12 3.32 12 4 C10.68 4.33 9.36 4.66 8 5 C7.67 4.34 7.34 3.68 7 3 C4.678 2.593 2.343 2.256 0 2 C0 1.34 0 0.68 0 0 Z " fill="#2A3425" transform="translate(469,688)"/>
    <path d="M0 0 C0.33 0 0.66 0 1 0 C1.083 4.833 0.953 9.237 0 14 C-0.33 14 -0.66 14 -1 14 C-1.221 12.043 -1.427 10.084 -1.625 8.125 C-1.741 7.034 -1.857 5.944 -1.977 4.82 C-1.984 3.89 -1.992 2.959 -2 2 C-1.34 1.34 -0.68 0.68 0 0 Z " fill="#564E21" transform="translate(361,554)"/>
    <path d="M0 0 C0.33 1.32 0.66 2.64 1 4 C-0.98 5.32 -2.96 6.64 -5 8 C-5.33 6.68 -5.66 5.36 -6 4 C-4.35 3.67 -2.7 3.34 -1 3 C-0.67 2.01 -0.34 1.02 0 0 Z " fill="#EAB91C" transform="translate(609,656)"/>
    <path d="M0 0 C1.32 0.33 2.64 0.66 4 1 C1.525 4.465 1.525 4.465 -1 8 C-1.66 7.67 -2.32 7.34 -3 7 C-2.427 4.133 -2.139 3.139 0 1 C0 0.67 0 0.34 0 0 Z " fill="#353A26" transform="translate(392,440)"/>
    <path d="M0 0 C2.164 0.023 2.164 0.023 4.625 0.375 C5.851 0.541 5.851 0.541 7.102 0.711 C7.728 0.806 8.355 0.902 9 1 C5.016 3.309 2.499 2.865 -2 2 C-1.34 1.34 -0.68 0.68 0 0 Z " fill="#E2B31C" transform="translate(538,387)"/>
    <path d="M0 0 C0.66 0.99 1.32 1.98 2 3 C-0.906 4.257 -2.796 5 -6 5 C-5.25 3.062 -5.25 3.062 -4 1 C-1.875 0.25 -1.875 0.25 0 0 Z " fill="#E7B71B" transform="translate(563,682)"/>
    <path d="M0 0 C1.361 0.124 1.361 0.124 2.75 0.25 C-0.453 3.084 -3.031 3.771 -7.25 4.25 C-4.839 1.283 -3.903 0.3 0 0 Z " fill="#F7CB20" transform="translate(571.25,679.75)"/>
    <path d="M0 0 C3.465 1.98 3.465 1.98 7 4 C6.67 4.66 6.34 5.32 6 6 C5.01 6 4.02 6 3 6 C3 5.34 3 4.68 3 4 C2.01 3.67 1.02 3.34 0 3 C0 2.01 0 1.02 0 0 Z " fill="#3B3F25" transform="translate(424,665)"/>
    <path d="M0 0 C0.99 0.33 1.98 0.66 3 1 C3.688 3.812 3.688 3.812 4 7 C3.01 7.99 2.02 8.98 1 10 C0.67 6.7 0.34 3.4 0 0 Z " fill="#2F3523" transform="translate(664,508)"/>
    <path d="M0 0 C1.333 2.667 2.667 5.333 4 8 C3.34 8.66 2.68 9.32 2 10 C1.01 7.03 0.02 4.06 -1 1 C-0.67 0.67 -0.34 0.34 0 0 Z " fill="#343925" transform="translate(657,481)"/>
    <text x="162" y="185" font-size="119" fill="#5f6e79">COMING</text>
    <text x="273" y="348" font-size="119" fill="#000929">SOON</text>
    <text x="157" y="918" font-size="65" fill="#000b25">Stay</text>
    <text x="306" y="904" font-size="51" fill="#000115">tuned</text>
    <text x="508" y="904" font-size="51" fill="#030f27">for</text>
    <text x="620" y="919" font-size="66" fill="#80919d">updates</text>
</svg>