<?xml version="1.0" encoding="UTF-8"?>
<!-- Generator: visioncortex VTracer 0.6.4 -->
<svg version="1.1" xmlns="http://www.w3.org/2000/svg" width="1024" height="1024">
<path d="M0 0 C337.92 0 675.84 0 1024 0 C1024 337.92 1024 675.84 1024 1024 C686.08 1024 348.16 1024 0 1024 C0 686.08 0 348.16 0 0 Z " fill="#090909" transform="translate(0,0)"/>
<path d="M0 0 C13.183 10.505 23.276 30.307 26.062 46.828 C30.025 65.807 37.035 83.447 46.434 100.348 C49.959 106.741 52.217 112.685 50.938 120.016 C46.034 132.768 37.297 141.001 25.27 146.738 C22.116 147.947 19.28 148.605 15.938 149.016 C15.938 149.676 15.938 150.336 15.938 151.016 C16.607 151.266 17.276 151.516 17.965 151.773 C20.877 152.99 23.658 154.382 26.458 155.834 C33.064 159.253 39.539 162.155 46.68 164.324 C48.937 165.016 48.937 165.016 50.938 166.016 C48.623 171.621 43.663 174.489 38.938 178.016 C37.951 178.754 36.965 179.493 35.949 180.254 C8.148 200.3 -23.851 207.323 -57.75 203.328 C-76.183 200.016 -94.399 192.198 -110.062 182.016 C-110.732 181.586 -111.401 181.157 -112.09 180.715 C-115.194 178.473 -116.049 177.067 -117.062 173.328 C-117.062 170.016 -117.062 170.016 -115.062 168.016 C-113.267 167.382 -111.451 166.807 -109.625 166.266 C-104.123 164.509 -99.327 162.178 -94.34 159.285 C-92.062 158.016 -92.062 158.016 -89.062 157.016 C-91.978 153.912 -94.973 151.269 -98.375 148.703 C-107.715 141.5 -116.474 132.568 -120.062 121.016 C-121.528 107.178 -118.686 95.052 -114.849 81.834 C-113.885 78.379 -113.088 74.901 -112.31 71.4 C-108.002 52.097 -103.389 31.499 -92.062 15.016 C-91.539 14.155 -91.016 13.293 -90.477 12.406 C-85.35 4.105 -78.85 -0.567 -70.062 -4.609 C-69.235 -4.995 -68.408 -5.38 -67.556 -5.777 C-44.993 -15.981 -20.963 -13.583 0 0 Z " fill="#090909" transform="translate(548.0625,511.984375)"/>
<path d="M0 0 C13.183 10.505 23.276 30.307 26.062 46.828 C30.025 65.807 37.035 83.447 46.434 100.348 C49.959 106.741 52.217 112.685 50.938 120.016 C46.034 132.768 37.297 141.001 25.27 146.738 C22.116 147.947 19.28 148.605 15.938 149.016 C15.938 149.676 15.938 150.336 15.938 151.016 C16.607 151.266 17.276 151.516 17.965 151.773 C20.877 152.99 23.658 154.382 26.458 155.834 C33.064 159.253 39.539 162.155 46.68 164.324 C48.937 165.016 48.937 165.016 50.938 166.016 C48.623 171.621 43.663 174.489 38.938 178.016 C37.951 178.754 36.965 179.493 35.949 180.254 C8.148 200.3 -23.851 207.323 -57.75 203.328 C-76.183 200.016 -94.399 192.198 -110.062 182.016 C-110.732 181.586 -111.401 181.157 -112.09 180.715 C-115.194 178.473 -116.049 177.067 -117.062 173.328 C-117.062 170.016 -117.062 170.016 -115.062 168.016 C-113.267 167.382 -111.451 166.807 -109.625 166.266 C-104.123 164.509 -99.327 162.178 -94.34 159.285 C-92.062 158.016 -92.062 158.016 -89.062 157.016 C-91.978 153.912 -94.973 151.269 -98.375 148.703 C-107.715 141.5 -116.474 132.568 -120.062 121.016 C-121.528 107.178 -118.686 95.052 -114.849 81.834 C-113.885 78.379 -113.088 74.901 -112.31 71.4 C-108.002 52.097 -103.389 31.499 -92.062 15.016 C-91.539 14.155 -91.016 13.293 -90.477 12.406 C-85.35 4.105 -78.85 -0.567 -70.062 -4.609 C-69.235 -4.995 -68.408 -5.38 -67.556 -5.777 C-44.993 -15.981 -20.963 -13.583 0 0 Z M-77.062 5.016 C-77.881 5.556 -78.7 6.096 -79.543 6.652 C-83.108 9.996 -84.952 13.867 -87.125 18.203 C-87.546 19.016 -87.967 19.829 -88.4 20.666 C-89.651 23.102 -90.865 25.553 -92.062 28.016 C-92.388 28.683 -92.714 29.35 -93.05 30.038 C-99.117 43.051 -103.059 56.899 -106.623 70.764 C-107.253 73.214 -107.894 75.661 -108.537 78.107 C-116.301 105.035 -116.301 105.035 -109.777 131.422 C-104.182 140.524 -96.546 146.04 -87.312 151.078 C-86.579 151.485 -85.846 151.892 -85.091 152.311 C-81.896 153.977 -79.839 155.049 -76.191 154.891 C-73.489 153.78 -71.966 152.201 -70.062 150.016 C-70.188 151.703 -70.188 151.703 -71.062 154.016 C-72.094 154.779 -73.125 155.542 -74.188 156.328 C-77.377 158.729 -77.377 158.729 -77.438 162.203 C-75.224 171.193 -65.555 179.638 -57.922 184.332 C-54.228 186.295 -52.38 187.016 -48.062 187.016 C-48.392 187.676 -48.722 188.336 -49.062 189.016 C-60.374 187.191 -69.236 181.322 -77.062 173.016 C-79.276 169.793 -80.507 167.033 -81.25 163.203 C-81.409 162.413 -81.567 161.623 -81.73 160.809 C-81.84 160.217 -81.95 159.625 -82.062 159.016 C-86.055 159.683 -89.208 161.722 -92.625 163.766 C-98.603 167.271 -104.677 170.305 -111.062 173.016 C-98.978 185.796 -80.583 192.17 -64.062 197.016 C-62.913 197.359 -61.763 197.701 -60.578 198.055 C-33.835 204.901 -3.015 197.47 20.505 183.911 C27.957 179.492 35.424 174.753 41.938 169.016 C41.938 168.356 41.938 167.696 41.938 167.016 C41.087 166.782 40.236 166.549 39.359 166.309 C31.108 163.824 23.644 160.562 16.062 156.453 C15.177 155.982 14.291 155.511 13.378 155.026 C12.555 154.568 11.731 154.109 10.883 153.637 C10.146 153.229 9.408 152.821 8.649 152.4 C6.579 150.726 6.295 149.607 5.938 147.016 C7.113 146.809 8.289 146.603 9.5 146.391 C22.806 143.347 34.23 138.199 42.438 126.828 C46.413 119.374 46.112 113.664 43.812 105.766 C42.099 100.894 39.528 96.602 36.852 92.203 C36.22 91.151 35.588 90.099 34.938 89.016 C34.546 88.39 34.154 87.765 33.75 87.12 C29.812 80.525 27.72 73.605 25.562 66.266 C24.976 64.324 24.386 62.384 23.795 60.444 C23.208 58.513 22.624 56.582 22.041 54.65 C14.239 28.023 14.239 28.023 -2.062 6.016 C-2.703 5.37 -3.344 4.724 -4.004 4.059 C-14.216 -5.114 -31.177 -8.69 -44.555 -8.391 C-56.375 -7.671 -67.713 -1.949 -77.062 5.016 Z " fill="#F3F3F3" transform="translate(548.0625,511.984375)"/>
<path d="M0 0 C3 1 3 1 4.762 4.219 C5.414 5.641 6.055 7.069 6.688 8.5 C7.033 9.255 7.379 10.01 7.736 10.789 C9.193 13.97 10.625 17.162 12.054 20.356 C13.069 22.617 14.097 24.871 15.125 27.125 C15.425 27.81 15.725 28.495 16.034 29.201 C21.462 41.078 31.304 47.233 43.027 52.273 C53.454 56.114 64.109 53.686 74 49.312 C77 48 77 48 80 48 C79 51 79 51 76.961 52.316 C76.108 52.728 75.254 53.139 74.375 53.562 C73.537 53.976 72.699 54.39 71.836 54.816 C65.939 57.278 60.499 58.363 54.125 58.312 C53.426 58.31 52.727 58.307 52.007 58.304 C45.077 58.164 39.738 56.825 34 53 C33.567 54.207 33.567 54.207 33.125 55.438 C32 58 32 58 30 59 C29.816 58.394 29.631 57.788 29.441 57.164 C27.234 50.787 24.258 46.584 19.512 41.812 C12.724 34.212 8.354 26.099 4.562 16.688 C4.117 15.63 3.672 14.572 3.213 13.482 C-0.279 4.98 -0.279 4.98 0 0 Z " fill="#F1F1F1" transform="translate(450,590)"/>
<path d="M0 0 C0.99 0 1.98 0 3 0 C1.667 4.226 0.043 8.167 -1.812 12.188 C-8.115 26.525 -10.757 41.474 -12 57 C-13.485 57.495 -13.485 57.495 -15 58 C-14.744 36.975 -9.402 18.805 0 0 Z " fill="#D6D6D6" transform="translate(404,534)"/>
<path d="M0 0 C2.297 0.188 2.297 0.188 5 1 C6.703 3.188 6.703 3.188 8.25 6 C11.305 11.175 14.741 15.003 19.18 19.027 C21.075 21.081 21.621 22.271 22 25 C15.955 24.222 12.617 18.427 9 14 C5.626 9.524 2.401 5.079 0 0 Z " fill="#EDEDED" transform="translate(402,651)"/>
<path d="M0 0 C0.99 0.33 1.98 0.66 3 1 C2.716 13.151 1.192 24.27 -2 36 C-2.66 36 -3.32 36 -4 36 C-3.53 30.523 -2.885 25.113 -2 19.688 C-0.956 13.144 -0.411 6.61 0 0 Z " fill="#EEEEEE" transform="translate(636,591)"/>
<path d="M0 0 C4.01 1.678 7.065 4.436 10.312 7.25 C10.887 7.744 11.462 8.237 12.053 8.746 C13.189 9.722 14.324 10.699 15.457 11.677 C17.387 13.332 19.352 14.944 21.312 16.562 C22.199 17.367 23.086 18.171 24 19 C24 19.66 24 20.32 24 21 C20.369 20.418 18.678 19.03 16.062 16.5 C10.478 11.345 4.304 7.209 -2 3 C-1.34 2.01 -0.68 1.02 0 0 Z " fill="#EAEAEA" transform="translate(579,488)"/>
<path d="M0 0 C0.99 0 1.98 0 3 0 C1.604 4.403 -0.074 8.587 -1.938 12.812 C-4.259 18.132 -6.279 23.456 -8 29 C-8.66 29 -9.32 29 -10 29 C-9.511 22.384 -7.681 17.162 -5 11.125 C-4.631 10.272 -4.263 9.418 -3.883 8.539 C-1.36 2.72 -1.36 2.72 0 0 Z " fill="#F0F0F0" transform="translate(404,534)"/>
<path d="M0 0 C1.805 0.512 1.805 0.512 4 2 C5.218 4.624 6.208 7.088 7.125 9.812 C7.627 11.236 8.13 12.659 8.633 14.082 C8.981 15.098 8.981 15.098 9.337 16.135 C9.893 17.699 10.528 19.235 11.18 20.762 C12 23 12 23 12 27 C11.01 26.67 10.02 26.34 9 26 C7.861 23.455 6.899 21.003 6 18.375 C5.502 16.966 5.002 15.557 4.5 14.148 C4.135 13.11 4.135 13.11 3.762 12.05 C3.018 10.048 2.186 8.112 1.312 6.164 C0 3 0 3 0 0 Z " fill="#E0DFE0" transform="translate(623,538)"/>
<path d="M0 0 C1.395 0.007 2.789 0.019 4.184 0.035 C4.895 0.04 5.605 0.044 6.338 0.049 C8.099 0.061 9.86 0.079 11.621 0.098 C11.309 2.035 11.309 2.035 10.621 4.098 C7.606 5.103 5.579 5.201 2.434 5.16 C1.533 5.151 0.631 5.142 -0.297 5.133 C-0.984 5.121 -1.671 5.11 -2.379 5.098 C-3.039 3.778 -3.699 2.458 -4.379 1.098 C-3.379 0.098 -3.379 0.098 0 0 Z " fill="#EBEAEA" transform="translate(502.37890625,610.90234375)"/>
<path d="M0 0 C-0.33 0.99 -0.66 1.98 -1 3 C-3.784 3.997 -6.461 4.82 -9.312 5.562 C-10.851 5.977 -12.389 6.395 -13.926 6.816 C-14.953 7.086 -14.953 7.086 -16.001 7.362 C-18.06 7.959 -18.06 7.959 -20.083 9.066 C-22.489 10.238 -24.359 10.147 -27 10 C-27 9.34 -27 8.68 -27 8 C-6.497 0 -6.497 0 0 0 Z " fill="#F3F3F3" transform="translate(488,473)"/>
<path d="M0 0 C-1.3 4.291 -3.544 6.95 -6.469 10.219 C-8.575 12.669 -10.271 15.273 -12 18 C-12.99 17.67 -13.98 17.34 -15 17 C-12.662 11.41 -6.927 0 0 0 Z " fill="#EDEDED" transform="translate(422,513)"/>
<path d="M0 0 C1.32 0.66 2.64 1.32 4 2 C2.821 5.354 1.881 7.839 -1 10 C-4.188 11.188 -4.188 11.188 -7 12 C-6.626 6.636 -5.004 4.504 -1 1 C-0.67 0.67 -0.34 0.34 0 0 Z " fill="#2F2F2F" transform="translate(615,658)"/>
<path d="M0 0 C0 0.66 0 1.32 0 2 C-1.87 3.22 -3.799 4.352 -5.75 5.438 C-10.139 7.878 -10.139 7.878 -14.25 10.742 C-16 12 -16 12 -18.25 11.688 C-18.827 11.461 -19.405 11.234 -20 11 C-17.3 7.954 -13.993 5.932 -10.562 3.812 C-9.99 3.444 -9.417 3.076 -8.826 2.697 C-5.504 0.637 -4.025 0 0 0 Z " fill="#EFEFEF" transform="translate(456,486)"/>
<path d="M0 0 C0 0.66 0 1.32 0 2 C-3.772 1.555 -7.543 1.091 -11.312 0.625 C-12.92 0.436 -12.92 0.436 -14.561 0.242 C-15.589 0.113 -16.617 -0.016 -17.676 -0.148 C-18.624 -0.264 -19.572 -0.379 -20.548 -0.498 C-23 -1 -23 -1 -26 -3 C-24.886 -2.979 -23.773 -2.959 -22.625 -2.938 C-14.158 -3.083 -8.513 -2.723 0 0 Z " fill="#C2C2C2" transform="translate(545,475)"/>
<path d="M0 0 C0.99 0 1.98 0 3 0 C3.061 0.701 3.121 1.403 3.184 2.125 C3.682 7.768 4.258 13.384 5 19 C4.01 19 3.02 19 2 19 C1.661 16.959 1.329 14.917 1 12.875 C0.814 11.738 0.629 10.601 0.438 9.43 C0.03 6.239 -0.078 3.212 0 0 Z " fill="#E8E8E8" transform="translate(390,607)"/>
<path d="M0 0 C0.66 0 1.32 0 2 0 C2.562 10.725 2.562 10.725 -1 15 C-1.33 15 -1.66 15 -2 15 C-2.054 12.875 -2.093 10.75 -2.125 8.625 C-2.148 7.442 -2.171 6.258 -2.195 5.039 C-2 2 -2 2 0 0 Z " fill="#EBECEB" transform="translate(483,650)"/>
<path d="M0 0 C2.475 0.99 2.475 0.99 5 2 C5 2.99 5 3.98 5 5 C4.01 5.495 4.01 5.495 3 6 C2.532 8.356 2.532 8.356 2.375 11.062 C2.3 11.982 2.225 12.901 2.148 13.848 C2.099 14.558 2.05 15.268 2 16 C1.67 16 1.34 16 1 16 C1 13.03 1 10.06 1 7 C0.01 7 -0.98 7 -2 7 C-1.125 2.25 -1.125 2.25 0 0 Z " fill="#171717" transform="translate(484,643)"/>
<path d="M0 0 C0.99 0.33 1.98 0.66 3 1 C2.67 6.28 2.34 11.56 2 17 C1.34 17 0.68 17 0 17 C0 11.39 0 5.78 0 0 Z " fill="#EFEFEF" transform="translate(636,591)"/>
<path d="M0 0 C2.062 0.438 2.062 0.438 4 1 C4.33 2.65 4.66 4.3 5 6 C3.35 6.33 1.7 6.66 0 7 C-0.381 5.009 -0.713 3.007 -1 1 C-0.67 0.67 -0.34 0.34 0 0 Z " fill="#E8E8E8" transform="translate(478,570)"/>
<path d="M0 0 C1.675 0.286 3.344 0.618 5 1 C4.67 2.65 4.34 4.3 4 6 C2.35 6 0.7 6 -1 6 C-1.043 4.334 -1.041 2.666 -1 1 C-0.67 0.67 -0.34 0.34 0 0 Z " fill="#EBEBEB" transform="translate(528,571)"/>
<path d="M0 0 C0.66 0.66 1.32 1.32 2 2 C1.457 2.459 0.915 2.918 0.355 3.391 C-0.36 4.004 -1.075 4.618 -1.812 5.25 C-2.52 5.853 -3.228 6.457 -3.957 7.078 C-5.919 8.924 -7.457 10.799 -9 13 C-9.33 12.34 -9.66 11.68 -10 11 C-9.091 9.724 -8.172 8.454 -7.25 7.188 C-6.74 6.48 -6.229 5.772 -5.703 5.043 C-3.975 2.97 -2.215 1.526 0 0 Z " fill="#0F0F0F" transform="translate(467,511)"/>
<path d="M0 0 C-0.33 0.99 -0.66 1.98 -1 3 C-3.723 3.949 -3.723 3.949 -7.062 4.688 C-8.72 5.065 -8.72 5.065 -10.41 5.449 C-11.692 5.722 -11.692 5.722 -13 6 C-13.33 5.01 -13.66 4.02 -14 3 C-12.042 2.497 -10.084 1.998 -8.125 1.5 C-7.034 1.222 -5.944 0.943 -4.82 0.656 C-2 0 -2 0 0 0 Z " fill="#E6E6E5" transform="translate(488,473)"/>
<path d="M0 0 C1.031 3.269 0.964 5.86 0.562 9.25 C0.461 10.142 0.359 11.034 0.254 11.953 C0.128 12.966 0.128 12.966 0 14 C-0.66 14 -1.32 14 -2 14 C-2.054 12.042 -2.093 10.084 -2.125 8.125 C-2.148 7.034 -2.171 5.944 -2.195 4.82 C-2 2 -2 2 0 0 Z " fill="#272727" transform="translate(435,616)"/>
<path d="M0 0 C0.99 0 1.98 0 3 0 C1.856 3.873 0.767 7.003 -2 10 C-2.66 10 -3.32 10 -4 10 C-2.891 6.513 -1.737 3.225 0 0 Z " fill="#DBDBDB" transform="translate(404,534)"/>
<path d="M0 0 C-1.363 4.906 -3.704 6.458 -8 9 C-8.99 9.66 -9.98 10.32 -11 11 C-9.602 7.842 -7.948 5.677 -5.5 3.25 C-4.892 2.636 -4.283 2.023 -3.656 1.391 C-2 0 -2 0 0 0 Z " fill="#E5E5E5" transform="translate(422,513)"/>
<path d="M0 0 C0.33 0 0.66 0 1 0 C1 3.63 1 7.26 1 11 C0.01 11.33 -0.98 11.66 -2 12 C-1.86 10.187 -1.713 8.375 -1.562 6.562 C-1.481 5.553 -1.4 4.544 -1.316 3.504 C-1 1 -1 1 0 0 Z " fill="#EAEAEA" transform="translate(391,580)"/>
<path d="M0 0 C0.33 1.32 0.66 2.64 1 4 C0.169 4.472 0.169 4.472 -0.68 4.953 C-1.766 5.595 -1.766 5.595 -2.875 6.25 C-3.594 6.668 -4.314 7.085 -5.055 7.516 C-7.209 9.159 -7.991 10.516 -9 13 C-9.438 10.875 -9.438 10.875 -9 8 C-6.917 5.665 -4.613 3.72 -2 2 C-1.34 2 -0.68 2 0 2 C0 1.34 0 0.68 0 0 Z " fill="#1A1A1A" transform="translate(480,663)"/>
<path d="M0 0 C0.99 0.33 1.98 0.66 3 1 C1.196 4.265 0.166 5.889 -3 8 C-3 3.732 -2.624 3.061 0 0 Z " fill="#EBEBEB" transform="translate(615,658)"/>
<path d="M0 0 C0.66 0 1.32 0 2 0 C2.534 1.412 3.052 2.83 3.562 4.25 C3.853 5.039 4.143 5.828 4.441 6.641 C5.045 9.191 4.847 10.553 4 13 C1.124 8.686 0 5.193 0 0 Z " fill="#121211" transform="translate(576,567)"/>
<path d="M0 0 C2.653 2.476 4.68 4.59 6 8 C6 8.99 6 9.98 6 11 C5.34 11 4.68 11 4 11 C3.326 9.733 2.661 8.461 2 7.188 C1.629 6.48 1.258 5.772 0.875 5.043 C0 3 0 3 0 0 Z " fill="#131313" transform="translate(590,602)"/>
<path d="M0 0 C0.33 1.32 0.66 2.64 1 4 C1.66 4 2.32 4 3 4 C2.67 6.31 2.34 8.62 2 11 C1.01 11.33 0.02 11.66 -1 12 C-0.67 8.04 -0.34 4.08 0 0 Z " fill="#DFDFDE" transform="translate(635,604)"/>
<path d="M0 0 C3.63 0 7.26 0 11 0 C11 0.66 11 1.32 11 2 C7.37 2.33 3.74 2.66 0 3 C0 2.01 0 1.02 0 0 Z " fill="#F2F2F3" transform="translate(497,471)"/>
<path d="M0 0 C1.875 0.125 1.875 0.125 4 1 C5.25 4.062 5.25 4.062 6 7 C3.007 5.902 2.154 5.323 0.75 2.375 C0.503 1.591 0.255 0.808 0 0 Z " fill="#DBDCDB" transform="translate(612,521)"/>
<path d="M0 0 C0.66 0.33 1.32 0.66 2 1 C2 1.66 2 2.32 2 3 C0.02 3.99 0.02 3.99 -2 5 C-1.34 3.35 -0.68 1.7 0 0 Z M-3 5 C-2.67 5.99 -2.34 6.98 -2 8 C-4.475 9.485 -4.475 9.485 -7 11 C-5.848 8.532 -4.952 6.952 -3 5 Z " fill="#151415" transform="translate(422,513)"/>
<path d="M0 0 C0.33 0 0.66 0 1 0 C0.125 6.75 0.125 6.75 -1 9 C-1.66 9 -2.32 9 -3 9 C-2.502 5.265 -2.125 3.188 0 0 Z " fill="#E2E2E2" transform="translate(627,639)"/>
<path d="M0 0 C0.66 0 1.32 0 2 0 C3.765 3.088 4 4.233 4 8 C3.01 7.67 2.02 7.34 1 7 C0.67 4.69 0.34 2.38 0 0 Z " fill="#EDEDED" transform="translate(631,557)"/>
<path d="M0 0 C0.99 0.99 1.98 1.98 3 3 C2.67 3.66 2.34 4.32 2 5 C-0.562 5.625 -0.562 5.625 -3 6 C-3 6.66 -3 7.32 -3 8 C-3.66 7.67 -4.32 7.34 -5 7 C-3.625 5.5 -3.625 5.5 -2 4 C-1.34 4 -0.68 4 0 4 C0 3.34 0 2.68 0 2 C-0.99 1.67 -1.98 1.34 -3 1 C-2.01 0.67 -1.02 0.34 0 0 Z " fill="#151414" transform="translate(456,484)"/>
<path d="M0 0 C-1 3 -1 3 -2.848 4.168 C-3.579 4.504 -4.309 4.841 -5.062 5.188 C-5.796 5.532 -6.529 5.876 -7.285 6.23 C-8.134 6.611 -8.134 6.611 -9 7 C-7.685 3.056 -4.385 0 0 0 Z " fill="#171717" transform="translate(582,646)"/>
<path d="M0 0 C2.025 1.933 3.421 3.632 5 6 C5 6.99 5 7.98 5 9 C4.34 9 3.68 9 3 9 C2.546 8.051 2.092 7.102 1.625 6.125 C0.198 2.997 0.198 2.997 -2 1 C-1.34 0.67 -0.68 0.34 0 0 Z " fill="#171817" transform="translate(452,588)"/>
<path d="M0 0 C0.66 0 1.32 0 2 0 C1.435 3.958 0.191 6.666 -2 10 C-3 8 -3 8 -2.441 6.055 C-2.151 5.335 -1.861 4.616 -1.562 3.875 C-1.275 3.151 -0.988 2.426 -0.691 1.68 C-0.463 1.125 -0.235 0.571 0 0 Z " fill="#141414" transform="translate(400,549)"/>
<path d="M0 0 C0.66 0.33 1.32 0.66 2 1 C1.67 1.99 1.34 2.98 1 4 C-0.65 4.33 -2.3 4.66 -4 5 C-4 4.01 -4 3.02 -4 2 C-2.125 0.938 -2.125 0.938 0 0 Z " fill="#E6E6E6" transform="translate(441,493)"/>
<path d="M0 0 C7.75 0.875 7.75 0.875 10 2 C10 2.66 10 3.32 10 4 C8.519 3.719 7.04 3.425 5.562 3.125 C4.739 2.963 3.915 2.8 3.066 2.633 C2.384 2.424 1.703 2.215 1 2 C0.67 1.34 0.34 0.68 0 0 Z " fill="#E5E5E5" transform="translate(535,473)"/>
<path d="M0 0 C0.66 0.33 1.32 0.66 2 1 C-0.991 4.336 -3.932 6.151 -8 8 C-6.883 4.65 -6.253 4.207 -3.438 2.312 C-2.797 1.876 -2.156 1.439 -1.496 0.988 C-0.756 0.499 -0.756 0.499 0 0 Z " fill="#181817" transform="translate(585,690)"/>
<path d="M0 0 C1.485 0.99 1.485 0.99 3 2 C2.34 3.98 1.68 5.96 1 8 C0.34 8 -0.32 8 -1 8 C-0.67 5.36 -0.34 2.72 0 0 Z " fill="#E4E5E4" transform="translate(395,555)"/>
<path d="M0 0 C1.98 0 3.96 0 6 0 C5.01 0.66 4.02 1.32 3 2 C3.66 3.32 4.32 4.64 5 6 C3.062 5.25 3.062 5.25 1 4 C0.25 1.875 0.25 1.875 0 0 Z " fill="#252626" transform="translate(400,650)"/>
<path d="M0 0 C-0.33 0.99 -0.66 1.98 -1 3 C-3.562 4.188 -3.562 4.188 -6 5 C-5.625 3.062 -5.625 3.062 -5 1 C-3 0 -3 0 0 0 Z " fill="#EBEAEB" transform="translate(530,638)"/>
<path d="M0 0 C2.152 3.228 2.201 4.284 2 8 C1.01 7.67 0.02 7.34 -1 7 C-1.043 5 -1.041 3 -1 1 C-0.67 0.67 -0.34 0.34 0 0 Z " fill="#171616" transform="translate(592,622)"/>
<path d="M0 0 C0.66 0.33 1.32 0.66 2 1 C2 1.66 2 2.32 2 3 C-0.31 3.33 -2.62 3.66 -5 4 C-5 3.34 -5 2.68 -5 2 C-2.625 0.938 -2.625 0.938 0 0 Z " fill="#E5E4E5" transform="translate(466,479)"/>
</svg>
