<?xml version="1.0" encoding="UTF-8"?>
<!-- Generator: visioncortex VTracer 0.6.4 -->
<svg version="1.1" xmlns="http://www.w3.org/2000/svg" width="1024" height="1024">
<path d="M0 0 C337.92 0 675.84 0 1024 0 C1024 337.92 1024 675.84 1024 1024 C686.08 1024 348.16 1024 0 1024 C0 686.08 0 348.16 0 0 Z " fill="#041230" transform="translate(0,0)"/>
<path d="M0 0 C0.99 0.99 0.99 0.99 2 2 C4.211 2.243 4.211 2.243 6.625 2.125 C7.442 2.107 8.26 2.089 9.102 2.07 C9.728 2.047 10.355 2.024 11 2 C11 2.66 11 3.32 11 4 C12.48 3.86 13.959 3.712 15.438 3.562 C16.673 3.441 16.673 3.441 17.934 3.316 C19.987 3.211 19.987 3.211 21 2 C23.197 1.9 25.398 1.869 27.598 1.867 C28.265 1.866 28.933 1.865 29.621 1.864 C31.041 1.864 32.461 1.865 33.881 1.87 C36.029 1.875 38.178 1.87 40.326 1.863 C41.708 1.864 43.09 1.865 44.473 1.867 C46.348 1.869 46.348 1.869 48.262 1.871 C51.531 1.984 54.676 2.337 57.913 2.775 C61.673 3.18 65.43 3.122 69.207 3.098 C70.054 3.096 70.901 3.095 71.774 3.093 C74.454 3.088 77.133 3.075 79.812 3.062 C81.63 3.057 83.447 3.053 85.264 3.049 C88.578 3.041 91.892 3.03 95.206 3.016 C97.471 3.006 99.735 3 102 3 C102.749 2.988 103.498 2.977 104.27 2.965 C108.997 2.914 113.332 3.183 118 4 C118.66 3.67 119.32 3.34 120 3 C120.701 3.186 121.403 3.371 122.125 3.562 C125.107 4.221 125.107 4.221 128.344 3.043 C134.285 1.476 140.27 1.71 146.375 1.75 C148.127 1.738 148.127 1.738 149.914 1.727 C156.848 1.742 163.269 2.311 170 4 C170.913 8.971 170.913 13.029 170 18 C166.621 19.126 165.391 18.807 162 18 C156.024 16.62 150.105 16.816 144 16.812 C142.237 16.794 142.237 16.794 140.438 16.775 C138.736 16.772 138.736 16.772 137 16.77 C135.453 16.763 135.453 16.763 133.875 16.757 C130.865 17.011 128.774 17.86 126 19 C123.596 19.227 123.596 19.227 121.137 19.195 C120.25 19.189 119.364 19.182 118.451 19.176 C117.539 19.159 116.627 19.142 115.688 19.125 C114.756 19.116 113.825 19.107 112.865 19.098 C110.577 19.074 108.288 19.041 106 19 C105.67 18.34 105.34 17.68 105 17 C102.36 17 99.72 17 97 17 C96.67 16.34 96.34 15.68 96 15 C96.813 15.005 97.627 15.01 98.465 15.016 C101.619 15.033 104.772 15.046 107.926 15.055 C109.908 15.062 111.889 15.075 113.871 15.088 C122.45 15.12 130.999 14.87 139.57 14.494 C140.674 14.447 141.777 14.399 142.914 14.351 C145.61 14.235 148.305 14.118 151 14 C150.186 13.996 149.372 13.992 148.533 13.987 C128.25 13.882 107.966 13.773 87.683 13.661 C77.872 13.607 68.061 13.553 58.25 13.503 C32.484 13.369 6.718 13.215 -19.048 13.022 C-21.035 13.007 -23.023 12.992 -25.011 12.978 C-37.959 12.882 -50.906 12.774 -63.854 12.644 C-67.586 12.607 -71.318 12.575 -75.05 12.546 C-79.386 12.513 -83.721 12.47 -88.056 12.42 C-89.641 12.403 -91.227 12.389 -92.812 12.38 C-94.972 12.365 -97.131 12.339 -99.291 12.31 C-100.498 12.298 -101.704 12.287 -102.947 12.275 C-105.879 12.011 -107.587 11.651 -110 10 C-110.75 7.875 -110.75 7.875 -111 6 C-105.12 3.877 -99.067 2.473 -93 1 C-93.33 1.66 -93.66 2.32 -94 3 C-92.907 2.814 -91.814 2.629 -90.688 2.438 C-87 2 -87 2 -84 3 C-81.721 2.754 -79.45 2.431 -77.188 2.062 C-72.736 1.342 -68.515 0.777 -64 1 C-63.505 1.495 -63.505 1.495 -63 2 C-61 2.041 -59 2.043 -57 2 C-57 2.66 -57 3.32 -57 4 C-56.031 3.649 -55.061 3.299 -54.062 2.938 C-50.476 1.923 -47.632 2.261 -43.941 2.727 C-38.003 3.278 -32.03 3.225 -26.069 3.24 C-23.741 3.25 -21.414 3.281 -19.086 3.312 C-17.594 3.319 -16.102 3.324 -14.609 3.328 C-13.575 3.347 -13.575 3.347 -12.519 3.366 C-7.613 3.343 -4.317 0 0 0 Z " fill="#043088" transform="translate(486,899)"/>
<path d="M0 0 C0.524 0.161 1.048 0.322 1.589 0.488 C4.624 1.132 7.478 1.16 10.582 1.196 C11.244 1.205 11.906 1.214 12.588 1.224 C14.812 1.253 17.035 1.275 19.259 1.297 C20.861 1.316 22.462 1.335 24.064 1.355 C28.455 1.408 32.846 1.454 37.237 1.499 C40.03 1.527 42.822 1.558 45.615 1.589 C89.818 2.081 134.022 2.31 178.227 2.517 C189.046 2.568 199.865 2.623 210.684 2.677 C232.79 2.788 254.895 2.896 277 3 C277 3.33 277 3.66 277 4 C270.126 4.345 263.251 4.677 256.375 5 C255.357 5.048 254.339 5.096 253.291 5.146 C239.034 5.808 224.834 6.208 210.562 5.926 C209.445 5.909 208.327 5.892 207.176 5.875 C206.216 5.852 205.256 5.829 204.267 5.805 C201.798 5.772 201.798 5.772 200 8 C187.446 10.97 172.58 9.223 159.844 8.121 C157.052 7.772 157.052 7.772 155 9 C154.443 8.691 153.886 8.381 153.312 8.062 C149.14 6.145 144.936 6.85 140.5 7.562 C135.1 8.329 129.7 7.682 124.293 7.254 C121.052 6.962 121.052 6.962 118 7 C116.608 6.938 116.608 6.938 115.188 6.875 C112.004 6.841 112.004 6.841 109.188 8 C100.637 10.683 88.151 9.279 79.426 7.465 C76.544 6.913 73.869 6.941 70.938 7 C67.368 7.072 64.437 6.89 61 6 C59.314 5.933 57.625 5.915 55.938 5.938 C54.652 5.951 54.652 5.951 53.34 5.965 C52.182 5.982 52.182 5.982 51 6 C47.333 6 43.667 6 40 6 C36.676 6.278 33.353 6.576 30.031 6.879 C27 7 27 7 24 6 C22.668 5.933 21.333 5.915 20 5.938 C19.319 5.947 18.639 5.956 17.938 5.965 C16.978 5.982 16.978 5.982 16 6 C15.01 6 14.02 6 13 6 C11.298 6.278 11.298 6.278 9.562 6.562 C6.5 6.939 4.832 7.019 2 6 C2 5.01 2 4.02 2 3 C1.34 3 0.68 3 0 3 C0 2.01 0 1.02 0 0 Z " fill="#022E86" transform="translate(376,909)"/>
<path d="M0 0 C0.985 0 1.97 0 2.984 0.001 C6.39 0.003 9.795 0.013 13.201 0.023 C15.724 0.027 18.247 0.031 20.77 0.035 C29.152 0.049 37.534 0.076 45.916 0.104 C48.703 0.113 51.489 0.123 54.276 0.132 C81.021 0.219 107.765 0.328 134.509 0.452 C136.88 0.463 139.251 0.474 141.622 0.485 C142.799 0.491 143.977 0.496 145.19 0.502 C154.884 0.546 164.579 0.586 174.273 0.625 C183.723 0.663 193.173 0.705 202.623 0.75 C208.225 0.776 213.826 0.801 219.428 0.822 C224.644 0.842 229.86 0.866 235.076 0.894 C236.987 0.903 238.898 0.911 240.809 0.916 C243.41 0.925 246.011 0.939 248.612 0.955 C249.37 0.956 250.128 0.957 250.909 0.958 C254.276 0.984 257.38 1.062 260.599 2.113 C260.599 2.773 260.599 3.433 260.599 4.113 C225.999 4.136 191.399 4.154 156.799 4.164 C152.717 4.165 148.635 4.167 144.553 4.168 C143.74 4.168 142.928 4.168 142.09 4.169 C128.92 4.173 115.75 4.181 102.58 4.19 C89.072 4.2 75.565 4.205 62.058 4.207 C53.719 4.208 45.38 4.213 37.041 4.221 C31.328 4.226 25.615 4.228 19.901 4.227 C16.602 4.226 13.302 4.227 10.003 4.232 C6.431 4.237 2.858 4.236 -0.714 4.233 C-1.764 4.236 -2.813 4.239 -3.895 4.242 C-4.848 4.24 -5.801 4.238 -6.784 4.236 C-7.609 4.236 -8.434 4.237 -9.284 4.237 C-11.401 4.113 -11.401 4.113 -14.401 3.113 C-14.401 2.453 -14.401 1.793 -14.401 1.113 C-9.601 -0.124 -4.919 -0.021 0 0 Z " fill="#6E8DDA" transform="translate(391.40087890625,904.886962890625)"/>
<path d="M0 0 C0.33 0.66 0.66 1.32 1 2 C35.982 2.023 70.965 2.041 105.947 2.051 C110.074 2.052 114.201 2.054 118.328 2.055 C119.15 2.055 119.971 2.055 120.818 2.056 C134.133 2.06 147.449 2.068 160.765 2.077 C174.421 2.086 188.077 2.092 201.734 2.094 C210.165 2.095 218.596 2.1 227.027 2.108 C232.804 2.113 238.58 2.115 244.356 2.114 C247.692 2.113 251.028 2.114 254.364 2.119 C257.976 2.124 261.587 2.123 265.199 2.12 C266.26 2.123 267.322 2.126 268.415 2.129 C269.379 2.127 270.343 2.125 271.336 2.123 C272.587 2.124 272.587 2.124 273.864 2.124 C276.188 2.082 276.188 2.082 279 1 C279 2.32 279 3.64 279 5 C276.054 6.473 273.439 6.126 270.15 6.127 C269.078 6.129 269.078 6.129 267.985 6.132 C265.576 6.136 263.166 6.133 260.756 6.129 C259.03 6.131 257.304 6.133 255.578 6.135 C250.852 6.139 246.125 6.137 241.399 6.134 C236.371 6.132 231.342 6.134 226.314 6.136 C217.781 6.138 209.247 6.135 200.714 6.13 C192.135 6.126 183.556 6.125 174.977 6.13 C130.92 6.155 86.866 6.094 42.811 5.644 C40.04 5.617 37.269 5.594 34.497 5.571 C30.209 5.536 25.921 5.491 21.633 5.437 C20.071 5.419 18.51 5.404 16.948 5.393 C14.827 5.377 12.705 5.348 10.584 5.317 C9.401 5.304 8.218 5.291 7 5.278 C4.12 5.011 2.436 4.503 0 3 C0 2.01 0 1.02 0 0 Z " fill="#073BB5" transform="translate(376,906)"/>
<path d="M0 0 C45.54 0 91.08 0 138 0 C136 3 136 3 134.25 3.512 C121.442 4.512 108.632 4.228 95.844 3.121 C93.052 2.772 93.052 2.772 91 4 C90.443 3.691 89.886 3.381 89.312 3.062 C85.14 1.145 80.936 1.85 76.5 2.562 C71.1 3.329 65.7 2.682 60.293 2.254 C57.052 1.962 57.052 1.962 54 2 C53.072 1.959 52.144 1.918 51.188 1.875 C48.004 1.841 48.004 1.841 45.188 3 C36.641 5.681 24.163 4.28 15.441 2.469 C12.482 1.901 9.698 1.904 6.688 1.938 C5.085 1.951 5.085 1.951 3.449 1.965 C2.641 1.976 1.833 1.988 1 2 C0.67 1.34 0.34 0.68 0 0 Z " fill="#012671" transform="translate(440,914)"/>
<path d="M0 0 C0.66 0 1.32 0 2 0 C2 0.99 2 1.98 2 3 C-0.974 3.991 -2.911 4.126 -6.014 4.127 C-7.051 4.13 -8.087 4.133 -9.155 4.136 C-10.293 4.134 -11.43 4.131 -12.602 4.129 C-14.401 4.132 -14.401 4.132 -16.235 4.135 C-19.532 4.138 -22.829 4.137 -26.126 4.134 C-29.599 4.132 -33.072 4.134 -36.545 4.136 C-42.401 4.138 -48.257 4.135 -54.113 4.13 C-60.817 4.125 -67.521 4.127 -74.226 4.132 C-80.018 4.137 -85.81 4.137 -91.603 4.135 C-95.045 4.133 -98.487 4.133 -101.929 4.136 C-118.978 4.148 -135.971 3.841 -153 3 C-153 2.67 -153 2.34 -153 2 C-152.218 1.996 -151.435 1.992 -150.629 1.987 C-131.618 1.884 -112.607 1.775 -93.597 1.661 C-84.403 1.605 -75.21 1.552 -66.017 1.503 C-58.007 1.46 -49.997 1.414 -41.987 1.363 C-37.743 1.337 -33.499 1.312 -29.256 1.291 C-25.266 1.271 -21.276 1.247 -17.286 1.22 C-15.818 1.21 -14.349 1.202 -12.88 1.197 C-10.884 1.188 -8.887 1.173 -6.891 1.158 C-5.771 1.152 -4.651 1.145 -3.497 1.139 C-1.059 1.282 -1.059 1.282 0 0 Z " fill="#1A4DCB" transform="translate(653,907)"/>
<path d="M0 0 C1.83 -0.012 1.83 -0.012 3.697 -0.023 C10.767 -0.008 17.326 0.508 24.188 2.25 C25.1 7.221 25.1 11.279 24.188 16.25 C20.808 17.376 19.578 17.057 16.188 16.25 C10.212 14.87 4.292 15.066 -1.812 15.062 C-3.576 15.044 -3.576 15.044 -5.375 15.025 C-6.509 15.023 -7.644 15.022 -8.812 15.02 C-10.359 15.013 -10.359 15.013 -11.938 15.007 C-14.947 15.261 -17.038 16.11 -19.812 17.25 C-22.216 17.477 -22.216 17.477 -24.676 17.445 C-25.562 17.439 -26.448 17.432 -27.361 17.426 C-28.273 17.409 -29.185 17.392 -30.125 17.375 C-31.056 17.366 -31.988 17.357 -32.947 17.348 C-35.236 17.324 -37.524 17.291 -39.812 17.25 C-40.143 16.59 -40.472 15.93 -40.812 15.25 C-43.452 15.25 -46.092 15.25 -48.812 15.25 C-49.143 14.59 -49.472 13.93 -49.812 13.25 C-48.999 13.255 -48.186 13.26 -47.348 13.266 C-32.529 13.348 -17.759 13.328 -2.953 12.608 C5.102 12.222 13.124 12.143 21.188 12.25 C21.188 11.59 21.188 10.93 21.188 10.25 C21.847 10.25 22.507 10.25 23.188 10.25 C23.188 8.6 23.188 6.95 23.188 5.25 C20.504 4.356 18.846 4.104 16.083 4.045 C15.263 4.025 14.442 4.005 13.597 3.984 C12.275 3.959 12.275 3.959 10.926 3.934 C9.567 3.902 9.567 3.902 8.181 3.871 C5.287 3.805 2.394 3.746 -0.5 3.688 C-2.462 3.644 -4.423 3.601 -6.385 3.557 C-11.194 3.45 -16.003 3.348 -20.812 3.25 C-20.812 2.92 -20.812 2.59 -20.812 2.25 C-13.974 -0.303 -7.228 -0.045 0 0 Z " fill="#02256D" transform="translate(631.8125,900.75)"/>
<path d="M0 0 C4.995 -0.025 9.989 -0.043 14.984 -0.055 C16.676 -0.06 18.368 -0.067 20.06 -0.075 C30.758 -0.129 41.335 0.111 52 1 C52 1.66 52 2.32 52 3 C48.528 3.868 46.419 3.882 43 3 C41.66 3.306 40.325 3.635 39 4 C38.505 3.505 38.505 3.505 38 3 C34.689 3.182 31.402 3.522 28.102 3.844 C25 4 25 4 22 3 C20.668 2.933 19.333 2.915 18 2.938 C17.319 2.947 16.639 2.956 15.938 2.965 C14.978 2.982 14.978 2.982 14 3 C13.01 3 12.02 3 11 3 C9.298 3.278 9.298 3.278 7.562 3.562 C4.5 3.939 2.832 4.019 0 3 C0 2.01 0 1.02 0 0 Z " fill="#012771" transform="translate(378,912)"/>
<path d="M0 0 C1.338 0.316 2.67 0.652 4 1 C5.403 1.109 6.811 1.175 8.218 1.205 C9.038 1.225 9.859 1.245 10.704 1.266 C11.58 1.282 12.457 1.299 13.359 1.316 C14.264 1.337 15.168 1.358 16.1 1.379 C18.983 1.445 21.867 1.504 24.75 1.562 C26.707 1.606 28.664 1.649 30.621 1.693 C35.414 1.8 40.207 1.902 45 2 C44.67 2.66 44.34 3.32 44 4 C9.35 3.67 -25.3 3.34 -61 3 C-61 2.67 -61 2.34 -61 2 C-59.876 1.985 -59.876 1.985 -58.729 1.969 C-51.68 1.871 -44.631 1.768 -37.583 1.661 C-33.959 1.605 -30.334 1.552 -26.71 1.503 C-23.215 1.455 -19.721 1.403 -16.226 1.347 C-14.238 1.317 -12.249 1.291 -10.261 1.266 C-8.459 1.236 -8.459 1.236 -6.621 1.205 C-5.558 1.19 -4.494 1.174 -3.398 1.158 C-1.048 1.268 -1.048 1.268 0 0 Z " fill="#022D82" transform="translate(605,902)"/>
<path d="M0 0 C0.66 0.33 1.32 0.66 2 1 C1.67 1.33 1.34 1.66 1 2 C2.093 1.814 3.186 1.629 4.312 1.438 C8 1 8 1 11 2 C13.279 1.754 15.55 1.431 17.812 1.062 C22.276 0.34 26.476 -0.118 31 0 C31 0.99 31 1.98 31 3 C17.674 4.213 4.371 4.103 -9 4 C-9 4.66 -9 5.32 -9 6 C-11.31 6 -13.62 6 -16 6 C-15.67 5.34 -15.34 4.68 -15 4 C-12.383 3.184 -12.383 3.184 -9.125 2.438 C-6.023 1.716 -3.022 1.007 0 0 Z " fill="#032772" transform="translate(391,900)"/>
<path d="M0 0 C0.705 0.164 1.41 0.327 2.137 0.496 C5.097 1.017 7.811 1.099 10.812 1.062 C11.788 1.053 12.764 1.044 13.77 1.035 C14.506 1.024 15.242 1.012 16 1 C12.375 4 12.375 4 9 4 C7.436 3.849 5.873 3.681 4.312 3.5 C3.504 3.407 2.696 3.314 1.863 3.219 C1.248 3.147 0.634 3.074 0 3 C0 2.01 0 1.02 0 0 Z " fill="#022266" transform="translate(378,912)"/>
<path d="M0 0 C0.66 0 1.32 0 2 0 C2.66 0.66 3.32 1.32 4 2 C6.211 2.243 6.211 2.243 8.625 2.125 C9.442 2.107 10.26 2.089 11.102 2.07 C11.728 2.047 12.355 2.024 13 2 C12.67 2.66 12.34 3.32 12 4 C7.38 4 2.76 4 -2 4 C-1.34 2.68 -0.68 1.36 0 0 Z " fill="#01266D" transform="translate(484,899)"/>
</svg>
