<svg width="1080" height="1080" viewBox="0 0 1080 1080" xmlns="http://www.w3.org/2000/svg" preserveAspectRatio="xMidYMid meet">
  <g id="background-layer">
    <image href="/static/images/sessions/parallel_20250625_153714_03a8bed0/background_20250625_153800_41261e25.png" x="0" y="0" width="1080" height="1080"/>
  </g>
  <g id="elements-layer">
    <svg width="1024" height="1024" xmlns="http://www.w3.org/2000/svg" viewBox="0 0 1024 1024">
      <path d="M0 0 C337.92 0 675.84 0 1024 0 C1024 337.92 1024 675.84 1024 1024 C686.08 1024 348.16 1024 0 1024 C0 686.08 0 348.16 0 0 Z" fill="#100373" transform="translate(0,0)"/>
      <path d="M0 0 C1.32 0.33 2.64 0.66 4 1 C4.206 2.279 4.413 3.558 4.625 4.875 C5.085 7.078 5.085 7.078 6 9 C8.994 10.611 8.994 10.611 12 11 C12 11.66 12 12.32 12 13 C14.31 13 16.62 13 19 13 C19.688 15.312 19.688 15.312 20 18 C18.399 20.191 17.401 20.909 14.738 21.512 C13.938 21.57 13.137 21.628 12.312 21.688 C11.1 21.786 11.1 21.786 9.863 21.887 C8.941 21.943 8.941 21.943 8 22 C6.949 26.072 7.017 29.755 7.258 33.914 C7 36 7 36 5.68 37.773 C4 39 4 39 1 39 C-0.966 34.955 -1.113 32.131 -0.625 27.688 C-0.514 26.619 -0.403 25.55 -0.289 24.449 C-0.146 23.237 -0.146 23.237 0 22 C-0.99 22 -1.98 22 -3 22 C-3 21.34 -3 20.68 -3 20 C-3.99 20 -4.98 20 -6 20 C-6.33 20.66 -6.66 21.32 -7 22 C-7.99 21.34 -8.98 20.68 -10 20 C-11.655 19.615 -13.322 19.272 -15 19 C-14.67 16.69 -14.34 14.38 -14 12 C-13.113 11.856 -12.226 11.711 -11.312 11.562 C-9.286 11.218 -7.264 10.849 -5.25 10.438 C-3 10 -3 10 -1 10 C-0.67 6.7 -0.34 3.4 0 0Z" fill="#0D024F" transform="translate(855,134)"/>
      <path d="M0 0 C3.536 0.536 3.536 0.536 5 2 C5.235 4.35 5.414 6.706 5.562 9.062 C5.688 10.998 5.688 10.998 5.816 12.973 C5.877 13.972 5.938 14.971 6 16 C6.843 15.988 7.686 15.977 8.555 15.965 C9.65 15.956 10.746 15.947 11.875 15.938 C13.511 15.92 13.511 15.92 15.18 15.902 C18 16 18 16 20 17 C19.505 19.475 19.505 19.475 19 22 C15.985 23.005 13.958 23.103 10.812 23.062 C9.911 23.053 9.01 23.044 8.082 23.035 C7.395 23.024 6.708 23.012 6 23 C5.909 24.481 5.909 24.481 5.816 25.992 C5.733 27.274 5.649 28.555 5.562 29.875 C5.481 31.151 5.4 32.427 5.316 33.742 C5 37 5 37 4 39 C2.68 39 1.36 39 0 39 C-2.026 35.651 -2.217 33.13 -2.125 29.25 C-2.107 28.265 -2.089 27.28 -2.07 26.266 C-2.047 25.518 -2.024 24.77 -2 24 C-2.831 24.023 -3.663 24.046 -4.52 24.07 C-6.15 24.097 -6.15 24.097 -7.812 24.125 C-8.891 24.148 -9.97 24.171 -11.082 24.195 C-14 24 -14 24 -17 22 C-17 20.68 -17 19.36 -17 18 C-12.445 15.796 -7.971 15.412 -3 15 C-2.951 14.085 -2.902 13.17 -2.852 12.227 C-2.777 11.038 -2.702 9.85 -2.625 8.625 C-2.521 6.85 -2.521 6.85 -2.414 5.039 C-2 2 -2 2 0 0 Z" fill="#697739" transform="translate(238,130)"/>
      <path d="M0 0 C3.875 0.875 3.875 0.875 5 2 C5.073 4.186 5.084 6.375 5.062 8.562 C5.053 9.76 5.044 10.958 5.035 12.191 C5.024 13.118 5.012 14.045 5 15 C5.675 14.977 6.351 14.954 7.047 14.93 C8.385 14.903 8.385 14.903 9.75 14.875 C10.632 14.852 11.513 14.829 12.422 14.805 C15.114 15.009 16.699 15.634 19 17 C19 18.32 19 19.64 19 21 C14.666 23.032 10.714 23.521 6 24 C5.909 25.265 5.909 25.265 5.816 26.555 C5.733 27.65 5.649 28.746 5.562 29.875 C5.481 30.966 5.4 32.056 5.316 33.18 C5 36 5 36 4 38 C2.35 37.67 0.7 37.34 -1 37 C-2.05 33.851 -2.101 31.612 -2.062 28.312 C-2.053 27.319 -2.044 26.325 -2.035 25.301 C-2.024 24.542 -2.012 23.782 -2 23 C-2.831 23.023 -3.663 23.046 -4.52 23.07 C-6.15 23.097 -6.15 23.097 -7.812 23.125 C-8.891 23.148 -9.97 23.171 -11.082 23.195 C-14 23 -14 23 -17 21 C-15.125 17.125 -15.125 17.125 -14 16 C-12.151 15.766 -10.295 15.587 -8.438 15.438 C-7.426 15.354 -6.414 15.27 -5.371 15.184 C-4.589 15.123 -3.806 15.062 -3 15 C-2.951 14.169 -2.902 13.337 -2.852 12.48 C-2.777 11.394 -2.702 10.307 -2.625 9.188 C-2.555 8.109 -2.486 7.03 -2.414 5.918 C-2 3 -2 3 0 0 Z" fill="#240F4C" transform="translate(849,730)"/>
      <path d="M0 0 C3.875 0.875 3.875 0.875 5 2 C5.073 4.186 5.084 6.375 5.062 8.562 C5.053 9.76 5.044 10.958 5.035 12.191 C5.024 13.118 5.012 14.045 5 15 C3.235 11.912 3 10.767 3 7 C2.01 6.67 1.02 6.34 0 6 C-0.33 9.3 -0.66 12.6 -1 16 C-1.66 15.67 -2.32 15.34 -3 15 C-2.886 13.062 -2.758 11.124 -2.625 9.188 C-2.521 7.569 -2.521 7.569 -2.414 5.918 C-2 3 -2 3 0 0 Z" fill="#ECBF50" transform="translate(856,135)"/>
      <path d="M0 0 C0.66 0.33 1.32 0.66 2 1 C2.608 5.32 2.746 9.642 3 14 C7.29 14.33 11.58 14.66 16 15 C16 15.99 16 16.98 16 18 C15.145 18.061 14.291 18.121 13.41 18.184 C11.753 18.309 11.753 18.309 10.062 18.438 C8.96 18.519 7.858 18.6 6.723 18.684 C4.089 18.704 4.089 18.704 3 20 C2.763 22.692 2.578 25.365 2.438 28.062 C2.394 28.821 2.351 29.58 2.307 30.361 C2.2 32.241 2.1 34.12 2 36 C1.01 36 0.02 36 -1 36 C-1.061 34.857 -1.121 33.713 -1.184 32.535 C-1.268 31.044 -1.353 29.553 -1.438 28.062 C-1.477 27.308 -1.516 26.553 -1.557 25.775 C-1.44 22.081 -1.44 22.081 -3 19 C-5.016 18.766 -7.038 18.587 -9.062 18.438 C-10.167 18.354 -11.272 18.27 -12.41 18.184 C-13.265 18.123 -14.119 18.062 -15 18 C-14.01 16.515 -14.01 16.515 -13 15 C-10.398 14.488 -10.398 14.488 -7.375 14.312 C-5.871 14.214 -5.871 14.214 -4.336 14.113 C-3.18 14.057 -3.18 14.057 -2 14 C-1.939 13.157 -1.879 12.314 -1.816 11.445 C-1.733 10.35 -1.649 9.254 -1.562 8.125 C-1.481 7.034 -1.4 5.944 -1.316 4.82 C-1 2 -1 2 0 0 Z" fill="#DC5A49" transform="translate(191,541)"/>
      <path d="M0 0 C0.99 0 1.98 0 3 0 C3.33 4.62 3.66 9.24 4 14 C8.29 14.33 12.58 14.66 17 15 C17 15.66 17 16.32 17 17 C16.145 17.049 15.291 17.098 14.41 17.148 C13.305 17.223 12.201 17.298 11.062 17.375 C9.96 17.445 8.858 17.514 7.723 17.586 C6.824 17.723 5.926 17.859 5 18 C3.479 21.042 3.626 24.28 3.438 27.625 C3.394 28.331 3.351 29.038 3.307 29.766 C3.201 31.51 3.1 33.255 3 35 C2.01 35 1.02 35 0 35 C-0.33 29.72 -0.66 24.44 -1 19 C-2.959 18.711 -4.919 18.423 -6.938 18.125 C-10.277 17.633 -10.277 17.633 -13 17 C-13.33 16.34 -13.66 15.68 -14 15 C-13.157 14.939 -12.314 14.879 -11.445 14.816 C-10.35 14.733 -9.254 14.649 -8.125 14.562 C-7.034 14.481 -5.944 14.4 -4.82 14.316 C-2.053 14.17 -2.053 14.17 0 13 C0 8.71 0 4.42 0 0 Z" fill="#ECBF50" transform="translate(856,135)"/>
      <path d="M0 0 C1.98 0 3.96 0 6 0 C6 0.99 6 1.98 6 3 C6.66 3.33 7.32 3.66 8 4 C7.691 5.145 7.691 5.145 7.375 6.312 C6.666 9.219 6.666 9.219 9 12 C9.66 11.34 10.32 10.68 11 10 C11.33 10.99 11.66 11.98 12 13 C11.67 13.33 11.34 13.66 11 14 C13.64 14.33 16.28 14.66 19 15 C19 15.33 19 15.66 19 16 C16.854 16.027 14.708 16.046 12.562 16.062 C11.368 16.074 10.173 16.086 8.941 16.098 C6 16 6 16 5 15 C4.765 12.817 4.586 10.628 4.438 8.438 C4.354 7.24 4.27 6.042 4.184 4.809 C4.123 3.882 4.062 2.955 4 2 C2.202 3.798 2.661 6.565 2.5 9 C2.111 14.889 2.111 14.889 1 16 C-0.853 16.072 -2.708 16.084 -4.562 16.062 C-5.574 16.053 -6.586 16.044 -7.629 16.035 C-8.411 16.024 -9.194 16.012 -10 16 C-10 15.34 -10 14.68 -10 14 C-7.36 13.67 -4.72 13.34 -2 13 C-0.548 8.463 0.235 4.819 0 0 Z" fill="#240F4C" transform="translate(859,138)"/>
    </svg>
  </g>
  <g id="text-layer">
    <style>
      .bold-text {
        fill: #ffffff;
        font-family: 'Arial Black', Arial, sans-serif;
        font-weight: 900;
        font-size: 140px;
        text-anchor: middle;
      }
      .script-text {
        fill: #eaeaff;
        font-family: 'Brush Script MT', cursive, serif;
        font-size: 48px;
        font-style: normal;
        text-anchor: middle;
      }
      .url-text {
        fill: #ffffff;
        font-family: Arial, sans-serif;
        font-size: 42px;
        text-anchor: middle;
      }
    </style>
    <text x="540" y="470" class="bold-text" dominant-baseline="middle">COMING</text>
    <text x="540" y="610" class="bold-text" dominant-baseline="middle">SOON</text>
    <text x="540" y="730" class="script-text" dominant-baseline="middle">Sheg scond fuw oorrecltmq</text>
    <text x="540" y="780" class="script-text" dominant-baseline="middle">maingphy</text>
    <text x="540" y="880" class="url-text" dominant-baseline="middle">www.anample.com</text>
  </g>
</svg>