<?xml version="1.0" encoding="UTF-8"?>
<!-- Generator: visioncortex VTracer 0.6.4 -->
<svg version="1.1" xmlns="http://www.w3.org/2000/svg" width="1024" height="1024">
<path d="M0 0 C337.92 0 675.84 0 1024 0 C1024 337.92 1024 675.84 1024 1024 C686.08 1024 348.16 1024 0 1024 C0 686.08 0 348.16 0 0 Z " fill="#100373" transform="translate(0,0)"/>
<path d="M0 0 C1.32 0.33 2.64 0.66 4 1 C4.206 2.279 4.413 3.558 4.625 4.875 C5.085 7.078 5.085 7.078 6 9 C8.994 10.611 8.994 10.611 12 11 C12 11.66 12 12.32 12 13 C14.31 13 16.62 13 19 13 C19.688 15.312 19.688 15.312 20 18 C18.399 20.191 17.401 20.909 14.738 21.512 C13.938 21.57 13.137 21.628 12.312 21.688 C11.1 21.786 11.1 21.786 9.863 21.887 C8.941 21.943 8.941 21.943 8 22 C6.949 26.072 7.017 29.755 7.258 33.914 C7 36 7 36 5.68 37.773 C4 39 4 39 1 39 C-0.966 34.955 -1.113 32.131 -0.625 27.688 C-0.514 26.619 -0.403 25.55 -0.289 24.449 C-0.146 23.237 -0.146 23.237 0 22 C-0.99 22 -1.98 22 -3 22 C-3 21.34 -3 20.68 -3 20 C-3.99 20 -4.98 20 -6 20 C-6.33 20.66 -6.66 21.32 -7 22 C-7.99 21.34 -8.98 20.68 -10 20 C-11.655 19.615 -13.322 19.272 -15 19 C-14.67 16.69 -14.34 14.38 -14 12 C-13.113 11.856 -12.226 11.711 -11.312 11.562 C-9.286 11.218 -7.264 10.849 -5.25 10.438 C-3 10 -3 10 -1 10 C-0.67 6.7 -0.34 3.4 0 0 Z M-6 11 C-5 13 -5 13 -5 13 Z " fill="#0D024F" transform="translate(855,134)"/>
<path d="M0 0 C3.536 0.536 3.536 0.536 5 2 C5.235 4.35 5.414 6.706 5.562 9.062 C5.688 10.998 5.688 10.998 5.816 12.973 C5.877 13.972 5.938 14.971 6 16 C6.843 15.988 7.686 15.977 8.555 15.965 C9.65 15.956 10.746 15.947 11.875 15.938 C13.511 15.92 13.511 15.92 15.18 15.902 C18 16 18 16 20 17 C19.505 19.475 19.505 19.475 19 22 C15.985 23.005 13.958 23.103 10.812 23.062 C9.911 23.053 9.01 23.044 8.082 23.035 C7.395 23.024 6.708 23.012 6 23 C5.909 24.481 5.909 24.481 5.816 25.992 C5.733 27.274 5.649 28.555 5.562 29.875 C5.481 31.151 5.4 32.427 5.316 33.742 C5 37 5 37 4 39 C2.68 39 1.36 39 0 39 C-2.026 35.651 -2.217 33.13 -2.125 29.25 C-2.107 28.265 -2.089 27.28 -2.07 26.266 C-2.047 25.518 -2.024 24.77 -2 24 C-2.831 24.023 -3.663 24.046 -4.52 24.07 C-6.15 24.097 -6.15 24.097 -7.812 24.125 C-8.891 24.148 -9.97 24.171 -11.082 24.195 C-14 24 -14 24 -17 22 C-17 20.68 -17 19.36 -17 18 C-12.445 15.796 -7.971 15.412 -3 15 C-2.951 14.085 -2.902 13.17 -2.852 12.227 C-2.777 11.038 -2.702 9.85 -2.625 8.625 C-2.521 6.85 -2.521 6.85 -2.414 5.039 C-2 2 -2 2 0 0 Z " fill="#697739" transform="translate(238,130)"/>
<path d="M0 0 C3.875 0.875 3.875 0.875 5 2 C5.073 4.186 5.084 6.375 5.062 8.562 C5.053 9.76 5.044 10.958 5.035 12.191 C5.024 13.118 5.012 14.045 5 15 C5.675 14.977 6.351 14.954 7.047 14.93 C8.385 14.903 8.385 14.903 9.75 14.875 C10.632 14.852 11.513 14.829 12.422 14.805 C15.114 15.009 16.699 15.634 19 17 C19 18.32 19 19.64 19 21 C14.666 23.032 10.714 23.521 6 24 C5.909 25.265 5.909 25.265 5.816 26.555 C5.733 27.65 5.649 28.746 5.562 29.875 C5.481 30.966 5.4 32.056 5.316 33.18 C5 36 5 36 4 38 C2.35 37.67 0.7 37.34 -1 37 C-2.05 33.851 -2.101 31.612 -2.062 28.312 C-2.053 27.319 -2.044 26.325 -2.035 25.301 C-2.024 24.542 -2.012 23.782 -2 23 C-2.831 23.023 -3.663 23.046 -4.52 23.07 C-6.15 23.097 -6.15 23.097 -7.812 23.125 C-8.891 23.148 -9.97 23.171 -11.082 23.195 C-14 23 -14 23 -17 21 C-15.125 17.125 -15.125 17.125 -14 16 C-12.151 15.766 -10.295 15.587 -8.438 15.438 C-7.426 15.354 -6.414 15.27 -5.371 15.184 C-4.589 15.123 -3.806 15.062 -3 15 C-2.951 14.169 -2.902 13.337 -2.852 12.48 C-2.777 11.394 -2.702 10.307 -2.625 9.188 C-2.555 8.109 -2.486 7.03 -2.414 5.918 C-2 3 -2 3 0 0 Z " fill="#ECAA3E" transform="translate(848,733)"/>
<path d="M0 0 C0.33 0.66 0.66 1.32 1 2 C2.979 2.727 4.98 3.398 7 4 C6.977 4.626 6.954 5.253 6.93 5.898 C6.912 6.716 6.894 7.533 6.875 8.375 C6.852 9.187 6.829 9.999 6.805 10.836 C6.786 13.213 6.786 13.213 9 15 C9.577 14.856 10.155 14.711 10.75 14.562 C13.874 13.781 15.913 14.1 19 15 C21.375 17.562 21.375 17.562 23 20 C20.618 23.743 18.255 26.977 15 30 C14.402 29.649 13.804 29.299 13.188 28.938 C10.892 27.667 10.892 27.667 8 29 C7.664 30.937 7.331 32.875 7 34.812 C6.814 35.891 6.629 36.97 6.438 38.082 C5.926 41.003 5.926 41.003 6 44 C5.34 44 4.68 44 4 44 C3.67 44.66 3.34 45.32 3 46 C1.515 45.505 1.515 45.505 0 45 C0 44.34 0 43.68 0 43 C-1.32 43 -2.64 43 -4 43 C-4 41.35 -4 39.7 -4 38 C-4.99 37.67 -5.98 37.34 -7 37 C-6.835 36.402 -6.67 35.804 -6.5 35.188 C-5.889 32.887 -5.889 32.887 -6 30 C-8.491 29.313 -10.379 29 -13 29 C-13.33 28.34 -13.66 27.68 -14 27 C-15.32 27 -16.64 27 -18 27 C-18.33 25.02 -18.66 23.04 -19 21 C-18.469 21.645 -17.938 22.289 -17.391 22.953 C-14.395 25.518 -12.643 25.581 -8.75 25.75 C-7.672 25.807 -6.595 25.863 -5.484 25.922 C-4.665 25.948 -3.845 25.973 -3 26 C-2.939 26.759 -2.879 27.519 -2.816 28.301 C-2.691 29.792 -2.691 29.792 -2.562 31.312 C-2.481 32.299 -2.4 33.285 -2.316 34.301 C-2.082 37.094 -2.082 37.094 -1 40 C1.015 40.733 1.015 40.733 3 41 C3.091 39.501 3.091 39.501 3.184 37.973 C3.267 36.682 3.351 35.392 3.438 34.062 C3.519 32.775 3.6 31.487 3.684 30.16 C4 27 4 27 5 26 C7.18 25.603 9.37 25.257 11.562 24.938 C12.76 24.761 13.958 24.584 15.191 24.402 C16.582 24.203 16.582 24.203 18 24 C17.505 22.02 17.505 22.02 17 20 C12.71 19.34 8.42 18.68 4 18 C3.505 11.565 3.505 11.565 3 5 C1.68 4.67 0.36 4.34 -1 4 C-2.745 7.489 -2.462 11.497 -2.719 15.348 C-3 18 -3 18 -4 19 C-5.808 19.209 -7.622 19.368 -9.438 19.5 C-13.364 19.714 -13.364 19.714 -17 21 C-16.67 20.01 -16.34 19.02 -16 18 C-15.34 18 -14.68 18 -14 18 C-13.67 17.34 -13.34 16.68 -13 16 C-10.36 16.33 -7.72 16.66 -5 17 C-5.058 16.024 -5.116 15.048 -5.176 14.043 C-5.221 12.771 -5.266 11.498 -5.312 10.188 C-5.4 8.291 -5.4 8.291 -5.488 6.355 C-5 3 -5 3 -2.48 1.051 C-1.253 0.531 -1.253 0.531 0 0 Z " fill="#0D0256" transform="translate(849,730)"/>
<path d="M0 0 C3.875 0.875 3.875 0.875 5 2 C5.073 4.186 5.084 6.375 5.062 8.562 C5.053 9.76 5.044 10.958 5.035 12.191 C5.024 13.118 5.012 14.045 5 15 C4.202 15.277 3.404 15.554 2.582 15.84 C-0.223 16.777 -0.223 16.777 -1.312 19.562 C-2.045 21.738 -2.045 21.738 -2 23 C-3.937 23.054 -5.875 23.093 -7.812 23.125 C-8.891 23.148 -9.97 23.171 -11.082 23.195 C-14 23 -14 23 -17 21 C-15.125 17.125 -15.125 17.125 -14 16 C-12.151 15.766 -10.295 15.587 -8.438 15.438 C-7.426 15.354 -6.414 15.27 -5.371 15.184 C-4.589 15.123 -3.806 15.062 -3 15 C-2.951 14.169 -2.902 13.337 -2.852 12.48 C-2.777 11.394 -2.702 10.307 -2.625 9.188 C-2.555 8.109 -2.486 7.03 -2.414 5.918 C-2 3 -2 3 0 0 Z " fill="#F7B73E" transform="translate(848,733)"/>
<path d="M0 0 C0.66 0.33 1.32 0.66 2 1 C2.608 5.32 2.746 9.642 3 14 C7.29 14.33 11.58 14.66 16 15 C16 15.99 16 16.98 16 18 C15.145 18.061 14.291 18.121 13.41 18.184 C11.753 18.309 11.753 18.309 10.062 18.438 C8.96 18.519 7.858 18.6 6.723 18.684 C4.089 18.704 4.089 18.704 3 20 C2.763 22.692 2.578 25.365 2.438 28.062 C2.394 28.821 2.351 29.58 2.307 30.361 C2.2 32.241 2.1 34.12 2 36 C1.01 36 0.02 36 -1 36 C-1.061 34.857 -1.121 33.713 -1.184 32.535 C-1.268 31.044 -1.353 29.553 -1.438 28.062 C-1.477 27.308 -1.516 26.553 -1.557 25.775 C-1.44 22.081 -1.44 22.081 -3 19 C-5.016 18.766 -7.038 18.587 -9.062 18.438 C-10.167 18.354 -11.272 18.27 -12.41 18.184 C-13.265 18.123 -14.119 18.062 -15 18 C-14.01 16.515 -14.01 16.515 -13 15 C-10.398 14.488 -10.398 14.488 -7.375 14.312 C-5.871 14.214 -5.871 14.214 -4.336 14.113 C-3.18 14.057 -3.18 14.057 -2 14 C-1.939 13.157 -1.879 12.314 -1.816 11.445 C-1.733 10.35 -1.649 9.254 -1.562 8.125 C-1.481 7.034 -1.4 5.944 -1.316 4.82 C-1 2 -1 2 0 0 Z " fill="#DC5A49" transform="translate(191,541)"/>
<path d="M0 0 C0.99 0 1.98 0 3 0 C3.33 4.62 3.66 9.24 4 14 C8.29 14.33 12.58 14.66 17 15 C17 15.66 17 16.32 17 17 C16.145 17.049 15.291 17.098 14.41 17.148 C13.305 17.223 12.201 17.298 11.062 17.375 C9.96 17.445 8.858 17.514 7.723 17.586 C6.824 17.723 5.926 17.859 5 18 C3.479 21.042 3.626 24.28 3.438 27.625 C3.394 28.331 3.351 29.038 3.307 29.766 C3.201 31.51 3.1 33.255 3 35 C2.01 35 1.02 35 0 35 C-0.33 29.72 -0.66 24.44 -1 19 C-2.959 18.711 -4.919 18.423 -6.938 18.125 C-10.277 17.633 -10.277 17.633 -13 17 C-13.33 16.34 -13.66 15.68 -14 15 C-13.157 14.939 -12.314 14.879 -11.445 14.816 C-10.35 14.733 -9.254 14.649 -8.125 14.562 C-7.034 14.481 -5.944 14.4 -4.82 14.316 C-2.053 14.17 -2.053 14.17 0 13 C0 8.71 0 4.42 0 0 Z " fill="#ECBF50" transform="translate(856,135)"/>
<path d="M0 0 C1.98 0 3.96 0 6 0 C6 0.99 6 1.98 6 3 C6.66 3.33 7.32 3.66 8 4 C7.691 5.145 7.691 5.145 7.375 6.312 C6.666 9.219 6.666 9.219 9 12 C9.66 11.34 10.32 10.68 11 10 C11.33 10.99 11.66 11.98 12 13 C11.67 13.33 11.34 13.66 11 14 C13.64 14.33 16.28 14.66 19 15 C19 15.33 19 15.66 19 16 C16.854 16.027 14.708 16.046 12.562 16.062 C11.368 16.074 10.173 16.086 8.941 16.098 C6 16 6 16 5 15 C4.765 12.817 4.586 10.628 4.438 8.438 C4.354 7.24 4.27 6.042 4.184 4.809 C4.123 3.882 4.062 2.955 4 2 C2.202 3.798 2.661 6.565 2.5 9 C2.111 14.889 2.111 14.889 1 16 C-0.853 16.072 -2.708 16.084 -4.562 16.062 C-5.574 16.053 -6.586 16.044 -7.629 16.035 C-8.411 16.024 -9.194 16.012 -10 16 C-10 15.34 -10 14.68 -10 14 C-7.36 13.67 -4.72 13.34 -2 13 C-0.548 8.463 0.235 4.819 0 0 Z " fill="#07068F" transform="translate(188,540)"/>
<path d="M0 0 C0.33 0.66 0.66 1.32 1 2 C2.98 2.66 4.96 3.32 7 4 C6.34 8.62 5.68 13.24 5 18 C4.67 18 4.34 18 4 18 C3.505 11.565 3.505 11.565 3 5 C1.68 4.67 0.36 4.34 -1 4 C-2.745 7.489 -2.462 11.497 -2.719 15.348 C-3 18 -3 18 -4 19 C-5.808 19.209 -7.622 19.368 -9.438 19.5 C-13.364 19.714 -13.364 19.714 -17 21 C-16.67 20.01 -16.34 19.02 -16 18 C-15.34 18 -14.68 18 -14 18 C-13.67 17.34 -13.34 16.68 -13 16 C-10.36 16.33 -7.72 16.66 -5 17 C-5.058 16.024 -5.116 15.048 -5.176 14.043 C-5.221 12.771 -5.266 11.498 -5.312 10.188 C-5.4 8.291 -5.4 8.291 -5.488 6.355 C-5 3 -5 3 -2.48 1.051 C-1.253 0.531 -1.253 0.531 0 0 Z " fill="#241358" transform="translate(849,730)"/>
<path d="M0 0 C0.33 0 0.66 0 1 0 C1.33 1.65 1.66 3.3 2 5 C3.98 5.66 5.96 6.32 8 7 C8 7.66 8 8.32 8 9 C10.31 9 12.62 9 15 9 C16.125 13.75 16.125 13.75 15 16 C10.71 15.67 6.42 15.34 2 15 C2 14.67 2 14.34 2 14 C5.96 14 9.92 14 14 14 C14 13.34 14 12.68 14 12 C12.969 12.017 12.969 12.017 11.918 12.035 C11.017 12.044 10.116 12.053 9.188 12.062 C7.848 12.08 7.848 12.08 6.48 12.098 C4 12 4 12 1 11 C-0.203 8.595 -0.101 7.05 -0.062 4.375 C-0.053 3.558 -0.044 2.74 -0.035 1.898 C-0.024 1.272 -0.012 0.645 0 0 Z " fill="#240F4C" transform="translate(859,138)"/>
<path d="M0 0 C4.29 0 8.58 0 13 0 C13.33 1.65 13.66 3.3 14 5 C9.352 7.399 5.089 7.2 0 7 C0.66 6.67 1.32 6.34 2 6 C2 4.68 2 3.36 2 2 C1.34 2 0.68 2 0 2 C0 1.34 0 0.68 0 0 Z " fill="#F8BB3B" transform="translate(853,749)"/>
<path d="M0 0 C0.66 0.33 1.32 0.66 2 1 C2.608 5.32 2.746 9.642 3 14 C7.29 14.33 11.58 14.66 16 15 C16 15.33 16 15.66 16 16 C11.71 16 7.42 16 3 16 C3 16.66 3 17.32 3 18 C1.35 18 -0.3 18 -2 18 C-2 17.34 -2 16.68 -2 16 C-5.63 16 -9.26 16 -13 16 C-13 15.67 -13 15.34 -13 15 C-7.555 14.505 -7.555 14.505 -2 14 C-1.939 13.157 -1.879 12.314 -1.816 11.445 C-1.733 10.35 -1.649 9.254 -1.562 8.125 C-1.481 7.034 -1.4 5.944 -1.316 4.82 C-1 2 -1 2 0 0 Z " fill="#B34F56" transform="translate(191,541)"/>
<path d="M0 0 C1.32 0.99 2.64 1.98 4 3 C4.66 2.01 5.32 1.02 6 0 C6.027 1.958 6.046 3.917 6.062 5.875 C6.074 6.966 6.086 8.056 6.098 9.18 C6 12 6 12 5 14 C3.35 13.67 1.7 13.34 0 13 C0 8.71 0 4.42 0 0 Z " fill="#F9CB39" transform="translate(847,757)"/>
<path d="M0 0 C3.875 0.875 3.875 0.875 5 2 C5.073 4.186 5.084 6.375 5.062 8.562 C5.053 9.76 5.044 10.958 5.035 12.191 C5.024 13.118 5.012 14.045 5 15 C3.235 11.912 3 10.767 3 7 C2.01 6.67 1.02 6.34 0 6 C-0.33 9.3 -0.66 12.6 -1 16 C-1.66 15.67 -2.32 15.34 -3 15 C-2.886 13.062 -2.758 11.124 -2.625 9.188 C-2.521 7.569 -2.521 7.569 -2.414 5.918 C-2 3 -2 3 0 0 Z " fill="#FAD73E" transform="translate(848,733)"/>
<path d="M0 0 C0.66 0.33 1.32 0.66 2 1 C1.438 2.938 1.438 2.938 0 5 C-3.312 5.625 -3.312 5.625 -7 6 C-8.65 6.66 -10.3 7.32 -12 8 C-12.33 12.62 -12.66 17.24 -13 22 C-13.33 22 -13.66 22 -14 22 C-14.054 19.208 -14.094 16.417 -14.125 13.625 C-14.142 12.831 -14.159 12.037 -14.176 11.219 C-14.193 9.145 -14.103 7.071 -14 5 C-12 3 -12 3 -9.18 2.805 C-8.089 2.828 -6.999 2.851 -5.875 2.875 C-4.779 2.893 -3.684 2.911 -2.555 2.93 C-1.712 2.953 -0.869 2.976 0 3 C0 2.01 0 1.02 0 0 Z " fill="#0A058D" transform="translate(207,556)"/>
<path d="M0 0 C2.51 3.765 2.026 6.395 1.625 10.688 C1.568 11.389 1.512 12.091 1.453 12.814 C1.312 14.544 1.157 16.272 1 18 C0.01 18 -0.98 18 -2 18 C-2.054 15.375 -2.094 12.751 -2.125 10.125 C-2.142 9.379 -2.159 8.632 -2.176 7.863 C-2.193 5.908 -2.103 3.953 -2 2 C-1.34 1.34 -0.68 0.68 0 0 Z " fill="#D27E48" transform="translate(858,152)"/>
<path d="M0 0 C1.514 0.017 1.514 0.017 3.059 0.035 C4.071 0.044 5.082 0.053 6.125 0.062 C7.299 0.08 7.299 0.08 8.496 0.098 C8.496 0.428 8.496 0.758 8.496 1.098 C5.856 1.428 3.216 1.758 0.496 2.098 C0.826 3.088 1.156 4.078 1.496 5.098 C4.136 5.428 6.776 5.758 9.496 6.098 C9.496 6.428 9.496 6.758 9.496 7.098 C7.559 7.152 5.621 7.19 3.684 7.223 C2.605 7.246 1.526 7.269 0.414 7.293 C-2.504 7.098 -2.504 7.098 -5.504 5.098 C-3.096 0.121 -3.096 0.121 0 0 Z " fill="#F9D53E" transform="translate(836.50390625,748.90234375)"/>
<path d="M0 0 C-0.66 1.65 -1.32 3.3 -2 5 C-3.751 4.885 -5.501 4.758 -7.25 4.625 C-8.225 4.555 -9.199 4.486 -10.203 4.414 C-12.896 4.015 -14.67 3.365 -17 2 C-17 1.67 -17 1.34 -17 1 C-15.104 0.831 -13.209 0.665 -11.312 0.5 C-10.257 0.407 -9.201 0.314 -8.113 0.219 C-5.394 0.028 -2.725 -0.04 0 0 Z " fill="#D9A64E" transform="translate(859,149)"/>
<path d="M0 0 C0.33 0.66 0.66 1.32 1 2 C2.98 2.66 4.96 3.32 7 4 C6.34 8.62 5.68 13.24 5 18 C4.67 18 4.34 18 4 18 C3.67 13.71 3.34 9.42 3 5 C1.68 4.67 0.36 4.34 -1 4 C-1.66 4.66 -2.32 5.32 -3 6 C-3.33 4.68 -3.66 3.36 -4 2 C-2.68 1.34 -1.36 0.68 0 0 Z " fill="#1A0A58" transform="translate(849,730)"/>
<path d="M0 0 C0.33 0 0.66 0 1 0 C1.879 6.152 1.879 6.152 2 8 C1 9 1 9 -1.504 9.098 C-3.018 9.08 -3.018 9.08 -4.562 9.062 C-5.574 9.053 -6.586 9.044 -7.629 9.035 C-8.411 9.024 -9.194 9.012 -10 9 C-10 8.34 -10 7.68 -10 7 C-7.36 6.67 -4.72 6.34 -2 6 C-1.34 4.02 -0.68 2.04 0 0 Z " fill="#0D0682" transform="translate(188,547)"/>
<path d="M0 0 C4.29 0 8.58 0 13 0 C13.33 1.65 13.66 3.3 14 5 C11.03 4.505 11.03 4.505 8 4 C8 3.01 8 2.02 8 1 C5.36 1 2.72 1 0 1 C0 0.67 0 0.34 0 0 Z " fill="#F8D13F" transform="translate(853,749)"/>
<path d="M0 0 C0.474 0.639 0.949 1.279 1.438 1.938 C5.054 4.849 8.472 4.806 13 5 C12.67 5.66 12.34 6.32 12 7 C10.68 7 9.36 7 8 7 C7.67 7.66 7.34 8.32 7 9 C6.34 8.67 5.68 8.34 5 8 C5 7.34 5 6.68 5 6 C3.68 6 2.36 6 1 6 C0.67 4.02 0.34 2.04 0 0 Z " fill="#09025E" transform="translate(830,751)"/>
<path d="M0 0 C0.33 0 0.66 0 1 0 C1.168 2.104 1.334 4.208 1.5 6.312 C1.593 7.484 1.686 8.656 1.781 9.863 C1.924 11.905 2 13.953 2 16 C1.34 16.66 0.68 17.32 0 18 C-0.99 18 -1.98 18 -3 18 C-3 17.01 -3 16.02 -3 15 C-2.01 15 -1.02 15 0 15 C0 10.05 0 5.1 0 0 Z " fill="#160751" transform="translate(859,155)"/>
<path d="M0 0 C0.33 0 0.66 0 1 0 C1.337 1.437 1.67 2.874 2 4.312 C2.186 5.113 2.371 5.914 2.562 6.738 C3.269 10.393 2.777 13.408 2 17 C-0.746 14.254 -0.429 12.328 -0.688 8.5 C-0.774 7.335 -0.86 6.169 -0.949 4.969 C-1 2 -1 2 0 0 Z " fill="#06065E" transform="translate(243,129)"/>
<path d="M0 0 C0.33 0 0.66 0 1 0 C1.33 5.61 1.66 11.22 2 17 C1.34 17 0.68 17 0 17 C-0.33 17.66 -0.66 18.32 -1 19 C-2.125 14.25 -2.125 14.25 -1 12 C-0.771 9.963 -0.59 7.92 -0.438 5.875 C-0.354 4.779 -0.27 3.684 -0.184 2.555 C-0.123 1.712 -0.062 0.869 0 0 Z " fill="#250C54" transform="translate(853,757)"/>
<path d="M0 0 C0.99 0.33 1.98 0.66 3 1 C3.688 3.812 3.688 3.812 4 7 C2.625 8.875 2.625 8.875 1 10 C0.67 10 0.34 10 0 10 C0 6.7 0 3.4 0 0 Z " fill="#FCBC3B" transform="translate(848,739)"/>
<path d="M0 0 C0.33 0 0.66 0 1 0 C1 2.64 1 5.28 1 8 C-1.31 8 -3.62 8 -6 8 C-6 7.34 -6 6.68 -6 6 C-5.196 5.753 -4.391 5.505 -3.562 5.25 C-0.829 4.278 -0.829 4.278 -0.188 1.875 C-0.126 1.256 -0.064 0.638 0 0 Z " fill="#120258" transform="translate(843,739)"/>
<path d="M0 0 C0.99 0 1.98 0 3 0 C3.188 3.375 3.188 3.375 3 7 C2.01 7.66 1.02 8.32 0 9 C0 6.03 0 3.06 0 0 Z " fill="#D0AB4F" transform="translate(856,135)"/>
<path d="M0 0 C0.33 0 0.66 0 1 0 C1 3.96 1 7.92 1 12 C0.67 11.34 0.34 10.68 0 10 C-0.99 9.67 -1.98 9.34 -3 9 C-2.34 8.01 -1.68 7.02 -1 6 C-0.61 4.01 -0.268 2.01 0 0 Z " fill="#060059" transform="translate(845,758)"/>
<path d="M0 0 C2.236 3.353 2.173 3.907 1.625 7.688 C1.514 8.496 1.403 9.304 1.289 10.137 C1.194 10.752 1.098 11.366 1 12 C0.67 12 0.34 12 0 12 C-0.194 10.188 -0.38 8.376 -0.562 6.562 C-0.667 5.553 -0.771 4.544 -0.879 3.504 C-0.919 2.678 -0.959 1.851 -1 1 C-0.67 0.67 -0.34 0.34 0 0 Z " fill="#07014A" transform="translate(860,134)"/>
</svg>
