<?xml version="1.0" encoding="UTF-8"?>
<!-- Generator: visioncortex VTracer 0.6.4 -->
<svg version="1.1" xmlns="http://www.w3.org/2000/svg" width="1024" height="1024">
<path d="M0 0 C337.92 0 675.84 0 1024 0 C1024 337.92 1024 675.84 1024 1024 C686.08 1024 348.16 1024 0 1024 C0 686.08 0 348.16 0 0 Z " fill="#0B0B0A" transform="translate(0,0)"/>
<path d="M0 0 C2.523 2.194 4.809 4.475 7.078 6.93 C7.737 7.595 8.396 8.26 9.074 8.945 C25.963 26.752 38.011 49.913 38.352 74.676 C38.364 75.511 38.376 76.347 38.389 77.208 C38.421 79.928 38.44 82.647 38.453 85.367 C38.458 86.3 38.463 87.233 38.468 88.194 C38.495 100.702 37.858 112.793 35.703 125.117 C35.589 125.775 35.474 126.432 35.356 127.11 C34.802 130.26 34.234 133.409 33.664 136.557 C28.633 165.541 29.732 197.081 32.8 226.23 C33.08 228.952 33.321 231.675 33.551 234.402 C34.364 243.881 35.494 253.256 36.979 262.653 C37.676 267.097 38.27 271.52 38.695 275.998 C39.598 285.48 41.216 294.811 42.891 304.18 C43.154 305.668 43.418 307.157 43.681 308.645 C44.925 315.643 46.208 322.628 47.582 329.602 C52.467 355.159 54.456 381.9 46.078 406.93 C45.816 407.75 45.553 408.569 45.283 409.414 C36.901 435.305 23.343 452.832 -0.953 465.469 C-1.933 465.951 -2.913 466.433 -3.922 466.93 C-5.067 467.494 -6.211 468.059 -7.391 468.641 C-18.48 473.895 -30.001 477.132 -41.922 479.93 C-43.023 480.201 -43.023 480.201 -44.146 480.478 C-55.889 483.266 -67.855 483.263 -79.859 483.367 C-81.047 483.386 -81.047 483.386 -82.259 483.404 C-102.055 483.661 -120.119 479.012 -138.797 472.805 C-139.665 472.519 -140.533 472.233 -141.428 471.939 C-202.632 451.738 -202.632 451.738 -216.84 428.113 C-219.945 421.847 -220.209 415.832 -219.922 408.93 C-216.409 407.386 -213.283 406.597 -209.484 406.117 C-198.088 404.314 -187.904 401.149 -180.5 391.906 C-179.715 390.795 -178.939 389.678 -178.172 388.555 C-177.748 387.95 -177.325 387.346 -176.889 386.723 C-174.232 382.908 -171.664 379.037 -169.113 375.15 C-164.439 368.038 -159.552 361.333 -153.922 354.93 C-153.156 354.055 -153.156 354.055 -152.375 353.164 C-140.441 339.643 -128.713 330.417 -112.273 322.953 C-103.49 318.938 -96.52 314.625 -92.923 305.357 C-90.511 298.194 -88.803 291.09 -87.359 283.68 C-80.613 250.964 -70.641 219.352 -58.564 188.242 C-49.295 164.329 -42.616 138.198 -42.859 112.43 C-42.866 111.053 -42.866 111.053 -42.873 109.648 C-42.885 107.409 -42.901 105.169 -42.922 102.93 C-48.323 103.631 -53.273 105.232 -58.422 106.93 C-60.077 107.475 -61.733 108.017 -63.391 108.555 C-64.117 108.794 -64.843 109.034 -65.592 109.281 C-90.181 116.124 -119.282 110.276 -141.922 99.93 C-143.248 99.365 -143.248 99.365 -144.602 98.789 C-162.049 90.874 -173.186 77.341 -180.18 59.77 C-183.701 49.637 -185.091 39.643 -180.422 29.68 C-177.153 23.926 -173.331 18.852 -168.922 13.93 C-168.108 12.999 -167.295 12.068 -166.457 11.109 C-165.579 10.163 -164.701 9.217 -163.797 8.242 C-163.011 7.393 -162.224 6.543 -161.414 5.668 C-150.76 -3.521 -139.086 -5.301 -125.609 -6.258 C-123.866 -6.402 -122.122 -6.55 -120.379 -6.7 C-116.743 -7.012 -113.106 -7.31 -109.467 -7.601 C-103.957 -8.054 -98.462 -8.613 -92.965 -9.199 C-23.404 -16.583 -23.404 -16.583 0 0 Z " fill="#FDFCFB" transform="translate(809.921875,228.0703125)"/>
<path d="M0 0 C1.06 0.095 1.06 0.095 2.141 0.191 C9.664 0.873 17.156 1.678 24.645 2.668 C33.405 3.815 42.18 4.263 51.002 4.654 C64.642 5.276 75.053 6.267 84.625 16.625 C87.772 20.187 90.733 23.854 93.625 27.625 C94.267 28.44 94.909 29.254 95.57 30.094 C101.575 38.1 106.702 47.788 106.027 58.062 C103.11 76.646 92.251 94.33 77.5 105.812 C57.376 119.676 29.272 127.349 5.008 122.973 C-8.179 119.289 -18.56 112.486 -26.09 101.012 C-27.375 98.625 -27.375 98.625 -27.375 96.062 C-26.375 93.625 -26.375 93.625 -24.074 91.785 C-21.339 89.596 -19.351 87.37 -17.188 84.625 C-16.176 83.357 -16.176 83.357 -15.145 82.062 C-12.49 78.406 -11.098 75.938 -11.25 71.375 C-11.291 70.137 -11.332 68.9 -11.375 67.625 C-14.607 69.007 -16.29 70.493 -18.438 73.25 C-24.032 79.857 -30.949 85.327 -39.375 87.625 C-43.862 87.865 -47.97 87.484 -52.375 86.625 C-52.963 89.904 -52.781 91.981 -50.992 94.816 C-48.391 98.144 -45.743 101.269 -42.703 104.207 C-39.168 108.474 -39.513 113.496 -39.312 118.812 C-37.999 139.625 -32.244 158.017 -25.375 177.625 C-25.103 178.4 -24.832 179.176 -24.552 179.975 C-23.349 183.41 -22.146 186.845 -20.942 190.279 C7.977 272.805 7.977 272.805 15.006 309.314 C16.668 317.755 18.894 327 24.625 333.625 C27.067 335.081 29.298 336.244 31.875 337.375 C45.792 343.946 57.763 352.011 69.174 362.325 C71.036 363.993 72.958 365.585 74.875 367.188 C85.209 376.354 92.533 386.958 99.461 398.75 C105.453 408.727 111.17 412.803 122.469 415.75 C129.82 417.395 137.318 418.339 144.784 419.3 C146.625 419.625 146.625 419.625 148.625 420.625 C149.189 428.525 147.299 433.394 142.262 439.48 C139.487 442.631 136.576 445.639 133.625 448.625 C132.84 449.435 132.055 450.244 131.246 451.078 C116.446 465.402 95.753 472.059 76.688 478.688 C75.24 479.196 73.793 479.704 72.346 480.213 C65.408 482.647 58.457 485.041 51.488 487.387 C49.751 487.972 49.751 487.972 47.978 488.569 C34.086 492.944 20.62 493.837 6.188 493.812 C5.427 493.811 4.667 493.81 3.883 493.809 C-34.068 493.688 -71.283 482.945 -100.133 457.16 C-117.87 438.589 -127.295 409.445 -127.648 384.125 C-127.661 383.305 -127.673 382.485 -127.686 381.64 C-127.939 361.016 -126.794 341.835 -122.375 321.625 C-122.118 320.437 -121.862 319.249 -121.598 318.024 C-120.6 313.435 -119.598 308.849 -118.519 304.278 C-115.121 289.801 -113.041 275.17 -111.495 260.393 C-111.25 258.059 -110.994 255.726 -110.738 253.393 C-108.804 235.492 -108.108 217.69 -108.062 199.688 C-108.06 198.64 -108.057 197.593 -108.054 196.514 C-108.042 177.602 -109.569 159.307 -112.375 140.625 C-114.4 127.068 -115.671 113.772 -115.75 100.062 C-115.764 98.755 -115.778 97.447 -115.792 96.099 C-115.646 65.867 -101.873 37.761 -81.098 16.254 C-70.744 6.257 -59.255 2.39 -45.375 -0.375 C-44.447 -0.562 -43.519 -0.749 -42.562 -0.941 C-28.539 -2.849 -14.027 -1.26 0 0 Z " fill="#FDFCFB" transform="translate(290.375,217.375)"/>
<path d="M0 0 C1 3 1 3 0.015 4.974 C-0.752 6.077 -0.752 6.077 -1.535 7.203 C-2.098 8.019 -2.661 8.835 -3.24 9.676 C-3.842 10.525 -4.443 11.375 -5.062 12.25 C-5.637 13.084 -6.211 13.918 -6.803 14.777 C-12.097 22.381 -16.605 28.803 -25 33 C-23.863 29.588 -22.957 28.881 -20 27 C-19.34 27 -18.68 27 -18 27 C-17.598 26.134 -17.598 26.134 -17.188 25.25 C-16 23 -16 23 -14.438 20.938 C-12.813 18.958 -12.813 18.958 -12 16 C-10.667 14.667 -9.333 13.333 -8 12 C-6.542 9.946 -5.126 7.86 -3.75 5.75 C-3.044 4.672 -2.337 3.595 -1.609 2.484 C-1.078 1.665 -0.547 0.845 0 0 Z " fill="#151413" transform="translate(643,597)"/>
<path d="M0 0 C0.99 0.33 1.98 0.66 3 1 C2.394 1.473 1.788 1.946 1.164 2.434 C-11.329 12.28 -11.329 12.28 -22 24 C-22.66 23.67 -23.32 23.34 -24 23 C-24 22.34 -24 21.68 -24 21 C-22.426 19.449 -22.426 19.449 -20.312 17.688 C-17.831 15.587 -15.528 13.517 -13.25 11.188 C-11.206 9.2 -9.615 8.066 -7 7 C-7 6.34 -7 5.68 -7 5 C-5.574 3.676 -5.574 3.676 -3.688 2.312 C-3.073 1.855 -2.458 1.397 -1.824 0.926 C-1.222 0.62 -0.62 0.315 0 0 Z " fill="#121110" transform="translate(680,558)"/>
<path d="M0 0 C0.66 1.32 1.32 2.64 2 4 C1.34 4 0.68 4 0 4 C-0.289 4.887 -0.577 5.774 -0.875 6.688 C-1.831 9.504 -2.868 12.251 -4 15 C-4.66 15 -5.32 15 -6 15 C-6.082 15.536 -6.165 16.072 -6.25 16.625 C-7.264 19.835 -9.072 22.263 -11 25 C-11.99 24.67 -12.98 24.34 -14 24 C-13.175 23.01 -12.35 22.02 -11.5 21 C-6.656 14.603 -3.447 7.208 0 0 Z " fill="#151514" transform="translate(850,649)"/>
<path d="M0 0 C0.33 0 0.66 0 1 0 C5.223 15.745 5.223 15.745 7 23 C6.34 23 5.68 23 5 23 C4.181 20.794 3.37 18.585 2.562 16.375 C2.11 15.145 1.658 13.915 1.191 12.648 C-1.485 4.454 -1.485 4.454 0 0 Z " fill="#1B1A18" transform="translate(165,621)"/>
<path d="M0 0 C3.569 0.682 6.344 2.165 9.5 3.938 C12.639 5.692 15.768 7.422 19 9 C19 9.66 19 10.32 19 11 C17.394 10.548 15.79 10.088 14.188 9.625 C13.294 9.37 12.401 9.115 11.48 8.852 C9 8 9 8 6 6 C6 5.34 6 4.68 6 4 C5.196 3.711 4.391 3.423 3.562 3.125 C1 2 1 2 0 0 Z " fill="#161515" transform="translate(651,319)"/>
<path d="M0 0 C0 3 0 3 -2.312 5.5 C-5 8 -5 8 -6.875 9.438 C-8.343 11.114 -8.343 11.114 -7.688 14.188 C-7.461 15.116 -7.234 16.044 -7 17 C-8.32 16.34 -9.64 15.68 -11 15 C-9.927 7.644 -5.655 4.48 0 0 Z " fill="#121211" transform="translate(272,301)"/>
<path d="M0 0 C0.99 0.33 1.98 0.66 3 1 C3.309 1.969 3.619 2.939 3.938 3.938 C4.665 7.06 4.665 7.06 6.875 8.188 C7.576 8.456 8.277 8.724 9 9 C10.351 9.976 11.689 10.97 13 12 C12.67 12.66 12.34 13.32 12 14 C3.022 7.659 3.022 7.659 0 3 C0 2.01 0 1.02 0 0 Z " fill="#1A1918" transform="translate(391,617)"/>
<path d="M0 0 C0.99 0.33 1.98 0.66 3 1 C4.02 3.652 4.02 3.652 4.812 6.938 C5.087 8.019 5.362 9.101 5.645 10.215 C5.762 11.134 5.879 12.053 6 13 C5.34 13.66 4.68 14.32 4 15 C3.328 13.064 2.662 11.126 2 9.188 C1.629 8.109 1.257 7.03 0.875 5.918 C0 3 0 3 0 0 Z " fill="#171515" transform="translate(281,441)"/>
<path d="M0 0 C6.406 -0.209 11.93 -0.158 18 2 C18 2.33 18 2.66 18 3 C12.06 2.67 6.12 2.34 0 2 C0 1.34 0 0.68 0 0 Z " fill="#3F3D3C" transform="translate(313,219)"/>
<path d="M0 0 C2.059 0.207 2.059 0.207 4.438 0.812 C5.611 1.101 5.611 1.101 6.809 1.395 C8.555 1.877 10.282 2.427 12 3 C12 3.66 12 4.32 12 5 C6.938 5.49 2.674 3.711 -2 2 C-1.34 1.34 -0.68 0.68 0 0 Z " fill="#111110" transform="translate(666,699)"/>
<path d="M0 0 C1.178 0.147 1.178 0.147 2.379 0.297 C3.553 0.428 3.553 0.428 4.75 0.562 C6.941 1.047 6.941 1.047 9.941 3.047 C4.452 4.167 1.107 3.839 -4.059 2.047 C-2.059 0.047 -2.059 0.047 0 0 Z " fill="#161513" transform="translate(409.05859375,629.953125)"/>
<path d="M0 0 C3.239 1.444 5.62 3.258 8.25 5.625 C8.956 6.257 9.663 6.888 10.391 7.539 C10.922 8.021 11.453 8.503 12 9 C11.01 9.66 10.02 10.32 9 11 C8.518 10.434 8.036 9.868 7.539 9.285 C6.907 8.552 6.276 7.818 5.625 7.062 C4.999 6.332 4.372 5.601 3.727 4.848 C2.123 2.916 2.123 2.916 0 2 C0 1.34 0 0.68 0 0 Z " fill="#111110" transform="translate(368,227)"/>
<path d="M0 0 C2.97 0.33 5.94 0.66 9 1 C8.67 1.66 8.34 2.32 8 3 C5.03 3 2.06 3 -1 3 C-0.67 2.01 -0.34 1.02 0 0 Z " fill="#1A1817" transform="translate(698,218)"/>
<path d="M0 0 C0.33 0 0.66 0 1 0 C1.33 3.96 1.66 7.92 2 12 C1.01 12.33 0.02 12.66 -1 13 C-1.027 11.583 -1.047 10.167 -1.062 8.75 C-1.074 7.961 -1.086 7.172 -1.098 6.359 C-1.004 4.093 -0.632 2.171 0 0 Z " fill="#1F1D1B" transform="translate(179,365)"/>
<path d="M0 0 C2.31 0.33 4.62 0.66 7 1 C7 1.33 7 1.66 7 2 C3.04 2.99 -0.92 3.98 -5 5 C-5 4.01 -5 3.02 -5 2 C-3.35 2 -1.7 2 0 2 C0 1.34 0 0.68 0 0 Z " fill="#1B1A18" transform="translate(230,218)"/>
<path d="M0 0 C0.99 0.495 0.99 0.495 2 1 C2 1.66 2 2.32 2 3 C3.65 3.33 5.3 3.66 7 4 C7.33 5.32 7.66 6.64 8 8 C4.677 6.832 2.166 5.851 0 3 C0 2.01 0 1.02 0 0 Z " fill="#161514" transform="translate(312,546)"/>
<path d="M0 0 C2.679 4.019 2.156 6.242 2 11 C1.01 11.33 0.02 11.66 -1 12 C-1.082 7.839 -0.982 4.053 0 0 Z " fill="#131312" transform="translate(174,291)"/>
<path d="M0 0 C3 1 3 1 4.25 3.375 C5 6 5 6 4 9 C1.477 7.026 1.007 6.033 0.312 2.812 C0.209 1.884 0.106 0.956 0 0 Z " fill="#131311" transform="translate(392,256)"/>
<path d="M0 0 C0.33 0 0.66 0 1 0 C1.054 1.937 1.093 3.875 1.125 5.812 C1.148 6.891 1.171 7.97 1.195 9.082 C1 12 1 12 -1 15 C-1.381 12.674 -1.713 10.339 -2 8 C-1.67 7.67 -1.34 7.34 -1 7 C-0.632 4.672 -0.298 2.338 0 0 Z " fill="#040302" transform="translate(178,472)"/>
<path d="M0 0 C0 0.66 0 1.32 0 2 C-2.312 3.688 -2.312 3.688 -5 5 C-5.99 4.67 -6.98 4.34 -8 4 C-8 3.34 -8 2.68 -8 2 C-5.094 0.743 -3.204 0 0 0 Z " fill="#1D1C1C" transform="translate(381,691)"/>
<path d="M0 0 C0.99 0 1.98 0 3 0 C2.67 1.32 2.34 2.64 2 4 C2.66 4 3.32 4 4 4 C3.67 4.99 3.34 5.98 3 7 C2.01 7.495 2.01 7.495 1 8 C0.67 5.36 0.34 2.72 0 0 Z " fill="#1F1F1D" transform="translate(304,522)"/>
<path d="M0 0 C2.31 0 4.62 0 7 0 C7.33 0.99 7.66 1.98 8 3 C5.03 3 2.06 3 -1 3 C-0.67 2.01 -0.34 1.02 0 0 Z " fill="#191716" transform="translate(728,215)"/>
<path d="M0 0 C3.485 0.645 6.028 2.101 9 4 C6 5 6 5 2.812 3.562 C1.884 3.047 0.956 2.531 0 2 C0 1.34 0 0.68 0 0 Z " fill="#111010" transform="translate(608,672)"/>
<path d="M0 0 C0 0.33 0 0.66 0 1 C-5.081 1.847 -9.848 2.09 -15 2 C-15 1.67 -15 1.34 -15 1 C-9.458 -0.963 -5.791 -1.016 0 0 Z " fill="#55524E" transform="translate(726,218)"/>
<path d="M0 0 C0 2.31 0 4.62 0 7 C-0.99 7 -1.98 7 -3 7 C-3 5.02 -3 3.04 -3 1 C-1 0 -1 0 0 0 Z " fill="#131211" transform="translate(178,487)"/>
<path d="M0 0 C0.99 0.33 1.98 0.66 3 1 C0.69 2.65 -1.62 4.3 -4 6 C-4.66 5.67 -5.32 5.34 -6 5 C-1.605 0.996 -1.605 0.996 0 0 Z " fill="#121110" transform="translate(217,225)"/>
</svg>
