<svg xmlns="http://www.w3.org/2000/svg" width="1080" height="1080" viewBox="0 0 1080 1080">
  <g id="background-layer">
    <image href="/static/images/sessions/parallel_20250625_161147_cb4ec55f/background_20250625_161231_2d7e0a62.png" x="0" y="0" width="1080" height="1080"/>
  </g>
  <g id="elements-layer" opacity="0.8">
    <g transform="translate(0,0)">
      <path d="M0 0 C337.92 0 675.84 0 1024 0 C1024 337.92 1024 675.84 1024 1024 C686.08 1024 348.16 1024 0 1024 C0 686.08 0 348.16 0 0 Z" fill="#160807"/>
      <path d="M0 0 C4.061 2.198 6.985 4.456 10.062 7.938 C11.721 9.405 13.389 10.862 15.062 12.312 C21.506 18.107 25.185 23.792 28.852 31.605 C29.97 33.944 29.97 33.944 31.535 35.777 C36.852 43.297 36.641 53.667 36.625 62.5 C36.625 63.724 36.625 64.948 36.624 66.21 C36.427 76.726 34.283 85.377 30.062 94.938 C29.605 96.148 29.147 97.358 28.676 98.605 C26.912 102.249 25.028 104.211 22.062 106.938 C21.134 107.93 20.216 108.933 19.309 109.945 C18.846 110.457 18.384 110.969 17.908 111.496 C16.964 112.547 16.021 113.599 15.08 114.652 C12.596 117.398 10.201 119.946 7.062 121.938 C6.403 121.938 5.743 121.938 5.062 121.938 C5.062 122.597 5.062 123.257 5.062 123.938 C-0.998 127.303 -5.977 129.551 -12.938 129.938 C-12.938 130.597 -12.938 131.257 -12.938 131.938 C-29.961 136.34 -47.723 137.619 -63.938 129.938 C-65.29 129.372 -66.644 128.808 -68 128.25 C-68.969 127.817 -69.939 127.384 -70.938 126.938 C-71.783 126.649 -72.629 126.36 -73.5 126.062 C-79.32 123.376 -83.214 118.647 -87.227 113.805 C-88.893 111.868 -88.893 111.868 -91.035 110.379 C-93.316 108.65 -94.39 106.676 -95.723 104.176 C-97.858 100.241 -100.232 96.441 -102.547 92.609 C-103.938 89.938 -103.938 89.938 -103.938 86.938 C-104.598 86.938 -105.257 86.938 -105.938 86.938 C-107.736 79.511 -108.291 72.441 -108.25 64.812 C-108.242 63.168 -108.242 63.168 -108.233 61.49 C-107.996 45.53 -105.569 29.846 -93.938 17.938 C-91.95 16.178 -89.94 14.449 -87.914 12.734 C-86.021 11.014 -84.469 9.245 -82.875 7.25 C-77.849 1.211 -71.264 -0.851 -63.938 -3.062 C-61.687 -3.749 -59.437 -4.437 -57.188 -5.125 C-55.586 -5.606 -55.586 -5.606 -53.953 -6.098 C-51.004 -6.973 -51.004 -6.973 -48.582 -8.152 C-32.991 -13.518 -14.135 -6.669 0 0 Z" fill="#771000"/>
      <path d="M0 0 C2.247 4.195 3 7.208 3 12 C3.66 12 4.32 12 5 12 C5.66 12.66 6.32 13.32 7 14 C7.949 14.474 8.898 14.949 9.875 15.438 C13 17 13 17 15.125 18.625 C17.123 20.09 18.597 20.519 21 21 C21.66 21.33 22.32 21.66 23 22 C23.66 21.34 24.32 20.68 25 20 C25 21.65 25 23.3 25 25 C25.99 25.33 26.98 25.66 28 26 C28 27.32 28 28.64 28 30 C28.763 29.959 29.526 29.918 30.312 29.875 C33 30 33 30 36 32 C36.66 32.99 37.32 33.98 38 35 C37.856 34.278 37.711 33.556 37.562 32.812 C36.781 28.906 36.781 28.906 36 25 C35.34 25 34.68 25 34 25 C34.33 23.02 34.66 21.04 35 19 C36.32 18.67 37.64 18.34 39 18 C39 14.7 39 11.4 39 8 C39.66 8 40.32 8 41 8 C41.674 9.914 42.339 11.831 43 13.75 C43.371 14.817 43.743 15.885 44.125 16.984 C45.091 20.315 45.598 22.805 44 26 C43.01 26 42.02 26 41 26 C42.852 30.724 44.799 34.026 48 38 C48 38.99 48 39.98 48 41 C49.65 41.33 51.3 41.66 53 42 C53.268 41.216 53.536 40.433 53.812 39.625 C55 37 55 37 58 35 C58.364 32.793 58.364 32.793 58.188 30.375 C58.16 29.558 58.133 28.74 58.105 27.898 C58.053 26.959 58.053 26.959 58 26 C58.99 26.66 59.98 27.32 61 28 C61.567 35.149 61.567 35.149 59 39 C59.639 39.825 60.279 40.65 60.938 41.5 C62.704 44.098 63.272 46.002 63.5 49.125 C64.043 53.334 64.721 54.461 68 57 C68.99 56.01 69.98 55.02 71 54 C72.485 54.495 72.485 54.495 74 55 C73.01 56.65 72.02 58.3 71 60 C73.31 60.33 75.62 60.66 78 61 C78 60.34 78 59.68 78 59 C79.65 58.34 81.3 57.68 83 57 C83 55.02 83 53.04 83 51 C84.98 51.495 84.98 51.495 87 52 C87 52.99 87 53.98 87 55 C89.508 54.379 89.508 54.379 92 53 C94.515 46.927 94.195 40.335 93 34 C95.463 36.463 95.998 38.707 97 42 C98.98 42.33 100.96 42.66 103 43 C102.783 41.082 102.783 41.082 102.562 39.125 C102.481 38.406 102.4 37.686 102.316 36.945 C102.087 34.926 102.087 34.926 101 33 C101.66 33 102.32 33 103 33 C102.505 28.545 102.505 28.545 102 24 C102.99 23.505 102.99 23.505 104 23 C104.656 20.473 104.656 20.473 105 18 C107.369 20.369 107.334 21.149 107.633 24.395 C107.717 25.268 107.8 26.141 107.887 27.041 C107.965 27.956 108.044 28.87 108.125 29.812 C108.211 30.715 108.298 31.618 108.387 32.549 C108.773 36.719 109.044 40.809 109 45 C108.416 45.101 107.832 45.201 107.23 45.305 C103.171 46.57 100.499 49.654 98 53 C97.109 56.642 97.109 56.642 97 60 C96.34 60.99 95.68 61.98 95 63 C92.667 63.045 90.333 63.039 88 63 C86.948 63.351 85.896 63.701 84.812 64.062 C81.795 65.068 80.929 64.808 78 64 C77.01 64.66 76.02 65.32 75 66 C75 66.99 75 67.98 75 69 C74.34 69 73.68 69 73 69 C77.242 77.492 77.242 77.492 84 84 C84 85.32 84 86.64 84 88 C83.34 88 82.68 88 82 88 C81 86.333 80 84.667 79 83 C78.216 82.257 77.433 81.515 76.625 80.75 C73.748 77.736 72.129 74.74 70.191 71.09 C68.05 67.334 66.086 65.362 62 64 C59.635 64.922 57.296 65.917 55 67 C54.299 66.381 53.597 65.762 52.875 65.125 C49.904 62.929 47.537 61.978 44 61 C43.278 60.752 42.556 60.505 41.812 60.25 C39.658 59.749 39.658 59.749 37 62 C36.145 57.914 36.148 55.048 37 51 C36.649 47.144 34.702 45.617 32 43 C31.67 42.01 31.34 41.02 31 40 C29.577 39.845 29.577 39.845 28.125 39.688 C25 39 25 39 23 36 C20.95 34.808 20.95 34.808 19 34 C19.99 33.505 19.99 33.505 21 33 C21.66 33.33 22.32 33.66 23 34 C22.34 31.69 21.68 29.38 21 27 C20.34 27 19.68 27 19 27 C18.794 26.196 18.588 25.391 18.375 24.562 C17.921 23.717 17.468 22.871 17 22 C14.228 21.301 14.228 21.301 11 21 C8.422 20.227 6.413 19.277 4 18 C3.25 15.875 3.25 15.875 3 14 C2.01 13.67 1.02 13.34 0 13 C0 12.34 0 11.68 0 11 C-0.66 11 -1.32 11 -2 11 C-1.86 9.354 -1.713 7.708 -1.562 6.062 C-1.481 5.146 -1.4 4.229 -1.316 3.285 C-1 1 -1 1 0 0 Z" fill="#6F0C00"/>
    </g>
  </g>
  <g id="text-layer">
    <svg width="1080" height="1080" viewBox="0 0 1080 1080" xmlns="http://www.w3.org/2000/svg" preserveAspectRatio="xMidYMid meet">
      <style>
        .main-text {
          font-family: 'Arial Black', Arial, sans-serif;
          font-weight: 900;
          font-size: 160px;
          fill: #e6b87a;
          stroke: #5c3b1f;
          stroke-width: 2;
          filter: drop-shadow(0 4px 2px rgba(0,0,0,0.7));
          text-anchor: middle;
          dominant-baseline: middle;
        }
        .url-text {
          font-family: Arial, sans-serif;
          font-weight: 400;
          font-size: 28px;
          fill: #ffffff;
          text-anchor: middle;
        }
        .small-text {
          font-family: Arial, sans-serif;
          font-weight: 400;
          font-size: 16px;
          fill: #ffffff;
          text-anchor: middle;
        }
      </style>
      <text x="540" y="420" class="main-text">COMING</text>
      <text x="540" y="600" class="main-text">SOON</text>
      <text x="540" y="1010" class="url-text">www.wneline.com</text>
      <text x="540" y="1040" class="small-text">| Trademark © Slinea & Sfinema</text>
    </svg>
  </g>
</svg>