<?xml version="1.0" encoding="UTF-8"?>
<!-- Generator: visioncortex VTracer 0.6.4 -->
<svg version="1.1" xmlns="http://www.w3.org/2000/svg" width="1024" height="1024">
<path d="M0 0 C337.92 0 675.84 0 1024 0 C1024 337.92 1024 675.84 1024 1024 C686.08 1024 348.16 1024 0 1024 C0 686.08 0 348.16 0 0 Z " fill="#060606" transform="translate(0,0)"/>
<path d="M0 0 C0.99 0.66 1.98 1.32 3 2 C3 2.99 3 3.98 3 5 C2.34 5 1.68 5 1 5 C1 5.99 1 6.98 1 8 C0.34 8 -0.32 8 -1 8 C-1.33 9.65 -1.66 11.3 -2 13 C-2.66 13 -3.32 13 -4 13 C-4 14.98 -4 16.96 -4 19 C-4.66 19 -5.32 19 -6 19 C-6 18.34 -6 17.68 -6 17 C-6.66 17 -7.32 17 -8 17 C-7.67 14.03 -7.34 11.06 -7 8 C-6.01 8 -5.02 8 -4 8 C-4 7.01 -4 6.02 -4 5 C-3.01 5 -2.02 5 -1 5 C-0.67 3.35 -0.34 1.7 0 0 Z " fill="#413E3A" transform="translate(453,689)"/>
<path d="M0 0 C0.66 0.33 1.32 0.66 2 1 C2 1.99 2 2.98 2 4 C2.33 4.99 2.66 5.98 3 7 C4.32 6.67 5.64 6.34 7 6 C7 6.99 7 7.98 7 9 C5.907 8.938 4.814 8.876 3.688 8.812 C0.123 8.666 0.123 8.666 -1.875 10.312 C-3.185 12.118 -3.185 12.118 -4 15 C-4.66 15 -5.32 15 -6 15 C-5.477 12.237 -4.891 9.674 -4 7 C-3.34 7 -2.68 7 -2 7 C-2.062 5.824 -2.062 5.824 -2.125 4.625 C-2 2 -2 2 0 0 Z " fill="#2C2A26" transform="translate(442,707)"/>
<path d="M0 0 C-0.573 2.867 -0.861 3.861 -3 6 C-3.697 7.317 -4.37 8.649 -5 10 C-5.33 9.34 -5.66 8.68 -6 8 C-6.66 9.32 -7.32 10.64 -8 12 C-8.66 12 -9.32 12 -10 12 C-9.67 10.35 -9.34 8.7 -9 7 C-7.68 6.67 -6.36 6.34 -5 6 C-5.495 3.525 -5.495 3.525 -6 1 C-3 0 -3 0 0 0 Z " fill="#1D1B19" transform="translate(457,681)"/>
<path d="M0 0 C0.33 0.66 0.66 1.32 1 2 C1.99 2.33 2.98 2.66 4 3 C5.188 6.062 5.188 6.062 6 9 C2.25 10.125 2.25 10.125 0 9 C0 8.34 0 7.68 0 7 C0.66 6.67 1.32 6.34 2 6 C2 5.01 2 4.02 2 3 C1.01 3.495 1.01 3.495 0 4 C0 4.66 0 5.32 0 6 C-0.66 6 -1.32 6 -2 6 C-2 4.68 -2 3.36 -2 2 C-1.34 2 -0.68 2 0 2 C0 1.34 0 0.68 0 0 Z " fill="#312E2C" transform="translate(473,777)"/>
<path d="M0 0 C3.716 -0.201 4.772 -0.152 8 2 C5.314 4.686 2.624 5.06 -1 6 C-0.67 4.02 -0.34 2.04 0 0 Z " fill="#807A73" transform="translate(459,664)"/>
<path d="M0 0 C0.33 1.32 0.66 2.64 1 4 C1.66 4 2.32 4 3 4 C3 4.66 3 5.32 3 6 C1.35 6.66 -0.3 7.32 -2 8 C-1.125 1.125 -1.125 1.125 0 0 Z " fill="#5A5752" transform="translate(563,774)"/>
<path d="M0 0 C0.99 0.33 1.98 0.66 3 1 C3 1.66 3 2.32 3 3 C4.32 2.67 5.64 2.34 7 2 C7 2.99 7 3.98 7 5 C5.35 5 3.7 5 2 5 C1.34 3.35 0.68 1.7 0 0 Z " fill="#79736C" transform="translate(442,711)"/>
<path d="M0 0 C1.485 0.99 1.485 0.99 3 2 C3 2.99 3 3.98 3 5 C2.34 5 1.68 5 1 5 C1 5.99 1 6.98 1 8 C0.34 8 -0.32 8 -1 8 C-0.67 5.36 -0.34 2.72 0 0 Z " fill="#69645E" transform="translate(453,689)"/>
</svg>
