<svg xmlns="http://www.w3.org/2000/svg" width="1080" height="1080" viewBox="0 0 1080 1080">
  <!-- Background Layer -->
  <g id="background-layer" opacity="1">
    <image href="/static/images/parallel/20250625_143214_8371e660/background_fallback_20250625_143206_9e6851ba.png" x="0" y="0" width="1080" height="1080"/>
  </g>
  <!-- Elements Layer -->
  <g id="elements-layer" opacity="0.9">
    <path d="M0 0 C337.92 0 675.84 0 1024 0 C1024 337.92 1024 675.84 1024 1024 C686.08 1024 348.16 1024 0 1024 C0 686.08 0 348.16 0 0 Z" fill="#470B07"/>
    <path d="M0 0 C-1.14 2.811 -2.139 4.607 -4.957 5.895 C-6.52 6.392 -8.091 6.865 -9.668 7.316 C-12.251 8.02 -12.251 8.02 -15.562 9.562 C-19.994 11.416 -24.429 12.566 -29.176 13.367 C-30.079 13.68 -30.079 13.68 -31 14 C-31.33 14.99 -31.66 15.98 -32 17 C-34.074 18.062 -34.074 18.062 -36.688 19 C-39.743 20.137 -42.575 21.288 -45.5 22.75 C-48 24 -48 24 -50 24 C-50 24.66 -50 25.32 -50 26 C-51.32 26 -52.64 26 -54 26 C-54 26.66 -54 27.32 -54 28 C-54.736 28.398 -55.472 28.797 -56.23 29.207 C-57.206 29.737 -58.182 30.267 -59.188 30.812 C-60.15 31.335 -61.113 31.857 -62.105 32.395 C-63.061 32.924 -64.016 33.454 -65 34 C-65.904 34.499 -66.807 34.998 -67.738 35.512 C-70.252 36.955 -70.252 36.955 -72 40 C-73.985 40.26 -75.971 40.514 -77.965 40.691 C-81.807 41.274 -84.322 43.322 -87 46 C-91.407 48.775 -96.422 48.859 -101.5 49.312 C-104.578 49.917 -105.993 50.436 -108.562 52 C-111.901 53.942 -114.202 54.629 -118 55 C-118 55.66 -118 56.32 -118 57 C-118.866 57.413 -119.733 57.825 -120.625 58.25 C-124.792 60.411 -128.669 62.669 -132 66 C-133.658 66.688 -135.325 67.356 -137 68 C-137.33 68.33 -137.66 68.66 -138 69 C-139.238 69.247 -140.475 69.495 -141.75 69.75 C-149.122 71.321 -156.001 74.353 -162.949 77.215 C-164.274 77.758 -164.274 77.758 -165.625 78.312 C-166.401 78.639 -167.177 78.965 -167.977 79.301 C-170 80 -170 80 -173 80 C-173 80.66 -173 81.32 -173 82 C-179.913 85.946 -186.294 88.885 -194 91 C-194 91.66 -194 92.32 -194 93 C-195.392 93.402 -195.392 93.402 -196.812 93.812 C-199.92 94.717 -199.92 94.717 -201.446 96.453 C-203.215 98.214 -204.764 98.964 -207.055 99.938 C-208 100.444 -208 100.444 -209.418 100.961 C-210.229 101.304 -211.04 101.647 -211.875 102 C-218.001 104.573 -218.001 104.573 -223.82 107.75 C-226 109 -226 109 -230 109 C-230 109.66 -230 110.32 -230 111 C-231.412 111.676 -232.83 112.34 -234.25 113 C-235.039 113.371 -235.828 113.743 -236.641 114.125 C-239 115 -239 115 -243 115 C-243 112.36 -243 109.72 -243 107 C-241.969 106.602 -241.969 106.602 -240.918 106.195 C-240.017 105.842 -239.116 105.489 -238.188 105.125 C-237.294 104.777 -236.401 104.429 -235.48 104.07 C-232.823 103.012 -232.823 103.012 -230 101 C-229.01 101 -228.02 101 -227 101 C-226.505 99.515 -226.505 99.515 -226 98 C-224.434 96.973 -224.434 96.973 -222.438 96.062 C-221.722 95.723 -221.007 95.384 -220.27 95.035 C-218.769 94.351 -217.266 93.671 -215.762 92.996 C-215.057 92.667 -214.351 92.339 -213.625 92 C-212.978 91.711 -212.331 91.423 -211.664 91.125 C-209.561 89.703 -209.061 88.278 -208 86 C-202.905 79.734 -191.56 78.987 -184 78 C-182.334 77.97 -180.666 77.961 -179 78 C-178.733 77.093 -178.733 77.093 -178.461 76.168 C-176.283 72.936 -173.201 72.366 -169.625 71.312 C-168.952 71.1 -168.279 70.888 -167.586 70.67 C-164.415 69.681 -161.235 68.755 -158 68 C-158 66.68 -158 65.36 -158 64 C-158.949 64.474 -159.897 64.949 -160.875 65.438 C-162.583 66.292 -164.292 67.146 -166 68 C-165.505 66.02 -165.505 66.02 -165 64 C-161.927 63.089 -159.199 62.911 -156 63 C-156 63.66 -156 64.32 -156 65 C-154.02 64.34 -152.04 63.68 -150 63 C-150 61.35 -150 59.7 -150 58 C-150.99 58 -151.98 58 -153 58 C-153 57.34 -153 56.68 -153 56 C-155.64 56.33 -158.28 56.66 -161 57 C-161.33 56.34 -161.66 55.68 -162 55 C-161.348 54.89 -160.695 54.781 -160.023 54.668 C-154.811 53.722 -150.72 52.458 -146 50 C-143.471 49.184 -140.929 48.452 -138.367 47.746 C-136.013 47.086 -136.013 47.086 -134.055 45.949 C-131.429 44.736 -129.127 44.58 -126.25 44.375 C-125.265 44.3 -124.28 44.225 -123.266 44.148 C-122.518 44.099 -121.77 44.05 -121 44 C-121 45.65 -121 47.3 -121 49 C-119.416 48.912 -117.832 48.804 -116.25 48.688 C-115.368 48.629 -114.487 48.571 -113.578 48.512 C-110.648 47.93 -109.279 46.877 -107 45 C-105.009 44.306 -103.007 43.644 -101 43 C-99.429 42.376 -97.867 41.729 -96.312 41.062 C-95.566 40.744 -94.82 40.426 -94.051 40.098 C-91.109 38.523 -89.429 37.018 -88.125 33.922 C-87 32 -87 32 -84.75 30.953 C-78.371 29.322 -72.58 28.615 -66 29 C-66 28.34 -66 27.68 -66 27 C-64.566 26.326 -63.127 25.661 -61.688 25 C-60.487 24.443 -60.487 24.443 -59.262 23.875 C-57 23 -57 23 -54 23 C-53.794 22.423 -53.588 21.845 -53.375 21.25 C-51.5 18.182 -49.019 16.887 -46 15 C-45.34 14.34 -44.68 13.68 -44 13 C-43.34 12.34 -42.68 11.68 -42 11 C-42.66 11 -43.32 11 -44 11 C-42.599 7.497 -41.424 6.474 -38 5 C-30.204 2.365 -22.06 1.338 -13.938 0.25 C-12.914 0.11 -11.89 -0.03 -10.835 -0.174 C-9.383 -0.358 -9.383 -0.358 -7.902 -0.547 C-7.031 -0.659 -6.159 -0.771 -5.261 -0.886 C-3 -1 -3 -1 0 0 Z " fill="#360000"/>
  </g>
  <!-- Text Layer -->
  <g id="text-layer" style="font-family: Arial, sans-serif; font-weight: 900; font-size: 210px;">
    <text x="50%" y="40%" dominant-baseline="middle" text-anchor="middle" class="title1" fill="#fff8b3" stroke="#ffb400" stroke-width="4" filter="drop-shadow(0 0 6px #ff7a00)">COMING</text>
    <text x="50%" y="65%" dominant-baseline="middle" text-anchor="middle" class="title2" fill="#e0ffeb" stroke="#ffee3c" stroke-width="3" filter="drop-shadow(0 0 10px #3db7ff)">SOON</text>
    <text x="50%" y="80%" dominant-baseline="middle" text-anchor="middle" class="url" fill="#fff">www.wefadle.com</text>
    <text x="50%" y="88%" dominant-baseline="middle" text-anchor="middle" class="date" fill="#ff9a60" filter="drop-shadow(0 0 3px #ff4f00)">Julte 30- 2014</text>
  </g>
</svg>