<svg xmlns="http://www.w3.org/2000/svg" viewBox="0 0 1080 1080" width="1080" height="1080">
  <defs>
    <!-- Include any definitions from original SVGs -->
  </defs>
  <g id="background-layer">
    <image href="http://localhost:5000/static/images/sessions/bg_20250626_015435_f09327dd/background_20250626_015435_54d96ea3.png" x="0" y="0" width="1080" height="1080" preserveAspectRatio="xMidYMid slice"/>
  </g>
  <g id="elements-layer" opacity="0.9">
    
<path d="M0 0 C19.666 1.46 38.941 7.873 52.742 22.367 C60.936 31.921 65.817 43.334 65 56 C65 56.66 65 57.32 65 58 C65.792 54.521 66.584 51.042 67.375 47.562 C67.597 46.589 67.818 45.615 68.047 44.611 C69.381 38.744 70.7 32.875 72 27 C72.66 27 73.32 27 74 27 C74.351 27.846 74.701 28.691 75.062 29.562 C76.732 32.525 77.781 33.865 80.188 36.062 C88.748 44.242 96.526 57.554 97.203 69.617 C97.356 78.142 96.779 85.754 94.656 94.047 C94.015 96.931 93.598 99.075 94 102 C95.623 104.549 95.623 104.549 97.812 106.938 C100.82 110.516 103.355 113.614 105 118 C104.67 118.66 104.34 119.32 104 120 C103.364 118.948 103.364 118.948 102.715 117.875 C97.31 108.647 97.31 108.647 90 101 C85.884 100.375 83.16 101.623 79.5 103.438 C68.54 108.841 52.948 108.764 41.125 106.062 C29.868 102.226 17.886 94.85 9 87 C9 86.34 9 85.68 9 85 C9.577 84.903 10.154 84.807 10.748 84.708 C19.025 83.201 26.797 80.522 34.723 77.746 C44.358 74.519 53.239 73.727 63 77 C70.083 80.689 75.874 87.234 80.812 93.438 C82.833 95.805 84.122 96.934 87 98 C84.792 93.081 82.708 90.549 78.188 87.562 C70.013 82.141 65.706 76.391 62.238 67.223 C61.21 64.849 61.21 64.849 58.98 64.121 C56.924 63.829 56.924 63.829 55 65 C42.801 66.109 31.681 59.638 22.375 52.25 C21.591 51.507 20.808 50.765 20 50 C20 49.34 20 48.68 20 48 C19.34 48 18.68 48 18 48 C10.543 39.341 6.255 29.106 3.578 18.117 C3.197 16.031 3.197 16.031 2 15 C1.601 13.427 1.255 11.841 0.938 10.25 C0.761 9.389 0.584 8.528 0.402 7.641 C0.007 5.048 -0.071 2.618 0 0 Z " fill="#9FBF9F" transform="translate(152,305)"/>
<path d="M0 0 C1.185 0.014 1.185 0.014 2.395 0.027 C3.282 0.045 3.282 0.045 4.188 0.062 C3.233 6.9 2.004 12.726 -0.812 19.062 C-1.111 20.62 -1.379 22.183 -1.625 23.75 C-4.288 37.722 -14.128 49.766 -25.637 57.82 C-35.478 63.439 -43.675 65.195 -54.812 65.062 C-56.793 69.022 -58.773 72.983 -60.812 77.062 C-56.953 76.152 -56.953 76.152 -53.812 75.062 C-43.637 74.206 -35.176 74.673 -25.749 78.704 C-18.655 81.708 -11.397 82.913 -3.812 84.062 C-3.812 85.053 -3.812 86.043 -3.812 87.062 C-18.298 100.503 -37.475 107.405 -56.871 107.289 C-64.236 106.866 -71.225 105.398 -77.812 102.062 C-81.831 101.549 -83.317 101.718 -86.688 104.062 C-87.739 105.053 -87.739 105.053 -88.812 106.062 C-88.259 105.024 -88.259 105.024 -87.695 103.965 C-86.536 100.153 -87.388 98.366 -88.688 94.625 C-90.721 87.995 -91.267 81.671 -91.312 74.75 C-91.33 73.844 -91.348 72.938 -91.367 72.004 C-91.242 57.456 -82.645 44.401 -72.73 34.316 C-70.74 31.977 -69.778 29.96 -68.812 27.062 C-67.822 27.062 -66.832 27.062 -65.812 27.062 C-65.726 27.683 -65.64 28.303 -65.551 28.941 C-64.155 37.737 -61.82 47.047 -57.812 55.062 C-57.588 56.599 -57.405 58.142 -57.25 59.688 C-57.166 60.505 -57.082 61.322 -56.996 62.164 C-56.936 62.791 -56.875 63.417 -56.812 64.062 C-56.792 62.825 -56.771 61.587 -56.75 60.312 C-56.738 59.616 -56.727 58.92 -56.715 58.203 C-56.814 56.019 -57.265 54.173 -57.812 52.062 C-59.229 40.338 -53.572 30.242 -46.812 21.062 C-36.635 8.557 -16.129 -0.241 0 0 Z " fill="#ACC4A2" transform="translate(868.8125,304.9375)"/>
<path d="M0 0 C19.666 1.46 38.941 7.873 52.742 22.367 C60.171 31.03 65.782 42.24 65.207 53.887 C64.875 57.273 64.49 60.632 64 64 C62.824 63.505 62.824 63.505 61.625 63 C59.157 61.881 59.157 61.881 57 62 C56.67 62.33 56.34 62.66 56 63 C42.534 64.034 32.905 60.599 22.375 52.25 C21.591 51.507 20.808 50.765 20 50 C20 49.34 20 48.68 20 48 C19.34 48 18.68 48 18 48 C10.543 39.341 6.255 29.106 3.578 18.117 C3.197 16.031 3.197 16.031 2 15 C1.601 13.427 1.255 11.841 0.938 10.25 C0.761 9.389 0.584 8.528 0.402 7.641 C0.007 5.048 -0.071 2.618 0 0 Z " fill="#A9C3A2" transform="translate(152,305)"/>
<path d="M0 0 C1.185 0.014 1.185 0.014 2.395 0.027 C3.282 0.045 3.282 0.045 4.188 0.062 C3.233 6.9 2.004 12.726 -0.812 19.062 C-1.111 20.62 -1.379 22.183 -1.625 23.75 C-3.176 32.201 -7.141 40.53 -13.812 46.062 C-14.313 46.516 -14.813 46.97 -15.328 47.438 C-25.447 56.516 -35.941 63.816 -50.012 63.203 C-50.606 63.157 -51.2 63.11 -51.812 63.062 C-51.812 62.403 -51.812 61.743 -51.812 61.062 C-52.354 58.663 -53.033 56.401 -53.812 54.062 C-55.813 52.854 -55.813 52.854 -57.812 52.062 C-58.652 39.26 -53.12 28.813 -45.156 19.027 C-34.794 7.907 -15.262 -0.228 0 0 Z " fill="#B1C6A4" transform="translate(868.8125,304.9375)"/>
<path d="M0 0 C11.856 9.633 11.856 9.633 13 15.438 C13.99 16.428 13.99 16.428 15 17.438 C17.139 19.576 17.427 20.57 18 23.438 C16.44 24.089 14.877 24.733 13.312 25.375 C12.442 25.735 11.572 26.094 10.676 26.465 C-0.861 30.658 -18.849 30.544 -30 25.438 C-39.412 20.795 -49.106 15.412 -57 8.438 C-57 7.777 -57 7.118 -57 6.438 C-56.423 6.341 -55.846 6.244 -55.252 6.145 C-46.975 4.639 -39.203 1.96 -31.277 -0.816 C-20.762 -4.339 -10.131 -5.276 0 0 Z " fill="#A5C4A2" transform="translate(218,383.5625)"/>
<path d="M0 0 C0.99 0 1.98 0 3 0 C3.086 0.62 3.173 1.24 3.262 1.879 C4.173 7.625 5.595 12.793 7.625 18.25 C10.99 27.85 12.052 37.296 7.729 46.785 C4.63 53.005 1.335 58.366 -5.062 61.5 C-8.425 63.217 -9.936 64.866 -12 68 C-12.371 69.323 -12.712 70.656 -13 72 C-12.169 71.259 -12.169 71.259 -11.32 70.504 C-10.596 69.863 -9.871 69.223 -9.125 68.562 C-8.406 67.924 -7.686 67.286 -6.945 66.629 C-5 65 -5 65 -3 64 C-4.112 66.309 -5.297 68.492 -6.625 70.688 C-8.085 72.695 -8.085 72.695 -8 74 C-9.052 74.082 -10.104 74.165 -11.188 74.25 C-15.27 75.053 -17.012 76.193 -20 79 C-19.447 77.962 -19.447 77.962 -18.883 76.902 C-17.723 73.09 -18.576 71.303 -19.875 67.562 C-21.908 60.933 -22.454 54.608 -22.5 47.688 C-22.518 46.781 -22.536 45.875 -22.554 44.942 C-22.43 30.394 -13.832 17.339 -3.918 7.254 C-1.927 4.914 -0.966 2.897 0 0 Z " fill="#A6C0A1" transform="translate(800,332)"/>
<path d="M0 0 C0 4.467 -2.026 8.051 -4 12 C-4.144 13.052 -4.289 14.104 -4.438 15.188 C-4.991 18.938 -5.942 22.365 -7 26 C-8.008 30.877 -8.151 35.546 -8.125 40.5 C-8.129 41.233 -8.133 41.967 -8.137 42.723 C-8.129 46.924 -7.825 50.861 -7 55 C-5.515 54.505 -5.515 54.505 -4 54 C-4.495 56.97 -4.495 56.97 -5 60 C-4.446 59.506 -3.891 59.013 -3.32 58.504 C-2.596 57.863 -1.871 57.223 -1.125 56.562 C-0.406 55.924 0.314 55.286 1.055 54.629 C3 53 3 53 5 52 C3.888 54.309 2.703 56.492 1.375 58.688 C-0.085 60.695 -0.085 60.695 0 62 C-1.052 62.082 -2.104 62.165 -3.188 62.25 C-7.27 63.053 -9.012 64.193 -12 67 C-11.447 65.962 -11.447 65.962 -10.883 64.902 C-9.723 61.09 -10.576 59.303 -11.875 55.562 C-13.908 48.933 -14.454 42.608 -14.5 35.688 C-14.518 34.781 -14.536 33.875 -14.554 32.942 C-14.475 23.721 -11.096 16.411 -6.438 8.562 C-5.859 7.574 -5.28 6.585 -4.684 5.566 C-3.259 3.395 -1.923 1.724 0 0 Z " fill="#95B296" transform="translate(792,344)"/>
<path d="M0 0 C2.938 0.688 2.938 0.688 5.625 2.062 C13.859 6.102 23.131 5.962 32.125 5.812 C33.172 5.803 34.22 5.794 35.299 5.785 C37.845 5.762 40.391 5.729 42.938 5.688 C35.609 10.573 23.882 9.051 15.5 7.438 C9.826 6.272 4.361 4.721 -1.062 2.688 C-1.888 3.636 -2.712 4.585 -3.562 5.562 C-4.027 6.096 -4.491 6.63 -4.969 7.18 C-6.258 8.647 -6.258 8.647 -6.062 10.688 C-7.203 11.561 -7.203 11.561 -8.367 12.453 C-11.358 14.932 -12.534 16.95 -14.188 20.438 C-14.688 21.489 -15.188 22.541 -15.703 23.625 C-17.322 27.271 -18.758 30.918 -20.062 34.688 C-21.909 29.848 -19.559 26.328 -17.582 21.852 C-7.944 1.783 -7.944 1.783 0 0 Z " fill="#DDE8CA" transform="translate(788.0625,405.3125)"/>
<path d="M0 0 C0.33 0.66 0.66 1.32 1 2 C0.368 3.066 -0.263 4.132 -0.914 5.23 C-4.088 11.293 -3.504 17.628 -3.375 24.312 C-3.374 25.567 -3.372 26.822 -3.371 28.115 C-3.308 34.824 -2.845 41.157 -1.424 47.719 C-1 50 -1 50 -1 54 C-3 55.75 -3 55.75 -5 57 C-4.631 56.308 -4.263 55.616 -3.883 54.902 C-2.723 51.09 -3.576 49.303 -4.875 45.562 C-6.908 38.933 -7.454 32.608 -7.5 25.688 C-7.518 24.781 -7.536 23.875 -7.554 22.942 C-7.481 14.388 -4.738 7.107 0 0 Z " fill="#759A84" transform="translate(785,354)"/>
<path d="M0 0 C2.514 2.248 3.801 4.347 5.125 7.438 C5.458 8.199 5.79 8.961 6.133 9.746 C10.245 20.433 8.425 33.228 5.656 44.047 C5.015 46.931 4.598 49.075 5 52 C6.623 54.549 6.623 54.549 8.812 56.938 C11.82 60.516 14.355 63.614 16 68 C15.505 68.99 15.505 68.99 15 70 C14.588 69.31 14.175 68.621 13.75 67.91 C9.711 61.338 5.313 55.589 0 50 C1.485 49.505 1.485 49.505 3 49 C3.214 47.005 3.427 45.011 3.637 43.016 C3.907 40.77 4.231 38.531 4.582 36.297 C6.362 24.72 6.249 14.417 0.805 3.707 C0 2 0 2 0 0 Z " fill="#70947D" transform="translate(241,355)"/>
<path d="M0 0 C0 3.669 -0.648 4.159 -3.125 6.75 C-10.343 13.723 -21.258 19.222 -31.293 20.23 C-34.745 20.152 -37.628 19.843 -41 19 C-41.33 13.72 -41.66 8.44 -42 3 C-41.67 3 -41.34 3 -41 3 C-40.67 4.65 -40.34 6.3 -40 8 C-39.34 7.67 -38.68 7.34 -38 7 C-37.403 9.763 -37 12.16 -37 15 C-36.34 15.33 -35.68 15.66 -35 16 C-35.33 16.33 -35.66 16.66 -36 17 C-24.902 17.94 -15.316 13.815 -6.879 6.715 C-4.5 4.543 -2.206 2.348 0 0 Z " fill="#A6BD9C" transform="translate(854,350)"/>
<path d="M0 0 C5.49 2.17 7.433 6.959 10 12 C11.218 14.954 12.157 17.92 13 21 C13.193 21.645 13.387 22.289 13.586 22.953 C16.378 32.907 16.127 41.93 14 52 C13.67 52 13.34 52 13 52 C13.012 51.047 13.023 50.095 13.035 49.113 C13.044 47.859 13.053 46.605 13.062 45.312 C13.074 44.071 13.086 42.83 13.098 41.551 C13.015 38.538 12.708 35.917 12 33 C11.67 33 11.34 33 11 33 C10.67 30.69 10.34 28.38 10 26 C9.67 26 9.34 26 9 26 C7.875 19.25 7.875 19.25 9 17 C7.169 10.957 3.484 5.227 0 0 Z " fill="#86AE95" transform="translate(232,343)"/>
<path d="M0 0 C3.426 1.142 3.542 1.506 5.188 4.5 C7.714 8.79 10.799 12.235 14.23 15.824 C16.103 18.127 17.046 20.206 18 23 C18.66 23 19.32 23 20 23 C24.126 30.116 26.658 36.027 26.895 44.309 C26.999 46.976 27.472 49.39 28 52 C27.584 55.497 26.996 57.006 25 60 C24.974 58.756 24.948 57.512 24.922 56.23 C24.642 46.883 24.299 38.494 20 30 C19.504 29.018 19.007 28.035 18.496 27.023 C15.023 20.658 11.038 15.48 5.918 10.352 C3.738 7.679 2.9 5.306 2 2 C1.34 2 0.68 2 0 2 C0 1.34 0 0.68 0 0 Z " fill="#E6ECCE" transform="translate(224,330)"/>
<path d="M0 0 C1.894 2.368 3.303 4.594 4.688 7.312 C7.943 13.114 13.32 16.939 18.812 20.5 C22.541 23.045 23.592 25.775 25 30 C21.264 28.724 19.059 27.389 16.441 24.445 C15.808 23.748 15.174 23.051 14.521 22.332 C13.875 21.604 13.229 20.875 12.562 20.125 C8.338 15.388 4.492 11.243 -1 8 C-0.34 7.67 0.32 7.34 1 7 C0.67 4.69 0.34 2.38 0 0 Z " fill="#DCE6C7" transform="translate(215,374)"/>
<path d="M0 0 C0.33 0.99 0.66 1.98 1 3 C0.182 3.787 0.182 3.787 -0.652 4.59 C-5.76 9.837 -9.501 15.12 -12.938 21.562 C-13.314 22.258 -13.691 22.953 -14.08 23.67 C-17.784 30.867 -19.116 38.011 -19.625 46.062 C-19.7 47.188 -19.775 48.313 -19.852 49.473 C-19.901 50.307 -19.95 51.141 -20 52 C-20.33 52 -20.66 52 -21 52 C-22.006 43.479 -22.315 36.942 -19 29 C-18.628 27.342 -18.271 25.678 -18 24 C-17.34 24 -16.68 24 -16 24 C-15.732 23.299 -15.464 22.598 -15.188 21.875 C-12.923 16.392 -10.522 12.153 -6.438 7.812 C-4.043 5.253 -1.947 2.921 0 0 Z " fill="#E7ECCE" transform="translate(797,335)"/>
<path d="M0 0 C0.66 0 1.32 0 2 0 C1.081 4.427 -0.923 8.278 -2.844 12.344 C-4.514 16.181 -5.139 19.324 -5.125 23.5 C-5.129 24.629 -5.129 24.629 -5.133 25.781 C-5.001 27.983 -4.543 29.869 -4 32 C-3.779 34.727 -3.867 37.247 -4 40 C-4.66 40.66 -5.32 41.32 -6 42 C-6.037 41.287 -6.075 40.574 -6.113 39.84 C-6.526 33.833 -7.455 29.422 -10 24 C-10 20 -10 20 -8.625 18.582 C-8.089 18.06 -7.553 17.538 -7 17 C-5.885 14.484 -5.885 14.484 -5 11.688 C-3.587 7.591 -2.058 3.808 0 0 Z " fill="#E8EDCE" transform="translate(817,329)"/>
<path d="M0 0 C0.33 0 0.66 0 1 0 C0.896 1.069 0.896 1.069 0.789 2.16 C0.368 7.935 0.368 7.935 2.336 13.219 C3.959 15.065 3.959 15.065 5.688 16.66 C7 18 7 18 7 20 C7.99 20.33 8.98 20.66 10 21 C10.112 21.732 10.224 22.464 10.34 23.219 C11.207 26.873 12.975 29.555 14.941 32.719 C16.152 35.328 16.195 37.157 16 40 C14.407 37.611 13.113 35.349 11.828 32.797 C11.202 31.573 11.202 31.573 10.562 30.324 C9.697 28.627 8.838 26.926 7.984 25.223 C5.873 21.123 3.814 17.616 0.668 14.227 C-1.407 11.94 -1.955 11.32 -2.402 8.164 C-2.249 7.326 -2.096 6.488 -1.938 5.625 C-1.802 4.772 -1.667 3.918 -1.527 3.039 C-1 1 -1 1 0 0 Z " fill="#DEEACE" transform="translate(247,396)"/>
<path d="M0 0 C0 3.51 -0.441 3.853 -2.738 6.32 C-3.311 6.938 -3.884 7.555 -4.475 8.191 C-5.081 8.829 -5.688 9.468 -6.312 10.125 C-7.205 11.094 -7.205 11.094 -8.115 12.082 C-12.606 16.869 -12.606 16.869 -16 18 C-14.833 11.516 -12.321 8.762 -7 5 C-5.35 3.973 -3.688 2.964 -2 2 C-1.34 1.34 -0.68 0.68 0 0 Z " fill="#E0E8C9" transform="translate(802,387)"/>
<path d="M0 0 C0 4.467 -2.026 8.051 -4 12 C-4.361 14.329 -4.697 16.663 -5 19 C-6.32 19.33 -7.64 19.66 -9 20 C-9.33 21.32 -9.66 22.64 -10 24 C-10.843 21.61 -11.154 20.415 -10.258 18 C-9.884 17.34 -9.51 16.68 -9.125 16 C-7.982 13.953 -7.056 12.225 -6.488 9.945 C-5.504 6.022 -2.817 2.817 0 0 Z " fill="#84A991" transform="translate(792,344)"/>
<path d="M0 0 C0.66 0.33 1.32 0.66 2 1 C1.859 1.689 1.718 2.378 1.573 3.089 C-2.126 20.972 -2.126 20.972 -5 39 C-7.314 35.529 -6.919 34.474 -6.293 30.539 C-5.699 25.388 -5.929 20.178 -6 15 C-5.34 15.33 -4.68 15.66 -4 16 C-2.68 10.72 -1.36 5.44 0 0 Z " fill="#E9EECE" transform="translate(222,333)"/>
<path d="M0 0 C2.97 0.495 2.97 0.495 6 1 C5.67 1.66 5.34 2.32 5 3 C4.103 3.093 4.103 3.093 3.188 3.188 C-0.434 4.533 -1.292 7.644 -3 11 C-2.5 10.673 -2 10.345 -1.484 10.008 C1.918 8.628 5.144 8.786 8.75 8.875 C9.447 8.884 10.145 8.893 10.863 8.902 C12.576 8.926 14.288 8.962 16 9 C16 9.33 16 9.66 16 10 C15.25 10.026 14.5 10.052 13.727 10.078 C7.155 10.442 1.931 11.456 -4.039 14.258 C-4.686 14.503 -5.333 14.748 -6 15 C-6.66 14.67 -7.32 14.34 -8 14 C-7.043 12.228 -6.085 10.458 -5.125 8.688 C-4.591 7.701 -4.058 6.715 -3.508 5.699 C-2 3 -2 3 0 0 Z " fill="#E5EACA" transform="translate(814,369)"/>
<path d="M0 0 C0.99 0.66 1.98 1.32 3 2 C3.66 1.67 4.32 1.34 5 1 C8 6.75 8 6.75 8 9 C5.03 9.66 2.06 10.32 -1 11 C-1.433 10.237 -1.866 9.474 -2.312 8.688 C-3.737 6.419 -5.033 4.78 -7 3 C-6.67 2.34 -6.34 1.68 -6 1 C-3.36 3.31 -0.72 5.62 2 8 C1.67 6.68 1.34 5.36 1 4 C0.667 2.667 0.333 1.333 0 0 Z " fill="#8AAF93" transform="translate(236,395)"/>
<path d="M0 0 C0.33 0 0.66 0 1 0 C1.049 0.638 1.098 1.276 1.148 1.934 C1.223 2.76 1.298 3.586 1.375 4.438 C1.445 5.261 1.514 6.085 1.586 6.934 C1.723 7.616 1.859 8.297 2 9 C2.66 9.33 3.32 9.66 4 10 C3.578 10.831 3.157 11.663 2.723 12.52 C2.175 13.606 1.627 14.693 1.062 15.812 C0.517 16.891 -0.028 17.97 -0.59 19.082 C-2.059 21.962 -2.059 21.962 -3 25 C-5.062 26.188 -5.062 26.188 -7 27 C-5.962 23.541 -4.749 20.54 -2.938 17.438 C-0.079 11.986 -0.184 6.04 0 0 Z " fill="#BDCAAA" transform="translate(810,360)"/>
<path d="M0 0 C0.33 0 0.66 0 1 0 C1.33 1.65 1.66 3.3 2 5 C2.66 4.67 3.32 4.34 4 4 C4.597 6.763 5 9.16 5 12 C5.66 12.33 6.32 12.66 7 13 C7 13.99 7 14.98 7 16 C5.02 16 3.04 16 1 16 C0.67 10.72 0.34 5.44 0 0 Z " fill="#85A68C" transform="translate(812,353)"/>
<path d="M0 0 C4.192 0.652 6.115 3.323 8.812 6.438 C8.483 7.098 8.153 7.757 7.812 8.438 C6.946 7.592 6.08 6.746 5.188 5.875 C2.864 3.978 2.209 3.447 -0.875 3.375 C-5.7 4.923 -10.455 6.627 -15.188 8.438 C-15.518 7.777 -15.847 7.118 -16.188 6.438 C-15.261 6.088 -14.334 5.739 -13.379 5.379 C-12.181 4.924 -10.984 4.469 -9.75 4 C-8.555 3.548 -7.36 3.095 -6.129 2.629 C-3.646 1.623 -2.508 0.502 0 0 Z " fill="#E0E9CB" transform="translate(239.1875,404.5625)"/>
<path d="M0 0 C1.32 0.99 2.64 1.98 4 3 C4.33 2.34 4.66 1.68 5 1 C5 2.65 5 4.3 5 6 C4.051 5.649 3.102 5.299 2.125 4.938 C-0.871 3.65 -0.871 3.65 -3 5 C-9.206 5.428 -13.294 4.446 -19 2 C-16.438 0.719 -15.724 1.297 -13 2 C-11.128 2.115 -9.251 2.175 -7.375 2.188 C-6.413 2.202 -5.452 2.216 -4.461 2.23 C-1.822 2.247 -1.822 2.247 0 0 Z " fill="#84A98D" transform="translate(210,365)"/>
<path d="M0 0 C0 4.16 -1.869 6.817 -3.809 10.43 C-4.998 12.995 -5.528 15.226 -6 18 C-6.644 20.007 -7.306 22.009 -8 24 C-8.33 24 -8.66 24 -9 24 C-10.171 15.632 -6.077 9.029 -2 2 C-1.34 1.34 -0.68 0.68 0 0 Z " fill="#A3BC9C" transform="translate(821,328)"/>
<path d="M0 0 C0.66 0.33 1.32 0.66 2 1 C-10.585 10.903 -10.585 10.903 -18 12 C-18.99 11.67 -19.98 11.34 -21 11 C-19.903 10.457 -18.806 9.915 -17.676 9.355 C-16.221 8.633 -14.767 7.91 -13.312 7.188 C-12.591 6.831 -11.87 6.475 -11.127 6.107 C-8.025 4.564 -5.04 3.026 -2.105 1.176 C-1.411 0.788 -0.716 0.4 0 0 Z " fill="#DFE7C8" transform="translate(853,399)"/>
<path d="M0 0 C0.66 0 1.32 0 2 0 C2.12 5.778 1.832 11.28 1 17 C0.01 16.67 -0.98 16.34 -2 16 C-2 14.02 -2 12.04 -2 10 C-1.34 10 -0.68 10 0 10 C0 6.7 0 3.4 0 0 Z " fill="#9AB79B" transform="translate(215,352)"/>
<path d="M0 0 C2.438 1.312 2.438 1.312 3.25 3.438 C3.312 4.056 3.374 4.675 3.438 5.312 C2.447 4.652 1.458 3.993 0.438 3.312 C-2.437 3.146 -2.437 3.146 -5.562 3.312 C-11.229 3.535 -11.229 3.535 -14.562 1.312 C-13.514 1.222 -13.514 1.222 -12.445 1.129 C-11.535 1.045 -10.625 0.961 -9.688 0.875 C-8.783 0.794 -7.878 0.713 -6.945 0.629 C-0.731 -0.196 -0.731 -0.196 0 0 Z " fill="#DEE7C8" transform="translate(211.5625,368.6875)"/>
<path d="M0 0 C0.33 0 0.66 0 1 0 C1.061 0.724 1.121 1.449 1.184 2.195 C1.615 7.171 2.07 12.087 3 17 C2.34 17.33 1.68 17.66 1 18 C-0.32 14.7 -1.64 11.4 -3 8 C-2.34 7.67 -1.68 7.34 -1 7 C-0.593 4.678 -0.256 2.343 0 0 Z " fill="#B3C7A7" transform="translate(217,363)"/>
<path d="M0 0 C0 4.356 -2.279 6.056 -5.109 9.191 C-7.244 11.234 -9.122 12.302 -12 13 C-11.691 12.402 -11.381 11.804 -11.062 11.188 C-9.898 8.91 -9.898 8.91 -9 6 C-7.018 4.966 -5.016 3.968 -3 3 C-1.184 1.439 -1.184 1.439 0 0 Z " fill="#DAE2C3" transform="translate(802,387)"/>
<path d="M0 0 C0.66 0 1.32 0 2 0 C2.33 2.31 2.66 4.62 3 7 C2.01 7.495 2.01 7.495 1 8 C-0.134 10.017 -0.134 10.017 -1 12 C-2.099 8.703 -1.871 7.595 -1.062 4.312 C-0.868 3.504 -0.673 2.696 -0.473 1.863 C-0.317 1.248 -0.161 0.634 0 0 Z " fill="#B3C5A5" transform="translate(224,332)"/>
<path d="M0 0 C2.01 3.015 2.726 5.215 3.625 8.688 C3.885 9.681 4.146 10.675 4.414 11.699 C4.607 12.458 4.801 13.218 5 14 C3.68 14.99 2.36 15.98 1 17 C1.206 16.154 1.413 15.309 1.625 14.438 C2.061 10.442 1.198 7.804 0 4 C0 2.68 0 1.36 0 0 Z " fill="#E2ECCF" transform="translate(778,393)"/>
<path d="M0 0 C1.904 2.856 2.695 4.931 3.625 8.188 C3.885 9.089 4.146 9.99 4.414 10.918 C4.607 11.605 4.801 12.292 5 13 C3.35 14.32 1.7 15.64 0 17 C0.371 16.319 0.742 15.639 1.125 14.938 C2.286 11.04 1.228 8.82 0 5 C-0.125 2.062 -0.125 2.062 0 0 Z " fill="#7C9B81" transform="translate(780,394)"/>
<path d="M0 0 C0 3.196 -0.547 4.417 -2 7.188 C-2.371 7.903 -2.742 8.618 -3.125 9.355 C-3.558 10.17 -3.558 10.17 -4 11 C-4.99 10.67 -5.98 10.34 -7 10 C-5.332 6.059 -2.773 3.211 0 0 Z " fill="#A0BD9E" transform="translate(801,390)"/>
<path d="M0 0 C0.66 0 1.32 0 2 0 C0.434 4.308 -1.683 8.062 -4 12 C-4.66 12 -5.32 12 -6 12 C-6 11.01 -6 10.02 -6 9 C-5 8 -4 7 -3 6 C-1.954 4.024 -0.946 2.026 0 0 Z " fill="#DEE9CC" transform="translate(775,412)"/>
<path d="M0 0 C3.658 3.361 6.178 6.345 8 11 C7.67 11.99 7.34 12.98 7 14 C6.662 13.374 6.325 12.747 5.977 12.102 C5.531 11.284 5.085 10.467 4.625 9.625 C4.184 8.813 3.743 8.001 3.289 7.164 C2.056 4.892 2.056 4.892 0 3 C0 2.01 0 1.02 0 0 Z " fill="#E0ECD1" transform="translate(248,413)"/>
<path d="M0 0 C2.125 -0.375 2.125 -0.375 5 0 C7.239 1.793 9.125 3.835 11 6 C10.67 6.66 10.34 7.32 10 8 C8.503 6.698 7.005 5.396 5.508 4.094 C4.041 2.804 4.041 2.804 2 3 C2 2.34 2 1.68 2 1 C1.34 0.67 0.68 0.34 0 0 Z " fill="#D7E2C5" transform="translate(237,405)"/>
<path d="M0 0 C1.129 0.933 2.253 1.871 3.375 2.812 C4.001 3.335 4.628 3.857 5.273 4.395 C7 6 7 6 9 9 C6.688 8.812 6.688 8.812 4 8 C2.062 5.37 1.033 3.099 0 0 Z " fill="#9DBE9D" transform="translate(221,387)"/>
<path d="M0 0 C0.33 0 0.66 0 1 0 C0.67 5.94 0.34 11.88 0 18 C-0.33 18 -0.66 18 -1 18 C-1.222 15.751 -1.427 13.501 -1.625 11.25 C-1.741 9.997 -1.857 8.744 -1.977 7.453 C-1.999 4.164 -1.78 2.69 0 0 Z " fill="#F1F5D6" transform="translate(777,369)"/>
<path d="M0 0 C1.485 0.99 1.485 0.99 3 2 C3.66 1.67 4.32 1.34 5 1 C5.33 2.65 5.66 4.3 6 6 C5.34 6 4.68 6 4 6 C3.67 6.66 3.34 7.32 3 8 C0 2.25 0 2.25 0 0 Z " fill="#8FB699" transform="translate(236,395)"/>
<path d="M0 0 C0 3.906 -1.318 6.506 -3 10 C-3.99 10.495 -3.99 10.495 -5 11 C-4.508 4.6 -4.508 4.6 -1.938 1.562 C-0.978 0.789 -0.978 0.789 0 0 Z " fill="#8FB096" transform="translate(792,344)"/>
<path d="M0 0 C0.66 0 1.32 0 2 0 C1.01 3.3 0.02 6.6 -1 10 C-1.33 10 -1.66 10 -2 10 C-2.179 6.053 -2.094 3.402 0 0 Z " fill="#E0EBCE" transform="translate(766,429)"/>
<path d="M0 0 C0.66 0 1.32 0 2 0 C2.688 1.812 2.688 1.812 3 4 C1.562 5.75 1.562 5.75 0 7 C-1.125 2.25 -1.125 2.25 0 0 Z " fill="#93BC9D" transform="translate(214,395)"/>
<path d="M0 0 C0.99 0 1.98 0 3 0 C2.312 1.938 2.312 1.938 1 4 C-1.625 4.75 -1.625 4.75 -4 5 C-2.188 2.5 -2.188 2.5 0 0 Z " fill="#9EBB9B" transform="translate(797,388)"/>
<path d="M0 0 C0.33 0 0.66 0 1 0 C1.33 1.65 1.66 3.3 2 5 C2.66 4.67 3.32 4.34 4 4 C4.33 4.99 4.66 5.98 5 7 C3.35 7.33 1.7 7.66 0 8 C0 5.36 0 2.72 0 0 Z " fill="#96B398" transform="translate(812,353)"/>
<path d="M0 0 C0.125 2.875 0.125 2.875 0 6 C-0.66 6.66 -1.32 7.32 -2 8 C-2.33 5.69 -2.66 3.38 -3 1 C-1 0 -1 0 0 0 Z " fill="#E4E7C8" transform="translate(810,348)"/>
  </g>
  <g id="text-layer">
    <text x="50%" y="25%" font-family="serif" font-size="80" fill="#3A6A5A" text-anchor="middle" dominant-baseline="middle">COMING</text>
  <text x="50%" y="40%" font-family="serif" font-size="80" fill="#3A6A5A" text-anchor="middle" dominant-baseline="middle">SOON</text>
  <text x="50%" y="55%" font-family="serif" font-size="40" fill="#3A6A5A" text-anchor="middle" dominant-baseline="middle">We're Iaunching</text>
  <text x="50%" y="60%" font-family="serif" font-size="40" fill="#3A6A5A" text-anchor="middle" dominant-baseline="middle">something exciting!</text>
  <text x="50%" y="75%" font-family="serif" font-size="30" fill="#3A6A5A" text-anchor="middle" dominant-baseline="middle">www.uachergtv.com</text>
  <text x="50%" y="80%" font-family="serif" font-size="30" fill="#3A6A5A" text-anchor="middle" dominant-baseline="middle">June 16, 2024</text>
  </g>
</svg>