<?xml version="1.0" encoding="UTF-8"?>
<!-- Generator: visioncortex VTracer 0.6.4 -->
<svg version="1.1" xmlns="http://www.w3.org/2000/svg" width="1024" height="1024">
<path d="M0 0 C337.92 0 675.84 0 1024 0 C1024 337.92 1024 675.84 1024 1024 C686.08 1024 348.16 1024 0 1024 C0 686.08 0 348.16 0 0 Z " fill="#080808" transform="translate(0,0)"/>
<path d="M0 0 C1.087 0.278 2.173 0.557 3.293 0.844 C17.218 4.703 27.456 11.528 37.555 21.565 C38.885 22.886 40.239 24.184 41.594 25.48 C45.611 29.363 45.611 29.363 47 31 C47 31.66 47 32.32 47 33 C47.66 33 48.32 33 49 33 C55.91 42.992 60.9 53.263 64 65 C64.244 65.86 64.487 66.72 64.738 67.605 C67.701 80.283 67.526 96.476 64 109 C63.755 109.92 63.51 110.841 63.258 111.789 C59.282 125.122 52.374 136.767 43 147 C42.206 147.875 41.412 148.751 40.594 149.652 C34.967 155.573 29.105 159.999 22 164 C21.122 164.523 20.244 165.047 19.34 165.586 C12.147 169.572 4.865 171.496 -3.146 173.088 C-8.293 174.174 -8.293 174.174 -12.34 177.41 C-12.888 178.265 -13.436 179.119 -14 180 C-15.317 181.33 -16.67 182.625 -18.062 183.875 C-18.734 184.491 -19.406 185.107 -20.098 185.742 C-20.725 186.157 -21.353 186.572 -22 187 C-22.99 186.67 -23.98 186.34 -25 186 C-25 184.68 -25 183.36 -25 182 C-25.639 181.856 -26.279 181.711 -26.938 181.562 C-29 181 -29 181 -30 180 C-30.041 178.334 -30.043 176.666 -30 175 C-31.114 174.925 -32.228 174.85 -33.375 174.773 C-56.028 172.944 -75.915 163.32 -91 146 C-104.699 128.936 -111.232 110.641 -111.312 88.75 C-111.315 88.077 -111.318 87.403 -111.32 86.709 C-111.326 72.683 -109.844 59.494 -103 47 C-102.484 46.047 -101.969 45.095 -101.438 44.113 C-88.616 21.303 -68.073 6.261 -43.105 -1.238 C-28.991 -4.7 -13.905 -3.863 0 0 Z " fill="#090808" transform="translate(535,529)"/>
<path d="M0 0 C1.087 0.278 2.173 0.557 3.293 0.844 C17.218 4.703 27.456 11.528 37.555 21.565 C38.885 22.886 40.239 24.184 41.594 25.48 C45.611 29.363 45.611 29.363 47 31 C47 31.66 47 32.32 47 33 C47.66 33 48.32 33 49 33 C55.91 42.992 60.9 53.263 64 65 C64.244 65.86 64.487 66.72 64.738 67.605 C67.701 80.283 67.526 96.476 64 109 C63.755 109.92 63.51 110.841 63.258 111.789 C59.282 125.122 52.374 136.767 43 147 C42.206 147.875 41.412 148.751 40.594 149.652 C34.967 155.573 29.105 159.999 22 164 C21.122 164.523 20.244 165.047 19.34 165.586 C12.147 169.572 4.865 171.496 -3.146 173.088 C-8.293 174.174 -8.293 174.174 -12.34 177.41 C-12.888 178.265 -13.436 179.119 -14 180 C-15.317 181.33 -16.67 182.625 -18.062 183.875 C-18.734 184.491 -19.406 185.107 -20.098 185.742 C-20.725 186.157 -21.353 186.572 -22 187 C-22.99 186.67 -23.98 186.34 -25 186 C-25 184.68 -25 183.36 -25 182 C-25.639 181.856 -26.279 181.711 -26.938 181.562 C-29 181 -29 181 -30 180 C-30.041 178.334 -30.043 176.666 -30 175 C-31.114 174.925 -32.228 174.85 -33.375 174.773 C-56.028 172.944 -75.915 163.32 -91 146 C-104.699 128.936 -111.232 110.641 -111.312 88.75 C-111.315 88.077 -111.318 87.403 -111.32 86.709 C-111.326 72.683 -109.844 59.494 -103 47 C-102.484 46.047 -101.969 45.095 -101.438 44.113 C-88.616 21.303 -68.073 6.261 -43.105 -1.238 C-28.991 -4.7 -13.905 -3.863 0 0 Z M-80.883 35.266 C-95.792 53.287 -101.652 73.91 -99.83 97.169 C-97.697 117.66 -87.64 134.215 -72.062 147.438 C-61.427 155.334 -50.793 159.368 -38 162 C-37.204 162.174 -36.407 162.349 -35.587 162.528 C-14.659 166.344 5.378 161.069 22.672 149.16 C37.501 137.9 49.546 122.061 53.375 103.562 C56.277 80.717 53.586 60.332 40.055 41.258 C38.115 38.755 36.105 36.365 34 34 C33.385 33.303 32.77 32.605 32.137 31.887 C19.42 18.328 1.65 10.558 -16.812 9.594 C-41.018 8.988 -64.524 16.269 -80.883 35.266 Z " fill="#7F4A37" transform="translate(535,529)"/>
<path d="M0 0 C0.66 0 1.32 0 2 0 C2.166 0.701 2.332 1.402 2.502 2.124 C4.479 10.273 6.856 18.254 9.375 26.25 C9.776 27.534 10.176 28.818 10.576 30.102 C12.255 35.487 13.948 40.868 15.699 46.23 C15.935 46.96 16.171 47.69 16.415 48.442 C17.01 50.275 17.616 52.105 18.223 53.934 C19.034 57.133 19.291 59.715 19 63 C18.34 63.99 17.68 64.98 17 66 C14.051 66.388 14.051 66.388 10.312 66.398 C9.325 66.403 9.325 66.403 8.318 66.407 C6.926 66.409 5.534 66.404 4.142 66.391 C2.008 66.375 -0.124 66.391 -2.258 66.41 C-3.609 66.408 -4.961 66.404 -6.312 66.398 C-7.546 66.395 -8.78 66.392 -10.051 66.388 C-11.511 66.196 -11.511 66.196 -13 66 C-15.711 61.933 -15.525 58.702 -15 54 C-13.846 48.5 -12.374 43.102 -10.875 37.688 C-10.463 36.168 -10.052 34.648 -9.641 33.127 C-6.626 22.026 -3.439 10.978 0 0 Z " fill="#7C4B38" transform="translate(512,576)"/>
<path d="M0 0 C0.33 0 0.66 0 1 0 C1 19.8 1 39.6 1 60 C5.95 60 10.9 60 16 60 C16 60.33 16 60.66 16 61 C11.907 61.074 7.814 61.129 3.72 61.165 C2.327 61.18 0.934 61.2 -0.459 61.226 C-2.459 61.263 -4.46 61.278 -6.461 61.293 C-8.268 61.317 -8.268 61.317 -10.111 61.341 C-11.541 61.172 -11.541 61.172 -13 61 C-15.717 56.925 -15.533 53.711 -15 49 C-13.965 44.082 -12.706 39.244 -11.375 34.399 C-10.754 32.14 -10.151 29.877 -9.551 27.613 C-4.451 8.581 -4.451 8.581 0 0 Z " fill="#946840" transform="translate(512,581)"/>
<path d="M0 0 C0.66 0 1.32 0 2 0 C9.998 23.606 9.998 23.606 13.335 35.302 C14.805 40.433 16.487 45.465 18.301 50.484 C19.029 53.106 19.131 55.293 19 58 C18.34 58 17.68 58 17 58 C16.627 56.76 16.254 55.52 15.87 54.243 C14.47 49.591 13.068 44.939 11.666 40.288 C11.062 38.284 10.459 36.281 9.856 34.277 C8.984 31.377 8.11 28.477 7.234 25.578 C6.952 24.644 6.67 23.71 6.38 22.747 C4.584 16.832 2.698 10.965 0.638 5.136 C0 3 0 3 0 0 Z " fill="#3D191A" transform="translate(514,579)"/>
<path d="M0 0 C0 3.419 -0.972 4.615 -2.896 7.328 C-13.181 21.849 -16.192 37.399 -16.062 54.938 C-16.058 56.098 -16.053 57.259 -16.049 58.455 C-16.037 61.303 -16.021 64.152 -16 67 C-17.827 63.869 -18.256 61.574 -18.266 57.965 C-18.268 56.99 -18.271 56.014 -18.273 55.01 C-18.266 53.996 -18.258 52.982 -18.25 51.938 C-18.262 50.457 -18.262 50.457 -18.273 48.947 C-18.251 40.351 -17.552 31.686 -14 23.75 C-12.339 19.87 -11.065 16.083 -10 12 C-9.34 12 -8.68 12 -8 12 C-6.717 9.618 -5.86 7.5 -5.125 4.875 C-4 2 -4 2 -1.875 0.625 C-1.256 0.419 -0.637 0.212 0 0 Z " fill="#A35847" transform="translate(452,565)"/>
<path d="M0 0 C0 3 0 3 -2.125 5.25 C-3.074 6.158 -4.023 7.065 -5 8 C-5.963 9.225 -6.921 10.455 -7.875 11.688 C-10.909 15.322 -13.396 16.171 -18 17 C-14.351 13.297 -10.596 9.747 -6.75 6.25 C-3.326 3.176 -3.326 3.176 0 0 Z " fill="#8B443E" transform="translate(571,665)"/>
<path d="M0 0 C0.66 0.33 1.32 0.66 2 1 C1.125 2.021 0.25 3.042 -0.625 4.062 C-1.172 4.702 -1.718 5.341 -2.281 6 C-3.379 7.277 -4.482 8.548 -5.594 9.812 C-8.719 13.385 -11.457 16.99 -14 21 C-14.33 20.34 -14.66 19.68 -15 19 C-11.304 11.558 -6.115 5.543 0 0 Z " fill="#974D44" transform="translate(451,550)"/>
<path d="M0 0 C0.66 0 1.32 0 2 0 C2.533 1.913 3.051 3.831 3.562 5.75 C3.853 6.817 4.143 7.885 4.441 8.984 C5 12 5 12 4 16 C3.01 13.03 2.02 10.06 1 7 C0.01 7.66 -0.98 8.32 -2 9 C-1.34 6.03 -0.68 3.06 0 0 Z " fill="#925042" transform="translate(512,576)"/>
<path d="M0 0 C0.66 0.33 1.32 0.66 2 1 C0.048 2.197 -1.912 3.382 -3.875 4.562 C-4.966 5.224 -6.056 5.885 -7.18 6.566 C-8.576 7.276 -8.576 7.276 -10 8 C-10.66 7.67 -11.32 7.34 -12 7 C-8.965 3.498 -6.432 2.252 -2 1 C-1.34 0.67 -0.68 0.34 0 0 Z " fill="#934B41" transform="translate(482,543)"/>
<path d="M0 0 C0.99 0.33 1.98 0.66 3 1 C1.68 2.65 0.36 4.3 -1 6 C-1.99 5.67 -2.98 5.34 -4 5 C-3 2 -3 2 0 0 Z " fill="#723834" transform="translate(514,710)"/>
<path d="M0 0 C0 3.999 -1.726 5.802 -4 9 C-5.042 5.874 -5.238 4.953 -4 2 C-1.938 0.75 -1.938 0.75 0 0 Z " fill="#944F40" transform="translate(452,565)"/>
</svg>
