<?xml version="1.0" encoding="UTF-8"?>
<!-- Generator: visioncortex VTracer 0.6.4 -->
<svg version="1.1" xmlns="http://www.w3.org/2000/svg" width="1024" height="1024">
<path d="M0 0 C337.92 0 675.84 0 1024 0 C1024 337.92 1024 675.84 1024 1024 C686.08 1024 348.16 1024 0 1024 C0 686.08 0 348.16 0 0 Z " fill="#004FDA" transform="translate(0,0)"/>
<path d="M0 0 C0 120.12 0 240.24 0 364 C-104.94 364 -209.88 364 -318 364 C-311.164 353.745 -311.164 353.745 -308.25 350.438 C-307.678 349.776 -307.105 349.115 -306.516 348.434 C-305 347 -305 347 -303 347 C-302.736 346.41 -302.473 345.82 -302.201 345.211 C-300.95 342.908 -299.652 341.436 -297.777 339.617 C-297.157 339.007 -296.536 338.398 -295.896 337.77 C-295.25 337.144 -294.604 336.519 -293.938 335.875 C-292.653 334.625 -291.37 333.372 -290.09 332.117 C-289.237 331.291 -289.237 331.291 -288.367 330.449 C-286.893 329.026 -286.893 329.026 -286 327 C-284.334 326 -282.667 325 -281 324 C-279.141 322.468 -277.31 320.901 -275.5 319.312 C-263.862 309.268 -251.421 300.106 -238.949 291.129 C-234.679 288.046 -230.432 284.931 -226.188 281.812 C-225.374 281.217 -224.56 280.622 -223.722 280.009 C-220.244 277.453 -216.822 274.892 -213.551 272.074 C-211 270 -211 270 -209 270 C-209 269.34 -209 268.68 -209 268 C-207.137 266.309 -207.137 266.309 -204.688 264.438 C-203.887 263.817 -203.086 263.197 -202.262 262.559 C-200 261 -200 261 -197 260 C-197 259.34 -197 258.68 -197 258 C-195.531 256.52 -195.531 256.52 -193.5 254.812 C-192.773 254.192 -192.046 253.572 -191.297 252.934 C-190.16 251.976 -190.16 251.976 -189 251 C-184.543 247.225 -180.614 243.611 -177 239 C-176.224 238.395 -175.448 237.791 -174.648 237.168 C-171.956 234.964 -169.971 232.721 -167.812 230 C-164.59 225.976 -161.327 222 -158 218.062 C-150.812 209.437 -144.173 200.63 -138.41 190.984 C-137.945 190.33 -137.479 189.675 -137 189 C-136.34 189 -135.68 189 -135 189 C-134.908 188.305 -134.817 187.61 -134.723 186.895 C-133.842 183.367 -132.309 180.805 -130.438 177.688 C-123.621 166.087 -117.893 154.037 -112.59 141.68 C-111.239 138.531 -109.82 135.419 -108.375 132.312 C-105.63 126.318 -103.332 120.165 -101 114 C-99.702 110.652 -98.361 107.323 -97 104 C-96.723 103.322 -96.446 102.643 -96.16 101.944 C-91.838 91.405 -87.338 81.072 -82 71 C-81.675 70.376 -81.349 69.751 -81.014 69.108 C-73.254 54.306 -63.568 41.075 -52 29 C-51.285 28.233 -50.569 27.466 -49.832 26.676 C-38.028 14.37 -17.831 0 0 0 Z " fill="#0080E0" transform="translate(1024,660)"/>
<path d="M0 0 C8.25 0 16.5 0 25 0 C25 0.66 25 1.32 25 2 C25.895 2.039 25.895 2.039 26.809 2.078 C39.955 2.938 52.223 6.21 64.145 11.73 C66.465 12.762 68.524 13.502 71 14 C71 14.66 71 15.32 71 16 C71.887 16.268 72.774 16.536 73.688 16.812 C76.791 17.925 79.311 19.102 82 21 C82 21.66 82 22.32 82 23 C82.572 23.115 83.145 23.229 83.734 23.348 C86.215 24.062 88.064 25.073 90.25 26.438 C91.31 27.085 91.31 27.085 92.391 27.746 C92.922 28.16 93.453 28.574 94 29 C94 29.66 94 30.32 94 31 C94.59 31.269 95.18 31.539 95.788 31.816 C97.999 32.999 99.562 34.237 101.391 35.941 C102.325 36.81 102.325 36.81 103.279 37.696 C103.929 38.312 104.58 38.928 105.25 39.562 C105.922 40.196 106.593 40.829 107.285 41.482 C123.135 56.555 134.609 74.703 145.562 93.5 C146.057 94.342 146.551 95.184 147.061 96.051 C147.537 96.869 148.013 97.688 148.504 98.531 C149.151 99.638 149.151 99.638 149.811 100.768 C151 103 151 103 153 108 C102.51 108 52.02 108 0 108 C0 72.36 0 36.72 0 0 Z " fill="#0090DD" transform="translate(0,916)"/>
<path d="M0 0 C8.25 0 16.5 0 25 0 C25 0.66 25 1.32 25 2 C26.98 2 28.96 2 31 2 C31 2.33 31 2.66 31 3 C30.345 2.995 29.69 2.99 29.016 2.984 C26.01 2.963 23.005 2.95 20 2.938 C18.97 2.929 17.94 2.921 16.879 2.912 C11.15 2.894 5.665 3.135 0 4 C0 2.68 0 1.36 0 0 Z " fill="#0079DB" transform="translate(0,916)"/>
</svg>
