<svg xmlns="http://www.w3.org/2000/svg" width="1080" height="1080" viewBox="0 0 1080 1080">
  <g id="background-layer">
    <image href="http://localhost:5000/static/images/sessions/bg_20250625_165949_60d46dd1/background_20250625_165949_32ba6443.png" x="0" y="0" width="1080" height="1080"/>
  </g>
  <g id="elements-layer" opacity="0.8">
    <path d="M0 0 C337.92 0 675.84 0 1024 0 C1024 337.92 1024 675.84 1024 1024 C686.08 1024 348.16 1024 0 1024 C0 686.08 0 348.16 0 0 Z" fill="#8F1237"/>
    <path d="M0 0 C2.917 5.583 4.4 11.758 5 18 C5.186 19.299 5.371 20.599 5.562 21.938 C5.779 23.453 5.779 23.453 6 25 C6.949 24.938 7.897 24.876 8.875 24.812 C9.906 24.874 10.938 24.936 12 25 C12.99 26.485 12.99 26.485 14 28 C15.485 28.495 15.485 28.495 17 29 C17 30.32 17 31.64 17 33 C17.66 33 18.32 33 19 33 C19 35.97 19 38.94 19 42 C19.834 41.977 20.668 41.954 21.527 41.93 C28.382 41.82 34.39 42.261 41 44 C42.997 44.35 44.996 44.692 47 45 C47.381 46.991 47.713 48.993 48 51 C47.67 51.33 47.34 51.66 47 52 C48.32 52.66 49.64 53.32 51 54 C45.249 55.751 39.461 56.978 33.562 58.125 C32.64 58.307 31.718 58.489 30.768 58.676 C28.512 59.12 26.256 59.561 24 60 C23.745 60.897 23.49 61.794 23.227 62.719 C21.984 66.042 20.742 67.898 18.375 70.5 C17.428 71.567 17.428 71.567 16.461 72.656 C14 75 14 75 11.973 76.263 C7.637 78.937 7.637 78.937 5.295 83.272 C5.06 85.898 5.04 88.427 5.125 91.062 C5.198 103.549 5.198 103.549 1.375 107.812 C0.694 108.4 0.694 108.4 0 109 C-0.33 108.34 -0.66 107.68 -1 107 C-4.179 104.998 -7.313 104.503 -11 104 C-11.995 97.833 -12.308 91.734 -12.518 85.496 C-12.71 81.193 -13.249 77.985 -15 74 C-15 72.68 -15 71.36 -15 70 C-17.31 70 -19.62 70 -22 70 C-24.005 66.257 -25 63.263 -25 59 C-25.99 59 -26.98 59 -28 59 C-28 61.31 -28 63.62 -28 66 C-28.33 66 -28.66 66 -29 66 C-29 63.69 -29 61.38 -29 59 C-29.66 60.32 -30.32 61.64 -31 63 C-31.359 62.519 -31.717 62.039 -32.087 61.543 C-34.851 59.314 -37.091 59.486 -40.609 59.305 C-41.922 59.229 -43.234 59.153 -44.586 59.074 C-45.974 59.007 -47.362 58.941 -48.75 58.875 C-51.453 58.731 -54.156 58.58 -56.859 58.43 C-58.661 58.341 -58.661 58.341 -60.499 58.25 C-64.065 57.995 -67.496 57.721 -71 57 C-72.928 54.044 -73.889 51.333 -75 48 C-68.807 45.661 -63.023 44.42 -56.438 43.875 C-54.832 43.727 -53.226 43.579 -51.621 43.43 C-50.851 43.36 -50.08 43.291 -49.287 43.219 C-42.065 42.557 -42.065 42.557 -35 41 C-34.856 39.886 -34.711 38.773 -34.562 37.625 C-34 34 -34 34 -33 32 C-32.34 32 -31.68 32 -31 32 C-30.794 31.423 -30.588 30.845 -30.375 30.25 C-27.367 25.328 -22.29 23.61 -17 22 C-14.861 21.283 -14.861 21.283 -13 20 C-12.105 18.039 -12.105 18.039 -11.77 15.719 C-11.606 14.877 -11.443 14.035 -11.275 13.168 C-11.123 12.288 -10.97 11.407 -10.812 10.5 C-10.488 8.76 -10.161 7.02 -9.832 5.281 C-9.695 4.508 -9.558 3.736 -9.417 2.939 C-9 1 -9 1 -8 -1 C-4.662 -2.381 -2.961 -1.984 0 0 Z" fill="#060092"/>
    <path d="M0 0 C4.254 1.276 6.181 1.874 8.5 5.75 C9.16 8.492 9.16 8.492 9.562 11.625 C9.721 12.767 9.88 13.909 10.043 15.086 C10.353 17.568 10.646 20.053 10.926 22.539 C11.074 23.764 11.222 24.988 11.375 26.25 C11.496 27.374 11.617 28.498 11.742 29.656 C12.623 33.254 14.043 35.022 16.5 37.75 C17.16 38.74 17.82 39.73 18.5 40.75 C21.774 41.041 21.774 41.041 25.625 40.812 C38.109 40.509 50.227 42.565 62.5 44.75 C58.856 47.179 56.788 46.912 52.5 46.75 C52.5 48.07 52.5 49.39 52.5 50.75 C54.81 50.75 57.12 50.75 59.5 50.75 C55.672 55.145 52.867 55.549 47.195 56.031 C45.428 56.14 45.428 56.14 43.625 56.25 C36.532 56.73 36.532 56.73 29.5 57.75 C28.345 57.936 27.19 58.121 26 58.312 C21.756 60.056 19.9 62.262 17.082 65.793 C15.5 67.75 15.5 67.75 13 69.938 C12.505 70.536 12.01 71.134 11.5 71.75 C11.717 72.833 11.717 72.833 11.938 73.938 C12.676 77.631 11.611 79.791 10.328 83.262 C9.181 86.709 8.608 90.201 8.027 93.781 C7.853 94.431 7.679 95.081 7.5 95.75 C6.51 96.245 6.51 96.245 5.5 96.75 C5.17 96.09 4.84 95.43 4.5 94.75 C1.05 93.6 -1.853 92.75 -5.5 92.75 C-5.83 92.75 -6.16 92.75 -6.5 92.75 C-6.58 92.125 -6.661 91.501 -6.744 90.857 C-7.116 87.988 -7.495 85.119 -7.875 82.25 C-8.001 81.268 -8.128 80.285 -8.258 79.273 C-8.844 74.875 -9.472 70.576 -10.602 66.281 C-11.5 62.75 -11.5 62.75 -11.5 58.75 C-12.487 58.762 -13.475 58.773 -14.492 58.785 C-15.774 58.794 -17.055 58.803 -18.375 58.812 C-19.651 58.824 -20.927 58.836 -22.242 58.848 C-25.5 58.75 -25.5 58.75 -27.5 57.75 C-30.129 57.542 -32.742 57.376 -35.375 57.25 C-39.522 57.05 -43.472 56.816 -47.5 55.75 C-49.168 56.076 -50.835 56.408 -52.5 56.75 C-53.49 56.42 -54.48 56.09 -55.5 55.75 C-55.5 55.09 -55.5 54.43 -55.5 53.75 C-52.53 53.255 -52.53 53.255 -49.5 52.75 C-50.16 51.1 -50.82 49.45 -51.5 47.75 C-52.985 48.245 -52.985 48.245 -54.5 48.75 C-54.17 47.76 -53.84 46.77 -53.5 45.75 C-51.172 44.617 -51.172 44.617 -48.25 43.625 C-47.296 43.292 -46.342 42.96 -45.359 42.617 C-42.747 41.825 -40.185 41.23 -37.5 40.75 C-37.5 41.41 -37.5 42.07 -37.5 42.75 C-35.229 42.441 -32.958 42.128 -30.688 41.812 C-29.423 41.638 -28.158 41.464 -26.855 41.285 C-22.127 40.536 -22.127 40.536 -18.438 37.688 C-17.798 37.048 -17.159 36.409 -16.5 35.75 C-15.84 35.75 -15.18 35.75 -14.5 35.75 C-14.5 35.09 -14.5 34.43 -14.5 33.75 C-13.84 33.09 -13.18 32.43 -12.5 31.75 C-11.857 29.681 -11.857 29.681 -11.5 27.75 C-10.84 27.75 -10.18 27.75 -9.5 27.75 C-9.397 26.595 -9.294 25.44 -9.188 24.25 C-8.66 19.596 -7.93 14.988 -7.125 10.375 C-7.011 9.673 -6.897 8.971 -6.78 8.248 C-6.261 5.382 -5.781 3.137 -4.055 0.758 C-2.5 -0.25 -2.5 -0.25 0 0 Z " fill="#FD6500"/>
    <path d="M0 0 C3.548 1.456 3.925 1.841 5.688 5.562 C7.325 10.93 7.449 16.395 7.534 21.971 C7.66 26.474 8.209 29.415 11 33 C11.66 33.33 12.32 33.66 13 34 C13 34.66 13 35.32 13 36 C14.011 35.938 15.021 35.876 16.062 35.812 C20.399 35.828 24.613 36.44 28.875 37.188 C30.82 37.518 30.82 37.518 32.805 37.855 C36 39 36 39 37.445 41.613 C37.628 42.401 37.811 43.189 38 44 C36.68 44.33 35.36 44.66 34 45 C34 45.66 34 46.32 34 47 C30.261 48.869 25.703 48.357 21.578 48.523 C17.667 49.044 15.275 49.801 12 52 C7.839 57.822 7.913 65.213 7.184 72.121 C7.071 73.074 6.959 74.026 6.844 75.008 C6.753 75.87 6.662 76.733 6.568 77.622 C5.916 80.351 4.812 81.887 3 84 C-1.875 82.125 -1.875 82.125 -3 81 C-3.415 79.189 -3.779 77.366 -4.121 75.539 C-4.334 74.428 -4.548 73.317 -4.768 72.172 C-5.213 69.816 -5.655 67.459 -6.096 65.102 C-6.31 63.988 -6.525 62.874 -6.746 61.727 C-6.939 60.701 -7.131 59.676 -7.33 58.62 C-7.899 55.793 -7.899 55.793 -10 53 C-13.054 51.787 -13.054 51.787 -16 51 C-16 50.34 -16 49.68 -16 49 C-27.55 48.34 -39.1 47.68 -51 47 C-51.33 45.02 -51.66 43.04 -52 41 C-46.583 39.257 -41.469 38.537 -35.812 38.062 C-21.71 36.788 -21.71 36.788 -9 31 C-5.648 26.331 -5.591 21.663 -5.238 16.113 C-4.352 4.53 -4.352 4.53 -1.43 1.223 C-0.958 0.819 -0.486 0.416 0 0 Z"/>
  </g>
  <g id="text-layer" style="mix-blend-mode: screen;">
    <text x="50%" y="45%" class="title" dominant-baseline="middle" text-anchor="middle" style="font-family:'Arial Black',Arial,sans-serif;font-weight:900;font-size:180px;fill:#ffffff;filter:drop-shadow(0 0 10px #ff66ff); letter-spacing:3px;">COMING</text>
    <text x="50%" y="65%" class="title" dominant-baseline="middle" text-anchor="middle" style="font-family:'Arial Black',Arial,sans-serif;font-weight:900;font-size:180px;fill:#ffffff;filter:drop-shadow(0 0 10px #ff66ff); letter-spacing:3px;">SOON</text>
    <text x="50%" y="85%" class="timer" dominant-baseline="middle" text-anchor="middle" style="font-family:'Arial Black',Arial,sans-serif;font-weight:900;font-size:80px;fill:#ffffff;filter:drop-shadow(0 0 6px #ff66ff); letter-spacing:5px;">09 :: 23 | 59 : 43</text>
  </g>
</svg>