<?xml version="1.0" encoding="UTF-8"?>
<!-- Generator: visioncortex VTracer 0.6.4 -->
<svg version="1.1" xmlns="http://www.w3.org/2000/svg" width="1024" height="1024">
<path d="M0 0 C337.92 0 675.84 0 1024 0 C1024 337.92 1024 675.84 1024 1024 C686.08 1024 348.16 1024 0 1024 C0 686.08 0 348.16 0 0 Z " fill="#040404" transform="translate(0,0)"/>
<path d="M0 0 C1.018 -0.007 2.035 -0.013 3.083 -0.02 C4.759 -0.008 4.759 -0.008 6.467 0.004 C7.656 0.001 8.845 -0.002 10.069 -0.005 C13.373 -0.011 16.677 -0.004 19.981 0.009 C23.549 0.02 27.116 0.014 30.684 0.009 C37.701 0.004 44.718 0.014 51.735 0.03 C59.999 0.047 68.263 0.049 76.526 0.049 C91.392 0.051 106.257 0.067 121.122 0.091 C135.322 0.114 149.522 0.128 163.722 0.132 C165.015 0.132 165.015 0.132 166.334 0.132 C169.805 0.133 173.277 0.134 176.749 0.135 C214.075 0.145 251.402 0.214 288.728 0.333 C298.592 0.364 308.456 0.385 318.32 0.402 C329.082 0.422 339.844 0.459 350.606 0.523 C355.83 0.555 361.055 0.579 366.279 0.581 C370.965 0.584 375.65 0.61 380.335 0.655 C382.003 0.667 383.671 0.671 385.338 0.666 C387.573 0.66 389.806 0.684 392.04 0.716 C393.888 0.725 393.888 0.725 395.772 0.734 C399.879 1.549 401.361 3.187 403.984 6.372 C405.71 9.823 405.132 13.81 405.131 17.609 C405.135 18.579 405.139 19.549 405.143 20.548 C405.154 23.819 405.157 27.09 405.161 30.36 C405.167 32.698 405.174 35.035 405.181 37.372 C405.199 43.741 405.209 50.109 405.217 56.478 C405.222 60.46 405.229 64.442 405.235 68.423 C405.252 79.46 405.266 90.496 405.274 101.532 C405.276 104.397 405.277 107.263 405.279 110.128 C405.28 110.84 405.28 111.552 405.281 112.286 C405.289 123.791 405.314 135.297 405.347 146.802 C405.38 158.63 405.398 170.458 405.401 182.286 C405.403 188.92 405.412 195.554 405.438 202.189 C405.461 208.442 405.465 214.696 405.455 220.949 C405.454 223.234 405.461 225.518 405.475 227.802 C405.596 249.085 403.798 267.925 388.461 284.083 C378.725 293.082 365.835 298.491 352.52 298.501 C350.882 298.505 350.882 298.505 349.212 298.51 C347.421 298.508 347.421 298.508 345.594 298.506 C344.322 298.508 343.049 298.51 341.738 298.513 C338.208 298.519 334.678 298.518 331.147 298.517 C327.338 298.517 323.53 298.523 319.721 298.527 C312.258 298.536 304.795 298.538 297.332 298.539 C291.262 298.539 285.192 298.542 279.122 298.545 C261.902 298.553 244.682 298.558 227.461 298.557 C226.533 298.557 225.605 298.557 224.648 298.557 C223.718 298.557 222.789 298.557 221.831 298.557 C206.784 298.557 191.736 298.566 176.689 298.58 C161.228 298.595 145.766 298.602 130.305 298.601 C121.63 298.6 112.954 298.603 104.278 298.614 C96.887 298.623 89.496 298.625 82.105 298.618 C78.338 298.615 74.571 298.615 70.804 298.624 C66.708 298.633 62.613 298.627 58.517 298.619 C57.343 298.624 56.169 298.629 54.96 298.635 C35.451 298.554 18.793 294.569 4.234 281.059 C-10.016 265.837 -9.607 246.414 -9.533 226.838 C-9.539 224.397 -9.546 221.956 -9.555 219.515 C-9.571 213.614 -9.569 207.713 -9.557 201.812 C-9.548 197.018 -9.547 192.224 -9.551 187.43 C-9.552 186.744 -9.552 186.059 -9.553 185.353 C-9.554 183.961 -9.555 182.568 -9.557 181.176 C-9.568 168.169 -9.555 155.162 -9.534 142.155 C-9.516 130.995 -9.519 119.836 -9.537 108.676 C-9.559 95.692 -9.567 82.708 -9.555 69.724 C-9.554 68.341 -9.552 66.958 -9.551 65.575 C-9.55 64.894 -9.55 64.214 -9.549 63.513 C-9.546 58.718 -9.552 53.923 -9.561 49.129 C-9.573 42.688 -9.565 36.247 -9.541 29.806 C-9.536 27.439 -9.538 25.071 -9.546 22.703 C-9.557 19.482 -9.544 16.261 -9.524 13.04 C-9.533 12.095 -9.542 11.149 -9.551 10.176 C-9.54 9.316 -9.53 8.456 -9.519 7.569 C-9.518 6.826 -9.518 6.082 -9.517 5.316 C-9.016 3.372 -9.016 3.372 -7.298 1.633 C-4.63 0.159 -3.035 -0.002 0 0 Z " fill="#F1FEFE" transform="translate(315.01577281951904,268.6280632019043)"/>
<path d="M0 0 C13.787 -0.032 27.569 0.067 41.354 0.34 C43.421 0.379 45.489 0.414 47.557 0.444 C50.616 0.49 53.674 0.548 56.733 0.608 C57.656 0.62 58.579 0.632 59.529 0.643 C60.81 0.673 60.81 0.673 62.116 0.704 C62.86 0.717 63.605 0.73 64.372 0.744 C66.81 1.07 68.409 1.658 70.456 3.022 C71.108 6.218 71.108 6.218 71.393 10.147 C72.164 17.992 74.224 22.6 79.581 28.272 C87.321 32.984 95.405 35.33 104.456 34.022 C110.473 32.318 117.852 29.718 121.565 24.448 C124.387 19.271 125.784 13.663 127.233 7.976 C128.716 4.393 130.166 3.035 133.456 1.022 C146.69 -1.751 165.229 4.151 176.53 10.843 C188.6 19.241 195.679 29.446 198.456 44.022 C198.762 47.287 198.83 50.537 198.862 53.815 C198.873 54.724 198.885 55.634 198.897 56.57 C198.915 58.479 198.929 60.387 198.936 62.296 C198.956 65.213 199.018 68.127 199.081 71.044 C199.094 72.905 199.104 74.767 199.112 76.628 C199.137 77.496 199.161 78.364 199.187 79.258 C199.181 80.072 199.175 80.887 199.169 81.726 C199.18 82.793 199.18 82.793 199.191 83.881 C198.024 87.281 195.424 89.182 192.456 91.022 C189.14 91.642 189.14 91.642 185.456 91.633 C184.772 91.639 184.088 91.644 183.384 91.649 C181.093 91.661 178.804 91.637 176.513 91.613 C174.854 91.614 173.195 91.617 171.536 91.622 C166.977 91.629 162.42 91.606 157.861 91.577 C152.945 91.551 148.029 91.554 143.112 91.554 C133.482 91.548 123.851 91.516 114.221 91.474 C106.395 91.44 98.569 91.417 90.743 91.4 C89.63 91.398 88.517 91.396 87.37 91.393 C85.109 91.389 82.847 91.384 80.586 91.38 C60.584 91.338 40.582 91.272 20.58 91.192 C1.164 91.115 -18.252 91.059 -37.668 91.026 C-58.803 90.99 -79.938 90.941 -101.072 90.871 C-103.325 90.864 -105.578 90.856 -107.831 90.849 C-108.94 90.845 -110.049 90.841 -111.191 90.838 C-119.009 90.813 -126.826 90.796 -134.644 90.783 C-144.17 90.767 -153.695 90.737 -163.221 90.688 C-168.082 90.663 -172.943 90.645 -177.805 90.644 C-182.253 90.643 -186.702 90.623 -191.15 90.589 C-192.761 90.58 -194.372 90.577 -195.983 90.582 C-198.171 90.588 -200.357 90.569 -202.544 90.544 C-204.368 90.538 -204.368 90.538 -206.228 90.531 C-210.217 89.919 -212.411 88.52 -215.544 86.022 C-217.153 82.805 -216.75 79.29 -216.782 75.753 C-216.791 74.921 -216.799 74.089 -216.807 73.232 C-216.821 71.462 -216.832 69.693 -216.839 67.923 C-216.851 66.134 -216.871 64.345 -216.901 62.556 C-217.177 45.941 -215.194 30.005 -203.294 17.21 C-190.251 5.254 -173.725 1.914 -156.607 1.71 C-155.682 1.692 -154.757 1.675 -153.804 1.656 C-152.926 1.657 -152.047 1.658 -151.142 1.659 C-150.353 1.656 -149.564 1.653 -148.751 1.65 C-145.962 2.121 -144.588 3.092 -142.544 5.022 C-141.892 7.878 -141.892 7.878 -141.607 11.21 C-140.67 18.586 -138.513 23.053 -133.294 28.272 C-124.363 33.956 -116.565 35.398 -105.993 33.585 C-98.984 31.648 -93.79 27.241 -89.669 21.335 C-88.279 17.24 -87.796 13.22 -87.365 8.925 C-86.269 5.048 -84.648 3.564 -81.544 1.022 C-78.315 0.383 -78.315 0.383 -74.612 0.363 C-73.933 0.353 -73.254 0.342 -72.554 0.331 C-70.308 0.302 -68.064 0.309 -65.818 0.315 C-64.23 0.302 -62.643 0.287 -61.056 0.27 C-56.861 0.23 -52.666 0.22 -48.471 0.216 C-44.306 0.206 -40.142 0.169 -35.978 0.134 C-27.212 0.065 -18.446 0.039 -9.68 0.026 C-6.453 0.021 -3.227 0.01 0 0 Z " fill="#EBF7FD" transform="translate(521.544189453125,169.9775390625)"/>
<path d="M0 0 C3.791 2.816 5.527 6.022 7.02 10.5 C7.298 15.839 7.333 21.177 7.37 26.522 C7.386 28.29 7.413 30.058 7.452 31.826 C7.507 34.388 7.528 36.949 7.543 39.512 C7.566 40.292 7.588 41.073 7.612 41.877 C7.589 47.85 5.803 51.881 2.02 56.5 C-3.146 60.717 -7.567 61.126 -14.172 60.887 C-19.235 60.19 -21.786 57.727 -25.23 54.188 C-29.927 46.975 -29.353 38.642 -29.351 30.367 C-29.355 28.137 -29.392 25.909 -29.43 23.68 C-29.549 8.866 -29.549 8.866 -24.98 2.5 C-17.368 -4.591 -8.981 -5.386 0 0 Z " fill="#E9EFFC" transform="translate(416.98046875,132.5)"/>
<path d="M0 0 C3.723 2.659 6.555 5.736 8.625 9.875 C8.761 12.698 8.838 15.496 8.863 18.32 C8.871 19.164 8.879 20.008 8.888 20.877 C8.902 22.668 8.912 24.458 8.92 26.249 C8.937 28.969 8.981 31.687 9.025 34.406 C9.036 36.148 9.044 37.891 9.051 39.633 C9.068 40.438 9.086 41.244 9.104 42.074 C9.082 47.746 7.887 52.17 4.625 56.875 C-1.075 61.507 -6.094 62.623 -13.375 61.875 C-19.257 59.875 -23.608 55.409 -26.375 49.875 C-26.661 44.42 -26.689 38.963 -26.725 33.501 C-26.742 31.678 -26.769 29.854 -26.807 28.031 C-26.862 25.393 -26.884 22.756 -26.898 20.117 C-26.921 19.312 -26.944 18.506 -26.967 17.676 C-26.945 11.629 -25.235 7.542 -21.375 2.875 C-15.288 -2.464 -7.453 -2.484 0 0 Z " fill="#F1FBFD" transform="translate(629.375,131.125)"/>
<path d="M0 0 C3.96 0 7.92 0 12 0 C12 0.33 12 0.66 12 1 C15.199 1.089 17.927 0.911 21 0 C21 0.33 21 0.66 21 1 C22.257 1 23.513 1 24.808 1 C66.375 1 66.375 1 72.491 1.092 C73.145 1.102 73.799 1.111 74.473 1.121 C76.631 1.154 78.79 1.186 80.949 1.219 C82.447 1.241 83.945 1.264 85.443 1.286 C89.383 1.345 93.324 1.404 97.265 1.464 C101.286 1.524 105.308 1.584 109.33 1.645 C117.22 1.763 125.11 1.881 133 2 C133 2.33 133 2.66 133 3 C89.11 3 45.22 3 0 3 C0 2.01 0 1.02 0 0 Z " fill="#FDFEFE" transform="translate(457,256)"/>
<path d="M0 0 C2.271 -0.027 4.542 -0.046 6.812 -0.062 C8.077 -0.074 9.342 -0.086 10.645 -0.098 C14 0 14 0 17 1 C18.516 0.783 18.516 0.783 20.062 0.562 C32.479 -1.211 32.479 -1.211 38 2 C36.036 3.964 32.255 3.187 29.57 3.203 C28.824 3.209 28.078 3.215 27.309 3.22 C25.727 3.23 24.145 3.236 22.563 3.24 C20.142 3.25 17.722 3.281 15.301 3.312 C13.766 3.319 12.23 3.324 10.695 3.328 C9.97 3.34 9.245 3.353 8.498 3.366 C3.447 3.343 3.447 3.343 1.019 1.479 C0.683 0.991 0.346 0.503 0 0 Z " fill="#080D0C" transform="translate(372,266)"/>
<path d="M0 0 C0.966 -0 0.966 -0 1.952 -0.001 C4.079 0.001 6.205 0.016 8.331 0.032 C9.807 0.035 11.282 0.038 12.758 0.04 C16.639 0.048 20.52 0.068 24.402 0.09 C28.363 0.11 32.325 0.119 36.286 0.129 C44.058 0.151 51.829 0.185 59.601 0.227 C59.601 0.557 59.601 0.887 59.601 1.227 C58.456 1.239 58.456 1.239 57.287 1.252 C50.078 1.33 42.869 1.417 35.66 1.515 C31.954 1.564 28.249 1.611 24.543 1.649 C20.963 1.686 17.384 1.732 13.805 1.785 C12.443 1.804 11.08 1.819 9.717 1.83 C7.803 1.847 5.888 1.878 3.973 1.908 C2.885 1.922 1.797 1.935 0.676 1.949 C-2.605 2.246 -5.325 3.069 -8.399 4.227 C-8.729 3.567 -9.059 2.907 -9.399 2.227 C-5.814 -0.163 -4.257 -0.016 0 0 Z " fill="#303B3C" transform="translate(622.399169921875,259.77294921875)"/>
<path d="M0 0 C-3.081 3.081 -6.073 2.973 -10.332 3.098 C-11.481 3.086 -12.629 3.074 -13.812 3.062 C-14.974 3.053 -16.135 3.044 -17.332 3.035 C-18.212 3.024 -19.093 3.012 -20 3 C-13.497 -0.251 -7.285 -2.115 0 0 Z " fill="#0F1314" transform="translate(420,202)"/>
<path d="M0 0 C6.27 0 12.54 0 19 0 C17 2 17 2 13.812 2.062 C11.925 2.032 11.925 2.032 10 2 C8.762 2.227 7.525 2.454 6.25 2.688 C5.178 2.791 4.105 2.894 3 3 C2.01 2.01 1.02 1.02 0 0 Z " fill="#0F1412" transform="translate(454,261)"/>
<path d="M0 0 C1 3 1 3 -0.688 6.5 C-2.415 9.348 -4.112 11.247 -7 13 C-7.66 12.34 -8.32 11.68 -9 11 C-7.886 9.948 -7.886 9.948 -6.75 8.875 C-4.022 6.023 -2.087 3.324 0 0 Z " fill="#0B0F0E" transform="translate(425,179)"/>
<path d="M0 0 C0.99 0.495 0.99 0.495 2 1 C2.633 3.723 2.633 3.723 3.125 7.062 C3.293 8.167 3.46 9.272 3.633 10.41 C3.754 11.265 3.875 12.119 4 13 C3.01 13 2.02 13 1 13 C-0.322 10.355 -0.097 8.322 -0.062 5.375 C-0.053 4.372 -0.044 3.369 -0.035 2.336 C-0.024 1.565 -0.012 0.794 0 0 Z " fill="#111B1B" transform="translate(305,519)"/>
<path d="M0 0 C1.671 0.062 1.671 0.062 3.375 0.125 C3.375 0.785 3.375 1.445 3.375 2.125 C7.335 2.125 11.295 2.125 15.375 2.125 C15.375 2.455 15.375 2.785 15.375 3.125 C0.594 3.31 0.594 3.31 -5.625 2.125 C-3.625 0.125 -3.625 0.125 0 0 Z " fill="#080D0D" transform="translate(356.625,565.875)"/>
<path d="M0 0 C3.63 0 7.26 0 11 0 C10.01 1.485 10.01 1.485 9 3 C6.617 3.293 6.617 3.293 3.875 3.188 C2.965 3.16 2.055 3.133 1.117 3.105 C0.419 3.071 -0.28 3.036 -1 3 C-0.67 2.01 -0.34 1.02 0 0 Z " fill="#080F0E" transform="translate(667,267)"/>
<path d="M0 0 C0.66 0 1.32 0 2 0 C2.433 1.423 2.433 1.423 2.875 2.875 C3.768 6.052 3.768 6.052 6 8 C5.01 8.66 4.02 9.32 3 10 C-0.223 4.824 -0.223 4.824 -1 3 C-0.67 2.01 -0.34 1.02 0 0 Z " fill="#111616" transform="translate(594,185)"/>
<path d="M0 0 C2.602 -0.293 2.602 -0.293 5.625 -0.188 C7.129 -0.147 7.129 -0.147 8.664 -0.105 C9.435 -0.071 10.206 -0.036 11 0 C7.998 2.624 6.229 3.363 2.25 3.188 C1.451 3.16 0.652 3.133 -0.172 3.105 C-0.775 3.071 -1.378 3.036 -2 3 C-1.34 2.01 -0.68 1.02 0 0 Z " fill="#101614" transform="translate(479,261)"/>
<path d="M0 0 C0.66 0.33 1.32 0.66 2 1 C-0.475 4.465 -0.475 4.465 -3 8 C-3.99 7.34 -4.98 6.68 -6 6 C-2.25 1.125 -2.25 1.125 0 0 Z " fill="#191F1E" transform="translate(644,190)"/>
<path d="M0 0 C0.66 0.33 1.32 0.66 2 1 C1.835 1.742 1.67 2.485 1.5 3.25 C0.881 6.19 0.881 6.19 1 10 C1 10.66 1 11.32 1 12 C0.01 12.33 -0.98 12.66 -2 13 C-3.45 10.099 -2.454 8.44 -1.562 5.375 C-1.275 4.372 -0.988 3.369 -0.691 2.336 C-0.463 1.565 -0.235 0.794 0 0 Z " fill="#10191A" transform="translate(718,523)"/>
<path d="M0 0 C0.99 0 1.98 0 3 0 C2.34 2.97 1.68 5.94 1 9 C-1 5 -1 5 -1 1 C-0.67 0.67 -0.34 0.34 0 0 Z " fill="#DCF4F4" transform="translate(715,525)"/>
<path d="M0 0 C1.32 0 2.64 0 4 0 C4.33 2.31 4.66 4.62 5 7 C4.01 7.495 4.01 7.495 3 8 C2.01 5.36 1.02 2.72 0 0 Z " fill="#0C1112" transform="translate(635,136)"/>
<path d="M0 0 C0.66 0.33 1.32 0.66 2 1 C0.68 2.65 -0.64 4.3 -2 6 C-2.99 5.67 -3.98 5.34 -5 5 C-3.35 3.35 -1.7 1.7 0 0 Z M-7 5 C-5 6 -5 6 -5 6 Z " fill="#070B0B" transform="translate(702,553)"/>
<path d="M0 0 C0 3 0 3 -1.312 4.387 C-2.875 5.591 -4.438 6.796 -6 8 C-6.33 7.01 -6.66 6.02 -7 5 C-6.031 4.361 -5.061 3.721 -4.062 3.062 C-1.24 1.303 -1.24 1.303 0 0 Z " fill="#090A0B" transform="translate(428,194)"/>
<path d="M0 0 C2.64 0 5.28 0 8 0 C6.875 1.562 6.875 1.562 5 3 C1.812 2.688 1.812 2.688 -1 2 C-0.67 1.34 -0.34 0.68 0 0 Z " fill="#101615" transform="translate(491,261)"/>
<path d="M0 0 C5.75 0.75 5.75 0.75 8 3 C5.394 3.931 4.358 4.149 1.75 3.062 C1.173 2.712 0.595 2.361 0 2 C0 1.34 0 0.68 0 0 Z " fill="#0D1212" transform="translate(684,173)"/>
<path d="M0 0 C0.66 0.66 1.32 1.32 2 2 C1.01 3.98 0.02 5.96 -1 8 C-1.66 7.01 -2.32 6.02 -3 5 C-2.01 3.35 -1.02 1.7 0 0 Z " fill="#070C0D" transform="translate(715,535)"/>
<path d="M0 0 C2.31 0 4.62 0 7 0 C6.67 0.99 6.34 1.98 6 3 C3.03 2.505 3.03 2.505 0 2 C0 1.34 0 0.68 0 0 Z " fill="#0F1614" transform="translate(445,261)"/>
<path d="M0 0 C0.66 0 1.32 0 2 0 C2.33 0.99 2.66 1.98 3 3 C5 4.209 5 4.209 7 5 C6.01 5.66 5.02 6.32 4 7 C2 5.188 2 5.188 0 3 C0 2.01 0 1.02 0 0 Z " fill="#0C0F10" transform="translate(385,193)"/>
<path d="M0 0 C1.125 1.75 1.125 1.75 2 4 C1.125 6.25 1.125 6.25 0 8 C-0.66 8 -1.32 8 -2 8 C-1.34 5.36 -0.68 2.72 0 0 Z " fill="#0C1111" transform="translate(647,177)"/>
</svg>
