<svg xmlns="http://www.w3.org/2000/svg" width="1080" height="1080" viewBox="0 0 1080 1080">
  <g id="background-layer">
    <image href="http://localhost:5000/static/images/sessions/bg_20250625_170530_3758a7cb/background_20250625_170530_ed1a5c6c.png" x="0" y="0" width="1080" height="1080"/>
  </g>
  <g id="elements-layer" opacity="0.95" fill-opacity="0.95">
    <path d="M0 0 C337.92 0 675.84 0 1024 0 C1024 337.92 1024 675.84 1024 1024 C686.08 1024 348.16 1024 0 1024 C0 686.08 0 348.16 0 0 Z" fill="#8F1237"/>
    <path d="M0 0 C0.99 0.33 1.98 0.66 3 1 C3 1.66 3 2.32 3 3 C3.99 3 4.98 3 6 3 C6.755 14.551 7.104 26.03 6.963 37.608 C6.955 38.543 6.946 39.478 6.938 40.441 C6.92 41.69 6.92 41.69 6.902 42.963 C6.866 45.068 6.866 45.068 8 47 C8.127 48.4 8.202 49.806 8.246 51.211 C8.279 52.044 8.312 52.876 8.346 53.734 C8.407 55.487 8.464 57.239 8.518 58.992 C8.552 59.827 8.586 60.663 8.621 61.523 C8.646 62.286 8.671 63.048 8.697 63.833 C8.94 66.412 8.94 66.412 11 70 C11.33 67.03 11.66 64.06 12 61 C12.33 61 12.66 61 13 61 C13.66 65.62 14.32 70.24 15 75 C15.66 75 16.32 75 17 75 C16.103 74.381 16.206 73.763 16.312 73.125 C17 71 17 71 20 69 C19.67 69 19.34 69 19 69 C18.668 68.34 18.336 67.68 18 67 C17.674 66.364 17.338 65.727 17 65 C16.344 64.669 15.678 64.337 15. 188 64 C14.34 63.33 13.66 62.66 13 62 C12.01 61.67 11.02 61.34 10 61 C10 60.01 10 59.02 10 58 C11.66 58 13.32 58 15 58 C15.66 57.34 16.32 56.68 17 56 C17.67 56.66 18.34 57.32 19 58 C18.67 58 18.34 58 18 58 C17.667 58 17.334 58 17 58 C16.668 58 16.336 57.66 16 57 C15.34 56.34 14.68 55.68 14 55 C13.66 54.33 13.33 53.66 13 53 C12.34 52.33 12 51.66 12 51 C11.34 50.667 10.66 50.334 10 50 C10 49.01 10 48.02 10 47 C9.34 46.67 8.68 46.34 8 46 C7.34 45.33 6.68 44.66 6 44 C5.34 43.99 4.68 43.99 4 44 C3.34 43.67 2.68 43.34 2 43 C1.34 43 0.68 43 0 43 C0 42.66 0 42.32 0 42 Z" fill="#8F1237"/>
    <path d="M0 0 C0.99 0.33 1.98 0.66 3 1 C-2 3 -2 3 -4.164 3.512 C-5.382 3.599 -5.382 3.599 -6.625 3.688 C-7.442 3.753 -8.26 3.819 -9.102 3.887 C-9.728 3.924 -10.355 3.961 -11 4 C-7.044 0.967 -5.032 -0.132 0 0 Z" fill="#8D1500"/>
  </g>
  <g id="text-layer" style="mix-blend-mode:normal;">
    <g>
      <text x="50%" y="40%" text-anchor="middle" dominant-baseline="middle" fill="#00d4ff" stroke="#0ff" stroke-width="2px" font-family="'Arial Black', Arial, sans-serif" font-weight="900" font-size="140px">COMING</text>
      <text x="50%" y="60%" text-anchor="middle" dominant-baseline="middle" fill="#00d4ff" stroke="#0ff" stroke-width="2px" font-family="'Arial Black', Arial, sans-serif" font-weight="900" font-size="140px">SOON</text>
    </g>
  </g>
</svg>