<?xml version="1.0" encoding="UTF-8"?>
<!-- Generator: visioncortex VTracer 0.6.4 -->
<svg version="1.1" xmlns="http://www.w3.org/2000/svg" width="1024" height="1024">
<path d="M0 0 C337.92 0 675.84 0 1024 0 C1024 337.92 1024 675.84 1024 1024 C686.08 1024 348.16 1024 0 1024 C0 686.08 0 348.16 0 0 Z " fill="#00505A" transform="translate(0,0)"/>
<path d="M0 0 C1.899 1.461 3.85 2.858 5.844 4.188 C5.844 4.847 5.844 5.507 5.844 6.188 C6.682 6.565 6.682 6.565 7.538 6.951 C17.151 12.106 25.092 21.12 32.715 28.798 C34.467 30.56 36.229 32.312 37.992 34.062 C44.735 40.797 50.937 47.699 56.844 55.188 C57.951 56.528 59.063 57.866 60.18 59.199 C67.631 68.181 74.424 77.445 80.844 87.188 C81.235 87.777 81.627 88.367 82.03 88.975 C124.014 152.426 147.033 225.4 147.094 301.562 C147.095 302.737 147.095 302.737 147.096 303.934 C147.027 354.808 138.107 405.328 117.844 452.188 C117.546 452.887 117.248 453.586 116.941 454.307 C102.279 488.6 83.562 520.59 59.516 549.156 C57.705 551.287 57.705 551.287 55.844 554.188 C55.184 554.188 54.524 554.188 53.844 554.188 C53.578 554.775 53.313 555.362 53.039 555.966 C51.81 558.251 50.498 559.847 48.719 561.727 C48.099 562.385 47.48 563.043 46.842 563.721 C46.183 564.411 45.523 565.101 44.844 565.812 C43.83 566.882 43.83 566.882 42.797 567.972 C35.107 576.06 27.344 583.945 18.844 591.188 C17.827 592.078 16.812 592.97 15.797 593.863 C-16.013 621.703 -53.04 643.345 -92.156 659.188 C-93.019 659.538 -93.883 659.888 -94.772 660.249 C-185.369 696.38 -292.778 693.673 -382.292 655.863 C-409.03 644.264 -434.734 630.578 -458.156 613.188 C-459.194 612.426 -460.232 611.664 -461.301 610.879 C-471.179 603.562 -480.58 595.833 -489.621 587.504 C-491.683 585.62 -493.773 583.801 -495.906 582 C-505.44 573.685 -514.369 564.581 -522.195 554.645 C-524.038 552.336 -525.966 550.17 -527.969 548 C-584.71 484.544 -613.033 396.471 -615.073 312.563 C-615.126 310.396 -615.188 308.229 -615.259 306.062 C-616.178 277.035 -612.699 247.456 -606.156 219.188 C-605.739 217.37 -605.739 217.37 -605.313 215.516 C-592.114 159.092 -565.856 107.636 -530.156 62.188 C-529.342 61.027 -529.342 61.027 -528.512 59.844 C-528.064 59.297 -527.617 58.751 -527.156 58.188 C-526.496 58.188 -525.836 58.188 -525.156 58.188 C-524.933 57.472 -524.71 56.757 -524.48 56.02 C-522.847 52.526 -520.757 50.532 -517.969 47.875 C-514.753 44.794 -511.698 41.709 -508.789 38.336 C-505.11 34.079 -501.207 30.09 -497.219 26.125 C-496.554 25.457 -495.89 24.788 -495.205 24.1 C-490.688 19.591 -486.008 15.333 -481.156 11.188 C-480.218 10.379 -479.279 9.571 -478.312 8.738 C-444.423 -19.819 -405.771 -41.658 -364.156 -56.812 C-363.323 -57.12 -362.49 -57.427 -361.631 -57.744 C-350.248 -61.9 -338.648 -65.103 -326.906 -68.062 C-326.249 -68.229 -325.591 -68.396 -324.913 -68.568 C-308.598 -72.684 -292.204 -75.311 -275.469 -77 C-274.616 -77.087 -273.763 -77.173 -272.885 -77.262 C-179.483 -86.514 -86.727 -62.687 0 0 Z " fill="#FEFDFC" transform="translate(746.15625,208.8125)"/>
<path d="M0 0 C1.858 3.135 2.201 5.375 2 9 C2.66 9 3.32 9 4 9 C4.217 10.64 4.217 10.64 4.438 12.312 C4.883 15.931 4.883 15.931 6 19 C5.67 19.99 5.34 20.98 5 22 C5.322 25.861 5.672 29.109 7.014 32.75 C8.739 38.773 8.266 45.116 8.23 51.324 C8.229 52.717 8.229 54.11 8.229 55.503 C8.228 58.41 8.219 61.318 8.206 64.225 C8.189 67.947 8.185 71.669 8.186 75.392 C8.185 78.263 8.18 81.134 8.173 84.006 C8.17 85.378 8.168 86.751 8.167 88.124 C8.165 90.04 8.155 91.957 8.145 93.874 C8.141 94.963 8.138 96.052 8.134 97.174 C8.017 99.642 7.63 101.633 7 104 C7 105.196 7 106.393 7 107.625 C7 111 7 111 6 113 C5.955 114.395 5.962 115.792 6 117.188 C6.046 121.255 5.75 125.002 5 129 C4.67 129.33 4.34 129.66 4 130 C4.006 131.038 4.011 132.076 4.017 133.146 C4.001 136.882 3.525 140.029 2.723 143.668 C2.456 144.891 2.19 146.113 1.916 147.373 C1.634 148.632 1.353 149.891 1.062 151.188 C0.785 152.458 0.507 153.728 0.221 155.037 C-2.671 168.212 -2.671 168.212 -3.965 171.309 C-5.2 174.52 -5.874 177.693 -6.562 181.062 C-8.135 188.695 -8.135 188.695 -9 192 C-9.66 192 -10.32 192 -11 192 C-11.124 193.093 -11.247 194.186 -11.375 195.312 C-12 199 -12 199 -14 202 C-14.15 203.091 -14.299 204.181 -14.453 205.305 C-15.015 209.101 -16.052 211.704 -17.75 215.125 C-19.872 219.53 -21.764 223.907 -23.438 228.5 C-25.552 234.122 -28.169 239.264 -31.094 244.504 C-33.665 249.22 -36.014 254.04 -38.335 258.884 C-40.783 263.891 -40.783 263.891 -43 265 C-44.19 267.214 -45.302 269.418 -46.375 271.688 C-48.615 276.4 -51.08 280.657 -54 285 C-54.33 285.99 -54.66 286.98 -55 288 C-55.66 288 -56.32 288 -57 288 C-57 288.66 -57 289.32 -57 290 C-57.66 290 -58.32 290 -59 290 C-59.33 291.65 -59.66 293.3 -60 295 C-60.99 295 -61.98 295 -63 295 C-63.106 295.589 -63.211 296.178 -63.32 296.785 C-64.094 299.307 -65.091 300.515 -66.875 302.438 C-69.306 305.158 -71.177 307.829 -73 311 C-73.838 312.281 -74.693 313.552 -75.562 314.812 C-75.976 315.417 -76.39 316.022 -76.816 316.645 C-77.207 317.092 -77.598 317.539 -78 318 C-78.66 318 -79.32 318 -80 318 C-80.33 319.32 -80.66 320.64 -81 322 C-81.66 322 -82.32 322 -83 322 C-83.223 322.552 -83.446 323.103 -83.676 323.672 C-85.416 326.731 -87.658 328.807 -90.188 331.25 C-93.435 334.422 -96.617 337.603 -99.562 341.062 C-105.494 347.988 -112.045 354.352 -118.984 360.262 C-120.477 361.549 -121.942 362.87 -123.391 364.207 C-124.19 364.943 -124.989 365.679 -125.812 366.438 C-126.541 367.117 -127.269 367.796 -128.02 368.496 C-130 370 -130 370 -133 370 C-133 370.66 -133 371.32 -133 372 C-135.024 374.429 -137.133 375.715 -140 377 C-140 376.01 -140 375.02 -140 374 C-138.043 372.127 -136.106 370.439 -134 368.75 C-132.791 367.754 -131.583 366.758 -130.375 365.762 C-129.788 365.283 -129.202 364.804 -128.598 364.31 C-113.977 352.322 -97.516 338.774 -87 323 C-86.34 323 -85.68 323 -85 323 C-84.781 322.478 -84.562 321.956 -84.336 321.418 C-82.486 318.07 -80.052 315.251 -77.625 312.312 C-53.757 282.858 -34.97 249.205 -21 214 C-20.384 212.451 -20.384 212.451 -19.756 210.87 C-2.218 166.001 5.312 118.424 5.25 70.375 C5.249 69.629 5.249 68.882 5.248 68.113 C5.198 51.669 4.299 35.467 1.938 19.188 C1.567 16.598 1.203 14.008 0.84 11.418 C0.679 10.302 0.517 9.186 0.351 8.036 C0.037 5.32 -0.068 2.73 0 0 Z " fill="#081F22" transform="translate(887,440)"/>
<path d="M0 0 C0 0.99 0 1.98 0 3 C-1.793 4.535 -1.793 4.535 -4.188 6.062 C-4.965 6.569 -5.742 7.076 -6.543 7.598 C-8.974 8.985 -11.394 9.99 -14 11 C-14.846 11.516 -15.691 12.031 -16.562 12.562 C-19 14 -19 14 -20.875 14.438 C-24.233 15.326 -27.025 17.243 -30 19 C-32.233 20.218 -34.261 21.085 -36.688 21.875 C-39.333 22.773 -41.726 23.767 -44.25 24.938 C-48.264 26.763 -52.288 28.015 -56.523 29.215 C-59.759 30.241 -62.749 31.654 -65.82 33.086 C-69.129 34.474 -72.509 35.19 -76 36 C-76.495 36.495 -76.495 36.495 -77 37 C-79.333 37.041 -81.667 37.042 -84 37 C-81.634 34.634 -79.995 34.211 -76.812 33.223 C-75.195 32.709 -75.195 32.709 -73.546 32.184 C-72.376 31.814 -71.206 31.444 -70 31.062 C-45.705 23.153 -22.091 12.884 0 0 Z " fill="#091E22" transform="translate(704,843)"/>
<path d="M0 0 C0 0.66 0 1.32 0 2 C-4.041 2.634 -7.907 3.124 -12 3 C-12 3.66 -12 4.32 -12 5 C-15.333 5.667 -18.667 6.333 -22 7 C-22.698 7.152 -23.396 7.304 -24.115 7.461 C-28.005 8.188 -31.913 8.672 -35.84 9.156 C-37.14 9.317 -37.14 9.317 -38.466 9.481 C-54.576 11.449 -70.643 13.362 -86.875 13.875 C-88.029 13.912 -89.182 13.948 -90.371 13.986 C-97.965 14.143 -105.44 13.708 -113 13 C-113 12.67 -113 12.34 -113 12 C-112.453 11.984 -111.905 11.968 -111.342 11.951 C-76.451 10.901 -41.838 9.584 -7.917 0.438 C-5.265 -0.168 -2.709 -0.062 0 0 Z " fill="#030E10" transform="translate(612,882)"/>
<path d="M0 0 C1.858 3.135 2.201 5.375 2 9 C2.66 9 3.32 9 4 9 C4.144 10.093 4.289 11.186 4.438 12.312 C4.883 15.931 4.883 15.931 6 19 C5.67 19.99 5.34 20.98 5 22 C5.323 25.874 5.672 29.119 7.03 32.769 C8.729 38.7 8.128 44.924 7.977 51.027 C7.95 52.385 7.925 53.743 7.901 55.1 C7.834 58.653 7.755 62.205 7.674 65.758 C7.592 69.391 7.523 73.025 7.453 76.658 C7.314 83.772 7.161 90.886 7 98 C6.67 98 6.34 98 6 98 C5.975 96.731 5.95 95.462 5.924 94.155 C5.828 89.357 5.729 84.56 5.628 79.763 C5.585 77.703 5.543 75.644 5.503 73.584 C5.142 55.304 4.564 37.296 1.938 19.188 C1.567 16.598 1.203 14.008 0.84 11.418 C0.679 10.302 0.517 9.186 0.351 8.036 C0.037 5.32 -0.068 2.73 0 0 Z " fill="#031417" transform="translate(887,440)"/>
<path d="M0 0 C0.33 0 0.66 0 1 0 C1.228 2.018 1.456 4.036 1.684 6.055 C1.913 8.074 1.913 8.074 3 10 C2.856 10.557 2.711 11.114 2.562 11.688 C1.857 14.19 1.857 14.19 2 17.625 C2 21 2 21 1 23 C0.955 24.395 0.962 25.792 1 27.188 C1.046 31.255 0.75 35.002 0 39 C-0.495 39.495 -0.495 39.495 -1 40 C-0.99 41.012 -0.979 42.024 -0.969 43.066 C-1.002 47.229 -1.619 50.892 -2.5 54.938 C-2.643 55.621 -2.786 56.305 -2.934 57.01 C-3.283 58.674 -3.641 60.337 -4 62 C-4.33 62 -4.66 62 -5 62 C-6.182 56.092 -5.807 51.212 -4.625 45.344 C-2.847 35.917 -2.027 26.495 -1.312 16.938 C-1.182 15.281 -1.052 13.624 -0.92 11.967 C-0.605 7.978 -0.299 3.99 0 0 Z " fill="#102F33" transform="translate(892,530)"/>
<path d="M0 0 C5.632 0.41 10.961 1.403 16.438 2.75 C28.194 5.638 40.104 7.777 52 10 C52 10.33 52 10.66 52 11 C49.229 11.054 46.459 11.094 43.688 11.125 C42.902 11.142 42.116 11.159 41.307 11.176 C40.549 11.182 39.792 11.189 39.012 11.195 C37.967 11.211 37.967 11.211 36.901 11.227 C35 11 35 11 32 9 C29.726 8.616 29.726 8.616 27.25 8.5 C16.629 7.629 16.629 7.629 14 5 C13.113 5.021 12.226 5.041 11.312 5.062 C7.815 4.997 5.25 4.238 2 3 C2 2.34 2 1.68 2 1 C1.34 0.67 0.68 0.34 0 0 Z " fill="#09272C" transform="translate(407,880)"/>
<path d="M0 0 C4.351 1.48 7.734 3.836 11.375 6.562 C22.934 14.998 35.384 21.851 47.906 28.738 C51.628 30.786 55.318 32.883 59 35 C59 35.33 59 35.66 59 36 C57.35 36 55.7 36 54 36 C54 35.34 54 34.68 54 34 C52.977 33.615 52.977 33.615 51.934 33.223 C48.54 31.808 45.304 30.164 42.062 28.438 C41.091 27.922 41.091 27.922 40.101 27.396 C34.68 24.47 29.505 21.228 24.393 17.795 C21.454 15.665 21.454 15.665 18 15 C17.443 14.402 16.886 13.804 16.312 13.188 C14.033 10.768 14.033 10.768 10.5 9.562 C6.682 7.858 5.359 6.37 3 3 C2.018 1.983 1.025 0.974 0 0 Z " fill="#08232A" transform="translate(283,819)"/>
<path d="M0 0 C0.495 0.99 0.495 0.99 1 2 C-1.048 4.914 -2.54 6.77 -5.758 8.375 C-9.285 10.143 -12.142 12.263 -15.25 14.688 C-20.78 19 -20.78 19 -23 19 C-23.454 19.639 -23.908 20.279 -24.375 20.938 C-26.32 23.406 -27.054 23.277 -30 24 C-31.445 24.804 -32.863 25.661 -34.25 26.562 C-35.31 27.245 -35.31 27.245 -36.391 27.941 C-36.922 28.291 -37.453 28.64 -38 29 C-37.648 26.343 -37.325 25.265 -35.213 23.543 C-34.44 23.096 -33.667 22.648 -32.871 22.188 C-32.008 21.675 -31.144 21.162 -30.255 20.634 C-29.325 20.094 -28.395 19.555 -27.438 19 C-17.793 13.241 -8.83 6.931 0 0 Z " fill="#091D20" transform="translate(744,816)"/>
<path d="M0 0 C0 0.66 0 1.32 0 2 C-4.041 2.634 -7.907 3.124 -12 3 C-12 3.66 -12 4.32 -12 5 C-15.333 5.667 -18.667 6.333 -22 7 C-23.207 7.263 -23.207 7.263 -24.438 7.531 C-27.394 8.072 -30.316 8.332 -33.312 8.562 C-34.915 8.688 -34.915 8.688 -36.551 8.816 C-37.359 8.877 -38.167 8.938 -39 9 C-39 8.67 -39 8.34 -39 8 C-37.35 8 -35.7 8 -34 8 C-34 7.34 -34 6.68 -34 6 C-33.294 5.854 -32.588 5.708 -31.86 5.557 C-28.657 4.893 -25.453 4.228 -22.25 3.562 C-21.139 3.332 -20.028 3.102 -18.883 2.865 C-17.813 2.643 -16.743 2.421 -15.641 2.191 C-14.656 1.987 -13.672 1.783 -12.657 1.573 C-11.047 1.226 -9.442 0.852 -7.851 0.429 C-5.225 -0.18 -2.683 -0.061 0 0 Z " fill="#061E22" transform="translate(612,882)"/>
<path d="M0 0 C0.99 0.66 1.98 1.32 3 2 C2.527 2.413 2.054 2.825 1.566 3.25 C0.905 3.827 0.244 4.405 -0.438 5 C-1.162 5.63 -1.886 6.261 -2.633 6.91 C-4.249 8.337 -5.847 9.783 -7.43 11.246 C-8.216 11.969 -9.002 12.692 -9.812 13.438 C-10.905 14.457 -10.905 14.457 -12.02 15.496 C-14 17 -14 17 -17 17 C-17 17.66 -17 18.32 -17 19 C-19.024 21.429 -21.133 22.715 -24 24 C-24 23.01 -24 22.02 -24 21 C-22.043 19.127 -20.106 17.439 -18 15.75 C-16.804 14.766 -15.609 13.782 -14.414 12.797 C-13.829 12.319 -13.244 11.842 -12.642 11.35 C-10.519 9.604 -8.442 7.811 -6.375 6 C-5.785 5.484 -5.194 4.969 -4.586 4.438 C-3.005 3.005 -1.495 1.522 0 0 Z " fill="#071B1E" transform="translate(771,793)"/>
<path d="M0 0 C3.238 1.079 3.683 1.548 5.602 4.176 C6.088 4.833 6.574 5.491 7.074 6.168 C7.586 6.876 8.098 7.584 8.625 8.312 C9.7 9.775 10.776 11.237 11.852 12.699 C12.649 13.79 12.649 13.79 13.462 14.904 C15.612 17.834 17.806 20.728 20 23.625 C22.809 27.338 25.445 31.111 28 35 C27.67 35.66 27.34 36.32 27 37 C26.343 36.087 26.343 36.087 25.672 35.156 C14.061 18.729 14.061 18.729 1.109 3.383 C0 2 0 2 0 0 Z " fill="#0C2E37" transform="translate(800,260)"/>
<path d="M0 0 C7.498 2.393 14.767 5.237 22.062 8.188 C23.214 8.651 24.366 9.114 25.553 9.592 C28.369 10.725 31.185 11.862 34 13 C30.577 14.141 29.934 13.847 26.688 12.625 C23.87 11.609 21.483 10.917 18.5 10.438 C17.262 10.221 17.262 10.221 16 10 C15.67 9.34 15.34 8.68 15 8 C12.489 6.88 10.003 5.853 7.438 4.875 C6.371 4.459 6.371 4.459 5.283 4.035 C3.525 3.351 1.763 2.674 0 2 C0 1.34 0 0.68 0 0 Z " fill="#09272D" transform="translate(356,861)"/>
<path d="M0 0 C0.66 0.33 1.32 0.66 2 1 C-10.485 14.633 -10.485 14.633 -17 21 C-17.99 20.67 -18.98 20.34 -20 20 C-13.4 13.4 -6.8 6.8 0 0 Z " fill="#011418" transform="translate(792,773)"/>
<path d="M0 0 C1.858 3.135 2.201 5.375 2 9 C2.66 9 3.32 9 4 9 C4.144 10.093 4.289 11.186 4.438 12.312 C4.883 15.931 4.883 15.931 6 19 C5.66 21.48 5.66 21.48 5.062 24.188 C4.868 25.089 4.673 25.99 4.473 26.918 C4.317 27.605 4.161 28.292 4 29 C3.67 29 3.34 29 3 29 C2.495 25.105 1.997 21.209 1.5 17.312 C1.357 16.21 1.214 15.107 1.066 13.971 C0.863 12.371 0.863 12.371 0.656 10.738 C0.531 9.759 0.405 8.78 0.275 7.771 C0.016 5.158 -0.05 2.624 0 0 Z " fill="#092428" transform="translate(887,440)"/>
<path d="M0 0 C0.62 0.34 1.24 0.681 1.879 1.031 C9.887 5.414 17.939 9.714 26 14 C26 14.33 26 14.66 26 15 C24.35 15 22.7 15 21 15 C21 14.34 21 13.68 21 13 C20.335 12.751 19.67 12.502 18.984 12.246 C15.297 10.706 11.786 8.919 8.25 7.062 C7.566 6.715 6.881 6.368 6.176 6.01 C1.117 3.35 1.117 3.35 0 0 Z " fill="#0C262E" transform="translate(316,840)"/>
<path d="M0 0 C0.33 0.66 0.66 1.32 1 2 C1.66 2 2.32 2 3 2 C5.286 9.158 6.44 15.482 6 23 C3.668 19.502 2.848 16.086 1.875 12.062 C1.693 11.346 1.511 10.63 1.324 9.893 C0.479 6.465 0 3.552 0 0 Z " fill="#05252B" transform="translate(879,406)"/>
<path d="M0 0 C10.405 -0.43 20.677 0.859 31 2 C31 2.33 31 2.66 31 3 C26.771 3.058 22.542 3.094 18.312 3.125 C16.515 3.15 16.515 3.15 14.682 3.176 C13.525 3.182 12.368 3.189 11.176 3.195 C9.581 3.211 9.581 3.211 7.954 3.227 C4.919 2.994 2.744 2.282 0 1 C0 0.67 0 0.34 0 0 Z " fill="#040F11" transform="translate(460,891)"/>
<path d="M0 0 C0.33 0 0.66 0 1 0 C1.25 6.651 0.74 12.57 -1 19 C-1.66 19 -2.32 19 -3 19 C-3.33 19.99 -3.66 20.98 -4 22 C-3.362 14.474 -1.801 7.329 0 0 Z " fill="#041A1D" transform="translate(886,586)"/>
<path d="M0 0 C0.33 0.66 0.66 1.32 1 2 C1.66 2 2.32 2 3 2 C3.506 3.268 4.005 4.54 4.5 5.812 C4.778 6.52 5.057 7.228 5.344 7.957 C6 10 6 10 6 13 C6.66 13 7.32 13 8 13 C8 13.99 8 14.98 8 16 C8.66 16.33 9.32 16.66 10 17 C10 18.98 10 20.96 10 23 C6.906 19.354 5.187 15.285 3.312 10.938 C2.992 10.218 2.672 9.498 2.342 8.756 C1.008 5.692 0 3.377 0 0 Z " fill="#0A2B33" transform="translate(857,348)"/>
<path d="M0 0 C4 4.625 4 4.625 4 8 C4.66 8.33 5.32 8.66 6 9 C6.414 11.504 6.414 11.504 6.625 14.562 C6.7 15.574 6.775 16.586 6.852 17.629 C6.901 18.411 6.95 19.194 7 20 C4.284 17.284 3.531 14.134 2.375 10.562 C2.146 9.881 1.916 9.2 1.68 8.498 C0.71 5.55 0 3.123 0 0 Z " fill="#07232A" transform="translate(872,385)"/>
<path d="M0 0 C-0.66 0 -1.32 0 -2 0 C-2 0.66 -2 1.32 -2 2 C-2.566 2.133 -3.132 2.266 -3.715 2.402 C-4.815 2.667 -4.815 2.667 -5.938 2.938 C-6.668 3.112 -7.399 3.286 -8.152 3.465 C-10 3.839 -10 3.839 -11 5 C-13.333 5.041 -15.667 5.042 -18 5 C-15.403 2.403 -13.062 1.893 -9.562 0.812 C-8.409 0.448 -7.255 0.083 -6.066 -0.293 C-3 -1 -3 -1 0 0 Z " fill="#06181B" transform="translate(638,875)"/>
<path d="M0 0 C0.66 0.66 1.32 1.32 2 2 C1.653 4.617 1.211 7.062 0.625 9.625 C0.473 10.331 0.321 11.038 0.164 11.766 C-0.214 13.513 -0.606 15.257 -1 17 C-1.33 17 -1.66 17 -2 17 C-3.635 5.453 -3.635 5.453 0 0 Z " fill="#0A2E33" transform="translate(889,575)"/>
<path d="M0 0 C0.99 0.66 1.98 1.32 3 2 C1.755 3.13 0.504 4.254 -0.75 5.375 C-1.446 6.001 -2.142 6.628 -2.859 7.273 C-4.845 8.875 -6.68 9.965 -9 11 C-7.592 7.785 -5.897 5.678 -3.375 3.25 C-2.743 2.636 -2.112 2.023 -1.461 1.391 C-0.738 0.702 -0.738 0.702 0 0 Z " fill="#102629" transform="translate(771,793)"/>
<path d="M0 0 C10.558 1.927 10.558 1.927 15 4 C10.916 5.532 7.205 4.631 3 4 C2.67 3.01 2.34 2.02 2 1 C1.34 0.67 0.68 0.34 0 0 Z " fill="#032228" transform="translate(391,875)"/>
<path d="M0 0 C0.66 0.99 1.32 1.98 2 3 C1.526 3.866 1.051 4.732 0.562 5.625 C-0.932 8.854 -1.582 11.49 -2 15 C-3.399 12.714 -4.032 11.42 -3.828 8.711 C-3.637 7.94 -3.447 7.169 -3.25 6.375 C-3.07 5.599 -2.889 4.823 -2.703 4.023 C-2 2 -2 2 0 0 Z " fill="#0C2A2D" transform="translate(883,605)"/>
<path d="M0 0 C0.33 0 0.66 0 1 0 C2.235 7.507 1.444 12.184 -2 19 C-1.858 16.958 -1.711 14.916 -1.562 12.875 C-1.481 11.738 -1.4 10.601 -1.316 9.43 C-1.023 6.246 -0.569 3.145 0 0 Z " fill="#041215" transform="translate(890,560)"/>
<path d="M0 0 C2.089 3.134 2.274 3.975 2.25 7.562 C2.255 8.348 2.26 9.133 2.266 9.941 C2 12 2 12 0 14 C-1.333 4.59 -1.333 4.59 0 0 Z " fill="#0B272A" transform="translate(891,550)"/>
<path d="M0 0 C10.558 3.075 10.558 3.075 15 5 C11.607 6.131 10.777 5.864 7.5 4.75 C6.34 4.371 6.34 4.371 5.156 3.984 C2.9 2.955 1.623 1.852 0 0 Z " fill="#041D23" transform="translate(375,869)"/>
<path d="M0 0 C0.33 0.66 0.66 1.32 1 2 C-2.25 8.5 -2.25 8.5 -6 11 C-5.393 7.847 -4.358 5.811 -2.438 3.25 C-1.982 2.636 -1.527 2.023 -1.059 1.391 C-0.709 0.932 -0.36 0.473 0 0 Z " fill="#031417" transform="translate(824,733)"/>
<path d="M0 0 C2.749 2.749 4.418 5.16 5 9 C4.697 10.341 4.368 11.676 4 13 C3.327 11.399 2.662 9.794 2 8.188 C1.629 7.294 1.258 6.401 0.875 5.48 C0 3 0 3 0 0 Z " fill="#06252B" transform="translate(867,371)"/>
<path d="M0 0 C3.3 1.65 6.6 3.3 10 5 C10 5.33 10 5.66 10 6 C8.35 6 6.7 6 5 6 C5 5.34 5 4.68 5 4 C2.525 3.01 2.525 3.01 0 2 C0 1.34 0 0.68 0 0 Z " fill="#163339" transform="translate(332,849)"/>
<path d="M0 0 C0.33 0.66 0.66 1.32 1 2 C0.223 4.164 0.223 4.164 -0.938 6.625 C-1.318 7.442 -1.698 8.26 -2.09 9.102 C-2.39 9.728 -2.691 10.355 -3 11 C-3.66 11 -4.32 11 -5 11 C-4.469 6.485 -2.634 3.653 0 0 Z " fill="#041519" transform="translate(843,703)"/>
<path d="M0 0 C0 0.66 0 1.32 0 2 C-6.055 2.977 -6.055 2.977 -8 3 C-8.66 2.34 -9.32 1.68 -10 1 C-6.62 -0.04 -3.522 -0.08 0 0 Z " fill="#11272A" transform="translate(612,882)"/>
<path d="M0 0 C4.128 0.607 7.332 2.038 11 4 C8 5 8 5 4.375 3.688 C1 2 1 2 0 0 Z " fill="#0E262E" transform="translate(344,856)"/>
<path d="M0 0 C2 2 2 2 2.25 5 C2 8 2 8 0 10 C-0.194 8.522 -0.38 7.042 -0.562 5.562 C-0.667 4.739 -0.771 3.915 -0.879 3.066 C-0.919 2.384 -0.959 1.703 -1 1 C-0.67 0.67 -0.34 0.34 0 0 Z " fill="#022327" transform="translate(886,429)"/>
<path d="M0 0 C3.63 0 7.26 0 11 0 C10.67 0.66 10.34 1.32 10 2 C6.008 3.331 3.737 2.815 0 1 C0 0.67 0 0.34 0 0 Z " fill="#071F22" transform="translate(460,891)"/>
<path d="M0 0 C4 1.333 4.838 3.496 7 7 C6.67 7.66 6.34 8.32 6 9 C4.994 7.88 3.995 6.754 3 5.625 C2.443 4.999 1.886 4.372 1.312 3.727 C0 2 0 2 0 0 Z " fill="#0F343C" transform="translate(800,260)"/>
</svg>
