<?xml version="1.0" encoding="UTF-8"?>
<!-- Generator: visioncortex VTracer 0.6.4 -->
<svg version="1.1" xmlns="http://www.w3.org/2000/svg" width="1024" height="1024">
<path d="M0 0 C337.92 0 675.84 0 1024 0 C1024 337.92 1024 675.84 1024 1024 C686.08 1024 348.16 1024 0 1024 C0 686.08 0 348.16 0 0 Z " fill="#0E0E0E" transform="translate(0,0)"/>
<path d="M0 0 C0 7.26 0 14.52 0 22 C-2.26 22.098 -4.519 22.196 -6.848 22.297 C-58.102 24.669 -105.671 38.031 -144 74 C-144.859 74.795 -144.859 74.795 -145.735 75.607 C-174.851 102.79 -196.298 141.384 -202 181 C-202.15 182.006 -202.15 182.006 -202.303 183.033 C-209.359 231.7 -197.225 282.367 -168.043 322.031 C-164.283 327.007 -160.288 331.771 -156.18 336.461 C-154 339 -154 339 -152 342 C-178.659 344.035 -178.659 344.035 -185.207 340.966 C-188.32 338.27 -189.823 334.716 -191.225 330.916 C-192.305 328.245 -193.819 325.949 -195.378 323.535 C-223.559 279.598 -235.192 222.526 -224.258 171.219 C-223.848 169.477 -223.428 167.737 -223 166 C-222.786 165.111 -222.571 164.221 -222.351 163.305 C-214.571 131.868 -199.947 101.759 -179 77 C-178.297 76.167 -177.595 75.335 -176.871 74.477 C-165.741 61.763 -153.723 49.883 -140 40 C-139.441 39.591 -138.882 39.182 -138.306 38.761 C-97.372 9.122 -49.611 -0.909 0 0 Z " fill="#F7F5F0" transform="translate(906,682)"/>
<path d="M0 0 C11.514 8.295 20.98 20.015 23.398 34.445 C24.246 44.35 24.141 53.541 20.609 62.91 C20.304 63.727 19.998 64.545 19.684 65.387 C14.294 77.733 3.996 86.964 -8.262 92.117 C-21.67 97.052 -35.356 97.29 -48.495 91.415 C-61.859 84.969 -71.205 75.017 -76.484 61.008 C-80.607 46.789 -79.354 31.793 -72.328 18.785 C-64.429 6.106 -53.378 -2.388 -39.004 -6.391 C-25.296 -9.043 -12.039 -7.421 0 0 Z " fill="#F8F6F1" transform="translate(179.390625,62.08984375)"/>
<path d="M0 0 C0.66 0 1.32 0 2 0 C2 7.92 2 15.84 2 24 C-0.599 25.299 -2.327 25.022 -5.227 24.879 C-6.258 24.831 -7.289 24.782 -8.352 24.732 C-9.972 24.648 -9.972 24.648 -11.625 24.562 C-12.713 24.51 -13.801 24.458 -14.922 24.404 C-17.615 24.274 -20.307 24.139 -23 24 C-23 23.67 -23 23.34 -23 23 C-15.41 23 -7.82 23 0 23 C0 15.41 0 7.82 0 0 Z " fill="#333231" transform="translate(906,681)"/>
<path d="M0 0 C0 0.66 0 1.32 0 2 C-2.915 2.796 -5.746 3.253 -8.75 3.562 C-9.949 3.688 -9.949 3.688 -11.172 3.816 C-12.077 3.907 -12.077 3.907 -13 4 C-13 3.34 -13 2.68 -13 2 C-11.211 1.47 -9.419 0.952 -7.625 0.438 C-6.627 0.147 -5.63 -0.143 -4.602 -0.441 C-2 -1 -2 -1 0 0 Z " fill="#161615" transform="translate(846,711)"/>
<path d="M0 0 C1.032 3.095 0.975 4.526 0.562 7.688 C0.461 8.496 0.359 9.304 0.254 10.137 C0.17 10.752 0.086 11.366 0 12 C-0.99 12.33 -1.98 12.66 -3 13 C-2.521 8.286 -2.032 4.334 0 0 Z " fill="#EAE9E7" transform="translate(686,839)"/>
<path d="M0 0 C0.66 0.33 1.32 0.66 2 1 C1.01 1 0.02 1 -1 1 C-0.67 0.67 -0.34 0.34 0 0 Z M-3 2 C-2.34 2.33 -1.68 2.66 -1 3 C-2.32 4.32 -3.64 5.64 -5 7 C-5.99 6.67 -6.98 6.34 -8 6 C-6.35 4.68 -4.7 3.36 -3 2 Z M-10 7 C-9.34 7.33 -8.68 7.66 -8 8 C-8.99 8.99 -9.98 9.98 -11 11 C-11.66 10.67 -12.32 10.34 -13 10 C-12.01 9.01 -11.02 8.02 -10 7 Z M-15 11 C-13 12 -13 12 -13 12 Z " fill="#EBEAE8" transform="translate(773,717)"/>
<path d="M0 0 C0.99 0.33 1.98 0.66 3 1 C2.67 3.64 2.34 6.28 2 9 C1.01 9.33 0.02 9.66 -1 10 C-0.67 6.7 -0.34 3.4 0 0 Z " fill="#1B1B1A" transform="translate(704,857)"/>
<path d="M0 0 C0.99 0.33 1.98 0.66 3 1 C2.01 2.485 2.01 2.485 1 4 C-0.32 3.67 -1.64 3.34 -3 3 C-2.01 2.01 -1.02 1.02 0 0 Z " fill="#EBE9E6" transform="translate(732,753)"/>
<path d="M0 0 C0.99 0.33 1.98 0.66 3 1 C3.73 3.066 3.73 3.066 4.188 5.562 C4.346 6.389 4.505 7.215 4.668 8.066 C4.778 8.704 4.887 9.343 5 10 C4.34 10 3.68 10 3 10 C2.01 6.7 1.02 3.4 0 0 Z " fill="#ECEBE9" transform="translate(704,937)"/>
</svg>
