<svg xmlns="http://www.w3.org/2000/svg" viewBox="0 0 1080 1080" width="1080" height="1080">
  <g id="background-layer" style="mix-blend-mode: normal;">
    <image href="http://localhost:5000/static/images/sessions/bg_20250625_171747_a57d9686/background_20250625_171747_5500b67c.png" x="0" y="0" width="1080" height="1080"/>
  </g>
  <g id="elements-layer" style="mix-blend-mode: normal; opacity: 0.8;">
    <g transform="translate(0,0)">
      <!-- First path removed -->
      <path d="M0 0 C0.33 0.99 0.66 1.98 1 3 C-0.375 4.5 -0.375 4.5 -2 6 C-2.66 6 -3.32 6 -4 6 C-4.33 6.99 -4.66 7.98 -5 9 C-5.66 9.33 -6.32 9.66 -7 10 C-8.134 12.017 -8.134 12.017 -9 14 C-9.66 14 -10.32 14 -11 14 C-11 15.98 -11 17.96 -11 20 C-9.721 19.897 -8.442 19.794 -7.125 19.688 C-6.406 19.629 -5.686 19.571 -4.945 19.512 C-2.605 19.126 -2.605 19.126 -1 16 C-0.34 16 0.32 16 1 16 C1 15.34 1 14.68 1 14 C3.97 13.01 3.97 13.01 7 12 C5.633 15.987 3.848 18.885 1 22 C0.34 22 -0.32 22 -1 22 C-1.124 22.743 -1.247 23.485 -1.375 24.25 C-2.525 29.308 -4.25 31.338 -8.348 34.574 C-10.709 36.612 -12.63 38.946 -14.605 41.352 C-16 43 -16 43 -17.443 44.399 C-19.984 47.011 -21.875 50.094 -23.875 53.125 C-24.322 53.797 -24.769 54.469 -25.229 55.162 C-28.013 59.388 -30.539 63.681 -32.926 68.145 C-35.803 73.115 -39.966 76.966 -44 81 C-44.33 81.66 -44.66 82.32 -45 83 C-44.34 83.33 -43.68 83.66 -43 84 C-43.494 84.615 -43.987 85.23 -44.496 85.863 C-45.137 86.672 -45.777 87.48 -46.438 88.312 C-47.395 89.513 -47.395 89.513 -48.371 90.738 C-50.161 92.987 -50.161 92.987 -51 96 C-52.485 96.99 -52.485 96.99 -54 98 C-54.73 100.563 -54.73 100.563 -55 103 C-54.34 103.33 -53.68 103.66 -53 104 C-53 105.98 -53 107.96 -53 110 C-51.68 110.33 -50.36 110.66 -49 111 C-51.372 116.732 -56.467 119.051 -61.699 121.938 C-68.431 125.676 -72.428 129.12 -76 136 C-75.34 136 -74.68 136 -74 136 C-72.952 139.457 -72.572 142.4 -73 146 C-78.987 156.997 -78.987 156.997 -84.195 158.73 C-84.791 158.819 -85.386 158.908 -86 159 C-86.557 159.577 -87.114 160.155 -87.688 160.75 C-89.888 162.891 -91.552 163.88 -94.25 165.25 C-100.514 168.598 -105.029 173.409 -109.301 179.023 C-112.02 182.308 -115.066 183.884 -118.938 185.688 C-120.122 186.248 -121.307 186.809 -122.527 187.387 C-123.673 187.919 -124.819 188.451 -126 189 C-129.457 190.633 -132.345 192.056 -135.062 194.75 C-138 197 -138 197 -140.875 196.812 C-141.576 196.544 -142.278 196.276 -143 196 C-143 193.69 -143 191.38 -143 189 C-138.416 186.655 -133.883 184.628 -129 183 C-127.96 180.867 -127.96 180.867 -127 178 C-126.323 176.433 -125.635 174.871 -124.938 173.312 C-124.596 172.546 -124.254 171.779 -123.902 170.988 C-123.294 169.647 -122.659 168.317 -122 167 C-121.34 167 -120.68 167 -120 167 C-119.902 166.12 -119.804 165.239 -119.703 164.332 C-119.554 163.171 -119.404 162.009 -119.25 160.812 C-119.111 159.664 -118.972 158.515 -118.828 157.332 C-117.905 153.618 -116.672 151.708 -114 149 C-113.34 149 -112.68 149 -112 149 C-111.34 151.97 -110.68 154.94 -110 158 C-105.577 154.299 -101.444 150.511 -97.48 146.32 C-96 145 -96 145 -94 145 C-93.794 144.134 -93.587 143.268 -93.375 142.375 C-91.715 138.3 -89.805 135.327 -86 133 C-82.125 133.125 -82.125 133.125 -79 134 C-78.824 133.134 -78.824 133.134 -78.645 132.25 C-77.31 127.591 -74.422 123.259 -70.812 120.062 C-68.736 117.699 -68.591 116.482 -68.062 113.438 C-67.311 109.244 -67.311 109.244 -64.375 106.938 C-63.591 106.628 -62.808 106.319 -62 106 C-62.66 105.01 -63.32 104.02 -64 103 C-64.652 103.592 -65.305 104.183 -65.977 104.793 C-73.987 112.036 -73.987 112.036 -77.312 114.75 C-80.05 116.975 -80.05 116.975 -82.562 119.562 C-87.402 124.402 -93.025 128.643 -99 132 C-99.99 132 -100.98 132 -102 132 C-102 132.66 -102 133.32 -102 134 C-102.825 134.351 -103.65 134.701 -104.5 135.062 C-107.351 136.471 -109.476 138.226 -111.812 140.375 C-114.66 142.982 -117.379 144.863 -120.812 146.625 C-124.478 148.568 -126.471 149.987 -128 154 C-128.124 155.155 -128.247 156.31 -128.375 157.5 C-129147 161.821 -130.63 163.287 -134 166 C-134.66 166 -135.32 166 -136 166 C-136 165.34 -136 164.68 -136 164 C-141.678 165.201 -143.487 166.557 -147 171 C-148.31 171.731 -149.648 172.413 -151 173.062 C-159.952 177.738 -168.979 187.267 -174 196 C-174.249 197.034 -174.249 197.034 -174.504 198.09 C-175.499 201.922 -179.537 203.698 -182.688 205.75 C-185 207 -185 207 -187 207 C-188.418 208.249 -188.418 208.249 -190 210 C-191.667 211.667 -193.333 213.333 -195 215 C-195.639 215.722 -196.279 216.444 -196.938 217.188 C-199 219 -199 219 -202.062 219.75 C-205.047 220.652 -205.047 220.652 -205.875 222.688 C-206.342 224.089 -206.789 225.497 -207.219 226.91 C-208.046 229.123 -208.997 230.436 -210.562 232.188 C-213.064 234.763 -213.064 234.763 -214 237.5 C-216.237 243.092 -220.716 246.792 -225.352 250.41 C-227.389 252.375 -228.629 254.537 -230 257 C-228.393 255.9 -226.79 254.795 -225.188 253.688 C-224.294 253.073 -223.401 252.458 -222.48 251.824 C-218.53 249.107 -218.53 249.107 -216.562 245 C-215.78 242.219 -214.444 241.438 -212 240 C-211.01 240 -210.02 240 -209 240 C-208.67 239.01 -208.34 238.02 -208 237 C-205.672 235.867 -205.672 235.867 -202.75 234.875 C-201.796 234.542 -200.842 234.21 -199.859 233.867 C-197.247 233.075 -194.685 232.48 -192 232 C-192 231.34 -192 230.68 -192 230 C-188.7 228.35 -185.4 226.7 -182 225 C-181.67 225.66 -181.34 226.32 -181 227 C-180.34 227.33 -179.68 227.66 -179 228 C-180.553 229.634 -182.118 231.257 -183.688 232.875 C-184.558 233.78 -185.428 234.685 -186.324 235.617 C-188956 237.961 -190.789 238.732 -194 240 C-195.887 241.605 -197.718 243.278 -199.5 245 C-202.911 248.296 -205.52 250.449 -210 252 C-212.013 253.314 -214.013 254.647 -216 256 C-216.66 256.309 -217.32 256.619 -218 256.938 C-220.28 258.057 -220.28 258.057 -222.938 260.5 C-226 263 -226 263 -228.367 263.902 C-231.478 265.199 -233.605 266.9 -236.188 269.062 C-237.144 269.863 -238.1 270.664 -239.086 271.488 C-242.702 274.605 -246.253 277.789 -249.789 280.996 C-261.93 292 -261.93 292 -268 292 C-265.501 286.945 -261.746 283.918 -257.5 280.375 C-256.155 279.238 -254.812 278.1 -253.469 276.961 C-252.875 276.464 -252.282 275.967 -251.67 275.455 C-250.038 274.033 -248.511 272.548 -247 271 C-248.98 271 -250.96 271 -253 271 C-248.992 257.952 -248.992 257.952 -244 254 C-243.01 254 -242.02 254 -241 254 C-240.67 253.01 -240.34 252.02 -240 251 C-238.291 250.277 -236.58 249.56 -234.848 248.895 C-232.011 247.521 -230.144 245.266 -228 243 C-227.34 243 -226.68 243 -226 243 C-226 242.34 -226 241.68 -226 241 C-225.34 241 -224.68 241 -224 241 C-224 240.01 -224 239.02 -224 238 C-225.32 238 -226.64 238 -228 238 C-228 237.34 -228 236.68 -228 236 C-227.34 236 -226.68 236 -226 236 C-225.753 235.257 -225.505 234.515 -225.25 233.75 C-223.861 230.694 -222.5 229.222 -220 227 C-219.497 226.551 -218.995 226.103 -218.477 225.641 C-214.284 222 -214.284 222 -212 222 C-212 221.34 -212 220.68 -212 220 C-210.546 218.793 -210.546 218.793 -209.062 217.562 C-205.806 215.293 -205.806 215.293 -205 212 C-204.34 212 -203.68 212 -203 212 C-203 210.02 -203 208.04 -203 206 C-203.66 206 -204.32 206 -205 206 C-205 206.66 -205 207.32 -205 208 C-205.66 208 -206.32 208 -207 208 C-207.33 208.99 -207.66 209.98 -208 211 C-209.523 212.43 -209.523 212.43 -211.375 213.875 C-213.716 215.786 -214.965 216.936 -216.438 219.625 C-218.727 223.104 -222.074 224.716 -226 226 C-226.66 225.67 -227.32 225.34 -228 225 C-226.625 223 -226.625 223 -225 221 C-224.34 221 -223.68 221 -223 221 C-223.33 219.68 -223.66 218.36 -224 217 C-227.3 219.64 -230.6 222.28 -234 225 C-234 221.238 -232.73 219.332 -231 216 C-228.011 209.749 -227.259 204.845 -228 198 C-229.65 198.66 -231.3 199.32 -233 200 C-232.66 200.897 -232.66 200.897 -232.312 201.812 C-232.209 202.534 -232.106 203.256 -232 204 C-233.25 205.437 -233.25 205.437 -235 207 C-235.413 207.722 -235.825 208.444 -236.25 209.188 C-238.35 212.563 -240.883 215.316 -243.574 218.23 C-245.209 219.881 -245.209 219.881 -245 222 C-246.134 223.134 -247.272 224.262 -248.434 225.367 C-251 228.042 -253.143 231.039 -255.352 234.012 C-257 236 -257 236 -260 238 C-260.33 237.34 -260.66 236.68 -261 236 C-261.99 236.99 -262.98 237.98 -264 239 C-264.66 238.01 -265.32 237.02 -266 236 C-270.777 240.583 -270.777 240.583 -273.84 246.348 C-275.143 249.327 -276.71 251.144 -278.938 253.5 C-282751 257.549 -285.965 261.413 -287 267 C-286.01 267.33 -285.02 267.66 -284 268 C-283.01 267.34 -282.02 266.68 -281 266 C-280.01 266.33 -279.02 266.66 -278 267 C-278.928 267.536 -279.856 268.072 -280.812 268.625 C-284.293 271.218 -285.26 273.107 -287 277 C-287.536 277.516 -288.072 278.031 -288.625 278.562 C-290.523 280.547 -290.553 282.321 -291 285 C-291.634 286.679 -292.293 288.35 -293 290 C-292.01 289.67 -291.02 289.34 -290 289 C-291.37 292.161 -291.989 292.993 -295 295 C-295.736 298.568 -295.736 298.568 -296 302 C-294.35 301.34 -292.7 300.68 -291 300 C-291.658 301.67 -292.327 303.336 -293 305 C-293.681 306.763 -293.681 306.763 -294.375 308.562 C-295.926 311.843 -297.198 313.741 -300 316 C-300.66 316 -301.32 316 -302 316 C-302.66 315.34 -303.32 314.68 -304 314 C-306.108 314.319 -306.108 314.319 -308 315 C-308.021 315.577 -308.041 316.155 -308.062 316.75 C-309.293 319.703 -311.087 320.243 -313.828 321.676 C-320.465 325.722 -326.061 331.334 -330 338 C-331.315 339.681 -332.643 341.352 -334 343 C-333.67 343.66 -333.34 344.32 -333 345 C-329.7 344.34 -326.4 343.68 -323 343 C-323.33 344.32 -323.66 345.64 -324 347 C-316.667 344.357 -311.592 342.37 -307 336 C-306.01 336 -305.02 336 -304 336 C-304.01 332.676 -304.666 329.315 -305.75 326 C-305.857 324.687 -305.962 323.373 -306.062 322.06 C-301.24 321.937 -297.116 320.147 -293 316 C-287.487 310.436 -283.305 304.728 -278.562 299.188 C-272.769 292.792 -268.586 280.928 -266 268 C-265.034 262.123 -263.07 256.255 -260.75 250.438 C-256.309 241.059 -251.073 231.682 -245.062 222.25 C-242.622 217.938 -240.101 213.628 -237.629 209.25 C-233.759 203.243 -229.927 197.279 -226 191 C-226.335 191 -226.671 191 -227 191 C-228 190.34 -229 189.66 -230 189 C-230.33 188.33 -230.66 187.66 -231 187 C-232.33 186.33 -233.66 185.66 -235 185 C-233.334 165.867 -229.5 146.757 -224.75 127.75 C-222.884 119.438 -220.998 111.135 -218 103 C-217.68 101.67 -217.34 100.36 -217 99 C-216.34 99 -215.68 99 -215 99 C-214.97 98.33 -214.94 97.66 -214.906 97 C-214.658 94.967 -214.412 92.935 -214.168 90.902 C-214.022 89.668 -213.876 88.434 -213.75 87.188 C-213.371 84.86 -212.996 82.533 -212.625 80.188 C-210.439 71.968 -209.794 66.351 -209.188 60.75 C-210.824 61.308 -211.985 62.055 -213.188 62.938 C-223.481 70.012 -233.774 77.085 -244 84 C-242.676 82.793 -241.353 81.586 -240.062 80.375 C-229.648 70.96 -219.234 61.544 -209 52 C-208.169 50.782 -207.337 49.565 -206.512 48.351 C-204.779 45.737 -203.055 43.124 -201.312 40.5 C-198.464 35.868 -195.648 31.238 -193 26 C-193 26 -193 26 -193 26 C-192.251 25.236 -191.506 24.483 -190.75 23.75 C-186.989 19.518 -183.229 15.285 -179.469 11.062 C-178.258 9.255 -177.045 7.448 -175.828 5.652 C-174.607 3.846 -173.385 2.041 -172.188 0 C-171.651 -0.673 -171.115 -1.347 -170.562 -2 C-170.738 -1.34 -170.913 -0.678 -171.062 0 C-170.515 -0.385 -169.968 -0.769 -169.422 -1.125 C-168.04 -2.174 -166.827 -3.125 -165.688 -4 C-165.342 -3.736 -164.997 -3.472 -164.663 -3.209 C-162.187 -0.891 -159.711 0.057 -157 0 C-156.66 0.66 -156.33 1.32 -156 2 C-154.679 1.666 -153.358 1.341 -152.062 1.016 C-149.996 0.397 -147.93 -0.226 -145.875 -0.875 C-143.854 -1.524 -141.834 -2.173 -139.812 -2.812 C-137.356 -3.543 -135.141 -4.147 -133 -4.625 C-130.755 -5.224 -128.599 -5.768 -126.438 -6.25 C-118.686 -7.814 -111.031 -8.799 -103 -9 C-101.743 -9.103 -100.487 -9.206 -99.25 -9.312 C-96.728 -9.448 -94.206 -9.569 -91.688 -9.656 C-89.957 -9.717 -88.226 -9.778 -86.508 -9.824 C-84.763 -9.844 -83.018 -9.864 -81.263 -9.875 C-78.738 -9.898 -76.213 -9.919 -73.688 -9.938 C-71.232 -5.616 -67.235 -2.76 -64 2 C-68.675 5.156 -72.593 8.683 -76.688 12.188 C-77.119 12.895 -77.551 13.603 -77.969 14.312 C-81.242 19.041 -84.505 23.861 -87.75 28 C-90.75 32 -92.81 33.269 -96 31 C-96.373 30.464 -96.747 29.927 -97.125 29.391 C-99.148 25.783 -100.738 22.135 -102.062 18.438 C-105.69 8.303 -109.436 0.243 -113 0 C-113.33 1.66 -113.66 3.32 -114 5 C-118.55 5.73 -122.481 6.29 -126.438 7 C-125.676 6.528 -124.905 6.057 -124.125 5.59 C-121.676 4.508 -119.142 3.385 -116 2 C-115.346 1.607 -114.668 1.214 -113.938 0.812 C-111.727 0.086 -109.516 -0.175 -107 0 C-106.736 0.66 -106.472 1.32 -106 2 C-106.66 2 -107.32 2 -108 2 C-107.115 2.668 -106.231 3.337 -105.312 3.938 C-4.523 8.593 -4.696 13.07 -4.75 17.625 C-4.862 23.206 -2.632 27.04 1 31 C-0.75 28 -0.75 28 -2 27 C-1.584 26.339 -1.168 25.679 -0.75 24.938 C-0.084 23.193 0 22.447 0 21 C0 18.356 -0.134 16.712 -0.375 15.062 C-0.624 13.542 -0.873 12 -1 11 C-0.673 10.326 -0.344 9.651 0 9 C0 8.34 0 7.68 0 7 C0.66 7 1.32 7 2 7 C1.66 7.66 2.32 8.32 3 9 C4.668 9.359 4.854 10.569 4.75 12.188 C4.662 13.541 4.586 14.894 4.523 16.25 C4.448 17.917 4.373 19.584 4.25 21 C4.159 21.666 4.068 22.333 4 23 C4 22.34 4 21.68 4 21 C3.34 21 -0.32 21 -4 21 C-4.66 15.667 -4.66 15.667 -4 12 C-3.345 9.711 -2.679 7.424 -2 5 C-1.34 5 -0.68 5 0 5 C0 4.34 0 3.68 0 3 C-0.66 3 -1.32 3 -2 3 C-1.346 2.34 -0.683 1.675 0 1 C0 0.67 0 0.34 0 0 Z " fill="#531416" transform="translate(457,128)"/>
      <!-- Additional paths from the element SVG would go here, truncated for brevity -->
    </g>
  </g>
  <g id="text-layer" style="mix-blend-mode: normal;">
    <svg width="1080" height="1080" viewBox="0 0 1080 1080" xmlns="http://www.w3.org/2000/svg" preserveAspectRatio="xMidYMid meet" style="position: absolute; top: 0; left: 0; width: 100%; height: 100%;">
      <text x="50%" y="45%" dominant-baseline="middle" text-anchor="middle" class="blue">COMING</text>
      <text x="50%" y="65%" dominant-baseline="middle" text-anchor="middle" class="orange">SOON</text>
    </svg>
  </g>
</svg>