<?xml version="1.0" encoding="UTF-8"?>
<!-- Generator: visioncortex VTracer 0.6.4 -->
<svg version="1.1" xmlns="http://www.w3.org/2000/svg" width="1024" height="1024">
<path d="M0 0 C337.92 0 675.84 0 1024 0 C1024 337.92 1024 675.84 1024 1024 C686.08 1024 348.16 1024 0 1024 C0 686.08 0 348.16 0 0 Z " fill="#000E36" transform="translate(0,0)"/>
<path d="M0 0 C0 1.32 0 2.64 0 4 C-34.488 5.971 -68.985 7.535 -103.5 8.938 C-134.57 10.2 -165.631 11.56 -196.688 13.125 C-197.533 13.168 -198.379 13.21 -199.251 13.254 C-203.411 13.464 -207.571 13.674 -211.731 13.884 C-212.922 13.944 -212.922 13.944 -214.137 14.005 C-215.71 14.085 -217.283 14.164 -218.856 14.244 C-234.003 15.009 -249.153 15.7 -264.306 16.354 C-272.295 16.7 -280.283 17.055 -288.27 17.457 C-289.046 17.496 -289.823 17.535 -290.623 17.575 C-292.215 17.656 -293.808 17.736 -295.401 17.816 C-319.081 19.008 -342.77 19.972 -366.46 20.947 C-367.212 20.978 -367.965 21.009 -368.74 21.041 C-372.433 21.193 -376.127 21.344 -379.821 21.495 C-386.154 21.754 -392.487 22.018 -398.82 22.31 C-408.701 22.765 -418.543 23.15 -428.438 23.062 C-429.478 23.058 -430.519 23.053 -431.592 23.049 C-434.061 23.037 -436.531 23.021 -439 23 C-439 21.68 -439 20.36 -439 19 C-429.703 18.13 -420.405 17.655 -411.078 17.276 C-409.511 17.21 -407.944 17.144 -406.376 17.078 C-403.019 16.937 -399.662 16.797 -396.305 16.659 C-390.955 16.438 -385.605 16.214 -380.255 15.989 C-369.82 15.551 -359.385 15.117 -348.95 14.683 C-335.761 14.134 -322.572 13.585 -309.384 13.031 C-304.957 12.845 -300.53 12.66 -296.103 12.477 C-277.76 11.721 -259.427 10.889 -241.097 9.87 C-223.999 8.921 -206.896 8.171 -189.787 7.45 C-185.465 7.267 -181.143 7.081 -176.821 6.896 C-166.821 6.468 -156.821 6.042 -146.82 5.617 C-134.098 5.077 -121.376 4.535 -108.654 3.99 C-104.399 3.808 -100.144 3.626 -95.889 3.447 C-91.125 3.246 -86.361 3.043 -81.598 2.838 C-80.452 2.789 -80.452 2.789 -79.284 2.739 C-70.426 2.356 -61.571 1.935 -52.717 1.456 C-51.864 1.41 -51.011 1.364 -50.132 1.317 C-46.051 1.096 -41.971 0.871 -37.892 0.638 C-25.256 -0.069 -12.657 -0.237 0 0 Z " fill="#F3E806" transform="translate(737,778)"/>
<path d="M0 0 C5.342 3.124 9.173 7.317 11.598 13.039 C12.537 20.076 11.924 26.279 7.598 32.039 C2.72 37.117 -1.009 39.179 -8.152 39.352 C-14.619 39.281 -18.102 38.18 -22.863 33.648 C-27.221 28.863 -28.993 23.717 -28.77 17.25 C-27.692 10.764 -24.534 5.418 -19.34 1.414 C-13.315 -2.111 -6.506 -2.602 0 0 Z " fill="#FDED01" transform="translate(523.40234375,207.9609375)"/>
<path d="M0 0 C0 0.33 0 0.66 0 1 C4.95 1.495 4.95 1.495 10 2 C10 2.33 10 2.66 10 3 C4.365 3.913 -1.202 4.289 -6.902 4.535 C-8.324 4.6 -8.324 4.6 -9.774 4.666 C-12.828 4.802 -15.883 4.933 -18.938 5.062 C-20.487 5.13 -20.487 5.13 -22.068 5.198 C-37.054 5.844 -51.998 6.29 -67 6 C-67 4.68 -67 3.36 -67 2 C-58.837 1.257 -50.691 0.736 -42.5 0.438 C-41.358 0.395 -40.216 0.353 -39.04 0.309 C-26.027 -0.131 -13.018 -0.096 0 0 Z " fill="#ECDD08" transform="translate(365,795)"/>
<path d="M0 0 C-2.56 2.804 -4.47 3.866 -8.34 4.205 C-11.539 4.332 -14.738 4.455 -17.938 4.562 C-19.151 4.604 -20.364 4.646 -21.614 4.689 C-32.2 5.015 -42.784 5.109 -53.375 5.125 C-54.161 5.128 -54.947 5.13 -55.757 5.133 C-58.013 5.139 -60.268 5.137 -62.523 5.133 C-63.822 5.132 -65.121 5.131 -66.458 5.129 C-69.733 5.01 -72.787 4.624 -76 4 C-76 3.67 -76 3.34 -76 3 C-50.645 0.167 -25.481 -0.146 0 0 Z " fill="#EBDE0C" transform="translate(509,789)"/>
<path d="M0 0 C1.023 0.072 1.023 0.072 2.066 0.145 C3.67 0.257 5.272 0.378 6.875 0.5 C6.875 1.49 6.875 2.48 6.875 3.5 C1.242 3.791 -4.392 4.075 -10.026 4.354 C-11.933 4.45 -13.84 4.547 -15.747 4.646 C-28.553 5.307 -41.303 5.634 -54.125 5.5 C-54.455 4.84 -54.785 4.18 -55.125 3.5 C-57.839 3.188 -60.464 2.987 -63.188 2.875 C-64.325 2.817 -64.325 2.817 -65.486 2.758 C-67.365 2.663 -69.245 2.581 -71.125 2.5 C-71.125 2.17 -71.125 1.84 -71.125 1.5 C-65.189 1.21 -59.252 0.925 -53.315 0.646 C-51.304 0.55 -49.293 0.453 -47.282 0.354 C-31.53 -0.416 -15.752 -1.146 0 0 Z " fill="#E9DB06" transform="translate(560.125,786.5)"/>
<path d="M0 0 C1.138 -0.009 1.138 -0.009 2.298 -0.017 C3.886 -0.027 5.473 -0.033 7.06 -0.037 C9.492 -0.047 11.922 -0.078 14.354 -0.109 C15.902 -0.116 17.451 -0.121 19 -0.125 C19.725 -0.137 20.45 -0.15 21.197 -0.162 C26.221 -0.14 26.221 -0.14 28.647 1.724 C28.984 2.212 29.321 2.7 29.668 3.203 C20.628 4.038 11.626 4.417 2.552 4.443 C0.444 4.453 -1.663 4.485 -3.771 4.516 C-5.118 4.522 -6.465 4.527 -7.812 4.531 C-9.621 4.545 -9.621 4.545 -11.466 4.56 C-12.412 4.442 -13.357 4.324 -14.332 4.203 C-14.992 3.213 -15.652 2.223 -16.332 1.203 C-10.854 0.436 -5.529 0.033 0 0 Z " fill="#FAF005" transform="translate(567.33203125,784.796875)"/>
<path d="M0 0 C1.188 0.002 2.377 0.004 3.601 0.006 C12.784 0.051 21.909 0.402 31.062 1.125 C31.062 1.455 31.062 1.785 31.062 2.125 C22.448 3.224 13.925 3.278 5.257 3.255 C2.804 3.25 0.351 3.255 -2.102 3.262 C-3.677 3.261 -5.253 3.26 -6.828 3.258 C-7.553 3.26 -8.278 3.262 -9.025 3.264 C-13.1 3.245 -16.94 2.913 -20.938 2.125 C-20.938 1.795 -20.938 1.465 -20.938 1.125 C-13.941 0.046 -7.071 -0.028 0 0 Z " fill="#FCF305" transform="translate(453.9375,790.875)"/>
<path d="M0 0 C-0.66 0.66 -1.32 1.32 -2 2 C4.27 2.33 10.54 2.66 17 3 C17 3.33 17 3.66 17 4 C8.005 4.583 -0.985 5.104 -10 5.188 C-11.299 5.202 -12.599 5.216 -13.938 5.23 C-17 5 -17 5 -19 3 C-21.031 2.631 -21.031 2.631 -23.352 2.586 C-24.202 2.547 -25.053 2.509 -25.93 2.469 C-26.819 2.438 -27.709 2.407 -28.625 2.375 C-29.522 2.336 -30.419 2.298 -31.344 2.258 C-33.562 2.163 -35.781 2.078 -38 2 C-38 1.67 -38 1.34 -38 1 C-25.327 0.379 -12.69 -0.18 0 0 Z " fill="#E1D10D" transform="translate(441,791)"/>
<path d="M0 0 C0.877 0.002 1.754 0.004 2.657 0.006 C16.484 0.09 30.308 0.638 44.125 1.125 C44.125 1.455 44.125 1.785 44.125 2.125 C24.359 2.935 4.871 3.478 -14.875 2.125 C-14.875 1.795 -14.875 1.465 -14.875 1.125 C-9.861 0.116 -5.089 -0.028 0 0 Z " fill="#161C33" transform="translate(408.875,788.875)"/>
<path d="M0 0 C1.299 0.005 2.599 0.009 3.938 0.014 C7.125 0.025 10.312 0.042 13.5 0.062 C13.5 0.393 13.5 0.722 13.5 1.062 C16.8 1.393 20.1 1.722 23.5 2.062 C23.5 2.393 23.5 2.722 23.5 3.062 C8.129 3.175 -7.161 3.109 -22.5 2.062 C-22.5 1.732 -22.5 1.403 -22.5 1.062 C-15 -0.14 -7.582 -0.05 0 0 Z " fill="#FAF306" transform="translate(351.5,794.9375)"/>
<path d="M0 0 C1.396 -0.027 2.792 -0.047 4.188 -0.062 C4.965 -0.074 5.742 -0.086 6.543 -0.098 C9 0 9 0 11.199 0.486 C14.578 1.106 17.836 1.217 21.27 1.316 C21.951 1.337 22.632 1.358 23.333 1.379 C25.493 1.444 27.653 1.504 29.812 1.562 C31.283 1.606 32.754 1.649 34.225 1.693 C37.816 1.8 41.408 1.901 45 2 C45 2.33 45 2.66 45 3 C32.982 3.862 21.048 4.119 9 4 C9 3.34 9 2.68 9 2 C6.03 1.67 3.06 1.34 0 1 C0 0.67 0 0.34 0 0 Z " fill="#E6D909" transform="translate(674,780)"/>
<path d="M0 0 C6.93 0 13.86 0 21 0 C21 0.66 21 1.32 21 2 C24.96 2.33 28.92 2.66 33 3 C33 3.33 33 3.66 33 4 C21.97 4.181 11.009 3.615 0 3 C0 2.01 0 1.02 0 0 Z " fill="#E4D209" transform="translate(355,794)"/>
<path d="M0 0 C0.889 0.003 1.779 0.006 2.695 0.01 C4.076 0.022 4.076 0.022 5.484 0.035 C6.42 0.04 7.356 0.044 8.32 0.049 C10.625 0.061 12.93 0.077 15.234 0.098 C13.648 1.984 12.751 2.999 10.289 3.47 C9.21 3.465 9.21 3.465 8.109 3.461 C6.926 3.46 6.926 3.46 5.719 3.459 C4.899 3.443 4.079 3.427 3.234 3.41 C2.005 3.415 2.005 3.415 0.75 3.42 C-5.365 3.365 -5.365 3.365 -8.766 1.098 C-5.769 0.228 -3.116 -0.02 0 0 Z " fill="#FBF303" transform="translate(493.765625,788.90234375)"/>
<path d="M0 0 C1.106 -0.006 1.106 -0.006 2.234 -0.012 C7.747 -0.002 7.747 -0.002 10 1.125 C10 1.785 10 2.445 10 3.125 C7.041 3.179 4.084 3.219 1.125 3.25 C-0.138 3.275 -0.138 3.275 -1.426 3.301 C-2.231 3.307 -3.037 3.314 -3.867 3.32 C-4.611 3.331 -5.354 3.341 -6.121 3.352 C-8 3.125 -8 3.125 -10 1.125 C-6.842 -0.454 -3.463 -0.018 0 0 Z " fill="#FBF201" transform="translate(384,793.875)"/>
<path d="M0 0 C3.104 -0.029 6.208 -0.047 9.312 -0.062 C10.194 -0.071 11.075 -0.079 11.982 -0.088 C12.83 -0.091 13.678 -0.094 14.551 -0.098 C15.721 -0.106 15.721 -0.106 16.915 -0.114 C19 0 19 0 22 1 C22 1.66 22 2.32 22 3 C19.646 3.055 17.292 3.094 14.938 3.125 C13.627 3.148 12.316 3.171 10.965 3.195 C6.882 2.994 3.85 2.272 0 1 C0 0.67 0 0.34 0 0 Z " fill="#F9F206" transform="translate(661,781)"/>
<path d="M0 0 C3.437 -0.058 6.875 -0.094 10.312 -0.125 C11.289 -0.142 12.265 -0.159 13.271 -0.176 C14.209 -0.182 15.147 -0.189 16.113 -0.195 C16.977 -0.206 17.841 -0.216 18.732 -0.227 C21 0 21 0 24 2 C26.968 2.459 26.968 2.459 30.188 2.625 C31.274 2.7 32.361 2.775 33.48 2.852 C34.728 2.925 34.728 2.925 36 3 C36 3.33 36 3.66 36 4 C29.73 4 23.46 4 17 4 C16.67 3.34 16.34 2.68 16 2 C13.286 1.688 10.661 1.487 7.938 1.375 C6.8 1.317 6.8 1.317 5.639 1.258 C3.76 1.163 1.88 1.081 0 1 C0 0.67 0 0.34 0 0 Z " fill="#CFC111" transform="translate(489,788)"/>
<path d="M0 0 C5.94 0 11.88 0 18 0 C18.33 0.66 18.66 1.32 19 2 C25.27 2.33 31.54 2.66 38 3 C38 3.33 38 3.66 38 4 C30.41 4 22.82 4 15 4 C15 3.34 15 2.68 15 2 C10.05 1.67 5.1 1.34 0 1 C0 0.67 0 0.34 0 0 Z " fill="#D4C210" transform="translate(379,793)"/>
<path d="M0 0 C6.27 0 12.54 0 19 0 C19.33 0.99 19.66 1.98 20 3 C17.229 3.081 14.46 3.14 11.688 3.188 C10.902 3.213 10.116 3.238 9.307 3.264 C8.549 3.273 7.792 3.283 7.012 3.293 C6.315 3.309 5.619 3.324 4.901 3.341 C3 3 3 3 0 0 Z " fill="#FDF503" transform="translate(510,788)"/>
<path d="M0 0 C3.063 -0.027 6.125 -0.047 9.188 -0.062 C10.052 -0.071 10.916 -0.079 11.807 -0.088 C16.003 -0.104 19.909 -0.076 24 1 C24 1.33 24 1.66 24 2 C26.64 2.33 29.28 2.66 32 3 C32 3.33 32 3.66 32 4 C29.771 4.027 27.542 4.046 25.312 4.062 C24.071 4.074 22.83 4.086 21.551 4.098 C18.538 4.015 15.917 3.708 13 3 C13 2.67 13 2.34 13 2 C8.71 1.67 4.42 1.34 0 1 C0 0.67 0 0.34 0 0 Z " fill="#D4C710" transform="translate(512,787)"/>
<path d="M0 0 C2.604 -0.054 5.208 -0.094 7.812 -0.125 C8.55 -0.142 9.288 -0.159 10.049 -0.176 C13.912 -0.211 15.709 -0.194 19 2 C21.968 2.459 21.968 2.459 25.188 2.625 C26.274 2.7 27.361 2.775 28.48 2.852 C29.728 2.925 29.728 2.925 31 3 C31 3.33 31 3.66 31 4 C28.208 4.054 25.417 4.094 22.625 4.125 C21.831 4.142 21.037 4.159 20.219 4.176 C18.145 4.193 16.071 4.103 14 4 C13.34 3.34 12.68 2.68 12 2 C9.108 1.536 9.108 1.536 5.875 1.375 C4.231 1.263 4.231 1.263 2.555 1.148 C1.712 1.099 0.869 1.05 0 1 C0 0.67 0 0.34 0 0 Z " fill="#DCCB08" transform="translate(604,783)"/>
<path d="M0 0 C0.33 0.99 0.66 1.98 1 3 C-10.385 2.505 -10.385 2.505 -22 2 C-22 1.67 -22 1.34 -22 1 C-14.662 -0.174 -7.418 -0.094 0 0 Z " fill="#EEE306" transform="translate(573,785)"/>
<path d="M0 0 C8.58 0 17.16 0 26 0 C26 0.33 26 0.66 26 1 C15.11 1.495 15.11 1.495 4 2 C6.97 2.495 6.97 2.495 10 3 C10 3.33 10 3.66 10 4 C6.7 4 3.4 4 0 4 C0 2.68 0 1.36 0 0 Z " fill="#FDF908" transform="translate(298,797)"/>
<path d="M0 0 C5.655 0.068 8.775 1.075 13.312 4.375 C12.653 5.035 11.992 5.695 11.312 6.375 C10.638 5.894 9.964 5.413 9.27 4.918 C5.703 3.057 3.003 2.875 -1 2.688 C-2.881 2.589 -2.881 2.589 -4.801 2.488 C-5.753 2.451 -6.706 2.414 -7.688 2.375 C-5.042 -0.27 -3.687 0.046 0 0 Z " fill="#E7DE0A" transform="translate(514.6875,206.625)"/>
<path d="M0 0 C4.095 -0.144 7.3 -0.202 11.25 0.938 C16.445 2.409 21.627 2.665 27 3 C27 3.33 27 3.66 27 4 C23.875 4.058 20.75 4.094 17.625 4.125 C16.736 4.142 15.846 4.159 14.93 4.176 C14.079 4.182 13.228 4.189 12.352 4.195 C11.173 4.211 11.173 4.211 9.971 4.227 C8 4 8 4 6 2 C4.012 1.602 2.011 1.262 0 1 C0 0.67 0 0.34 0 0 Z " fill="#E0CF08" transform="translate(653,781)"/>
<path d="M0 0 C0.33 0 0.66 0 1 0 C0.988 0.82 0.977 1.64 0.965 2.484 C0.956 3.562 0.947 4.64 0.938 5.75 C0.926 6.817 0.914 7.885 0.902 8.984 C0.891 11.901 0.891 11.901 1.566 14.266 C2 16 2 16 1 18 C0.34 18 -0.32 18 -1 18 C-1 17.34 -1 16.68 -1 16 C-1.66 16 -2.32 16 -3 16 C-2.857 15.295 -2.714 14.59 -2.566 13.863 C-1.995 10.976 -1.461 8.084 -0.938 5.188 C-0.673 3.724 -0.673 3.724 -0.402 2.23 C-0.27 1.494 -0.137 0.758 0 0 Z " fill="#161B3E" transform="translate(535,224)"/>
<path d="M0 0 C0.66 0 1.32 0 2 0 C0.648 2.939 -0.899 5.292 -3 7.75 C-3.516 8.364 -4.031 8.977 -4.562 9.609 C-6 11 -6 11 -8 11 C-6.604 6.557 -4.396 4.135 -1 1 C-0.67 0.67 -0.34 0.34 0 0 Z " fill="#F2E807" transform="translate(505,209)"/>
<path d="M0 0 C3.63 0.99 7.26 1.98 11 3 C10.67 3.66 10.34 4.32 10 5 C5.38 5 0.76 5 -4 5 C-4 4.34 -4 3.68 -4 3 C-3.01 3 -2.02 3 -1 3 C-0.67 2.01 -0.34 1.02 0 0 Z " fill="#01104C" transform="translate(512,202)"/>
<path d="M0 0 C0.33 0 0.66 0 1 0 C1.365 1.581 1.717 3.165 2.062 4.75 C2.26 5.632 2.457 6.513 2.66 7.422 C2.998 9.987 2.812 11.571 2 14 C0 12 0 12 -0.195 9.18 C-0.172 8.089 -0.149 6.999 -0.125 5.875 C-0.107 4.779 -0.089 3.684 -0.07 2.555 C-0.047 1.712 -0.024 0.869 0 0 Z " fill="#0F123A" transform="translate(494,224)"/>
<path d="M0 0 C3.719 0.507 6.735 1.116 10 3 C8.375 3.688 8.375 3.688 6 4 C2.75 2.562 2.75 2.562 0 1 C0 0.67 0 0.34 0 0 Z " fill="#E6DE09" transform="translate(503,243)"/>
</svg>
