<?xml version="1.0" encoding="UTF-8"?>
<!-- Generator: visioncortex VTracer 0.6.4 -->
<svg version="1.1" xmlns="http://www.w3.org/2000/svg" width="1024" height="1024">
<path d="M0 0 C337.92 0 675.84 0 1024 0 C1024 337.92 1024 675.84 1024 1024 C686.08 1024 348.16 1024 0 1024 C0 686.08 0 348.16 0 0 Z " fill="#35082F" transform="translate(0,0)"/>
<path d="M0 0 C1.65 0 3.3 0 5 0 C5.688 1.286 5.688 1.286 6.391 2.598 C7.004 3.741 7.618 4.884 8.25 6.062 C8.571 6.66 8.891 7.258 9.222 7.874 C10.852 10.903 12.505 13.91 14.25 16.875 C16 20 16 20 17.5 23.562 C19.013 27.031 20.858 29.891 23 33 C24.124 35.158 25.167 37.349 26.219 39.543 C26.642 40.416 27.064 41.288 27.5 42.188 C27.923 43.068 28.346 43.948 28.781 44.855 C29.816 47.14 29.816 47.14 32 48 C32 49.32 32 50.64 32 52 C32.66 52 33.32 52 34 52 C34.289 52.969 34.577 53.939 34.875 54.938 C35.642 58.107 35.642 58.107 38 59 C38.36 60.326 38.687 61.662 39 63 C39.772 64.727 40.587 66.435 41.438 68.125 C41.869 68.994 42.301 69.863 42.746 70.758 C43.927 73.109 43.927 73.109 46 75 C46 75.66 46 76.32 46 77 C46.66 77.66 47.32 78.32 48 79 C48.748 80.311 49.454 81.648 50.125 83 C50.478 83.701 50.831 84.403 51.195 85.125 C52 87 52 87 52 89 C51.34 89 50.68 89 50 89 C54.918 102.998 62.78 115.9 70.369 128.58 C72.77 132.64 74.721 136.418 76 141 C70.317 141.219 65.169 140.586 59.577 139.597 C45.476 137.243 31.705 136.674 17.438 136.75 C16.473 136.752 15.509 136.754 14.515 136.755 C1.527 136.783 -11.302 137.137 -24.223 138.562 C-29.482 139.127 -34.716 139.09 -40 139 C-40 139.66 -40 140.32 -40 141 C-40.557 140.977 -41.114 140.954 -41.688 140.93 C-46.324 140.82 -50.305 141.16 -54.812 142.414 C-57.484 143.13 -60.164 143.706 -62.875 144.25 C-63.801 144.441 -64.726 144.632 -65.68 144.828 C-66.445 144.885 -67.211 144.942 -68 145 C-68.66 144.34 -69.32 143.68 -70 143 C-69.547 141.727 -69.087 140.457 -68.625 139.188 C-68.37 138.48 -68.115 137.772 -67.852 137.043 C-67 135 -67 135 -65 132 C-64.876 130.762 -64.752 129.525 -64.625 128.25 C-64.162 123.663 -62.424 120.894 -60 117 C-59.324 115.337 -58.659 113.67 -58 112 C-57.143 110.221 -56.268 108.449 -55.375 106.688 C-54.706 105.363 -54.706 105.363 -54.023 104.012 C-53.686 103.348 -53.348 102.684 -53 102 C-52.34 102 -51.68 102 -51 102 C-50.693 100.952 -50.693 100.952 -50.379 99.883 C-50.109 98.973 -49.84 98.063 -49.562 97.125 C-49.296 96.22 -49.029 95.315 -48.754 94.383 C-46.74 88.017 -42.989 81.977 -40 76 C-39.34 76 -38.68 76 -38 76 C-37.752 75.154 -37.505 74.309 -37.25 73.438 C-36.285 70.784 -35.355 68.762 -33.938 66.375 C-31.965 63.294 -31.965 63.294 -31.438 60.75 C-31 59 -31 59 -29.641 57.746 C-27.519 55.488 -26.546 53.147 -25.312 50.312 C-24.876 49.319 -24.439 48.325 -23.988 47.301 C-23.662 46.542 -23.336 45.782 -23 45 C-22.34 45 -21.68 45 -21 45 C-20.732 44.113 -20.464 43.226 -20.188 42.312 C-19 39 -19 39 -17.375 36.312 C-15.744 34.019 -15.744 34.019 -16 31 C-15.34 31 -14.68 31 -14 31 C-12.694 28.407 -11.424 25.802 -10.195 23.172 C-9.859 22.454 -9.522 21.736 -9.176 20.996 C-8.483 19.515 -7.79 18.033 -7.098 16.551 C-5.368 12.862 -3.601 9.204 -1.742 5.578 C0.146 2.364 0.146 2.364 0 0 Z " fill="#250018" transform="translate(512,12)"/>
<path d="M0 0 C0.99 0 1.98 0 3 0 C3.402 1.454 3.402 1.454 3.812 2.938 C4.4 4.453 4.4 4.453 5 6 C5.99 6.33 6.98 6.66 8 7 C8.52 8.746 8.52 8.746 9 11 C9.851 12.711 10.753 14.396 11.688 16.062 C12.5 17.522 12.5 17.522 13.328 19.012 C13.88 19.998 14.432 20.984 15 22 C16.476 24.691 17.944 27.386 19.41 30.082 C20.58 32.228 21.755 34.371 22.934 36.512 C23.581 37.695 24.228 38.879 24.875 40.062 C25.471 41.147 26.066 42.231 26.68 43.348 C28 46 28 46 28 48 C28.66 48.33 29.32 48.66 30 49 C30 50.32 30 51.64 30 53 C30.99 52.67 31.98 52.34 33 52 C33 52.66 33 53.32 33 54 C33.799 54.098 34.598 54.196 35.422 54.297 C42.153 55.213 48.303 56.583 54.695 58.863 C58.635 60.219 62.619 61.358 66.625 62.5 C72.278 64.121 77.725 65.924 83.117 68.301 C85.134 69.174 85.134 69.174 88 69 C88 69.66 88 70.32 88 71 C89.217 71.371 90.434 71.743 91.688 72.125 C96.921 73.864 101.84 76.155 106.824 78.504 C110.854 80.402 114.922 82.209 119 84 C119 84.66 119 85.32 119 86 C119.719 86.278 120.439 86.557 121.18 86.844 C123.896 87.957 126.502 89.184 129.125 90.5 C129.973 90.923 130.821 91.346 131.695 91.781 C134 93 134 93 137 95 C137 95.66 137 96.32 137 97 C137.887 97.268 138.774 97.536 139.688 97.812 C142.791 98.925 145.311 100.102 148 102 C148 102.66 148 103.32 148 104 C148.804 104.289 149.609 104.577 150.438 104.875 C153 106 153 106 154 108 C154.619 108.309 155.237 108.619 155.875 108.938 C158.086 110.043 159.269 111.269 161 113 C161.619 113.289 162.237 113.577 162.875 113.875 C165.777 115.411 167.685 117.685 170 120 C170.908 120.516 171.815 121.031 172.75 121.562 C175 123 175 123 175.625 125.125 C175.749 125.744 175.872 126.363 176 127 C176.99 127.33 177.98 127.66 179 128 C183.773 132.318 183.773 132.318 185 136 C185.784 136.289 186.567 136.577 187.375 136.875 C190.703 138.301 191.319 139.867 193 143 C193.557 143.557 194.114 144.114 194.688 144.688 C195.121 145.121 195.554 145.554 196 146 C196 146.66 196 147.32 196 148 C196.577 148.206 197.155 148.412 197.75 148.625 C200.793 150.485 202.073 153.045 204 156 C204.66 156 205.32 156 206 156 C206.254 156.543 206.508 157.085 206.77 157.645 C207.286 158.718 207.286 158.718 207.812 159.812 C208.149 160.52 208.485 161.228 208.832 161.957 C210.023 164.04 211.278 165.347 213 167 C214.017 168.32 215.017 169.654 216 171 C216.507 171.648 217.013 172.297 217.535 172.965 C220.321 176.563 222.406 179.709 224 184 C224.804 184.773 224.804 184.773 225.625 185.562 C227 187 227 187 227 191 C227.66 191 228.32 191 229 191 C230.005 192.956 231.004 194.915 232 196.875 C232.835 198.511 232.835 198.511 233.688 200.18 C235 203 235 203 235 205 C235.99 205 236.98 205 238 205 C238.144 206.031 238.289 207.062 238.438 208.125 C238.784 210.511 239.188 212.891 239.688 215.25 C240 218 240 218 238 221 C236.188 220.5 236.188 220.5 234 219 C232.744 216.419 231.902 213.721 231 211 C229.818 208.357 229.064 207.064 227 205 C226.536 203.793 226.536 203.793 226.062 202.562 C225.221 199.998 225.221 199.998 223.5 198.688 C221.031 195.91 220.766 192.592 220 189 C219.34 189 218.68 189 218 189 C218 187.68 218 186.36 218 185 C216.68 184.67 215.36 184.34 214 184 C213.67 182.02 213.34 180.04 213 178 C212.34 178 211.68 178 211 178 C211 177.01 211 176.02 211 175 C210.196 174.794 209.391 174.587 208.562 174.375 C207.717 173.921 206.871 173.467 206 173 C205.188 169.875 205.188 169.875 205 167 C204.34 167 203.68 167 203 167 C203 166.01 203 165.02 203 164 C202.34 164 201.68 164 201 164 C199.656 162.007 198.325 160.006 197 158 C196.237 157.237 195.474 156.474 194.688 155.688 C191.636 152.636 189.129 149.344 186.551 145.891 C185.128 143.894 185.128 143.894 183 143 C183 142.34 183 141.68 183 141 C182.34 141 181.68 141 181 141 C179.651 139.346 178.319 137.678 177 136 C176.01 135.34 175.02 134.68 174 134 C173.319 133.299 172.639 132.597 171.938 131.875 C168.708 128.567 165.066 125.792 161.441 122.934 C159.431 121.341 157.456 119.721 155.5 118.062 C153.196 116.004 153.196 116.004 151 115 C151 114.34 151 113.68 151 113 C150.278 112.732 149.556 112.464 148.812 112.188 C144.927 110.547 141.829 108.853 138.875 105.812 C137.075 103.652 137.075 103.652 134 104 C134 103.01 134 102.02 134 101 C133.441 100.899 132.881 100.799 132.305 100.695 C129.506 99.851 127.545 98.515 125.125 96.875 C117.21 91.715 108.803 87.443 100 84 C99.361 83.67 98.721 83.34 98.062 83 C95.864 81.871 95.864 81.871 92.812 81 C90 80 90 80 89 78 C86.882 77.313 86.882 77.313 84.438 76.875 C83.611 76.707 82.785 76.54 81.934 76.367 C80.976 76.185 80.976 76.185 80 76 C80 75.34 80 74.68 80 74 C79.361 73.897 78.721 73.794 78.062 73.688 C73.961 72.767 69.866 71.669 66 70 C65.67 69.34 65.34 68.68 65 68 C62.946 67.643 62.946 67.643 60.5 67.562 C56.174 67.218 52.537 66.369 48.496 64.816 C44.732 63.585 40.872 62.817 37 62 C37.853 63.597 37.853 63.597 38.723 65.227 C42.478 72.28 46.201 79.34 49.75 86.5 C52.689 92.425 55.666 98.346 59.23 103.926 C61.052 106.829 62.046 108.458 61.75 111.938 C61.503 112.618 61.255 113.299 61 114 C57.936 110.284 55.88 106.133 53.688 101.875 C51.276 97.197 48.794 92.616 46.039 88.129 C43.936 84.671 42.066 81.188 40.324 77.535 C39.888 76.633 39.452 75.732 39.002 74.803 C38.117 72.958 37.253 71.104 36.408 69.24 C34.246 64.855 32.658 61.713 27.91 60.004 C26.285 59.618 24.646 59.287 23 59 C22.058 58.813 21.116 58.626 20.145 58.433 C17.021 57.851 13.893 57.351 10.75 56.875 C9.632 56.702 8.515 56.529 7.364 56.35 C1.079 55.398 -5.164 54.555 -11.516 54.219 C-14.358 54.04 -17.155 53.779 -19.984 53.469 C-43.16 51.038 -66.924 51.696 -90 55 C-91.511 55.215 -91.511 55.215 -93.052 55.435 C-96.391 55.92 -99.727 56.424 -103.062 56.938 C-104.616 57.174 -104.616 57.174 -106.201 57.415 C-117.982 58.681 -117.982 58.681 -127.227 64.898 C-127.688 66.046 -128.15 67.193 -128.625 68.375 C-129.165 69.628 -129.71 70.878 -130.262 72.125 C-130.537 72.763 -130.812 73.401 -131.095 74.059 C-132.616 77.322 -134.514 80.336 -136.438 83.375 C-137.117 84.455 -137.796 85.535 -138.496 86.648 C-139.241 87.812 -139.241 87.812 -140 89 C-141.208 85.467 -141.056 85.114 -139.27 81.461 C-138.461 80.093 -137.641 78.731 -136.812 77.375 C-133.685 72.077 -130.916 66.972 -128.949 61.113 C-128 59 -128 59 -126.16 56.719 C-123.533 53.412 -121.683 49.928 -119.75 46.188 C-119.386 45.495 -119.023 44.802 -118.648 44.088 C-117.761 42.394 -116.88 40.698 -116 39 C-115.34 39 -114.68 39 -114 39 C-114.516 43.441 -115.629 46.246 -118 50 C-118.696 52.191 -118.696 52.191 -119 54 C-115.141 55.286 -112.948 54.522 -109 53.625 C-107.762 53.349 -106.525 53.073 -105.25 52.789 C-102.017 52.052 -102.017 52.052 -99 51 C-92.459 50.77 -92.459 50.77 -90 52 C-90 51.34 -90 50.68 -90 50 C-89.319 49.94 -88.638 49.88 -87.937 49.819 C-83.394 49.413 -78.858 48.994 -74.328 48.465 C-61.078 47.026 -47.846 46.76 -34.529 46.701 C-32.504 46.692 -30.479 46.678 -28.454 46.659 C4.157 46.386 4.157 46.386 18 51 C20.333 51.04 22.667 51.044 25 51 C22.011 44.838 18.999 38.806 15.281 33.051 C11.109 26.372 7.572 19.286 4.102 12.223 C3.167 10.338 2.183 8.478 1.188 6.625 C0 4 0 4 0 0 Z " fill="#4D0025" transform="translate(562,101)"/>
<path d="M0 0 C0.495 1.485 0.495 1.485 1 3 C2.32 2.67 3.64 2.34 5 2 C5.681 3.454 5.681 3.454 6.375 4.938 C7.658 8.071 7.658 8.071 10 9 C10.736 10.908 11.465 12.82 12.141 14.75 C12.988 16.967 14 18.975 15.125 21.062 C16.64 23.95 17.064 25.494 17.5 28.875 C17.665 29.906 17.83 30.938 18 32 C19.933 33.092 19.933 33.092 22 34 C23.062 36.812 23.062 36.812 24 40 C24.963 41.688 25.97 43.352 27 45 C27.639 46.042 28.279 47.083 28.938 48.156 C29.618 49.26 30.299 50.363 31 51.5 C34.882 57.794 34.882 57.794 36.625 60.844 C37.819 63.124 37.819 63.124 40 64 C40.712 65.648 41.374 67.318 42 69 C42.652 70.341 43.314 71.677 44 73 C44.66 73 45.32 73 46 73 C46.536 74.011 47.072 75.021 47.625 76.062 C49.635 79.619 52.062 82.527 54.828 85.52 C56 87 56 87 56 89 C56.99 89.33 57.98 89.66 59 90 C60.508 91.496 60.508 91.496 62.125 93.438 C69.398 102.005 76.758 110.323 85.359 117.578 C87.337 119.292 89.15 121.15 91 123 C91.66 123.33 92.32 123.66 93 124 C93 124.66 93 125.32 93 126 C93.516 126.227 94.031 126.454 94.562 126.688 C97.895 128.482 101.147 130.5 104 133 C104 133.66 104 134.32 104 135 C104.804 135.371 104.804 135.371 105.625 135.75 C108.569 137.3 111.249 139.129 114 141 C115.114 141.701 116.227 142.403 117.375 143.125 C118.241 143.744 119.107 144.362 120 145 C120 145.66 120 146.32 120 147 C120.949 147.268 121.898 147.536 122.875 147.812 C126 149 126 149 128 152 C127.01 152.99 126.02 153.98 125 155 C125.33 155.66 125.66 156.32 126 157 C123.03 156.01 123.03 156.01 120 155 C120 154.34 120 153.68 120 153 C119.309 152.772 118.618 152.544 117.906 152.309 C114.355 150.71 111.513 148.485 108.5 146.062 C104.114 142.552 104.114 142.552 99.406 139.496 C96.485 137.68 94.4 135.461 92 133 C89.914 131.141 87.771 129.352 85.625 127.562 C85.05 127.078 84.475 126.594 83.882 126.094 C81.547 124.127 79.206 122.169 76.844 120.234 C71.81 116.07 66.102 111.307 64 105 C62.671 104.325 61.337 103.66 60 103 C53.15 96.425 47.571 88.65 42 81 C41.319 80.081 40.639 79.162 39.938 78.215 C35.618 72.352 31.58 66.377 27.664 60.238 C27.115 59.5 26.566 58.761 26 58 C25.34 58 24.68 58 24 58 C23.691 56.577 23.691 56.577 23.375 55.125 C22.428 51.745 20.929 49.09 19.062 46.125 C16.215 41.585 14.419 37.153 13 32 C12.34 32 11.68 32 11 32 C10.876 31.381 10.752 30.763 10.625 30.125 C10.128 27.809 10.128 27.809 8 26 C7.835 24.989 7.67 23.979 7.5 22.938 C7.335 21.968 7.17 20.999 7 20 C6.34 19.67 5.68 19.34 5 19 C4.406 16.351 4.258 13.708 4 11 C0.75 13.786 -0.988 16.701 -2.812 20.543 C-6.873 28.944 -11.54 37.046 -16.324 45.051 C-17.975 47.957 -19.48 50.901 -20.958 53.897 C-22 56 -23.067 58.089 -24.141 60.176 C-24.663 61.2 -24.663 61.2 -25.195 62.244 C-25.91 63.645 -26.628 65.043 -27.352 66.439 C-29.444 70.512 -29.444 70.512 -30 75 C-31.31 76.685 -32.648 78.348 -34 80 C-35.431 82.29 -36.705 84.627 -38 87 C-38.619 88.052 -38.619 88.052 -39.25 89.125 C-40.18 91.052 -40.18 91.052 -39.812 93.5 C-39.905 94.737 -39.905 94.737 -40 96 C-41.636 97.371 -43.307 98.701 -45 100 C-46.074 101.961 -47.061 103.971 -48 106 C-48.968 107.59 -49.949 109.173 -50.938 110.75 C-54.463 116.546 -56.861 122.582 -59 129 C-60.238 130.207 -60.238 130.207 -61.5 131.438 C-63.965 133.964 -64.389 134.731 -65 138 C-64.348 137.929 -63.696 137.859 -63.024 137.786 C-53.522 136.867 -44.078 136.854 -34.543 136.867 C-32.751 136.867 -30.959 136.866 -29.167 136.864 C-25.415 136.863 -21.662 136.865 -17.909 136.87 C-13.199 136.875 -8.488 136.872 -3.778 136.866 C16.085 136.845 35.911 137.012 55.76 137.786 C60.491 137.967 65.206 138.041 69.94 138.003 C72.805 137.999 75.643 138.157 78.5 138.375 C79.5 138.445 80.501 138.514 81.531 138.586 C84 139 84 139 86 141 C82.602 142.032 79.479 142.134 75.938 142.125 C74.895 142.128 73.852 142.13 72.777 142.133 C70 142 70 142 67 141 C67 141.66 67 142.32 67 143 C66.249 142.998 65.498 142.996 64.725 142.993 C57.633 142.973 50.542 142.958 43.451 142.948 C39.805 142.943 36.16 142.936 32.515 142.925 C28.994 142.914 25.473 142.908 21.952 142.905 C19.962 142.902 17.971 142.895 15.98 142.887 C14.759 142.887 13.539 142.887 12.281 142.886 C11.21 142.884 10.14 142.882 9.037 142.88 C5.947 143.002 3.042 143.46 0 144 C-2.262 144.067 -4.526 144.085 -6.789 144.062 C-8.06 144.055 -9.331 144.047 -10.641 144.039 C-12.64 144.019 -14.639 144 -16.638 143.979 C-18.584 143.961 -20.53 143.949 -22.477 143.938 C-24.21 143.92 -24.21 143.92 -25.979 143.902 C-28.875 143.88 -28.875 143.88 -31.095 144.566 C-33.622 145.142 -35.484 144.558 -38 144 C-39.718 143.912 -41.44 143.869 -43.16 143.867 C-44.119 143.866 -45.077 143.865 -46.064 143.863 C-47.054 143.867 -48.043 143.871 -49.062 143.875 C-50.056 143.871 -51.049 143.867 -52.072 143.863 C-53.508 143.865 -53.508 143.865 -54.973 143.867 C-56.276 143.869 -56.276 143.869 -57.606 143.871 C-59.883 143.994 -61.806 144.412 -64 145 C-68.095 145.251 -69.511 145.326 -73 143 C-71.939 136.845 -70.257 132.319 -67 127 C-67 126.34 -67 125.68 -67 125 C-66.34 125 -65.68 125 -65 125 C-64.34 123.35 -63.68 121.7 -63 120 C-62.34 120 -61.68 120 -61 120 C-60.897 119.051 -60.794 118.102 -60.688 117.125 C-60 114 -60 114 -57 112 C-57 111.031 -57 110.061 -57 109.062 C-57 106 -57 106 -55.75 104.562 C-55.173 104.047 -54.595 103.531 -54 103 C-52.978 101.243 -51.958 99.485 -50.98 97.703 C-50 96 -50 96 -48.312 93.812 C-46.906 91.87 -46.418 90.343 -46 88 C-45.34 88 -44.68 88 -44 88 C-43.737 87.151 -43.474 86.301 -43.203 85.426 C-40.138 76.698 -35.578 68.475 -30.289 60.91 C-28.579 58.376 -27.279 55.772 -26 53 C-25.34 53 -24.68 53 -24 53 C-24 50.69 -24 48.38 -24 46 C-23.01 45.67 -22.02 45.34 -21 45 C-21 43.35 -21 41.7 -21 40 C-20.01 39.67 -19.02 39.34 -18 39 C-18 38.01 -18 37.02 -18 36 C-17.34 36 -16.68 36 -16 36 C-15.732 35.299 -15.464 34.597 -15.188 33.875 C-13.932 30.835 -12.498 27.927 -11 25 C-10.34 25 -9.68 25 -9 25 C-8.711 23.783 -8.423 22.566 -8.125 21.312 C-6 12.9 -6 12.9 -3.508 10.656 C-1.628 8.591 -1.326 7.036 -0.812 4.312 C-0.575 3.1 -0.575 3.1 -0.332 1.863 C-0.222 1.248 -0.113 0.634 0 0 Z " fill="#770024" transform="translate(216,544)"/>
<path d="M0 0 C0.99 0.495 0.99 0.495 2 1 C1.34 1.99 0.68 2.98 0 4 C0.66 4 1.32 4 2 4 C1.582 8.879 -0.449 10.78 -4 14 C-6.885 16.721 -6.885 16.721 -9 20 C-8.34 20.33 -7.68 20.66 -7 21 C-10.605 25.616 -14.335 29.185 -19.105 32.578 C-20.872 33.904 -22.355 35.279 -23.875 36.875 C-24.576 37.576 -25.278 38.278 -26 39 C-26.66 39 -27.32 39 -28 39 C-28.082 39.743 -28.165 40.485 -28.25 41.25 C-29.147 44.54 -30.55 45.703 -33 48 C-33.33 48.99 -33.66 49.98 -34 51 C-34.66 51 -35.32 51 -36 51 C-36.258 51.547 -36.516 52.093 -36.781 52.656 C-38.716 56.377 -41.064 59.827 -43.344 63.344 C-44.708 65.531 -45.901 67.674 -47 70 C-49.677 75.586 -49.677 75.586 -51.562 78 C-53.379 80.528 -54.033 83.041 -55 86 C-55.628 87.28 -56.275 88.55 -56.938 89.812 C-58.731 93.3 -59.971 96.776 -61.152 100.508 C-63.297 106.814 -66.08 112.902 -68.75 119 C-69.754 121.409 -70.398 123.488 -71 126 C-71.477 127.73 -71.956 129.459 -72.438 131.188 C-72.962 133.124 -73.483 135.062 -74 137 C-74.3 138.12 -74.3 138.12 -74.605 139.262 C-75.958 144.765 -76.351 150.189 -76.715 155.836 C-77.092 160.021 -78.013 163.919 -79 168 C-79 168.99 -79 169.98 -79 171 C-79.816 178.343 -79.816 178.343 -80.543 180.938 C-81.261 184.178 -80.911 187.363 -80.742 190.66 C-81 193 -81 193 -82.383 194.746 C-84 196 -84 196 -86 197 C-86.33 197.99 -86.66 198.98 -87 200 C-86.34 200 -85.68 200 -85 200 C-85.33 203.3 -85.66 206.6 -86 210 C-85.67 210 -85.34 210 -85 210 C-85.113 211.98 -85.241 213.959 -85.375 215.938 C-85.445 217.04 -85.514 218.142 -85.586 219.277 C-85.723 220.176 -85.859 221.074 -86 222 C-86.66 222.33 -87.32 222.66 -88 223 C-88.169 219 -88.335 215 -88.5 211 C-88.548 209.875 -88.595 208.749 -88.645 207.59 C-88.972 199.578 -89.276 191.784 -88.281 183.809 C-87.983 180.829 -87.822 177.852 -87.674 174.861 C-87.184 165.015 -85.643 155.753 -83.441 146.148 C-82.75 142.785 -82.372 139.413 -82 136 C-81.34 136 -80.68 136 -80 136 C-80.062 134.67 -80.062 134.67 -80.125 133.312 C-79.996 129.896 -79.28 128.128 -78 125 C-77.688 123.441 -77.399 121.878 -77.125 120.312 C-76.27 115.817 -74.894 111.852 -73.109 107.648 C-71.957 104.898 -70.953 102.116 -69.938 99.312 C-64.519 85.215 -57.905 71.36 -49.715 58.664 C-47.28 54.882 -45.15 50.948 -43 47 C-41.312 43.938 -41.312 43.938 -40 42 C-39.34 42 -38.68 42 -38 42 C-37.711 41.423 -37.423 40.845 -37.125 40.25 C-36.754 39.507 -36.382 38.765 -36 38 C-35.505 36.917 -35.505 36.917 -35 35.812 C-34 34 -34 34 -32 33 C-31.316 31.675 -30.65 30.341 -30 29 C-29.34 28.34 -28.68 27.68 -28 27 C-28.186 25.969 -28.371 24.938 -28.562 23.875 C-29.12 18.937 -27.974 16.501 -26 12 C-25.01 12.33 -24.02 12.66 -23 13 C-18.465 13.961 -18.465 13.961 -14 13 C-13.67 12.01 -13.34 11.02 -13 10 C-12.34 10 -11.68 10 -11 10 C-10.67 9.01 -10.34 8.02 -10 7 C-9.34 7 -8.68 7 -8 7 C-8 6.34 -8 5.68 -8 5 C-6.32 3.676 -6.32 3.676 -4.125 2.312 C-3.406 1.855 -2.686 1.397 -1.945 0.926 C-1.303 0.62 -0.661 0.315 0 0 Z M-28 23 C-27 25 -27 25 -27 25 Z " fill="#05286F" transform="translate(285,235)"/>
<path d="M0 0 C6.548 1.001 11.401 2.458 17 6 C17.99 6.33 18.98 6.66 20 7 C20 7.66 20 8.32 20 9 C21.079 9.418 21.079 9.418 22.18 9.844 C24.896 10.957 27.502 12.184 30.125 13.5 C30.973 13.923 31.821 14.346 32.695 14.781 C35 16 35 16 38 18 C38 18.66 38 19.32 38 20 C38.887 20.268 39.774 20.536 40.688 20.812 C43.791 21.925 46.311 23.102 49 25 C49 25.66 49 26.32 49 27 C50.207 27.433 50.207 27.433 51.438 27.875 C54 29 54 29 55 31 C55.928 31.464 55.928 31.464 56.875 31.938 C59.086 33.043 60.269 34.269 62 36 C62.928 36.433 62.928 36.433 63.875 36.875 C66.777 38.411 68.685 40.685 71 43 C72.361 43.773 72.361 43.773 73.75 44.562 C76 46 76 46 76.625 48.125 C76.749 48.744 76.872 49.363 77 50 C78.485 50.495 78.485 50.495 80 51 C84.773 55.318 84.773 55.318 86 59 C87.176 59.433 87.176 59.433 88.375 59.875 C91.703 61.301 92.319 62.867 94 66 C94.557 66.557 95.114 67.114 95.688 67.688 C96.121 68.121 96.554 68.554 97 69 C97 69.66 97 70.32 97 71 C97.577 71.206 98.155 71.412 98.75 71.625 C101.793 73.485 103.073 76.045 105 79 C105.66 79 106.32 79 107 79 C107.254 79.543 107.508 80.085 107.77 80.645 C108.114 81.36 108.458 82.075 108.812 82.812 C109.149 83.52 109.485 84.228 109.832 84.957 C111.023 87.04 112.278 88.347 114 90 C115.017 91.32 116.017 92.654 117 94 C117.507 94.648 118.013 95.297 118.535 95.965 C121.321 99.563 123.406 102.709 125 107 C125.536 107.516 126.072 108.031 126.625 108.562 C128 110 128 110 128 114 C128.66 114 129.32 114 130 114 C131.005 115.956 132.004 117.915 133 119.875 C133.557 120.966 134.114 122.056 134.688 123.18 C136 126 136 126 136 128 C136.99 128 137.98 128 139 128 C139.217 129.547 139.217 129.547 139.438 131.125 C139.784 133.511 140.188 135.891 140.688 138.25 C141 141 141 141 139 144 C137.188 143.5 137.188 143.5 135 142 C133.744 139.419 132.902 136.721 132 134 C130.818 131.357 130.064 130.064 128 128 C127.691 127.196 127.381 126.391 127.062 125.562 C126.221 122.998 126.221 122.998 124.5 121.688 C122.031 118.91 121.766 115.592 121 112 C120.34 112 119.68 112 119 112 C119 110.68 119 109.36 119 108 C117.02 107.505 117.02 107.505 115 107 C114.67 105.02 114.34 103.04 114 101 C113.34 101 112.68 101 112 101 C112 100.01 112 99.02 112 98 C110.793 97.691 110.793 97.691 109.562 97.375 C108.717 96.921 107.871 96.467 107 96 C106.188 92.875 106.188 92.875 106 90 C105.34 90 104.68 90 104 90 C104 89.01 104 88.02 104 87 C103.34 87 102.68 87 102 87 C100.656 85.007 99.325 83.006 98 81 C97.237 80.237 96.474 79.474 95.688 78.688 C92.636 75.636 90.129 72.344 87.551 68.891 C86.128 66.894 86.128 66.894 84 66 C84 65.34 84 64.68 84 64 C83.34 64 82.68 64 82 64 C80.651 62.346 79.319 60.678 78 59 C76.515 58.01 76.515 58.01 75 57 C74.319 56.299 73.639 55.597 72.938 54.875 C69.708 51.567 66.066 48.792 62.441 45.934 C60.431 44.341 58.456 42.721 56.5 41.062 C54.196 39.004 54.196 39.004 52 38 C52 37.34 52 36.68 52 36 C51.278 35.732 50.556 35.464 49.812 35.188 C45.927 33.547 42.829 31.853 39.875 28.812 C38.075 26.652 38.075 26.652 35 27 C35 26.01 35 25.02 35 24 C34.161 23.849 34.161 23.849 33.305 23.695 C30.506 22.851 28.545 21.515 26.125 19.875 C20.66 16.307 15.049 13.434 9.195 10.578 C5.701 8.853 2.347 6.992 -1 5 C-0.67 3.35 -0.34 1.7 0 0 Z " fill="#DE2131" transform="translate(661,178)"/>
<path d="M0 0 C0.33 0.66 0.66 1.32 1 2 C-0.155 4.609 -1.367 7.102 -2.688 9.625 C-3.04 10.312 -3.393 10.999 -3.756 11.707 C-5.198 14.518 -6.649 17.325 -8.108 20.127 C-9.963 23.746 -11.526 27.173 -12.562 31.125 C-14.095 36.485 -15.954 40.884 -19.625 45.125 C-21.829 47.793 -22.38 48.79 -23 52 C-22.348 51.929 -21.696 51.859 -21.024 51.786 C-11.522 50.867 -2.078 50.854 7.457 50.867 C9.249 50.867 11.041 50.866 12.833 50.864 C16.585 50.863 20.338 50.865 24.091 50.87 C28.801 50.875 33.512 50.872 38.222 50.866 C58.085 50.845 77.911 51.012 97.76 51.786 C102.491 51.967 107.206 52.041 111.94 52.003 C114.805 51.999 117.643 52.157 120.5 52.375 C121.5 52.445 122.501 52.514 123.531 52.586 C126 53 126 53 128 55 C124.602 56.032 121.479 56.134 117.938 56.125 C116.895 56.128 115.852 56.13 114.777 56.133 C112 56 112 56 109 55 C109 55.66 109 56.32 109 57 C108.249 56.998 107.498 56.996 106.725 56.993 C99.633 56.973 92.542 56.958 85.451 56.948 C81.805 56.943 78.16 56.936 74.515 56.925 C70.994 56.914 67.473 56.908 63.952 56.905 C61.962 56.902 59.971 56.895 57.98 56.887 C56.759 56.887 55.539 56.887 54.281 56.886 C53.21 56.884 52.14 56.882 51.037 56.88 C47.947 57.002 45.042 57.46 42 58 C39.738 58.067 37.474 58.085 35.211 58.062 C33.94 58.055 32.669 58.047 31.359 58.039 C29.36 58.019 27.361 58 25.362 57.979 C23.416 57.961 21.47 57.949 19.523 57.938 C18.368 57.926 17.212 57.914 16.021 57.902 C13.125 57.88 13.125 57.88 10.905 58.566 C8.378 59.142 6.516 58.558 4 58 C2.282 57.912 0.56 57.869 -1.16 57.867 C-2.119 57.866 -3.077 57.865 -4.064 57.863 C-5.054 57.867 -6.043 57.871 -7.062 57.875 C-8.552 57.869 -8.552 57.869 -10.072 57.863 C-11.508 57.865 -11.508 57.865 -12.973 57.867 C-14.276 57.869 -14.276 57.869 -15.606 57.871 C-17.883 57.994 -19.806 58.412 -22 59 C-26.095 59.251 -27.511 59.326 -31 57 C-29.939 50.845 -28.257 46.319 -25 41 C-25 40.34 -25 39.68 -25 39 C-24.34 39 -23.68 39 -23 39 C-22.34 37.35 -21.68 35.7 -21 34 C-20.34 34 -19.68 34 -19 34 C-18.897 33.051 -18.794 32.102 -18.688 31.125 C-18 28 -18 28 -15 26 C-15 25.031 -15 24.061 -15 23.062 C-15 20 -15 20 -13.75 18.562 C-13.173 18.047 -12.595 17.531 -12 17 C-10.981 15.248 -9.962 13.494 -8.984 11.719 C-7.816 9.678 -6.468 7.835 -5 6 C-4.34 6.33 -3.68 6.66 -3 7 C-2.691 6.031 -2.381 5.061 -2.062 4.062 C-1 1 -1 1 0 0 Z " fill="#970108" transform="translate(174,630)"/>
<path d="M0 0 C-0.33 1.32 -0.66 2.64 -1 4 C-2.45 4.255 -2.45 4.255 -3.93 4.516 C-10.962 5.807 -17.322 7.326 -23.902 10.215 C-26.66 11.247 -29.089 11.306 -32 11 C-32 11.99 -32 12.98 -32 14 C-33.076 14.364 -34.153 14.727 -35.262 15.102 C-43.364 17.876 -51.2 20.852 -58.934 24.559 C-62.045 26.021 -65.189 27.334 -68.375 28.625 C-72.835 30.459 -76.89 32.483 -81 35 C-85.351 37.65 -89.798 40.082 -94.281 42.5 C-102.421 46.991 -109.949 51.926 -116.852 58.16 C-119.227 60.195 -121.702 61.999 -124.25 63.812 C-129.499 67.556 -134.386 71.605 -139.273 75.801 C-141.757 77.804 -144.223 79.44 -147 81 C-147 80.34 -147 79.68 -147 79 C-147.66 79 -148.32 79 -149 79 C-149 78.01 -149 77.02 -149 76 C-149.99 76.495 -149.99 76.495 -151 77 C-150.812 75.188 -150.812 75.188 -150 73 C-148.345 71.981 -146.676 70.984 -145 70 C-143.143 68.551 -141.31 67.07 -139.5 65.562 C-137.667 64.041 -135.834 62.52 -134 61 C-133.123 60.267 -132.247 59.533 -131.344 58.777 C-129 57 -129 57 -126 56 C-125.67 55.34 -125.34 54.68 -125 54 C-124.01 54 -123.02 54 -122 54 C-122 53.34 -122 52.68 -122 52 C-120.02 51.34 -118.04 50.68 -116 50 C-116 49.34 -116 48.68 -116 48 C-115.01 48 -114.02 48 -113 48 C-113 47.34 -113 46.68 -113 46 C-112.466 45.709 -111.933 45.417 -111.383 45.117 C-106.475 42.417 -101.64 39.622 -96.848 36.723 C-95.908 36.154 -94.968 35.586 -94 35 C-93.289 34.559 -92.578 34.118 -91.845 33.663 C-85.709 29.901 -79.444 26.635 -72.938 23.562 C-71.945 23.089 -70.953 22.616 -69.931 22.129 C-63.038 18.874 -56.079 15.845 -48.965 13.106 C-45.296 11.883 -45.296 11.883 -43 9 C-40.516 8.172 -38.648 8 -36 8 C-31.383 7.547 -27.514 6.476 -23.196 4.818 C-19.593 3.476 -15.931 2.355 -12.25 1.25 C-11.509 1.017 -10.768 0.783 -10.004 0.543 C-6.244 -0.584 -3.746 -1.182 0 0 Z " fill="#150A4F" transform="translate(434,160)"/>
<path d="M0 0 C1.32 0.33 2.64 0.66 4 1 C3.734 1.519 3.469 2.039 3.195 2.574 C2.842 3.272 2.489 3.969 2.125 4.688 C1.777 5.372 1.429 6.056 1.07 6.762 C-0.039 9.006 -0.039 9.006 -0.938 11.434 C-2.108 14.261 -3.546 16.753 -5.125 19.375 C-7.927 24.104 -10.568 28.887 -13.125 33.75 C-15.578 38.409 -18.125 42.952 -20.984 47.375 C-22.514 49.822 -23.733 52.41 -25 55 C-25.997 56.772 -27.018 58.53 -28.039 60.289 C-28.879 61.785 -29.635 63.327 -30.375 64.875 C-32.143 68.274 -34.203 71.329 -36.402 74.461 C-38.123 77.195 -39.524 79.997 -40.945 82.895 C-42.636 86.268 -44.507 89.535 -46.375 92.812 C-47.176 94.229 -47.977 95.646 -48.777 97.062 C-49.161 97.742 -49.545 98.421 -49.941 99.121 C-54.599 107.385 -59.008 115.78 -63.398 124.189 C-65.251 127.727 -67.119 131.245 -69.117 134.703 C-71.208 138.364 -73.075 142.097 -74.917 145.887 C-75.92 147.947 -76.929 150.005 -77.938 152.062 C-78.272 152.757 -78.607 153.451 -78.951 154.166 C-80.469 157.245 -81.899 159.875 -84.066 162.559 C-86.408 165.516 -87.559 168.519 -89 172 C-90.324 174.522 -91.749 176.98 -93.188 179.438 C-93.556 180.074 -93.924 180.71 -94.303 181.365 C-95.198 182.912 -96.099 184.456 -97 186 C-97.66 185.67 -98.32 185.34 -99 185 C-99.99 185.99 -99.99 185.99 -101 187 C-101 185.68 -101 184.36 -101 183 C-100.34 183 -99.68 183 -99 183 C-98.01 180.03 -97.02 177.06 -96 174 C-95.34 174 -94.68 174 -94 174 C-93.876 173.278 -93.752 172.556 -93.625 171.812 C-93.01 169.043 -92.116 166.603 -91 164 C-90.34 164 -89.68 164 -89 164 C-89 163.01 -89 162.02 -89 161 C-88.34 161 -87.68 161 -87 161 C-87 160.01 -87 159.02 -87 158 C-86.34 158 -85.68 158 -85 158 C-84.876 157.072 -84.752 156.144 -84.625 155.188 C-84 152 -84 152 -82 149 C-81.34 149 -80.68 149 -80 149 C-80 147.68 -80 146.36 -80 145 C-79.34 145 -78.68 145 -78 145 C-77.918 144.299 -77.835 143.597 -77.75 142.875 C-77.001 140.004 -75.872 138.189 -74.172 135.793 C-71.742 132.075 -69.939 127.989 -68 124 C-67.231 122.457 -66.461 120.916 -65.688 119.375 C-65.131 118.261 -64.574 117.147 -64 116 C-63.34 116 -62.68 116 -62 116 C-61.711 115.113 -61.423 114.226 -61.125 113.312 C-60.169 110.496 -59.132 107.749 -58 105 C-57.34 105 -56.68 105 -56 105 C-55.882 104.271 -55.764 103.542 -55.643 102.79 C-54.995 99.977 -54.077 97.89 -52.715 95.355 C-52.267 94.514 -51.819 93.673 -51.357 92.807 C-50.655 91.51 -50.655 91.51 -49.938 90.188 C-49.465 89.304 -48.993 88.42 -48.506 87.51 C-47.343 85.337 -46.174 83.167 -45 81 C-44.34 81 -43.68 81 -43 81 C-42.83 80.42 -42.66 79.84 -42.484 79.242 C-40.924 74.212 -39.096 70.315 -36 66 C-31.908 59.227 -28.501 52.09 -25 45 C-24.34 45 -23.68 45 -23 45 C-22.794 44.031 -22.587 43.061 -22.375 42.062 C-21.206 37.956 -19.055 34.906 -16.633 31.43 C-13.751 27.141 -11.418 22.561 -9 18 C-8.294 16.69 -7.587 15.38 -6.879 14.07 C-6.148 12.714 -5.418 11.357 -4.688 10 C-4.338 9.353 -3.988 8.705 -3.627 8.039 C-2.205 5.38 -0.956 2.867 0 0 Z " fill="#021D67" transform="translate(334,334)"/>
<path d="M0 0 C0.811 0.205 1.622 0.41 2.457 0.621 C8.852 2.177 14.984 3.36 21.562 3.691 C24.332 4.042 26.422 4.929 29 6 C31.714 6.844 34.452 7.603 37.188 8.375 C42.988 10.037 48.585 11.863 54.117 14.301 C56.134 15.174 56.134 15.174 59 15 C59 15.66 59 16.32 59 17 C59.58 17.182 60.16 17.364 60.758 17.551 C65.391 19.042 69.698 20.683 74 23 C73.34 23.33 72.68 23.66 72 24 C71.34 23.67 70.68 23.34 70 23 C69.505 25.475 69.505 25.475 69 28 C69.66 28 70.32 28 71 28 C71 28.66 71 29.32 71 30 C70.464 29.711 69.928 29.423 69.375 29.125 C66.915 27.893 66.915 27.893 63.812 27 C61 26 61 26 60 24 C57.882 23.313 57.882 23.313 55.438 22.875 C54.611 22.707 53.785 22.54 52.934 22.367 C52.296 22.246 51.657 22.125 51 22 C51 21.34 51 20.68 51 20 C50.361 19.897 49.721 19.794 49.062 19.688 C44.961 18.767 40.866 17.669 37 16 C36.505 15.01 36.505 15.01 36 14 C33.946 13.643 33.946 13.643 31.5 13.562 C27.174 13.218 23.537 12.369 19.496 10.816 C15.732 9.585 11.872 8.817 8 8 C8.568 9.065 9.137 10.13 9.723 11.227 C13.478 18.28 17.201 25.34 20.75 32.5 C23.689 38.425 26.666 44.346 30.23 49.926 C32.052 52.829 33.046 54.458 32.75 57.938 C32.503 58.618 32.255 59.299 32 60 C28.936 56.284 26.88 52.133 24.688 47.875 C22.278 43.2 19.798 38.612 17.062 34.117 C13.921 28.94 11.095 23.627 8.312 18.25 C7.604 16.891 7.604 16.891 6.881 15.504 C5.581 13.006 4.29 10.503 3 8 C2.395 6.84 1.791 5.68 1.168 4.484 C0 2 0 2 0 0 Z " fill="#8D0023" transform="translate(591,155)"/>
<path d="M0 0 C0.66 0.33 1.32 0.66 2 1 C3.407 7.954 3.072 15.292 2.938 22.348 C2.811 24.977 2.811 24.977 4 27 C4.045 28.52 4.039 30.042 4 31.562 C3.962 33.041 3.954 34.522 4 36 C4.33 36.33 4.66 36.66 5 37 C5.237 43.525 5.237 43.525 4 46 C4.66 46 5.32 46 6 46 C6 47.65 6 49.3 6 51 C6.99 50.505 6.99 50.505 8 50 C7.988 50.568 7.977 51.137 7.965 51.723 C7.891 58.054 8.508 63.947 9.949 70.121 C11.2 75.698 11.996 81.322 12.768 86.982 C13.561 92.359 14.964 96.96 17 102 C18.094 105.646 19.112 109.299 20 113 C21.485 112.505 21.485 112.505 23 112 C22.67 112.99 22.34 113.98 22 115 C21.34 114.67 20.68 114.34 20 114 C19.67 114.99 19.34 115.98 19 117 C18.34 117 17.68 117 17 117 C16.323 115.275 15.659 113.545 15 111.812 C14.629 110.85 14.257 109.887 13.875 108.895 C13.024 106.078 12.829 103.918 13 101 C12.34 100.67 11.68 100.34 11 100 C10.333 97.667 9.667 95.333 9 93 C8.34 92.67 7.68 92.34 7 92 C6.33 90.07 6.33 90.07 5.746 87.555 C5.531 86.642 5.317 85.729 5.096 84.789 C4.77 83.347 4.77 83.347 4.438 81.875 C4.216 80.937 3.995 79.998 3.768 79.031 C2.609 74.034 1.679 69.088 1 64 C0.686 62.641 0.355 61.286 0 59.938 C-1.234 54.655 -1.468 49.346 -1.754 43.941 C-1.811 41.069 -1.811 41.069 -3 39 C-2.936 37.184 -2.799 35.371 -2.625 33.562 C-2.527 32.493 -2.429 31.423 -2.328 30.32 C-2.115 28.169 -1.897 26.018 -1.672 23.867 C-1.574 22.9 -1.476 21.934 -1.375 20.938 C-1.28 20.06 -1.184 19.182 -1.086 18.277 C-0.86 15.834 -0.86 15.834 -2 13 C-1.642 10.078 -1.321 7.641 0 5 C-0.66 5 -1.32 5 -2 5 C-1.125 1.125 -1.125 1.125 0 0 Z " fill="#2C1552" transform="translate(200,430)"/>
<path d="M0 0 C0.66 0.33 1.32 0.66 2 1 C1.34 1.99 0.68 2.98 0 4 C0.66 4 1.32 4 2 4 C1.582 8.879 -0.449 10.78 -4 14 C-6.885 16.721 -6.885 16.721 -9 20 C-8.34 20.33 -7.68 20.66 -7 21 C-10.605 25.616 -14.335 29.185 -19.105 32.578 C-20.872 33.904 -22.355 35.279 -23.875 36.875 C-24.576 37.576 -25.277 38.278 -26 39 C-26.66 39 -27.32 39 -28 39 C-28.071 39.757 -28.142 40.513 -28.215 41.293 C-29.224 44.773 -30.509 45.463 -33.562 47.312 C-34.389 47.824 -35.215 48.336 -36.066 48.863 C-36.704 49.238 -37.343 49.614 -38 50 C-38.66 48.68 -39.32 47.36 -40 46 C-39.567 45.469 -39.134 44.938 -38.688 44.391 C-38.131 43.684 -37.574 42.978 -37 42.25 C-36.443 41.554 -35.886 40.858 -35.312 40.141 C-33.652 37.85 -33.652 37.85 -34 34 C-33.01 33.505 -33.01 33.505 -32 33 C-31.316 31.675 -30.65 30.341 -30 29 C-29.34 28.34 -28.68 27.68 -28 27 C-28.278 25.453 -28.278 25.453 -28.562 23.875 C-29.12 18.937 -27.974 16.501 -26 12 C-25.01 12.33 -24.02 12.66 -23 13 C-18.465 13.961 -18.465 13.961 -14 13 C-13.67 12.01 -13.34 11.02 -13 10 C-12.34 10 -11.68 10 -11 10 C-10.67 9.01 -10.34 8.02 -10 7 C-9.34 7 -8.68 7 -8 7 C-8 6.34 -8 5.68 -8 5 C-6.32 3.676 -6.32 3.676 -4.125 2.312 C-3.406 1.855 -2.686 1.397 -1.945 0.926 C-1.303 0.62 -0.661 0.315 0 0 Z M-28 23 C-27 25 -27 25 -27 25 Z " fill="#016FB2" transform="translate(285,235)"/>
<path d="M0 0 C2.773 2.395 3.7 4.613 5 8 C5.391 8.9 5.781 9.8 6.184 10.727 C8.776 16.718 10.841 22.557 12.324 28.918 C12.547 29.605 12.77 30.292 13 31 C13.66 31.33 14.32 31.66 15 32 C15.4 34.323 15.72 36.66 16 39 C16.482 41.566 16.983 44.128 17.5 46.688 C17.887 48.611 17.887 48.611 18.281 50.574 C19.253 55.321 19.253 55.321 20.754 59.91 C24.04 68.657 23.255 77.811 23 87 C22.01 87.495 22.01 87.495 21 88 C19.866 90.017 19.866 90.017 19 92 C18.914 91.435 18.829 90.87 18.74 90.288 C18.351 87.733 17.957 85.179 17.562 82.625 C17.428 81.736 17.293 80.846 17.154 79.93 C17.022 79.079 16.89 78.228 16.754 77.352 C16.633 76.566 16.513 75.781 16.389 74.971 C16.078 72.934 16.078 72.934 15 71 C14.704 69.087 14.438 67.169 14.188 65.25 C13.202 58.666 11.583 52.454 9.636 46.094 C8.9 43.67 8.188 41.24 7.477 38.809 C6.943 36.997 6.409 35.186 5.875 33.375 C5.621 32.509 5.368 31.644 5.106 30.752 C4.862 29.934 4.619 29.116 4.367 28.273 C4.044 27.182 4.044 27.182 3.714 26.068 C3.04 23.939 3.04 23.939 1.852 21.858 C1.571 21.245 1.29 20.632 1 20 C1.33 19.34 1.66 18.68 2 18 C1.01 18 0.02 18 -1 18 C-1.144 16.928 -1.289 15.855 -1.438 14.75 C-1.837 12.083 -2.276 9.586 -3 7 C-2.34 7 -1.68 7 -1 7 C-0.67 4.69 -0.34 2.38 0 0 Z " fill="#68053F" transform="translate(801,315)"/>
<path d="M0 0 C1.65 0 3.3 0 5 0 C5.495 1.98 5.495 1.98 6 4 C5.01 4.66 4.02 5.32 3 6 C1.487 8.676 0.206 11.124 -0.5 14.125 C-1.147 16.552 -2.489 18.006 -4 20 C-4.304 20.761 -4.608 21.521 -4.922 22.305 C-6.031 25.078 -7.354 27.583 -8.812 30.188 C-11.689 35.389 -14.384 40.663 -17 46 C-17.66 46 -18.32 46 -19 46 C-19.115 46.733 -19.229 47.467 -19.348 48.223 C-20.012 51.05 -20.95 52.961 -22.438 55.438 C-24.429 58.88 -25.914 62.151 -27 66 C-27.66 66 -28.32 66 -29 66 C-29.495 67.98 -29.495 67.98 -30 70 C-30.66 70 -31.32 70 -32 70 C-32.193 70.615 -32.387 71.23 -32.586 71.863 C-32.846 72.672 -33.107 73.48 -33.375 74.312 C-33.758 75.513 -33.758 75.513 -34.148 76.738 C-35 79 -35 79 -37 82 C-37.66 82 -38.32 82 -39 82 C-39.206 82.949 -39.413 83.897 -39.625 84.875 C-40.842 89.165 -43.072 92.626 -45.418 96.387 C-47.883 100.459 -49.924 104.721 -52 109 C-52.685 110.376 -53.373 111.751 -54.062 113.125 C-54.378 113.757 -54.694 114.388 -55.02 115.039 C-56.68 118.359 -58.34 121.68 -60 125 C-60.66 125 -61.32 125 -62 125 C-62.33 125.99 -62.66 126.98 -63 128 C-63.75 126.438 -63.75 126.438 -64 124 C-63.085 122.266 -62.166 120.528 -61.105 118.879 C-59.803 116.665 -58.941 114.39 -58 112 C-57.143 110.221 -56.268 108.449 -55.375 106.688 C-54.706 105.363 -54.706 105.363 -54.023 104.012 C-53.686 103.348 -53.348 102.684 -53 102 C-52.34 102 -51.68 102 -51 102 C-50.795 101.301 -50.59 100.603 -50.379 99.883 C-50.109 98.973 -49.84 98.063 -49.562 97.125 C-49.162 95.768 -49.162 95.768 -48.754 94.383 C-46.74 88.017 -42.989 81.977 -40 76 C-39.34 76 -38.68 76 -38 76 C-37.752 75.154 -37.505 74.309 -37.25 73.438 C-36.285 70.784 -35.355 68.762 -33.938 66.375 C-31.965 63.294 -31.965 63.294 -31.438 60.75 C-31 59 -31 59 -29.641 57.746 C-27.519 55.488 -26.546 53.147 -25.312 50.312 C-24.876 49.319 -24.439 48.325 -23.988 47.301 C-23.662 46.542 -23.336 45.782 -23 45 C-22.34 45 -21.68 45 -21 45 C-20.732 44.113 -20.464 43.226 -20.188 42.312 C-19 39 -19 39 -17.375 36.312 C-15.744 34.019 -15.744 34.019 -16 31 C-15.34 31 -14.68 31 -14 31 C-12.694 28.407 -11.424 25.802 -10.195 23.172 C-9.859 22.454 -9.522 21.736 -9.176 20.996 C-8.483 19.515 -7.79 18.033 -7.098 16.551 C-5.368 12.862 -3.601 9.204 -1.742 5.578 C0.146 2.364 0.146 2.364 0 0 Z " fill="#420012" transform="translate(512,12)"/>
<path d="M0 0 C1.98 0.99 3.96 1.98 6 3 C6 3.99 6 4.98 6 6 C6.66 6 7.32 6 8 6 C8.33 6.66 8.66 7.32 9 8 C9.99 8.33 10.98 8.66 12 9 C12 9.99 12 10.98 12 12 C12.66 12 13.32 12 14 12 C15.625 13.375 15.625 13.375 17 15 C17 15.66 17 16.32 17 17 C17.66 17 18.32 17 19 17 C19 17.66 19 18.32 19 19 C20.32 19 21.64 19 23 19 C23 20.32 23 21.64 23 23 C24.65 23.33 26.3 23.66 28 24 C28 25.32 28 26.64 28 28 C28.749 28.224 29.498 28.449 30.27 28.68 C33.627 30.303 34.707 32 36.688 35.125 C37.745 36.781 38.839 38.415 40 40 C40.66 40 41.32 40 42 40 C42.495 42.97 42.495 42.97 43 46 C43.99 46 44.98 46 46 46 C46.33 45.01 46.66 44.02 47 43 C48.858 46.135 49.201 48.375 49 52 C49.722 52.247 50.444 52.495 51.188 52.75 C56.657 55.181 58.895 57.825 62 63 C56.72 63 51.44 63 46 63 C45.505 59.535 45.505 59.535 45 56 C43.448 53.6 43.448 53.6 41.438 51.688 C38 48.167 38 48.167 38 46 C37.34 46 36.68 46 36 46 C34.781 44.504 34.781 44.504 33.5 42.562 C31.713 39.775 31.713 39.775 29 38 C27.694 35.695 26.841 33.524 26 31 C24 29.791 24 29.791 22 29 C22 28.34 22 27.68 22 27 C21.01 26.67 20.02 26.34 19 26 C19 25.01 19 24.02 19 23 C18.34 23 17.68 23 17 23 C17 22.34 17 21.68 17 21 C16.01 20.67 15.02 20.34 14 20 C14 18.68 14 17.36 14 16 C13.34 16 12.68 16 12 16 C10.309 14.355 10.309 14.355 8.438 12.188 C7.817 11.48 7.197 10.772 6.559 10.043 C5 8 5 8 4 5 C2.672 3.994 1.338 2.993 0 2 C0 1.34 0 0.68 0 0 Z " fill="#163D20" transform="translate(850,961)"/>
<path d="M0 0 C3.373 2.891 5.057 5.836 6.926 9.766 C8.094 12.195 9.339 14.568 10.625 16.938 C11.03 17.689 11.435 18.441 11.852 19.215 C12.885 21.155 12.885 21.155 15 22 C15 23.65 15 25.3 15 27 C15.66 27 16.32 27 17 27 C17.108 27.575 17.217 28.15 17.328 28.742 C18.09 31.303 19.197 32.956 20.75 35.125 C23.602 39.252 25.817 43.484 27.922 48.031 C28.844 50.16 28.844 50.16 31 51 C31.667 53 32.333 55 33 57 C33.99 57.495 33.99 57.495 35 58 C35.634 60.042 36.018 62.091 36.438 64.188 C36.623 64.786 36.809 65.384 37 66 C37.99 66.495 37.99 66.495 39 67 C39.641 68.68 39.641 68.68 40.25 70.875 C41.8 75.88 44.178 80.191 46.793 84.715 C48 87 48 87 48 89 C48.99 89.33 49.98 89.66 51 90 C52.535 92.469 52.535 92.469 54.062 95.5 C55.803 99.46 55.803 99.46 59 102 C59 103.32 59 104.64 59 106 C58.34 106 57.68 106 57 106 C56.67 105.67 56.34 105.34 56 105 C56.66 106.98 57.32 108.96 58 111 C54.664 108.217 52.958 104.475 51 100.688 C50.657 100.036 50.314 99.384 49.961 98.713 C48.387 95.713 46.868 92.717 45.438 89.645 C44.13 86.75 44.13 86.75 41 85 C40.299 82.337 40.223 79.76 40 77 C39.01 76.67 38.02 76.34 37 76 C35.925 74.358 35.925 74.358 34.957 72.254 C34.606 71.499 34.254 70.744 33.893 69.967 C33.536 69.173 33.18 68.38 32.812 67.562 C32.444 66.773 32.076 65.983 31.697 65.17 C29 59.3 29 59.3 29 57 C28.34 57 27.68 57 27 57 C26.511 55.896 26.511 55.896 26.012 54.77 C25.575 53.794 25.138 52.818 24.688 51.812 C24.258 50.85 23.829 49.887 23.387 48.895 C22.071 46.147 20.583 43.599 19 41 C18.711 40.258 18.423 39.515 18.125 38.75 C16.719 35.312 14.889 32.196 13.023 28.988 C12 27 12 27 12 25 C11.34 25 10.68 25 10 25 C9.329 23.544 8.663 22.085 8 20.625 C7.629 19.813 7.258 19.001 6.875 18.164 C6 16 6 16 6 14 C5.34 14 4.68 14 4 14 C3.284 12.275 2.568 10.549 1.852 8.824 C0.932 6.735 0.932 6.735 -1 4 C-0.625 1.812 -0.625 1.812 0 0 Z " fill="#231B2F" transform="translate(817,563)"/>
<path d="M0 0 C0 3.396 -0.522 4.066 -2.5 6.688 C-3.196 7.621 -3.196 7.621 -3.906 8.574 C-4.267 9.045 -4.628 9.515 -5 10 C-4.01 11.485 -4.01 11.485 -3 13 C-1.68 12.01 -0.36 11.02 1 10 C0.67 11.65 0.34 13.3 0 15 C-0.66 15 -1.32 15 -2 15 C-2.258 15.547 -2.516 16.093 -2.781 16.656 C-4.716 20.377 -7.064 23.827 -9.344 27.344 C-10.708 29.531 -11.901 31.674 -13 34 C-15.677 39.586 -15.677 39.586 -17.562 42 C-19.369 44.513 -20.063 47.065 -21 50 C-21.66 50.99 -22.32 51.98 -23 53 C-23.66 53 -24.32 53 -25 53 C-25.193 53.638 -25.387 54.276 -25.586 54.934 C-25.846 55.76 -26.107 56.586 -26.375 57.438 C-26.63 58.261 -26.885 59.085 -27.148 59.934 C-28 62 -28 62 -30 63 C-31.599 54.045 -29.642 47.476 -25.25 39.688 C-24.894 39.039 -24.537 38.391 -24.17 37.724 C-23.452 36.419 -22.731 35.117 -22.006 33.816 C-20.618 31.311 -19.283 28.778 -17.938 26.25 C-15.343 21.494 -12.48 16.944 -9.516 12.41 C-8.199 10.316 -7.057 8.234 -6 6 C-5.34 6 -4.68 6 -4 6 C-3.567 5.072 -3.567 5.072 -3.125 4.125 C-2 2 -2 2 0 0 Z " fill="#164785" transform="translate(251,271)"/>
<path d="M0 0 C0.797 0.001 1.594 0.002 2.415 0.003 C16.345 0.021 30.249 0.371 44.168 0.906 C48.941 1.087 53.698 1.145 58.474 1.12 C61.369 1.127 64.238 1.28 67.125 1.5 C68.125 1.57 69.126 1.639 70.156 1.711 C72.625 2.125 72.625 2.125 74.625 4.125 C71.227 5.157 68.104 5.259 64.562 5.25 C63.52 5.253 62.477 5.255 61.402 5.258 C58.625 5.125 58.625 5.125 55.625 4.125 C55.625 4.785 55.625 5.445 55.625 6.125 C54.874 6.123 54.123 6.121 53.35 6.118 C46.258 6.098 39.167 6.083 32.076 6.073 C28.43 6.068 24.785 6.061 21.14 6.05 C17.619 6.039 14.098 6.033 10.577 6.03 C8.587 6.027 6.596 6.02 4.605 6.012 C3.384 6.012 2.164 6.012 0.906 6.011 C-0.165 6.009 -1.235 6.007 -2.338 6.005 C-5.428 6.127 -8.334 6.58 -11.375 7.125 C-13.319 7.202 -15.265 7.233 -17.211 7.223 C-18.274 7.219 -19.338 7.216 -20.434 7.213 C-21.528 7.205 -22.622 7.196 -23.75 7.188 C-24.868 7.183 -25.985 7.178 -27.137 7.174 C-29.883 7.162 -32.629 7.146 -35.375 7.125 C-35.375 6.465 -35.375 5.805 -35.375 5.125 C-29.043 4.236 -22.761 3.831 -16.375 3.562 C-13.075 3.418 -9.775 3.274 -6.375 3.125 C-14.295 2.795 -22.215 2.465 -30.375 2.125 C-30.375 1.795 -30.375 1.465 -30.375 1.125 C-20.229 0.151 -10.18 -0.033 0 0 Z " fill="#8D0516" transform="translate(227.375,680.875)"/>
<path d="M0 0 C6.548 1.001 11.401 2.458 17 6 C17.99 6.33 18.98 6.66 20 7 C20 7.66 20 8.32 20 9 C21.079 9.418 21.079 9.418 22.18 9.844 C24.896 10.957 27.502 12.184 30.125 13.5 C30.973 13.923 31.821 14.346 32.695 14.781 C35 16 35 16 38 18 C38 18.66 38 19.32 38 20 C38.887 20.268 39.774 20.536 40.688 20.812 C43.769 21.917 46.262 23.228 49 25 C48.67 25.66 48.34 26.32 48 27 C47.34 27 46.68 27 46 27 C47.398 30.545 47.398 30.545 49 34 C48.402 33.691 47.804 33.381 47.188 33.062 C44.91 31.898 44.91 31.898 42 31 C41.34 30.319 40.68 29.639 40 28.938 C38.105 26.652 38.105 26.652 35 27 C35 26.01 35 25.02 35 24 C34.161 23.849 34.161 23.849 33.305 23.695 C30.506 22.851 28.545 21.515 26.125 19.875 C20.66 16.307 15.049 13.434 9.195 10.578 C5.701 8.853 2.347 6.992 -1 5 C-0.67 3.35 -0.34 1.7 0 0 Z " fill="#D32041" transform="translate(661,178)"/>
<path d="M0 0 C0.66 0.33 1.32 0.66 2 1 C0.938 2.98 -0.124 4.959 -1.188 6.938 C-1.779 8.04 -2.371 9.142 -2.98 10.277 C-4.436 12.976 -5.922 15.656 -7.418 18.332 C-10.527 23.915 -13.473 29.58 -16.426 35.246 C-18.515 39.238 -20.675 43.139 -23 47 C-24.011 48.994 -25.01 50.995 -26 53 C-27.316 55.551 -28.656 58.089 -30 60.625 C-30.514 61.607 -30.514 61.607 -31.039 62.609 C-32.416 65.205 -33.764 67.694 -35.562 70.023 C-37.181 72.249 -38.136 74.576 -39.174 77.114 C-40.596 80.36 -42.4 83.382 -44.188 86.438 C-44.74 87.392 -44.74 87.392 -45.303 88.365 C-46.198 89.912 -47.099 91.456 -48 93 C-48.66 92.67 -49.32 92.34 -50 92 C-50.99 92.99 -50.99 92.99 -52 94 C-52 92.68 -52 91.36 -52 90 C-51.34 90 -50.68 90 -50 90 C-49.01 87.03 -48.02 84.06 -47 81 C-46.34 81 -45.68 81 -45 81 C-44.876 80.278 -44.752 79.556 -44.625 78.812 C-44.01 76.043 -43.116 73.603 -42 71 C-41.34 71 -40.68 71 -40 71 C-40 70.01 -40 69.02 -40 68 C-39.34 68 -38.68 68 -38 68 C-38 67.01 -38 66.02 -38 65 C-37.34 65 -36.68 65 -36 65 C-35.876 64.072 -35.752 63.144 -35.625 62.188 C-35 59 -35 59 -33 56 C-32.34 56 -31.68 56 -31 56 C-31 54.68 -31 53.36 -31 52 C-30.34 52 -29.68 52 -29 52 C-28.918 51.299 -28.835 50.597 -28.75 49.875 C-28.001 47.004 -26.872 45.189 -25.172 42.793 C-22.742 39.075 -20.939 34.989 -19 31 C-18.231 29.457 -17.461 27.916 -16.688 26.375 C-16.131 25.261 -15.574 24.147 -15 23 C-14.34 23 -13.68 23 -13 23 C-12.711 22.113 -12.423 21.226 -12.125 20.312 C-11.169 17.496 -10.132 14.749 -9 12 C-8.34 12 -7.68 12 -7 12 C-6.897 11.278 -6.794 10.556 -6.688 9.812 C-5.564 5.217 -3.939 2.626 0 0 Z " fill="#091252" transform="translate(285,427)"/>
<path d="M0 0 C0.99 0 1.98 0 3 0 C3.268 0.969 3.536 1.939 3.812 2.938 C4.204 3.948 4.596 4.959 5 6 C5.99 6.33 6.98 6.66 8 7 C8.52 8.746 8.52 8.746 9 11 C9.851 12.711 10.753 14.396 11.688 16.062 C12.229 17.036 12.77 18.009 13.328 19.012 C13.88 19.998 14.432 20.984 15 22 C16.476 24.691 17.944 27.386 19.41 30.082 C20.58 32.228 21.755 34.371 22.934 36.512 C23.581 37.695 24.228 38.879 24.875 40.062 C25.471 41.147 26.066 42.231 26.68 43.348 C28 46 28 46 28 48 C28.66 48.33 29.32 48.66 30 49 C30 50.32 30 51.64 30 53 C31.485 52.505 31.485 52.505 33 52 C33 52.66 33 53.32 33 54 C34.355 54.182 34.355 54.182 35.738 54.367 C36.918 54.535 38.097 54.702 39.312 54.875 C40.484 55.037 41.656 55.2 42.863 55.367 C46 56 46 56 49 58 C42.106 58.3 34.848 57.898 29 54 C29.66 55.98 30.32 57.96 31 60 C28.16 60 25.763 59.597 23 59 C23 58.34 23 57.68 23 57 C21.515 56.505 21.515 56.505 20 56 C21.32 55.34 22.64 54.68 24 54 C22.35 53.67 20.7 53.34 19 53 C19 52.67 19 52.34 19 52 C21.97 51.505 21.97 51.505 25 51 C22.011 44.838 18.999 38.806 15.281 33.051 C11.109 26.372 7.572 19.286 4.102 12.223 C3.167 10.338 2.183 8.478 1.188 6.625 C0 4 0 4 0 0 Z " fill="#68001A" transform="translate(562,101)"/>
<path d="M0 0 C3.3 0 6.6 0 10 0 C4.367 20.439 4.367 20.439 2 28 C1.743 28.834 1.487 29.668 1.223 30.527 C0.964 31.343 0.704 32.159 0.438 33 C0.209 33.722 -0.019 34.444 -0.254 35.188 C-1 37 -1 37 -3 39 C-2.86 37.187 -2.713 35.375 -2.562 33.562 C-2.481 32.553 -2.4 31.544 -2.316 30.504 C-2 28 -2 28 -1 27 C-0.959 25.334 -0.957 23.666 -1 22 C-3.292 29.004 -3.292 29.004 -4.5 36.25 C-5.013 40.099 -6.077 42.656 -8 46 C-8.33 46 -8.66 46 -9 46 C-9 41.71 -9 37.42 -9 33 C-8.34 33 -7.68 33 -7 33 C-6.957 32.406 -6.914 31.811 -6.869 31.199 C-6.312 24.624 -5.088 18.398 -3.5 12 C-3.274 11.06 -3.049 10.121 -2.816 9.152 C-1.15 2.301 -1.15 2.301 0 0 Z " fill="#710000" transform="translate(583,0)"/>
<path d="M0 0 C2.15 2.15 3.45 4.263 5 6.875 C5.516 7.739 6.031 8.602 6.562 9.492 C8.259 12.452 9.745 15.468 11.219 18.543 C11.642 19.416 12.064 20.288 12.5 21.188 C12.923 22.068 13.346 22.948 13.781 23.855 C14.816 26.14 14.816 26.14 17 27 C17 28.32 17 29.64 17 31 C17.66 31 18.32 31 19 31 C19.289 31.969 19.577 32.939 19.875 33.938 C20.642 37.107 20.642 37.107 23 38 C23.36 39.326 23.687 40.662 24 42 C24.772 43.727 25.587 45.435 26.438 47.125 C26.869 47.994 27.301 48.863 27.746 49.758 C28.927 52.109 28.927 52.109 31 54 C31 54.66 31 55.32 31 56 C31.66 56.66 32.32 57.32 33 58 C33.748 59.311 34.454 60.648 35.125 62 C35.655 63.052 35.655 63.052 36.195 64.125 C37 66 37 66 37 68 C36.34 68 35.68 68 35 68 C34.505 69.485 34.505 69.485 34 71 C33.453 69.886 32.907 68.772 32.344 67.625 C29.867 62.672 27.191 57.839 24.5 53 C21.522 47.645 18.616 42.283 15.907 36.787 C14.596 34.204 13.118 31.732 11.625 29.25 C-0.411 8.828 -0.411 8.828 0 0 Z " fill="#3E0007" transform="translate(527,33)"/>
<path d="M0 0 C0.66 0 1.32 0 2 0 C1.353 2.34 0.686 4.671 0 7 C-0.309 8.065 -0.309 8.065 -0.625 9.152 C-2.186 14.2 -4.268 18.538 -7.012 23.055 C-8.226 25.082 -8.226 25.082 -8 28 C-9.31 29.685 -10.648 31.348 -12 33 C-13.431 35.29 -14.705 37.627 -16 40 C-16.412 40.701 -16.825 41.403 -17.25 42.125 C-18.18 44.052 -18.18 44.052 -17.812 46.5 C-17.874 47.325 -17.936 48.15 -18 49 C-19.636 50.371 -21.307 51.701 -23 53 C-24.071 54.963 -25.063 56.97 -26 59 C-27.614 61.701 -29.3 64.353 -31 67 C-31.33 66.34 -31.66 65.68 -32 65 C-31.104 62.877 -31.104 62.877 -29.691 60.281 C-29.192 59.349 -28.692 58.417 -28.178 57.457 C-27.645 56.481 -27.112 55.505 -26.562 54.5 C-25.519 52.575 -24.478 50.648 -23.441 48.719 C-22.974 47.862 -22.507 47.006 -22.026 46.123 C-20.855 44.093 -20.855 44.093 -21 42 C-21.99 43.32 -22.98 44.64 -24 46 C-24 44.35 -24 42.7 -24 41 C-23.34 41 -22.68 41 -22 41 C-21.737 40.151 -21.474 39.301 -21.203 38.426 C-18.138 29.698 -13.578 21.475 -8.289 13.91 C-6.579 11.376 -5.279 8.772 -4 6 C-3.34 6 -2.68 6 -2 6 C-1.783 5.072 -1.783 5.072 -1.562 4.125 C-1 2 -1 2 0 0 Z " fill="#8C0319" transform="translate(194,591)"/>
<path d="M0 0 C0.33 0.66 0.66 1.32 1 2 C0.293 3.664 0.293 3.664 -0.812 5.625 C-2.966 9.693 -4.038 13.508 -5 18 C-4.312 17.924 -3.624 17.848 -2.916 17.77 C5.555 16.939 13.879 17.011 22.375 17.312 C23.834 17.359 25.294 17.406 26.753 17.453 C44.181 18.035 61.592 19.01 79 20 C79 20.33 79 20.66 79 21 C34.45 21.495 34.45 21.495 -11 22 C-8.75 15.25 -8.75 15.25 -6.836 11.914 C-6.436 11.212 -6.037 10.509 -5.625 9.785 C-5.213 9.072 -4.8 8.359 -4.375 7.625 C-3.955 6.889 -3.535 6.153 -3.102 5.395 C-2.072 3.594 -1.037 1.796 0 0 Z " fill="#BF170E" transform="translate(156,664)"/>
<path d="M0 0 C0.495 0.165 0.99 0.33 1.5 0.5 C4.378 1.076 7.126 1.012 10.051 0.969 C12.45 1.007 14.656 1.507 17 2 C19 2.038 21.001 2.046 23 2 C23 2.99 23 3.98 23 5 C27.29 5 31.58 5 36 5 C34 7 34 7 31.093 7.213 C29.258 7.185 29.258 7.185 27.387 7.156 C26.389 7.144 26.389 7.144 25.371 7.132 C23.247 7.101 21.124 7.053 19 7 C18.328 6.984 17.657 6.967 16.964 6.95 C12.246 6.828 7.529 6.668 2.812 6.5 C-6.461 6.172 -15.719 5.921 -25 6 C-25 5.34 -25 4.68 -25 4 C-36.55 4 -48.1 4 -60 4 C-60 3.67 -60 3.34 -60 3 C-45.582 1.852 -45.582 1.852 -39.16 2.062 C-36.837 2.042 -36.837 2.042 -33.93 1.504 C-28.95 0.865 -24.076 0.893 -19.062 0.938 C-18.092 0.942 -17.122 0.947 -16.123 0.951 C-13.749 0.963 -11.374 0.979 -9 1 C-9 1.66 -9 2.32 -9 3 C-4.545 2.505 -4.545 2.505 0 2 C0 1.34 0 0.68 0 0 Z " fill="#120C2C" transform="translate(847,681)"/>
<path d="M0 0 C0.66 0.33 1.32 0.66 2 1 C0.35 2.98 -1.3 4.96 -3 7 C-0.69 6.34 1.62 5.68 4 5 C4 4.34 4 3.68 4 3 C5.32 2.67 6.64 2.34 8 2 C3.822 6.428 -0.792 10.06 -5.625 13.75 C-12.515 19.055 -19.317 24.436 -26 30 C-26.33 29.34 -26.66 28.68 -27 28 C-27.66 28 -28.32 28 -29 28 C-29 27.01 -29 26.02 -29 25 C-29.66 25.33 -30.32 25.66 -31 26 C-30.812 24.188 -30.812 24.188 -30 22 C-28.345 20.981 -26.676 19.984 -25 19 C-23.143 17.551 -21.31 16.07 -19.5 14.562 C-17.667 13.041 -15.834 11.52 -14 10 C-13.123 9.267 -12.247 8.533 -11.344 7.777 C-9 6 -9 6 -6 5 C-5.67 4.34 -5.34 3.68 -5 3 C-4.01 3 -3.02 3 -2 3 C-2 2.34 -2 1.68 -2 1 C-1.34 0.67 -0.68 0.34 0 0 Z " fill="#002683" transform="translate(314,211)"/>
<path d="M0 0 C2.774 2.396 3.702 4.609 5 8 C5.833 9.959 6.666 11.917 7.5 13.875 C10.616 21.407 12.237 28.002 12.754 36.133 C12.985 38.823 13.416 41.367 14 44 C12.68 44.66 11.36 45.32 10 46 C9.602 44.793 9.203 43.587 8.793 42.344 C8.258 40.729 7.723 39.115 7.188 37.5 C6.926 36.709 6.665 35.917 6.396 35.102 C5.102 31.201 3.756 27.352 2.238 23.531 C1.625 21.783 1.625 21.783 1 20 C1.33 19.34 1.66 18.68 2 18 C1.01 18 0.02 18 -1 18 C-1.144 16.928 -1.289 15.855 -1.438 14.75 C-1.837 12.083 -2.276 9.586 -3 7 C-2.34 7 -1.68 7 -1 7 C-0.67 4.69 -0.34 2.38 0 0 Z " fill="#8F0230" transform="translate(801,315)"/>
<path d="M0 0 C0.99 0.66 1.98 1.32 3 2 C3 3.32 3 4.64 3 6 C3.66 6 4.32 6 5 6 C6.005 7.956 7.004 9.915 8 11.875 C8.557 12.966 9.114 14.056 9.688 15.18 C11 18 11 18 11 20 C11.99 20 12.98 20 14 20 C14.144 21.031 14.289 22.062 14.438 23.125 C14.784 25.511 15.188 27.891 15.688 30.25 C16 33 16 33 14 36 C12.188 35.5 12.188 35.5 10 34 C8.744 31.419 7.902 28.721 7 26 C5.818 23.357 5.064 22.064 3 20 C2.691 19.196 2.381 18.391 2.062 17.562 C1.221 14.998 1.221 14.998 -0.5 13.688 C-2.943 10.939 -3.86 7.655 -4 4 C-2.125 1.5 -2.125 1.5 0 0 Z " fill="#BF1129" transform="translate(786,286)"/>
<path d="M0 0 C1.938 0.375 1.938 0.375 4 1 C4.33 1.66 4.66 2.32 5 3 C5.99 3 6.98 3 8 3 C7.835 3.598 7.67 4.196 7.5 4.812 C6.669 8.447 7.26 11.356 8 14.938 C9.014 20.833 9.224 26.597 9.25 32.562 C9.259 33.443 9.268 34.324 9.277 35.232 C9.273 36.064 9.27 36.897 9.266 37.754 C9.263 38.5 9.261 39.246 9.259 40.014 C9 42 9 42 7 45 C5.713 37.568 4.874 30.539 5 23 C4.67 22.67 4.34 22.34 4 22 C3.959 19.667 3.958 17.333 4 15 C2.158 21.256 2.65 28.103 3.562 34.5 C4 38 4 38 3 41 C-1.709 36.291 -0.122 21.921 -0.138 15.719 C-0.119 10.479 -0.077 5.239 0 0 Z " fill="#5D0012" transform="translate(343,27)"/>
<path d="M0 0 C3.997 2.17 6.874 4.71 10 8 C10.598 8.557 11.196 9.114 11.812 9.688 C13 11 13 11 13 13 C13.763 13.206 14.526 13.413 15.312 13.625 C18.846 15.433 19.343 17.47 21 21 C23.342 23.258 25.405 24.169 28.438 25.438 C34.355 28.033 36.643 30.405 40 36 C34.72 36 29.44 36 24 36 C23.67 33.69 23.34 31.38 23 29 C21.448 26.6 21.448 26.6 19.438 24.688 C16 21.167 16 21.167 16 19 C15.34 19 14.68 19 14 19 C12.781 17.504 12.781 17.504 11.5 15.562 C9.713 12.775 9.713 12.775 7 11 C5.694 8.695 4.841 6.524 4 4 C2 2.791 2 2.791 0 2 C0 1.34 0 0.68 0 0 Z " fill="#2C4F17" transform="translate(872,988)"/>
<path d="M0 0 C0.33 0.99 0.66 1.98 1 3 C1.66 3 2.32 3 3 3 C3.33 2.34 3.66 1.68 4 1 C4.054 4.063 4.094 7.125 4.125 10.188 C4.142 11.052 4.159 11.916 4.176 12.807 C4.211 17.347 4.114 20.868 2 25 C0.935 28.065 0.935 28.065 2 31 C1.67 31.66 1.34 32.32 1 33 C0.381 32.794 -0.238 32.587 -0.875 32.375 C-1.927 32.189 -1.927 32.189 -3 32 C-3.66 32.66 -4.32 33.32 -5 34 C-5.768 8.652 -5.768 8.652 0 0 Z " fill="#0E3573" transform="translate(204,376)"/>
<path d="M0 0 C1.65 0 3.3 0 5 0 C5.33 1.32 5.66 2.64 6 4 C5.01 4.66 4.02 5.32 3 6 C1.487 8.676 0.206 11.124 -0.5 14.125 C-1.147 16.552 -2.489 18.006 -4 20 C-4.456 21.141 -4.456 21.141 -4.922 22.305 C-6.031 25.078 -7.354 27.583 -8.812 30.188 C-11.689 35.389 -14.384 40.663 -17 46 C-18.65 46 -20.3 46 -22 46 C-22.33 46.66 -22.66 47.32 -23 48 C-23 47.01 -23 46.02 -23 45 C-22.34 45 -21.68 45 -21 45 C-20.732 44.113 -20.464 43.226 -20.188 42.312 C-19 39 -19 39 -17.375 36.312 C-15.744 34.019 -15.744 34.019 -16 31 C-15.34 31 -14.68 31 -14 31 C-12.694 28.407 -11.424 25.802 -10.195 23.172 C-9.859 22.454 -9.522 21.736 -9.176 20.996 C-8.483 19.515 -7.79 18.033 -7.098 16.551 C-5.368 12.862 -3.601 9.204 -1.742 5.578 C0.146 2.364 0.146 2.364 0 0 Z " fill="#390006" transform="translate(512,12)"/>
<path d="M0 0 C2.64 0 5.28 0 8 0 C8 0.66 8 1.32 8 2 C7.34 2 6.68 2 6 2 C6.568 3.065 7.137 4.13 7.723 5.227 C11.478 12.28 15.201 19.34 18.75 26.5 C21.689 32.425 24.666 38.346 28.23 43.926 C30.052 46.829 31.046 48.458 30.75 51.938 C30.503 52.618 30.255 53.299 30 54 C26.936 50.284 24.88 46.133 22.688 41.875 C20.28 37.205 17.803 32.622 15.07 28.133 C11.877 22.871 9.013 17.466 6.188 12 C5.698 11.06 5.209 10.121 4.705 9.152 C1.377 2.753 1.377 2.753 0 0 Z " fill="#85001D" transform="translate(593,161)"/>
<path d="M0 0 C2.944 2.864 5.573 5.695 8 9 C8.507 9.648 9.013 10.297 9.535 10.965 C15.008 18.034 15.008 18.034 16 22 C15.625 24.312 15.625 24.312 15 26 C12.525 26.495 12.525 26.495 10 27 C10 25.68 10 24.36 10 23 C8.68 22.67 7.36 22.34 6 22 C5.67 20.02 5.34 18.04 5 16 C4.34 16 3.68 16 3 16 C3 15.01 3 14.02 3 13 C1.793 12.691 1.793 12.691 0.562 12.375 C-0.283 11.921 -1.129 11.467 -2 11 C-2.812 7.875 -2.812 7.875 -3 5 C-3.66 5 -4.32 5 -5 5 C-4.67 4.34 -4.34 3.68 -4 3 C-2.68 3 -1.36 3 0 3 C0 2.01 0 1.02 0 0 Z " fill="#D11B28" transform="translate(770,263)"/>
<path d="M0 0 C0.336 4.812 -0.421 6.999 -3 11 C-3.567 11.932 -4.134 12.864 -4.719 13.824 C-5.307 14.769 -5.894 15.714 -6.5 16.688 C-7.088 17.64 -7.676 18.593 -8.281 19.574 C-10 22 -10 22 -13 24 C-13 22.35 -13 20.7 -13 19 C-17.507 22.961 -20.307 27.519 -23.352 32.672 C-25 35 -25 35 -28 36 C-27.188 33.062 -27.188 33.062 -26 30 C-25.01 29.67 -24.02 29.34 -23 29 C-22.616 27.68 -22.291 26.343 -22 25 C-18.335 18.568 -13.592 12.782 -9 7 C-7.917 5.546 -7.917 5.546 -6.812 4.062 C-4.979 1.976 -2.961 0 0 0 Z " fill="#BE061F" transform="translate(733,115)"/>
<path d="M0 0 C0.66 0 1.32 0 2 0 C1.34 1.98 0.68 3.96 0 6 C-1.125 2.25 -1.125 2.25 0 0 Z M-3 6 C-2.34 6.33 -1.68 6.66 -1 7 C-1.302 7.548 -1.604 8.097 -1.915 8.661 C-2.812 10.292 -3.71 11.923 -4.607 13.554 C-5.622 15.398 -6.638 17.242 -7.655 19.084 C-10.819 24.818 -10.819 24.818 -13.891 30.602 C-17.575 37.641 -21.689 42.132 -28 47 C-27.46 43.628 -25.94 41.09 -24.244 38.169 C-21.171 32.81 -18.278 27.348 -15.334 21.918 C-14.563 20.501 -14.563 20.501 -13.777 19.055 C-13.316 18.204 -12.854 17.353 -12.379 16.476 C-10.972 13.95 -9.501 11.471 -8 9 C-7 11 -7 11 -7 14 C-5.68 11.36 -4.36 8.72 -3 6 Z " fill="#280038" transform="translate(423,187)"/>
<path d="M0 0 C0.33 1.32 0.66 2.64 1 4 C-0.188 5.812 -0.188 5.812 -2 8 C-4.794 12.597 -6.997 17.176 -8.973 22.18 C-10 24 -10 24 -13 25 C-13.95 27.068 -13.95 27.068 -14.562 29.5 C-15.254 31.969 -15.254 31.969 -16 34 C-16.99 34.495 -16.99 34.495 -18 35 C-19.661 25.698 -17.417 19.073 -12.875 11 C-12.502 10.321 -12.13 9.641 -11.746 8.941 C-10.839 7.29 -9.921 5.644 -9 4 C-8 6 -8 6 -8.562 8 C-8.707 8.66 -8.851 9.32 -9 10 C-8.34 10.66 -7.68 11.32 -7 12 C-4.69 8.04 -2.38 4.08 0 0 Z " fill="#072D7B" transform="translate(239,299)"/>
<path d="M0 0 C0.66 0.33 1.32 0.66 2 1 C1.67 1.66 1.34 2.32 1 3 C1.66 3.33 2.32 3.66 3 4 C2.049 5.173 1.089 6.338 0.125 7.5 C-0.409 8.15 -0.942 8.799 -1.492 9.469 C-1.99 9.974 -2.487 10.479 -3 11 C-3.66 11 -4.32 11 -5 11 C-5.266 11.596 -5.531 12.191 -5.805 12.805 C-7.034 15.063 -8.248 16.387 -10.125 18.125 C-13.915 21.78 -17.095 25.791 -20.301 29.961 C-22 32 -22 32 -24 33 C-23.743 25.946 -21.831 22.699 -17.062 17.625 C-16.482 16.982 -15.902 16.34 -15.304 15.677 C-10.384 10.276 -5.273 5.058 0 0 Z " fill="#308FB1" transform="translate(279,241)"/>
<path d="M0 0 C0.33 0.66 0.66 1.32 1 2 C-0.155 4.609 -1.367 7.102 -2.688 9.625 C-3.04 10.312 -3.393 10.999 -3.756 11.707 C-5.198 14.518 -6.649 17.325 -8.108 20.127 C-9.963 23.746 -11.526 27.173 -12.562 31.125 C-14.438 37.665 -16.286 41.985 -22 46 C-20 40 -20 40 -19.062 37.25 C-16.299 28.957 -16.299 28.957 -14.438 20.438 C-14.293 19.633 -14.149 18.829 -14 18 C-13.34 17.67 -12.68 17.34 -12 17 C-10.99 15.273 -9.983 13.543 -9.02 11.789 C-7.841 9.721 -6.486 7.857 -5 6 C-4.34 6.33 -3.68 6.66 -3 7 C-2.691 6.031 -2.381 5.061 -2.062 4.062 C-1 1 -1 1 0 0 Z " fill="#BB1611" transform="translate(174,630)"/>
<path d="M0 0 C6.613 0.413 11.21 5.021 15.445 9.703 C22.067 17.666 22.067 17.666 24 22 C22.35 21.34 20.7 20.68 19 20 C19 19.01 19 18.02 19 17 C17.68 17.99 16.36 18.98 15 20 C12.5 18.688 12.5 18.688 10 17 C10 16.01 10 15.02 10 14 C9.34 14 8.68 14 8 14 C8 13.01 8 12.02 8 11 C7.01 10.67 6.02 10.34 5 10 C3.613 8.477 3.613 8.477 2.312 6.625 C1.876 6.019 1.439 5.413 0.988 4.789 C0 3 0 3 0 0 Z " fill="#2D2469" transform="translate(182,174)"/>
<path d="M0 0 C3.373 2.891 5.057 5.836 6.926 9.766 C8.094 12.195 9.339 14.568 10.625 16.938 C11.03 17.689 11.435 18.441 11.852 19.215 C12.885 21.155 12.885 21.155 15 22 C15 23.65 15 25.3 15 27 C15.66 27 16.32 27 17 27 C17.104 27.574 17.209 28.147 17.316 28.738 C18.109 31.359 19.305 32.996 20.938 35.188 C24.088 39.736 25.137 43.564 26 49 C21.444 45.76 19.463 43.499 17.789 38.195 C16.591 34.863 14.784 31.924 12.988 28.883 C12 27 12 27 12 25 C11.34 25 10.68 25 10 25 C9.329 23.544 8.663 22.085 8 20.625 C7.629 19.813 7.258 19.001 6.875 18.164 C6 16 6 16 6 14 C5.34 14 4.68 14 4 14 C3.284 12.275 2.568 10.549 1.852 8.824 C0.932 6.735 0.932 6.735 -1 4 C-0.625 1.812 -0.625 1.812 0 0 Z " fill="#062553" transform="translate(817,563)"/>
<path d="M0 0 C8.333 -0.532 15.498 2.057 22.469 6.594 C24 8 24 8 25 11.312 C25 12.199 25 13.086 25 14 C22 15 22 15 19.748 13.952 C18.89 13.415 18.032 12.878 17.148 12.324 C16.215 11.743 15.282 11.163 14.32 10.564 C13.348 9.945 12.376 9.326 11.375 8.688 C10.395 8.08 9.416 7.472 8.406 6.846 C1.141 2.282 1.141 2.282 0 0 Z " fill="#56002D" transform="translate(57,295)"/>
<path d="M0 0 C6.548 1.001 11.401 2.458 17 6 C17.99 6.33 18.98 6.66 20 7 C20 7.66 20 8.32 20 9 C19.34 9 18.68 9 18 9 C18.33 10.98 18.66 12.96 19 15 C11.977 12.366 5.465 8.771 -1 5 C-0.67 3.35 -0.34 1.7 0 0 Z " fill="#C4193E" transform="translate(661,178)"/>
<path d="M0 0 C-0.426 5.434 -1.515 7.9 -5 12 C-5.723 13.683 -6.444 15.368 -7.144 17.061 C-8.584 20.322 -10.389 23.364 -12.188 26.438 C-12.556 27.074 -12.924 27.71 -13.303 28.365 C-14.198 29.912 -15.099 31.456 -16 33 C-16.66 32.67 -17.32 32.34 -18 32 C-18.66 32.66 -19.32 33.32 -20 34 C-20 32.68 -20 31.36 -20 30 C-19.34 30 -18.68 30 -18 30 C-17.01 27.03 -16.02 24.06 -15 21 C-14.34 21 -13.68 21 -13 21 C-12.814 19.917 -12.814 19.917 -12.625 18.812 C-12.01 16.043 -11.116 13.603 -10 11 C-9.34 11 -8.68 11 -8 11 C-8 10.01 -8 9.02 -8 8 C-7.34 8 -6.68 8 -6 8 C-6 7.01 -6 6.02 -6 5 C-5.34 5 -4.68 5 -4 5 C-4 3.68 -4 2.36 -4 1 C-1 0 -1 0 0 0 Z " fill="#190C49" transform="translate(253,487)"/>
<path d="M0 0 C2 1 2 1 3.023 3.129 C2.991 7.114 1.314 8.384 -1.434 11.114 C-2.395 12.017 -2.395 12.017 -3.375 12.938 C-4.018 13.56 -4.66 14.182 -5.322 14.824 C-9.888 19.166 -14.602 22.752 -20 26 C-21.687 27.308 -23.365 28.628 -25 30 C-25.66 29.67 -26.32 29.34 -27 29 C-23.965 25.098 -21.531 22.204 -17 20 C-16.34 20 -15.68 20 -15 20 C-15 19.34 -15 18.68 -15 18 C-14.031 17.196 -13.061 16.391 -12.062 15.562 C-8.806 13.293 -8.806 13.293 -8 10 C-5.938 8.812 -5.938 8.812 -4 8 C-4.66 8 -5.32 8 -6 8 C-6.66 7.67 -7.32 7.34 -8 7 C-7.01 6.67 -6.02 6.34 -5 6 C-5 5.34 -5 4.68 -5 4 C-3.374 2.618 -1.707 1.281 0 0 Z M0 2 C1 4 1 4 1 4 Z M-29 30 C-28.34 30.33 -27.68 30.66 -27 31 C-28.98 31.99 -28.98 31.99 -31 33 C-30.34 32.01 -29.68 31.02 -29 30 Z " fill="#7B0000" transform="translate(948,121)"/>
<path d="M0 0 C2.692 3.067 3.367 4.922 3.293 8.984 C3.283 9.919 3.274 10.854 3.264 11.816 C3.239 12.784 3.213 13.753 3.188 14.75 C3.174 15.734 3.16 16.717 3.146 17.73 C3.111 20.154 3.062 22.577 3 25 C2.34 25.33 1.68 25.66 1 26 C-0.134 28.017 -0.134 28.017 -1 30 C-1.086 29.435 -1.171 28.87 -1.26 28.288 C-1.649 25.733 -2.043 23.179 -2.438 20.625 C-2.572 19.736 -2.707 18.846 -2.846 17.93 C-2.978 17.079 -3.11 16.228 -3.246 15.352 C-3.367 14.566 -3.487 13.781 -3.611 12.971 C-3.922 10.934 -3.922 10.934 -5 9 C-5.04 6.667 -5.043 4.333 -5 2 C-3.494 3.964 -2.109 5.783 -1 8 C-0.67 5.36 -0.34 2.72 0 0 Z " fill="#530743" transform="translate(821,377)"/>
<path d="M0 0 C0.99 0.33 1.98 0.66 3 1 C7.535 1.961 7.535 1.961 12 1 C10.464 4.565 8.316 7.039 5.688 9.875 C2.353 13.51 -0.882 17.178 -4 21 C-4.33 20.01 -4.66 19.02 -5 18 C-4.484 17.649 -3.969 17.299 -3.438 16.938 C-2.963 16.298 -2.489 15.659 -2 15 C-2.165 13.948 -2.33 12.896 -2.5 11.812 C-3.145 6.892 -1.971 4.494 0 0 Z M-2 11 C-1 13 -1 13 -1 13 Z " fill="#0199CB" transform="translate(259,247)"/>
<path d="M0 0 C0.66 0 1.32 0 2 0 C2.33 1.65 2.66 3.3 3 5 C3.99 5 4.98 5 6 5 C7.316 6.531 7.316 6.531 8.562 8.5 C9.752 10.433 9.752 10.433 11 12 C11.66 12 12.32 12 13 12 C13.66 13.65 14.32 15.3 15 17 C10.38 17 5.76 17 1 17 C-0.286 6.286 -0.286 6.286 1 2 C0.34 1.67 -0.32 1.34 -1 1 C-0.67 0.67 -0.34 0.34 0 0 Z " fill="#2C5616" transform="translate(879,1007)"/>
<path d="M0 0 C2.363 2.148 3.583 4.167 5 7 C5.66 7.33 6.32 7.66 7 8 C7.667 10 8.333 12 9 14 C9.66 14.33 10.32 14.66 11 15 C11.634 17.042 12.018 19.091 12.438 21.188 C12.623 21.786 12.809 22.384 13 23 C13.66 23.33 14.32 23.66 15 24 C16.262 28.475 16.262 28.475 15 31 C15.33 31.99 15.66 32.98 16 34 C13 33 13 33 11.925 31.358 C11.606 30.663 11.286 29.969 10.957 29.254 C10.606 28.499 10.254 27.744 9.893 26.967 C9.536 26.173 9.18 25.38 8.812 24.562 C8.444 23.773 8.076 22.983 7.697 22.17 C5 16.3 5 16.3 5 14 C4.34 14 3.68 14 3 14 C-0.097 8.549 -0.097 8.549 0.375 5.875 C0.581 5.256 0.788 4.638 1 4 C0.621 1.813 0.621 1.813 0 0 Z " fill="#141F42" transform="translate(841,606)"/>
<path d="M0 0 C0 3.189 -0.311 5.284 -2.566 7.629 C-7.09 11.161 -11.556 13.25 -17 15 C-17 11.401 -16.042 9.905 -14 7 C-13.34 7 -12.68 7 -12 7 C-11.814 6.237 -11.629 5.474 -11.438 4.688 C-9.028 0.182 -4.84 -1.613 0 0 Z " fill="#DB2521" transform="translate(798,226)"/>
<path d="M0 0 C4.085 1.486 5.215 3.7 7.125 7.5 C9.145 11.551 9.145 11.551 12 15 C12 15.66 12 16.32 12 17 C12.66 17.66 13.32 18.32 14 19 C14.748 20.311 15.454 21.648 16.125 23 C16.478 23.701 16.831 24.403 17.195 25.125 C18 27 18 27 18 29 C17.34 29 16.68 29 16 29 C15.67 29.99 15.34 30.98 15 32 C14.435 30.857 13.871 29.713 13.289 28.535 C11.811 25.577 10.289 22.652 8.711 19.746 C8.327 19.036 7.943 18.327 7.547 17.596 C6.762 16.151 5.973 14.708 5.18 13.268 C2.827 8.9 1.179 4.823 0 0 Z " fill="#4D000E" transform="translate(546,72)"/>
<path d="M0 0 C6.482 0.536 12.294 1.929 18.066 5.02 C18.396 5.68 18.726 6.34 19.066 7.02 C17.746 6.69 16.426 6.36 15.066 6.02 C14.736 7.67 14.406 9.32 14.066 11.02 C14.726 11.02 15.386 11.02 16.066 11.02 C16.066 11.68 16.066 12.34 16.066 13.02 C15.53 12.731 14.994 12.442 14.441 12.145 C11.981 10.912 11.981 10.912 8.879 10.02 C6.066 9.02 6.066 9.02 5.066 7.02 C3.088 6.293 1.087 5.621 -0.934 5.02 C-0.934 4.03 -0.934 3.04 -0.934 2.02 C-1.594 1.69 -2.254 1.36 -2.934 1.02 C-1.934 0.02 -1.934 0.02 0 0 Z " fill="#A80A2C" transform="translate(645.93359375,171.98046875)"/>
<path d="M0 0 C0.33 0.66 0.66 1.32 1 2 C0.293 3.699 0.293 3.699 -0.812 5.688 C-2.781 9.413 -3.98 12.919 -5 17 C-5.66 17 -6.32 17 -7 17 C-7 17.99 -7 18.98 -7 20 C9.83 20 26.66 20 44 20 C44 20.33 44 20.66 44 21 C38.739 21.145 33.478 21.287 28.216 21.427 C26.434 21.475 24.652 21.523 22.87 21.573 C11.576 21.885 0.298 22.071 -11 22 C-9.876 18.433 -8.698 15.159 -6.836 11.914 C-6.436 11.212 -6.037 10.509 -5.625 9.785 C-5.213 9.072 -4.8 8.359 -4.375 7.625 C-3.955 6.889 -3.535 6.153 -3.102 5.395 C-2.072 3.594 -1.037 1.796 0 0 Z " fill="#DA2F17" transform="translate(156,664)"/>
<path d="M0 0 C1 3 1 3 -0.512 6.293 C-1.227 7.597 -1.953 8.894 -2.688 10.188 C-3.437 11.547 -4.186 12.906 -4.934 14.266 C-5.294 14.915 -5.655 15.564 -6.027 16.232 C-7.791 19.437 -9.387 22.717 -11 26 C-11.749 27.501 -12.499 29.001 -13.25 30.5 C-13.827 31.655 -14.405 32.81 -15 34 C-15.66 34 -16.32 34 -17 34 C-17.33 34.99 -17.66 35.98 -18 37 C-18.75 35.438 -18.75 35.438 -19 33 C-18.085 31.266 -17.166 29.528 -16.105 27.879 C-14.803 25.665 -13.941 23.39 -13 21 C-12.143 19.221 -11.268 17.449 -10.375 15.688 C-9.929 14.804 -9.483 13.921 -9.023 13.012 C-8.686 12.348 -8.348 11.684 -8 11 C-7.34 11 -6.68 11 -6 11 C-5.01 8.03 -4.02 5.06 -3 2 C-2.01 2 -1.02 2 0 2 C0 1.34 0 0.68 0 0 Z " fill="#4E011F" transform="translate(467,103)"/>
<path d="M0 0 C0.33 0.99 0.66 1.98 1 3 C1.66 3 2.32 3 3 3 C4.038 8.191 4.038 8.191 4 11 C2.312 13 2.312 13 0 15 C-0.959 16.819 -1.91 18.643 -2.793 20.5 C-4.331 23.685 -5.967 26.814 -7.625 29.938 C-8.511 31.622 -8.511 31.622 -9.414 33.34 C-11 36 -11 36 -13 37 C-12.01 34.03 -11.02 31.06 -10 28 C-9.34 28 -8.68 28 -8 28 C-7.856 27.216 -7.711 26.433 -7.562 25.625 C-7 23 -7 23 -6 21 C-5.34 21 -4.68 21 -4 21 C-4.33 20.01 -4.66 19.02 -5 18 C-5.66 18.33 -6.32 18.66 -7 19 C-5.37 12.355 -5.37 12.355 -3.5 10.562 C-1.581 8.564 -1.321 7.011 -0.812 4.312 C-0.654 3.504 -0.495 2.696 -0.332 1.863 C-0.222 1.248 -0.113 0.634 0 0 Z " fill="#61022F" transform="translate(216,544)"/>
<path d="M0 0 C0.66 0 1.32 0 2 0 C2.727 1.715 2.727 1.715 3 4 C1.523 6.254 1.523 6.254 -0.625 8.562 C-1.319 9.327 -2.012 10.091 -2.727 10.879 C-5.01 13.009 -7.27 14.501 -10 16 C-10 15.34 -10 14.68 -10 14 C-10.66 14 -11.32 14 -12 14 C-12 13.01 -12 12.02 -12 11 C-12.99 11.495 -12.99 11.495 -14 12 C-13.812 10.188 -13.812 10.188 -13 8 C-10.398 6.141 -7.683 4.845 -4.812 3.438 C-1.952 2.158 -1.952 2.158 0 0 Z " fill="#013F91" transform="translate(297,225)"/>
<path d="M0 0 C0.99 0.33 1.98 0.66 3 1 C0.69 2.98 -1.62 4.96 -4 7 C-2.35 7 -0.7 7 1 7 C-1.85 11.275 -5.363 12.487 -10.188 14 C-13.014 15.005 -13.994 15.898 -16 18 C-16.99 18 -17.98 18 -19 18 C-17.648 15.061 -16.101 12.708 -14 10.25 C-13.484 9.636 -12.969 9.023 -12.438 8.391 C-11 7 -11 7 -9 7 C-8.34 6.34 -7.68 5.68 -7 5 C-2.385 2 -2.385 2 0 2 C0 1.34 0 0.68 0 0 Z " fill="#D41B01" transform="translate(139,713)"/>
<path d="M0 0 C1.32 0.33 2.64 0.66 4 1 C4 1.99 4 2.98 4 4 C4.99 3.67 5.98 3.34 7 3 C7 3.66 7 4.32 7 5 C8.355 5.182 8.355 5.182 9.738 5.367 C10.918 5.535 12.097 5.702 13.312 5.875 C14.484 6.037 15.656 6.2 16.863 6.367 C20 7 20 7 23 9 C16.106 9.3 8.848 8.898 3 5 C3.66 6.98 4.32 8.96 5 11 C2.16 11 -0.237 10.597 -3 10 C-3 9.34 -3 8.68 -3 8 C-3.99 7.67 -4.98 7.34 -6 7 C-4.68 6.34 -3.36 5.68 -2 5 C-3.65 4.67 -5.3 4.34 -7 4 C-7 3.67 -7 3.34 -7 3 C-4.69 3 -2.38 3 0 3 C0 2.01 0 1.02 0 0 Z " fill="#750020" transform="translate(588,150)"/>
<path d="M0 0 C0.99 0 1.98 0 3 0 C3.268 0.969 3.536 1.939 3.812 2.938 C4.204 3.948 4.596 4.959 5 6 C5.99 6.33 6.98 6.66 8 7 C8.382 8.32 8.708 9.657 9 11 C10.265 13.098 11.641 15.086 13.039 17.098 C13.356 17.725 13.673 18.353 14 19 C13.67 19.99 13.34 20.98 13 22 C12.67 21.01 12.34 20.02 12 19 C11.34 19 10.68 19 10 19 C9.67 19.66 9.34 20.32 9 21 C7.871 19.107 6.747 17.21 5.625 15.312 C4.999 14.257 4.372 13.201 3.727 12.113 C1.318 7.77 0 5.01 0 0 Z " fill="#5B0014" transform="translate(562,101)"/>
<path d="M0 0 C1.98 0.99 3.96 1.98 6 3 C6 3.99 6 4.98 6 6 C6.66 6 7.32 6 8 6 C8.33 6.66 8.66 7.32 9 8 C9.99 8.33 10.98 8.66 12 9 C12 9.99 12 10.98 12 12 C12.66 12 13.32 12 14 12 C15.625 13.375 15.625 13.375 17 15 C17 15.66 17 16.32 17 17 C17.66 17 18.32 17 19 17 C19 17.66 19 18.32 19 19 C20.32 19 21.64 19 23 19 C23 20.32 23 21.64 23 23 C24.65 23.33 26.3 23.66 28 24 C27.67 25.32 27.34 26.64 27 28 C24.962 26.726 22.961 25.389 21 24 C21 23.34 21 22.68 21 22 C20.01 21.67 19.02 21.34 18 21 C18 20.01 18 19.02 18 18 C17.154 17.835 16.309 17.67 15.438 17.5 C10.709 15.437 7.983 12.15 5 8 C4.67 7.01 4.34 6.02 4 5 C2.672 3.994 1.338 2.993 0 2 C0 1.34 0 0.68 0 0 Z " fill="#0E3C24" transform="translate(850,961)"/>
<path d="M0 0 C4.765 -0.025 9.53 -0.043 14.294 -0.055 C15.91 -0.06 17.526 -0.067 19.141 -0.075 C40.71 -0.189 40.71 -0.189 47 1 C47.66 1.66 48.32 2.32 49 3 C45.538 4.067 42.36 4.102 38.75 4.062 C37.134 4.049 37.134 4.049 35.484 4.035 C34.665 4.024 33.845 4.012 33 4 C33 3.34 33 2.68 33 2 C31.061 2.017 31.061 2.017 29.082 2.035 C19.328 2.095 9.713 1.993 0 1 C0 0.67 0 0.34 0 0 Z " fill="#780019" transform="translate(253,682)"/>
<path d="M0 0 C1.44 4.785 0.73 9.218 0.25 14.125 C0.175 15.025 0.1 15.925 0.023 16.852 C-0.566 23.07 -1.544 29.214 -4 35 C-4.99 35.495 -4.99 35.495 -6 36 C-6 31.71 -6 27.42 -6 23 C-5.34 23 -4.68 23 -4 23 C-3.963 22.429 -3.925 21.858 -3.887 21.27 C-3.297 13.994 -1.763 7.074 0 0 Z " fill="#520001" transform="translate(580,10)"/>
<path d="M0 0 C0.66 0.33 1.32 0.66 2 1 C1.01 2.485 1.01 2.485 0 4 C0.66 4 1.32 4 2 4 C1.584 8.85 -0.417 10.843 -4 14 C-4.99 14.66 -5.98 15.32 -7 16 C-6.427 13.133 -6.139 12.139 -4 10 C-4.66 9.01 -5.32 8.02 -6 7 C-9.465 9.97 -9.465 9.97 -13 13 C-13 12.01 -13 11.02 -13 10 C-12.34 10 -11.68 10 -11 10 C-10.67 9.01 -10.34 8.02 -10 7 C-9.34 7 -8.68 7 -8 7 C-8 6.34 -8 5.68 -8 5 C-6.32 3.676 -6.32 3.676 -4.125 2.312 C-3.406 1.855 -2.686 1.397 -1.945 0.926 C-0.982 0.468 -0.982 0.468 0 0 Z " fill="#0263AA" transform="translate(285,235)"/>
<path d="M0 0 C0.99 0.33 1.98 0.66 3 1 C3.144 2.031 3.289 3.062 3.438 4.125 C3.768 6.403 4.13 8.677 4.562 10.938 C5.097 14.678 5.065 18.223 5 22 C1.125 24 1.125 24 0 24 C-0.222 22.544 -0.427 21.085 -0.625 19.625 C-0.741 18.813 -0.857 18.001 -0.977 17.164 C-0.984 16.45 -0.992 15.736 -1 15 C-0.34 14.34 0.32 13.68 1 13 C1.643 10.931 1.643 10.931 2 9 C1.34 8.67 0.68 8.34 0 8 C0 5.36 0 2.72 0 0 Z " fill="#6E0138" transform="translate(813,346)"/>
<path d="M0 0 C0.33 0 0.66 0 1 0 C1.049 1.281 1.098 2.563 1.148 3.883 C0.588 20.424 0.588 20.424 5 35 C4.911 36.525 4.755 38.047 4.562 39.562 C4.461 40.389 4.359 41.215 4.254 42.066 C4.17 42.704 4.086 43.343 4 44 C1 42 1 42 0.49 39.968 C-0.075 31.579 -0.114 23.215 -0.062 14.812 C-0.057 13.369 -0.053 11.926 -0.049 10.482 C-0.038 6.988 -0.021 3.494 0 0 Z " fill="#3B0017" transform="translate(342,33)"/>
<path d="M0 0 C3.231 3.026 5.133 6.562 7.188 10.438 C7.556 11.106 7.924 11.774 8.303 12.463 C10.178 15.973 11 17.944 11 22 C7.04 22 3.08 22 -1 22 C-1 21.34 -1 20.68 -1 20 C0.98 19.67 2.96 19.34 5 19 C4.065 12.816 3.111 7.515 0 2 C0 1.34 0 0.68 0 0 Z " fill="#371E23" transform="translate(871,664)"/>
<path d="M0 0 C0.66 0.66 1.32 1.32 2 2 C1.01 3.485 1.01 3.485 0 5 C0.66 5 1.32 5 2 5 C2.33 4.01 2.66 3.02 3 2 C3.33 2.99 3.66 3.98 4 5 C2.488 7.848 2.488 7.848 0.312 11.062 C-0.393 12.126 -1.098 13.189 -1.824 14.285 C-3.89 16.863 -5.015 17.815 -8 19 C-9.709 20.541 -9.709 20.541 -11 22 C-10.462 18.636 -8.973 16.053 -7.254 13.148 C-5.698 10.482 -4.225 7.775 -2.75 5.062 C-2.229 4.105 -1.708 3.147 -1.172 2.16 C-0.785 1.447 -0.398 0.734 0 0 Z " fill="#1C003F" transform="translate(406,212)"/>
<path d="M0 0 C-0.969 0.454 -1.939 0.907 -2.938 1.375 C-6.071 2.658 -6.071 2.658 -7 5 C-6.34 5.33 -5.68 5.66 -5 6 C-8.955 8.757 -12.224 9.532 -17 10 C-17.33 9.01 -17.66 8.02 -18 7 C-18.66 6.67 -19.32 6.34 -20 6 C-17.422 4.798 -14.839 3.613 -12.25 2.438 C-11.52 2.095 -10.791 1.753 -10.039 1.4 C-9.33 1.081 -8.621 0.762 -7.891 0.434 C-7.241 0.135 -6.592 -0.163 -5.923 -0.471 C-3.605 -1.109 -2.251 -0.755 0 0 Z " fill="#3E0005" transform="translate(1018,212)"/>
<path d="M0 0 C0.33 0.66 0.66 1.32 1 2 C1.66 2 2.32 2 3 2 C2.674 9.167 -0.654 14.769 -4 21 C-6.3 16.865 -6.131 14.674 -5 10 C-3.483 6.582 -1.79 3.282 0 0 Z " fill="#13407E" transform="translate(226,313)"/>
<path d="M0 0 C0.99 0 1.98 0 3 0 C3.144 1.031 3.289 2.062 3.438 3.125 C3.784 5.511 4.188 7.891 4.688 10.25 C5 13 5 13 3 16 C1.188 15.5 1.188 15.5 -1 14 C-2.925 10.201 -4.01 6.126 -5 2 C-3.5 3.375 -3.5 3.375 -2 5 C-2 5.66 -2 6.32 -2 7 C-1.34 7 -0.68 7 0 7 C0 4.69 0 2.38 0 0 Z " fill="#A9092C" transform="translate(797,306)"/>
<path d="M0 0 C0.33 0 0.66 0 1 0 C1 4.62 1 9.24 1 14 C1.66 14 2.32 14 3 14 C2.67 17.3 2.34 20.6 2 24 C2.33 24 2.66 24 3 24 C2.887 25.98 2.759 27.959 2.625 29.938 C2.555 31.04 2.486 32.142 2.414 33.277 C2.277 34.176 2.141 35.074 2 36 C1.01 36.495 1.01 36.495 0 37 C-0.169 33 -0.335 29 -0.5 25 C-0.572 23.312 -0.572 23.312 -0.645 21.59 C-1.361 4.083 -1.361 4.083 0 0 Z " fill="#0A1C65" transform="translate(197,421)"/>
<path d="M0 0 C1.429 2.858 1.309 4.827 1 8 C-0.75 10.773 -0.75 10.773 -3 13.375 C-4.114 14.686 -4.114 14.686 -5.25 16.023 C-5.827 16.676 -6.405 17.328 -7 18 C-7.99 17.34 -8.98 16.68 -10 16 C-8.96 12.967 -7.94 10.928 -5.875 8.438 C-3.594 5.984 -3.594 5.984 -4 2 C-2.68 1.34 -1.36 0.68 0 0 Z " fill="#26729E" transform="translate(255,267)"/>
<path d="M0 0 C3.537 6.64 3.182 13.899 3.188 21.25 C3.2 22.147 3.212 23.044 3.225 23.969 C3.227 24.83 3.228 25.691 3.23 26.578 C3.235 27.356 3.239 28.133 3.243 28.935 C3 31 3 31 1 34 C-1.565 22.575 -0.832 11.59 0 0 Z " fill="#500012" transform="translate(349,38)"/>
<path d="M0 0 C0 3.952 -1.602 5.19 -4.102 8.086 C-4.398 8.718 -4.695 9.349 -5 10 C-4.649 10.78 -4.299 11.56 -3.938 12.363 C-3 15 -3 15 -4.336 17.895 C-5.009 18.857 -5.682 19.82 -6.375 20.812 C-7.043 21.788 -7.71 22.764 -8.398 23.77 C-8.927 24.506 -9.455 25.242 -10 26 C-10.33 25.01 -10.66 24.02 -11 23 C-10.01 21.515 -10.01 21.515 -9 20 C-9.33 19.67 -9.66 19.34 -10 19 C-10.665 13.416 -8.918 10.56 -6 6 C-5.34 6 -4.68 6 -4 6 C-3.711 5.381 -3.423 4.762 -3.125 4.125 C-2 2 -2 2 0 0 Z " fill="#145491" transform="translate(251,271)"/>
<path d="M0 0 C5.369 0.499 10.692 1.022 16 2 C16 2.66 16 3.32 16 4 C16.66 4.33 17.32 4.66 18 5 C15.36 5 12.72 5 10 5 C10.33 5.99 10.66 6.98 11 8 C10.01 8.33 9.02 8.66 8 9 C8 8.34 8 7.68 8 7 C7.216 6.856 6.433 6.711 5.625 6.562 C3 6 3 6 1 5 C1 4.34 1 3.68 1 3 C0.34 2.67 -0.32 2.34 -1 2 C-0.67 1.34 -0.34 0.68 0 0 Z " fill="#9C0327" transform="translate(634,168)"/>
<path d="M0 0 C1.98 0.99 1.98 0.99 4 2 C5.187 5.56 5.097 8.438 5.062 12.188 C5.053 13.46 5.044 14.732 5.035 16.043 C5.024 17.019 5.012 17.995 5 19 C4.34 18.67 3.68 18.34 3 18 C3 15.69 3 13.38 3 11 C2.856 11.598 2.711 12.196 2.562 12.812 C2.113 14.562 1.571 16.287 1 18 C0.67 18 0.34 18 0 18 C0 12.06 0 6.12 0 0 Z " fill="#84000E" transform="translate(344,31)"/>
<path d="M0 0 C0.66 0.33 1.32 0.66 2 1 C0.35 2.98 -1.3 4.96 -3 7 C-0.69 6.34 1.62 5.68 4 5 C4 4.34 4 3.68 4 3 C5.32 2.67 6.64 2.34 8 2 C3.434 6.871 -1.75 10.892 -7 15 C-7.66 14.67 -8.32 14.34 -9 14 C-8.711 13.484 -8.423 12.969 -8.125 12.438 C-6.712 9.376 -5.875 6.251 -5 3 C-4.01 3 -3.02 3 -2 3 C-2 2.34 -2 1.68 -2 1 C-1.34 0.67 -0.68 0.34 0 0 Z M-11 15 C-10.34 15.33 -9.68 15.66 -9 16 C-10.98 16.99 -10.98 16.99 -13 18 C-12.34 17.01 -11.68 16.02 -11 15 Z " fill="#001575" transform="translate(314,211)"/>
<path d="M0 0 C0.66 0.33 1.32 0.66 2 1 C1.67 1.66 1.34 2.32 1 3 C1.66 3.33 2.32 3.66 3 4 C2.049 5.173 1.089 6.338 0.125 7.5 C-0.409 8.15 -0.942 8.799 -1.492 9.469 C-2.239 10.227 -2.239 10.227 -3 11 C-3.66 11 -4.32 11 -5 11 C-5.289 11.639 -5.577 12.279 -5.875 12.938 C-7 15 -7 15 -9 16 C-9.809 13.336 -9.809 13.336 -10 10 C-7.91 7.227 -7.91 7.227 -5.062 4.625 C-4.125 3.751 -3.188 2.877 -2.223 1.977 C-1.489 1.324 -0.756 0.672 0 0 Z " fill="#1492BD" transform="translate(279,241)"/>
<path d="M0 0 C0.66 0.33 1.32 0.66 2 1 C0.373 6.703 -2.332 11.68 -5.125 16.875 C-5.593 17.754 -6.061 18.633 -6.543 19.539 C-7.691 21.695 -8.844 23.848 -10 26 C-10.66 26 -11.32 26 -12 26 C-11.483 20.696 -9.674 17.485 -7 13 C-7 12.34 -7 11.68 -7 11 C-6.34 11 -5.68 11 -5 11 C-4.34 9.35 -3.68 7.7 -3 6 C-2.34 6 -1.68 6 -1 6 C-0.67 4.02 -0.34 2.04 0 0 Z " fill="#92030D" transform="translate(156,658)"/>
<path d="M0 0 C5.936 3.223 9.904 7.715 14 13 C14.681 13.825 15.361 14.65 16.062 15.5 C21 21.871 21 21.871 21 25 C20.34 25 19.68 25 19 25 C16 21.538 16 21.538 16 19 C15.34 19 14.68 19 14 19 C12.781 17.504 12.781 17.504 11.5 15.562 C9.713 12.775 9.713 12.775 7 11 C5.694 8.695 4.841 6.524 4 4 C2 2.791 2 2.791 0 2 C0 1.34 0 0.68 0 0 Z " fill="#345C14" transform="translate(872,988)"/>
<path d="M0 0 C0.33 0 0.66 0 1 0 C0.653 6.587 -0.626 10.002 -5 15 C-5.99 15 -6.98 15 -8 15 C-8.428 11.36 -7.974 9.954 -6.125 6.688 C-5.073 5.357 -5.073 5.357 -4 4 C-3.34 4 -2.68 4 -2 4 C-1.34 2.68 -0.68 1.36 0 0 Z M-10 13 C-9.01 14.485 -9.01 14.485 -8 16 C-8.66 16 -9.32 16 -10 16 C-10 15.01 -10 14.02 -10 13 Z " fill="#430439" transform="translate(230,527)"/>
<path d="M0 0 C3.118 1.363 5.047 2.851 7.25 5.438 C7.771 6.034 8.292 6.631 8.828 7.246 C10 9 10 9 10 12 C5.485 11.469 2.653 9.634 -1 7 C-0.67 4.69 -0.34 2.38 0 0 Z " fill="#2F0013" transform="translate(870,788)"/>
<path d="M0 0 C0.33 0.66 0.66 1.32 1 2 C0.075 4.227 0.075 4.227 -1.387 6.98 C-1.913 7.98 -2.44 8.98 -2.982 10.01 C-3.826 11.583 -3.826 11.583 -4.688 13.188 C-5.231 14.217 -5.774 15.246 -6.334 16.307 C-9.134 21.591 -11.994 26.83 -15 32 C-15.33 32 -15.66 32 -16 32 C-16 30.35 -16 28.7 -16 27 C-15.34 27 -14.68 27 -14 27 C-13.738 26.153 -13.477 25.306 -13.207 24.434 C-10.144 15.72 -5.709 7.265 0 0 Z " fill="#6B001A" transform="translate(186,605)"/>
<path d="M0 0 C1.806 0.007 1.806 0.007 3.648 0.014 C6.599 0.025 9.549 0.042 12.5 0.062 C7.494 2.95 2.337 3.191 -3.336 3.16 C-4.399 3.157 -5.463 3.154 -6.559 3.15 C-7.653 3.142 -8.747 3.134 -9.875 3.125 C-10.993 3.12 -12.11 3.116 -13.262 3.111 C-16.008 3.1 -18.754 3.083 -21.5 3.062 C-21.5 2.403 -21.5 1.742 -21.5 1.062 C-14.319 -0.066 -7.258 -0.052 0 0 Z " fill="#8A0013" transform="translate(213.5,684.9375)"/>
<path d="M0 0 C5.691 1.097 10.746 2.541 16 5 C16 5.99 16 6.98 16 8 C16.66 8 17.32 8 18 8 C18 8.66 18 9.32 18 10 C13.241 9.485 10.174 8.186 6.188 5.562 C5.232 4.945 4.277 4.328 3.293 3.691 C1 2 1 2 0 0 Z " fill="#6C022C" transform="translate(57,295)"/>
<path d="M0 0 C0.715 1.578 0.715 1.578 1 4 C-0.057 6.385 -1.132 8.512 -2.438 10.75 C-2.776 11.352 -3.114 11.954 -3.463 12.574 C-4.298 14.056 -5.147 15.529 -6 17 C-6.66 16.67 -7.32 16.34 -8 16 C-8.66 16.66 -9.32 17.32 -10 18 C-10 16.68 -10 15.36 -10 14 C-9.34 14 -8.68 14 -8 14 C-7.01 11.03 -6.02 8.06 -5 5 C-4.34 5 -3.68 5 -3 5 C-2.691 4.361 -2.381 3.721 -2.062 3.062 C-1 1 -1 1 0 0 Z " fill="#2C0A43" transform="translate(243,503)"/>
<path d="M0 0 C6.252 5.914 8.462 10.697 10 19 C4.684 15.22 2.876 12.161 1 6 C0.339 4.331 -0.324 2.663 -1 1 C-0.67 0.67 -0.34 0.34 0 0 Z " fill="#10254B" transform="translate(833,593)"/>
<path d="M0 0 C12.87 0 25.74 0 39 0 C39 0.33 39 0.66 39 1 C38.108 1.133 37.216 1.266 36.297 1.402 C34.541 1.667 34.541 1.667 32.75 1.938 C31.01 2.199 31.01 2.199 29.234 2.465 C26.769 2.873 24.406 3.339 22 4 C21.67 3.01 21.34 2.02 21 1 C14.07 1 7.14 1 0 1 C0 0.67 0 0.34 0 0 Z " fill="#A70D10" transform="translate(161,685)"/>
<path d="M0 0 C0.99 0.33 1.98 0.66 3 1 C2.01 2.485 2.01 2.485 1 4 C1.204 6.293 1.204 6.293 1.75 8.75 C2.17 11.901 2.33 13.422 0.738 16.211 C-0.764 17.927 -2.285 19.499 -4 21 C-4.33 20.01 -4.66 19.02 -5 18 C-4.484 17.649 -3.969 17.299 -3.438 16.938 C-2.963 16.298 -2.489 15.659 -2 15 C-2.165 13.948 -2.33 12.896 -2.5 11.812 C-3.145 6.892 -1.971 4.494 0 0 Z M-2 11 C-1 13 -1 13 -1 13 Z " fill="#007ABC" transform="translate(259,247)"/>
<path d="M0 0 C1.648 0.281 3.293 0.575 4.938 0.875 C5.854 1.037 6.771 1.2 7.715 1.367 C8.469 1.576 9.223 1.785 10 2 C10.33 2.66 10.66 3.32 11 4 C9.68 3.67 8.36 3.34 7 3 C7.656 6.61 7.656 6.61 9 10 C5.667 8.333 2.333 6.667 -1 5 C-0.67 3.35 -0.34 1.7 0 0 Z " fill="#B61235" transform="translate(661,178)"/>
<path d="M0 0 C1.664 4.993 2.622 9.968 1.062 15.062 C0.537 16.022 0.537 16.022 0 17 C-0.33 15.68 -0.66 14.36 -1 13 C-1.66 13 -2.32 13 -3 13 C-3.33 13.66 -3.66 14.32 -4 15 C-4.506 8.927 -3.042 5.228 0 0 Z " fill="#0B3779" transform="translate(220,323)"/>
<path d="M0 0 C0.66 0.33 1.32 0.66 2 1 C0.461 5.093 -1.441 8.895 -3.5 12.75 C-4.108 13.9 -4.717 15.05 -5.344 16.234 C-7 19 -7 19 -9 20 C-9.372 14.427 -9.372 14.427 -7.75 12.562 C-7.173 12.047 -6.595 11.531 -6 11 C-3.75 7.483 -1.806 3.763 0 0 Z " fill="#7B0016" transform="translate(168,636)"/>
<path d="M0 0 C-0.615 5.538 -0.615 5.538 -2.562 7.875 C-3.274 8.432 -3.274 8.432 -4 9 C-4.66 8.67 -5.32 8.34 -6 8 C-5.34 7.34 -4.68 6.68 -4 6 C-3.357 3.931 -3.357 3.931 -3 2 C-6.488 2.77 -6.488 2.77 -10 4 C-10.33 4.99 -10.66 5.98 -11 7 C-11.33 6.34 -11.66 5.68 -12 5 C-5.647 -1.882 -5.647 -1.882 0 0 Z M-8 9 C-7.34 9.33 -6.68 9.66 -6 10 C-7.65 10.66 -9.3 11.32 -11 12 C-10.01 11.01 -9.02 10.02 -8 9 Z " fill="#CD211D" transform="translate(798,226)"/>
<path d="M0 0 C2.386 3.579 2.441 6.41 2.625 10.562 C2.663 11.275 2.701 11.987 2.74 12.721 C3.011 18.148 3.118 23.567 3 29 C2.34 29 1.68 29 1 29 C0.045 22.625 -0.12 16.439 -0.062 10 C-0.058 9.034 -0.053 8.069 -0.049 7.074 C-0.037 4.716 -0.021 2.358 0 0 Z " fill="#280344" transform="translate(825,404)"/>
<path d="M0 0 C3.515 3.013 5.209 6.148 7.07 10.293 C7.888 12.182 7.888 12.182 10 13 C10 14.32 10 15.64 10 17 C9.34 17 8.68 17 8 17 C7.67 16.67 7.34 16.34 7 16 C7.66 17.98 8.32 19.96 9 22 C3.935 17.659 2.796 12.369 2 6 C1.377 3.986 0.724 1.98 0 0 Z " fill="#150C27" transform="translate(866,652)"/>
<path d="M0 0 C1.982 3.305 2.244 5.798 2.188 9.625 C2.181 10.587 2.175 11.548 2.168 12.539 C2 15 2 15 1 17 C0.931 18.373 0.915 19.75 0.938 21.125 C0.958 22.404 0.979 23.683 1 25 C0.34 25.33 -0.32 25.66 -1 26 C-1.029 22.229 -1.047 18.458 -1.062 14.688 C-1.071 13.616 -1.079 12.544 -1.088 11.439 C-1.091 10.411 -1.094 9.383 -1.098 8.324 C-1.106 6.902 -1.106 6.902 -1.114 5.452 C-1 3 -1 3 0 0 Z " fill="#090C4E" transform="translate(826,446)"/>
<path d="M0 0 C1.207 3.447 0.821 5.188 -0.625 8.5 C-1.182 9.797 -1.182 9.797 -1.75 11.121 C-2.162 12.071 -2.575 13.021 -3 14 C-3.433 15.084 -3.866 16.168 -4.312 17.285 C-4.746 18.367 -5.179 19.448 -5.625 20.562 C-6.03 21.574 -6.435 22.586 -6.852 23.629 C-8 26 -8 26 -10 27 C-9.392 23.543 -8.504 20.458 -7.188 17.207 C-6.658 15.891 -6.658 15.891 -6.117 14.549 C-5.749 13.646 -5.38 12.743 -5 11.812 C-4.631 10.898 -4.263 9.983 -3.883 9.041 C-1.184 2.369 -1.184 2.369 0 0 Z " fill="#001B72" transform="translate(226,324)"/>
<path d="M0 0 C0.333 4.78 -0.295 7.082 -3 11 C-3.901 12.434 -4.796 13.872 -5.688 15.312 C-6.458 16.542 -7.229 17.771 -8 19 C-8.715 17.359 -8.715 17.359 -9 15 C-7.566 12.203 -7.566 12.203 -5.562 9.25 C-4.904 8.265 -4.245 7.28 -3.566 6.266 C-3.049 5.518 -2.533 4.77 -2 4 C-2.99 4 -3.98 4 -5 4 C-5 3.34 -5 2.68 -5 2 C-1.125 0 -1.125 0 0 0 Z " fill="#B00619" transform="translate(733,115)"/>
<path d="M0 0 C3.243 0.559 4.931 1.413 7 4 C7 4.66 7 5.32 7 6 C8.32 6.33 9.64 6.66 11 7 C10.67 8.65 10.34 10.3 10 12 C9.423 11.381 8.845 10.762 8.25 10.125 C6.198 7.933 6.198 7.933 3.875 7.125 C1.031 5.419 0.807 3.093 0 0 Z " fill="#51306B" transform="translate(185,178)"/>
<path d="M0 0 C0.33 0.66 0.66 1.32 1 2 C0.287 3.971 0.287 3.971 -0.871 6.352 C-1.485 7.628 -1.485 7.628 -2.111 8.93 C-2.549 9.819 -2.987 10.709 -3.438 11.625 C-3.871 12.522 -4.305 13.419 -4.752 14.344 C-5.828 16.566 -6.911 18.784 -8 21 C-8.66 21 -9.32 21 -10 21 C-10.33 22.65 -10.66 24.3 -11 26 C-11.66 26 -12.32 26 -13 26 C-11.36 20.054 -8.376 14.965 -5.375 9.625 C-4.602 8.235 -4.602 8.235 -3.812 6.816 C-2.546 4.542 -1.275 2.27 0 0 Z " fill="#A20F1C" transform="translate(188,604)"/>
<path d="M0 0 C0.672 1.719 0.672 1.719 1 4 C-0.109 6.219 -0.109 6.219 -1.75 8.5 C-2.281 9.253 -2.812 10.006 -3.359 10.781 C-3.901 11.513 -4.442 12.246 -5 13 C-5.521 13.753 -6.042 14.506 -6.578 15.281 C-7.282 16.132 -7.282 16.132 -8 17 C-8.66 17 -9.32 17 -10 17 C-9.188 14.062 -9.188 14.062 -8 11 C-7.01 10.67 -6.02 10.34 -5 10 C-4.655 8.67 -4.325 7.335 -4 6 C-2.712 3.97 -1.384 1.965 0 0 Z " fill="#B20627" transform="translate(715,134)"/>
<path d="M0 0 C0.99 0.33 1.98 0.66 3 1 C2.216 1.763 1.433 2.526 0.625 3.312 C-2.073 5.909 -2.073 5.909 -4 9 C-4.66 9 -5.32 9 -6 9 C-6.062 9.784 -6.124 10.567 -6.188 11.375 C-6.59 12.674 -6.59 12.674 -7 14 C-9.551 15.164 -9.551 15.164 -12 16 C-8.349 10.29 -4.518 5.055 0 0 Z " fill="#015CA2" transform="translate(263,265)"/>
<path d="M0 0 C0.66 0 1.32 0 2 0 C2.33 1.65 2.66 3.3 3 5 C2.34 5 1.68 5 1 5 C0.732 5.928 0.464 6.856 0.188 7.812 C-0.945 10.852 -1.699 11.901 -4 14 C-3.38 4.192 -3.38 4.192 0 0 Z " fill="#390035" transform="translate(419,188)"/>
<path d="M0 0 C6.175 2.117 9.947 5.216 13 11 C9 11 9 11 6.438 8.625 C5.633 7.759 4.829 6.893 4 6 C3.01 5.34 2.02 4.68 1 4 C0.312 1.875 0.312 1.875 0 0 Z " fill="#18391D" transform="translate(899,1013)"/>
<path d="M0 0 C0.99 0 1.98 0 3 0 C3.125 3.375 3.125 3.375 3 7 C2.34 7.66 1.68 8.32 1 9 C0.281 11.318 -0.391 13.651 -1 16 C-1.33 16 -1.66 16 -2 16 C-1.858 14.083 -1.712 12.166 -1.562 10.25 C-1.481 9.183 -1.4 8.115 -1.316 7.016 C-1.059 4.563 -0.682 2.361 0 0 Z " fill="#900100" transform="translate(584,0)"/>
<path d="M0 0 C-1.657 5.649 -3.478 10.263 -7 15 C-8.131 11.607 -7.864 10.777 -6.75 7.5 C-6.497 6.727 -6.245 5.953 -5.984 5.156 C-4.647 2.227 -3.403 0 0 0 Z " fill="#56022E" transform="translate(439,157)"/>
<path d="M0 0 C1.938 0.812 1.938 0.812 4 2 C4.33 2.99 4.66 3.98 5 5 C5.66 5.33 6.32 5.66 7 6 C7 6.66 7 7.32 7 8 C7.99 8.33 8.98 8.66 10 9 C11.188 11.062 11.188 11.062 12 13 C9.062 12.25 9.062 12.25 6 11 C5.125 8.875 5.125 8.875 5 7 C4.34 7 3.68 7 3 7 C3 6.34 3 5.68 3 5 C2.01 4.67 1.02 4.34 0 4 C0 2.68 0 1.36 0 0 Z " fill="#234F1C" transform="translate(864,977)"/>
<path d="M0 0 C1.32 0 2.64 0 4 0 C2.187 3.777 0.093 7.373 -2 11 C-2.99 10.34 -3.98 9.68 -5 9 C-4.353 7.657 -3.681 6.326 -3 5 C-2.546 4.093 -2.092 3.185 -1.625 2.25 C-1.089 1.507 -0.553 0.765 0 0 Z " fill="#CA091B" transform="translate(727,119)"/>
<path d="M0 0 C1.5 1.375 1.5 1.375 3 3 C3 3.66 3 4.32 3 5 C3.66 5.33 4.32 5.66 5 6 C6.262 10.475 6.262 10.475 5 13 C5.33 13.99 5.66 14.98 6 16 C5.01 15.67 4.02 15.34 3 15 C2.051 12.934 2.051 12.934 1.312 10.438 C1.061 9.611 0.81 8.785 0.551 7.934 C0.369 7.296 0.187 6.657 0 6 C0.66 6 1.32 6 2 6 C1.34 4.02 0.68 2.04 0 0 Z " fill="#0F1538" transform="translate(851,624)"/>
<path d="M0 0 C0.688 1.625 0.688 1.625 1 4 C-1.333 9.667 -1.333 9.667 -4 11 C-5.125 5.25 -5.125 5.25 -4 3 C-3.01 3 -2.02 3 -1 3 C-0.67 2.01 -0.34 1.02 0 0 Z M-7 9 C-6.01 9.495 -6.01 9.495 -5 10 C-5.99 10.495 -5.99 10.495 -7 11 C-7 10.34 -7 9.68 -7 9 Z " fill="#37063D" transform="translate(235,518)"/>
<path d="M0 0 C1.414 2.829 1.319 4.874 1 8 C-1 9.875 -1 9.875 -3 11 C-3 10.34 -3 9.68 -3 9 C-3.99 8.67 -4.98 8.34 -6 8 C-5.34 7.34 -4.68 6.68 -4 6 C-4 4.68 -4 3.36 -4 2 C-2.68 1.34 -1.36 0.68 0 0 Z " fill="#287FAA" transform="translate(255,267)"/>
<path d="M0 0 C1.101 3.303 0.951 4.716 0 8 C-0.99 8.495 -0.99 8.495 -2 9 C-2 8.34 -2 7.68 -2 7 C-2.66 7 -3.32 7 -4 7 C-4 6.01 -4 5.02 -4 4 C-4.99 4.495 -4.99 4.495 -6 5 C-5.67 3.68 -5.34 2.36 -5 1 C-3.35 0.67 -1.7 0.34 0 0 Z " fill="#004D9C" transform="translate(289,232)"/>
<path d="M0 0 C2.475 0.495 2.475 0.495 5 1 C5 1.66 5 2.32 5 3 C5.866 3.186 5.866 3.186 6.75 3.375 C9.023 4.006 10.925 4.889 13 6 C13 6.66 13 7.32 13 8 C14.32 8.33 15.64 8.66 17 9 C16.01 9.495 16.01 9.495 15 10 C12.285 8.855 12.285 8.855 9.062 7.188 C8.002 6.645 6.941 6.102 5.848 5.543 C3 4 3 4 0 2 C0 1.34 0 0.68 0 0 Z " fill="#310038" transform="translate(81,310)"/>
<path d="M0 0 C0.33 0.66 0.66 1.32 1 2 C0.67 2.99 0.34 3.98 0 5 C-0.66 5 -1.32 5 -2 5 C-2.266 5.562 -2.531 6.124 -2.805 6.703 C-4.093 9.179 -5.561 11.438 -7.125 13.75 C-7.933 14.949 -7.933 14.949 -8.758 16.172 C-9.168 16.775 -9.578 17.378 -10 18 C-10.33 17.34 -10.66 16.68 -11 16 C-9.633 13.581 -8.227 11.305 -6.688 9 C-6.27 8.358 -5.853 7.716 -5.424 7.055 C-3.753 4.508 -2.159 2.159 0 0 Z " fill="#003588" transform="translate(251,281)"/>
<path d="M0 0 C0 0.99 0 1.98 0 3 C-0.99 3.66 -1.98 4.32 -3 5 C-3 4.34 -3 3.68 -3 3 C-4.65 3 -6.3 3 -8 3 C-8 5.97 -8 8.94 -8 12 C-8.66 11.67 -9.32 11.34 -10 11 C-11.294 3.588 -11.294 3.588 -10 1 C-7.982 1.033 -5.964 1.065 -3.945 1.098 C-1.918 1.126 -1.918 1.126 0 0 Z " fill="#008BC4" transform="translate(270,248)"/>
<path d="M0 0 C1 2 1 2 0.398 3.883 C-2.028 9.198 -4.765 14.134 -8 19 C-8.33 18.34 -8.66 17.68 -9 17 C-8.287 15.212 -8.287 15.212 -7.129 13.086 C-6.72 12.325 -6.31 11.565 -5.889 10.781 C-5.451 9.987 -5.013 9.193 -4.562 8.375 C-4.129 7.573 -3.695 6.771 -3.248 5.945 C-2.172 3.96 -1.09 1.978 0 0 Z " fill="#A7060F" transform="translate(171,639)"/>
<path d="M0 0 C0.66 0 1.32 0 2 0 C2 0.66 2 1.32 2 2 C2.626 1.977 3.253 1.954 3.898 1.93 C4.716 1.912 5.533 1.894 6.375 1.875 C7.187 1.852 7.999 1.829 8.836 1.805 C11 2 11 2 13 4 C9.609 5.043 6.538 5.226 3 5 C2.01 4.34 1.02 3.68 0 3 C0 2.01 0 1.02 0 0 Z " fill="#A20808" transform="translate(143,684)"/>
<path d="M0 0 C3.35 1.117 3.793 1.747 5.688 4.562 C6.124 5.203 6.561 5.844 7.012 6.504 C7.338 6.998 7.664 7.491 8 8 C7.67 8.66 7.34 9.32 7 10 C6.34 9.01 5.68 8.02 5 7 C4.34 7 3.68 7 3 7 C2.67 7.66 2.34 8.32 2 9 C0.142 5.865 -0.201 3.625 0 0 Z " fill="#031C70" transform="translate(228,141)"/>
<path d="M0 0 C0.33 0 0.66 0 1 0 C1.532 2.415 2.051 4.831 2.562 7.25 C2.714 7.932 2.865 8.614 3.021 9.316 C3.752 12.818 4.322 15.603 3 19 C2.67 19 2.34 19 2 19 C1.471 16.21 0.952 13.418 0.438 10.625 C0.286 9.831 0.135 9.037 -0.021 8.219 C-1.113 2.227 -1.113 2.227 0 0 Z " fill="#370443" transform="translate(819,402)"/>
<path d="M0 0 C0.66 0 1.32 0 2 0 C2.043 2 2.041 4 2 6 C1 7 1 7 -2.062 7.062 C-3.517 7.032 -3.517 7.032 -5 7 C-1.125 1.125 -1.125 1.125 0 0 Z " fill="#3FB9CD" transform="translate(268,252)"/>
<path d="M0 0 C1.938 0.375 1.938 0.375 4 1 C4.33 1.66 4.66 2.32 5 3 C5.99 3 6.98 3 8 3 C7.835 3.598 7.67 4.196 7.5 4.812 C6.889 7.113 6.889 7.113 7 10 C5 9 5 9 4.062 7 C3.111 4.654 3.111 4.654 0 4 C0 2.68 0 1.36 0 0 Z " fill="#45000B" transform="translate(343,27)"/>
<path d="M0 0 C0.33 0 0.66 0 1 0 C1.228 2.051 1.456 4.102 1.684 6.152 C1.819 8.011 1.819 8.011 3 9 C3.041 10.666 3.043 12.334 3 14 C2.01 14 1.02 14 0 14 C-0.194 11.855 -0.38 9.709 -0.562 7.562 C-0.719 5.77 -0.719 5.77 -0.879 3.941 C-0.919 2.971 -0.959 2 -1 1 C-0.67 0.67 -0.34 0.34 0 0 Z " fill="#1A4A20" transform="translate(864,986)"/>
<path d="M0 0 C0.33 0 0.66 0 1 0 C1.369 12.67 1.369 12.67 -1 18 C-1.33 18 -1.66 18 -2 18 C-2.137 9.789 -2.137 9.789 -1 6 C-0.654 4.002 -0.319 2.002 0 0 Z " fill="#0A1853" transform="translate(818,481)"/>
<path d="M0 0 C4.755 0.576 7.97 2.551 12 5 C12 5.66 12 6.32 12 7 C7.068 6.552 3.681 4.14 0 1 C0 0.67 0 0.34 0 0 Z " fill="#7F072B" transform="translate(57,295)"/>
<path d="M0 0 C1.5 1.125 1.5 1.125 3 3 C3.253 6.095 3.399 8.201 2 11 C-0.31 11 -2.62 11 -5 11 C-5 10.34 -5 9.68 -5 9 C-3.02 8.67 -1.04 8.34 1 8 C0.67 5.36 0.34 2.72 0 0 Z " fill="#291422" transform="translate(875,675)"/>
<path d="M0 0 C0.33 0.66 0.66 1.32 1 2 C0.293 3.699 0.293 3.699 -0.812 5.688 C-2.781 9.413 -3.98 12.919 -5 17 C-5.66 16.01 -6.32 15.02 -7 14 C-5.889 8.692 -2.96 4.451 0 0 Z " fill="#D12511" transform="translate(156,664)"/>
<path d="M0 0 C0.99 0.495 0.99 0.495 2 1 C2.125 7.75 2.125 7.75 1 10 C1.66 10 2.32 10 3 10 C2.67 11.32 2.34 12.64 2 14 C1.34 14 0.68 14 0 14 C0 9.38 0 4.76 0 0 Z " fill="#0C125A" transform="translate(203,466)"/>
<path d="M0 0 C2 1 2 1 3.07 4.16 C3.43 5.459 3.781 6.76 4.125 8.062 C4.307 8.726 4.489 9.389 4.676 10.072 C5.124 11.713 5.563 13.356 6 15 C5.01 15.495 5.01 15.495 4 16 C3.328 13.897 2.663 11.793 2 9.688 C1.443 7.93 1.443 7.93 0.875 6.137 C0 3 0 3 0 0 Z " fill="#720136" transform="translate(807,345)"/>
<path d="M0 0 C1.52 1.113 1.52 1.113 3 3 C3.074 5.918 3.074 5.918 2.688 9.188 C2.508 10.818 2.508 10.818 2.324 12.48 C2.217 13.312 2.11 14.143 2 15 C-0.351 11.473 -0.214 9.971 -0.125 5.812 C-0.107 4.726 -0.089 3.639 -0.07 2.52 C-0.047 1.688 -0.024 0.857 0 0 Z " fill="#111458" transform="translate(199,473)"/>
<path d="M0 0 C0.66 0 1.32 0 2 0 C1.67 1.65 1.34 3.3 1 5 C1.66 5 2.32 5 3 5 C3.33 4.34 3.66 3.68 4 3 C4 4.32 4 5.64 4 7 C3.34 7 2.68 7 2 7 C1.67 8.32 1.34 9.64 1 11 C0.34 10.67 -0.32 10.34 -1 10 C-0.34 8.68 0.32 7.36 1 6 C0.34 6 -0.32 6 -1 6 C-1.043 4.334 -1.041 2.666 -1 1 C-0.67 0.67 -0.34 0.34 0 0 Z " fill="#320010" transform="translate(481,71)"/>
<path d="M0 0 C0.66 0 1.32 0 2 0 C2.054 1.458 2.093 2.916 2.125 4.375 C2.148 5.187 2.171 5.999 2.195 6.836 C2 9 2 9 0 11 C-0.194 9.355 -0.38 7.709 -0.562 6.062 C-0.667 5.146 -0.771 4.229 -0.879 3.285 C-0.919 2.531 -0.959 1.777 -1 1 C-0.67 0.67 -0.34 0.34 0 0 Z " fill="#1A461D" transform="translate(880,1013)"/>
<path d="M0 0 C1.332 3.995 0.419 6.099 -1 10 C-1.99 10.66 -2.98 11.32 -4 12 C-3.457 7.435 -2.205 4.027 0 0 Z " fill="#042274" transform="translate(220,323)"/>
<path d="M0 0 C1.454 0.031 1.454 0.031 2.938 0.062 C1.288 1.712 -0.363 3.363 -2.062 5.062 C-2.062 4.402 -2.062 3.743 -2.062 3.062 C-4.043 4.053 -4.043 4.053 -6.062 5.062 C-3.649 0.074 -3.649 0.074 0 0 Z " fill="#31A7C3" transform="translate(265.0625,258.9375)"/>
<path d="M0 0 C-3.42 3.42 -7.72 3.953 -12.438 4.125 C-13.283 4.084 -14.129 4.042 -15 4 C-10.507 0.025 -5.809 -0.171 0 0 Z " fill="#260038" transform="translate(429,165)"/>
<path d="M0 0 C2.971 2.546 4.478 5.422 6 9 C5.67 9.66 5.34 10.32 5 11 C2.27 8.643 1.111 6.419 0 3 C0 2.01 0 1.02 0 0 Z " fill="#262338" transform="translate(855,634)"/>
<path d="M0 0 C0.688 1.688 0.688 1.688 1 4 C-0.25 6.688 -0.25 6.688 -2 9 C-2.99 9.33 -3.98 9.66 -5 10 C-3.665 6.406 -2.04 3.245 0 0 Z " fill="#0B3E86" transform="translate(240,286)"/>
<path d="M0 0 C0.66 0.33 1.32 0.66 2 1 C-3.966 8.667 -3.966 8.667 -9 10 C-8.064 8.894 -7.126 7.791 -6.188 6.688 C-5.665 6.073 -5.143 5.458 -4.605 4.824 C-3.128 3.146 -1.6 1.561 0 0 Z " fill="#005EAB" transform="translate(276,255)"/>
<path d="M0 0 C0.66 0 1.32 0 2 0 C0.599 5.292 -2.855 7.775 -7 11 C-5.687 8.253 -4.247 5.743 -2.5 3.25 C-2.077 2.636 -1.654 2.023 -1.219 1.391 C-0.817 0.932 -0.414 0.473 0 0 Z " fill="#B70727" transform="translate(718,139)"/>
<path d="M0 0 C0.99 0.33 1.98 0.66 3 1 C1.65 5.419 -0.261 7.343 -4 10 C-3.427 7.133 -3.139 6.139 -1 4 C-0.357 1.931 -0.357 1.931 0 0 Z " fill="#026EAD" transform="translate(258,258)"/>
<path d="M0 0 C0.66 0.33 1.32 0.66 2 1 C1.319 1.526 1.319 1.526 0.625 2.062 C-1.647 4.771 -2.168 7.608 -3 11 C-3.33 11 -3.66 11 -4 11 C-4.812 8.312 -4.812 8.312 -5 5 C-2.562 2.125 -2.562 2.125 0 0 Z " fill="#22A8C8" transform="translate(274,246)"/>
<path d="M0 0 C0 3 0 3 -2.312 5.562 C-5 8 -5 8 -8 10 C-7.444 6.401 -6.251 5.001 -3.438 2.75 C-2.797 2.229 -2.156 1.708 -1.496 1.172 C-1.002 0.785 -0.509 0.398 0 0 Z " fill="#004EA3" transform="translate(286,241)"/>
<path d="M0 0 C1.875 0.188 1.875 0.188 4 1 C5.25 3.562 5.25 3.562 6 6 C4.35 6 2.7 6 1 6 C0.67 4.02 0.34 2.04 0 0 Z " fill="#53760B" transform="translate(895,1018)"/>
<path d="M0 0 C3.829 1.453 5.121 3.429 7 7 C5.68 7 4.36 7 3 7 C2.01 4.69 1.02 2.38 0 0 Z " fill="#103221" transform="translate(905,1017)"/>
<path d="M0 0 C3.653 1.25 4.781 1.671 7 5 C5.35 5 3.7 5 2 5 C1.34 3.35 0.68 1.7 0 0 Z " fill="#395A11" transform="translate(899,1019)"/>
<path d="M0 0 C1.04 3.38 1.08 6.478 1 10 C-1.154 7.378 -2.401 5.356 -3 2 C-2.34 2 -1.68 2 -1 2 C-0.67 1.34 -0.34 0.68 0 0 Z " fill="#560334" transform="translate(223,542)"/>
<path d="M0 0 C0.66 0.33 1.32 0.66 2 1 C2.305 6.281 2.317 7.577 -1 12 C-0.67 8.04 -0.34 4.08 0 0 Z " fill="#001E6E" transform="translate(206,388)"/>
<path d="M0 0 C0.33 0.99 0.66 1.98 1 3 C0.01 3.66 -0.98 4.32 -2 5 C-2 4.34 -2 3.68 -2 3 C-4.475 4.485 -4.475 4.485 -7 6 C-5.525 2.597 -4.144 0 0 0 Z " fill="#3299B7" transform="translate(263,262)"/>
<path d="M0 0 C0.66 0 1.32 0 2 0 C2 0.66 2 1.32 2 2 C2.66 2 3.32 2 4 2 C3.34 3.32 2.68 4.64 2 6 C1.01 5.67 0.02 5.34 -1 5 C-0.67 3.35 -0.34 1.7 0 0 Z " fill="#0777AD" transform="translate(281,239)"/>
<path d="M0 0 C2 1 2 1 3.125 4.062 C3.414 5.032 3.702 6.001 4 7 C3.01 7.33 2.02 7.66 1 8 C0.269 6.023 -0.394 4.019 -1 2 C-0.67 1.34 -0.34 0.68 0 0 Z " fill="#390003" transform="translate(519,18)"/>
<path d="M0 0 C1.45 2.341 2.043 3.58 1.758 6.359 C1.549 7.148 1.34 7.937 1.125 8.75 C0.921 9.549 0.718 10.348 0.508 11.172 C0.34 11.775 0.173 12.378 0 13 C-0.33 13 -0.66 13 -1 13 C-1.027 11.396 -1.046 9.792 -1.062 8.188 C-1.074 7.294 -1.086 6.401 -1.098 5.48 C-1 3 -1 3 0 0 Z " fill="#190E4E" transform="translate(826,446)"/>
<path d="M0 0 C0.99 0 1.98 0 3 0 C2.67 1.65 2.34 3.3 2 5 C1.01 5 0.02 5 -1 5 C-0.67 3.35 -0.34 1.7 0 0 Z " fill="#03A6D0" transform="translate(263,252)"/>
<path d="M0 0 C3 1 3 1 4 3 C4.04 5 4.043 7 4 9 C2.009 6.014 1.059 3.403 0 0 Z " fill="#930A2F" transform="translate(694,344)"/>
<path d="M0 0 C4.875 4.625 4.875 4.625 6 8 C3.562 7.375 3.562 7.375 1 6 C0.188 2.875 0.188 2.875 0 0 Z " fill="#191F6D" transform="translate(200,188)"/>
<path d="M0 0 C0.99 0.33 1.98 0.66 3 1 C4.188 3.562 4.188 3.562 5 6 C3.68 5.67 2.36 5.34 1 5 C0.505 2.525 0.505 2.525 0 0 Z " fill="#9C031E" transform="translate(591,155)"/>
</svg>
