<?xml version="1.0" encoding="UTF-8"?>
<!-- Generator: visioncortex VTracer 0.6.4 -->
<svg version="1.1" xmlns="http://www.w3.org/2000/svg" width="1024" height="1024">
<path d="M0 0 C337.92 0 675.84 0 1024 0 C1024 337.92 1024 675.84 1024 1024 C686.08 1024 348.16 1024 0 1024 C0 686.08 0 348.16 0 0 Z " fill="#0C0C0D" transform="translate(0,0)"/>
<path d="M0 0 C1.7 0.723 1.7 0.723 3.434 1.461 C13.042 5.853 20.406 11.747 28 19 C28.931 19.877 29.861 20.753 30.82 21.656 C44.807 35.857 49.553 53.707 49.42 73.232 C48.781 94.713 42.28 111.776 27.562 127.625 C26.717 128.409 25.871 129.192 25 130 C24.12 130.888 24.12 130.888 23.223 131.793 C7.076 147.338 -14.473 151.753 -36.188 152.312 C-57.81 151.892 -75.759 142.219 -90.551 126.855 C-98.501 117.586 -104.345 107.694 -108 96 C-108.317 95.12 -108.634 94.239 -108.961 93.332 C-114.953 74.284 -111.226 53.204 -102.409 35.781 C-98.628 28.828 -93.669 23.459 -88 18 C-87.112 17.116 -86.224 16.231 -85.309 15.32 C-78.778 9.065 -71.874 4.377 -64 0 C-63.059 -0.523 -62.118 -1.047 -61.148 -1.586 C-41.749 -10.299 -19.027 -8.482 0 0 Z " fill="#BE551F" transform="translate(544,743)"/>
</svg>
