<svg xmlns="http://www.w3.org/2000/svg" viewBox="0 0 1080 1080" width="1080" height="1080">
  <defs>
    <!-- Include any definitions from original SVGs -->
  </defs>
  <g id="background-layer">
    <image href="http://localhost:5000/static/images/sessions/bg_20250628_003524_b19607db/background_20250628_003524_4d5e982d.png" x="0" y="0" width="1080" height="1080" preserveAspectRatio="xMidYMid slice"/>
  </g>
  <g id="elements-layer" opacity="0.9">
    
<path d="M0 0 C337.92 0 675.84 0 1024 0 C1024 337.92 1024 675.84 1024 1024 C686.08 1024 348.16 1024 0 1024 C0 686.08 0 348.16 0 0 Z M63 63 C63 358.35 63 653.7 63 958 C359.34 958 655.68 958 961 958 C961 662.65 961 367.3 961 63 C664.66 63 368.32 63 63 63 Z " fill="#003567" transform="translate(0,0)"/>
<path d="M0 0 C299.31 0 598.62 0 907 0 C907 298.65 907 597.3 907 905 C607.69 905 308.38 905 0 905 C0 606.35 0 307.7 0 0 Z M5 5 C5 300.35 5 595.7 5 900 C301.34 900 597.68 900 903 900 C903 604.65 903 309.3 903 5 C606.66 5 310.32 5 5 5 Z " fill="#8BF12C" transform="translate(58,58)"/>
<path d="M0 0 C114.84 0 229.68 0 348 0 C348 0.33 348 0.66 348 1 C621.735 1.495 621.735 1.495 901 2 C901 2.33 901 2.66 901 3 C604.66 3 308.32 3 3 3 C3 298.35 3 593.7 3 898 C2.34 898 1.68 898 1 898 C0.142 834.762 -0.103 771.528 -0.114 708.285 C-0.114 707.325 -0.114 706.365 -0.114 705.375 C-0.118 680.866 -0.113 656.357 -0.105 631.848 C-0.099 615.584 -0.096 599.321 -0.095 583.058 C-0.095 581.965 -0.095 580.873 -0.095 579.748 C-0.094 574.198 -0.094 568.647 -0.094 563.097 C-0.092 524.156 -0.085 485.214 -0.075 446.273 C-0.066 408.528 -0.059 370.783 -0.055 333.038 C-0.055 330.65 -0.054 328.261 -0.054 325.872 C-0.052 306.452 -0.05 287.032 -0.048 267.612 C-0.039 178.408 -0.018 89.204 0 0 Z " fill="#79E226" transform="translate(60,60)"/>
<path d="M0 0 C3.203 0 6.406 0.001 9.61 0.001 C91.628 0.012 173.647 0.032 258.834 0.063 C258.851 61.015 258.867 121.967 258.876 182.92 C258.876 183.822 258.876 184.725 258.876 185.655 C258.879 205.271 258.882 224.888 258.885 244.505 C258.886 254.125 258.887 263.746 258.889 273.366 C258.889 274.802 258.889 274.802 258.889 276.267 C258.893 307.279 258.901 338.292 258.91 369.304 C258.919 401.182 258.925 433.059 258.927 464.937 C258.928 469.443 258.928 473.948 258.928 478.454 C258.929 479.341 258.929 480.228 258.929 481.141 C258.93 495.398 258.934 509.654 258.94 523.91 C258.946 538.254 258.949 552.597 258.947 566.941 C258.946 575.455 258.948 583.97 258.954 592.484 C258.958 598.183 258.958 603.881 258.955 609.58 C258.954 612.82 258.954 616.06 258.958 619.3 C258.973 631.662 258.859 643.956 258.062 656.294 C257.759 661.287 257.681 666.262 257.675 671.263 C257.668 672.744 257.668 672.744 257.66 674.255 C257.645 677.488 257.637 680.721 257.628 683.954 C257.619 686.301 257.609 688.649 257.598 690.996 C257.571 697.313 257.55 703.63 257.53 709.947 C257.51 715.897 257.486 721.846 257.462 727.796 C257.415 739.566 257.372 751.336 257.331 763.105 C257.291 774.526 257.25 785.946 257.206 797.367 C257.203 798.073 257.2 798.779 257.198 799.507 C257.184 803.05 257.17 806.594 257.156 810.137 C257.043 839.446 256.936 868.754 256.834 898.063 C256.504 898.063 256.174 898.063 255.834 898.063 C255.834 602.383 255.834 306.703 255.834 2.063 C-40.506 2.063 -336.846 2.063 -642.166 2.063 C-642.166 1.733 -642.166 1.403 -642.166 1.063 C-597.171 0.88 -552.175 0.719 -507.179 0.572 C-504.429 0.563 -501.679 0.554 -498.929 0.545 C-405.715 0.239 -312.501 0.049 0 0 Z " fill="#93F81D" transform="translate(705.1664309799671,59.93717163801193)"/>
<path d="M0 0 C0.33 0 0.66 0 1 0 C1 85.47 1 170.94 1 259 C-297.32 259 -595.64 259 -903 259 C-903 223.36 -903 187.72 -903 151 C-902.67 151 -902.34 151 -902 151 C-902 185.65 -902 220.3 -902 256 C-604.67 256 -307.34 256 -1 256 C-1 177.46 -1 98.92 -1 18 C-0.67 12.06 -0.34 6.12 0 0 Z " fill="#8CFD46" transform="translate(963,702)"/>
<path d="M0 0 C0.33 0 0.66 0 1 0 C1.01 0.85 1.021 1.699 1.031 2.575 C1.129 10.565 1.232 18.556 1.339 26.546 C1.395 30.655 1.448 34.763 1.497 38.872 C1.545 42.834 1.597 46.795 1.653 50.757 C1.673 52.271 1.692 53.786 1.709 55.301 C1.733 57.415 1.763 59.53 1.795 61.644 C1.81 62.85 1.826 64.056 1.842 65.298 C1.695 67.916 1.695 67.916 3 69 C3.107 71.533 3.148 74.039 3.147 76.572 C3.151 77.375 3.155 78.177 3.158 79.004 C3.169 81.714 3.173 84.424 3.177 87.134 C3.183 89.069 3.19 91.003 3.197 92.938 C3.214 98.208 3.225 103.479 3.233 108.75 C3.238 112.039 3.244 115.329 3.251 118.619 C3.27 128.903 3.284 139.186 3.292 149.47 C3.302 161.358 3.328 173.246 3.369 185.134 C3.399 194.311 3.414 203.488 3.417 212.665 C3.419 218.151 3.428 223.638 3.453 229.124 C3.477 234.284 3.481 239.444 3.471 244.605 C3.47 246.501 3.477 248.397 3.49 250.294 C3.508 252.878 3.501 255.462 3.488 258.047 C3.504 259.178 3.504 259.178 3.521 260.332 C3.478 263.822 3.236 265.685 1.114 268.512 C-1 270 -1 270 -3.318 269.754 C-4.203 269.505 -5.088 269.256 -6 269 C-8.302 268.931 -10.607 268.915 -12.91 268.938 C-14.23 268.945 -15.549 268.953 -16.908 268.961 C-18.293 268.973 -19.678 268.986 -21.062 269 C-23.783 269.027 -26.502 269.047 -29.223 269.062 C-31.029 269.08 -31.029 269.08 -32.871 269.098 C-35.467 269.017 -37.541 268.774 -40 268 C-40.33 268.66 -40.66 269.32 -41 270 C-41.804 269.691 -41.804 269.691 -42.625 269.375 C-45.815 268.871 -47.988 269.952 -51 271 C-51.66 270.67 -52.32 270.34 -53 270 C-53 269.34 -53 268.68 -53 268 C-53.791 268.164 -54.581 268.327 -55.396 268.496 C-59.853 269.119 -64.175 269.105 -68.668 269.062 C-69.585 269.059 -70.501 269.055 -71.446 269.051 C-74.36 269.039 -77.274 269.02 -80.188 269 C-84.035 268.973 -87.883 268.953 -91.73 268.938 C-92.615 268.929 -93.499 268.921 -94.41 268.912 C-95.642 268.907 -95.642 268.907 -96.899 268.902 C-97.621 268.897 -98.342 268.892 -99.085 268.886 C-101.223 268.93 -101.223 268.93 -104 270 C-104 269.34 -104 268.68 -104 268 C-105.011 268.351 -106.021 268.701 -107.062 269.062 C-110.944 270.194 -114.019 269.676 -118 269 C-118.639 269.165 -119.279 269.33 -119.938 269.5 C-122.687 270.166 -125.086 269.599 -127.848 269.188 C-130.078 268.993 -131.979 269.166 -134.188 269.5 C-137.688 269.959 -139.651 269.793 -143 269 C-146.845 268.84 -150.255 269.119 -154 270 C-154 269.34 -154 268.68 -154 268 C-154.562 268.03 -155.123 268.061 -155.702 268.092 C-169.149 268.801 -182.536 269.122 -196 269 C-196.99 269 -197.98 269 -199 269 C-200.089 268.988 -201.179 268.977 -202.301 268.965 C-211.258 268.893 -220.07 269.219 -229 270 C-229 269.34 -229 268.68 -229 268 C-230.785 268.246 -230.785 268.246 -232.606 268.496 C-239.164 269.22 -245.711 269.105 -252.301 269.062 C-253.668 269.058 -255.036 269.054 -256.404 269.051 C-260.707 269.04 -265.01 269.02 -269.312 269 C-274.32 268.976 -279.328 268.956 -284.336 268.944 C-286.332 268.938 -288.328 268.925 -290.325 268.912 C-291.537 268.909 -292.749 268.906 -293.997 268.902 C-295.063 268.897 -296.128 268.892 -297.226 268.886 C-299.661 268.986 -301.678 269.294 -304 270 C-304 269.34 -304 268.68 -304 268 C-305.134 268.165 -306.269 268.33 -307.438 268.5 C-314.924 269.35 -322.478 269.072 -330 269 C-330.99 269 -331.98 269 -333 269 C-335.674 268.714 -338.334 268.35 -341 268 C-341.33 268.66 -341.66 269.32 -342 270 C-342.93 269.754 -342.93 269.754 -343.879 269.504 C-348.244 268.799 -352.524 268.898 -356.938 268.938 C-358.374 268.943 -358.374 268.943 -359.84 268.949 C-362.893 268.961 -365.947 268.98 -369 269 C-373.021 269.027 -377.042 269.047 -381.062 269.062 C-382.444 269.075 -382.444 269.075 -383.853 269.088 C-388.036 269.104 -391.923 269.076 -396 268 C-396.33 268.66 -396.66 269.32 -397 270 C-401.578 270.078 -405.516 269.897 -410 269 C-415.148 268.621 -415.148 268.621 -420 270 C-420.66 269.67 -421.32 269.34 -422 269 C-422.33 269.66 -422.66 270.32 -423 271 C-423 270.34 -423 269.68 -423 269 C-441.741 268.953 -460.481 268.918 -479.222 268.896 C-487.923 268.886 -496.625 268.872 -505.326 268.849 C-512.907 268.829 -520.489 268.816 -528.071 268.812 C-532.088 268.809 -536.104 268.803 -540.12 268.789 C-543.898 268.775 -547.675 268.771 -551.452 268.774 C-552.841 268.773 -554.23 268.769 -555.62 268.762 C-557.511 268.752 -559.402 268.755 -561.293 268.759 C-562.353 268.758 -563.413 268.756 -564.505 268.754 C-567.174 268.751 -567.174 268.751 -569 271 C-569 270.34 -569 269.68 -569 269 C-572.958 268.971 -576.917 268.953 -580.875 268.938 C-582.003 268.929 -583.131 268.921 -584.293 268.912 C-585.908 268.907 -585.908 268.907 -587.555 268.902 C-588.55 268.897 -589.545 268.892 -590.57 268.886 C-593.01 268.836 -593.01 268.836 -595 270 C-597.581 269.826 -600.122 269.484 -602.688 269.156 C-605.026 268.802 -605.026 268.802 -607 270 C-608.82 269.76 -610.64 269.515 -612.457 269.254 C-615.488 268.951 -618.455 268.968 -621.5 269 C-626.452 269.046 -631.112 268.767 -636 268 C-636.33 268.66 -636.66 269.32 -637 270 C-637.99 269.67 -638.98 269.34 -640 269 C-642.041 268.905 -644.085 268.869 -646.129 268.867 C-647.928 268.865 -647.928 268.865 -649.764 268.863 C-651.017 268.867 -652.271 268.871 -653.562 268.875 C-655.449 268.869 -655.449 268.869 -657.373 268.863 C-658.571 268.865 -659.769 268.866 -661.004 268.867 C-662.105 268.868 -663.207 268.869 -664.342 268.871 C-666.976 268.82 -666.976 268.82 -669 270 C-669 269.34 -669 268.68 -669 268 C-669.999 268.107 -669.999 268.107 -671.019 268.217 C-680.112 269.092 -689.126 269.115 -698.25 269.062 C-699.785 269.057 -701.32 269.053 -702.855 269.049 C-706.57 269.038 -710.285 269.021 -714 269 C-714.33 269.66 -714.66 270.32 -715 271 C-715 270.34 -715 269.68 -715 269 C-721.799 268.975 -728.599 268.957 -735.398 268.945 C-737.712 268.94 -740.027 268.933 -742.341 268.925 C-745.662 268.912 -748.984 268.907 -752.305 268.902 C-753.344 268.897 -754.384 268.892 -755.455 268.887 C-756.416 268.887 -757.377 268.887 -758.367 268.886 C-759.215 268.884 -760.063 268.882 -760.937 268.88 C-763.064 268.868 -763.064 268.868 -765 270 C-765 269.34 -765 268.68 -765 268 C-765.631 268.072 -766.262 268.144 -766.912 268.219 C-774.65 269.022 -782.289 269.084 -790.062 269 C-792.47 268.975 -794.878 268.954 -797.285 268.938 C-798.336 268.926 -799.386 268.914 -800.469 268.902 C-802.995 268.826 -802.995 268.826 -805 270 C-806.516 269.913 -808.028 269.759 -809.535 269.569 C-814.53 269.011 -819.419 268.87 -824.441 268.902 C-825.325 268.904 -826.21 268.905 -827.121 268.907 C-829.02 268.911 -830.919 268.917 -832.818 268.925 C-835.824 268.938 -838.829 268.944 -841.834 268.949 C-848.202 268.96 -854.57 268.98 -860.938 269 C-868.344 269.024 -875.75 269.044 -883.156 269.056 C-886.118 269.062 -889.08 269.075 -892.042 269.088 C-893.85 269.091 -895.657 269.095 -897.465 269.098 C-898.289 269.103 -899.113 269.108 -899.963 269.113 C-903.239 269.114 -905.87 269.043 -909 268 C-909.047 250.207 -909.082 232.413 -909.104 214.62 C-909.114 206.358 -909.128 198.096 -909.151 189.834 C-909.171 182.634 -909.184 175.434 -909.188 168.234 C-909.191 164.421 -909.197 160.608 -909.211 156.795 C-909.225 153.206 -909.229 149.618 -909.226 146.029 C-909.227 144.084 -909.238 142.138 -909.249 140.192 C-909.246 139.034 -909.243 137.875 -909.241 136.682 C-909.242 135.675 -909.244 134.669 -909.246 133.632 C-909 131 -909 131 -907 127 C-907 173.2 -907 219.4 -907 267 C-607.69 267 -308.38 267 0 267 C0 178.89 0 90.78 0 0 Z " fill="#0061A1" transform="translate(965,696)"/>
<path d="M0 0 C0.33 0 0.66 0 1 0 C1 59.73 1 119.46 1 181 C-295.34 181 -591.68 181 -897 181 C-897 23 -897 23 -896 16 C-895.67 16 -895.34 16 -895 16 C-895 69.79 -895 123.58 -895 179 C-880.252 180.029 -880.252 180.029 -866 178 C-866 178.66 -866 179.32 -866 180 C-865.273 179.97 -864.546 179.939 -863.796 179.908 C-841.588 179.036 -819.386 178.914 -797.164 178.938 C-796.064 178.939 -796.064 178.939 -794.942 178.94 C-783.503 178.951 -772.064 178.975 -760.625 179 C-750.557 179.022 -740.488 179.043 -730.42 179.053 C-726.086 179.058 -721.753 179.068 -717.419 179.082 C-715.386 179.088 -713.353 179.091 -711.32 179.093 C-708.851 179.096 -706.383 179.103 -703.914 179.113 C-702.276 179.113 -702.276 179.113 -700.604 179.114 C-699.661 179.116 -698.718 179.118 -697.746 179.12 C-694.896 179.054 -694.896 179.054 -691.712 178.43 C-690.817 178.288 -689.922 178.146 -689 178 C-688.67 178.33 -688.34 178.66 -688 179 C-686.109 179.099 -684.213 179.126 -682.319 179.127 C-681.085 179.13 -679.851 179.133 -678.58 179.136 C-677.2 179.134 -675.82 179.132 -674.44 179.129 C-672.996 179.131 -671.553 179.133 -670.109 179.135 C-666.177 179.139 -662.246 179.137 -658.314 179.134 C-654.206 179.132 -650.098 179.134 -645.99 179.136 C-639.088 179.138 -632.186 179.135 -625.284 179.13 C-617.299 179.125 -609.314 179.127 -601.33 179.132 C-594.483 179.137 -587.636 179.137 -580.789 179.135 C-576.696 179.133 -572.603 179.133 -568.51 179.136 C-564.661 179.139 -560.812 179.137 -556.962 179.131 C-555.547 179.13 -554.133 179.13 -552.718 179.133 C-550.79 179.135 -548.863 179.131 -546.935 179.127 C-545.855 179.127 -544.775 179.126 -543.662 179.126 C-540.895 179.116 -540.895 179.116 -538 178 C-538 178.66 -538 179.32 -538 180 C-537.031 179.835 -536.061 179.67 -535.062 179.5 C-524.125 177.938 -524.125 177.938 -520 180 C-519.67 179.34 -519.34 178.68 -519 178 C-519 178.66 -519 179.32 -519 180 C-518.278 179.835 -517.556 179.67 -516.812 179.5 C-514.123 179.022 -511.723 178.928 -509 179 C-504.942 179 -500.885 178.996 -496.827 178.993 C-470.203 178.974 -443.58 178.958 -416.956 178.949 C-413.47 178.948 -409.985 178.946 -406.5 178.945 C-405.806 178.945 -405.112 178.945 -404.398 178.944 C-393.153 178.94 -381.908 178.932 -370.663 178.923 C-359.12 178.913 -347.576 178.908 -336.033 178.906 C-329.551 178.905 -323.069 178.902 -316.588 178.894 C-310.492 178.887 -304.397 178.885 -298.302 178.887 C-296.063 178.887 -293.823 178.885 -291.584 178.881 C-288.532 178.876 -285.479 178.877 -282.427 178.88 C-281.537 178.877 -280.647 178.874 -279.73 178.871 C-275.686 178.881 -271.945 178.983 -268 180 C-267.67 179.34 -267.34 178.68 -267 178 C-266.67 178.33 -266.34 178.66 -266 179 C-262.841 179.09 -259.705 179.115 -256.546 179.098 C-255.552 179.096 -254.559 179.095 -253.535 179.093 C-251.367 179.089 -249.199 179.083 -247.031 179.075 C-243.591 179.062 -240.152 179.056 -236.712 179.051 C-228.156 179.038 -219.601 179.014 -211.045 178.99 C-203.837 178.97 -196.629 178.954 -189.421 178.944 C-186.049 178.938 -182.676 178.925 -179.304 178.912 C-169.154 178.889 -159.103 178.906 -149 180 C-148.67 179.34 -148.34 178.68 -148 178 C-148 178.66 -148 179.32 -148 180 C-146.782 179.835 -145.564 179.67 -144.309 179.5 C-138.226 178.823 -132.175 178.929 -126.062 179 C-123.824 179.025 -121.586 179.046 -119.348 179.062 C-118.368 179.074 -117.388 179.086 -116.379 179.098 C-113.983 179.162 -113.983 179.162 -112 178 C-112 178.66 -112 179.32 -112 180 C-110.821 179.928 -109.641 179.856 -108.426 179.781 C-97.615 179.168 -86.828 178.892 -76 178.875 C-74.809 178.87 -73.619 178.866 -72.392 178.861 C-64.552 178.874 -56.807 179.288 -49 180 C-48.67 179.34 -48.34 178.68 -48 178 C-48 178.66 -48 179.32 -48 180 C-45.36 179.67 -42.72 179.34 -40 179 C-27.46 179 -14.92 179 -2 179 C-2 121.58 -2 64.16 -2 5 C-1.34 5 -0.68 5 0 5 C0 3.35 0 1.7 0 0 Z " fill="#0055A3" transform="translate(960,777)"/>
<path d="M0 0 C0.33 0 0.66 0 1 0 C1 85.47 1 170.94 1 259 C-297.32 259 -595.64 259 -903 259 C-903 223.36 -903 187.72 -903 151 C-902.67 151 -902.34 151 -902 151 C-901.67 186.31 -901.34 221.62 -901 258 C-604.33 257.67 -307.66 257.34 -2 257 C-1.67 178.13 -1.34 99.26 -1 18 C-0.67 12.06 -0.34 6.12 0 0 Z " fill="#7CF347" transform="translate(963,702)"/>
<path d="M0 0 C2.102 4.204 2.27 7.088 2.188 11.625 C2.187 12.306 2.186 12.986 2.186 13.688 C2.141 18.718 2.141 18.718 1 21 C1.66 21.33 2.32 21.66 3 22 C2.67 22.66 2.34 23.32 2 24 C2.165 24.99 2.33 25.98 2.5 27 C3 30 3 30 2 32 C2.324 33.336 2.657 34.669 3 36 C2.505 36.495 2.505 36.495 2 37 C1.899 39.704 1.86 42.382 1.867 45.086 C1.866 45.899 1.865 46.711 1.864 47.549 C1.864 49.272 1.865 50.995 1.87 52.719 C1.875 55.357 1.87 57.995 1.863 60.633 C1.864 62.305 1.865 63.977 1.867 65.648 C1.865 66.439 1.863 67.23 1.861 68.045 C1.875 71.289 1.967 73.9 3 77 C2.835 77.639 2.67 78.279 2.5 78.938 C1.822 80.987 1.822 80.987 2.562 82.938 C3.165 85.776 2.213 87.432 1 90 C1.66 90.33 2.32 90.66 3 91 C2.34 91 1.68 91 1 91 C1 91.66 1 92.32 1 93 C1.66 93.33 2.32 93.66 3 94 C2.835 94.633 2.67 95.266 2.5 95.918 C1.698 100.86 1.96 105.793 2.039 110.787 C2.089 115.964 1.755 120.876 1 126 C1.66 126.33 2.32 126.66 3 127 C3.126 131.532 3.126 131.532 2.504 133.844 C1.914 136.368 1.87 138.654 1.867 141.246 C1.866 142.248 1.865 143.251 1.863 144.283 C1.867 145.324 1.871 146.365 1.875 147.438 C1.871 148.475 1.867 149.512 1.863 150.58 C1.865 152.085 1.865 152.085 1.867 153.621 C1.868 154.533 1.869 155.445 1.871 156.385 C1.934 159.019 1.934 159.019 2.54 161.625 C3 164 3 164 2.5 167.375 C1.839 170.909 1.839 170.909 2.461 174.07 C3.125 178.909 3.146 183.623 3.125 188.5 C3.129 189.411 3.133 190.323 3.137 191.262 C3.135 192.602 3.135 192.602 3.133 193.969 C3.132 194.767 3.131 195.566 3.129 196.389 C3 199 3 199 2.501 202.188 C1.994 206.043 1.869 209.72 1.861 213.608 C1.858 214.345 1.856 215.083 1.853 215.843 C1.844 218.309 1.843 220.776 1.842 223.242 C1.837 225.03 1.832 226.818 1.827 228.606 C1.813 233.516 1.806 238.425 1.799 243.335 C1.791 248.631 1.778 253.927 1.765 259.222 C1.743 268.396 1.725 277.571 1.709 286.745 C1.686 300.009 1.658 313.273 1.629 326.538 C1.581 348.058 1.538 369.578 1.497 391.098 C1.458 412.004 1.417 432.909 1.372 453.814 C1.37 455.103 1.367 456.391 1.364 457.719 C1.35 464.183 1.337 470.647 1.323 477.112 C1.209 530.741 1.102 584.371 1 638 C0.67 638 0.34 638 0 638 C0 427.46 0 216.92 0 0 Z " fill="#064453" transform="translate(965,58)"/>
<path d="M0 0 C0.33 0 0.66 0 1 0 C1.023 34.428 1.041 68.856 1.051 103.283 C1.052 107.395 1.054 111.507 1.055 115.619 C1.055 116.437 1.055 117.255 1.056 118.098 C1.059 129.549 1.066 141 1.074 152.451 C1.088 172.174 1.097 191.898 1.098 211.621 C1.098 212.386 1.098 213.151 1.098 213.939 C1.099 260.298 0.968 306.649 0 353 C-0.33 353 -0.66 353 -1 353 C-1.132 332.969 -1.262 312.939 -1.391 292.908 C-1.451 283.603 -1.511 274.299 -1.573 264.994 C-1.626 256.867 -1.679 248.74 -1.731 240.612 C-1.758 236.325 -1.786 232.037 -1.815 227.75 C-2.036 194.553 -2.033 161.361 -1.816 128.164 C-1.807 126.625 -1.797 125.086 -1.787 123.547 C-1.74 116.332 -1.693 109.117 -1.644 101.902 C-1.589 93.684 -1.537 85.466 -1.488 77.247 C-1.449 70.804 -1.408 64.361 -1.363 57.917 C-1.337 54.106 -1.312 50.295 -1.291 46.483 C-1.204 30.967 -1.06 15.486 0 0 Z " fill="#000B58" transform="translate(960,244)"/>
<path d="M0 0 C0.33 0 0.66 0 1 0 C1.01 0.85 1.021 1.699 1.031 2.575 C1.129 10.565 1.232 18.556 1.339 26.546 C1.395 30.655 1.448 34.763 1.497 38.872 C1.545 42.834 1.597 46.795 1.653 50.757 C1.673 52.271 1.692 53.786 1.709 55.301 C1.733 57.415 1.763 59.53 1.795 61.644 C1.81 62.85 1.826 64.056 1.842 65.298 C1.695 67.916 1.695 67.916 3 69 C3.107 71.533 3.148 74.039 3.147 76.572 C3.151 77.375 3.155 78.177 3.158 79.004 C3.169 81.714 3.173 84.424 3.177 87.134 C3.183 89.069 3.19 91.003 3.197 92.938 C3.214 98.208 3.225 103.479 3.233 108.75 C3.238 112.039 3.244 115.329 3.251 118.619 C3.27 128.903 3.284 139.186 3.292 149.47 C3.302 161.358 3.328 173.246 3.369 185.134 C3.399 194.311 3.414 203.488 3.417 212.665 C3.419 218.151 3.428 223.638 3.453 229.124 C3.477 234.284 3.481 239.444 3.471 244.605 C3.47 246.501 3.477 248.397 3.49 250.294 C3.508 252.878 3.501 255.462 3.488 258.047 C3.499 258.801 3.51 259.555 3.521 260.332 C3.477 263.919 3.269 265.67 0.97 268.497 C-0.005 269.241 -0.005 269.241 -1 270 C-2.32 269.34 -3.64 268.68 -5 268 C-3.35 268 -1.7 268 0 268 C0 179.56 0 91.12 0 0 Z " fill="#046783" transform="translate(965,696)"/>
<path d="M0 0 C0.33 0 0.66 0 1 0 C1 59.73 1 119.46 1 181 C-2 178 -2 178 -2.369 174.929 C-2.366 173.656 -2.364 172.383 -2.361 171.071 C-2.363 170.362 -2.366 169.653 -2.369 168.923 C-2.373 166.541 -2.357 164.16 -2.341 161.779 C-2.34 160.074 -2.34 158.369 -2.342 156.664 C-2.343 152.03 -2.325 147.396 -2.304 142.762 C-2.285 137.921 -2.284 133.081 -2.28 128.24 C-2.271 119.071 -2.246 109.902 -2.216 100.733 C-2.183 90.295 -2.166 79.858 -2.151 69.42 C-2.12 47.947 -2.067 26.473 -2 5 C-1.34 5 -0.68 5 0 5 C0 3.35 0 1.7 0 0 Z " fill="#004C87" transform="translate(960,777)"/>
<path d="M0 0 C2.102 4.204 2.27 7.088 2.188 11.625 C2.187 12.306 2.186 12.986 2.186 13.688 C2.141 18.718 2.141 18.718 1 21 C1.66 21.33 2.32 21.66 3 22 C2.67 22.66 2.34 23.32 2 24 C2.165 24.99 2.33 25.98 2.5 27 C3 30 3 30 2 32 C2.324 33.336 2.657 34.669 3 36 C2.505 36.495 2.505 36.495 2 37 C1.899 39.704 1.86 42.382 1.867 45.086 C1.866 45.899 1.865 46.711 1.864 47.549 C1.864 49.272 1.865 50.995 1.87 52.719 C1.875 55.357 1.87 57.995 1.863 60.633 C1.864 62.305 1.865 63.977 1.867 65.648 C1.865 66.439 1.863 67.23 1.861 68.045 C1.875 71.289 1.967 73.9 3 77 C2.835 77.639 2.67 78.279 2.5 78.938 C1.822 80.987 1.822 80.987 2.562 82.938 C3.165 85.776 2.213 87.432 1 90 C1.66 90.33 2.32 90.66 3 91 C2.34 91 1.68 91 1 91 C1 91.66 1 92.32 1 93 C1.66 93.33 2.32 93.66 3 94 C2.835 94.633 2.67 95.266 2.5 95.918 C1.698 100.86 1.96 105.793 2.039 110.787 C2.089 115.964 1.755 120.876 1 126 C1.66 126.33 2.32 126.66 3 127 C3.126 131.532 3.126 131.532 2.504 133.844 C1.914 136.368 1.87 138.654 1.867 141.246 C1.866 142.248 1.865 143.251 1.863 144.283 C1.867 145.324 1.871 146.365 1.875 147.438 C1.871 148.475 1.867 149.512 1.863 150.58 C1.865 152.085 1.865 152.085 1.867 153.621 C1.868 154.533 1.869 155.445 1.871 156.385 C1.934 159.019 1.934 159.019 2.54 161.625 C3 164 3 164 2.5 167.375 C1.839 170.909 1.839 170.909 2.461 174.07 C3.125 178.909 3.146 183.623 3.125 188.5 C3.129 189.411 3.133 190.323 3.137 191.262 C3.129 196.283 2.856 201.052 2 206 C1.34 206 0.68 206 0 206 C0 138.02 0 70.04 0 0 Z " fill="#061C42" transform="translate(965,58)"/>
<path d="M0 0 C0.33 0 0.66 0 1 0 C1.023 17.907 1.041 35.813 1.052 53.72 C1.057 62.034 1.064 70.349 1.075 78.663 C1.085 85.91 1.092 93.156 1.094 100.403 C1.095 104.24 1.098 108.077 1.106 111.914 C1.113 115.527 1.115 119.139 1.113 122.751 C1.114 124.707 1.119 126.664 1.124 128.62 C1.123 129.788 1.122 130.956 1.12 132.16 C1.121 133.173 1.122 134.186 1.123 135.23 C1.003 137.921 0.605 140.378 0 143 C-0.33 143 -0.66 143 -1 143 C-1.761 131.879 -2.14 120.831 -2.098 109.684 C-2.096 108.206 -2.094 106.728 -2.093 105.25 C-2.09 101.425 -2.08 97.599 -2.069 93.774 C-2.058 89.845 -2.054 85.916 -2.049 81.986 C-2.038 74.324 -2.021 66.662 -2 59 C-1.67 59 -1.34 59 -1 59 C-0.67 39.53 -0.34 20.06 0 0 Z " fill="#003C7A" transform="translate(960,639)"/>
<path d="M0 0 C0.33 0 0.66 0 1 0 C1 28.05 1 56.1 1 85 C-2 82 -2 82 -2.374 79.644 C-2.374 78.713 -2.373 77.782 -2.372 76.824 C-2.379 75.763 -2.385 74.703 -2.391 73.611 C-2.382 72.458 -2.373 71.305 -2.363 70.117 C-2.364 68.916 -2.364 67.714 -2.365 66.476 C-2.362 63.915 -2.353 61.355 -2.336 58.794 C-2.313 54.967 -2.316 51.14 -2.322 47.312 C-2.303 31.455 -1.548 15.781 0 0 Z " fill="#006996" transform="translate(960,873)"/>
<path d="M0 0 C0.33 0 0.66 0 1 0 C1.025 4.586 1.043 9.171 1.055 13.757 C1.06 15.311 1.067 16.864 1.075 18.417 C1.13 28.335 0.88 38.113 0 48 C-0.33 48 -0.66 48 -1 48 C-2.123 31.79 -2.592 16.104 0 0 Z " fill="#005A8E" transform="translate(960,839)"/>
  </g>
  <g id="text-layer">
    <defs>
    <style type="text/css">
      .heavy { font: bold 120px sans-serif; fill: #ffffff; }
      .light { font: bold 60px sans-serif; fill: #ffffff; }
    </style>
  </defs>
  <text x="50%" y="40%" text-anchor="middle" class="heavy">COMING</text>
  <text x="50%" y="60%" text-anchor="middle" class="heavy">SOON</text>
  <text x="50%" y="75%" text-anchor="middle" class="light">COMING SOON</text>
  </g>
</svg>