<svg xmlns="http://www.w3.org/2000/svg" viewBox="0 0 1080 1080" width="1080" height="1080">
  <g id="background-layer">
    <image href="http://localhost:5000/static/images/sessions/bg_20250625_165341_bcf72a48/background_20250625_165341_d4abb9cb.png" x="0" y="0" width="1080" height="1080"/>
  </g>
  <g id="elements-layer" opacity="0.9" fill-opacity="1" stroke="none" style="mix-blend-mode: normal;">
    <path d="M0 0 C337.92 0 675.84 0 1024 0 C1024 337.92 1024 675.84 1024 1024 C686.08 1024 348.16 1024 0 1024 C0 686.08 0 348.16 0 0 Z" fill="#030118"/>
    <path d="M159.277 51.922 C152.125 60.989 151.564 68.418 151.625 79.747 C151.622 81.271 151.618 82.796 151.613 84.32 C151.602 88.52 151.61 92.721 151.621 96.921 C151.629 101.486 151.62 106.051 151.614 110.617 C151.604 118.622 151.606 126.626 151.615 134.631 C151.629 146.535 151.626 158.438 151.619 170.341 C151.607 191.598 151.612 212.854 151.624 234.11 C151.634 252.711 151.639 271.311 151.637 289.911 C151.637 291.144 151.637 292.377 151.637 293.647 C151.637 298.65 151.637 303.653 151.636 308.657 C151.632 354.943 151.644 401.228 151.665 447.514 C151.683 489.929 151.69 532.344 151.684 574.758 C151.684 577.439 151.684 580.119 151.683 582.8 C151.683 583.463 151.683 584.126 151.683 584.808 C151.682 592.148 151.681 599.488 151.68 606.827 C151.68 608.143 151.68 609.459 151.68 610.815 C151.676 645.668 151.681 680.522 151.69 715.375 C151.691 719.124 151.692 722.873 151.693 726.621 C151.693 729.108 151.694 731.595 151.694 734.082 C151.699 751.442 151.699 768.802 151.697 786.161 C151.695 808.528 151.699 830.894 151.714 853.26 C151.723 865.097 151.725 876.933 151.72 888.77 C151.717 896.666 151.721 904.562 151.731 912.459 C151.737 916.964 151.739 921.47 151.733 925.976 C151.728 930.07 151.731 934.164 151.742 938.258 C151.744 939.734 151.743 941.211 151.738 942.687 C151.733 944.685 151.74 946.683 151.748 948.68 C151.749 949.789 151.749 950.897 151.749 952.039 C152.452 960.342 158.493 968.042 164.562 973.438 C173.594 980.546 183.342 981.301 194.462 981.257 C195.592 981.261 196.722 981.264 197.886 981.268 C201.676 981.277 205.465 981.272 209.254 981.267 C211.997 981.27 214.74 981.276 217.483 981.281 C223.448 981.291 229.414 981.294 235.379 981.292 C244.25 981.289 253.121 981.298 261.993 981.308 C278.758 981.327 295.523 981.333 312.289 981.334 C325.235 981.335 338.181 981.339 351.127 981.346 C354.853 981.347 358.58 981.349 362.306 981.351 C363.696 981.352 363.696 981.352 365.114 981.352 C391.171 981.365 417.228 981.372 443.285 981.372 C444.267 981.371 445.25 981.371 446.262 981.371 C451.241 981.371 456.219 981.371 461.198 981.371 C462.682 981.371 462.682 981.371 464.195 981.371 C466.194 981.371 468.194 981.371 470.194 981.37 C501.311 981.369 532.428 981.384 563.546 981.412 C598.505 981.442 633.465 981.46 668.424 981.458 C672.151 981.458 675.879 981.457 679.606 981.457 C680.523 981.457 681.441 981.457 682.387 981.457 C697.158 981.457 711.93 981.47 726.701 981.487 C741.544 981.504 756.387 981.506 771.23 981.493 C780.048 981.486 788.866 981.489 797.685 981.509 C803.576 981.521 809.468 981.518 815.36 981.504 C818.716 981.496 822.071 981.497 825.427 981.511 C829.047 981.525 832.666 981.514 836.286 981.498 C837.321 981.508 838.357 981.518 839.424 981.528 C848.708 981.437 857.628 979.258 864.504 972.695 C873.123 962.929 873.296 952.71 873.257 940.191 C873.26 938.672 873.264 937.153 873.268 935.634 C873.277 931.454 873.274 927.273 873.269 923.093 C873.266 918.547 873.274 914.002 873.281 909.456 C873.291 901.487 873.294 893.518 873.292 885.549 C873.289 873.699 873.298 861.849 873.308 849.999 C873.327 827.604 873.333 805.21 873.334 782.816 C873.335 765.526 873.339 748.235 873.346 730.945 C873.347 725.971 873.349 720.996 873.351 716.022 C873.351 714.785 873.352 713.549 873.352 712.275 C873.365 677.486 873.372 642.698 873.372 607.91 C873.371 606.598 873.371 605.286 873.371 603.934 C873.371 597.285 873.371 590.635 873.371 583.986 C873.371 581.984 873.371 579.983 873.371 577.981 C873.371 576.646 873.371 575.311 873.371 573.975 C873.369 531.744 873.384 489.513 873.412 447.282 C873.442 400.604 873.46 353.926 873.458 307.248 C873.458 302.273 873.457 297.298 873.457 292.323 C873.457 291.098 873.457 289.873 873.457 288.611 C873.457 268.878 873.47 249.146 873.487 229.413 C873.504 209.591 873.506 189.769 873.493 169.946 C873.486 158.164 873.489 146.382 873.509 134.599 C873.521 126.733 873.518 118.867 873.504 111.001 C873.496 106.516 873.495 102.032 873.511 97.547 C873.525 93.466 873.522 89.386 873.503 85.305 C873.5 83.839 873.503 82.373 873.514 80.907 C873.59 69.841 871.987 60.783 864.977 51.957 C858.553 45.597 851.359 40.878 842.231 40.872 C841.268 40.869 840.304 40.866 839.31 40.863 C838.252 40.865 837.194 40.867 836.103 40.869 C834.409 40.865 834.409 40.865 832.681 40.862 C828.863 40.857 825.045 40.858 821.226 40.86 C818.475 40.858 815.723 40.854 812.971 40.851 C806.18 40.843 799.389 40.841 792.598 40.84 C784.467 40.839 776.335 40.833 768.203 40.826 C748.548 40.81 728.892 40.804 709.236 40.799 C699.94 40.797 690.643 40.793 681.347 40.789 C649.531 40.777 617.716 40.766 585.9 40.762 C583.903 40.762 581.905 40.762 579.907 40.762 C577.905 40.762 575.902 40.761 573.9 40.761 C569.882 40.761 565.865 40.76 561.847 40.76 C560.851 40.76 559.855 40.76 558.829 40.759 C526.526 40.756 494.223 40.74 461.921 40.717 C427.778 40.692 393.635 40.678 359.492 40.677 C355.745 40.677 351.998 40.677 348.251 40.676 C347.328 40.676 346.405 40.676 345.455 40.676 C330.598 40.675 315.742 40.664 300.885 40.65 C285.955 40.635 271.025 40.632 256.096 40.64 C247.224 40.644 238.352 40.641 229.48 40.625 C223.554 40.615 217.628 40.616 211.702 40.626 C208.325 40.632 204.949 40.631 201.572 40.62 C197.932 40.609 194.292 40.616 190.652 40.628 C189.607 40.62 188.563 40.613 187.487 40.605 C176.214 40.686 166.958 43.353 159.277 51.922 Z" fill="#010101"/>
    <!-- include remaining paths as needed from the element SVG, preserving all of them -->
  </g>
  <g id="text-layer">
    <svg width="1080" height="1080" viewBox="0 0 1080 1080" xmlns="http://www.w3.org/2000/svg" preserveAspectRatio="xMidYMid meet">
      <style>
        .text {
          fill: #f1f1f1;
          font-family: 'Arial Black', Arial, sans-serif;
          font-weight: 900;
          font-size: 200px;
          letter-spacing: -5px;
        }
      </style>
      <text x="50%" y="40%" class="text" dominant-baseline="middle" text-anchor="middle">COMING</text>
      <text x="50%" y="65%" class="text" dominant-baseline="middle" text-anchor="middle">SOON</text>
    </svg>
  </g>
</svg>