<svg xmlns="http://www.w3.org/2000/svg" width="1080" height="1080" viewBox="0 0 1080 1080" preserveAspectRatio="xMidYMid meet">
  <g id="background-layer" opacity="0.95">
    <image href="http://localhost:5000/static/images/sessions/bg_20250625_164407_681e1cf4/background_20250625_164407_92249637.png" x="0" y="0" width="1080" height="1080"/>
  </g>
  <g id="elements-layer" opacity="0.9">
    <path d="M0 0 C337.92 0 675.84 0 1024 0 C1024 337.92 1024 675.84 1024 1024 C686.08 1024 348.16 1024 0 1024 C0 686.08 0 348.16 0 0 Z " fill="#010102" transform="translate(0,0)"/>
    <path d="M0 0 C-0.278 0.553 -0.557 1.106 -0.844 1.676 C-1.648 3.292 -2.439 4.915 -3.219 6.543 C-3.642 7.416 -4.064 8.288 -4.5 9.188 C-4.923 10.068 -5.346 10.948 -5.781 11.855 C-7 14 -7 14 -9 15 C-9.33 15.99 -9.66 16.98 -10 18 C-11.979 19.364 -13.982 20.694 -16 22 C-16.742 22.743 -17.485 23.485 -18.25 24.25 C-18.827 24.827 -19.405 25.405 -20 26 C-20.66 26 -21.32 26 -22 26 C-22.247 26.557 -22.495 27.114 -22.75 27.688 C-25.39 32.571 -28.268 35.23 -33 38 C-34.71 39.622 -36.373 41.294 -38 43 C-38.498 43.465 -38.995 43.931 -39.508 44.41 C-42.733 47.449 -44.716 50.263 -46.82 54.211 C-49.199 57.819 -52.652 60.33 -56 63 C-56.665 63.574 -57.33 64.147 -58.016 64.738 C-62.689 68.593 -65.884 70.097 -72 70 C-74.546 69.227 -76.622 68.238 -79 67 C-76.515 55.465 -76.515 55.465 -71 51 C-69.701 49.701 -69.701 49.701 -68.375 48.375 C-67.591 47.591 -66.808 46.808 -66 46 C-65.505 45.464 -65.01 44.928 -64.5 44.375 C-63 43 -63 43 -60.688 41.625 C-58.476 40.288 -56.838 39.016 -54.938 37.312 C-52 35 -52 35 -48 35 C-47.67 33.68 -47.34 32.36 -47 31 C-46.34 31 -45.68 31 -45 31 C-45 30.34 -45 29.68 -45 29 C-44.34 29 -43.68 29 -43 29 C-43 28.34 -43 27.68 -43 27 C-42.34 27 -41.68 27 -41 27 C-41 26.34 -41 25.68 -41 25 C-39.907 24.567 -38.814 24.134 -37.688 23.688 C-35.449 22.741 -34.109 22.109 -32.375 20.375 C-30.459 18.459 -28.626 18.355 -26 18 C-26 17.34 -26 16.68 -26 16 C-23.353 14.539 -22.106 14 -19 14 C-18.567 12.298 -18.567 12.298 -18.125 10.562 C-17.754 9.387 -17.383 8.211 -17 7 C-16.34 6.67 -15.68 6.34 -15 6 C-14.01 6.495 -14.01 6.495 -13 7 C-13 6.01 -13 5.02 -13 4 C-9.535 3.505 -9.535 3.505 -6 3 C-6 2.34 -6 1.68 -6 1 C-3.924 0.447 -2.156 0 0 0 Z " fill="#270700" transform="translate(932,189)"/>
    <path d="M0 0 C0.33 0 0.66 0 1 0 C1.776 5.895 -0.447 11.341 -4 16 C-6.676 16.793 -6.676 16.793 -9 17 C-9.186 18.392 -9.186 18.392 -9.375 19.812 C-10 23 -10 23 -12 26 C-12.681 26.268 -13.361 26.536 -14.062 26.812 C-14.702 27.204 -15.341 27.596 -16 28 C-16.186 29.423 -16.186 29.423 -16.375 30.875 C-17 34 -17 34 -19.938 36.125 C-20.948 36.744 -21.959 37.363 -23 38 C-23.351 38.701 -23.701 39.403 -24.062 40.125 C-25 42 -25 42 -27.375 42.875 C-30.968 44.415 -31.898 46.751 -34 50 C-35.962 51.711 -37.963 53.379 -40 55 C-41.686 56.647 -43.356 58.311 -45 60 C-45.577 60.536 -46.155 61.072 -46.75 61.625 C-48.257 63.096 -48.257 63.096 -49 66 C-50.98 66 -52.96 66 -55 66 C-55.33 68.31 -55.66 70.62 -56 73 C-57.485 73.495 -57.485 73.495 -59 74 C-59 73.34 -59 72.68 -59 72 C-59.99 72.495 -59.99 72.495 -61 73 C-61.144 73.619 -61.289 74.238 -61.438 74.875 C-62.097 77.367 -63.083 78.333 -65 80 C-67 78.812 -67 78.812 -69 77 C-69.25 74.312 -69.25 74.312 -69 72 C-68.34 72 -67.68 72 -67 72 C-67 71.01 -67 70.02 -67 69 C-66.34 69 -65.68 69 -65 69 C-64.34 67.35 -63.68 65.7 -63 64 C-62.01 64 -61.02 64 -60 64 C-60 63.34 -60 62.68 -60 62 C-60.66 62 -61.32 62 -62 62 C-61.67 60.68 -61.34 59.36 -61 58 C-60.67 58.99 -60.34 59.98 -60 61 C-59.34 61 -58.68 61 -58 61 C-57.876 59.917 -57.876 59.917 -57.75 58.812 C-56.852 55.447 -55.289 53.584 -53 51 C-51.68 51.33 -50.36 51.66 -49 52 C-49 51.34 -49 50.68 -49 50 C-47.68 50 -46.36 50 -45 50 C-44.798 49.469 -44.595 48.938 -44.387 48.391 C-42.395 44.958 -39.655 42.491 -36.812 39.75 C-32.556 35.577 -28.466 31.371 -24.605 26.824 C-22.817 24.792 -20.929 22.899 -19 21 C-15.119 17.171 -11.554 13.131 -8 9 C-6.546 7.33 -5.088 5.663 -3.625 4 C-2.957 3.237 -2.29 2.474 -1.602 1.688 C-1.073 1.131 -0.545 0.574 0 0 Z " fill="#290B05" transform="translate(849,118)"/>
    <path d="M0 0 C0.66 0.33 1.32 0.66 2 1 C1.59 1.543 1.18 2.085 0.758 2.645 C0.219 3.36 -0.32 4.075 -0.875 4.812 C-1.409 5.52 -1.942 6.228 -2.492 6.957 C-3.708 8.605 -4.864 10.296 -6 12 C-10.502 17.145 -16.577 19.221 -23 21 C-23.66 21 -24.32 21 -25 21 C-25 21.66 -25 22.32 -25 23 C-25.66 23 -26.32 23 -27 23 C-27 23.66 -27 24.32 -27 25 C-27.66 25 -28.32 25 -29 25 C-29 25.66 -29 26.32 -29 27 C-29.71 27.121 -30.421 27.242 -31.152 27.367 C-32.071 27.535 -32.991 27.702 -33.938 27.875 C-35.312 28.119 -35.312 28.119 -36.715 28.367 C-37.469 28.576 -38.223 28.785 -39 29 C-39.33 29.66 -39.66 30.32 -40 31 C-40.66 30.67 -41.32 30.34 -42 30 C-42 29.01 -42 28.02 -42 27 C-39.598 25.207 -37.234 23.627 -34.688 22.062 C-33.934 21.587 -33.18 21.112 -32.403 20.623 C-30.786 19.605 -29.165 18.591 -27.542 17.582 C-24.118 15.451 -20.71 13.293 -17.302 11.136 C-15.677 10.109 -14.051 9.084 -12.423 8.061 C-8.24 5.432 -4.095 2.763 0 0 Z " fill="#360A01" transform="translate(932,189)"/>
    <path d="M0 0 C-2.745 2.97 -5.263 4.876 -8.887 6.656 C-9.826 7.122 -10.765 7.587 -11.732 8.066 C-13.195 8.776 -13.195 8.776 -14.688 9.5 C-15.643 9.973 -16.599 10.446 -17.584 10.934 C-23.331 13.762 -29.124 16.452 -35 19 C-36.098 19.478 -37.197 19.956 -38.328 20.449 C-39.292 20.858 -40.257 21.266 -41.25 21.688 C-42.225 22.104 -43.199 22.52 -44.203 22.949 C-46.81 23.929 -49.258 24.545 -52 25 C-52.33 23.68 -52.66 22.36 -53 21 C-39.483 14 -39.483 14 -35 14 C-35 13.34 -35 12.68 -35 12 C-33.77 11.602 -33.77 11.602 -32.516 11.195 C-31.438 10.842 -30.36 10.489 -29.25 10.125 C-28.183 9.777 -27.115 9.429 -26.016 9.07 C-23.085 8.106 -23.085 8.106 -20.797 6.867 C-19 6 -19 6 -16 6 C-16 5.34 -16 4.68 -16 4 C-14.68 3.67 -13.36 3.34 -12 3 C-12 2.34 -12 1.68 -12 1 C-7.936 0.226 -4.136 -0.098 0 0 Z " fill="#551202" transform="translate(893,71)"/>
    <path d="M0 0 C0.66 0.33 1.32 0.66 2 1 C-9.527 11.624 -9.527 11.624 -14 15.5 C-26.704 26.554 -39.167 38.079 -50 51 C-51.145 52.334 -52.291 53.667 -53.438 55 C-54.283 55.99 -55.129 56.98 -56 58 C-57.108 54.677 -56.933 53.308 -56 50 C-55.34 49.34 -54.68 48.68 -54 48 C-51.745 44.872 -50.009 42.023 -48.562 38.438 C-46.869 34.712 -44.98 32.756 -42 30 C-41.546 29.319 -41.093 28.639 -40.625 27.938 C-38.949 25.939 -37.71 25.204 -35.438 24 C-31.974 22.408 -31.974 22.408 -31.016 20.012 C-29.777 17.558 -28.762 16.991 -26.312 15.812 C-25.348 15.327 -25.348 15.327 -24.363 14.832 C-22 14 -22 14 -18.621 13.727 C-13.979 12.795 -11.993 10.852 -8.75 7.562 C-3.165 2.11 -3.165 2.11 0 0 Z " fill="#2A0601" transform="translate(255,753)"/>
    <path d="M0 0 C1.289 1.715 1.289 1.715 2.625 3.938 C5.606 8.602 9.059 12.564 12.809 16.625 C15.627 19.679 18.313 22.83 21 26 C20 28 20 28 16.938 29.562 C13 30 13 30 10.863 28.672 C8.804 26.86 6.887 24.99 5 23 C3.23 21.151 2.032 20.017 -0.25 18.812 C-4.82 15.801 -9.212 11.702 -10.773 6.348 C-11 4 -11 4 -9.875 2.312 C-6.367 -0.143 -4.166 -1.389 0 0 Z " fill="#282C30" transform="translate(107,87)"/>
    <path d="M0 0 C0.33 0 0.66 0 1 0 C1.776 5.895 -0.447 11.341 -4 16 C-6.676 16.793 -6.676 16.793 -9 17 C-9.186 18.392 -9.186 18.392 -9.375 19.812 C-10 23 -10 23 -12 26 C-12.681 26.268 -13.361 26.536 -14.062 26.812 C-14.702 27.204 -15.341 27.596 -16 28 C-16.186 29.423 -16.186 29.423 -16.375 30.875 C-17 34 -17 34 -19.938 36.125 C-20.948 36.744 -21.959 37.363 -23 38 C-23.351 38.701 -23.701 39.403 -24.062 40.125 C-25 42 -25 42 -27.375 42.875 C-30.968 44.415 -31.898 46.751 -34 50 C-35.962 51.711 -37.963 53.379 -40 55 C-41.686 56.647 -43.356 58.311 -45 60 C-45.577 60.536 -46.155 61.072 -46.75 61.625 C-48.257 63.096 -48.257 63.096 -49 66 C-50.98 66 -52.96 66 -55 66 C-55.33 68.31 -55.66 70.62 -56 73 C-57.485 73.495 -57.485 73.495 -59 74 C-59 73.34 -59 72.68 -59 72 C-59.99 72.495 -59.99 72.495 -61 73 C-61.144 73.619 -61.289 74.238 -61.438 74.875 C-62.097 77.367 -63.083 78.333 -65 80 C-67 78.812 -67 78.812 -69 77 C-69.25 74.312 -69.25 74.312 -69 72 C-68.34 72 -67.68 72 -67 72 C-67 71.01 -67 70.02 -67 69 C-66.34 69 -65.68 69 -65 69 C-64.34 67.35 -63.68 65.7 -63 64 C-62.01 64 -61.02 64 -60 64 C-60 63.34 -60 62.68 -60 62 C-60.66 62 -61.32 62 -62 62 C-61.67 60.68 -61.34 59.36 -61 58 C-60.67 58.99 -60.34 59.98 -60 61 C-59.34 61 -58.68 61 -58 61 C-57.876 59.917 -57.876 59.917 -57.75 58.812 C-56.852 55.447 -55.289 53.584 -53 51 C-51.68 51.33 -50.36 51.66 -49 52 C-49 51.34 -49 50.68 -49 50 C-47.68 50 -46.36 50 -45 50 C-44.798 49.469 -44.595 48.938 -44.387 48.391 C-42.395 44.958 -39.655 42.491 -36.812 39.75 C-32.556 35.577 -28.466 31.371 -24.605 26.824 C-22.817 24.792 -20.929 22.899 -19 21 C-15.119 17.171 -11.554 13.131 -8 9 C-6.546 7.33 -5.088 5.663 -3.625 4 C-2.957 3.237 -2.29 2.474 -1.602 1.688 C-1.073 1.131 -0.545 0.574 0 0 Z " fill="#290B05" transform="translate(849,118)"/>
    <path d="M0 0 C0.66 0.33 1.32 0.66 2 1 C1.601 1.396 1.203 1.793 0.792 2.201 C-3.347 6.319 -7.483 10.439 -11.617 14.562 C-13.161 16.101 -14.707 17.64 -16.253 19.177 C-18.472 21.384 -20.687 23.594 -22.902 25.805 C-23.597 26.494 -24.292 27.184 -25.008 27.895 C-25.648 28.535 -26.289 29.176 -26.949 29.835 C-27.515 30.399 -28.081 30.964 -28.665 31.545 C-30.105 32.98 -30.105 32.98 -31 35 C-31.66 35 -32.32 35 -33 35 C-33.33 35.99 -33.66 36.98 -34 38 C-34.66 38 -35.32 38 -36 38 C-35.01 35.03 -34.02 32.06 -33 29 C-32.34 29 -31.68 29 -31 29 C-31 28.01 -31 27.02 -31 26 C-30.34 26 -29.68 26 -29 26 C-28.67 25.01 -28.34 24.02 -28 23 C-27.041 22.536 -27.041 22.536 -26.062 22.062 C-23.826 21.193 -23.826 21.193 -23.188 19 C-22.796 18.34 -22.404 17.68 -22 17 C-20.984 16.786 -19.968 16.572 -18.922 16.352 C-13.707 14.986 -10.652 11.193 -7.062 7.375 C-6.379 6.669 -5.695 5.962 -4.99 5.234 C-3.315 3.5 -1.652 1.756 0 0 Z " fill="#4B1000" transform="translate(909,215)"/>
    <path d="M0 0 C0. 33 0.99 0.66 1.98 1 3 C4.3 2.67 7.6 2.34 11 2 C11 2.99 11 3.98 11 5 C7.7 5.33 4.4 5.66 1 6 C1 5.34 1 4.68 1 4 C0.34 4 -0.32 4 -1 4 C-0.67 2.68 -0.34 1.36 0 0 Z " fill="#300A01" transform="translate(856,252)"/>
    <path d="M0 0 C1.134 0.021 2.269 0.041 3.438 0.062 C2.75 2 2.75 2 1.438 4.062 C-1.188 4.812 -1.188 4.812 -3.562 5.062 C-4.125 3.125 -4.125 3.125 -4.562 1.062 C-3.562 0.062 -3.562 0.062 0 0 Z " fill="#411106" transform="translate(731.5625,158.9375)"/>
    <path d="M0 0 C0.985 0.009 1.97 0.018 2.984 0.027 C4.106 0.045 4.106 0.045 5.25 0.062 C5.25 0.393 5.25 0.722 5.25 1.062 C4.67 1.088 4.09 1.114 3.492 1.141 C-2.178 1.552 -5.236 2.649 -9.75 6.062 C-10.41 6.062 -11.07 6.062 -11.75 6.062 C-11 3.625 -11 3.625 -9.75 1.062 C-6.551 -0.159 -3.39 -0.04 0 0 Z " fill="#293239" transform="translate(734.75,155.9375)"/>
    <path d="M0 0 C2 1 2 1 2 1 Z M-2 2 C-1.34 2.99 -0.68 3.98 0 5 C-1.32 6.32 -2.64 7.64 -4 9 C-5.32 7.68 -6.64 6.36 -8 5 C-6.68 5 -5.36 5 -4 5 C-4 4.34 -4 3.68 -4 3 C-3.34 2.67 -2.68 2.34 -2 2 Z" fill="#240A02" transform="translate(788,189)"/>
    <path d="M0 0 C1.938 0.375 1.938 0.375 4 1 C5 3 5 3 4.062 6.125 C3.712 7.074 3.361 8.023 3 9 C2.01 9 1.02 9 0 9 C0 7.68 0 6.36 0 5 C0.66 5 1.32 5 2 5 C2 4.01 2 3.02 2 2 C1.34 2 0.68 2 0 2 C0 1.34 0 0.68 0 0 Z" fill="#300903" transform="translate(893,71)"/>
    <path d="M0 0 C1.343 0.647 2.674 1.319 4 2 C4.908 2.433 5.815 2.866 6.75 3.312 C7.492 3.869 8.235 4.426 9 5 C9.312 7.688 9.312 7.688 9 10 C5.74 6.83 2.778 3.601 0 0 Z" fill="#A02302" transform="translate(780,639)"/>
    <path d="M0 0 C1.65 0 3.3 0 5 0 C5 0.66 5 1.32 5 2 C6.145 2.217 6.145 2.217 7.312 2.438 C10 3 10 3 13 4 C13 4.66 13 5.32 13 6 C3.405 3.109 3.405 3.109 0 0 Z" fill="#430E01" transform="translate(838,545)"/>
    <path d="M0 0 C0.33 0.66 0.66 1.32 1 2 C2.65 2 4.3 2 6 2 C6 1.34 6 0.68 6 0 C6.99 0.33 7.98 0.66 9 1 C7.938 2.5 7.938 2.5 6 4 C2.312 4.188 2.312 4.188 -1 4 C-0.67 2.68 -0.34 1.36 0 0 Z" fill="#5F1602" transform="translate(858,251)"/>
    <path d="M0 0 C1 3 1 3 1 5 C-1.25 6.688 -1.25 6.688 -4 8 C-5.32 7.67 -6.64 7.34 -8 7 C-5.36 4.69 -2.72 2.38 0 0 Z" fill="#7A1501" transform="translate(895,222)"/>
    <path d="M0 0 C0.66 0 1.32 0 2 0 C2 0.99 2 1.98 2 3 C2.66 3 3.32 3 4 3 C4 3.66 4 4.32 4 5 C2.039 6.389 0.038 7.726 -2 9 C-1.34 6.03 -0.68 3.06 0 0 Z" fill="#0C090A" transform="translate(785,177)"/>
  </g>
  <g id="text-layer">
    <style>
      .blue-text {
        font-family: 'Arial Black', Arial, sans-serif;
        font-weight: 900;
        font-size: 180px;
        fill: #20CBFF;
        filter: drop-shadow(0 0 10px #20CBFF);
      }
      .orange-text {
        font-family: 'Arial Black', Arial, sans-serif;
        font-weight: 900;
        font-size: 180px;
        fill: #FF8700;
        filter: drop-shadow(0 0 10px #FF8700);
      }
      .small-text {
        font-family: 'Arial Rounded MT Bold', Arial, sans-serif;
        font-weight: 700;
        font-size: 50px;
        fill: #D4D4D4;
      }
    </style>
    <text x="170" y="420" class="blue-text">COM</text>
    <text x="630" y="420" class="orange-text">ING</text>
    <text x="170" y="620" class="blue-text">SO</text>
    <text x="540" y="620" class="orange-text">ON</text>
    <text x="370" y="750" class="small-text">Lounching Scon</text>
  </g>
</svg>