<?xml version="1.0" encoding="UTF-8"?>
<!-- Generator: visioncortex VTracer 0.6.4 -->
<svg version="1.1" xmlns="http://www.w3.org/2000/svg" width="1024" height="1024">
<path d="M0 0 C337.92 0 675.84 0 1024 0 C1024 337.92 1024 675.84 1024 1024 C686.08 1024 348.16 1024 0 1024 C0 686.08 0 348.16 0 0 Z " fill="#010102" transform="translate(0,0)"/>
<path d="M0 0 C-0.278 0.553 -0.557 1.106 -0.844 1.676 C-1.648 3.292 -2.439 4.915 -3.219 6.543 C-3.642 7.416 -4.064 8.288 -4.5 9.188 C-4.923 10.068 -5.346 10.948 -5.781 11.855 C-7 14 -7 14 -9 15 C-9.33 15.99 -9.66 16.98 -10 18 C-11.979 19.364 -13.982 20.694 -16 22 C-16.742 22.743 -17.485 23.485 -18.25 24.25 C-18.827 24.827 -19.405 25.405 -20 26 C-20.66 26 -21.32 26 -22 26 C-22.247 26.557 -22.495 27.114 -22.75 27.688 C-25.39 32.571 -28.268 35.23 -33 38 C-34.71 39.622 -36.373 41.294 -38 43 C-38.498 43.465 -38.995 43.931 -39.508 44.41 C-42.733 47.449 -44.716 50.263 -46.82 54.211 C-49.199 57.819 -52.652 60.33 -56 63 C-56.665 63.574 -57.33 64.147 -58.016 64.738 C-62.689 68.593 -65.884 70.097 -72 70 C-74.546 69.227 -76.622 68.238 -79 67 C-76.515 55.465 -76.515 55.465 -71 51 C-69.701 49.701 -69.701 49.701 -68.375 48.375 C-67.591 47.591 -66.808 46.808 -66 46 C-65.505 45.464 -65.01 44.928 -64.5 44.375 C-63 43 -63 43 -60.688 41.625 C-58.476 40.288 -56.838 39.016 -54.938 37.312 C-52 35 -52 35 -48 35 C-47.67 33.68 -47.34 32.36 -47 31 C-46.34 31 -45.68 31 -45 31 C-45 30.34 -45 29.68 -45 29 C-44.34 29 -43.68 29 -43 29 C-43 28.34 -43 27.68 -43 27 C-42.34 27 -41.68 27 -41 27 C-41 26.34 -41 25.68 -41 25 C-39.907 24.567 -38.814 24.134 -37.688 23.688 C-35.449 22.741 -34.109 22.109 -32.375 20.375 C-30.459 18.459 -28.626 18.355 -26 18 C-26 17.34 -26 16.68 -26 16 C-23.353 14.539 -22.106 14 -19 14 C-18.567 12.298 -18.567 12.298 -18.125 10.562 C-17.754 9.387 -17.383 8.211 -17 7 C-16.34 6.67 -15.68 6.34 -15 6 C-14.01 6.495 -14.01 6.495 -13 7 C-13 6.01 -13 5.02 -13 4 C-9.535 3.505 -9.535 3.505 -6 3 C-6 2.34 -6 1.68 -6 1 C-3.924 0.447 -2.156 0 0 0 Z " fill="#270700" transform="translate(932,189)"/>
<path d="M0 0 C0.33 0 0.66 0 1 0 C1.776 5.895 -0.447 11.341 -4 16 C-6.676 16.793 -6.676 16.793 -9 17 C-9.186 18.392 -9.186 18.392 -9.375 19.812 C-10 23 -10 23 -12 26 C-12.681 26.268 -13.361 26.536 -14.062 26.812 C-14.702 27.204 -15.341 27.596 -16 28 C-16.186 29.423 -16.186 29.423 -16.375 30.875 C-17 34 -17 34 -19.938 36.125 C-20.948 36.744 -21.959 37.363 -23 38 C-23.351 38.701 -23.701 39.403 -24.062 40.125 C-25 42 -25 42 -27.375 42.875 C-30.968 44.415 -31.898 46.751 -34 50 C-35.962 51.711 -37.963 53.379 -40 55 C-41.686 56.647 -43.356 58.311 -45 60 C-45.577 60.536 -46.155 61.072 -46.75 61.625 C-48.257 63.096 -48.257 63.096 -49 66 C-50.98 66 -52.96 66 -55 66 C-55.33 68.31 -55.66 70.62 -56 73 C-57.485 73.495 -57.485 73.495 -59 74 C-59 73.34 -59 72.68 -59 72 C-59.99 72.495 -59.99 72.495 -61 73 C-61.144 73.619 -61.289 74.238 -61.438 74.875 C-62.097 77.367 -63.083 78.333 -65 80 C-67 78.812 -67 78.812 -69 77 C-69.25 74.312 -69.25 74.312 -69 72 C-68.34 72 -67.68 72 -67 72 C-67 71.01 -67 70.02 -67 69 C-66.34 69 -65.68 69 -65 69 C-64.34 67.35 -63.68 65.7 -63 64 C-62.01 64 -61.02 64 -60 64 C-60 63.34 -60 62.68 -60 62 C-60.66 62 -61.32 62 -62 62 C-61.67 60.68 -61.34 59.36 -61 58 C-60.67 58.99 -60.34 59.98 -60 61 C-59.34 61 -58.68 61 -58 61 C-57.876 59.917 -57.876 59.917 -57.75 58.812 C-56.852 55.447 -55.289 53.584 -53 51 C-51.68 51.33 -50.36 51.66 -49 52 C-49 51.34 -49 50.68 -49 50 C-47.68 50 -46.36 50 -45 50 C-44.798 49.469 -44.595 48.938 -44.387 48.391 C-42.395 44.958 -39.655 42.491 -36.812 39.75 C-32.556 35.577 -28.466 31.371 -24.605 26.824 C-22.817 24.792 -20.929 22.899 -19 21 C-15.119 17.171 -11.554 13.131 -8 9 C-6.546 7.33 -5.088 5.663 -3.625 4 C-2.957 3.237 -2.29 2.474 -1.602 1.688 C-1.073 1.131 -0.545 0.574 0 0 Z " fill="#290B05" transform="translate(849,118)"/>
<path d="M0 0 C-1.574 3.953 -4.116 6.184 -7.25 9 C-7.778 9.476 -8.306 9.951 -8.85 10.441 C-14.556 15.554 -20.377 20.534 -26.221 25.487 C-28.033 27.028 -29.836 28.579 -31.637 30.133 C-32.799 31.13 -33.962 32.128 -35.125 33.125 C-35.657 33.586 -36.19 34.048 -36.738 34.523 C-39.358 36.759 -41.82 38.646 -45 40 C-44.876 41.114 -44.876 41.114 -44.75 42.25 C-45 45 -45 45 -46.625 47.188 C-49.318 49.243 -51.748 50.113 -55 51 C-54.897 51.743 -54.794 52.485 -54.688 53.25 C-55 56 -55 56 -57.188 58 C-58.116 58.66 -59.044 59.32 -60 60 C-60.866 60.887 -61.732 61.774 -62.625 62.688 C-65.749 65.729 -67.34 65.989 -71.688 66.062 C-72.781 66.042 -73.874 66.021 -75 66 C-75.312 62.812 -75.312 62.812 -75 59 C-72.875 56.562 -72.875 56.562 -70 54 C-69.07 52.613 -68.154 51.217 -67.25 49.812 C-64.854 46.472 -63.227 45.443 -59.188 44.688 C-58.418 44.609 -57.648 44.53 -56.855 44.449 C-56.243 44.301 -55.631 44.153 -55 44 C-54.67 43.01 -54.34 42.02 -54 41 C-52.357 39.962 -50.688 38.964 -49 38 C-48.546 37.505 -48.092 37.01 -47.625 36.5 C-46 35 -46 35 -42.777 33.715 C-38.957 32.116 -36.008 29.806 -32.938 27.062 C-32.112 26.344 -32.112 26.344 -31.27 25.612 C-30.105 24.598 -28.942 23.58 -27.782 22.56 C-26 21 -24.203 19.46 -22.398 17.926 C-16.115 12.581 -9.921 7.178 -3.891 1.547 C-2 0 -2 0 0 0 Z " fill="#360A01" transform="translate(932,189)"/>
<path d="M0 0 C2.948 2.373 3.497 4.275 4 8 C0.276 9.912 -3.488 11.672 -7.312 13.375 C-13.473 16.157 -19.373 19.249 -25 23 C-30.444 22.556 -30.444 22.556 -33 20 C-33.625 17.25 -33.625 17.25 -33 14 C-29.686 10.367 -25.907 7.838 -21 7.125 C-20.01 7.084 -19.02 7.042 -18 7 C-17.814 6.237 -17.629 5.474 -17.438 4.688 C-15.804 1.634 -14.308 0.63 -11.074 -0.562 C-7.344 -1.349 -3.641 -1.115 0 0 Z " fill="#596164" transform="translate(741,155)"/>
<path d="M0 0 C2.625 -0.438 2.625 -0.438 6 0 C7.81 1.657 9.23 3.411 10.703 5.371 C11.922 7.136 11.922 7.136 14 8 C14 8.66 14 9.32 14 10 C14.66 10 15.32 10 16 10 C16.586 11.004 16.586 11.004 17.184 12.027 C20.1 16.801 24.12 20.553 27.994 24.561 C28.912 25.523 28.912 25.523 29.848 26.504 C30.405 27.08 30.962 27.655 31.535 28.248 C33.058 30.069 34.028 31.843 35 34 C35.66 34 36.32 34 37 34 C40.651 37.402 43.968 41.111 47.312 44.812 C48.196 45.788 49.079 46.764 49.988 47.77 C50.652 48.506 51.316 49.242 52 50 C49.509 51.245 48.589 50.777 46 50 C46 49.34 46 48.68 46 48 C44.02 48.495 44.02 48.495 42 49 C41.753 48.196 41.505 47.391 41.25 46.562 C40.278 43.829 40.278 43.829 37.875 43.188 C36.947 43.095 36.947 43.095 36 43 C36 42.34 36 41.68 36 41 C35.34 41 34.68 41 34 41 C34 40.34 34 39.68 34 39 C33.196 38.732 32.391 38.464 31.562 38.188 C30.294 37.6 30.294 37.6 29 37 C28.67 36.01 28.34 35.02 28 34 C25 32.291 25 32.291 22 31 C22 30.34 22 29.68 22 29 C20.35 29 18.7 29 17 29 C16.67 26.03 16.34 23.06 16 20 C14.68 20.33 13.36 20.66 12 21 C11.876 20.443 11.753 19.886 11.625 19.312 C10.924 16.718 10.205 14.409 9 12 C7.117 10.892 7.117 10.892 5 10 C2.051 7.641 1.111 6.48 0.25 2.75 C0.168 1.842 0.085 0.935 0 0 Z " fill="#481101" transform="translate(764,627)"/>
<path d="M0 0 C1.938 0.375 1.938 0.375 4 1 C5 3 5 3 4.375 6 C3 9 3 9 0.625 10.062 C-0.241 10.372 -1.107 10.681 -2 11 C-5.068 14.036 -5.068 14.036 -6 18 C-6.433 18.412 -6.866 18.825 -7.312 19.25 C-9.207 21.016 -9.207 21.016 -10.312 23.938 C-12.886 28.609 -16.259 30.431 -21.25 32.062 C-24.3 32.791 -24.3 32.791 -26 36 C-28.063 36.675 -30.086 37.004 -32.223 37.375 C-32.809 37.581 -33.396 37.787 -34 38 C-34.33 38.99 -34.66 39.98 -35 41 C-35.66 41 -36.32 41 -37 41 C-36.01 38.03 -35.02 35.06 -34 32 C-33.34 32 -32.68 32 -32 32 C-32 31.01 -32 30.02 -32 29 C-31.34 29 -30.68 29 -30 29 C-29.67 28.01 -29.34 27.02 -29 26 C-28.041 25.536 -28.041 25.536 -27.062 25.062 C-24.545 23.766 -24.031 22.578 -23 20 C-21.35 20 -19.7 20 -18 20 C-18 18.35 -18 16.7 -18 15 C-17.34 15 -16.68 15 -16 15 C-16 14.34 -16 13.68 -16 13 C-15.34 12.67 -14.68 12.34 -14 12 C-13.34 11.01 -12.68 10.02 -12 9 C-9 7 -9 7 -6 7 C-6.33 6.01 -6.66 5.02 -7 4 C-5.188 2.438 -5.188 2.438 -3 1 C-2.01 1.33 -1.02 1.66 0 2 C0 1.34 0 0.68 0 0 Z " fill="#551202" transform="translate(893,71)"/>
<path d="M0 0 C0.66 0.33 1.32 0.66 2 1 C-9.527 11.624 -9.527 11.624 -14 15.5 C-26.704 26.554 -39.167 38.079 -50 51 C-51.145 52.334 -52.291 53.667 -53.438 55 C-54.283 55.99 -55.129 56.98 -56 58 C-57.108 54.677 -56.933 53.308 -56 50 C-55.34 49.34 -54.68 48.68 -54 48 C-51.745 44.872 -50.009 42.023 -48.562 38.438 C-46.869 34.712 -44.98 32.756 -42 30 C-41.546 29.319 -41.093 28.639 -40.625 27.938 C-38.949 25.939 -37.71 25.204 -35.438 24 C-31.974 22.408 -31.974 22.408 -31.016 20.012 C-29.777 17.558 -28.762 16.991 -26.312 15.812 C-25.348 15.327 -25.348 15.327 -24.363 14.832 C-22 14 -22 14 -18.621 13.727 C-13.979 12.795 -11.993 10.852 -8.75 7.562 C-3.165 2.11 -3.165 2.11 0 0 Z " fill="#2A0601" transform="translate(255,753)"/>
<path d="M0 0 C1.289 1.715 1.289 1.715 2.625 3.938 C5.606 8.602 9.059 12.564 12.809 16.625 C15.627 19.679 18.313 22.83 21 26 C20 28 20 28 16.938 29.562 C13 30 13 30 10.863 28.672 C8.804 26.86 6.887 24.99 5 23 C3.23 21.151 2.032 20.017 -0.25 18.812 C-4.82 15.801 -9.212 11.702 -10.773 6.348 C-11 4 -11 4 -9.875 2.312 C-6.367 -0.143 -4.166 -1.389 0 0 Z " fill="#282C30" transform="translate(107,87)"/>
<path d="M0 0 C0.33 0 0.66 0 1 0 C1.776 5.895 -0.447 11.341 -4 16 C-6.676 16.793 -6.676 16.793 -9 17 C-9.186 18.392 -9.186 18.392 -9.375 19.812 C-10 23 -10 23 -12 26 C-13.333 26.333 -14.667 26.667 -16 27 C-16.66 27.99 -17.32 28.98 -18 30 C-18.66 30 -19.32 30 -20 30 C-20.495 31.485 -20.495 31.485 -21 33 C-22.68 33.562 -22.68 33.562 -24.875 34 C-33.769 36.677 -40.091 45.797 -45.914 52.629 C-49.516 56.724 -53.281 60.67 -57.027 64.634 C-60.176 67.982 -63.191 71.354 -66 75 C-66.66 74.67 -67.32 74.34 -68 74 C-65.849 71.61 -63.698 69.221 -61.547 66.832 C-59.992 65.103 -58.439 63.372 -56.891 61.637 C-47.472 51.103 -37.748 40.85 -28.062 30.562 C-27.401 29.859 -26.739 29.156 -26.057 28.432 C-23.343 25.549 -20.629 22.667 -17.912 19.787 C-15.877 17.63 -13.845 15.472 -11.812 13.312 C-11.201 12.665 -10.589 12.018 -9.959 11.352 C-7.26 8.481 -4.631 5.594 -2.137 2.543 C-1.432 1.704 -0.726 0.865 0 0 Z " fill="#430F04" transform="translate(849,118)"/>
<path d="M0 0 C0.66 0.33 1.32 0.66 2 1 C1.59 1.543 1.18 2.085 0.758 2.645 C0.219 3.36 -0.32 4.075 -0.875 4.812 C-1.409 5.52 -1.942 6.228 -2.492 6.957 C-3.708 8.605 -4.864 10.296 -6 12 C-10.502 17.145 -16.577 19.221 -23 21 C-23.66 21 -24.32 21 -25 21 C-25 21.66 -25 22.32 -25 23 C-25.66 23 -26.32 23 -27 23 C-27 23.66 -27 24.32 -27 25 C-27.66 25 -28.32 25 -29 25 C-29 25.66 -29 26.32 -29 27 C-29.71 27.121 -30.421 27.242 -31.152 27.367 C-32.071 27.535 -32.991 27.702 -33.938 27.875 C-35.312 28.119 -35.312 28.119 -36.715 28.367 C-37.469 28.576 -38.223 28.785 -39 29 C-39.33 29.66 -39.66 30.32 -40 31 C-40.66 30.67 -41.32 30.34 -42 30 C-42 29.01 -42 28.02 -42 27 C-39.598 25.207 -37.234 23.627 -34.688 22.062 C-33.934 21.587 -33.18 21.112 -32.403 20.623 C-30.786 19.605 -29.165 18.591 -27.542 17.582 C-24.118 15.451 -20.71 13.293 -17.302 11.136 C-15.677 10.109 -14.051 9.084 -12.423 8.061 C-8.24 5.432 -4.095 2.763 0 0 Z " fill="#3B0801" transform="translate(198,641)"/>
<path d="M0 0 C-2.745 2.97 -5.263 4.876 -8.887 6.656 C-9.826 7.122 -10.765 7.587 -11.732 8.066 C-13.195 8.776 -13.195 8.776 -14.688 9.5 C-15.643 9.973 -16.599 10.446 -17.584 10.934 C-23.331 13.762 -29.124 16.452 -35 19 C-36.098 19.478 -37.197 19.956 -38.328 20.449 C-39.292 20.858 -40.257 21.266 -41.25 21.688 C-42.225 22.104 -43.199 22.52 -44.203 22.949 C-46.81 23.929 -49.258 24.545 -52 25 C-52.33 23.68 -52.66 22.36 -53 21 C-39.483 14 -39.483 14 -35 14 C-35 13.34 -35 12.68 -35 12 C-33.77 11.602 -33.77 11.602 -32.516 11.195 C-31.438 10.842 -30.36 10.489 -29.25 10.125 C-28.183 9.777 -27.115 9.429 -26.016 9.07 C-23.085 8.106 -23.085 8.106 -20.797 6.867 C-19 6 -19 6 -16 6 C-16 5.34 -16 4.68 -16 4 C-14.68 3.67 -13.36 3.34 -12 3 C-12 2.34 -12 1.68 -12 1 C-7.936 0.226 -4.136 -0.098 0 0 Z " fill="#340700" transform="translate(814,396)"/>
<path d="M0 0 C1.98 0.99 1.98 0.99 4 2 C4 2.66 4 3.32 4 4 C7.3 4.66 10.6 5.32 14 6 C14.33 8.31 14.66 10.62 15 13 C15.66 13.186 16.32 13.371 17 13.562 C20.672 15.322 23.25 17.7 26.23 20.441 C27.928 22.071 27.928 22.071 30 23 C30 24.65 30 26.3 30 28 C30.66 28 31.32 28 32 28 C32 30.64 32 33.28 32 36 C33.32 36.33 34.64 36.66 36 37 C36 37.66 36 38.32 36 39 C37.32 39.66 38.64 40.32 40 41 C39.67 42.32 39.34 43.64 39 45 C37.796 43.503 36.591 42.005 35.387 40.508 C33.877 38.747 33.877 38.747 31 37 C31 36.34 31 35.68 31 35 C30.34 35 29.68 35 29 35 C27.695 33.707 27.695 33.707 26.125 31.812 C23.776 29.029 21.379 26.32 18.871 23.68 C18.326 23.104 17.782 22.528 17.22 21.934 C16.123 20.778 15.021 19.627 13.913 18.482 C10 14.333 10 14.333 10 11 C9.34 11 8.68 11 8 11 C8 10.34 8 9.68 8 9 C7.361 8.732 6.721 8.464 6.062 8.188 C4 7 4 7 3 4 C2.01 3.67 1.02 3.34 0 3 C0 2.01 0 1.02 0 0 Z " fill="#3F0C00" transform="translate(770,626)"/>
<path d="M0 0 C-1.574 3.953 -4.116 6.184 -7.25 9 C-7.778 9.476 -8.306 9.951 -8.85 10.441 C-16.235 17.059 -23.8 23.473 -31.391 29.852 C-32.49 30.776 -33.589 31.7 -34.688 32.625 C-35.224 33.076 -35.76 33.527 -36.312 33.992 C-39.822 36.961 -43.24 40.013 -46.625 43.125 C-54.711 50.541 -63.302 57.321 -72 64 C-72 63.01 -72 62.02 -72 61 C-69.858 58.968 -67.723 57.106 -65.438 55.25 C-64.14 54.17 -62.845 53.088 -61.551 52.004 C-60.93 51.485 -60.31 50.965 -59.67 50.43 C-57.148 48.27 -54.847 45.93 -52.535 43.551 C-47.245 38.207 -41.279 33.592 -35.438 28.875 C-24.593 20.116 -14.049 11.022 -3.855 1.512 C-2 0 -2 0 0 0 Z " fill="#F7C33D" transform="translate(932,189)"/>
<path d="M0 0 C0.612 0.069 1.223 0.137 1.853 0.208 C7.746 0.837 13.585 1.193 19.508 1.316 C20.785 1.348 20.785 1.348 22.088 1.379 C24.767 1.444 27.446 1.503 30.125 1.562 C31.958 1.606 33.792 1.649 35.625 1.693 C40.083 1.8 44.542 1.901 49 2 C49 2.99 49 3.98 49 5 C40.457 5.979 31.936 6.248 23.346 6.295 C21.854 6.307 20.363 6.327 18.872 6.357 C16.688 6.399 14.505 6.416 12.32 6.426 C11.034 6.44 9.748 6.455 8.422 6.47 C4.446 5.924 2.775 4.851 0 2 C0 1.34 0 0.68 0 0 Z " fill="#363E44" transform="translate(890,388)"/>
<path d="M0 0 C-0.487 4.383 -1.834 6.032 -5 9 C-5.33 9.99 -5.66 10.98 -6 12 C-7.979 13.364 -9.982 14.694 -12 16 C-12.681 16.681 -13.361 17.361 -14.062 18.062 C-16.214 20.214 -18.371 21.472 -21 23 C-22.194 23.845 -23.381 24.699 -24.562 25.562 C-26.957 27.298 -29.281 28.804 -32 30 C-32 30.66 -32 31.32 -32 32 C-34.25 33.688 -34.25 33.688 -37 35 C-39.172 34.582 -39.172 34.582 -41 34 C-40.322 33.455 -39.644 32.909 -38.945 32.348 C-33.325 27.794 -27.886 23.134 -22.543 18.258 C-19.862 15.878 -17.105 13.623 -14.312 11.375 C-10.378 8.204 -6.775 4.919 -3.34 1.215 C-2 0 -2 0 0 0 Z " fill="#5E0F01" transform="translate(928,195)"/>
<path d="M0 0 C3.01 4.515 5.854 9.123 8.688 13.75 C9.307 14.727 9.926 15.704 10.564 16.711 C15.512 24.86 15.512 24.86 14.895 29.203 C14.599 30.126 14.304 31.049 14 32 C10 32 10 32 7.859 30.094 C3.129 24.277 1.291 21.44 2 14 C1.719 12.427 1.384 10.863 1 9.312 C0.217 6.124 -0.213 3.306 0 0 Z " fill="#0F1316" transform="translate(225,125)"/>
<path d="M0 0 C3.898 0.541 5.933 1.604 9 4 C15.68 7.054 22.933 9.045 30 11 C29.67 13.64 29.34 16.28 29 19 C18.352 14.845 8.582 9.608 0 2 C0 1.34 0 0.68 0 0 Z " fill="#191E21" transform="translate(253,319)"/>
<path d="M0 0 C0.66 0.33 1.32 0.66 2 1 C-9.527 11.624 -9.527 11.624 -14 15.5 C-26.704 26.554 -39.167 38.079 -50 51 C-51.145 52.334 -52.291 53.667 -53.438 55 C-54.283 55.99 -55.129 56.98 -56 58 C-56.495 56.515 -56.495 56.515 -57 55 C-56.373 54.336 -56.373 54.336 -55.734 53.658 C-53.8 51.607 -51.869 49.553 -49.938 47.5 C-49.281 46.804 -48.624 46.108 -47.947 45.391 C-44.061 41.256 -40.277 37.052 -36.556 32.768 C-30.878 26.318 -24.53 20.565 -18 15 C-16.842 14.002 -15.685 13.003 -14.527 12.004 C-13.268 10.919 -12.009 9.834 -10.75 8.75 C-10.147 8.23 -9.544 7.71 -8.923 7.175 C-6.016 4.68 -3.107 2.246 0 0 Z " fill="#F49A1A" transform="translate(255,753)"/>
<path d="M0 0 C-9.604 6.241 -19.228 12.45 -28.875 18.625 C-29.832 19.241 -30.788 19.856 -31.774 20.491 C-32.671 21.064 -33.568 21.636 -34.492 22.227 C-35.29 22.738 -36.088 23.249 -36.91 23.776 C-39 25 -39 25 -42 26 C-42 24.68 -42 23.36 -42 22 C-41.34 22 -40.68 22 -40 22 C-39.67 20.68 -39.34 19.36 -39 18 C-38.34 18 -37.68 18 -37 18 C-36.67 17.34 -36.34 16.68 -36 16 C-35.01 16 -34.02 16 -33 16 C-33 15.34 -33 14.68 -33 14 C-32.216 13.876 -31.433 13.753 -30.625 13.625 C-27.859 13.209 -27.859 13.209 -26 11 C-23.836 10.367 -23.836 10.367 -21.375 9.875 C-20.558 9.707 -19.74 9.54 -18.898 9.367 C-18.272 9.246 -17.645 9.125 -17 9 C-17 8.01 -17 7.02 -17 6 C-11.375 3 -11.375 3 -8 3 C-8 2.34 -8 1.68 -8 1 C-4.856 -0.909 -3.479 -1.045 0 0 Z " fill="#4E0B02" transform="translate(198,642)"/>
<path d="M0 0 C0.99 0.495 0.99 0.495 2 1 C-16.153 21.259 -16.153 21.259 -23.391 28.359 C-25.797 30.813 -28.007 33.428 -30.25 36.031 C-31.938 37.93 -33.688 39.72 -35.5 41.5 C-37.793 43.758 -39.964 46.06 -42.062 48.5 C-46.235 53.349 -50.633 57.984 -55.026 62.633 C-58.175 65.981 -61.19 69.354 -64 73 C-64.66 72.67 -65.32 72.34 -66 72 C-63.849 69.61 -61.698 67.221 -59.547 64.832 C-57.992 63.103 -56.439 61.372 -54.891 59.637 C-45.472 49.103 -35.748 38.85 -26.062 28.562 C-25.402 27.861 -24.742 27.159 -24.062 26.437 C-20.63 22.791 -17.195 19.148 -13.758 15.508 C-12.401 14.068 -11.044 12.628 -9.688 11.188 C-9.059 10.524 -8.431 9.86 -7.783 9.176 C-5.009 6.228 -2.323 3.329 0 0 Z " fill="#F6A342" transform="translate(847,120)"/>
<path d="M0 0 C0 3.618 -0.863 4.206 -3 7 C-3.712 8.648 -4.39 10.312 -5 12 C-5.99 12 -6.98 12 -8 12 C-8 12.99 -8 13.98 -8 15 C-8.66 15 -9.32 15 -10 15 C-10.083 15.619 -10.165 16.237 -10.25 16.875 C-11 19 -11 19 -12.75 19.938 C-13.493 20.288 -14.235 20.639 -15 21 C-15.763 21.846 -16.526 22.691 -17.312 23.562 C-20.565 26.512 -22.691 26.747 -27 27 C-22.881 22.091 -18.608 17.453 -14.062 12.938 C-13.48 12.352 -12.898 11.766 -12.299 11.162 C-8.359 7.231 -4.263 3.577 0 0 Z " fill="#270700" transform="translate(240,768)"/>
<path d="M0 0 C0.66 0.33 1.32 0.66 2 1 C1.601 1.396 1.203 1.793 0.792 2.201 C-3.347 6.319 -7.483 10.439 -11.617 14.562 C-13.161 16.101 -14.707 17.64 -16.253 19.177 C-18.472 21.384 -20.687 23.594 -22.902 25.805 C-23.597 26.494 -24.292 27.184 -25.008 27.895 C-25.648 28.535 -26.289 29.176 -26.949 29.835 C-27.515 30.399 -28.081 30.964 -28.665 31.545 C-30.105 32.98 -30.105 32.98 -31 35 C-31.66 35 -32.32 35 -33 35 C-33.33 35.99 -33.66 36.98 -34 38 C-34.66 38 -35.32 38 -36 38 C-35.01 35.03 -34.02 32.06 -33 29 C-32.34 29 -31.68 29 -31 29 C-31 28.01 -31 27.02 -31 26 C-30.34 26 -29.68 26 -29 26 C-28.67 25.01 -28.34 24.02 -28 23 C-27.041 22.536 -27.041 22.536 -26.062 22.062 C-23.826 21.193 -23.826 21.193 -23.188 19 C-22.796 18.34 -22.404 17.68 -22 17 C-20.984 16.786 -19.968 16.572 -18.922 16.352 C-13.707 14.986 -10.652 11.193 -7.062 7.375 C-6.379 6.669 -5.695 5.962 -4.99 5.234 C-3.315 3.5 -1.652 1.756 0 0 Z " fill="#AF7124" transform="translate(892,74)"/>
<path d="M0 0 C0 3 0 3 -1.375 4.5 C-1.911 4.995 -2.447 5.49 -3 6 C-3.99 7.485 -3.99 7.485 -5 9 C-5.763 9.454 -6.526 9.907 -7.312 10.375 C-10.391 12.237 -12.522 14.398 -15 17 C-19.667 21.889 -19.667 21.889 -23 23 C-23.33 23.66 -23.66 24.32 -24 25 C-25.848 26.07 -25.848 26.07 -28.062 27.125 C-28.796 27.478 -29.529 27.831 -30.285 28.195 C-30.851 28.461 -31.417 28.726 -32 29 C-32 27.68 -32 26.36 -32 25 C-31.051 24.567 -30.102 24.134 -29.125 23.688 C-25.8 22.207 -25.8 22.207 -24 19 C-23.34 19 -22.68 19 -22 19 C-22 17.68 -22 16.36 -22 15 C-19.026 13.761 -16.147 12.699 -13 12 C-13.33 11.01 -13.66 10.02 -14 9 C-13.175 8.629 -12.35 8.257 -11.5 7.875 C-7.323 5.637 -3.72 2.917 0 0 Z " fill="#4B1000" transform="translate(909,215)"/>
<path d="M0 0 C10.903 4.826 19.712 15.238 27.355 24.141 C28.823 25.8 30.339 27.344 31.938 28.875 C34 31 34 31 34 33 C34.66 33 35.32 33 36 33 C40.708 37.293 44.801 42.218 49 47 C45.4 47 44.644 45.993 42.18 43.546 C41.693 43.046 41.205 42.546 40.703 42.031 C40.191 41.518 39.679 41.004 39.152 40.474 C38.066 39.382 36.983 38.285 35.904 37.186 C34.277 35.528 32.64 33.88 31 32.234 C26.037 27.233 21.21 22.166 16.627 16.81 C13.654 13.503 10.352 10.549 7.062 7.562 C5.718 6.337 4.375 5.109 3.035 3.879 C2.451 3.349 1.867 2.818 1.266 2.272 C0 1 0 1 0 0 Z " fill="#FBCA2F" transform="translate(765,628)"/>
<path d="M0 0 C2.125 1.812 2.125 1.812 3 4 C2.67 4.99 2.34 5.98 2 7 C-3.398 9.699 -9.123 9.188 -15 9 C-14.479 5.727 -14.217 4.251 -12 1.688 C-7.967 -0.581 -4.535 -0.881 0 0 Z " fill="#606B72" transform="translate(740,157)"/>
<path d="M0 0 C2.833 1.378 5.557 2.864 8.25 4.5 C8.956 4.923 9.663 5.346 10.391 5.781 C10.922 6.183 11.453 6.586 12 7 C12 7.66 12 8.32 12 9 C13.32 9.66 14.64 10.32 16 11 C16 11.66 16 12.32 16 13 C16.99 13 17.98 13 19 13 C19.33 15.31 19.66 17.62 20 20 C20.66 20 21.32 20 22 20 C22 20.99 22 21.98 22 23 C23.32 23.33 24.64 23.66 26 24 C26 24.66 26 25.32 26 26 C27.32 26.66 28.64 27.32 30 28 C29.67 29.32 29.34 30.64 29 32 C27.796 30.503 26.591 29.005 25.387 27.508 C23.877 25.747 23.877 25.747 21 24 C21 23.34 21 22.68 21 22 C20.34 22 19.68 22 19 22 C17.695 20.707 17.695 20.707 16.125 18.812 C12.195 14.174 8.074 9.736 3.913 5.306 C0 1.107 0 1.107 0 0 Z " fill="#531100" transform="translate(780,639)"/>
<path d="M0 0 C0.66 0.33 1.32 0.66 2 1 C-6.899 8.34 -16.251 14.333 -26.203 20.141 C-30.324 22.548 -34.265 25.16 -38.179 27.89 C-40 29 -40 29 -42 29 C-42 28.34 -42 27.68 -42 27 C-39.596 25.282 -37.189 23.691 -34.688 22.125 C-33.934 21.645 -33.18 21.166 -32.403 20.672 C-29.94 19.107 -27.47 17.553 -25 16 C-23.284 14.916 -21.567 13.831 -19.852 12.746 C-17.377 11.182 -14.902 9.618 -12.423 8.061 C-8.24 5.432 -4.095 2.763 0 0 Z " fill="#F7AD22" transform="translate(198,641)"/>
<path d="M0 0 C2.555 1.07 2.555 1.07 3.555 3.07 C-0.904 2.99 -5.362 2.877 -9.82 2.758 C-11.091 2.735 -12.362 2.713 -13.672 2.689 C-14.884 2.654 -16.095 2.619 -17.344 2.582 C-18.464 2.556 -19.585 2.53 -20.74 2.503 C-22.079 2.289 -22.079 2.289 -23.445 2.07 C-24.105 1.08 -24.765 0.09 -25.445 -0.93 C-17.421 -5.563 -8.264 -2.625 0 0 Z " fill="#1D2227" transform="translate(113.4453125,494.9296875)"/>
<path d="M0 0 C2.625 -0.438 2.625 -0.438 6 0 C7.81 1.657 9.23 3.411 10.703 5.371 C11.922 7.136 11.922 7.136 14 8 C14 8.66 14 9.32 14 10 C14.66 10 15.32 10 16 10 C15.67 10.66 15.34 11.32 15 12 C11.37 9.03 7.74 6.06 4 3 C3.883 4.208 3.883 4.208 5.377 5.399 C6.005 5.98 6.634 6.561 7.281 7.16 C7.958 7.789 8.635 8.417 9.332 9.064 C10.047 9.724 10.763 10.383 11.5 11.062 C12.215 11.726 12.931 12.389 13.668 13.072 C15.443 14.717 17.221 16.36 19 18 C15.266 19.078 15.266 19.078 12.875 18.375 C10.442 16.591 10.105 14.762 9 12 C7.117 10.892 7.117 10.892 5 10 C2.051 7.641 1.111 6.48 0.25 2.75 C0.168 1.842 0.085 0.935 0 0 Z " fill="#841C02" transform="translate(764,627)"/>
<path d="M0 0 C0.66 0.33 1.32 0.66 2 1 C-2.928 12.853 -20.035 22.348 -30 30 C-30 29.01 -30 28.02 -30 27 C-27.858 24.968 -25.723 23.106 -23.438 21.25 C-22.14 20.17 -20.845 19.088 -19.551 18.004 C-18.93 17.485 -18.31 16.965 -17.67 16.43 C-15.167 14.286 -12.878 11.969 -10.594 9.598 C-8.054 7.052 -5.326 4.728 -2.602 2.383 C-1.711 1.614 -0.832 0.832 0 0 Z " fill="#F9AA1C" transform="translate(890,223)"/>
<path d="M0 0 C0 5.62 -2.922 10.328 -6.312 14.688 C-8 16 -8 16 -11.062 16.938 C-14.085 17.709 -14.085 17.709 -15.375 20 C-16.099 21.969 -16.099 21.969 -16 24 C-17.98 24 -19.96 24 -22 24 C-18.244 19.533 -14.377 15.18 -10.438 10.875 C-9.979 10.373 -9.52 9.87 -9.048 9.353 C-6.108 6.151 -3.092 3.053 0 0 Z " fill="#430F05" transform="translate(820,152)"/>
<path d="M0 0 C0.99 0.33 1.98 0.66 3 1 C-6.41 9.997 -15.837 18.854 -26 27 C-26.33 26.01 -26.66 25.02 -27 24 C-26.34 24 -25.68 24 -25 24 C-25 23.01 -25 22.02 -25 21 C-24.361 20.711 -23.721 20.423 -23.062 20.125 C-20.848 19.172 -20.848 19.172 -20 17 C-17.438 16.375 -17.438 16.375 -15 16 C-15 15.34 -15 14.68 -15 14 C-14.34 14 -13.68 14 -13 14 C-12.67 12.35 -12.34 10.7 -12 9 C-11.01 9 -10.02 9 -9 9 C-8.67 8.01 -8.34 7.02 -8 6 C-6.357 4.962 -4.688 3.964 -3 3 C-1.249 1.418 -1.249 1.418 0 0 Z " fill="#7E1401" transform="translate(886,224)"/>
<path d="M0 0 C0.75 1.75 0.75 1.75 1 4 C-1.717 7.695 -4.656 8.815 -9 10 C-9 11.32 -9 12.64 -9 14 C-11.082 15.922 -11.082 15.922 -13.812 17.75 C-15.152 18.67 -15.152 18.67 -16.52 19.609 C-19 21 -19 21 -22 21 C-22 21.66 -22 22.32 -22 23 C-23.32 22.67 -24.64 22.34 -26 22 C-25.513 21.634 -25.025 21.268 -24.523 20.891 C-19.423 16.996 -14.497 12.925 -9.625 8.75 C-9.018 8.231 -8.412 7.712 -7.787 7.177 C-5.098 4.861 -2.489 2.532 0 0 Z " fill="#951E01" transform="translate(886,230)"/>
<path d="M0 0 C2.059 -0.43 2.059 -0.43 5 0 C7.628 2.026 9.816 4.441 12.062 6.875 C13.278 8.168 14.498 9.458 15.723 10.742 C16.256 11.318 16.79 11.894 17.34 12.488 C19.113 14.103 20.817 15.032 23 16 C20.509 17.245 19.589 16.777 17 16 C17 15.34 17 14.68 17 14 C15.68 14.33 14.36 14.66 13 15 C12.753 14.196 12.505 13.391 12.25 12.562 C11.278 9.829 11.278 9.829 8.875 9.188 C8.256 9.126 7.638 9.064 7 9 C7 8.34 7 7.68 7 7 C6.34 7 5.68 7 5 7 C5 6.34 5 5.68 5 5 C2.525 4.01 2.525 4.01 0 3 C0 2.01 0 1.02 0 0 Z " fill="#6E1501" transform="translate(793,661)"/>
<path d="M0 0 C-6.398 4.451 -12.976 8.317 -19.875 11.938 C-20.811 12.443 -21.747 12.949 -22.711 13.471 C-23.608 13.943 -24.505 14.416 -25.43 14.902 C-26.236 15.33 -27.043 15.758 -27.875 16.199 C-30 17 -30 17 -33 16 C-31.337 15.078 -31.337 15.078 -29.641 14.137 C-28.177 13.32 -26.713 12.504 -25.25 11.688 C-24.52 11.283 -23.791 10.879 -23.039 10.463 C-20.113 8.827 -17.332 7.255 -14.672 5.207 C-13 4 -13 4 -10 4 C-10 3.34 -10 2.68 -10 2 C-8.712 1.47 -7.42 0.951 -6.125 0.438 C-5.406 0.147 -4.686 -0.143 -3.945 -0.441 C-2 -1 -2 -1 0 0 Z " fill="#12110F" transform="translate(156,699)"/>
<path d="M0 0 C1.65 0 3.3 0 5 0 C2.781 4.438 -0.355 7.459 -3.867 10.867 C-6.592 13.592 -9.075 16.487 -11.555 19.434 C-13 21 -13 21 -15 22 C-15 21.01 -15 20.02 -15 19 C-14.34 19 -13.68 19 -13 19 C-13 18.01 -13 17.02 -13 16 C-12.01 16 -11.02 16 -10 16 C-10 13.69 -10 11.38 -10 9 C-6.535 8.505 -6.535 8.505 -3 8 C-2.67 6.35 -2.34 4.7 -2 3 C-1.34 3 -0.68 3 0 3 C0 2.01 0 1.02 0 0 Z " fill="#2B0806" transform="translate(842,120)"/>
<path d="M0 0 C14.85 0 29.7 0 45 0 C45 0.66 45 1.32 45 2 C44.34 2 43.68 2 43 2 C42.67 2.99 42.34 3.98 42 5 C37.38 5 32.76 5 28 5 C28 4.67 28 4.34 28 4 C31.63 4 35.26 4 39 4 C39 3.01 39 2.02 39 1 C26.13 1 13.26 1 0 1 C0 0.67 0 0.34 0 0 Z " fill="#0E1115" transform="translate(900,389)"/>
<path d="M0 0 C3.534 1.178 3.771 1.853 5.625 4.938 C8.609 9.615 12.076 13.587 15.852 17.641 C18.014 20.015 20.019 22.473 22 25 C18.814 23.604 16.761 21.954 14.375 19.438 C11.955 16.86 11.955 16.86 9 15 C8.67 14.01 8.34 13.02 8 12 C7.01 11.67 6.02 11.34 5 11 C2 7.556 2 7.556 2 5 C1.34 5 0.68 5 0 5 C0 4.34 0 3.68 0 3 C-1.65 3 -3.3 3 -5 3 C-4.361 2.691 -3.721 2.381 -3.062 2.062 C-1.064 1.165 -1.064 1.165 0 0 Z " fill="#14171A" transform="translate(104,86)"/>
<path d="M0 0 C2.948 2.373 3.497 4.275 4 8 C3.01 8 2.02 8 1 8 C0.34 6.02 -0.32 4.04 -1 2 C-7.276 2.279 -10.986 3.209 -16 7 C-16.66 7 -17.32 7 -18 7 C-17.088 3.25 -16.285 2.175 -12.938 0.125 C-8.666 -1.451 -4.338 -1.328 0 0 Z " fill="#1A2127" transform="translate(741,155)"/>
<path d="M0 0 C-5.61 3.638 -11.342 6.868 -17.312 9.875 C-18.11 10.29 -18.907 10.705 -19.729 11.133 C-20.495 11.52 -21.261 11.906 -22.051 12.305 C-22.738 12.655 -23.426 13.006 -24.134 13.367 C-26 14 -26 14 -29 13 C-27.642 10.285 -25.811 9.995 -23.104 8.896 C-20.837 7.93 -18.671 6.84 -16.484 5.703 C-15.708 5.302 -14.932 4.901 -14.133 4.488 C-12.526 3.653 -10.921 2.812 -9.32 1.965 C-8.164 1.371 -8.164 1.371 -6.984 0.766 C-6.291 0.402 -5.597 0.039 -4.882 -0.335 C-3 -1 -3 -1 0 0 Z " fill="#F67E12" transform="translate(814,397)"/>
<path d="M0 0 C4.448 0.532 6.974 2.171 10.5 4.875 C13.237 6.958 15.859 8.919 18.844 10.633 C19.911 11.31 19.911 11.31 21 12 C21 12.66 21 13.32 21 14 C15.093 13.623 11.669 11.028 7.125 7.562 C6.437 7.059 5.748 6.556 5.039 6.037 C1.327 3.264 1.327 3.264 0 2 C0 1.34 0 0.68 0 0 Z " fill="#3D4449" transform="translate(253,319)"/>
<path d="M0 0 C-0.487 4.383 -1.834 6.032 -5 9 C-5.33 9.99 -5.66 10.98 -6 12 C-8.217 13.59 -10.579 14.723 -13 16 C-12.688 13.625 -12.688 13.625 -12 11 C-11.01 10.34 -10.02 9.68 -9 9 C-7.994 7.337 -6.994 5.67 -6 4 C-2.432 0 -2.432 0 0 0 Z M-16 16 C-15.01 16.33 -14.02 16.66 -13 17 C-13.99 17.66 -14.98 18.32 -16 19 C-16 18.01 -16 17.02 -16 16 Z " fill="#240701" transform="translate(928,195)"/>
<path d="M0 0 C-0.631 2.945 -1.378 5.448 -3 8 C-5.129 8.977 -5.129 8.977 -7.562 9.625 C-9.947 10.24 -9.947 10.24 -12 11 C-12.33 11.66 -12.66 12.32 -13 13 C-17.106 14.472 -19.826 15.299 -24 14 C-23.099 13.553 -23.099 13.553 -22.18 13.098 C-19.473 11.755 -16.768 10.409 -14.062 9.062 C-13.117 8.594 -12.171 8.125 -11.197 7.643 C-9.849 6.971 -9.849 6.971 -8.473 6.285 C-7.224 5.665 -7.224 5.665 -5.949 5.031 C-4.052 4.15 -4.052 4.15 -3 3 C-3.66 2.34 -4.32 1.68 -5 1 C-2 0 -2 0 0 0 Z " fill="#540F01" transform="translate(816,394)"/>
<path d="M0 0 C4.95 0 9.9 0 15 0 C15 0.99 15 1.98 15 3 C5.013 4.257 -4.956 4.094 -15 4 C-15 3.67 -15 3.34 -15 3 C-14.001 2.951 -13.002 2.902 -11.973 2.852 C-10.682 2.777 -9.392 2.702 -8.062 2.625 C-6.775 2.555 -5.487 2.486 -4.16 2.414 C-3.117 2.277 -2.074 2.141 -1 2 C-0.67 1.34 -0.34 0.68 0 0 Z " fill="#2C343B" transform="translate(924,390)"/>
<path d="M0 0 C0 3 0 3 -1.375 4.5 C-1.911 4.995 -2.447 5.49 -3 6 C-3.99 7.485 -3.99 7.485 -5 9 C-5.763 9.454 -6.526 9.907 -7.312 10.375 C-10.372 12.225 -12.511 14.447 -15 17 C-16.312 18.028 -17.637 19.041 -19 20 C-19 19.01 -19 18.02 -19 17 C-18.34 17 -17.68 17 -17 17 C-17 16.34 -17 15.68 -17 15 C-16.505 14.526 -16.01 14.051 -15.5 13.562 C-13.654 12 -13.654 12 -14 9 C-12.763 8.443 -12.763 8.443 -11.5 7.875 C-7.323 5.637 -3.72 2.917 0 0 Z " fill="#250601" transform="translate(909,215)"/>
<path d="M0 0 C0.99 0.33 1.98 0.66 3 1 C-0.813 5.576 -4.789 9.823 -9.031 14 C-11.855 16.869 -14.423 19.908 -17 23 C-17.33 22.01 -17.66 21.02 -18 20 C-17.34 20 -16.68 20 -16 20 C-15.67 18.68 -15.34 17.36 -15 16 C-14.34 16 -13.68 16 -13 16 C-12.67 14.35 -12.34 12.7 -12 11 C-11.361 10.876 -10.721 10.753 -10.062 10.625 C-9.382 10.419 -8.701 10.212 -8 10 C-7.67 9.34 -7.34 8.68 -7 8 C-6.34 8 -5.68 8 -5 8 C-4.67 7.01 -4.34 6.02 -4 5 C-3.021 3.98 -2.021 2.979 -1 2 C-0.67 1.34 -0.34 0.68 0 0 Z " fill="#580502" transform="translate(226,774)"/>
<path d="M0 0 C0.33 0.66 0.66 1.32 1 2 C0.143 2.326 -0.714 2.652 -1.598 2.988 C-8.918 5.762 -8.918 5.762 -16.125 8.812 C-19 10 -19 10 -22 10 C-21 7 -21 7 -19.174 5.909 C-18.007 5.42 -18.007 5.42 -16.816 4.922 C-15.549 4.388 -15.549 4.388 -14.256 3.844 C-13.367 3.483 -12.478 3.122 -11.562 2.75 C-10.235 2.185 -10.235 2.185 -8.881 1.609 C-2.264 -1.132 -2.264 -1.132 0 0 Z " fill="#983006" transform="translate(786,410)"/>
<path d="M0 0 C0.66 0.33 1.32 0.66 2 1 C-16.301 17.867 -16.301 17.867 -21 21 C-21 18 -21 18 -18.691 15.547 C-17.657 14.605 -16.613 13.673 -15.562 12.75 C-15.022 12.265 -14.482 11.78 -13.925 11.28 C-9.451 7.303 -4.813 3.561 0 0 Z " fill="#F27B15" transform="translate(255,753)"/>
<path d="M0 0 C-0.33 1.32 -0.66 2.64 -1 4 C-1.66 4 -2.32 4 -3 4 C-3 4.66 -3 5.32 -3 6 C-3.66 6 -4.32 6 -5 6 C-5 6.66 -5 7.32 -5 8 C-5.71 8.121 -6.421 8.242 -7.152 8.367 C-8.071 8.535 -8.991 8.702 -9.938 8.875 C-11.312 9.119 -11.312 9.119 -12.715 9.367 C-13.469 9.576 -14.223 9.785 -15 10 C-15.33 10.66 -15.66 11.32 -16 12 C-16.66 11.34 -17.32 10.68 -18 10 C-15.38 8.326 -12.753 6.662 -10.125 5 C-9.379 4.523 -8.632 4.046 -7.863 3.555 C-6.79 2.878 -6.79 2.878 -5.695 2.188 C-5.035 1.769 -4.376 1.35 -3.696 0.918 C-2 0 -2 0 0 0 Z " fill="#4E0D02" transform="translate(174,660)"/>
<path d="M0 0 C3.033 -0.229 5.974 -0.354 9 0 C11.062 1.875 11.062 1.875 12 4 C12 4.66 12 5.32 12 6 C8.37 6.33 4.74 6.66 1 7 C1.99 5.35 2.98 3.7 4 2 C2.35 2 0.7 2 -1 2 C-0.67 1.34 -0.34 0.68 0 0 Z " fill="#5B6971" transform="translate(731,157)"/>
<path d="M0 0 C3.872 1.482 5.186 3.473 7.25 7 C10.736 12.724 14.709 17.862 19 23 C18.67 23.66 18.34 24.32 18 25 C10.776 17.31 4.44 9.62 0 0 Z " fill="#090E11" transform="translate(265,201)"/>
<path d="M0 0 C-0.94 0.381 -0.94 0.381 -1.898 0.77 C-2.716 1.114 -3.533 1.458 -4.375 1.812 C-5.187 2.149 -5.999 2.485 -6.836 2.832 C-9.301 3.944 -9.301 3.944 -11 7 C-11.39 8.99 -11.732 10.99 -12 13 C-9.69 13 -7.38 13 -5 13 C-5.66 13.66 -6.32 14.32 -7 15 C-12.455 14.545 -12.455 14.545 -15 12 C-15.625 9.25 -15.625 9.25 -15 6 C-10.746 1.726 -6.119 -1.899 0 0 Z " fill="#2F3537" transform="translate(723,163)"/>
<path d="M0 0 C0 3.618 -0.863 4.206 -3 7 C-3.712 8.648 -4.39 10.312 -5 12 C-5.33 11.34 -5.66 10.68 -6 10 C-6.454 10.495 -6.907 10.99 -7.375 11.5 C-9 13 -9 13 -11 13 C-11 13.66 -11 14.32 -11 15 C-12.65 15.33 -14.3 15.66 -16 16 C-11.179 10.037 -5.775 5.033 0 0 Z " fill="#4C0B01" transform="translate(240,768)"/>
<path d="M0 0 C1.98 0.99 1.98 0.99 4 2 C4 2.66 4 3.32 4 4 C7.3 4.66 10.6 5.32 14 6 C14.33 8.31 14.66 10.62 15 13 C13.68 12.34 12.36 11.68 11 11 C11 10.34 11 9.68 11 9 C10.237 9.062 9.474 9.124 8.688 9.188 C6 9 6 9 4.188 7.625 C3 6 3 6 3 4 C2.01 3.67 1.02 3.34 0 3 C0 2.01 0 1.02 0 0 Z " fill="#2D0701" transform="translate(770,626)"/>
<path d="M0 0 C0.99 0.33 1.98 0.66 3 1 C-0.287 3.174 -3.58 5.338 -6.875 7.5 C-7.812 8.12 -8.749 8.74 -9.715 9.379 C-10.611 9.965 -11.507 10.552 -12.43 11.156 C-13.257 11.701 -14.085 12.246 -14.937 12.807 C-17 14 -17 14 -19 14 C-19 13.34 -19 12.68 -19 12 C-17.471 10.779 -17.471 10.779 -15.352 9.434 C-14.215 8.706 -14.215 8.706 -13.055 7.963 C-12.253 7.46 -11.451 6.956 -10.625 6.438 C-9.434 5.677 -9.434 5.677 -8.219 4.9 C-2.421 1.211 -2.421 1.211 0 0 Z " fill="#F8C32B" transform="translate(175,656)"/>
<path d="M0 0 C0.99 0 1.98 0 3 0 C3 0.99 3 1.98 3 3 C1.68 3 0.36 3 -1 3 C-0.67 4.32 -0.34 5.64 0 7 C-1.121 7.839 -2.247 8.671 -3.375 9.5 C-4.001 9.964 -4.628 10.428 -5.273 10.906 C-7 12 -7 12 -9 12 C-9 10.68 -9 9.36 -9 8 C-8.34 8 -7.68 8 -7 8 C-6.67 6.68 -6.34 5.36 -6 4 C-5.34 4 -4.68 4 -4 4 C-3.67 3.34 -3.34 2.68 -3 2 C-2.01 2 -1.02 2 0 2 C0 1.34 0 0.68 0 0 Z " fill="#430901" transform="translate(165,656)"/>
<path d="M0 0 C0.66 0.33 1.32 0.66 2 1 C0.917 1.835 0.917 1.835 -0.188 2.688 C-3.06 4.964 -3.06 4.964 -5.625 7.688 C-8.749 10.729 -10.34 10.989 -14.688 11.062 C-15.781 11.042 -16.874 11.021 -18 11 C-17.67 9.68 -17.34 8.36 -17 7 C-16.67 7.66 -16.34 8.32 -16 9 C-14.35 9 -12.7 9 -11 9 C-11 8.34 -11 7.68 -11 7 C-9.928 6.402 -8.855 5.804 -7.75 5.188 C-5.01 3.626 -2.467 1.974 0 0 Z " fill="#480F00" transform="translate(875,244)"/>
<path d="M0 0 C-3.266 1.676 -6.538 3.339 -9.812 5 C-10.741 5.477 -11.67 5.954 -12.627 6.445 C-13.52 6.896 -14.412 7.348 -15.332 7.812 C-16.154 8.231 -16.976 8.65 -17.823 9.082 C-20 10 -20 10 -23 10 C-20.873 7.661 -18.938 6.193 -16 5 C-15.01 5 -14.02 5 -13 5 C-13 4.34 -13 3.68 -13 3 C-11.68 2.67 -10.36 2.34 -9 2 C-9 1.34 -9 0.68 -9 0 C-3.375 -1.125 -3.375 -1.125 0 0 Z " fill="#650C02" transform="translate(811,397)"/>
<path d="M0 0 C0 4.004 -1.738 5.778 -4.004 8.965 C-5.225 10.968 -5.225 10.968 -4.652 13.254 C-4.437 13.83 -4.222 14.406 -4 15 C-4.99 15.33 -5.98 15.66 -7 16 C-7 15.01 -7 14.02 -7 13 C-8.32 13.99 -9.64 14.98 -11 16 C-11.66 15.67 -12.32 15.34 -13 15 C-12.397 14.336 -11.793 13.672 -11.172 12.988 C-10.373 12.105 -9.573 11.222 -8.75 10.312 C-7.961 9.442 -7.172 8.572 -6.359 7.676 C-4.155 5.176 -2.059 2.621 0 0 Z " fill="#571003" transform="translate(797,176)"/>
<path d="M0 0 C1.339 1.662 2.671 3.33 4 5 C4.577 5.66 5.155 6.32 5.75 7 C7.302 9.483 7.24 11.125 7 14 C3.618 12.6 1.721 11.269 0 8 C-0.245 5.28 -0.137 2.742 0 0 Z " fill="#21262A" transform="translate(229,141)"/>
<path d="M0 0 C4.667 4.667 9.333 9.333 14 14 C13.34 14.66 12.68 15.32 12 16 C10.68 15.34 9.36 14.68 8 14 C8 13.34 8 12.68 8 12 C7.34 12 6.68 12 6 12 C6 10.68 6 9.36 6 8 C5.34 8 4.68 8 4 8 C0 2.588 0 2.588 0 0 Z " fill="#7F1B00" transform="translate(783,646)"/>
<path d="M0 0 C1.65 0 3.3 0 5 0 C5.33 0.99 5.66 1.98 6 3 C6.99 3.33 7.98 3.66 9 4 C8.01 5.32 7.02 6.64 6 8 C3.69 6.68 1.38 5.36 -1 4 C-0.67 2.68 -0.34 1.36 0 0 Z " fill="#1D2428" transform="translate(132,210)"/>
<path d="M0 0 C0.33 1.32 0.66 2.64 1 4 C-2.3 4.66 -5.6 5.32 -9 6 C-8.67 8.31 -8.34 10.62 -8 13 C-8.99 13 -9.98 13 -11 13 C-11.343 9.309 -11.278 7.453 -9.312 4.25 C-6.494 1.507 -3.991 0 0 0 Z " fill="#495155" transform="translate(722,163)"/>
<path d="M0 0 C0.66 0.33 1.32 0.66 2 1 C-0.249 3.418 -2.499 5.834 -4.75 8.25 C-5.384 8.932 -6.018 9.614 -6.672 10.316 C-9.731 13.598 -12.795 16.859 -16 20 C-15.411 16.576 -14.261 14.858 -11.875 12.363 C-11.251 11.704 -10.627 11.045 -9.984 10.365 C-9.002 9.349 -9.002 9.349 -8 8.312 C-7.345 7.623 -6.69 6.934 -6.016 6.225 C-1.887 1.887 -1.887 1.887 0 0 Z " fill="#F6AF2F" transform="translate(214,791)"/>
<path d="M0 0 C0.99 0.33 1.98 0.66 3 1 C1.252 2.606 -0.498 4.21 -2.25 5.812 C-2.987 6.49 -2.987 6.49 -3.738 7.182 C-6.395 9.608 -9.075 11.903 -12 14 C-12.66 13.67 -13.32 13.34 -14 13 C-11.273 9.394 -8.447 6.473 -4.938 3.625 C-4.08 2.916 -3.223 2.207 -2.34 1.477 C-1.568 0.989 -0.796 0.502 0 0 Z " fill="#FBCC37" transform="translate(905,211)"/>
<path d="M0 0 C0.99 0.33 1.98 0.66 3 1 C0.589 3.132 -1.83 5.254 -4.25 7.375 C-5.273 8.28 -5.273 8.28 -6.316 9.203 C-6.98 9.783 -7.644 10.363 -8.328 10.961 C-8.936 11.495 -9.543 12.029 -10.169 12.58 C-12.029 14.023 -13.864 15.023 -16 16 C-16 15.34 -16 14.68 -16 14 C-15.34 14 -14.68 14 -14 14 C-13.67 13.01 -13.34 12.02 -13 11 C-12.34 11 -11.68 11 -11 11 C-10.67 10.01 -10.34 9.02 -10 8 C-9.01 8 -8.02 8 -7 8 C-7 7.34 -7 6.68 -7 6 C-6.34 6 -5.68 6 -5 6 C-5 5.01 -5 4.02 -5 3 C-4.01 3 -3.02 3 -2 3 C-2 2.34 -2 1.68 -2 1 C-1.34 0.67 -0.68 0.34 0 0 Z " fill="#790E02" transform="translate(915,200)"/>
<path d="M0 0 C-5.046 5.785 -5.046 5.785 -9.875 6.875 C-11.422 6.937 -11.422 6.937 -13 7 C-13 6.34 -13 5.68 -13 5 C-12.34 5 -11.68 5 -11 5 C-11 4.34 -11 3.68 -11 3 C-10.34 3 -9.68 3 -9 3 C-9 2.34 -9 1.68 -9 1 C-3.375 -1.125 -3.375 -1.125 0 0 Z " fill="#1A0300" transform="translate(182,661)"/>
<path d="M0 0 C-1.886 1.347 -3.784 2.677 -5.688 4 C-6.743 4.742 -7.799 5.485 -8.887 6.25 C-12.019 8.01 -13.496 8.416 -17 8 C-17 7.34 -17 6.68 -17 6 C-11.375 3 -11.375 3 -8 3 C-8 2.34 -8 1.68 -8 1 C-4.856 -0.909 -3.479 -1.045 0 0 Z " fill="#4A0A03" transform="translate(198,642)"/>
<path d="M0 0 C0.33 0.66 0.66 1.32 1 2 C0.34 2 -0.32 2 -1 2 C-1 2.66 -1 3.32 -1 4 C-1.99 4.33 -2.98 4.66 -4 5 C-5.338 6.663 -6.672 8.329 -8 10 C-8.66 10 -9.32 10 -10 10 C-10 10.66 -10 11.32 -10 12 C-10.99 12 -11.98 12 -13 12 C-11.829 8.667 -10.884 6.136 -8 4 C-5.312 3.312 -5.312 3.312 -3 3 C-3 2.34 -3 1.68 -3 1 C-2.01 0.67 -1.02 0.34 0 0 Z " fill="#2B0801" transform="translate(909,204)"/>
<path d="M0 0 C1.65 0 3.3 0 5 0 C4.064 1.106 3.126 2.209 2.188 3.312 C1.404 4.235 1.404 4.235 0.605 5.176 C-0.872 6.854 -2.4 8.439 -4 10 C-4.33 7.36 -4.66 4.72 -5 2 C-3.35 2 -1.7 2 0 2 C0 1.34 0 0.68 0 0 Z " fill="#1E0B07" transform="translate(807,158)"/>
<path d="M0 0 C0.99 0.66 1.98 1.32 3 2 C1.068 3.818 -0.87 5.63 -2.812 7.438 C-3.633 8.212 -3.633 8.212 -4.471 9.002 C-6.961 11.311 -8.741 12.914 -12 14 C-12 13.01 -12 12.02 -12 11 C-11.01 11 -10.02 11 -9 11 C-8.897 10.381 -8.794 9.763 -8.688 9.125 C-8 7 -8 7 -5 5 C-4.01 5 -3.02 5 -2 5 C-1.34 3.35 -0.68 1.7 0 0 Z " fill="#510A01" transform="translate(249,754)"/>
<path d="M0 0 C3.124 0.606 5.134 1.6 7.672 3.504 C8.336 3.997 9 4.49 9.684 4.998 C10.366 5.514 11.047 6.031 11.75 6.562 C12.447 7.083 13.145 7.603 13.863 8.139 C15.58 9.42 17.29 10.709 19 12 C18.01 12.495 18.01 12.495 17 13 C16.336 12.529 15.672 12.059 14.988 11.574 C14.105 10.952 13.222 10.329 12.312 9.688 C11.442 9.073 10.572 8.458 9.676 7.824 C7.04 5.975 7.04 5.975 4.293 4.457 C2 3 2 3 0 0 Z " fill="#191E20" transform="translate(231,224)"/>
<path d="M0 0 C0 3 0 3 -1 6 C-1.784 6.289 -2.567 6.577 -3.375 6.875 C-6.227 7.785 -6.227 7.785 -7.5 10.625 C-8.243 11.801 -8.243 11.801 -9 13 C-11.688 13.312 -11.688 13.312 -14 13 C-9.556 8.413 -4.798 4.212 0 0 Z " fill="#510B01" transform="translate(255,755)"/>
<path d="M0 0 C0.99 0 1.98 0 3 0 C3 0.66 3 1.32 3 2 C3.66 2 4.32 2 5 2 C5 2.66 5 3.32 5 4 C6.65 4.33 8.3 4.66 10 5 C9.67 5.66 9.34 6.32 9 7 C5.625 7.125 5.625 7.125 2 7 C0 5 0 5 -0.125 2.375 C-0.084 1.591 -0.043 0.808 0 0 Z " fill="#4B1506" transform="translate(789,587)"/>
<path d="M0 0 C1.98 0 3.96 0 6 0 C6 0.66 6 1.32 6 2 C6.66 2 7.32 2 8 2 C8.33 3.65 8.66 5.3 9 7 C5.514 6.354 2.875 5.076 0 3 C0 2.01 0 1.02 0 0 Z " fill="#260A03" transform="translate(742,575)"/>
<path d="M0 0 C0.33 0.66 0.66 1.32 1 2 C-0.25 4.375 -0.25 4.375 -2 7 C-2.65 8.114 -2.65 8.114 -3.312 9.25 C-5.651 11.675 -7.724 11.709 -11 12 C-7.491 7.816 -3.919 3.804 0 0 Z " fill="#741803" transform="translate(872,96)"/>
<path d="M0 0 C0.33 0.99 0.66 1.98 1 3 C0.01 3.33 -0.98 3.66 -2 4 C-1.794 4.619 -1.588 5.237 -1.375 5.875 C-1.251 6.576 -1.127 7.278 -1 8 C-3.762 10.762 -6.207 10.579 -10 11 C-6.792 7.194 -3.593 3.454 0 0 Z " fill="#530E02" transform="translate(223,784)"/>
<path d="M0 0 C4.904 1.168 7.295 3.026 10.609 6.602 C12.232 8.233 13.856 9.175 16 10 C13.509 11.245 12.589 10.777 10 10 C10 9.34 10 8.68 10 8 C8.68 8.33 7.36 8.66 6 9 C5.753 8.196 5.505 7.391 5.25 6.562 C4.278 3.829 4.278 3.829 1.875 3.188 C1.256 3.126 0.638 3.064 0 3 C0 2.01 0 1.02 0 0 Z " fill="#340804" transform="translate(800,667)"/>
<path d="M0 0 C6.678 2.226 11.473 9.844 16 15 C13 15 13 15 11.466 13.838 C10.937 13.306 10.408 12.775 9.863 12.227 C9.286 11.649 8.71 11.072 8.115 10.477 C7.52 9.866 6.925 9.255 6.312 8.625 C5.706 8.022 5.099 7.418 4.475 6.797 C0 2.267 0 2.267 0 0 Z " fill="#F7C640" transform="translate(798,660)"/>
<path d="M0 0 C0.66 0 1.32 0 2 0 C1.523 1.459 1.043 2.917 0.562 4.375 C0.296 5.187 0.029 5.999 -0.246 6.836 C-1 9 -1 9 -2 11 C-3.32 10.67 -4.64 10.34 -6 10 C-5.01 7.69 -4.02 5.38 -3 3 C-2.34 3 -1.68 3 -1 3 C-0.67 2.01 -0.34 1.02 0 0 Z " fill="#280D05" transform="translate(839,133)"/>
<path d="M0 0 C0 2 0 2 -1.812 4.062 C-6.363 6.829 -10.761 6.817 -16 7 C-13.737 4.737 -11.971 4.073 -9 2.938 C-1.374 0 -1.374 0 0 0 Z " fill="#350800" transform="translate(783,413)"/>
<path d="M0 0 C0.99 0 1.98 0 3 0 C2.67 1.32 2.34 2.64 2 4 C0.68 4.33 -0.64 4.66 -2 5 C-2 5.66 -2 6.32 -2 7 C-3.98 7.33 -5.96 7.66 -8 8 C-8 7.01 -8 6.02 -8 5 C-7.237 4.732 -6.474 4.464 -5.688 4.188 C-2.996 3.191 -2.996 3.191 -1.375 1.375 C-0.921 0.921 -0.467 0.467 0 0 Z " fill="#210500" transform="translate(800,395)"/>
<path d="M0 0 C0.33 0.99 0.66 1.98 1 3 C4.3 2.67 7.6 2.34 11 2 C11 2.99 11 3.98 11 5 C7.7 5.33 4.4 5.66 1 6 C1 5.34 1 4.68 1 4 C0.34 4 -0.32 4 -1 4 C-0.67 2.68 -0.34 1.36 0 0 Z " fill="#300A01" transform="translate(856,252)"/>
<path d="M0 0 C1.114 0.155 1.114 0.155 2.25 0.312 C1.438 2.25 1.438 2.25 0.25 4.312 C-0.74 4.643 -1.73 4.972 -2.75 5.312 C-4.456 6.939 -6.128 8.603 -7.75 10.312 C-7.178 5.308 -5.485 0.623 0 0 Z " fill="#220401" transform="translate(243.75,767.6875)"/>
<path d="M0 0 C1.083 0.371 1.083 0.371 2.188 0.75 C2.188 1.41 2.188 2.07 2.188 2.75 C1.489 3.027 0.79 3.304 0.07 3.59 C-0.84 3.952 -1.75 4.314 -2.688 4.688 C-3.592 5.047 -4.497 5.407 -5.43 5.777 C-7.774 6.699 -7.774 6.699 -9.812 7.75 C-8.034 3.222 -5.154 -0.458 0 0 Z " fill="#230701" transform="translate(178.8125,648.25)"/>
<path d="M0 0 C0.986 0.209 1.972 0.418 2.988 0.633 C3.982 0.836 4.976 1.04 6 1.25 C6.759 1.418 7.519 1.585 8.301 1.758 C8.301 2.418 8.301 3.078 8.301 3.758 C6.53 3.812 4.759 3.851 2.988 3.883 C1.509 3.918 1.509 3.918 0 3.953 C-2.699 3.758 -2.699 3.758 -5.699 1.758 C-2.699 -0.242 -2.699 -0.242 0 0 Z " fill="#0D1013" transform="translate(118.69921875,496.2421875)"/>
<path d="M0 0 C0.33 0.99 0.66 1.98 1 3 C0.67 3.66 0.34 4.32 0 5 C-0.66 5 -1.32 5 -2 5 C-2 5.99 -2 6.98 -2 8 C-2.639 8.268 -3.279 8.536 -3.938 8.812 C-6.331 9.887 -6.331 9.887 -7 13 C-8.32 12.67 -9.64 12.34 -11 12 C-10.374 11.385 -9.747 10.77 -9.102 10.137 C-8.284 9.328 -7.467 8.52 -6.625 7.688 C-5.407 6.487 -5.407 6.487 -4.164 5.262 C-1.874 3 -1.874 3 0 0 Z " fill="#5B1002" transform="translate(212,795)"/>
<path d="M0 0 C0 0.99 0 1.98 0 3 C-1.969 4.605 -1.969 4.605 -4.5 6.188 C-5.335 6.717 -6.171 7.247 -7.031 7.793 C-7.681 8.191 -8.331 8.59 -9 9 C-9.33 8.34 -9.66 7.68 -10 7 C-9.34 7 -8.68 7 -8 7 C-7.67 5.35 -7.34 3.7 -7 2 C-4.69 1.34 -2.38 0.68 0 0 Z " fill="#2A0601" transform="translate(220,793)"/>
<path d="M0 0 C0.799 0.009 1.598 0.018 2.422 0.027 C3.025 0.039 3.628 0.051 4.25 0.062 C4.25 0.722 4.25 1.383 4.25 2.062 C1.101 3.112 -1.138 3.164 -4.438 3.125 C-5.431 3.116 -6.425 3.107 -7.449 3.098 C-8.588 3.08 -8.588 3.08 -9.75 3.062 C-8.75 1.062 -8.75 1.062 -6.984 0.441 C-4.608 0.039 -2.408 -0.035 0 0 Z " fill="#0D1013" transform="translate(222.75,529.9375)"/>
<path d="M0 0 C1.32 0.33 2.64 0.66 4 1 C4 1.99 4 2.98 4 4 C5.32 4.33 6.64 4.66 8 5 C8 5.66 8 6.32 8 7 C9.32 7.66 10.64 8.32 12 9 C11.67 10.32 11.34 11.64 11 13 C9.796 11.503 8.591 10.005 7.387 8.508 C5.877 6.747 5.877 6.747 3 5 C3 4.34 3 3.68 3 3 C2.34 3 1.68 3 1 3 C0.67 2.01 0.34 1.02 0 0 Z " fill="#6A1302" transform="translate(798,658)"/>
<path d="M0 0 C0.66 0 1.32 0 2 0 C1.67 0.99 1.34 1.98 1 3 C0.34 3 -0.32 3 -1 3 C-1 3.66 -1 4.32 -1 5 C-1.66 5 -2.32 5 -3 5 C-3.33 6.65 -3.66 8.3 -4 10 C-4.66 10 -5.32 10 -6 10 C-6 7.69 -6 5.38 -6 3 C-5.196 2.691 -4.391 2.381 -3.562 2.062 C-1.109 1.237 -1.109 1.237 0 0 Z " fill="#3D0B00" transform="translate(893,227)"/>
<path d="M0 0 C1.134 0.021 2.269 0.041 3.438 0.062 C2.75 2 2.75 2 1.438 4.062 C-1.188 4.812 -1.188 4.812 -3.562 5.062 C-4.125 3.125 -4.125 3.125 -4.562 1.062 C-3.562 0.062 -3.562 0.062 0 0 Z " fill="#77848C" transform="translate(731.5625,158.9375)"/>
<path d="M0 0 C0.985 0.009 1.97 0.018 2.984 0.027 C4.106 0.045 4.106 0.045 5.25 0.062 C5.25 0.393 5.25 0.722 5.25 1.062 C4.67 1.088 4.09 1.114 3.492 1.141 C-2.178 1.552 -5.236 2.649 -9.75 6.062 C-10.41 6.062 -11.07 6.062 -11.75 6.062 C-11 3.625 -11 3.625 -9.75 1.062 C-6.551 -0.159 -3.39 -0.04 0 0 Z " fill="#293239" transform="translate(734.75,155.9375)"/>
<path d="M0 0 C2.97 0.495 2.97 0.495 6 1 C6 1.99 6 2.98 6 4 C7.32 4 8.64 4 10 4 C10 4.66 10 5.32 10 6 C10.66 6.33 11.32 6.66 12 7 C5.463 6.383 5.463 6.383 3.188 4.5 C2.796 4.005 2.404 3.51 2 3 C1.34 2.67 0.68 2.34 0 2 C0 1.34 0 0.68 0 0 Z " fill="#1A0400" transform="translate(794,589)"/>
<path d="M0 0 C0.66 0.66 1.32 1.32 2 2 C1.203 2.779 1.203 2.779 0.391 3.574 C-3.311 7.228 -6.872 10.829 -10 15 C-10.66 14.67 -11.32 14.34 -12 14 C-11.385 13.325 -10.77 12.649 -10.137 11.953 C-9.328 11.061 -8.52 10.169 -7.688 9.25 C-6.887 8.368 -6.086 7.487 -5.262 6.578 C-3.391 4.446 -1.659 2.298 0 0 Z " fill="#F0B04A" transform="translate(793,178)"/>
<path d="M0 0 C1 2 1 2 0.438 4.438 C-1.462 7.823 -3.419 8.657 -7 10 C-7.66 9.67 -8.32 9.34 -9 9 C-6.03 6.03 -3.06 3.06 0 0 Z " fill="#4A0B04" transform="translate(835,136)"/>
<path d="M0 0 C3.674 0.306 4.781 0.758 7.312 3.562 C8.148 4.769 8.148 4.769 9 6 C6.69 5.67 4.38 5.34 2 5 C1.34 3.35 0.68 1.7 0 0 Z " fill="#6E1501" transform="translate(774,640)"/>
<path d="M0 0 C1.454 0.031 1.454 0.031 2.938 0.062 C-0.173 3.35 -3.079 5.9 -7.062 8.062 C-7.062 7.403 -7.062 6.743 -7.062 6.062 C-6.403 6.062 -5.742 6.062 -5.062 6.062 C-4.918 5.258 -4.774 4.454 -4.625 3.625 C-3.846 0.078 -3.846 0.078 0 0 Z " fill="#700F01" transform="translate(896.0625,215.9375)"/>
<path d="M0 0 C0.516 0.268 1.031 0.536 1.562 0.812 C4.172 2.125 4.172 2.125 7.688 3.438 C8.781 3.953 9.874 4.469 11 5 C11.33 5.99 11.66 6.98 12 8 C11.67 8.66 11.34 9.32 11 10 C10.01 9.67 9.02 9.34 8 9 C8.66 9 9.32 9 10 9 C10 8.34 10 7.68 10 7 C9.278 6.773 8.556 6.546 7.812 6.312 C4.468 4.752 2.484 2.697 0 0 Z " fill="#242A2E" transform="translate(264,324)"/>
<path d="M0 0 C0.99 0.33 1.98 0.66 3 1 C0.03 4.3 -2.94 7.6 -6 11 C-6.33 9.68 -6.66 8.36 -7 7 C-6.34 7 -5.68 7 -5 7 C-4.67 5.68 -4.34 4.36 -4 3 C-3.34 3.33 -2.68 3.66 -2 4 C-2 3.34 -2 2.68 -2 2 C-1.34 2 -0.68 2 0 2 C0 1.34 0 0.68 0 0 Z " fill="#400B05" transform="translate(824,142)"/>
<path d="M0 0 C-0.125 1.812 -0.125 1.812 -1 4 C-5.966 7.2 -5.966 7.2 -9.199 6.574 C-9.793 6.385 -10.388 6.195 -11 6 C-9.546 4.994 -8.086 3.996 -6.625 3 C-5.407 2.165 -5.407 2.165 -4.164 1.312 C-2 0 -2 0 0 0 Z " fill="#791901" transform="translate(174,660)"/>
<path d="M0 0 C2.475 0.99 2.475 0.99 5 2 C5 3.65 5 5.3 5 7 C5.66 7 6.32 7 7 7 C6.67 8.65 6.34 10.3 6 12 C3.808 9.331 2.733 7.35 2 4 C1.363 2.652 0.704 1.314 0 0 Z " fill="#2D0A00" transform="translate(795,647)"/>
<path d="M0 0 C3.183 1.43 5.579 3.19 8.188 5.5 C8.882 6.108 9.577 6.717 10.293 7.344 C12 9 12 9 13 11 C9.817 9.57 7.421 7.81 4.812 5.5 C3.77 4.587 3.77 4.587 2.707 3.656 C1 2 1 2 0 0 Z " fill="#FBCF38" transform="translate(765,628)"/>
<path d="M0 0 C0.66 0.33 1.32 0.66 2 1 C0.638 6.295 -2.603 8.237 -7 11 C-5.221 6.956 -2.605 3.539 0 0 Z " fill="#632915" transform="translate(744,275)"/>
<path d="M0 0 C-0.952 1.006 -1.912 2.005 -2.875 3 C-3.409 3.557 -3.942 4.114 -4.492 4.688 C-6 6 -6 6 -8 6 C-7.75 3.625 -7.75 3.625 -7 1 C-4.127 -1.107 -3.467 -1.156 0 0 Z " fill="#5A0D01" transform="translate(237,769)"/>
<path d="M0 0 C0.66 0.33 1.32 0.66 2 1 C0.965 3.822 0.301 4.834 -2.375 6.312 C-5 7 -5 7 -9 6 C-6.03 4.02 -3.06 2.04 0 0 Z " fill="#721402" transform="translate(183,653)"/>
<path d="M0 0 C4.314 0.479 6.166 1.746 9 5 C8.34 5.66 7.68 6.32 7 7 C5.828 6.217 4.662 5.423 3.5 4.625 C2.85 4.184 2.201 3.743 1.531 3.289 C1.026 2.864 0.521 2.438 0 2 C0 1.34 0 0.68 0 0 Z " fill="#353D43" transform="translate(253,319)"/>
<path d="M0 0 C0.33 0.99 0.66 1.98 1 3 C0.34 3.577 -0.32 4.155 -1 4.75 C-3.443 6.997 -3.443 6.997 -3 11 C-4.98 11 -6.96 11 -9 11 C-8.602 10.541 -8.203 10.082 -7.793 9.609 C-5.089 6.477 -2.42 3.361 0 0 Z " fill="#510C02" transform="translate(807,165)"/>
<path d="M0 0 C-3.63 2.31 -7.26 4.62 -11 7 C-11.33 6.34 -11.66 5.68 -12 5 C-11.34 5 -10.68 5 -10 5 C-10 4.34 -10 3.68 -10 3 C-3.375 -1.125 -3.375 -1.125 0 0 Z " fill="#690E02" transform="translate(184,651)"/>
<path d="M0 0 C7.429 -0.286 7.429 -0.286 11 2 C11 2.33 11 2.66 11 3 C9.742 3.021 8.484 3.041 7.188 3.062 C6.48 3.074 5.772 3.086 5.043 3.098 C3 3 3 3 0 2 C0 1.34 0 0.68 0 0 Z " fill="#20252A" transform="translate(106,495)"/>
<path d="M0 0 C2 1 2 1 2 1 Z M-2 2 C-1.34 2.99 -0.68 3.98 0 5 C-1.32 6.32 -2.64 7.64 -4 9 C-5.32 7.68 -6.64 6.36 -8 5 C-6.68 5 -5.36 5 -4 5 C-4 4.34 -4 3.68 -4 3 C-3.34 2.67 -2.68 2.34 -2 2 Z " fill="#240A02" transform="translate(788,189)"/>
<path d="M0 0 C1.938 0.375 1.938 0.375 4 1 C5 3 5 3 4.062 6.125 C3.712 7.074 3.361 8.023 3 9 C2.01 9 1.02 9 0 9 C0 7.68 0 6.36 0 5 C0.66 5 1.32 5 2 5 C2 4.01 2 3.02 2 2 C1.34 2 0.68 2 0 2 C0 1.34 0 0.68 0 0 Z " fill="#300903" transform="translate(893,71)"/>
<path d="M0 0 C1.343 0.647 2.674 1.319 4 2 C4.908 2.433 5.815 2.866 6.75 3.312 C7.492 3.869 8.235 4.426 9 5 C9.312 7.688 9.312 7.688 9 10 C5.74 6.83 2.778 3.601 0 0 Z " fill="#A02302" transform="translate(780,639)"/>
<path d="M0 0 C1.65 0 3.3 0 5 0 C5 0.66 5 1.32 5 2 C6.145 2.217 6.145 2.217 7.312 2.438 C10 3 10 3 13 4 C13 4.66 13 5.32 13 6 C3.405 3.109 3.405 3.109 0 0 Z " fill="#430E01" transform="translate(838,545)"/>
<path d="M0 0 C0.33 0.66 0.66 1.32 1 2 C2.65 2 4.3 2 6 2 C6 1.34 6 0.68 6 0 C6.99 0.33 7.98 0.66 9 1 C7.938 2.5 7.938 2.5 6 4 C2.312 4.188 2.312 4.188 -1 4 C-0.67 2.68 -0.34 1.36 0 0 Z " fill="#5F1602" transform="translate(858,251)"/>
<path d="M0 0 C1 3 1 3 1 5 C-1.25 6.688 -1.25 6.688 -4 8 C-5.32 7.67 -6.64 7.34 -8 7 C-5.36 4.69 -2.72 2.38 0 0 Z " fill="#7A1501" transform="translate(895,222)"/>
<path d="M0 0 C0.66 0 1.32 0 2 0 C2 0.99 2 1.98 2 3 C2.66 3 3.32 3 4 3 C4 3.66 4 4.32 4 5 C2.039 6.389 0.038 7.726 -2 9 C-1.34 6.03 -0.68 3.06 0 0 Z " fill="#0C090A" transform="translate(785,177)"/>
<path d="M0 0 C1.207 0.031 1.207 0.031 2.438 0.062 C2.107 1.712 1.778 3.362 1.438 5.062 C-0.5 4.75 -0.5 4.75 -2.562 4.062 C-2.893 3.072 -3.222 2.082 -3.562 1.062 C-2.562 0.062 -2.562 0.062 0 0 Z " fill="#411106" transform="translate(699.5625,664.9375)"/>
<path d="M0 0 C0.99 0 1.98 0 3 0 C3 0.66 3 1.32 3 2 C3.99 2 4.98 2 6 2 C7.75 4.375 7.75 4.375 9 7 C8.67 7.66 8.34 8.32 8 9 C6.664 7.691 5.331 6.377 4 5.062 C2.886 3.966 2.886 3.966 1.75 2.848 C0 1 0 1 0 0 Z " fill="#9F1D01" transform="translate(789,649)"/>
<path d="M0 0 C2.875 0.188 2.875 0.188 6 1 C7.375 3.562 7.375 3.562 8 6 C6.35 5.67 4.7 5.34 3 5 C3 4.01 3 3.02 3 2 C1.68 2.33 0.36 2.66 -1 3 C-0.67 2.01 -0.34 1.02 0 0 Z " fill="#4F1100" transform="translate(777,645)"/>
<path d="M0 0 C1.175 0.927 2.34 1.867 3.5 2.812 C4.15 3.335 4.799 3.857 5.469 4.395 C7 6 7 6 7 9 C5.825 8.073 4.66 7.133 3.5 6.188 C2.525 5.404 2.525 5.404 1.531 4.605 C0 3 0 3 0 0 Z " fill="#FBB81F" transform="translate(778,638)"/>
<path d="M0 0 C0.985 0.027 1.97 0.054 2.984 0.082 C3.732 0.117 4.48 0.152 5.25 0.188 C5.25 0.517 5.25 0.848 5.25 1.188 C1.95 1.188 -1.35 1.188 -4.75 1.188 C-5.08 2.507 -5.41 3.827 -5.75 5.188 C-7.07 4.527 -8.39 3.868 -9.75 3.188 C-6.477 0.218 -4.369 -0.156 0 0 Z " fill="#0F1418" transform="translate(97.75,491.8125)"/>
<path d="M0 0 C0.99 0 1.98 0 3 0 C3 1.32 3 2.64 3 4 C-1.62 4 -6.24 4 -11 4 C-11 3.67 -11 3.34 -11 3 C-7.37 3 -3.74 3 0 3 C0 2.01 0 1.02 0 0 Z " fill="#161D23" transform="translate(939,390)"/>
<path d="M0 0 C0.66 0.66 1.32 1.32 2 2 C-1.625 7.75 -1.625 7.75 -5 10 C-3.844 6.088 -2.645 3.125 0 0 Z " fill="#110805" transform="translate(709,320)"/>
<path d="M0 0 C0 0.99 0 1.98 0 3 C-2.532 5.357 -3.472 6 -7 6 C-7 6.66 -7 7.32 -7 8 C-8.32 7.67 -9.64 7.34 -11 7 C-7.388 4.564 -3.756 2.209 0 0 Z " fill="#811701" transform="translate(871,245)"/>
<path d="M0 0 C0.75 1.75 0.75 1.75 1 4 C-0.75 6.25 -0.75 6.25 -3 8 C-3.99 8 -4.98 8 -6 8 C-4.557 4.634 -2.667 2.49 0 0 Z " fill="#841701" transform="translate(886,230)"/>
<path d="M0 0 C1.65 0.33 3.3 0.66 5 1 C5.33 1.99 5.66 2.98 6 4 C5.01 4.33 4.02 4.66 3 5 C3 4.01 3 3.02 3 2 C1.68 2.99 0.36 3.98 -1 5 C-1.66 4.67 -2.32 4.34 -3 4 C-2.01 2.68 -1.02 1.36 0 0 Z " fill="#450D04" transform="translate(787,187)"/>
<path d="M0 0 C-3.96 1.65 -7.92 3.3 -12 5 C-12 4.01 -12 3.02 -12 2 C-11.01 2 -10.02 2 -9 2 C-9 1.34 -9 0.68 -9 0 C-3.375 -1.125 -3.375 -1.125 0 0 Z " fill="#3C4349" transform="translate(739,166)"/>
<path d="M0 0 C0.66 0.66 1.32 1.32 2 2 C1.34 2 0.68 2 0 2 C0 2.66 0 3.32 0 4 C-0.66 4 -1.32 4 -2 4 C-2.99 7.96 -2.99 7.96 -4 12 C-4.33 12 -4.66 12 -5 12 C-5.194 7.829 -5.014 4.711 -3 1 C-2.01 0.67 -1.02 0.34 0 0 Z " fill="#1C0701" transform="translate(855,111)"/>
<path d="M0 0 C0.99 0.33 1.98 0.66 3 1 C0.69 3.64 -1.62 6.28 -4 9 C-4.33 8.01 -4.66 7.02 -5 6 C-4.34 6 -3.68 6 -3 6 C-2.67 4.68 -2.34 3.36 -2 2 C-1.34 2 -0.68 2 0 2 C0 1.34 0 0.68 0 0 Z " fill="#6A1102" transform="translate(213,788)"/>
<path d="M0 0 C0.33 0.99 0.66 1.98 1 3 C0.67 3.66 0.34 4.32 0 5 C-0.66 5 -1.32 5 -2 5 C-2 5.66 -2 6.32 -2 7 C-3.65 7.33 -5.3 7.66 -7 8 C-6.021 6.854 -5.042 5.708 -4.062 4.562 C-3.517 3.924 -2.972 3.286 -2.41 2.629 C-1.632 1.73 -0.841 0.841 0 0 Z " fill="#6A0F01" transform="translate(231,776)"/>
<path d="M0 0 C3.26 3.17 6.222 6.399 9 10 C8.01 10 7.02 10 6 10 C6 9.34 6 8.68 6 8 C5.34 8 4.68 8 4 8 C0 2.588 0 2.588 0 0 Z " fill="#AD2102" transform="translate(783,646)"/>
<path d="M0 0 C2.64 0 5.28 0 8 0 C7.67 0.99 7.34 1.98 7 3 C5.02 3.33 3.04 3.66 1 4 C0.67 2.68 0.34 1.36 0 0 Z " fill="#220402" transform="translate(761,624)"/>
<path d="M0 0 C3.403 1.059 6.014 2.009 9 4 C9 4.66 9 5.32 9 6 C5.517 5.355 2.906 4.018 0 2 C0 1.34 0 0.68 0 0 Z " fill="#200803" transform="translate(758,586)"/>
<path d="M0 0 C3 1.125 3 1.125 5 2.125 C5 2.785 5 3.445 5 4.125 C0.781 3.646 -1.797 2.959 -5 0.125 C-3 -0.875 -3 -0.875 0 0 Z " fill="#23282B" transform="translate(171,426.875)"/>
<path d="M0 0 C2 1 2 1 3 3 C0.03 3.66 -2.94 4.32 -6 5 C-6 4.34 -6 3.68 -6 3 C-4.035 1.932 -2.031 0.934 0 0 Z " fill="#A93304" transform="translate(784,409)"/>
<path d="M0 0 C1.98 0 3.96 0 6 0 C6.33 1.98 6.66 3.96 7 6 C2.323 4.523 2.323 4.523 0.688 1.875 C0.461 1.256 0.234 0.637 0 0 Z " fill="#252728" transform="translate(890,388)"/>
<path d="M0 0 C0.557 0.268 1.114 0.536 1.688 0.812 C-3.455 6.384 -3.455 6.384 -7.312 6.812 C-7.312 4.812 -7.312 4.812 -5.062 2.125 C-2.312 -0.188 -2.312 -0.188 0 0 Z " fill="#3A0E00" transform="translate(884.3125,224.1875)"/>
<path d="M0 0 C0.99 0.33 1.98 0.66 3 1 C-0.96 4.465 -0.96 4.465 -5 8 C-5.33 7.01 -5.66 6.02 -6 5 C-5.01 5 -4.02 5 -3 5 C-3 4.01 -3 3.02 -3 2 C-2.01 2 -1.02 2 0 2 C0 1.34 0 0.68 0 0 Z " fill="#5B0D01" transform="translate(926,190)"/>
<path d="M0 0 C-2.312 2.062 -2.312 2.062 -5 4 C-5.99 3.67 -6.98 3.34 -8 3 C-8 2.34 -8 1.68 -8 1 C-4.933 -0.862 -3.403 -1.215 0 0 Z " fill="#290802" transform="translate(867,108)"/>
<path d="M0 0 C0.66 0.33 1.32 0.66 2 1 C-1.96 4.465 -1.96 4.465 -6 8 C-6.66 7.67 -7.32 7.34 -8 7 C-5.36 4.69 -2.72 2.38 0 0 Z " fill="#F28E20" transform="translate(255,753)"/>
<path d="M0 0 C3.787 1.488 5.774 3.62 8 7 C7.67 7.99 7.34 8.98 7 10 C5.827 8.714 4.662 7.421 3.5 6.125 C2.85 5.406 2.201 4.686 1.531 3.945 C0 2 0 2 0 0 Z " fill="#080E11" transform="translate(281,368)"/>
<path d="M0 0 C0 0.66 0 1.32 0 2 C-0.66 2 -1.32 2 -2 2 C-2.66 3.65 -3.32 5.3 -4 7 C-5.32 6.67 -6.64 6.34 -8 6 C-7.048 4.994 -6.088 3.995 -5.125 3 C-4.591 2.443 -4.058 1.886 -3.508 1.312 C-2 0 -2 0 0 0 Z " fill="#6E1802" transform="translate(928,195)"/>
<path d="M0 0 C0.66 0 1.32 0 2 0 C2.125 5.75 2.125 5.75 1 8 C-1.062 8.625 -1.062 8.625 -3 9 C-2.371 6.065 -1.376 3.66 0 1 C0 0.67 0 0.34 0 0 Z " fill="#2E0603" transform="translate(931,188)"/>
<path d="M0 0 C1.32 0 2.64 0 4 0 C4.66 1.65 5.32 3.3 6 5 C3.625 4.688 3.625 4.688 1 4 C0.34 3.01 -0.32 2.02 -1 1 C-0.67 0.67 -0.34 0.34 0 0 Z " fill="#410D01" transform="translate(793,661)"/>
<path d="M0 0 C0.66 0 1.32 0 2 0 C2.33 1.32 2.66 2.64 3 4 C3.66 4 4.32 4 5 4 C5 4.66 5 5.32 5 6 C3.35 6 1.7 6 0 6 C0 4.02 0 2.04 0 0 Z " fill="#360900" transform="translate(781,650)"/>
<path d="M0 0 C-3.858 2.153 -6.551 3.393 -11 3 C-10.34 2.67 -9.68 2.34 -9 2 C-9 1.34 -9 0.68 -9 0 C-3.375 -1.125 -3.375 -1.125 0 0 Z " fill="#4F0901" transform="translate(811,397)"/>
<path d="M0 0 C0.99 0.33 1.98 0.66 3 1 C2.048 2.006 1.088 3.005 0.125 4 C-0.409 4.557 -0.942 5.114 -1.492 5.688 C-3 7 -3 7 -5 7 C-3.707 4.116 -2.341 2.128 0 0 Z " fill="#891401" transform="translate(886,224)"/>
<path d="M0 0 C5.75 -0.125 5.75 -0.125 8 1 C8 3.31 8 5.62 8 8 C7.794 7.402 7.588 6.804 7.375 6.188 C5.491 3.19 3.189 2.386 0 1 C0 0.67 0 0.34 0 0 Z " fill="#0F1416" transform="translate(159,222)"/>
<path d="M0 0 C1.65 0 3.3 0 5 0 C5.33 0.66 5.66 1.32 6 2 C4.68 2 3.36 2 2 2 C2.33 3.32 2.66 4.64 3 6 C1.68 5.34 0.36 4.68 -1 4 C-0.67 2.68 -0.34 1.36 0 0 Z " fill="#141A1F" transform="translate(132,210)"/>
<path d="M0 0 C2.31 0.33 4.62 0.66 7 1 C7 1.33 7 1.66 7 2 C5.824 2.155 5.824 2.155 4.625 2.312 C1.67 2.776 1.67 2.776 0 6 C-0.66 5.67 -1.32 5.34 -2 5 C-1.34 3.35 -0.68 1.7 0 0 Z " fill="#090D11" transform="translate(130,208)"/>
<path d="M0 0 C0.99 0.33 1.98 0.66 3 1 C0.36 2.98 -2.28 4.96 -5 7 C-5 5.68 -5 4.36 -5 3 C-4.01 3 -3.02 3 -2 3 C-2 2.34 -2 1.68 -2 1 C-1.34 0.67 -0.68 0.34 0 0 Z " fill="#670F01" transform="translate(915,200)"/>
<path d="M0 0 C0.99 0.33 1.98 0.66 3 1 C0.69 3.31 -1.62 5.62 -4 8 C-4.33 7.01 -4.66 6.02 -5 5 C-4.34 5 -3.68 5 -3 5 C-3 4.01 -3 3.02 -3 2 C-2.01 2 -1.02 2 0 2 C0 1.34 0 0.68 0 0 Z " fill="#581702" transform="translate(832,134)"/>
<path d="M0 0 C0.99 0.66 1.98 1.32 3 2 C3 3.32 3 4.64 3 6 C2.34 6 1.68 6 1 6 C1 5.34 1 4.68 1 4 C-0.32 3.67 -1.64 3.34 -3 3 C-3 2.34 -3 1.68 -3 1 C-2.01 0.67 -1.02 0.34 0 0 Z " fill="#260701" transform="translate(805,659)"/>
<path d="M0 0 C0.99 0 1.98 0 3 0 C3 0.99 3 1.98 3 3 C1.68 3 0.36 3 -1 3 C-0.67 3.99 -0.34 4.98 0 6 C-0.99 6 -1.98 6 -3 6 C-3 4.68 -3 3.36 -3 2 C-2.01 2 -1.02 2 0 2 C0 1.34 0 0.68 0 0 Z " fill="#2A0501" transform="translate(165,656)"/>
<path d="M0 0 C1.65 0 3.3 0 5 0 C5 1.32 5 2.64 5 4 C3.35 3.67 1.7 3.34 0 3 C0 2.01 0 1.02 0 0 Z " fill="#6E200B" transform="translate(613,651)"/>
<path d="M0 0 C-2.938 2.503 -5.179 3.469 -9 4 C-8 1 -8 1 -5.625 -0.25 C-3 -1 -3 -1 0 0 Z " fill="#E35A0B" transform="translate(794,407)"/>
<path d="M0 0 C1.478 2.957 1.06 5.742 1 9 C0.01 9 -0.98 9 -2 9 C-2.25 3.375 -2.25 3.375 0 0 Z " fill="#43484A" transform="translate(713,167)"/>
<path d="M0 0 C1.32 0.33 2.64 0.66 4 1 C2.35 2.98 0.7 4.96 -1 7 C-1.66 5.68 -2.32 4.36 -3 3 C-2.01 2.67 -1.02 2.34 0 2 C0 1.34 0 0.68 0 0 Z " fill="#390906" transform="translate(805,161)"/>
<path d="M0 0 C-3.445 2.296 -5.938 2.54 -10 3 C-10 2.34 -10 1.68 -10 1 C-3.375 -1.125 -3.375 -1.125 0 0 Z " fill="#1C0402" transform="translate(169,669)"/>
<path d="M0 0 C0.66 0.33 1.32 0.66 2 1 C-2.297 5.004 -2.297 5.004 -4 6 C-6.203 5.652 -6.203 5.652 -8 5 C-6.715 4.136 -5.422 3.284 -4.125 2.438 C-3.046 1.724 -3.046 1.724 -1.945 0.996 C-1.303 0.667 -0.661 0.339 0 0 Z " fill="#EC9E26" transform="translate(198,641)"/>
<path d="M0 0 C-1.98 1.32 -3.96 2.64 -6 4 C-6.99 3.34 -7.98 2.68 -9 2 C-3.375 -1.125 -3.375 -1.125 0 0 Z " fill="#E9680F" transform="translate(814,397)"/>
<path d="M0 0 C0.99 0.33 1.98 0.66 3 1 C1.377 2.709 -0.293 4.374 -2 6 C-2.66 6 -3.32 6 -4 6 C-2.848 3.532 -1.952 1.952 0 0 Z " fill="#290F07" transform="translate(807,168)"/>
<path d="M0 0 C0.33 1.32 0.66 2.64 1 4 C-0.65 5.32 -2.3 6.64 -4 8 C-2.25 2.25 -2.25 2.25 0 0 Z " fill="#580C03" transform="translate(892,76)"/>
<path d="M0 0 C0.33 0.99 0.66 1.98 1 3 C0.01 3.33 -0.98 3.66 -2 4 C-2.33 4.99 -2.66 5.98 -3 7 C-3.99 6.67 -4.98 6.34 -6 6 C-4.02 4.02 -2.04 2.04 0 0 Z " fill="#6E0D02" transform="translate(223,784)"/>
<path d="M0 0 C-0.506 2.169 -1 4 -2 6 C-3.32 5.67 -4.64 5.34 -6 5 C-5.01 4.34 -4.02 3.68 -3 3 C-3.66 2.34 -4.32 1.68 -5 1 C-2 0 -2 0 0 0 Z " fill="#6C1C02" transform="translate(816,394)"/>
<path d="M0 0 C0.33 1.32 0.66 2.64 1 4 C0.34 4 -0.32 4 -1 4 C-1 4.66 -1 5.32 -1 6 C-1.99 6.33 -2.98 6.66 -4 7 C-3.436 3.73 -2.5 2.174 0 0 Z " fill="#440D02" transform="translate(872,234)"/>
<path d="M0 0 C0.66 0.33 1.32 0.66 2 1 C0.25 4.875 0.25 4.875 -2 6 C-2.66 5.34 -3.32 4.68 -4 4 C-2.68 2.68 -1.36 1.36 0 0 Z " fill="#F89F12" transform="translate(881,231)"/>
<path d="M0 0 C0.99 0.33 1.98 0.66 3 1 C1.35 2.65 -0.3 4.3 -2 6 C-2.66 5.67 -3.32 5.34 -4 5 C-2.68 3.35 -1.36 1.7 0 0 Z " fill="#FABE2B" transform="translate(895,219)"/>
<path d="M0 0 C0.33 0.66 0.66 1.32 1 2 C0.34 2 -0.32 2 -1 2 C-1.124 2.804 -1.247 3.609 -1.375 4.438 C-1.581 5.283 -1.788 6.129 -2 7 C-2.99 7.495 -2.99 7.495 -4 8 C-4 6.35 -4 4.7 -4 3 C-3.34 3 -2.68 3 -2 3 C-2 2.34 -2 1.68 -2 1 C-1.34 0.67 -0.68 0.34 0 0 Z " fill="#4F1303" transform="translate(879,83)"/>
</svg>
