<?xml version="1.0" encoding="UTF-8"?>
<!-- Generator: visioncortex VTracer 0.6.4 -->
<svg version="1.1" xmlns="http://www.w3.org/2000/svg" width="1024" height="1024">
<path d="M0 0 C337.92 0 675.84 0 1024 0 C1024 337.92 1024 675.84 1024 1024 C686.08 1024 348.16 1024 0 1024 C0 686.08 0 348.16 0 0 Z " fill="#010922" transform="translate(0,0)"/>
<path d="M0 0 C20.465 16.597 35.698 40.35 38.902 66.863 C39.183 69.694 39.397 72.525 39.59 75.363 C39.733 77.111 39.733 77.111 39.879 78.895 C40.996 105.006 31.22 130.268 14.027 149.676 C12.555 151.245 11.077 152.808 9.59 154.363 C9.039 154.977 8.489 155.59 7.922 156.223 C-7.65 172.987 -32.802 183.287 -55.41 184.363 C-65.625 184.693 -75.351 184.411 -85.41 182.363 C-86.849 182.089 -86.849 182.089 -88.316 181.809 C-107.111 177.716 -123.718 167.66 -137.41 154.363 C-138.327 153.54 -138.327 153.54 -139.262 152.699 C-156.424 136.79 -166.453 111.822 -167.533 88.74 C-168.436 57.707 -159.528 30.575 -138.193 7.695 C-102.242 -29.439 -40.118 -31.542 0 0 Z " fill="#49004C" transform="translate(577.41015625,677.63671875)"/>
<path d="M0 0 C20.465 16.597 35.698 40.35 38.902 66.863 C39.183 69.694 39.397 72.525 39.59 75.363 C39.733 77.111 39.733 77.111 39.879 78.895 C40.996 105.006 31.22 130.268 14.027 149.676 C12.555 151.245 11.077 152.808 9.59 154.363 C9.039 154.977 8.489 155.59 7.922 156.223 C-7.65 172.987 -32.802 183.287 -55.41 184.363 C-65.625 184.693 -75.351 184.411 -85.41 182.363 C-86.849 182.089 -86.849 182.089 -88.316 181.809 C-107.111 177.716 -123.718 167.66 -137.41 154.363 C-138.327 153.54 -138.327 153.54 -139.262 152.699 C-156.424 136.79 -166.453 111.822 -167.533 88.74 C-168.436 57.707 -159.528 30.575 -138.193 7.695 C-102.242 -29.439 -40.118 -31.542 0 0 Z M-132.449 19 C-144.058 32.99 -151.368 48.464 -154.41 66.363 C-154.593 67.169 -154.776 67.975 -154.965 68.805 C-158.653 89.994 -152.019 113.643 -139.887 131.047 C-124.963 151.465 -103.533 164.5 -78.598 168.613 C-59.78 170.896 -40.487 169.124 -23.41 160.363 C-22.295 159.799 -21.18 159.234 -20.031 158.652 C2.07 146.993 17.082 128.465 24.777 104.695 C25.494 101.92 26.104 99.187 26.59 96.363 C26.77 95.462 26.951 94.561 27.137 93.633 C30.246 71.199 24.634 49.428 12.59 30.363 C10.553 27.844 8.455 25.484 6.191 23.168 C4.59 21.363 4.59 21.363 3.59 18.363 C0.788 15.785 -2.343 13.615 -5.41 11.363 C-6.155 10.792 -6.9 10.221 -7.668 9.633 C-45.768 -18.587 -99.402 -15.79 -132.449 19 Z " fill="#FC0074" transform="translate(577.41015625,677.63671875)"/>
<path d="M0 0 C4.607 0.973 8.088 3.243 12.062 5.688 C12.85 6.171 13.638 6.654 14.45 7.152 C25.073 13.784 35.232 21.237 44.91 29.184 C45.797 29.902 45.797 29.902 46.702 30.635 C48.26 31.906 49.799 33.202 51.336 34.5 C53.869 36.304 53.869 36.304 56.496 35.52 C59.409 33.752 62.024 31.815 64.688 29.688 C75.714 21.029 87.009 12.728 98.875 5.25 C99.535 4.832 100.195 4.413 100.874 3.982 C103.897 2.115 106.534 0.744 110 0 C111.81 3.62 111.254 7.236 110 11 C107.53 13.844 104.578 15.762 101.438 17.812 C99.692 19.021 97.947 20.231 96.203 21.441 C95.326 22.037 94.449 22.633 93.545 23.247 C89.838 25.801 86.266 28.52 82.688 31.25 C77.605 35.081 72.486 38.855 67.312 42.562 C66.748 42.968 66.184 43.374 65.602 43.792 C64.079 44.877 62.54 45.939 61 47 C60.148 47.628 59.296 48.256 58.418 48.902 C56 50 56 50 53.562 49.445 C50.558 47.751 47.797 45.897 45 43.875 C44.408 43.448 43.816 43.02 43.207 42.58 C36.674 37.826 30.265 32.905 23.856 27.985 C19.724 24.817 15.583 21.673 11.355 18.633 C10.307 17.879 10.307 17.879 9.238 17.109 C7.948 16.187 6.653 15.27 5.354 14.362 C1.109 11.327 1.109 11.327 0 8 C-0.128 5.326 -0.044 2.679 0 0 Z " fill="#FA00FB" transform="translate(459,740)"/>
<path d="M0 0 C0.548 0.061 1.096 0.121 1.66 0.184 C8.227 0.878 14.795 1.329 21.387 1.719 C24.957 1.997 28.461 2.455 32 3 C32 3.66 32 4.32 32 5 C32.712 5.126 33.423 5.253 34.156 5.383 C37.05 6.011 39.717 6.867 42.5 7.875 C43.418 8.202 44.336 8.53 45.281 8.867 C48.049 10.02 50.453 11.424 53 13 C55.063 14.044 57.143 15.041 59.23 16.035 C61 17 61 17 63 19 C63.99 19 64.98 19 66 19 C67.271 20.499 68.537 22.003 69.742 23.555 C70.963 25.149 70.963 25.149 73.062 26 C76.043 27.538 77.21 30.229 79 33 C79.99 33.66 80.98 34.32 82 35 C82 35.66 82 36.32 82 37 C82.66 37 83.32 37 84 37 C84 37.66 84 38.32 84 39 C84.66 39 85.32 39 86 39 C89.759 42.893 92.05 47.626 94.535 52.379 C95.901 54.98 95.901 54.98 97.586 57.027 C99.221 59.309 99.841 61.296 100.562 64 C101.258 66.579 101.905 68.821 103.152 71.188 C103.432 71.786 103.712 72.384 104 73 C103.67 73.66 103.34 74.32 103 75 C103.66 75 104.32 75 105 75 C105.124 76.031 105.247 77.062 105.375 78.125 C105.866 81.883 105.866 81.883 107 84.875 C109.513 92.728 109.086 101.434 109.125 109.625 C109.13 110.312 109.134 110.999 109.139 111.707 C109.129 114.75 108.97 117.089 108 120 C108 120.804 108 121.609 108 122.438 C108 124.916 107.624 126.618 107 129 C106.786 129.998 106.572 130.995 106.352 132.023 C105.111 137.747 103.968 142.894 101 148 C100.464 149.155 99.928 150.31 99.375 151.5 C97.016 156.274 94.051 160.662 91.085 165.076 C89.125 168.038 87.737 170.529 87 174 C85.667 174.667 84.333 175.333 83 176 C81.994 177.663 80.994 179.33 80 181 C78.371 182.379 76.703 183.713 75 185 C74.361 185.681 73.721 186.361 73.062 187.062 C70.605 189.371 68.017 190.524 65 192 C64.227 192.804 64.227 192.804 63.438 193.625 C61.471 195.506 59.644 195.643 57 196 C57 196.66 57 197.32 57 198 C56.031 198.454 55.061 198.908 54.062 199.375 C50.929 200.658 50.929 200.658 50 203 C48.577 203.217 48.577 203.217 47.125 203.438 C43.89 204.02 42.971 204.482 41 207 C41 206.34 41 205.68 41 205 C39.35 205.33 37.7 205.66 36 206 C36.66 205.67 37.32 205.34 38 205 C38 204.34 38 203.68 38 203 C38.944 202.576 39.887 202.152 40.859 201.715 C55.143 195.228 66.893 188.134 78 177 C79.129 175.888 79.129 175.888 80.281 174.754 C86.425 168.305 90.707 160.741 95 153 C95.855 151.527 95.855 151.527 96.727 150.023 C104.436 135.356 107.33 116.409 106 100 C105.96 99.347 105.92 98.694 105.878 98.021 C104.171 71.286 91.652 46.829 71.835 28.915 C58.544 17.512 42.911 10.17 26 6 C24.639 5.658 24.639 5.658 23.25 5.309 C-4.077 -0.371 -32.818 6 -56 21 C-59.542 23.47 -62.802 26.101 -66 29 C-66.829 29.748 -67.658 30.495 -68.512 31.266 C-86.583 48.424 -98.495 73.404 -99.184 98.402 C-99.54 120.156 -95.69 138.553 -86 158 C-86.99 158.99 -86.99 158.99 -88 160 C-88 159.01 -88 158.02 -88 157 C-88.99 156.67 -89.98 156.34 -91 156 C-92.027 154.102 -92.027 154.102 -92.938 151.625 C-93.44 150.27 -93.44 150.27 -93.953 148.887 C-94.299 147.934 -94.644 146.981 -95 146 C-95.366 145.078 -95.732 144.157 -96.109 143.207 C-98.09 138.12 -99.456 133.539 -99.727 128.07 C-99.916 125.899 -99.916 125.899 -101.02 123.672 C-102.241 120.342 -102.159 117.662 -102.062 114.125 C-101.986 109.263 -102.091 104.771 -103 100 C-102.34 100 -101.68 100 -101 100 C-101.33 99.01 -101.66 98.02 -102 97 C-102.278 92.087 -101.539 88.617 -100 84 C-99.925 81.668 -99.907 79.331 -100 77 C-98.515 76.505 -98.515 76.505 -97 76 C-97.186 75.381 -97.371 74.763 -97.562 74.125 C-98 72 -98 72 -97 70 C-96.34 70 -95.68 70 -95 70 C-95.33 69.01 -95.66 68.02 -96 67 C-95.34 67 -94.68 67 -94 67 C-94 64.36 -94 61.72 -94 59 C-93.34 59 -92.68 59 -92 59 C-91.567 58.113 -91.134 57.226 -90.688 56.312 C-89.226 53.444 -87.804 50.666 -86 48 C-85.34 48 -84.68 48 -84 48 C-83.598 46.67 -83.598 46.67 -83.188 45.312 C-82.079 42.221 -80.76 39.755 -79 37 C-78.67 36.34 -78.34 35.68 -78 35 C-76.515 34.505 -76.515 34.505 -75 34 C-73.735 32.466 -73.735 32.466 -72.625 30.625 C-70.467 27.46 -68.569 25.597 -65 24 C-64.01 24 -63.02 24 -62 24 C-61.773 23.361 -61.546 22.721 -61.312 22.062 C-60.879 21.382 -60.446 20.701 -60 20 C-58.333 19.667 -56.667 19.333 -55 19 C-53.64 17.032 -53.64 17.032 -53 15 C-52.34 15 -51.68 15 -51 15 C-51 14.34 -51 13.68 -51 13 C-49.804 12.587 -48.608 12.175 -47.375 11.75 C-44.434 10.664 -42.404 9.599 -39.75 7.812 C-37 6 -37 6 -33 6 C-30.354 5.688 -30.354 5.688 -28 5 C-27.67 4.34 -27.34 3.68 -27 3 C-18.04 0.868 -9.051 0.19 0 2 C0 1.34 0 0.68 0 0 Z " fill="#560049" transform="translate(510,653)"/>
<path d="M0 0 C12.822 9.758 18.727 27.765 22 43 C22.186 43.746 22.371 44.493 22.562 45.262 C26.149 67.708 19.919 90.523 7 109 C-3.813 123.548 -3.813 123.548 -11 128 C-13.262 127.703 -13.262 127.703 -15 127 C-14.361 126.773 -13.721 126.546 -13.062 126.312 C-12.382 125.879 -11.701 125.446 -11 125 C-10.658 123.335 -10.326 121.668 -10 120 C-8.25 118.438 -8.25 118.438 -6 117 C0.466 112.576 4.224 106.194 7 99 C7.631 97.743 8.277 96.492 8.938 95.25 C12.259 88.643 14.131 82.384 14.75 75.02 C15.066 72.465 15.883 70.309 17 68 C16.34 67.67 15.68 67.34 15 67 C14.837 58.835 14.837 58.835 15.562 55.125 C16.233 50.337 15.544 45.786 15 41 C14.828 39.428 14.656 37.857 14.484 36.285 C13.999 31.856 13.502 27.428 13 23 C12.34 23 11.68 23 11 23 C9.438 21.938 9.438 21.938 8 20 C7.639 17.671 7.303 15.337 7 13 C6.34 12.67 5.68 12.34 5 12 C2 6.692 2 6.692 2 3 C1.34 3 0.68 3 0 3 C0 2.01 0 1.02 0 0 Z " fill="#AB003F" transform="translate(582,700)"/>
<path d="M0 0 C3.206 0.343 3.975 0.971 6.125 3.5 C7.053 4.737 7.053 4.737 8 6 C8.66 6.33 9.32 6.66 10 7 C10 7.66 10 8.32 10 9 C10.66 9 11.32 9 12 9 C12 9.66 12 10.32 12 11 C12.66 11 13.32 11 14 11 C17.759 14.893 20.05 19.626 22.535 24.379 C23.901 26.98 23.901 26.98 25.586 29.027 C27.221 31.309 27.841 33.296 28.562 36 C29.258 38.579 29.905 40.821 31.152 43.188 C31.572 44.085 31.572 44.085 32 45 C31.505 45.99 31.505 45.99 31 47 C31.66 47 32.32 47 33 47 C33.124 48.031 33.247 49.062 33.375 50.125 C33.866 53.883 33.866 53.883 35 56.875 C37.513 64.728 37.086 73.434 37.125 81.625 C37.13 82.312 37.134 82.999 37.139 83.707 C37.129 86.75 36.97 89.089 36 92 C36 92.804 36 93.609 36 94.438 C36 96.916 35.624 98.618 35 101 C34.786 101.998 34.572 102.995 34.352 104.023 C33.111 109.747 31.968 114.894 29 120 C28.464 121.155 27.928 122.31 27.375 123.5 C25.016 128.274 22.051 132.662 19.085 137.076 C17.125 140.038 15.737 142.529 15 146 C13.667 146.667 12.333 147.333 11 148 C9.994 149.663 8.994 151.33 8 153 C6.371 154.379 4.703 155.713 3 157 C2.361 157.681 1.721 158.361 1.062 159.062 C-1.395 161.371 -3.983 162.524 -7 164 C-7.773 164.804 -7.773 164.804 -8.562 165.625 C-10.529 167.506 -12.356 167.643 -15 168 C-15 168.66 -15 169.32 -15 170 C-15.969 170.454 -16.939 170.908 -17.938 171.375 C-21.071 172.658 -21.071 172.658 -22 175 C-23.423 175.217 -23.423 175.217 -24.875 175.438 C-28.11 176.02 -29.029 176.482 -31 179 C-31 178.34 -31 177.68 -31 177 C-32.65 177.33 -34.3 177.66 -36 178 C-35.34 177.67 -34.68 177.34 -34 177 C-34 176.34 -34 175.68 -34 175 C-32.585 174.364 -32.585 174.364 -31.141 173.715 C-16.857 167.228 -5.107 160.134 6 149 C6.753 148.259 7.506 147.518 8.281 146.754 C14.425 140.305 18.707 132.741 23 125 C23.57 124.018 24.14 123.035 24.727 122.023 C32.436 107.356 35.33 88.409 34 72 C33.96 71.347 33.92 70.694 33.878 70.021 C32.147 42.908 19.44 19.576 0 1 C0 0.67 0 0.34 0 0 Z " fill="#28005A" transform="translate(582,681)"/>
<path d="M0 0 C0.99 2.97 1.98 5.94 3 9 C4.65 9.33 6.3 9.66 8 10 C8.33 10.99 8.66 11.98 9 13 C10.318 13.39 11.657 13.71 13 14 C15.015 14.969 17.018 15.964 19 17 C19 17.66 19 18.32 19 19 C19.99 19 20.98 19 22 19 C22 19.66 22 20.32 22 21 C22.784 21.103 23.567 21.206 24.375 21.312 C28.28 22.053 31.95 23.165 35.73 24.379 C38.09 25.132 38.09 25.132 41 25 C44 26 44 26 45 28 C50.015 27.67 50.015 27.67 54 25 C54 25.99 54 26.98 54 28 C54.639 27.814 55.279 27.629 55.938 27.438 C56.618 27.293 57.299 27.149 58 27 C58.33 27.33 58.66 27.66 59 28 C61.183 28.235 63.372 28.414 65.562 28.562 C66.76 28.646 67.958 28.73 69.191 28.816 C70.582 28.907 70.582 28.907 72 29 C72.33 28.34 72.66 27.68 73 27 C74.072 27.041 75.145 27.082 76.25 27.125 C79.836 27.266 79.836 27.266 82.125 25.938 C84 25 84 25 86.238 25.621 C89.992 26.136 91.774 24.929 95.062 23.125 C98.415 21.307 101.313 19.903 105 19 C107.163 16.967 107.163 16.967 109 14 C110.32 14 111.64 14 113 14 C114.707 12.374 116.377 10.709 118 9 C118.66 9 119.32 9 120 9 C120.33 8.34 120.66 7.68 121 7 C121 7.99 121 8.98 121 10 C120.01 10.66 119.02 11.32 118 12 C118 12.99 118 13.98 118 15 C92.094 30.444 66.725 35.671 37 29 C33.457 27.981 30.296 26.64 27 25 C25.916 24.506 24.832 24.013 23.715 23.504 C12.563 18.25 1.786 12.365 -4 1 C-2 0 -2 0 0 0 Z " fill="#6500C5" transform="translate(450,815)"/>
<path d="M0 0 C2 2 2 2 2.363 4.562 C1.873 9.206 0.205 12.822 -1.812 17 C-2.415 18.254 -2.415 18.254 -3.03 19.533 C-8.621 30.728 -17.205 43.208 -28 50 C-30.285 49.723 -30.285 49.723 -32 49 C-31.361 48.773 -30.721 48.546 -30.062 48.312 C-29.382 47.879 -28.701 47.446 -28 47 C-27.658 45.335 -27.326 43.668 -27 42 C-25.25 40.438 -25.25 40.438 -23 39 C-16.534 34.576 -12.776 28.194 -10 21 C-9.369 19.743 -8.723 18.492 -8.062 17.25 C-5.886 12.979 -4.398 8.576 -3 4 C-2.34 4 -1.68 4 -1 4 C-0.67 2.68 -0.34 1.36 0 0 Z " fill="#B30055" transform="translate(599,778)"/>
<path d="M0 0 C3.206 0.343 3.975 0.971 6.125 3.5 C6.744 4.325 7.362 5.15 8 6 C8.66 6.33 9.32 6.66 10 7 C10 7.66 10 8.32 10 9 C10.66 9 11.32 9 12 9 C12 9.66 12 10.32 12 11 C12.66 11 13.32 11 14 11 C17.759 14.893 20.05 19.626 22.535 24.379 C23.901 26.98 23.901 26.98 25.586 29.027 C27.221 31.309 27.841 33.296 28.562 36 C29.258 38.579 29.905 40.821 31.152 43.188 C31.432 43.786 31.712 44.384 32 45 C31.67 45.66 31.34 46.32 31 47 C31.66 47 32.32 47 33 47 C33.124 48.031 33.247 49.062 33.375 50.125 C33.866 53.883 33.866 53.883 35 56.875 C37.513 64.728 37.086 73.434 37.125 81.625 C37.13 82.312 37.134 82.999 37.139 83.707 C37.129 86.75 36.97 89.089 36 92 C36 92.804 36 93.609 36 94.438 C36 96.836 35.677 98.714 35 101 C34.34 101 33.68 101 33 101 C32.875 93.726 32.875 93.726 33.492 90.152 C37.34 66.265 30.404 39.794 16.681 20.107 C11.638 13.207 6.182 6.907 0 1 C0 0.67 0 0.34 0 0 Z " fill="#28014E" transform="translate(582,681)"/>
<path d="M0 0 C0.66 0.33 1.32 0.66 2 1 C0.188 3 0.188 3 -2 5 C-2.99 5 -3.98 5 -5 5 C-5.248 5.619 -5.495 6.237 -5.75 6.875 C-7.228 9.387 -8.44 9.761 -11 11 C-11.33 11.99 -11.66 12.98 -12 14 C-12.99 14.66 -13.98 15.32 -15 16 C-15.33 16.99 -15.66 17.98 -16 19 C-17.523 20.324 -17.523 20.324 -19.375 21.688 C-23.417 24.983 -24.55 28.051 -26 33 C-26.66 33 -27.32 33 -28 33 C-29.072 35.604 -30.064 38.196 -30.938 40.875 C-32 44 -32 44 -33.5 47.25 C-37.533 56.586 -37.363 66.705 -37.566 76.693 C-37.596 77.721 -37.626 78.749 -37.656 79.809 C-37.675 80.735 -37.694 81.661 -37.713 82.615 C-38 85 -38 85 -40 88 C-44.599 68.641 -38.387 46.542 -28.727 29.723 C-20.93 17.428 -12.15 7.967 0 0 Z " fill="#210158" transform="translate(463,682)"/>
<path d="M0 0 C1.306 3.919 0.056 6.241 -1.312 9.938 C-10.828 37.434 -6.572 66.909 5.863 92.719 C6.238 93.472 6.614 94.224 7 95 C6.01 95.99 6.01 95.99 5 97 C5 96.01 5 95.02 5 94 C4.01 93.67 3.02 93.34 2 93 C0.973 91.102 0.973 91.102 0.062 88.625 C-0.273 87.721 -0.608 86.818 -0.953 85.887 C-1.299 84.934 -1.644 83.981 -2 83 C-2.549 81.617 -2.549 81.617 -3.109 80.207 C-5.09 75.12 -6.456 70.539 -6.727 65.07 C-6.916 62.899 -6.916 62.899 -8.02 60.672 C-9.241 57.342 -9.159 54.662 -9.062 51.125 C-8.986 46.263 -9.091 41.771 -10 37 C-9.34 37 -8.68 37 -8 37 C-8.495 35.515 -8.495 35.515 -9 34 C-9.278 29.087 -8.539 25.617 -7 21 C-6.925 18.668 -6.907 16.331 -7 14 C-6.01 13.67 -5.02 13.34 -4 13 C-4.278 12.072 -4.278 12.072 -4.562 11.125 C-5 9 -5 9 -4 7 C-3.34 7 -2.68 7 -2 7 C-2.33 6.01 -2.66 5.02 -3 4 C-2.34 4 -1.68 4 -1 4 C-0.67 2.68 -0.34 1.36 0 0 Z " fill="#2A0148" transform="translate(417,716)"/>
<path d="M0 0 C0.99 2.97 1.98 5.94 3 9 C4.65 9.33 6.3 9.66 8 10 C8.33 10.99 8.66 11.98 9 13 C10.318 13.39 11.657 13.71 13 14 C15.015 14.969 17.018 15.964 19 17 C19 17.66 19 18.32 19 19 C19.99 19 20.98 19 22 19 C22 19.66 22 20.32 22 21 C22.784 21.103 23.567 21.206 24.375 21.312 C28.28 22.053 31.95 23.165 35.73 24.379 C38.09 25.132 38.09 25.132 41 25 C44 26 44 26 45 28 C50.015 27.67 50.015 27.67 54 25 C54 25.99 54 26.98 54 28 C54.66 28.33 55.32 28.66 56 29 C56 29.66 56 30.32 56 31 C45.617 31.392 36.419 29.325 27 25 C25.358 24.258 25.358 24.258 23.684 23.5 C12.549 18.22 1.786 12.365 -4 1 C-2 0 -2 0 0 0 Z " fill="#4D00C0" transform="translate(450,815)"/>
<path d="M0 0 C0.33 0 0.66 0 1 0 C1.289 0.887 1.577 1.774 1.875 2.688 C2.547 4.666 3.262 6.632 4.062 8.562 C5 11 5 11 5.434 13.328 C6.025 16.117 6.916 18.554 8 21.188 C8.351 22.047 8.701 22.907 9.062 23.793 C9.666 25.214 10.31 26.619 11 28 C11.99 28.33 12.98 28.66 14 29 C14.33 31.64 14.66 34.28 15 37 C16.176 37.186 16.176 37.186 17.375 37.375 C20 38 20 38 22 40 C21.67 40.99 21.34 41.98 21 43 C22.872 45.694 22.872 45.694 25 48 C24.67 48.66 24.34 49.32 24 50 C12.377 38.081 0.229 20.716 -0.062 3.25 C-0.042 2.178 -0.021 1.105 0 0 Z " fill="#2D016D" transform="translate(424,771)"/>
<path d="M0 0 C6.951 10.427 5.166 28.893 2.923 40.747 C2.339 43.513 1.697 46.261 1 49 C-1.301 45.548 -1.137 45.048 -0.625 41.125 C0.629 28.871 0.7 16.089 -0.879 3.863 C-1 2 -1 2 0 0 Z " fill="#CD0049" transform="translate(601,734)"/>
<path d="M0 0 C0.99 0.33 1.98 0.66 3 1 C2.227 1.69 1.453 2.379 0.656 3.09 C-11.47 13.988 -21.117 25.05 -27.859 40.102 C-29 42 -29 42 -32 43 C-32 41.02 -32 39.04 -32 37 C-31.34 37 -30.68 37 -30 37 C-29.567 36.113 -29.134 35.226 -28.688 34.312 C-27.226 31.444 -25.804 28.666 -24 26 C-23.34 26 -22.68 26 -22 26 C-21.732 25.113 -21.464 24.226 -21.188 23.312 C-20.079 20.221 -18.76 17.755 -17 15 C-16.67 14.34 -16.34 13.68 -16 13 C-15.01 12.67 -14.02 12.34 -13 12 C-11.735 10.466 -11.735 10.466 -10.625 8.625 C-8.467 5.46 -6.569 3.597 -3 2 C-2.01 2 -1.02 2 0 2 C0 1.34 0 0.68 0 0 Z " fill="#450048" transform="translate(448,675)"/>
<path d="M0 0 C6.194 9.292 4.763 24.261 2.73 34.809 C1.896 37.312 0.678 38.981 -1 41 C-2.324 37.029 -1.243 34.937 0 31 C0.341 29.669 0.679 28.336 1 27 C0.34 26.67 -0.32 26.34 -1 26 C-1.083 21.861 -1.159 17.901 -0.438 13.812 C0.059 10.62 -0.461 8.167 -1 5 C-0.562 2.125 -0.562 2.125 0 0 Z " fill="#9D0044" transform="translate(598,741)"/>
<path d="M0 0 C2.951 1.337 5.083 2.85 7.438 5.062 C10.215 7.523 12.183 8.769 16 9 C16.33 9.99 16.66 10.98 17 12 C19.015 12.733 19.015 12.733 21 13 C20.67 13.66 20.34 14.32 20 15 C21.436 15.506 22.874 16.004 24.312 16.5 C25.113 16.778 25.914 17.057 26.738 17.344 C29.088 18.139 29.088 18.139 32 18 C32 18.99 32 19.98 32 21 C32.99 20.67 33.98 20.34 35 20 C36.682 20.974 38.347 21.977 40 23 C42.693 23.707 42.693 23.707 45 24 C45 24.66 45 25.32 45 26 C45.66 26.33 46.32 26.66 47 27 C41.734 26.456 37.283 25.168 32.438 23 C31.746 22.692 31.055 22.385 30.343 22.068 C19.017 16.861 8.702 9.983 0 1 C0 0.67 0 0.34 0 0 Z " fill="#F300B7" transform="translate(440,831)"/>
<path d="M0 0 C0.66 1.32 1.32 2.64 2 4 C-8.457 17.904 -8.457 17.904 -15 22 C-17.266 21.707 -17.266 21.707 -19 21 C-18.361 20.773 -17.721 20.546 -17.062 20.312 C-16.382 19.879 -15.701 19.446 -15 19 C-14.658 17.335 -14.326 15.668 -14 14 C-12.25 12.438 -12.25 12.438 -10 11 C-5.594 7.836 -2.999 4.455 0 0 Z " fill="#A6007E" transform="translate(586,806)"/>
<path d="M0 0 C1.484 2.968 1.218 5.414 0.855 8.668 C-0.811 13.21 -4.925 14.761 -9 17 C-8.34 13.04 -7.68 9.08 -7 5 C-7.66 4.67 -8.32 4.34 -9 4 C-3.375 0 -3.375 0 0 0 Z " fill="#980091" transform="translate(569,740)"/>
<path d="M0 0 C3.403 0.608 5.654 1.411 8 4 C8.44 6.328 8.626 8.575 8.727 10.941 C8.817 13.223 8.817 13.223 11 15 C10.67 15.99 10.34 16.98 10 18 C8.514 16.905 7.037 15.798 5.562 14.688 C4.739 14.073 3.915 13.458 3.066 12.824 C1 11 1 11 0 8 C-0.128 5.326 -0.044 2.679 0 0 Z " fill="#AC00EA" transform="translate(459,740)"/>
<path d="M0 0 C-0.66 0.99 -1.32 1.98 -2 3 C-5.625 3.188 -5.625 3.188 -9 3 C-9 3.66 -9 4.32 -9 5 C-13.805 5.049 -18.611 5.086 -23.417 5.11 C-25.052 5.12 -26.687 5.134 -28.323 5.151 C-30.671 5.175 -33.019 5.186 -35.367 5.195 C-36.467 5.211 -36.467 5.211 -37.59 5.227 C-39.395 5.227 -41.199 5.122 -43 5 C-43.66 4.34 -44.32 3.68 -45 3 C-37.74 3 -30.48 3 -23 3 C-23 2.67 -23 2.34 -23 2 C-21.536 1.801 -21.536 1.801 -20.043 1.598 C-18.135 1.333 -18.135 1.333 -16.188 1.062 C-14.923 0.888 -13.658 0.714 -12.355 0.535 C-3.993 -0.799 -3.993 -0.799 0 0 Z " fill="#310052" transform="translate(545,859)"/>
<path d="M0 0 C3.206 0.343 3.975 0.971 6.125 3.5 C6.744 4.325 7.362 5.15 8 6 C8.66 6.33 9.32 6.66 10 7 C10 7.66 10 8.32 10 9 C10.66 9 11.32 9 12 9 C12 9.66 12 10.32 12 11 C12.66 11 13.32 11 14 11 C17.759 14.893 20.05 19.626 22.535 24.379 C23.918 26.992 23.918 26.992 25.621 29.152 C27 31 27 31 28 34 C26.223 33.891 26.223 33.891 24 33 C22.246 30.297 22.246 30.297 20.438 26.75 C16.253 18.909 10.88 12.609 5 6 C3.318 4.012 1.658 2.008 0 0 Z " fill="#380046" transform="translate(582,681)"/>
<path d="M0 0 C0.66 0.33 1.32 0.66 2 1 C0.188 3 0.188 3 -2 5 C-2.99 5 -3.98 5 -5 5 C-5.248 5.619 -5.495 6.237 -5.75 6.875 C-7.228 9.387 -8.44 9.761 -11 11 C-11.33 11.99 -11.66 12.98 -12 14 C-12.99 14.66 -13.98 15.32 -15 16 C-15.33 16.99 -15.66 17.98 -16 19 C-17.559 20.395 -17.559 20.395 -19.438 21.812 C-22.76 24.529 -24.082 26.716 -25 31 C-25.66 30.67 -26.32 30.34 -27 30 C-25.372 20.185 -14.926 10.698 -7.273 4.953 C-4.873 3.262 -2.455 1.61 0 0 Z " fill="#200152" transform="translate(463,682)"/>
<path d="M0 0 C0.99 2.97 1.98 5.94 3 9 C4.65 9.33 6.3 9.66 8 10 C8.33 10.99 8.66 11.98 9 13 C10.318 13.39 11.657 13.71 13 14 C15.015 14.969 17.018 15.964 19 17 C19 17.66 19 18.32 19 19 C19.99 19 20.98 19 22 19 C22 19.66 22 20.32 22 21 C22.99 21.33 23.98 21.66 25 22 C24.34 22.33 23.68 22.66 23 23 C12.119 18.413 1.496 11.613 -4 1 C-2 0 -2 0 0 0 Z " fill="#4600A0" transform="translate(450,815)"/>
<path d="M0 0 C0 0.33 0 0.66 0 1 C-5.823 2.831 -11.42 3.621 -17.479 4.211 C-21.687 4.566 -21.687 4.566 -25 7 C-27.023 7.598 -27.023 7.598 -29.375 8.062 C-32.27 8.648 -35.139 9.262 -38 10 C-29.487 0.457 -11.845 -0.576 0 0 Z " fill="#1F0151" transform="translate(509,669)"/>
<path d="M0 0 C1.32 0.33 2.64 0.66 4 1 C4.33 3.64 4.66 6.28 5 9 C5.784 9.124 6.567 9.247 7.375 9.375 C10 10 10 10 12 12 C11.67 12.99 11.34 13.98 11 15 C12.872 17.694 12.872 17.694 15 20 C14.67 20.66 14.34 21.32 14 22 C0 7.115 0 7.115 0 0 Z " fill="#330089" transform="translate(434,799)"/>
<path d="M0 0 C4.496 1.485 7.855 4.008 11.5 6.938 C18.143 12.917 18.143 12.917 26.312 14.688 C27.199 14.461 28.086 14.234 29 14 C27.68 15.32 26.36 16.64 25 18 C20.346 16.446 16.831 13.89 12.938 11 C7.724 7.085 7.724 7.085 2 4 C2 3.34 2 2.68 2 2 C1.34 2 0.68 2 0 2 C0 1.34 0 0.68 0 0 Z " fill="#2B013A" transform="translate(490,774)"/>
<path d="M0 0 C0.33 0.99 0.66 1.98 1 3 C0.01 3.66 -0.98 4.32 -2 5 C-2 5.99 -2 6.98 -2 8 C-3.408 8.869 -4.826 9.72 -6.25 10.562 C-7.039 11.038 -7.828 11.514 -8.641 12.004 C-11.308 13.13 -12.345 13.017 -15 12 C-14.34 11.34 -13.68 10.68 -13 10 C-12.34 9.01 -11.68 8.02 -11 7 C-9.68 7 -8.36 7 -7 7 C-5.293 5.374 -3.623 3.709 -2 2 C-1.34 2 -0.68 2 0 2 C0 1.34 0 0.68 0 0 Z " fill="#67009E" transform="translate(570,822)"/>
<path d="M0 0 C1.32 0.33 2.64 0.66 4 1 C4 5.29 4 9.58 4 14 C2.02 13.01 0.04 12.02 -2 11 C-2.25 3.375 -2.25 3.375 0 0 Z " fill="#39005D" transform="translate(456,737)"/>
<path d="M0 0 C4.917 3.659 8.248 7.484 11 13 C11 13.66 11 14.32 11 15 C10.34 15 9.68 15 9 15 C9 16.32 9 17.64 9 19 C9.66 19.33 10.32 19.66 11 20 C10.01 20 9.02 20 8 20 C7.876 18.866 7.753 17.731 7.625 16.562 C7.419 15.387 7.212 14.211 7 13 C6.34 12.67 5.68 12.34 5 12 C2 6.692 2 6.692 2 3 C1.34 3 0.68 3 0 3 C0 2.01 0 1.02 0 0 Z " fill="#A8003D" transform="translate(582,700)"/>
<path d="M0 0 C-6.612 3.93 -12.384 6.751 -20 8 C-17.432 3.207 -12.871 1.746 -8 0 C-2.568 -1.284 -2.568 -1.284 0 0 Z " fill="#6800B4" transform="translate(559,835)"/>
<path d="M0 0 C0.33 0 0.66 0 1 0 C1 1.65 1 3.3 1 5 C0.67 5 0.34 5 0 5 C0 3.35 0 1.7 0 0 Z M0 5 C0.058 8.104 0.094 11.208 0.125 14.312 C0.15 15.634 0.15 15.634 0.176 16.982 C0.182 17.83 0.189 18.678 0.195 19.551 C0.206 20.331 0.216 21.111 0.227 21.915 C0 24 0 24 -2 27 C-3.112 22.562 -3.115 18.23 -3.062 13.688 C-3.058 12.947 -3.053 12.206 -3.049 11.443 C-3.037 9.629 -3.019 7.814 -3 6 C-1 5 -1 5 0 5 Z " fill="#3A005F" transform="translate(425,743)"/>
<path d="M0 0 C3.3 0.33 6.6 0.66 10 1 C10 1.66 10 2.32 10 3 C11.114 3.186 11.114 3.186 12.25 3.375 C14.801 3.955 16.727 4.737 19 6 C14.153 7.52 10.417 6.369 5.688 5.062 C4.947 4.867 4.206 4.672 3.443 4.471 C1.626 3.99 -0.187 3.496 -2 3 C-1.34 2.01 -0.68 1.02 0 0 Z " fill="#640047" transform="translate(532,655)"/>
<path d="M0 0 C0.784 0.351 1.567 0.701 2.375 1.062 C3.674 1.527 3.674 1.527 5 2 C5.66 1.67 6.32 1.34 7 1 C7 1.99 7 2.98 7 4 C7.99 3.67 8.98 3.34 10 3 C11.682 3.974 13.347 4.977 15 6 C17.693 6.707 17.693 6.707 20 7 C20 7.66 20 8.32 20 9 C20.66 9.33 21.32 9.66 22 10 C16.756 9.447 12.519 8.222 7.625 6.125 C6.683 5.74 6.683 5.74 5.723 5.348 C3.914 4.57 3.914 4.57 1 3 C0.67 2.01 0.34 1.02 0 0 Z " fill="#F000D8" transform="translate(465,848)"/>
<path d="M0 0 C2.484 3.725 2.232 5.631 2.195 10.074 C2.192 10.758 2.19 11.442 2.187 12.146 C2.176 14.327 2.15 16.507 2.125 18.688 C2.115 20.167 2.106 21.647 2.098 23.127 C2.076 26.751 2.041 30.376 2 34 C1.67 34 1.34 34 1 34 C0.975 33.421 0.95 32.843 0.924 32.247 C0.806 29.56 0.685 26.874 0.562 24.188 C0.497 22.748 0.497 22.748 0.43 21.28 C0.153 15.451 -0.23 9.661 -0.914 3.863 C-1 2 -1 2 0 0 Z " fill="#BF0043" transform="translate(601,734)"/>
<path d="M0 0 C0.33 0 0.66 0 1 0 C0.439 8.841 -2.2 15.56 -7 23 C-7.66 22.67 -8.32 22.34 -9 22 C-7.864 18.971 -6.557 16.113 -5.062 13.25 C-2.886 8.979 -1.398 4.576 0 0 Z " fill="#9F005C" transform="translate(596,782)"/>
<path d="M0 0 C0.33 1.32 0.66 2.64 1 4 C0.134 4.093 0.134 4.093 -0.75 4.188 C-3.868 5.313 -5.014 7.418 -7 10 C-7.66 10 -8.32 10 -9 10 C-9 10.66 -9 11.32 -9 12 C-11.31 12.33 -13.62 12.66 -16 13 C-11.313 7.828 -5.683 4.011 0 0 Z " fill="#310038" transform="translate(542,770)"/>
<path d="M0 0 C1.98 0 3.96 0 6 0 C7.532 3.064 7.229 5.617 7 9 C5.5 11.938 5.5 11.938 4 14 C3.34 13.67 2.68 13.34 2 13 C2.072 12.374 2.144 11.747 2.219 11.102 C2.312 10.284 2.404 9.467 2.5 8.625 C2.593 7.813 2.686 7.001 2.781 6.164 C3.034 4.031 3.034 4.031 3 2 C2.01 2 1.02 2 0 2 C0 1.34 0 0.68 0 0 Z " fill="#7B0055" transform="translate(566,738)"/>
<path d="M0 0 C0.66 0.66 1.32 1.32 2 2 C1.967 4.729 1.436 7.297 1 10 C0.34 10 -0.32 10 -1 10 C-1.124 10.639 -1.247 11.279 -1.375 11.938 C-1.581 12.618 -1.788 13.299 -2 14 C-2.99 14.495 -2.99 14.495 -4 15 C-3.34 11.04 -2.68 7.08 -2 3 C-2.66 2.67 -3.32 2.34 -4 2 C-2.68 1.34 -1.36 0.68 0 0 Z " fill="#C200CB" transform="translate(564,742)"/>
<path d="M0 0 C0.99 0.866 1.98 1.732 3 2.625 C6.862 5.942 10.894 8.993 15 12 C14.67 12.66 14.34 13.32 14 14 C8.109 11.1 3.708 8.503 0 3 C0 2.01 0 1.02 0 0 Z " fill="#230144" transform="translate(439,831)"/>
<path d="M0 0 C2 2 2 2 2 6 C-0.75 8.812 -0.75 8.812 -4 11 C-6.375 10.812 -6.375 10.812 -8 10 C-7.361 9.773 -6.721 9.546 -6.062 9.312 C-3.74 8.173 -3.74 8.173 -3.438 5.562 C-3.293 4.717 -3.149 3.871 -3 3 C-1.438 1.188 -1.438 1.188 0 0 Z " fill="#8E008A" transform="translate(575,817)"/>
<path d="M0 0 C3.662 0.627 6.882 1.645 10.312 3.062 C11.196 3.425 12.079 3.787 12.988 4.16 C13.652 4.437 14.316 4.714 15 5 C14.67 5.66 14.34 6.32 14 7 C4.854 6.085 4.854 6.085 2 4 C0.75 1.875 0.75 1.875 0 0 Z " fill="#280146" transform="translate(463,850)"/>
<path d="M0 0 C0.928 0.206 1.856 0.413 2.812 0.625 C2.812 1.285 2.812 1.945 2.812 2.625 C-2.9 4.854 -8.265 5.52 -14.188 3.625 C-13.857 2.965 -13.528 2.305 -13.188 1.625 C-11.548 1.687 -11.548 1.687 -9.875 1.75 C-5.617 1.606 -4.161 -0.49 0 0 Z " fill="#5600BC" transform="translate(536.1875,840.375)"/>
<path d="M0 0 C1.32 0.33 2.64 0.66 4 1 C3.979 2.072 3.959 3.145 3.938 4.25 C3.986 7.148 4.132 9.286 5 12 C4.01 12 3.02 12 2 12 C-0.6 8.1 -0.151 4.526 0 0 Z " fill="#6D00B1" transform="translate(459,740)"/>
<path d="M0 0 C0.33 0.66 0.66 1.32 1 2 C-1.245 3.177 -3.495 4.341 -5.75 5.5 C-6.701 6.001 -6.701 6.001 -7.672 6.512 C-11.12 8.272 -13.048 9 -17 9 C-17 8.34 -17 7.68 -17 7 C-15.68 7 -14.36 7 -13 7 C-13 6.34 -13 5.68 -13 5 C-11.35 5 -9.7 5 -8 5 C-8 4.34 -8 3.68 -8 3 C-5.36 2.01 -2.72 1.02 0 0 Z " fill="#F400C3" transform="translate(566,846)"/>
<path d="M0 0 C1.771 0.478 3.542 0.958 5.312 1.438 C6.299 1.704 7.285 1.971 8.301 2.246 C10.215 2.781 12.114 3.371 14 4 C14 4.66 14 5.32 14 6 C14.66 6.33 15.32 6.66 16 7 C10.35 6.399 5.338 4.925 0 3 C0 2.01 0 1.02 0 0 Z " fill="#4D00B8" transform="translate(474,836)"/>
<path d="M0 0 C0.66 0.33 1.32 0.66 2 1 C-7.226 7.704 -7.226 7.704 -13 8 C-12.67 6.68 -12.34 5.36 -12 4 C-11.218 3.795 -10.435 3.59 -9.629 3.379 C-8.617 3.109 -7.605 2.84 -6.562 2.562 C-5.553 2.296 -4.544 2.029 -3.504 1.754 C-1.082 1.24 -1.082 1.24 0 0 Z " fill="#640044" transform="translate(564,740)"/>
<path d="M0 0 C0.66 0.33 1.32 0.66 2 1 C1.074 2.819 0.134 4.63 -0.812 6.438 C-1.596 7.952 -1.596 7.952 -2.395 9.496 C-4 12 -4 12 -7 13 C-7 11.68 -7 10.36 -7 9 C-6.01 8.34 -5.02 7.68 -4 7 C-2.952 5.025 -1.948 3.025 -1 1 C-0.67 0.67 -0.34 0.34 0 0 Z " fill="#B00068" transform="translate(594,796)"/>
<path d="M0 0 C0.66 0.66 1.32 1.32 2 2 C1.541 2.387 1.082 2.773 0.609 3.172 C-2.725 6.002 -5.965 8.844 -9 12 C-9.99 11.67 -10.98 11.34 -12 11 C-8.04 7.37 -4.08 3.74 0 0 Z " fill="#37005E" transform="translate(590,830)"/>
<path d="M0 0 C0.814 0.615 0.814 0.615 1.645 1.242 C2.36 1.781 3.075 2.32 3.812 2.875 C4.52 3.409 5.228 3.942 5.957 4.492 C7.605 5.708 9.296 6.864 11 8 C11 8.66 11 9.32 11 10 C10.01 10 9.02 10 8 10 C7.34 9.34 6.68 8.68 6 8 C5.34 8 4.68 8 4 8 C3.67 6.68 3.34 5.36 3 4 C1.68 3.67 0.36 3.34 -1 3 C-0.67 2.01 -0.34 1.02 0 0 Z " fill="#8F003E" transform="translate(570,688)"/>
<path d="M0 0 C0.901 0.018 1.802 0.036 2.73 0.055 C3.418 0.078 4.105 0.101 4.812 0.125 C2.288 2.65 0.674 2.682 -2.812 3.25 C-3.815 3.418 -4.818 3.585 -5.852 3.758 C-6.622 3.879 -7.393 4 -8.188 4.125 C-8.188 3.465 -8.188 2.805 -8.188 2.125 C-4.874 -0.084 -3.843 -0.1 0 0 Z " fill="#F700F0" transform="translate(541.1875,855.875)"/>
<path d="M0 0 C0.33 0.99 0.66 1.98 1 3 C0.01 3.66 -0.98 4.32 -2 5 C-2 5.99 -2 6.98 -2 8 C-3.98 8.99 -3.98 8.99 -6 10 C-6.25 7.688 -6.25 7.688 -6 5 C-3.956 3.024 -2.882 2 0 2 C0 1.34 0 0.68 0 0 Z " fill="#780092" transform="translate(570,822)"/>
<path d="M0 0 C2.916 3.54 5.501 7.163 8 11 C6.68 11 5.36 11 4 11 C0 4.5 0 4.5 0 0 Z " fill="#290148" transform="translate(424,812)"/>
<path d="M0 0 C0.33 0 0.66 0 1 0 C1.432 6.261 0.927 9.091 -3 14 C-3.688 12.312 -3.688 12.312 -4 10 C-3.045 8.307 -2.041 6.641 -1 5 C-0.293 2.307 -0.293 2.307 0 0 Z " fill="#E400ED" transform="translate(561,745)"/>
<path d="M0 0 C0.99 0.33 1.98 0.66 3 1 C3.33 4.96 3.66 8.92 4 13 C0.722 9.722 0.595 9.164 0.312 4.812 C0.247 3.911 0.181 3.01 0.113 2.082 C0.057 1.051 0.057 1.051 0 0 Z " fill="#9000D8" transform="translate(462,742)"/>
<path d="M0 0 C5.089 1.59 8.875 4.745 13 8 C9.306 8 7.222 6.718 4 5 C4 4.34 4 3.68 4 3 C2.68 2.34 1.36 1.68 0 1 C0 0.67 0 0.34 0 0 Z " fill="#2D0241" transform="translate(460,752)"/>
<path d="M0 0 C0.99 0.33 1.98 0.66 3 1 C3 4.63 3 8.26 3 12 C2.01 11.34 1.02 10.68 0 10 C-0.293 7.617 -0.293 7.617 -0.188 4.875 C-0.16 3.965 -0.133 3.055 -0.105 2.117 C-0.071 1.419 -0.036 0.72 0 0 Z " fill="#4F0083" transform="translate(457,739)"/>
<path d="M0 0 C3.039 1.41 5.594 3.089 8.25 5.125 C8.956 5.664 9.663 6.203 10.391 6.758 C11.187 7.373 11.187 7.373 12 8 C10.333 8 8.667 8 7 8 C6.34 7.01 5.68 6.02 5 5 C2.941 4.276 2.941 4.276 1 4 C0.67 2.68 0.34 1.36 0 0 Z " fill="#260038" transform="translate(477,764)"/>
<path d="M0 0 C1.562 1.438 1.562 1.438 3 4 C2.968 7.054 2.533 9.997 2 13 C0.216 9.938 -0.229 7.779 -0.125 4.25 C-0.107 3.451 -0.089 2.652 -0.07 1.828 C-0.047 1.225 -0.024 0.622 0 0 Z " fill="#3B004D" transform="translate(408,765)"/>
<path d="M0 0 C1.65 0 3.3 0 5 0 C5 0.66 5 1.32 5 2 C5.99 2 6.98 2 8 2 C8 2.66 8 3.32 8 4 C8.99 4.33 9.98 4.66 11 5 C10.01 5.495 10.01 5.495 9 6 C6.836 5.004 6.836 5.004 4.375 3.562 C3.558 3.089 2.74 2.616 1.898 2.129 C1.272 1.756 0.645 1.384 0 1 C0 0.67 0 0.34 0 0 Z " fill="#4400AC" transform="translate(464,832)"/>
<path d="M0 0 C0.99 0.33 1.98 0.66 3 1 C3.688 3.062 3.688 3.062 4 5 C1.36 4.67 -1.28 4.34 -4 4 C-2.68 2.68 -1.36 1.36 0 0 Z " fill="#6900BF" transform="translate(491,840)"/>
<path d="M0 0 C-5.176 3.223 -5.176 3.223 -7 4 C-7.99 3.67 -8.98 3.34 -10 3 C-9.67 2.01 -9.34 1.02 -9 0 C-2.25 -1.125 -2.25 -1.125 0 0 Z " fill="#5E00AB" transform="translate(559,835)"/>
<path d="M0 0 C0.99 0.33 1.98 0.66 3 1 C0.455 3.969 -2.49 5.362 -6 7 C-6.33 6.34 -6.66 5.68 -7 5 C-5.906 4.133 -4.799 3.282 -3.688 2.438 C-3.073 1.962 -2.458 1.486 -1.824 0.996 C-1.222 0.667 -0.62 0.339 0 0 Z " fill="#65003E" transform="translate(566,752)"/>
<path d="M0 0 C2.648 2.578 4.944 4.916 7 8 C6.01 8 5.02 8 4 8 C3.67 7.34 3.34 6.68 3 6 C2.34 6 1.68 6 1 6 C0.67 4.02 0.34 2.04 0 0 Z " fill="#250145" transform="translate(432,823)"/>
<path d="M0 0 C2.243 2.884 4.363 5.726 6 9 C5.578 11.156 5.578 11.156 5 13 C4.159 11.4 3.328 9.795 2.5 8.188 C1.804 6.848 1.804 6.848 1.094 5.48 C0 3 0 3 0 0 Z " fill="#29007D" transform="translate(428,788)"/>
<path d="M0 0 C1.793 3.119 2.343 5.677 2.625 9.25 C2.7 10.142 2.775 11.034 2.852 11.953 C2.925 12.966 2.925 12.966 3 14 C2.34 14 1.68 14 1 14 C-0.148 4.59 -0.148 4.59 0 0 Z " fill="#1C0043" transform="translate(410,774)"/>
<path d="M0 0 C2.64 0.33 5.28 0.66 8 1 C8 1.66 8 2.32 8 3 C8.66 3.33 9.32 3.66 10 4 C3.477 3.385 3.477 3.385 1.062 1.438 C0.712 0.963 0.361 0.489 0 0 Z " fill="#F300EE" transform="translate(477,854)"/>
<path d="M0 0 C2.125 3.188 2.502 5.265 3 9 C2.01 8.67 1.02 8.34 0 8 C-1.125 2.25 -1.125 2.25 0 0 Z " fill="#C5003F" transform="translate(598,725)"/>
<path d="M0 0 C0.66 0 1.32 0 2 0 C2.66 2.31 3.32 4.62 4 7 C2.02 5.35 0.04 3.7 -2 2 C-1.34 1.34 -0.68 0.68 0 0 Z " fill="#4A008F" transform="translate(448,815)"/>
<path d="M0 0 C2.867 0.573 3.861 0.861 6 3 C5.34 3.66 4.68 4.32 4 5 C1.525 4.01 1.525 4.01 -1 3 C-0.67 2.01 -0.34 1.02 0 0 Z " fill="#440085" transform="translate(440,808)"/>
<path d="M0 0 C5.538 0.492 5.538 0.492 7.875 3.062 C8.432 4.022 8.432 4.022 9 5 C6.03 4.01 3.06 3.02 0 2 C0 1.34 0 0.68 0 0 Z " fill="#660042" transform="translate(561,684)"/>
</svg>
