<?xml version="1.0" encoding="UTF-8"?>
<!-- Generator: visioncortex VTracer 0.6.4 -->
<svg version="1.1" xmlns="http://www.w3.org/2000/svg" width="1024" height="1024">
<path d="M0 0 C337.92 0 675.84 0 1024 0 C1024 337.92 1024 675.84 1024 1024 C686.08 1024 348.16 1024 0 1024 C0 686.08 0 348.16 0 0 Z " fill="#060605" transform="translate(0,0)"/>
<path d="M0 0 C1.064 0.009 2.127 0.018 3.223 0.027 C16.072 0.311 25.602 3.632 35.188 12.438 C44.527 23.08 49.606 35.015 49.5 49.188 C49.493 50.366 49.493 50.366 49.485 51.568 C49.216 65.029 44.994 77.354 35.68 87.266 C24.493 97.014 11.597 101.076 -3.105 100.719 C-15.821 99.754 -27.309 95.102 -36.035 85.609 C-46.458 72.873 -49.152 57.493 -47.812 41.438 C-46.18 29.443 -40.589 16.933 -30.812 9.438 C-20.903 2.496 -12.057 -0.122 0 0 Z " fill="#F7F7F6" transform="translate(376.8125,226.5625)"/>
<path d="M0 0 C10.197 8.118 16.303 18.218 18.605 31.074 C18.893 34.351 18.94 37.599 18.918 40.887 C18.911 42.21 18.911 42.21 18.903 43.56 C18.785 50.114 18.1 55.959 15.605 62.074 C15.265 62.92 14.925 63.765 14.574 64.637 C9.241 76.457 0.539 83.92 -11.332 88.824 C-24.496 93.319 -37.423 92.847 -50.395 88.074 C-54.124 86.12 -57.227 83.836 -60.395 81.074 C-61.038 80.551 -61.681 80.028 -62.344 79.488 C-70.804 71.964 -74.851 60.969 -75.527 49.9 C-76.303 33.748 -74.095 19.169 -63.805 6.047 C-47.676 -11.296 -19.226 -13.234 0 0 Z " fill="#F7F7F6" transform="translate(486.39453125,365.92578125)"/>
<path d="M0 0 C10.398 8.191 16.74 19.278 19.125 32.312 C20.737 48.328 18.425 63.447 8.125 76.312 C-0.507 85.682 -11.293 91.043 -24.047 91.684 C-34.52 91.913 -43.678 91.974 -52.875 86.312 C-53.605 85.866 -54.334 85.42 -55.086 84.961 C-65.2 78.025 -71.781 68.601 -74.484 56.609 C-76.548 39.193 -75.532 22.847 -64.875 8.312 C-49.388 -10.789 -19.954 -13.546 0 0 Z " fill="#F7F7F5" transform="translate(592.875,365.6875)"/>
<path d="M0 0 C8.58 0 17.16 0 26 0 C29.357 5.371 32.305 10.418 34.918 16.113 C35.261 16.85 35.605 17.586 35.958 18.344 C37.04 20.665 38.114 22.988 39.188 25.312 C40.273 27.654 41.359 29.995 42.449 32.334 C43.123 33.782 43.794 35.231 44.462 36.681 C45.825 39.615 47.201 42.302 49 45 C50.942 44.747 50.942 44.747 53 44 C54.586 41.445 55.901 39.011 57.188 36.309 C57.572 35.53 57.956 34.751 58.352 33.949 C59.581 31.451 60.791 28.945 62 26.438 C62.814 24.775 63.629 23.113 64.445 21.451 C65.957 18.37 67.461 15.286 68.957 12.197 C70.937 8.114 72.963 4.055 75 0 C79.312 -0.029 83.625 -0.047 87.938 -0.062 C89.169 -0.071 90.401 -0.079 91.67 -0.088 C92.84 -0.091 94.01 -0.094 95.215 -0.098 C96.841 -0.106 96.841 -0.106 98.5 -0.114 C101 0 101 0 102 1 C102.095 4.014 102.126 7.004 102.114 10.018 C102.114 10.964 102.114 11.91 102.114 12.885 C102.113 16.029 102.105 19.173 102.098 22.316 C102.096 24.49 102.094 26.663 102.093 28.836 C102.09 34.569 102.08 40.302 102.069 46.034 C102.058 51.879 102.054 57.724 102.049 63.568 C102.038 75.046 102.021 86.523 102 98 C98.188 98.029 94.375 98.047 90.562 98.062 C89.474 98.071 88.385 98.079 87.264 98.088 C86.229 98.091 85.195 98.094 84.129 98.098 C83.171 98.103 82.212 98.108 81.225 98.114 C79 98 79 98 78 97 C77.877 95.252 77.822 93.498 77.795 91.746 C77.765 90.064 77.765 90.064 77.734 88.349 C77.718 87.129 77.701 85.909 77.684 84.652 C77.663 83.411 77.642 82.169 77.621 80.89 C77.566 77.584 77.516 74.278 77.468 70.972 C77.418 67.6 77.362 64.229 77.307 60.857 C77.199 54.238 77.098 47.619 77 41 C76.41 42.16 75.82 43.321 75.212 44.517 C73.018 48.827 70.82 53.135 68.62 57.443 C67.669 59.306 66.719 61.171 65.771 63.036 C64.407 65.718 63.038 68.398 61.668 71.078 C61.246 71.911 60.824 72.743 60.389 73.601 C59.989 74.381 59.589 75.162 59.177 75.966 C58.828 76.65 58.479 77.334 58.12 78.038 C56.882 80.207 55.649 82.12 54 84 C50.625 84.75 50.625 84.75 47 84 C45.699 82.464 45.699 82.464 44.534 80.465 C44.109 79.738 43.683 79.011 43.245 78.262 C41.351 74.821 39.558 71.343 37.828 67.816 C37.46 67.075 37.092 66.334 36.713 65.571 C35.555 63.237 34.402 60.9 33.25 58.562 C32.083 56.201 30.914 53.839 29.744 51.479 C29.019 50.018 28.297 48.555 27.577 47.092 C26.112 43.829 26.112 43.829 24 41 C23.67 59.48 23.34 77.96 23 97 C15.41 97 7.82 97 0 97 C0 64.99 0 32.98 0 0 Z " fill="#F7F7F5" transform="translate(442,228)"/>
<path d="M0 0 C3.75 -0.116 7.499 -0.187 11.25 -0.25 C12.313 -0.284 13.377 -0.317 14.473 -0.352 C15.497 -0.364 16.522 -0.377 17.578 -0.391 C18.992 -0.422 18.992 -0.422 20.435 -0.454 C23.766 0.136 24.87 1.434 27 4 C28.227 5.757 29.403 7.55 30.539 9.367 C31.197 10.411 31.856 11.456 32.534 12.531 C33.224 13.635 33.914 14.738 34.625 15.875 C40.471 25.137 46.467 34.206 53 43 C53.616 43.851 54.232 44.702 54.867 45.578 C57.426 49.366 57.426 49.366 61 52 C61 35.17 61 18.34 61 1 C69.25 1 77.5 1 86 1 C86 32.68 86 64.36 86 97 C78.41 97 70.82 97 63 97 C55.21 87.819 55.21 87.819 53.043 83.504 C49.989 77.788 46.281 72.796 42.312 67.688 C36.369 59.911 30.661 51.982 25 44 C24.992 44.647 24.984 45.294 24.975 45.961 C24.89 52.676 24.79 59.392 24.683 66.107 C24.644 68.615 24.609 71.124 24.578 73.632 C24.533 77.232 24.475 80.831 24.414 84.43 C24.403 85.557 24.391 86.684 24.379 87.845 C24.359 88.886 24.339 89.927 24.319 91 C24.306 91.919 24.292 92.838 24.278 93.785 C24 96 24 96 22 98 C19.861 98.243 19.861 98.243 17.246 98.23 C15.841 98.228 15.841 98.228 14.408 98.225 C13.428 98.212 12.448 98.2 11.438 98.188 C10.453 98.187 9.469 98.186 8.455 98.186 C1.14 98.14 1.14 98.14 0 97 C-0.095 93.986 -0.126 90.996 -0.114 87.982 C-0.114 87.036 -0.114 86.09 -0.114 85.115 C-0.113 81.971 -0.105 78.827 -0.098 75.684 C-0.096 73.51 -0.094 71.337 -0.093 69.164 C-0.09 63.431 -0.08 57.698 -0.069 51.966 C-0.058 46.121 -0.054 40.276 -0.049 34.432 C-0.038 22.954 -0.021 11.477 0 0 Z " fill="#F5F6F4" transform="translate(611,228)"/>
<path d="M0 0 C6.93 0 13.86 0 21 0 C27.737 7.86 27.737 7.86 29.57 11.023 C29.986 11.726 30.401 12.429 30.829 13.152 C31.257 13.886 31.684 14.619 32.125 15.375 C35.931 21.745 39.903 27.941 44.188 34 C44.65 34.657 45.112 35.313 45.588 35.99 C49.534 41.511 53.743 46.679 58 52 C58.495 26.755 58.495 26.755 59 1 C66.92 1 74.84 1 83 1 C83 32.68 83 64.36 83 97 C61 97 61 97 55.809 92.602 C54.037 89.735 54.037 89.735 52.438 86.625 C51.168 84.506 49.895 82.389 48.621 80.273 C48.019 79.214 47.417 78.154 46.796 77.062 C44.159 72.566 41.112 68.424 38 64.25 C36.95 62.81 35.902 61.368 34.855 59.926 C34.371 59.261 33.887 58.597 33.388 57.913 C32.079 56.108 30.781 54.297 29.488 52.48 C28.77 51.476 28.052 50.472 27.312 49.438 C26.711 48.591 26.109 47.744 25.488 46.871 C24.124 44.887 24.124 44.887 22 44 C22.002 44.649 22.004 45.298 22.007 45.967 C22.029 52.699 22.044 59.43 22.055 66.162 C22.06 68.677 22.067 71.192 22.075 73.708 C22.088 77.314 22.093 80.921 22.098 84.527 C22.103 85.66 22.108 86.792 22.113 87.958 C22.113 89.52 22.113 89.52 22.114 91.113 C22.116 92.035 22.118 92.956 22.12 93.906 C22 96 22 96 21 97 C14.07 97 7.14 97 0 97 C0 64.99 0 32.98 0 0 Z " fill="#F6F7F5" transform="translate(628,359)"/>
<path d="M0 0 C0.92 -0.012 1.841 -0.023 2.789 -0.035 C15.728 0.02 26.451 4.624 35.625 13.75 C36.761 14.948 37.89 16.153 39 17.375 C37.442 21.595 34.281 23.906 30.875 26.625 C30.03 27.313 30.03 27.313 29.168 28.016 C27.784 29.142 26.393 30.259 25 31.375 C22.112 30.063 20.038 28.62 17.75 26.438 C12.299 21.694 6.53 19.724 -0.707 20.035 C-7.801 21.087 -13.057 24.408 -17.492 29.988 C-23.525 39.538 -24.571 50.822 -22.25 61.75 C-19.53 69.638 -16.023 74.922 -8.312 78.688 C-1.074 80.19 5.865 80.448 12.406 76.641 C15.019 74.566 15.995 72.516 17 69.375 C17.039 67.375 17.045 65.375 17 63.375 C16.145 63.314 15.291 63.254 14.41 63.191 C13.305 63.108 12.201 63.024 11.062 62.938 C9.96 62.856 8.858 62.775 7.723 62.691 C5 62.375 5 62.375 4 61.375 C3.9 58.864 3.861 56.386 3.875 53.875 C3.869 52.821 3.869 52.821 3.863 51.746 C3.873 46.502 3.873 46.502 5 45.375 C7.509 45.274 9.99 45.235 12.5 45.242 C13.251 45.241 14.002 45.24 14.775 45.239 C16.366 45.239 17.956 45.24 19.547 45.245 C21.99 45.25 24.432 45.245 26.875 45.238 C28.417 45.239 29.958 45.24 31.5 45.242 C32.235 45.24 32.971 45.238 33.729 45.236 C38.885 45.26 38.885 45.26 40 46.375 C40.39 51.196 40.486 56.019 40.57 60.855 C40.606 62.478 40.661 64.1 40.734 65.722 C41.409 80.887 41.409 80.887 35.762 87.289 C23.541 98.742 10.047 101.191 -6.207 100.723 C-18.89 100.03 -29.396 93.887 -38.078 84.84 C-48.207 71.85 -50.16 57.354 -49 41.375 C-48.404 37.493 -47.442 34.023 -46 30.375 C-45.671 29.538 -45.343 28.702 -45.004 27.84 C-39.901 16.415 -30.554 7.055 -18.812 2.532 C-12.474 0.417 -6.65 -0.084 0 0 Z " fill="#F7F7F5" transform="translate(764,226.625)"/>
<path d="M0 0 C2.036 1.334 3.973 2.763 5.902 4.246 C5.329 7.777 4.125 9.335 1.527 11.746 C-0.95 14.112 -3.162 16.4 -5.098 19.246 C-9.72 18.268 -13.9 16.261 -18.223 14.402 C-22.51 12.678 -25.97 12.09 -30.598 12.059 C-31.536 12.044 -32.475 12.03 -33.441 12.016 C-36.192 12.254 -37.793 12.754 -40.098 14.246 C-41.535 17.121 -41.479 19.065 -41.098 22.246 C-37.154 26.174 -32.652 27.815 -27.535 29.684 C-25.92 30.298 -24.306 30.912 -22.691 31.527 C-19.988 32.544 -17.281 33.542 -14.566 34.527 C-6.281 37.688 -0.042 41.875 4.965 49.309 C7.39 56.533 7.181 66.143 4.34 73.184 C-0.957 82.984 -8.333 88.323 -18.91 91.559 C-34.696 94.791 -52.531 90.586 -66.098 82.246 C-67.447 81.267 -68.786 80.274 -70.098 79.246 C-68.439 74.921 -65.227 72.152 -61.973 68.996 C-61.409 68.442 -60.846 67.887 -60.266 67.316 C-58.881 65.955 -57.49 64.6 -56.098 63.246 C-53.063 64.418 -50.2 65.686 -47.348 67.246 C-40.477 70.701 -32.773 72.23 -25.098 71.246 C-21.463 69.622 -20.324 68.585 -18.098 65.246 C-17.514 62.289 -17.514 62.289 -18.098 59.246 C-23.25 53.836 -31.138 51.807 -37.932 49.133 C-48.291 44.963 -59.094 40.475 -64.23 29.918 C-66.713 22.268 -65.771 13.686 -62.418 6.465 C-57.944 -1.053 -51.534 -4.907 -43.249 -7.284 C-28.464 -10.512 -12.88 -7.54 0 0 Z " fill="#F8F8F6" transform="translate(392.09765625,365.75390625)"/>
<path d="M0 0 C1.401 -0.024 1.401 -0.024 2.83 -0.049 C15.001 -0.057 25.693 3.863 34.438 12.547 C36.09 14.426 37.673 16.322 39.188 18.312 C37.665 22.614 34.43 24.651 30.812 27.125 C29.946 27.754 29.946 27.754 29.062 28.396 C24.842 31.321 24.842 31.321 22.012 31.285 C19.785 30.098 18.191 28.69 16.375 26.938 C10.361 21.553 4.951 19.648 -3.098 19.902 C-8.925 20.783 -13.007 23.969 -16.625 28.5 C-22.98 38.527 -23.182 50.819 -21.125 62.25 C-19.496 68.286 -16.61 72.91 -11.688 76.75 C-5.854 79.92 -0.174 80.045 6.305 78.957 C12.733 77.034 16.795 72.162 21.188 67.312 C27.359 70.508 33.055 73.596 38.188 78.312 C37.055 84.49 32.714 89.322 27.887 93.125 C15.248 101.188 0.059 102.357 -14.488 99.621 C-20.866 97.684 -25.863 94.734 -30.812 90.312 C-31.702 89.595 -31.702 89.595 -32.609 88.863 C-41.228 81.293 -45.954 69.293 -47.03 58.042 C-47.874 41.894 -45.268 26.715 -34.777 13.809 C-25.137 3.488 -13.849 -0.047 0 0 Z " fill="#F7F7F6" transform="translate(279.8125,226.6875)"/>
<path d="M0 0 C8.25 0 16.5 0 25 0 C25.023 12.5 25.041 24.999 25.052 37.499 C25.057 43.302 25.064 49.106 25.075 54.909 C25.086 60.505 25.092 66.1 25.095 71.696 C25.097 73.836 25.1 75.976 25.106 78.115 C25.113 81.102 25.114 84.088 25.114 87.074 C25.117 87.968 25.121 88.862 25.124 89.783 C25.114 95.886 25.114 95.886 24 97 C22.304 97.099 20.605 97.131 18.906 97.133 C17.876 97.134 16.846 97.135 15.785 97.137 C14.159 97.131 14.159 97.131 12.5 97.125 C11.416 97.129 10.332 97.133 9.215 97.137 C8.185 97.135 7.155 97.134 6.094 97.133 C5.142 97.132 4.19 97.131 3.209 97.129 C1 97 1 97 0 96 C-0.095 93.017 -0.126 90.057 -0.114 87.074 C-0.114 86.137 -0.114 85.201 -0.114 84.236 C-0.113 81.125 -0.105 78.014 -0.098 74.902 C-0.096 72.751 -0.094 70.601 -0.093 68.45 C-0.09 62.776 -0.08 57.103 -0.069 51.429 C-0.058 45.645 -0.054 39.861 -0.049 34.076 C-0.038 22.717 -0.02 11.359 0 0 Z " fill="#F2F2F0" transform="translate(565,229)"/>
<path d="M0 0 C7.772 4.599 10.732 11.074 13.148 19.422 C14.417 30.079 13.357 40.864 7.461 50.047 C3.389 55.024 -1.561 58.478 -7.996 59.398 C-14.342 59.613 -20.276 58.834 -25.227 54.605 C-33.002 46.228 -35.018 36.264 -34.816 25.207 C-34.457 17.331 -31.744 10.182 -26.211 4.484 C-18.97 -1.741 -9.086 -3.411 0 0 Z " fill="#060606" transform="translate(388.5390625,247.953125)"/>
<path d="M0 0 C7.043 3.716 10.488 9.92 12.918 17.18 C15.203 27.019 14.498 37.761 9.32 46.559 C5.557 51.932 1.257 56.01 -5.355 57.309 C-12.537 57.989 -18.414 57.65 -24.355 53.309 C-30.926 47.036 -33.49 39.659 -33.83 30.686 C-33.943 20.035 -32.201 12.023 -25.113 3.781 C-18.208 -2.004 -8.469 -2.486 0 0 Z " fill="#060606" transform="translate(468.35546875,379.69140625)"/>
<path d="M0 0 C6.057 4.614 10 11.132 11.25 18.621 C12.396 29.814 11.134 38.974 4.812 48.5 C0.751 53.444 -3.96 55.578 -10.242 56.438 C-17.467 56.758 -22.759 55.344 -28.219 50.555 C-35.33 43.06 -35.98 34.639 -35.924 24.736 C-35.645 15.728 -33.096 8.358 -26.5 2.062 C-19.366 -3.492 -7.934 -4.394 0 0 Z " fill="#060606" transform="translate(577.5,380.9375)"/>
<path d="M0 0 C0.33 0.66 0.66 1.32 1 2 C-0.623 3.709 -2.293 5.374 -4 7 C-4.66 7 -5.32 7 -6 7 C-6 5.35 -6 3.7 -6 2 C-4.02 1.34 -2.04 0.68 0 0 Z " fill="#E3E3E1" transform="translate(497,275)"/>
<path d="M0 0 C2.741 -0.222 4.44 -0.348 6.812 1.125 C8.491 3.775 8.205 5.932 8 9 C6 8 6 8 4.562 5.062 C3.204 1.783 3.204 1.783 0 0 Z " fill="#E3E3E0" transform="translate(670,283)"/>
<path d="M0 0 C1.32 0 2.64 0 4 0 C4 2.31 4 4.62 4 7 C2 5.188 2 5.188 0 3 C0 2.01 0 1.02 0 0 Z " fill="#E4E5E1" transform="translate(687,414)"/>
</svg>
