<svg width="1080" height="1080" viewBox="0 0 1080 1080" xmlns="http://www.w3.org/2000/svg" preserveAspectRatio="xMidYMid meet">
  <defs>
    <linearGradient id="orangeGradient" x1="0" y1="0" x2="0" y2="1">
      <stop offset="0%" stop-color="#ffcc33"/>
      <stop offset="100%" stop-color="#ff6600"/>
    </linearGradient>
    <filter id="shadow" x="-20%" y="-20%" width="140%" height="140%" color-interpolation-filters="sRGB">
      <feDropShadow dx="0" dy="8" stdDeviation="5" flood-color="#6f2c00" flood-opacity="0.7"/>
    </filter>
  </defs>
  <g id="background-layer">
    <image x="0" y="0" width="1080" height="1080" href="https://ik.imagekit.io/jgajvtqmd/edited_temp_input_20250625_140901_c55fb421-b2a3-41c2-87e9-5913860b380b.png"/>
  </g>
  <g id="elements-layer" opacity="0.8" filter="url(#shadow)">
    <g transform="translate(0,0)">
      <path d="M0 0 C337.92 0 675.84 0 1024 0 C1024 337.92 1024 675.84 1024 1024 C686.08 1024 348.16 1024 0 1024 C0 686.08 0 348.16 0 0 Z" fill="#4B0E1B"/>
      <path d="M0 0 C4.271 2.848 6.049 5.602 8.008 10.195 C9.004 12.336 9.004 12.336 12 14 C12.73 16.164 12.73 16.164 13.188 18.625 C13.346 19.442 13.505 20.26 13.668 21.102 C13.778 21.728 13.887 22.355 14 23 C14.598 23.041 15.196 23.082 15.812 23.125 C19.154 24.462 19.596 26.775 21 30 C21.777 31.52 21.777 31.52 22.57 33.07 C23.083 34.078 23.596 35.086 24.125 36.125 C24.643 37.138 25.161 38.151 25.695 39.195 C26.771 41.508 27.512 43.512 28 46 C28.66 46 29.32 46 30 46 C32.53 50.681 34.262 55.463 35.938 60.512 C37.006 63.014 38.058 64.165 40 66 C40.356 67.662 40.692 69.328 41 71 C41.99 71.495 41.99 71.495 43 72 C43 73.65 43 75.3 43 77 C43.784 77.289 44.567 77.577 45.375 77.875 C48 79 48 79 50 81 C49.505 82.485 49.505 82.485 49 84 C48.67 83.34 48.34 82.68 48 82 C47.01 82.33 46.02 82.66 45 83 C45.33 84.65 45.66 86.3 46 88 C46.66 88 47.32 88 48 88 C50.388 90.388 50.354 91.769 51 95 C51.99 95.99 51.99 95.99 53 97 C53.849 99.276 54.524 101.579 55.219 103.906 C55.901 106.178 55.901 106.178 58 108 C58.347 109.998 58.68 111.998 59 114 C59.658 115.338 60.325 116.671 61 118 C61.789 120.312 62.505 122.64 63.219 124.977 C63.914 127.184 63.914 127.184 66 129 C69 135.346 69 135.346 69 139 C69.66 139.33 70.32 139.66 71 140 C72.074 141.961 73.061 143.971 74 146 C74.425 146.915 74.425 146.915 74.859 147.848 C76.16 150.738 77 152.796 77 156 C77.66 156 78.32 156 79 156 C80.765 159.088 81 160.233 81 164 C81.99 164 82.98 164 84 164 C84.433 164.928 84.866 165.856 85.312 166.812 C86.731 169.918 86.731 169.918 88.625 171.5 C90.769 173.839 90.764 175.874 91 179 C90.791 181.702 90.416 184.318 90 187 C87.477 183.876 85.727 180.619 84 177 C84 178.65 84 180.3 84 182 C82.5 180.625 82.5 180.625 81 179 C81 178.34 81 177.68 81 177 C79.68 177.33 78.36 177.66 77 178 C77.309 178.907 77.619 179.815 77.938 180.75 C78.727 183.166 79.429 185.528 80 188 C80.66 188 81.32 188 82 188 C82.121 188.566 82.242 189.132 82.367 189.715 C82.535 190.448 82.702 191.182 82.875 191.938 C83.037 192.668 83.2 193.399 83.367 194.152 C83.83 196.207 83.83 196.207 86 197 C87.175 199.486 88.263 201.961 89.312 204.5 C91.246 209.068 93.166 213.53 95.688 217.812 C98.119 221.948 99.62 226.262 101.105 230.812 C101.789 233.169 101.789 233.169 104 234 C104.731 236.314 105.401 238.648 106 241 C103 240 103 240 101.832 238.152 C101.496 237.421 101.159 236.691 100.812 235.938 C100.468 235.204 100.124 234.471 99.77 233.715 C99.516 233.149 99.262 232.583 99 232 C97.68 232 96.36 232 95 232 C91.94 229.053 91.469 226.128 91 222 C90.34 222 89.68 222 89 222 C86.153 214.718 83.397 207.443 81 200 C80.01 200 79.02 200 78 200 C77.752 198.845 77.505 197.69 77.25 196.5 C76.126 191.939 74.214 188.132 72 184 C71.34 184 70.68 184 70 184 C70.062 183.278 70.124 182.556 70.188 181.812 C69.964 178.456 68.774 176.808 67 174 C67 173.01 67 172.02 67 171 C66.34 171 65.68 171 65 171 C62.848 167.772 62.799 166.716 63 163 C62.34 163 61.68 163 61 163 C59.659 160.399 58.327 157.795 57 155.188 C56.618 154.45 56.237 153.712 55.844 152.951 C55.483 152.239 55.122 151.527 54.75 150.793 C54.415 150.138 54.08 149.484 53.734 148.809 C53 147 53 147 53 144 C52.34 144 51.68 144 51 144 C50.845 143.041 50.845 143.041 50.688 142.062 C50.461 141.382 50.234 140.701 50 140 C49.01 139.67 48.02 139.34 47 139 C46.425 135.265 46 131.787 46 128 C45.34 128 44.68 128 44 128 C43.67 127.01 43.34 126.02 43 125 C42.01 124.505 42.01 124.505 41 124 C39.467 121.385 38.705 118.925 38 116 C37.558 114.267 37.099 112.537 36.625 110.812 C36.39 109.932 36.156 109.052 35.914 108.145 C35.462 107.083 35.462 107.083 35 106 C34.01 105.67 33.02 105.34 32 105 C31.27 103.152 31.27 103.152 30.812 100.938 C30.654 100.204 30.495 99.471 30.332 98.715 C30.222 98.149 30.113 97.583 30 97 C29.34 97 28.68 97 28 97 C27.34 95.35 26.68 93.7 26 92 C25.34 92 24.68 92 24 92 C22.515 87.05 22.515 87.05 21 82 C20.01 82.495 20.01 82.495 19 83 C19.33 81.35 19.66 79.7 20 78 C20.66 78 21.32 78 22 78 C21.084 70.83 20.135 64.522 17 58 C16.482 56.485 15.983 54.964 15.5 53.438 C14.312 49.766 12.834 46.405 11 43 C11.66 42.34 12.32 41.68 13 41 C13.167 37.417 13.167 37.417 13 34 C12.34 33.67 11.68 33.34 11 33 C10.375 29.938 10.375 29.938 10 27 C9.34 27 8.68 27 8 27 C7.67 23.7 7.34 20.4 7 17 C6.34 17 5.68 17 5 17 C4.505 14.525 4.505 14.525 4 12 C3.34 12 2.68 12 2 12 C1.907 11.556 1.814 11.113 1.75 10.625 C1.503 8.502 1 6.378 1 4.25 C0.666 3.668 0 3.035 0 2 C0 1.34 0 0.68 0 0 Z" fill="#1A814C"/>
    </g>
  </g>
  <g id="text-layer">
    <style>
      @import url('https://fonts.googleapis.com/css2?family=Roboto+Slab:wght@700&family=Courier+Prime&display=swap');
      .coming-soon {
        font-family: 'Roboto Slab', serif;
        font-weight: 700;
        font-size: 180px;
        fill: url(#orangeGradient);
        filter: url(#shadow);
        text-anchor: middle;
        dominant-baseline: middle;
        letter-spacing: 10px;
      }
      .stay-tuned {
        font-family: 'Courier Prime', monospace;
        font-weight: 400;
        font-size: 48px;
        fill: #d7cce6;
        text-anchor: middle;
        dominant-baseline: middle;
      }
    </style>
    <defs>
      <linearGradient id="orangeGradient" x1="0" y1="0" x2="0" y2="1">
        <stop offset="0%" stop-color="#ffcc33"/>
        <stop offset="100%" stop-color="#ff6600"/>
      </linearGradient>
      <filter id="shadow" x="-20%" y="-20%" width="140%" height="140%" color-interpolation-filters="sRGB">
        <feDropShadow dx="0" dy="8" stdDeviation="5" flood-color="#6f2c00" flood-opacity="0.7"/>
      </filter>
    </defs>
    <text x="540" y="486" class="coming-soon">COMING</text>
    <text x="540" y="558" class="coming-soon">SOON</text>
    <text x="540" y="630" class="stay-tuned">Stay tuned</text>
  </g>
</svg>