<svg width="1024" height="1024" viewBox="0 0 1024 1024" xmlns="http://www.w3.org/2000/svg">
  <!-- Paths from traced SVG -->
  <path d="M0 0 C337.92 0 675.84 0 1024 0 C1024 337.92 1024 675.84 1024 1024 C686.08 1024 348.16 1024 0 1024 C0 686.08 0 348.16 0 0 Z" fill="#000000" transform="translate(0,0)"/>
  <path d="M0 0 C4.65 3.501 7.491 8.349 9.312 13.812 C9.312 21.733 9.312 29.653 9.312 37.812 C66.733 37.812 124.153 37.812 183.312 37.812 C183.312 30.222 183.312 22.632 183.312 14.812 C187.779 5.88 191.197 -0.257 200.312 -4.125 C206.775 -6.174 213.003 -5.666 219.312 -3.188 C226.254 0.855 230.767 6.176 233.312 13.812 C233.395 15.659 233.42 17.508 233.41 19.355 C233.407 20.429 233.404 21.502 233.4 22.607 C233.392 23.727 233.384 24.847 233.375 26 C233.37 27.131 233.366 28.262 233.361 29.428 C233.35 32.223 233.333 35.018 233.312 37.812 C234.531 37.786 235.75 37.76 237.006 37.733 C241.605 37.641 246.205 37.585 250.805 37.538 C252.782 37.513 254.758 37.479 256.734 37.435 C275.925 37.021 292.262 39.572 307.062 53 C317.733 64.44 320.773 77.325 320.7 92.48 C320.704 93.843 320.71 95.207 320.716 96.57 C320.731 100.292 320.727 104.015 320.719 107.737 C320.715 111.761 320.727 115.785 320.737 119.809 C320.755 127.684 320.755 135.559 320.75 143.434 C320.746 149.839 320.748 156.244 320.753 162.649 C320.754 163.562 320.754 164.475 320.755 165.416 C320.757 167.271 320.758 169.126 320.76 170.981 C320.773 188.365 320.768 205.748 320.757 223.132 C320.747 239.013 320.76 254.893 320.784 270.774 C320.808 287.102 320.818 303.43 320.811 319.758 C320.807 328.916 320.81 338.074 320.827 347.232 C320.842 355.031 320.842 362.829 320.825 370.627 C320.817 374.601 320.814 378.574 320.83 382.548 C320.844 386.195 320.839 389.843 320.819 393.49 C320.814 395.414 320.828 397.337 320.843 399.26 C320.694 417.148 315.046 431.208 302.312 443.812 C293.496 451.941 282.069 456.927 270.096 456.947 C268.836 456.951 267.577 456.956 266.279 456.96 C264.884 456.96 263.489 456.96 262.094 456.96 C260.61 456.963 259.126 456.967 257.641 456.971 C253.562 456.981 249.482 456.985 245.403 456.987 C241.003 456.991 236.603 457.001 232.204 457.009 C221.578 457.029 210.951 457.039 200.325 457.048 C195.319 457.053 190.313 457.058 185.307 457.063 C168.661 457.08 152.015 457.095 135.37 457.102 C131.051 457.104 126.732 457.106 122.414 457.108 C120.804 457.108 119.161 457.109 119.161 457.109 C101.778 457.117 84.396 457.143 67.013 457.175 C49.16 457.208 31.307 457.226 13.453 457.23 C3.432 457.232 -6.589 457.24 -16.61 457.266 C-25.146 457.288 -33.681 457.296 -42.217 457.286 C-46.569 457.281 -50.921 457.283 -55.273 457.303 C-59.264 457.32 -63.255 457.319 -67.246 457.304 C-68.683 457.302 -70.12 457.306 -71.557 457.318 C-86.981 457.438 -99.774 453.714 -111.438 443.375 C-112.18 442.529 -112.923 441.684 -113.688 440.812 C-114.239 440.24 -114.791 439.668 -115.359 439.078 C-126.583 427.087 -129.152 412.865 -129.075 396.884 C-129.079 395.517 -129.085 394.15 -129.091 392.783 C-129.106 389.059 -129.102 385.336 -129.094 381.612 C-129.09 377.583 -129.102 373.555 -129.112 369.526 C-129.129 361.647 -129.13 353.768 -129.125 345.888 C-129.121 339.482 -129.123 333.075 -129.128 326.669 C-129.129 325.755 -129.129 324.842 -129.13 323.901 C-129.132 322.044 -129.133 320.188 -129.135 318.332 C-129.148 300.948 -129.143 283.563 -129.132 266.178 C-129.122 250.289 -129.135 234.4 -129.159 218.511 C-129.183 202.175 -129.193 185.839 -129.186 169.503 C-129.182 160.34 -129.185 151.177 -129.202 142.014 C-129.217 134.216 -129.217 126.417 -129.2 118.618 C-129.192 114.643 -129.189 110.668 -129.205 106.693 C-129.219 103.047 -129.214 99.402 -129.194 95.756 C-129.189 93.827 -129.203 91.898 -129.218 89.969 C-129.095 75.332 -123.894 63.166 -113.875 52.5 C-102.354 41.666 -88.387 37.625 -72.914 37.715 C-71.99 37.716 -71.067 37.718 -70.115 37.719 C-67.181 37.725 -64.247 37.737 -61.312 37.75 C-59.316 37.755 -57.32 37.76 -55.324 37.764 C-50.445 37.775 -45.566 37.792 -40.688 37.812 C-40.719 36.785 -40.719 36.785 -40.751 35.736 C-40.835 32.595 -40.886 29.454 -40.938 26.312 C-40.971 25.235 -41.005 24.157 -41.039 23.047 C-41.141 14.711 -39.775 9.387 -34.312 3.062 C-23.432 -6.263 -12.072 -7.751 0 0 Z" fill="#1EA7FE" transform="translate(415.6875,161.1875)"/>
  <path d="M0 0 C4.65 3.501 7.491 8.349 9.312 13.812 C9.312 21.733 9.312 29.653 9.312 37.812 C66.733 37.812 124.153 37.812 183.312 37.812 C183.312 30.222 183.312 22.632 183.312 14.812 C187.779 5.88 191.197 -0.257 200.312 -4.125 C206.775 -6.174 213.003 -5.666 219.312 -3.188 C226.254 0.855 230.767 6.176 233.312 13.812 C233.395 15.659 233.42 17.508 233.41 19.355 C233.407 20.429 233.404 21.502 233.4 22.607 C233.392 23.727 233.384 24.847 233.375 26 C233.37 27.131 233.366 28.262 233.361 29.428 C233.35 32.223 233.333 35.018 233.312 37.812 C234.531 37.786 235.75 37.76 237.006 37.733 C241.605 37.641 246.205 37.585 250.805 37.538 C252.782 37.513 254.758 37.479 256.734 37.435 C275.925 37.021 292.262 39.572 307.062 53 C317.733 64.44 320.773 77.325 320.7 92.48 C320.704 93.843 320.71 95.207 320.716 96.57 C320.731 100.292 320.727 104.015 320.719 107.737 C320.715 111.761 320.727 115.785 320.737 119.809 C320.755 127.684 320.755 135.559 320.75 143.434 C320.746 149.839 320.748 156.244 320.753 162.649 C320.754 163.562 320.754 164.475 320.755 165.416 C320.757 167.271 320.758 169.126 320.76 170.981 C320.773 188.365 320.768 205.748 320.757 223.132 C320.747 239.013 320.76 254.893 320.784 270.774 C320.808 287.102 320.818 303.43 320.811 319.758 C320.807 328.916 320.81 338.074 320.827 347.232 C320.842 355.031 320.842 362.829 320.825 370.627 C320.817 374.601 320.814 378.574 320.83 382.548 C320.844 386.195 320.839 389.843 320.819 393.49 C320.814 395.414 320.828 397.337 320.843 399.26 C320.694 417.148 315.046 431.208 302.312 443.812 C293.496 451.941 282.069 456.927 270.096 456.947 C268.836 456.951 267.577 456.956 266.279 456.96 C264.884 456.96 263.489 456.96 262.094 456.96 C260.61 456.963 259.126 456.967 257.641 456.971 C253.562 456.981 249.482 456.985 245.403 456.987 C241.003 456.991 236.603 457.001 232.204 457.009 C221.578 457.029 210.951 457.039 200.325 457.048 C195.319 457.053 190.313 457.058 185.307 457.063 C168.661 457.08 152.015 457.095 135.37 457.102 C131.051 457.104 126.732 457.106 122.414 457.108 C120.804 457.108 119.161 457.109 119.161 457.109 C101.778 457.117 84.396 457.143 67.013 457.175 C49.16 457.208 31.307 457.226 13.453 457.23 C3.432 457.232 -6.589 457.24 -16.61 457.266 C-25.146 457.288 -33.681 457.296 -42.217 457.286 C-46.569 457.281 -50.921 457.283 -55.273 457.303 C-59.264 457.32 -63.255 457.319 -67.246 457.304 C-68.683 457.302 -70.12 457.306 -71.557 457.318 C-86.981 457.438 -99.774 453.714 -111.438 443.375 C-112.18 442.529 -112.923 441.684 -113.688 440.812 C-114.239 440.24 -114.791 439.668 -115.359 439.078 C-126.583 427.087 -129.152 412.865 -129.075 396.884 C-129.079 395.517 -129.085 394.15 -129.091 392.783 C-129.106 389.059 -129.102 385.336 -129.094 381.612 C-129.09 377.583 -129.102 373.555 -129.112 369.526 C-129.129 361.647 -129.13 353.768 -129.125 345.888 C-129.121 339.482 -129.123 333.075 -129.128 326.669 C-129.129 325.755 -129.129 324.842 -129.13 323.901 C-129.132 322.044 -129.133 320.188 -129.135 318.332 C-129.148 300.948 -129.143 283.563 -129.132 266.178 C-129.122 250.289 -129.135 234.4 -129.159 218.511 C-129.183 202.175 -129.193 185.839 -129.186 169.503 C-129.182 160.34 -129.185 151.177 -129.202 142.014 C-129.217 134.216 -129.217 126.417 -129.2 118.618 C-129.192 114.643 -129.189 110.668 -129.205 106.693 C-129.219 103.047 -129.214 99.402 -129.194 95.756 C-129.189 93.827 -129.203 91.898 -129.218 89.969 C-129.095 75.332 -123.894 63.166 -113.875 52.5 C-102.354 41.666 -88.387 37.625 -72.914 37.715 C-71.99 37.716 -71.067 37.718 -70.115 37.719 C-67.181 37.725 -64.247 37.737 -61.312 37.75 C-59.316 37.755 -57.32 37.76 -55.324 37.764 C-50.445 37.775 -45.566 37.792 -40.688 37.812 C-40.719 36.785 -40.719 36.785 -40.751 35.736 C-40.835 32.595 -40.886 29.454 -40.938 26.312 C-40.971 25.235 -41.005 24.157 -41.039 23.047 C-41.141 14.711 -39.775 9.387 -34.312 3.062 C-23.432 -6.263 -12.072 -7.751 0 0 Z" fill="#1EA7FE" transform="translate(415.6875,161.1875)"/>
  <path d="M0 0 C57.42 0 114.84 0 174 0 C174.33 7.26 174.66 14.52 175 22 C177.922 30.251 181.867 35.374 189.688 39.375 C198.087 40.96 205.264 40.855 212.805 36.551 C218.668 32.409 221.54 28.032 223 21 C223.361 17.525 223.504 14.053 223.625 10.562 C223.664 9.64 223.702 8.718 223.742 7.768 C223.836 5.512 223.921 3.256 224 1 C230.046 0.85 236.092 0.742 242.14 0.67 C244.192 0.64 246.244 0.6 248.296 0.547 C262.596 0.192 272.778 0.533 284 10.312 C299.749 27.598 292 62.413 292 79 C156.37 79 20.74 79 -119 79 C-119 20.731 -119 20.731 -110.766 10.75 C-103.488 3.537 -95.722 0.772 -85.651 0.773 C-84.294 0.789 -84.294 0.789 -82.91 0.805 C-81.493 0.809 -81.493 0.809 -80.048 0.813 C-77.053 0.824 -74.058 0.849 -71.062 0.875 C-69.023 0.885 -66.983 0.894 -64.943 0.902 C-59.962 0.924 -54.981 0.959 -50 1 C-49.944 2.918 -49.944 2.918 -49.887 4.875 C-49.821 6.583 -49.755 8.292 -49.688 10 C-49.665 10.839 -49.642 11.678 -49.619 12.543 C-49.258 21.024 -46.955 28.71 -41 35 C-34.127 40.097 -27.3 40.611 -19 40 C-12.625 38.794 -7.711 35.308 -4 30 C0.224 19.986 0.224 19.986 0 0 Z" fill="#42B4FE" transform="translate(425,220)"/>
  <path d="M0 0 C4.65 3.501 7.491 8.349 9.312 13.812 C9.312 21.733 9.312 29.653 9.312 37.812 C66.733 37.812 124.153 37.812 183.312 37.812 C183.312 30.222 183.312 22.632 183.312 14.812 C187.779 5.88 191.197 -0.257 200.312 -4.125 C206.775 -6.174 213.003 -5.666 219.312 -3.188 C226.254 0.855 230.767 6.176 233.312 13.812 C233.395 15.659 233.42 17.508 233.41 19.355 C233.407 20.429 233.404 21.502 233.4 22.607 C233.392 23.727 233.384 24.847 233.375 26 C233.37 27.131 233.366 28.262 233.361 29.428 C233.35 32.223 233.333 35.018 233.312 37.812 C234.531 37.786 235.75 37.76 237.006 37.733 C241.605 37.641 246.205 37.585 250.805 37.538 C252.782 37.513 254.758 37.479 256.734 37.435 C275.925 37.021 292.262 39.572 307.062 53 C317.733 64.44 320.773 77.325 320.7 92.48 C320.704 93.843 320.71 95.207 320.716 96.57 C320.731 100.292 320.727 104.015 320.719 107.737 C320.715 111.761 320.727 115.785 320.737 119.809 C320.755 127.684 320.755 135.559 320.75 143.434 C320.746 149.839 320.748 156.244 320.753 162.649 C320.754 163.562 320.754 164.475 320.755 165.416 C320.757 167.271 320.758 169.126 320.76 170.981 C320.773 188.365 320.768 205.748 320.757 223.132 C320.747 239.013 320.76 254.893 320.784 270.774 C320.808 287.102 320.818 303.43 320.811 319.758 C320.807 328.916 320.81 338.074 320.827 347.232 C320.842 355.031 320.842 362.829 320.825 370.627 C320.817 374.601 320.814 378.574 320.83 382.548 C320.844 386.195 320.839 389.843 320.819 393.49 C320.814 395.414 320.828 397.337 320.843 399.26 C320.694 417.148 315.046 431.208 302.312 443.812 C293.496 451.941 282.069 456.927 270.096 456.947 C268.836 456.951 267.577 456.956 266.279 456.96 C264.884 456.96 263.489 456.96 262.094 456.96 C260.61 456.963 259.126 456.967 257.641 456.971 C253.562 456.981 249.482 456.985 245.403 456.987 C241.003 456.991 236.603 457.001 232.204 457.009 C221.578 457.029 210.951 457.039 200.325 457.048 C195.319 457.053 190.313 457.058 185.307 457.063 C168.661 457.08 152.015 457.095 135.37 457.102 C131.051 457.104 126.732 457.106 122.414 457.108 C120.804 457.108 119.161 457.109 119.161 457.109 C101.778 457.117 84.396 457.143 67.013 457.175 C49.16 457.208 31.307 457.226 13.453 457.23 C3.432 457.232 -6.589 457.24 -16.61 457.266 C-25.146 457.288 -33.681 457.296 -42.217 457.286 C-46.569 457.281 -50.921 457.283 -55.273 457.303 C-59.264 457.32 -63.255 457.319 -67.246 457.304 C-68.683 457.302 -70.12 457.306 -71.557 457.318 C-86.981 457.438 -99.774 453.714 -111.438 443.375 C-112.18 442.529 -112.923 441.684 -113.688 440.812 C-114.239 440.24 -114.791 439.668 -115.359 439.078 C-126.583 427.087 -129.152 412.865 -129.075 396.884 C-129.079 395.517 -129.085 394.15 -129.091 392.783 C-129.106 389.059 -129.102 385.336 -129.094 381.612 C-129.09 377.583 -129.102 373.555 -129.112 369.526 C-129.129 361.647 -129.13 353.768 -129.125 345.888 C-129.121 339.482 -129.123 333.075 -129.128 326.669 C-129.129 325.755 -129.129 324.842 -129.13 323.901 C-129.132 322.044 -129.133 320.188 -129.135 318.332 C-129.148 300.948 -129.143 283.563 -129.132 266.178 C-129.122 250.289 -129.135 234.4 -129.159 218.511 C-129.183 202.175 -129.193 185.839 -129.186 169.503 C-129.182 160.34 -129.185 151.177 -129.202 142.014 C-129.217 134.216 -129.217 126.417 -129.2 118.618 C-129.192 114.643 -129.189 110.668 -129.205 106.693 C-129.219 103.047 -129.214 99.402 -129.194 95.756 C-129.189 93.827 -129.203 91.898 -129.218 89.969 C-129.095 75.332 -123.894 63.166 -113.875 52.5 C-102.354 41.666 -88.387 37.625 -72.914 37.715 C-71.99 37.716 -71.067 37.718 -70.115 37.719 C-67.181 37.725 -64.247 37.737 -61.312 37.75 C-59.316 37.755 -57.32 37.76 -55.324 37.764 C-50.445 37.775 -45.566 37.792 -40.688 37.812 C-40.719 36.785 -40.719 36.785 -40.751 35.736 C-40.835 32.595 -40.886 29.454 -40.938 26.312 C-40.971 25.235 -41.005 24.157 -41.039 23.047 C-41.141 14.711 -39.775 9.387 -34.312 3.062 C-23.432 -6.263 -12.072 -7.751 0 0 Z" fill="#1EA7FE" transform="translate(415.6875,161.1875)"/>
  
  <!-- Text from SVG1 -->
  <text x="123" y="765" font-size="126" fill="#65b9e8">Coming</text>
  <text x="605" y="735" font-size="96" fill="#93d3f3">Soon</text>
  <text x="267" y="884" font-size="64" fill="#0155b2">Launching</text>
  <text x="600" y="872" font-size="52" fill="#98dbfb">Soon</text>
  <!-- Additional traced SVG paths -->
  <path d="M0 0 C4.65 3.501 7.491 8.349 9.312 13.812 C9.312 21.733 9.312 29.653 9.312 37.812 C66.733 37.812 124.153 37.812 183.312 37.812 C183.312 30.222 183.312 22.632 183.312 14.812 C187.779 5.88 191.197 -0.257 200.312 -4.125 C206.775 -6.174 213.003 -5.666 219.312 -3.188 C226.254 0.855 230.767 6.176 233.312 13.812 C233.395 15.659 233.42 17.508 233.41 19.355 C233.407 20.429 233.404 21.502 233.4 22.607 C233.392 23.727 233.384 24.847 233.375 26 C233.37 27.131 233.366 28.262 233.361 29.428 C233.35 32.223 233.333 35.018 233.312 37.812 C234.531 37.786 235.75 37.76 237.006 37.733 C241.605 37.641 246.205 37.585 250.805 37.538 C252.782 37.513 254.758 37.479 256.734 37.435 C275.925 37.021 292.262 39.572 307.062 53 C317.733 64.44 320.773 77.325 320.7 92.48 C320.704 93.843 320.71 95.207 320.716 96.57 C320.731 100.292 320.727 104.015 320.719 107.737 C320.715 111.761 320.727 115.785 320.737 119.809 C320.755 127.684 320.755 135.559 320.75 143.434 C320.746 149.839 320.748 156.244 320.753 162.649 C320.754 163.562 320.754 164.475 320.755 165.416 C320.757 167.271 320.758 169.126 320.76 170.981 C320.773 188.365 320.768 205.748 320.757 223.132 C320.747 239.013 320.76 254.893 320.784 270.774 C320.808 287.102 320.818 303.43 320.811 319.758 C320.807 328.916 320.81 338.074 320.827 347.232 C320.842 355.031 320.842 362.829 320.825 370.627 C320.817 374.601 320.814 378.574 320.83 382.548 C320.844 386.195 320.839 389.843 320.819 393.49 C320.814 395.414 320.828 397.337 320.843 399.26 C320.694 417.148 315.046 431.208 302.312 443.812 C293.496 451.941 282.069 456.927 270.096 456.947 C268.836 456.951 267.577 456.956 266.279 456.96 C264.884 456.96 263.489 456.96 262.094 456.96 C260.61 456.963 259.126 456.967 257.641 456.971 C253.562 456.981 249.482 456.985 245.403 456.987 C241.003 456.991 236.603 457.001 232.204 457.009 C221.578 457.029 210.951 457.039 200.325 457.048 C195.319 457.053 190.313 457.058 185.307 457.063 C168.661 457.08 152.015 457.095 135.37 457.102 C131.051 457.104 126.732 457.106 122.414 457.108 C120.804 457.108 119.161 457.109 119.161 457.109 C101.778 457.117 84.396 457.143 67.013 457.175 C49.16 457.208 31.307 457.226 13.453 457.23 C3.432 457.232 -6.589 457.24 -16.61 457.266 C-25.146 457.288 -33.681 457.296 -42.217 457.286 C-46.569 457.281 -50.921 457.283 -55.273 457.303 C-59.264 457.32 -63.255 457.319 -67.246 457.304 C-68.683 457.302 -70.12 457.306 -71.557 457.318 C-86.981 457.438 -99.774 453.714 -111.438 443.375 C-112.18 442.529 -112.923 441.684 -113.688 440.812 C-114.239 440.24 -114.791 439.668 -115.359 439.078 C-126.583 427.087 -129.152 412.865 -129.075 396.884 C-129.079 395.517 -129.085 394.15 -129.091 392.783 C-129.106 389.059 -129.102 385.336 -129.094 381.612 C-129.09 377.583 -129.102 373.555 -129.112 369.526 C-129.129 361.647 -129.13 353.768 -129.125 345.888 C-129.121 339.482 -129.123 333.075 -129.128 326.669 C-129.129 325.755 -129.129 324.842 -129.13 323.901 C-129.132 322.044 -129.133 320.188 -129.135 318.332 C-129.148 300.948 -129.143 283.563 -129.132 266.178 C-129.122 250.289 -129.135 234.4 -129.159 218.511 C-129.183 202.175 -129.193 185.839 -129.186 169.503 C-129.182 160.34 -129.185 151.177 -129.202 142.014 C-129.217 134.216 -129.217 126.417 -129.2 118.618 C-129.192 114.643 -129.189 110.668 -129.205 106.693 C-129.219 103.047 -129.214 99.402 -129.194 95.756 C-129.189 93.827 -129.203 91.898 -129.218 89.969 C-129.095 75.332 -123.894 63.166 -113.875 52.5 C-102.354 41.666 -88.387 37.625 -72.914 37.715 C-71.99 37.716 -71.067 37.718 -70.115 37.719 C-67.181 37.725 -64.247 37.737 -61.312 37.75 C-59.316 37.755 -57.32 37.76 -55.324 37.764 C-50.445 37.775 -45.566 37.792 -40.688 37.812 C-40.719 36.785 -40.719 36.785 -40.751 35.736 C-40.835 32.595 -40.886 29.454 -40.938 26.312 C-40.971 25.235 -41.005 24.157 -41.039 23.047 C-41.141 14.711 -39.775 9.387 -34.312 3.062 C-23.432 -6.263 -12.072 -7.751 0 0 Z" fill="#1C9BF0" transform="translate(637.0390625,159.1875)"/>
  <path d="M0 0 C2 1 2 1 2.875 2.875 C4.195 5.368 5.754 6.353 8 8 C8 8.66 8 9.32 8 10 C8.66 10 9.32 10 10 10 C12.1 19.487 12.976 25.413 8 34 C7.608 34.742 7.216 35.485 6.812 36.25 C0.667 42.183 -6.696 42.443 -14.863 42.434 C-18.181 41.975 -19.581 41.251 -22 39 C-21.143 38.963 -20.286 38.925 -19.402 38.887 C-8.389 38.266 -8.389 38.266 0.75 32.562 C4.172 28.123 4.929 22.379 6 17 C6.33 17 6.66 17 7 17 C7.33 19.64 7.66 22.28 8 25 C8.261 17.417 8.261 17.417 7 10 C5.269 8.841 5.269 8.841 3 8 C2.092 7.196 1.185 6.391 0.25 5.562 C-3.657 2.255 -7.932 -0.011 -13.148 0.008 C-16.481 0.392 -19.779 1.06 -23 2 C-23 1.34 -23 0.68 -23 0 C-14.905 -4.739 -8.382 -2.958 0 0 Z" fill="#0CA4F3" transform="translate(523,519)"/>
  <path d="M0 0 C0.99 0.33 1.98 0.66 3 1 C2.67 43.9 2.34 86.8 2 131 C1.67 131 1.34 131 1 131 C0.155 99.601 -0.092 68.221 -0.062 36.812 C-0.062 35.9 -0.061 34.987 -0.06 34.046 C-0.048 22.697 -0.028 11.349 0 0 Z" fill="#36B1FE" transform="translate(306,331)"/>
  <path d="M0 0 C0.99 0 1.98 0 3 0 C5.373 4.599 5.781 8.945 5 14 C2.938 19.812 0.418 24.749 -5 28 C-8.634 29.694 -11.496 30.272 -15.5 30.25 C-16.418 30.255 -17.336 30.26 -18.281 30.266 C-21.178 29.983 -23.364 29.204 -26 28 C-23.267 25.267 -21.562 25.738 -17.75 25.625 C-10.798 25.18 -7.38 23.638 -2.688 18.438 C0.142 14.35 0.111 11.168 0.062 6.312 C0.053 5.133 0.044 3.954 0.035 2.738 C0.024 1.835 0.012 0.931 0 0 Z" fill="#0041AD" transform="translate(618,532)"/>
  <path d="M0 0 C4.096 4.389 3.484 8.79 3.348 14.512 C2.726 20.753 0.615 24.808 -4.062 28.938 C-8.456 32.022 -11.665 32.184 -16.938 32.25 C-18.776 32.289 -18.776 32.289 -20.652 32.328 C-24.162 31.984 -25.488 31.392 -28 29 C-24.756 28.163 -21.883 28.002 -18.562 28.125 C-14.282 28.153 -11.612 27.462 -8 25 C-2.739 19.619 -0.894 15.241 -0.938 7.812 C-0.967 6.973 -0.997 6.134 -1.027 5.27 C-1 3 -1 3 0 0 Z" fill="#0345AF" transform="translate(619,380)"/>
  <path d="M0 0 C2 1 2 1 3.105 3.195 C4.972 9.047 5.065 16.182 2.75 21.938 C-1.048 28.585 -4.631 31.8 -12 34 C-14.772 34.289 -17.204 34.203 -20 34 C-19.67 33.34 -19.34 32.68 -19 32 C-19.66 31.34 -20.32 30.68 -21 30 C-20.276 29.914 -19.551 29.827 -18.805 29.738 C-12.329 28.797 -8.448 27.893 -4 23 C-0.923 18.009 -0.482 13.824 -0.312 8.125 C-0.278 7.341 -0.244 6.558 -0.209 5.75 C-0.127 3.834 -0.062 1.917 0 0 Z" fill="#003FAC" transform="translate(440,528)"/>
  <path d="M0 0 C3.416 3.416 4.146 7.547 4.438 12.25 C4.278 18.964 1.19 24.754 -3.438 29.5 C-9.059 32.79 -13.637 33.219 -20 33 C-19.67 32.01 -19.34 31.02 -19 30 C-17.109 29.191 -17.109 29.191 -14.75 28.562 C-9.164 26.827 -5.719 24.584 -2.688 19.5 C-0.535 14.929 -0.722 10.606 -0.957 5.637 C-1 3 -1 3 0 0 Z" fill="#014BBE" transform="translate(529,380)"/>
  <path d="M0 0 C2.062 0.438 2.062 0.438 4 1 C3.34 2.134 2.68 3.269 2 4.438 C-0.982 10.443 -0.813 15.434 1.188 21.75 C4.699 28.047 10.119 32.706 17 35 C23.975 35.687 30.381 35.585 36 31 C39.18 27.115 41.37 22.742 43 18 C43.66 18.66 44.32 19.32 45 20 C42.326 27.28 38.818 32.903 31.688 36.438 C25.323 38.848 20.878 39.108 14.461 36.637 C7.942 33.677 3.842 31.207 0 25 C-0.66 25 -1.32 25 -2 25 C-3.698 19.162 -4.253 14.069 -4 8 C-3.34 8 -2.68 8 -2 8 C-2 7.01 -2 6.02 -2 5 C-1.34 5 -0.68 5 0 5 C-0.278 4.041 -0.278 4.041 -0.562 3.062 C-0.707 2.382 -0.851 1.701 -1 1 C-0.67 0.67 -0.34 0.34 0 0 Z" fill="#04A7F9" transform="translate(580,526)"/>
  <path d="M0 0 C2.528 3.792 2.364 5.481 2 10 C0.561 16.133 -1.358 21.431 -6.684 25.188 C-12.068 28.308 -16.888 28.451 -23 28 C-22.67 27.01 -22.34 26.02 -22 25 C-19.453 24.043 -19.453 24.043 -16.25 23.188 C-9.45 21.072 -7.125 18.931 -3.75 12.688 C-2.84 9.428 -2.567 6.261 -2.344 2.891 C-2.23 2.267 -2.117 1.643 -2 1 C-1.34 0.67 -0.68 0.34 0 0 Z" fill="#0141AD" transform="translate(531,460)"/>
  <path d="M0 0 C0.99 1.485 0.99 1.485 2 3 C4.552 4.205 4.552 4.205 7 5 C7 6.65 7 8.3 7 10 C5 10.043 3 10.041 1 10 C0 9 0 9 -0.098 6.934 C-0.086 6.11 -0.074 5.286 -0.062 4.438 C-0.053 3.611 -0.044 2.785 -0.035 1.934 C-0.024 1.296 -0.012 0.657 0 0 Z" fill="#3B9EF5" transform="translate(395,222)"/>
  <path d="M0 0 C1.98 0 3.96 0 6 0 C5.67 0.66 5.34 1.32 5 2 C5.99 2.66 6.98 3.32 8 4 C8.188 6.625 8.188 6.625 8 9 C6.35 8.67 4.7 8.34 3 8 C3 7.01 3 6.02 3 5 C2.34 5 1.68 5 1 5 C0.67 5.66 0.34 6.32 0 7 C0 4.69 0 2.38 0 0 Z" fill="#3B9FF5" transform="translate(402,200)"/>
  <path d="M0 0 C1.464 0.014 1.464 0.014 2.957 0.027 C4.061 0.045 4.061 0.045 5.188 0.062 C5.188 0.392 5.188 0.723 5.188 1.062 C3.793 1.318 3.793 1.318 2.371 1.578 C-4.418 2.909 -10.089 4.111 -15.812 8.062 C-15.438 5.625 -15.438 5.625 -14.812 3.062 C-14.153 2.733 -13.492 2.402 -12.812 2.062 C-12.153 2.392 -11.492 2.723 -10.812 3.062 C-10.812 2.402 -10.812 1.743 -10.812 1.062 C-7.139 0.21 -3.768 -0.045 0 0 Z" fill="#37BAF6" transform="translate(599.8125,367.9375)"/>
  <path d="M0 0 C0.33 0 0.66 0 1 0 C1.228 1.986 1.456 3.971 1.684 5.957 C1.972 8.194 1.972 8.194 3 11 C1.065 17.119 -2.357 20.707 -7.719 24.082 C-10.867 25.349 -13.616 25.302 -17 25.312 C-18.217 25.329 -19.434 25.346 -20.688 25.363 C-24.157 24.983 -25.507 24.362 -28 22 C-26.714 21.944 -26.714 21.944 -25.402 21.887 C-14.389 21.266 -14.389 21.266 -5.25 15.562 C-1.828 11.123 -1.071 5.379 0 0 Z" fill="#003EA8" transform="translate(432,521)"/>
  <path d="M0 0 C-2.51 1.377 -5.03 2.726 -7.562 4.062 C-8.267 4.452 -8.971 4.842 -9.697 5.244 C-14.662 7.83 -17.544 8.369 -23 7 C-19.25 5 -19.25 5 -17 5 C-16.67 4.34 -16.34 3.68 -16 3 C-16 3.66 -16 4.32 -16 5 C-14.68 5 -13.36 5 -12 5 C-11.67 4.34 -11.34 3.68 -11 3 C-7.644 -0.995 -4.867 -1.341 0 0 Z" fill="#0072E9" transform="translate(713,609)"/>
  <path d="M0 0 C2.877 0.067 5.345 0.446 8.125 1.188 C10.125 1.226 12.126 1.233 14.125 1.188 C10.946 4.022 8.919 4.576 4.688 4.5 C3.761 4.496 2.834 4.492 1.879 4.488 C-1.018 4.172 -3.234 3.391 -5.875 2.188 C-3.875 0.188 -3.875 0.188 0 0 Z" fill="#002E8F" transform="translate(597.875,557.8125)"/>
  <path d="M0 0 C0.619 0.165 1.238 0.33 1.875 0.5 C6.255 1.201 10.574 1.077 15 1 C15 1.99 15 2.98 15 4 C9.01 4.315 5.364 3.682 0 1 C0 0.67 0 0.34 0 0 Z" fill="#001C58" transform="translate(499,408)"/>
  <path d="M0 0 C0.33 0 0.66 0 1 0 C1 1.65 1 3.3 1 5 C1.66 5 2.32 5 3 5 C0.948 9.105 -3.991 11.052 -8 13 C-7.59 12.481 -7.18 11.961 -6.758 11.426 C-3.924 7.758 -1.402 4.486 0 0 Z" fill="#013CA8" transform="translate(440,540)"/>
  <path d="M0 0 C3 2 3 2 4 5 C4.04 7.333 4.044 9.667 4 12 C3.67 12 3.34 12 3 12 C2.67 9.69 2.34 7.38 2 5 C1.34 5 0.68 5 0 5 C0 3.35 0 1.7 0 0 Z" fill="#010D34" transform="translate(439,381)"/>
  <path d="M0 0 C-0.33 0.66 -0.66 1.32 -1 2 C-3.751 2.917 -5.359 3.109 -8.188 3.062 C-10.075 3.032 -10.075 3.032 -12 3 C-12 2.67 -12 2.34 -12 2 C-7.823 0.409 -4.468 -0.213 0 0 Z" fill="#013CA4" transform="translate(521,410)"/>
  <path d="M0 0 C1.998 0.346 3.998 0.681 6 1 C6 1.33 6 1.66 6 2 C4.396 2.054 2.792 2.093 1.188 2.125 C0.294 2.148 -0.599 2.171 -1.52 2.195 C-4 2 -4 2 -7 0 C-3.71 -1.097 -3.169 -0.905 0 0 Z" fill="#021858" transform="translate(420,410)"/>
  <path d="M0 0 C1.65 0 3.3 0 5 0 C4.67 0.99 4.34 1.98 4 3 C4.99 3 5.98 3 7 3 C7 2.01 7 1.02 7 0 C7.66 0 8.32 0 9 0 C9 3.3 9 6.6 9 10 C7.35 8.35 5.7 6.7 4 5 C3.67 6.98 3.34 8.96 3 11 C0.69 11 -1.62 11 -4 11 C-5.108 7.675 -4.845 5.378 -4 2 C-1.03 2.495 -1.03 2.495 2 3 C2 2.34 2 1.68 2 1 C1.34 0.67 0.68 0.34 0 0 Z" fill="#4FAEF8" transform="translate(625,200)"/>
  <path d="M0 0 C3.3 0 6.6 0 10 0 C10 3.3 10 6.6 10 10 C5.039 11.323 0.089 11.089 -5 11 C-4.67 10.34 -4.34 9.68 -4 9 C-1.36 9 1.28 9 4 9 C3.67 7.68 3.34 6.36 3 5 C2.34 5 1.68 5 1 5 C0.67 5.66 0.34 6.32 0 7 C0 4.69 0 2.38 0 0 Z" fill="#238DF2" transform="translate(402,200)"/>
  <path d="M0 0 C0 2.667 0 5.333 0 8 C-4.552 10.631 -7.88 11.409 -13.125 11.375 C-14.923 11.387 -14.923 11.387 -16.758 11.398 C-20.163 10.98 -21.537 10.316 -24 8 C-20.756 7.163 -17.883 7.002 -14.562 7.125 C-9.081 7.18 -5.665 5.534 -1.625 1.812 C-1.089 1.214 -0.553 0.616 0 0 Z" fill="#004BC2" transform="translate(615,401)"/>
  <path d="M0 0 C11.744 5.992 18.931 15.978 23 28.5 C23.954 31.752 24.058 33.767 23 37 C20.516 34.84 19.412 33.297 19 30 C19.33 29.01 19.66 28.02 20 27 C19.34 26.67 18.68 26.34 18 26 C17.395 24.25 17.395 24.25 16.812 22 C14.164 13.671 8.67 7.964 1.504 3.191 C1.008 2.798 0.511 2.405 0 2 C0 1.34 0 0.68 0 0 Z" fill="#1792EE" transform="translate(712,207)"/>
</svg>