<?xml version="1.0" encoding="UTF-8"?>
<!-- Generator: visioncortex VTracer 0.6.4 -->
<svg version="1.1" xmlns="http://www.w3.org/2000/svg" width="1024" height="1024">
<path d="M0 0 C337.92 0 675.84 0 1024 0 C1024 337.92 1024 675.84 1024 1024 C686.08 1024 348.16 1024 0 1024 C0 686.08 0 348.16 0 0 Z " fill="#000000" transform="translate(0,0)"/>
<path d="M0 0 C4.65 3.501 7.491 8.349 9.312 13.812 C9.312 21.733 9.312 29.653 9.312 37.812 C66.733 37.812 124.153 37.812 183.312 37.812 C183.312 30.222 183.312 22.632 183.312 14.812 C187.779 5.88 191.197 -0.257 200.312 -4.125 C206.775 -6.174 213.003 -5.666 219.312 -3.188 C226.254 0.855 230.767 6.176 233.312 13.812 C233.395 15.659 233.42 17.508 233.41 19.355 C233.407 20.429 233.404 21.502 233.4 22.607 C233.392 23.727 233.384 24.847 233.375 26 C233.37 27.131 233.366 28.262 233.361 29.428 C233.35 32.223 233.333 35.018 233.312 37.812 C234.531 37.786 235.75 37.76 237.006 37.733 C241.605 37.641 246.205 37.585 250.805 37.538 C252.782 37.513 254.758 37.479 256.734 37.435 C275.925 37.021 292.262 39.572 307.062 53 C317.733 64.44 320.773 77.325 320.7 92.48 C320.704 93.843 320.71 95.207 320.716 96.57 C320.731 100.292 320.727 104.015 320.719 107.737 C320.715 111.761 320.727 115.785 320.737 119.809 C320.755 127.684 320.755 135.559 320.75 143.434 C320.746 149.839 320.748 156.244 320.753 162.649 C320.754 163.562 320.754 164.475 320.755 165.416 C320.757 167.271 320.758 169.126 320.76 170.981 C320.773 188.365 320.768 205.748 320.757 223.132 C320.747 239.013 320.76 254.893 320.784 270.774 C320.808 287.102 320.818 303.43 320.811 319.758 C320.807 328.916 320.81 338.074 320.827 347.232 C320.842 355.031 320.842 362.829 320.825 370.627 C320.817 374.601 320.814 378.574 320.83 382.548 C320.844 386.195 320.839 389.843 320.819 393.49 C320.814 395.414 320.828 397.337 320.843 399.26 C320.694 417.148 315.046 431.208 302.312 443.812 C293.496 451.941 282.069 456.927 270.096 456.947 C268.836 456.951 267.577 456.956 266.279 456.96 C264.884 456.96 263.489 456.96 262.094 456.96 C260.61 456.963 259.126 456.967 257.641 456.971 C253.562 456.981 249.482 456.985 245.403 456.987 C241.003 456.991 236.603 457.001 232.204 457.009 C221.578 457.029 210.951 457.039 200.325 457.048 C195.319 457.053 190.313 457.058 185.307 457.063 C168.661 457.08 152.015 457.095 135.37 457.102 C131.051 457.104 126.732 457.106 122.414 457.108 C120.804 457.108 120.804 457.108 119.161 457.109 C101.778 457.117 84.396 457.143 67.013 457.175 C49.16 457.208 31.307 457.226 13.453 457.23 C3.432 457.232 -6.589 457.24 -16.61 457.266 C-25.146 457.288 -33.681 457.296 -42.217 457.286 C-46.569 457.281 -50.921 457.283 -55.273 457.303 C-59.264 457.32 -63.255 457.319 -67.246 457.304 C-68.683 457.302 -70.12 457.306 -71.557 457.318 C-86.981 457.438 -99.774 453.714 -111.438 443.375 C-112.18 442.529 -112.923 441.684 -113.688 440.812 C-114.239 440.24 -114.791 439.668 -115.359 439.078 C-126.583 427.087 -129.152 412.865 -129.075 396.884 C-129.079 395.517 -129.085 394.15 -129.091 392.783 C-129.106 389.059 -129.102 385.336 -129.094 381.612 C-129.09 377.583 -129.102 373.555 -129.112 369.526 C-129.129 361.647 -129.13 353.768 -129.125 345.888 C-129.121 339.482 -129.123 333.075 -129.128 326.669 C-129.129 325.755 -129.129 324.842 -129.13 323.901 C-129.132 322.044 -129.133 320.188 -129.135 318.332 C-129.148 300.948 -129.143 283.563 -129.132 266.178 C-129.122 250.289 -129.135 234.4 -129.159 218.511 C-129.183 202.175 -129.193 185.839 -129.186 169.503 C-129.182 160.34 -129.185 151.177 -129.202 142.014 C-129.217 134.216 -129.217 126.417 -129.2 118.618 C-129.192 114.643 -129.189 110.668 -129.205 106.693 C-129.219 103.047 -129.214 99.402 -129.194 95.756 C-129.189 93.827 -129.203 91.898 -129.218 89.969 C-129.095 75.332 -123.894 63.166 -113.875 52.5 C-102.354 41.666 -88.387 37.625 -72.914 37.715 C-71.99 37.716 -71.067 37.718 -70.115 37.719 C-67.181 37.725 -64.247 37.737 -61.312 37.75 C-59.316 37.755 -57.32 37.76 -55.324 37.764 C-50.445 37.775 -45.566 37.792 -40.688 37.812 C-40.719 36.785 -40.719 36.785 -40.751 35.736 C-40.835 32.595 -40.886 29.454 -40.938 26.312 C-40.971 25.235 -41.005 24.157 -41.039 23.047 C-41.141 14.711 -39.775 9.387 -34.312 3.062 C-23.432 -6.263 -12.072 -7.751 0 0 Z " fill="#1EA7FE" transform="translate(415.6875,161.1875)"/>
<path d="M0 0 C4.65 3.501 7.491 8.349 9.312 13.812 C9.312 21.733 9.312 29.653 9.312 37.812 C66.733 37.812 124.153 37.812 183.312 37.812 C183.312 30.222 183.312 22.632 183.312 14.812 C187.779 5.88 191.197 -0.257 200.312 -4.125 C206.775 -6.174 213.003 -5.666 219.312 -3.188 C226.254 0.855 230.767 6.176 233.312 13.812 C233.395 15.659 233.42 17.508 233.41 19.355 C233.407 20.429 233.404 21.502 233.4 22.607 C233.392 23.727 233.384 24.847 233.375 26 C233.37 27.131 233.366 28.262 233.361 29.428 C233.35 32.223 233.333 35.018 233.312 37.812 C234.531 37.786 235.75 37.76 237.006 37.733 C241.605 37.641 246.205 37.585 250.805 37.538 C252.782 37.513 254.758 37.479 256.734 37.435 C275.925 37.021 292.262 39.572 307.062 53 C317.733 64.44 320.773 77.325 320.7 92.48 C320.704 93.843 320.71 95.207 320.716 96.57 C320.731 100.292 320.727 104.015 320.719 107.737 C320.715 111.761 320.727 115.785 320.737 119.809 C320.755 127.684 320.755 135.559 320.75 143.434 C320.746 149.839 320.748 156.244 320.753 162.649 C320.754 163.562 320.754 164.475 320.755 165.416 C320.757 167.271 320.758 169.126 320.76 170.981 C320.773 188.365 320.768 205.748 320.757 223.132 C320.747 239.013 320.76 254.893 320.784 270.774 C320.808 287.102 320.818 303.43 320.811 319.758 C320.807 328.916 320.81 338.074 320.827 347.232 C320.842 355.031 320.842 362.829 320.825 370.627 C320.817 374.601 320.814 378.574 320.83 382.548 C320.844 386.195 320.839 389.843 320.819 393.49 C320.814 395.414 320.828 397.337 320.843 399.26 C320.694 417.148 315.046 431.208 302.312 443.812 C293.496 451.941 282.069 456.927 270.096 456.947 C268.836 456.951 267.577 456.956 266.279 456.96 C264.884 456.96 263.489 456.96 262.094 456.96 C260.61 456.963 259.126 456.967 257.641 456.971 C253.562 456.981 249.482 456.985 245.403 456.987 C241.003 456.991 236.603 457.001 232.204 457.009 C221.578 457.029 210.951 457.039 200.325 457.048 C195.319 457.053 190.313 457.058 185.307 457.063 C168.661 457.08 152.015 457.095 135.37 457.102 C131.051 457.104 126.732 457.106 122.414 457.108 C120.804 457.108 120.804 457.108 119.161 457.109 C101.778 457.117 84.396 457.143 67.013 457.175 C49.16 457.208 31.307 457.226 13.453 457.23 C3.432 457.232 -6.589 457.24 -16.61 457.266 C-25.146 457.288 -33.681 457.296 -42.217 457.286 C-46.569 457.281 -50.921 457.283 -55.273 457.303 C-59.264 457.32 -63.255 457.319 -67.246 457.304 C-68.683 457.302 -70.12 457.306 -71.557 457.318 C-86.981 457.438 -99.774 453.714 -111.438 443.375 C-112.18 442.529 -112.923 441.684 -113.688 440.812 C-114.239 440.24 -114.791 439.668 -115.359 439.078 C-126.583 427.087 -129.152 412.865 -129.075 396.884 C-129.079 395.517 -129.085 394.15 -129.091 392.783 C-129.106 389.059 -129.102 385.336 -129.094 381.612 C-129.09 377.583 -129.102 373.555 -129.112 369.526 C-129.129 361.647 -129.13 353.768 -129.125 345.888 C-129.121 339.482 -129.123 333.075 -129.128 326.669 C-129.129 325.755 -129.129 324.842 -129.13 323.901 C-129.132 322.044 -129.133 320.188 -129.135 318.332 C-129.148 300.948 -129.143 283.563 -129.132 266.178 C-129.122 250.289 -129.135 234.4 -129.159 218.511 C-129.183 202.175 -129.193 185.839 -129.186 169.503 C-129.182 160.34 -129.185 151.177 -129.202 142.014 C-129.217 134.216 -129.217 126.417 -129.2 118.618 C-129.192 114.643 -129.189 110.668 -129.205 106.693 C-129.219 103.047 -129.214 99.402 -129.194 95.756 C-129.189 93.827 -129.203 91.898 -129.218 89.969 C-129.095 75.332 -123.894 63.166 -113.875 52.5 C-102.354 41.666 -88.387 37.625 -72.914 37.715 C-71.99 37.716 -71.067 37.718 -70.115 37.719 C-67.181 37.725 -64.247 37.737 -61.312 37.75 C-59.316 37.755 -57.32 37.76 -55.324 37.764 C-50.445 37.775 -45.566 37.792 -40.688 37.812 C-40.719 36.785 -40.719 36.785 -40.751 35.736 C-40.835 32.595 -40.886 29.454 -40.938 26.312 C-40.971 25.235 -41.005 24.157 -41.039 23.047 C-41.141 14.711 -39.775 9.387 -34.312 3.062 C-23.432 -6.263 -12.072 -7.751 0 0 Z M-109.688 169.812 C-109.77 208.856 -109.853 247.899 -109.938 288.125 C-109.974 300.45 -110.01 312.775 -110.048 325.474 C-110.061 336.528 -110.061 336.528 -110.069 347.582 C-110.073 352.503 -110.088 357.425 -110.11 362.346 C-110.137 368.628 -110.145 374.91 -110.14 381.193 C-110.141 383.495 -110.149 385.798 -110.164 388.1 C-110.267 404.113 -109.582 416.322 -98.133 428.461 C-89.102 436.974 -79.063 438.551 -67.069 438.434 C-65.614 438.438 -64.16 438.445 -62.706 438.453 C-58.736 438.47 -54.768 438.456 -50.798 438.437 C-46.507 438.421 -42.216 438.435 -37.925 438.445 C-29.53 438.459 -21.134 438.447 -12.739 438.425 C-2.956 438.401 6.827 438.403 16.61 438.406 C34.068 438.409 51.526 438.389 68.984 438.354 C85.913 438.321 102.842 438.307 119.772 438.313 C138.221 438.32 156.67 438.318 175.119 438.298 C176.584 438.297 176.584 438.297 178.077 438.295 C180.038 438.293 181.998 438.291 183.958 438.289 C190.773 438.282 197.588 438.281 204.402 438.283 C212.71 438.284 221.017 438.274 229.324 438.251 C233.56 438.239 237.796 438.232 242.032 438.237 C245.914 438.243 249.796 438.234 253.677 438.214 C255.078 438.209 256.478 438.21 257.878 438.216 C271.082 438.266 281.453 436.175 291.289 426.961 C300.009 417.648 302.635 406.418 302.553 393.967 C302.555 393.007 302.556 392.047 302.558 391.058 C302.561 387.846 302.55 384.635 302.54 381.424 C302.539 379.08 302.539 376.736 302.54 374.392 C302.541 368.123 302.529 361.854 302.515 355.585 C302.504 349.7 302.503 343.814 302.502 337.929 C302.491 320.723 302.463 303.518 302.438 286.312 C302.396 247.868 302.355 209.423 302.312 169.812 C166.352 169.812 30.392 169.812 -109.688 169.812 Z " fill="#0C7CEE" transform="translate(415.6875,161.1875)"/>
<path d="M0 0 C57.42 0 114.84 0 174 0 C174.33 7.26 174.66 14.52 175 22 C177.922 30.251 181.867 35.374 189.688 39.375 C198.087 40.96 205.264 40.855 212.805 36.551 C218.668 32.409 221.54 28.032 223 21 C223.361 17.525 223.504 14.053 223.625 10.562 C223.664 9.64 223.702 8.718 223.742 7.768 C223.836 5.512 223.921 3.256 224 1 C230.046 0.85 236.092 0.742 242.14 0.67 C244.192 0.64 246.244 0.6 248.296 0.547 C262.596 0.192 272.778 0.533 284 10.312 C299.749 27.598 292 62.413 292 79 C156.37 79 20.74 79 -119 79 C-119 20.731 -119 20.731 -110.766 10.75 C-103.488 3.537 -95.722 0.772 -85.651 0.773 C-84.294 0.789 -84.294 0.789 -82.91 0.805 C-81.493 0.809 -81.493 0.809 -80.048 0.813 C-77.053 0.824 -74.058 0.849 -71.062 0.875 C-69.023 0.885 -66.983 0.894 -64.943 0.902 C-59.962 0.924 -54.981 0.959 -50 1 C-49.944 2.918 -49.944 2.918 -49.887 4.875 C-49.821 6.583 -49.755 8.292 -49.688 10 C-49.665 10.839 -49.642 11.678 -49.619 12.543 C-49.258 21.024 -46.955 28.71 -41 35 C-34.127 40.097 -27.3 40.611 -19 40 C-12.625 38.794 -7.711 35.308 -4 30 C0.224 19.986 0.224 19.986 0 0 Z " fill="#42B4FE" transform="translate(425,220)"/>
<path d="M0 0 C5.827 3.261 8.85 7.742 12.062 13.438 C13.859 20.805 12.76 26.206 9.113 32.832 C6.169 37.309 2.633 39.282 -2.312 41 C-9.583 41.935 -15.2 41.033 -21.312 37 C-22.22 36.402 -23.128 35.804 -24.062 35.188 C-28.619 30.758 -31.41 25.217 -31.625 18.812 C-31.516 12.696 -29.606 8.386 -25.371 3.98 C-17.839 -2.831 -9.498 -4.289 0 0 Z " fill="#000103" transform="translate(610.3125,521)"/>
<path d="M0 0 C10.321 7.002 10.321 7.002 12 13 C12.902 21.602 11.805 27.36 7.375 34.688 C3.024 38.924 -1.883 40.653 -7.812 41.625 C-14.278 41.261 -20.977 37.605 -25.809 33.441 C-30.703 27.85 -31.511 22.19 -31.379 15.008 C-30.625 9.02 -27.399 5.056 -23 1.125 C-15.519 -4.174 -8.153 -4.389 0 0 Z " fill="#000103" transform="translate(432,521)"/>
<path d="M0 0 C5.754 3.503 10.561 8.004 13.609 14.059 C14.52 20.413 14.796 27.032 11.422 32.684 C8.443 36.624 5.345 39.48 0.609 41.059 C-7.054 41.698 -14.133 41.985 -20.391 37.059 C-26.037 31.693 -29.37 27.13 -29.766 19.246 C-29.627 14.079 -28.574 10.176 -25.391 6.059 C-18.322 -0.469 -9.47 -3.729 0 0 Z " fill="#000002" transform="translate(608.390625,445.94140625)"/>
<path d="M0 0 C3.274 1.912 5.333 4.183 7.5 7.312 C8.057 7.869 8.614 8.426 9.188 9 C12.117 11.929 11.732 14.962 11.812 18.938 C11.748 25.925 10.909 30.77 6.004 35.867 C0.499 40.727 -4.691 40.836 -11.773 40.785 C-18.429 39.941 -23.8 36.633 -28.031 31.43 C-31.285 26.061 -32.312 20.529 -31.5 14.312 C-29.304 7.831 -25.508 3.44 -19.938 -0.5 C-13.449 -2.741 -6.315 -2.909 0 0 Z " fill="#000002" transform="translate(610.5,371.6875)"/>
<path d="M0 0 C5.84 3.914 9.92 7.22 11.883 14.262 C12.736 21.384 12.235 27.392 7.883 33.262 C4.38 36.929 1.16 39.102 -4.008 39.465 C-13.614 39.599 -19.42 38.48 -26.605 31.844 C-30.563 27.702 -31.33 23.966 -31.555 18.387 C-31.374 12.05 -30.056 7.41 -25.691 2.734 C-18.234 -3.914 -8.69 -5.013 0 0 Z " fill="#000002" transform="translate(432.1171875,447.73828125)"/>
<path d="M0 0 C5.766 2.848 10.777 6.109 13.375 12.188 C15.403 18.911 15.23 24.286 12.25 30.688 C9.513 35.647 6.835 38.309 1.625 40.625 C-5.325 42.26 -11.303 41.814 -17.562 38.375 C-24.085 33.738 -28.055 29.078 -29.5 21.062 C-30.041 14.513 -27.315 9.566 -23.312 4.562 C-15.941 -1.301 -9.025 -3.64 0 0 Z " fill="#000103" transform="translate(518.5625,371.625)"/>
<path d="M0 0 C4.614 2.664 9.753 6.197 11.469 11.445 C11.75 13.375 11.75 13.375 11.812 16.438 C11.482 16.438 11.153 16.438 10.812 16.438 C10.715 17.09 10.617 17.742 10.516 18.414 C9.348 25.238 7.647 29.756 2.5 34.625 C-0.638 36.741 -3.667 38.057 -7.188 39.438 C-7.188 39.767 -7.188 40.097 -7.188 40.438 C-13.2 41.205 -16.318 39.612 -21.176 36.074 C-26.028 32.126 -28.869 27.53 -30.188 21.438 C-30.652 14.804 -29.14 10.204 -24.875 5.129 C-18.144 -1.618 -8.917 -4.075 0 0 Z " fill="#000103" transform="translate(519.1875,446.5625)"/>
<path d="M0 0 C4.721 3.158 8.632 7.205 10.441 12.633 C10.481 14.966 10.485 17.3 10.441 19.633 C10.111 19.633 9.781 19.633 9.441 19.633 C8.946 17.158 8.946 17.158 8.441 14.633 C8.427 15.19 8.413 15.747 8.398 16.32 C8.012 22.505 6.468 26.874 2.441 31.633 C-0.749 34.172 -3.493 36.007 -7.559 36.633 C-7.229 37.293 -6.899 37.953 -6.559 38.633 C-13.558 39.14 -17.82 38.796 -23.559 34.633 C-27.689 30.972 -31.135 27.401 -31.992 21.801 C-32.002 14.138 -31.241 8.627 -25.945 2.883 C-17.912 -4.527 -9.51 -5.082 0 0 Z " fill="#000103" transform="translate(432.55859375,373.3671875)"/>
<path d="M0 0 C1.305 0.897 2.598 1.813 3.875 2.75 C4.749 3.359 4.749 3.359 5.641 3.98 C9.443 6.833 10.998 9.101 11.875 13.75 C12.015 17.091 11.994 20.408 11.875 23.75 C11.215 23.42 10.555 23.09 9.875 22.75 C9.38 21.265 9.38 21.265 8.875 19.75 C8.751 20.318 8.628 20.887 8.5 21.473 C6.728 28.107 3.662 32.018 -2.125 35.75 C-7.754 37.766 -14.289 37.539 -20.125 36.75 C-24.91 34.318 -27.429 30.924 -30.125 26.375 C-32.296 18.504 -31.52 13.084 -27.535 5.914 C-24.262 0.89 -20.041 -1.095 -14.453 -2.77 C-8.927 -3.91 -4.798 -2.877 0 0 Z " fill="#000002" transform="translate(520.125,521.25)"/>
<path d="M0 0 C5.908 4.072 9.689 8.997 11.961 15.812 C12.043 17.659 12.068 19.508 12.059 21.355 C12.055 22.429 12.052 23.502 12.049 24.607 C12.04 25.727 12.032 26.847 12.023 28 C12.019 29.131 12.014 30.262 12.01 31.428 C11.998 34.223 11.982 37.018 11.961 39.812 C13.232 39.802 14.503 39.792 15.813 39.781 C20.543 39.744 25.273 39.722 30.003 39.703 C32.048 39.693 34.092 39.679 36.137 39.662 C39.081 39.637 42.025 39.626 44.969 39.617 C46.333 39.602 46.333 39.602 47.725 39.586 C52.549 39.585 56.43 39.928 60.961 41.812 C57.974 42.685 55.39 42.911 52.284 42.834 C51.364 42.814 50.443 42.794 49.494 42.773 C48.509 42.746 47.523 42.719 46.508 42.691 C45.492 42.668 44.477 42.644 43.431 42.62 C40.191 42.543 36.951 42.459 33.711 42.375 C31.513 42.322 29.315 42.269 27.117 42.217 C21.732 42.088 16.346 41.952 10.961 41.812 C10.939 40.724 10.939 40.724 10.917 39.613 C10.842 36.304 10.745 32.996 10.648 29.688 C10.626 28.545 10.603 27.403 10.58 26.227 C10.392 20.339 10.176 15.933 6.961 10.812 C6.961 10.153 6.961 9.493 6.961 8.812 C6.342 8.544 5.723 8.276 5.086 8 C2.961 6.812 2.961 6.812 0.961 3.812 C-1.843 2.827 -1.843 2.827 -5.039 2.188 C-10.917 0.873 -10.917 0.873 -13.039 -0.188 C-18.903 0.342 -23.888 1.394 -28.039 5.812 C-28.369 6.803 -28.699 7.792 -29.039 8.812 C-30.372 10.146 -31.706 11.479 -33.039 12.812 C-35.479 16.456 -35.211 19.704 -35.102 24 C-35.008 29.7 -35.164 35.172 -36.039 40.812 C-37.039 41.812 -37.039 41.812 -39.895 41.936 C-41.185 41.935 -42.474 41.934 -43.803 41.933 C-44.518 41.934 -45.234 41.934 -45.971 41.935 C-48.386 41.937 -50.802 41.931 -53.217 41.926 C-54.941 41.926 -56.666 41.926 -58.39 41.926 C-63.086 41.927 -67.782 41.921 -72.478 41.914 C-77.38 41.908 -82.282 41.907 -87.184 41.906 C-96.474 41.903 -105.763 41.895 -115.053 41.885 C-125.626 41.873 -136.199 41.868 -146.772 41.863 C-168.528 41.852 -190.283 41.835 -212.039 41.812 C-212.039 41.483 -212.039 41.153 -212.039 40.812 C-154.619 40.812 -97.199 40.812 -38.039 40.812 C-38.039 32.892 -38.039 24.972 -38.039 16.812 C-33.573 7.88 -30.154 1.743 -21.039 -2.125 C-13.932 -4.378 -6.504 -3.788 0 0 Z " fill="#1C9BF0" transform="translate(637.0390625,159.1875)"/>
<path d="M0 0 C2 1 2 1 2.875 2.875 C4.195 5.368 5.754 6.353 8 8 C8 8.66 8 9.32 8 10 C8.66 10 9.32 10 10 10 C12.1 19.487 12.976 25.413 8 34 C7.608 34.742 7.216 35.485 6.812 36.25 C0.667 42.183 -6.696 42.443 -14.863 42.434 C-18.181 41.975 -19.581 41.251 -22 39 C-21.143 38.963 -20.286 38.925 -19.402 38.887 C-8.389 38.266 -8.389 38.266 0.75 32.562 C4.172 28.123 4.929 22.379 6 17 C6.33 17 6.66 17 7 17 C7.33 19.64 7.66 22.28 8 25 C8.261 17.417 8.261 17.417 7 10 C5.269 8.841 5.269 8.841 3 8 C2.092 7.196 1.185 6.391 0.25 5.562 C-3.657 2.255 -7.932 -0.011 -13.148 0.008 C-16.481 0.392 -19.779 1.06 -23 2 C-23 1.34 -23 0.68 -23 0 C-14.905 -4.739 -8.382 -2.958 0 0 Z " fill="#0CA4F3" transform="translate(523,519)"/>
<path d="M0 0 C0.99 0.33 1.98 0.66 3 1 C2.67 43.9 2.34 86.8 2 131 C1.67 131 1.34 131 1 131 C0.155 99.601 -0.092 68.221 -0.062 36.812 C-0.062 35.9 -0.061 34.987 -0.06 34.046 C-0.048 22.697 -0.028 11.349 0 0 Z " fill="#36B1FE" transform="translate(306,331)"/>
<path d="M0 0 C0.99 0 1.98 0 3 0 C5.373 4.599 5.781 8.945 5 14 C2.938 19.812 0.418 24.749 -5 28 C-8.634 29.694 -11.496 30.272 -15.5 30.25 C-16.418 30.255 -17.336 30.26 -18.281 30.266 C-21.178 29.983 -23.364 29.204 -26 28 C-23.267 25.267 -21.562 25.738 -17.75 25.625 C-10.798 25.18 -7.38 23.638 -2.688 18.438 C0.142 14.35 0.111 11.168 0.062 6.312 C0.053 5.133 0.044 3.954 0.035 2.738 C0.024 1.835 0.012 0.931 0 0 Z " fill="#0041AD" transform="translate(618,532)"/>
<path d="M0 0 C4.096 4.389 3.484 8.79 3.348 14.512 C2.726 20.753 0.615 24.808 -4.062 28.938 C-8.456 32.022 -11.665 32.184 -16.938 32.25 C-18.776 32.289 -18.776 32.289 -20.652 32.328 C-24.162 31.984 -25.488 31.392 -28 29 C-24.756 28.163 -21.883 28.002 -18.562 28.125 C-14.282 28.153 -11.612 27.462 -8 25 C-2.739 19.619 -0.894 15.241 -0.938 7.812 C-0.967 6.973 -0.997 6.134 -1.027 5.27 C-1 3 -1 3 0 0 Z " fill="#0345AF" transform="translate(619,380)"/>
<path d="M0 0 C2 1 2 1 3.105 3.195 C4.972 9.047 5.065 16.182 2.75 21.938 C-1.048 28.585 -4.631 31.8 -12 34 C-14.772 34.289 -17.204 34.203 -20 34 C-19.67 33.34 -19.34 32.68 -19 32 C-19.66 31.34 -20.32 30.68 -21 30 C-20.276 29.914 -19.551 29.827 -18.805 29.738 C-12.329 28.797 -8.448 27.893 -4 23 C-0.923 18.009 -0.482 13.824 -0.312 8.125 C-0.278 7.341 -0.244 6.558 -0.209 5.75 C-0.127 3.834 -0.062 1.917 0 0 Z " fill="#003FAC" transform="translate(440,528)"/>
<path d="M0 0 C3.416 3.416 4.146 7.547 4.438 12.25 C4.278 18.964 1.19 24.754 -3.438 29.5 C-9.059 32.79 -13.637 33.219 -20 33 C-19.67 32.01 -19.34 31.02 -19 30 C-17.109 29.191 -17.109 29.191 -14.75 28.562 C-9.164 26.827 -5.719 24.584 -2.688 19.5 C-0.535 14.929 -0.722 10.606 -0.957 5.637 C-1 3 -1 3 0 0 Z " fill="#014BBE" transform="translate(529,380)"/>
<path d="M0 0 C2.062 0.438 2.062 0.438 4 1 C3.34 2.134 2.68 3.269 2 4.438 C-0.982 10.443 -0.813 15.434 1.188 21.75 C4.699 28.047 10.119 32.706 17 35 C23.975 35.687 30.381 35.585 36 31 C39.18 27.115 41.37 22.742 43 18 C43.66 18.66 44.32 19.32 45 20 C42.326 27.28 38.818 32.903 31.688 36.438 C25.323 38.848 20.878 39.108 14.461 36.637 C7.942 33.677 3.842 31.207 0 25 C-0.66 25 -1.32 25 -2 25 C-3.698 19.162 -4.253 14.069 -4 8 C-3.34 8 -2.68 8 -2 8 C-2 7.01 -2 6.02 -2 5 C-1.34 5 -0.68 5 0 5 C-0.278 4.041 -0.278 4.041 -0.562 3.062 C-0.707 2.382 -0.851 1.701 -1 1 C-0.67 0.67 -0.34 0.34 0 0 Z " fill="#04A7F9" transform="translate(580,526)"/>
<path d="M0 0 C2.528 3.792 2.364 5.481 2 10 C0.561 16.133 -1.358 21.431 -6.684 25.188 C-12.068 28.308 -16.888 28.451 -23 28 C-22.67 27.01 -22.34 26.02 -22 25 C-19.453 24.043 -19.453 24.043 -16.25 23.188 C-9.45 21.072 -7.125 18.931 -3.75 12.688 C-2.84 9.428 -2.567 6.261 -2.344 2.891 C-2.23 2.267 -2.117 1.643 -2 1 C-1.34 0.67 -0.68 0.34 0 0 Z " fill="#0141AD" transform="translate(531,460)"/>
<path d="M0 0 C2.475 0.99 2.475 0.99 5 2 C5 4.31 5 6.62 5 9 C4.257 9.103 3.515 9.206 2.75 9.312 C-0.035 9.804 -0.035 9.804 -1.938 11.562 C-4.718 13.5 -6.687 13.294 -10 13 C-11.589 11.411 -11.17 9.752 -11.188 7.562 C-11.202 6.759 -11.216 5.956 -11.23 5.129 C-11 3 -11 3 -9 1 C-6.836 0.805 -6.836 0.805 -4.375 0.875 C-3.149 0.902 -3.149 0.902 -1.898 0.93 C-0.959 0.964 -0.959 0.964 0 1 C0 0.67 0 0.34 0 0 Z " fill="#1986EF" transform="translate(406,219)"/>
<path d="M0 0 C1.32 0.66 2.64 1.32 4 2 C4.743 9.758 3.522 15.558 -1 22 C-5.505 26.268 -10.155 27.127 -16.188 27.062 C-17.818 27.049 -17.818 27.049 -19.48 27.035 C-20.312 27.024 -21.143 27.012 -22 27 C-21.67 26.01 -21.34 25.02 -21 24 C-18.453 23.191 -18.453 23.191 -15.25 22.562 C-9.141 21.157 -5.846 19.703 -2.25 14.438 C-0.522 9.685 -0.259 5.023 0 0 Z " fill="#0144B0" transform="translate(440,386)"/>
<path d="M0 0 C0.33 0 0.66 0 1 0 C1.228 1.986 1.456 3.971 1.684 5.957 C1.972 8.194 1.972 8.194 3 11 C1.065 17.119 -2.357 20.707 -7.719 24.082 C-10.867 25.349 -13.616 25.302 -17 25.312 C-18.217 25.329 -19.434 25.346 -20.688 25.363 C-24.157 24.983 -25.507 24.362 -28 22 C-26.714 21.944 -26.714 21.944 -25.402 21.887 C-14.389 21.266 -14.389 21.266 -5.25 15.562 C-1.828 11.123 -1.071 5.379 0 0 Z " fill="#003EA8" transform="translate(529,536)"/>
<path d="M0 0 C1.32 0.66 2.64 1.32 4 2 C4.479 9.235 4.404 15.006 0 21 C-2.54 23.861 -5.084 25.688 -8.75 26.938 C-13.33 27.026 -17.561 26.061 -22 25 C-22 24.67 -22 24.34 -22 24 C-21.348 23.974 -20.695 23.948 -20.023 23.922 C-12.799 23.453 -8.663 21.95 -3.688 16.438 C-1.159 12.785 -0.795 9.65 -0.438 5.312 C-0.354 4.319 -0.27 3.325 -0.184 2.301 C-0.093 1.162 -0.093 1.162 0 0 Z " fill="#013CA8" transform="translate(440,460)"/>
<path d="M0 0 C0.33 0 0.66 0 1 0 C1 3.3 1 6.6 1 10 C1.66 10 2.32 10 3 10 C1.685 15.39 -0.85 19.365 -5 23 C-8.88 25.009 -12.162 25.27 -16.5 25.25 C-17.603 25.255 -18.707 25.26 -19.844 25.266 C-22.964 25.003 -25.183 24.324 -28 23 C-24.846 21.132 -22.757 20.842 -19.125 21.062 C-13.745 21.141 -10.554 20.155 -6.375 16.629 C-1.547 11.79 -0.696 6.639 0 0 Z " fill="#0043B3" transform="translate(619,462)"/>
<path d="M0 0 C5.431 0.379 7.366 2.079 11 6 C11.994 6.431 11.994 6.431 13.008 6.871 C16.93 9.093 17.826 13.866 19 18 C20.182 26.347 16.649 32.189 11.918 38.754 C7.792 43.585 2.264 44.484 -3.785 45.012 C-7.864 44.99 -11.354 43.823 -15 42 C-15 41.34 -15 40.68 -15 40 C-14.01 40.33 -13.02 40.66 -12 41 C-5.024 42.933 0.476 42.481 6.949 39.34 C10.751 36.856 13.188 33.447 14.613 29.152 C15.102 26.431 15.17 23.827 15.188 21.062 C15.202 20.043 15.216 19.023 15.23 17.973 C14.869 13.307 14.071 10.918 10.469 7.832 C9.489 7.166 8.509 6.499 7.5 5.812 C2.089 2.089 2.089 2.089 0 0 Z " fill="#01A4FA" transform="translate(428,519)"/>
<path d="M0 0 C0.961 0 1.921 0 2.911 0 C3.94 0.005 4.97 0.011 6.03 0.016 C7.62 0.018 7.62 0.018 9.242 0.02 C12.624 0.026 16.007 0.038 19.39 0.051 C21.684 0.056 23.978 0.061 26.272 0.065 C31.895 0.076 37.517 0.092 43.14 0.114 C43.14 0.444 43.14 0.774 43.14 1.114 C41.944 1.139 40.748 1.164 39.515 1.189 C35.082 1.284 30.648 1.384 26.215 1.486 C24.295 1.529 22.375 1.571 20.456 1.611 C17.698 1.669 14.94 1.732 12.183 1.797 C11.323 1.814 10.464 1.831 9.578 1.848 C8.778 1.868 7.977 1.888 7.152 1.908 C6.448 1.924 5.744 1.939 5.019 1.955 C2.913 2.058 2.913 2.058 0.14 3.114 C-0.788 3.052 -1.717 2.99 -2.673 2.926 C-6.737 3.165 -8.545 4.834 -11.86 7.114 C-14.86 7.739 -14.86 7.739 -17.86 8.114 C-19.871 8.747 -21.875 9.404 -23.86 10.114 C-20.961 6.907 -18.314 5.148 -14.36 3.426 C-13.422 3.01 -12.483 2.593 -11.517 2.164 C-7.558 0.598 -4.259 -0.011 0 0 Z " fill="#1A9AF3" transform="translate(331.8603515625,199.886474609375)"/>
<path d="M0 0 C1.65 0 3.3 0 5 0 C4.67 0.99 4.34 1.98 4 3 C4.99 3 5.98 3 7 3 C7 2.01 7 1.02 7 0 C7.66 0 8.32 0 9 0 C9 3.3 9 6.6 9 10 C7.35 8.35 5.7 6.7 4 5 C3.67 6.98 3.34 8.96 3 11 C0.69 11 -1.62 11 -4 11 C-5.108 7.675 -4.845 5.378 -4 2 C-1.03 2.495 -1.03 2.495 2 3 C2 2.34 2 1.68 2 1 C1.34 0.67 0.68 0.34 0 0 Z " fill="#4FAEF8" transform="translate(625,200)"/>
<path d="M0 0 C3.3 0 6.6 0 10 0 C10 3.3 10 6.6 10 10 C5.039 11.323 0.089 11.089 -5 11 C-4.67 10.34 -4.34 9.68 -4 9 C-1.36 9 1.28 9 4 9 C3.67 7.68 3.34 6.36 3 5 C2.34 5 1.68 5 1 5 C0.67 5.66 0.34 6.32 0 7 C0 4.69 0 2.38 0 0 Z " fill="#238DF2" transform="translate(402,200)"/>
<path d="M0 0 C0 2.667 0 5.333 0 8 C-4.552 10.631 -7.88 11.409 -13.125 11.375 C-14.923 11.387 -14.923 11.387 -16.758 11.398 C-20.163 10.98 -21.537 10.316 -24 8 C-20.756 7.163 -17.883 7.002 -14.562 7.125 C-9.081 7.18 -5.665 5.534 -1.625 1.812 C-1.089 1.214 -0.553 0.616 0 0 Z " fill="#004BC2" transform="translate(615,401)"/>
<path d="M0 0 C11.744 5.992 18.931 15.978 23 28.5 C23.954 31.752 24.058 33.767 23 37 C20.516 34.84 19.412 33.297 19 30 C19.33 29.01 19.66 28.02 20 27 C19.34 26.67 18.68 26.34 18 26 C17.395 24.25 17.395 24.25 16.812 22 C14.164 13.671 8.67 7.964 1.504 3.191 C1.008 2.798 0.511 2.405 0 2 C0 1.34 0 0.68 0 0 Z " fill="#1792EE" transform="translate(712,207)"/>
<path d="M0 0 C3.442 0.353 5.069 1.046 8 3 C8.188 6.125 8.188 6.125 8 9 C9.32 9.33 10.64 9.66 12 10 C10.23 10.081 8.459 10.139 6.688 10.188 C5.701 10.222 4.715 10.257 3.699 10.293 C1 10 1 10 -0.836 8.648 C-2.47 6.335 -2.355 4.766 -2 2 C-1.34 1.34 -0.68 0.68 0 0 Z " fill="#42A4F6" transform="translate(621,221)"/>
<path d="M0 0 C0.66 0.33 1.32 0.66 2 1 C-1.392 5.035 -4.311 7.659 -9.578 8.723 C-19.156 9.422 -19.156 9.422 -22 8 C-23.677 8.279 -25.346 8.608 -27 9 C-27.495 6.525 -27.495 6.525 -28 4 C-28.99 3.67 -29.98 3.34 -31 3 C-23.25 3.875 -23.25 3.875 -21 5 C-13.199 5.732 -7.672 5.154 -1 1 C-0.67 0.67 -0.34 0.34 0 0 Z " fill="#28AAFC" transform="translate(439,407)"/>
<path d="M0 0 C1.32 0.66 2.64 1.32 4 2 C4 2.66 4 3.32 4 4 C4.66 4 5.32 4 6 4 C8.085 13.422 9.054 19.486 4 28 C2.25 30.5 2.25 30.5 1 32 C0.34 31.67 -0.32 31.34 -1 31 C-0.361 30.072 0.279 29.144 0.938 28.188 C4.723 22.337 4.507 16.791 4 10 C3.092 6.441 1.643 3.285 0 0 Z " fill="#039EF8" transform="translate(527,525)"/>
<path d="M0 0 C2.705 2.705 2.33 4.222 2.375 8 C2.248 15.638 0.824 21.879 -4.375 27.625 C-7.475 29.249 -9.547 29.321 -13 29 C-12.443 28.608 -11.886 28.216 -11.312 27.812 C-5.375 23.158 -1.502 18.797 -0.488 11.133 C-0.416 9.798 -0.358 8.461 -0.312 7.125 C-0.278 6.437 -0.244 5.748 -0.209 5.039 C-0.127 3.36 -0.062 1.68 0 0 Z " fill="#2AAEFA" transform="translate(622,383)"/>
<path d="M0 0 C-0.99 0.33 -1.98 0.66 -3 1 C-3.969 0.361 -4.939 -0.279 -5.938 -0.938 C-10.963 -4.01 -16.299 -3.673 -22 -3 C-24.54 -2.219 -26.619 -1.216 -29 0 C-29.99 0 -30.98 0 -32 0 C-31 -3 -31 -3 -28.375 -4.625 C-17.416 -9.09 -9.035 -6.985 0 0 Z " fill="#34B6FA" transform="translate(528,374)"/>
<path d="M0 0 C2 1 2 1 3.109 3.188 C4.087 6.273 4.266 8.769 4.25 12 C4.258 13.516 4.258 13.516 4.266 15.062 C3.994 18.07 3.263 20.273 2 23 C1.34 22.67 0.68 22.34 0 22 C0 14.74 0 7.48 0 0 Z " fill="#002C85" transform="translate(440,528)"/>
<path d="M0 0 C2.5 2.188 2.5 2.188 4 4 C3.01 4.495 3.01 4.495 2 5 C2 4.34 2 3.68 2 3 C1.257 2.856 0.515 2.711 -0.25 2.562 C-1.904 2.224 -3.553 1.858 -5.188 1.438 C-7.013 0.922 -7.013 0.922 -9 1 C-9 0.34 -9 -0.32 -9 -1 C-9.87 -0.801 -9.87 -0.801 -10.758 -0.598 C-15.158 0.397 -19.539 1.314 -24 2 C-24 1.34 -24 0.68 -24 0 C-15.421 -3.268 -8.411 -4.361 0 0 Z " fill="#2199F2" transform="translate(412,159)"/>
<path d="M0 0 C2.475 0.99 2.475 0.99 5 2 C5 4.31 5 6.62 5 9 C3.35 9.33 1.7 9.66 0 10 C-1.125 6.25 -1.125 6.25 0 4 C-3.3 3.67 -6.6 3.34 -10 3 C-9.67 2.34 -9.34 1.68 -9 1 C-6.03 1 -3.06 1 0 1 C0 0.67 0 0.34 0 0 Z " fill="#3299F4" transform="translate(406,219)"/>
<path d="M0 0 C3.479 1.16 3.811 1.837 5.625 4.875 C6.05 5.574 6.476 6.272 6.914 6.992 C8.879 10.625 9.119 13.484 9.098 17.543 C9.094 18.616 9.091 19.689 9.088 20.795 C9.08 21.914 9.071 23.034 9.062 24.188 C9.058 25.319 9.053 26.45 9.049 27.615 C9.037 30.41 9.021 33.205 9 36 C8.67 36 8.34 36 8 36 C7.67 28.74 7.34 21.48 7 14 C6.34 13.67 5.68 13.34 5 13 C5 11.02 5 9.04 5 7 C3.68 6.67 2.36 6.34 1 6 C0 1.125 0 1.125 0 0 Z " fill="#1F9BF0" transform="translate(416,163)"/>
<path d="M0 0 C0.487 0.361 0.975 0.722 1.477 1.094 C8.406 5.629 14.877 5.905 23 5 C25.019 4.394 27.028 3.745 29 3 C29 3.66 29 4.32 29 5 C22.185 7.968 16.329 10.301 9 8 C5.861 6.533 2.916 4.868 0 3 C0 2.01 0 1.02 0 0 Z " fill="#0198F4" transform="translate(496,555)"/>
<path d="M0 0 C0.33 0 0.66 0 1 0 C1.098 0.797 1.196 1.593 1.297 2.414 C2.588 11.972 2.588 11.972 8.594 19.242 C10.024 20.22 11.508 21.119 13 22 C11.25 22.75 11.25 22.75 9 23 C7.626 21.709 6.291 20.374 5 19 C4.01 19 3.02 19 2 19 C1.3 17.088 0.615 15.17 -0.062 13.25 C-0.445 12.183 -0.828 11.115 -1.223 10.016 C-1.998 7.007 -2.076 5.829 -1 3 C-0.67 2.01 -0.34 1.02 0 0 Z " fill="#05A1F3" transform="translate(400,536)"/>
<path d="M0 0 C5.431 0.379 7.366 2.079 11 6 C11.99 6.427 11.99 6.427 13 6.863 C16.387 8.789 17.068 11.929 18.383 15.445 C19.202 18.834 18.607 20.946 17 24 C16.67 24 16.34 24 16 24 C15.951 23.408 15.902 22.817 15.852 22.207 C15.739 21.022 15.739 21.022 15.625 19.812 C15.555 19.035 15.486 18.258 15.414 17.457 C14.687 13.143 13.856 10.733 10.469 7.832 C9.489 7.166 8.509 6.499 7.5 5.812 C2.089 2.089 2.089 2.089 0 0 Z " fill="#059BFA" transform="translate(428,519)"/>
<path d="M0 0 C0.33 0 0.66 0 1 0 C2.432 8.606 1.352 15.642 -1 24 C-1.99 24 -2.98 24 -4 24 C-4.33 23.01 -4.66 22.02 -5 21 C-4.34 20.67 -3.68 20.34 -3 20 C-2.438 17.972 -2.438 17.972 -2.148 15.527 C-2.02 14.628 -1.891 13.729 -1.758 12.803 C-1.631 11.857 -1.505 10.912 -1.375 9.938 C-1.241 8.988 -1.107 8.039 -0.969 7.061 C-0.638 4.708 -0.315 2.355 0 0 Z " fill="#0074E8" transform="translate(734,560)"/>
<path d="M0 0 C1.32 0.66 2.64 1.32 4 2 C4.125 9.625 4.125 9.625 3 13 C2.34 13 1.68 13 1 13 C0.876 13.949 0.752 14.897 0.625 15.875 C0 19 0 19 -2 21 C-1.01 10.605 -1.01 10.605 0 0 Z " fill="#31B1FD" transform="translate(444,384)"/>
<path d="M0 0 C0.33 0.66 0.66 1.32 1 2 C0.526 2.949 0.051 3.897 -0.438 4.875 C-2.757 9.962 -2.761 15.526 -2 21 C-1.01 22.673 -0.011 24.34 1 26 C0.67 26.99 0.34 27.98 0 29 C-4.832 20.733 -6.139 14.899 -4.188 5.562 C-3 2 -3 2 0 0 Z " fill="#32BDF4" transform="translate(404,377)"/>
<path d="M0 0 C0.66 0.33 1.32 0.66 2 1 C1.434 1.543 0.868 2.085 0.285 2.645 C-0.815 3.718 -0.815 3.718 -1.938 4.812 C-2.668 5.52 -3.399 6.228 -4.152 6.957 C-6.208 8.955 -6.208 8.955 -7 12 C-7.66 12 -8.32 12 -9 12 C-9.186 12.804 -9.186 12.804 -9.375 13.625 C-10.122 16.464 -11.053 19.222 -12 22 C-12.99 22 -13.98 22 -15 22 C-13.747 12.972 -6.476 5.945 0 0 Z " fill="#1996F2" transform="translate(306,210)"/>
<path d="M0 0 C-2.51 1.377 -5.03 2.726 -7.562 4.062 C-8.267 4.452 -8.971 4.842 -9.697 5.244 C-14.662 7.83 -17.544 8.369 -23 7 C-19.25 5 -19.25 5 -17 5 C-16.67 4.34 -16.34 3.68 -16 3 C-16 3.66 -16 4.32 -16 5 C-14.68 5 -13.36 5 -12 5 C-11.67 4.34 -11.34 3.68 -11 3 C-7.644 -0.995 -4.867 -1.341 0 0 Z " fill="#0072E9" transform="translate(713,609)"/>
<path d="M0 0 C2.877 0.067 5.345 0.446 8.125 1.188 C10.125 1.226 12.126 1.233 14.125 1.188 C10.946 4.022 8.919 4.576 4.688 4.5 C3.761 4.496 2.834 4.492 1.879 4.488 C-1.018 4.172 -3.234 3.391 -5.875 2.188 C-3.875 0.188 -3.875 0.188 0 0 Z " fill="#002E8F" transform="translate(597.875,557.8125)"/>
<path d="M0 0 C1.262 2.086 1.262 2.086 2 4 C1.316 3.836 0.631 3.673 -0.074 3.504 C-3.374 2.936 -6.466 2.904 -9.812 2.938 C-10.974 2.947 -12.135 2.956 -13.332 2.965 C-14.212 2.976 -15.093 2.988 -16 3 C-16 2.01 -16 1.02 -16 0 C-10.454 -2.124 -5.539 -2.595 0 0 Z " fill="#0CAAF9" transform="translate(608,517)"/>
<path d="M0 0 C3.667 3.667 4.125 7.868 4.125 12.875 C4.093 14.25 4.055 15.625 4 17 C3.01 16.67 2.02 16.34 1 16 C0.783 14.175 0.783 14.175 0.562 12.312 C0.267 9.885 -0.094 7.579 -0.625 5.188 C-1 3 -1 3 0 0 Z " fill="#013289" transform="translate(529,380)"/>
<path d="M0 0 C0.66 0 1.32 0 2 0 C4.271 5.395 4.204 10.262 4 16 C2 15 2 15 0 12 C-0.449 9.336 -0.449 9.336 -0.688 6.375 C-0.774 5.393 -0.86 4.41 -0.949 3.398 C-0.966 2.607 -0.983 1.815 -1 1 C-0.67 0.67 -0.34 0.34 0 0 Z " fill="#00154A" transform="translate(528,529)"/>
<path d="M0 0 C0.99 1.485 0.99 1.485 2 3 C4.552 4.205 4.552 4.205 7 5 C7 6.65 7 8.3 7 10 C5 10.043 3 10.041 1 10 C0 9 0 9 -0.098 6.934 C-0.086 6.11 -0.074 5.286 -0.062 4.438 C-0.053 3.611 -0.044 2.785 -0.035 1.934 C-0.024 1.296 -0.012 0.657 0 0 Z " fill="#3B9EF5" transform="translate(395,222)"/>
<path d="M0 0 C1.98 0 3.96 0 6 0 C5.67 0.66 5.34 1.32 5 2 C5.99 2.66 6.98 3.32 8 4 C8.188 6.625 8.188 6.625 8 9 C6.35 8.67 4.7 8.34 3 8 C3 7.01 3 6.02 3 5 C2.34 5 1.68 5 1 5 C0.67 5.66 0.34 6.32 0 7 C0 4.69 0 2.38 0 0 Z " fill="#3B9FF5" transform="translate(402,200)"/>
<path d="M0 0 C1.464 0.014 1.464 0.014 2.957 0.027 C4.061 0.045 4.061 0.045 5.188 0.062 C5.188 0.392 5.188 0.723 5.188 1.062 C3.793 1.318 3.793 1.318 2.371 1.578 C-4.418 2.909 -10.089 4.111 -15.812 8.062 C-15.438 5.625 -15.438 5.625 -14.812 3.062 C-14.153 2.733 -13.492 2.402 -12.812 2.062 C-12.153 2.392 -11.492 2.723 -10.812 3.062 C-10.812 2.402 -10.812 1.743 -10.812 1.062 C-7.139 0.21 -3.768 -0.045 0 0 Z " fill="#37BAF6" transform="translate(599.8125,367.9375)"/>
<path d="M0 0 C0.33 0 0.66 0 1 0 C1.534 7.245 0.716 11.729 -3 18 C-3.66 17.67 -4.32 17.34 -5 17 C-4.341 12.652 -2.725 9.026 -1 5 C-0.309 2.221 -0.309 2.221 0 0 Z " fill="#013392" transform="translate(443,388)"/>
<path d="M0 0 C3.921 0.581 6.185 2.257 9 5 C12.514 10.856 12.105 15.384 11 22 C10.67 22 10.34 22 10 22 C9.914 21.12 9.827 20.239 9.738 19.332 C9.008 12.113 9.008 12.113 5.562 5.938 C4.717 5.298 3.871 4.659 3 4 C1.972 2.688 0.959 1.363 0 0 Z " fill="#118BEC" transform="translate(612,448)"/>
<path d="M0 0 C4.29 0 8.58 0 13 0 C12.67 1.32 12.34 2.64 12 4 C11.01 4 10.02 4 9 4 C9 3.34 9 2.68 9 2 C8.34 2 7.68 2 7 2 C7 2.66 7 3.32 7 4 C4.03 3.505 4.03 3.505 1 3 C1 4.65 1 6.3 1 8 C0.34 7.01 -0.32 6.02 -1 5 C-0.67 3.35 -0.34 1.7 0 0 Z " fill="#1F8AF1" transform="translate(620,199)"/>
<path d="M0 0 C2.93 0.181 5.727 0.466 8.625 0.875 C9.427 0.979 10.229 1.084 11.055 1.191 C13.038 1.451 15.019 1.724 17 2 C16.67 2.66 16.34 3.32 16 4 C13.938 4.054 11.875 4.093 9.812 4.125 C8.664 4.148 7.515 4.171 6.332 4.195 C3.083 4.005 0.913 3.394 -2 2 C-1.34 1.34 -0.68 0.68 0 0 Z " fill="#002477" transform="translate(593,483)"/>
<path d="M0 0 C0.496 0.398 0.993 0.797 1.504 1.207 C8.675 6.8 14.935 9.404 24 10 C24 10.33 24 10.66 24 11 C17.363 11.22 11.273 11.352 5 9 C3.125 6.625 3.125 6.625 2 4 C1.339 2.664 0.673 1.33 0 0 Z " fill="#0D9BF1" transform="translate(403,477)"/>
<path d="M0 0 C0.66 0.33 1.32 0.66 2 1 C0.625 3.5 0.625 3.5 -1 6 C-1.66 6 -2.32 6 -3 6 C-3 6.99 -3 7.98 -3 9 C-3.66 9 -4.32 9 -5 9 C-5.289 9.598 -5.577 10.196 -5.875 10.812 C-7 13 -7 13 -9 16 C-8.639 10.098 -7.006 6.388 -3 2 C-2.01 1.34 -1.02 0.68 0 0 Z " fill="#2199F4" transform="translate(385,161)"/>
<path d="M0 0 C1.98 0.99 1.98 0.99 4 2 C4 5.63 4 9.26 4 13 C3.01 13.33 2.02 13.66 1 14 C-0.206 9.328 -0.094 4.785 0 0 Z " fill="#01328E" transform="translate(440,460)"/>
<path d="M0 0 C-0.33 0.66 -0.66 1.32 -1 2 C-3.766 2.562 -3.766 2.562 -7.25 3 C-11.495 3.538 -15.091 4.236 -19 6 C-19.66 5.34 -20.32 4.68 -21 4 C-20.01 3.67 -19.02 3.34 -18 3 C-17.67 2.34 -17.34 1.68 -17 1 C-11.355 -0.201 -5.751 -0.104 0 0 Z " fill="#39C1FC" transform="translate(429,368)"/>
<path d="M0 0 C3.131 3.386 3.336 5.711 3.188 10.25 C3.147 11.866 3.147 11.866 3.105 13.516 C3.053 14.745 3.053 14.745 3 16 C2.34 16 1.68 16 1 16 C0.939 15.397 0.879 14.793 0.816 14.172 C0.691 12.973 0.691 12.973 0.562 11.75 C0.481 10.961 0.4 10.172 0.316 9.359 C0.06 7.02 0.06 7.02 -0.598 4.891 C-1 3 -1 3 0 0 Z " fill="#00124B" transform="translate(619,380)"/>
<path d="M0 0 C0.99 0.495 0.99 0.495 2 1 C1.67 1.66 1.34 2.32 1 3 C1.66 3 2.32 3 3 3 C3.369 14.522 3.369 14.522 1 20 C-0.15 15.91 -0.111 11.968 -0.062 7.75 C-0.058 7.005 -0.053 6.26 -0.049 5.492 C-0.037 3.661 -0.019 1.831 0 0 Z " fill="#34B8FC" transform="translate(532,381)"/>
<path d="M0 0 C0.99 0.33 1.98 0.66 3 1 C2.072 2.299 2.072 2.299 1.125 3.625 C-2.213 8.927 -3.258 13.82 -4 20 C-4.33 20 -4.66 20 -5 20 C-5.185 10.59 -5.185 10.59 -4 6 C-3.34 6 -2.68 6 -2 6 C-2.33 4.68 -2.66 3.36 -3 2 C-2.01 2 -1.02 2 0 2 C0 1.34 0 0.68 0 0 Z " fill="#38C2F9" transform="translate(493,375)"/>
<path d="M0 0 C2.487 3.731 2.3 5.576 2 10 C1 13.438 1 13.438 0 16 C-0.33 16 -0.66 16 -1 16 C-1.027 13.896 -1.046 11.792 -1.062 9.688 C-1.074 8.516 -1.086 7.344 -1.098 6.137 C-1 3 -1 3 0 0 Z " fill="#002A81" transform="translate(531,460)"/>
<path d="M0 0 C0 0.33 0 0.66 0 1 C-0.929 1.049 -1.859 1.098 -2.816 1.148 C-12.077 1.697 -12.077 1.697 -21 4 C-15.821 -2.128 -7.029 -2.968 0 0 Z " fill="#23BBFC" transform="translate(519,444)"/>
<path d="M0 0 C0.66 0.33 1.32 0.66 2 1 C-4.1 7.68 -4.1 7.68 -8.758 8.465 C-11.207 8.44 -13.572 8.313 -16 8 C-12.192 6.016 -8.251 4.523 -4.242 3 C-1.859 2.097 -1.859 2.097 0 0 Z " fill="#2FB4FC" transform="translate(439,407)"/>
<path d="M0 0 C0.99 0 1.98 0 3 0 C5.399 4.648 5.2 8.911 5 14 C4.01 14 3.02 14 2 14 C2 10.04 2 6.08 2 2 C1.34 2 0.68 2 0 2 C0 1.34 0 0.68 0 0 Z " fill="#001B5F" transform="translate(618,532)"/>
<path d="M0 0 C0.66 0.33 1.32 0.66 2 1 C3.095 4.285 3.1 6.737 3.062 10.188 C3.053 11.274 3.044 12.361 3.035 13.48 C3.024 14.312 3.012 15.143 3 16 C2.34 16 1.68 16 1 16 C1 12.7 1 9.4 1 6 C0.34 6 -0.32 6 -1 6 C-1 5.34 -1 4.68 -1 4 C-0.34 4 0.32 4 1 4 C0.67 2.68 0.34 1.36 0 0 Z " fill="#00164F" transform="translate(619,456)"/>
<path d="M0 0 C1.189 0.195 2.377 0.389 3.602 0.59 C4.974 0.824 4.974 0.824 6.375 1.062 C6.375 1.723 6.375 2.382 6.375 3.062 C4.626 3.144 2.875 3.202 1.125 3.25 C0.15 3.285 -0.824 3.32 -1.828 3.355 C-5 3.023 -6.295 2.176 -8.625 0.062 C-5.617 -1.442 -3.275 -0.546 0 0 Z " fill="#00206B" transform="translate(599.625,408.9375)"/>
<path d="M0 0 C0.619 0.165 1.238 0.33 1.875 0.5 C6.255 1.201 10.574 1.077 15 1 C15 1.99 15 2.98 15 4 C9.01 4.315 5.364 3.682 0 1 C0 0.67 0 0.34 0 0 Z " fill="#001C58" transform="translate(499,408)"/>
<path d="M0 0 C0.33 0 0.66 0 1 0 C1 1.65 1 3.3 1 5 C1.66 5 2.32 5 3 5 C0.948 9.105 -3.991 11.052 -8 13 C-7.59 12.481 -7.18 11.961 -6.758 11.426 C-3.924 7.758 -1.402 4.486 0 0 Z " fill="#004BC0" transform="translate(440,469)"/>
<path d="M0 0 C0.33 0 0.66 0 1 0 C1.228 1.986 1.456 3.971 1.684 5.957 C1.972 8.194 1.972 8.194 3 11 C1.562 14.188 1.562 14.188 0 17 C-1.062 15.125 -1.062 15.125 -2 13 C-1.67 12.34 -1.34 11.68 -1 11 C-0.772 9.129 -0.59 7.253 -0.438 5.375 C-0.354 4.372 -0.27 3.369 -0.184 2.336 C-0.093 1.18 -0.093 1.18 0 0 Z " fill="#023CA2" transform="translate(529,388)"/>
<path d="M0 0 C-0.66 0.66 -1.32 1.32 -2 2 C-2.99 2 -3.98 2 -5 2 C-5 2.66 -5 3.32 -5 4 C-11.152 3.414 -11.152 3.414 -13 3 C-13.33 2.34 -13.66 1.68 -14 1 C-4.59 -0.148 -4.59 -0.148 0 0 Z " fill="#2EB6FC" transform="translate(522,412)"/>
<path d="M0 0 C0.66 0 1.32 0 2 0 C2 3.3 2 6.6 2 10 C-3.571 4.857 -3.571 4.857 -4 1 C-3.67 1.66 -3.34 2.32 -3 3 C-2.01 3 -1.02 3 0 3 C0 2.01 0 1.02 0 0 Z " fill="#49AAF8" transform="translate(632,200)"/>
<path d="M0 0 C4.95 0.33 9.9 0.66 15 1 C15 1.66 15 2.32 15 3 C13.251 3.081 11.5 3.139 9.75 3.188 C8.288 3.24 8.288 3.24 6.797 3.293 C4 3 4 3 0 0 Z " fill="#001D68" transform="translate(501,558)"/>
<path d="M0 0 C4.875 4.625 4.875 4.625 6 8 C6.04 10.333 6.044 12.667 6 15 C5.67 15 5.34 15 5 15 C4.67 12.69 4.34 10.38 4 8 C3.34 8 2.68 8 2 8 C1.34 5.36 0.68 2.72 0 0 Z " fill="#000D35" transform="translate(437,452)"/>
<path d="M0 0 C3.965 1.677 6.84 4.121 10 7 C11 10 11 10 10.062 12.188 C9.712 12.786 9.361 13.384 9 14 C8.443 12.804 7.886 11.608 7.312 10.375 C5.329 6.379 2.977 3.308 0 0 Z " fill="#0976E3" transform="translate(523,449)"/>
<path d="M0 0 C1.607 0.425 3.211 0.866 4.812 1.312 C6.152 1.678 6.152 1.678 7.52 2.051 C10 3 10 3 13 6 C7.06 4.515 7.06 4.515 1 3 C0.67 3.66 0.34 4.32 0 5 C0 3.35 0 1.7 0 0 Z " fill="#1B95EF" transform="translate(698,201)"/>
<path d="M0 0 C0.66 0.33 1.32 0.66 2 1 C1.959 1.908 1.918 2.815 1.875 3.75 C1.995 6.878 2.391 8.386 4 11 C2.667 11 1.333 11 0 11 C-0.194 9.355 -0.38 7.709 -0.562 6.062 C-0.667 5.146 -0.771 4.229 -0.879 3.285 C-0.919 2.531 -0.959 1.777 -1 1 C-0.67 0.67 -0.34 0.34 0 0 Z " fill="#006BDE" transform="translate(288,566)"/>
<path d="M0 0 C0.99 0.495 0.99 0.495 2 1 C3.005 4.015 3.103 6.042 3.062 9.188 C3.053 10.089 3.044 10.99 3.035 11.918 C3.024 12.605 3.012 13.292 3 14 C2.01 13.34 1.02 12.68 0 12 C-0.293 9.18 -0.293 9.18 -0.188 5.875 C-0.16 4.779 -0.133 3.684 -0.105 2.555 C-0.071 1.712 -0.036 0.869 0 0 Z " fill="#001A5B" transform="translate(440,528)"/>
<path d="M0 0 C0.91 0.102 1.82 0.204 2.758 0.309 C3.456 0.392 4.155 0.476 4.875 0.562 C4.545 1.553 4.215 2.543 3.875 3.562 C-2.525 3.932 -2.525 3.932 -5.562 2.062 C-6.078 1.567 -6.594 1.072 -7.125 0.562 C-4.502 -0.749 -2.895 -0.334 0 0 Z " fill="#00195C" transform="translate(508.125,483.4375)"/>
<path d="M0 0 C0.66 0.99 1.32 1.98 2 3 C-2.29 2.67 -6.58 2.34 -11 2 C-6.916 -0.723 -4.854 -0.385 0 0 Z " fill="#0AA7F7" transform="translate(428,516)"/>
<path d="M0 0 C2 0 2 0 3.625 1.312 C5 3 5 3 5 6 C5.66 6 6.32 6 7 6 C7.66 7.32 8.32 8.64 9 10 C6.322 9.634 5.259 9.316 3.516 7.188 C2.889 6.105 2.889 6.105 2.25 5 C1.822 4.278 1.394 3.556 0.953 2.812 C0 1 0 1 0 0 Z " fill="#0075EF" transform="translate(293,589)"/>
<path d="M0 0 C2.022 0.597 4.02 1.276 6 2 C8.327 2.375 10.66 2.719 13 3 C13 3.33 13 3.66 13 4 C7.262 4.204 2.395 4.271 -3 2 C-2.01 1.34 -1.02 0.68 0 0 Z " fill="#001655" transform="translate(415,483)"/>
<path d="M0 0 C0 3.526 -0.535 3.973 -2.812 6.5 C-3.596 7.382 -3.596 7.382 -4.395 8.281 C-5.897 9.89 -7.432 11.455 -9 13 C-8.395 9.951 -7.45 7.885 -5.625 5.375 C-5.205 4.785 -4.785 4.194 -4.352 3.586 C-3 2 -3 2 0 0 Z " fill="#4DBBFD" transform="translate(319,227)"/>
<path d="M0 0 C0 0.99 0 1.98 0 3 C-6.055 3.195 -6.055 3.195 -8 3 C-8.66 2.34 -9.32 1.68 -10 1 C-6.785 -0.607 -3.564 -0.057 0 0 Z " fill="#001F63" transform="translate(602,558)"/>
<path d="M0 0 C1.32 0 2.64 0 4 0 C4 1.98 4 3.96 4 6 C2.68 6 1.36 6 0 6 C0 4.02 0 2.04 0 0 Z " fill="#1685F0" transform="translate(622,204)"/>
<path d="M0 0 C1 3 1 3 -0.312 5.688 C-0.869 6.451 -1.426 7.214 -2 8 C-2.66 8 -3.32 8 -4 8 C-4.33 7.01 -4.66 6.02 -5 5 C-3.35 3.35 -1.7 1.7 0 0 Z " fill="#002F90" transform="translate(620,548)"/>
<path d="M0 0 C4.265 0.203 6.432 1.085 9.375 4.062 C10.241 5.032 11.108 6.001 12 7 C11.67 7.66 11.34 8.32 11 9 C10.541 8.602 10.082 8.203 9.609 7.793 C6.477 5.089 3.361 2.42 0 0 Z " fill="#0058D6" transform="translate(428,519)"/>
<path d="M0 0 C0.66 1.32 1.32 2.64 2 4 C-2.62 3.34 -7.24 2.68 -12 2 C-12 1.67 -12 1.34 -12 1 C-7.959 0.366 -4.093 -0.124 0 0 Z " fill="#047AD8" transform="translate(608,517)"/>
<path d="M0 0 C2.771 1.386 3.561 3.569 5 6.211 C5.919 7.855 6.955 9.433 8 11 C6.68 11 5.36 11 4 11 C3.326 9.733 2.661 8.461 2 7.188 C1.629 6.48 1.257 5.772 0.875 5.043 C0 3 0 3 0 0 Z " fill="#2EB7F3" transform="translate(489,396)"/>
<path d="M0 0 C2.97 0.495 2.97 0.495 6 1 C6 2.98 6 4.96 6 7 C4.68 7 3.36 7 2 7 C2 5.02 2 3.04 2 1 C1.34 0.67 0.68 0.34 0 0 Z " fill="#43A5F6" transform="translate(628,222)"/>
<path d="M0 0 C2.709 0.155 4.466 0.482 6.445 2.402 C7.677 3.898 8.843 5.446 10 7 C9.67 7.66 9.34 8.32 9 9 C8.443 8.258 7.886 7.515 7.312 6.75 C5.07 4.083 2.779 2.084 0 0 Z " fill="#015AD6" transform="translate(610,521)"/>
<path d="M0 0 C4.923 4.308 4.923 4.308 5.312 7.812 C5.158 8.895 5.158 8.895 5 10 C4.67 9.34 4.34 8.68 4 8 C3.34 8 2.68 8 2 8 C1.34 5.36 0.68 2.72 0 0 Z " fill="#000B2E" transform="translate(526,453)"/>
<path d="M0 0 C0.33 0 0.66 0 1 0 C1 4.333 1 8.667 1 13 C0.01 13.495 0.01 13.495 -1 14 C-2.137 10.596 -1.84 8.225 -1.062 4.75 C-0.868 3.858 -0.673 2.966 -0.473 2.047 C-0.317 1.371 -0.161 0.696 0 0 Z " fill="#013CA8" transform="translate(440,540)"/>
<path d="M0 0 C3 2 3 2 4 5 C4.04 7.333 4.044 9.667 4 12 C3.67 12 3.34 12 3 12 C2.67 9.69 2.34 7.38 2 5 C1.34 5 0.68 5 0 5 C0 3.35 0 1.7 0 0 Z " fill="#010D34" transform="translate(439,381)"/>
<path d="M0 0 C-0.33 0.66 -0.66 1.32 -1 2 C-3.751 2.917 -5.359 3.109 -8.188 3.062 C-10.075 3.032 -10.075 3.032 -12 3 C-12 2.67 -12 2.34 -12 2 C-7.823 0.409 -4.468 -0.213 0 0 Z " fill="#013CA4" transform="translate(521,410)"/>
<path d="M0 0 C1.998 0.346 3.998 0.681 6 1 C6 1.33 6 1.66 6 2 C4.396 2.054 2.792 2.093 1.188 2.125 C0.294 2.148 -0.599 2.171 -1.52 2.195 C-4 2 -4 2 -7 0 C-3.71 -1.097 -3.169 -0.905 0 0 Z " fill="#021858" transform="translate(420,410)"/>
<path d="M0 0 C3.674 0.306 4.781 0.758 7.312 3.562 C8.148 4.769 8.148 4.769 9 6 C8.67 6.66 8.34 7.32 8 8 C6.664 6.858 5.331 5.711 4 4.562 C3.258 3.924 2.515 3.286 1.75 2.629 C1.173 2.091 0.595 1.554 0 1 C0 0.67 0 0.34 0 0 Z " fill="#0056CC" transform="translate(520,521)"/>
<path d="M0 0 C0 3.576 -1.088 5.053 -3 8 C-4.32 7.34 -5.64 6.68 -7 6 C-4.69 4.02 -2.38 2.04 0 0 Z " fill="#0053D1" transform="translate(525,477)"/>
<path d="M0 0 C0 2.667 0 5.333 0 8 C-2.475 7.01 -2.475 7.01 -5 6 C-3.35 4.02 -1.7 2.04 0 0 Z " fill="#0050CB" transform="translate(615,401)"/>
<path d="M0 0 C0 0.66 0 1.32 0 2 C0.99 2.33 1.98 2.66 3 3 C0.185 4.407 -1.569 3.667 -4.625 3.062 C-5.628 2.868 -6.631 2.673 -7.664 2.473 C-8.435 2.317 -9.206 2.161 -10 2 C-10 1.67 -10 1.34 -10 1 C-3.375 0 -3.375 0 0 0 Z " fill="#1A91E7" transform="translate(608,368)"/>
<path d="M0 0 C1.65 0 3.3 0 5 0 C5.33 0.66 5.66 1.32 6 2 C3.36 2.99 0.72 3.98 -2 5 C-2.66 4.34 -3.32 3.68 -4 3 C-3.01 2.67 -2.02 2.34 -1 2 C-0.67 1.34 -0.34 0.68 0 0 Z " fill="#33B4F2" transform="translate(412,369)"/>
<path d="M0 0 C2.97 0.495 2.97 0.495 6 1 C6.33 1.99 6.66 2.98 7 4 C6.01 5.485 6.01 5.485 5 7 C5 5.68 5 4.36 5 3 C3.35 2.67 1.7 2.34 0 2 C0 1.34 0 0.68 0 0 Z " fill="#1380ED" transform="translate(621,223)"/>
<path d="M0 0 C2.31 0 4.62 0 7 0 C7 0.99 7 1.98 7 3 C4.36 3 1.72 3 -1 3 C-0.67 2.01 -0.34 1.02 0 0 Z " fill="#013AA0" transform="translate(421,559)"/>
<path d="M0 0 C2.64 1.98 5.28 3.96 8 6 C4 7 4 7 1.75 5.812 C0 4 0 4 0 0 Z " fill="#009AF1" transform="translate(583,552)"/>
<path d="M0 0 C3.255 0.349 4.019 1.021 6.25 3.562 C6.827 4.367 7.405 5.171 8 6 C7.67 6.66 7.34 7.32 7 8 C4.352 5.422 2.056 3.084 0 0 Z " fill="#0363DE" transform="translate(612,448)"/>
<path d="M0 0 C1.32 0.66 2.64 1.32 4 2 C2 4 2 4 -0.625 4.125 C-1.409 4.084 -2.192 4.043 -3 4 C-3 3.34 -3 2.68 -3 2 C-2.01 1.34 -1.02 0.68 0 0 Z " fill="#00379D" transform="translate(610,407)"/>
<path d="M0 0 C2 2 2 2 2.125 5.125 C2.084 6.074 2.043 7.022 2 8 C1.01 7.67 0.02 7.34 -1 7 C-0.67 4.69 -0.34 2.38 0 0 Z " fill="#011D59" transform="translate(529,380)"/>
<path d="M0 0 C1.532 0.252 3.053 0.576 4.562 0.938 C5.389 1.132 6.215 1.327 7.066 1.527 C8.024 1.761 8.024 1.761 9 2 C9 2.33 9 2.66 9 3 C2.945 3.195 2.945 3.195 1 3 C0.34 2.34 -0.32 1.68 -1 1 C-0.67 0.67 -0.34 0.34 0 0 Z " fill="#001658" transform="translate(416,558)"/>
<path d="M0 0 C1.114 0.557 1.114 0.557 2.25 1.125 C2.25 1.785 2.25 2.445 2.25 3.125 C-2.205 2.135 -2.205 2.135 -6.75 1.125 C-2.75 -0.875 -2.75 -0.875 0 0 Z " fill="#0786EE" transform="translate(522.75,518.875)"/>
<path d="M0 0 C0.33 0.99 0.66 1.98 1 3 C0.01 4.485 0.01 4.485 -1 6 C-2.32 5.34 -3.64 4.68 -5 4 C-3.35 2.68 -1.7 1.36 0 0 Z " fill="#003697" transform="translate(441,475)"/>
<path d="M0 0 C1.044 3.133 0.934 3.99 0 7 C-1.32 6.34 -2.64 5.68 -4 5 C-2.68 3.35 -1.36 1.7 0 0 Z " fill="#023FA7" transform="translate(617,400)"/>
<path d="M0 0 C1.562 1.75 1.562 1.75 3 4 C2.688 6.25 2.688 6.25 2 8 C1.01 7.34 0.02 6.68 -1 6 C-0.67 4.02 -0.34 2.04 0 0 Z " fill="#002977" transform="translate(619,380)"/>
</svg>
