<svg xmlns="http://www.w3.org/2000/svg" width="1080" height="1080" viewBox="0 0 1080 1080">
  <g id="background-layer">
    <image href="http://localhost:5000/static/images/sessions/bg_20250625_162835_cfa3d1f6/background_20250625_162835_a8011624.png" x="0" y="0" width="1080" height="1080"/>
  </g>
  <g id="elements-layer" opacity="0.8">
    <svg xmlns="http://www.w3.org/2000/svg" width="1024" height="1024" viewBox="0 0 1024 1024">
      <g fill-rule="evenodd" fill="none" stroke="none" stroke-width="1" style="mix-blend-mode: multiply;">
        <path d="M0 0 C337.92 0 675.84 0 1024 0 C1024 337.92 1024 675.84 1024 1024 C686.08 1024 348.16 1024 0 1024 C0 686.08 0 348.16 0 0 Z" fill="#0E1B25"/>
        <path d="M0 0 C0.99 1.485 0.99 1.485 2 3 C1.34 3 0.68 3 0 3 C-0.375 4.179 -0.75 5.359 -1.137 6.574 C-3.19 12.737 -5.624 18.749 -8.014 24.786 C-18.044 48.673 -18.044 48.673 -22 74 C-19.326 73.358 -16.662 72.689 -14 72 C-13.061 71.757 -12.121 71.515 -11.154 71.264 C-1.482 68.635 7.783 65.199 17.115 61.564 C19.691 60.561 22.272 59.568 24.854 58.576 C32.698 55.547 40.455 52.507 47.98 48.73 C50 48 50 48 53 49 C51.888 49.584 51.888 49.584 50.754 50.18 C43.732 53.91 36.842 57.809 30.015 61.884 C25.791 64.394 21.534 66.822 17.223 69.18 C6.633 74.991 -3.215 80.631 -12 89 C-9.343 91.821 -6.782 93.925 -3.438 95.875 C-2.557 96.389 -1.677 96.904 -0.77 97.434 C1.932 98.961 4.647 100.457 7.375 101.938 C11.473 104.162 15.564 106.397 19.625 108.688 C20.628 109.248 21.631 109.809 22.664 110.387 C25 112 25 112 26 115 C27.093 115.309 28.186 115.619 29.312 115.938 C33.116 117.034 34.517 118.02 37 121 C36.34 121.66 35.68 122.32 35 123 C32.938 122.75 32.938 122.75 30 122 C29.301 121.863 28.603 121.727 27.883 121.586 C23.114 120.639 19.349 119.221 15 117 C13.11 116.544 11.22 116.089 9.33 115.634 C4.963 114.446 0.778 112.76 -3.438 111.125 C-4.773 110.616 -4.773 110.616 -6.135 110.098 C-11.841 107.905 -17.424 105.504 -23 103 C-22.998 103.89 -22.996 104.78 -22.993 105.697 C-22.973 114.126 -22.958 122.555 -22.948 130.984 C-22.943 135.316 -22.936 139.649 -22.925 143.981 C-22.914 148.17 -22.908 152.358 -22.905 156.547 C-22.903 158.137 -22.9 159.727 -22.894 161.318 C-22.866 169.926 -22.98 178.437 -24 187 C-24.309 186.361 -24.619 185.721 -24.938 185.062 C-25.835 183.064 -25.835 183.064 -27 182 C-27.112 180.418 -27.187 178.834 -27.25 177.25 C-27.69 171.417 -28.844 165.969 -30.25 160.312 C-32.26 152.221 -34.062 144.115 -35.688 135.938 C-35.89 134.928 -36.092 133.918 -36.3 132.878 C-37.668 125.94 -38.872 118.981 -40 112 C-43.995 112 -44.767 113.345 -47.625 116.062 C-50.838 119.052 -54.047 121.874 -57.562 124.5 C-61.756 127.675 -65.348 131.263 -68.957 135.082 C-70.941 136.945 -72.574 137.839 -75 139 C-76.43 140.125 -77.826 141.294 -79.188 142.5 C-79.882 143.108 -80.577 143.717 -81.293 144.344 C-83.09 145.905 -83.09 145.905 -84 148 C-84.888 148.168 -84.888 148.168 -85.793 148.34 C-88.934 149.279 -90.191 151.095 -92.312 153.562 C-93.107 154.474 -93.901 155.385 -94.719 156.324 C-96.053 157.889 -97.386 159.454 -98.719 161.02 C-102.795 165.765 -107.131 170.17 -111.582 174.56 C-115.079 178.026 -118.342 181.622 -121.531 185.375 C-123.482 187.533 -125.652 189.292 -128 191 C-126.3 186.856 -123.359 183.756 -120.438 180.438 C-119.347 179.183 -118.257 177.928 -117.168 176.672 C-116.63 176.051 -116.091 175.431 -115.537 174.791 C-113.394 172.294 -111.32 169.745 -109.25 167.188 C-98.939 154.536 -98.939 154.536 -93.25 149.75 C-87.287 144.729 -82.212 138.776 -77 133 C-80.295 135.526 -83.124 138.088 -85.812 141.25 C-86.417 141.956 -87.022 142.663 -87.645 143.391 C-88.315 144.187 -88.315 144.187 -89 145 C-89.66 144.67 -90.32 144.34 -91 144 C-88.861 141.623 -86.722 139.247 -84.582 136.871 C-82.91 135.012 -81.24 133.15 -79.574 131.285 C-75.102 126.287 -70.628 121.415 -65.688 116.875 C-63.666 115.049 -63.666 115.049 -64 112 C-64.99 111.505 -64.99 111.505 -66 111 C-65.05 109.661 -64.089 108.329 -63.125 107 C-62.591 106.257 -62.058 105.515 -61.508 104.75 C-61.01 104.173 -60.513 103.595 -60 103 C-59.34 103 -58.68 103 -58 103 C-57.734 102.415 -57.469 101.83 -57.195 101.227 C-55.609 98.272 -53.492 96.051 -51.242 93.586 C-49.794 92.073 -49.794 92.073 -50 90 C-50.579 89.814 -51.157 89.628 -51.753 89.437 C-71.029 83.213 -71.029 83.213 -79.484 79.105 C-82.357 77.843 -85.234 76.988 -88.25 76.125 C-94.072 74.428 -99.372 72.124 -104.8 69.461 C-107.627 68.079 -110.287 66.917 -113.316 66.039 C-116 65 -116 65 -117.168 62.935 C-117.442 62.296 -117.717 61.658 -118 61 C-114.85 61.525 -111.7 62.05 -108.55 62.575 C-105.832 63.028 -103.114 63.481 -100.396 63.933 C-93.934 65.008 -87.473 66.087 -81.016 67.188 C-79.953 67.368 -78.89 67.548 -77.795 67.733 C-75.827 68.067 -73.86 68.404 -71.893 68.743 C-66.604 69.637 -61.352 70.312 -56.005 70.745 C-54 71 -54 71 -52 72 C-54.199 64.072 -56.935 56.537 -60.062 48.938 C-63.564 40.375 -66.521 32.005 -67.5 22.75 C-67.989 19.079 -68.926 16.231 -70.301 12.832 C-71.155 10.594 -71.631 8.364 -72 6 C-69.643 8.197 -67.965 10.466 -66.25 13.188 C-64.235 16.284 -62.159 19.003 -59.625 21.688 C-53.706 28.262 -49.084 36.617 -46.125 44.938 C-43.436 52.302 -38.459 58.618 -34 65 C-31.204 61.563 -29.226 57.797 -27.227 53.867 C-26.866 53.165 -26.505 52.464 -26.134 51.741 C-24.96 49.454 -23.793 47.165 -22.625 44.875 C-21.819 43.3 -21.012 41.726 -20.206 40.151 C-13.381 26.812 -6.654 13.425 0 0 Z" fill="#E49F17" transform="translate(216,754)"/>
        <path d="M0 0 C0.99 0.495 0.99 0.495 2 1 C1.524 1.696 1.524 1.696 1.039 2.406 C-3.313 8.85 -7.429 15.434 -11.535 22.035 C-11.941 22.685 -12.348 23.335 -12.766 24.004 C-13.606 25.362 -14.432 26.728 -15.246 28.101 C-17.78 32.321 -20.436 35.56 -24 39 C-25.62 41.083 -27.173 43.157 -28.688 45.312 C-29.115 45.916 -29.542 46.519 -29.982 47.14 C-34.515 53.616 -38.683 60.311 -42.805 67.053 C-43.984 68.974 -45.175 70.886 -46.371 72.797 C-47.102 73.969 -47.832 75.141 -48.562 76.312 C-49.203 77.34 -49.844 78.367 -50.504 79.426 C-52.108 81.985 -52.108 81.985 -53 85 C-44.804 74.924 -39.042 63.437 -33 52 C-32.01 52 -31.02 52 -30 52 C-29 55 -29 55 -30.215 57.777 C-30.783 58.82 -31.352 59.863 -31.938 60.938 C-34.521 65.667 -34.521 65.667 -35 71 C-34.446 69.929 -33.891 68.858 -33.32 67.754 C-32.589 66.357 -31.857 64.959 -31.125 63.562 C-30.578 62.502 -30.578 62.502 -30.02 61.42 C-27.227 56.113 -27.227 56.113 -25 55 C-26.888 61.277 -29.304 66.938 -32.438 72.688 C-32.82 73.407 -33.202 74.127 -33.596 74.869 C-35.856 79.079 -38.283 83.07 -41 87 C-39.043 86.983 -39.043 86.983 -37.047 86.965 C-14.736 86.824 -14.736 86.824 -9 88 C-8.67 88.66 -8.34 89.32 -8 90 C-6.114 90.418 -6.114 90.418 -3.852 90.527 C-2.591 90.633 -2.591 90.633 -1.305 90.74 C0.474 90.871 2.252 90.999 4.031 91.123 C4.874 91.195 5.717 91.266 6.586 91.34 C7.36 91.395 8.134 91.451 8.931 91.508 C11 92 11 92 14 95 C8.39 95.99 2.78 96.98 -3 98 C-2.01 98.66 -1.02 99.32 0 100 C-4.422 102.211 -10.075 102.026 -14.938 102.562 C-16.124 102.701 -17.311 102.84 -18.533 102.982 C-36.96 105.037 -36.96 105.037 -44 103 C-43.39 104.626 -42.78 106.252 -42.17 107.878 C-41.636 109.305 -41.102 110.732 -40.57 112.159 C-39.152 115.957 -37.714 119.746 -36.23 123.52 C-35.951 124.239 -35.671 124.959 -35.383 125.701 C-34.844 127.09 -34.297 128.475 -33.742 129.857 C-31.888 134.663 -31.888 134.663 -33 138 C-32.67 138.33 -32.34 138.66 -32 139 C-31.095 141.914 -30.916 144.59 -30.812 147.625 C-30.349 152.946 -28.265 156.331 -25.367 160.727 C-23.732 163.446 -23.166 165.839 -23 169 C-27.675 164.746 -30.928 159.896 -34.359 154.613 C-35.244 153.266 -35.244 153.266 -36.147 151.891 C-38.02 149.035 -39.885 146.174 -41.75 143.312 C-43.019 141.377 -44.289 139.441 -45.559 137.506 C-47.871 133.976 -50.183 130.447 -52.487 126.911 C-52.95 126.203 -53.412 125.494 -53.888 124.763 C-55 123 -55 123 -56 121 C-59.677 122.511 -61.719 124.649 -64.312 127.625 C-65.099 128.518 -65.885 129.412 -66.695 130.332 C-68.111 131.971 -69.524 133.614 -70.93 135.262 C-74.374 139.281 -77.823 142.74 -82 146 C-81.286 137.429 -81.286 137.429 -78 134 C-78.66 134 -79.32 134 -80 134 C-80.289 134.639 -80.577 135.279 -80.875 135.938 C-82 138 -82 138 -84 139 C-82.268 133.919 -79.241 129.916 -76.102 125.641 C-73.556 122.182 -73.556 122.182 -73 118 C-73.626 118.794 -74.253 119.588 -74.898 120.406 C-75.716 121.427 -76.533 122.448 -77.375 123.5 C-78.187 124.521 -78.999 125.542 -79.836 126.594 C-80.907 127.785 -80.907 127.785 -82 129 C-82.66 129 -83 129 -84 129 C-85.373 130.292 -86.71 131.624 -88 133 C-86.751 129.618 -85.329 126.815 -83.25 123.875 C-79.769 118.791 -76.871 113.446 -74 108 C-75.719 108.034 -75.719 108.034 -77.473 108.068 C-81.872 108.066 -86.093 107.562 -90.438 106.906 C-91.586 106.74 -91.586 106.74 -92.757 106.57 C-95.172 106.219 -97.586 105.859 -100 105.5 C-101.65 105.259 -103.299 105.018 -104.949 104.777 C-108.967 104.191 -112.984 103.597 -117 103 C-117 102.34 -117 101.68 -117 101 C-120.3 100.67 -123.6 100.34 -127 100 C-127 99.34 -127 98.68 -127 98 C-127.699 98.023 -128.397 98.046 -129.117 98.07 C-130.482 98.097 -130.482 98.097 -131.875 98.125 C-132.78 98.148 -133.685 98.171 -134.617 98.195 C-137 98 -137 98 -139 96 C-135.535 95.505 -135.535 95.505 -132 95 C-132.99 94.01 -133.98 93.02 -135 92 C-131.714 91.28 -128.589 90.846 -125.229 90.719 C-124.311 90.682 -123.393 90.645 -122.447 90.607 C-121.467 90.572 -120.487 90.537 -119.477 90.5 C-118.457 90.459 -117.437 90.419 -116.387 90.377 C-113.133 90.248 -109.879 90.123 -106.625 90 C-102.346 89.837 -98.068 89.67 -93.789 89.5 C-92.813 89.465 -91.837 89.429 -90.831 89.393 C-85.817 89.193 -80.951 88.821 -76 88 C-77.711 83.366 -80.119 79.459 -82.758 75.305 C-84 73 -84 73 -84 70 C-82.68 70.33 -81.36 70.66 -80 71 C-80 71.66 -80 72.32 -80 73 C-79.376 73.061 -78.752 73.121 -78.109 73.184 C-76 74 -76 74 -74.953 76.285 C-74.721 77.202 -74.489 78.118 -74.25 79.062 C-73.886 80.441 -73.886 80.441 -73.516 81.848 C-73.345 82.558 -73.175 83.268 -73 84 C-72.67 83.34 -72.34 82.68 -72 82 C-71.34 82 -70.68 82 -70 82 C-70.33 81.01 -70.66 80.02 -71 79 C-69.688 76.312 -69.688 76.312 -68 74 C-67.34 74 -66.68 74 -66 74 C-66.99 72.329 -66.99 72.329 -68 70.625 C-70 67.25 -70 67.25 -70 65 C-65.969 65.517 -64.347 67.431 -61.75 70.438 C-61.044 71.241 -60.337 72.044 -59.609 72.871 C-58 75 -58 75 -58 77 C-53.713 72.996 -50.403 68.622 -47.062 63.812 C-46.527 63.049 -45.992 62.286 -45.441 61.5 C-42.84 57.76 -40.33 54.017 -38.062 50.062 C-33.805 42.684 -28.541 35.933 -23.51 29.074 C-22.243 27.334 -21.002 25.577 -19.766 23.816 C-15.418 17.627 -10.601 12.116 -5.418 6.629 C-3.451 4.49 -1.682 2.364 0 0 Z" fill="#E49F17" transform="translate(216,754)"/>
        <path d="M0 0 C0.99 0.495 0.99 0.495 2 1 C1.34 1 0.68 1 0 1 C-0.375 2.179 -0.75 3.359 -1.137 4.574 C-3.19 10.737 -5.624 16.749 -8.014 22.786 C-18.044 46.673 -18.044 46.673 -22 72 C-19.326 71.358 -16.662 70.689 -14 70 C-13.061 69.757 -12.121 69.515 -11.154 69.264 C-1.482 66.635 7.783 63.199 17.115 59.564 C19.691 58.561 22.272 57.568 24.854 56.576 C32.698 53.547 40.455 50.507 47.98 46.73 C50 46 50 46 53 47 C51.888 47.584 51.888 47.584 50.754 48.18 C43.732 51.91 36.842 55.809 30.015 59.884 C25.791 62.394 21.534 64.822 17.223 67.18 C6.633 72.991 -3.215 78.631 -12 87 C-9.343 89.821 -6.782 91.925 -3.438 93.875 C-2.557 94.389 -1.677 94.904 -0.77 95.434 C1.932 96.961 4.647 98.457 7.375 99.938 C11.473 102.162 15.564 104.397 19.625 106.688 C20.628 107.248 21.631 107.809 22.664 108.387 C25 110 25 110 26 113 C27.093 113.309 28.186 113.619 29.312 113.938 C33.116 115.034 34.517 116.02 37 119 C36.34 119.66 35.68 120.32 35 121 C32.938 120.75 32.938 120.75 30 120 C29.301 119.863 28.603 119.727 27.883 119.586 C23.114 118.639 19.349 117.221 15 115 C13.11 114.544 11.22 114.089 9.33 113.634 C4.963 112.446 0.778 110.76 -3.438 109.125 C-4.773 108.616 -4.773 108.616 -6.135 108.098 C-11.841 105.905 -17.424 103.504 -23 101 C-22.998 101.89 -22.996 102.78 -22.993 103.697 C-22.973 112.126 -22.958 120.555 -22.948 128.984 C-22.943 133.316 -22.936 137.649 -22.925 141.981 C-22.914 146.17 -22.908 150.358 -22.905 154.547 C-22.903 156.137 -22.9 157.727 -22.894 159.318 C-22.866 167.926 -22.98 176.437 -24 185 C-24.309 184.361 -24.619 183.721 -24.938 183.062 C-25.835 181.064 -25.835 181.064 -27 180 C-27.112 178.418 -27.187 176.834 -27.25 175.25 C-27.69 169.417 -28.844 163.969 -30.25 158.312 C-32.26 150.221 -34.062 142.115 -35.688 133.938 C-35.89 132.928 -36.092 131.918 -36.3 130.878 C-37.668 123.94 -38.872 116.981 -40 110 C-43.995 110 -44.767 111.345 -47.625 114.062 C-50.838 117.052 -54.047 119.874 -57.562 122.5 C-61.756 125.675 -65.348 129.263 -68.957 133.082 C-70.941 134.945 -72.574 135.839 -75 137 C-76.43 138.125 -77.826 139.294 -79.188 140.5 C-79.882 141.108 -80.577 141.717 -81.293 142.344 C-83.09 143.905 -83.09 143.905 -84 146 C-84.888 146.168 -84.888 146.168 -85.793 146.34 C-88.934 147.279 -90.191 149.095 -92.312 151.562 C-93.107 152.474 -93.901 153.385 -94.719 154.324 C-96.053 155.889 -97.386 157.454 -98.719 159.02 C-102.795 163.765 -107.131 168.17 -111.582 172.56 C-115.079 176.026 -118.342 179.622 -121.531 183.375 C-123.482 185.533 -125.652 187.292 -128 189 C-126.3 184.856 -123.359 181.756 -120.438 178.438 C-119.347 177.183 -118.257 175.928 -117.168 174.672 C-116.63 174.051 -116.091 173.431 -115.537 172.791 C-113.394 170.294 -111.32 167.745 -109.25 165.188 C-98.939 152.536 -98.939 152.536 -93.25 147.75 C-87.287 142.729 -82.212 136.776 -77 131 C-80.295 133.526 -83.124 136.088 -85.812 139.25 C-86.417 139.956 -87.022 140.663 -87.645 141.391 C-88.315 142.187 -88.315 142.187 -89 143 C-89.66 142.67 -90.32 142.34 -91 142 C-88.861 139.623 -86.722 137.247 -84.582 134.871 C-82.91 133.012 -81.24 131.15 -79.574 129.285 C-75.102 124.287 -70.628 119.415 -65.688 114.875 C-63.666 113.049 -63.666 113.049 -64 110 C-64.99 109.505 -64.99 109.505 -66 109 C-65.05 107.661 -64.089 106.329 -63.125 105 C-62.591 104.257 -62.058 103.515 -61.508 102.75 C-61.01 102.173 -60.513 101.595 -60 101 C-59.34 101 -58.68 101 -58 101 C-57.734 100.415 -57.469 99.83 -57.195 99.227 C-55.609 96.272 -53.492 94.051 -51.242 91.586 C-49.794 90.073 -49.794 90.073 -50 88 C-50.579 87.814 -51.157 87.628 -51.753 87.437 C-71.029 81.213 -71.029 81.213 -79.484 77.105 C-82.357 75.843 -85.234 74.988 -88.25 74.125 C-94.072 72.428 -99.372 70.124 -104.8 67.461 C-107.627 66.079 -110.287 64.917 -113.316 64.039 C-116 63 -116 63 -117.168 60.935 C-117.442 60.296 -117.717 59.658 -118 59 C-114.85 59.525 -111.7 60.05 -108.55 60.575 C-105.832 61.028 -103.114 61.481 -100.396 61.933 C-93.934 63.008 -87.473 64.087 -81.016 65.188 C-79.953 65.368 -78.89 65.548 -77.795 65.733 C-75.827 66.067 -73.86 66.404 -71.893 66.743 C-66.604 67.637 -61.352 68.312 -56.005 68.745 C-54 69 -54 69 -52 70 C-54.199 62.072 -56.935 54.537 -60.062 46.938 C-63.564 38.375 -66.521 30.005 -67.5 20.75 C-67.989 17.079 -68.926 14.231 -70.301 10.832 C-71.155 8.594 -71.631 6.364 -72 4 C-69.643 6.197 -67.965 8.466 -66.25 11.188 C-64.235 14.284 -62.159 17.003 -59.625 19.688 C-53.706 26.262 -49.084 34.617 -46.125 42.938 C-43.436 50.302 -38.459 56.618 -34 63 C-31.204 59.563 -29.226 55.797 -27.227 51.867 C-26.866 51.165 -26.505 50.464 -26.134 49.741 C-24.96 47.454 -23.793 45.165 -22.625 42.875 C-21.819 41.3 -21.012 39.726 -20.206 38.151 C-13.381 24.812 -6.654 11.425 0 0 Z" fill="#E49F17" transform="translate(216,754)"/>
        <path d="M0 0 C0.99 0.495 0.99 0.495 2 1 C1.34 1 0.68 1 0 1 C-0.375 2.179 -0.75 3.359 -1.137 4.574 C-3.19 10.737 -5.624 16.749 -8.014 22.786 C-18.044 46.673 -18.044 46.673 -22 72 C-19.326 71.358 -16.662 70.689 -14 70 C-13.061 69.757 -12.121 69.515 -11.154 69.264 C-1.482 66.635 7.783 63.199 17.115 59.564 C19.691 58.561 22.272 57.568 24.854 56.576 C32.698 53.547 40.455 50.507 47.98 46.73 C50 46 50 46 53 47 C51.888 47.584 51.888 47.584 50.754 48.18 C43.732 51.91 36.842 55.809 30.015 59.884 C25.791 62.394 21.534 64.822 17.223 67.18 C6.633 72.991 -3.215 78.631 -12 87 C-9.343 89.821 -6.782 91.925 -3.438 93.875 C-2.557 94.389 -1.677 94.904 -0.77 95.434 C1.932 96.961 4.647 98.457 7.375 99.938 C11.473 102.162 15.564 104.397 19.625 106.688 C20.628 107.248 21.631 107.809 22.664 108.387 C25 110 25 110 26 113 C27.093 113.309 28.186 113.619 29.312 113.938 C33.116 115.034 34.517 116.02 37 119 C36.34 119.66 35.68 120.32 35 121 C32.938 120.75 32.938 120.75 30 120 C29.301 119.863 28.603 119.727 27.883 119.586 C23.114 118.639 19.349 117.221 15 115 C13.11 114.544 11.22 114.089 9.33 113.634 C4.963 112.446 0.778 110.76 -3.438 109.125 C-4.773 108.616 -4.773 108.616 -6.135 108.098 C-11.841 105.905 -17.424 103.504 -23 101 C-22.998 101.89 -22.996 102.78 -22.993 103.697 C-22.973 112.126 -22.958 120.555 -22.948 128.984 C-22.943 133.316 -22.936 137.649 -22.925 141.981 C-22.914 146.17 -22.908 150.358 -22.905 154.547 C-22.903 156.137 -22.9 157.727 -22.894 159.318 C-22.866 167.926 -22.98 176.437 -24 185 C-24.309 184.361 -24.619 183.721 -24.938 183.062 C-25.835 181.064 -25.835 181.064 -27 180 C-27.112 178.418 -27.187 176.834 -27.25 175.25 C-27.69 169.417 -28.844 163.969 -30.25 158.312 C-32.26 150.221 -34.062 142.115 -35.688 133.938 C-35.89 132.928 -36.092 131.918 -36.3 130.878 C-37.668 123.94 -38.872 116.981 -40 110 C-43.995 110 -44.767 111.345 -47.625 114.062 C-50.838 117.052 -54.047 119.874 -57.562 122.5 C-61.756 125.675 -65.348 129.263 -68.957 133.082 C-70.941 134.945 -72.574 135.839 -75 137 C-76.43 138.125 -77.826 139.294 -79.188 140.5 C-79.882 141.108 -80.577 141.717 -81.293 142.344 C-83.09 143.905 -83.09 143.905 -84 146 C-84.888 146.168 -84.888 146.168 -85.793 146.34 C-88.934 147.279 -90.191 149.095 -92.312 151.562 C-93.107 152.474 -93.901 153.385 -94.719 154.324 C-96.053 155.889 -97.386 157.454 -98.719 159.02 C-102.795 163.765 -107.131 168.17 -111.582 172.56 C-115.079 176.026 -118.342 179.622 -121.531 183.375 C-123.482 185.533 -125.652 187.292 -128 189 C-126.3 184.856 -123.359 181.756 -120.438 178.438 C-119.347 177.183 -118.257 175.928 -117.168 174.672 C-116.63 174.051 -116.091 173.431 -115.537 172.791 C-113.394 170.294 -111.32 167.745 -109.25 165.188 C-98.939 152.536 -98.939 152.536 -93.25 147.75 C-87.287 142.729 -82.212 136.776 -77 131 C-80.295 133.526 -83.124 136.088 -85.812 139.25 C-86.417 139.956 -87.022 140.663 -87.645 141.391 C-88.315 142.187 -88.315 142.187 -89 143 C-89.66 142.67 -90.32 142.34 -91 142 C-88.861 139.623 -86.722 137.247 -84.582 134.871 C-82.91 133.012 -81.24 131.15 -79.574 129.285 C-75.102 124.287 -70.628 119.415 -65.688 114.875 C-63.666 113.049 -63.666 113.049 -64 110 C-64.99 109.505 -64.99 109.505 -66 109 C-65.05 107.661 -64.089 106.329 -63.125 105 C-62.591 104.257 -62.058 103.515 -61.508 102.75 C-61.01 102.173 -60.513 101.595 -60 101 C-59.34 101 -58.68 101 -58 101 C-57.734 100.415 -57.469 99.83 -57.195 99.227 C-55.609 96.272 -53.492 94.051 -51.242 91.586 C-49.794 90.073 -49.794 90.073 -50 88 C-50.579 87.814 -51.157 87.628 -51.753 87.437 C-71.029 81.213 -71.029 81.213 -79.484 77.105 C-82.357 75.843 -85.234 74.988 -88.25 74.125 C-94.072 72.428 -99.372 70.124 -104.8 67.461 C-107.627 66.079 -110.287 64.917 -113.316 64.039 C-116 63 -116 63 -117.168 60.935 C-117.442 60.296 -117.717 59.658 -118 59 C-114.85 59.525 -111.7 60.05 -108.55 60.575 C-105.832 61.028 -103.114 61.481 -100.396 61.933 C-93.934 63.008 -87.473 64.087 -81.016 65.188 C-79.953 65.368 -78.89 65.548 -77.795 65.733 C-75.827 66.067 -73.86 66.404 -71.893 66.743 C-66.604 67.637 -61.352 68.312 -56.005 68.745 C-54 69 -54 69 -52 70 C-54.199 62.072 -56.935 54.537 -60.062 46.938 C-63.564 38.375 -66.521 30.005 -67.5 20.75 C-67.989 17.079 -68.926 14.231 -70.301 10.832 C-71.155 8.594 -71.631 6.364 -72 4 C-69.643 6.197 -67.965 8.466 -66.25 11.188 C-64.235 14.284 -62.159 17.003 -59.625 19.688 C-53.706 26.262 -49.084 34.617 -46.125 42.938 C-43.436 50.302 -38.459 56.618 -34 63 C-31.204 59.563 -29.226 55.797 -27.227 51.867 C-26.866 51.165 -26.505 50.464 -26.134 49.741 C-24.96 47.454 -23.793 45.165 -22.625 42.875 C-21.819 41.3 -21.012 39.726 -20.206 38.151 C-13.381 24.812 -6.654 11.425 0 0 Z" fill="#E49F17" transform="translate(216,754)"/>
      </g>
    </svg>
  </g>
  <g id="text-layer">
    <svg xmlns="http://www.w3.org/2000/svg" width="1080" height="1080" viewBox="0 0 1080 1080" preserveAspectRatio="xMidYMid meet">
      <style>
        .title { fill: #fff; font-family: Arial, sans-serif; font-weight: bold; font-size: 160px; letter-spacing: 0.02em; }
        .date { fill: #e55727; font-family: Arial, sans-serif; font-weight: normal; font-size: 48px; }
      </style>
      <text x="50%" y="45%" class="title" dominant-baseline="middle" text-anchor="middle">COMING</text>
      <text x="50%" y="60%" class="title" dominant-baseline="middle" text-anchor="middle">SOON</text>
      <text x="50%" y="75%" class="date" dominant-baseline="middle" text-anchor="middle">June 30, 2024</text>
    </svg>
  </g>
</svg>