<svg xmlns="http://www.w3.org/2000/svg" width="1080" height="1080" viewBox="0 0 1080 1080">
  <g id="background-layer">
    <image href="http://localhost:5000/static/images/sessions/bg_20250625_165725_e913659d/background_20250625_165725_94e28f8f.png" x="0" y="0" width="1080" height="1080"/>
  </g>
  <g id="elements-layer" opacity="0.9">
    <path d="M0 0 C337.92 0 675.84 0 1024 0 C1024 337.92 1024 675.84 1024 1024 C686.08 1024 348.16 1024 0 1024 C0 686.08 0 348.16 0 0 Z" fill="#FEFEFE"/>
    <path d="M0 0 C3.467 0.049 3.467 0.049 6.934 0.098 C6.934 3.068 6.934 6.038 6.934 9.098 C6.235 9.279 5.536 9.461 4.816 9.648 C3.906 9.9 2.996 10.151 2.059 10.41 C1.154 10.654 0.249 10.897 -0.684 11.148 C-3.388 11.964 -3.388 11.964 -5.066 15.098 C-4.427 15.221 -3.788 15.345 -3.129 15.473 C-2.448 15.679 -1.768 15.885 -1.066 16.098 C-0.736 16.758 -0.406 17.418 -0.066 18.098 C1.725 18.125 3.517 18.144 5.309 18.16 C6.805 18.178 6.805 18.178 8.332 18.195 C10.918 18.278 10.918 18.278 12.934 17.098 C13.635 17.16 14.336 17.221 15.059 17.285 C18.076 17.088 19.285 16.479 21.871 15.035 C24.94 13.376 25.785 13.087 29.434 13.348 C30.259 13.595 31.084 13.843 31.934 14.098 C32.924 17.563 32.924 17.563 33.934 21.098 C34.924 20.438 35.914 19.778 36.934 19.098 C39.195 18.684 39.195 18.684 41.621 18.473 C42.833 18.361 42.833 18.361 44.07 18.246 C44.685 18.197 45.3 18.148 45.934 18.098 C46.924 20.573 46.924 20.573 47.934 23.098 C46.944 24.088 45.954 25.078 44.934 26.098 C45.594 26.428 46.254 26.758 46.934 27.098 C46.309 28.973 46.309 28.973 44.934 31.098 C42.942 31.79 40.941 32.455 38.934 33.098 C36.16 35.421 35.086 36.642 33.934 40.098 C34.594 40.098 35.254 40.098 35.934 40.098 C34.919 42.633 34.319 43.869 31.934 45.285 C31.274 45.553 30.614 45.821 29.934 46.098 C28.944 46.593 28.944 46.593 27.934 47.098 C27.934 48.088 27.934 49.078 27.934 50.098 C30.868 49.831 30.868 49.831 33.934 49.098 C34.594 48.108 35.254 47.118 35.934 46.098 C36.924 46.098 37.914 46.098 38.934 46.098 C38.934 46.758 38.934 47.418 38.934 48.098 C39.924 48.098 40.914 48.098 41.934 48.098 C41.934 48.758 41.934 49.418 41.934 50.098 C42.594 50.098 43.254 50.098 43.934 50.098 C43.184 56.848 43.184 56.848 40.934 59.098 C40.214 61.415 39.543 63.749 38.934 66.098 C41.818 66.098 44.228 65.039 46.934 64.098 C44.934 67.098 44.934 67.098 42.309 67.785 C41.525 67.888 40.741 67.991 39.934 68.098 C39.604 69.088 39.274 70.078 38.934 71.098 C37 72.09 37 72.09 34.496 72.973 C30.791 74.354 27.268 75.861 23.746 77.66 C13.606 82.825 13.606 82.825 9.246 83.535 C6.196 84.277 5.1 85.866 2.934 88.098 C0.95 89.129 -1.049 90.133 -3.066 91.098 C-3.726 91.758 -4.386 92.418 -5.066 93.098 C-6.325 93.201 -7.583 93.304 -8.879 93.41 C-13.425 93.884 -15.055 95.623 -18.066 99.098 C-23.013 104.224 -28.482 106.811 -34.969 109.648 C-38.756 111.42 -41.756 113.562 -45.066 116.098 C-46118 116.593 -46.118 116.593 -47.191 117.098 C-49299 118.084 -49.299 118.084 -51.191 120.473 C-54462 123.459 -57319 124.611 -61426 126.117 C-64784 127.364 -68006 128.855 -71254 130.363 C-73066 131.098 -73.066 131.098 -75066 131.098 C-75066 131.758 -75066 132.418 -75066 133.098 C-79876 135.903 -84739 137.124 -90141 138.402 C-93486 139.197 -96770 140.124 -100066 141.098 C-100066 140.438 -100066 139.778 -100066 139.098 C-102864 139.661 -105652 140.247 -108441 140.848 C-109235 141.005 -11003 141.162 -110848 141.324 C-112999 141.798 -11502 142.28 -117066 143.098 C-118367 145.017 -118367 145.017 -119066 147.098 C-121203 148.477 -121203 148.477 -123754 149.66 C-124997 150.25 -124997 150.25 -126266 150.852 C-128322 151.767 -130398 152.638 -132484 153.484 C-136141 155.131 -139381 157.114 -142691 159.348 C-150741 164.649 -159026 169.664 -168066 173.098 C-166423 171.402 -164759 169.743 -163066 168.098 C-162084 167.139 -162084 167.139 -161082 166.16 C-156446 161.82 -152128 159.009 -146363 156.395 C-143232 154.626 -14139 152.351 -13932 149.453 C-138907 149.006 -138493 148.559 -138066 148.098 C-137076 148.098 -136086 148.098 -135066 148.098 C-135066 147.438 -135066 146.778 -135066 146.098 C-133746 145.768 -132426 145.438 -131066 145.098 C-131066 144.108 -131066 143.118 -131066 142.098 C-129668 141.105 -128259 140.123 -1268 139.222 C-123864 137.318 -121319 134.961 -118691 132.66 C-114605 129.13 -11062 125.874 -105848 123.293 C-103252 121.551 -101246 119.332 -99.066 117.098 C-92782 111.097 -86379 105.671 -79184 100.789 C-76 99.197 -76.797 99.197 -76066 96.098 C-69.955 93.098 -69.955 93.098 -67066 93.098 C-66778 92.5 -66489 91.901 -66191 91.285 C-65066 89.098 -65066 89.098 -63066 86.098 C-62.963 85.314 -62.86 84.53 -62.754 83.723 C-61803 80.093 -59791 78.636 -57066 76.098 C-53425 72.117 -51721 69.16 -50066 64.098 C-49071 62.415 -48048 60.75 -47004 59.098 C-44716 55.413 -43299 52.521 -43066 48.098 C-43726 48.098 -44386 48.098 -45066 48.098 C-45066 47.108 -45066 46.118 -45066 45.098 C-46054 45.109 -47041 45.121 -48059 45.133 C-4934 45.142 -50621 45.151 -51941 45.16 C-53218 45.172 -54494 45.183 -55809 45.195 C-59066 45.098 -59066 45.098 -61066 44.098 C-62588 44.014 -64113 43.99 -65537 44 C-66981 44.005 -66981 44.005 -68352 44.01 C-69289 44.018 -70226 44.027 -71191 44.035 C-72609 44.042 -72609 44.042 -74055 44.049 C-76392 44.061 -78729 44.077 -81066 44.098 C-81066 43.438 -81066 42.778 -81066 42.098 C-81726 42.098 -82386 42.098 -83066 42.098 C-83066 40.778 -83066 39.458 -83066 38.098 C-85376 37.768 -85686 37.438 -90066 37.098 C-90396 36.108 -90726 35.118 -91066 34.098 C-91186 33.508 -91316 32.917 -91442 32.312 C-91389 24.077 -91337 15.841 -912.88 7.605 C-912.216 1.835 -911.55 -4.885 -911.874 -11.656 C-911.907 -13.454 -911.94 -15.253 -911.973 -17.052 C-911.987 -18.948 -911.998 -20.843 -912 -22.738 C-911.75 -21.732 -911.501 -20.725 -911.251 -19.718 C-911 -17.914 -911 -16.11 -911 -14.305 C-911 -16.9 -911 -19.494 -911 -22.088 C-910.789 -20.829 -910.589 -19.561 -910.388 -18.292 C-910.051 -15.628 -909.713 -12.964 -909.375 -10.3 C-908.638 -4.464 -907.9 1.372 -907 7 C-906.534 11.6 -906.068 16.2 -905.602 20.8 C-905.027 24.953 -904.473 29.106 -903.906 33.262 C-903.319 36.052 -902.701 38.841 -902.062 41.625 C-901.824 43.015 -901.593 44.404 -901.36 45.781 C-900.771 48.338 -900.183 50.895 -899.594 53.452 C-899.362 54.586 -899.13 55.72 -898.898 56.854 C-898.261 59.269 -897.624 61.684 -896.987 64.099 C-896.671 65.359 -896.355 66.619 -896.039 67.879 C-894.806 70.365 -893.573 72.85 -892.341 75.336 C-890.364 78.521 -888.388 81.707 -886.413 84.893 C-884.693 87.151 -882.971 89.41 -881.25 91.668 C-878.499 87.575 -875.747 83.481 -872.998 79.388 C-871.481 77.022 -869.965 74.658 -868.45 72.292 C-866.88 69.674 -865.311 67.055 -863.742 64.437 C-862.606 62.425 -861.471 60.413 -860.351 58.4 C-858.005 54.365 -855.66 50.331 -853.315 46.297 C-851.113 42.918 -849.911 39.538 -848.708 36.159 C-846.405 29.583 -844.102 23.007 -841.799 16.432 C-839.463 10.143 -837.127 3.852 -834.791 -2.438 C-834.41 -4.083 -834.03 -5.727 -833.65 -7.372 C-830.792 -15.335 -827.935 -23.297 -825.077 -31.26 C-823.129 -35.461 -821.182 -39.662 -819.234 -43.864 C-816.37 -49.322 -813.505 -54.779 -810.641 -60.24 C-807.341 -65.985 -804.04 -71.733 -800.74 -77.481 C-798.311 -81.163 -795.881 -84.846 -793.45 -88.529 C-789.166 -94.412 -784.883 -100.298 -780.599 -106.182 C-778.05 -109.279 -775.5 -112.375 -772.95 -115.472 C-768.716 -121.268 -764.481 -127.048 -760.245 -132.842 C-758.227 -135.743 -756.21 -138.644 -754.192 -141.546 C-750.844 -146.975 -747.496 -152.404 -744.147 -157.833 C-741.776 -161.616 -739.405 -165.399 -737.034 -169.182 C-733.051 -175.725 -729.067 -182.262 -725.084 -188.805 C-722.937 -192.054 -720.789 -195.3 -718.642 -198.55 C-715.636 -203.272 -712.629 -207.995 -709.624 -212.716 C-707.096 -216.174 -704.567 -219.631 -702.038 -223.089 C-697.135 -229.623 -692.232 -236.157 -687.329 -242.691 C-684.121 -246.866 -680.913 -251.042 -677.704 -255.219 C-673.973 -260.087 -670.242 -264.954 -666.511 -269.822 C-663.047 -273.354 -659.583 -276.886 -656.119 -280.418 C-652.337 -284.383 -648.547 -288.347 -644.755 -292.312 C-640.524 -296.768 -636.292 -301.224 -632.06 -305.68 C-629.735 -308.95 -627.409 -312.22 -625.084 -315.49 C-620.59 -321.483 -616.095 -327.476 -611.601 -333.469 C-609.445 -336.341 -607.288 -339.213 -605.132 -342.085 C-601.605 -347.306 -598.077 -352.526 -594.55 -357.747 C-592.618 -360.778 -590.685 -363.808 -588.753 -366.839 C-585.377 -372.176 -582.001 -377.514 -578.625 -382.851 C-576.595 -385.715 -574.565 -388.58 -572.535 -391.445 C-569.157 -397.911 -565.78 -404.377 -562.402 -410.844 C-560.51 -414.125 -558.618 -417.416 -556.727 -420.698 C-553.354 -427.265 -549.981 -433.832 -546.608 -440.399 C-544.718 -443.687 -542.828 -446.977 -540.937 -450.266 C-537.568 -456.791 -534.198 -463.317 -530.829 -469.842 C-527.414 -476.084 -524 -482.328 -520.585 -488.569 C-518.49 -491.809 -516.393 -495.05 -514.297 -498.288 C-511.871 -503.071 -509.445 -507.854 -507.02 -512.637 C-504.599 -517.587 -502.177 -522.537 -499.756 -527.487 C-496.514 -533.147 -493.272 -538.808 -490.031 -544.468 C-485.272 -552.972 -480.512 -561.477 -475.752 -569.982 C-473.654 -573.188 -471.556 -576.394 -469.458 -579.6 C-465.792 -585.723 -462.125 -591.846 -458.459 -597.968 C-456.366 -601.218 -454.272 -604.469 -452.178 -607.718 C-448.844 -613.827 -445.511 -619.937 -442.177 -626.046 C-439.765 -630.595 -437.353 -635.145 -434.941 -639.694 C-430.693 -647.592 -426.445 -655.49 -422.196 -663.387 C-419.935 -667.89 -417.675 -672.392 -415.414 -676.894 C-410.605 -684.793 -405.798 -692.692 -400.99 -700.591 C-398.639 -704.188 -396.288 -707.785 -393.937 -711.382 C-389.393 -717.545 -384.849 -723.708 -380.304 -729.871 C-378.829 -732.188 -377.354 -734.505 -375.878 -736.822 C-371.621 -742.979 -367.363 -749.137 -363.106 -755.294 C-361.944 -757.764 -360.781 -760.233 -359.618 -762.703 C-355.594 -768.928 -351.57 -775.153 -347.546 -781.377 C-345.794 -783.758 -344.042 -786.139 -342.289 -788.52 C-338.393 -794. шта, etc...
  </g>
  <g id="text-layer">
    <svg width="1080" height="1080" viewBox="0 0 1080 1080" xmlns="http://www.w3.org/2000/svg" preserveAspectRatio="xMidYMid meet">
      <style>
        .large-text {
          font-family: 'Arial Black', Arial, sans-serif;
          font-weight: 900;
          font-size: 180px;
          fill: #ffffff;
          letter-spacing: 0.05em;
        }
        .small-text {
          font-family: 'Arial Black', Arial, sans-serif;
          font-weight: 700;
          font-size: 40px;
          fill: #ffffff;
          letter-spacing: 0.05em;
        }
      </style>
      <text x="50%" y="45%" class="large-text" text-anchor="middle" dominant-baseline="middle">COMING</text>
      <text x="50%" y="65%" class="large-text" text-anchor="middle" dominant-baseline="middle">SOON</text>
      <text x="50%" y="80%" class="small-text" text-anchor="middle" dominant-baseline="middle">www.risingus.com</text>
    </svg>
  </g>
</svg>