<svg width="1080" height="1080" viewBox="0 0 1080 1080" xmlns="http://www.w3.org/2000/svg">
  <g id="background-layer">
    <image href="/static/images/sessions/parallel_20250625_155641_3ca4702b/background_20250625_155727_87b0b66e.png" x="0" y="0" width="1080" height="1080"/>
  </g>
  <g id="elements-layer" opacity="0.9" fill-opacity="1">
    <!-- Paths from elements SVG filtered to exclude large background fill paths -->
    <path d="M0 0 C-1 0 -2 0 -3 0 C-2.732 0.536 -2.464 1.072 -2.188 1.625 C-2 4 -2 4 -4 6 C-4.66 6 -5.32 6 -6 6 C-6.193 6.558 -6.387 7.115 -6.586 7.695 C-8 9 -8 9 -10 10 C-12.355 9.772 -13.716 9.21 -15.617 7.805 C-17.561 5.268 -17.299 3.465 -17.188 0.312 C-17.16 -0.681 -17.133 -1.675 -17.105 -2.699 C-17.071 -3.758 -17.036 -4.718 -17 -5.703 C-17.426 -6.272 -17.849 -6.839 -18.251 -7.391 C-19.324 -9.559 -20.406 -11.726 -21.5 -13.875 C-21.764 -14.545 -22.028 -15.215 -22.312 -15.875 C-23.269 -18.96 -24.138 -22.044 -25 -25 C-25.599 -27.116 -26.217 -29.23 -26.812 -31.312 C-27.454 -33.422 -28.096 -35.532 -28.75 -37.625 C-29.66 -41.191 -30.573 -44.757 -31.5 -48.312 C-31.84 -49.545 -32.183 -50.778 -32.531 -52 C-33.368 -54.245 -34.204 -56.49 -35 -58.75 C-35.66 -61.271 -36.324 -63.793 -36.985 -66.312 C-37.668 -69.483 -38.388 -72.652 -39.125 -75.813 C-39.522 -77.709 -39.919 -79.605 -40.312 -81.5 C-41.161 -78.859 -41.922 -76.217 -42.625 -73.562 C-43.648 -69.183 -44.67 -64.805 -45.688 -60.438 C-46.245 -57.753 -46.805 -55.068 -47.375 -52.375 C-48.211 -47.995 -49.045 -43.614 -49.875 -39.25 C-50.295 -36.621 -50.713 -34.001 -51 -31.375 C-51.668 -27.574 -52.33 -23.772 -53 -19.968 C-53.66 -16.168 -54.324 -12.366 -54.985 -8.562 C-55.668 -4.727 -56.388 -0.887 -57.125 3.938 C-57.505 7.887 -57.885 11.835 -58.25 15.781 C-58.568 19.41 -58.868 23.037 -59 26.668 C-59 30.356 -59 34.043 -59 37.734 C-59 41.089 -58.668 44.452 -58.312 47.796 C-57.809 52.011 -57.273 56.201 -56.688 60.375 C-55.894 65.583 -55.057 70.778 -54.188 75.938 C-53.374 80.799 -52.519 85.64 -51.625 90.438 C-50.709 95.448 -49.763 100.448 -48.75 105.438 C-47.677 110.626 -46.574 115.791 -45.438 120.938 C-44.205 126.189 -42.941 131.418 -41.656 136.625 C-40.354 142.045 -39.02 147.441 -37.656 152.812 C-36.28 158.182 -34.875 163.526 -33.438 168.844 C-32.082 174.046 -30.695 179.219 -29.268 184.375 C-27.891 189.413 -26.472 194.432 -25 199.422 C-23.602 204.292 -22.159 209.146 -20.668 213.969 C-19.237 218.643 -17.745 223.287 -16.2 227.89 C-14.722 232.385 -13.189 236.84 -11.6 241.25 C-10.072 245.553 -8.468 249.799 -6.807 253.996 C-5.124 258.045 -3.374 262.031 -1.562 265.956 C-0.776 267.521 -0.001 269.089 0.75 270.625 C1.518 272.209 2.278 273.803 3.031 275.375 C3.758 277.064 4.465 278.729 5.164 280.375 C5.794 281.862 6.423 283.318 7 284.75 C7.558 285.982 8.106 287.208 8.641 288.418 C9.131 289.639 9.614 290.842 10.088 292.032 C10.701 293.624 11.31 295.211 11.906 296.792 C12.676 298.887 13.44 300.964 14.188 303 C14.937 305.09 15.668 307.138 16.375 309.188 C17.085 311.392 17.778 313.605 18.438 315.812 C19.045 317.764 19.626 319.721 20.188 321.66 C20.938 323.791 21.661 325.898 22.375 328 C22.957 329.668 23.529 331.333 24.094 333 C24.772 335.037 25.439 337.085 26 339.125 C26.86 341.995 27.7 344.864 28.531 347.688 C29.189 349.862 29.823 352.02 30.434 354.188 C31.199 356.903 31.9 359.597 32.562 362.312 C33.228 365.036 33.878 367.735 34.516 370.438 C35.032 372.669 35.541 374.889 36.043 377.125 C36.841 379.744 37.595 382.366 38.312 385 C38.876 387.272 39.423 389.538 39.938 391.812 C40.535 394.532 41.084 397.259 41.602 400 C42.051 402.356 42.464 404.691 42.844 407.032 C43.319 410.277 43.763 413.516 44.188 416.75 C44.563 418.959 44.911 421.161 45.234 423.344 C45.583 425.736 45.915 428.109 46.219 430.468 C46.574 432.417 46.898 434.355 47.188 436.281 C47.705 439.599 48.183 442.898 48.625 446.188 C48.997 448.503 49.356 450.795 49.688 453.062 C50.071 456.213 50.424 459.34 50.75 462.438 C51.29 465.328 51.807 468.203 52.3 471 C52.908 473.768 53.491 476.533 54 479 C54.665 482.157 55.2 485.304 55.7 488.438 C56.252 491.537 56.769 494.627 57.25 497.688 C57.943 501.605 58.602 505.491 59.232 509.344 C59.79 512.534 60.308 515.701 60.789 518.84 C61.289 522.146 61.78 525.429 62.25 528.688 C62.836 531.644 63.406 534.575 63.938 537.477 C64.432 540.17 64.91 542.847 65.362 545.5 C65.948 548.466 66.498 551.405 67 554 C67.569 557.222 68.103 560.418 68.602 563.617 C69.25 567.693 69.869 571.768 70.448 575.844 C70.99 579.693 71.501 583.51 72 587.25 C72.598 591.145 73.154 595.03 73.679 598.89 C74.26 602.956 74.81 607.005 75.338 611.062 C75.935 615.025 76.502 618.988 77 622.938 C77.573 626.188 78.116 629.417 78.633 632.688 C79.242 635.95 79.825 639.251 80.383 642.5 C81.04 645.923 81.669 649.283 82.262 652.565 C82.856 655.847 83.413 658.964 83.938 662 C84.543 665.733 85.116 669.375 85.656 673 C86.244 676.953 86.793 680.885 87.312 684.75 C87.939 688.683 88.525 692.546 89 696.375 C89.364 700.245 89.687 704.097 89.969 707.937 C90.161 710.453 90.327 712.954 90.469 715.438 C90.673 718.175 90.852 720.902 91 723.625 C91.545 727.807 92.057 731.97 92.532 736.125 C92.917 738.959 93.269 741.775 93.586 744.562 C94 747.082 94.382 749.593 94.735 752.094 C95.205 754.659 95.648 757.209 96.062 759.75 C96.568 762.732 97.045 765.697 97.5 768.656 C98.035 771.544 98.542 774.418 99 777.3 C99.678 781.353 100.312 785.389 100.906 789.375 C101.576 793.268 102.209 797.138 102.801 801 C103.574 804.332 104.312 807.632 105 810.875 C105.552 813.865 106.07 816.845 106.563 819.801 C107.152 823.429 107.711 826.944 108.25 830.438 C108.84 834.438 109.407 838.413 109.953 842.363 C110.616 846.824 111.251 851.262 111.858 855.688 C112.48 860.058 113.077 864.417 113.649 868.75 C114.077 872.307 114.488 875.851 114.875 879.375 C115.175 882.377 115.452 885.36 115.688 888.312 C115.838 890.416 115.959 892.5 116.051 894.559 C116.157 896.535 116.234 898.486 116.281 900.425 C116.292 901.225 116.303 902.025 116.312 902.812 C116.314 903.682 116.317 904.548 116.319 905.422 C116.373 908.133 116.425 910.829 116.469 913.519 C116.514 915.323 116.542 917.113 116.562 918.898 C116.617 921.599 116.659 924.295 116.688 927 C116.699 928.556 116.711 930.153 116.713 931.75 C116.721 935.146 116.721 935.146 116.75 939 C116.786 942.898 116.824 946.793 116.844 950.688 C116.857 952.233 116.869 953.768 116.875 955.312 C116.878 956.375 116.88 957.422 116.883 958.469 C116.889 960.062 116.896 961.638 116.906 963.213 C116.917 964.623 116.929 966.031 116.938 967.438 C117 969.531 117 969.531 117 972 C114.135 970.935 111.659 969.731 109 968 C106.664 966.712 104.874 964.839 102.75 962.75 C100.625 960.662 98.989 958.416 97.75 956.062 C94.052 949.552 89.954 943.703 85 938 C84.34 937.34 83.68 936.68 83 936 C82.372 935.273 81.734 934.535 81 933 C80.581 932.561 80.162 932.123 79.75 931.688 C77.976 929.936 76.196 928.186 74.438 926.438 C73.5 925.496 72.56 924.557 71.625 923.625 C69 921.014 66.48 918.477 64 915 C62.978 913.979 61.956 912.958 60.938 911.938 C58.125 909.125 55.312 906.312 52.5 903.5 C50.289 901.289 48.078 899.079 45.867 896.867 C44.195 894.956 42.522 893.045 40.86 891.125 C38.31 888.574 35.76 886.022 33.212 883.468 C30.667 880.923 28.122 878.368 25.578 875.812 C23.888 873.922 22.199 872.032 20.508 870.141 C17.841 866.464 15.174 862.786 12.5 859.094 C9.808 855.552 7.116 852 4.422 848.438 C2.728 846.15 1.037 843.862 0 841.563 C-0.66 839.2 -1.322 836.837 -2 834.438 C-2.721 832.481 -3.439 830.522 -4.15 828.531 C-5.421 825.464 -6.689 822.389 -7.938 819.312 C-9.186 816.178 -10.424 813.043 -11.648 809.898 C-13.943 804.439 -15.216 798.979 -16.468 793.5 C-17.716 788.022 -18.938 782.532 -20.125 777.031 C-20.793 774.098 -21.463 771.165 -22.125 768.219 C-22.865 765.681 -23.595 763.142 -24.312 760.594 C-25.281 758.197 -26.251 755.799 -27.188 753.391 C-29 748.667 -30.786 743.948 -32.531 739.219 C-33.134 737.495 -33.736 735.77 -34.312 734.062 C-34.911 731.861 -35.505 729.658 -36.062 727.438 C-36.652 725.184 -37.236 722.927 -37.781 720.664 C-38.374 717.979 -38.956 715.29 -39.5 712.594 C-40.187 709.303 -40.861 706.009 -41.5 702.695 C-42.221 699.427 -42.922 696.145 -43.602 692.839 C-44.274 690.052 -44.924 687.259 -45.543 684.438 C-46.33 680.963 -47.108 677.495 -47.862 674.006 C-48.603 670.712 -49.319 667.413 -50 664.094 C-50.773 660.657 -51.508 657.209 -52.188 653.75 C-52.872 650.209 -53.519 646.661 -54.125 643.103 C-54.729 639.54 -55.295 635.966 -55.813 632.383 C-56.385 628.99 -56.917 625.587 -57.406 622.188 C-58.061 617.811 -58.669 613.427 -59.231 609.043 C-59.855 604.928 -60.436 600.802 -61 596.688 C-61.597 592.183 -62.155 587.678 -62.688 583.188 C-63.39 576.702 -63.962 570.215 -64.5 563.718 C-65.138 557.125 -65.734 550.521 -66.281 543.937 C-66.925 537.44 -67.523 530.94 -68.078 524.441 C-68.733 517.954 -69.342 511.468 -69.906 505 C-70.563 499.429 -71.173 493.956 -71.75 488.5 C-72.338 482.829 -72.881 477.157 -73.375 471.5 C-74.119 461.858 -74.827 452.217 -75.5 442.562 C-76.247 430.954 -76.953 419.346 -77.625 407.734 C-78.388 394.766 -79.11 381.805 -79.781 368.841 C-80.523 355.344 -81.223 341.855 -81.875 328.371 C-82.583 312.838 -83.257 297.305 -83.887 281.777 C-84.563 265.025 -85.199 248.271 -85.781 231.526 C-86.583 211.036 -87.339 190.558 -88.031 170.072 C-89.043 144.465 -89.998 118.861 -90.887 93.251 C-91.666 69.962 -92.381 46.679 -93 23.389 C-94 3.125 -95 0 -95 0" />
  </g>
  <g id="text-layer">
    <text x="540" y="620" style="fill:#d3f0ff; font-family: Arial, Helvetica, sans-serif; font-weight: 700; font-size: 122px; letter-spacing: 0.05em; text-anchor: middle;">COMING</text>
    <text x="540" y="760" style="fill:#d3f0ff; font-family: Arial, Helvetica, sans-serif; font-weight: 700; font-size: 122px; letter-spacing: 0.05em; text-anchor: middle;">SOON</text>
    <text x="540" y="840" style="fill:#a3d4ff; font-family: Arial, Helvetica, sans-serif; font-weight: 500; font-size: 42px; letter-spacing: 0.05em; text-anchor: middle;">June 15 2023</text>
    <text x="540" y="880" style="fill:#8bc6ff; font-family: Arial, Helvetica, sans-serif; font-weight: 400; font-size: 32px; letter-spacing: 0.05em; text-anchor: middle;">www.lanccia.com</text>
  </g>
</svg>