<?xml version="1.0" encoding="UTF-8"?>
<!-- Generator: visioncortex VTracer 0.6.4 -->
<svg version="1.1" xmlns="http://www.w3.org/2000/svg" width="1024" height="1024">
<path d="M0 0 C337.92 0 675.84 0 1024 0 C1024 337.92 1024 675.84 1024 1024 C686.08 1024 348.16 1024 0 1024 C0 686.08 0 348.16 0 0 Z " fill="#111111" transform="translate(0,0)"/>
<path d="M0 0 C3.504 2.842 6.784 5.837 10 9 C10.773 9.761 11.547 10.521 12.344 11.305 C27.735 27.381 34.724 48.088 34.246 70.051 C33.291 94.451 23.357 115.2 5.621 131.863 C0.542 136.404 -4.958 139.841 -11 143 C-12.334 143.717 -12.334 143.717 -13.695 144.449 C-32.086 153.59 -55.924 155.74 -75.555 149.391 C-100.353 139.381 -118.314 123.926 -129 99 C-136.658 77.555 -136.891 53.584 -127.264 32.835 C-117.214 12.175 -100.918 -4.257 -79 -12 C-52.423 -20.399 -22.612 -16.898 0 0 Z " fill="#FAFAFA" transform="translate(212,720)"/>
<path d="M0 0 C0.726 0.642 1.451 1.284 2.199 1.945 C2.812 2.464 3.424 2.982 4.055 3.516 C18.693 16.847 26.359 38.626 27.48 57.949 C28.112 76.227 22.667 93.05 12.199 107.945 C11.635 108.757 11.07 109.57 10.488 110.406 C7.567 114.467 7.567 114.467 6.199 115.945 C5.539 115.945 4.879 115.945 4.199 115.945 C4.104 115.075 4.104 115.075 4.008 114.188 C3.161 108.786 1.946 105.838 -2.422 102.527 C-6.055 100.111 -9.754 97.797 -13.452 95.481 C-19.101 91.884 -24.12 87.748 -28.801 82.945 C-29.551 82.198 -30.301 81.45 -31.074 80.68 C-33.355 77.068 -33.612 74.047 -32.801 69.945 C-31.64 67.273 -30.094 64.932 -28.488 62.508 C-22.391 52.566 -20.108 41.629 -20.801 29.945 C-21.735 26.501 -21.735 26.501 -23.113 23.195 C-23.757 21.532 -23.757 21.532 -24.414 19.836 C-26.573 15.335 -29.589 13.245 -33.613 10.383 C-34.445 9.783 -35.276 9.184 -36.133 8.566 C-44.246 3.637 -54.624 3.653 -63.75 5.562 C-70.97 8.124 -77.146 12.737 -81.25 19.242 C-85.591 29.051 -85.601 42.813 -82.238 52.945 C-80.147 57.757 -77.342 62.114 -74.387 66.438 C-72.066 70.107 -70.744 72.596 -70.93 77 C-73.744 86.516 -87.643 93.034 -95.531 98.148 C-103.52 102.824 -103.52 102.824 -109.238 109.758 C-110.012 111.336 -110.012 111.336 -110.801 112.945 C-122.379 102.388 -129.86 86.417 -131.033 70.871 C-132.106 47.53 -128.456 26.274 -112.789 8.113 C-112.133 7.398 -111.477 6.682 -110.801 5.945 C-110.176 5.24 -109.55 4.535 -108.906 3.809 C-98.56 -7.255 -81.986 -16.106 -66.801 -18.055 C-65.994 -18.163 -65.187 -18.271 -64.355 -18.383 C-40.97 -21.1 -18.135 -15.361 0 0 Z " fill="#111011" transform="translate(213.80078125,728.0546875)"/>
<path d="M0 0 C3.504 2.842 6.784 5.837 10 9 C10.773 9.761 11.547 10.521 12.344 11.305 C27.735 27.381 34.724 48.088 34.246 70.051 C33.776 82.049 31.891 100.109 23 109 C20.375 109.625 20.375 109.625 18 110 C18.402 108.998 18.402 108.998 18.812 107.977 C19.204 106.994 19.596 106.012 20 105 C20.474 103.811 20.949 102.623 21.438 101.398 C30.599 78.027 29.814 55.971 19.833 32.806 C11.549 14.838 -4.036 1.937 -22.145 -5.32 C-29.758 -8.11 -37.919 -9.516 -46 -10 C-47.002 -10.062 -47.002 -10.062 -48.023 -10.125 C-67.869 -10.715 -88.415 -4.213 -103.25 9.188 C-117.735 22.923 -127.615 41.336 -128.434 61.551 C-128.457 63.805 -128.458 66.059 -128.438 68.312 C-128.431 69.496 -128.424 70.679 -128.417 71.898 C-128.174 85.155 -125.008 96.156 -119 108 C-119.99 108 -120.98 108 -122 108 C-122 108.66 -122 109.32 -122 110 C-122.66 110 -123.32 110 -124 110 C-133.922 89.131 -138.643 65.081 -131.391 42.48 C-122.013 19.01 -107.468 1.543 -84.688 -9.812 C-57.216 -21.346 -23.978 -17.919 0 0 Z " fill="#F4F4F4" transform="translate(212,720)"/>
<path d="M0 0 C2 2 2 2 2.25 4.5 C2 7 2 7 0 9 C-1.093 9.454 -2.186 9.907 -3.312 10.375 C-6.713 11.798 -9.398 13.319 -12 16 C-12.532 18.444 -12.532 18.444 -12 21 C-10.145 22.91 -10.145 22.91 -7.688 24.438 C-3.826 27.253 -1.384 29.255 0 34 C-0.201 39.933 -0.201 39.933 -2.105 42.477 C-4.885 44.711 -7.982 46.175 -11.188 47.688 C-11.822 48.008 -12.457 48.328 -13.111 48.658 C-17.954 50.955 -21.642 51.505 -27 51 C-30.323 48.399 -32.388 45.869 -34 42 C-34.414 38.552 -34.324 35.096 -34.312 31.625 C-34.337 30.225 -34.337 30.225 -34.361 28.797 C-34.366 22.596 -33.859 17.911 -29.309 13.277 C-24.834 10.073 -20.294 7.491 -15.297 5.176 C-12.953 4.058 -12.953 4.058 -10.891 2.418 C-7.406 -0.195 -4.226 -0.27 0 0 Z " fill="#F8F8F8" transform="translate(172,146)"/>
<path d="M0 0 C2 2 2 2 2.25 4.5 C2 7 2 7 0 9 C-1.988 9.398 -3.989 9.738 -6 10 C-6 10.66 -6 11.32 -6 12 C-7.961 13.389 -9.962 14.726 -12 16 C-11.68 19.231 -11.296 20.694 -9.004 23.062 C-8.198 23.702 -7.393 24.341 -6.562 25 C-2.078 28.571 -0.325 31.347 0.375 37.062 C-0.108 40.849 -1.105 41.556 -4 44 C-6.411 45.367 -8.748 46.586 -11.25 47.75 C-11.88 48.066 -12.511 48.382 -13.16 48.707 C-17.978 50.973 -21.68 51.495 -27 51 C-30.889 47.956 -33.631 44.718 -34.306 39.745 C-34.377 37.08 -34.421 34.416 -34.438 31.75 C-34.47 30.833 -34.503 29.917 -34.537 28.973 C-34.588 22.479 -33.575 17.788 -29 13 C-26.157 10.877 -23.169 9.27 -20 7.688 C-18.416 6.858 -16.833 6.029 -15.25 5.199 C-14.51 4.822 -13.77 4.444 -13.007 4.055 C-11.345 3.181 -9.733 2.215 -8.137 1.227 C-5.282 -0.412 -3.234 -0.359 0 0 Z " fill="#F9F9F9" transform="translate(216,146)"/>
<path d="M0 0 C0.33 0 0.66 0 1 0 C1.395 4.061 1.762 8.124 2.125 12.188 C2.237 13.338 2.349 14.488 2.465 15.674 C2.562 16.786 2.658 17.897 2.758 19.043 C2.852 20.064 2.946 21.085 3.043 22.137 C2.997 25.221 2.319 27.236 1 30 C-3.472 25.528 -3.104 17.922 -3.136 11.936 C-3.12 8.957 -3.071 5.979 -3 3 C-2.34 3 -1.68 3 -1 3 C-0.67 2.01 -0.34 1.02 0 0 Z " fill="#F9F9F9" transform="translate(81,781)"/>
<path d="M0 0 C0.33 0.99 0.66 1.98 1 3 C1.66 3 2.32 3 3 3 C2.67 11.25 2.34 19.5 2 28 C1.01 28 0.02 28 -1 28 C-1 24.37 -1 20.74 -1 17 C-1.66 17 -2.32 17 -3 17 C-3.203 11.289 -3.33 6.346 -1 1 C-0.67 0.67 -0.34 0.34 0 0 Z " fill="#EAEBEB" transform="translate(81,767)"/>
<path d="M0 0 C-0.33 0.66 -0.66 1.32 -1 2 C-8.92 2 -16.84 2 -25 2 C-25 2.66 -25 3.32 -25 4 C-28.63 4.33 -32.26 4.66 -36 5 C-36 4.34 -36 3.68 -36 3 C-24.554 -0.127 -11.802 -3.046 0 0 Z " fill="#1E1E1E" transform="translate(171,710)"/>
<path d="M0 0 C2.475 0.99 2.475 0.99 5 2 C3.415 6.845 3.415 6.845 2 9 C-1.188 9.938 -1.188 9.938 -4 10 C-2.667 6.667 -1.333 3.333 0 0 Z " fill="#EBEBEB" transform="translate(234,820)"/>
<path d="M0 0 C3.344 0.557 6.033 1.352 9 3 C7.25 6.875 7.25 6.875 5 8 C2.969 7.066 0.965 6.068 -1 5 C-0.67 3.35 -0.34 1.7 0 0 Z " fill="#EDEDED" transform="translate(194,711)"/>
<path d="M0 0 C3.3 0.33 6.6 0.66 10 1 C8.438 3.562 8.438 3.562 6 6 C2.25 5.812 2.25 5.812 -1 5 C-0.67 3.35 -0.34 1.7 0 0 Z " fill="#EFEFF0" transform="translate(176,706)"/>
<path d="M0 0 C6.875 3.625 6.875 3.625 8 7 C7.01 7 6.02 7 5 7 C5 7.66 5 8.32 5 9 C4.34 9 3.68 9 3 9 C0 3.375 0 3.375 0 0 Z " fill="#E8E8E8" transform="translate(85,821)"/>
<path d="M0 0 C0.99 0.33 1.98 0.66 3 1 C2.67 2.65 2.34 4.3 2 6 C-0.475 5.01 -0.475 5.01 -3 4 C-2.01 2.68 -1.02 1.36 0 0 Z " fill="#F9F9F9" transform="translate(203,715)"/>
<path d="M0 0 C0.33 0.99 0.66 1.98 1 3 C-1.36 5.36 -2.779 5.491 -6 6 C-6 5.34 -6 4.68 -6 4 C-4.039 2.611 -2.038 1.274 0 0 Z " fill="#F1F0F1" transform="translate(236,824)"/>
<path d="M0 0 C0.99 0.66 1.98 1.32 3 2 C2.67 3.32 2.34 4.64 2 6 C0.68 5.34 -0.64 4.68 -2 4 C-1.34 2.68 -0.68 1.36 0 0 Z " fill="#F9FAF9" transform="translate(237,816)"/>
</svg>
