<?xml version="1.0" encoding="UTF-8"?>
<!-- Generator: visioncortex VTracer 0.6.4 -->
<svg version="1.1" xmlns="http://www.w3.org/2000/svg" width="1024" height="1024">
<path d="M0 0 C337.92 0 675.84 0 1024 0 C1024 337.92 1024 675.84 1024 1024 C686.08 1024 348.16 1024 0 1024 C0 686.08 0 348.16 0 0 Z " fill="#118387" transform="translate(0,0)"/>
<path d="M0 0 C10.56 0 21.12 0 32 0 C31.67 0.99 31.34 1.98 31 3 C33.97 3.33 36.94 3.66 40 4 C40.33 3.34 40.66 2.68 41 2 C41.773 2.464 41.773 2.464 42.562 2.938 C45.667 4.291 48.651 4.614 52 5 C52.33 4.34 52.66 3.68 53 3 C53 3.66 53 4.32 53 5 C54.32 4.67 55.64 4.34 57 4 C57 4.66 57 5.32 57 6 C61.29 5.67 65.58 5.34 70 5 C70 5.33 70 5.66 70 6 C71.011 6.124 72.021 6.248 73.062 6.375 C76.12 6.86 78.906 7.51 81.859 8.395 C89.815 10.645 97.762 12.302 106 13 C106 13.66 106 14.32 106 15 C112.6 15.33 119.2 15.66 126 16 C125.67 17.32 125.34 18.64 125 20 C125.782 20.049 126.565 20.098 127.371 20.148 C128.889 20.261 128.889 20.261 130.438 20.375 C131.447 20.445 132.456 20.514 133.496 20.586 C134.322 20.723 135.149 20.859 136 21 C136.33 21.66 136.66 22.32 137 23 C138.984 23.712 140.99 24.365 143 25 C144.608 25.635 146.212 26.282 147.812 26.938 C152.483 28.828 157.204 30.46 162 32 C162.99 32.33 163.98 32.66 165 33 C165 33.33 165 33.66 165 34 C167.475 34.495 167.475 34.495 170 35 C170 35.99 170 36.98 170 38 C170.722 38.124 171.444 38.248 172.188 38.375 C177.06 39.458 181.033 41.542 185.312 44.062 C190.049 46.7 193.608 47.797 199 48 C198.34 48.33 197.68 48.66 197 49 C197 49.66 197 50.32 197 51 C199.475 51.495 199.475 51.495 202 52 C202 52.66 202 53.32 202 54 C202.527 54.085 203.054 54.17 203.598 54.258 C206.908 55.28 209.511 57.028 212.438 58.875 C213.55 59.574 214.662 60.272 215.809 60.992 C216.862 61.655 217.915 62.317 219 63 C219.96 63.539 220.921 64.078 221.91 64.633 C222.6 65.084 223.289 65.535 224 66 C224 66.66 224 67.32 224 68 C226.97 67.505 226.97 67.505 230 67 C230.206 67.928 230.413 68.856 230.625 69.812 C232.373 73.865 234.038 74.302 238 76 C239.625 77.5 239.625 77.5 241 79 C242.323 80.014 243.657 81.013 245 82 C248.612 84.779 251.78 87.78 255 91 C257.412 92.99 259.858 94.895 262.375 96.75 C265.359 99.308 267.767 102.141 270.312 105.125 C272.029 107.134 272.029 107.134 274.5 109 C278.146 111.917 280.986 115.448 284 119 C285.267 120.482 286.538 121.962 287.812 123.438 C288.376 124.096 288.939 124.755 289.52 125.434 C290.935 127.11 290.935 127.11 293 128 C294 129.667 295 131.333 296 133 C296.66 133.33 297.32 133.66 298 134 C298.727 135.979 299.398 137.98 300 140 C300.66 140 301.32 140 302 140 C303.184 141.426 303.184 141.426 304.438 143.312 C306.518 146.424 308.756 148.905 311.562 151.375 C313.355 153.402 314.034 155.489 315 158 C315.66 158.66 316.32 159.32 317 160 C318.019 161.655 319.018 163.323 320 165 C320.66 165.99 321.32 166.98 322 168 C322.391 168.59 322.781 169.181 323.184 169.789 C323.804 170.698 323.804 170.698 324.438 171.625 C324.849 172.236 325.26 172.847 325.684 173.477 C327.026 175.293 327.026 175.293 330 176 C329.67 176.99 329.34 177.98 329 179 C330.829 183.826 334.191 188.303 336.898 192.688 C340 197.783 340 197.783 340 200 C340.99 200.33 341.98 200.66 343 201 C343 202.65 343 204.3 343 206 C343.66 206 344.32 206 345 206 C345.508 207.414 346.006 208.831 346.5 210.25 C346.918 211.433 346.918 211.433 347.344 212.641 C348 215 348 215 348 219 C348.99 219.33 349.98 219.66 351 220 C351.103 220.722 351.206 221.444 351.312 222.188 C352.068 225.278 353.155 227.417 355 230 C355.66 230 356.32 230 357 230 C357.841 234.018 358.054 237.018 357 241 C357.66 241.33 358.32 241.66 359 242 C359.33 241.67 359.66 241.34 360 241 C362 243 362 243 362.062 246.375 C362.042 247.571 362.021 248.768 362 250 C362.325 251.335 362.655 252.67 363 254 C362.67 254.66 362.34 255.32 362 256 C362.66 256.33 363.32 256.66 364 257 C365.929 260.114 366.527 263.164 367.125 266.75 C367.376 268.227 367.376 268.227 367.633 269.734 C367.754 270.482 367.875 271.23 368 272 C368.99 272.33 369.98 272.66 371 273 C370.01 273.495 370.01 273.495 369 274 C369.776 282.848 371.707 291.366 373.652 300.021 C378.126 320.781 379.583 341.424 379.5 362.625 C379.499 363.815 379.497 365.006 379.496 366.232 C379.433 387.496 377.838 408.094 374 429 C373.77 430.272 373.54 431.544 373.303 432.855 C361.407 496.713 332.364 559.083 288 607 C286.757 608.381 286.757 608.381 285.488 609.789 C275.896 620.404 265.973 630.798 255 640 C254.096 640.793 253.193 641.586 252.262 642.402 C201.9 686.368 131.428 717.27 65 725 C64.185 725.102 63.371 725.203 62.531 725.308 C47.186 727.139 31.807 727.208 16.375 727.25 C15.392 727.255 14.408 727.261 13.395 727.266 C-6.596 727.349 -26.338 726.097 -46 722.375 C-46.682 722.248 -47.363 722.121 -48.065 721.991 C-127.884 707.067 -209.063 666.43 -260.078 601.414 C-261.881 599.15 -263.775 597.051 -265.75 594.938 C-313.06 542.101 -339.669 467.561 -347 398 C-347.095 397.2 -347.19 396.4 -347.288 395.576 C-353.803 335.369 -342.007 274.057 -318 219 C-317.255 217.275 -317.255 217.275 -316.494 215.514 C-309.819 200.16 -302.221 185.963 -293 172 C-291.897 170.311 -290.794 168.621 -289.691 166.931 C-273.898 142.778 -273.898 142.778 -265 132 C-264.212 131.011 -263.425 130.023 -262.613 129.004 C-255.751 120.568 -248.1 112.888 -240.438 105.188 C-239.642 104.384 -239.642 104.384 -238.83 103.564 C-231.888 96.569 -224.737 90.123 -217 84 C-215.791 83 -214.585 81.996 -213.383 80.988 C-178.241 51.942 -135.965 32.973 -92.75 19.375 C-92.066 19.158 -91.382 18.942 -90.678 18.719 C-83.836 16.566 -77.187 14.529 -70 14 C-70 13.34 -70 12.68 -70 12 C-68.866 11.711 -67.731 11.422 -66.562 11.125 C-65.387 10.754 -64.211 10.382 -63 10 C-62.67 9.34 -62.34 8.68 -62 8 C-62 8.66 -62 9.32 -62 10 C-58.535 9.505 -58.535 9.505 -55 9 C-54.67 7.68 -54.34 6.36 -54 5 C-52.35 5 -50.7 5 -49 5 C-48.67 5.66 -48.34 6.32 -48 7 C-46.35 6.67 -44.7 6.34 -43 6 C-43 5.01 -43 4.02 -43 3 C-40.36 3 -37.72 3 -35 3 C-34.67 3.66 -34.34 4.32 -34 5 C-30.7 4.67 -27.4 4.34 -24 4 C-23.67 3.01 -23.34 2.02 -23 1 C-22.34 1 -21.68 1 -21 1 C-20.67 2.32 -20.34 3.64 -20 5 C-19.381 4.67 -18.762 4.34 -18.125 4 C-14.464 2.829 -11.459 2.91 -7.648 2.996 C-3.711 3.002 0.097 2.504 4 2 C2.02 1.01 2.02 1.01 0 0 Z " fill="#F2F6F3" transform="translate(504,96)"/>
<path d="M0 0 C0.495 0.99 0.495 0.99 1 2 C0.111 3.761 0.111 3.761 -1.324 5.902 C-1.852 6.701 -2.381 7.499 -2.925 8.321 C-3.507 9.185 -4.088 10.048 -4.688 10.938 C-5.894 12.764 -7.1 14.591 -8.305 16.418 C-8.922 17.349 -9.539 18.28 -10.175 19.24 C-17.855 30.854 -25.146 42.437 -31.078 55.049 C-31.992 56.984 -32.933 58.905 -33.879 60.824 C-47.112 87.929 -56.875 115.718 -62.493 145.346 C-62.93 147.636 -63.392 149.917 -63.867 152.199 C-78.823 228.445 -65.212 307.437 -32 377 C-31.512 378.03 -31.025 379.06 -30.522 380.122 C-24.211 393.29 -16.909 405.621 -8.812 417.75 C-8.192 418.68 -8.192 418.68 -7.559 419.629 C-0.006 430.896 8.024 441.826 16.938 452.062 C17.689 452.931 17.689 452.931 18.456 453.817 C30.482 467.647 42.91 481.543 57.348 492.906 C60.173 495.137 62.892 497.469 65.625 499.812 C102.547 530.557 147.076 552.128 192.984 565.401 C195.679 566.202 198.341 567.088 201 568 C200.67 568.66 200.34 569.32 200 570 C196.625 570.125 196.625 570.125 193 570 C192.34 569.34 191.68 568.68 191 568 C187.324 566.586 183.555 565.621 179.75 564.625 C175.138 563.388 170.808 561.808 166.406 559.969 C164.085 559.034 161.761 558.252 159.375 557.5 C155.628 556.295 152.277 554.675 148.797 552.852 C146.579 551.8 144.43 551.304 142 551 C142 550.34 142 549.68 142 549 C140.948 548.918 139.896 548.835 138.812 548.75 C134.6 547.921 133.207 546.726 130 544 C125.944 542.007 123.547 541 119 541 C116 537.786 116 537.786 116 535 C114.68 535 113.36 535 112 535 C112 534.34 112 533.68 112 533 C110.979 532.876 110.979 532.876 109.938 532.75 C106.078 531.765 103.367 530.137 100 528 C99.67 527.34 99.34 526.68 99 526 C96.69 524.946 94.357 523.943 92 523 C92 522.34 92 521.68 92 521 C91.237 520.711 90.474 520.423 89.688 520.125 C87 519 87 519 84 517 C84 516.34 84 515.68 84 515 C83.147 514.838 83.147 514.838 82.277 514.672 C75.803 512.762 70.597 507.722 66 503 C64.012 501.648 62.013 500.313 60 499 C59.526 498.505 59.051 498.01 58.562 497.5 C56.918 495.921 55.378 495.073 53.375 494 C50 492 50 492 49 489 C47.504 487.48 47.504 487.48 45.688 486.062 C42.974 483.824 40.488 481.488 38 479 C37.072 478.278 36.144 477.556 35.188 476.812 C31.096 473.466 28.136 469.217 25 465 C23.019 462.397 21.431 460.32 18.812 458.375 C17 457 17 457 16 454 C15.154 453.154 14.309 452.309 13.438 451.438 C12.231 450.231 12.231 450.231 11 449 C11 448.34 11 447.68 11 447 C10.34 447 9.68 447 9 447 C9 446.34 9 445.68 9 445 C8.01 445 7.02 445 6 445 C6 443.68 6 442.36 6 441 C5.34 441 4.68 441 4 441 C2.217 438.361 1.009 436.028 0 433 C-0.66 433 -1.32 433 -2 433 C-3.026 431.349 -4.023 429.68 -5 428 C-5.557 427.484 -6.114 426.969 -6.688 426.438 C-8 425 -8 425 -8 421 C-8.66 421 -9.32 421 -10 421 C-11.397 419.044 -12.719 417.034 -14 415 C-15.021 413.484 -15.021 413.484 -16.062 411.938 C-18.822 407.754 -21.232 403.561 -23.438 399.062 C-25.373 395.139 -27.468 391.564 -30 388 C-29.67 387.34 -29.34 386.68 -29 386 C-29.99 385.67 -30.98 385.34 -32 385 C-33.098 382.531 -33.098 382.531 -34.062 379.5 C-34.656 377.649 -35.292 375.81 -36 374 C-36.66 373.67 -37.32 373.34 -38 373 C-38.781 371.293 -38.781 371.293 -39.5 369.188 C-40.291 366.932 -41.045 364.917 -42.188 362.812 C-43.238 360.47 -43.141 358.536 -43 356 C-43.66 356 -44.32 356 -45 356 C-47.789 348.648 -47.789 348.648 -48.938 345.125 C-50.749 339.796 -52.888 334.583 -55.113 329.414 C-56.745 325.557 -58.154 322.063 -58.562 317.875 C-58.988 314.11 -59.9 311.406 -61.312 307.949 C-62 306 -62 306 -62.5 302.25 C-63.023 298.849 -63.82 297.559 -66 295 C-66 294.34 -66 293.68 -66 293 C-65.34 293 -64.68 293 -64 293 C-64.309 292.154 -64.619 291.309 -64.938 290.438 C-66.019 286.938 -66.538 283.628 -67 280 C-67.33 278.333 -67.663 276.666 -68 275 C-69.597 265.952 -71 257.204 -71 248 C-71.33 247.01 -71.66 246.02 -72 245 C-72.097 243.397 -72.138 241.79 -72.145 240.184 C-72.155 238.716 -72.155 238.716 -72.165 237.218 C-72.166 236.159 -72.167 235.099 -72.168 234.008 C-72.171 232.911 -72.175 231.814 -72.178 230.684 C-72.183 228.355 -72.185 226.027 -72.185 223.698 C-72.187 220.174 -72.206 216.649 -72.225 213.125 C-72.278 191.178 -72.278 191.178 -70 181 C-70.66 180.67 -71.32 180.34 -72 180 C-70 170 -70 170 -69.434 167.355 C-68.909 164.907 -68.909 164.907 -69 162 C-68.34 162 -67.68 162 -67 162 C-67.206 161.216 -67.412 160.433 -67.625 159.625 C-68.039 155.622 -67.484 152.632 -66.609 148.742 C-65.756 144.902 -65.123 141.03 -64.465 137.152 C-64 135 -64 135 -63 134 C-62.459 131.33 -62.035 128.646 -61.598 125.957 C-60.97 122.851 -60.039 119.993 -59 117 C-58.35 114.855 -57.704 112.71 -57.062 110.562 C-55.976 107.004 -54.893 103.523 -53.375 100.125 C-51.893 96.953 -51.893 96.953 -50.938 93.25 C-50 90 -50 90 -48 87 C-48.66 87 -49.32 87 -50 87 C-50 86.34 -50 85.68 -50 85 C-49.34 85 -48.68 85 -48 85 C-48 84.34 -48 83.68 -48 83 C-47.34 83 -46.68 83 -46 83 C-46.062 82.237 -46.124 81.474 -46.188 80.688 C-46 78 -46 78 -44.617 76.715 C-42.388 74.351 -41.859 71.971 -40.938 68.875 C-40.348 66.899 -39.713 64.935 -39 63 C-38.34 62.67 -37.68 62.34 -37 62 C-37 61.34 -37 60.68 -37 60 C-36.34 60 -35.68 60 -35 60 C-34.814 58.453 -34.814 58.453 -34.625 56.875 C-33.619 50.639 -32.42 47.42 -28 43 C-26.523 40.398 -25.242 37.721 -24 35 C-23.34 35 -22.68 35 -22 35 C-22 34.01 -22 33.02 -22 32 C-21.34 32 -20.68 32 -20 32 C-19.691 31.051 -19.381 30.103 -19.062 29.125 C-18.126 26.371 -17.401 24.511 -15.625 22.25 C-13.875 19.968 -13.875 19.968 -12.562 17 C-11.014 14.027 -9.384 12.305 -7 10 C-6.67 9.01 -6.34 8.02 -6 7 C-4.688 5.646 -3.354 4.313 -2 3 C-1.34 2.01 -0.68 1.02 0 0 Z " fill="#0F373F" transform="translate(226,243)"/>
<path d="M0 0 C4.767 3.3 4.767 3.3 5.875 6.625 C6 9 6 9 5 11 C6.071 15.989 6.071 15.989 9 20 C8.693 22.943 8.327 25.345 7 28 C7.99 28 8.98 28 10 28 C9.983 29.282 9.983 29.282 9.965 30.59 C9.956 31.695 9.947 32.799 9.938 33.938 C9.92 35.591 9.92 35.591 9.902 37.277 C9.687 39.914 9.687 39.914 11 41 C10.979 41.99 10.959 42.98 10.938 44 C10.89 46.911 11.246 49.424 11.938 52.25 C13.867 60.335 16.81 74.381 13 82 C13.101 83.982 13.101 83.982 13.438 86.188 C14.054 91.186 14.35 95.944 13.5 100.938 C12.718 105.729 12.685 110.284 13.562 115.062 C14.18 119.212 13.894 123.212 12 127 C11.34 127 10.68 127 10 127 C10.186 128.238 10.371 129.475 10.562 130.75 C10.959 133.83 10.887 136.007 10 139 C10.33 139.99 10.66 140.98 11 142 C10.696 143.672 10.354 145.338 10 147 C9.844 148.666 9.699 150.333 9.562 152 C9.218 155.68 8.627 158.643 7 162 C5.822 165.007 5.822 165.007 6 168.375 C6 174.004 4.488 178.58 2.703 183.855 C1.1 188.368 1.1 188.368 1.688 192.938 C2 195 2 195 0.312 197.688 C-0.057 198.189 -0.427 198.69 -0.809 199.207 C-3.03 202.55 -4.457 206.307 -6 210 C-5.34 210.33 -4.68 210.66 -4 211 C-4.66 211.66 -5.32 212.32 -6 213 C-6.345 215.332 -6.678 217.665 -7 220 C-8.062 222.438 -8.062 222.438 -9 224 C-9.66 224 -10.32 224 -11 224 C-11.124 224.598 -11.247 225.196 -11.375 225.812 C-12 228 -12 228 -14 231 C-14 231.99 -14 232.98 -14 234 C-14.66 234.99 -15.32 235.98 -16 237 C-16 237.99 -16 238.98 -16 240 C-19.333 244.667 -19.333 244.667 -22 246 C-22.656 248.527 -22.656 248.527 -23 251 C-23.66 251 -24.32 251 -25 251 C-25.082 252.011 -25.165 253.021 -25.25 254.062 C-26.512 262.495 -33.058 269.367 -38 276 C-37.34 276.33 -36.68 276.66 -36 277 C-36.66 277.33 -37.32 277.66 -38 278 C-39.085 280.283 -39.982 282.615 -40.902 284.969 C-42 287 -42 287 -45 288 C-45 288.66 -45 289.32 -45 290 C-45.66 290.33 -46.32 290.66 -47 291 C-48.434 293.689 -49.733 296.416 -51 299.188 C-52 301 -52 301 -53.562 302.438 C-55.459 304.499 -55.524 306.278 -56 309 C-56.66 309.99 -57.32 310.98 -58 312 C-58.66 312 -59.32 312 -60 312 C-60.268 312.639 -60.536 313.279 -60.812 313.938 C-62 316 -62 316 -65 317 C-66.558 319.307 -67.815 321.551 -68.875 324.125 C-70 326 -70 326 -72.289 327.32 C-78.228 331 -82.83 337.107 -86.688 342.875 C-89.161 346.218 -91.526 347.783 -95 350 C-97.228 352.534 -97.228 352.534 -99 355 C-99.66 355.66 -100.32 356.32 -101 357 C-101.33 357.99 -101.66 358.98 -102 360 C-103.672 360.957 -103.672 360.957 -105.75 361.812 C-110.085 363.816 -112.21 366.164 -115 370 C-116.32 369.67 -117.64 369.34 -119 369 C-117.85 367.85 -116.699 366.7 -115.547 365.551 C-114.49 364.491 -113.438 363.425 -112.391 362.355 C-109.521 359.44 -106.623 356.642 -103.5 354 C-93.995 345.797 -85.051 336.628 -77 327 C-76.197 326.086 -75.394 325.172 -74.566 324.23 C-32.077 275.625 -4.708 212.741 5.449 149.393 C5.812 147.158 6.193 144.926 6.594 142.697 C9.907 124.161 10.395 105.86 10.438 87.062 C10.447 85.322 10.447 85.322 10.456 83.546 C10.529 62.121 8.539 41.353 3.875 20.438 C3.35 18.02 2.826 15.602 2.305 13.184 C1.954 11.563 1.954 11.563 1.597 9.91 C0.921 6.612 0.402 3.34 0 0 Z " fill="#4ECAC4" transform="translate(872,372)"/>
<path d="M0 0 C2.582 1.291 2.613 2.167 3.559 4.848 C3.856 5.668 4.153 6.488 4.459 7.333 C4.944 8.684 4.944 8.684 5.438 10.062 C26.011 65.482 61.357 120.921 108.348 157.906 C111.173 160.137 113.892 162.469 116.625 164.812 C153.547 195.557 198.076 217.128 243.984 230.401 C246.679 231.202 249.341 232.088 252 233 C251.67 233.66 251.34 234.32 251 235 C247.625 235.125 247.625 235.125 244 235 C243.34 234.34 242.68 233.68 242 233 C238.324 231.586 234.555 230.621 230.75 229.625 C226.138 228.388 221.808 226.808 217.406 224.969 C215.085 224.034 212.761 223.252 210.375 222.5 C206.628 221.295 203.277 219.675 199.797 217.852 C197.579 216.8 195.43 216.304 193 216 C193 215.34 193 214.68 193 214 C191.948 213.918 190.896 213.835 189.812 213.75 C185.6 212.921 184.207 211.726 181 209 C176.944 207.007 174.547 206 170 206 C167 202.786 167 202.786 167 200 C165.68 200 164.36 200 163 200 C163 199.34 163 198.68 163 198 C162.319 197.918 161.639 197.835 160.938 197.75 C157.078 196.765 154.367 195.137 151 193 C150.67 192.34 150.34 191.68 150 191 C147.69 189.946 145.357 188.943 143 188 C143 187.34 143 186.68 143 186 C142.237 185.711 141.474 185.423 140.688 185.125 C138 184 138 184 135 182 C135 181.34 135 180.68 135 180 C134.147 179.838 134.147 179.838 133.277 179.672 C126.803 177.762 121.597 172.722 117 168 C115.012 166.648 113.013 165.313 111 164 C110.526 163.505 110.051 163.01 109.562 162.5 C107.918 160.921 106.378 160.073 104.375 159 C101 157 101 157 100 154 C98.504 152.48 98.504 152.48 96.688 151.062 C93.974 148.824 91.488 146.488 89 144 C88.072 143.278 87.144 142.556 86.188 141.812 C82.096 138.466 79.136 134.217 76 130 C74.019 127.397 72.431 125.32 69.812 123.375 C68 122 68 122 67 119 C66.154 118.154 65.309 117.309 64.438 116.438 C63.633 115.633 62.829 114.829 62 114 C62 113.34 62 112.68 62 112 C61.34 112 60.68 112 60 112 C60 111.34 60 110.68 60 110 C59.01 110 58.02 110 57 110 C57 108.68 57 107.36 57 106 C56.34 106 55.68 106 55 106 C53.217 103.361 52.009 101.028 51 98 C50.34 98 49.68 98 49 98 C47.974 96.349 46.977 94.68 46 93 C45.443 92.484 44.886 91.969 44.312 91.438 C43 90 43 90 43 86 C42.34 86 41.68 86 41 86 C39.603 84.044 38.281 82.034 37 80 C36.319 78.989 35.639 77.979 34.938 76.938 C32.178 72.754 29.768 68.561 27.562 64.062 C25.627 60.139 23.532 56.564 21 53 C21.33 52.34 21.66 51.68 22 51 C20.515 50.505 20.515 50.505 19 50 C17.902 47.531 17.902 47.531 16.938 44.5 C16.344 42.649 15.708 40.81 15 39 C14.34 38.67 13.68 38.34 13 38 C12.219 36.293 12.219 36.293 11.5 34.188 C10.709 31.932 9.955 29.917 8.812 27.812 C7.762 25.47 7.859 23.536 8 21 C7.34 21 6.68 21 6 21 C3.346 14.002 0.898 7.485 0 0 Z " fill="#082C36" transform="translate(175,578)"/>
<path d="M0 0 C3.3 0 6.6 0 10 0 C6.739 1.63 4.047 2.655 0.582 3.629 C-0.494 3.937 -1.571 4.245 -2.68 4.562 C-3.838 4.892 -4.995 5.222 -6.188 5.562 C-66.272 23.107 -120.151 51.959 -164 97 C-164.66 96.67 -165.32 96.34 -166 96 C-164.471 92.559 -162.546 89.778 -160 87 C-159.01 87 -158.02 87 -157 87 C-156.67 85.68 -156.34 84.36 -156 83 C-155.01 83 -154.02 83 -153 83 C-152.67 82.01 -152.34 81.02 -152 80 C-151.34 80 -150.68 80 -150 80 C-150 79.34 -150 78.68 -150 78 C-145.615 75 -145.615 75 -143 75 C-143 74.34 -143 73.68 -143 73 C-142.34 73 -141.68 73 -141 73 C-140.814 72.072 -140.814 72.072 -140.625 71.125 C-140 69 -140 69 -138 67 C-136.333 66.333 -134.667 65.667 -133 65 C-132.34 64.34 -131.68 63.68 -131 63 C-130.01 63.495 -130.01 63.495 -129 64 C-128.67 63.01 -128.34 62.02 -128 61 C-126.051 59.394 -123.997 58.018 -121.91 56.598 C-119.857 54.88 -119.012 53.452 -118 51 C-115.69 51 -113.38 51 -111 51 C-110.67 50.01 -110.34 49.02 -110 48 C-107.448 46.416 -104.924 45.627 -102 45 C-101.921 44.233 -101.843 43.466 -101.762 42.676 C-101 40 -101 40 -99.145 38.418 C-94.611 36.026 -91.28 34.323 -86 35 C-85.505 34.01 -85.505 34.01 -85 33 C-83.333 32.667 -81.667 32.333 -80 32 C-77.992 31.016 -75.991 30.018 -74 29 C-73.34 29 -72.68 29 -72 29 C-72 27.68 -72 26.36 -72 25 C-69.743 22.66 -68.512 22.035 -65.25 21.812 C-64.136 21.905 -64.136 21.905 -63 22 C-63 21.34 -63 20.68 -63 20 C-62.215 19.89 -61.43 19.781 -60.621 19.668 C-54.609 18.761 -49.444 17.722 -44 15 C-43.34 14.67 -42.68 14.34 -42 14 C-41.01 14.33 -40.02 14.66 -39 15 C-38.67 14.01 -38.34 13.02 -38 12 C-36.02 11.67 -34.04 11.34 -32 11 C-32 10.34 -32 9.68 -32 9 C-28.943 7.981 -25.888 6.965 -22.812 6 C-19.848 5.075 -19.848 5.075 -17 3 C-14.667 2.959 -12.333 2.958 -10 3 C-9.34 2.67 -8.68 2.34 -8 2 C-5.328 1.866 -2.677 1.957 0 2 C0 1.34 0 0.68 0 0 Z " fill="#4ECAC4" transform="translate(424,109)"/>
<path d="M0 0 C4.767 3.3 4.767 3.3 5.875 6.625 C6 9 6 9 5 11 C6.071 15.989 6.071 15.989 9 20 C8.693 22.943 8.327 25.345 7 28 C7.99 28 8.98 28 10 28 C9.988 28.855 9.977 29.709 9.965 30.59 C9.956 31.695 9.947 32.799 9.938 33.938 C9.926 35.04 9.914 36.142 9.902 37.277 C9.687 39.914 9.687 39.914 11 41 C10.979 41.99 10.959 42.98 10.938 44 C10.89 46.911 11.246 49.424 11.938 52.25 C13.867 60.335 16.81 74.381 13 82 C13.101 83.982 13.101 83.982 13.438 86.188 C14.054 91.186 14.35 95.944 13.5 100.938 C12.718 105.729 12.685 110.284 13.562 115.062 C14.18 119.212 13.894 123.212 12 127 C11.34 127 10.68 127 10 127 C10.186 128.238 10.371 129.475 10.562 130.75 C10.959 133.83 10.887 136.007 10 139 C10.33 139.99 10.66 140.98 11 142 C10.696 143.672 10.354 145.338 10 147 C9.844 148.666 9.699 150.333 9.562 152 C9.218 155.68 8.627 158.643 7 162 C5.797 165.027 5.797 165.027 6.125 168.5 C6 172 6 172 4.5 173.938 C4.005 174.288 3.51 174.639 3 175 C1.76 169.049 2.448 164.402 3.688 158.5 C4.476 154.337 5.238 150.168 6 146 C6.194 144.955 6.387 143.909 6.586 142.833 C9.882 124.253 10.4 105.899 10.438 87.062 C10.447 85.322 10.447 85.322 10.456 83.547 C10.529 62.122 8.539 41.354 3.875 20.438 C3.35 18.02 2.826 15.602 2.305 13.184 C1.954 11.563 1.954 11.563 1.597 9.91 C0.921 6.612 0.402 3.34 0 0 Z " fill="#62D8D0" transform="translate(872,372)"/>
<path d="M0 0 C10.56 0 21.12 0 32 0 C31.67 0.99 31.34 1.98 31 3 C33.97 3.33 36.94 3.66 40 4 C40.33 3.34 40.66 2.68 41 2 C41.773 2.464 41.773 2.464 42.562 2.938 C45.667 4.291 48.651 4.614 52 5 C52.33 4.34 52.66 3.68 53 3 C53 3.66 53 4.32 53 5 C54.32 4.67 55.64 4.34 57 4 C57 4.66 57 5.32 57 6 C61.29 5.67 65.58 5.34 70 5 C70 5.33 70 5.66 70 6 C71.011 6.124 72.021 6.248 73.062 6.375 C78.346 7.214 83.306 8.371 88 11 C82.964 11.143 78.352 10.621 73.438 9.625 C54.127 5.998 34.658 5.627 15.062 5.688 C13.858 5.689 12.653 5.69 11.412 5.692 C-12.54 5.745 -35.89 6.916 -59.41 11.817 C-60.228 11.986 -61.045 12.154 -61.887 12.328 C-62.59 12.482 -63.294 12.636 -64.018 12.794 C-66.249 13.026 -67.872 12.662 -70 12 C-68.866 11.711 -67.731 11.422 -66.562 11.125 C-65.387 10.754 -64.211 10.382 -63 10 C-62.67 9.34 -62.34 8.68 -62 8 C-62 8.66 -62 9.32 -62 10 C-58.535 9.505 -58.535 9.505 -55 9 C-54.67 7.68 -54.34 6.36 -54 5 C-52.35 5 -50.7 5 -49 5 C-48.67 5.66 -48.34 6.32 -48 7 C-46.35 6.67 -44.7 6.34 -43 6 C-43 5.01 -43 4.02 -43 3 C-40.36 3 -37.72 3 -35 3 C-34.505 3.99 -34.505 3.99 -34 5 C-30.7 4.67 -27.4 4.34 -24 4 C-23.67 3.01 -23.34 2.02 -23 1 C-22.34 1 -21.68 1 -21 1 C-20.505 2.98 -20.505 2.98 -20 5 C-19.381 4.67 -18.762 4.34 -18.125 4 C-14.464 2.829 -11.459 2.91 -7.648 2.996 C-3.711 3.002 0.097 2.504 4 2 C2.68 1.34 1.36 0.68 0 0 Z " fill="#7CDCD4" transform="translate(504,96)"/>
<path d="M0 0 C0 0.66 0 1.32 0 2 C-0.99 2.103 -1.98 2.206 -3 2.312 C-5.962 2.716 -8.483 3.503 -11.25 4.625 C-15 6 -15 6 -18 5 C-19.344 5.288 -20.677 5.627 -22 6 C-24.355 6.285 -26.712 6.502 -29.074 6.719 C-31.004 6.805 -31.004 6.805 -32 8 C-34.333 8 -36.667 8 -39 8 C-39.33 8.33 -39.66 8.66 -40 9 C-42.556 9.072 -45.097 8.996 -47.652 8.938 C-50.022 8.835 -50.022 8.835 -52 10 C-54.99 10.071 -57.967 9.997 -60.957 9.938 C-63.898 9.902 -63.898 9.902 -66.315 10.496 C-69.269 11.05 -72.003 11.13 -75.008 11.133 C-76.16 11.134 -77.313 11.135 -78.5 11.137 C-79.696 11.133 -80.893 11.129 -82.125 11.125 C-83.885 11.131 -83.885 11.131 -85.68 11.137 C-92.082 11.13 -98.373 10.897 -104.74 10.214 C-107.202 9.945 -107.202 9.945 -110.5 10 C-113 10 -113 10 -116 9 C-117.155 9 -118.31 9 -119.5 9 C-123 9 -123 9 -126 8 C-127.892 7.778 -129.789 7.594 -131.688 7.438 C-132.681 7.354 -133.675 7.27 -134.699 7.184 C-135.838 7.093 -135.838 7.093 -137 7 C-137 6.34 -137 5.68 -137 5 C-134.458 5.145 -131.917 5.291 -129.375 5.438 C-128.681 5.477 -127.988 5.516 -127.273 5.557 C-123.875 5.754 -120.483 5.958 -117.092 6.252 C-105.796 7.196 -94.517 7.2 -83.188 7.188 C-82.142 7.187 -81.096 7.186 -80.019 7.186 C-55.964 7.148 -31.33 6.626 -7.906 0.448 C-5.258 -0.174 -2.708 -0.062 0 0 Z " fill="#093B44" transform="translate(603,815)"/>
<path d="M0 0 C0.495 0.99 0.495 0.99 1 2 C0.111 3.761 0.111 3.761 -1.324 5.902 C-1.852 6.701 -2.381 7.499 -2.925 8.321 C-3.507 9.185 -4.088 10.048 -4.688 10.938 C-5.894 12.764 -7.1 14.591 -8.305 16.418 C-8.922 17.349 -9.539 18.28 -10.175 19.24 C-17.855 30.854 -25.146 42.437 -31.078 55.049 C-31.992 56.984 -32.933 58.905 -33.879 60.824 C-44.295 82.157 -52.479 104.188 -59 127 C-59.33 127 -59.66 127 -60 127 C-60.954 117.647 -57.084 108.727 -53.398 100.27 C-51.906 96.973 -51.906 96.973 -50.938 93.25 C-50 90 -50 90 -48 87 C-48.66 87 -49.32 87 -50 87 C-50 86.34 -50 85.68 -50 85 C-49.34 85 -48.68 85 -48 85 C-48 84.34 -48 83.68 -48 83 C-47.34 83 -46.68 83 -46 83 C-46.062 82.237 -46.124 81.474 -46.188 80.688 C-46 78 -46 78 -44.617 76.715 C-42.388 74.351 -41.859 71.971 -40.938 68.875 C-40.348 66.899 -39.713 64.935 -39 63 C-38.01 62.505 -38.01 62.505 -37 62 C-37 61.34 -37 60.68 -37 60 C-36.34 60 -35.68 60 -35 60 C-34.876 58.969 -34.752 57.938 -34.625 56.875 C-33.619 50.639 -32.42 47.42 -28 43 C-26.523 40.398 -25.242 37.721 -24 35 C-23.34 35 -22.68 35 -22 35 C-22 34.01 -22 33.02 -22 32 C-21.34 32 -20.68 32 -20 32 C-19.691 31.051 -19.381 30.103 -19.062 29.125 C-18.126 26.371 -17.401 24.511 -15.625 22.25 C-13.875 19.968 -13.875 19.968 -12.562 17 C-11.014 14.027 -9.384 12.305 -7 10 C-6.67 9.01 -6.34 8.02 -6 7 C-4.688 5.646 -3.354 4.313 -2 3 C-1.34 2.01 -0.68 1.02 0 0 Z " fill="#07353E" transform="translate(226,243)"/>
<path d="M0 0 C0.495 0.99 0.495 0.99 1 2 C0.092 2.577 -0.815 3.155 -1.75 3.75 C-4.971 5.825 -4.971 5.825 -7.188 8.25 C-9 10 -9 10 -12 10 C-13.671 10.993 -15.337 11.994 -17 13 C-17.879 13.282 -18.758 13.565 -19.664 13.855 C-23.659 15.226 -27.305 17.025 -31.062 18.938 C-31.757 19.285 -32.451 19.632 -33.166 19.99 C-36.13 21.485 -38.991 22.994 -41.809 24.754 C-44 26 -44 26 -47 26 C-47.66 26.66 -48.32 27.32 -49 28 C-50.777 28.711 -50.777 28.711 -52.938 29.375 C-56.567 30.522 -60.126 31.782 -63.688 33.125 C-67.477 34.526 -71.015 35.336 -75 36 C-75.784 36.474 -76.567 36.949 -77.375 37.438 C-80.28 39.167 -82.819 39.797 -86.086 40.531 C-88.154 40.989 -88.154 40.989 -90.625 42.062 C-94.74 43.687 -98.6 44 -103 44 C-103 43.34 -103 42.68 -103 42 C-102.193 41.755 -101.386 41.51 -100.555 41.258 C-96.984 40.158 -93.42 39.039 -89.859 37.907 C-87.835 37.265 -85.808 36.627 -83.781 35.991 C-54.426 26.743 -27.077 14.588 0 0 Z " fill="#0C444C" transform="translate(707,772)"/>
<path d="M0 0 C3.3 0 6.6 0 10 0 C6.739 1.63 4.047 2.655 0.582 3.629 C-0.495 3.937 -1.571 4.245 -2.68 4.562 C-4.416 5.057 -4.416 5.057 -6.188 5.562 C-28.053 11.938 -49.081 20.023 -70 29 C-70.66 28.34 -71.32 27.68 -72 27 C-72 26.34 -72 25.68 -72 25 C-69.697 22.783 -68.475 22.032 -65.25 21.812 C-64.136 21.905 -64.136 21.905 -63 22 C-63 21.34 -63 20.68 -63 20 C-62.215 19.89 -61.43 19.781 -60.621 19.668 C-54.609 18.761 -49.444 17.722 -44 15 C-43.34 14.67 -42.68 14.34 -42 14 C-41.01 14.33 -40.02 14.66 -39 15 C-38.67 14.01 -38.34 13.02 -38 12 C-36.02 11.67 -34.04 11.34 -32 11 C-32 10.34 -32 9.68 -32 9 C-28.943 7.981 -25.888 6.965 -22.812 6 C-19.848 5.075 -19.848 5.075 -17 3 C-14.667 2.959 -12.333 2.958 -10 3 C-9.34 2.67 -8.68 2.34 -8 2 C-5.328 1.866 -2.677 1.957 0 2 C0 1.34 0 0.68 0 0 Z " fill="#5BD3CC" transform="translate(424,109)"/>
<path d="M0 0 C1 2 1 2 0.375 4.312 C-1.272 7.531 -3.448 9.448 -6 12 C-7.942 14.936 -9.582 17.998 -10.938 21.25 C-12 23 -12 23 -14.285 24.312 C-20.223 28.004 -24.827 34.102 -28.688 39.875 C-31.161 43.218 -33.526 44.783 -37 47 C-39.228 49.534 -39.228 49.534 -41 52 C-41.66 52.66 -42.32 53.32 -43 54 C-43.33 54.99 -43.66 55.98 -44 57 C-45.672 57.957 -45.672 57.957 -47.75 58.812 C-52.085 60.816 -54.21 63.164 -57 67 C-58.32 66.67 -59.64 66.34 -61 66 C-59.85 64.85 -58.699 63.7 -57.547 62.551 C-56.49 61.491 -55.438 60.425 -54.391 59.355 C-51.521 56.44 -48.623 53.642 -45.5 51 C-35.998 42.8 -27.038 33.635 -19 24 C-18.151 23.016 -17.301 22.033 -16.426 21.02 C-10.587 14.243 -5.131 7.336 0 0 Z " fill="#37AEAE" transform="translate(814,675)"/>
<path d="M0 0 C1.944 2.751 1.996 4.039 1.632 7.45 C1.357 8.841 1.069 10.228 0.77 11.613 C0.459 13.17 0.148 14.726 -0.162 16.283 C-0.329 17.101 -0.497 17.92 -0.67 18.763 C-7.575 52.782 -8.609 86.38 -9 121 C-9.33 121 -9.66 121 -10 121 C-11.707 71.681 -11.707 71.681 -9 58 C-9.66 57.67 -10.32 57.34 -11 57 C-9 47 -9 47 -8.434 44.355 C-7.909 41.907 -7.909 41.907 -8 39 C-7.34 39 -6.68 39 -6 39 C-6.206 38.216 -6.412 37.433 -6.625 36.625 C-7.039 32.622 -6.484 29.632 -5.609 25.742 C-4.756 21.902 -4.123 18.03 -3.465 14.152 C-3 12 -3 12 -2 11 C-1.605 9.154 -1.258 7.298 -0.938 5.438 C-0.761 4.426 -0.584 3.414 -0.402 2.371 C-0.27 1.589 -0.137 0.806 0 0 Z " fill="#0D353D" transform="translate(165,366)"/>
<path d="M0 0 C0.495 1.485 0.495 1.485 1 3 C0.34 3 -0.32 3 -1 3 C-1.082 4.011 -1.165 5.021 -1.25 6.062 C-2.512 14.495 -9.058 21.367 -14 28 C-13.34 28.33 -12.68 28.66 -12 29 C-12.66 29.33 -13.32 29.66 -14 30 C-15.085 32.283 -15.982 34.615 -16.902 36.969 C-18 39 -18 39 -21 40 C-21 40.66 -21 41.32 -21 42 C-21.99 42.495 -21.99 42.495 -23 43 C-24.434 45.689 -25.733 48.416 -27 51.188 C-28 53 -28 53 -29.562 54.438 C-31.459 56.499 -31.524 58.278 -32 61 C-32.66 61.99 -33.32 62.98 -34 64 C-34.66 64 -35.32 64 -36 64 C-36.66 65.32 -37.32 66.64 -38 68 C-38.66 67.67 -39.32 67.34 -40 67 C-38.63 63.839 -38.011 63.007 -35 61 C-34.183 59.112 -34.183 59.112 -33.652 56.922 C-32.063 51.766 -29.543 47.712 -26.562 43.25 C-21.485 35.443 -16.755 27.496 -12.186 19.382 C-10.797 16.917 -9.401 14.457 -8 12 C-7.467 11.062 -6.935 10.123 -6.386 9.157 C-5.588 7.782 -5.588 7.782 -4.773 6.379 C-4.291 5.54 -3.808 4.702 -3.31 3.838 C-2.878 3.232 -2.445 2.625 -2 2 C-1.34 2 -0.68 2 0 2 C0 1.34 0 0.68 0 0 Z " fill="#3CC0BD" transform="translate(848,620)"/>
<path d="M0 0 C0.66 0.33 1.32 0.66 2 1 C1.988 1.652 1.977 2.305 1.965 2.977 C1.925 6.807 1.895 10.406 2.562 14.188 C3.2 18.285 2.869 22.261 1 26 C0.34 26 -0.32 26 -1 26 C-0.814 27.238 -0.629 28.475 -0.438 29.75 C-0.041 32.83 -0.113 35.007 -1 38 C-0.67 38.99 -0.34 39.98 0 41 C-0.304 42.672 -0.646 44.338 -1 46 C-1.156 47.666 -1.301 49.333 -1.438 51 C-1.782 54.68 -2.373 57.643 -4 61 C-5.203 64.027 -5.203 64.027 -4.875 67.5 C-5 71 -5 71 -6.5 72.938 C-6.995 73.288 -7.49 73.639 -8 74 C-9.239 68.051 -8.557 63.4 -7.312 57.5 C-5.457 48.04 -4.039 38.557 -2.812 29 C-2.646 27.726 -2.479 26.452 -2.308 25.139 C-1.249 16.766 -0.515 8.423 0 0 Z " fill="#58CEC8" transform="translate(883,473)"/>
<path d="M0 0 C6.75 -0.125 6.75 -0.125 9 1 C10.537 1.225 12.08 1.408 13.625 1.562 C14.442 1.646 15.26 1.73 16.102 1.816 C16.728 1.877 17.355 1.938 18 2 C18 2.66 18 3.32 18 4 C24.6 4.33 31.2 4.66 38 5 C37.67 6.32 37.34 7.64 37 9 C38.174 9.073 38.174 9.073 39.371 9.148 C40.383 9.223 41.395 9.298 42.438 9.375 C43.447 9.445 44.456 9.514 45.496 9.586 C46.736 9.791 46.736 9.791 48 10 C48.495 10.99 48.495 10.99 49 12 C50.984 12.712 52.99 13.365 55 14 C56.608 14.635 58.212 15.282 59.812 15.938 C64.483 17.828 69.204 19.46 74 21 C75.485 21.495 75.485 21.495 77 22 C77 22.33 77 22.66 77 23 C78.65 23.33 80.3 23.66 82 24 C82 24.99 82 25.98 82 27 C82.722 27.124 83.444 27.248 84.188 27.375 C86.982 27.996 89.413 28.778 92 30 C92.495 30.99 92.495 30.99 93 32 C85.386 29.634 78.224 26.534 70.938 23.312 C53.106 15.527 34.957 9.387 16 5 C12.997 4.261 9.999 3.506 7 2.75 C5.646 2.411 4.292 2.073 2.938 1.734 C1.968 1.492 0.999 1.25 0 1 C0 0.67 0 0.34 0 0 Z " fill="#8BE4DD" transform="translate(592,107)"/>
<path d="M0 0 C1.021 0.464 1.021 0.464 2.062 0.938 C5.37 2.134 8.515 2.59 12 3 C12.33 2.34 12.66 1.68 13 1 C13 1.66 13 2.32 13 3 C14.32 2.67 15.64 2.34 17 2 C17 2.66 17 3.32 17 4 C23.435 3.505 23.435 3.505 30 3 C30 3.33 30 3.66 30 4 C31.516 4.186 31.516 4.186 33.062 4.375 C38.346 5.214 43.306 6.371 48 9 C42.963 9.143 38.353 8.618 33.438 7.625 C8.561 3.05 -16.793 3.41 -42 3 C-42 2.67 -42 2.34 -42 2 C-33.682 1.106 -25.422 0.891 -17.062 0.875 C-16.068 0.87 -15.073 0.866 -14.049 0.861 C-9.254 0.871 -4.713 0.995 0 2 C0 1.34 0 0.68 0 0 Z " fill="#8FE1DA" transform="translate(544,98)"/>
<path d="M0 0 C0.66 0 1.32 0 2 0 C2 0.66 2 1.32 2 2 C2.99 2.33 3.98 2.66 5 3 C5 4.65 5 6.3 5 8 C5.66 8 6.32 8 7 8 C7.508 9.414 8.006 10.831 8.5 12.25 C8.778 13.039 9.057 13.828 9.344 14.641 C10 17 10 17 10 21 C10.99 21.33 11.98 21.66 13 22 C13.103 22.722 13.206 23.444 13.312 24.188 C14.068 27.278 15.155 29.417 17 32 C17.66 32 18.32 32 19 32 C19.841 36.018 20.054 39.018 19 43 C19.66 43.33 20.32 43.66 21 44 C21.33 43.67 21.66 43.34 22 43 C24 45 24 45 24.062 48.375 C24.042 49.571 24.021 50.767 24 52 C24.309 53.145 24.309 53.145 24.625 54.312 C24.749 54.869 24.872 55.426 25 56 C24.34 56.66 23.68 57.32 23 58 C22.785 57.368 22.57 56.737 22.348 56.086 C17.772 42.752 12.801 29.785 6.719 17.059 C4.051 11.451 1.837 5.935 0 0 Z " fill="#77DFD7" transform="translate(842,294)"/>
<path d="M0 0 C0.495 0.99 0.495 0.99 1 2 C0.111 3.761 0.111 3.761 -1.324 5.902 C-1.852 6.701 -2.381 7.499 -2.925 8.321 C-3.507 9.185 -4.088 10.048 -4.688 10.938 C-5.894 12.764 -7.1 14.591 -8.305 16.418 C-9.23 17.815 -9.23 17.815 -10.175 19.24 C-17.633 30.518 -24.684 41.74 -30.477 53.973 C-32 57 -32 57 -34 59 C-35.268 55.197 -34.381 53.683 -33 50 C-32.67 49.01 -32.34 48.02 -32 47 C-31.402 46.443 -30.804 45.886 -30.188 45.312 C-27.284 42.243 -25.741 38.816 -24 35 C-23.34 35 -22.68 35 -22 35 C-22 34.01 -22 33.02 -22 32 C-21.34 32 -20.68 32 -20 32 C-19.691 31.051 -19.381 30.103 -19.062 29.125 C-18.126 26.371 -17.401 24.511 -15.625 22.25 C-13.875 19.968 -13.875 19.968 -12.562 17 C-11.014 14.027 -9.384 12.305 -7 10 C-6.67 9.01 -6.34 8.02 -6 7 C-4.688 5.646 -3.354 4.313 -2 3 C-1.34 2.01 -0.68 1.02 0 0 Z " fill="#053E48" transform="translate(226,243)"/>
<path d="M0 0 C1.211 3.632 0.628 5.065 -0.438 8.688 C-0.725 9.681 -1.012 10.675 -1.309 11.699 C-1.537 12.458 -1.765 13.218 -2 14 C-1.34 14.66 -0.68 15.32 0 16 C-0.66 17.32 -1.32 18.64 -2 20 C-2.66 20 -3.32 20 -4 20 C-4.124 20.598 -4.247 21.196 -4.375 21.812 C-5 24 -5 24 -7 27 C-7 27.99 -7 28.98 -7 30 C-7.66 30.99 -8.32 31.98 -9 33 C-9 33.99 -9 34.98 -9 36 C-12.333 40.667 -12.333 40.667 -15 42 C-15 42.66 -15 43.32 -15 44 C-15.66 44 -16.32 44 -17 44 C-17 44.66 -17 45.32 -17 46 C-17.66 45.67 -18.32 45.34 -19 45 C-18.744 44.49 -18.488 43.979 -18.225 43.453 C-11.18 29.291 -5.316 14.893 0 0 Z " fill="#46C1BD" transform="translate(865,576)"/>
<path d="M0 0 C0.773 0.34 0.773 0.34 1.562 0.688 C-1.126 4.13 -4.773 5.066 -8.773 6.352 C-9.848 6.708 -9.848 6.708 -10.944 7.071 C-12.458 7.571 -13.972 8.067 -15.488 8.559 C-17.8 9.308 -20.107 10.071 -22.414 10.836 C-23.888 11.321 -25.362 11.805 -26.836 12.289 C-27.523 12.515 -28.209 12.741 -28.917 12.974 C-32.4 14.101 -35.829 15.064 -39.438 15.688 C-39.438 14.697 -39.438 13.707 -39.438 12.688 C-38.317 12.338 -37.197 11.989 -36.043 11.629 C-34.57 11.169 -33.098 10.71 -31.625 10.25 C-30.887 10.02 -30.149 9.79 -29.389 9.553 C-26.397 8.619 -23.411 7.679 -20.438 6.688 C-20.107 6.028 -19.778 5.367 -19.438 4.688 C-17.398 4.16 -17.398 4.16 -14.812 3.75 C-11.478 3.159 -8.618 2.461 -5.562 1 C-2.438 -0.312 -2.438 -0.312 0 0 Z " fill="#E4EDEB" transform="translate(651.4375,796.3125)"/>
<path d="M0 0 C2.542 0.145 5.083 0.291 7.625 0.438 C8.319 0.477 9.012 0.516 9.727 0.557 C13.181 0.757 16.632 0.971 20.082 1.239 C29.678 1.979 39.257 2.312 48.875 2.562 C50.449 2.606 52.023 2.649 53.598 2.693 C57.398 2.799 61.199 2.9 65 3 C65 3.33 65 3.66 65 4 C59.06 4.495 59.06 4.495 53 5 C53 5.33 53 5.66 53 6 C46.077 6.109 39.302 5.933 32.414 5.219 C29.823 4.947 29.823 4.947 26.5 5 C24 5 24 5 21 4 C19.845 4 18.69 4 17.5 4 C14 4 14 4 11 3 C9.108 2.778 7.211 2.594 5.312 2.438 C4.319 2.354 3.325 2.27 2.301 2.184 C1.162 2.093 1.162 2.093 0 2 C0 1.34 0 0.68 0 0 Z " fill="#19464F" transform="translate(466,820)"/>
<path d="M0 0 C-0.871 0.739 -1.743 1.477 -2.641 2.238 C-13.464 11.444 -24.077 20.814 -34 31 C-34.66 30.67 -35.32 30.34 -36 30 C-34.471 26.559 -32.546 23.778 -30 21 C-29.01 21 -28.02 21 -27 21 C-26.67 19.68 -26.34 18.36 -26 17 C-25.01 17 -24.02 17 -23 17 C-22.67 16.01 -22.34 15.02 -22 14 C-21.34 14 -20.68 14 -20 14 C-20 13.34 -20 12.68 -20 12 C-15.615 9 -15.615 9 -13 9 C-13 8.34 -13 7.68 -13 7 C-12.34 7 -11.68 7 -11 7 C-10.876 6.381 -10.752 5.762 -10.625 5.125 C-10 3 -10 3 -8 1 C-3.531 -1.177 -3.531 -1.177 0 0 Z " fill="#3EB9B7" transform="translate(294,175)"/>
<path d="M0 0 C0 3.699 -0.798 4.228 -3.25 6.875 C-5.948 9.841 -8.506 12.859 -11 16 C-11.66 16.66 -12.32 17.32 -13 18 C-13.33 18.99 -13.66 19.98 -14 21 C-15.672 21.957 -15.672 21.957 -17.75 22.812 C-22.085 24.816 -24.21 27.164 -27 31 C-28.32 30.67 -29.64 30.34 -31 30 C-29.85 28.85 -28.699 27.7 -27.547 26.551 C-26.49 25.491 -25.438 24.425 -24.391 23.355 C-21.44 20.357 -18.448 17.484 -15.25 14.75 C-9.879 10.13 -4.965 5.047 0 0 Z " fill="#299EA0" transform="translate(784,711)"/>
<path d="M0 0 C3.3 0 6.6 0 10 0 C6.549 1.725 3.521 2.831 -0.156 3.91 C-1.343 4.26 -2.531 4.61 -3.754 4.971 C-4.99 5.331 -6.226 5.691 -7.5 6.062 C-9.354 6.609 -9.354 6.609 -11.246 7.166 C-14.495 8.12 -17.743 9.074 -21 10 C-21.741 10.221 -22.481 10.442 -23.244 10.67 C-25.683 11.128 -26.932 10.256 -29 9 C-26.016 6.458 -23.818 5.685 -20 5 C-19.01 4.34 -18.02 3.68 -17 3 C-14.667 2.959 -12.333 2.958 -10 3 C-9.34 2.67 -8.68 2.34 -8 2 C-5.328 1.866 -2.677 1.957 0 2 C0 1.34 0 0.68 0 0 Z " fill="#67DCD4" transform="translate(424,109)"/>
<path d="M0 0 C0.495 0.99 0.495 0.99 1 2 C0.092 2.577 -0.815 3.155 -1.75 3.75 C-4.971 5.825 -4.971 5.825 -7.188 8.25 C-9 10 -9 10 -12 10 C-13.671 10.993 -15.337 11.994 -17 13 C-17.866 13.268 -18.732 13.536 -19.625 13.812 C-22.882 14.959 -25.465 16.389 -28.438 18.125 C-32.997 20.692 -35.828 21.69 -41 21 C-37.971 18.981 -34.965 17.484 -31.68 15.918 C-30.409 15.309 -29.138 14.701 -27.867 14.092 C-25.88 13.143 -23.892 12.196 -21.904 11.249 C-14.481 7.709 -7.114 4.139 0 0 Z " fill="#085057" transform="translate(707,772)"/>
<path d="M0 0 C0.66 0.33 1.32 0.66 2 1 C1.518 1.316 1.035 1.633 0.538 1.959 C-8.435 7.857 -17.306 13.798 -25.812 20.355 C-28 22 -28 22 -30 23 C-30.66 22.67 -31.32 22.34 -32 22 C-31.67 21.34 -31.34 20.68 -31 20 C-30.34 20.33 -29.68 20.66 -29 21 C-28.67 20.01 -28.34 19.02 -28 18 C-26.051 16.394 -23.997 15.018 -21.91 13.598 C-19.857 11.88 -19.012 10.452 -18 8 C-15.69 8 -13.38 8 -11 8 C-10.67 7.01 -10.34 6.02 -10 5 C-8.188 3.938 -8.188 3.938 -6 3 C-5.299 2.649 -4.598 2.299 -3.875 1.938 C-2.583 1.292 -1.292 0.646 0 0 Z " fill="#45C1BC" transform="translate(324,152)"/>
<path d="M0 0 C10.56 0 21.12 0 32 0 C31.67 0.99 31.34 1.98 31 3 C26.583 3.087 22.167 3.14 17.75 3.188 C16.496 3.213 15.241 3.238 13.949 3.264 C12.744 3.273 11.539 3.283 10.297 3.293 C9.187 3.309 8.076 3.324 6.933 3.341 C4 3 4 3 0 0 Z " fill="#79E7DE" transform="translate(504,96)"/>
<path d="M0 0 C1 2 1 2 0.363 3.953 C-1.763 8.601 -4.046 12.807 -7 17 C-8.959 20.047 -10.182 22.496 -11 26 C-11.66 26.99 -12.32 27.98 -13 29 C-13.66 29 -14.32 29 -15 29 C-15.66 30.32 -16.32 31.64 -17 33 C-17.66 32.67 -18.32 32.34 -19 32 C-17.63 28.839 -17.011 28.007 -14 26 C-13.192 24.122 -13.192 24.122 -12.668 21.941 C-11.046 16.66 -8.399 12.482 -5.312 7.938 C-4.801 7.167 -4.29 6.397 -3.764 5.604 C-2.518 3.729 -1.264 1.862 0 0 Z " fill="#38B3B2" transform="translate(827,655)"/>
<path d="M0 0 C0.33 0 0.66 0 1 0 C0.67 20.79 0.34 41.58 0 63 C-0.33 63 -0.66 63 -1 63 C-2.707 13.681 -2.707 13.681 0 0 Z " fill="#001921" transform="translate(156,424)"/>
<path d="M0 0 C0.66 0.66 1.32 1.32 2 2 C1.57 6.159 0.029 10.019 -1.375 13.938 C-1.795 15.122 -2.215 16.307 -2.648 17.527 C-6.175 26.587 -6.175 26.587 -9 28 C-10.462 24.18 -9.491 22.027 -7.91 18.359 C-7.456 17.289 -7.001 16.22 -6.533 15.117 C-6.048 14.006 -5.563 12.895 -5.062 11.75 C-4.581 10.623 -4.1 9.497 -3.604 8.336 C-2.412 5.553 -1.211 2.775 0 0 Z " fill="#E2EDEB" transform="translate(188,310)"/>
<path d="M0 0 C-1.772 2.24 -2.722 2.945 -5.566 3.512 C-8.711 3.696 -11.852 3.878 -15 4 C-16.456 4.062 -16.456 4.062 -17.941 4.125 C-22.945 4.242 -22.945 4.242 -25 4 C-25.66 3.34 -26.32 2.68 -27 2 C-18.044 -0.465 -9.198 -0.192 0 0 Z " fill="#DFEAE8" transform="translate(559,819)"/>
<path d="M0 0 C1.333 1.333 2.667 2.667 4 4 C4.835 4.712 4.835 4.712 5.688 5.438 C7.448 7.533 7.608 9.318 8 12 C8.298 14.197 8.298 14.197 9 16 C9.99 16.33 10.98 16.66 12 17 C11.67 18.65 11.34 20.3 11 22 C5.445 15.59 0.377 8.662 0 0 Z " fill="#DCE9E7" transform="translate(203,634)"/>
<path d="M0 0 C-3.58 2.314 -5.768 1.978 -9.859 1.102 C-10.974 0.87 -12.089 0.638 -13.238 0.398 C-14.397 0.143 -15.556 -0.112 -16.75 -0.375 C-17.924 -0.622 -19.099 -0.87 -20.309 -1.125 C-23.209 -1.738 -26.105 -2.363 -29 -3 C-20.793 -7.538 -8.57 -2.316 0 0 Z " fill="#E1ECEA" transform="translate(466,817)"/>
<path d="M0 0 C1.384 4.153 -0.195 6.901 -1.688 10.812 C-4.506 18.46 -6.879 26.127 -9 34 C-9.33 34 -9.66 34 -10 34 C-11.192 22.321 -5.008 10.251 0 0 Z " fill="#072C34" transform="translate(176,336)"/>
<path d="M0 0 C0.33 0.66 0.66 1.32 1 2 C-0 3.936 -0 3.936 -1.57 6.289 C-2.137 7.149 -2.705 8.009 -3.289 8.895 C-3.895 9.796 -4.501 10.697 -5.125 11.625 C-6.295 13.388 -7.464 15.151 -8.633 16.914 C-9.484 18.193 -9.484 18.193 -10.353 19.497 C-12.632 22.96 -14.821 26.473 -17 30 C-17.66 29.34 -18.32 28.68 -19 28 C-18.006 25.86 -17.002 24.002 -15.562 22.125 C-13.862 19.95 -13.862 19.95 -12.562 17 C-11.014 14.027 -9.384 12.305 -7 10 C-6.67 9.01 -6.34 8.02 -6 7 C-4.688 5.646 -3.354 4.313 -2 3 C-1.34 2.01 -0.68 1.02 0 0 Z " fill="#0E5D64" transform="translate(226,243)"/>
<path d="M0 0 C-3.353 2.97 -5.604 4.287 -10 5 C-10.66 5.66 -11.32 6.32 -12 7 C-14.059 7.887 -14.059 7.887 -16.438 8.688 C-17.22 8.959 -18.002 9.231 -18.809 9.512 C-21 10 -21 10 -24 9 C-22.273 5.547 -18.242 4.778 -14.812 3.375 C-14.056 3.05 -13.3 2.725 -12.521 2.391 C-8.182 0.599 -4.783 -0.412 0 0 Z " fill="#094C54" transform="translate(670,793)"/>
<path d="M0 0 C0 0.33 0 0.66 0 1 C-0.996 1.091 -0.996 1.091 -2.012 1.184 C-2.895 1.267 -3.778 1.351 -4.688 1.438 C-5.993 1.559 -5.993 1.559 -7.324 1.684 C-9.971 1.953 -9.971 1.953 -12.422 2.527 C-21.675 4.224 -31.706 2.953 -41 2 C-41 1.67 -41 1.34 -41 1 C-27.323 0.312 -13.695 -0.154 0 0 Z " fill="#00252E" transform="translate(549,823)"/>
<path d="M0 0 C0.66 0 1.32 0 2 0 C2.205 0.626 2.41 1.253 2.621 1.898 C2.891 2.716 3.16 3.533 3.438 4.375 C3.704 5.187 3.971 5.999 4.246 6.836 C4.952 9.01 4.952 9.01 6 11 C5.67 11.66 5.34 12.32 5 13 C5.99 13.33 6.98 13.66 8 14 C9 16 9 16 10 19 C9.67 19.66 9.34 20.32 9 21 C9.99 21.33 10.98 21.66 12 22 C11.01 22.66 10.02 23.32 9 24 C7.48 21.135 5.988 18.257 4.5 15.375 C4.071 14.567 3.641 13.759 3.199 12.926 C0.906 8.449 -0.602 5.168 0 0 Z " fill="#D9E6E5" transform="translate(190,608)"/>
<path d="M0 0 C0.66 0.33 1.32 0.66 2 1 C-2.95 5.95 -7.9 10.9 -13 16 C-13.66 15.67 -14.32 15.34 -15 15 C-13.471 11.559 -11.546 8.778 -9 6 C-8.01 6 -7.02 6 -6 6 C-5.67 4.68 -5.34 3.36 -5 2 C-4.361 1.856 -3.721 1.711 -3.062 1.562 C-1.025 1.19 -1.025 1.19 0 0 Z " fill="#2DA8A8" transform="translate(273,190)"/>
<path d="M0 0 C3.529 1.176 3.943 1.999 5.918 5.035 C6.45 5.844 6.981 6.653 7.529 7.486 C8.077 8.336 8.624 9.187 9.188 10.062 C9.746 10.917 10.305 11.771 10.881 12.65 C12.261 14.762 13.634 16.879 15 19 C14.01 19.66 13.02 20.32 12 21 C10 18 10 18 10 14 C9.34 14 8.68 14 8 14 C6.603 12.044 5.281 10.034 4 8 C3.257 6.928 2.515 5.855 1.75 4.75 C0 2 0 2 0 0 Z " fill="#0D313B" transform="translate(208,650)"/>
<path d="M0 0 C5.527 0.639 10.624 1.937 15.938 3.562 C16.717 3.796 17.496 4.03 18.299 4.271 C20.201 4.843 22.1 5.421 24 6 C23.67 6.66 23.34 7.32 23 8 C19.625 8.125 19.625 8.125 16 8 C15.34 7.34 14.68 6.68 14 6 C12.019 5.28 10.015 4.62 8 4 C2.222 2.222 2.222 2.222 0 0 Z " fill="#042730" transform="translate(403,805)"/>
<path d="M0 0 C5.158 1.418 9.8 3.674 14 7 C14 7.66 14 8.32 14 9 C15.98 8.67 17.96 8.34 20 8 C20.33 9.98 20.66 11.96 21 14 C16.66 12.496 13.098 10.193 9.375 7.562 C8.803 7.167 8.23 6.772 7.641 6.365 C4.869 4.428 2.277 2.511 0 0 Z " fill="#8AE6DE" transform="translate(714,155)"/>
<path d="M0 0 C0.33 0 0.66 0 1 0 C3.565 16.102 3.565 16.102 3 23 C2.01 23.99 1.02 24.98 0 26 C0 17.42 0 8.84 0 0 Z " fill="#6DD5CF" transform="translate(883,447)"/>
<path d="M0 0 C2.729 0.141 5.458 0.288 8.188 0.438 C8.956 0.477 9.725 0.516 10.518 0.557 C14.433 0.775 18.171 1.087 22 2 C21.67 2.66 21.34 3.32 21 4 C14.375 4.125 14.375 4.125 11 3 C9.108 2.778 7.211 2.594 5.312 2.438 C4.319 2.354 3.325 2.27 2.301 2.184 C1.162 2.093 1.162 2.093 0 2 C0 1.34 0 0.68 0 0 Z " fill="#052F37" transform="translate(466,820)"/>
<path d="M0 0 C9.323 0.528 9.323 0.528 13.312 3.188 C13.312 4.178 13.312 5.168 13.312 6.188 C4.402 4.207 4.402 4.207 -4.688 2.188 C-2.688 0.188 -2.688 0.188 0 0 Z " fill="#DAE7E7" transform="translate(421.6875,806.8125)"/>
<path d="M0 0 C0.33 0 0.66 0 1 0 C1 4.29 1 8.58 1 13 C1.33 13 1.66 13 2 13 C2.33 15.64 2.66 18.28 3 21 C2.01 21.33 1.02 21.66 0 22 C-0.391 19.272 -0.763 16.544 -1.125 13.812 C-1.237 13.044 -1.349 12.275 -1.465 11.482 C-2.034 7.065 -2.197 4.061 0 0 Z " fill="#DFEBE9" transform="translate(160,496)"/>
<path d="M0 0 C0.66 0.66 1.32 1.32 2 2 C1 3 1 3 -1.215 3.062 C-3.027 3.021 -4.84 2.979 -6.652 2.938 C-9.022 2.835 -9.022 2.835 -11 4 C-13.672 4.134 -16.323 4.043 -19 4 C-18.67 3.01 -18.34 2.02 -18 1 C-16.125 0.83 -14.25 0.664 -12.375 0.5 C-11.331 0.407 -10.287 0.314 -9.211 0.219 C-6.108 0.007 -3.107 -0.178 0 0 Z " fill="#154751" transform="translate(562,821)"/>
<path d="M0 0 C-0.33 0.99 -0.66 1.98 -1 3 C-6.94 3.495 -6.94 3.495 -13 4 C-13.66 3.01 -14.32 2.02 -15 1 C-13.667 0.667 -12.333 0.333 -11 0 C-10.402 -0.206 -9.804 -0.413 -9.188 -0.625 C-6.01 -1.17 -3.152 -0.546 0 0 Z " fill="#D6E4E2" transform="translate(576,817)"/>
<path d="M0 0 C4.106 6.158 4.331 14.719 4 22 C3.34 22 2.68 22 2 22 C1.909 21.112 1.909 21.112 1.816 20.207 C1.308 15.294 1.308 15.294 0.438 10.438 C-0.191 6.935 -0.06 3.557 0 0 Z " fill="#0B2D35" transform="translate(158,510)"/>
<path d="M0 0 C5.527 -0.482 9.071 1.089 13.875 3.5 C14.563 3.834 15.252 4.168 15.961 4.512 C17.646 5.331 19.324 6.164 21 7 C20.34 7.66 19.68 8.32 19 9 C17.928 8.526 16.855 8.051 15.75 7.562 C13.192 6.462 10.742 5.548 8 5 C8 4.34 8 3.68 8 3 C6.866 2.876 5.731 2.753 4.562 2.625 C3.387 2.419 2.211 2.212 1 2 C0.67 1.34 0.34 0.68 0 0 Z " fill="#062D35" transform="translate(360,789)"/>
<path d="M0 0 C0.33 0.66 0.66 1.32 1 2 C0.092 2.577 -0.815 3.155 -1.75 3.75 C-4.971 5.825 -4.971 5.825 -7.188 8.25 C-9 10 -9 10 -12 10 C-13.34 10.306 -14.675 10.635 -16 11 C-14.557 6.67 -11.292 5.755 -7.438 3.812 C-6.727 3.444 -6.016 3.076 -5.283 2.697 C-3.527 1.789 -1.764 0.894 0 0 Z " fill="#04575E" transform="translate(707,772)"/>
<path d="M0 0 C1.063 1.595 2.126 3.19 3.184 4.789 C3.597 5.395 4.011 6.001 4.438 6.625 C4.849 7.236 5.26 7.847 5.684 8.477 C7.026 10.293 7.026 10.293 10 11 C9.67 11.99 9.34 12.98 9 14 C9.65 15.341 10.316 16.675 11 18 C10.67 18.66 10.34 19.32 10 20 C8.129 17.24 6.281 14.466 4.438 11.688 C3.904 10.902 3.371 10.116 2.822 9.307 C2.323 8.549 1.823 7.792 1.309 7.012 C0.843 6.315 0.376 5.619 -0.104 4.901 C-1 3 -1 3 0 0 Z " fill="#83E2DA" transform="translate(824,261)"/>
<path d="M0 0 C0 0.66 0 1.32 0 2 C-2.836 3.418 -4.991 2.863 -8.125 2.562 C-9.221 2.461 -10.316 2.359 -11.445 2.254 C-12.288 2.17 -13.131 2.086 -14 2 C-14 1.01 -14 0.02 -14 -1 C-9.047 -2.598 -4.867 -1.283 0 0 Z " fill="#D6E5E4" transform="translate(482,818)"/>
<path d="M0 0 C6.959 0.449 13.33 2.018 20 4 C19.67 4.66 19.34 5.32 19 6 C3.849 3.425 3.849 3.425 -1 1 C-0.67 0.67 -0.34 0.34 0 0 Z " fill="#072E38" transform="translate(428,812)"/>
<path d="M0 0 C2.6 1.3 2.902 2.332 4 5 C4.431 6.905 4.804 8.824 5.125 10.75 C5.293 11.735 5.46 12.72 5.633 13.734 C5.754 14.482 5.875 15.23 6 16 C6.99 16.33 7.98 16.66 9 17 C7.68 17.99 6.36 18.98 5 20 C4.16 17.419 3.327 14.835 2.5 12.25 C2.262 11.52 2.023 10.791 1.777 10.039 C1.552 9.33 1.326 8.621 1.094 7.891 C0.884 7.241 0.675 6.592 0.459 5.923 C0 4 0 4 0 0 Z " fill="#73DAD3" transform="translate(866,352)"/>
<path d="M0 0 C0.66 0.99 1.32 1.98 2 3 C1.32 5.262 1.32 5.262 0.125 7.688 C-0.264 8.496 -0.654 9.304 -1.055 10.137 C-1.367 10.752 -1.679 11.366 -2 12 C-1.34 12.33 -0.68 12.66 0 13 C-0.66 13.66 -1.32 14.32 -2 15 C-2.648 17.571 -2.648 17.571 -3 20 C-3.99 20.33 -4.98 20.66 -6 21 C-5.801 20.147 -5.801 20.147 -5.598 19.277 C-4.512 14.528 -3.617 9.832 -3 5 C-2.34 5 -1.68 5 -1 5 C-0.67 3.35 -0.34 1.7 0 0 Z " fill="#40CDC8" transform="translate(868,570)"/>
<path d="M0 0 C2.104 0.141 4.209 0.288 6.312 0.438 C7.484 0.519 8.656 0.6 9.863 0.684 C13 1 13 1 16 2 C16 2.66 16 3.32 16 4 C10.852 4.202 6.736 4.296 2 2 C1.34 2 0.68 2 0 2 C0 1.34 0 0.68 0 0 Z " fill="#0B343C" transform="translate(449,817)"/>
<path d="M0 0 C-3.625 3.172 -7.512 4.429 -12 6 C-12.66 5.34 -13.32 4.68 -14 4 C-9.074 -1.05 -6.871 -1.54 0 0 Z " fill="#E1ECEA" transform="translate(680,786)"/>
<path d="M0 0 C0.99 0.66 1.98 1.32 3 2 C2.01 2.495 2.01 2.495 1 3 C-0.085 5.283 -0.982 7.615 -1.902 9.969 C-3 12 -3 12 -6 13 C-6 13.66 -6 14.32 -6 15 C-6.66 15 -7.32 15 -8 15 C-6.627 11.301 -4.936 8.049 -2.875 4.688 C-2.336 3.804 -1.797 2.921 -1.242 2.012 C-0.832 1.348 -0.422 0.684 0 0 Z " fill="#37C1C0" transform="translate(833,647)"/>
<path d="M0 0 C1.06 3.18 1.045 3.96 0 7 C-0.99 8.485 -0.99 8.485 -2 10 C-2.66 10 -3.32 10 -4 10 C-4.66 11.32 -5.32 12.64 -6 14 C-6.66 13.67 -7.32 13.34 -8 13 C-6.63 9.839 -6.011 9.007 -3 7 C-1.929 4.699 -0.92 2.366 0 0 Z " fill="#34BAB9" transform="translate(816,674)"/>
<path d="M0 0 C0 3.922 -1.327 5.092 -3.75 8.125 C-4.446 9.014 -5.142 9.904 -5.859 10.82 C-8.012 13.012 -9.006 13.663 -12 14 C-11.237 13.113 -10.474 12.226 -9.688 11.312 C-8.033 9.342 -6.74 7.553 -5.438 5.312 C-3.906 2.849 -2.408 1.578 0 0 Z " fill="#2BAAAC" transform="translate(791,705)"/>
<path d="M0 0 C0.33 0.66 0.66 1.32 1 2 C-0.243 4.45 -1.529 6.773 -2.938 9.125 C-3.324 9.784 -3.71 10.442 -4.107 11.121 C-5.064 12.752 -6.031 14.376 -7 16 C-7.66 15.34 -8.32 14.68 -9 14 C-7.68 11.36 -6.36 8.72 -5 6 C-4.34 6 -3.68 6 -3 6 C-3 5.01 -3 4.02 -3 3 C-2.34 3 -1.68 3 -1 3 C-0.67 2.01 -0.34 1.02 0 0 Z " fill="#0E4951" transform="translate(207,272)"/>
<path d="M0 0 C0.99 0.33 1.98 0.66 3 1 C1.758 2.155 0.506 3.298 -0.75 4.438 C-1.794 5.395 -1.794 5.395 -2.859 6.371 C-4.988 7.991 -6.39 8.583 -9 9 C-9 8.34 -9 7.68 -9 7 C-8.34 7 -7.68 7 -7 7 C-7 6.34 -7 5.68 -7 5 C-2.615 2 -2.615 2 0 2 C0 1.34 0 0.68 0 0 Z " fill="#39B1B1" transform="translate(281,182)"/>
<path d="M0 0 C2.051 0.033 4.102 0.065 6.152 0.098 C6.482 1.088 6.812 2.078 7.152 3.098 C2.697 3.593 2.697 3.593 -1.848 4.098 C-2.178 3.108 -2.508 2.118 -2.848 1.098 C-1.848 0.098 -1.848 0.098 0 0 Z " fill="#70E3DB" transform="translate(462.84765625,98.90234375)"/>
<path d="M0 0 C3.861 3.861 4.598 8.675 5 14 C4.34 14.66 3.68 15.32 3 16 C-0.444 5.626 -0.444 5.626 0 0 Z " fill="#E0ECE9" transform="translate(175,569)"/>
<path d="M0 0 C0.66 0.33 1.32 0.66 2 1 C-0.97 4.96 -0.97 4.96 -4 9 C-5.32 8.67 -6.64 8.34 -8 8 C-5.333 5.333 -2.667 2.667 0 0 Z " fill="#229295" transform="translate(761,733)"/>
<path d="M0 0 C0.33 0.66 0.66 1.32 1 2 C-1.251 7.429 -4.688 12.176 -8 17 C-8.33 16.34 -8.66 15.68 -9 15 C-7.591 12.382 -6.138 9.89 -4.562 7.375 C-3.912 6.315 -3.912 6.315 -3.248 5.234 C-2.173 3.485 -1.087 1.742 0 0 Z " fill="#43B4B2" transform="translate(837,638)"/>
<path d="M0 0 C0.66 0.33 1.32 0.66 2 1 C0.875 3.972 -0.223 6.334 -2 9 C-2.99 9 -3.98 9 -5 9 C-3.909 5.225 -3.092 2.53 0 0 Z " fill="#E5EFED" transform="translate(194,301)"/>
<path d="M0 0 C5.94 0 11.88 0 18 0 C18 0.33 18 0.66 18 1 C17.004 1.091 17.004 1.091 15.988 1.184 C9.451 1.799 9.451 1.799 3 3 C2.67 2.34 2.34 1.68 2 1 C1.34 0.67 0.68 0.34 0 0 Z " fill="#052D36" transform="translate(531,823)"/>
<path d="M0 0 C6.435 2.97 6.435 2.97 13 6 C13 6.33 13 6.66 13 7 C8.536 7.394 5.873 6.152 2 4 C1.34 3.67 0.68 3.34 0 3 C0 2.01 0 1.02 0 0 Z " fill="#183D44" transform="translate(351,782)"/>
<path d="M0 0 C2.062 0.438 2.062 0.438 4 1 C0.59 3.865 -2.907 5.347 -7 7 C-7 6.01 -7 5.02 -7 4 C-6.031 3.526 -5.061 3.051 -4.062 2.562 C-1.195 1.298 -1.195 1.298 0 0 Z " fill="#DFEDEB" transform="translate(692,777)"/>
<path d="M0 0 C0.66 0.33 1.32 0.66 2 1 C-1.173 4.536 -3.167 6.586 -8 7 C-6.884 3.653 -6.487 3.379 -3.562 1.75 C-2.387 1.173 -1.211 0.595 0 0 Z " fill="#106A71" transform="translate(717,766)"/>
<path d="M0 0 C-0.99 0.495 -0.99 0.495 -2 1 C-2 1.66 -2 2.32 -2 3 C-0.35 3.33 1.3 3.66 3 4 C3 4.66 3 5.32 3 6 C-1.508 4.742 -4.491 3.096 -8 0 C-5.138 -1.431 -3.066 -0.6 0 0 Z " fill="#8AE6DE" transform="translate(703,144)"/>
<path d="M0 0 C0.66 0 1.32 0 2 0 C2 1.32 2 2.64 2 4 C2.66 4 3.32 4 4 4 C3.67 5.98 3.34 7.96 3 10 C0.314 7.314 -0.06 4.624 -1 1 C-0.67 0.67 -0.34 0.34 0 0 Z " fill="#DCE8E6" transform="translate(182,590)"/>
<path d="M0 0 C0.667 2.667 1.333 5.333 2 8 C1.34 8 0.68 8 0 8 C-1.637 9.96 -1.637 9.96 -3 12 C-2.492 7.682 -1.803 3.967 0 0 Z " fill="#52C3BF" transform="translate(869,563)"/>
<path d="M0 0 C0.99 1.32 1.98 2.64 3 4 C2.34 5.32 1.68 6.64 1 8 C0.34 8 -0.32 8 -1 8 C-1 8.66 -1 9.32 -1 10 C-1.66 10 -2.32 10 -3 10 C-2.01 6.7 -1.02 3.4 0 0 Z " fill="#D9E6E6" transform="translate(176,339)"/>
<path d="M0 0 C0 0.99 0 1.98 0 3 C-3.63 2.34 -7.26 1.68 -11 1 C-6.468 -1.266 -4.822 -0.927 0 0 Z " fill="#D1E1E1" transform="translate(448,813)"/>
<path d="M0 0 C0.66 0.33 1.32 0.66 2 1 C2.812 3.875 2.812 3.875 3 7 C1.562 8.875 1.562 8.875 0 10 C0 9.34 0 8.68 0 8 C-0.66 7.67 -1.32 7.34 -2 7 C-1.34 4.69 -0.68 2.38 0 0 Z " fill="#43CDC7" transform="translate(871,560)"/>
<path d="M0 0 C3 1 3 1 5 3 C5.125 6.125 5.125 6.125 5 9 C4.01 8.67 3.02 8.34 2 8 C1.27 6.152 1.27 6.152 0.812 3.938 C0.654 3.204 0.495 2.471 0.332 1.715 C0.222 1.149 0.113 0.583 0 0 Z " fill="#E1EDEA" transform="translate(167,549)"/>
<path d="M0 0 C3.3 0 6.6 0 10 0 C6.448 1.776 4.082 2.486 0.25 3.125 C-0.735 3.293 -1.72 3.46 -2.734 3.633 C-3.482 3.754 -4.23 3.875 -5 4 C-4.34 3.34 -3.68 2.68 -3 2 C-2.01 2 -1.02 2 0 2 C0 1.34 0 0.68 0 0 Z " fill="#6AD7CF" transform="translate(424,109)"/>
<path d="M0 0 C-0.639 0.309 -1.279 0.619 -1.938 0.938 C-3.936 1.835 -3.936 1.835 -5 3 C-6.525 2.911 -8.047 2.755 -9.562 2.562 C-10.802 2.41 -10.802 2.41 -12.066 2.254 C-12.704 2.17 -13.343 2.086 -14 2 C-14 1.67 -14 1.34 -14 1 C-9.277 0.229 -4.785 -0.098 0 0 Z " fill="#023038" transform="translate(576,820)"/>
<path d="M0 0 C3.975 3.407 5.868 7.328 8 12 C7.01 12 6.02 12 5 12 C4.162 10.378 3.33 8.752 2.5 7.125 C2.036 6.22 1.572 5.315 1.094 4.383 C0 2 0 2 0 0 Z " fill="#81DFD7" transform="translate(835,281)"/>
<path d="M0 0 C2.02 0.602 4.021 1.273 6 2 C6.33 2.66 6.66 3.32 7 4 C9.017 5.134 9.017 5.134 11 6 C8 7 8 7 5.957 6.074 C5.249 5.617 4.542 5.159 3.812 4.688 C3.097 4.238 2.382 3.788 1.645 3.324 C1.102 2.887 0.559 2.45 0 2 C0 1.34 0 0.68 0 0 Z " fill="#DAEAE8" transform="translate(326,766)"/>
<path d="M0 0 C2.391 3.825 2.56 7.597 3 12 C0.273 9.984 -0.03 8.858 -0.75 5.438 C-1 2 -1 2 0 0 Z " fill="#0D2F37" transform="translate(165,543)"/>
<path d="M0 0 C2 3 2 3 1.688 5.5 C1.179 7.349 0.606 9.181 0 11 C-0.66 10.67 -1.32 10.34 -2 10 C-2.179 6.053 -2.094 3.402 0 0 Z " fill="#46D4CC" transform="translate(881,511)"/>
<path d="M0 0 C0.33 0 0.66 0 1 0 C2.015 4.624 1.981 8.362 1 13 C0.34 13.66 -0.32 14.32 -1 15 C-1.027 13.25 -1.046 11.5 -1.062 9.75 C-1.074 8.775 -1.086 7.801 -1.098 6.797 C-1.012 4.342 -0.707 2.338 0 0 Z " fill="#53D6D0" transform="translate(884,484)"/>
<path d="M0 0 C0.66 0.33 1.32 0.66 2 1 C0.735 1.842 -0.538 2.673 -1.812 3.5 C-2.874 4.196 -2.874 4.196 -3.957 4.906 C-6 6 -6 6 -9 6 C-9 5.34 -9 4.68 -9 4 C-7.546 3.303 -6.087 2.618 -4.625 1.938 C-3.407 1.363 -3.407 1.363 -2.164 0.777 C-1.45 0.521 -0.736 0.264 0 0 Z " fill="#EBFAF9" transform="translate(364,133)"/>
<path d="M0 0 C-0.99 0.66 -1.98 1.32 -3 2 C-2.67 2.66 -2.34 3.32 -2 4 C-2.516 3.814 -3.031 3.629 -3.562 3.438 C-6.859 2.846 -9.722 3.433 -13 4 C-8.626 1.084 -5.295 -0.303 0 0 Z " fill="#E6FCFA" transform="translate(391,124)"/>
<path d="M0 0 C1.65 0 3.3 0 5 0 C5 0.99 5 1.98 5 3 C3.02 3.33 1.04 3.66 -1 4 C-0.67 2.68 -0.34 1.36 0 0 Z " fill="#6EE2D9" transform="translate(450,101)"/>
<path d="M0 0 C2.64 0.66 5.28 1.32 8 2 C7.67 2.66 7.34 3.32 7 4 C4.69 4 2.38 4 0 4 C0 2.68 0 1.36 0 0 Z " fill="#07313A" transform="translate(419,809)"/>
<path d="M0 0 C0.577 0.371 1.155 0.742 1.75 1.125 C-1.884 3.451 -5.021 3.288 -9.25 3.125 C-2.882 -1.121 -2.882 -1.121 0 0 Z " fill="#10545C" transform="translate(675.25,789.875)"/>
<path d="M0 0 C2.312 -0.188 2.312 -0.188 5 0 C6.688 1.438 6.688 1.438 8 3 C8.66 3.33 9.32 3.66 10 4 C9.34 4.66 8.68 5.32 8 6 C6.664 5.192 5.331 4.378 4 3.562 C3.257 3.11 2.515 2.658 1.75 2.191 C1.173 1.798 0.595 1.405 0 1 C0 0.67 0 0.34 0 0 Z " fill="#D8E8E8" transform="translate(338,774)"/>
<path d="M0 0 C0.33 0 0.66 0 1 0 C1.082 4.161 0.982 7.947 0 12 C-1.951 9.13 -1.989 7.874 -1.688 4.312 C-1 1 -1 1 0 0 Z " fill="#022530" transform="translate(160,394)"/>
<path d="M0 0 C0 3 0 3 -1.312 4.387 C-2.875 5.591 -4.438 6.796 -6 8 C-6.33 7.01 -6.66 6.02 -7 5 C-4.844 2.844 -2.629 1.522 0 0 Z " fill="#2D9EA0" transform="translate(265,198)"/>
<path d="M0 0 C0.33 0.66 0.66 1.32 1 2 C0.072 2.598 -0.856 3.196 -1.812 3.812 C-4.203 5.453 -6.085 6.872 -8 9 C-8 7.35 -8 5.7 -8 4 C-5.36 2.68 -2.72 1.36 0 0 Z " fill="#0F6068" transform="translate(707,772)"/>
<path d="M0 0 C0.66 0.66 1.32 1.32 2 2 C1.67 2.99 1.34 3.98 1 5 C0.01 5.33 -0.98 5.66 -2 6 C-2.66 5.67 -3.32 5.34 -4 5 C-2.25 1.125 -2.25 1.125 0 0 Z " fill="#E3EDEA" transform="translate(706,768)"/>
<path d="M0 0 C0.66 0.99 1.32 1.98 2 3 C1.67 3.66 1.34 4.32 1 5 C-1.562 5.625 -1.562 5.625 -4 6 C-4 4.68 -4 3.36 -4 2 C-2.68 1.34 -1.36 0.68 0 0 Z " fill="#14777C" transform="translate(722,763)"/>
<path d="M0 0 C1.32 0.33 2.64 0.66 4 1 C5.75 4.062 5.75 4.062 7 7 C6.01 7.495 6.01 7.495 5 8 C2.525 4.04 2.525 4.04 0 0 Z " fill="#0E343C" transform="translate(196,631)"/>
<path d="M0 0 C0.99 0.33 1.98 0.66 3 1 C2.67 4.96 2.34 8.92 2 13 C0.128 9.256 -0.24 8.16 -0.125 4.25 C-0.107 3.451 -0.089 2.652 -0.07 1.828 C-0.047 1.225 -0.024 0.622 0 0 Z " fill="#1A4046" transform="translate(157,405)"/>
<path d="M0 0 C3.688 0.498 5.605 1.101 8 4 C7.67 4.66 7.34 5.32 7 6 C5.831 5.192 4.664 4.378 3.5 3.562 C2.85 3.11 2.201 2.658 1.531 2.191 C1.026 1.798 0.521 1.405 0 1 C0 0.67 0 0.34 0 0 Z " fill="#DBEAE9" transform="translate(317,761)"/>
<path d="M0 0 C0.99 0.33 1.98 0.66 3 1 C-0.323 4.938 -0.323 4.938 -3.75 5.25 C-4.492 5.168 -5.235 5.085 -6 5 C-4.067 2.975 -2.368 1.579 0 0 Z " fill="#E7F0EE" transform="translate(723,759)"/>
<path d="M0 0 C0.99 0 1.98 0 3 0 C3 1.32 3 2.64 3 4 C3.66 4 4.32 4 5 4 C5 4.66 5 5.32 5 6 C4.34 6 3.68 6 3 6 C2.67 6.66 2.34 7.32 2 8 C1.34 5.36 0.68 2.72 0 0 Z " fill="#E3EEED" transform="translate(170,559)"/>
<path d="M0 0 C1.98 0.66 3.96 1.32 6 2 C6 2.99 6 3.98 6 5 C3.03 4.505 3.03 4.505 0 4 C0 2.68 0 1.36 0 0 Z " fill="#CEDEDD" transform="translate(410,803)"/>
<path d="M0 0 C2.64 0.66 5.28 1.32 8 2 C7.67 2.99 7.34 3.98 7 5 C4.69 4.34 2.38 3.68 0 3 C0 2.01 0 1.02 0 0 Z " fill="#123D45" transform="translate(397,802)"/>
<path d="M0 0 C2.475 0.99 2.475 0.99 5 2 C5 2.66 5 3.32 5 4 C5.66 4.33 6.32 4.66 7 5 C6.01 5.66 5.02 6.32 4 7 C0 2.25 0 2.25 0 0 Z " fill="#DBE6E4" transform="translate(232,679)"/>
<path d="M0 0 C1.32 0.66 2.64 1.32 4 2 C1.03 4.475 1.03 4.475 -2 7 C-2.33 6.01 -2.66 5.02 -3 4 C-1.562 1.812 -1.562 1.812 0 0 Z " fill="#E7F1EF" transform="translate(231,238)"/>
<path d="M0 0 C3.63 0.33 7.26 0.66 11 1 C11 1.33 11 1.66 11 2 C5.043 3.074 5.043 3.074 3 3 C2.01 2.01 1.02 1.02 0 0 Z " fill="#D0E0DF" transform="translate(577,816)"/>
<path d="M0 0 C2.31 0.33 4.62 0.66 7 1 C7.33 1.99 7.66 2.98 8 4 C6.02 4 4.04 4 2 4 C1.34 2.68 0.68 1.36 0 0 Z " fill="#04323C" transform="translate(343,780)"/>
<path d="M0 0 C1.65 0 3.3 0 5 0 C5 0.99 5 1.98 5 3 C5.66 3.33 6.32 3.66 7 4 C6.01 4.33 5.02 4.66 4 5 C2.68 3.35 1.36 1.7 0 0 Z " fill="#DFEEEC" transform="translate(267,721)"/>
</svg>
