<svg xmlns="http://www.w3.org/2000/svg" viewBox="0 0 1080 1080" width="1080" height="1080">
  <g id="background-layer">
    <image href="/static/images/sessions/parallel_20250625_155918_9d0a2d70/background_20250625_160003_57884edc.png" x="0" y="0" width="1080" height="1080"/>
  </g>
  <g id="elements-layer" opacity="0.9">
    <g id="elements-group">
      <path d="M0 0 C337.92 0 675.84 0 1024 0 C1024 337.92 1024 675.84 1024 1024 C686.08 1024 348.16 1024 0 1024 C0 686.08 0 348.16 0 0 Z" fill="#060B15" transform="translate(0,0)"/>
      <path d="M0 0 C1.019 0.98 2.022 1.978 3 3 C6.363 5.204 9.023 5.39 13 5 C14.196 4.464 15.392 3.928 16.625 3.375 C20 2 20 2 22.438 2.812 C22.953 3.204 23.469 3.596 24 4 C23.237 4.413 22.474 4.825 21.688 5.25 C19.063 6.959 17.697 8.41 16 11 C15.505 10.01 15.505 10.01 15 9 C13.02 9 11.04 9 9 9 C9.495 13.455 9.495 13.455 10 18 C10.99 16.68 11.98 15.36 13 14 C13.66 14.33 14.32 14.66 15 15 C14.34 16.65 13.68 18.3 13 20 C13.66 20 14.32 20 15 20 C16.688 21.645 18.354 23.313 20 25 C20.99 25.66 21.98 26.32 23 27 C23.155 27.669 23.309 28.338 23.469 29.027 C23.644 29.678 23.819 30.329 24 31 C26.696 32.204 29.198 33.131 32 34 C33.667 34.561 35.334 35.123 37 35.688 C38.333 36.127 39.666 36.565 41 37 C40.402 37.701 39.804 38.403 39.188 39.125 C37.023 41.97 35.504 44.766 34 48 C34.949 47.629 35.897 47.258 36.875 46.875 C41.676 45.478 46.333 46.391 51 48 C51.33 48.66 51.66 49.32 52 50 C53.702 49.722 53.702 49.722 55.438 49.438 C56.613 49.293 57.789 49.149 59 49 C59.33 49.33 59.66 49.66 60 50 C61.767 50.295 63.539 50.561 65.312 50.812 C69.815 51.581 72.123 52.284 75 56 C77.888 57.213 77.888 57.213 80.562 56.625 C83.139 55.269 83.139 55.269 83.66 53 C83.973 51.404 84.263 49.803 84.531 48.199 C85.094 45.56 86.142 43.942 88 42 C95.617 44.251 95.617 44.251 98 47 C98.338 49.754 98.183 52.207 98 55 C103.537 55.426 107.897 53.905 113 52 C113.33 52.66 113.66 53.32 114 54 C116.059 54.43 116.059 54.43 118.438 54.562 C122.813 54.907 122.813 54.907 125 56 C125.724 57.712 126.446 59.426 127.137 61.152 C128.355 63.761 130.172 65.794 132 68 C132 68.66 132 69.32 132 70 C132.619 70.289 133.238 70.577 133.875 70.875 C136 72 136 72 138 74 C137.34 74.66 136.68 75.32 136 76 C135.34 76 134.68 76 134 76 C133.67 75.34 133.34 74.68 133 74 C131.35 74 129.7 74 128 74 C127.67 74.99 127.34 75.98 127 77 C128.32 77.66 129.64 78.32 131 79 C131 79.66 131 80.32 131 81 C131.66 81.33 132.32 81.66 133 82 C132.67 83.32 132.34 84.64 132 86 C129.525 83.03 129.525 83.03 127 80 C124.699 81.863 124.699 81.863 124.805 84.82 C124.828 85.911 124.851 87.001 124.875 88.125 C124.893 89.221 124.911 90.316 124.93 91.445 C124.953 92.288 124.976 93.131 125 94 C124.67 92.68 124.34 91.36 124 90 C120.331 92.511 120.331 92.511 118.188 96.25 C118.126 96.827 118.064 97.405 118 98 C119.32 98.33 120.64 98.66 122 99 C121.67 100.32 121.34 101.64 121 103 C121.99 103 122.98 103 124 103 C124.33 103.99 124.66 104.98 125 106 C124.01 106.639 123.02 107.279 122 107.938 C121.01 108.618 120.02 109.299 119 110 C119 110.33 119 110.66 119 111 C122.96 111.66 126.92 112.32 131 113 C131 113.66 131 114.32 131 115 C131.66 115 132.32 115 133 115 C133 115.66 133 116.32 133 117 C133.773 116.691 133.773 116.691 134.562 116.375 C138.033 115.841 140.706 116.923 144 118 C143 121 143 121 140.785 122.281 C139.887 122.683 138.988 123.086 138.062 123.5 C133.856 125.379 133.856 125.379 131 129 C131.33 129.557 131.66 130.114 132 130.688 C133.131 133.303 133.157 135.181 133 138 C134.32 138.33 135.64 138.66 137 139 C138.475 143.946 138.475 143.946 138 147 C134.6 150.989 130.147 153.68 125.312 155.625 C122.478 156.802 121.092 157.616 118.875 159.562 C116 162 116 162 113.562 162.938 C110.879 164.05 109.683 165.189 107.625 167.188 C104.721 169.806 104.361 170.006 100.188 169.938 C97 169 97 169 95 168 C92.883 168.892 92.883 168.892 91 170 C91 170.99 91 171.98 91 173 C91.99 172.67 92.98 172.34 94 172 C94.66 172.99 95.32 173.98 96 175 C95.01 176.32 94.02 177.64 93 179 C93.784 178.484 94.567 177.969 95.375 177.438 C96.241 176.963 97.107 176.489 98 176 C98.66 176.33 99.32 176.66 100 177 C99.385 177.724 98.77 178.449 98.137 179.195 C97.328 180.162 96.52 181.129 95.688 182.125 C94.887 183.076 94.086 184.028 93.262 185.008 C91.068 187.91 89.579 190.736 88 194 C87 195.333 86 196.667 85 198 C83.901 200.064 82.84 202.149 81.812 204.25 C81.283 205.328 80.753 206.405 80.207 207.516 C79.809 208.335 79.41 209.155 79 210 C78.381 209.505 77.762 209.01 77.125 208.5 C75.161 206.808 75.161 206.808 73 207 C72.902 200.848 72.902 200.848 73 199 C73.33 198.67 73.66 198.34 74 198 C74.42 193.659 74.42 193.659 72.438 189.938 C71 188 71 188 71.062 185.5 C72.184 182.509 73.54 181.012 76 179 C76.66 179 77.32 179 78 179 C78 178.01 78 177.02 78 176 C77.01 175.67 76.02 175.34 75 175 C75.256 172.657 75.593 170.322 76 168 C76.66 167.67 77.32 167.34 78 167 C77.567 165.082 77.567 165.082 77.125 163.125 C76.963 162.406 76.8 161.686 76.633 160.945 C76.095 158.793 76.095 158.793 74 157 C71.551 161.373 69.731 165.894 70.375 170.938 C70.581 171.618 70.788 172.299 71 173 C69.007 174.344 67.006 175.675 65 177 C63.855 177.773 63.855 177.773 62.688 178.562 C57.771 181.192 52.406 182.7 47 184 C47 181 47 181 48 180 C47.752 178.928 47.505 177.855 47.25 176.75 C47 173 47 173 49.312 170.125 C52 168 52 168 54 167 C54.652 164.975 54.652 164.975 55 163 C49.799 165.177 47.319 167.607 44 172 C42 169 42 169 42 166 C38.903 166.838 38.903 166.838 36 169 C35.391 171.396 35.251 173.571 35.203 176.039 C35.136 176.686 35.069 177.333 35 178 C34.34 178.33 33.68 178.66 33 179 C33 177.02 33 175.04 33 173 C31.35 173.99 29.7 174.98 28 176 C27.01 175.01 26.02 174.02 25 173 C23.948 174.361 23.948 174.361 22.875 175.75 C20.254 178.92 17.507 180.879 14 183 C12.438 181.875 12.438 181.875 11 180 C11.312 176.812 11.312 176.812 12 174 C11.34 174 10.68 174 10 174 C10 174.66 10 175.32 10 176 C9.34 175.67 8.68 175.34 8 175 C8 174.01 8 173.02 8 172 C7.357 171.651 6.714 171.302 6 171 C5.687 170.684 5.375 170.369 5.062 170.055 C4.186 168.796 3.308 167.551 2.438 166.312 C1.711 165.371 0.975 164.447 0.25 163.531 C-0.416 161.986 -0.416 161.986 0 160 C0 159.34 0 158.68 0 158 C-0.679 157.66 -1.357 157.319 -2.031 157 C-2.789 156.906 -3.545 156.814 -4.297 156.719 C-6.635 156.253 -8.974 155.795 -11.312 155.344 C-11 154.66 -11 153.98 -11 153 C-8.666 152.668 -6.332 152.334 -4 152 C-4 151.34 -4 150.68 -4 150 C-4 149.34 -4 148.68 -4 148 C-4.674 147.367 -5.337 146.744 -6 146 C-3 155.312 -3 155.312 -4.75 157.938 C-4.84 158.674 -5 159.409 -5.157 160.146 C-9.324 172.725 -13.474 185.294 -17.625 197.875 C-20.839 206.088 -21.009 206.8 -21.188 206.438 C-20.735 205.007 -20.283 203.575 -19.828 202.144 C-17.989 197.366 -16.579 193.075 -14.688 189.188 C-14.159 188.237 -13.629 187.285 -13.094 186.324 C-12.001 183.973 -10.889 181.622 -9.75 179.188 C-6.674 172.674 -3.597 166.36 -0.562 160 C-0.182 159.136 -0.001 158.267 0.188 157.375 C0.589 156.055 0.989 154.736 1.375 153.375 C1.175 151.057 0.975 148.739 0.784 146.422 C0.384 141.668 0.144 137.02 0 132.375 C-0.668 132.385 -1.336 132.395 -2 132.406 C-2 134.056 -2 135.706 -2 137.375 C-1.344 137.364 -0.69 137.359 0 137.359 Z" fill="#666666"/>
    </g>
  </g>
  <g id="text-layer">
    <svg width="1080" height="1080" viewBox="0 0 1080 1080">
      <style>
        .text {
          font-family: 'Arial Black', Arial, sans-serif;
          font-weight: 900;
          font-size: 140px;
          fill: #66E3FF;
          stroke: #33C1E5;
          stroke-width: 1.2px;
          filter: drop-shadow(0 0 6px #66E3FF);
          letter-spacing: 0.1em;
        }
      </style>
      <text x="50%" y="450" text-anchor="middle" class="text">COMING</text>
      <text x="50%" y="620" text-anchor="middle" class="text">SOON</text>
    </svg>
  </g>
</svg>