<?xml version="1.0" encoding="UTF-8"?>
<!-- Generator: visioncortex VTracer 0.6.4 -->
<svg version="1.1" xmlns="http://www.w3.org/2000/svg" width="1024" height="1024">
<path d="M0 0 C337.92 0 675.84 0 1024 0 C1024 337.92 1024 675.84 1024 1024 C686.08 1024 348.16 1024 0 1024 C0 686.08 0 348.16 0 0 Z " fill="#101010" transform="translate(0,0)"/>
<path d="M0 0 C0.657 -0.006 1.315 -0.012 1.992 -0.018 C4.188 -0.035 6.383 -0.03 8.579 -0.026 C10.156 -0.033 11.733 -0.041 13.31 -0.051 C17.589 -0.073 21.868 -0.076 26.147 -0.074 C29.72 -0.074 33.294 -0.083 36.868 -0.091 C45.299 -0.11 53.73 -0.113 62.161 -0.107 C70.856 -0.1 79.551 -0.123 88.246 -0.16 C95.714 -0.191 103.183 -0.202 110.651 -0.198 C115.111 -0.196 119.57 -0.201 124.029 -0.226 C128.222 -0.248 132.415 -0.246 136.609 -0.226 C138.147 -0.223 139.684 -0.228 141.222 -0.242 C154.275 -0.355 154.275 -0.355 158.101 2.495 C162.413 8.111 163.702 12.769 163.708 19.788 C163.713 20.499 163.717 21.21 163.722 21.942 C163.734 24.307 163.725 26.67 163.715 29.035 C163.719 30.737 163.725 32.439 163.731 34.142 C163.745 38.753 163.739 43.365 163.73 47.976 C163.722 52.809 163.729 57.642 163.734 62.475 C163.74 70.591 163.732 78.708 163.718 86.824 C163.702 96.197 163.707 105.57 163.724 114.943 C163.737 123 163.739 131.058 163.731 139.115 C163.727 143.923 163.726 148.73 163.736 153.538 C163.744 158.06 163.738 162.582 163.721 167.104 C163.717 168.76 163.718 170.416 163.725 172.072 C163.79 189.844 163.79 189.844 158.139 197.269 C150.903 202.737 141.512 201.686 132.868 201.669 C131.412 201.673 129.956 201.679 128.499 201.685 C124.564 201.698 120.628 201.699 116.692 201.696 C113.399 201.695 110.106 201.7 106.814 201.705 C99.043 201.716 91.273 201.716 83.503 201.71 C75.501 201.704 67.498 201.716 59.496 201.738 C52.61 201.755 45.725 201.761 38.84 201.758 C34.734 201.756 30.628 201.759 26.522 201.773 C22.661 201.785 18.8 201.783 14.939 201.77 C13.527 201.768 12.114 201.771 10.702 201.779 C3.266 201.819 -2.952 201.761 -9.673 198.394 C-14.856 193.211 -15.922 188.258 -15.941 181.083 C-15.945 180.356 -15.95 179.63 -15.954 178.882 C-15.967 176.454 -15.965 174.026 -15.964 171.598 C-15.97 169.855 -15.976 168.112 -15.984 166.369 C-16.002 161.637 -16.006 156.906 -16.008 152.175 C-16.009 149.218 -16.013 146.261 -16.019 143.304 C-16.037 132.987 -16.045 122.669 -16.044 112.352 C-16.042 102.738 -16.064 93.124 -16.095 83.51 C-16.121 75.252 -16.132 66.995 -16.131 58.738 C-16.13 53.807 -16.136 48.877 -16.157 43.947 C-16.177 39.309 -16.177 34.672 -16.162 30.034 C-16.16 28.334 -16.165 26.634 -16.177 24.934 C-16.192 22.609 -16.183 20.285 -16.168 17.96 C-16.169 16.66 -16.17 15.361 -16.171 14.022 C-15.434 8.652 -13.635 5.003 -9.34 1.482 C-6.066 0.147 -3.536 0.011 0 0 Z M-9.673 7.394 C-12.191 10.897 -11.93 14.335 -11.941 18.555 C-11.945 19.277 -11.95 19.999 -11.954 20.742 C-11.967 23.162 -11.965 25.582 -11.964 28.001 C-11.97 29.736 -11.976 31.471 -11.984 33.205 C-12.002 37.918 -12.006 42.631 -12.008 47.344 C-12.009 51.278 -12.017 55.212 -12.024 59.146 C-12.04 68.427 -12.045 77.708 -12.044 86.989 C-12.042 96.564 -12.064 106.139 -12.095 115.714 C-12.121 123.934 -12.132 132.154 -12.131 140.374 C-12.13 145.283 -12.136 150.193 -12.157 155.103 C-12.176 159.72 -12.177 164.338 -12.162 168.956 C-12.16 170.65 -12.165 172.344 -12.177 174.038 C-12.192 176.352 -12.183 178.666 -12.168 180.98 C-12.169 182.275 -12.17 183.569 -12.171 184.903 C-11.437 190.052 -9.38 193.052 -5.319 196.246 C-2.141 197.625 0.196 197.772 3.658 197.775 C5.574 197.788 5.574 197.788 7.528 197.801 C8.936 197.795 10.344 197.789 11.752 197.783 C13.241 197.787 14.73 197.792 16.218 197.799 C20.255 197.812 24.292 197.807 28.33 197.797 C32.557 197.79 36.785 197.797 41.013 197.802 C48.114 197.807 55.215 197.8 62.316 197.786 C70.52 197.769 78.724 197.774 86.928 197.791 C93.977 197.805 101.025 197.807 108.073 197.799 C112.28 197.794 116.488 197.793 120.696 197.803 C124.653 197.812 128.61 197.806 132.567 197.789 C134.017 197.785 135.468 197.786 136.918 197.792 C138.901 197.801 140.885 197.788 142.869 197.775 C143.977 197.774 145.086 197.773 146.229 197.772 C151.343 197.149 154.312 195.576 157.671 191.665 C159.611 187.834 159.827 185.35 159.828 181.07 C159.834 180.354 159.839 179.639 159.845 178.901 C159.858 176.515 159.844 174.13 159.829 171.744 C159.832 170.029 159.838 168.313 159.845 166.598 C159.859 161.947 159.848 157.297 159.831 152.646 C159.817 147.776 159.824 142.906 159.827 138.036 C159.83 129.859 159.817 121.681 159.793 113.503 C159.767 104.052 159.765 94.601 159.777 85.15 C159.788 76.054 159.781 66.958 159.767 57.862 C159.762 53.993 159.762 50.124 159.766 46.255 C159.771 41.698 159.761 37.141 159.739 32.584 C159.734 30.912 159.733 29.241 159.738 27.57 C159.744 25.286 159.732 23.003 159.715 20.719 C159.712 19.442 159.71 18.165 159.707 16.849 C159.212 12.349 157.706 9.061 154.827 5.582 C151.541 2.981 148.119 3.262 144.115 3.247 C142.814 3.24 141.513 3.233 140.173 3.226 C138.728 3.223 137.282 3.22 135.837 3.217 C134.318 3.211 132.798 3.204 131.279 3.197 C126.287 3.176 121.295 3.166 116.303 3.156 C114.585 3.152 112.867 3.148 111.149 3.144 C103.078 3.125 95.008 3.11 86.937 3.102 C77.618 3.092 68.3 3.066 58.981 3.026 C51.779 2.996 44.577 2.981 37.375 2.977 C33.073 2.975 28.771 2.966 24.469 2.941 C20.423 2.918 16.376 2.913 12.33 2.924 C10.845 2.924 9.36 2.918 7.876 2.904 C5.848 2.886 3.82 2.896 1.792 2.907 C0.091 2.903 0.091 2.903 -1.646 2.899 C-5.396 3.513 -7.005 4.728 -9.673 7.394 Z " fill="#FAFAFA" transform="translate(754.6730804443359,439.6055908203125)"/>
<path d="M0 0 C0.971 -0.004 0.971 -0.004 1.962 -0.009 C4.141 -0.018 6.321 -0.019 8.5 -0.021 C10.059 -0.025 11.618 -0.03 13.176 -0.036 C17.418 -0.049 21.66 -0.055 25.902 -0.06 C28.551 -0.063 31.2 -0.067 33.849 -0.071 C42.134 -0.085 50.419 -0.095 58.704 -0.098 C68.274 -0.103 77.843 -0.12 87.413 -0.149 C94.806 -0.171 102.199 -0.181 109.592 -0.182 C114.009 -0.184 118.426 -0.189 122.843 -0.207 C126.999 -0.224 131.154 -0.226 135.31 -0.217 C136.835 -0.216 138.36 -0.221 139.885 -0.231 C141.968 -0.243 144.05 -0.237 146.133 -0.227 C147.298 -0.229 148.463 -0.23 149.664 -0.231 C154.399 0.338 156.904 2.17 160.007 5.703 C162.928 9.772 162.886 12.112 162.897 17.136 C162.9 17.865 162.903 18.593 162.906 19.343 C162.915 21.797 162.917 24.25 162.918 26.704 C162.923 28.458 162.928 30.212 162.933 31.966 C162.946 36.741 162.953 41.516 162.957 46.291 C162.96 49.273 162.964 52.255 162.969 55.237 C162.982 64.564 162.992 73.891 162.996 83.218 C163 93.99 163.018 104.762 163.047 115.535 C163.068 123.856 163.078 132.178 163.08 140.5 C163.081 145.473 163.087 150.445 163.105 155.417 C163.121 160.096 163.123 164.774 163.114 169.453 C163.114 171.169 163.118 172.885 163.128 174.602 C163.141 176.947 163.135 179.292 163.124 181.637 C163.126 182.949 163.127 184.261 163.129 185.612 C162.659 190.067 161.273 193.396 158.327 196.785 C152.42 201.559 147.014 201.287 139.759 201.27 C138.857 201.272 137.956 201.273 137.027 201.275 C134.03 201.279 131.034 201.276 128.038 201.273 C125.923 201.274 123.808 201.276 121.692 201.278 C116.045 201.281 110.397 201.276 104.75 201.27 C101.267 201.265 97.783 201.262 94.3 201.26 C41.056 201.212 41.056 201.212 18.643 200.876 C16.486 200.844 14.329 200.817 12.172 200.795 C9.275 200.762 6.38 200.711 3.483 200.652 C2.681 200.646 1.878 200.639 1.052 200.633 C-4.052 200.496 -7.664 199.416 -12.243 197.14 C-12.243 196.48 -12.243 195.82 -12.243 195.14 C-12.903 195.14 -13.563 195.14 -14.243 195.14 C-16.928 190.512 -17.621 187.164 -17.631 181.836 C-17.636 181.122 -17.642 180.409 -17.647 179.674 C-17.661 177.295 -17.654 174.917 -17.647 172.538 C-17.653 170.827 -17.66 169.117 -17.668 167.406 C-17.686 162.768 -17.685 158.129 -17.679 153.491 C-17.676 149.614 -17.682 145.738 -17.688 141.861 C-17.702 132.712 -17.701 123.563 -17.689 114.414 C-17.678 104.987 -17.692 95.56 -17.719 86.133 C-17.741 78.03 -17.747 69.927 -17.741 61.824 C-17.738 56.989 -17.741 52.153 -17.758 47.318 C-17.773 42.768 -17.769 38.219 -17.75 33.669 C-17.747 32.004 -17.75 30.338 -17.76 28.673 C-17.858 11.835 -17.858 11.835 -13.243 5.14 C-8.752 0.863 -6.102 0.016 0 0 Z M-8.79 6.578 C-12.638 11.576 -13.369 13.688 -13.384 19.991 C-13.387 20.704 -13.39 21.417 -13.393 22.151 C-13.401 24.552 -13.403 26.952 -13.404 29.353 C-13.409 31.069 -13.414 32.785 -13.419 34.501 C-13.432 39.173 -13.439 43.845 -13.443 48.516 C-13.446 51.433 -13.45 54.35 -13.455 57.267 C-13.468 66.39 -13.478 75.512 -13.482 84.634 C-13.486 95.173 -13.504 105.711 -13.533 116.25 C-13.555 124.39 -13.565 132.53 -13.566 140.671 C-13.567 145.535 -13.573 150.399 -13.591 155.264 C-13.607 159.84 -13.61 164.415 -13.601 168.991 C-13.6 170.671 -13.604 172.351 -13.614 174.031 C-13.627 176.324 -13.621 178.616 -13.611 180.909 C-13.612 182.192 -13.614 183.476 -13.615 184.798 C-13.121 189.234 -11.591 191.813 -8.446 194.911 C3.474 201.564 25.897 197.324 39.452 197.341 C41.75 197.344 44.048 197.348 46.347 197.352 C53.558 197.366 60.769 197.375 67.981 197.379 C76.272 197.384 84.564 197.402 92.855 197.43 C99.296 197.452 105.737 197.462 112.178 197.463 C116.014 197.464 119.849 197.47 123.684 197.488 C127.281 197.505 130.878 197.507 134.475 197.498 C136.418 197.497 138.361 197.511 140.304 197.525 C148.519 197.628 148.519 197.628 155.757 194.14 C158.859 190.023 159.135 186.916 159.145 181.822 C159.15 181.095 159.155 180.368 159.161 179.619 C159.175 177.189 159.168 174.759 159.161 172.328 C159.167 170.584 159.174 168.839 159.182 167.094 C159.2 162.359 159.198 157.623 159.193 152.888 C159.19 148.934 159.196 144.98 159.202 141.026 C159.216 131.698 159.214 122.371 159.203 113.043 C159.191 103.421 159.206 93.799 159.232 84.177 C159.254 75.915 159.261 67.652 159.255 59.389 C159.252 54.455 159.254 49.521 159.271 44.587 C159.287 39.947 159.283 35.307 159.264 30.667 C159.261 28.965 159.264 27.263 159.274 25.561 C159.287 23.236 159.276 20.911 159.258 18.586 C159.258 17.285 159.258 15.985 159.257 14.645 C158.663 10.483 157.436 8.352 154.757 5.14 C151.5 2.759 148.46 2.889 144.501 2.886 C143.215 2.881 141.93 2.875 140.605 2.869 C139.183 2.873 137.76 2.877 136.337 2.882 C134.837 2.879 133.338 2.875 131.838 2.871 C127.765 2.862 123.693 2.865 119.621 2.872 C115.359 2.877 111.097 2.872 106.835 2.869 C99.677 2.865 92.519 2.87 85.361 2.88 C77.087 2.891 68.813 2.887 60.539 2.876 C53.435 2.867 46.331 2.866 39.227 2.871 C34.984 2.874 30.741 2.874 26.498 2.868 C22.508 2.862 18.519 2.866 14.529 2.878 C13.065 2.88 11.601 2.88 10.138 2.875 C8.138 2.87 6.139 2.878 4.14 2.886 C3.021 2.887 1.903 2.888 0.75 2.889 C-3.009 3.205 -5.992 3.978 -8.79 6.578 Z " fill="#F4F5F4" transform="translate(544.2431182861328,439.85955810546875)"/>
<path d="M0 0 C3.388 3.488 3.43 6.743 3.394 11.381 C3.401 12.127 3.407 12.873 3.413 13.641 C3.43 16.142 3.425 18.641 3.42 21.142 C3.427 22.934 3.436 24.726 3.446 26.518 C3.468 31.388 3.471 36.258 3.469 41.128 C3.469 45.194 3.477 49.259 3.486 53.325 C3.505 62.918 3.508 72.51 3.501 82.103 C3.494 91.997 3.517 101.891 3.554 111.785 C3.585 120.281 3.596 128.776 3.592 137.271 C3.59 142.345 3.596 147.418 3.62 152.491 C3.643 157.264 3.641 162.037 3.62 166.81 C3.617 168.56 3.622 170.31 3.636 172.06 C3.655 174.453 3.642 176.844 3.621 179.238 C3.634 179.927 3.646 180.616 3.659 181.325 C3.562 186.7 1.664 190.224 -2 194 C-9.141 198.036 -16.831 197.425 -24.842 197.388 C-26.339 197.392 -27.836 197.398 -29.334 197.404 C-33.381 197.418 -37.428 197.413 -41.476 197.403 C-45.721 197.395 -49.965 197.402 -54.21 197.407 C-61.336 197.413 -68.462 197.405 -75.588 197.391 C-83.816 197.375 -92.045 197.38 -100.273 197.397 C-107.351 197.41 -114.428 197.412 -121.505 197.404 C-125.726 197.4 -129.948 197.399 -134.169 197.409 C-138.138 197.418 -142.107 197.411 -146.075 197.394 C-147.528 197.39 -148.982 197.391 -150.435 197.398 C-166.338 197.464 -166.338 197.464 -172.312 191.812 C-175.748 186.087 -176.25 180.031 -176.261 173.473 C-176.266 172.403 -176.266 172.403 -176.272 171.312 C-176.283 168.946 -176.279 166.58 -176.275 164.214 C-176.279 162.509 -176.284 160.803 -176.29 159.097 C-176.303 154.482 -176.304 149.866 -176.302 145.251 C-176.301 141.394 -176.305 137.537 -176.31 133.68 C-176.321 124.581 -176.322 115.483 -176.316 106.385 C-176.31 97.003 -176.322 87.622 -176.343 78.24 C-176.361 70.177 -176.367 62.114 -176.364 54.051 C-176.362 49.239 -176.364 44.426 -176.378 39.614 C-176.391 35.091 -176.389 30.569 -176.376 26.046 C-176.374 24.388 -176.376 22.729 -176.385 21.071 C-176.395 18.805 -176.387 16.539 -176.374 14.273 C-176.374 13.006 -176.375 11.739 -176.375 10.433 C-175.819 5.344 -174.228 2.108 -170.438 -1.312 C-166.923 -3.746 -165.139 -4.129 -160.901 -4.158 C-159.82 -4.168 -158.74 -4.178 -157.627 -4.188 C-155.84 -4.197 -155.84 -4.197 -154.017 -4.205 C-152.767 -4.215 -151.516 -4.225 -150.227 -4.235 C-146.786 -4.262 -143.345 -4.283 -139.904 -4.303 C-136.291 -4.325 -132.679 -4.353 -129.066 -4.379 C-122.982 -4.424 -116.898 -4.464 -110.814 -4.503 C-102.29 -4.556 -93.767 -4.616 -85.243 -4.677 C-5.843 -5.244 -5.843 -5.244 0 0 Z M-170.851 4.802 C-172.511 7.978 -172.378 10.593 -172.381 14.167 C-172.386 14.89 -172.39 15.612 -172.395 16.357 C-172.407 18.779 -172.398 21.201 -172.388 23.623 C-172.392 25.359 -172.398 27.095 -172.404 28.832 C-172.418 33.549 -172.412 38.265 -172.403 42.982 C-172.395 47.917 -172.402 52.851 -172.407 57.786 C-172.413 66.074 -172.405 74.362 -172.391 82.65 C-172.375 92.232 -172.38 101.815 -172.397 111.398 C-172.41 119.623 -172.412 127.848 -172.404 136.073 C-172.4 140.987 -172.399 145.9 -172.409 150.814 C-172.418 155.434 -172.412 160.054 -172.394 164.675 C-172.39 166.371 -172.391 168.066 -172.398 169.762 C-172.406 172.077 -172.396 174.391 -172.381 176.706 C-172.38 178.001 -172.379 179.297 -172.378 180.632 C-171.836 185.466 -169.723 188.897 -166 192 C-162.713 193.096 -160.288 193.131 -156.826 193.14 C-155.534 193.146 -154.241 193.152 -152.909 193.158 C-151.474 193.159 -150.038 193.16 -148.602 193.161 C-147.092 193.166 -145.583 193.171 -144.073 193.176 C-139.97 193.189 -135.867 193.196 -131.763 193.2 C-129.2 193.203 -126.637 193.207 -124.074 193.212 C-116.056 193.225 -108.038 193.235 -100.02 193.239 C-90.761 193.243 -81.503 193.261 -72.245 193.29 C-65.09 193.312 -57.935 193.322 -50.78 193.323 C-46.505 193.324 -42.231 193.33 -37.957 193.348 C-33.937 193.364 -29.917 193.366 -25.896 193.358 C-24.421 193.357 -22.946 193.361 -21.471 193.371 C-19.457 193.384 -17.442 193.376 -15.428 193.367 C-14.3 193.369 -13.173 193.37 -12.012 193.372 C-7.127 192.769 -4.846 191.012 -1.719 187.273 C0.304 183.422 0.503 180.972 0.508 176.637 C0.514 175.918 0.52 175.198 0.527 174.457 C0.543 172.057 0.53 169.658 0.518 167.258 C0.523 165.533 0.53 163.808 0.539 162.082 C0.557 157.405 0.55 152.727 0.537 148.05 C0.527 143.152 0.537 138.254 0.543 133.356 C0.55 125.131 0.541 116.906 0.521 108.682 C0.5 99.176 0.507 89.671 0.529 80.165 C0.547 72 0.55 63.835 0.539 55.67 C0.533 50.795 0.532 45.92 0.545 41.045 C0.557 36.462 0.549 31.879 0.526 27.296 C0.52 25.615 0.522 23.934 0.531 22.253 C0.542 19.955 0.528 17.66 0.508 15.363 C0.506 14.078 0.505 12.794 0.503 11.47 C-0.241 6.34 -2.304 3.336 -6.35 0.149 C-9.55 -1.238 -11.921 -1.38 -15.407 -1.388 C-16.701 -1.398 -17.995 -1.407 -19.328 -1.418 C-20.755 -1.413 -22.182 -1.409 -23.609 -1.404 C-25.117 -1.41 -26.626 -1.417 -28.134 -1.425 C-32.225 -1.443 -36.315 -1.442 -40.406 -1.436 C-43.823 -1.433 -47.24 -1.439 -50.657 -1.445 C-58.72 -1.459 -66.781 -1.457 -74.844 -1.446 C-83.157 -1.435 -91.47 -1.449 -99.783 -1.475 C-106.925 -1.498 -114.066 -1.504 -121.208 -1.498 C-125.471 -1.495 -129.735 -1.497 -133.998 -1.515 C-138.008 -1.53 -142.017 -1.526 -146.027 -1.507 C-147.497 -1.504 -148.967 -1.507 -150.436 -1.517 C-152.446 -1.53 -154.456 -1.516 -156.466 -1.501 C-157.589 -1.501 -158.713 -1.501 -159.871 -1.501 C-164.571 -0.749 -167.492 1.532 -170.851 4.802 Z " fill="#FCFCFC" transform="translate(492,444)"/>
<path d="M0 0 C1.318 -0.01 2.636 -0.02 3.993 -0.03 C5.447 -0.026 6.901 -0.021 8.354 -0.016 C9.89 -0.022 11.426 -0.029 12.963 -0.037 C17.13 -0.055 21.297 -0.054 25.465 -0.048 C28.946 -0.045 32.428 -0.051 35.909 -0.057 C44.125 -0.071 52.34 -0.07 60.556 -0.058 C69.025 -0.047 77.493 -0.061 85.962 -0.088 C93.239 -0.11 100.515 -0.117 107.792 -0.111 C112.136 -0.107 116.479 -0.11 120.822 -0.127 C124.909 -0.142 128.994 -0.138 133.08 -0.12 C134.577 -0.116 136.074 -0.119 137.57 -0.13 C151.944 -0.222 151.944 -0.222 157.486 4.388 C160.557 8.444 160.916 11.923 160.873 16.858 C160.881 17.973 160.881 17.973 160.89 19.11 C160.904 21.596 160.897 24.081 160.89 26.567 C160.895 28.351 160.902 30.135 160.91 31.919 C160.928 36.762 160.927 41.605 160.921 46.448 C160.918 50.491 160.924 54.535 160.93 58.578 C160.945 68.117 160.943 77.655 160.932 87.194 C160.92 97.034 160.934 106.874 160.961 116.714 C160.983 125.164 160.99 133.613 160.984 142.063 C160.98 147.109 160.983 152.154 161 157.2 C161.016 161.946 161.012 166.69 160.993 171.435 C160.989 173.176 160.992 174.917 161.003 176.657 C161.016 179.036 161.004 181.412 160.987 183.79 C161.001 184.821 161.001 184.821 161.016 185.873 C160.941 190.798 159.544 193.583 156.486 197.388 C151.384 201.181 146.455 201.511 140.243 201.528 C138.986 201.534 137.729 201.54 136.433 201.545 C135.047 201.547 133.661 201.548 132.275 201.549 C130.81 201.553 129.344 201.558 127.879 201.564 C123.903 201.577 119.928 201.583 115.953 201.588 C113.467 201.591 110.981 201.595 108.495 201.599 C100.712 201.613 92.928 201.623 85.144 201.627 C76.171 201.631 67.197 201.649 58.223 201.678 C51.279 201.699 44.334 201.709 37.39 201.711 C33.246 201.712 29.102 201.718 24.958 201.735 C21.058 201.752 17.159 201.754 13.259 201.745 C11.832 201.745 10.405 201.749 8.978 201.759 C-7.574 201.867 -7.574 201.867 -14.474 195.775 C-18.301 189.6 -17.207 181.205 -17.161 174.197 C-17.168 172.435 -17.177 170.674 -17.188 168.912 C-17.211 164.139 -17.202 159.367 -17.186 154.594 C-17.173 149.593 -17.185 144.592 -17.193 139.591 C-17.202 131.192 -17.19 122.794 -17.166 114.395 C-17.139 104.694 -17.148 94.994 -17.175 85.294 C-17.198 76.956 -17.201 68.619 -17.188 60.282 C-17.181 55.306 -17.179 50.331 -17.196 45.355 C-17.21 40.675 -17.2 35.996 -17.172 31.317 C-17.165 29.603 -17.167 27.889 -17.178 26.175 C-17.269 10.602 -17.269 10.602 -13.074 4.822 C-8.904 0.987 -5.624 0.012 0 0 Z M-10.514 8.388 C-12.927 11.993 -12.771 15.284 -12.782 19.548 C-12.786 20.27 -12.791 20.992 -12.796 21.736 C-12.808 24.155 -12.807 26.575 -12.805 28.995 C-12.811 30.729 -12.818 32.464 -12.825 34.199 C-12.843 38.911 -12.848 43.624 -12.849 48.337 C-12.851 52.271 -12.858 56.205 -12.865 60.139 C-12.882 69.42 -12.887 78.701 -12.885 87.982 C-12.884 97.557 -12.905 107.132 -12.937 116.707 C-12.963 124.927 -12.973 133.147 -12.972 141.367 C-12.972 146.277 -12.977 151.186 -12.999 156.096 C-13.018 160.714 -13.018 165.331 -13.004 169.949 C-13.001 171.643 -13.006 173.337 -13.018 175.031 C-13.034 177.346 -13.024 179.659 -13.009 181.973 C-13.01 183.268 -13.011 184.563 -13.012 185.896 C-12.42 190.052 -11.189 192.18 -8.514 195.388 C-5.261 197.764 -2.219 197.643 1.735 197.655 C3.019 197.664 4.303 197.672 5.626 197.681 C7.047 197.68 8.468 197.679 9.889 197.678 C11.388 197.684 12.886 197.691 14.384 197.699 C18.452 197.716 22.52 197.721 26.589 197.722 C29.131 197.724 31.673 197.728 34.215 197.733 C43.086 197.752 51.956 197.76 60.826 197.758 C69.092 197.757 77.358 197.778 85.624 197.81 C92.724 197.836 99.822 197.847 106.922 197.845 C111.161 197.845 115.399 197.851 119.638 197.872 C123.626 197.891 127.613 197.891 131.601 197.877 C133.062 197.875 134.524 197.879 135.986 197.891 C137.985 197.907 139.984 197.895 141.982 197.882 C143.1 197.883 144.218 197.884 145.369 197.885 C150.25 197.106 153.265 194.904 156.337 191.088 C157.805 187.636 157.863 184.935 157.866 181.183 C157.873 180.111 157.873 180.111 157.881 179.017 C157.893 176.628 157.883 174.24 157.874 171.851 C157.878 170.136 157.883 168.421 157.89 166.705 C157.903 162.05 157.898 157.396 157.888 152.741 C157.881 147.868 157.888 142.996 157.893 138.123 C157.898 129.939 157.891 121.756 157.877 113.572 C157.86 104.114 157.866 94.655 157.882 85.197 C157.896 77.074 157.898 68.952 157.89 60.83 C157.885 55.979 157.884 51.129 157.894 46.279 C157.903 41.717 157.897 37.156 157.88 32.595 C157.876 30.922 157.877 29.249 157.883 27.576 C157.892 25.29 157.881 23.005 157.866 20.719 C157.865 19.441 157.864 18.162 157.863 16.845 C157.309 11.77 155.753 8.685 152.196 5.045 C148.914 3.038 146.954 2.883 143.123 2.873 C141.839 2.86 140.555 2.848 139.232 2.834 C137.816 2.841 136.4 2.847 134.984 2.854 C133.487 2.847 131.991 2.838 130.494 2.828 C126.434 2.806 122.374 2.809 118.314 2.817 C114.922 2.823 111.53 2.815 108.138 2.808 C100.133 2.791 92.129 2.795 84.124 2.811 C75.873 2.828 67.623 2.812 59.372 2.78 C52.282 2.753 45.193 2.746 38.103 2.755 C33.871 2.759 29.64 2.757 25.408 2.737 C21.427 2.718 17.446 2.724 13.465 2.749 C12.007 2.754 10.549 2.751 9.091 2.738 C-1.802 2.588 -1.802 2.588 -10.514 8.388 Z " fill="#FDFDFD" transform="translate(122.51449584960938,439.61231994628906)"/>
<path d="M0 0 C0.33 0 0.66 0 1 0 C1.003 0.869 1.007 1.738 1.01 2.634 C1.091 23.756 1.183 44.879 1.288 66.001 C1.338 76.215 1.384 86.43 1.422 96.645 C1.455 105.545 1.495 114.445 1.543 123.345 C1.568 128.06 1.59 132.775 1.603 137.49 C1.616 141.924 1.638 146.358 1.667 150.792 C1.676 152.423 1.682 154.054 1.684 155.685 C1.688 157.905 1.703 160.124 1.722 162.344 C1.727 163.588 1.733 164.832 1.738 166.115 C1.701 169.128 1.701 169.128 4 171 C4.486 173.008 4.97 175.015 5.438 177.027 C6.153 179.537 7.157 181.157 9 183 C12.273 184.091 14.683 184.134 18.129 184.147 C19.412 184.154 20.694 184.161 22.016 184.169 C23.441 184.172 24.866 184.174 26.29 184.177 C27.788 184.183 29.286 184.19 30.785 184.197 C35.707 184.218 40.629 184.228 45.551 184.238 C47.245 184.242 48.94 184.246 50.635 184.251 C58.596 184.27 66.557 184.284 74.518 184.292 C83.707 184.302 92.896 184.328 102.086 184.369 C109.189 184.399 116.292 184.414 123.395 184.417 C127.638 184.419 131.88 184.428 136.122 184.453 C140.114 184.477 144.105 184.481 148.097 184.471 C149.56 184.47 151.023 184.477 152.487 184.49 C154.488 184.508 156.489 184.499 158.49 184.488 C159.609 184.49 160.728 184.493 161.881 184.495 C165.757 183.88 167.939 182.411 171 180 C172.389 177.9 172.389 177.9 173 176 C173.66 176 174.32 176 175 176 C175 130.46 175 84.92 175 38 C175.33 38 175.66 38 176 38 C176.224 56.28 176.425 74.561 176.598 92.841 C176.679 101.33 176.768 109.818 176.875 118.306 C176.967 125.704 177.046 133.103 177.107 140.502 C177.14 144.419 177.181 148.336 177.238 152.253 C177.291 155.942 177.326 159.63 177.346 163.319 C177.362 165.314 177.398 167.31 177.434 169.305 C177.461 180.262 177.461 180.262 173 185 C167.899 188.793 162.969 189.124 156.758 189.14 C155.501 189.146 154.243 189.152 152.948 189.158 C151.562 189.159 150.176 189.16 148.79 189.161 C147.324 189.166 145.859 189.171 144.393 189.176 C140.418 189.189 136.442 189.196 132.467 189.2 C129.981 189.203 127.496 189.207 125.01 189.212 C117.226 189.225 109.442 189.235 101.659 189.239 C92.685 189.243 83.712 189.261 74.738 189.29 C67.793 189.312 60.849 189.322 53.904 189.323 C49.76 189.324 45.616 189.33 41.472 189.348 C37.573 189.364 33.673 189.366 29.774 189.358 C28.347 189.357 26.92 189.361 25.493 189.371 C11.151 189.465 11.151 189.465 5 186 C0.645 181.505 -0.623 177.671 -0.601 171.363 C-0.606 170.626 -0.61 169.889 -0.614 169.13 C-0.622 166.677 -0.595 164.226 -0.568 161.774 C-0.566 160.009 -0.567 158.245 -0.57 156.48 C-0.571 151.701 -0.542 146.923 -0.507 142.145 C-0.476 137.147 -0.473 132.149 -0.467 127.15 C-0.451 117.691 -0.41 108.232 -0.36 98.772 C-0.304 88.001 -0.277 77.23 -0.252 66.458 C-0.199 44.305 -0.111 22.153 0 0 Z " fill="#F1F1F1" transform="translate(106,452)"/>
<path d="M0 0 C2 1 2 1 2 1 Z M0 1 C0 1.99 0 2.98 0 4 C-1.145 4.835 -1.145 4.835 -2.312 5.688 C-6.817 9.564 -7.826 13.752 -8.272 19.508 C-8.423 23.964 -8.394 28.419 -8.372 32.877 C-8.375 34.593 -8.378 36.309 -8.383 38.024 C-8.393 42.667 -8.383 47.309 -8.37 51.951 C-8.359 56.816 -8.363 61.68 -8.365 66.545 C-8.366 74.711 -8.355 82.876 -8.336 91.042 C-8.315 100.478 -8.312 109.915 -8.318 119.351 C-8.323 128.437 -8.318 137.524 -8.307 146.61 C-8.302 150.474 -8.301 154.337 -8.303 158.201 C-8.305 162.75 -8.297 167.299 -8.281 171.847 C-8.277 173.516 -8.276 175.184 -8.279 176.852 C-8.282 179.131 -8.273 181.41 -8.261 183.689 C-8.259 184.963 -8.257 186.238 -8.254 187.551 C-7.999 191.017 -7.249 193.77 -6 197 C-5.34 197 -4.68 197 -4 197 C-4 197.66 -4 198.32 -4 199 C1.36 200.767 6.102 201.333 11.727 201.414 C12.619 201.434 13.511 201.453 14.431 201.473 C17.495 201.535 20.56 201.581 23.625 201.625 C25.24 201.653 25.24 201.653 26.888 201.681 C53.224 202.122 79.565 202.106 105.904 202.122 C109.376 202.125 112.849 202.129 116.322 202.133 C121.865 202.139 127.407 202.139 132.95 202.134 C135.023 202.133 137.096 202.134 139.169 202.136 C142.038 202.139 144.906 202.135 147.775 202.129 C149.029 202.132 149.029 202.132 150.309 202.136 C154.976 202.119 159.395 201.775 164 201 C163.67 201.99 163.34 202.98 163 204 C160.223 205.389 157.962 205.132 154.853 205.14 C152.885 205.149 152.885 205.149 150.877 205.158 C149.414 205.159 147.951 205.16 146.488 205.161 C144.954 205.166 143.42 205.171 141.886 205.176 C137.71 205.189 133.534 205.196 129.358 205.2 C126.748 205.203 124.139 205.207 121.529 205.212 C113.363 205.225 105.197 205.235 97.031 205.239 C87.608 205.243 78.185 205.261 68.762 205.29 C61.478 205.312 54.194 205.322 46.91 205.323 C42.56 205.324 38.21 205.33 33.86 205.348 C29.765 205.364 25.669 205.366 21.573 205.358 C20.074 205.357 18.574 205.361 17.075 205.371 C0.164 205.476 0.164 205.476 -6.059 200.281 C-6.514 199.693 -6.969 199.106 -7.438 198.5 C-7.911 197.912 -8.384 197.324 -8.871 196.719 C-11.373 192.91 -11.13 189.355 -11.14 184.929 C-11.143 184.204 -11.146 183.48 -11.149 182.733 C-11.158 180.299 -11.16 177.865 -11.161 175.431 C-11.166 173.688 -11.171 171.945 -11.176 170.202 C-11.189 165.463 -11.196 160.723 -11.2 155.983 C-11.203 153.022 -11.207 150.061 -11.212 147.1 C-11.225 137.835 -11.235 128.571 -11.239 119.307 C-11.243 108.612 -11.261 97.917 -11.29 87.222 C-11.312 78.956 -11.322 70.69 -11.323 62.424 C-11.324 57.487 -11.33 52.55 -11.348 47.613 C-11.364 42.968 -11.366 38.322 -11.358 33.676 C-11.357 31.973 -11.361 30.27 -11.371 28.567 C-11.384 26.237 -11.378 23.909 -11.367 21.579 C-11.369 20.277 -11.37 18.975 -11.372 17.633 C-10.732 11.379 -8.258 6.67 -4 2 C-2 1 -2 1 0 1 Z " fill="#0C0C0C" transform="translate(536,438)"/>
<path d="M0 0 C2.6 0.12 5.175 0.185 7.776 0.205 C8.962 0.22 8.962 0.22 10.172 0.235 C12.785 0.267 15.398 0.292 18.012 0.316 C19.823 0.337 21.635 0.358 23.447 0.379 C28.216 0.435 32.985 0.484 37.755 0.532 C42.621 0.582 47.487 0.638 52.354 0.693 C61.902 0.801 71.451 0.902 81 1 C81 1.33 81 1.66 81 2 C79.94 2.001 78.881 2.003 77.789 2.004 C67.784 2.021 57.78 2.064 47.775 2.132 C42.632 2.166 37.49 2.191 32.347 2.196 C27.38 2.2 22.413 2.228 17.447 2.273 C15.555 2.286 13.664 2.291 11.773 2.286 C9.115 2.281 6.46 2.307 3.803 2.341 C3.027 2.332 2.252 2.323 1.453 2.314 C-4.248 2.433 -8.817 4.002 -13 8 C-15.833 12.526 -16.375 15.979 -16.374 21.273 C-16.378 21.983 -16.382 22.693 -16.386 23.425 C-16.396 25.792 -16.384 28.159 -16.372 30.527 C-16.375 32.229 -16.378 33.931 -16.383 35.633 C-16.393 40.249 -16.383 44.865 -16.37 49.481 C-16.359 54.316 -16.363 59.152 -16.365 63.987 C-16.366 72.11 -16.355 80.232 -16.336 88.354 C-16.315 97.735 -16.312 107.115 -16.318 116.496 C-16.323 125.529 -16.318 134.562 -16.307 143.595 C-16.302 147.434 -16.301 151.274 -16.303 155.113 C-16.305 159.639 -16.297 164.165 -16.281 168.691 C-16.277 170.349 -16.276 172.006 -16.279 173.664 C-16.282 175.934 -16.273 178.203 -16.261 180.473 C-16.259 181.741 -16.257 183.009 -16.254 184.315 C-15.814 190.688 -14.82 196.448 -10 201 C-5.679 202.768 -2.004 203.256 2.644 203.278 C3.607 203.287 3.607 203.287 4.59 203.296 C6.727 203.313 8.864 203.316 11.001 203.319 C12.539 203.328 14.077 203.338 15.615 203.349 C19.78 203.377 23.944 203.392 28.109 203.405 C32.466 203.42 36.822 203.447 41.178 203.473 C49.422 203.52 57.667 203.556 65.912 203.589 C75.3 203.628 84.688 203.677 94.076 203.727 C113.384 203.831 132.692 203.92 152 204 C149.252 206.748 147.703 206.259 143.853 206.274 C142.541 206.284 141.229 206.294 139.877 206.304 C138.414 206.305 136.951 206.306 135.488 206.306 C133.954 206.314 132.42 206.322 130.886 206.332 C126.71 206.354 122.534 206.362 118.358 206.367 C115.748 206.371 113.139 206.377 110.529 206.384 C101.423 206.409 92.317 206.422 83.211 206.426 C74.728 206.429 66.245 206.459 57.762 206.501 C50.478 206.536 43.194 206.551 35.91 206.552 C31.56 206.553 27.21 206.561 22.86 206.59 C18.765 206.616 14.669 206.618 10.573 206.602 C9.074 206.6 7.574 206.607 6.075 206.623 C-8.146 206.765 -8.146 206.765 -13.493 202.555 C-20.753 195.063 -19.568 185.349 -19.518 175.572 C-19.523 173.797 -19.53 172.022 -19.539 170.248 C-19.557 165.444 -19.55 160.641 -19.537 155.837 C-19.527 150.805 -19.537 145.772 -19.543 140.739 C-19.55 132.291 -19.541 123.843 -19.521 115.395 C-19.5 105.631 -19.507 95.868 -19.529 86.104 C-19.547 77.714 -19.55 69.324 -19.539 60.934 C-19.533 55.926 -19.532 50.918 -19.545 45.91 C-19.557 41.204 -19.549 36.498 -19.526 31.791 C-19.52 30.065 -19.522 28.339 -19.531 26.613 C-19.542 24.254 -19.528 21.897 -19.508 19.539 C-19.506 18.22 -19.505 16.901 -19.503 15.543 C-18.721 10.034 -16.064 7.018 -12.125 3.25 C-8.018 0.293 -4.965 -1.655 0 0 Z " fill="#010101" transform="translate(333,437)"/>
<path d="M0 0 C2.653 2.985 3.37 4.782 3.293 8.766 C3.283 9.655 3.274 10.545 3.264 11.461 C3.239 12.381 3.213 13.302 3.188 14.25 C3.174 15.186 3.16 16.122 3.146 17.086 C3.111 19.391 3.062 21.695 3 24 C2.34 24.33 1.68 24.66 1 25 C-0.957 21.085 -0.302 16.113 -0.426 11.797 C-1.077 7.49 -2.222 5.323 -5 2 C-8.391 -0.231 -11.283 -0.255 -15.287 -0.267 C-16.58 -0.276 -17.872 -0.284 -19.204 -0.293 C-20.635 -0.293 -22.065 -0.292 -23.496 -0.291 C-25.004 -0.297 -26.512 -0.303 -28.02 -0.311 C-32.115 -0.329 -36.21 -0.333 -40.305 -0.335 C-42.864 -0.336 -45.423 -0.34 -47.982 -0.346 C-56.911 -0.364 -65.839 -0.372 -74.768 -0.371 C-83.089 -0.369 -91.409 -0.391 -99.73 -0.422 C-106.876 -0.448 -114.021 -0.459 -121.167 -0.458 C-125.434 -0.457 -129.701 -0.463 -133.968 -0.484 C-137.982 -0.503 -141.995 -0.504 -146.009 -0.489 C-147.48 -0.487 -148.951 -0.492 -150.423 -0.504 C-152.435 -0.519 -154.447 -0.507 -156.459 -0.494 C-157.584 -0.496 -158.709 -0.497 -159.868 -0.498 C-163.768 0.122 -165.927 1.56 -169 4 C-171.296 7.445 -171.54 9.938 -172 14 C-172.99 13.67 -173.98 13.34 -175 13 C-175 68.44 -175 123.88 -175 181 C-175.33 181 -175.66 181 -176 181 C-176.07 158.417 -176.123 135.834 -176.155 113.251 C-176.171 102.765 -176.192 92.279 -176.226 81.793 C-176.256 72.654 -176.276 63.515 -176.282 54.376 C-176.286 49.537 -176.295 44.698 -176.317 39.858 C-176.338 35.303 -176.344 30.748 -176.339 26.192 C-176.34 24.521 -176.346 22.85 -176.358 21.179 C-176.373 18.895 -176.369 16.611 -176.361 14.327 C-176.364 13.05 -176.366 11.772 -176.369 10.456 C-175.824 5.351 -174.239 2.118 -170.438 -1.312 C-166.923 -3.746 -165.139 -4.129 -160.901 -4.158 C-159.82 -4.168 -158.74 -4.178 -157.627 -4.188 C-155.84 -4.197 -155.84 -4.197 -154.017 -4.205 C-152.767 -4.215 -151.516 -4.225 -150.227 -4.235 C-146.786 -4.262 -143.345 -4.283 -139.904 -4.303 C-136.291 -4.325 -132.679 -4.353 -129.066 -4.379 C-122.982 -4.424 -116.898 -4.464 -110.814 -4.503 C-102.29 -4.556 -93.767 -4.616 -85.243 -4.677 C-5.843 -5.244 -5.843 -5.244 0 0 Z " fill="#F9F9F9" transform="translate(492,444)"/>
<path d="M0 0 C0.658 -0.007 1.317 -0.014 1.995 -0.021 C4.188 -0.039 6.379 -0.029 8.572 -0.019 C10.149 -0.026 11.727 -0.035 13.304 -0.045 C17.579 -0.067 21.853 -0.064 26.128 -0.056 C29.699 -0.05 33.27 -0.058 36.841 -0.065 C45.266 -0.082 53.691 -0.078 62.116 -0.062 C70.804 -0.045 79.491 -0.061 88.179 -0.093 C95.643 -0.12 103.107 -0.127 110.572 -0.118 C115.028 -0.114 119.483 -0.116 123.939 -0.136 C128.129 -0.155 132.318 -0.149 136.507 -0.124 C138.043 -0.119 139.579 -0.123 141.115 -0.135 C154.153 -0.234 154.153 -0.234 157.979 2.617 C162.222 8.137 163.583 12.756 163.567 19.658 C163.57 20.342 163.573 21.026 163.575 21.731 C163.58 24.003 163.564 26.275 163.547 28.548 C163.546 30.184 163.547 31.821 163.549 33.457 C163.549 37.886 163.532 42.315 163.511 46.745 C163.492 51.378 163.49 56.012 163.487 60.646 C163.477 69.415 163.453 78.184 163.423 86.952 C163.389 96.938 163.373 106.923 163.358 116.909 C163.326 137.444 163.274 157.979 163.207 178.515 C162.877 178.515 162.547 178.515 162.207 178.515 C162.202 177.281 162.202 177.281 162.197 176.021 C162.116 156.026 162.023 136.03 161.919 116.034 C161.869 106.364 161.823 96.695 161.785 87.025 C161.752 78.599 161.712 70.174 161.664 61.748 C161.639 57.285 161.617 52.821 161.603 48.357 C161.591 44.16 161.569 39.963 161.539 35.765 C161.53 34.221 161.525 32.677 161.522 31.133 C161.519 29.032 161.504 26.931 161.485 24.829 C161.48 23.651 161.474 22.473 161.468 21.26 C161.487 18.37 161.487 18.37 159.207 16.515 C158.231 14.27 157.364 11.996 156.5 9.706 C154.8 6.825 153.203 5.988 150.207 4.515 C147.128 4.061 147.128 4.061 143.761 4.12 C141.808 4.103 141.808 4.103 139.815 4.086 C138.378 4.089 136.942 4.091 135.506 4.095 C133.988 4.087 132.47 4.079 130.952 4.069 C126.834 4.047 122.716 4.044 118.598 4.046 C115.159 4.046 111.72 4.037 108.28 4.029 C100.165 4.01 92.051 4.007 83.936 4.014 C75.568 4.02 67.201 3.997 58.833 3.96 C51.644 3.93 44.456 3.918 37.268 3.922 C32.976 3.924 28.685 3.919 24.394 3.894 C20.358 3.872 16.322 3.874 12.286 3.894 C10.807 3.898 9.327 3.893 7.848 3.878 C-0.915 3.419 -0.915 3.419 -8.47 7.053 C-9.62 8.272 -9.62 8.272 -10.793 9.515 C-12.113 9.515 -13.433 9.515 -14.793 9.515 C-13.837 6.072 -12.955 4.644 -10.132 2.375 C-6.38 0.284 -4.261 0.01 0 0 Z " fill="#DDDDDD" transform="translate(754.7933349609375,439.48533630371094)"/>
<path d="M0 0 C1.204 3.765 1.112 7.342 1.093 11.274 C1.091 12.008 1.089 12.743 1.087 13.499 C1.08 15.96 1.065 18.421 1.05 20.882 C1.043 22.647 1.037 24.411 1.031 26.175 C1.018 29.975 1.002 33.775 0.983 37.575 C0.956 43.584 0.939 49.592 0.924 55.601 C0.919 57.659 0.914 59.716 0.909 61.773 C0.906 62.803 0.903 63.833 0.901 64.895 C0.865 78.884 0.819 92.874 0.753 106.863 C0.709 116.299 0.678 125.736 0.664 135.172 C0.656 140.166 0.641 145.159 0.608 150.153 C0.577 154.849 0.564 159.546 0.566 164.242 C0.563 165.965 0.554 167.688 0.537 169.411 C0.514 171.765 0.517 174.118 0.526 176.472 C0.521 177.789 0.516 179.105 0.511 180.462 C1.088 184.635 2.339 186.767 5 190 C12.194 194.01 19.907 193.442 27.953 193.432 C29.462 193.441 30.97 193.452 32.479 193.463 C36.555 193.491 40.63 193.5 44.706 193.506 C48.973 193.516 53.24 193.542 57.507 193.566 C65.578 193.61 73.649 193.638 81.72 193.661 C90.912 193.689 100.104 193.732 109.297 193.778 C128.198 193.87 147.099 193.942 166 194 C166 194.66 166 195.32 166 196 C145.816 196.117 125.631 196.205 105.447 196.259 C96.074 196.285 86.702 196.32 77.329 196.377 C69.158 196.427 60.987 196.459 52.816 196.47 C48.491 196.477 44.167 196.492 39.842 196.529 C35.767 196.563 31.692 196.573 27.617 196.566 C26.126 196.567 24.634 196.577 23.143 196.596 C7.013 196.794 7.013 196.794 1 191 C-1.885 186.453 -2.427 182.559 -2.361 177.293 C-2.363 176.537 -2.366 175.78 -2.369 175.001 C-2.373 172.476 -2.357 169.953 -2.341 167.428 C-2.34 165.615 -2.34 163.801 -2.342 161.987 C-2.343 157.07 -2.325 152.154 -2.304 147.237 C-2.285 142.096 -2.284 136.955 -2.28 131.814 C-2.271 122.082 -2.246 112.35 -2.216 102.617 C-2.183 91.537 -2.166 80.456 -2.151 69.375 C-2.12 46.583 -2.067 23.792 -2 1 C-1.34 0.67 -0.68 0.34 0 0 Z " fill="#010101" transform="translate(106,447)"/>
<path d="M0 0 C0.33 0 0.66 0 1 0 C1.001 0.902 1.001 1.805 1.002 2.735 C1.017 24.684 1.059 46.634 1.132 68.584 C1.167 79.198 1.192 89.813 1.196 100.427 C1.199 109.678 1.219 118.929 1.261 128.18 C1.282 133.079 1.294 137.978 1.286 142.877 C1.279 147.487 1.294 152.097 1.328 156.708 C1.336 158.4 1.336 160.093 1.327 161.786 C1.315 164.097 1.334 166.406 1.361 168.717 C1.364 170.01 1.366 171.304 1.369 172.636 C2.161 176.861 3.716 178.323 7 181 C9.651 182.325 11.662 182.14 14.631 182.158 C15.829 182.168 17.026 182.178 18.26 182.188 C19.594 182.194 20.928 182.2 22.262 182.205 C23.662 182.215 25.061 182.225 26.46 182.235 C30.266 182.262 34.071 182.283 37.877 182.303 C41.851 182.325 45.826 182.353 49.8 182.379 C57.33 182.429 64.859 182.474 72.388 182.517 C80.959 182.567 89.53 182.622 98.1 182.677 C115.733 182.791 133.367 182.898 151 183 C150.67 183.66 150.34 184.32 150 185 C131.572 185.07 113.144 185.123 94.716 185.155 C86.159 185.171 77.603 185.192 69.046 185.226 C61.588 185.256 54.131 185.276 46.673 185.282 C42.724 185.286 38.775 185.295 34.826 185.317 C31.109 185.338 27.392 185.344 23.675 185.339 C21.661 185.341 19.647 185.357 17.634 185.373 C16.432 185.369 15.23 185.365 13.992 185.361 C12.95 185.364 11.907 185.366 10.833 185.369 C6.07 184.748 3.768 182.918 0.718 179.272 C-1.305 175.419 -1.496 172.979 -1.488 168.642 C-1.492 167.922 -1.496 167.203 -1.5 166.463 C-1.509 164.065 -1.49 161.668 -1.47 159.27 C-1.47 157.547 -1.473 155.824 -1.477 154.1 C-1.482 149.429 -1.463 144.758 -1.439 140.087 C-1.417 135.201 -1.418 130.316 -1.416 125.43 C-1.409 117.232 -1.388 109.033 -1.357 100.834 C-1.316 90.297 -1.299 79.76 -1.289 69.223 C-1.281 60.174 -1.264 51.125 -1.244 42.077 C-1.238 39.162 -1.233 36.247 -1.228 33.332 C-1.219 28.762 -1.205 24.193 -1.186 19.624 C-1.18 17.942 -1.176 16.261 -1.173 14.579 C-1.169 12.294 -1.159 10.009 -1.147 7.724 C-1.143 6.442 -1.139 5.16 -1.134 3.839 C-1 1 -1 1 0 0 Z " fill="#010101" transform="translate(744,452)"/>
<path d="M0 0 C0.33 0 0.66 0 1 0 C1 58.08 1 116.16 1 176 C1.66 176 2.32 176 3 176 C3.433 176.784 3.866 177.567 4.312 178.375 C6.355 181.552 7.443 181.911 11 183 C14.01 183.307 14.01 183.307 17.28 183.274 C19.179 183.289 19.179 183.289 21.116 183.304 C22.511 183.305 23.907 183.306 25.302 183.306 C26.777 183.314 28.253 183.322 29.728 183.332 C33.73 183.354 37.733 183.362 41.735 183.367 C44.237 183.371 46.74 183.377 49.242 183.384 C57.979 183.409 66.715 183.422 75.452 183.426 C83.586 183.429 91.719 183.459 99.853 183.501 C106.844 183.536 113.835 183.551 120.827 183.552 C124.999 183.553 129.17 183.561 133.342 183.59 C137.268 183.616 141.194 183.618 145.12 183.602 C146.557 183.6 147.993 183.607 149.43 183.623 C157.855 183.711 163.312 183.344 170 178 C169.289 181.255 168.637 182.87 166 185 C162.713 186.096 160.288 186.131 156.826 186.14 C154.887 186.149 154.887 186.149 152.909 186.158 C151.474 186.159 150.038 186.16 148.602 186.161 C147.092 186.166 145.583 186.171 144.073 186.176 C139.97 186.189 135.867 186.196 131.763 186.2 C129.2 186.203 126.637 186.207 124.074 186.212 C116.056 186.225 108.038 186.235 100.02 186.239 C90.761 186.243 81.503 186.261 72.245 186.29 C65.09 186.312 57.935 186.322 50.78 186.323 C46.505 186.324 42.231 186.33 37.957 186.348 C33.937 186.364 29.917 186.366 25.896 186.358 C24.421 186.357 22.946 186.361 21.471 186.371 C19.457 186.384 17.442 186.376 15.428 186.367 C14.3 186.369 13.173 186.37 12.012 186.372 C7.396 185.802 3.961 183.554 1 180 C-0.181 176.457 -0.123 173.661 -0.12 169.92 C-0.121 169.194 -0.122 168.469 -0.123 167.722 C-0.124 165.285 -0.119 162.848 -0.114 160.411 C-0.113 158.667 -0.113 156.923 -0.114 155.179 C-0.114 150.437 -0.108 145.696 -0.101 140.954 C-0.095 136.002 -0.095 131.049 -0.093 126.096 C-0.09 116.714 -0.082 107.333 -0.072 97.951 C-0.061 87.272 -0.055 76.592 -0.05 65.913 C-0.04 43.942 -0.022 21.971 0 0 Z " fill="#1A1A1A" transform="translate(320,451)"/>
<path d="M0 0 C0.33 0 0.66 0 1 0 C1.07 24.035 1.123 48.069 1.155 72.104 C1.171 83.263 1.192 94.423 1.226 105.582 C1.256 115.308 1.276 125.033 1.282 134.758 C1.286 139.909 1.295 145.06 1.317 150.21 C1.338 155.057 1.344 159.903 1.339 164.75 C1.34 166.53 1.346 168.31 1.358 170.09 C1.373 172.518 1.369 174.947 1.361 177.375 C1.37 178.081 1.378 178.786 1.387 179.513 C1.34 184.709 0.003 187.841 -3.5 191.617 C-4.938 192.823 -6.469 193.915 -8 195 C-8.99 194.67 -9.98 194.34 -11 194 C-9.135 192.135 -7.263 190.28 -5.375 188.438 C-1.674 184.64 -1.851 181.925 -1.849 176.864 C-1.844 176.12 -1.84 175.377 -1.836 174.61 C-1.823 172.106 -1.817 169.602 -1.811 167.098 C-1.803 165.308 -1.794 163.517 -1.785 161.727 C-1.767 157.866 -1.752 154.005 -1.74 150.144 C-1.719 144.044 -1.692 137.944 -1.663 131.844 C-1.603 118.896 -1.551 105.948 -1.5 93 C-1.445 79.024 -1.389 65.047 -1.322 51.071 C-1.294 45.002 -1.27 38.932 -1.251 32.863 C-1.237 29.094 -1.22 25.324 -1.201 21.555 C-1.193 19.801 -1.187 18.047 -1.183 16.294 C-1.177 13.908 -1.165 11.522 -1.151 9.136 C-1.151 8.436 -1.151 7.735 -1.151 7.012 C-1.114 2.228 -1.114 2.228 0 0 Z " fill="#323131" transform="translate(284,447)"/>
<path d="M0 0 C0.66 0.33 1.32 0.66 2 1 C2.07 24.235 2.123 47.47 2.155 70.705 C2.171 81.494 2.192 92.282 2.226 103.07 C2.256 112.473 2.276 121.876 2.282 131.279 C2.286 136.258 2.295 141.237 2.317 146.216 C2.338 150.902 2.344 155.589 2.339 160.275 C2.34 161.995 2.346 163.715 2.358 165.435 C2.373 167.784 2.369 170.133 2.361 172.483 C2.364 173.797 2.366 175.112 2.369 176.466 C1.88 181.144 0.44 184.502 -2.824 187.898 C-3.439 188.386 -4.054 188.873 -4.688 189.375 C-5.31 189.878 -5.933 190.38 -6.574 190.898 C-7.045 191.262 -7.515 191.625 -8 192 C-8.66 191.67 -9.32 191.34 -10 191 C-9.518 190.481 -9.036 189.961 -8.539 189.426 C-7.592 188.38 -7.592 188.38 -6.625 187.312 C-5.999 186.628 -5.372 185.944 -4.727 185.238 C-1.124 180.568 -0.746 176.454 -0.722 170.641 C-0.716 169.91 -0.71 169.179 -0.704 168.426 C-0.687 165.981 -0.684 163.537 -0.681 161.093 C-0.672 159.338 -0.662 157.584 -0.651 155.829 C-0.623 151.069 -0.608 146.31 -0.595 141.55 C-0.58 136.574 -0.553 131.599 -0.527 126.623 C-0.48 117.203 -0.444 107.782 -0.411 98.362 C-0.372 87.636 -0.323 76.911 -0.273 66.186 C-0.169 44.124 -0.08 22.062 0 0 Z " fill="#030303" transform="translate(496,450)"/>
<path d="M0 0 C3.555 1.185 5.187 2.461 6.937 5.773 C8.724 10.52 9.372 14.551 9.361 19.682 C9.363 20.411 9.366 21.141 9.369 21.893 C9.373 24.314 9.357 26.735 9.341 29.156 C9.34 30.901 9.34 32.646 9.342 34.391 C9.343 39.112 9.325 43.832 9.304 48.553 C9.285 53.492 9.284 58.431 9.28 63.371 C9.271 72.717 9.246 82.063 9.216 91.409 C9.182 102.052 9.166 112.695 9.151 123.339 C9.12 145.226 9.067 167.113 9 189 C8.34 189 7.68 189 7 189 C6.999 188.1 6.997 187.201 6.996 186.274 C6.958 164.373 6.899 142.472 6.816 120.572 C6.776 109.981 6.744 99.39 6.729 88.799 C6.716 79.567 6.689 70.335 6.645 61.103 C6.623 56.215 6.607 51.328 6.608 46.44 C6.609 41.837 6.591 37.235 6.559 32.632 C6.55 30.945 6.549 29.258 6.554 27.572 C6.717 15.693 6.717 15.693 2 5 C1.34 4.34 0.68 3.68 0 3 C0 2.01 0 1.02 0 0 Z " fill="#000000" transform="translate(911,439)"/>
<path d="M0 0 C0.99 0.495 0.99 0.495 2 1 C1.547 5.874 0.579 8.604 -3 12 C-10.439 15.753 -17.774 15.405 -25.953 15.341 C-27.462 15.34 -28.97 15.34 -30.479 15.342 C-34.555 15.343 -38.63 15.325 -42.706 15.304 C-46.973 15.285 -51.24 15.284 -55.507 15.28 C-63.578 15.271 -71.649 15.246 -79.72 15.216 C-88.912 15.182 -98.104 15.166 -107.297 15.151 C-126.198 15.12 -145.099 15.067 -164 15 C-164 14.67 -164 14.34 -164 14 C-162.766 13.992 -161.533 13.984 -160.262 13.975 C-148.652 13.898 -137.041 13.81 -125.431 13.712 C-119.462 13.662 -113.493 13.616 -107.524 13.578 C-101.766 13.541 -96.008 13.495 -90.251 13.442 C-88.051 13.423 -85.851 13.408 -83.652 13.397 C-80.577 13.38 -77.503 13.351 -74.428 13.319 C-73.514 13.317 -72.599 13.315 -71.656 13.312 C-70.819 13.301 -69.982 13.29 -69.119 13.278 C-68.392 13.273 -67.665 13.267 -66.915 13.262 C-64.673 13.097 -64.673 13.097 -62 11 C-59.699 10.742 -59.699 10.742 -56.965 10.729 C-55.941 10.719 -54.916 10.708 -53.86 10.698 C-52.754 10.696 -51.648 10.694 -50.508 10.691 C-48.171 10.666 -45.833 10.641 -43.496 10.615 C-39.807 10.586 -36.118 10.562 -32.429 10.544 C-28.872 10.522 -25.315 10.483 -21.758 10.441 C-20.656 10.441 -19.553 10.441 -18.418 10.441 C-17.387 10.428 -16.356 10.414 -15.293 10.401 C-14.39 10.396 -13.486 10.39 -12.555 10.385 C-9.428 9.914 -7.552 8.843 -5 7 C-3.966 5.354 -2.959 3.69 -2 2 C-1.34 2 -0.68 2 0 2 C0 1.34 0 0.68 0 0 Z " fill="#F9F9F9" transform="translate(493,626)"/>
<path d="M0 0 C0.33 0 0.66 0 1 0 C1.07 23.695 1.123 47.391 1.155 71.086 C1.171 82.087 1.192 93.089 1.226 104.09 C1.256 113.676 1.276 123.262 1.282 132.848 C1.286 137.926 1.295 143.005 1.317 148.083 C1.337 152.858 1.344 157.633 1.339 162.409 C1.34 164.166 1.346 165.922 1.358 167.679 C1.372 170.07 1.369 172.46 1.361 174.85 C1.37 175.552 1.378 176.255 1.387 176.978 C1.369 178.912 1.369 178.912 1 182 C-0.485 182.99 -0.485 182.99 -2 184 C-1.893 160.305 -1.78 136.609 -1.661 112.914 C-1.605 101.913 -1.552 90.911 -1.503 79.91 C-1.46 70.324 -1.414 60.738 -1.363 51.152 C-1.337 46.074 -1.312 40.995 -1.291 35.917 C-1.271 31.142 -1.247 26.367 -1.22 21.591 C-1.21 19.834 -1.202 18.078 -1.197 16.321 C-1.188 13.93 -1.174 11.54 -1.158 9.15 C-1.157 8.448 -1.156 7.745 -1.155 7.022 C-1.114 2.228 -1.114 2.228 0 0 Z " fill="#000000" transform="translate(708,448)"/>
<path d="M0 0 C20.271 -0.047 40.542 -0.082 60.812 -0.104 C70.224 -0.114 79.636 -0.128 89.048 -0.151 C97.25 -0.171 105.452 -0.184 113.655 -0.188 C117.999 -0.191 122.343 -0.197 126.687 -0.211 C130.774 -0.225 134.861 -0.229 138.949 -0.226 C140.45 -0.227 141.951 -0.231 143.453 -0.238 C145.501 -0.248 147.549 -0.245 149.597 -0.241 C150.743 -0.242 151.89 -0.244 153.071 -0.246 C155.929 -0.006 157.583 0.512 160 2 C160 2.33 160 2.66 160 3 C107.53 3 55.06 3 1 3 C0.67 2.01 0.34 1.02 0 0 Z " fill="#2A2A2A" transform="translate(539,437)"/>
<path d="M0 0 C1.434 0.003 1.434 0.003 2.897 0.006 C3.938 0.014 4.98 0.021 6.052 0.029 C7.155 0.033 8.258 0.037 9.394 0.042 C13.002 0.057 16.61 0.081 20.219 0.105 C22.627 0.12 25.036 0.134 27.445 0.148 C34.564 0.193 41.683 0.249 48.802 0.307 C52.351 0.336 55.899 0.364 59.448 0.391 C66.123 0.444 72.798 0.497 79.473 0.551 C87.092 0.612 94.71 0.672 102.328 0.732 C117.958 0.855 133.588 0.98 149.219 1.105 C149.549 1.765 149.879 2.425 150.219 3.105 C97.419 3.105 44.619 3.105 -9.781 3.105 C-8.781 1.105 -8.781 1.105 -7.018 0.487 C-4.63 0.08 -2.422 -0.011 0 0 Z " fill="#2A2929" transform="translate(124.78147888183594,436.8946533203125)"/>
<path d="M0 0 C1.215 0.014 1.215 0.014 2.454 0.029 C5.138 0.062 7.822 0.102 10.505 0.143 C12.363 0.167 14.221 0.191 16.079 0.214 C20.975 0.277 25.871 0.346 30.767 0.417 C35.76 0.487 40.754 0.552 45.748 0.617 C55.55 0.747 65.352 0.882 75.154 1.022 C75.154 1.352 75.154 1.682 75.154 2.022 C73.696 2.021 73.696 2.021 72.208 2.019 C63.028 2.016 53.848 2.044 44.667 2.102 C39.948 2.131 35.229 2.149 30.51 2.142 C25.951 2.135 21.394 2.158 16.835 2.2 C15.1 2.211 13.365 2.212 11.63 2.202 C-0.385 1.872 -0.385 1.872 -10.612 7.488 C-12.29 9.574 -13.024 11.238 -13.346 13.897 C-13.46 14.678 -13.573 15.459 -13.69 16.264 C-13.742 16.844 -13.793 17.424 -13.846 18.022 C-14.836 17.692 -15.826 17.362 -16.846 17.022 C-16.846 72.462 -16.846 127.902 -16.846 185.022 C-17.176 185.022 -17.506 185.022 -17.846 185.022 C-17.916 162.439 -17.969 139.855 -18.002 117.272 C-18.017 106.787 -18.038 96.301 -18.073 85.815 C-18.102 76.676 -18.122 67.537 -18.128 58.398 C-18.132 53.559 -18.142 48.719 -18.163 43.88 C-18.184 39.325 -18.19 34.77 -18.186 30.214 C-18.186 28.543 -18.192 26.872 -18.204 25.2 C-18.219 22.916 -18.215 20.633 -18.207 18.349 C-18.21 17.071 -18.212 15.794 -18.215 14.477 C-17.67 9.372 -16.085 6.14 -12.284 2.709 C-8.081 -0.2 -4.977 -0.084 0 0 Z " fill="#C8C8C7" transform="translate(333.84619140625,439.978271484375)"/>
<path d="M0 0 C43.56 0 87.12 0 132 0 C131.67 0.99 131.34 1.98 131 3 C88.1 3 45.2 3 1 3 C0.67 2.01 0.34 1.02 0 0 Z " fill="#FCFCFC" transform="translate(544,440)"/>
<path d="M0 0 C-3.292 1.097 -5.703 1.123 -9.169 1.12 C-10.461 1.122 -11.752 1.123 -13.083 1.124 C-14.517 1.121 -15.951 1.117 -17.385 1.114 C-18.893 1.113 -20.401 1.113 -21.909 1.114 C-26.006 1.114 -30.103 1.108 -34.199 1.101 C-38.479 1.095 -42.76 1.095 -47.04 1.093 C-55.146 1.09 -63.253 1.082 -71.36 1.072 C-80.588 1.061 -89.816 1.055 -99.045 1.05 C-118.03 1.04 -137.015 1.022 -156 1 C-156 0.34 -156 -0.32 -156 -1 C-136.398 -1.177 -116.797 -1.343 -97.195 -1.495 C-88.094 -1.566 -78.993 -1.64 -69.891 -1.724 C-61.959 -1.796 -54.027 -1.862 -46.094 -1.919 C-41.894 -1.95 -37.694 -1.984 -33.493 -2.026 C-29.54 -2.066 -25.586 -2.097 -21.632 -2.12 C-20.181 -2.13 -18.73 -2.144 -17.28 -2.161 C-15.298 -2.184 -13.316 -2.194 -11.334 -2.203 C-10.225 -2.212 -9.116 -2.221 -7.973 -2.23 C-4.93 -1.995 -2.749 -1.29 0 0 Z " fill="#000001" transform="translate(907,642)"/>
<path d="M0 0 C50.49 0.33 100.98 0.66 153 1 C153 1.66 153 2.32 153 3 C135.118 3.023 117.237 3.041 99.355 3.052 C91.051 3.057 82.747 3.064 74.443 3.075 C67.2 3.085 59.956 3.092 52.713 3.094 C48.883 3.095 45.053 3.098 41.222 3.106 C37.606 3.113 33.99 3.115 30.373 3.113 C28.437 3.114 26.5 3.119 24.563 3.124 C16.327 3.115 8.206 2.689 0 2 C0 1.34 0 0.68 0 0 Z " fill="#000000" transform="translate(540,634)"/>
<path d="M0 0 C-1.732 2.193 -2.608 2.94 -5.415 3.369 C-6.378 3.366 -7.342 3.364 -8.334 3.361 C-9.44 3.365 -10.547 3.369 -11.687 3.373 C-12.901 3.362 -14.115 3.352 -15.366 3.341 C-16.644 3.341 -17.922 3.341 -19.239 3.342 C-22.745 3.343 -26.251 3.325 -29.757 3.304 C-33.42 3.285 -37.084 3.284 -40.748 3.28 C-47.685 3.271 -54.623 3.246 -61.561 3.216 C-69.46 3.183 -77.358 3.166 -85.256 3.151 C-101.504 3.12 -117.752 3.067 -134 3 C-134 2.34 -134 1.68 -134 1 C-133.35 0.996 -132.7 0.992 -132.031 0.987 C-116.215 0.884 -100.399 0.775 -84.583 0.661 C-76.934 0.605 -69.286 0.552 -61.637 0.503 C-54.971 0.46 -48.304 0.413 -41.638 0.363 C-38.108 0.337 -34.578 0.312 -31.049 0.291 C-27.108 0.268 -23.167 0.237 -19.226 0.205 C-18.056 0.2 -16.887 0.194 -15.682 0.188 C-14.068 0.173 -14.068 0.173 -12.423 0.158 C-11.491 0.152 -10.559 0.145 -9.599 0.139 C-6.963 0.065 -6.963 0.065 -4.286 -0.572 C-2 -1 -2 -1 0 0 Z " fill="#020202" transform="translate(700,640)"/>
<path d="M0 0 C2.14 4.28 1.093 9.49 0 14 C-0.33 14 -0.66 14 -1 14 C-1.402 12.206 -1.402 12.206 -1.812 10.375 C-3.135 5.213 -4.401 1.263 -8.708 -2.139 C-12.331 -4.187 -14.298 -4.505 -18.416 -4.519 C-20.322 -4.54 -20.322 -4.54 -22.266 -4.561 C-23.661 -4.556 -25.056 -4.551 -26.451 -4.546 C-27.929 -4.555 -29.408 -4.565 -30.887 -4.577 C-34.891 -4.605 -38.894 -4.608 -42.898 -4.608 C-47.086 -4.611 -51.274 -4.636 -55.462 -4.659 C-63.388 -4.7 -71.314 -4.72 -79.24 -4.733 C-88.265 -4.749 -97.29 -4.788 -106.316 -4.828 C-124.877 -4.91 -143.438 -4.965 -162 -5 C-162 -5.33 -162 -5.66 -162 -6 C-142.416 -6.177 -122.831 -6.343 -103.247 -6.495 C-94.154 -6.566 -85.06 -6.64 -75.967 -6.724 C-68.041 -6.796 -60.115 -6.862 -52.189 -6.919 C-47.992 -6.95 -43.795 -6.984 -39.599 -7.026 C-35.648 -7.066 -31.697 -7.097 -27.745 -7.12 C-26.296 -7.13 -24.848 -7.144 -23.399 -7.161 C-21.417 -7.184 -19.436 -7.194 -17.454 -7.203 C-16.346 -7.212 -15.238 -7.221 -14.097 -7.23 C-7.709 -6.755 -4.197 -4.796 0 0 Z " fill="#F2F2F2" transform="translate(282,447)"/>
<path d="M0 0 C32.01 0 64.02 0 97 0 C97.495 0.99 97.495 0.99 98 2 C94.617 3.692 90.773 3.129 87.052 3.114 C85.662 3.114 85.662 3.114 84.244 3.114 C81.17 3.113 78.097 3.105 75.023 3.098 C72.896 3.096 70.769 3.094 68.642 3.093 C63.036 3.09 57.43 3.08 51.824 3.069 C46.107 3.058 40.389 3.054 34.672 3.049 C23.448 3.038 12.224 3.021 1 3 C0.67 2.01 0.34 1.02 0 0 Z " fill="#FDFDFE" transform="translate(329,440)"/>
<path d="M0 0 C1.099 0.002 2.198 0.004 3.331 0.007 C4.572 0.007 5.813 0.007 7.092 0.007 C8.457 0.012 9.821 0.017 11.186 0.023 C12.575 0.024 13.963 0.026 15.352 0.027 C19.013 0.031 22.674 0.041 26.335 0.052 C30.069 0.062 33.802 0.066 37.536 0.071 C44.866 0.082 52.196 0.099 59.526 0.12 C59.526 0.78 59.526 1.44 59.526 2.12 C60.516 2.45 61.506 2.78 62.526 3.12 C54.364 3.167 46.201 3.202 38.039 3.224 C34.249 3.234 30.459 3.248 26.669 3.271 C23.012 3.293 19.355 3.305 15.698 3.31 C14.302 3.314 12.906 3.321 11.511 3.332 C9.557 3.346 7.603 3.347 5.65 3.347 C4.537 3.352 3.425 3.356 2.278 3.361 C-0.474 3.12 -0.474 3.12 -3.474 1.12 C-2.474 0.12 -2.474 0.12 0 0 Z " fill="#FDFDFD" transform="translate(543.4740142822266,636.8797454833984)"/>
<path d="M0 0 C0.495 0.99 0.495 0.99 1 2 C14.86 2.33 28.72 2.66 43 3 C43 3.33 43 3.66 43 4 C-6.83 4 -56.66 4 -108 4 C-108 3.67 -108 3.34 -108 3 C-106.766 2.992 -105.533 2.984 -104.262 2.975 C-92.652 2.898 -81.041 2.81 -69.431 2.712 C-63.462 2.662 -57.493 2.616 -51.524 2.578 C-45.766 2.541 -40.008 2.495 -34.251 2.442 C-32.051 2.423 -29.851 2.408 -27.652 2.397 C-24.577 2.38 -21.503 2.351 -18.428 2.319 C-17.514 2.317 -16.599 2.315 -15.656 2.312 C-14.819 2.301 -13.982 2.29 -13.119 2.278 C-12.392 2.273 -11.665 2.267 -10.915 2.262 C-6.752 1.693 -4.635 -0.206 0 0 Z " fill="#E7E7E6" transform="translate(437,637)"/>
<path d="M0 0 C0 0.33 0 0.66 0 1 C-3.63 1 -7.26 1 -11 1 C-11 1.66 -11 2.32 -11 3 C-14.173 4.586 -17.588 4.121 -21.07 4.098 C-22.265 4.096 -22.265 4.096 -23.483 4.093 C-26.03 4.088 -28.578 4.075 -31.125 4.062 C-32.85 4.057 -34.576 4.053 -36.301 4.049 C-40.534 4.038 -44.767 4.021 -49 4 C-48.67 3.01 -48.34 2.02 -48 1 C-14.498 -0.194 -14.498 -0.194 0 0 Z " fill="#FBFBFB" transform="translate(474,439)"/>
<path d="M0 0 C1.013 0.028 2.025 0.056 3.068 0.084 C6.289 0.177 9.507 0.299 12.727 0.422 C14.915 0.49 17.104 0.557 19.293 0.621 C24.647 0.783 29.999 0.968 35.352 1.172 C35.352 1.502 35.352 1.832 35.352 2.172 C33.544 2.186 33.544 2.186 31.699 2.2 C27.205 2.24 22.712 2.306 18.219 2.379 C16.278 2.408 14.338 2.429 12.397 2.443 C9.599 2.464 6.802 2.511 4.004 2.562 C2.713 2.564 2.713 2.564 1.396 2.566 C-5.306 2.727 -9.787 4.311 -14.648 9.172 C-15.968 9.172 -17.288 9.172 -18.648 9.172 C-17.563 5.266 -16.04 3.154 -12.593 0.979 C-8.569 -0.691 -4.276 -0.186 0 0 Z " fill="#F3F3F3" transform="translate(758.6484375,439.828125)"/>
<path d="M0 0 C0.33 0 0.66 0 1 0 C1.087 4.375 1.141 8.75 1.188 13.125 C1.213 14.362 1.238 15.6 1.264 16.875 C1.273 18.074 1.283 19.273 1.293 20.508 C1.317 22.157 1.317 22.157 1.341 23.84 C0.858 28.314 -0.707 31.655 -3.824 34.898 C-4.747 35.629 -4.747 35.629 -5.688 36.375 C-6.31 36.878 -6.933 37.38 -7.574 37.898 C-8.045 38.262 -8.515 38.625 -9 39 C-9.66 38.67 -10.32 38.34 -11 38 C-10.277 37.221 -10.277 37.221 -9.539 36.426 C-8.907 35.728 -8.276 35.031 -7.625 34.312 C-6.999 33.628 -6.372 32.944 -5.727 32.238 C-2.548 28.117 -1.735 24.167 -1.367 19.043 C-1.283 17.931 -1.2 16.819 -1.113 15.674 C-0.995 13.948 -0.995 13.948 -0.875 12.188 C-0.789 11.018 -0.702 9.848 -0.613 8.643 C-0.402 5.762 -0.197 2.881 0 0 Z " fill="#070707" transform="translate(497,603)"/>
<path d="M0 0 C3.346 0.279 4.732 0.737 7.161 3.124 C9.446 6.698 9.394 8.628 9.172 12.832 C9.114 14.124 9.056 15.417 8.996 16.748 C8.915 18.103 8.832 19.458 8.75 20.812 C8.682 22.187 8.615 23.561 8.551 24.936 C8.386 28.292 8.202 31.646 8 35 C7.67 35 7.34 35 7 35 C6.996 34.208 6.992 33.417 6.988 32.601 C6.955 29.004 6.884 25.409 6.812 21.812 C6.804 19.944 6.804 19.944 6.795 18.037 C6.962 10.786 6.962 10.786 3.512 4.824 C2.268 3.921 2.268 3.921 1 3 C0.67 2.01 0.34 1.02 0 0 Z " fill="#090909" transform="translate(270,444)"/>
<path d="M0 0 C2.959 -0.081 5.916 -0.14 8.875 -0.188 C9.717 -0.213 10.559 -0.238 11.426 -0.264 C12.231 -0.273 13.037 -0.283 13.867 -0.293 C14.983 -0.317 14.983 -0.317 16.121 -0.341 C17.051 -0.172 17.051 -0.172 18 0 C18.66 0.99 19.32 1.98 20 3 C13.4 2.67 6.8 2.34 0 2 C0 1.34 0 0.68 0 0 Z " fill="#070606" transform="translate(540,634)"/>
<path d="M0 0 C0.645 1.77 0.645 1.77 1 4 C0.074 5.887 0.074 5.887 -1.312 7.688 C-1.762 8.289 -2.212 8.891 -2.676 9.512 C-4 11 -4 11 -6 12 C-7.707 12.07 -9.417 12.084 -11.125 12.062 C-12.035 12.053 -12.945 12.044 -13.883 12.035 C-14.581 12.024 -15.28 12.012 -16 12 C-16 11.67 -16 11.34 -16 11 C-15.42 10.937 -14.84 10.874 -14.242 10.809 C-8.43 9.897 -5.663 8.336 -2.094 3.656 C-0.943 1.985 -0.943 1.985 0 0 Z " fill="#0B0A0A" transform="translate(913,624)"/>
<path d="M0 0 C0.33 0.66 0.66 1.32 1 2 C-1.087 6.542 -3.994 9.162 -8 12 C-8.99 11.67 -9.98 11.34 -11 11 C-7.333 7.333 -3.667 3.667 0 0 Z " fill="#070706" transform="translate(284,630)"/>
<path d="M0 0 C0.744 0.052 1.487 0.105 2.253 0.159 C3.059 0.21 3.865 0.262 4.695 0.315 C5.957 0.412 5.957 0.412 7.246 0.51 C8.095 0.567 8.945 0.624 9.82 0.682 C11.921 0.824 14.021 0.978 16.121 1.135 C16.121 1.465 16.121 1.795 16.121 2.135 C9.686 2.63 9.686 2.63 3.121 3.135 C3.781 3.795 4.441 4.455 5.121 5.135 C-1.629 4.385 -1.629 4.385 -3.879 2.135 C-1.879 0.135 -1.879 0.135 0 0 Z " fill="#D8D8D8" transform="translate(537.87939453125,634.86474609375)"/>
<path d="M0 0 C1.136 0.005 1.136 0.005 2.295 0.01 C3.473 0.022 3.473 0.022 4.676 0.035 C5.473 0.04 6.27 0.044 7.092 0.049 C9.057 0.061 11.023 0.079 12.988 0.098 C12.988 0.428 12.988 0.758 12.988 1.098 C9.358 1.098 5.728 1.098 1.988 1.098 C1.988 1.758 1.988 2.418 1.988 3.098 C-0.824 3.785 -0.824 3.785 -4.012 4.098 C-5.887 2.66 -5.887 2.66 -7.012 1.098 C-4.305 0.195 -2.774 -0.021 0 0 Z " fill="#D8D8D7" transform="translate(461.01171875,438.90234375)"/>
<path d="M0 0 C0.66 0.33 1.32 0.66 2 1 C-0.31 3.64 -2.62 6.28 -5 9 C-5.66 8.34 -6.32 7.68 -7 7 C-2.25 1.125 -2.25 1.125 0 0 Z " fill="#080808" transform="translate(746,438)"/>
<path d="M0 0 C0.33 0.99 0.66 1.98 1 3 C-1.834 6.254 -3.686 7.521 -8 8 C-6.883 4.65 -6.253 4.207 -3.438 2.312 C-2.797 1.876 -2.156 1.439 -1.496 0.988 C-0.756 0.499 -0.756 0.499 0 0 Z " fill="#070707" transform="translate(489,629)"/>
<path d="M0 0 C0.33 0.99 0.66 1.98 1 3 C-0.938 6.188 -0.938 6.188 -3 9 C-3.75 7.312 -3.75 7.312 -4 5 C-2.062 2.25 -2.062 2.25 0 0 Z " fill="#060606" transform="translate(536,446)"/>
</svg>
