<?xml version="1.0" encoding="UTF-8"?>
<!-- Generator: visioncortex VTracer 0.6.4 -->
<svg version="1.1" xmlns="http://www.w3.org/2000/svg" width="1024" height="1024">
<path d="M0 0 C337.92 0 675.84 0 1024 0 C1024 337.92 1024 675.84 1024 1024 C686.08 1024 348.16 1024 0 1024 C0 686.08 0 348.16 0 0 Z " fill="#171717" transform="translate(0,0)"/>
<path d="M0 0 C8.515 8.285 14.29 17.51 14.75 29.5 C14.658 42.141 9.193 55.083 0.438 64.203 C-3.852 68.191 -8.291 71.003 -13.688 73.25 C-14.678 73.663 -15.668 74.075 -16.688 74.5 C-23.424 76.184 -28.663 75.755 -34.688 72.25 C-38.189 69.376 -41.224 66.539 -42.148 61.973 C-41.976 57.397 -40.632 54.743 -37.438 51.5 C-36.201 50.401 -34.952 49.317 -33.688 48.25 C-29.648 44.386 -27.9 42.547 -27.375 36.875 C-27.757 32.442 -28.482 31.299 -31.688 28.25 C-33.94 26.652 -36.223 25.142 -38.566 23.68 C-41.855 21.463 -43.419 20.057 -44.688 16.25 C-45.47 9.769 -44.185 6.464 -40.324 1.227 C-29.078 -12.354 -13.066 -8.508 0 0 Z " fill="#F8F8F8" transform="translate(787.6875,556.75)"/>
<path d="M0 0 C7.951 4.808 15.065 11.701 17.969 20.695 C20.613 33.716 17.727 48.637 10.73 59.84 C5.271 67.634 -1.599 72.51 -10.898 74.801 C-18.299 75.97 -26.311 76.523 -32.926 72.543 C-35.93 70.04 -37.083 67.899 -38.52 64.215 C-38.713 60.545 -38.562 58.377 -36.055 55.582 C-34.268 54.026 -32.437 52.605 -30.52 51.215 C-26.027 47.96 -26.027 47.96 -23.52 43.215 C-22.976 38.411 -23.518 35.049 -26.113 30.906 C-28.264 28.319 -30.87 26.542 -33.617 24.629 C-36.685 22.348 -38.82 19.615 -40.52 16.215 C-40.942 12.5 -40.699 10.558 -38.957 7.215 C-27.73 -6.604 -15.538 -8.637 0 0 Z " fill="#F8F8F8" transform="translate(852.51953125,554.78515625)"/>
<path d="M0 0 C4.291 2.857 8.403 6.337 9.895 11.422 C10.238 15.538 9.269 17.992 6.688 21.188 C3.87 24.132 0.698 26.18 -2.688 28.438 C-6.086 32.29 -6.217 36.128 -6.02 41.078 C-5.509 44.704 -4.474 46.049 -1.688 48.438 C0.83 50.007 3.365 51.495 5.973 52.91 C8.448 54.526 9.774 55.93 11.312 58.438 C12.028 62.461 11.416 64.24 9.5 67.875 C5.16 73.41 -1.763 78.256 -8.75 79.562 C-20.034 79.204 -29.216 73.663 -36.918 65.637 C-45.024 55.562 -48.767 46.379 -47.948 33.484 C-46.703 23.714 -39.392 16.071 -32.688 9.438 C-32.134 8.851 -31.581 8.264 -31.012 7.66 C-23.452 0.288 -10.022 -5.022 0 0 Z " fill="#F8F9F8" transform="translate(272.6875,217.5625)"/>
<path d="M0 0 C8.636 6.168 8.636 6.168 9.875 11.75 C10.122 16.205 8.161 18.811 5.383 22.133 C3.051 24.444 0.35 26.058 -2.375 27.875 C-5.928 32.85 -6.196 37.967 -5.375 43.875 C-2.972 49.555 1.265 51.738 6.48 54.578 C8.625 55.875 8.625 55.875 9.625 57.875 C9.995 62.31 10.047 64.916 8.25 69 C3.522 74.178 -3.086 78.4 -10.16 79.184 C-21.523 79.631 -27.264 75.669 -35.688 68.5 C-43.633 61.066 -47.312 53.723 -47.812 42.75 C-47.591 30.655 -41.692 18.573 -33.43 9.812 C-23.788 1.04 -13.204 -4.401 0 0 Z " fill="#F8F9F8" transform="translate(201.375,217.125)"/>
<path d="M0 0 C0.99 0.33 1.98 0.66 3 1 C3.188 4.312 3.188 4.312 3 8 C2.01 8.99 1.02 9.98 0 11 C0 7.37 0 3.74 0 0 Z " fill="#232323" transform="translate(827,590)"/>
</svg>
