<?xml version="1.0" encoding="UTF-8"?>
<!-- Generator: visioncortex VTracer 0.6.4 -->
<svg version="1.1" xmlns="http://www.w3.org/2000/svg" width="1024" height="1024">
<path d="M0 0 C337.92 0 675.84 0 1024 0 C1024 337.92 1024 675.84 1024 1024 C686.08 1024 348.16 1024 0 1024 C0 686.08 0 348.16 0 0 Z " fill="#141414" transform="translate(0,0)"/>
<path d="M0 0 C19.49 13.66 25.593 34.487 29.605 56.879 C29.909 58.689 30.207 60.5 30.5 62.312 C30.66 63.293 30.82 64.274 30.985 65.284 C32.545 75.474 33.432 85.711 34.305 95.978 C34.561 98.978 34.824 101.976 35.088 104.975 C35.96 115.02 36.731 125.053 37.155 135.128 C37.353 139.572 37.581 143.949 38.5 148.312 C40.822 150.295 42.776 151.687 45.375 153.188 C46.749 154.041 48.12 154.899 49.488 155.762 C50.168 156.186 50.849 156.611 51.549 157.048 C59.019 161.889 68.597 168.603 71.5 177.312 C72.282 187.479 67.196 193.692 61.012 201.094 C42.087 221.756 7.171 228.607 -19.5 230.312 C-57.932 231.641 -101.479 228.163 -131.5 201.312 C-137.13 195.462 -141.975 189.388 -142.691 181.098 C-142.495 174.354 -139.229 170.8 -134.5 166.312 C-133.957 165.762 -133.415 165.212 -132.855 164.645 C-129.601 161.552 -126.62 159.29 -122.448 157.607 C-117.315 155.326 -112.936 152.857 -109.5 148.312 C-106.232 139.451 -106.441 129.57 -106.19 120.215 C-106.083 116.782 -105.896 113.354 -105.711 109.924 C-105.497 105.892 -105.287 101.86 -105.113 97.826 C-103.584 63.942 -100.251 26.212 -74.062 2 C-67.188 -3.607 -58.983 -6.485 -50.5 -8.688 C-49.872 -8.86 -49.245 -9.033 -48.598 -9.211 C-32.513 -12.864 -13.706 -8.525 0 0 Z " fill="#141414" transform="translate(547.5,577.6875)"/>
<path d="M0 0 C11.072 7.006 15.016 18.66 18.133 30.82 C21.775 50.247 20.761 75.532 9.43 92.348 C7.729 94.57 5.957 96.699 4.133 98.82 C3.349 99.852 2.565 100.883 1.758 101.945 C-3.308 107.493 -9.535 113.341 -17.223 114.191 C-29.244 114.4 -35.22 111.706 -43.93 103.383 C-58.468 88.694 -63.645 69.317 -64.18 49.008 C-63.967 37.213 -63.142 23.848 -54.258 15.266 C-41.183 4.482 -16.893 -6.951 0 0 Z " fill="#141414" transform="translate(533.8671875,606.1796875)"/>
<path d="M0 0 C19.49 13.66 25.593 34.487 29.605 56.879 C29.909 58.689 30.207 60.5 30.5 62.312 C30.66 63.293 30.82 64.274 30.985 65.284 C32.545 75.474 33.432 85.711 34.305 95.978 C34.561 98.978 34.824 101.976 35.088 104.975 C35.96 115.02 36.731 125.053 37.155 135.128 C37.353 139.572 37.581 143.949 38.5 148.312 C40.822 150.295 42.776 151.687 45.375 153.188 C46.749 154.041 48.12 154.899 49.488 155.762 C50.168 156.186 50.849 156.611 51.549 157.048 C59.019 161.889 68.597 168.603 71.5 177.312 C72.282 187.479 67.196 193.692 61.012 201.094 C42.087 221.756 7.171 228.607 -19.5 230.312 C-57.932 231.641 -101.479 228.163 -131.5 201.312 C-137.13 195.462 -141.975 189.388 -142.691 181.098 C-142.495 174.354 -139.229 170.8 -134.5 166.312 C-133.957 165.762 -133.415 165.212 -132.855 164.645 C-129.601 161.552 -126.62 159.29 -122.448 157.607 C-117.315 155.326 -112.936 152.857 -109.5 148.312 C-106.232 139.451 -106.441 129.57 -106.19 120.215 C-106.083 116.782 -105.896 113.354 -105.711 109.924 C-105.497 105.892 -105.287 101.86 -105.113 97.826 C-103.584 63.942 -100.251 26.212 -74.062 2 C-67.188 -3.607 -58.983 -6.485 -50.5 -8.688 C-49.872 -8.86 -49.245 -9.033 -48.598 -9.211 C-32.513 -12.864 -13.706 -8.525 0 0 Z M-77.5 12.312 C-78.077 12.867 -78.655 13.421 -79.25 13.992 C-99.462 35.152 -98.306 75.678 -100.688 102.875 C-100.772 103.84 -100.857 104.805 -100.944 105.799 C-101.9 116.797 -102.712 127.784 -103.149 138.816 C-103.514 147.455 -103.514 147.455 -104.5 151.312 C-106.817 153.046 -108.84 154.311 -111.375 155.625 C-121.137 161.081 -131.28 167.768 -137.5 177.312 C-138.552 181.433 -137.351 183.962 -135.5 187.625 C-129.88 196.966 -122.971 203.029 -113.5 208.312 C-112.562 208.837 -111.623 209.362 -110.656 209.902 C-91.908 219.806 -69.624 224.669 -48.5 225.312 C-49.073 215.434 -50.151 205.732 -51.562 195.938 C-51.751 194.604 -51.939 193.271 -52.127 191.938 C-52.58 188.729 -53.038 185.52 -53.5 182.312 C-52.547 182.475 -51.595 182.637 -50.613 182.805 C-45.971 183.465 -41.369 183.462 -36.688 183.438 C-35.364 183.435 -35.364 183.435 -34.015 183.432 C-28.118 183.392 -22.351 183.093 -16.5 182.312 C-16.83 183.303 -17.16 184.293 -17.5 185.312 C-17.859 187.904 -18.181 190.487 -18.473 193.086 C-18.604 194.227 -18.604 194.227 -18.737 195.391 C-18.921 197 -19.104 198.609 -19.284 200.218 C-19.561 202.672 -19.843 205.125 -20.127 207.578 C-20.305 209.143 -20.483 210.708 -20.66 212.273 C-20.787 213.369 -20.787 213.369 -20.916 214.487 C-21.319 218.114 -21.596 221.663 -21.5 225.312 C6.935 224.113 39.271 216.551 59.5 195.312 C65.426 187.619 65.426 187.619 66.5 178.312 C60.617 166.279 45.136 157.13 33.5 151.312 C32.33 146.402 32.251 141.402 32.051 136.379 C31.535 124.979 30.658 113.619 29.688 102.25 C29.6 101.224 29.513 100.199 29.423 99.142 C26.359 48.346 26.359 48.346 0.535 6.543 C-22.675 -12.205 -57.178 -7.939 -77.5 12.312 Z " fill="#F7F7F7" transform="translate(547.5,577.6875)"/>
<path d="M0 0 C11.072 7.006 15.016 18.66 18.133 30.82 C21.775 50.247 20.761 75.532 9.43 92.348 C7.729 94.57 5.957 96.699 4.133 98.82 C3.349 99.852 2.565 100.883 1.758 101.945 C-3.308 107.493 -9.535 113.341 -17.223 114.191 C-29.244 114.4 -35.22 111.706 -43.93 103.383 C-58.468 88.694 -63.645 69.317 -64.18 49.008 C-63.967 37.213 -63.142 23.848 -54.258 15.266 C-41.183 4.482 -16.893 -6.951 0 0 Z M-53.723 21.062 C-61.533 33.058 -60.14 53.198 -57.68 66.695 C-55.296 77.119 -51.344 86.301 -44.867 94.82 C-44.344 95.509 -43.82 96.197 -43.281 96.906 C-38.502 102.763 -32.671 108.92 -24.992 110.359 C-15.725 110.636 -10.066 106.69 -3.461 100.523 C9.616 86.895 13.772 71.179 15.133 52.82 C15.258 51.519 15.258 51.519 15.387 50.191 C16.096 37.036 12.103 19.488 3.633 9.32 C0.523 5.872 -1.988 4.122 -6.617 3.379 C-21.979 2.807 -43.135 9.407 -53.723 21.062 Z " fill="#F6F6F6" transform="translate(533.8671875,606.1796875)"/>
<path d="M0 0 C4.417 -0.029 8.833 -0.047 13.25 -0.062 C15.131 -0.075 15.131 -0.075 17.051 -0.088 C18.859 -0.093 18.859 -0.093 20.703 -0.098 C22.368 -0.106 22.368 -0.106 24.067 -0.114 C26.592 -0.016 28.635 0.132 31 1 C33.999 5.973 33.743 12.398 34.211 18.051 C34.719 23.617 35.217 28.001 39.062 32.312 C41.68 35.944 41.7 38.572 42 43 C40.02 43.495 40.02 43.495 38 44 C37.685 43.313 37.371 42.626 37.047 41.918 C36.619 41.017 36.191 40.116 35.75 39.188 C35.124 37.848 35.124 37.848 34.484 36.48 C33.205 33.891 33.205 33.891 30.871 32.754 C28.156 30.209 28.464 27.933 28.342 24.324 C28.332 23.475 28.322 22.625 28.312 21.75 C28.27 20.078 28.224 18.406 28.176 16.734 C28.165 15.994 28.153 15.254 28.142 14.491 C27.961 11.31 27.451 8.155 27 5 C18.09 4.67 9.18 4.34 0 4 C0 2.68 0 1.36 0 0 Z " fill="#F2F2F2" transform="translate(481,633)"/>
<path d="M0 0 C0.848 0.217 1.696 0.433 2.57 0.656 C16.009 3.846 27.618 3.734 41 0 C41 1.65 41 3.3 41 5 C39.273 5.65 37.543 6.295 35.812 6.938 C34.85 7.297 33.887 7.657 32.895 8.027 C21.883 11.728 12.769 9.561 2 6 C1.34 5.67 0.68 5.34 0 5 C0 3.35 0 1.7 0 0 Z " fill="#F2F2F2" transform="translate(492,749)"/>
<path d="M0 0 C1.533 3.065 1.103 6.268 1.062 9.625 C1.058 10.331 1.053 11.038 1.049 11.766 C1.037 13.51 1.019 15.255 1 17 C-2.508 18.604 -5.144 19.22 -9 19 C-9.135 16.394 -9.234 13.795 -9.312 11.188 C-9.354 10.45 -9.396 9.712 -9.439 8.951 C-9.488 6.793 -9.488 6.793 -9 3 C-5.792 0.157 -4.338 0 0 0 Z " fill="#F6F6F6" transform="translate(495,714)"/>
<path d="M0 0 C2.695 0.284 4.53 0.664 6.75 2.25 C10.122 6.971 9.097 13.459 9 19 C1.25 18.125 1.25 18.125 -1 17 C-1.027 14.354 -1.047 11.708 -1.062 9.062 C-1.071 8.308 -1.079 7.553 -1.088 6.775 C-1.097 4.85 -1.052 2.925 -1 1 C-0.67 0.67 -0.34 0.34 0 0 Z " fill="#F7F7F7" transform="translate(530,714)"/>
<path d="M0 0 C6.6 0 13.2 0 20 0 C20.33 1.32 20.66 2.64 21 4 C13.41 4 5.82 4 -2 4 C-1.34 2.68 -0.68 1.36 0 0 Z " fill="#F9F9F9" transform="translate(522,633)"/>
<path d="M0 0 C0.75 0.005 1.499 0.009 2.271 0.014 C4.119 0.025 5.966 0.043 7.812 0.062 C7.062 4.812 7.062 4.812 4.812 7.062 C0.257 6.507 0.257 6.507 -1.188 5.062 C-2.702 4.831 -4.225 4.65 -5.75 4.5 C-6.576 4.416 -7.403 4.332 -8.254 4.246 C-8.892 4.186 -9.53 4.125 -10.188 4.062 C-10.517 3.072 -10.848 2.082 -11.188 1.062 C-7.424 -0.192 -3.915 -0.044 0 0 Z " fill="#F1F1F1" transform="translate(516.1875,686.9375)"/>
<path d="M0 0 C2.858 2.858 2.408 5.147 2.625 9.125 C2.7 10.406 2.775 11.688 2.852 13.008 C2.901 13.995 2.95 14.983 3 16 C0.791 15.858 -1.417 15.711 -3.625 15.562 C-4.855 15.481 -6.085 15.4 -7.352 15.316 C-10.615 15.033 -13.779 14.59 -17 14 C-11.758 10.497 -5.806 12.955 0 14 C0 9.38 0 4.76 0 0 Z " fill="#252425" transform="translate(496,787)"/>
<path d="M0 0 C0.66 0.33 1.32 0.66 2 1 C2.414 3.285 2.414 3.285 2.625 6.062 C2.7 6.982 2.775 7.901 2.852 8.848 C2.901 9.558 2.95 10.268 3 11 C2.01 10.67 1.02 10.34 0 10 C-1.7 9.918 -3.403 9.893 -5.105 9.902 C-6.58 9.907 -6.58 9.907 -8.084 9.912 C-9.62 9.925 -9.62 9.925 -11.188 9.938 C-12.223 9.942 -13.259 9.947 -14.326 9.951 C-16.884 9.963 -19.442 9.979 -22 10 C-22 9.67 -22 9.34 -22 9 C-14.74 8.67 -7.48 8.34 0 8 C-0.33 7.01 -0.66 6.02 -1 5 C-3.475 4.505 -3.475 4.505 -6 4 C-6 3.67 -6 3.34 -6 3 C-4.02 3 -2.04 3 0 3 C0 2.01 0 1.02 0 0 Z " fill="#070808" transform="translate(543,629)"/>
<path d="M0 0 C2.149 0.421 4.294 0.863 6.438 1.312 C8.23 1.678 8.23 1.678 10.059 2.051 C11.029 2.364 12 2.677 13 3 C13.33 3.99 13.66 4.98 14 6 C8.848 6.09 4.081 5.847 -1 5 C-0.67 3.35 -0.34 1.7 0 0 Z " fill="#1B1A1A" transform="translate(495,755)"/>
<path d="M0 0 C1.32 0 2.64 0 4 0 C4.33 3.3 4.66 6.6 5 10 C3.35 10 1.7 10 0 10 C-1.37 7.261 -1.126 5.029 -1 2 C-0.67 1.34 -0.34 0.68 0 0 Z " fill="#F4F4F4" transform="translate(501,667)"/>
<path d="M0 0 C0.33 0 0.66 0 1 0 C2.771 20.458 2.771 20.458 1 24 C0.34 24 -0.32 24 -1 24 C-1.167 15.958 -0.647 8.014 0 0 Z " fill="#242324" transform="translate(446,689)"/>
<path d="M0 0 C2.625 0.375 2.625 0.375 5 1 C5.33 2.32 5.66 3.64 6 5 C3 7 3 7 0.812 6.625 C0.214 6.419 -0.384 6.212 -1 6 C-1.625 4.125 -1.625 4.125 -2 2 C-1.34 1.34 -0.68 0.68 0 0 Z " fill="#F7F7F7" transform="translate(530,646)"/>
<path d="M0 0 C1.207 0.031 1.207 0.031 2.438 0.062 C3.062 2.438 3.062 2.438 3.438 5.062 C2.777 5.722 2.118 6.383 1.438 7.062 C-1.188 6.688 -1.188 6.688 -3.562 6.062 C-3.605 4.396 -3.603 2.729 -3.562 1.062 C-2.562 0.062 -2.562 0.062 0 0 Z " fill="#F7F8F8" transform="translate(491.5625,645.9375)"/>
<path d="M0 0 C-3.929 1.851 -6.988 2.22 -11.312 2.125 C-12.381 2.107 -13.45 2.089 -14.551 2.07 C-15.359 2.047 -16.167 2.024 -17 2 C-17.33 1.34 -17.66 0.68 -18 0 C-15.753 -0.391 -13.502 -0.762 -11.25 -1.125 C-9.997 -1.334 -8.744 -1.543 -7.453 -1.758 C-4.07 -1.995 -2.744 -1.871 0 0 Z " fill="#0C0C0C" transform="translate(526,759)"/>
<path d="M0 0 C0.33 0 0.66 0 1 0 C1 5.28 1 10.56 1 16 C0.34 16 -0.32 16 -1 16 C-1.221 13.71 -1.427 11.418 -1.625 9.125 C-1.741 7.849 -1.857 6.573 -1.977 5.258 C-1.988 3.645 -1.988 3.645 -2 2 C-1.34 1.34 -0.68 0.68 0 0 Z " fill="#090808" transform="translate(528,714)"/>
<path d="M0 0 C2.275 3.539 1.991 5.709 1.125 9.75 C0.921 10.735 0.718 11.72 0.508 12.734 C0.34 13.482 0.173 14.23 0 15 C-0.99 15 -1.98 15 -3 15 C-2.689 13.25 -2.376 11.5 -2.062 9.75 C-1.888 8.775 -1.714 7.801 -1.535 6.797 C-1.096 4.503 -0.597 2.257 0 0 Z " fill="#1F1F1E" transform="translate(456,616)"/>
<path d="M0 0 C1.65 0.99 3.3 1.98 5 3 C4.01 3.495 4.01 3.495 3 4 C2.53 7.046 2.53 7.046 2.375 10.562 C2.3 11.76 2.225 12.958 2.148 14.191 C2.099 15.118 2.05 16.045 2 17 C1.67 17 1.34 17 1 17 C0.67 11.39 0.34 5.78 0 0 Z " fill="#080808" transform="translate(495,714)"/>
<path d="M0 0 C0.33 0.66 0.66 1.32 1 2 C-0.644 6.672 -2.185 9.711 -6 13 C-6.66 12.67 -7.32 12.34 -8 12 C-5.36 8.04 -2.72 4.08 0 0 Z " fill="#0B0B0B" transform="translate(547,691)"/>
<path d="M0 0 C0.33 0 0.66 0 1 0 C1.249 2.269 1.473 4.54 1.688 6.812 C1.815 8.077 1.943 9.342 2.074 10.645 C2 14 2 14 -1 17 C-0.67 11.39 -0.34 5.78 0 0 Z " fill="#1B1B1B" transform="translate(440,673)"/>
<path d="M0 0 C0.66 0.33 1.32 0.66 2 1 C2.25 8.625 2.25 8.625 0 12 C-0.194 10.188 -0.38 8.376 -0.562 6.562 C-0.667 5.553 -0.771 4.544 -0.879 3.504 C-0.919 2.678 -0.959 1.851 -1 1 C-0.67 0.67 -0.34 0.34 0 0 Z " fill="#1E1E1E" transform="translate(578,636)"/>
<path d="M0 0 C0.33 0 0.66 0 1 0 C1 2.97 1 5.94 1 9 C0.01 8.67 -0.98 8.34 -2 8 C-2 6.02 -2 4.04 -2 2 C-1.34 2 -0.68 2 0 2 C0 1.34 0 0.68 0 0 Z " fill="#1E1E1E" transform="translate(451,655)"/>
<path d="M0 0 C0.66 0.33 1.32 0.66 2 1 C2 2.98 2 4.96 2 7 C1.01 7 0.02 7 -1 7 C-1.043 5 -1.041 3 -1 1 C-0.67 0.67 -0.34 0.34 0 0 Z " fill="#1A191A" transform="translate(411,754)"/>
<path d="M0 0 C0.66 0.33 1.32 0.66 2 1 C1.01 4.3 0.02 7.6 -1 11 C-1.33 11 -1.66 11 -2 11 C-2.286 3.571 -2.286 3.571 0 0 Z " fill="#0D0C0C" transform="translate(479,631)"/>
<path d="M0 0 C2.152 3.228 2.201 4.284 2 8 C1.01 8 0.02 8 -1 8 C-1.125 2.25 -1.125 2.25 0 0 Z " fill="#242323" transform="translate(528,786)"/>
<path d="M0 0 C0.33 0 0.66 0 1 0 C1.33 3.96 1.66 7.92 2 12 C1.01 12 0.02 12 -1 12 C-0.67 8.04 -0.34 4.08 0 0 Z " fill="#1C1C1C" transform="translate(451,640)"/>
<path d="M0 0 C0.66 0.33 1.32 0.66 2 1 C1.01 2.485 1.01 2.485 0 4 C0.99 4.33 1.98 4.66 3 5 C1.02 5 -0.96 5 -3 5 C-3.33 4.01 -3.66 3.02 -4 2 C-2.125 0.938 -2.125 0.938 0 0 Z " fill="#201F20" transform="translate(528,755)"/>
<path d="M0 0 C1.883 3.767 2.221 5.03 2 9 C1.01 9 0.02 9 -1 9 C-0.67 6.03 -0.34 3.06 0 0 Z " fill="#1A1A1A" transform="translate(553,663)"/>
<path d="M0 0 C0.66 0.33 1.32 0.66 2 1 C0.875 2.562 0.875 2.562 -1 4 C-4.188 3.688 -4.188 3.688 -7 3 C-4.668 1.794 -2.504 0.835 0 0 Z " fill="#191A1A" transform="translate(571,799)"/>
</svg>
