<?xml version="1.0" encoding="UTF-8"?>
<!-- Generator: visioncortex VTracer 0.6.4 -->
<svg version="1.1" xmlns="http://www.w3.org/2000/svg" width="1024" height="1024">
<path d="M0 0 C337.92 0 675.84 0 1024 0 C1024 337.92 1024 675.84 1024 1024 C686.08 1024 348.16 1024 0 1024 C0 686.08 0 348.16 0 0 Z " fill="#FDFAF2" transform="translate(0,0)"/>
<path d="M0 0 C5.499 3.557 8.331 9.015 11.25 14.688 C11.579 15.322 11.909 15.956 12.248 16.61 C15.11 22.496 16.569 28.635 18 35 C19.587 35.038 19.587 35.038 21.206 35.076 C25.187 35.171 29.168 35.271 33.149 35.372 C34.861 35.415 36.574 35.457 38.287 35.497 C76.787 36.409 76.787 36.409 89.375 49.25 C102.34 64.814 104.11 83.422 103 103 C102.734 105.351 102.384 107.664 102 110 C102.66 110 103.32 110 104 110 C104.928 123.67 105.214 137.319 105.388 151.017 C105.476 157.756 105.577 164.495 105.684 171.234 C105.695 171.947 105.706 172.66 105.718 173.395 C105.978 189.507 106.419 205.613 106.866 221.721 C107.977 261.811 108.709 301.896 109 342 C109.011 343.45 109.011 343.45 109.022 344.929 C109.122 358.723 109.192 372.517 109.23 386.311 C109.242 390.48 109.26 394.649 109.284 398.818 C109.312 403.74 109.324 408.662 109.324 413.584 C109.327 415.39 109.334 417.195 109.348 419.001 C109.457 434.821 107.93 450.043 102.625 465.062 C102.347 465.907 102.068 466.752 101.781 467.623 C98.012 478.649 92.174 489.801 81.75 495.812 C68.092 501.951 51.411 502.928 36.633 503.5 C35.641 503.541 34.649 503.581 33.627 503.623 C31.521 503.709 29.415 503.793 27.309 503.875 C24.224 503.996 21.139 504.123 18.055 504.25 C12.569 504.473 7.082 504.677 1.595 504.871 C-0.812 504.957 -3.219 505.047 -5.626 505.139 C-33.024 506.174 -60.42 506.154 -87.834 506.13 C-94.317 506.125 -100.8 506.128 -107.282 506.134 C-137.021 506.156 -166.741 505.904 -196.474 505.313 C-209.757 505.049 -223.039 504.869 -236.324 504.754 C-238.137 504.737 -239.951 504.72 -241.764 504.703 C-248.901 504.638 -256.039 504.573 -263.176 504.523 C-332.106 504.027 -332.106 504.027 -347.73 489.453 C-348.479 488.644 -349.228 487.834 -350 487 C-350.513 486.508 -351.026 486.015 -351.555 485.508 C-364.61 471.835 -367.102 451.011 -367.205 433.014 C-367.22 431.392 -367.22 431.392 -367.235 429.738 C-367.267 426.148 -367.292 422.558 -367.316 418.969 C-367.337 416.422 -367.358 413.875 -367.38 411.328 C-367.436 404.48 -367.485 397.631 -367.533 390.783 C-367.562 386.478 -367.594 382.173 -367.626 377.869 C-367.936 335.478 -368.215 293.087 -368.063 250.694 C-368.02 238.847 -367.993 227 -367.981 215.152 C-367.963 198.832 -367.926 182.511 -367.865 166.191 C-367.833 157.478 -367.808 148.766 -367.805 140.053 C-367.802 132.588 -367.782 125.123 -367.74 117.657 C-367.719 113.791 -367.705 109.924 -367.714 106.058 C-367.721 102.459 -367.705 98.861 -367.672 95.262 C-367.66 93.353 -367.672 91.444 -367.686 89.534 C-367.515 76.438 -363.466 64.79 -356 54 C-355.423 53.113 -354.845 52.226 -354.25 51.312 C-341.63 38.342 -324.807 37.397 -307.75 36.25 C-306.061 36.125 -304.372 35.999 -302.684 35.871 C-290.955 35 -290.955 35 -287 35 C-285.805 32.086 -284.688 29.155 -283.633 26.188 C-283.387 25.504 -283.14 24.821 -282.887 24.117 C-282.38 22.708 -281.88 21.297 -281.387 19.883 C-279.183 13.831 -276.52 9.529 -270.75 6.312 C-268.661 5.187 -268.661 5.187 -267 4 C-267 3.34 -267 2.68 -267 2 C-258.181 -2.717 -247.22 -3.717 -237.422 -1.387 C-230.792 1.576 -225.714 7.546 -223.125 14.25 C-221.637 19.209 -220.801 23.562 -220.438 28.75 C-220.354 29.92 -220.27 31.091 -220.184 32.297 C-220.123 33.189 -220.062 34.081 -220 35 C-204.729 35.031 -189.458 35.051 -174.188 35.062 C-173.052 35.063 -171.917 35.064 -170.747 35.065 C-138.89 35.086 -107.041 34.97 -75.188 34.5 C-74.377 34.488 -73.567 34.476 -72.732 34.464 C-63.154 34.321 -53.577 34.168 -44 34 C-43.738 32.762 -43.476 31.523 -43.206 30.247 C-42.853 28.607 -42.499 26.968 -42.145 25.328 C-41.973 24.514 -41.802 23.699 -41.625 22.86 C-39.815 14.542 -37.012 7.674 -30.152 2.285 C-20.563 -3.441 -10.138 -4.951 0 0 Z " fill="#7FE2FE" transform="translate(643,145)"/>
<path d="M0 0 C5.499 3.557 8.331 9.015 11.25 14.688 C11.579 15.322 11.909 15.956 12.248 16.61 C15.11 22.496 16.569 28.635 18 35 C19.587 35.038 19.587 35.038 21.206 35.076 C25.187 35.171 29.168 35.271 33.149 35.372 C34.861 35.415 36.574 35.457 38.287 35.497 C76.787 36.409 76.787 36.409 89.375 49.25 C102.34 64.814 104.11 83.422 103 103 C102.734 105.351 102.384 107.664 102 110 C102.66 110 103.32 110 104 110 C104.928 123.67 105.214 137.319 105.388 151.017 C105.476 157.756 105.577 164.495 105.684 171.234 C105.695 171.947 105.706 172.66 105.718 173.395 C105.978 189.507 106.419 205.613 106.866 221.721 C107.977 261.811 108.709 301.896 109 342 C109.011 343.45 109.011 343.45 109.022 344.929 C109.122 358.723 109.192 372.517 109.23 386.311 C109.242 390.48 109.26 394.649 109.284 398.818 C109.312 403.74 109.324 408.662 109.324 413.584 C109.327 415.39 109.334 417.195 109.348 419.001 C109.457 434.821 107.93 450.043 102.625 465.062 C102.347 465.907 102.068 466.752 101.781 467.623 C98.012 478.649 92.174 489.801 81.75 495.812 C68.092 501.951 51.411 502.928 36.633 503.5 C35.641 503.541 34.649 503.581 33.627 503.623 C31.521 503.709 29.415 503.793 27.309 503.875 C24.224 503.996 21.139 504.123 18.055 504.25 C12.569 504.473 7.082 504.677 1.595 504.871 C-0.812 504.957 -3.219 505.047 -5.626 505.139 C-33.024 506.174 -60.42 506.154 -87.834 506.13 C-94.317 506.125 -100.8 506.128 -107.282 506.134 C-137.021 506.156 -166.741 505.904 -196.474 505.313 C-209.757 505.049 -223.039 504.869 -236.324 504.754 C-238.137 504.737 -239.951 504.72 -241.764 504.703 C-248.901 504.638 -256.039 504.573 -263.176 504.523 C-332.106 504.027 -332.106 504.027 -347.73 489.453 C-348.479 488.644 -349.228 487.834 -350 487 C-350.513 486.508 -351.026 486.015 -351.555 485.508 C-364.61 471.835 -367.102 451.011 -367.205 433.014 C-367.22 431.392 -367.22 431.392 -367.235 429.738 C-367.267 426.148 -367.292 422.558 -367.316 418.969 C-367.337 416.422 -367.358 413.875 -367.38 411.328 C-367.436 404.48 -367.485 397.631 -367.533 390.783 C-367.562 386.478 -367.594 382.173 -367.626 377.869 C-367.936 335.478 -368.215 293.087 -368.063 250.694 C-368.02 238.847 -367.993 227 -367.981 215.152 C-367.963 198.832 -367.926 182.511 -367.865 166.191 C-367.833 157.478 -367.808 148.766 -367.805 140.053 C-367.802 132.588 -367.782 125.123 -367.74 117.657 C-367.719 113.791 -367.705 109.924 -367.714 106.058 C-367.721 102.459 -367.705 98.861 -367.672 95.262 C-367.66 93.353 -367.672 91.444 -367.686 89.534 C-367.515 76.438 -363.466 64.79 -356 54 C-355.423 53.113 -354.845 52.226 -354.25 51.312 C-341.63 38.342 -324.807 37.397 -307.75 36.25 C-306.061 36.125 -304.372 35.999 -302.684 35.871 C-290.955 35 -290.955 35 -287 35 C-285.805 32.086 -284.688 29.155 -283.633 26.188 C-283.387 25.504 -283.14 24.821 -282.887 24.117 C-282.38 22.708 -281.88 21.297 -281.387 19.883 C-279.183 13.831 -276.52 9.529 -270.75 6.312 C-268.661 5.187 -268.661 5.187 -267 4 C-267 3.34 -267 2.68 -267 2 C-258.181 -2.717 -247.22 -3.717 -237.422 -1.387 C-230.792 1.576 -225.714 7.546 -223.125 14.25 C-221.637 19.209 -220.801 23.562 -220.438 28.75 C-220.354 29.92 -220.27 31.091 -220.184 32.297 C-220.123 33.189 -220.062 34.081 -220 35 C-204.729 35.031 -189.458 35.051 -174.188 35.062 C-173.052 35.063 -171.917 35.064 -170.747 35.065 C-138.89 35.086 -107.041 34.97 -75.188 34.5 C-74.377 34.488 -73.567 34.476 -72.732 34.464 C-63.154 34.321 -53.577 34.168 -44 34 C-43.738 32.762 -43.476 31.523 -43.206 30.247 C-42.853 28.607 -42.499 26.968 -42.145 25.328 C-41.973 24.514 -41.802 23.699 -41.625 22.86 C-39.815 14.542 -37.012 7.674 -30.152 2.285 C-20.563 -3.441 -10.138 -4.951 0 0 Z M-354 142 C-354.664 149.894 -355.168 157.751 -355.312 165.671 C-355.333 166.667 -355.353 167.664 -355.374 168.691 C-355.44 172.006 -355.498 175.321 -355.555 178.637 C-355.576 179.812 -355.597 180.987 -355.618 182.198 C-356.199 215.565 -356.158 248.936 -356.127 282.307 C-356.125 284.832 -356.123 287.358 -356.121 289.883 C-356.106 310.611 -356.074 331.339 -356.025 352.067 C-356.023 352.816 -356.021 353.565 -356.02 354.337 C-356.018 355.075 -356.016 355.812 -356.014 356.573 C-356.003 361.28 -355.995 365.987 -355.988 370.695 C-355.971 382.906 -355.936 395.116 -355.845 407.327 C-355.821 410.64 -355.808 413.953 -355.805 417.266 C-356.003 451.163 -356.003 451.163 -340 480 C-330.383 487.703 -317.891 488.936 -305.965 489.496 C-305.112 489.536 -304.26 489.577 -303.381 489.619 C-287.449 490.327 -271.505 490.708 -255.562 491.062 C-254.085 491.096 -254.085 491.096 -252.577 491.129 C-202.669 492.228 -152.75 492.225 -102.832 492.245 C-95.081 492.248 -87.329 492.256 -79.578 492.265 C-68.912 492.278 -58.247 492.277 -47.581 492.269 C-43.62 492.266 -39.659 492.267 -35.697 492.272 C22.536 496.681 22.536 496.681 75.73 483.607 C80.165 479.092 82.577 473.077 85.191 467.402 C87 464 87 464 89.465 461.316 C95.906 453.901 96.719 443.014 97.25 433.625 C97.324 432.434 97.399 431.244 97.476 430.017 C98.886 404.522 98.122 379.069 96.646 353.6 C96.11 344.34 95.694 335.085 95.438 325.812 C95.409 324.785 95.409 324.785 95.38 323.737 C95.108 313.7 94.941 303.661 94.789 293.621 C94.714 288.664 94.638 283.707 94.562 278.75 C94.534 276.86 94.534 276.86 94.505 274.931 C94.184 254.29 93.557 233.673 92.729 213.047 C92.279 201.708 91.92 190.378 91.754 179.031 C91.736 177.909 91.719 176.786 91.701 175.629 C91.62 170.292 91.556 164.956 91.518 159.618 C91.493 157.731 91.467 155.844 91.441 153.957 C91.441 153.103 91.441 152.248 91.441 151.368 C91.421 150.19 91.421 150.19 91.401 148.988 C91.396 148.31 91.39 147.632 91.385 146.933 C90.854 144.266 89.866 142.974 88 141 C85.553 140.403 85.553 140.403 82.735 140.505 C81.636 140.496 80.537 140.488 79.405 140.479 C78.193 140.49 76.98 140.501 75.731 140.512 C74.445 140.508 73.16 140.504 71.835 140.5 C68.256 140.489 64.676 140.503 61.097 140.521 C57.234 140.536 53.371 140.528 49.508 140.523 C41.906 140.517 34.304 140.532 26.701 140.554 C17.746 140.579 8.79 140.582 -0.165 140.584 C-16.281 140.587 -32.396 140.61 -48.512 140.643 C-63.897 140.675 -79.283 140.697 -94.669 140.705 C-95.602 140.705 -96.535 140.706 -97.497 140.706 C-101.256 140.708 -105.015 140.71 -108.774 140.712 C-190.52 140.754 -272.259 141.014 -354 142 Z " fill="#2F2D2E" transform="translate(643,145)"/>
<path d="M0 0 C3.764 -0.002 7.528 -0.004 11.291 -0.006 C12.225 -0.006 13.159 -0.007 14.121 -0.007 C29.538 -0.016 44.954 -0.042 60.371 -0.073 C76.422 -0.106 92.472 -0.125 108.523 -0.128 C117.45 -0.13 126.377 -0.139 135.305 -0.164 C142.817 -0.186 150.329 -0.194 157.841 -0.184 C161.662 -0.18 165.483 -0.182 169.304 -0.201 C173.433 -0.222 177.562 -0.212 181.691 -0.198 C182.904 -0.209 184.116 -0.22 185.366 -0.232 C186.464 -0.223 187.563 -0.215 188.695 -0.206 C190.122 -0.207 190.122 -0.207 191.578 -0.209 C193.96 0.289 193.96 0.289 195.765 2.199 C197.058 4.459 197.342 5.699 197.361 8.277 C197.381 9.455 197.381 9.455 197.402 10.657 C197.402 11.511 197.402 12.366 197.402 13.246 C197.414 14.155 197.427 15.064 197.44 16 C197.466 17.985 197.486 19.969 197.5 21.954 C197.54 27.41 197.629 32.865 197.714 38.321 C197.731 39.466 197.748 40.612 197.765 41.793 C197.943 53.106 198.37 64.404 198.824 75.708 C199.657 96.484 200.208 117.25 200.523 138.039 C200.542 139.294 200.561 140.549 200.581 141.841 C200.655 146.714 200.729 151.587 200.803 156.46 C200.95 166.008 201.132 175.555 201.398 185.102 C201.417 185.779 201.435 186.456 201.455 187.154 C201.725 196.542 202.201 205.91 202.745 215.285 C208.038 306.654 208.038 306.654 193.225 323.678 C190.596 327.028 188.915 330.984 187.087 334.811 C184.26 340.426 180.95 344.264 174.8 346.373 C170.61 347.373 166.621 347.814 162.335 348.106 C161.512 348.167 160.689 348.228 159.84 348.292 C158.096 348.42 156.351 348.545 154.606 348.667 C152.023 348.847 149.441 349.039 146.859 349.233 C141.562 349.623 136.262 349.962 130.96 350.289 C130.185 350.337 129.41 350.386 128.612 350.435 C108.793 351.607 88.945 351.453 69.101 351.456 C65.029 351.458 60.957 351.462 56.885 351.466 C43.785 351.48 30.685 351.48 17.584 351.477 C14.211 351.477 10.838 351.477 7.465 351.477 C-99.293 351.489 -99.293 351.489 -149.602 350.352 C-150.578 350.33 -151.554 350.308 -152.56 350.286 C-168.352 349.929 -184.146 349.531 -199.926 348.805 C-200.666 348.772 -201.405 348.74 -202.167 348.706 C-214.774 348.044 -226.302 345.724 -236.04 337.289 C-242.175 329.764 -244.818 321.609 -247.04 312.289 C-247.378 311.173 -247.717 310.057 -248.065 308.907 C-249.531 302.99 -249.398 297.014 -249.454 290.949 C-249.473 289.544 -249.492 288.138 -249.513 286.732 C-249.566 282.784 -249.605 278.836 -249.641 274.888 C-249.665 272.332 -249.692 269.776 -249.72 267.221 C-250.137 228.721 -250.145 190.217 -250.161 151.716 C-250.163 146.687 -250.166 141.658 -250.171 136.63 C-250.198 103.725 -250.18 70.826 -249.594 37.926 C-249.575 36.792 -249.556 35.657 -249.535 34.488 C-249.479 31.312 -249.417 28.136 -249.352 24.96 C-249.335 24.062 -249.319 23.164 -249.302 22.238 C-249.143 15.233 -248.627 8.271 -248.04 1.289 C-165.361 0.292 -82.684 0.042 0 0 Z M144.421 39.953 C134.366 41.251 124.306 41.585 114.183 41.817 C113.418 41.834 112.653 41.852 111.864 41.871 C104.659 42.036 97.454 42.18 90.249 42.318 C85.497 42.411 80.746 42.514 75.996 42.629 C74.821 42.657 74.821 42.657 73.624 42.686 C60.079 43.032 46.624 43.969 33.137 45.254 C18.31 46.653 3.341 47.201 -11.509 45.785 C-21.473 45.005 -31.454 45.145 -41.442 45.156 C-43.645 45.156 -45.848 45.155 -48.051 45.154 C-52.676 45.152 -57.302 45.154 -61.927 45.159 C-67.705 45.164 -73.483 45.161 -79.26 45.155 C-102.276 45.136 -125.283 45.24 -148.294 45.735 C-149.226 45.754 -150.158 45.773 -151.118 45.793 C-160.418 45.993 -169.708 46.274 -178.996 46.769 C-180.096 46.827 -180.096 46.827 -181.219 46.885 C-189.876 47.22 -189.876 47.22 -197.74 50.439 C-199.717 53.254 -199.405 55.604 -199.394 59.013 C-199.396 59.701 -199.397 60.389 -199.399 61.097 C-199.402 63.409 -199.383 65.72 -199.364 68.031 C-199.362 69.688 -199.361 71.344 -199.361 73 C-199.358 76.577 -199.346 80.153 -199.326 83.73 C-199.295 89.424 -199.285 95.117 -199.277 100.811 C-199.263 109.863 -199.234 118.915 -199.199 127.966 C-199.138 144.048 -199.099 160.13 -199.068 176.212 C-199.056 181.831 -199.038 187.45 -199.014 193.068 C-198.943 210.745 -198.991 228.406 -199.477 246.077 C-199.506 247.182 -199.506 247.182 -199.536 248.31 C-199.923 262.377 -200.721 276.398 -203.04 290.289 C-203.502 295.706 -203.653 299.902 -200.04 304.289 C-196.281 308.107 -191.96 308.015 -186.891 308.422 C-186.001 308.504 -185.111 308.586 -184.194 308.671 C-181.352 308.931 -178.508 309.173 -175.665 309.414 C-172.828 309.666 -169.993 309.922 -167.157 310.179 C-165.394 310.337 -163.631 310.492 -161.868 310.643 C-158.557 310.931 -155.303 311.245 -152.024 311.799 C-147.987 312.462 -143.951 312.727 -139.872 313.008 C-138.996 313.071 -138.121 313.134 -137.219 313.198 C-134.43 313.398 -131.641 313.594 -128.852 313.789 C-126.081 313.985 -123.31 314.182 -120.539 314.38 C-118.821 314.503 -117.102 314.624 -115.383 314.744 C-111.263 315.036 -107.153 315.373 -103.043 315.78 C-96.724 316.357 -90.412 316.603 -84.071 316.805 C-82.815 316.846 -81.558 316.888 -80.264 316.93 C-76.097 317.066 -71.93 317.192 -67.762 317.317 C-67.038 317.339 -66.314 317.361 -65.569 317.383 C-29.213 318.482 7.14 318.69 43.51 318.832 C56.129 318.881 68.748 318.941 81.368 319.007 C86.044 319.032 90.72 319.051 95.397 319.067 C122.322 319.162 122.322 319.162 135.516 320.073 C140.334 320.375 145.136 320.385 149.96 320.289 C151.358 317.643 152.677 314.991 153.96 312.289 C154.33 311.561 154.7 310.833 155.081 310.082 C157.826 303.86 158.331 297.969 158.566 291.272 C158.623 289.822 158.623 289.822 158.682 288.342 C159.063 277.958 159.101 267.579 159.09 257.189 C159.091 255.08 159.093 252.972 159.095 250.863 C159.1 245.208 159.098 239.553 159.095 233.899 C159.092 227.938 159.095 221.978 159.096 216.018 C159.098 206.017 159.096 196.016 159.091 186.016 C159.085 174.504 159.087 162.992 159.093 151.48 C159.097 141.539 159.098 131.598 159.095 121.656 C159.094 115.744 159.093 109.831 159.097 103.919 C159.1 98.359 159.097 92.798 159.092 87.238 C159.09 85.215 159.091 83.191 159.093 81.168 C159.103 71.137 158.99 61.132 158.515 51.112 C158.457 49.844 158.457 49.844 158.397 48.552 C158.223 45.265 158.006 42.426 156.96 39.289 C152.71 39.206 148.635 39.397 144.421 39.953 Z " fill="#FCFAF2" transform="translate(537.0396461486816,285.71073722839355)"/>
<path d="M0 0 C0 1.32 0 2.64 0 4 C1.155 3.505 2.31 3.01 3.5 2.5 C10.521 0.152 17.712 0.741 25 1 C26.089 0.985 27.179 0.969 28.301 0.953 C34.919 1.061 34.919 1.061 37.641 3.426 C39.101 5.551 40.049 7.603 41 10 C41.354 10.847 41.709 11.694 42.074 12.566 C44.65 19.451 45.895 26.426 46.874 33.681 C47.539 38.324 48.666 41.854 51 46 C51.289 46.743 51.577 47.485 51.875 48.25 C53.517 50.804 55.112 51.078 58 52 C58.926 52.389 58.926 52.389 59.871 52.785 C68.541 56.205 78.363 56.421 87.074 52.965 C93.592 49.699 97.328 44.623 100 38 C102 30.219 102.825 22.42 103.625 14.438 C103.759 13.143 103.893 11.848 104.031 10.514 C104.359 7.343 104.682 4.172 105 1 C127.079 0.953 149.158 0.918 171.237 0.896 C181.488 0.886 191.74 0.872 201.991 0.849 C210.925 0.829 219.86 0.816 228.794 0.812 C233.525 0.809 238.257 0.803 242.988 0.789 C247.441 0.775 251.893 0.771 256.346 0.774 C257.981 0.773 259.616 0.769 261.25 0.762 C263.482 0.752 265.713 0.754 267.945 0.759 C269.194 0.758 270.443 0.756 271.73 0.754 C275.862 1.065 278.774 1.84 281.805 4.708 C283.439 7.843 283.258 10.151 283.117 13.672 C283.085 14.976 283.053 16.281 283.02 17.625 C282.952 19.683 282.875 21.741 282.788 23.799 C282.32 35.367 282.32 35.367 288 45 C288.934 46.075 288.934 46.075 289.887 47.172 C296.593 53.049 303.042 56.44 312.125 56.062 C318.601 55.214 323.057 53.19 327.492 48.383 C334.041 39.354 334.144 27.208 334.691 16.504 C335.176 11.002 335.982 5.018 340 1 C342.8 0.673 345.501 0.479 348.312 0.375 C349.175 0.341 350.038 0.306 350.927 0.271 C353.951 0.164 356.975 0.082 360 0 C361.196 -0.039 362.392 -0.079 363.624 -0.119 C367.457 -0.235 371.29 -0.31 375.125 -0.375 C376.345 -0.413 377.565 -0.451 378.822 -0.491 C388.11 -0.576 394.441 1.328 401.691 7.168 C402.309 7.834 402.926 8.501 403.562 9.188 C404.203 9.862 404.844 10.536 405.504 11.23 C407.932 14.102 408.01 14.799 407.812 18.75 C407.741 22.893 408.6 25.928 410 29.812 C414.661 44.882 412.466 62.503 411 78 C396.222 79.051 381.49 79.142 366.679 79.129 C364.068 79.131 361.458 79.133 358.847 79.135 C352.53 79.139 346.213 79.138 339.896 79.135 C334.747 79.133 329.598 79.133 324.449 79.134 C323.711 79.134 322.974 79.134 322.214 79.134 C320.714 79.135 319.215 79.135 317.715 79.135 C303.694 79.138 289.674 79.135 275.653 79.129 C263.696 79.125 251.739 79.126 239.782 79.13 C225.827 79.136 211.872 79.138 197.918 79.135 C196.42 79.134 194.922 79.134 193.424 79.134 C192.688 79.134 191.951 79.134 191.193 79.133 C186.074 79.132 180.955 79.134 175.836 79.136 C122.112 79.159 122.112 79.159 97.25 78.211 C88.26 77.877 79.285 77.969 70.293 78.121 C68.494 78.146 66.696 78.169 64.897 78.193 C60.257 78.254 55.617 78.323 50.977 78.395 C43.594 78.508 36.21 78.609 28.827 78.709 C27.022 78.734 25.216 78.758 23.411 78.784 C5.607 79.03 -12.195 79.063 -30 79 C-32.411 24.475 -32.411 24.475 -19.742 8.754 C-13.996 2.969 -8.163 -0.227 0 0 Z " fill="#1B96FE" transform="translate(319,194)"/>
<path d="M0 0 C7.815 -0.025 15.629 -0.043 23.444 -0.055 C26.104 -0.06 28.765 -0.067 31.426 -0.075 C35.241 -0.088 39.056 -0.093 42.871 -0.098 C44.668 -0.105 44.668 -0.105 46.501 -0.113 C48.153 -0.113 48.153 -0.113 49.838 -0.114 C50.812 -0.116 51.787 -0.118 52.792 -0.12 C55 0 55 0 56 1 C56.159 2.789 56.252 4.584 56.316 6.379 C56.379 8.087 56.379 8.087 56.444 9.829 C56.483 11.061 56.522 12.293 56.562 13.562 C56.605 14.811 56.647 16.06 56.691 17.347 C57.065 29.233 57.101 41.11 57 53 C51.238 53.025 45.477 53.043 39.715 53.055 C37.76 53.06 35.805 53.067 33.85 53.075 C10.338 53.178 10.338 53.178 3 52 C1.11 50.11 1.622 46.846 1.465 44.316 C1.422 43.628 1.379 42.94 1.335 42.23 C1.244 40.759 1.156 39.286 1.07 37.814 C0.941 35.63 0.802 33.447 0.662 31.264 C0.02 20.834 -0.104 10.448 0 0 Z " fill="#FBFAF2" transform="translate(348,411)"/>
<path d="M0 0 C5.743 -0.025 11.487 -0.043 17.23 -0.055 C19.178 -0.06 21.127 -0.067 23.075 -0.075 C46.839 -0.179 46.839 -0.179 55 1 C59.614 5.614 57.111 23.862 57.125 30.062 C57.132 31.847 57.132 31.847 57.139 33.667 C57.137 34.799 57.135 35.931 57.133 37.098 C57.132 38.114 57.131 39.129 57.129 40.176 C57.005 42.887 56.609 45.36 56 48 C45.453 48.952 34.975 49.186 24.391 49.185 C21.712 49.188 19.034 49.206 16.355 49.225 C14.648 49.228 12.941 49.23 11.234 49.23 C10.436 49.238 9.637 49.245 8.814 49.252 C3.229 49.229 3.229 49.229 1 47 C-0.317 41.094 -0.137 34.83 -0.098 28.809 C-0.096 27.978 -0.095 27.147 -0.093 26.291 C-0.088 23.673 -0.075 21.055 -0.062 18.438 C-0.057 16.648 -0.053 14.858 -0.049 13.068 C-0.038 8.712 -0.021 4.356 0 0 Z " fill="#FBFAF2" transform="translate(347,349)"/>
<path d="M0 0 C1.409 0.003 1.409 0.003 2.846 0.007 C3.907 0.007 4.968 0.007 6.062 0.007 C7.216 0.012 8.37 0.017 9.559 0.023 C10.734 0.024 11.909 0.025 13.12 0.027 C16.89 0.033 20.66 0.045 24.43 0.058 C26.979 0.063 29.528 0.067 32.077 0.071 C38.34 0.082 44.604 0.099 50.868 0.12 C54.859 12.093 54.054 27.044 54.055 39.558 C54.056 40.504 54.057 41.451 54.057 42.426 C54.003 48.985 54.003 48.985 52.868 50.12 C51.257 50.219 49.642 50.248 48.028 50.25 C46.481 50.254 46.481 50.254 44.903 50.259 C43.219 50.256 43.219 50.256 41.5 50.253 C39.782 50.255 39.782 50.255 38.029 50.256 C35.599 50.257 33.17 50.255 30.74 50.251 C27.016 50.245 23.291 50.251 19.567 50.257 C17.211 50.256 14.856 50.255 12.5 50.253 C11.382 50.255 10.263 50.257 9.11 50.259 C8.072 50.256 7.035 50.253 5.966 50.25 C5.052 50.249 4.138 50.248 3.196 50.247 C0.868 50.12 0.868 50.12 -2.132 49.12 C-2.132 47.14 -2.132 45.16 -2.132 43.12 C-1.472 43.12 -0.812 43.12 -0.132 43.12 C-0.223 42.061 -0.314 41.002 -0.408 39.911 C-0.746 35.964 -1.08 32.016 -1.414 28.069 C-1.559 26.364 -1.704 24.659 -1.851 22.954 C-2.061 20.496 -2.269 18.039 -2.476 15.581 C-2.542 14.825 -2.607 14.068 -2.675 13.289 C-3.014 9.224 -3.299 5.199 -3.132 1.12 C-2.132 0.12 -2.132 0.12 0 0 Z " fill="#FCFAF2" transform="translate(354.13233947753906,476.87974548339844)"/>
<path d="M0 0 C0.843 -0.003 1.686 -0.007 2.554 -0.01 C4.347 -0.015 6.139 -0.017 7.931 -0.017 C10.648 -0.019 13.365 -0.038 16.082 -0.057 C17.826 -0.06 19.569 -0.062 21.312 -0.062 C22.116 -0.07 22.919 -0.077 23.747 -0.084 C36.778 -0.033 36.778 -0.033 41.419 3.477 C43.007 5.594 43.072 6.762 43.092 9.392 C43.104 10.24 43.117 11.088 43.13 11.961 C43.127 12.874 43.124 13.786 43.121 14.727 C43.126 15.667 43.132 16.608 43.137 17.577 C43.143 19.567 43.142 21.557 43.134 23.546 C43.125 26.591 43.154 29.633 43.186 32.678 C43.187 34.611 43.187 36.544 43.184 38.477 C43.2 39.842 43.2 39.842 43.218 41.236 C43.177 44.92 43.06 47.47 41.31 50.749 C37.088 53.033 32.953 52.657 28.234 52.559 C27.219 52.553 26.204 52.547 25.158 52.541 C21.917 52.519 18.678 52.469 15.438 52.418 C13.24 52.398 11.042 52.38 8.844 52.363 C3.458 52.319 -1.927 52.252 -7.312 52.168 C-9.979 47.182 -9.583 42.149 -9.543 36.652 C-9.543 35.641 -9.542 34.629 -9.542 33.587 C-9.539 31.455 -9.531 29.324 -9.518 27.192 C-9.5 23.916 -9.498 20.64 -9.498 17.363 C-9.493 15.293 -9.487 13.223 -9.48 11.152 C-9.479 10.167 -9.478 9.182 -9.477 8.166 C-9.471 7.262 -9.464 6.357 -9.458 5.425 C-9.454 4.625 -9.45 3.825 -9.446 3.001 C-9.107 -1.648 -3.554 0.005 0 0 Z " fill="#FBFAF2" transform="translate(569.3125,475.83203125)"/>
<path d="M0 0 C0.698 -0.001 1.396 -0.002 2.115 -0.003 C3.604 -0.004 5.092 -0.002 6.581 0.002 C8.809 0.008 11.036 0.003 13.264 -0.004 C32.744 -0.016 32.744 -0.016 40.176 1.133 C43.043 4 42.636 6.996 42.809 10.852 C42.85 11.624 42.892 12.397 42.935 13.193 C43.021 14.833 43.103 16.474 43.181 18.115 C43.299 20.596 43.429 23.075 43.562 25.555 C44.737 48.011 44.737 48.011 43.176 51.133 C36.073 51.158 28.971 51.176 21.868 51.188 C19.45 51.193 17.032 51.2 14.614 51.208 C11.146 51.22 7.678 51.226 4.211 51.23 C3.122 51.236 2.034 51.241 0.912 51.246 C-0.589 51.246 -0.589 51.246 -2.121 51.246 C-3.45 51.25 -3.45 51.25 -4.806 51.253 C-6.824 51.133 -6.824 51.133 -7.824 50.133 C-7.923 48.603 -7.952 47.07 -7.954 45.537 C-7.957 44.559 -7.96 43.582 -7.963 42.574 C-7.961 41.511 -7.959 40.447 -7.957 39.352 C-7.958 38.268 -7.959 37.184 -7.96 36.067 C-7.961 33.771 -7.959 31.474 -7.955 29.177 C-7.949 25.648 -7.955 22.119 -7.961 18.59 C-7.96 16.365 -7.959 14.139 -7.957 11.914 C-7.959 10.851 -7.961 9.787 -7.963 8.691 C-7.96 7.714 -7.957 6.736 -7.954 5.729 C-7.953 4.863 -7.952 3.998 -7.951 3.107 C-7.662 -1.387 -3.652 0.003 0 0 Z " fill="#FCFAF2" transform="translate(633.82421875,411.8671875)"/>
<path d="M0 0 C7.387 -0.025 14.775 -0.043 22.162 -0.055 C24.677 -0.06 27.192 -0.067 29.708 -0.075 C33.314 -0.088 36.921 -0.093 40.527 -0.098 C42.226 -0.105 42.226 -0.105 43.958 -0.113 C45.52 -0.113 45.52 -0.113 47.113 -0.114 C48.035 -0.116 48.956 -0.118 49.906 -0.12 C52 0 52 0 53 1 C53.09 3.321 53.106 5.646 53.094 7.969 C53.09 8.682 53.087 9.395 53.083 10.13 C53.023 18.257 52.769 26.378 52.5 34.5 C52.452 36.017 52.403 37.534 52.355 39.051 C52.24 42.701 52.121 46.35 52 50 C49.675 51.162 48.139 51.2 45.547 51.316 C44.627 51.358 43.708 51.4 42.76 51.444 C41.27 51.502 41.27 51.502 39.75 51.562 C38.735 51.605 37.721 51.647 36.676 51.691 C26.117 52.096 15.564 52.101 5 52 C3.834 48.501 3.838 45.34 3.832 41.699 C3.829 40.985 3.825 40.271 3.822 39.536 C3.817 38.025 3.815 36.515 3.815 35.004 C3.813 32.706 3.794 30.409 3.775 28.111 C3.772 26.641 3.77 25.17 3.77 23.699 C3.762 23.018 3.755 22.336 3.748 21.634 C3.768 17.369 4.51 13.98 6 10 C6.237 7.716 6.237 7.716 6.125 5.625 C6.084 4.429 6.043 3.233 6 2 C3.03 1.505 3.03 1.505 0 1 C0 0.67 0 0.34 0 0 Z " fill="#FCFAF2" transform="translate(488,411)"/>
<path d="M0 0 C3.723 0.007 7.444 0.031 11.166 0.087 C13.467 0.121 15.768 0.148 18.068 0.171 C21.556 0.208 25.042 0.268 28.529 0.342 C29.941 0.369 31.353 0.39 32.765 0.403 C34.776 0.425 36.787 0.473 38.797 0.523 C40.559 0.555 40.559 0.555 42.357 0.587 C45.273 1.133 45.273 1.133 47.183 2.822 C48.553 5.726 48.482 7.526 48.199 10.719 C48.065 12.353 48.065 12.353 47.928 14.021 C47.815 15.171 47.702 16.322 47.586 17.508 C47.481 18.679 47.377 19.849 47.269 21.055 C46.96 24.417 46.624 27.775 46.273 31.133 C46.189 31.96 46.105 32.788 46.018 33.64 C44.673 46.264 44.673 46.264 41.273 50.133 C37.975 50.863 34.719 50.713 31.355 50.621 C30.383 50.614 29.411 50.607 28.409 50.6 C25.3 50.572 22.194 50.509 19.086 50.445 C16.98 50.42 14.874 50.397 12.768 50.377 C7.602 50.322 2.438 50.235 -2.727 50.133 C-3.921 47.745 -3.853 46.272 -3.856 43.607 C-3.859 42.67 -3.862 41.732 -3.866 40.766 C-3.863 39.751 -3.861 38.737 -3.859 37.691 C-3.86 36.653 -3.861 35.615 -3.862 34.546 C-3.863 32.349 -3.861 30.153 -3.857 27.956 C-3.852 24.581 -3.857 21.206 -3.863 17.83 C-3.863 15.701 -3.861 13.571 -3.859 11.441 C-3.861 10.425 -3.863 9.408 -3.866 8.361 C-3.862 7.426 -3.859 6.492 -3.856 5.529 C-3.855 4.702 -3.854 3.876 -3.854 3.024 C-3.648 -0.031 -3.088 0.15 0 0 Z " fill="#FCFAF2" transform="translate(429.7265625,346.8671875)"/>
<path d="M0 0 C19.8 0.495 19.8 0.495 40 1 C40.676 12.909 41.106 24.759 41.125 36.688 C41.13 37.875 41.134 39.063 41.139 40.286 C41.137 41.392 41.135 42.498 41.133 43.637 C41.132 44.624 41.131 45.611 41.129 46.628 C41 49 41 49 40 51 C24.16 51 8.32 51 -8 51 C-8 35.82 -8 20.64 -8 5 C-2 2 -2 2 0 2 C0 1.34 0 0.68 0 0 Z " fill="#FDFAF2" transform="translate(501,477)"/>
<path d="M0 0 C9.842 -0.147 9.842 -0.147 13.992 0.05 C15.788 1.847 15.124 4.285 15.131 6.677 C15.126 7.481 15.122 8.285 15.117 9.113 C15.113 9.942 15.11 10.772 15.106 11.627 C15.05 18.729 14.867 25.827 14.617 32.925 C14.586 33.953 14.555 34.98 14.523 36.039 C14.485 37.009 14.446 37.98 14.406 38.98 C14.374 39.838 14.343 40.697 14.311 41.581 C13.992 44.05 13.992 44.05 11.992 49.05 C-3.518 49.05 -19.028 49.05 -35.008 49.05 C-36.242 20.676 -36.242 20.676 -36.321 13.8 C-36.364 12.42 -36.364 12.42 -36.409 11.011 C-36.417 10.132 -36.425 9.253 -36.434 8.347 C-36.449 7.588 -36.463 6.828 -36.478 6.045 C-36.008 4.05 -36.008 4.05 -34.365 2.314 C-31.39 0.719 -29.242 0.62 -25.872 0.539 C-24.056 0.485 -24.056 0.485 -22.205 0.431 C-20.923 0.408 -19.641 0.386 -18.321 0.363 C-17.02 0.33 -15.719 0.297 -14.378 0.264 C-9.586 0.151 -4.793 0.08 0 0 Z " fill="#FCFAF2" transform="translate(529.00830078125,347.94970703125)"/>
<path d="M0 0 C1.406 -0.005 1.406 -0.005 2.841 -0.01 C4.363 -0.007 4.363 -0.007 5.916 -0.003 C6.954 -0.004 7.992 -0.005 9.061 -0.006 C11.258 -0.007 13.454 -0.005 15.651 -0.001 C19.026 0.004 22.402 -0.001 25.777 -0.007 C27.907 -0.007 30.036 -0.005 32.166 -0.003 C33.182 -0.005 34.199 -0.007 35.246 -0.01 C36.181 -0.006 37.115 -0.003 38.078 0 C38.905 0.001 39.732 0.002 40.583 0.002 C42.474 0.129 42.474 0.129 43.474 1.129 C43.577 2.484 43.613 3.844 43.62 5.203 C43.626 6.067 43.632 6.932 43.639 7.823 C43.64 8.765 43.641 9.706 43.642 10.676 C43.647 12.121 43.647 12.121 43.652 13.596 C43.657 15.64 43.66 17.685 43.66 19.729 C43.662 22.852 43.68 25.975 43.699 29.098 C43.702 31.083 43.704 33.067 43.705 35.051 C43.712 35.985 43.719 36.918 43.727 37.88 C43.711 42.4 43.635 46.03 41.474 50.129 C32.092 51.333 22.789 51.242 13.349 51.192 C11.709 51.187 10.068 51.182 8.427 51.178 C4.443 51.167 0.459 51.15 -3.526 51.129 C-4.401 44.329 -4.709 37.671 -4.713 30.817 C-4.725 29.842 -4.738 28.867 -4.75 27.862 C-4.753 26.453 -4.753 26.453 -4.756 25.016 C-4.76 24.173 -4.764 23.329 -4.769 22.46 C-4.504 19.918 -3.705 18.371 -2.526 16.129 C-2.284 12.85 -2.284 12.85 -2.401 9.379 C-2.419 8.209 -2.437 7.038 -2.455 5.833 C-2.479 4.94 -2.502 4.048 -2.526 3.129 C-3.846 2.469 -5.166 1.809 -6.526 1.129 C-4.137 -0.065 -2.665 0.003 0 0 Z " fill="#FCFAF2" transform="translate(429.525634765625,412.87060546875)"/>
<path d="M0 0 C0.756 0.001 1.513 0.003 2.292 0.004 C3.578 -0 3.578 -0 4.891 -0.005 C5.818 0.002 6.745 0.009 7.7 0.017 C8.649 0.017 9.599 0.018 10.577 0.018 C12.585 0.021 14.593 0.029 16.601 0.041 C19.687 0.06 22.773 0.062 25.858 0.062 C27.806 0.067 29.753 0.072 31.7 0.079 C33.094 0.081 33.094 0.081 34.516 0.083 C35.37 0.089 36.224 0.095 37.105 0.102 C37.86 0.106 38.616 0.11 39.395 0.114 C41.134 0.247 41.134 0.247 42.134 1.247 C42.293 2.975 42.385 4.709 42.45 6.443 C42.492 7.554 42.534 8.665 42.577 9.81 C42.616 10.985 42.656 12.161 42.696 13.372 C42.739 14.463 42.783 15.553 42.827 16.677 C43.238 28.216 43.134 39.678 43.134 51.247 C27.624 51.247 12.114 51.247 -3.866 51.247 C-3.912 44.305 -3.952 37.364 -3.976 30.422 C-3.986 28.059 -4 25.696 -4.017 23.333 C-4.041 19.943 -4.053 16.552 -4.062 13.161 C-4.072 12.1 -4.082 11.038 -4.093 9.945 C-4.093 8.964 -4.093 7.983 -4.093 6.972 C-4.1 5.673 -4.1 5.673 -4.107 4.348 C-3.783 1.517 -2.876 0.381 0 0 Z " fill="#FCFAF2" transform="translate(563.8662261962891,411.7527618408203)"/>
<path d="M0 0 C0.888 -0.013 1.776 -0.026 2.691 -0.039 C3.652 -0.046 4.613 -0.054 5.604 -0.061 C7.084 -0.073 7.084 -0.073 8.593 -0.086 C10.683 -0.1 12.773 -0.11 14.863 -0.118 C18.061 -0.135 21.258 -0.179 24.456 -0.223 C26.484 -0.234 28.513 -0.242 30.542 -0.249 C31.978 -0.275 31.978 -0.275 33.443 -0.302 C40.041 -0.28 40.041 -0.28 43.303 1.963 C45.45 5.351 45.388 8.782 45.456 12.677 C45.496 13.916 45.496 13.916 45.537 15.179 C45.614 17.845 45.66 20.51 45.706 23.177 C45.758 25.03 45.81 26.883 45.862 28.736 C45.896 30.529 45.927 32.321 45.956 34.115 C45.977 34.96 45.999 35.806 46.021 36.677 C46.025 37.47 46.029 38.263 46.034 39.079 C46.048 40.123 46.048 40.123 46.062 41.188 C45.573 43.914 44.669 45.234 42.706 47.177 C40.435 47.647 40.435 47.647 37.752 47.603 C36.25 47.591 36.25 47.591 34.717 47.579 C33.641 47.55 32.564 47.52 31.456 47.49 C30.354 47.474 29.253 47.459 28.118 47.443 C16.974 47.252 5.835 46.773 -5.294 46.177 C-5.955 31.169 -6.457 16.2 -6.294 1.177 C-3.974 0.017 -2.585 0.032 0 0 Z " fill="#FBFAF2" transform="translate(631.29443359375,347.822998046875)"/>
<path d="M0 0 C1.796 1.796 1.13 4.492 1.133 6.914 C1.135 8.144 1.137 9.374 1.139 10.641 C1.134 11.956 1.13 13.27 1.125 14.625 C1.124 15.286 1.123 15.948 1.121 16.629 C1.069 40.725 1.069 40.725 -1 49 C-16.84 49 -32.68 49 -49 49 C-49.062 39.842 -49.062 39.842 -49.125 30.5 C-49.143 28.589 -49.161 26.678 -49.18 24.709 C-49.186 23.171 -49.191 21.632 -49.195 20.094 C-49.206 19.314 -49.216 18.535 -49.226 17.731 C-49.228 12.499 -48.449 8.032 -47 3 C-45.857 2.939 -44.713 2.879 -43.535 2.816 C-42.044 2.732 -40.553 2.647 -39.062 2.562 C-38.308 2.523 -37.553 2.484 -36.775 2.443 C-33.081 2.56 -33.081 2.56 -30 1 C-28.631 0.843 -27.255 0.749 -25.879 0.684 C-25.025 0.642 -24.171 0.6 -23.291 0.557 C-21.94 0.498 -21.94 0.498 -20.562 0.438 C-19.264 0.373 -19.264 0.373 -17.939 0.307 C-5.047 -0.298 -5.047 -0.298 0 0 Z " fill="#FCFAF2" transform="translate(474,478)"/>
<path d="M0 0 C1.609 2.857 2.266 4.996 2.379 8.266 C2.413 9.074 2.447 9.882 2.482 10.715 C2.509 11.551 2.535 12.388 2.562 13.25 C2.809 20.186 2.809 20.186 3.52 27.086 C4.027 31.222 4.148 35.216 4.125 39.375 C4.131 40.44 4.131 40.44 4.137 41.527 C4.127 46.746 4.127 46.746 3 49 C-12.84 49 -28.68 49 -45 49 C-46.164 29.216 -46.164 29.216 -46.125 21.438 C-46.129 20.627 -46.133 19.817 -46.137 18.982 C-46.116 5.895 -46.116 5.895 -43.848 2.043 C-41.05 0.464 -38.641 0.465 -35.438 0.312 C-34.767 0.279 -34.096 0.246 -33.404 0.211 C-22.283 -0.26 -11.128 -0.083 0 0 Z " fill="#FCFAF2" transform="translate(605,348)"/>
<path d="M0 0 C3.783 -0.079 7.565 -0.128 11.349 -0.167 C13.224 -0.2 13.224 -0.2 15.137 -0.233 C16.316 -0.237 17.494 -0.241 18.708 -0.246 C19.77 -0.255 20.832 -0.264 21.926 -0.274 C25.048 0.142 25.709 0.638 27.599 3.083 C27.959 5.114 27.959 5.114 27.939 7.462 C27.939 8.783 27.939 8.783 27.939 10.131 C27.923 11.078 27.908 12.025 27.892 13 C27.887 13.973 27.883 14.945 27.879 15.947 C27.862 19.055 27.824 22.162 27.786 25.27 C27.771 27.376 27.757 29.482 27.745 31.588 C27.712 36.753 27.66 41.918 27.599 47.083 C16.024 48.298 4.561 49.422 -7.089 49.333 C-8.17 49.34 -9.251 49.348 -10.364 49.356 C-11.904 49.352 -11.904 49.352 -13.476 49.348 C-14.379 49.346 -15.282 49.344 -16.213 49.341 C-18.401 49.083 -18.401 49.083 -20.401 47.083 C-20.655 45.23 -20.655 45.23 -20.66 42.956 C-20.67 41.679 -20.67 41.679 -20.679 40.377 C-20.675 39.456 -20.671 38.535 -20.667 37.586 C-20.67 36.17 -20.67 36.17 -20.673 34.724 C-20.674 32.725 -20.67 30.725 -20.662 28.725 C-20.651 25.661 -20.662 22.598 -20.675 19.534 C-20.673 17.593 -20.671 15.652 -20.667 13.711 C-20.671 12.793 -20.675 11.874 -20.679 10.927 C-20.673 10.073 -20.667 9.219 -20.66 8.339 C-20.659 7.587 -20.657 6.836 -20.655 6.062 C-20.401 4.083 -20.401 4.083 -18.401 1.083 C-12.445 -0.14 -6.065 0.147 0 0 Z " fill="#FCFAF2" transform="translate(650.4013671875,475.91748046875)"/>
<path d="M0 0 C1.734 -0.025 3.469 -0.041 5.203 -0.055 C6.556 -0.067 6.556 -0.067 7.936 -0.079 C9.879 0.034 9.879 0.034 10.879 1.034 C11.299 5.48 11.398 9.948 11.566 14.409 C11.626 15.648 11.686 16.887 11.748 18.163 C11.795 19.387 11.842 20.61 11.891 21.87 C11.96 23.534 11.96 23.534 12.03 25.231 C11.83 30.276 10.881 35.094 9.879 40.034 C2.349 40.06 -5.18 40.077 -12.71 40.089 C-15.274 40.094 -17.838 40.101 -20.402 40.11 C-24.078 40.122 -27.754 40.128 -31.43 40.132 C-32.584 40.137 -33.738 40.142 -34.927 40.148 C-36.519 40.148 -36.519 40.148 -38.142 40.148 C-39.082 40.15 -40.021 40.152 -40.989 40.155 C-43.121 40.034 -43.121 40.034 -44.121 39.034 C-44.35 37.241 -44.517 35.439 -44.656 33.636 C-44.743 32.516 -44.83 31.396 -44.92 30.241 C-45.007 29.059 -45.094 27.877 -45.184 26.659 C-45.274 25.516 -45.365 24.373 -45.459 23.195 C-46.553 8.732 -46.553 8.732 -46.121 2.034 C-43.966 -0.121 -39.035 0.774 -36.039 0.718 C-35.114 0.697 -34.19 0.676 -33.237 0.655 C-31.269 0.612 -29.301 0.571 -27.333 0.532 C-24.359 0.473 -21.386 0.408 -18.412 0.341 C-12.275 0.207 -6.138 0.099 0 0 Z " fill="#FCFAF2" transform="translate(399.12103271484375,543.9656372070313)"/>
<path d="M0 0 C3.179 1.644 5.378 3.756 7 7 C7.253 9.612 7.433 12.194 7.562 14.812 C7.605 15.647 7.647 16.482 7.691 17.343 C8.36 32.876 8.08 48.456 8 64 C8.66 64 9.32 64 10 64 C10.33 63.34 10.66 62.68 11 62 C10.675 69.801 6.898 74.24 1.375 79.5 C-3.696 81.754 -8.551 82.055 -14 81 C-18.974 75.795 -19.214 70.191 -19.535 63.309 C-19.578 62.449 -19.621 61.589 -19.665 60.703 C-19.756 58.88 -19.844 57.056 -19.93 55.233 C-20.061 52.472 -20.199 49.712 -20.338 46.951 C-20.425 45.174 -20.512 43.398 -20.598 41.621 C-20.638 40.807 -20.679 39.993 -20.721 39.155 C-21.499 22.449 -21.499 22.449 -19.25 14.25 C-18.925 13.018 -18.6 11.785 -18.266 10.516 C-14.677 0.547 -10.098 -1.308 0 0 Z " fill="#FAF8F2" transform="translate(399,158)"/>
<path d="M0 0 C1.143 -0.018 2.286 -0.037 3.463 -0.056 C4.466 -0.075 5.468 -0.095 6.501 -0.116 C9.448 0.107 11.596 0.856 14.264 2.093 C14.338 7.041 14.393 11.988 14.429 16.937 C14.444 18.62 14.465 20.304 14.49 21.988 C14.527 24.406 14.544 26.823 14.557 29.241 C14.573 29.996 14.588 30.752 14.604 31.53 C14.605 33.653 14.605 33.653 14.264 37.093 C8.362 41.027 0.464 40.245 -6.455 40.226 C-7.631 40.227 -7.631 40.227 -8.83 40.228 C-10.467 40.229 -12.104 40.227 -13.741 40.223 C-16.257 40.218 -18.774 40.223 -21.291 40.229 C-22.887 40.229 -24.483 40.228 -26.08 40.226 C-27.211 40.229 -27.211 40.229 -28.365 40.232 C-33.621 40.208 -33.621 40.208 -34.736 39.093 C-34.964 37.627 -35.131 36.152 -35.271 34.675 C-35.358 33.756 -35.446 32.837 -35.536 31.891 C-35.666 30.413 -35.666 30.413 -35.798 28.905 C-35.886 27.911 -35.974 26.917 -36.065 25.893 C-37.432 9.602 -37.432 9.602 -36.736 3.093 C-33.945 0.302 -32.124 0.781 -28.216 0.679 C-27.235 0.65 -27.235 0.65 -26.233 0.62 C-24.13 0.56 -22.027 0.514 -19.923 0.468 C-18.549 0.43 -17.175 0.391 -15.8 0.351 C-10.534 0.204 -5.267 0.131 0 0 Z " fill="#FCFAF2" transform="translate(529.73583984375,546.9072265625)"/>
<path d="M0 0 C13.095 0.138 26.201 1.869 39.211 3.26 C39.261 7.707 39.297 12.154 39.321 16.602 C39.331 18.113 39.345 19.624 39.362 21.135 C39.386 23.315 39.398 25.494 39.406 27.674 C39.422 29.638 39.422 29.638 39.438 31.641 C39.215 35.201 38.505 37.952 37.211 41.26 C33.071 41.285 28.931 41.303 24.791 41.315 C23.389 41.32 21.988 41.326 20.587 41.335 C15.794 41.364 11.004 41.345 6.211 41.26 C5.5 41.248 4.789 41.235 4.057 41.223 C1.972 41.175 -0.108 41.096 -2.191 41.006 C-3.412 40.96 -4.632 40.914 -5.89 40.867 C-8.789 40.26 -8.789 40.26 -10.2 38.714 C-11.041 35.207 -10.941 31.822 -10.801 28.248 C-10.778 27.479 -10.755 26.71 -10.732 25.918 C-10.682 24.298 -10.627 22.679 -10.567 21.059 C-10.476 18.571 -10.402 16.083 -10.33 13.594 C-10.279 12.02 -10.228 10.447 -10.176 8.873 C-10.153 8.125 -10.13 7.377 -10.106 6.607 C-9.805 -1.244 -7.316 0.033 0 0 Z " fill="#FBFAF2" transform="translate(434.788818359375,544.740234375)"/>
<path d="M0 0 C24.75 0.495 24.75 0.495 50 1 C50 13.54 50 26.08 50 39 C43.182 39.023 36.365 39.043 29.547 39.055 C27.226 39.06 24.905 39.067 22.583 39.075 C19.255 39.088 15.926 39.093 12.598 39.098 C11.03 39.105 11.03 39.105 9.432 39.113 C8.471 39.113 7.51 39.113 6.52 39.114 C5.669 39.116 4.819 39.118 3.943 39.12 C2 39 2 39 1 38 C0.127 33.141 -0.118 28.465 -0.098 23.535 C-0.095 22.294 -0.093 21.053 -0.09 19.774 C-0.081 18.219 -0.072 16.664 -0.062 15.062 C-0.042 10.092 -0.021 5.121 0 0 Z " fill="#FCFAF2" transform="translate(630,544)"/>
<path d="M0 0 C4.372 3.041 7.534 7.855 9 13 C9.476 19.545 8.679 26.06 8 32.562 C6.247 48.843 6.247 48.843 8 65 C8.99 64.505 8.99 64.505 10 64 C8.758 71.351 7.004 76.396 1.188 81.438 C-2.855 83.419 -4.72 83.323 -9 82 C-13.579 78.566 -15.634 74.458 -17 69 C-17.41 64.83 -17.397 60.691 -17.363 56.504 C-17.364 55.316 -17.364 54.128 -17.365 52.904 C-17.362 50.4 -17.353 47.896 -17.336 45.392 C-17.313 41.578 -17.316 37.765 -17.322 33.951 C-17.317 31.51 -17.31 29.07 -17.301 26.629 C-17.302 25.497 -17.303 24.366 -17.304 23.2 C-17.172 8.325 -17.172 8.325 -13 1.938 C-8.693 -0.844 -4.988 -1.004 0 0 Z " fill="#FBF8F2" transform="translate(633,156)"/>
<path d="M0 0 C2.291 0.005 4.581 -0 6.871 -0.006 C8.326 -0.006 9.781 -0.004 11.237 -0.002 C12.55 -0.001 13.864 -0 15.217 0.001 C18.201 0.13 18.201 0.13 19.201 1.13 C19.302 3.712 19.341 6.267 19.334 8.849 C19.335 9.622 19.336 10.395 19.337 11.192 C19.338 12.829 19.336 14.467 19.332 16.104 C19.326 18.62 19.332 21.135 19.338 23.65 C19.337 25.237 19.336 26.824 19.334 28.412 C19.336 29.169 19.338 29.926 19.34 30.706 C19.316 36.015 19.316 36.015 18.201 37.13 C12.219 38.194 6.14 38.29 0.08 38.298 C-0.746 38.302 -1.572 38.305 -2.423 38.308 C-4.149 38.313 -5.876 38.316 -7.603 38.316 C-10.254 38.318 -12.904 38.336 -15.554 38.355 C-17.239 38.358 -18.923 38.36 -20.607 38.361 C-21.796 38.372 -21.796 38.372 -23.009 38.383 C-28.57 38.359 -28.57 38.359 -30.799 36.13 C-31.057 33.412 -31.057 33.412 -31.064 29.986 C-31.067 28.752 -31.069 27.517 -31.072 26.246 C-31.064 24.949 -31.057 23.653 -31.049 22.318 C-31.056 21.033 -31.064 19.749 -31.072 18.425 C-31.069 17.187 -31.067 15.949 -31.064 14.673 C-31.062 13.539 -31.06 12.405 -31.057 11.237 C-30.792 8.057 -30.349 5.915 -28.799 3.13 C-21.237 -2.039 -8.802 -0.025 0 0 Z " fill="#FAFAF2" transform="translate(590.798583984375,545.86962890625)"/>
<path d="M0 0 C0.949 0.742 1.897 1.485 2.875 2.25 C6.552 4.896 10.325 6.475 14.57 8.008 C17 9 17 9 19.414 10.523 C22.374 12.214 24.911 12.835 28.25 13.5 C30.071 13.865 30.071 13.865 31.93 14.238 C38.94 15.566 45.967 16.799 53 18 C53 18.33 53 18.66 53 19 C36.124 20.392 21.034 20.836 6.312 11.25 C3.196 8.217 1.145 4.76 -1 1 C-0.67 0.67 -0.34 0.34 0 0 Z " fill="#DAD7D4" transform="translate(297,614)"/>
<path d="M0 0 C0.66 0 1.32 0 2 0 C2.133 0.843 2.266 1.686 2.402 2.555 C2.579 3.65 2.756 4.746 2.938 5.875 C3.112 6.966 3.286 8.056 3.465 9.18 C3.856 11.938 3.856 11.938 5 14 C5.099 16.615 5.139 19.198 5.125 21.812 C5.129 22.525 5.133 23.237 5.137 23.971 C5.13 27.773 4.915 31.305 4 35 C2.68 34.67 1.36 34.34 0 34 C-0.2 30.396 -0.383 26.792 -0.562 23.188 C-0.619 22.183 -0.675 21.178 -0.732 20.143 C-1.061 13.33 -0.802 6.773 0 0 Z " fill="#5B595A" transform="translate(407,188)"/>
<path d="M0 0 C0.33 0 0.66 0 1 0 C1 3.3 1 6.6 1 10 C2.65 10 4.3 10 6 10 C6 10.33 6 10.66 6 11 C21.18 11.33 36.36 11.66 52 12 C52 11.34 52 10.68 52 10 C52.66 10 53.32 10 54 10 C53.67 10.99 53.34 11.98 53 13 C45.649 13.025 38.299 13.043 30.948 13.055 C28.446 13.06 25.945 13.067 23.443 13.075 C19.851 13.088 16.26 13.093 12.668 13.098 C11.546 13.103 10.424 13.108 9.268 13.113 C7.707 13.113 7.707 13.113 6.114 13.114 C4.738 13.117 4.738 13.117 3.335 13.12 C1 13 1 13 -2 12 C-2 10.02 -2 8.04 -2 6 C-1.34 6 -0.68 6 0 6 C0 4.02 0 2.04 0 0 Z " fill="#EEF6F4" transform="translate(354,514)"/>
<path d="M0 0 C0.66 0 1.32 0 2 0 C1.847 10.706 0.892 20.244 -4 30 C-4.99 30.66 -5.98 31.32 -7 32 C-6.213 27.978 -5.42 23.958 -4.625 19.938 C-4.403 18.804 -4.182 17.67 -3.953 16.502 C-2.847 10.92 -1.688 5.436 0 0 Z " fill="#AEACAB" transform="translate(738,575)"/>
<path d="M0 0 C0.66 0 1.32 0 2 0 C3.707 6.705 4.585 13.366 5.302 20.234 C5.668 24.244 5.668 24.244 7 28 C7.04 30 7.043 32 7 34 C1.253 28.987 1.377 22.978 0.825 15.683 C0.477 10.458 0.221 5.231 0 0 Z " fill="#5C585B" transform="translate(363,204)"/>
<path d="M0 0 C1.02 6.459 -2.412 10.95 -6 16 C-7.586 17.841 -9.174 19.389 -11 21 C-12 18 -12 18 -10.453 14.531 C-9.729 13.182 -8.994 11.838 -8.25 10.5 C-7.709 9.485 -7.709 9.485 -7.156 8.449 C-2.557 0 -2.557 0 0 0 Z " fill="#575657" transform="translate(733,606)"/>
<path d="M0 0 C12.21 0 24.42 0 37 0 C37 0.33 37 0.66 37 1 C36.399 1.025 35.799 1.05 35.18 1.076 C32.474 1.192 29.768 1.314 27.062 1.438 C25.644 1.496 25.644 1.496 24.197 1.557 C23.298 1.599 22.399 1.64 21.473 1.684 C20.64 1.72 19.807 1.757 18.949 1.795 C16.997 1.794 16.997 1.794 16 3 C13.303 3.073 10.633 3.092 7.938 3.062 C7.179 3.058 6.42 3.053 5.639 3.049 C3.759 3.037 1.88 3.019 0 3 C0 2.01 0 1.02 0 0 Z " fill="#B2EBFC" transform="translate(427,478)"/>
<path d="M0 0 C0 0.66 0 1.32 0 2 C1.32 2.33 2.64 2.66 4 3 C-13.49 2.67 -30.98 2.34 -49 2 C-49 1.67 -49 1.34 -49 1 C-42.986 0.857 -36.972 0.714 -30.958 0.573 C-28.913 0.525 -26.869 0.476 -24.824 0.427 C-21.88 0.357 -18.936 0.288 -15.992 0.219 C-15.083 0.197 -14.173 0.175 -13.236 0.152 C-8.823 0.05 -4.415 -0.025 0 0 Z " fill="#C6EEFB" transform="translate(397,347)"/>
<path d="M0 0 C2.203 1.468 4.404 2.938 6.602 4.414 C8.018 5.35 9.446 6.27 10.898 7.148 C14.821 9.54 14.821 9.54 15.875 12.25 C15.916 12.827 15.957 13.405 16 14 C13.995 13.347 11.996 12.678 10 12 C8.762 11.613 8.762 11.613 7.5 11.219 C4.453 9.733 3.447 8.24 1.688 5.375 C1.176 4.558 0.664 3.74 0.137 2.898 C-0.238 2.272 -0.614 1.645 -1 1 C-0.67 0.67 -0.34 0.34 0 0 Z " fill="#CAC8C5" transform="translate(297,614)"/>
<path d="M0 0 C0.66 0 1.32 0 2 0 C2.33 2.64 2.66 5.28 3 8 C3.66 7.34 4.32 6.68 5 6 C4.913 8.126 4.805 10.251 4.688 12.375 C4.629 13.558 4.571 14.742 4.512 15.961 C4.343 16.964 4.174 17.967 4 19 C3.01 19.66 2.02 20.32 1 21 C0.079 16.345 -0.122 11.853 -0.062 7.125 C-0.058 6.437 -0.053 5.748 -0.049 5.039 C-0.037 3.359 -0.019 1.68 0 0 Z " fill="#383536" transform="translate(639,201)"/>
<path d="M0 0 C2.772 0.282 5.542 0.575 8.312 0.875 C9.098 0.954 9.884 1.032 10.693 1.113 C11.451 1.197 12.208 1.281 12.988 1.367 C13.685 1.441 14.381 1.514 15.099 1.589 C17 2 17 2 20 4 C16.563 4.226 13.126 4.428 9.688 4.625 C8.711 4.689 7.735 4.754 6.729 4.82 C5.322 4.898 5.322 4.898 3.887 4.977 C2.591 5.055 2.591 5.055 1.268 5.135 C-1 5 -1 5 -4 3 C-2.68 2.67 -1.36 2.34 0 2 C0 1.34 0 0.68 0 0 Z " fill="#EAE7E3" transform="translate(330,629)"/>
<path d="M0 0 C19.8 0.495 19.8 0.495 40 1 C39.67 1.66 39.34 2.32 39 3 C25.47 3 11.94 3 -2 3 C-1.34 2.67 -0.68 2.34 0 2 C0 1.34 0 0.68 0 0 Z " fill="#D5F2F9" transform="translate(501,477)"/>
<path d="M0 0 C0 0.66 0 1.32 0 2 C-2.917 3.984 -4.124 3.988 -7.75 3.625 C-8.822 3.419 -9.895 3.213 -11 3 C-11.33 1.68 -11.66 0.36 -12 -1 C-10.565 -1.223 -9.127 -1.428 -7.688 -1.625 C-6.487 -1.799 -6.487 -1.799 -5.262 -1.977 C-3 -2 -3 -2 0 0 Z " fill="#E7E5E1" transform="translate(635,235)"/>
<path d="M0 0 C1.616 2.87 2.273 5.045 2.414 8.328 C2.453 9.127 2.491 9.927 2.531 10.75 C2.562 11.575 2.593 12.4 2.625 13.25 C2.664 14.09 2.702 14.931 2.742 15.797 C2.836 17.864 2.919 19.932 3 22 C2.01 21.34 1.02 20.68 0 20 C-0.416 17.488 -0.649 15.213 -0.75 12.688 C-0.827 11.371 -0.905 10.055 -0.984 8.699 C-0.998 5.577 -0.768 3.007 0 0 Z " fill="#505561" transform="translate(602,208)"/>
<path d="M0 0 C0.33 0 0.66 0 1 0 C1.027 2.625 1.047 5.25 1.062 7.875 C1.071 8.621 1.079 9.368 1.088 10.137 C1.113 15.773 1.113 15.773 0 18 C-0.66 18 -1.32 18 -2 18 C-2.105 12.228 -2.088 6.682 -1 1 C-0.67 0.67 -0.34 0.34 0 0 Z " fill="#9AE5FD" transform="translate(694,571)"/>
<path d="M0 0 C3.224 5.527 4.317 11.665 4 18 C1.117 15.675 0.082 14.335 -0.812 10.688 C-1.002 6.958 -0.673 3.666 0 0 Z " fill="#9A9496" transform="translate(366,220)"/>
<path d="M0 0 C0.33 0 0.66 0 1 0 C1 3.3 1 6.6 1 10 C2.65 10 4.3 10 6 10 C7.812 11.5 7.812 11.5 9 13 C7.742 13.021 6.484 13.041 5.188 13.062 C4.48 13.074 3.772 13.086 3.043 13.098 C1 13 1 13 -2 12 C-2 10.02 -2 8.04 -2 6 C-1.34 6 -0.68 6 0 6 C0 4.02 0 2.04 0 0 Z " fill="#D2F1F9" transform="translate(354,514)"/>
<path d="M0 0 C2.962 0.613 4.381 1.254 7 3 C7.293 6.039 7.293 6.039 7.188 9.625 C7.16 10.814 7.133 12.002 7.105 13.227 C7.071 14.142 7.036 15.057 7 16 C6.34 15.67 5.68 15.34 5 15 C5 12.03 5 9.06 5 6 C2.525 5.01 2.525 5.01 0 4 C0 2.68 0 1.36 0 0 Z " fill="#AAE9FD" transform="translate(421,413)"/>
<path d="M0 0 C0.99 0.33 1.98 0.66 3 1 C3.185 10.41 3.185 10.41 2 15 C-0.351 11.473 -0.214 9.971 -0.125 5.812 C-0.107 4.726 -0.089 3.639 -0.07 2.52 C-0.047 1.688 -0.024 0.857 0 0 Z " fill="#7D7C7C" transform="translate(409,208)"/>
<path d="M0 0 C2 3 2 3 1.574 5.41 C1.135 6.723 1.135 6.723 0.688 8.062 C0.403 8.94 0.118 9.818 -0.176 10.723 C-1 13 -1 13 -2 15 C-2.99 14.67 -3.98 14.34 -5 14 C-3.35 9.38 -1.7 4.76 0 0 Z " fill="#D4F1F8" transform="translate(692,591)"/>
<path d="M0 0 C2.181 4.361 2.192 4.787 0.812 9.125 C0.551 9.994 0.289 10.863 0.02 11.758 C-1 14 -1 14 -4 16 C-2.68 10.72 -1.36 5.44 0 0 Z " fill="#989595" transform="translate(735,591)"/>
<path d="M0 0 C1.666 -0.043 3.334 -0.041 5 0 C6.899 1.899 6.124 4.572 6.133 7.09 C6 9 6 9 5 11 C4.34 11 3.68 11 3 11 C3 7.7 3 4.4 3 1 C2.01 0.67 1.02 0.34 0 0 Z " fill="#A8E9FC" transform="translate(489,412)"/>
<path d="M0 0 C0.33 0 0.66 0 1 0 C1.33 3.96 1.66 7.92 2 12 C2.99 12.33 3.98 12.66 5 13 C5.33 14.65 5.66 16.3 6 18 C3 18 3 18 1.324 16.98 C-0.707 13.942 -0.316 10.831 -0.188 7.312 C-0.167 6.26 -0.167 6.26 -0.146 5.186 C-0.111 3.457 -0.057 1.728 0 0 Z " fill="#3D312E" transform="translate(601,216)"/>
<path d="M0 0 C0.99 0 1.98 0 3 0 C2.886 1.626 2.758 3.251 2.625 4.875 C2.555 5.78 2.486 6.685 2.414 7.617 C2 10 2 10 0 12 C-0.762 7.684 -1.161 4.256 0 0 Z " fill="#777473" transform="translate(407,169)"/>
<path d="M0 0 C0.585 0.353 1.17 0.706 1.773 1.07 C1.182 1.229 0.59 1.387 -0.02 1.551 C-5.442 3.152 -8.586 4.725 -12.227 9.07 C-12.557 8.08 -12.887 7.09 -13.227 6.07 C-12.567 6.07 -11.907 6.07 -11.227 6.07 C-10.948 5.173 -10.948 5.173 -10.664 4.258 C-8.301 0.662 -4.174 -1.743 0 0 Z " fill="#EBEAE8" transform="translate(385.2265625,142.9296875)"/>
<path d="M0 0 C3.26 3.17 6.222 6.399 9 10 C8.01 10.33 7.02 10.66 6 11 C3.69 8.03 1.38 5.06 -1 2 C-0.67 1.34 -0.34 0.68 0 0 Z " fill="#C2BFBD" transform="translate(297,614)"/>
<path d="M0 0 C0 0.99 0 1.98 0 3 C-0.629 2.977 -1.258 2.954 -1.906 2.93 C-7.67 2.808 -12.473 3.362 -18 5 C-18 4.34 -18 3.68 -18 3 C-11.993 0.747 -6.417 0 0 0 Z " fill="#F2F1EF" transform="translate(637,140)"/>
<path d="M0 0 C1.32 0.33 2.64 0.66 4 1 C3.536 2.114 3.536 2.114 3.062 3.25 C1.59 8.447 1.331 13.625 1 19 C0.67 19 0.34 19 0 19 C0 12.73 0 6.46 0 0 Z " fill="#E8F5F7" transform="translate(625,349)"/>
<path d="M0 0 C5.61 0 11.22 0 17 0 C17 0.33 17 0.66 17 1 C16.06 1.091 16.06 1.091 15.102 1.184 C14.284 1.267 13.467 1.351 12.625 1.438 C11.813 1.519 11.001 1.6 10.164 1.684 C7.957 1.891 7.957 1.891 6 3 C3.667 3.04 1.333 3.043 -1 3 C-0.67 2.01 -0.34 1.02 0 0 Z " fill="#F5F3EE" transform="translate(606,650)"/>
<path d="M0 0 C1.65 0.33 3.3 0.66 5 1 C5 1.66 5 2.32 5 3 C1.582 5.075 1.582 5.075 -0.938 4.75 C-3.315 3.885 -5.665 2.973 -8 2 C-8 1.67 -8 1.34 -8 1 C-5.36 1 -2.72 1 0 1 C0 0.67 0 0.34 0 0 Z " fill="#D5D3CF" transform="translate(325,628)"/>
<path d="M0 0 C1 3 1 3 0.004 5.48 C-0.472 6.374 -0.947 7.267 -1.438 8.188 C-1.911 9.089 -2.384 9.99 -2.871 10.918 C-3.244 11.605 -3.616 12.292 -4 13 C-4.66 12.67 -5.32 12.34 -6 12 C-4.681 7.385 -2.786 3.901 0 0 Z " fill="#676566" transform="translate(730,608)"/>
<path d="M0 0 C0.33 0 0.66 0 1 0 C0.887 2.146 0.759 4.292 0.625 6.438 C0.521 8.23 0.521 8.23 0.414 10.059 C0.277 11.029 0.141 12 0 13 C-0.99 13.495 -0.99 13.495 -2 14 C-2.054 12.23 -2.093 10.459 -2.125 8.688 C-2.148 7.701 -2.171 6.715 -2.195 5.699 C-2 3 -2 3 0 0 Z " fill="#929091" transform="translate(643,207)"/>
<path d="M0 0 C0.66 0 1.32 0 2 0 C2.195 6.055 2.195 6.055 2 8 C1.34 8.66 0.68 9.32 0 10 C-1 9 -1 9 -1.133 7.188 C-1.13 6.466 -1.128 5.744 -1.125 5 C-1.129 3.917 -1.129 3.917 -1.133 2.812 C-1 1 -1 1 0 0 Z " fill="#99E6FE" transform="translate(425,479)"/>
<path d="M0 0 C0 0.66 0 1.32 0 2 C1.32 2.33 2.64 2.66 4 3 C0.04 3 -3.92 3 -8 3 C-8 2.34 -8 1.68 -8 1 C-5.291 -0.354 -2.991 -0.065 0 0 Z " fill="#A6E9FE" transform="translate(397,347)"/>
<path d="M0 0 C0 0.33 0 0.66 0 1 C-2.31 1 -4.62 1 -7 1 C-7 1.66 -7 2.32 -7 3 C-9.905 5.042 -11.401 6 -15 6 C-15 5.34 -15 4.68 -15 4 C-9.609 0.406 -6.463 -0.454 0 0 Z " fill="#A9E9FD" transform="translate(508,476)"/>
<path d="M0 0 C0.66 0 1.32 0 2 0 C2.33 2.64 2.66 5.28 3 8 C2.01 8.66 1.02 9.32 0 10 C0 6.7 0 3.4 0 0 Z " fill="#E8F5F7" transform="translate(428,418)"/>
<path d="M0 0 C0.66 1.32 1.32 2.64 2 4 C2.99 4 3.98 4 5 4 C5.33 3.34 5.66 2.68 6 2 C6 4.64 6 7.28 6 10 C2.464 6.827 0.414 4.833 0 0 Z " fill="#332524" transform="translate(602,230)"/>
<path d="M0 0 C0.33 0 0.66 0 1 0 C1.369 5.415 1.369 5.415 -0.5 8.375 C-0.995 8.911 -1.49 9.447 -2 10 C-3.392 5.824 -1.823 3.865 0 0 Z " fill="#464546" transform="translate(732,606)"/>
<path d="M0 0 C0.33 0 0.66 0 1 0 C1 1.65 1 3.3 1 5 C-2.96 5 -6.92 5 -11 5 C-11 4.67 -11 4.34 -11 4 C-10.374 3.963 -9.747 3.925 -9.102 3.887 C-8.284 3.821 -7.467 3.755 -6.625 3.688 C-5.813 3.629 -5.001 3.571 -4.164 3.512 C-1.621 3.17 -1.621 3.17 0 0 Z " fill="#BAECFC" transform="translate(676,391)"/>
<path d="M0 0 C0.99 0 1.98 0 3 0 C3 2.97 3 5.94 3 9 C0.238 6.238 0.421 3.793 0 0 Z " fill="#332324" transform="translate(361,207)"/>
<path d="M0 0 C4.554 -0.369 4.554 -0.369 6.812 1.5 C7.204 1.995 7.596 2.49 8 3 C5.36 3 2.72 3 0 3 C0 2.01 0 1.02 0 0 Z " fill="#E0F3F6" transform="translate(355,524)"/>
<path d="M0 0 C3.995 1.37 6.8 3.257 10 6 C5.167 5.586 3.173 3.536 0 0 Z " fill="#1B9DEF" transform="translate(609,243)"/>
<path d="M0 0 C1.255 3.766 0.371 5.372 -1 9 C-1.66 9 -2.32 9 -3 9 C-2.25 2.25 -2.25 2.25 0 0 Z " fill="#ECEBE9" transform="translate(642,220)"/>
<path d="M0 0 C0.99 0.33 1.98 0.66 3 1 C3 2.98 3 4.96 3 7 C2.01 6.34 1.02 5.68 0 5 C-0.188 2.375 -0.188 2.375 0 0 Z " fill="#424750" transform="translate(602,223)"/>
</svg>
