<?xml version="1.0" encoding="UTF-8"?>
<!-- Generator: visioncortex VTracer 0.6.4 -->
<svg version="1.1" xmlns="http://www.w3.org/2000/svg" width="1024" height="1024">
<path d="M0 0 C337.92 0 675.84 0 1024 0 C1024 337.92 1024 675.84 1024 1024 C686.08 1024 348.16 1024 0 1024 C0 686.08 0 348.16 0 0 Z " fill="#0D0D0D" transform="translate(0,0)"/>
<path d="M0 0 C0.746 -0.003 1.492 -0.005 2.261 -0.008 C13.49 -0.012 23.507 0.852 34.25 4.312 C35.423 4.601 36.596 4.89 37.805 5.188 C68.378 12.814 95.194 35.702 111.25 62.312 C116.976 71.966 121.441 81.389 124.25 92.312 C124.807 94.107 124.807 94.107 125.375 95.938 C127.843 105.458 128.569 114.622 128.511 124.417 C128.5 126.546 128.511 128.673 128.523 130.801 C128.538 143.347 127.609 155.764 123.625 167.75 C123.366 168.544 123.108 169.337 122.841 170.155 C110.906 205.363 86.109 229.941 53.898 247.098 C37.483 254.906 19.698 256.777 1.75 256.812 C1.046 256.817 0.343 256.821 -0.382 256.826 C-14.09 256.862 -27.462 255.13 -40.312 250.125 C-41.104 249.824 -41.895 249.523 -42.709 249.212 C-59.658 242.574 -74.601 232.916 -87.75 220.312 C-88.616 219.487 -89.483 218.663 -90.375 217.812 C-91.159 216.987 -91.942 216.163 -92.75 215.312 C-93.62 214.417 -93.62 214.417 -94.508 213.504 C-109.023 197.992 -119.191 177.389 -123.438 156.688 C-123.65 155.703 -123.862 154.718 -124.08 153.703 C-131.148 120.258 -124.258 85.974 -105.75 57.312 C-85.047 26.491 -56.396 9.076 -20.75 1.312 C-19.993 1.135 -19.236 0.958 -18.456 0.775 C-12.4 -0.261 -6.135 0.02 0 0 Z " fill="#EAEAEA" transform="translate(512.75,577.6875)"/>
<path d="M0 0 C0.829 0.709 1.658 1.418 2.512 2.148 C24.896 21.687 41.857 49.83 44 80 C44.714 97.509 45.23 115.106 40 132 C39.786 132.72 39.571 133.44 39.351 134.182 C34.37 150.582 26.251 164.367 16 178 C15.149 177.515 14.298 177.031 13.422 176.531 C0.235 169.179 -13.644 163.637 -28 159 C-25.39 157.26 -23.458 156.348 -20.543 155.344 C-19.245 154.893 -19.245 154.893 -17.92 154.434 C-17.018 154.126 -16.117 153.817 -15.188 153.5 C-14.297 153.192 -13.407 152.884 -12.49 152.566 C-8.003 151.016 -3.508 149.49 1 148 C0.563 147.087 0.563 147.087 0.117 146.156 C-1.301 143.123 -2.657 140.067 -4 137 C-4.481 135.92 -4.962 134.84 -5.457 133.727 C-14.172 112.525 -16.463 89.726 -18.371 67.102 C-19.88 49.428 -23.485 31.362 -36 18 C-36.57 17.318 -37.14 16.636 -37.727 15.934 C-43.381 9.593 -50.318 6.259 -58 3 C-59.274 2.455 -59.274 2.455 -60.574 1.898 C-73.574 -2.581 -91.64 -1.804 -104 4 C-119.44 12.089 -128.69 24.367 -134.003 40.762 C-137.791 53.353 -138.909 66.322 -139.938 79.375 C-141.638 100.809 -146.094 120.849 -154.853 140.507 C-156.78 144.636 -156.78 144.636 -156 149 C-153.327 150.172 -150.761 151.152 -148 152.062 C-147.229 152.326 -146.458 152.589 -145.664 152.86 C-140.495 154.593 -135.37 156.024 -130 157 C-130 157.66 -130 158.32 -130 159 C-130.981 159.364 -131.962 159.727 -132.973 160.102 C-136.574 161.44 -140.17 162.793 -143.763 164.153 C-145.198 164.696 -146.633 165.237 -148.069 165.776 C-155.5 168.577 -162.419 171.492 -168.949 176.094 C-171 177 -171 177 -172.973 176.539 C-175.802 174.391 -177.734 171.758 -179.75 168.875 C-180.186 168.252 -180.622 167.63 -181.072 166.989 C-198.991 140.735 -207.677 106.024 -201.818 74.535 C-201.004 70.654 -200.049 66.824 -199 63 C-198.818 62.333 -198.636 61.665 -198.449 60.978 C-189.353 28.766 -167.493 2.342 -138.656 -14.171 C-95.781 -37.815 -36.895 -32.558 0 0 Z " fill="#0D0D0D" transform="translate(593,610)"/>
<path d="M0 0 C4.22 1.696 8.011 4.356 11.859 6.758 C22.099 12.237 32.922 13.483 44.327 13.275 C46.411 13.238 48.494 13.234 50.578 13.234 C60.508 13.183 69.427 12.191 78.711 8.551 C79.812 8.12 80.913 7.69 82.047 7.246 C84.849 5.997 87.267 4.587 89.836 2.926 C94.18 0.411 96.701 1.028 101.435 2.122 C105.858 3.33 110.124 4.836 114.398 6.488 C115.304 6.834 116.209 7.181 117.141 7.537 C124.944 10.609 132.063 14.386 139.148 18.863 C138.818 19.853 138.488 20.843 138.148 21.863 C137.488 21.863 136.828 21.863 136.148 21.863 C135.818 22.853 135.488 23.843 135.148 24.863 C123.229 37.813 105.656 47.56 89.148 53.176 C88.474 53.406 87.799 53.637 87.104 53.874 C75.057 57.724 63.263 59.369 50.687 59.254 C48.583 59.238 46.481 59.254 44.377 59.273 C35.333 59.288 26.923 58.148 18.148 55.863 C17.378 55.67 16.608 55.477 15.815 55.277 C-5.787 49.585 -27.61 37.282 -42.852 20.863 C-42.852 19.873 -42.852 18.883 -42.852 17.863 C-31.548 11.406 -20.278 6.538 -7.872 2.59 C-5.792 1.89 -5.792 1.89 -3.707 0.767 C-1.852 -0.137 -1.852 -0.137 0 0 Z " fill="#0D0D0D" transform="translate(466.8515625,771.13671875)"/>
<path d="M0 0 C-1.397 3.045 -3.143 5.748 -5.02 8.517 C-8.879 14.246 -12.003 19.92 -14.625 26.312 C-17.264 32.685 -20.205 37.944 -25 43 C-25.496 43.548 -25.993 44.096 -26.504 44.66 C-36.298 54.257 -51.012 57.116 -64.214 57.022 C-64.803 57.015 -65.393 57.007 -66 57 C-65.8 85.641 -65.8 85.641 -54.188 111.125 C-50.465 116.246 -50.465 116.246 -50.812 120.062 C-51.289 122.004 -51.289 122.004 -52 124 C-52.255 124.731 -52.51 125.462 -52.773 126.215 C-56.027 134.35 -61.68 143.345 -70 147 C-75.264 146.612 -80.467 144.914 -85.562 143.562 C-86.4 143.345 -87.237 143.128 -88.1 142.904 C-92.184 141.827 -96.122 140.705 -100 139 C-99.367 134.988 -98.048 131.752 -96.375 128.062 C-88.582 109.37 -85.646 89.123 -83.989 69.091 C-82.112 46.466 -79.02 22.404 -61.582 6.035 C-42.833 -8.743 -21.469 -8.84 0 0 Z " fill="#0D0D0D" transform="translate(540,618)"/>
<path d="M0 0 C3.885 1.295 5.297 3.698 7.625 6.875 C8.514 8.061 9.405 9.246 10.297 10.43 C10.746 11.027 11.195 11.625 11.658 12.241 C14.342 15.759 17.174 19.152 19.992 22.562 C20.655 23.367 21.317 24.171 22 25 C22.736 25.81 23.472 26.619 24.23 27.453 C28.712 33.904 26.072 44.018 24.875 51.438 C21.857 68.046 13.73 82.862 0 93 C-9.267 99.068 -9.267 99.068 -13.402 98.906 C-27.229 94.082 -37.057 83.642 -43.388 70.898 C-48.257 60.644 -49.157 50.765 -49.062 39.562 C-49.058 38.545 -49.053 37.527 -49.049 36.479 C-49.037 33.986 -49.021 31.493 -49 29 C-47.619 28.87 -47.619 28.87 -46.211 28.738 C-30.115 26.952 -17.156 22.714 -6.625 9.875 C-4.164 6.705 -2.014 3.472 0 0 Z " fill="#0D0D0D" transform="translate(527,649)"/>
<path d="M0 0 C6.829 1.184 12.319 7.756 16.562 12.945 C26.032 26.48 29.671 43.523 30.235 59.798 C31.091 83.313 35.783 106.651 45.209 128.22 C47.106 132.681 47.106 132.681 46 136 C44.193 136.951 44.193 136.951 41.844 137.754 C40.985 138.051 40.127 138.348 39.242 138.654 C37.885 139.104 37.885 139.104 36.5 139.562 C35.626 139.866 34.752 140.17 33.852 140.482 C31.247 141.369 28.631 142.196 26 143 C24.769 143.395 24.769 143.395 23.514 143.798 C17.783 145.412 17.783 145.412 14.215 143.535 C6.65 135.321 -1.676 124.614 -2 113 C-0.777 110.402 -0.777 110.402 1.062 107.938 C9.871 95.13 12.955 82.141 14.125 66.938 C14.211 65.881 14.298 64.825 14.387 63.736 C14.597 61.158 14.801 58.579 15 56 C13.515 55.505 13.515 55.505 12 55 C10.226 52.931 8.572 50.862 6.938 48.688 C5.957 47.41 4.975 46.134 3.992 44.859 C3.496 44.214 2.999 43.569 2.487 42.904 C-0.514 39.062 -3.669 35.35 -6.809 31.621 C-7.532 30.756 -8.255 29.891 -9 29 C-10.162 27.749 -10.162 27.749 -11.348 26.473 C-13 24 -13 24 -12.988 21.59 C-11.735 18.305 -10.072 15.531 -8.188 12.562 C-7.5 11.471 -6.813 10.379 -6.105 9.254 C-4.097 6.15 -2.06 3.07 0 0 Z " fill="#0E0E0E" transform="translate(542,621)"/>
<path d="M0 0 C0.227 0.949 0.454 1.898 0.688 2.875 C4.001 14.344 10.666 23.71 20 31 C16.764 34.794 13.199 36.423 8.625 38.125 C7.978 38.376 7.331 38.628 6.664 38.887 C4.784 39.611 2.892 40.306 1 41 C0.095 41.352 -0.81 41.704 -1.742 42.067 C-5.495 43.142 -8.986 43.306 -12.855 43.301 C-13.969 43.307 -13.969 43.307 -15.105 43.314 C-16.671 43.319 -18.236 43.32 -19.802 43.316 C-22.163 43.313 -24.524 43.336 -26.885 43.361 C-41.994 43.425 -54.022 39.731 -67 32 C-65.856 28.568 -65.138 28.158 -62.25 26.188 C-53.65 19.917 -48.928 11.117 -46 1 C-43.397 2.209 -40.971 3.612 -38.539 5.129 C-37.902 5.524 -37.265 5.919 -36.609 6.326 C-35.29 7.148 -33.975 7.976 -32.664 8.811 C-28.824 11.176 -25.632 12.95 -21 13 C-17.951 11.837 -17.951 11.837 -15.062 9.938 C-14.025 9.296 -12.987 8.654 -11.918 7.992 C-0.212 0 -0.212 0 0 0 Z " fill="#0E0E0E" transform="translate(538,738)"/>
<path d="M0 0 C3.885 1.295 5.297 3.698 7.625 6.875 C8.514 8.061 9.405 9.246 10.297 10.43 C10.746 11.027 11.195 11.625 11.658 12.241 C14.342 15.759 17.174 19.152 19.992 22.562 C20.986 23.769 20.986 23.769 22 25 C23.11 26.181 23.11 26.181 24.242 27.387 C26.496 30.737 26.411 32.817 26.25 36.812 C26.214 37.974 26.178 39.135 26.141 40.332 C26.071 41.653 26.071 41.653 26 43 C25.67 43 25.34 43 25 43 C24.974 42.348 24.948 41.695 24.922 41.023 C24.865 40.149 24.808 39.275 24.75 38.375 C24.68 37.087 24.68 37.087 24.609 35.773 C23.339 29.99 18.999 25.667 15.25 21.25 C14.372 20.206 13.494 19.162 12.617 18.117 C12.181 17.599 11.745 17.08 11.296 16.546 C9.304 14.17 7.333 11.779 5.375 9.375 C4.723 8.578 4.07 7.782 3.398 6.961 C2 5 2 5 2 3 C1.01 2.67 0.02 2.34 -1 2 C-0.67 1.34 -0.34 0.68 0 0 Z " fill="#141313" transform="translate(527,649)"/>
<path d="M0 0 C5.355 1.819 8.023 3.9 12 8 C13.977 9.858 15.989 11.678 18 13.5 C21.765 16.912 25.433 20.381 29 24 C28.67 24.99 28.34 25.98 28 27 C27.152 26.105 26.304 25.211 25.43 24.289 C18.358 16.957 11.217 10.585 2.766 4.891 C0 3 0 3 -2 1 C-1.34 0.67 -0.68 0.34 0 0 Z " fill="#181818" transform="translate(582,595)"/>
<path d="M0 0 C11.55 0.33 23.1 0.66 35 1 C34.67 1.66 34.34 2.32 34 3 C29.64 3.074 25.281 3.129 20.92 3.165 C19.437 3.18 17.954 3.2 16.471 3.226 C14.339 3.263 12.207 3.28 10.074 3.293 C8.791 3.309 7.508 3.324 6.186 3.341 C3 3 3 3 0 0 Z " fill="#080808" transform="translate(495,778)"/>
<path d="M0 0 C0 0.33 0 0.66 0 1 C-10.89 1 -21.78 1 -33 1 C-33 0.67 -33 0.34 -33 0 C-32.06 -0.091 -32.06 -0.091 -31.102 -0.184 C-29.876 -0.309 -29.876 -0.309 -28.625 -0.438 C-27.813 -0.519 -27.001 -0.6 -26.164 -0.684 C-17.012 -2.022 -9.314 -2.308 0 0 Z " fill="#171717" transform="translate(532,829)"/>
<path d="M0 0 C0.33 0.66 0.66 1.32 1 2 C-0.269 3.127 -1.54 4.252 -2.812 5.375 C-3.52 6.001 -4.228 6.628 -4.957 7.273 C-7 9 -7 9 -10 11 C-8.552 7.556 -6.723 5.639 -3.875 3.25 C-3.151 2.636 -2.426 2.023 -1.68 1.391 C-0.848 0.702 -0.848 0.702 0 0 Z M-11 11 C-10.67 11.99 -10.34 12.98 -10 14 C-10.99 14.66 -11.98 15.32 -13 16 C-13.33 16.99 -13.66 17.98 -14 19 C-15.333 20.333 -16.667 21.667 -18 23 C-19.737 25.29 -21.363 27.636 -23 30 C-23 25.93 -20.966 23.687 -18.688 20.5 C-18.283 19.919 -17.879 19.337 -17.463 18.738 C-15.493 15.939 -13.542 13.304 -11 11 Z " fill="#1C1C1C" transform="translate(432,612)"/>
<path d="M0 0 C2.356 0.383 3.672 0.654 5.34 2.411 C5.726 3.002 6.111 3.594 6.508 4.203 C6.937 4.854 7.366 5.505 7.809 6.176 C8.243 6.86 8.677 7.545 9.125 8.25 C9.567 8.919 10.009 9.588 10.465 10.277 C12.721 13.747 14.642 17.064 16 21 C15.01 21 14.02 21 13 21 C12.481 20.071 11.961 19.141 11.426 18.184 C7.887 11.896 4.381 5.75 0 0 Z " fill="#141514" transform="translate(608,628)"/>
<path d="M0 0 C3.395 1.617 6.562 3.509 9.75 5.5 C11.227 6.413 11.227 6.413 12.734 7.344 C13.482 7.89 14.23 8.437 15 9 C15 9.66 15 10.32 15 11 C10.502 9.313 6.271 7.183 2 5 C1.01 5.99 0.02 6.98 -1 8 C-2 6 -2 6 -1.062 2.875 C-0.537 1.452 -0.537 1.452 0 0 Z " fill="#111110" transform="translate(492,739)"/>
<path d="M0 0 C3.124 1.273 5.123 3.003 7.43 5.434 C10.202 8.199 13.229 10.69 16.207 13.23 C16.799 13.814 17.39 14.398 18 15 C18 15.66 18 16.32 18 17 C14.618 15.473 11.897 13.497 9 11.188 C8.154 10.521 7.309 9.855 6.438 9.168 C3.943 6.949 1.939 4.716 0 2 C0 1.34 0 0.68 0 0 Z " fill="#161616" transform="translate(417,791)"/>
<path d="M0 0 C-3.085 3.085 -6.83 2.803 -11 3 C-14.863 2.974 -18.707 2.785 -22.562 2.562 C-23.571 2.51 -24.58 2.458 -25.619 2.404 C-28.08 2.276 -30.54 2.141 -33 2 C-33 1.67 -33 1.34 -33 1 C-29.188 0.83 -25.375 0.665 -21.562 0.5 C-20.493 0.452 -19.424 0.405 -18.322 0.355 C-12.208 0.094 -6.12 -0.051 0 0 Z " fill="#393A39" transform="translate(538,784)"/>
<path d="M0 0 C5.805 3.424 13.569 8.716 15.762 15.281 C15.84 15.848 15.919 16.416 16 17 C10.378 12.335 4.84 7.487 0 2 C0 1.34 0 0.68 0 0 Z " fill="#141414" transform="translate(592,610)"/>
<path d="M0 0 C-1.285 3.855 -2.973 4.718 -6.25 7.062 C-7.204 7.755 -8.158 8.447 -9.141 9.16 C-11.726 10.824 -14.11 11.982 -17 13 C-13.914 6.457 -13.914 6.457 -9.5 4.25 C-8.345 3.837 -7.19 3.425 -6 3 C-1.889 0 -1.889 0 0 0 Z " fill="#151515" transform="translate(445,596)"/>
<path d="M0 0 C0.66 0.66 1.32 1.32 2 2 C1 5 1 5 0 6 C1.527 9.436 3.599 12.119 6 15 C2 15 2 15 -0.812 12.312 C-3 9 -3 9 -2.938 6.375 C-2.067 4.17 -1.151 2.072 0 0 Z " fill="#171717" transform="translate(532,636)"/>
<path d="M0 0 C5.41 0.389 7.669 2.059 11.375 5.938 C12.686 7.281 12.686 7.281 14.023 8.652 C16 11 16 11 16 13 C12.634 11.55 10.52 9.705 8 7.062 C5.475 4.424 2.978 2.12 0 0 Z " fill="#161616" transform="translate(545,617)"/>
<path d="M0 0 C0.688 0.615 0.688 0.615 1.391 1.242 C2.004 1.781 2.618 2.32 3.25 2.875 C3.853 3.409 4.457 3.942 5.078 4.492 C6.947 6.062 6.947 6.062 9.125 7.062 C11.508 8.254 12.54 9.81 14 12 C13.67 12.66 13.34 13.32 13 14 C11.224 12.589 9.455 11.171 7.688 9.75 C6.701 8.961 5.715 8.172 4.699 7.359 C2.398 5.348 0.694 3.521 -1 1 C-0.67 0.67 -0.34 0.34 0 0 Z " fill="#141414" transform="translate(426,791)"/>
<path d="M0 0 C5.339 0.593 8.1 4.905 11.312 8.812 C11.869 9.534 12.426 10.256 13 11 C10.525 12.485 10.525 12.485 8 14 C8.082 13.263 8.165 12.525 8.25 11.766 C7.921 8.128 6.663 7.173 4 4.75 C2.657 3.51 1.321 2.263 0 1 C0 0.67 0 0.34 0 0 Z " fill="#171717" transform="translate(545,759)"/>
<path d="M0 0 C0.697 0.005 1.395 0.009 2.113 0.014 C3.826 0.025 5.538 0.043 7.25 0.062 C4.056 2.918 2.004 3.451 -2.25 3.375 C-3.188 3.371 -4.127 3.367 -5.094 3.363 C-7.771 3.06 -9.45 2.424 -11.75 1.062 C-7.883 -0.203 -4.018 -0.049 0 0 Z " fill="#383838" transform="translate(511.75,611.9375)"/>
<path d="M0 0 C-1.516 3.478 -3.577 5.956 -6.125 8.75 C-7.212 9.949 -7.212 9.949 -8.32 11.172 C-8.875 11.775 -9.429 12.378 -10 13 C-10.66 12.34 -11.32 11.68 -12 11 C-9.881 6.761 -5.259 0 0 0 Z " fill="#131313" transform="translate(478,619)"/>
<path d="M0 0 C0.33 0 0.66 0 1 0 C1.33 9.24 1.66 18.48 2 28 C1.01 27.67 0.02 27.34 -1 27 C-0.67 18.09 -0.34 9.18 0 0 Z " fill="#2D2C2C" transform="translate(473,675)"/>
<path d="M0 0 C2.263 3.558 2.073 6.125 1.625 10.25 C1.514 11.328 1.403 12.405 1.289 13.516 C1.194 14.335 1.098 15.155 1 16 C0.34 16 -0.32 16 -1 16 C-1 17.65 -1 19.3 -1 21 C-1.33 21 -1.66 21 -2 21 C-2.281 13.834 -1.204 7.055 0 0 Z " fill="#1A1A1A" transform="translate(459,663)"/>
<path d="M0 0 C0.33 0.99 0.66 1.98 1 3 C-2.996 7.315 -6.465 10.705 -12 13 C-10.567 9.61 -8.812 7.722 -6 5.375 C-3.923 3.627 -1.92 1.92 0 0 Z " fill="#171717" transform="translate(517,655)"/>
<path d="M0 0 C3.937 1.312 4.827 3.196 7.188 6.562 C7.903 7.574 8.618 8.586 9.355 9.629 C9.898 10.411 10.441 11.194 11 12 C8 12 8 12 6.395 10.539 C5.872 9.907 5.35 9.276 4.812 8.625 C4.283 7.999 3.753 7.372 3.207 6.727 C2 5 2 5 2 3 C1.01 2.67 0.02 2.34 -1 2 C-0.67 1.34 -0.34 0.68 0 0 Z " fill="#131314" transform="translate(527,649)"/>
<path d="M0 0 C1.192 3.463 0.807 5.653 -0.25 9.125 C-0.503 9.994 -0.755 10.863 -1.016 11.758 C-2 14 -2 14 -5 16 C-4.01 11.71 -3.02 7.42 -2 3 C-1.34 3 -0.68 3 0 3 C0 2.01 0 1.02 0 0 Z " fill="#232323" transform="translate(453,718)"/>
<path d="M0 0 C0.66 0.33 1.32 0.66 2 1 C-0.141 3.401 -1.818 4.48 -4.875 5.438 C-8.526 6.704 -11.112 8.383 -14 11 C-14.66 10.67 -15.32 10.34 -16 10 C-10.922 5.948 -5.983 2.579 0 0 Z " fill="#1A1A1A" transform="translate(494,615)"/>
<path d="M0 0 C-0.33 0.66 -0.66 1.32 -1 2 C-0.01 2.33 0.98 2.66 2 3 C1.34 3.66 0.68 4.32 0 5 C-2.97 4.01 -5.94 3.02 -9 2 C-4.138 -1.241 -4.138 -1.241 0 0 Z " fill="#141414" transform="translate(574,767)"/>
<path d="M0 0 C0 3 0 3 -1.898 5.262 C-2.716 6.062 -3.533 6.863 -4.375 7.688 C-5.187 8.496 -5.999 9.304 -6.836 10.137 C-9 12 -9 12 -11 12 C-9.497 8.332 -7.363 6.311 -4.375 3.75 C-3.149 2.69 -3.149 2.69 -1.898 1.609 C-1.272 1.078 -0.645 0.547 0 0 Z " fill="#070707" transform="translate(613,790)"/>
<path d="M0 0 C0.33 0 0.66 0 1 0 C1.99 4.95 2.98 9.9 4 15 C3.01 15 2.02 15 1 15 C0.635 13.252 0.284 11.502 -0.062 9.75 C-0.26 8.775 -0.457 7.801 -0.66 6.797 C-0.984 4.132 -0.855 2.511 0 0 Z " fill="#1F1E1E" transform="translate(388,728)"/>
<path d="M0 0 C1.32 0.33 2.64 0.66 4 1 C4 1.66 4 2.32 4 3 C3.111 3.383 3.111 3.383 2.203 3.773 C-0.212 5.118 -1.512 6.492 -3.25 8.625 C-3.771 9.257 -4.292 9.888 -4.828 10.539 C-5.215 11.021 -5.602 11.503 -6 12 C-6 8.368 -5.045 7.253 -3 4.312 C-2.443 3.504 -1.886 2.696 -1.312 1.863 C-0.879 1.248 -0.446 0.634 0 0 Z " fill="#171616" transform="translate(542,621)"/>
<path d="M0 0 C1.504 0.292 1.504 0.292 3.039 0.59 C4.195 0.824 4.195 0.824 5.375 1.062 C5.375 1.722 5.375 2.383 5.375 3.062 C3.957 2.947 2.541 2.82 1.125 2.688 C0.336 2.618 -0.453 2.548 -1.266 2.477 C-3.711 2.047 -5.473 1.276 -7.625 0.062 C-4.81 -1.345 -3.056 -0.604 0 0 Z " fill="#1B1B1B" transform="translate(492.625,825.9375)"/>
<path d="M0 0 C0.66 0 1.32 0 2 0 C1.913 1.959 1.805 3.917 1.688 5.875 C1.629 6.966 1.571 8.056 1.512 9.18 C1.343 10.11 1.174 11.041 1 12 C0.01 12.66 -0.98 13.32 -2 14 C-1.036 4.59 -1.036 4.59 0 0 Z " fill="#181717" transform="translate(454,707)"/>
<path d="M0 0 C0.603 0.41 1.207 0.82 1.828 1.242 C2.627 1.781 3.427 2.32 4.25 2.875 C5.039 3.409 5.828 3.942 6.641 4.492 C8.716 5.818 10.776 6.949 13 8 C10.438 8.938 10.438 8.938 7 9 C4.265 7.013 2.027 4.704 0 2 C0 1.34 0 0.68 0 0 Z " fill="#161616" transform="translate(552,757)"/>
<path d="M0 0 C1.339 1.662 2.671 3.33 4 5 C4.577 5.66 5.155 6.32 5.75 7 C7.302 9.483 7.24 11.125 7 14 C3.777 10.202 1.255 6.426 -1 2 C-0.67 1.34 -0.34 0.68 0 0 Z " fill="#161616" transform="translate(482,725)"/>
<path d="M0 0 C-1.517 4.55 -5.169 6.501 -9 9 C-9 6 -9 6 -7.539 4.395 C-6.592 3.611 -6.592 3.611 -5.625 2.812 C-4.685 2.018 -4.685 2.018 -3.727 1.207 C-2 0 -2 0 0 0 Z " fill="#161616" transform="translate(596,799)"/>
<path d="M0 0 C0.33 0 0.66 0 1 0 C1.222 2.27 1.427 4.541 1.625 6.812 C1.741 8.077 1.857 9.342 1.977 10.645 C2 14 2 14 0 17 C-0.988 13.054 -0.962 9.726 -0.562 5.688 C-0.461 4.619 -0.359 3.55 -0.254 2.449 C-0.17 1.641 -0.086 0.833 0 0 Z " fill="#292929" transform="translate(456,686)"/>
<path d="M0 0 C0.33 0 0.66 0 1 0 C2.138 4.266 3 7.565 3 12 C2.01 11.67 1.02 11.34 0 11 C-0.195 9.543 -0.381 8.084 -0.562 6.625 C-0.667 5.813 -0.771 5.001 -0.879 4.164 C-1 2 -1 2 0 0 Z " fill="#222323" transform="translate(567,654)"/>
<path d="M0 0 C4.128 0.607 7.332 2.038 11 4 C10.67 4.66 10.34 5.32 10 6 C8.824 5.474 8.824 5.474 7.625 4.938 C6.759 4.628 5.893 4.319 5 4 C4.01 4.495 4.01 4.495 3 5 C1.5 3.625 1.5 3.625 0 2 C0 1.34 0 0.68 0 0 Z " fill="#171717" transform="translate(564,593)"/>
<path d="M0 0 C0.66 0.33 1.32 0.66 2 1 C1.551 2.482 1.09 3.961 0.625 5.438 C0.242 6.673 0.242 6.673 -0.148 7.934 C-1 10 -1 10 -3 11 C-3.369 3.492 -3.369 3.492 -1.5 1 C-1.005 0.67 -0.51 0.34 0 0 Z " fill="#171717" transform="translate(437,748)"/>
<path d="M0 0 C2.739 2.366 3.932 4.549 5 8 C5.125 10.812 5.125 10.812 5 13 C4.34 13 3.68 13 3 13 C2.495 11.397 1.996 9.793 1.5 8.188 C1.082 6.848 1.082 6.848 0.656 5.48 C0 3 0 3 0 0 Z " fill="#060606" transform="translate(569,645)"/>
<path d="M0 0 C1.746 2.619 2.387 4.038 3 7 C1.35 7.66 -0.3 8.32 -2 9 C-2.33 8.01 -2.66 7.02 -3 6 C-2.34 5.01 -1.68 4.02 -1 3 C-0.67 2.01 -0.34 1.02 0 0 Z " fill="#171717" transform="translate(586,749)"/>
<path d="M0 0 C0.33 0.99 0.66 1.98 1 3 C-1.64 5.31 -4.28 7.62 -7 10 C-7 7 -7 7 -5.469 5.176 C-4.819 4.561 -4.169 3.946 -3.5 3.312 C-2.85 2.69 -2.201 2.067 -1.531 1.426 C-0.773 0.72 -0.773 0.72 0 0 Z " fill="#181818" transform="translate(480,753)"/>
<path d="M0 0 C0.99 0 1.98 0 3 0 C2.67 0.99 2.34 1.98 2 3 C1.34 3 0.68 3 0 3 C-0.33 3.99 -0.66 4.98 -1 6 C-3.562 7.188 -3.562 7.188 -6 8 C-2.25 2.25 -2.25 2.25 0 0 Z " fill="#181718" transform="translate(603,790)"/>
<path d="M0 0 C0.66 0 1.32 0 2 0 C2 1.32 2 2.64 2 4 C3.32 4.33 4.64 4.66 6 5 C6 5.66 6 6.32 6 7 C3.69 6.34 1.38 5.68 -1 5 C-0.67 3.35 -0.34 1.7 0 0 Z " fill="#1E1E1D" transform="translate(441,752)"/>
<path d="M0 0 C3.469 0.458 6.674 0.891 10 2 C10 2.66 10 3.32 10 4 C6.531 3.542 3.326 3.109 0 2 C0 1.34 0 0.68 0 0 Z " fill="#070707" transform="translate(572,776)"/>
<path d="M0 0 C-2.906 2.475 -5.158 3.697 -9 4 C-9.66 3.34 -10.32 2.68 -11 2 C-9.734 1.468 -8.462 0.95 -7.188 0.438 C-6.48 0.147 -5.772 -0.143 -5.043 -0.441 C-3 -1 -3 -1 0 0 Z " fill="#222222" transform="translate(588,762)"/>
<path d="M0 0 C1.32 0.66 2.64 1.32 4 2 C1.375 6.875 1.375 6.875 -2 8 C-1.34 5.36 -0.68 2.72 0 0 Z " fill="#1B1B1B" transform="translate(492,739)"/>
<path d="M0 0 C3.459 1.249 6.147 2.675 9 5 C8.67 5.66 8.34 6.32 8 7 C6.661 6.217 5.329 5.423 4 4.625 C3.257 4.184 2.515 3.743 1.75 3.289 C1.173 2.864 0.595 2.438 0 2 C0 1.34 0 0.68 0 0 Z " fill="#141414" transform="translate(497,736)"/>
<path d="M0 0 C0.99 0.33 1.98 0.66 3 1 C3.082 5.161 2.982 8.947 2 13 C1.67 13 1.34 13 1 13 C0.67 8.71 0.34 4.42 0 0 Z " fill="#1F1F1F" transform="translate(575,677)"/>
<path d="M0 0 C1.626 0.114 3.251 0.242 4.875 0.375 C5.78 0.445 6.685 0.514 7.617 0.586 C10 1 10 1 12 3 C8.947 3.981 7.053 3.981 4 3 C4 2.34 4 1.68 4 1 C2.68 0.67 1.36 0.34 0 0 Z " fill="#171616" transform="translate(520,613)"/>
<path d="M0 0 C-1.974 2.523 -2.967 2.993 -6.188 3.688 C-7.58 3.842 -7.58 3.842 -9 4 C-9.33 3.34 -9.66 2.68 -10 2 C-8.712 1.47 -7.42 0.951 -6.125 0.438 C-5.406 0.147 -4.686 -0.143 -3.945 -0.441 C-2 -1 -2 -1 0 0 Z " fill="#202120" transform="translate(463,774)"/>
<path d="M0 0 C0.66 0.33 1.32 0.66 2 1 C-0.475 5.455 -0.475 5.455 -3 10 C-3.66 9.34 -4.32 8.68 -5 8 C-3.35 5.36 -1.7 2.72 0 0 Z " fill="#171717" transform="translate(624,760)"/>
<path d="M0 0 C0.99 0 1.98 0 3 0 C3 3.3 3 6.6 3 10 C2.34 9.67 1.68 9.34 1 9 C0.586 6.934 0.586 6.934 0.375 4.438 C0.3 3.611 0.225 2.785 0.148 1.934 C0.099 1.296 0.05 0.657 0 0 Z " fill="#1A191A" transform="translate(577,698)"/>
<path d="M0 0 C3.291 1.135 3.996 1.993 5.75 5.125 C6.163 6.074 6.575 7.023 7 8 C4.138 6.717 1.975 5.469 0 3 C0 2.01 0 1.02 0 0 Z " fill="#191918" transform="translate(554,631)"/>
<path d="M0 0 C2.943 0.307 5.345 0.673 8 2 C8 2.66 8 3.32 8 4 C4.7 3.34 1.4 2.68 -2 2 C-1.34 1.34 -0.68 0.68 0 0 Z " fill="#212121" transform="translate(542,579)"/>
<path d="M0 0 C1.98 0.99 3.96 1.98 6 3 C6 3.99 6 4.98 6 6 C3.36 4.68 0.72 3.36 -2 2 C-1.34 1.34 -0.68 0.68 0 0 Z " fill="#1C1B1B" transform="translate(598,779)"/>
<path d="M0 0 C1.98 0.495 1.98 0.495 4 1 C4.33 2.65 4.66 4.3 5 6 C3.02 5.01 1.04 4.02 -1 3 C-0.67 2.01 -0.34 1.02 0 0 Z " fill="#181818" transform="translate(472,767)"/>
<path d="M0 0 C0.33 0 0.66 0 1 0 C1.185 9.41 1.185 9.41 0 14 C-2 11 -2 11 -1.758 8.301 C-1.549 7.315 -1.34 6.329 -1.125 5.312 C-0.921 4.319 -0.718 3.325 -0.508 2.301 C-0.34 1.542 -0.173 0.782 0 0 Z " fill="#252424" transform="translate(636,714)"/>
<path d="M0 0 C0.66 0 1.32 0 2 0 C1.521 4.314 0.254 6.166 -3 9 C-2.01 6.03 -1.02 3.06 0 0 Z " fill="#1B1B1B" transform="translate(401,654)"/>
<path d="M0 0 C-0.66 0 -1.32 0 -2 0 C-2 0.66 -2 1.32 -2 2 C-4.31 2.33 -6.62 2.66 -9 3 C-8.67 2.01 -8.34 1.02 -8 0 C-5.042 -1.224 -3.003 -0.965 0 0 Z " fill="#262626" transform="translate(551,831)"/>
<path d="M0 0 C3.821 0.531 6.062 1.497 9 4 C5.204 4 3.371 3.498 0 2 C0 1.34 0 0.68 0 0 Z " fill="#181818" transform="translate(589,782)"/>
<path d="M0 0 C1.32 0.33 2.64 0.66 4 1 C4.33 2.65 4.66 4.3 5 6 C4.01 6.495 4.01 6.495 3 7 C0 2.25 0 2.25 0 0 Z " fill="#181919" transform="translate(408,769)"/>
<path d="M0 0 C2.97 0.495 2.97 0.495 6 1 C6 1.66 6 2.32 6 3 C4.02 3.66 2.04 4.32 0 5 C0 3.35 0 1.7 0 0 Z " fill="#1A1A1A" transform="translate(457,766)"/>
<path d="M0 0 C1.884 3.265 2.493 6.281 3 10 C2.01 9.67 1.02 9.34 0 9 C-1.37 5.803 -0.825 3.301 0 0 Z " fill="#272727" transform="translate(475,706)"/>
<path d="M0 0 C0.66 0.33 1.32 0.66 2 1 C2 5.29 2 9.58 2 14 C1.67 14 1.34 14 1 14 C0.939 13.313 0.879 12.626 0.816 11.918 C0.733 11.017 0.649 10.116 0.562 9.188 C0.481 8.294 0.4 7.401 0.316 6.48 C0.065 3.873 0.065 3.873 -1 1 C-0.67 0.67 -0.34 0.34 0 0 Z " fill="#272626" transform="translate(551,678)"/>
<path d="M0 0 C2.475 0.99 2.475 0.99 5 2 C5 3.32 5 4.64 5 6 C4.01 5.67 3.02 5.34 2 5 C0.812 2.438 0.812 2.438 0 0 Z " fill="#141415" transform="translate(616,628)"/>
<path d="M0 0 C2.97 0.33 5.94 0.66 9 1 C7 3 7 3 3.875 3.125 C2.452 3.063 2.452 3.063 1 3 C0.67 2.01 0.34 1.02 0 0 Z " fill="#1F1F1E" transform="translate(524,582)"/>
<path d="M0 0 C2.64 0.66 5.28 1.32 8 2 C8 2.66 8 3.32 8 4 C2.25 3.125 2.25 3.125 0 2 C0 1.34 0 0.68 0 0 Z " fill="#070707" transform="translate(481,780)"/>
<path d="M0 0 C1.98 0.99 3.96 1.98 6 3 C6 3.66 6 4.32 6 5 C3.03 4.01 0.06 3.02 -3 2 C-2.01 1.34 -1.02 0.68 0 0 Z " fill="#232323" transform="translate(590,775)"/>
<path d="M0 0 C2.352 0.599 4.686 1.269 7 2 C7.33 2.66 7.66 3.32 8 4 C3.545 3.01 3.545 3.01 -1 2 C-0.67 1.34 -0.34 0.68 0 0 Z " fill="#191919" transform="translate(488,776)"/>
<path d="M0 0 C0.33 0 0.66 0 1 0 C1.33 3.63 1.66 7.26 2 11 C-1 8 -1 8 -1.074 5.957 C-0.716 3.971 -0.358 1.986 0 0 Z " fill="#303130" transform="translate(574,705)"/>
<path d="M0 0 C0.33 0 0.66 0 1 0 C1 1.65 1 3.3 1 5 C0.34 5 -0.32 5 -1 5 C-1 6.65 -1 8.3 -1 10 C-1.33 10 -1.66 10 -2 10 C-2.195 3.945 -2.195 3.945 -2 2 C-1.34 1.34 -0.68 0.68 0 0 Z " fill="#262625" transform="translate(459,674)"/>
<path d="M0 0 C2.031 0.934 4.035 1.932 6 3 C6 3.66 6 4.32 6 5 C0.25 3.25 0.25 3.25 -2 1 C-1.34 0.67 -0.68 0.34 0 0 Z " fill="#222121" transform="translate(567,587)"/>
</svg>
