<?xml version="1.0" encoding="UTF-8"?>
<!-- Generator: visioncortex VTracer 0.6.4 -->
<svg version="1.1" xmlns="http://www.w3.org/2000/svg" width="1024" height="1024">
<path d="M0 0 C337.92 0 675.84 0 1024 0 C1024 337.92 1024 675.84 1024 1024 C686.08 1024 348.16 1024 0 1024 C0 686.08 0 348.16 0 0 Z " fill="#008990" transform="translate(0,0)"/>
<path d="M0 0 C1.068 0.001 2.136 0.002 3.236 0.003 C18.405 0.032 33.45 0.085 48.5 2.188 C49.628 2.343 50.757 2.499 51.919 2.66 C136.02 14.703 210.247 53.082 270.312 112.875 C271.018 113.576 271.723 114.277 272.45 114.999 C338.976 181.728 377.974 277.865 378.625 378.062 C378.63 379.351 378.635 380.64 378.64 381.968 C378.609 399.346 377.544 416.385 374.875 433.562 C374.745 434.418 374.614 435.273 374.48 436.154 C370.99 458.923 366.189 481.434 358.5 503.188 C358.033 504.526 358.033 504.526 357.557 505.892 C349.329 529.274 339.078 551.82 326.5 573.188 C326.042 573.966 325.584 574.745 325.112 575.547 C317.205 588.827 308.07 601.068 298.5 613.188 C297.812 614.06 297.125 614.932 296.417 615.831 C292.861 620.312 289.266 624.682 285.375 628.875 C282.503 631.985 279.697 635.112 277 638.375 C276.175 639.303 275.35 640.231 274.5 641.188 C273.84 641.188 273.18 641.188 272.5 641.188 C272.234 641.778 271.967 642.369 271.693 642.978 C270.473 645.237 269.216 646.73 267.41 648.543 C266.796 649.161 266.182 649.779 265.549 650.416 C264.566 651.386 264.566 651.386 263.562 652.375 C262.552 653.379 262.552 653.379 261.521 654.403 C256.864 658.976 252.08 663.194 246.949 667.23 C244.675 669.047 242.563 670.952 240.438 672.938 C234.025 678.713 226.861 683.579 219.82 688.55 C218.255 689.654 216.695 690.765 215.139 691.882 C153.298 735.925 76.947 757.378 1.561 757.373 C-1.965 757.375 -5.49 757.393 -9.016 757.412 C-27.916 757.46 -46.63 756.421 -65.312 753.438 C-66.384 753.268 -67.455 753.098 -68.559 752.923 C-136.995 741.646 -203.509 711.578 -254.883 664.559 C-256.306 663.269 -257.736 661.985 -259.196 660.737 C-264.754 655.974 -269.957 650.884 -275.118 645.699 C-276.56 644.252 -278.007 642.81 -279.455 641.369 C-342.322 578.556 -377.652 490.485 -382.812 402.438 C-382.872 401.431 -382.872 401.431 -382.932 400.403 C-384.823 366.904 -382.135 333.063 -375.5 300.188 C-375.338 299.365 -375.177 298.543 -375.01 297.696 C-363.388 239.944 -334.582 187.788 -299.5 141.188 C-298.746 140.181 -297.992 139.174 -297.215 138.137 C-296.366 137.172 -296.366 137.172 -295.5 136.188 C-294.84 136.188 -294.18 136.188 -293.5 136.188 C-293.251 135.62 -293.002 135.053 -292.746 134.469 C-291.305 131.83 -289.601 129.899 -287.562 127.688 C-286.358 126.375 -286.358 126.375 -285.129 125.035 C-283.828 123.626 -283.828 123.626 -282.5 122.188 C-281.591 121.187 -280.684 120.186 -279.777 119.184 C-272.484 111.138 -265.085 103.237 -256.82 96.172 C-255.05 94.658 -253.298 93.123 -251.555 91.578 C-215.912 60.173 -174.051 37.238 -129.5 21.188 C-128.699 20.893 -127.897 20.598 -127.072 20.295 C-102.549 11.326 -76.522 5.978 -50.688 2.5 C-49.805 2.38 -48.923 2.261 -48.014 2.138 C-32.046 0.114 -16.071 -0.018 0 0 Z " fill="#FEFEFE" transform="translate(514.5,130.8125)"/>
<path d="M0 0 C0.66 0 1.32 0 2 0 C2.207 0.711 2.414 1.423 2.627 2.156 C3.563 5.375 4.5 8.594 5.438 11.812 C5.763 12.932 6.088 14.052 6.424 15.205 C6.736 16.278 7.049 17.351 7.371 18.457 C7.659 19.447 7.947 20.437 8.244 21.456 C8.796 23.314 9.387 25.161 10 27 C10.128 29.674 10.044 32.321 10 35 C11.131 35.099 12.261 35.199 13.426 35.301 C18.295 35.914 22.622 37.438 27.188 39.188 C28.01 39.496 28.833 39.805 29.681 40.123 C36.611 42.763 43.34 45.736 50 49 C48.689 51.621 47.717 51.648 44.984 52.586 C44.151 52.875 43.318 53.164 42.459 53.462 C41.565 53.764 40.671 54.065 39.75 54.375 C38.392 54.84 38.392 54.84 37.008 55.315 C18.537 61.605 18.537 61.605 11 63 C10.671 64.843 10.671 64.843 10.336 66.723 C8.939 72.991 6.309 78.629 3.625 84.438 C2.902 86.068 2.902 86.068 2.164 87.732 C1.69 88.768 1.215 89.804 0.727 90.871 C0.086 92.278 0.086 92.278 -0.568 93.713 C-2.144 96.23 -3.254 96.98 -6 98 C-7.313 94.229 -8.625 90.458 -9.938 86.688 C-10.497 85.08 -10.497 85.08 -11.068 83.439 C-11.426 82.411 -11.784 81.383 -12.152 80.324 C-12.482 79.376 -12.812 78.428 -13.152 77.452 C-14.675 73.048 -15.088 69.681 -15 65 C-15.887 64.938 -16.774 64.876 -17.688 64.812 C-29.295 63.091 -39.893 56.633 -50 51 C-48.349 47.698 -44.723 47.056 -41.438 45.75 C-40.684 45.441 -39.931 45.133 -39.154 44.815 C-35.253 43.232 -31.341 41.751 -27.348 40.418 C-26.617 40.168 -25.886 39.917 -25.133 39.659 C-23.735 39.186 -22.329 38.734 -20.916 38.306 C-18.755 37.631 -18.755 37.631 -16 36 C-15.22 33.313 -15.22 33.313 -15 30 C-13.784 26.67 -12.293 23.469 -10.812 20.25 C-10.408 19.363 -10.004 18.477 -9.588 17.563 C-3.464 4.316 -3.464 4.316 0 0 Z " fill="#F9E306" transform="translate(886,778)"/>
<path d="M0 0 C0.99 0.33 1.98 0.66 3 1 C3.985 3.495 4.777 5.867 5.5 8.438 C5.713 9.162 5.926 9.887 6.145 10.634 C6.571 12.086 6.993 13.54 7.411 14.994 C8.388 18.321 9.509 21.602 10.617 24.887 C11.088 27.488 10.65 29.459 10 32 C11.072 32.083 12.145 32.165 13.25 32.25 C24.777 33.741 35.51 39.261 46 44 C46 44.99 46 45.98 46 47 C45.306 47.221 44.611 47.443 43.896 47.671 C40.68 48.696 37.465 49.723 34.25 50.75 C33.158 51.098 32.066 51.446 30.941 51.805 C24.39 53.898 17.861 56.044 11.354 58.274 C9 59 9 59 7 59 C7.214 59.71 7.428 60.419 7.649 61.15 C8.093 64.756 7.244 66.374 5.613 69.598 C5.087 70.646 4.56 71.695 4.018 72.775 C3.174 74.403 3.174 74.403 2.312 76.062 C1.769 77.151 1.226 78.24 0.666 79.361 C-1.816 84.239 -3.928 88.268 -8 92 C-8.437 90.944 -8.437 90.944 -8.883 89.867 C-9.293 88.88 -9.703 87.892 -10.125 86.875 C-10.575 85.79 -11.025 84.704 -11.488 83.586 C-12.528 81.121 -13.582 78.671 -14.668 76.227 C-14.942 75.605 -15.215 74.984 -15.498 74.344 C-16.281 72.571 -17.072 70.801 -17.863 69.031 C-19 66 -19 66 -19 62 C-19.543 61.759 -20.086 61.518 -20.646 61.269 C-30.873 56.718 -41.058 52.153 -51 47 C-49.412 43.824 -46.165 43.275 -43 42.062 C-42.317 41.797 -41.633 41.531 -40.929 41.257 C-38.956 40.495 -36.979 39.746 -35 39 C-34.116 38.662 -33.231 38.325 -32.32 37.977 C-27.217 36.142 -22.406 35.429 -17 35 C-16.917 34.216 -16.835 33.433 -16.75 32.625 C-14.507 21.785 -7.924 7.924 0 0 Z " fill="#F7E855" transform="translate(155,91)"/>
<path d="M0 0 C0.66 0 1.32 0 2 0 C2.349 0.999 2.699 1.998 3.059 3.027 C3.518 4.331 3.978 5.634 4.438 6.938 C4.668 7.597 4.898 8.256 5.135 8.936 C6.12 12.223 6.12 12.223 8 15 C8.041 17.333 8.042 19.667 8 22 C9.155 22.021 10.31 22.041 11.5 22.062 C16.568 22.598 20.877 24.411 25.5 26.438 C26.219 26.75 26.937 27.063 27.678 27.385 C32.866 29.733 32.866 29.733 34 32 C25.09 34.97 16.18 37.94 7 41 C6.67 42.65 6.34 44.3 6 46 C4.566 49.347 2.828 52.533 1.125 55.75 C0.454 57.063 0.454 57.063 -0.23 58.402 C-0.667 59.234 -1.104 60.065 -1.555 60.922 C-1.952 61.681 -2.348 62.44 -2.757 63.222 C-4 65 -4 65 -7 66 C-8.178 63.088 -9.34 60.17 -10.5 57.25 C-11.001 56.013 -11.001 56.013 -11.512 54.75 C-11.828 53.951 -12.143 53.152 -12.469 52.328 C-12.909 51.228 -12.909 51.228 -13.357 50.106 C-14 48 -14 48 -14 44 C-14.654 43.745 -15.307 43.49 -15.98 43.227 C-19.789 41.679 -23.549 40.03 -27.312 38.375 C-28.053 38.05 -28.794 37.725 -29.557 37.391 C-31.371 36.594 -33.186 35.797 -35 35 C-35 34.01 -35 33.02 -35 32 C-33.211 31.222 -31.419 30.453 -29.625 29.688 C-28.534 29.221 -27.444 28.754 -26.32 28.273 C-23.355 27.136 -20.598 26.451 -17.5 25.812 C-14.62 24.985 -13.384 24.61 -11.773 22.051 C-11.154 20.378 -10.588 18.686 -10.066 16.98 C-8.751 13.305 -6.891 10.226 -4.812 6.938 C-4.118 5.833 -3.423 4.728 -2.707 3.59 C-1 1 -1 1 0 0 Z " fill="#F6E753" transform="translate(159,776)"/>
<path d="M0 0 C0.66 0 1.32 0 2 0 C2.843 2.226 3.675 4.455 4.5 6.688 C4.738 7.313 4.977 7.939 5.223 8.584 C6.541 12.182 7.293 15.165 7 19 C8.279 19.083 9.558 19.165 10.875 19.25 C16.25 19.846 21.249 21.395 26 24 C26.66 24.99 27.32 25.98 28 27 C14.551 33.888 14.551 33.888 7 33 C6.894 34.004 6.789 35.008 6.68 36.043 C6.1 40.082 4.744 43.562 3.125 47.312 C2.612 48.526 2.099 49.739 1.57 50.988 C0 54 0 54 -3 56 C-6.444 49.086 -8.887 42.66 -10 35 C-11.303 34.619 -11.303 34.619 -12.633 34.23 C-13.785 33.886 -14.938 33.542 -16.125 33.188 C-17.262 32.851 -18.399 32.515 -19.57 32.168 C-22.899 31.034 -25.897 29.646 -29 28 C-27.429 24.859 -24.292 24.22 -21.188 22.938 C-20.558 22.669 -19.928 22.4 -19.279 22.123 C-14.324 20.038 -14.324 20.038 -11.773 19.738 C-8.652 18.439 -7.756 15.176 -6.438 12.25 C-2.201 3.195 -2.201 3.195 0 0 Z " fill="#F9E539" transform="translate(867,150)"/>
<path d="M0 0 C-3.96 1.98 -7.92 3.96 -12 6 C-12 6.99 -12 7.98 -12 9 C-10.35 9 -8.7 9 -7 9 C-7.33 9.66 -7.66 10.32 -8 11 C-11.3 10.01 -14.6 9.02 -18 8 C-18 7.01 -18 6.02 -18 5 C-15.756 3.965 -13.506 2.947 -11.25 1.938 C-10.299 1.496 -10.299 1.496 -9.328 1.045 C-5.475 -0.661 -4.238 -1.059 0 0 Z " fill="#EBE732" transform="translate(857,171)"/>
<path d="M0 0 C0.66 0 1.32 0 2 0 C4.125 6.75 4.125 6.75 3 9 C1.062 9.688 1.062 9.688 -1 10 C-1.66 9.67 -2.32 9.34 -3 9 C-3.33 9.66 -3.66 10.32 -4 11 C-4.33 10.34 -4.66 9.68 -5 9 C-4.004 6.836 -4.004 6.836 -2.562 4.375 C-2.089 3.558 -1.616 2.74 -1.129 1.898 C-0.756 1.272 -0.384 0.645 0 0 Z " fill="#F0E62F" transform="translate(867,150)"/>
<path d="M0 0 C0.66 0.33 1.32 0.66 2 1 C1.446 2.025 0.891 3.05 0.32 4.105 C-0.412 5.466 -1.143 6.827 -1.875 8.188 C-2.24 8.861 -2.605 9.535 -2.98 10.229 C-4.525 13.108 -5.954 15.881 -7.125 18.938 C-7.414 19.618 -7.702 20.299 -8 21 C-10.125 21.812 -10.125 21.812 -12 22 C-12 21.34 -12 20.68 -12 20 C-11.01 20 -10.02 20 -9 20 C-8.896 19.301 -8.791 18.603 -8.684 17.883 C-7.898 14.57 -6.614 11.903 -5.062 8.875 C-4.538 7.841 -4.013 6.807 -3.473 5.742 C-2 3 -2 3 0 0 Z " fill="#138C8F" transform="translate(154,780)"/>
<path d="M0 0 C2.97 0.99 5.94 1.98 9 3 C9 3.99 9 4.98 9 6 C1.25 7 1.25 7 -1 7 C-0.67 4.69 -0.34 2.38 0 0 Z " fill="#ECE650" transform="translate(192,132)"/>
<path d="M0 0 C0 2.31 0 4.62 0 7 C-2.64 5.68 -5.28 4.36 -8 3 C-6.231 -0.538 -3.704 0 0 0 Z " fill="#E9E20F" transform="translate(844,826)"/>
<path d="M0 0 C0.99 1.485 0.99 1.485 2 3 C3.313 4.354 4.646 5.688 6 7 C6.66 7.66 7.32 8.32 8 9 C6.68 10.32 5.36 11.64 4 13 C3.324 11.588 2.66 10.17 2 8.75 C1.629 7.961 1.258 7.172 0.875 6.359 C0 4 0 4 0 0 Z " fill="#F4EC31" transform="translate(860,193)"/>
<path d="M0 0 C1.774 0.593 3.544 1.2 5.312 1.812 C6.299 2.149 7.285 2.485 8.301 2.832 C10.871 3.944 12.222 4.882 14 7 C11.625 7.625 11.625 7.625 9 8 C8.34 7.34 7.68 6.68 7 6 C7.33 5.34 7.66 4.68 8 4 C7.051 3.856 6.102 3.711 5.125 3.562 C2 3 2 3 0 2 C0 1.34 0 0.68 0 0 Z " fill="#F0EB49" transform="translate(179,801)"/>
<path d="M0 0 C0 0.66 0 1.32 0 2 C-1.482 3.219 -2.967 4.435 -4.473 5.625 C-6.507 7.457 -7.651 9.64 -9 12 C-9.66 12 -10.32 12 -11 12 C-9.43 6.82 -5.863 0 0 0 Z " fill="#0F7E85" transform="translate(804,757)"/>
<path d="M0 0 C3.006 3.006 2.596 5.824 3 10 C3.99 10 4.98 10 6 10 C6 10.66 6 11.32 6 12 C4.35 12 2.7 12 1 12 C0.67 8.04 0.34 4.08 0 0 Z " fill="#038098" transform="translate(895,801)"/>
<path d="M0 0 C5.75 1.75 5.75 1.75 8 4 C5.69 4.66 3.38 5.32 1 6 C0.67 4.02 0.34 2.04 0 0 Z " fill="#EBE314" transform="translate(928,824)"/>
<path d="M0 0 C0.66 0 1.32 0 2 0 C2.66 0.99 3.32 1.98 4 3 C4.66 2.34 5.32 1.68 6 1 C6.33 2.32 6.66 3.64 7 5 C5.188 5.688 5.188 5.688 3 6 C1.25 4.75 1.25 4.75 0 3 C0 2.01 0 1.02 0 0 Z " fill="#128C89" transform="translate(144,179)"/>
<path d="M0 0 C4.547 -0.369 4.547 -0.369 6.688 1.375 C7.121 1.911 7.554 2.447 8 3 C8.66 3.66 9.32 4.32 10 5 C6.442 4.39 3.317 3.422 0 2 C0 1.34 0 0.68 0 0 Z " fill="#078295" transform="translate(886,170)"/>
<path d="M0 0 C2 3.75 2 3.75 2 6 C1.01 6.33 0.02 6.66 -1 7 C-1.99 6.34 -2.98 5.68 -4 5 C-3.01 4.34 -2.02 3.68 -1 3 C-0.67 2.01 -0.34 1.02 0 0 Z " fill="#1B9088" transform="translate(884,871)"/>
<path d="M0 0 C0.688 1.688 0.688 1.688 1 4 C-0.438 6.75 -0.438 6.75 -2 9 C-3.044 5.867 -2.934 5.01 -2 2 C-1.34 2 -0.68 2 0 2 C0 1.34 0 0.68 0 0 Z " fill="#118990" transform="translate(884,777)"/>
</svg>
