<?xml version="1.0" encoding="UTF-8"?>
<!-- Generator: visioncortex VTracer 0.6.4 -->
<svg version="1.1" xmlns="http://www.w3.org/2000/svg" width="1024" height="1024">
<path d="M0 0 C337.92 0 675.84 0 1024 0 C1024 337.92 1024 675.84 1024 1024 C686.08 1024 348.16 1024 0 1024 C0 686.08 0 348.16 0 0 Z " fill="#06050B" transform="translate(0,0)"/>
<path d="M0 0 C47.104 -0.036 94.207 0.065 141.311 0.176 C145.497 0.186 149.683 0.196 153.869 0.206 C172.629 0.25 191.39 0.294 210.15 0.339 C214.696 0.35 219.242 0.361 223.788 0.372 C224.916 0.375 226.045 0.378 227.208 0.381 C245.106 0.424 263.005 0.465 280.904 0.505 C299.701 0.547 318.498 0.591 337.295 0.637 C346.592 0.66 355.889 0.682 365.186 0.702 C461.459 0.908 557.728 1.499 654 2 C654.33 199.34 654.66 396.68 655 600 C527.723 600.031 527.723 600.031 397.875 600.062 C371.332 600.072 344.789 600.081 317.441 600.09 C284.395 600.095 284.395 600.095 268.802 600.095 C258.866 600.096 248.93 600.099 238.993 600.104 C180.531 600.135 122.072 600.061 63.612 599.588 C59.705 599.557 55.799 599.527 51.893 599.497 C45.824 599.451 39.755 599.399 33.686 599.343 C31.47 599.323 29.255 599.305 27.039 599.288 C24.009 599.264 20.978 599.235 17.948 599.204 C17.08 599.198 16.212 599.193 15.318 599.187 C9.5 599.119 3.78 598.665 -2 598 C-2.122 560.699 -2.074 523.398 -1.795 486.098 C-1.79 485.417 -1.785 484.736 -1.78 484.034 C-1.731 477.581 -1.683 471.127 -1.634 464.673 C-1.149 400.473 -0.857 336.273 -0.684 272.07 C-0.681 271.068 -0.678 270.066 -0.675 269.033 C-0.607 243.602 -0.544 218.172 -0.483 192.741 C-0.447 178.014 -0.41 163.287 -0.372 148.56 C-0.37 147.503 -0.367 146.446 -0.364 145.357 C-0.35 140.049 -0.337 134.74 -0.323 129.431 C-0.211 86.288 -0.104 43.144 0 0 Z " fill="#05050B" transform="translate(185,211)"/>
<path d="M0 0 C51.476 -0.023 102.951 -0.041 154.427 -0.051 C160.668 -0.052 166.909 -0.054 173.151 -0.055 C174.392 -0.055 175.633 -0.055 176.912 -0.056 C192.513 -0.059 208.114 -0.064 223.714 -0.072 C374.147 -0.143 524.566 0.371 675 1 C675 204.94 675 408.88 675 619 C601.884 619.021 528.769 619.041 453.438 619.062 C419.537 619.076 419.537 619.076 384.951 619.09 C366.237 619.094 347.523 619.098 328.809 619.098 C327.593 619.098 326.378 619.098 325.126 619.098 C249.24 619.093 173.356 618.958 97.471 618.606 C90.572 618.574 83.674 618.544 76.776 618.514 C65.029 618.464 53.283 618.408 41.536 618.345 C37.662 618.324 33.787 618.306 29.913 618.289 C25.482 618.27 21.051 618.246 16.62 618.218 C15.014 618.209 13.409 618.202 11.804 618.196 C9.64 618.188 7.477 618.174 5.314 618.158 C4.11 618.151 2.905 618.145 1.665 618.138 C-1 618 -1 618 -2 617 C-2.099 615.034 -2.126 613.065 -2.127 611.097 C-2.131 609.15 -2.131 609.15 -2.136 607.165 C-2.134 605.7 -2.132 604.235 -2.129 602.77 C-2.131 601.221 -2.132 599.672 -2.135 598.123 C-2.139 593.802 -2.137 589.481 -2.134 585.16 C-2.132 581.391 -2.134 577.623 -2.136 573.854 C-2.141 562.21 -2.136 550.565 -2.129 538.921 C-2.125 532.126 -2.123 525.33 -2.121 518.535 C-2.097 428.555 -1.868 338.575 -1.61 248.596 C-1.583 239.402 -1.557 230.209 -1.533 221.015 C-1.53 220.113 -1.528 219.211 -1.525 218.281 C-1.52 216.464 -1.515 214.647 -1.511 212.83 C-1.465 196.016 -1.417 179.202 -1.363 162.389 C-1.337 154.194 -1.312 145.999 -1.291 137.804 C-1.169 91.864 -0.697 45.935 0 0 Z M10 9 C9.998 9.72 9.997 10.439 9.995 11.181 C9.89 54.654 9.781 98.128 9.669 141.601 C9.655 146.921 9.641 152.24 9.628 157.56 C9.625 158.618 9.622 159.676 9.619 160.766 C9.582 175.449 9.545 190.132 9.51 204.815 C9.449 230.233 9.385 255.652 9.316 281.07 C9.314 282.074 9.311 283.078 9.308 284.112 C9.135 348.04 8.833 411.967 8.349 475.894 C8.301 482.295 8.253 488.696 8.205 495.098 C8.2 495.772 8.195 496.447 8.19 497.142 C7.917 533.761 7.881 570.38 8 607 C14.666 607.767 21.24 608.16 27.948 608.204 C28.899 608.214 29.85 608.223 30.83 608.233 C33.992 608.264 37.154 608.289 40.316 608.313 C42.594 608.333 44.873 608.354 47.152 608.375 C53.354 608.431 59.557 608.48 65.759 608.527 C69.702 608.557 73.644 608.588 77.587 608.62 C135.407 609.085 193.227 609.134 251.049 609.103 C265.498 609.096 279.946 609.095 294.395 609.095 C332.222 609.089 370.048 609.075 407.875 609.062 C535.152 609.032 535.152 609.032 665 609 C664.67 411.66 664.34 214.32 664 11 C518.314 10.199 518.314 10.199 372.628 9.697 C363.078 9.676 353.529 9.652 343.979 9.629 C325.19 9.583 306.401 9.539 287.612 9.497 C269.671 9.457 251.729 9.416 233.788 9.372 C232.661 9.37 231.534 9.367 230.373 9.364 C225.832 9.353 221.292 9.342 216.751 9.331 C198.065 9.286 179.379 9.242 160.693 9.198 C156.541 9.189 152.39 9.179 148.238 9.169 C102.159 9.06 56.08 8.965 10 9 Z " fill="#EBC399" transform="translate(175,202)"/>
<path d="M0 0 C86.79 0 173.58 0 263 0 C264.153 87.636 264.153 87.636 264.116 121.174 C264.112 126.397 264.113 131.62 264.114 136.843 C264.114 145.786 264.111 154.728 264.106 163.67 C264.097 176.597 264.095 189.524 264.094 202.451 C264.092 223.45 264.085 244.45 264.075 265.449 C264.066 285.786 264.059 306.122 264.055 326.459 C264.055 328.356 264.055 328.356 264.054 330.291 C264.053 336.637 264.052 342.984 264.05 349.33 C264.04 401.554 264.023 453.777 264 506 C263.67 506 263.34 506 263 506 C263 541.97 263 577.94 263 615 C253.43 615 243.86 615 234 615 C234 614.67 234 614.34 234 614 C243.24 614 252.48 614 262 614 C261.67 613.34 261.34 612.68 261 612 C259.35 612.33 257.7 612.66 256 613 C256 610 256 610 257 607 C256.34 606.67 255.68 606.34 255 606 C254.67 595.44 254.34 584.88 254 574 C253.67 574 253.34 574 253 574 C253 387.55 253 201.1 253 9 C189.64 9 126.28 9 61 9 C61 8.67 61 8.34 61 8 C50.11 7.505 50.11 7.505 39 7 C39 6.67 39 6.34 39 6 C51.87 5.67 64.74 5.34 78 5 C78.33 4.01 78.66 3.02 79 2 C52.93 1.67 26.86 1.34 0 1 C0 0.67 0 0.34 0 0 Z " fill="#E3B98E" transform="translate(586,204)"/>
<path d="M0 0 C104.535 -0.042 104.535 -0.042 142.954 -0.051 C144.126 -0.051 145.298 -0.051 146.505 -0.052 C164.094 -0.056 181.684 -0.059 199.273 -0.062 C203.051 -0.062 206.829 -0.063 210.607 -0.064 C432.955 -0.102 432.955 -0.102 582.75 0.5 C583.993 0.506 585.236 0.512 586.516 0.518 C595.052 0.559 603.589 0.601 612.125 0.644 C613.712 0.652 613.712 0.652 615.331 0.66 C635.221 0.761 655.11 0.882 675 1 C675 26.41 675 51.82 675 78 C674.67 78 674.34 78 674 78 C674 52.92 674 27.84 674 2 C650.322 2.018 626.644 2.056 602.966 2.132 C591.972 2.167 580.979 2.192 569.985 2.196 C560.405 2.199 550.826 2.219 541.246 2.261 C536.172 2.282 531.097 2.294 526.023 2.286 C521.25 2.279 516.477 2.294 511.704 2.328 C509.95 2.336 508.195 2.336 506.44 2.327 C504.049 2.315 501.661 2.334 499.27 2.361 C498.221 2.345 498.221 2.345 497.151 2.328 C494.983 2.318 494.983 2.318 492 3 C491.517 3.828 491.034 4.656 490.536 5.509 C490.029 6.331 489.522 7.153 489 8 C486.182 8.465 483.972 8.588 481.16 8.493 C479.96 8.484 479.96 8.484 478.736 8.473 C476.066 8.446 473.398 8.383 470.728 8.322 C468.832 8.297 466.935 8.274 465.039 8.254 C461.042 8.209 457.046 8.152 453.049 8.087 C444.446 7.953 435.844 7.954 427.24 7.944 C422.356 7.937 417.472 7.918 412.588 7.899 C411.098 7.893 411.098 7.893 409.578 7.887 C395.529 7.834 381.48 7.775 367.431 7.712 C356.032 7.662 344.632 7.615 333.232 7.578 C323.167 7.545 313.101 7.506 303.036 7.457 C297.739 7.432 292.443 7.41 287.147 7.397 C282.204 7.384 277.262 7.362 272.319 7.333 C270.506 7.324 268.693 7.318 266.881 7.316 C264.414 7.312 261.948 7.297 259.481 7.278 C258.399 7.281 258.399 7.281 257.295 7.284 C253.639 7.243 252.131 7.087 249 5 C249 4.34 249 3.68 249 3 C249.66 2.67 250.32 2.34 251 2 C168.5 1.67 86 1.34 1 1 C1 86.14 1 171.28 1 259 C0.67 259 0.34 259 0 259 C0 173.53 0 88.06 0 0 Z " fill="#F7D9B3" transform="translate(175,202)"/>
<path d="M0 0 C0.33 0 0.66 0 1 0 C1 23.43 1 46.86 1 71 C8.59 70.67 16.18 70.34 24 70 C24 69.67 24 69.34 24 69 C27.465 68.505 27.465 68.505 31 68 C31 67.34 31 66.68 31 66 C38.596 63.468 46.993 65 55 65 C40.15 64.67 25.3 64.34 10 64 C10 63.67 10 63.34 10 63 C26.729 62.967 43.458 62.948 60.188 62.938 C61.186 62.937 61.186 62.937 62.204 62.936 C126.97 62.895 191.735 63.194 256.5 63.5 C257.766 63.506 259.032 63.512 260.336 63.518 C293.224 63.673 326.112 63.834 359 64 C359 64.33 359 64.66 359 65 C315.44 65.33 271.88 65.66 227 66 C226.01 67.98 226.01 67.98 225 70 C224.01 70.33 223.02 70.66 222 71 C255.99 71.33 289.98 71.66 325 72 C325 72.33 325 72.66 325 73 C283.741 73.023 242.483 73.04 201.224 73.051 C196.358 73.052 191.493 73.054 186.627 73.055 C185.659 73.055 184.69 73.055 183.692 73.056 C167.985 73.06 152.279 73.068 136.572 73.077 C120.468 73.086 104.365 73.092 88.261 73.094 C78.316 73.095 68.37 73.1 58.425 73.108 C51.615 73.113 44.805 73.115 37.994 73.114 C34.059 73.113 30.124 73.114 26.189 73.119 C22.592 73.124 18.996 73.124 15.399 73.121 C13.469 73.12 11.539 73.125 9.609 73.129 C8.479 73.127 7.348 73.125 6.183 73.123 C4.707 73.124 4.707 73.124 3.202 73.124 C1 73 1 73 0 72 C-0.094 69.761 -0.117 67.518 -0.114 65.277 C-0.114 64.575 -0.114 63.872 -0.114 63.149 C-0.113 60.816 -0.105 58.484 -0.098 56.152 C-0.096 54.54 -0.094 52.927 -0.093 51.314 C-0.09 47.061 -0.08 42.808 -0.069 38.555 C-0.058 34.218 -0.054 29.882 -0.049 25.545 C-0.038 17.03 -0.021 8.515 0 0 Z " fill="#F3D0A8" transform="translate(173,747)"/>
<path d="M0 0 C0.33 0 0.66 0 1 0 C1.129 47.667 1.257 95.334 1.382 143.001 C1.397 148.701 1.412 154.401 1.427 160.101 C1.43 161.236 1.433 162.37 1.436 163.538 C1.484 181.612 1.533 199.685 1.582 217.758 C1.633 236.473 1.682 255.188 1.731 273.902 C1.76 285.201 1.79 296.5 1.822 307.799 C2.001 371.867 2 435.932 2 500 C-110.2 500 -222.4 500 -338 500 C-338 499.67 -338 499.34 -338 499 C-337.433 498.998 -336.867 498.997 -336.283 498.995 C-302.57 498.891 -268.858 498.783 -235.145 498.669 C-231.082 498.655 -227.018 498.641 -222.955 498.628 C-222.146 498.625 -221.337 498.622 -220.504 498.619 C-207.471 498.576 -194.438 498.535 -181.405 498.495 C-167.995 498.455 -154.585 498.41 -141.175 498.363 C-132.925 498.334 -124.675 498.308 -116.425 498.285 C-110.739 498.269 -105.053 498.249 -99.367 498.227 C-96.105 498.215 -92.843 498.204 -89.58 498.197 C-71.699 498.154 -53.866 497.715 -36 497 C-36 496.34 -36 495.68 -36 495 C-36.99 494.67 -37.98 494.34 -39 494 C-39.99 493.67 -40.98 493.34 -42 493 C-43.469 492.906 -44.942 492.866 -46.414 492.861 C-47.322 492.856 -48.23 492.85 -49.166 492.845 C-50.165 492.844 -51.164 492.843 -52.193 492.842 C-53.254 492.837 -54.314 492.832 -55.406 492.827 C-58.976 492.811 -62.546 492.803 -66.116 492.795 C-68.668 492.785 -71.22 492.775 -73.772 492.765 C-79.276 492.743 -84.779 492.725 -90.283 492.709 C-98.24 492.686 -106.197 492.658 -114.155 492.629 C-127.064 492.581 -139.974 492.538 -152.883 492.497 C-165.425 492.458 -177.966 492.417 -190.508 492.372 C-191.281 492.37 -192.054 492.367 -192.85 492.364 C-196.727 492.35 -200.604 492.337 -204.481 492.323 C-236.654 492.209 -268.827 492.102 -301 492 C-301 491.67 -301 491.34 -301 491 C-274.019 490.867 -247.039 490.737 -220.058 490.609 C-207.521 490.549 -194.983 490.489 -182.446 490.427 C-93.525 489.989 -93.525 489.989 -59.963 489.969 C-59.109 489.968 -58.255 489.968 -57.375 489.967 C-40.916 489.959 -24.458 489.983 -8 490 C-8 458.65 -8 427.3 -8 395 C-7.67 395 -7.34 395 -7 395 C-7 426.02 -7 457.04 -7 489 C-6.01 489.33 -5.02 489.66 -4 490 C-4.165 490.639 -4.33 491.279 -4.5 491.938 C-5.039 493.808 -5.039 493.808 -5 495 C-3.68 495 -2.36 495 -1 495 C-0.67 494.34 -0.34 493.68 0 493 C0.33 494.65 0.66 496.3 1 498 C0.97 496.7 0.941 495.401 0.91 494.061 C0.228 463.801 -0.147 433.558 -0.116 403.29 C-0.112 397.841 -0.113 392.392 -0.114 386.943 C-0.114 377.57 -0.111 368.198 -0.106 358.825 C-0.097 345.275 -0.095 331.725 -0.094 318.175 C-0.092 296.175 -0.085 274.174 -0.075 252.174 C-0.066 230.842 -0.059 209.51 -0.055 188.177 C-0.055 187.516 -0.055 186.855 -0.055 186.174 C-0.053 178.874 -0.052 171.573 -0.05 164.273 C-0.04 109.515 -0.022 54.758 0 0 Z " fill="#F7E0BA" transform="translate(848,321)"/>
<path d="M0 0 C2.009 0.001 4.018 0.001 6.026 0.002 C40.498 0.013 74.969 0.033 109.44 0.063 C109.44 0.393 109.44 0.723 109.44 1.063 C107.855 1.07 107.855 1.07 106.238 1.076 C80.17 1.181 54.101 1.289 28.032 1.402 C15.424 1.457 2.815 1.51 -9.793 1.56 C-24.378 1.619 -38.963 1.68 -53.548 1.747 C-54.732 1.752 -55.917 1.758 -57.137 1.763 C-96.283 1.944 -135.42 2.314 -174.56 3.063 C-174.56 4.053 -174.56 5.043 -174.56 6.063 C-166.31 6.393 -158.06 6.723 -149.56 7.063 C-149.56 7.393 -149.56 7.723 -149.56 8.063 C-210.94 8.063 -272.32 8.063 -335.56 8.063 C-335.56 7.733 -335.56 7.403 -335.56 7.063 C-296.455 6.568 -296.455 6.568 -256.56 6.063 C-256.23 5.073 -255.9 4.083 -255.56 3.063 C-256.88 2.403 -258.2 1.743 -259.56 1.063 C-241.56 0.875 -223.56 0.713 -205.56 0.563 C-204.846 0.557 -204.131 0.551 -203.396 0.545 C-135.598 -0.018 -67.8 -0.022 0 0 Z " fill="#DDB690" transform="translate(654.5597372055054,810.9368414878845)"/>
<path d="M0 0 C30.252 -0.046 60.503 -0.081 90.755 -0.102 C94.325 -0.105 97.895 -0.107 101.465 -0.11 C102.176 -0.11 102.886 -0.111 103.619 -0.111 C115.133 -0.12 126.647 -0.136 138.161 -0.154 C149.972 -0.173 161.783 -0.184 173.594 -0.188 C180.229 -0.191 186.865 -0.197 193.5 -0.211 C199.742 -0.225 205.983 -0.229 212.224 -0.226 C214.519 -0.227 216.813 -0.231 219.108 -0.238 C222.233 -0.248 225.358 -0.246 228.484 -0.241 C229.398 -0.246 230.312 -0.252 231.254 -0.258 C232.091 -0.254 232.928 -0.25 233.791 -0.246 C234.873 -0.247 234.873 -0.247 235.977 -0.248 C238.343 0.042 239.933 0.838 242 2 C242.99 2.495 242.99 2.495 244 3 C244 3.66 244 4.32 244 5 C223.891 6.703 203.96 7.282 183.79 7.203 C179.943 7.19 176.097 7.189 172.251 7.187 C165.02 7.181 157.789 7.164 150.558 7.144 C142.303 7.121 134.049 7.111 125.795 7.101 C108.863 7.08 91.932 7.045 75 7 C75 6.67 75 6.34 75 6 C107.67 6 140.34 6 174 6 C174 5.01 174 4.02 174 3 C177.465 2.505 177.465 2.505 181 2 C121.27 1.67 61.54 1.34 0 1 C0 0.67 0 0.34 0 0 Z " fill="#EBBD91" transform="translate(568,813)"/>
<path d="M0 0 C0.33 0 0.66 0 1 0 C1 55.44 1 110.88 1 168 C2.65 167.67 4.3 167.34 6 167 C8.769 166.912 11.511 166.874 14.279 166.886 C15.099 166.886 15.919 166.886 16.764 166.886 C19.463 166.887 22.163 166.894 24.863 166.902 C26.739 166.904 28.616 166.906 30.492 166.907 C35.422 166.91 40.352 166.92 45.283 166.931 C50.317 166.942 55.351 166.946 60.385 166.951 C70.257 166.962 80.128 166.979 90 167 C90 167.33 90 167.66 90 168 C80.1 168.495 80.1 168.495 70 169 C70 169.33 70 169.66 70 170 C62.219 170.023 54.439 170.041 46.658 170.052 C43.044 170.057 39.43 170.064 35.816 170.075 C32.322 170.086 28.827 170.092 25.332 170.095 C23.366 170.098 21.4 170.105 19.433 170.113 C12.557 170.114 5.824 169.873 -1 169 C-1.032 157.333 -1.051 145.667 -1.062 134 C-1.063 133.113 -1.064 132.227 -1.065 131.313 C-1.091 100.518 -0.875 69.73 -0.5 38.938 C-0.488 37.955 -0.476 36.972 -0.464 35.959 C-0.317 23.972 -0.163 11.986 0 0 Z " fill="#130D0C" transform="translate(184,640)"/>
<path d="M0 0 C6.6 0 13.2 0 20 0 C19.67 1.32 19.34 2.64 19 4 C19.99 4.99 19.99 4.99 21 6 C10.188 6.186 -0.625 6.349 -11.438 6.5 C-12.289 6.512 -13.141 6.524 -14.018 6.536 C-52.532 7.065 -91.046 7.085 -129.562 7.062 C-130.299 7.062 -131.035 7.062 -131.794 7.061 C-150.862 7.05 -169.931 7.03 -189 7 C-189 6.67 -189 6.34 -189 6 C-187.034 5.985 -187.034 5.985 -185.029 5.969 C-168.311 5.837 -151.593 5.701 -134.875 5.562 C-134.209 5.557 -133.544 5.551 -132.858 5.546 C-98.467 5.261 -64.076 4.956 -29.688 4.438 C-28.582 4.421 -28.582 4.421 -27.454 4.404 C-18.97 4.275 -10.485 4.142 -2 4 C-1.34 2.68 -0.68 1.36 0 0 Z " fill="#EDCAA6" transform="translate(570,814)"/>
<path d="M0 0 C0.33 0 0.66 0 1 0 C1.01 0.699 1.021 1.397 1.031 2.117 C1.129 8.722 1.232 15.328 1.339 21.933 C1.394 25.328 1.448 28.724 1.497 32.119 C1.554 36.029 1.619 39.938 1.684 43.848 C1.7 45.058 1.717 46.269 1.734 47.516 C1.754 48.657 1.774 49.798 1.795 50.973 C1.818 52.468 1.818 52.468 1.842 53.994 C1.958 57.085 1.958 57.085 2.505 60.454 C2.992 63.944 3.127 67.245 3.129 70.767 C3.133 72.073 3.136 73.379 3.139 74.725 C3.137 76.137 3.135 77.549 3.133 78.961 C3.133 80.435 3.134 81.909 3.136 83.382 C3.137 86.471 3.135 89.559 3.13 92.647 C3.125 96.554 3.128 100.461 3.134 104.368 C3.138 107.416 3.136 110.464 3.134 113.511 C3.133 114.949 3.134 116.386 3.136 117.823 C3.15 128.251 2.708 138.598 2 149 C1.67 149 1.34 149 1 149 C0.67 141.74 0.34 134.48 0 127 C-0.33 127 -0.66 127 -1 127 C-1.023 113.837 -1.041 100.675 -1.052 87.512 C-1.057 81.398 -1.064 75.283 -1.075 69.169 C-1.086 63.249 -1.092 57.329 -1.095 51.409 C-1.097 49.17 -1.1 46.931 -1.106 44.692 C-1.141 29.767 -0.785 14.905 0 0 Z " fill="#D7AB80" transform="translate(840,651)"/>
<path d="M0 0 C25.74 0 51.48 0 78 0 C78 0.33 78 0.66 78 1 C77.085 1.061 76.17 1.121 75.227 1.184 C74.038 1.267 72.85 1.351 71.625 1.438 C70.442 1.519 69.258 1.6 68.039 1.684 C65.085 1.811 65.085 1.811 63 3 C61.126 3.07 59.25 3.084 57.375 3.062 C56.372 3.053 55.369 3.044 54.336 3.035 C53.565 3.024 52.794 3.012 52 3 C52 3.66 52 4.32 52 5 C52.608 4.916 53.217 4.832 53.844 4.746 C62.333 3.76 70.518 4.308 79 5 C79 5.33 79 5.66 79 6 C71.383 6.025 63.766 6.043 56.148 6.055 C53.557 6.06 50.965 6.067 48.373 6.075 C44.65 6.088 40.926 6.093 37.203 6.098 C36.043 6.103 34.882 6.108 33.686 6.113 C32.065 6.113 32.065 6.113 30.411 6.114 C28.986 6.117 28.986 6.117 27.531 6.12 C25.202 6.01 23.228 5.661 21 5 C21 4.34 21 3.68 21 3 C28.596 0.468 36.993 2 45 2 C30.15 1.67 15.3 1.34 0 1 C0 0.67 0 0.34 0 0 Z " fill="#F5D1A8" transform="translate(183,810)"/>
<path d="M0 0 C30.69 0 61.38 0 93 0 C93 0.33 93 0.66 93 1 C76.83 1 60.66 1 44 1 C44 1.66 44 2.32 44 3 C14.96 3 -14.08 3 -44 3 C-44 2.67 -44 2.34 -44 2 C-29.48 1.67 -14.96 1.34 0 1 C0 0.67 0 0.34 0 0 Z " fill="#0F0B0D" transform="translate(476,199)"/>
</svg>
