<?xml version="1.0" encoding="UTF-8"?>
<!-- Generator: visioncortex VTracer 0.6.4 -->
<svg version="1.1" xmlns="http://www.w3.org/2000/svg" width="1024" height="1024">
<path d="M0 0 C337.92 0 675.84 0 1024 0 C1024 337.92 1024 675.84 1024 1024 C686.08 1024 348.16 1024 0 1024 C0 686.08 0 348.16 0 0 Z " fill="#74283D" transform="translate(0,0)"/>
<path d="M0 0 C0.66 0 1.32 0 2 0 C2 2.31 2 4.62 2 7 C2.99 7.33 3.98 7.66 5 8 C7.036 20.091 7.005 29.09 4 41 C3.861 41.679 3.722 42.359 3.578 43.059 C0.931 51.948 -5.362 60.711 -12 67 C-12.66 67.66 -13.32 68.32 -14 69 C-15.114 69.402 -15.114 69.402 -16.25 69.812 C-19.189 70.912 -19.189 70.912 -21.75 73.438 C-30.443 80.939 -44.61 81.175 -55.504 81.363 C-58.421 80.939 -59.104 80.153 -61 78 C-61.722 78.041 -62.444 78.082 -63.188 78.125 C-67.536 77.932 -70.497 75.434 -74 73 C-73.01 72.01 -73.01 72.01 -72 71 C-70.928 71.474 -69.855 71.949 -68.75 72.438 C-66.183 73.538 -63.743 74.433 -61 75 C-59.667 75.333 -58.333 75.667 -57 76 C-56.67 75.34 -56.34 74.68 -56 74 C-56 74.99 -56 75.98 -56 77 C-54.515 76.505 -54.515 76.505 -53 76 C-51.522 75.932 -50.042 75.915 -48.562 75.938 C-47.801 75.947 -47.039 75.956 -46.254 75.965 C-45.51 75.976 -44.766 75.988 -44 76 C-40.221 76.329 -40.221 76.329 -38.125 74.938 C-35.17 73.634 -33.083 74.299 -30 75 C-30 74.34 -30 73.68 -30 73 C-27.095 70.958 -25.599 70 -22 70 C-21.505 68.515 -21.505 68.515 -21 67 C-19.701 66.412 -19.701 66.412 -18.375 65.812 C-9.434 61.011 -3.503 50.779 -0.621 41.285 C2.392 30.198 3.261 20.465 2 9 C1.34 9 0.68 9 0 9 C0 6.03 0 3.06 0 0 Z " fill="#542665" transform="translate(329,528)"/>
<path d="M0 0 C0.66 0.33 1.32 0.66 2 1 C1.414 7.152 1.414 7.152 1 9 C0.01 9.495 0.01 9.495 -1 10 C-1.33 8.68 -1.66 7.36 -2 6 C-2.99 7.98 -3.98 9.96 -5 12 C-5.33 11.34 -5.66 10.68 -6 10 C-4.565 6.053 -3.322 2.689 0 0 Z M-3 10 C-2.34 10 -1.68 10 -1 10 C-1.752 17.393 -1.752 17.393 -3.125 20.75 C-4.185 23.476 -3.703 24.222 -3 27 C-2.693 33.405 -2.853 39.689 -4 46 C-4.33 46 -4.66 46 -5 46 C-5.124 44.969 -5.248 43.938 -5.375 42.875 C-5.872 39.109 -5.872 39.109 -7 36.062 C-9.484 28.455 -8.894 22.639 -7 15 C-6.34 15 -5.68 15 -5 15 C-4.34 13.35 -3.68 11.7 -3 10 Z " fill="#372A7C" transform="translate(234,527)"/>
<path d="M0 0 C0.33 0 0.66 0 1 0 C0.601 12.316 0.601 12.316 -4 18 C-4.495 18.99 -4.99 19.98 -5.5 21 C-8.255 26.51 -11.535 30.77 -16 35 C-16.66 35.66 -17.32 36.32 -18 37 C-18.99 36.67 -19.98 36.34 -21 36 C-20.541 35.564 -20.082 35.129 -19.609 34.68 C-16.666 31.823 -13.902 29.094 -11.688 25.625 C-10 23 -10 23 -8 22 C-6.969 19.932 -6.969 19.932 -6.062 17.438 C-5.717 16.536 -5.372 15.635 -5.016 14.707 C-4.513 13.367 -4.513 13.367 -4 12 C-3.706 11.241 -3.412 10.481 -3.109 9.699 C-1.878 6.494 -0.787 3.34 0 0 Z " fill="#4E205F" transform="translate(333,560)"/>
<path d="M0 0 C1.945 2.918 2.453 4.625 3 8 C4.32 8 5.64 8 7 8 C7.268 9.093 7.536 10.186 7.812 11.312 C9.029 15.378 9.029 15.378 12 18 C12.825 18.165 13.65 18.33 14.5 18.5 C17.355 19.071 18.127 19.86 20 22 C20.66 22.33 21.32 22.66 22 23 C22 23.66 22 24.32 22 25 C20.35 24.67 18.7 24.34 17 24 C17 23.34 17 22.68 17 22 C15.68 22 14.36 22 13 22 C13 21.34 13 20.68 13 20 C12.381 19.897 11.762 19.794 11.125 19.688 C9 19 9 19 7 16 C7 15.01 7 14.02 7 13 C6.34 13 5.68 13 5 13 C2.255 8.572 0.515 5.281 0 0 Z " fill="#41256F" transform="translate(233,575)"/>
<path d="M0 0 C0.66 0 1.32 0 2 0 C2 2.31 2 4.62 2 7 C2.99 7.33 3.98 7.66 5 8 C8.092 26.361 8.092 26.361 5 31 C4.951 29.915 4.902 28.829 4.852 27.711 C4.776 26.266 4.701 24.82 4.625 23.375 C4.594 22.662 4.563 21.949 4.531 21.215 C4.29 16.828 3.607 13.141 2 9 C1.34 9 0.68 9 0 9 C0 6.03 0 3.06 0 0 Z " fill="#452064" transform="translate(329,528)"/>
<path d="M0 0 C0.99 0.33 1.98 0.66 3 1 C2.835 1.763 2.67 2.526 2.5 3.312 C1.909 6.036 1.909 6.036 2 9 C1.694 10.34 1.365 11.675 1 13 C-1.454 9.319 -1.233 7.347 -1 3 C-0.67 2.01 -0.34 1.02 0 0 Z " fill="#3E2E7E" transform="translate(229,542)"/>
<path d="M0 0 C0.66 0.33 1.32 0.66 2 1 C-1.465 5.95 -1.465 5.95 -5 11 C-5.66 10.34 -6.32 9.68 -7 9 C-4.69 6.03 -2.38 3.06 0 0 Z " fill="#2A287E" transform="translate(244,510)"/>
<path d="M0 0 C0.66 0 1.32 0 2 0 C2.33 3.63 2.66 7.26 3 11 C2.67 10.34 2.34 9.68 2 9 C1.34 9 0.68 9 0 9 C0 6.03 0 3.06 0 0 Z " fill="#4D2669" transform="translate(329,528)"/>
<path d="M0 0 C1 3 1 3 0.223 4.824 C-0.852 6.549 -1.926 8.275 -3 10 C-3.33 9.34 -3.66 8.68 -4 8 C-1.486 1.486 -1.486 1.486 0 0 Z " fill="#2D287D" transform="translate(232,529)"/>
</svg>
