<svg xmlns="http://www.w3.org/2000/svg" width="1080" height="1080" viewBox="0 0 1080 1080">
  <g id="background-layer">
    <image href="http://localhost:5000/static/images/sessions/bg_20250625_164003_1a3a18fb/background_20250625_164003_a00becea.png" x="0" y="0" width="1080" height="1080"/>
  </g>
  <g id="elements-layer">
    <path d="M0 0 C337.92 0 675.84 0 1024 0 C1024 337.92 1024 675.84 1024 1024 C686.08 1024 348.16 1024 0 1024 C0 686.08 0 348.16 0 0 Z " fill="#310E54" transform="translate(0,0)"/>
    <path d="M0 0 C0.841 0.648 0.841 0.648 1.699 1.309 C5.827 3.373 8.217 3.283 12.699 2.309 C15.32 2.309 17.209 2.622 19.699 3.309 C19.145 3.684 18.591 4.059 18.02 4.445 C13.798 7.427 11.297 9.271 9.699 14.309 C8.467 16.113 7.162 17.839 5.82 19.562 C4.596 21.253 4.596 21.253 4.246 23.266 C3.14 27.399 -0.221 30.468 -3.301 33.309 C-6.488 34.559 -6.488 34.559 -9.301 35.309 C-10.654 36.622 -11.989 37.954 -13.301 39.309 C-15.84 40.232 -17.565 40.309 -20.301 40.309 C-22.59 41.471 -24.751 42.792 -26.949 44.117 C-29.428 45.373 -31.59 45.772 -34.301 46.309 C-36.417 47.359 -36.417 47.359 -38.363 48.684 C-39.054 49.132 -39.745 49.581 -40.457 50.043 C-41.792 50.96 -43.091 51.931 -44.363 52.934 C-46.301 54.309 -46.301 54.309 -49.531 55.66 C-53.085 57.157 -56.281 59.005 -59.551 61.059 C-60.668 61.755 -61.786 62.451 -62.938 63.168 C-65.118 64.556 -67.289 65.961 -69.445 67.387 C-70.408 68.021 -71.371 68.655 -72.363 69.309 C-73.221 69.886 -74.078 70.464 -74.961 71.059 C-77.301 72.309 -77.301 72.309 -81.301 72.309 C-82.291 73.299 -82.291 73.299 -83.301 74.309 C-84.634 74.642 -85.967 74.975 -87.301 75.309 C-88.291 76.299 -88.291 76.299 -89.301 77.309 C-91.426 77.934 -91.426 77.934 -93.301 78.309 C-93.631 76.989 -93.961 75.669 -94.301 74.309 C-97.405 74.05 -98.828 73.951 -101.363 75.871 C-102.003 76.345 -102.642 76.82 -103.301 77.309 C-105.422 76.898 -105.422 76.898 -107.301 76.309 C-107.024 75.705 -106.746 75.102 -106.461 74.48 C-106.099 73.681 -105.736 72.882 -105.363 72.059 C-105.004 71.27 -104.644 70.481 -104.273 69.668 C-103.241 67.404 -103.241 67.404 -102.938 65.242 C-102.017 62.447 -100.366 61.388 -98.051 59.621 C-97.282 59.019 -96.514 58.417 -95.723 57.797 C-93.19 56.241 -91.226 55.698 -88.301 55.309 C-87.971 54.319 -87.641 53.329 -87.301 52.309 C-85.121 50.957 -85.121 50.957 -82.426 49.684 C-81.099 49.046 -81.099 49.046 -79.746 48.395 C-77.301 47.309 -77.301 47.309 -74.301 46.309 C-74.301 45.649 -74.301 44.989 -74.301 44.309 C-66.301 40.309 -66.301 40.309 -64.223 39.363 C-62.183 38.244 -60.935 36.947 -59.301 35.309 C-57.434 34.281 -57.434 34.281 -55.426 33.371 C-51.978 31.723 -49.245 29.762 -46.301 27.309 C-43.565 25.7 -42.542 25.309 -39.301 25.309 C-39.301 24.649 -39.301 23.989 -39.301 23.309 C-38.641 23.309 -37.981 23.309 -37.301 23.309 C-37.301 24.299 -37.301 25.289 -37.301 26.309 C-37.82 26.539 -38.34 26.77 -38.875 27.008 C-43.584 29.21 -46.645 31.557 -50.301 35.309 C-52.987 36.789 -55.643 38.046 -58.488 39.184 C-60.994 40.739 -61.897 42.757 -63.301 45.309 C-63.961 45.969 -64.621 46.629 -65.301 47.309 C-66.621 47.309 -67.941 47.309 -69.301 47.309 C-69.301 47.969 -69.301 48.629 -69.301 49.309 C-70.291 49.804 -70.291 49.804 -71.301 50.309 C-71.631 51.299 -71.961 52.289 -72.301 53.309 C-75.301 55.309 -75.301 55.309 -78.301 55.309 C-78.301 55.969 -78.301 56.629 -78.301 57.309 C-79.198 57.649 -79.198 57.649 -80.113 57.996 C-82.501 59.187 -82.501 59.187 -83.738 61.809 C-85.624 64.826 -87.001 65.209 -90.301 66.309 C-91.291 67.299 -91.291 67.299 -92.301 68.309 C-91.767 68.127 -91.233 67.945 -90.684 67.758 C-89.939 67.506 -89.193 67.255 -88.426 66.996 C-87.597 66.716 -86.768 66.437 -85.914 66.148 C-84.278 65.623 -82.63 65.13 -80.969 64.688 C-74.34 62.918 -68.59 60.009 -62.598 56.734 C-59.182 55.257 -56.974 55.014 -53.301 55.309 C-53.301 54.649 -53.301 53.989 -53.301 53.309 C-52.311 53.309 -51.321 53.309 -50.301 53.309 C-49.971 52.319 -49.641 51.329 -49.301 50.309 C-44.099 45.854 -37.827 43.953 -31.301 42.309 C-31.301 41.649 -31.301 40.989 -31.301 40.309 C-29.428 39.345 -27.553 38.388 -25.676 37.434 C-24.632 36.9 -23.588 36.366 -22.512 35.816 C-19.301 34.309 -19.301 34.309 -16.105 33.246 C-12.742 32.122 -10.218 30.298 -7.301 28.309 C-6.641 28.309 -5.981 28.309 -5.301 28.309 C-5.301 27.649 -5.301 26.989 -5.301 26.309 C-4.311 25.814 -4.311 25.814 -3.301 25.309 C-2.806 24.463 -2.311 23.617 -1.801 22.746 C-1.306 21.942 -0.811 21.137 -0.301 20.309 C0.359 20.309 1.019 20.309 1.699 20.309 C2.194 18.824 2.194 18.824 2.699 17.309 C3.359 17.309 4.019 17.309 4.699 17.309 C5.974 13.655 6.981 10.108 7.699 6.309 C-1.509 5.93 -8.094 6.184 -16.113 10.996 C-18.301 12.309 -18.301 12.309 -21.301 12.309 C-21.301 11.649 -21.301 10.989 -21.301 10.309 C-20.661 10.185 -20.022 10.061 -19.363 9.934 C-18.683 9.727 -18.002 9.521 -17.301 9.309 C-16.971 8.649 -16.641 7.989 -16.301 7.309 C-14.053 5.808 -11.819 4.417 -9.488 3.059 C-8.859 2.669 -8.229 2.28 -7.58 1.879 C-2.877 -0.865 -2.877 -0.865 0 0 Z " fill="#660027"/>
    <!-- Additional paths can be added here from elements SVG if needed, excluding background colored paths -->
  </g>
  <g id="text-layer">
    <style>
      .small-text {
        font-family: Arial, sans-serif;
        font-weight: 700;
        font-size: 36px;
        fill: white;
        text-anchor: middle;
        letter-spacing: 2.7px;
      }
      .large-text {
        font-family: Arial, sans-serif;
        font-weight: 900;
        font-size: 180px;
        fill: white;
        text-anchor: middle;
        letter-spacing: -6px;
      }
    </style>
    <text class="small-text" x="540" y="120">O</text>
    <text class="large-text" x="540" y="550">COMING</text>
    <text class="large-text" x="540" y="740">SOON</text>
    <text class="small-text" x="540" y="870">LAUNCHING SOON</text>
  </g>
</svg>