<?xml version="1.0" encoding="UTF-8"?>
<!-- Generator: visioncortex VTracer 0.6.4 -->
<svg version="1.1" xmlns="http://www.w3.org/2000/svg" width="1024" height="1024">
<path d="M0 0 C337.92 0 675.84 0 1024 0 C1024 337.92 1024 675.84 1024 1024 C686.08 1024 348.16 1024 0 1024 C0 686.08 0 348.16 0 0 Z " fill="#04111C" transform="translate(0,0)"/>
<path d="M0 0 C1.618 0.604 3.237 1.208 4.855 1.812 C15.159 5.73 24.626 10.194 34 16 C35.077 16.625 35.077 16.625 36.176 17.262 C42.31 20.881 47.832 25.39 53.427 29.776 C54.885 30.91 56.36 32.023 57.836 33.133 C58.653 33.749 59.47 34.365 60.312 35 C61.031 35.536 61.749 36.072 62.488 36.625 C62.987 37.079 63.486 37.533 64 38 C64 38.66 64 39.32 64 40 C65.32 40.66 66.64 41.32 68 42 C68 42.66 68 43.32 68 44 C68.585 44.262 69.17 44.523 69.773 44.793 C75.218 47.745 78.957 52.212 81 58 C81.99 58.33 82.98 58.66 84 59 C85.315 60.452 85.315 60.452 86.637 62.324 C87.128 63.016 87.619 63.708 88.125 64.421 C88.64 65.169 89.156 65.917 89.688 66.688 C90.221 67.453 90.754 68.219 91.303 69.008 C98.261 79.13 104.272 89.641 109 101 C109.448 102.074 109.448 102.074 109.904 103.17 C126.723 144.277 128.295 192.432 112 234 C110.551 237.431 109.019 240.816 107.438 244.188 C107.074 244.965 106.71 245.743 106.335 246.544 C103.972 251.423 101.211 255.635 98 260 C96.709 262.76 96.709 262.76 96 265 C95.34 265 94.68 265 94 265 C93.918 265.516 93.835 266.031 93.75 266.562 C92.679 270.045 90.865 272.872 89 276 C88.34 276 87.68 276 87 276 C86.629 276.835 86.629 276.835 86.25 277.688 C84.771 280.424 83.065 282.677 81 285 C80.34 285 79.68 285 79 285 C79 285.99 79 286.98 79 288 C78.34 288 77.68 288 77 288 C77 288.99 77 289.98 77 291 C75.378 292.71 73.706 294.373 72 296 C71.443 296.763 70.886 297.526 70.312 298.312 C69.879 298.869 69.446 299.426 69 300 C68.34 300 67.68 300 67 300 C66.738 300.603 66.476 301.206 66.207 301.827 C64.917 304.149 63.808 305.201 61.691 306.77 C61.032 307.263 60.373 307.756 59.693 308.263 C58.99 308.775 58.287 309.286 57.562 309.812 C56.843 310.344 56.123 310.875 55.381 311.422 C49.744 315.544 43.965 319.37 38 323 C37.119 323.568 37.119 323.568 36.22 324.147 C25.373 331.102 13.41 336.277 1.375 340.812 C0.686 341.078 -0.004 341.343 -0.714 341.617 C-15.126 346.861 -29.847 348.891 -45.062 349.938 C-45.958 350.002 -46.854 350.067 -47.776 350.133 C-62.21 351.141 -75.77 350.891 -90 348 C-91.603 347.713 -93.205 347.428 -94.809 347.145 C-105.733 345.085 -115.814 341.386 -126 337 C-126.877 336.626 -127.755 336.251 -128.659 335.866 C-145.513 328.618 -161.179 320.522 -175.461 308.934 C-177.915 306.849 -177.915 306.849 -181 306 C-182.402 304.609 -182.402 304.609 -183.938 302.75 C-186.592 299.605 -189.331 296.581 -192.17 293.602 C-202.093 283.129 -211.045 271.671 -218 259 C-218.499 258.109 -218.998 257.219 -219.512 256.301 C-221.036 253.548 -222.523 250.778 -224 248 C-224.433 247.211 -224.866 246.422 -225.312 245.609 C-232.504 232.035 -235.745 216.898 -239 202 C-239.171 201.232 -239.342 200.464 -239.518 199.673 C-239.99 197.058 -240.159 194.633 -240.209 191.98 C-240.228 191.002 -240.247 190.024 -240.266 189.017 C-240.28 187.966 -240.294 186.915 -240.309 185.832 C-240.324 184.732 -240.339 183.632 -240.355 182.499 C-240.86 137.79 -240.86 137.79 -234 118 C-233.467 116.326 -232.935 114.652 -232.406 112.977 C-230.361 106.731 -227.972 100.808 -224.972 94.956 C-224.084 93.169 -223.298 91.332 -222.523 89.492 C-212.22 65.873 -192.759 41.045 -171 27 C-170.34 27 -169.68 27 -169 27 C-169 26.34 -169 25.68 -169 25 C-166.698 23.353 -164.41 21.85 -162 20.375 C-160.923 19.709 -160.923 19.709 -159.823 19.031 C-152.999 14.882 -145.967 11.255 -138.754 7.834 C-137.224 7.106 -135.703 6.358 -134.184 5.605 C-93.523 -13.949 -42.021 -16.329 0 0 Z " fill="#FE8313" transform="translate(569,269)"/>
<path d="M0 0 C1.98 0 3.96 0 6 0 C6 75.24 6 150.48 6 228 C6.66 228.33 7.32 228.66 8 229 C7.34 229.33 6.68 229.66 6 230 C6.33 231.65 6.66 233.3 7 235 C6.01 234.67 5.02 234.34 4 234 C-2.602 238.879 -8.137 245.14 -13.917 250.943 C-17.215 254.253 -20.515 257.56 -23.816 260.867 C-26.312 263.369 -28.807 265.871 -31.3 268.375 C-34.193 271.281 -37.091 274.184 -39.988 277.086 C-40.872 277.975 -41.755 278.863 -42.666 279.779 C-47.028 284.141 -51.452 288.341 -56.131 292.361 C-59.241 295.088 -62.163 298 -65.09 300.922 C-65.72 301.549 -66.35 302.175 -66.999 302.821 C-68.313 304.13 -69.627 305.441 -70.939 306.753 C-72.952 308.764 -74.973 310.767 -76.994 312.77 C-78.277 314.049 -79.558 315.329 -80.84 316.609 C-81.746 317.505 -81.746 317.505 -82.67 318.418 C-86.011 321.764 -86.011 321.764 -88 326 C-89.32 326 -90.64 326 -92 326 C-92 325.34 -92 324.68 -92 324 C-134.952 323.142 -177.899 322.888 -220.859 322.877 C-224.789 322.875 -228.718 322.871 -232.647 322.867 C-238.954 322.861 -245.262 322.861 -251.569 322.866 C-253.899 322.867 -256.23 322.866 -258.56 322.864 C-272 322.853 -285.386 323.058 -298.808 323.827 C-299.838 323.878 -300.868 323.929 -301.929 323.981 C-302.837 324.033 -303.746 324.084 -304.683 324.137 C-307 324 -307 324 -310 322 C-309.483 317.775 -307.088 315.589 -304.25 312.562 C-303.389 311.636 -302.528 310.709 -301.641 309.754 C-298.412 306.387 -295.114 303.096 -291.789 299.824 C-287.688 295.775 -283.757 291.661 -280.004 287.289 C-277.431 284.35 -274.781 281.489 -272.125 278.625 C-268.556 274.774 -265.004 270.911 -261.5 267 C-257.996 263.089 -254.444 259.226 -250.875 255.375 C-242.968 247.067 -242.968 247.067 -236 238 C-236.99 237.67 -237.98 237.34 -239 237 C-238.67 236.01 -238.34 235.02 -238 234 C-242.29 234 -246.58 234 -251 234 C-251 233.67 -251 233.34 -251 233 C-243.41 231.35 -235.82 229.7 -228 228 C-228 227.01 -228 226.02 -228 225 C-227.271 224.838 -226.542 224.676 -225.79 224.509 C-218.262 222.743 -211.292 220.346 -204.188 217.312 C-203.147 216.873 -202.107 216.433 -201.035 215.979 C-190.524 211.47 -179.764 206.804 -170.906 199.422 C-169 198 -169 198 -165.742 196.18 C-161.739 193.935 -158.207 191.232 -154.625 188.375 C-153.997 187.885 -153.369 187.395 -152.723 186.891 C-149.375 184.369 -149.375 184.369 -147 181 C-146.34 181 -145.68 181 -145 181 C-144.753 180.443 -144.505 179.886 -144.25 179.312 C-142.771 176.576 -141.065 174.323 -139 172 C-138.34 172 -137.68 172 -137 172 C-137 171.01 -137 170.02 -137 169 C-136.34 169 -135.68 169 -135 169 C-135 168.01 -135 167.02 -135 166 C-133.378 164.29 -131.706 162.627 -130 161 C-129.443 160.237 -128.886 159.474 -128.312 158.688 C-127.879 158.131 -127.446 157.574 -127 157 C-126.34 157 -125.68 157 -125 157 C-124.918 156.484 -124.835 155.969 -124.75 155.438 C-123.679 151.955 -121.865 149.128 -120 146 C-119.34 146 -118.68 146 -118 146 C-117.66 144.793 -117.66 144.793 -117.312 143.562 C-116.3 140.814 -115.306 138.635 -113.875 136.125 C-106.699 123.445 -101.257 110.932 -97 97 C-96.34 97 -95.68 97 -95 97 C-94.67 95.35 -94.34 93.7 -94 92 C-93.34 92.66 -92.68 93.32 -92 94 C-92.023 96.383 -92.023 96.383 -92.375 99.125 C-92.486 100.035 -92.597 100.945 -92.711 101.883 C-92.806 102.581 -92.902 103.28 -93 104 C-92.845 103.041 -92.845 103.041 -92.688 102.062 C-92.347 100.547 -92.347 100.547 -92 99 C-91.859 98.357 -91.718 97.714 -91.572 97.051 C-89.657 89.989 -85.761 85.948 -80.597 80.932 C-79.74 80.075 -78.883 79.219 -78 78.337 C-75.663 76.008 -73.314 73.693 -70.959 71.384 C-68.493 68.959 -66.044 66.516 -63.593 64.075 C-58.956 59.462 -54.304 54.864 -49.647 50.271 C-42.801 43.52 -35.978 36.746 -29.154 29.972 C-28.148 28.973 -27.142 27.974 -26.135 26.975 C-25.644 26.487 -25.153 25.999 -24.647 25.497 C-21.725 22.597 -18.799 19.702 -15.869 16.81 C-14.489 15.448 -13.11 14.084 -11.731 12.72 C-10.048 11.056 -8.363 9.394 -6.676 7.733 C-5.569 6.638 -5.569 6.638 -4.441 5.521 C-3.797 4.885 -3.153 4.25 -2.489 3.595 C-0.908 2.053 -0.908 2.053 0 0 Z " fill="#071C2C" transform="translate(783,388)"/>
<path d="M0 0 C1.288 0.012 1.288 0.012 2.601 0.025 C3.584 0.032 4.566 0.039 5.578 0.046 C7.209 0.066 7.209 0.066 8.873 0.086 C10.58 0.1 10.58 0.1 12.322 0.115 C16.113 0.148 19.904 0.188 23.694 0.229 C26.327 0.253 28.96 0.277 31.593 0.3 C37.842 0.356 44.09 0.418 50.339 0.481 C59.457 0.573 68.575 0.657 77.693 0.741 C79.048 0.754 80.403 0.766 81.757 0.779 C82.42 0.785 83.083 0.791 83.766 0.798 C88.295 0.84 92.824 0.884 97.354 0.929 C98.564 0.941 99.774 0.953 101.02 0.965 C103.336 0.988 105.652 1.011 107.967 1.035 C114.868 1.101 121.764 1.113 128.664 1.019 C131.058 1.107 131.058 1.107 134.058 2.107 C132.516 6.27 129.807 7.995 126.269 10.537 C119.372 15.649 113.358 21.413 107.353 27.531 C105.67 29.245 103.976 30.949 102.28 32.65 C96.667 38.304 91.219 44.034 86.058 50.107 C84.604 51.736 83.146 53.362 81.683 54.982 C80.546 56.243 80.546 56.243 79.386 57.529 C77.834 59.248 76.282 60.967 74.729 62.686 C73.593 63.946 73.593 63.946 72.433 65.232 C71.689 66.056 70.945 66.88 70.179 67.729 C68.251 69.891 66.371 72.087 64.495 74.295 C62.21 76.927 59.843 79.231 57.183 81.482 C53.144 84.904 49.712 88.725 46.218 92.693 C44.348 94.783 42.435 96.771 40.433 98.732 C38.121 100.999 35.954 103.333 33.843 105.787 C30.039 110.161 26.097 114.392 22.12 118.607 C21.436 119.334 20.752 120.061 20.048 120.811 C18.386 122.577 16.722 124.343 15.058 126.107 C13.078 125.612 13.078 125.612 11.058 125.107 C12.708 125.767 14.358 126.427 16.058 127.107 C15.779 128.438 15.779 128.438 15.495 129.795 C15.077 132.959 15.25 135.056 16.058 138.107 C14.19 137.861 14.19 137.861 12.058 137.107 C10.925 135.385 10.925 135.385 9.933 133.045 C4.304 120.934 -3.321 108.437 -12.942 99.107 C-14.096 97.802 -15.241 96.488 -16.38 95.17 C-24.983 85.291 -35.051 77.345 -45.362 69.348 C-46.799 68.22 -48.21 67.06 -49.618 65.896 C-51.707 64.289 -53.544 63.219 -55.942 62.17 C-59.659 60.389 -62.261 58.292 -64.942 55.107 C-64.942 54.447 -64.942 53.787 -64.942 53.107 C-59.942 52.107 -59.942 52.107 -57.54 51.819 C-54.276 50.925 -52.931 49.567 -50.57 47.158 C-49.739 46.32 -48.907 45.481 -48.051 44.618 C-47.164 43.704 -46.278 42.791 -45.364 41.85 C-43.949 40.418 -42.534 38.987 -41.118 37.556 C-39.136 35.548 -37.163 33.531 -35.191 31.514 C-31.287 27.524 -27.37 23.547 -23.445 19.576 C-22.089 18.199 -20.739 16.815 -19.39 15.431 C-14.208 10.168 -8.861 5.519 -2.942 1.107 C-1.942 0.107 -1.942 0.107 0 0 Z " fill="#071C2C" transform="translate(660.9424085617065,224.89256954193115)"/>
<path d="M0 0 C2.212 2.849 4.089 5.78 5.938 8.875 C10.567 16.206 16.247 22.546 22 29 C22.857 29.969 23.714 30.939 24.598 31.938 C27.67 35.384 30.737 38.795 34.062 42 C36 44 36 44 36 46 C36.556 46.085 37.111 46.17 37.684 46.258 C40.721 47.231 42.581 48.869 45.062 50.875 C68.291 68.853 98.007 82.189 127 87 C127 87.66 127 88.32 127 89 C128.763 89.186 128.763 89.186 130.562 89.375 C133.252 89.658 135.512 90.165 138.104 91 C142.33 92.22 146.4 92.349 150.777 92.414 C151.589 92.433 152.4 92.453 153.236 92.473 C155.803 92.532 158.37 92.579 160.938 92.625 C162.688 92.663 164.439 92.702 166.189 92.742 C170.459 92.838 174.73 92.922 179 93 C179 93.33 179 93.66 179 94 C144.287 98.459 111.276 92.124 79.85 77.54 C75.602 75.558 75.602 75.558 71 75 C69.333 75 67.667 75 66 75 C68.31 75.99 70.62 76.98 73 78 C69.824 83.205 65.996 87.281 61.672 91.559 C60.964 92.266 60.256 92.973 59.527 93.702 C58.033 95.193 56.537 96.681 55.039 98.167 C52.766 100.422 50.502 102.684 48.238 104.947 C46.779 106.402 45.319 107.855 43.859 109.309 C43.191 109.975 42.523 110.642 41.835 111.329 C37.926 115.2 33.917 118.851 29.669 122.349 C27.891 124.108 26.983 125.716 26 128 C25.67 127.34 25.34 126.68 25 126 C-19.22 126 -63.44 126 -109 126 C-109 126.66 -109 127.32 -109 128 C-112 127 -112 127 -114 126 C-114.414 123.934 -114.414 123.934 -114.625 121.438 C-114.7 120.611 -114.775 119.785 -114.852 118.934 C-114.901 118.296 -114.95 117.657 -115 117 C-114.34 117.99 -113.68 118.98 -113 120 C-105.735 113.735 -98.964 107.044 -92.242 100.205 C-88.941 96.864 -85.627 93.635 -82.039 90.602 C-79.122 88.095 -76.561 85.458 -74.03 82.563 C-68.412 76.268 -62.462 70.336 -56.484 64.387 C-55.298 63.203 -54.112 62.018 -52.927 60.833 C-49.834 57.744 -46.738 54.658 -43.641 51.572 C-40.491 48.432 -37.343 45.289 -34.195 42.146 C-28.663 36.623 -23.128 31.103 -17.591 25.584 C-16.736 24.731 -15.881 23.879 -15 23 C-14.107 22.111 -13.215 21.222 -12.295 20.307 C-10.803 18.807 -9.337 17.281 -7.902 15.727 C-7.254 15.033 -6.606 14.34 -5.938 13.625 C-5.287 12.916 -4.636 12.207 -3.965 11.477 C-2 10 -2 10 0.246 10.273 C0.825 10.513 1.404 10.753 2 11 C1.505 10.464 1.01 9.928 0.5 9.375 C-1.387 6.387 -1.309 4.473 -1 1 C-0.67 0.67 -0.34 0.34 0 0 Z " fill="#071C2C" transform="translate(352,529)"/>
<path d="M0 0 C1.061 -0.006 2.122 -0.011 3.215 -0.017 C4.384 -0.013 5.554 -0.009 6.758 -0.005 C8.6 -0.01 8.6 -0.01 10.479 -0.015 C13.856 -0.023 17.232 -0.021 20.609 -0.015 C24.151 -0.01 27.692 -0.014 31.233 -0.017 C37.193 -0.021 43.152 -0.016 49.112 -0.007 C55.974 0.004 62.835 0.001 69.697 -0.01 C75.601 -0.02 81.505 -0.021 87.41 -0.016 C90.929 -0.012 94.449 -0.012 97.969 -0.019 C101.911 -0.026 105.852 -0.016 109.794 -0.005 C110.941 -0.009 112.088 -0.013 113.269 -0.017 C131.635 0.078 131.635 0.078 137.988 3.254 C137.474 7.424 136.378 9.362 133.418 12.31 C132.663 13.07 131.909 13.831 131.132 14.614 C129.902 15.822 129.902 15.822 128.648 17.055 C127.81 17.891 126.973 18.727 126.111 19.589 C124.341 21.353 122.566 23.112 120.787 24.867 C118.054 27.563 115.337 30.275 112.622 32.99 C110.903 34.7 109.182 36.409 107.46 38.117 C106.643 38.933 105.825 39.748 104.982 40.589 C104.225 41.333 103.467 42.078 102.687 42.845 C102.019 43.505 101.352 44.165 100.664 44.845 C98.988 46.254 98.988 46.254 96.988 46.254 C96.658 47.244 96.328 48.234 95.988 49.254 C94.414 50.809 94.414 50.809 92.412 52.463 C88.136 56.094 84.157 59.943 80.198 63.914 C79.465 64.645 78.732 65.376 77.977 66.129 C75.58 68.523 73.186 70.919 70.792 73.316 C69.114 74.994 67.436 76.671 65.758 78.348 C62.251 81.853 58.746 85.36 55.243 88.868 C50.763 93.354 46.279 97.835 41.793 102.314 C38.331 105.773 34.871 109.235 31.411 112.697 C29.759 114.349 28.106 116.002 26.452 117.653 C24.139 119.964 21.828 122.279 19.518 124.594 C18.842 125.268 18.165 125.943 17.468 126.638 C13.846 130.276 10.444 133.986 7.231 137.992 C6.82 138.408 6.41 138.825 5.988 139.254 C5.328 139.254 4.668 139.254 3.988 139.254 C3.328 141.234 2.668 143.214 1.988 145.254 C0.998 145.254 0.008 145.254 -1.012 145.254 C-1.012 144.264 -1.012 143.274 -1.012 142.254 C-2.662 142.254 -4.312 142.254 -6.012 142.254 C-6.993 134.887 -7.16 127.665 -7.158 120.239 C-7.161 118.963 -7.164 117.687 -7.168 116.372 C-7.177 112.9 -7.179 109.427 -7.18 105.955 C-7.18 103.784 -7.183 101.613 -7.185 99.442 C-7.194 91.867 -7.198 84.291 -7.198 76.716 C-7.197 69.654 -7.208 62.593 -7.223 55.531 C-7.237 49.461 -7.242 43.39 -7.241 37.319 C-7.241 33.697 -7.244 30.074 -7.254 26.451 C-7.266 22.422 -7.261 18.393 -7.255 14.364 C-7.261 13.16 -7.267 11.956 -7.272 10.716 C-7.268 9.624 -7.264 8.532 -7.26 7.407 C-7.26 6.455 -7.261 5.502 -7.261 4.521 C-6.749 -0.142 -3.998 0.003 0 0 Z " fill="#071C2C" transform="translate(284.0124053955078,228.74603271484375)"/>
<path d="M0 0 C1.98 0 3.96 0 6 0 C6 75.24 6 150.48 6 228 C6.66 228.33 7.32 228.66 8 229 C7.34 229.33 6.68 229.66 6 230 C6.33 231.65 6.66 233.3 7 235 C6.01 234.67 5.02 234.34 4 234 C-2.602 238.879 -8.137 245.14 -13.917 250.943 C-17.215 254.253 -20.515 257.56 -23.816 260.867 C-26.312 263.369 -28.807 265.871 -31.3 268.375 C-34.193 271.281 -37.091 274.184 -39.988 277.086 C-40.872 277.975 -41.755 278.863 -42.666 279.779 C-47.028 284.141 -51.452 288.341 -56.131 292.361 C-59.241 295.088 -62.163 298 -65.09 300.922 C-65.72 301.549 -66.35 302.175 -66.999 302.821 C-68.313 304.13 -69.627 305.441 -70.939 306.753 C-72.952 308.764 -74.973 310.767 -76.994 312.77 C-78.277 314.049 -79.558 315.329 -80.84 316.609 C-81.746 317.505 -81.746 317.505 -82.67 318.418 C-86.011 321.764 -86.011 321.764 -88 326 C-89.32 326 -90.64 326 -92 326 C-92 325.34 -92 324.68 -92 324 C-134.952 323.142 -177.899 322.888 -220.859 322.877 C-224.789 322.875 -228.718 322.871 -232.647 322.867 C-238.954 322.861 -245.262 322.861 -251.569 322.866 C-253.899 322.867 -256.23 322.866 -258.56 322.864 C-272 322.853 -285.386 323.058 -298.808 323.827 C-299.838 323.878 -300.868 323.929 -301.929 323.981 C-302.837 324.033 -303.746 324.084 -304.683 324.137 C-307 324 -307 324 -310 322 C-309.483 317.775 -307.088 315.589 -304.25 312.562 C-303.389 311.636 -302.528 310.709 -301.641 309.754 C-298.412 306.387 -295.114 303.096 -291.789 299.824 C-287.688 295.775 -283.757 291.661 -280.004 287.289 C-277.431 284.35 -274.781 281.489 -272.125 278.625 C-268.556 274.774 -265.004 270.911 -261.5 267 C-257.996 263.089 -254.444 259.226 -250.875 255.375 C-246.501 250.652 -242.207 245.873 -238 241 C-236.688 239.499 -235.376 237.999 -234.062 236.5 C-233.476 235.83 -232.889 235.159 -232.285 234.469 C-231.861 233.984 -231.437 233.499 -231 233 C-229.68 233.33 -228.36 233.66 -227 234 C-228.375 236 -228.375 236 -230 238 C-230.66 238 -231.32 238 -232 238 C-232.25 238.559 -232.5 239.119 -232.758 239.695 C-239.611 252.41 -252.321 264.121 -262 274.785 C-263.796 276.774 -265.56 278.786 -267.312 280.812 C-269.918 283.811 -272.599 286.729 -275.309 289.633 C-280.389 295.081 -285.252 300.61 -289.867 306.465 C-292.42 309.5 -295.166 312.226 -298 315 C-297.453 314.975 -296.907 314.95 -296.343 314.924 C-255.137 313.086 -213.865 312.413 -172.628 313.366 C-168.496 313.46 -164.364 313.533 -160.231 313.589 C-150.395 313.733 -140.611 313.983 -130.796 314.675 C-104.994 317.621 -104.994 317.621 -81.742 308.898 C-76.459 304.263 -72.162 298.85 -68.302 292.998 C-65.894 289.862 -63.341 287.596 -60.339 285.054 C-56.073 281.307 -52.131 277.221 -48.141 273.185 C-46.538 271.565 -44.931 269.948 -43.323 268.332 C-38.759 263.743 -34.201 259.149 -29.646 254.551 C-26.847 251.724 -24.043 248.903 -21.235 246.084 C-20.169 245.012 -19.104 243.937 -18.042 242.861 C-16.565 241.365 -15.082 239.875 -13.598 238.387 C-12.756 237.538 -11.914 236.688 -11.047 235.813 C-9 234 -9 234 -7 234 C-7 233.34 -7 232.68 -7 232 C-6.188 231.476 -5.376 230.952 -4.54 230.413 C-1.625 228.13 -1.625 228.13 -1.369 224.166 C-1.341 222.576 -1.34 220.985 -1.361 219.395 C-1.352 218.517 -1.344 217.64 -1.335 216.736 C-1.313 213.791 -1.327 210.847 -1.341 207.901 C-1.332 205.792 -1.321 203.683 -1.309 201.575 C-1.281 195.843 -1.283 190.113 -1.291 184.382 C-1.294 178.394 -1.269 172.407 -1.247 166.42 C-1.21 155.08 -1.198 143.74 -1.195 132.4 C-1.19 119.491 -1.157 106.582 -1.122 93.673 C-1.05 67.115 -1.013 40.558 -1 14 C-1.66 14 -2.32 14 -3 14 C-3.33 14.99 -3.66 15.98 -4 17 C-6.438 19.688 -6.438 19.688 -9 22 C-9.66 22 -10.32 22 -11 22 C-11.262 22.588 -11.524 23.176 -11.794 23.781 C-13.065 26.119 -14.407 27.637 -16.301 29.496 C-16.949 30.137 -17.596 30.779 -18.264 31.439 C-18.94 32.099 -19.616 32.758 -20.312 33.438 C-20.977 34.093 -21.642 34.748 -22.326 35.424 C-23.578 36.658 -24.831 37.89 -26.087 39.119 C-30.349 43.31 -34.554 47.56 -38.768 51.8 C-44.375 57.44 -49.988 63.074 -55.603 68.706 C-58.995 72.109 -62.385 75.513 -65.771 78.922 C-69.053 82.226 -72.34 85.525 -75.631 88.82 C-76.884 90.077 -78.135 91.336 -79.385 92.597 C-81.126 94.351 -82.872 96.1 -84.62 97.847 C-85.138 98.372 -85.656 98.897 -86.189 99.438 C-89.772 103 -89.772 103 -92 103 C-90.779 92.826 -87.907 88.328 -80.711 81.272 C-79.854 80.416 -78.997 79.561 -78.114 78.679 C-75.77 76.341 -73.417 74.013 -71.06 71.688 C-68.595 69.251 -66.141 66.803 -63.687 64.356 C-59.038 59.725 -54.381 55.104 -49.719 50.487 C-42.87 43.704 -36.034 36.907 -29.2 30.109 C-28.699 29.61 -28.198 29.112 -27.682 28.599 C-26.684 27.606 -25.686 26.612 -24.688 25.619 C-21.761 22.708 -18.831 19.8 -15.897 16.895 C-13.65 14.668 -11.405 12.439 -9.16 10.21 C-8.344 9.404 -7.528 8.597 -6.687 7.767 C-5.948 7.032 -5.209 6.298 -4.448 5.541 C-3.479 4.582 -3.479 4.582 -2.492 3.604 C-0.909 2.054 -0.909 2.054 0 0 Z " fill="#00EFFA" transform="translate(783,388)"/>
<path d="M0 0 C1.618 0.604 3.237 1.208 4.855 1.812 C15.159 5.73 24.626 10.194 34 16 C35.077 16.625 35.077 16.625 36.176 17.262 C42.31 20.881 47.832 25.39 53.427 29.776 C54.885 30.91 56.36 32.023 57.836 33.133 C58.653 33.749 59.47 34.365 60.312 35 C61.031 35.536 61.749 36.072 62.488 36.625 C62.987 37.079 63.486 37.533 64 38 C64 38.66 64 39.32 64 40 C65.32 40.66 66.64 41.32 68 42 C68 42.66 68 43.32 68 44 C68.585 44.262 69.17 44.523 69.773 44.793 C75.218 47.745 78.957 52.212 81 58 C81.99 58.33 82.98 58.66 84 59 C85.315 60.452 85.315 60.452 86.637 62.324 C87.128 63.016 87.619 63.708 88.125 64.421 C88.64 65.169 89.156 65.917 89.688 66.688 C90.221 67.453 90.754 68.219 91.303 69.008 C98.261 79.13 104.272 89.641 109 101 C109.448 102.074 109.448 102.074 109.904 103.17 C126.723 144.277 128.295 192.432 112 234 C110.551 237.431 109.019 240.816 107.438 244.188 C107.074 244.965 106.71 245.743 106.335 246.544 C103.972 251.423 101.211 255.635 98 260 C96.709 262.76 96.709 262.76 96 265 C95.34 265 94.68 265 94 265 C93.918 265.516 93.835 266.031 93.75 266.562 C92.679 270.045 90.865 272.872 89 276 C88.34 276 87.68 276 87 276 C86.629 276.835 86.629 276.835 86.25 277.688 C84.771 280.424 83.065 282.677 81 285 C80.34 285 79.68 285 79 285 C79 285.99 79 286.98 79 288 C78.34 288 77.68 288 77 288 C77 288.99 77 289.98 77 291 C75.378 292.71 73.706 294.373 72 296 C71.443 296.763 70.886 297.526 70.312 298.312 C69.879 298.869 69.446 299.426 69 300 C68.34 300 67.68 300 67 300 C66.738 300.603 66.476 301.206 66.207 301.827 C64.917 304.149 63.808 305.201 61.691 306.77 C61.032 307.263 60.373 307.756 59.693 308.263 C58.99 308.775 58.287 309.286 57.562 309.812 C56.843 310.344 56.123 310.875 55.381 311.422 C49.744 315.544 43.965 319.37 38 323 C37.119 323.568 37.119 323.568 36.22 324.147 C25.373 331.102 13.41 336.277 1.375 340.812 C0.686 341.078 -0.004 341.343 -0.714 341.617 C-15.126 346.861 -29.847 348.891 -45.062 349.938 C-45.958 350.002 -46.854 350.067 -47.776 350.133 C-62.21 351.141 -75.77 350.891 -90 348 C-91.603 347.713 -93.205 347.428 -94.809 347.145 C-105.733 345.085 -115.814 341.386 -126 337 C-126.877 336.626 -127.755 336.251 -128.659 335.866 C-145.513 328.618 -161.179 320.522 -175.461 308.934 C-177.915 306.849 -177.915 306.849 -181 306 C-182.402 304.609 -182.402 304.609 -183.938 302.75 C-186.592 299.605 -189.331 296.581 -192.17 293.602 C-202.093 283.129 -211.045 271.671 -218 259 C-218.499 258.109 -218.998 257.219 -219.512 256.301 C-221.036 253.548 -222.523 250.778 -224 248 C-224.433 247.211 -224.866 246.422 -225.312 245.609 C-232.504 232.035 -235.745 216.898 -239 202 C-239.171 201.232 -239.342 200.464 -239.518 199.673 C-239.99 197.058 -240.159 194.633 -240.209 191.98 C-240.228 191.002 -240.247 190.024 -240.266 189.017 C-240.28 187.966 -240.294 186.915 -240.309 185.832 C-240.324 184.732 -240.339 183.632 -240.355 182.499 C-240.86 137.79 -240.86 137.79 -234 118 C-233.467 116.326 -232.935 114.652 -232.406 112.977 C-230.361 106.731 -227.972 100.808 -224.972 94.956 C-224.084 93.169 -223.298 91.332 -222.523 89.492 C-212.22 65.873 -192.759 41.045 -171 27 C-170.34 27 -169.68 27 -169 27 C-169 26.34 -169 25.68 -169 25 C-166.698 23.353 -164.41 21.85 -162 20.375 C-160.923 19.709 -160.923 19.709 -159.823 19.031 C-152.999 14.882 -145.967 11.255 -138.754 7.834 C-137.224 7.106 -135.703 6.358 -134.184 5.605 C-93.523 -13.949 -42.021 -16.329 0 0 Z M-188.418 49.523 C-190.664 51.975 -192.841 54.471 -195 57 C-196.108 58.259 -196.108 58.259 -197.238 59.543 C-203.484 66.845 -208.309 74.657 -213 83 C-213.573 84.002 -213.573 84.002 -214.157 85.024 C-224.127 102.561 -229.919 120.087 -233 140 C-233.177 141.041 -233.353 142.083 -233.535 143.156 C-235.022 152.458 -235.397 161.543 -235.375 170.938 C-235.375 171.699 -235.376 172.46 -235.376 173.244 C-235.355 185.694 -234.254 197.549 -231.504 209.723 C-231.053 211.762 -230.677 213.818 -230.312 215.875 C-224.513 247.772 -204.29 277.998 -179.656 298.594 C-178 300 -178 300 -175.562 302.5 C-167.702 310.169 -158.449 315.552 -149 321 C-147.538 321.857 -147.538 321.857 -146.047 322.73 C-139.277 326.581 -132.32 329.37 -125 332 C-123.5 332.563 -122 333.127 -120.5 333.691 C-80.33 348.546 -36.519 349.613 4 335 C5.132 334.592 5.132 334.592 6.288 334.175 C16.262 330.493 25.107 325.871 34 320 C35.174 319.255 36.35 318.513 37.527 317.773 C47.664 311.39 57.321 304.715 66.188 296.625 C67.054 295.838 67.054 295.838 67.938 295.036 C69.334 293.734 70.673 292.372 72 291 C72 290.34 72 289.68 72 289 C72.66 289 73.32 289 74 289 C83.826 279.133 83.826 279.133 89 267 C89.66 267 90.32 267 91 267 C91.326 266.336 91.652 265.672 91.988 264.988 C95.69 257.508 95.69 257.508 97.562 254.438 C99.234 251.603 100.536 248.705 101.836 245.684 C102.667 243.767 103.53 241.865 104.414 239.973 C123.429 198.188 120.629 148.669 105.34 106.305 C100.438 93.396 93.607 80.744 84.741 70.116 C83.067 68.081 81.488 65.998 79.906 63.891 C68.009 48.58 53.278 35.456 37 25 C36.348 24.578 35.697 24.157 35.025 23.722 C16.152 11.645 -3.769 2.401 -26 -1.125 C-27.016 -1.294 -28.032 -1.463 -29.078 -1.637 C-87.119 -11.087 -147.329 6.642 -188.418 49.523 Z " fill="#F9E2BB" transform="translate(569,269)"/>
<path d="M0 0 C1.061 -0.006 2.122 -0.011 3.215 -0.017 C4.384 -0.013 5.554 -0.009 6.758 -0.005 C8.6 -0.01 8.6 -0.01 10.479 -0.015 C13.856 -0.023 17.232 -0.021 20.609 -0.015 C24.151 -0.01 27.692 -0.014 31.233 -0.017 C37.193 -0.021 43.152 -0.016 49.112 -0.007 C55.974 0.004 62.835 0.001 69.697 -0.01 C75.601 -0.02 81.505 -0.021 87.41 -0.016 C90.929 -0.012 94.449 -0.012 97.969 -0.019 C101.911 -0.026 105.852 -0.016 109.794 -0.005 C110.941 -0.009 112.088 -0.013 113.269 -0.017 C131.635 0.078 131.635 0.078 137.988 3.254 C137.474 7.424 136.378 9.362 133.418 12.31 C132.663 13.07 131.909 13.831 131.132 14.614 C129.902 15.822 129.902 15.822 128.648 17.055 C127.81 17.891 126.973 18.727 126.111 19.589 C124.341 21.353 122.566 23.112 120.787 24.867 C118.054 27.563 115.337 30.275 112.622 32.99 C110.903 34.7 109.182 36.409 107.46 38.117 C106.643 38.933 105.825 39.748 104.982 40.589 C104.225 41.333 103.467 42.078 102.687 42.845 C102.019 43.505 101.352 44.165 100.664 44.845 C98.988 46.254 98.988 46.254 96.988 46.254 C96.658 47.244 96.328 48.234 95.988 49.254 C94.414 50.809 94.414 50.809 92.412 52.463 C88.136 56.094 84.157 59.943 80.198 63.914 C79.465 64.645 78.732 65.376 77.977 66.129 C75.58 68.523 73.186 70.919 70.792 73.316 C69.114 74.994 67.436 76.671 65.758 78.348 C62.251 81.853 58.746 85.36 55.243 88.868 C50.763 93.354 46.279 97.835 41.793 102.314 C38.331 105.773 34.871 109.235 31.411 112.697 C29.759 114.349 28.106 116.002 26.452 117.653 C24.139 119.964 21.828 122.279 19.518 124.594 C18.842 125.268 18.165 125.943 17.468 126.638 C13.846 130.276 10.444 133.986 7.231 137.992 C6.82 138.408 6.41 138.825 5.988 139.254 C5.328 139.254 4.668 139.254 3.988 139.254 C3.328 141.234 2.668 143.214 1.988 145.254 C0.998 145.254 0.008 145.254 -1.012 145.254 C-1.012 144.264 -1.012 143.274 -1.012 142.254 C-2.662 142.254 -4.312 142.254 -6.012 142.254 C-6.993 134.887 -7.16 127.665 -7.158 120.239 C-7.161 118.963 -7.164 117.687 -7.168 116.372 C-7.177 112.9 -7.179 109.427 -7.18 105.955 C-7.18 103.784 -7.183 101.613 -7.185 99.442 C-7.194 91.867 -7.198 84.291 -7.198 76.716 C-7.197 69.654 -7.208 62.593 -7.223 55.531 C-7.237 49.461 -7.242 43.39 -7.241 37.319 C-7.241 33.697 -7.244 30.074 -7.254 26.451 C-7.266 22.422 -7.261 18.393 -7.255 14.364 C-7.261 13.16 -7.267 11.956 -7.272 10.716 C-7.268 9.624 -7.264 8.532 -7.26 7.407 C-7.26 6.455 -7.261 5.502 -7.261 4.521 C-6.749 -0.142 -3.998 0.003 0 0 Z M0.988 7.254 C0.964 22.24 0.947 37.227 0.936 52.213 C0.931 59.172 0.924 66.131 0.912 73.09 C0.901 79.807 0.895 86.525 0.893 93.242 C0.891 95.803 0.887 98.364 0.882 100.925 C0.875 104.516 0.874 108.107 0.874 111.697 C0.87 112.753 0.867 113.809 0.863 114.897 C0.871 120.446 1.162 125.765 1.988 131.254 C6.096 128.936 8.937 126.328 12.04 122.768 C17.066 117.111 22.353 111.748 27.708 106.404 C28.751 105.36 29.793 104.316 30.835 103.272 C33.634 100.468 36.436 97.668 39.239 94.868 C42.181 91.929 45.12 88.987 48.06 86.045 C52.987 81.117 57.915 76.191 62.845 71.266 C68.546 65.571 74.243 59.871 79.939 54.17 C84.84 49.265 89.743 44.361 94.648 39.459 C97.573 36.535 100.498 33.611 103.42 30.685 C106.161 27.942 108.903 25.201 111.647 22.463 C112.655 21.456 113.662 20.449 114.669 19.44 C116.038 18.068 117.411 16.7 118.783 15.331 C119.936 14.179 119.936 14.179 121.111 13.005 C122.988 11.254 122.988 11.254 124.988 10.254 C124.988 9.594 124.988 8.934 124.988 8.254 C117.085 7.488 109.281 7.112 101.344 7.14 C100.25 7.14 99.156 7.14 98.028 7.14 C94.458 7.141 90.887 7.148 87.316 7.156 C84.822 7.158 82.328 7.16 79.834 7.161 C73.304 7.164 66.774 7.174 60.245 7.185 C53.568 7.196 46.891 7.2 40.214 7.205 C27.139 7.216 14.063 7.233 0.988 7.254 Z " fill="#00F1FC" transform="translate(284.0124053955078,228.74603271484375)"/>
<path d="M0 0 C0.579 0.24 1.158 0.48 1.754 0.727 C2.429 3.006 2.429 3.006 2.754 5.727 C1.673 7.546 1.673 7.546 -0.053 9.255 C-0.701 9.911 -1.349 10.567 -2.016 11.243 C-2.741 11.947 -3.466 12.65 -4.213 13.375 C-4.966 14.128 -5.719 14.882 -6.494 15.658 C-8.994 18.154 -11.514 20.627 -14.035 23.102 C-15.775 24.83 -17.513 26.56 -19.25 28.291 C-23.835 32.852 -28.437 37.396 -33.044 41.936 C-37.717 46.548 -42.373 51.177 -47.031 55.805 C-54.564 63.285 -62.107 70.754 -69.663 78.21 C-72.491 81.001 -75.318 83.794 -78.126 86.606 C-79.842 88.322 -81.575 89.993 -83.367 91.629 C-83.911 92.127 -84.454 92.625 -85.014 93.139 C-86.123 94.152 -87.232 95.165 -88.342 96.178 C-89.159 96.927 -89.159 96.927 -89.992 97.691 C-90.474 98.131 -90.955 98.57 -91.451 99.023 C-93.114 100.602 -94.739 102.21 -96.358 103.833 C-96.899 104.375 -97.44 104.916 -97.997 105.474 C-98.409 105.887 -98.821 106.301 -99.246 106.727 C-84.277 106.75 -69.308 106.768 -54.339 106.778 C-47.388 106.784 -40.437 106.791 -33.486 106.802 C-26.775 106.813 -20.064 106.819 -13.353 106.821 C-10.796 106.823 -8.238 106.827 -5.68 106.832 C-2.092 106.84 1.496 106.841 5.084 106.84 C6.136 106.844 7.188 106.847 8.273 106.851 C19.315 107.407 19.315 107.407 29.035 103.337 C30.057 102.308 31.058 101.256 32.039 100.188 C32.584 99.628 33.13 99.069 33.692 98.493 C35.42 96.714 37.118 94.91 38.816 93.102 C40.52 91.325 42.229 89.555 43.939 87.785 C45.039 86.645 46.137 85.503 47.233 84.358 C50.721 80.728 54.311 77.305 58.178 74.074 C59.759 72.722 61.19 71.291 62.629 69.789 C64.754 67.727 64.754 67.727 66.754 67.727 C66.754 67.067 66.754 66.407 66.754 65.727 C68.404 66.057 70.054 66.387 71.754 66.727 C71.754 74.128 61.178 81.425 56.135 86.484 C54.849 87.769 53.562 89.053 52.275 90.336 C50.321 92.285 48.372 94.239 46.424 96.193 C34.92 107.7 34.92 107.7 29.187 112.312 C27.522 113.956 26.689 115.595 25.754 117.727 C25.424 117.067 25.094 116.407 24.754 115.727 C-19.466 115.727 -63.686 115.727 -109.246 115.727 C-109.246 116.387 -109.246 117.047 -109.246 117.727 C-112.246 116.727 -112.246 116.727 -114.246 115.727 C-114.66 113.66 -114.66 113.66 -114.871 111.164 C-114.946 110.338 -115.021 109.511 -115.098 108.66 C-115.147 108.022 -115.196 107.384 -115.246 106.727 C-114.586 107.717 -113.926 108.707 -113.246 109.727 C-105.981 103.461 -99.21 96.77 -92.489 89.932 C-89.187 86.59 -85.873 83.362 -82.285 80.328 C-79.368 77.822 -76.807 75.184 -74.276 72.29 C-68.658 65.995 -62.708 60.063 -56.73 54.113 C-55.544 52.929 -54.359 51.745 -53.173 50.56 C-50.08 47.471 -46.984 44.385 -43.887 41.299 C-40.737 38.159 -37.589 35.016 -34.441 31.873 C-28.909 26.35 -23.374 20.829 -17.837 15.311 C-16.982 14.458 -16.127 13.605 -15.246 12.727 C-14.353 11.838 -13.461 10.949 -12.541 10.033 C-11.049 8.534 -9.583 7.008 -8.148 5.453 C-7.5 4.76 -6.852 4.066 -6.184 3.352 C-5.533 2.643 -4.882 1.934 -4.211 1.203 C-2.246 -0.273 -2.246 -0.273 0 0 Z " fill="#00E2F1" transform="translate(352.24609375,539.2734375)"/>
<path d="M0 0 C1.288 0.012 1.288 0.012 2.601 0.025 C3.584 0.032 4.566 0.039 5.578 0.046 C7.209 0.066 7.209 0.066 8.873 0.086 C10.58 0.1 10.58 0.1 12.322 0.115 C16.113 0.148 19.904 0.188 23.694 0.229 C26.327 0.253 28.96 0.277 31.593 0.3 C37.842 0.356 44.09 0.418 50.339 0.481 C59.457 0.573 68.575 0.657 77.693 0.741 C79.048 0.754 80.403 0.766 81.757 0.779 C82.42 0.785 83.083 0.791 83.766 0.798 C88.295 0.84 92.824 0.884 97.354 0.929 C98.564 0.941 99.774 0.953 101.02 0.965 C103.336 0.988 105.652 1.011 107.967 1.035 C114.868 1.101 121.764 1.113 128.664 1.019 C131.058 1.107 131.058 1.107 134.058 2.107 C132.516 6.27 129.807 7.995 126.269 10.537 C119.372 15.649 113.358 21.413 107.353 27.531 C105.67 29.245 103.976 30.949 102.28 32.65 C96.667 38.304 91.219 44.034 86.058 50.107 C84.604 51.736 83.146 53.362 81.683 54.982 C80.546 56.243 80.546 56.243 79.386 57.529 C77.834 59.248 76.282 60.967 74.729 62.686 C73.593 63.946 73.593 63.946 72.433 65.232 C71.689 66.056 70.945 66.88 70.179 67.729 C68.251 69.891 66.371 72.087 64.495 74.295 C62.21 76.927 59.843 79.231 57.183 81.482 C53.144 84.904 49.712 88.725 46.218 92.693 C44.348 94.783 42.435 96.771 40.433 98.732 C38.121 100.999 35.954 103.333 33.843 105.787 C30.039 110.161 26.097 114.392 22.12 118.607 C21.436 119.334 20.752 120.061 20.048 120.811 C18.386 122.577 16.722 124.343 15.058 126.107 C13.078 125.117 13.078 125.117 11.058 124.107 C11.058 123.117 11.058 122.127 11.058 121.107 C11.718 121.107 12.378 121.107 13.058 121.107 C13.295 120.556 13.532 120.004 13.776 119.436 C15.37 116.54 17.347 114.312 19.558 111.857 C20.352 110.965 21.146 110.073 21.964 109.154 C24.058 107.107 24.058 107.107 26.058 107.107 C26.322 106.514 26.586 105.921 26.858 105.311 C28.101 103.027 29.362 101.633 31.245 99.857 C35.991 95.25 40.332 90.346 44.37 85.107 C44.927 84.447 45.484 83.787 46.058 83.107 C46.718 83.107 47.378 83.107 48.058 83.107 C48.058 82.447 48.058 81.787 48.058 81.107 C48.718 81.107 49.378 81.107 50.058 81.107 C50.326 80.468 50.594 79.829 50.87 79.17 C52.058 77.107 52.058 77.107 55.058 76.107 C55.757 74.791 56.421 73.455 57.058 72.107 C58.538 70.467 58.538 70.467 60.245 68.857 C63.598 65.624 66.605 62.195 69.577 58.611 C70.066 58.115 70.554 57.619 71.058 57.107 C71.718 57.107 72.378 57.107 73.058 57.107 C73.388 56.117 73.718 55.127 74.058 54.107 C75.675 52.393 77.353 50.735 79.058 49.107 C80.099 48.081 81.139 47.051 82.176 46.021 C82.734 45.469 83.292 44.918 83.866 44.35 C86.395 41.849 88.918 39.342 91.44 36.834 C92.763 35.522 94.088 34.211 95.414 32.902 C97.35 30.991 99.278 29.073 101.206 27.154 C101.789 26.582 102.371 26.01 102.971 25.42 C107.43 20.963 111.278 16.149 115.058 11.107 C100.723 10.493 86.387 9.977 72.044 9.586 C64.156 9.369 56.279 9.091 48.4 8.642 C13.511 4.597 13.511 4.597 -17.551 15.466 C-21.843 19.573 -25.136 24.322 -28.189 29.405 C-30.36 32.752 -32.857 34.981 -35.939 37.469 C-39.521 40.398 -42.695 43.755 -45.942 47.045 C-46.622 47.729 -47.301 48.413 -48.001 49.117 C-49.65 50.778 -51.298 52.442 -52.942 54.107 C-53.932 53.447 -54.922 52.787 -55.942 52.107 C-50.367 46.485 -44.786 40.869 -39.198 35.259 C-36.603 32.654 -34.009 30.046 -31.42 27.434 C-28.915 24.908 -26.406 22.386 -23.892 19.868 C-22.482 18.451 -21.076 17.03 -19.671 15.609 C-14.378 10.316 -8.938 5.582 -2.942 1.107 C-1.942 0.107 -1.942 0.107 0 0 Z " fill="#00F0FB" transform="translate(660.9424085617065,224.89256954193115)"/>
<path d="M0 0 C1.061 -0.006 2.122 -0.011 3.215 -0.017 C4.384 -0.013 5.554 -0.009 6.758 -0.005 C8.6 -0.01 8.6 -0.01 10.479 -0.015 C13.856 -0.023 17.232 -0.021 20.609 -0.015 C24.151 -0.01 27.692 -0.014 31.233 -0.017 C37.193 -0.021 43.152 -0.016 49.112 -0.007 C55.974 0.004 62.835 0.001 69.697 -0.01 C75.601 -0.02 81.505 -0.021 87.41 -0.016 C90.929 -0.012 94.449 -0.012 97.969 -0.019 C101.911 -0.026 105.852 -0.016 109.794 -0.005 C110.941 -0.009 112.088 -0.013 113.269 -0.017 C131.635 0.078 131.635 0.078 137.988 3.254 C137.759 8.872 134.124 11.629 130.327 15.305 C129.663 15.964 128.999 16.622 128.314 17.301 C126.194 19.399 124.06 21.483 121.925 23.566 C120.483 24.988 119.043 26.411 117.603 27.834 C114.075 31.318 110.535 34.789 106.988 38.254 C106.658 37.264 106.328 36.274 105.988 35.254 C106.648 35.254 107.308 35.254 107.988 35.254 C107.988 34.264 107.988 33.274 107.988 32.254 C108.978 31.759 108.978 31.759 109.988 31.254 C109.988 29.934 109.988 28.614 109.988 27.254 C111.195 25.367 111.195 25.367 112.8 23.566 C113.322 22.964 113.844 22.362 114.382 21.742 C115.988 20.254 115.988 20.254 118.988 19.254 C119.672 17.93 120.336 16.595 120.988 15.254 C122.321 13.921 123.654 12.587 124.988 11.254 C124.988 10.594 124.988 9.934 124.988 9.254 C119.048 8.759 119.048 8.759 112.988 8.254 C112.988 7.924 112.988 7.594 112.988 7.254 C75.698 6.924 38.408 6.594 -0.012 6.254 C-0.012 7.574 -0.012 8.894 -0.012 10.254 C-1.002 10.914 -1.992 11.574 -3.012 12.254 C-3.475 14.504 -3.475 14.504 -3.411 17.164 C-3.43 18.721 -3.43 18.721 -3.449 20.309 C-3.448 21.451 -3.446 22.594 -3.445 23.772 C-3.455 24.972 -3.465 26.172 -3.476 27.408 C-3.501 30.704 -3.513 33.999 -3.519 37.294 C-3.528 40.736 -3.554 44.178 -3.579 47.62 C-3.622 54.14 -3.651 60.66 -3.674 67.18 C-3.701 74.602 -3.745 82.024 -3.79 89.446 C-3.883 104.715 -3.955 119.984 -4.012 135.254 C-4.672 135.584 -5.332 135.914 -6.012 136.254 C-7.031 133.199 -7.141 131.131 -7.146 127.933 C-7.15 126.83 -7.155 125.726 -7.159 124.589 C-7.158 122.773 -7.158 122.773 -7.158 120.92 C-7.161 119.645 -7.164 118.37 -7.168 117.056 C-7.177 113.558 -7.179 110.061 -7.18 106.563 C-7.181 103.645 -7.184 100.727 -7.188 97.81 C-7.196 90.929 -7.198 84.049 -7.198 77.168 C-7.197 70.063 -7.208 62.957 -7.223 55.851 C-7.237 49.755 -7.242 43.659 -7.241 37.563 C-7.241 33.92 -7.244 30.277 -7.254 26.634 C-7.266 22.576 -7.261 18.517 -7.255 14.459 C-7.261 13.246 -7.267 12.033 -7.272 10.783 C-7.268 9.682 -7.264 8.582 -7.26 7.448 C-7.26 6.487 -7.261 5.527 -7.261 4.538 C-6.752 -0.137 -4.012 0.003 0 0 Z " fill="#00ECFA" transform="translate(284.0124053955078,228.74603271484375)"/>
<path d="M0 0 C1.65 0.33 3.3 0.66 5 1 C5 8.401 -5.575 15.699 -10.619 20.758 C-11.905 22.042 -13.192 23.326 -14.479 24.609 C-16.433 26.558 -18.382 28.512 -20.33 30.467 C-31.834 41.974 -31.834 41.974 -37.567 46.586 C-39.232 48.229 -40.065 49.869 -41 52 C-41.33 51.34 -41.66 50.68 -42 50 C-108.825 49.505 -108.825 49.505 -177 49 C-177 48.67 -177 48.34 -177 48 C-154.23 47.505 -154.23 47.505 -131 47 C-131 45.68 -131 44.36 -131 43 C-126.012 41.378 -121.855 40.758 -116.555 40.789 C-115.493 40.791 -115.493 40.791 -114.409 40.793 C-112.087 40.799 -109.767 40.82 -107.445 40.84 C-105.818 40.846 -104.19 40.851 -102.563 40.856 C-98.289 40.869 -94.014 40.893 -89.74 40.921 C-82.908 40.964 -76.075 40.994 -69.243 41.017 C-66.869 41.027 -64.496 41.044 -62.123 41.062 C-58.08 41.087 -54.042 41.061 -50 41 C-49.069 40.99 -48.138 40.98 -47.179 40.97 C-41.253 40.652 -38.546 38.634 -34.715 34.461 C-34.169 33.902 -33.624 33.343 -33.062 32.767 C-31.334 30.988 -29.635 29.183 -27.938 27.375 C-26.234 25.599 -24.525 23.829 -22.815 22.059 C-21.715 20.919 -20.617 19.776 -19.521 18.631 C-16.033 15.001 -12.443 11.579 -8.576 8.348 C-6.995 6.995 -5.564 5.565 -4.125 4.062 C-2 2 -2 2 0 2 C0 1.34 0 0.68 0 0 Z " fill="#00F1FD" transform="translate(419,605)"/>
<path d="M0 0 C-0.464 6.068 -2.429 10.349 -5.375 15.625 C-5.775 16.362 -6.174 17.1 -6.586 17.859 C-8.639 21.627 -10.776 25.33 -13 29 C-13.33 29.66 -13.66 30.32 -14 31 C-14.66 31 -15.32 31 -16 31 C-16.082 31.516 -16.165 32.031 -16.25 32.562 C-17.321 36.045 -19.135 38.872 -21 42 C-21.66 42 -22.32 42 -23 42 C-23.247 42.557 -23.495 43.114 -23.75 43.688 C-25.229 46.424 -26.935 48.677 -29 51 C-29.66 51 -30.32 51 -31 51 C-31 51.99 -31 52.98 -31 54 C-31.66 54 -32.32 54 -33 54 C-33 54.99 -33 55.98 -33 57 C-34.622 58.71 -36.294 60.373 -38 62 C-38.557 62.763 -39.114 63.526 -39.688 64.312 C-40.121 64.869 -40.554 65.426 -41 66 C-41.66 66 -42.32 66 -43 66 C-43.262 66.603 -43.524 67.206 -43.793 67.827 C-45.083 70.149 -46.192 71.201 -48.309 72.77 C-48.968 73.263 -49.627 73.756 -50.307 74.263 C-51.01 74.775 -51.713 75.286 -52.438 75.812 C-53.517 76.609 -53.517 76.609 -54.619 77.422 C-60.256 81.544 -66.035 85.37 -72 89 C-72.587 89.379 -73.175 89.757 -73.78 90.147 C-84.627 97.102 -96.59 102.277 -108.625 106.812 C-109.314 107.078 -110.004 107.343 -110.714 107.617 C-124.561 112.656 -138.566 114.696 -153.195 115.638 C-155.895 115.814 -158.592 116.014 -161.289 116.217 C-169.951 116.836 -178.367 117.324 -187 116 C-186.67 114.68 -186.34 113.36 -186 112 C-180.327 111.287 -174.762 110.891 -169.048 110.761 C-147.51 110.219 -126.319 107.328 -106 100 C-104.868 99.592 -104.868 99.592 -103.712 99.175 C-93.738 95.493 -84.893 90.871 -76 85 C-74.826 84.255 -73.65 83.513 -72.473 82.773 C-52.748 71.444 -52.748 71.444 -38 55 C-37.34 55 -36.68 55 -36 55 C-35.623 54.157 -35.623 54.157 -35.238 53.297 C-33.816 50.658 -32.105 48.553 -30.188 46.25 C-27.582 43.063 -25.232 39.911 -23.125 36.375 C-22.424 35.261 -21.722 34.148 -21 33 C-20.34 33 -19.68 33 -19 33 C-18.938 32.319 -18.876 31.639 -18.812 30.938 C-17.933 27.759 -16.444 25.891 -14.469 23.301 C-11.843 19.188 -10.164 14.615 -8.332 10.109 C-7.071 7.166 -3.887 0 0 0 Z " fill="#F0DCB7" transform="translate(679,503)"/>
<path d="M0 0 C10.23 0 20.46 0 31 0 C31.99 3.465 31.99 3.465 33 7 C32.249 7.746 31.498 8.491 30.724 9.26 C27.906 12.06 25.09 14.864 22.276 17.669 C21.064 18.876 19.851 20.083 18.636 21.288 C12.199 27.68 5.854 34.061 0 41 C-1.454 42.629 -2.912 44.255 -4.375 45.875 C-5.512 47.136 -5.512 47.136 -6.672 48.422 C-8.224 50.141 -9.776 51.859 -11.328 53.578 C-12.086 54.419 -12.844 55.259 -13.625 56.125 C-14.369 56.949 -15.113 57.772 -15.879 58.621 C-17.807 60.784 -19.687 62.98 -21.562 65.188 C-23.848 67.82 -26.215 70.124 -28.875 72.375 C-32.914 75.797 -36.345 79.618 -39.84 83.586 C-41.71 85.676 -43.623 87.663 -45.625 89.625 C-47.937 91.892 -50.104 94.225 -52.215 96.68 C-56.018 101.054 -59.96 105.285 -63.938 109.5 C-64.621 110.227 -65.305 110.954 -66.01 111.703 C-67.672 113.47 -69.335 115.236 -71 117 C-72.32 116.34 -73.64 115.68 -75 115 C-75 114.01 -75 113.02 -75 112 C-74.34 112 -73.68 112 -73 112 C-72.763 111.448 -72.526 110.897 -72.281 110.328 C-70.688 107.432 -68.711 105.205 -66.5 102.75 C-65.309 101.412 -65.309 101.412 -64.094 100.047 C-62 98 -62 98 -60 98 C-59.604 97.111 -59.604 97.111 -59.199 96.203 C-57.956 93.92 -56.696 92.526 -54.812 90.75 C-50.067 86.143 -45.726 81.239 -41.688 76 C-40.852 75.01 -40.852 75.01 -40 74 C-39.34 74 -38.68 74 -38 74 C-38 73.34 -38 72.68 -38 72 C-37.34 72 -36.68 72 -36 72 C-35.732 71.361 -35.464 70.721 -35.188 70.062 C-34 68 -34 68 -31 67 C-30.3 65.684 -29.637 64.348 -29 63 C-27.52 61.359 -27.52 61.359 -25.812 59.75 C-22.46 56.516 -19.452 53.088 -16.48 49.504 C-15.992 49.008 -15.503 48.511 -15 48 C-14.34 48 -13.68 48 -13 48 C-12.67 47.01 -12.34 46.02 -12 45 C-10.383 43.285 -8.705 41.628 -7 40 C-5.958 38.973 -4.919 37.944 -3.881 36.913 C-3.324 36.362 -2.766 35.811 -2.192 35.243 C0.337 32.741 2.86 30.234 5.383 27.727 C6.706 26.414 8.03 25.103 9.356 23.794 C11.292 21.883 13.221 19.966 15.148 18.047 C15.731 17.475 16.313 16.902 16.914 16.313 C21.462 11.766 24.968 7.185 29 2 C19.43 1.67 9.86 1.34 0 1 C0 0.67 0 0.34 0 0 Z " fill="#00E7F4" transform="translate(747,234)"/>
<path d="M0 0 C4.265 0.581 7.33 3.15 10.75 5.562 C17.827 10.406 25.1 14.321 32.846 17.976 C35.121 19.057 37.379 20.169 39.637 21.285 C54.689 28.665 69.425 34.25 86 37 C86 37.66 86 38.32 86 39 C87.763 39.186 87.763 39.186 89.562 39.375 C92.252 39.658 94.512 40.165 97.104 41 C101.33 42.22 105.4 42.349 109.777 42.414 C110.589 42.433 111.4 42.453 112.236 42.473 C114.803 42.532 117.37 42.579 119.938 42.625 C121.688 42.663 123.439 42.702 125.189 42.742 C129.459 42.838 133.73 42.922 138 43 C138 43.33 138 43.66 138 44 C108.921 47.735 75.551 45.276 49 32 C49 31.34 49 30.68 49 30 C47.742 29.629 46.484 29.258 45.188 28.875 C39.391 26.94 34.273 24.053 29 21 C28.047 20.466 27.095 19.933 26.113 19.383 C25.21 18.865 24.306 18.346 23.375 17.812 C22.558 17.345 21.74 16.877 20.898 16.395 C19 15 19 15 18 12 C16.331 11.533 14.66 11.072 12.977 10.66 C7.951 8.982 2.388 4.776 0 0 Z " fill="#0E1A27" transform="translate(393,579)"/>
<path d="M0 0 C2.475 0.495 2.475 0.495 5 1 C5 7.908 -3.907 13.983 -8.59 18.688 C-11.034 21.13 -13.486 23.565 -15.938 26 C-17.207 27.264 -18.475 28.528 -19.744 29.793 C-22.827 32.865 -25.913 35.933 -29 39 C-30.055 37.141 -30.055 37.141 -31 35 C-30.125 32.75 -30.125 32.75 -29 31 C-28.34 31 -27.68 31 -27 31 C-26.67 30.01 -26.34 29.02 -26 28 C-25.34 28 -24.68 28 -24 28 C-24 26.68 -24 25.36 -24 24 C-19.473 17.791 -13.595 12.816 -7.926 7.672 C-6.39 6.269 -4.862 4.853 -3.442 3.333 C-2 2 -2 2 0 2 C0 1.34 0 0.68 0 0 Z " fill="#00E6F4" transform="translate(419,605)"/>
<path d="M0 0 C0 0.66 0 1.32 0 2 C0.99 2.33 1.98 2.66 3 3 C-17.71 14.83 -44.695 26.455 -69 25 C-69 24.67 -69 24.34 -69 24 C-57.615 21.525 -57.615 21.525 -46 19 C-46 18.01 -46 17.02 -46 16 C-45.278 15.841 -44.556 15.683 -43.812 15.52 C-36.039 13.709 -28.888 11.143 -21.562 8 C-20.514 7.562 -19.465 7.123 -18.385 6.672 C-12.723 4.299 -12.723 4.299 -7.344 1.363 C-4.66 -0.198 -3.052 -0.262 0 0 Z " fill="#043146" transform="translate(601,597)"/>
<path d="M0 0 C0 0.33 0 0.66 0 1 C-0.763 1.103 -1.526 1.206 -2.312 1.312 C-5.024 1.728 -5.024 1.728 -6.281 3.525 C-8.84 5.721 -10.876 5.34 -14.199 5.293 C-15.408 5.283 -16.616 5.274 -17.861 5.264 C-19.124 5.239 -20.387 5.213 -21.688 5.188 C-23.599 5.167 -23.599 5.167 -25.549 5.146 C-28.7 5.111 -31.85 5.062 -35 5 C-35 5.66 -35 6.32 -35 7 C-38.645 7.53 -42.291 8.047 -45.938 8.562 C-47.499 8.79 -47.499 8.79 -49.092 9.021 C-50.081 9.16 -51.071 9.299 -52.09 9.441 C-53.006 9.572 -53.923 9.703 -54.867 9.838 C-55.571 9.892 -56.275 9.945 -57 10 C-58 9 -58 9 -58.062 6.438 C-58.042 5.633 -58.021 4.829 -58 4 C-38.581 -0.286 -19.759 -0.458 0 0 Z " fill="#FBE7C1" transform="translate(528,259)"/>
<path d="M0 0 C0.66 0 1.32 0 2 0 C2.33 43.89 2.66 87.78 3 133 C2.34 133.33 1.68 133.66 1 134 C-0.021 130.936 -0.123 128.873 -0.12 125.666 C-0.122 124.006 -0.122 124.006 -0.124 122.313 C-0.121 121.099 -0.117 119.885 -0.114 118.634 C-0.114 117.356 -0.114 116.078 -0.114 114.761 C-0.114 111.255 -0.108 107.749 -0.101 104.243 C-0.095 100.58 -0.095 96.916 -0.093 93.252 C-0.09 86.315 -0.082 79.377 -0.072 72.439 C-0.061 64.54 -0.055 56.642 -0.05 48.744 C-0.04 32.496 -0.022 16.248 0 0 Z " fill="#00CBD6" transform="translate(277,231)"/>
<path d="M0 0 C10.23 0 20.46 0 31 0 C31.66 2.31 32.32 4.62 33 7 C32.249 7.746 31.498 8.491 30.724 9.26 C27.906 12.06 25.09 14.864 22.276 17.669 C21.064 18.876 19.851 20.083 18.636 21.288 C9.001 30.847 9.001 30.847 0 41 C-2 40 -2 40 -2.945 38.284 C-3 36 -3 36 -0.93 33.394 C0.076 32.402 1.096 31.424 2.125 30.457 C2.935 29.665 2.935 29.665 3.76 28.857 C5.496 27.164 7.247 25.487 9 23.812 C10.722 22.153 12.441 20.49 14.154 18.821 C15.22 17.784 16.291 16.753 17.37 15.729 C21.839 11.404 25.064 7.06 29 2 C19.43 1.67 9.86 1.34 0 1 C0 0.67 0 0.34 0 0 Z " fill="#00EFF8" transform="translate(747,234)"/>
<path d="M0 0 C-2.417 2.886 -4.388 3.586 -8.035 4.352 C-9.009 4.563 -9.983 4.774 -10.986 4.992 C-12.509 5.305 -12.509 5.305 -14.062 5.625 C-16.075 6.053 -18.086 6.482 -20.098 6.914 C-20.99 7.099 -21.882 7.284 -22.801 7.475 C-25.025 7.918 -25.025 7.918 -27 9 C-29.692 9.041 -32.353 9.021 -35.043 8.949 C-35.845 8.93 -36.647 8.911 -37.473 8.892 C-39.173 8.85 -40.874 8.805 -42.574 8.758 C-45.16 8.688 -47.745 8.634 -50.33 8.58 C-51.984 8.537 -53.639 8.494 -55.293 8.449 C-56.443 8.427 -56.443 8.427 -57.617 8.405 C-62.412 8.254 -66.436 7.485 -71 6 C-72.477 5.616 -73.956 5.239 -75.438 4.875 C-76.613 4.586 -77.789 4.298 -79 4 C-79 3.67 -79 3.34 -79 3 C-77.062 3.145 -75.125 3.291 -73.188 3.438 C-72.109 3.519 -71.03 3.6 -69.918 3.684 C-67.883 3.848 -65.847 4.021 -63.826 4.304 C-54.859 5.436 -46.008 4.603 -37.038 3.904 C-34.243 3.687 -31.448 3.488 -28.652 3.291 C-26.857 3.157 -25.061 3.023 -23.266 2.887 C-22.026 2.799 -22.026 2.799 -20.762 2.71 C-13.63 2.136 -7.193 -0.294 0 0 Z " fill="#0B1623" transform="translate(558,614)"/>
<path d="M0 0 C1.32 0 2.64 0 4 0 C7.047 15.364 8.386 30.977 7.812 46.625 C7.782 47.603 7.752 48.58 7.721 49.587 C7.675 50.499 7.629 51.412 7.582 52.352 C7.524 53.555 7.524 53.555 7.464 54.784 C7 57 7 57 4 61 C3.67 51.43 3.34 41.86 3 32 C2.67 32 2.34 32 2 32 C1.659 28.542 1.329 25.084 1 21.625 C0.857 20.177 0.857 20.177 0.711 18.699 C0.123 12.444 -0.124 6.281 0 0 Z " fill="#0C2333" transform="translate(689,400)"/>
<path d="M0 0 C0.66 0.33 1.32 0.66 2 1 C1.34 1.99 0.68 2.98 0 4 C0.66 4.33 1.32 4.66 2 5 C-4.484 10.624 -10.921 15.873 -18.281 20.336 C-20.147 21.478 -21.98 22.674 -23.781 23.914 C-29.813 28.031 -34.758 30.141 -42 31 C-43.196 31.206 -44.393 31.413 -45.625 31.625 C-46.409 31.749 -47.192 31.872 -48 32 C-45.116 29.725 -42.188 27.954 -38.938 26.25 C-34.137 23.666 -29.533 20.885 -24.961 17.918 C-22.81 16.525 -20.652 15.154 -18.477 13.801 C-11.869 9.666 -5.631 5.438 0 0 Z " fill="#EED7AF" transform="translate(631,568)"/>
<path d="M0 0 C0.33 0 0.66 0 1 0 C3.527 10.739 2.292 21.605 -1 32 C-1.198 32.641 -1.396 33.282 -1.601 33.942 C-2.242 36.007 -2.898 38.067 -3.562 40.125 C-3.772 40.777 -3.982 41.43 -4.198 42.102 C-5.16 44.971 -5.83 46.83 -8 49 C-8.33 48.67 -8.66 48.34 -9 48 C-10.32 49.65 -11.64 51.3 -13 53 C-12.495 48.257 -11.444 44.129 -9.891 39.629 C-6.335 29.134 -4.169 18.983 -3 8 C-2.34 8 -1.68 8 -1 8 C-0.67 5.36 -0.34 2.72 0 0 Z " fill="#F8E3BC" transform="translate(687,456)"/>
<path d="M0 0 C4.715 0.822 9.235 2.193 13.812 3.562 C14.601 3.796 15.389 4.03 16.201 4.271 C18.135 4.846 20.067 5.423 22 6 C22 5.34 22 4.68 22 4 C27.03 4.525 32.019 5.106 37 6 C37 6.66 37 7.32 37 8 C38.176 8.124 39.351 8.247 40.562 8.375 C43.252 8.658 45.512 9.165 48.104 10 C52.33 11.22 56.4 11.349 60.777 11.414 C61.589 11.433 62.4 11.453 63.236 11.473 C65.803 11.532 68.37 11.579 70.938 11.625 C72.688 11.663 74.439 11.702 76.189 11.742 C80.459 11.838 84.73 11.922 89 12 C89 12.33 89 12.66 89 13 C60.19 16.7 28.67 13.906 2 2 C1.34 1.34 0.68 0.68 0 0 Z " fill="#055271" transform="translate(442,610)"/>
<path d="M0 0 C0.346 3.182 0.31 4.578 -1.617 7.201 C-2.362 7.926 -3.107 8.651 -3.875 9.398 C-4.696 10.208 -5.517 11.018 -6.363 11.852 C-7.233 12.684 -8.104 13.517 -9 14.375 C-10.259 15.613 -10.259 15.613 -11.543 16.875 C-15.931 21.161 -20.423 25.275 -25.066 29.28 C-28.521 32.353 -31.753 35.648 -35 38.938 C-35.679 39.621 -36.359 40.305 -37.059 41.01 C-38.708 42.671 -40.355 44.334 -42 46 C-42.99 45.34 -43.98 44.68 -45 44 C-39.283 38.26 -33.564 32.523 -27.841 26.789 C-25.184 24.127 -22.528 21.464 -19.874 18.799 C-17.315 16.229 -14.754 13.662 -12.191 11.096 C-11.211 10.114 -10.232 9.132 -9.254 8.149 C-7.889 6.776 -6.521 5.408 -5.153 4.039 C-4.373 3.257 -3.594 2.476 -2.791 1.67 C-1 0 -1 0 0 0 Z " fill="#00E1EA" transform="translate(650,233)"/>
<path d="M0 0 C12.979 -0.518 24.449 0.641 37 4 C37 4.33 37 4.66 37 5 C34.69 5.33 32.38 5.66 30 6 C30.66 6.66 31.32 7.32 32 8 C26.787 8.086 21.923 7.804 16.75 7.062 C4.244 5.407 -8.405 5.329 -21 5 C-21 4.67 -21 4.34 -21 4 C-12.42 3.67 -3.84 3.34 5 3 C5 2.67 5 2.34 5 2 C2.525 1.505 2.525 1.505 0 1 C0 0.67 0 0.34 0 0 Z " fill="#FCEDCE" transform="translate(514,260)"/>
<path d="M0 0 C1.485 0.99 1.485 0.99 3 2 C3.267 4.837 3.348 7.454 3.293 10.289 C3.289 11.107 3.284 11.926 3.28 12.769 C3.263 15.388 3.226 18.006 3.188 20.625 C3.172 22.398 3.159 24.172 3.146 25.945 C3.113 30.297 3.062 34.648 3 39 C3.33 39 3.66 39 4 39 C4 40.65 4 42.3 4 44 C4.66 44.33 5.32 44.66 6 45 C5.34 47.64 4.68 50.28 4 53 C2 52 2 52 0 49 C-1.511 44.091 -1.025 38.96 -0.879 33.887 C-0.855 32.917 -0.832 31.948 -0.807 30.949 C-0.731 27.861 -0.647 24.775 -0.562 21.688 C-0.509 19.591 -0.457 17.494 -0.404 15.396 C-0.275 10.264 -0.14 5.132 0 0 Z " fill="#F9D5A6" transform="translate(330,422)"/>
<path d="M0 0 C0 0.66 0 1.32 0 2 C-1.294 2.311 -1.294 2.311 -2.613 2.629 C-17.608 6.413 -31.923 11.643 -45.746 18.599 C-47.471 19.454 -49.233 20.235 -51 21 C-51.66 20.67 -52.32 20.34 -53 20 C-53 19.34 -53 18.68 -53 18 C-50.877 16.995 -48.752 15.996 -46.625 15 C-44.85 14.165 -44.85 14.165 -43.039 13.312 C-40 12 -40 12 -38 12 C-38 11.34 -38 10.68 -38 10 C-36.242 9.42 -36.242 9.42 -34.449 8.828 C-26.675 6.254 -18.915 3.683 -11.262 0.762 C-7.223 -0.598 -4.109 -1.37 0 0 Z " fill="#13212E" transform="translate(470,262)"/>
<path d="M0 0 C2.64 0 5.28 0 8 0 C8.33 0.99 8.66 1.98 9 3 C9.875 2.964 10.751 2.928 11.652 2.891 C15.039 3.001 17.393 3.604 20.562 4.75 C26.062 6.686 31.598 8.413 37.188 10.07 C39.614 10.872 41.76 11.783 44 13 C44 13.66 44 14.32 44 15 C44.804 15.124 45.609 15.248 46.438 15.375 C47.283 15.581 48.129 15.788 49 16 C49.495 16.99 49.495 16.99 50 18 C42.587 17.74 36.564 15.394 29.82 12.566 C24.65 10.406 19.339 8.69 14 7 C14 6.34 14 5.68 14 5 C9.71 4.34 5.42 3.68 1 3 C0.67 2.01 0.34 1.02 0 0 Z " fill="#0B1C2A" transform="translate(543,259)"/>
<path d="M0 0 C1.32 0 2.64 0 4 0 C4 0.99 4 1.98 4 3 C3.34 3 2.68 3 2 3 C1.753 3.557 1.505 4.114 1.25 4.688 C-0.229 7.424 -1.935 9.677 -4 12 C-4.66 12 -5.32 12 -6 12 C-6 12.99 -6 13.98 -6 15 C-6.66 15 -7.32 15 -8 15 C-8 15.99 -8 16.98 -8 18 C-9.622 19.71 -11.294 21.373 -13 23 C-13.557 23.763 -14.114 24.526 -14.688 25.312 C-15.121 25.869 -15.554 26.426 -16 27 C-16.66 27 -17.32 27 -18 27 C-18.66 28.32 -19.32 29.64 -20 31 C-21.65 31 -23.3 31 -25 31 C-22.825 26.993 -20.252 24.173 -17 21 C-16.278 20.072 -15.556 19.144 -14.812 18.188 C-14.214 17.466 -13.616 16.744 -13 16 C-12.34 16 -11.68 16 -11 16 C-10.754 15.446 -10.508 14.891 -10.254 14.32 C-8.759 11.555 -6.934 9.302 -4.938 6.875 C-2.196 3.614 -2.196 3.614 0 0 Z " fill="#E7CFA7" transform="translate(654,542)"/>
<path d="M0 0 C6.09 5.187 9.1 12.399 11 20 C11.558 21.543 12.121 23.085 12.688 24.625 C13.877 28.106 14.269 30.424 13 34 C12.34 34 11.68 34 11 34 C7.31 28.783 6.251 23.907 5.152 17.639 C4.292 12.943 2.957 8.962 0.77 4.734 C0 3 0 3 0 0 Z " fill="#091E2D" transform="translate(677,364)"/>
<path d="M0 0 C11.22 0 22.44 0 34 0 C34 0.33 34 0.66 34 1 C33.237 1.103 32.474 1.206 31.688 1.312 C28.973 1.71 28.973 1.71 27.856 3.511 C24.84 5.931 21.324 5.482 17.613 5.512 C16.796 5.53 15.979 5.548 15.137 5.566 C12.529 5.62 9.921 5.654 7.312 5.688 C5.544 5.721 3.775 5.755 2.006 5.791 C-2.329 5.876 -6.664 5.943 -11 6 C-11 5.34 -11 4.68 -11 4 C-3.574 2.391 3.405 1.736 11 2 C11 2.33 11 2.66 11 3 C13.64 3 16.28 3 19 3 C12.73 2.34 6.46 1.68 0 1 C0 0.67 0 0.34 0 0 Z " fill="#EAC9A0" transform="translate(494,259)"/>
<path d="M0 0 C3.837 1.494 5.462 3.636 7.75 7 C8.364 7.887 8.977 8.774 9.609 9.688 C11 12 11 12 11 14 C11.66 14 12.32 14 13 14 C13.66 15.98 14.32 17.96 15 20 C15.66 20 16.32 20 17 20 C17.247 20.619 17.495 21.238 17.75 21.875 C19.206 24.351 20.378 24.951 23 26 C22.814 26.722 22.629 27.444 22.438 28.188 C21.98 31.128 22.265 33.141 23 36 C21.156 35.781 21.156 35.781 19 35 C17.656 33.031 17.656 33.031 16.5 30.5 C16.072 29.589 15.644 28.677 15.203 27.738 C14.483 26.099 13.779 24.453 13.109 22.793 C10.794 17.12 7.661 12.371 4.085 7.428 C2.295 4.945 0.976 2.928 0 0 Z " fill="#0E2738" transform="translate(654,327)"/>
<path d="M0 0 C0.99 0 1.98 0 3 0 C3 1.98 3 3.96 3 6 C3.66 6 4.32 6 5 6 C5 11.94 5 17.88 5 24 C4.34 24 3.68 24 3 24 C3 27.3 3 30.6 3 34 C2.67 34 2.34 34 2 34 C1.67 32.02 1.34 30.04 1 28 C0.67 28 0.34 28 0 28 C0 18.76 0 9.52 0 0 Z " fill="#FCE0B8" transform="translate(687,426)"/>
<path d="M0 0 C0.99 0 1.98 0 3 0 C3 16.5 3 33 3 50 C2.01 49.34 1.02 48.68 0 48 C-0.341 45.203 -0.341 45.203 -0.293 41.68 C-0.283 40.423 -0.274 39.166 -0.264 37.871 C-0.239 36.552 -0.213 35.234 -0.188 33.875 C-0.172 32.535 -0.159 31.195 -0.146 29.855 C-0.111 26.57 -0.062 23.285 0 20 C-0.33 20 -0.66 20 -1 20 C-1.33 25.61 -1.66 31.22 -2 37 C-2.33 37 -2.66 37 -3 37 C-3 26.44 -3 15.88 -3 5 C-2.34 4.67 -1.68 4.34 -1 4 C-0.348 1.975 -0.348 1.975 0 0 Z " fill="#FDF0D1" transform="translate(332,416)"/>
<path d="M0 0 C10.23 0 20.46 0 31 0 C31.66 2.31 32.32 4.62 33 7 C31.457 8.705 29.89 10.389 28.312 12.062 C27.442 13.002 26.572 13.942 25.676 14.91 C23 17 23 17 20.168 16.809 C19.453 16.542 18.737 16.275 18 16 C18.894 14.79 19.79 13.582 20.688 12.375 C21.186 11.702 21.685 11.029 22.199 10.336 C24.389 7.496 26.704 4.755 29 2 C19.43 1.67 9.86 1.34 0 1 C0 0.67 0 0.34 0 0 Z M17 16 C17.33 16.66 17.66 17.32 18 18 C17.34 17.67 16.68 17.34 16 17 C16.33 16.67 16.66 16.34 17 16 Z " fill="#00D1DF" transform="translate(747,234)"/>
<path d="M0 0 C-18.918 10.251 -39.545 15.359 -61 16 C-61 15.34 -61 14.68 -61 14 C-59.964 13.867 -58.927 13.734 -57.859 13.598 C-56.49 13.419 -55.12 13.241 -53.75 13.062 C-53.068 12.975 -52.386 12.888 -51.684 12.799 C-48.391 12.367 -45.212 11.83 -42 11 C-40.648 10.855 -39.293 10.731 -37.938 10.625 C-32.504 10.055 -27.125 8.913 -22 7 C-21.67 6.34 -21.34 5.68 -21 5 C-19.109 4.402 -19.109 4.402 -16.75 3.938 C-15.942 3.774 -15.134 3.61 -14.301 3.441 C-13.542 3.296 -12.782 3.15 -12 3 C-10.989 2.794 -9.979 2.587 -8.938 2.375 C-8.298 2.251 -7.659 2.128 -7 2 C-7 1.34 -7 0.68 -7 0 C-2.25 -1.125 -2.25 -1.125 0 0 Z " fill="#F0790E" transform="translate(588,597)"/>
<path d="M0 0 C0.33 0.66 0.66 1.32 1 2 C3.017 3.134 3.017 3.134 5 4 C5 4.66 5 5.32 5 6 C5.99 6.33 6.98 6.66 8 7 C8 7.66 8 8.32 8 9 C8.597 9.258 9.194 9.516 9.809 9.781 C12.181 11.101 13.384 12.387 15.062 14.5 C17.009 16.937 18.334 18.223 21 20 C18.812 20.812 18.812 20.812 16 21 C13.188 18.688 13.188 18.688 11 16 C11 15.34 11 14.68 11 14 C10.01 14.33 9.02 14.66 8 15 C6.678 13.76 5.368 12.507 4.062 11.25 C3.332 10.554 2.601 9.858 1.848 9.141 C-0.034 6.96 -0.729 5.835 -1 3 C-0.67 2.01 -0.34 1.02 0 0 Z " fill="#FCDAAE" transform="translate(631,308)"/>
<path d="M0 0 C-0.99 0.66 -1.98 1.32 -3 2 C-2.016 3.205 -2.016 3.205 -0.142 3.114 C1.044 3.106 1.044 3.106 2.254 3.098 C3.108 3.094 3.962 3.091 4.842 3.088 C6.189 3.075 6.189 3.075 7.562 3.062 C8.464 3.058 9.366 3.053 10.295 3.049 C12.53 3.037 14.765 3.021 17 3 C17 3.33 17 3.66 17 4 C12.751 4.314 8.501 4.616 4.25 4.909 C2.807 5.01 1.365 5.114 -0.076 5.221 C-7.833 5.794 -15.273 6.235 -23 5 C-22.67 3.68 -22.34 2.36 -22 1 C-14.635 0.001 -7.427 -0.103 0 0 Z " fill="#E9CCA4" transform="translate(515,614)"/>
<path d="M0 0 C3.914 6.694 3.515 15.595 2 23 C1.34 22.67 0.68 22.34 0 22 C-0.66 23.32 -1.32 24.64 -2 26 C-2.365 23.126 -2.717 20.251 -3.062 17.375 C-3.166 16.567 -3.27 15.759 -3.377 14.926 C-3.913 10.379 -4.046 6.52 -3 2 C-2.67 2.66 -2.34 3.32 -2 4 C-1.34 4 -0.68 4 0 4 C0 2.68 0 1.36 0 0 Z " fill="#FCDFB6" transform="translate(687,400)"/>
<path d="M0 0 C-0.33 0.99 -0.66 1.98 -1 3 C-2.75 3.812 -2.75 3.812 -5 4 C-6.127 3.546 -6.127 3.546 -7.277 3.082 C-10.134 1.947 -12.786 1.386 -15.812 0.875 C-16.788 0.707 -17.764 0.54 -18.77 0.367 C-19.506 0.246 -20.242 0.125 -21 0 C-21.33 -0.99 -21.66 -1.98 -22 -3 C-16.773 -8.227 -4.653 -3.893 0 0 Z " fill="#FBDDB4" transform="translate(565,269)"/>
<path d="M0 0 C0.99 0 1.98 0 3 0 C3 16.83 3 33.66 3 51 C-0.375 46.5 -0.375 46.5 -0.341 42.231 C-0.34 41.291 -0.34 40.35 -0.34 39.381 C-0.324 38.373 -0.309 37.366 -0.293 36.328 C-0.289 35.291 -0.284 34.253 -0.28 33.184 C-0.263 29.872 -0.226 26.561 -0.188 23.25 C-0.172 21.004 -0.159 18.758 -0.146 16.512 C-0.113 11.008 -0.063 5.504 0 0 Z " fill="#3A4041" transform="translate(326,421)"/>
<path d="M0 0 C1.868 0.014 1.868 0.014 3.773 0.027 C5.185 0.045 5.185 0.045 6.625 0.062 C4.49 2.197 3.631 2.508 0.801 3.246 C0.026 3.45 -0.748 3.654 -1.546 3.865 C-2.792 4.179 -2.792 4.179 -4.062 4.5 C-4.912 4.718 -5.762 4.936 -6.638 5.161 C-26.927 10.29 -26.927 10.29 -36.375 10.062 C-36.375 9.732 -36.375 9.403 -36.375 9.062 C-28.785 7.413 -21.195 5.763 -13.375 4.062 C-13.375 3.072 -13.375 2.082 -13.375 1.062 C-8.857 0.18 -4.6 -0.043 0 0 Z " fill="#06445D" transform="translate(568.375,611.9375)"/>
<path d="M0 0 C0.99 0.33 1.98 0.66 3 1 C-1.53 6.437 -6.343 11.465 -11.375 16.438 C-12.111 17.169 -12.847 17.901 -13.605 18.654 C-15.401 20.439 -17.2 22.22 -19 24 C-19.99 23.34 -20.98 22.68 -22 22 C-14.74 14.74 -7.48 7.48 0 0 Z " fill="#00F7FC" transform="translate(627,255)"/>
<path d="M0 0 C7.027 0.503 14.019 1.042 21 2 C21 2.33 21 2.66 21 3 C16.545 3.495 16.545 3.495 12 4 C14.64 4.33 17.28 4.66 20 5 C20 5.33 20 5.66 20 6 C2.144 6.369 2.144 6.369 -6 4 C-6 3.67 -6 3.34 -6 3 C-4.02 3 -2.04 3 0 3 C0 2.01 0 1.02 0 0 Z " fill="#FBE5BE" transform="translate(481,612)"/>
<path d="M0 0 C-1.32 0.33 -2.64 0.66 -4 1 C-4 1.99 -4 2.98 -4 4 C-7.041 4.223 -10.082 4.429 -13.125 4.625 C-13.981 4.689 -14.837 4.754 -15.719 4.82 C-20.639 5.123 -24.369 4.989 -29 3 C-29 2.67 -29 2.34 -29 2 C-9.032 -0.296 -9.032 -0.296 0 0 Z " fill="#F3DEBD" transform="translate(536,613)"/>
<path d="M0 0 C6.93 0 13.86 0 21 0 C21 0.66 21 1.32 21 2 C18.03 2 15.06 2 12 2 C12 2.66 12 3.32 12 4 C4.41 4.33 -3.18 4.66 -11 5 C-7.911 2.941 -7.291 2.761 -3.812 2.875 C-1.925 2.937 -1.925 2.937 0 3 C0 2.01 0 1.02 0 0 Z " fill="#091E2E" transform="translate(482,256)"/>
<path d="M0 0 C0.33 0 0.66 0 1 0 C1.981 4.18 2.263 8.211 2.375 12.5 C2.424 13.789 2.473 15.078 2.523 16.406 C1.88 20.826 0.391 22.219 -3 25 C-3.773 19.089 -4.148 13.869 -3 8 C-2.34 8 -1.68 8 -1 8 C-0.67 5.36 -0.34 2.72 0 0 Z " fill="#F9D5A7" transform="translate(687,456)"/>
<path d="M0 0 C-1.659 4.325 -4.871 7.094 -8.125 10.25 C-8.688 10.804 -9.252 11.359 -9.832 11.93 C-11.217 13.291 -12.608 14.646 -14 16 C-14.33 15.01 -14.66 14.02 -15 13 C-14.34 13 -13.68 13 -13 13 C-13 12.01 -13 11.02 -13 10 C-12.34 9.67 -11.68 9.34 -11 9 C-11 7.68 -11 6.36 -11 5 C-7.473 -0.055 -6.011 -1.424 0 0 Z " fill="#00E9F7" transform="translate(405,251)"/>
<path d="M0 0 C3.107 0.236 6.214 0.474 9.32 0.715 C11.69 0.898 14.06 1.078 16.43 1.254 C18.011 1.376 18.011 1.376 19.625 1.5 C21.067 1.608 21.067 1.608 22.539 1.719 C25 2 25 2 28 3 C30.226 3.225 32.456 3.408 34.688 3.562 C35.867 3.646 37.046 3.73 38.262 3.816 C39.617 3.907 39.617 3.907 41 4 C41 4.33 41 4.66 41 5 C36.813 5.058 32.625 5.094 28.438 5.125 C27.256 5.142 26.075 5.159 24.857 5.176 C18.808 5.21 13.699 5.061 8 3 C6.523 2.616 5.044 2.239 3.562 1.875 C2.387 1.586 1.211 1.298 0 1 C0 0.67 0 0.34 0 0 Z " fill="#061927" transform="translate(479,617)"/>
<path d="M0 0 C0.33 0 0.66 0 1 0 C1.345 6.334 0.293 11.103 -2 17 C-2.66 16.01 -3.32 15.02 -4 14 C-4.99 14.495 -4.99 14.495 -6 15 C-5.67 16.32 -5.34 17.64 -5 19 C-5.66 19 -6.32 19 -7 19 C-7.33 19.66 -7.66 20.32 -8 21 C-7.43 14.043 -5.987 7.686 -4 1 C-3.67 1 -3.34 1 -3 1 C-2.67 2.65 -2.34 4.3 -2 6 C-1.34 4.02 -0.68 2.04 0 0 Z " fill="#F9E7C3" transform="translate(687,474)"/>
<path d="M0 0 C0.66 0.33 1.32 0.66 2 1 C2.625 4.062 2.625 4.062 3 7 C3.33 7 3.66 7 4 7 C4 8.65 4 10.3 4 12 C4.66 12.33 5.32 12.66 6 13 C5.34 15.64 4.68 18.28 4 21 C2 20 2 20 0 17 C-1.535 11.627 -1.777 5.331 0 0 Z " fill="#F5D9B1" transform="translate(330,454)"/>
<path d="M0 0 C0.66 0.66 1.32 1.32 2 2 C0.715 3.506 -0.578 5.005 -1.875 6.5 C-2.594 7.335 -3.314 8.171 -4.055 9.031 C-4.697 9.681 -5.339 10.331 -6 11 C-6.66 11 -7.32 11 -8 11 C-8.214 11.541 -8.428 12.083 -8.648 12.641 C-10.481 15.839 -12.998 18.21 -15.625 20.75 C-16.141 21.257 -16.656 21.763 -17.188 22.285 C-18.454 23.528 -19.726 24.765 -21 26 C-21.66 25.67 -22.32 25.34 -23 25 C-22.229 24.252 -21.458 23.505 -20.664 22.734 C-19.651 21.74 -18.638 20.745 -17.625 19.75 C-17.117 19.259 -16.609 18.768 -16.086 18.262 C-13.425 15.635 -11.634 13.321 -10 10 C-8.34 8.204 -6.627 6.457 -4.875 4.75 C-3.965 3.858 -3.055 2.966 -2.117 2.047 C-1.419 1.371 -0.72 0.696 0 0 Z " fill="#041A2C" transform="translate(328,328)"/>
<path d="M0 0 C0 0.99 0 1.98 0 3 C-0.66 2.67 -1.32 2.34 -2 2 C-1.34 1.34 -0.68 0.68 0 0 Z M-3 3 C-3 3.99 -3 4.98 -3 6 C-4.983 7.687 -6.983 9.354 -9 11 C-9.33 11.99 -9.66 12.98 -10 14 C-11.207 14.712 -11.207 14.712 -12.438 15.438 C-15.108 16.749 -15.108 16.749 -16 19.062 C-17 21 -17 21 -19.625 22.25 C-20.409 22.498 -21.192 22.745 -22 23 C-22 20 -22 20 -20.778 18.406 C-20.217 17.848 -19.656 17.29 -19.078 16.715 C-18.465 16.102 -17.851 15.489 -17.219 14.857 C-16.569 14.224 -15.919 13.59 -15.25 12.938 C-14.299 11.981 -14.299 11.981 -13.328 11.006 C-10.336 8.048 -7.832 5.796 -4 4 C-3.67 3.67 -3.34 3.34 -3 3 Z " fill="#051B2C" transform="translate(361,297)"/>
<path d="M0 0 C-1.98 0.99 -1.98 0.99 -4 2 C0.95 2 5.9 2 11 2 C11 2.33 11 2.66 11 3 C10.216 3.144 9.433 3.289 8.625 3.438 C6.036 3.878 6.036 3.878 4 5 C0.01 4.936 -3.963 4.525 -7.938 4.188 C-9.048 4.104 -10.159 4.021 -11.303 3.936 C-12.367 3.847 -13.431 3.759 -14.527 3.668 C-15.504 3.588 -16.481 3.509 -17.488 3.427 C-20 3 -20 3 -23 1 C-20.479 0.831 -17.959 0.664 -15.438 0.5 C-14.733 0.452 -14.029 0.405 -13.303 0.355 C-8.857 0.069 -4.455 -0.047 0 0 Z " fill="#182F3B" transform="translate(527,618)"/>
<path d="M0 0 C0.763 0.309 1.526 0.619 2.312 0.938 C4.188 1.679 6.087 2.362 8 3 C7.67 3.33 7.34 3.66 7 4 C13.696 9.979 13.696 9.979 21.688 13.938 C24 15 24 15 25.312 17.125 C25.539 17.744 25.766 18.362 26 19 C16.465 15.474 7.368 8.953 0 2 C0 1.34 0 0.68 0 0 Z " fill="#08374C" transform="translate(387,576)"/>
<path d="M0 0 C0.745 0.005 1.49 0.009 2.258 0.014 C4.089 0.025 5.919 0.043 7.75 0.062 C8.08 0.723 8.41 1.382 8.75 2.062 C9.74 2.723 10.73 3.382 11.75 4.062 C6.035 5.159 1.062 4.871 -4.688 4.125 C-5.514 4.025 -6.341 3.925 -7.193 3.822 C-9.213 3.577 -11.232 3.321 -13.25 3.062 C-12.25 1.062 -12.25 1.062 -10.431 0.444 C-6.97 -0.161 -3.501 -0.04 0 0 Z " fill="#091928" transform="translate(528.25,255.9375)"/>
<path d="M0 0 C3.438 3.438 3.971 7.11 4.125 11.875 C4.084 12.906 4.043 13.938 4 15 C3.34 15 2.68 15 2 15 C1.34 16.32 0.68 17.64 0 19 C-0.508 17.273 -1.006 15.543 -1.5 13.812 C-1.918 12.368 -1.918 12.368 -2.344 10.895 C-2.967 8.147 -3.123 5.804 -3 3 C-2.01 3.99 -1.02 4.98 0 6 C0 4.02 0 2.04 0 0 Z " fill="#FCE8C5" transform="translate(683,389)"/>
<path d="M0 0 C0 0.99 0 1.98 0 3 C-2.497 3.679 -4.997 4.343 -7.5 5 C-8.196 5.191 -8.892 5.382 -9.609 5.578 C-14.541 6.857 -18.906 7.184 -24 7 C-24 6.67 -24 6.34 -24 6 C-21.69 6 -19.38 6 -17 6 C-17 4.68 -17 3.36 -17 2 C-15.105 1.662 -13.209 1.329 -11.312 1 C-9.729 0.722 -9.729 0.722 -8.113 0.438 C-5.351 0.049 -2.783 -0.083 0 0 Z " fill="#CBB999" transform="translate(560,610)"/>
<path d="M0 0 C4.968 0.835 9.697 2.391 14.5 3.875 C22.28 6.249 30.033 8.343 38 10 C38 10.33 38 10.66 38 11 C30.118 10.968 23.131 9.388 15.625 7.125 C14.769 6.868 13.914 6.612 13.032 6.347 C8.453 4.92 4.231 3.302 0 1 C0 0.67 0 0.34 0 0 Z " fill="#007DA4" transform="translate(442,610)"/>
<path d="M0 0 C0.33 0 0.66 0 1 0 C1.163 5.234 0.606 9.863 -0.5 14.938 C-0.643 15.621 -0.786 16.305 -0.934 17.01 C-1.283 18.674 -1.641 20.337 -2 22 C-2.99 21.67 -3.98 21.34 -5 21 C-5.33 18.03 -5.66 15.06 -6 12 C-5.01 12 -4.02 12 -3 12 C-2.01 8.04 -1.02 4.08 0 0 Z " fill="#FCE6C5" transform="translate(338,392)"/>
<path d="M0 0 C0.66 0.99 1.32 1.98 2 3 C-7.032 14.097 -7.032 14.097 -13 17 C-13.66 16.67 -14.32 16.34 -15 16 C-14.457 15.469 -13.915 14.938 -13.355 14.391 C-12.64 13.684 -11.925 12.978 -11.188 12.25 C-10.48 11.554 -9.772 10.858 -9.043 10.141 C-6.967 8.063 -6.967 8.063 -5.363 5.734 C-4.913 5.162 -4.464 4.59 -4 4 C-3.34 4 -2.68 4 -2 4 C-1.34 2.68 -0.68 1.36 0 0 Z " fill="#061A28" transform="translate(714,309)"/>
<path d="M0 0 C2.31 0.33 4.62 0.66 7 1 C7 1.66 7 2.32 7 3 C8.423 2.907 8.423 2.907 9.875 2.812 C10.906 2.874 11.938 2.936 13 3 C13.99 4.485 13.99 4.485 15 6 C15.99 6.33 16.98 6.66 18 7 C18 7.66 18 8.32 18 9 C13.38 8.01 8.76 7.02 4 6 C4 5.34 4 4.68 4 4 C3.34 3.67 2.68 3.34 2 3 C2 2.34 2 1.68 2 1 C1.34 0.67 0.68 0.34 0 0 Z " fill="#F8D7AC" transform="translate(457,607)"/>
<path d="M0 0 C-0.474 0.454 -0.949 0.908 -1.438 1.375 C-3.09 2.933 -3.09 2.933 -4 5 C-9.194 6.585 -14.579 7.285 -20 7 C-17.161 4.161 -13.694 3.185 -10 1.812 C-8.894 1.384 -8.894 1.384 -7.766 0.947 C-2.246 -1.123 -2.246 -1.123 0 0 Z " fill="#081625" transform="translate(582,606)"/>
<path d="M0 0 C0.928 0.33 1.856 0.66 2.812 1 C5.92 2.15 5.92 2.15 9 2 C11.188 4.5 11.188 4.5 13 7 C12.01 7.99 11.02 8.98 10 10 C6.276 7.63 2.904 5.35 0 2 C0 1.34 0 0.68 0 0 Z " fill="#112432" transform="translate(596,278)"/>
<path d="M0 0 C4.455 0.99 4.455 0.99 9 2 C8.814 2.887 8.629 3.774 8.438 4.688 C8.02 7.852 8.192 9.948 9 13 C7.172 12.809 7.172 12.809 5 12 C3.516 9.785 3.516 9.785 2.25 7.062 C1.822 6.167 1.394 5.271 0.953 4.348 C0 2 0 2 0 0 Z " fill="#0B202F" transform="translate(668,350)"/>
<path d="M0 0 C4.174 3.501 8.315 6.98 12 11 C12 11.66 12 12.32 12 13 C13.32 13.33 14.64 13.66 16 14 C16 14.99 16 15.98 16 17 C15.67 16.34 15.34 15.68 15 15 C13.866 14.876 12.731 14.753 11.562 14.625 C8 14 8 14 6.688 12.188 C6.461 11.466 6.234 10.744 6 10 C4.86 7.394 3.916 5.916 1.875 3.875 C1.256 3.256 0.637 2.638 0 2 C0 1.34 0 0.68 0 0 Z " fill="#101A27" transform="translate(376,562)"/>
<path d="M0 0 C-0.33 0.66 -0.66 1.32 -1 2 C-7.433 2.121 -13.618 1.824 -20 1 C-20 0.67 -20 0.34 -20 0 C-12.851 -2.334 -7.188 -2.805 0 0 Z " fill="#FDD9AE" transform="translate(543,264)"/>
<path d="M0 0 C1.32 0.33 2.64 0.66 4 1 C2.625 3 2.625 3 1 5 C0.34 5 -0.32 5 -1 5 C-1.247 5.577 -1.495 6.155 -1.75 6.75 C-3.167 9.3 -4.876 11.018 -7 13 C-7.99 12.34 -8.98 11.68 -10 11 C-9.529 10.541 -9.059 10.082 -8.574 9.609 C-3.966 5.085 -3.966 5.085 0 0 Z " fill="#00DFEA" transform="translate(552,621)"/>
<path d="M0 0 C0.33 0 0.66 0 1 0 C1.33 4.29 1.66 8.58 2 13 C2.33 13 2.66 13 3 13 C3.081 14.916 3.139 16.833 3.188 18.75 C3.222 19.817 3.257 20.885 3.293 21.984 C3 25 3 25 0 29 C0 19.43 0 9.86 0 0 Z " fill="#051A2A" transform="translate(693,432)"/>
<path d="M0 0 C0.99 1.485 0.99 1.485 2 3 C2.681 3.722 3.361 4.444 4.062 5.188 C6.626 8.909 6.697 11.528 7 16 C6.01 16.33 5.02 16.66 4 17 C0.828 13.565 0.542 10.847 0.312 6.25 C0.247 5.08 0.181 3.909 0.113 2.703 C0.076 1.811 0.039 0.919 0 0 Z " fill="#132F41" transform="translate(684,381)"/>
<path d="M0 0 C1.159 3.478 0.708 5.459 0 9 C0.66 9 1.32 9 2 9 C1.453 12.375 0.945 14.082 -1 17 C-1.33 16.34 -1.66 15.68 -2 15 C-2.66 15 -3.32 15 -4 15 C-3.503 9.339 -2.455 5.123 0 0 Z " fill="#FBE7C4" transform="translate(340,374)"/>
<path d="M0 0 C0.66 0 1.32 0 2 0 C2 2.31 2 4.62 2 7 C1.34 7 0.68 7 0 7 C-0.66 10.3 -1.32 13.6 -2 17 C-2.66 17 -3.32 17 -4 17 C-4.33 17.66 -4.66 18.32 -5 19 C-5.125 11.25 -5.125 11.25 -4 9 C-3.34 9 -2.68 9 -2 9 C-2 7.68 -2 6.36 -2 5 C-1.34 5 -0.68 5 0 5 C-0.278 4.041 -0.278 4.041 -0.562 3.062 C-0.707 2.382 -0.851 1.701 -1 1 C-0.67 0.67 -0.34 0.34 0 0 Z " fill="#081D2B" transform="translate(333,383)"/>
<path d="M0 0 C2.5 2.174 3.436 3.73 4 7 C3.34 6.67 2.68 6.34 2 6 C2.884 8.719 3.767 11.422 4.836 14.074 C5.257 15.12 5.257 15.12 5.688 16.188 C6.095 17.168 6.095 17.168 6.512 18.168 C7 20 7 20 6 23 C3.731 18.625 1.602 14.23 -0.312 9.688 C-0.659 8.866 -1.006 8.045 -1.363 7.199 C-2 5 -2 5 -1 2 C-0.67 2 -0.34 2 0 2 C0 1.34 0 0.68 0 0 Z " fill="#0C1623" transform="translate(676,359)"/>
<path d="M0 0 C0 4.255 -2.472 6.073 -5.25 9 C-5.987 9.801 -5.987 9.801 -6.738 10.617 C-9.314 13.378 -11.883 15.863 -15 18 C-15.66 17.67 -16.32 17.34 -17 17 C-11.39 11.39 -5.78 5.78 0 0 Z " fill="#00E7F1" transform="translate(774,622)"/>
<path d="M0 0 C3.806 0.672 7.352 1.727 11 3 C11 2.34 11 1.68 11 1 C15.75 1.75 15.75 1.75 18 4 C17.01 5.32 16.02 6.64 15 8 C10.05 5.69 5.1 3.38 0 1 C0 0.67 0 0.34 0 0 Z " fill="#F7E9C6" transform="translate(428,598)"/>
<path d="M0 0 C4.571 0.549 8.674 1.417 13 3 C11.02 3.99 11.02 3.99 9 5 C9.33 5.33 9.66 5.66 10 6 C10.66 6.66 11.32 7.32 12 8 C7.682 7.492 3.967 6.803 0 5 C1.32 4.34 2.64 3.68 4 3 C2.68 2.01 1.36 1.02 0 0 Z " fill="#FAE8C4" transform="translate(451,604)"/>
<path d="M0 0 C0.66 0.33 1.32 0.66 2 1 C1.01 2.485 1.01 2.485 0 4 C0.66 4.33 1.32 4.66 2 5 C-1.354 7.971 -3.59 9.339 -8 10 C-9.679 10.634 -11.35 11.293 -13 12 C-8.877 7.748 -4.487 3.864 0 0 Z " fill="#F9E4BD" transform="translate(631,568)"/>
<path d="M0 0 C0.33 0 0.66 0 1 0 C1.33 2.31 1.66 4.62 2 7 C2.66 4.69 3.32 2.38 4 0 C6.094 3.402 6.179 6.053 6 10 C5.34 10 4.68 10 4 10 C4 10.99 4 11.98 4 13 C3.01 13 2.02 13 1 13 C0.128 10.005 -0.108 7.364 -0.062 4.25 C-0.053 3.451 -0.044 2.652 -0.035 1.828 C-0.024 1.225 -0.012 0.622 0 0 Z " fill="#FCEAC6" transform="translate(331,467)"/>
<path d="M0 0 C1.98 0.99 3.96 1.98 6 3 C6 3.66 6 4.32 6 5 C7.458 6.625 7.458 6.625 9 8 C7.35 8.66 5.7 9.32 4 10 C4 9.01 4 8.02 4 7 C2.02 6.34 0.04 5.68 -2 5 C-1.125 1.125 -1.125 1.125 0 0 Z " fill="#F8DAAD" transform="translate(594,280)"/>
<path d="M0 0 C4.29 1.65 8.58 3.3 13 5 C13 6.32 13 7.64 13 9 C8.315 7.782 4.295 6.304 0 4 C0 2.68 0 1.36 0 0 Z " fill="#FBDBAF" transform="translate(427,593)"/>
<path d="M0 0 C0.33 0.66 0.66 1.32 1 2 C1.66 2.33 2.32 2.66 3 3 C-0.1 6.248 -2.007 7.966 -6.688 8.125 C-8.327 8.063 -8.327 8.063 -10 8 C-9.67 7.01 -9.34 6.02 -9 5 C-7.348 4.298 -5.681 3.63 -4 3 C-3.67 2.34 -3.34 1.68 -3 1 C-2.01 0.67 -1.02 0.34 0 0 Z " fill="#F9D8AE" transform="translate(452,268)"/>
<path d="M0 0 C0.66 0.33 1.32 0.66 2 1 C1.622 3.738 1.251 4.782 -0.875 6.625 C-1.576 7.079 -2.278 7.533 -3 8 C-3.99 8.66 -4.98 9.32 -6 10 C-6.66 9.01 -7.32 8.02 -8 7 C-5.36 4.69 -2.72 2.38 0 0 Z " fill="#00EFFA" transform="translate(521,657)"/>
<path d="M0 0 C5.455 0.568 9.911 1.946 15 4 C15 4.99 15 5.98 15 7 C13.742 6.876 12.484 6.753 11.188 6.625 C10.126 6.521 10.126 6.521 9.043 6.414 C7 6 7 6 4 4 C4 3.34 4 2.68 4 2 C2.68 1.34 1.36 0.68 0 0 Z " fill="#072133" transform="translate(449,609)"/>
<path d="M0 0 C0.897 0.309 0.897 0.309 1.812 0.625 C-0.814 3.543 -3.857 5.57 -7.188 7.625 C-7.848 7.625 -8.507 7.625 -9.188 7.625 C-9.188 8.285 -9.188 8.945 -9.188 9.625 C-10.178 9.295 -11.168 8.965 -12.188 8.625 C-12.188 7.965 -12.188 7.305 -12.188 6.625 C-7.803 3.625 -7.803 3.625 -5.188 3.625 C-5.188 2.965 -5.188 2.305 -5.188 1.625 C-2.188 -0.375 -2.188 -0.375 0 0 Z " fill="#0E1B29" transform="translate(409.1875,286.375)"/>
<path d="M0 0 C0.33 0.99 0.66 1.98 1 3 C-0.312 5.188 -0.312 5.188 -2 7 C-2.66 7 -3.32 7 -4 7 C-4 7.66 -4 8.32 -4 9 C-5.75 10.508 -5.75 10.508 -8 12.125 C-8.743 12.664 -9.485 13.203 -10.25 13.758 C-10.827 14.168 -11.405 14.578 -12 15 C-12.66 14.67 -13.32 14.34 -14 14 C-9.38 9.38 -4.76 4.76 0 0 Z " fill="#00DAE6" transform="translate(328,561)"/>
<path d="M0 0 C0.99 0.33 1.98 0.66 3 1 C-1.444 5.587 -6.202 9.788 -11 14 C-11.66 13.67 -12.32 13.34 -13 13 C-8.71 8.71 -4.42 4.42 0 0 Z " fill="#00DEEA" transform="translate(297,592)"/>
<path d="M0 0 C0.66 0.66 1.32 1.32 2 2 C1.758 4.383 1.758 4.383 1.125 7.125 C0.921 8.035 0.718 8.945 0.508 9.883 C0.34 10.581 0.173 11.28 0 12 C-0.99 12 -1.98 12 -3 12 C-3.081 10.376 -3.139 8.75 -3.188 7.125 C-3.222 6.22 -3.257 5.315 -3.293 4.383 C-3.196 3.596 -3.1 2.81 -3 2 C-2.01 1.34 -1.02 0.68 0 0 Z " fill="#0B1B2A" transform="translate(339,367)"/>
<path d="M0 0 C-1.98 0.66 -3.96 1.32 -6 2 C-5.67 2.66 -5.34 3.32 -5 4 C-4.01 4.33 -3.02 4.66 -2 5 C-4.31 5.66 -6.62 6.32 -9 7 C-8.67 6.01 -8.34 5.02 -8 4 C-10.97 4.66 -13.94 5.32 -17 6 C-13.965 3.497 -11.068 2.084 -7.375 0.75 C-6.413 0.394 -5.452 0.038 -4.461 -0.328 C-2 -1 -2 -1 0 0 Z " fill="#FAECC9" transform="translate(449,271)"/>
<path d="M0 0 C-3 2 -3 2 -6 2 C-6 2.66 -6 3.32 -6 4 C-5.34 4.66 -4.68 5.32 -4 6 C-7.823 7.423 -10.913 8.24 -15 8 C-12 6 -12 6 -10 5 C-10.33 4.01 -10.66 3.02 -11 2 C-7.17 0.198 -4.219 -0.196 0 0 Z " fill="#FCEAC9" transform="translate(464,266)"/>
<path d="M0 0 C1.32 0 2.64 0 4 0 C2.618 3.21 1.076 5.049 -1.625 7.25 C-2.572 8.031 -2.572 8.031 -3.539 8.828 C-4.021 9.215 -4.503 9.602 -5 10 C-5.33 9.01 -5.66 8.02 -6 7 C-5.34 7 -4.68 7 -4 7 C-4 5.68 -4 4.36 -4 3 C-2.68 2.67 -1.36 2.34 0 2 C0 1.34 0 0.68 0 0 Z " fill="#00E4EF" transform="translate(765,250)"/>
<path d="M0 0 C3.63 0.33 7.26 0.66 11 1 C10.67 1.99 10.34 2.98 10 4 C6.37 4.33 2.74 4.66 -1 5 C-0.67 3.35 -0.34 1.7 0 0 Z " fill="#EDCFA6" transform="translate(533,612)"/>
<path d="M0 0 C0.66 0 1.32 0 2 0 C3.252 4.219 2.673 7.961 2.062 12.25 C1.913 13.368 1.913 13.368 1.76 14.508 C1.513 16.339 1.257 18.17 1 20 C0.67 20 0.34 20 0 20 C-0.196 16.855 -0.38 13.709 -0.562 10.562 C-0.619 9.665 -0.675 8.767 -0.732 7.842 C-0.781 6.988 -0.829 6.134 -0.879 5.254 C-0.926 4.463 -0.973 3.672 -1.022 2.858 C-1 1 -1 1 0 0 Z " fill="#072232" transform="translate(694,430)"/>
<path d="M0 0 C0.66 0.33 1.32 0.66 2 1 C1.01 2.485 1.01 2.485 0 4 C1.32 3.01 2.64 2.02 4 1 C4.66 1.33 5.32 1.66 6 2 C3.36 4.64 0.72 7.28 -2 10 C-2.33 9.01 -2.66 8.02 -3 7 C-3.99 6.67 -4.98 6.34 -6 6 C-4.02 4.02 -2.04 2.04 0 0 Z " fill="#FDEAC6" transform="translate(386,306)"/>
<path d="M0 0 C0.99 0.33 1.98 0.66 3 1 C3 1.66 3 2.32 3 3 C4.32 2.67 5.64 2.34 7 2 C4.368 4.924 1.392 7.022 -2 9 C-2.99 8.67 -3.98 8.34 -5 8 C-4.34 8 -3.68 8 -3 8 C-2.67 6.68 -2.34 5.36 -2 4 C-2.66 3.67 -3.32 3.34 -4 3 C-2.188 1.438 -2.188 1.438 0 0 Z " fill="#FDE8C3" transform="translate(416,284)"/>
<path d="M0 0 C1.979 2.968 2.342 4.098 2.688 7.5 C2.774 8.273 2.86 9.047 2.949 9.844 C3 12 3 12 2 15 C2 14.34 2 13.68 2 13 C1.34 13 0.68 13 0 13 C-0.773 8.942 -1.192 5.133 -1 1 C-0.67 0.67 -0.34 0.34 0 0 Z " fill="#15202B" transform="translate(332,481)"/>
<path d="M0 0 C0.66 0 1.32 0 2 0 C1.67 4.29 1.34 8.58 1 13 C0.34 12.67 -0.32 12.34 -1 12 C-2.174 8.479 -2.201 5.694 -2 2 C-1.34 1.34 -0.68 0.68 0 0 Z " fill="#EBCEA8" transform="translate(688,410)"/>
<path d="M0 0 C0.99 0.33 1.98 0.66 3 1 C1.509 4.795 -0.757 6.61 -4 9 C-4.33 7.02 -4.66 5.04 -5 3 C-2.688 1.438 -2.688 1.438 0 0 Z " fill="#00DCED" transform="translate(393,635)"/>
<path d="M0 0 C-1.914 0.984 -3.831 1.962 -5.75 2.938 C-7.351 3.755 -7.351 3.755 -8.984 4.59 C-13.571 6.735 -16.066 7.233 -21 6 C-17.748 3.832 -15.814 3.534 -12 3 C-10.332 2.674 -8.665 2.343 -7 2 C-7 1.34 -7 0.68 -7 0 C-2.25 -1.125 -2.25 -1.125 0 0 Z " fill="#F18116" transform="translate(588,597)"/>
<path d="M0 0 C0.33 0 0.66 0 1 0 C1.286 8.571 1.286 8.571 -1 12 C-1.99 12 -2.98 12 -4 12 C-4.495 9.525 -4.495 9.525 -5 7 C-4.01 6.67 -3.02 6.34 -2 6 C-1.856 5.196 -1.711 4.391 -1.562 3.562 C-1 1 -1 1 0 0 Z " fill="#FAE1B9" transform="translate(683,486)"/>
<path d="M0 0 C0.99 0.33 1.98 0.66 3 1 C3.33 1.99 3.66 2.98 4 4 C5.294 5.372 6.623 6.712 8 8 C7.67 8.99 7.34 9.98 7 11 C4.459 9.535 2.111 8.048 0 6 C-0.438 2.688 -0.438 2.688 0 0 Z " fill="#F8D7AE" transform="translate(607,288)"/>
<path d="M0 0 C-0.639 0.289 -1.279 0.577 -1.938 0.875 C-4.152 1.828 -4.152 1.828 -5 4 C-7.64 4 -10.28 4 -13 4 C-13.33 3.01 -13.66 2.02 -14 1 C-10.715 -2.285 -4.076 -0.895 0 0 Z " fill="#F2D3A9" transform="translate(557,265)"/>
<path d="M0 0 C1.32 0 2.64 0 4 0 C4 0.99 4 1.98 4 3 C3.34 3 2.68 3 2 3 C1.753 3.577 1.505 4.155 1.25 4.75 C-0.167 7.3 -1.876 9.018 -4 11 C-4.75 9.312 -4.75 9.312 -5 7 C-3.125 4.375 -3.125 4.375 -1 2 C-0.67 1.34 -0.34 0.68 0 0 Z " fill="#D9C39B" transform="translate(654,542)"/>
<path d="M0 0 C-0.438 4.557 -0.85 7.577 -4 11 C-4.99 10.01 -5.98 9.02 -7 8 C-5.843 5.301 -3.386 0 0 0 Z " fill="#ECD2AA" transform="translate(679,503)"/>
<path d="M0 0 C0.897 0.309 0.897 0.309 1.812 0.625 C-0.062 4.5 -0.062 4.5 -1.188 5.625 C-3.187 5.666 -5.188 5.668 -7.188 5.625 C-5.69 2.17 -4.279 -0.734 0 0 Z " fill="#00F3FD" transform="translate(686.1875,335.375)"/>
<path d="M0 0 C0.375 2.25 0.375 2.25 0 5 C-2.875 7.125 -2.875 7.125 -6 9 C-6.99 10.485 -6.99 10.485 -8 12 C-8.66 11.67 -9.32 11.34 -10 11 C-8.597 7.813 -6.922 5.678 -4.438 3.25 C-3.817 2.636 -3.197 2.023 -2.559 1.391 C-1 0 -1 0 0 0 Z " fill="#031829" transform="translate(716,691)"/>
<path d="M0 0 C0.866 0.309 1.733 0.619 2.625 0.938 C-0.259 4.346 -1.746 5.803 -6.188 6.75 C-7.765 6.843 -7.765 6.843 -9.375 6.938 C-4.438 -0.082 -4.438 -0.082 0 0 Z " fill="#00DAEB" transform="translate(496.375,686.0625)"/>
<path d="M0 0 C1.937 -0.027 3.875 -0.046 5.812 -0.062 C6.891 -0.074 7.97 -0.086 9.082 -0.098 C12 0 12 0 15 1 C17.226 1.225 19.456 1.408 21.688 1.562 C22.867 1.646 24.046 1.73 25.262 1.816 C26.617 1.907 26.617 1.907 28 2 C28 2.33 28 2.66 28 3 C18.443 3.202 9.361 3.264 0 1 C0 0.67 0 0.34 0 0 Z " fill="#060814" transform="translate(492,619)"/>
<path d="M0 0 C2.164 0.023 2.164 0.023 4.625 0.375 C5.851 0.541 5.851 0.541 7.102 0.711 C7.728 0.806 8.355 0.902 9 1 C9 1.66 9 2.32 9 3 C9.66 3.33 10.32 3.66 11 4 C11 4.66 11 5.32 11 6 C6.153 5.409 2.393 4.021 -2 2 C-1.34 1.34 -0.68 0.68 0 0 Z " fill="#0B2E40" transform="translate(442,607)"/>
<path d="M0 0 C5.285 0.617 5.285 0.617 8 2 C9.883 4.829 10.989 7.767 12 11 C11.34 11 10.68 11 10 11 C8.772 9.573 7.55 8.14 6.375 6.668 C4.403 4.276 2.223 2.159 0 0 Z " fill="#0D1723" transform="translate(627,302)"/>
<path d="M0 0 C0.99 0 1.98 0 3 0 C3.33 2.64 3.66 5.28 4 8 C3.67 8 3.34 8 3 8 C2.67 9.65 2.34 11.3 2 13 C1.01 12.34 0.02 11.68 -1 11 C-1.285 7.149 -1.181 3.69 0 0 Z " fill="#FBD4AA" transform="translate(332,409)"/>
<path d="M0 0 C0 3.462 -0.352 3.784 -2.688 6.125 C-5.324 8.655 -7.254 9.78 -11 10 C-11 7 -11 7 -9 5 C-8.67 4.34 -8.34 3.68 -8 3 C-7.34 3 -6.68 3 -6 3 C-6 3.99 -6 4.98 -6 6 C-4.02 4.02 -2.04 2.04 0 0 Z " fill="#00F5FD" transform="translate(719,302)"/>
<path d="M0 0 C1.32 0 2.64 0 4 0 C2.966 3.103 1.975 5.39 0 8 C-2.688 8.312 -2.688 8.312 -5 8 C-5 7.01 -5 6.02 -5 5 C-3.35 4.34 -1.7 3.68 0 3 C0 2.01 0 1.02 0 0 Z " fill="#FADAAE" transform="translate(411,287)"/>
<path d="M0 0 C4.75 0.75 4.75 0.75 7 3 C6.01 3 5.02 3 4 3 C4 3.99 4 4.98 4 6 C1 7 1 7 -2 6 C-1.34 4.02 -0.68 2.04 0 0 Z " fill="#F5D9AD" transform="translate(584,276)"/>
<path d="M0 0 C0 1.32 0 2.64 0 4 C-2.64 4.66 -5.28 5.32 -8 6 C-8.495 3.525 -8.495 3.525 -9 1 C-2.25 -1.125 -2.25 -1.125 0 0 Z " fill="#F7D8AE" transform="translate(426,282)"/>
<path d="M0 0 C0.763 0.309 1.526 0.619 2.312 0.938 C4.188 1.679 6.087 2.362 8 3 C7.67 3.33 7.34 3.66 7 4 C7.99 4.66 8.98 5.32 10 6 C10 6.66 10 7.32 10 8 C5.602 7.493 3.131 4.917 0 2 C0 1.34 0 0.68 0 0 Z " fill="#0B2B3C" transform="translate(387,576)"/>
<path d="M0 0 C0.66 0.33 1.32 0.66 2 1 C-0.101 4.982 -2.369 7.35 -6 10 C-6.33 9.01 -6.66 8.02 -7 7 C-5.625 5.5 -5.625 5.5 -4 4 C-3.34 4 -2.68 4 -2 4 C-2 3.01 -2 2.02 -2 1 C-1.34 0.67 -0.68 0.34 0 0 Z " fill="#16212C" transform="translate(381,307)"/>
<path d="M0 0 C5.654 -0.346 9.03 0.566 14 3 C13.01 4.485 13.01 4.485 12 6 C8.375 6.188 8.375 6.188 5 6 C5.99 4.68 6.98 3.36 8 2 C5.36 1.67 2.72 1.34 0 1 C0 0.67 0 0.34 0 0 Z " fill="#FDECC5" transform="translate(557,267)"/>
<path d="M0 0 C2.875 0.312 2.875 0.312 6 1 C6.66 1.99 7.32 2.98 8 4 C4.37 4.33 0.74 4.66 -3 5 C-3 4.01 -3 3.02 -3 2 C-2.01 2 -1.02 2 0 2 C0 1.34 0 0.68 0 0 Z " fill="#FAD8AC" transform="translate(474,262)"/>
<path d="M0 0 C0.99 1.485 0.99 1.485 2 3 C2.99 2.67 3.98 2.34 5 2 C4.794 2.577 4.588 3.155 4.375 3.75 C3.913 6.52 4.571 7.646 6 10 C3 10 3 10 1 9 C0.586 6.934 0.586 6.934 0.375 4.438 C0.3 3.611 0.225 2.785 0.148 1.934 C0.099 1.296 0.05 0.657 0 0 Z " fill="#01DFEC" transform="translate(237,646)"/>
<path d="M0 0 C3.63 0.66 7.26 1.32 11 2 C11 2.33 11 2.66 11 3 C4.098 3.839 -2.114 4.016 -9 3 C-9 2.67 -9 2.34 -9 2 C-6.03 2 -3.06 2 0 2 C0 1.34 0 0.68 0 0 Z " fill="#D2BC97" transform="translate(501,616)"/>
<path d="M0 0 C0.557 0.289 1.114 0.577 1.688 0.875 C4.085 2.041 6.516 3.034 9 4 C8.67 5.65 8.34 7.3 8 9 C7.34 9 6.68 9 6 9 C4.716 7.523 3.434 6.042 2.219 4.508 C0.932 2.862 0.932 2.862 -1 1 C-0.67 0.67 -0.34 0.34 0 0 Z " fill="#FCD7AB" transform="translate(383,565)"/>
<path d="M0 0 C0.66 0.33 1.32 0.66 2 1 C0.783 2.468 -0.449 3.924 -1.688 5.375 C-2.372 6.187 -3.056 6.999 -3.762 7.836 C-6.099 10.095 -7.93 11.022 -11 12 C-7.491 7.816 -3.919 3.804 0 0 Z " fill="#00DBE6" transform="translate(307,339)"/>
<path d="M0 0 C1.65 0.33 3.3 0.66 5 1 C3.557 4.366 1.667 6.51 -1 9 C-1 7.68 -1 6.36 -1 5 C-0.34 5 0.32 5 1 5 C1 4.34 1 3.68 1 3 C0.01 3.99 -0.98 4.98 -2 6 C-2.66 5.67 -3.32 5.34 -4 5 C-2.68 3.35 -1.36 1.7 0 0 Z " fill="#FAE7C5" transform="translate(363,332)"/>
<path d="M0 0 C0.33 0.99 0.66 1.98 1 3 C1.66 3.33 2.32 3.66 3 4 C1.812 5.5 1.812 5.5 0 7 C-2.688 7.188 -2.688 7.188 -5 7 C-3.707 4.116 -2.341 2.128 0 0 Z " fill="#00F1FC" transform="translate(499,680)"/>
<path d="M0 0 C1.263 0.018 2.527 0.036 3.828 0.055 C4.792 0.078 5.757 0.101 6.75 0.125 C6.42 0.785 6.09 1.445 5.75 2.125 C2.688 2.75 2.688 2.75 -0.25 3.125 C-0.25 2.465 -0.25 1.805 -0.25 1.125 C-3.88 1.455 -7.51 1.785 -11.25 2.125 C-6.911 -0.045 -4.766 -0.088 0 0 Z " fill="#262C31" transform="translate(539.25,616.875)"/>
<path d="M0 0 C1.052 0.588 1.052 0.588 2.125 1.188 C-0.865 2.849 -3.508 3.626 -6.875 4.188 C-7.968 4.373 -9.061 4.559 -10.188 4.75 C-11.074 4.894 -11.961 5.039 -12.875 5.188 C-4.78 -1.351 -4.78 -1.351 0 0 Z " fill="#F4E4C2" transform="translate(595.875,594.8125)"/>
<path d="M0 0 C1.32 0 2.64 0 4 0 C4.66 1.98 5.32 3.96 6 6 C3 7 3 7 0 6 C0 4.02 0 2.04 0 0 Z " fill="#F7D6AC" transform="translate(346,514)"/>
<path d="M0 0 C1.262 2.525 1.099 4.312 1.062 7.125 C1.053 8.035 1.044 8.945 1.035 9.883 C1.024 10.581 1.012 11.28 1 12 C-2 10 -2 10 -2.562 7.438 C-2.707 6.633 -2.851 5.829 -3 5 C-3.66 4.67 -4.32 4.34 -5 4 C-4.01 4 -3.02 4 -2 4 C-2 3.01 -2 2.02 -2 1 C-1.34 0.67 -0.68 0.34 0 0 Z " fill="#F9D6AB" transform="translate(337,476)"/>
<path d="M0 0 C1.938 0.562 1.938 0.562 4 2 C4.75 5.625 4.75 5.625 5 9 C2.525 8.01 2.525 8.01 0 7 C0 5.68 0 4.36 0 3 C-0.99 2.67 -1.98 2.34 -3 2 C-2.01 2 -1.02 2 0 2 C0 1.34 0 0.68 0 0 Z " fill="#E9CFAA" transform="translate(679,380)"/>
<path d="M0 0 C2 1 2 1 2.688 2.812 C3.035 5.244 2.728 6.671 2 9 C1.814 9.743 1.629 10.485 1.438 11.25 C1.293 11.827 1.149 12.405 1 13 C0.34 13 -0.32 13 -1 13 C-1.027 11.208 -1.046 9.417 -1.062 7.625 C-1.074 6.627 -1.086 5.63 -1.098 4.602 C-1 2 -1 2 0 0 Z " fill="#F3D4AC" transform="translate(341,370)"/>
<path d="M0 0 C4.877 1.355 6.486 3.717 9 8 C4.663 8 3.056 5.92 0 3 C0 2.01 0 1.02 0 0 Z " fill="#1F2C37" transform="translate(619,294)"/>
<path d="M0 0 C0.66 0 1.32 0 2 0 C0.592 3.215 -1.103 5.322 -3.625 7.75 C-4.572 8.67 -4.572 8.67 -5.539 9.609 C-6.021 10.068 -6.503 10.527 -7 11 C-7.33 10.01 -7.66 9.02 -8 8 C-7.34 8 -6.68 8 -6 8 C-6 7.01 -6 6.02 -6 5 C-5.381 4.918 -4.762 4.835 -4.125 4.75 C-1.816 4.187 -1.816 4.187 -0.75 1.938 C-0.502 1.298 -0.255 0.659 0 0 Z " fill="#00D1DE" transform="translate(398,256)"/>
<path d="M0 0 C3.475 3.011 4.97 5.507 6 10 C5.543 12.188 5.543 12.188 5 14 C4.16 12.232 3.328 10.461 2.5 8.688 C2.036 7.701 1.572 6.715 1.094 5.699 C0 3 0 3 0 0 Z " fill="#0C2F43" transform="translate(677,364)"/>
<path d="M0 0 C3.081 2.773 4.688 5.063 6 9 C5.34 9 4.68 9 4 9 C4 9.66 4 10.32 4 11 C2.68 11 1.36 11 0 11 C-0.33 10.01 -0.66 9.02 -1 8 C0.32 8 1.64 8 3 8 C2.505 7.051 2.01 6.103 1.5 5.125 C0 2 0 2 0 0 Z " fill="#F5DEB8" transform="translate(667,351)"/>
<path d="M0 0 C1.32 1.65 2.64 3.3 4 5 C3.01 6.32 2.02 7.64 1 9 C-2 5.375 -2 5.375 -2 2 C-1.34 2 -0.68 2 0 2 C0 1.34 0 0.68 0 0 Z " fill="#F4D9B0" transform="translate(652,328)"/>
<path d="M0 0 C2.475 0.99 2.475 0.99 5 2 C3.25 5.875 3.25 5.875 1 7 C0.34 6.67 -0.32 6.34 -1 6 C-1.043 4.334 -1.041 2.666 -1 1 C-0.67 0.67 -0.34 0.34 0 0 Z " fill="#00F3FC" transform="translate(729,286)"/>
<path d="M0 0 C0.866 0.557 0.866 0.557 1.75 1.125 C1.75 1.785 1.75 2.445 1.75 3.125 C3.71 4.762 3.71 4.762 5.75 6.125 C0.995 5.549 -2.22 3.574 -6.25 1.125 C-2.804 -1.09 -2.804 -1.09 0 0 Z " fill="#0C1725" transform="translate(595.25,276.875)"/>
<path d="M0 0 C0.99 0.33 1.98 0.66 3 1 C2.67 2.98 2.34 4.96 2 7 C1.01 7 0.02 7 -1 7 C-1.66 5.68 -2.32 4.36 -3 3 C-2.01 2.01 -1.02 1.02 0 0 Z " fill="#00E0EC" transform="translate(743,271)"/>
<path d="M0 0 C0.99 0.66 1.98 1.32 3 2 C3 2.66 3 3.32 3 4 C-0.63 3.34 -4.26 2.68 -8 2 C-8 1.34 -8 0.68 -8 0 C-4.656 -1.115 -3.333 -0.917 0 0 Z " fill="#EDDBB7" transform="translate(472,612)"/>
<path d="M0 0 C0.99 0 1.98 0 3 0 C2.387 2.962 1.746 4.381 0 7 C-1.32 6.67 -2.64 6.34 -4 6 C-2.188 3 -2.188 3 0 0 Z " fill="#F1DAB4" transform="translate(641,558)"/>
<path d="M0 0 C1.65 1.65 3.3 3.3 5 5 C4.67 5.99 4.34 6.98 4 8 C3.67 7.34 3.34 6.68 3 6 C2.01 6.99 1.02 7.98 0 9 C-0.66 7.35 -1.32 5.7 -2 4 C-1.34 3.34 -0.68 2.68 0 2 C0 1.34 0 0.68 0 0 Z " fill="#F7E8C3" transform="translate(660,340)"/>
<path d="M0 0 C-0.33 1.98 -0.66 3.96 -1 6 C-1.99 6.33 -2.98 6.66 -4 7 C-4.66 5.68 -5.32 4.36 -6 3 C-3.375 0 -3.375 0 0 0 Z " fill="#071F2D" transform="translate(721,305)"/>
<path d="M0 0 C-0.165 0.598 -0.33 1.196 -0.5 1.812 C-1.111 4.113 -1.111 4.113 -1 7 C-1.99 7 -2.98 7 -4 7 C-4.33 6.01 -4.66 5.02 -5 4 C-5.99 4 -6.98 4 -8 4 C-2.25 0 -2.25 0 0 0 Z " fill="#FCE7BF" transform="translate(429,278)"/>
<path d="M0 0 C1.316 0.255 2.628 0.529 3.938 0.812 C4.668 0.963 5.399 1.114 6.152 1.27 C6.762 1.511 7.372 1.752 8 2 C8.33 2.99 8.66 3.98 9 5 C9.66 5 10.32 5 11 5 C11 5.66 11 6.32 11 7 C8.648 6.401 6.314 5.731 4 5 C3.67 4.34 3.34 3.68 3 3 C2.01 2.67 1.02 2.34 0 2 C0 1.34 0 0.68 0 0 Z " fill="#1A2935" transform="translate(562,264)"/>
<path d="M0 0 C0.33 0.99 0.66 1.98 1 3 C-1.354 4.429 -2.48 5.087 -5.25 4.625 C-5.827 4.419 -6.405 4.212 -7 4 C-7 3.01 -7 2.02 -7 1 C-4.537 -0.231 -2.72 -0.072 0 0 Z " fill="#0D2535" transform="translate(601,597)"/>
<path d="M0 0 C2.812 -0.312 2.812 -0.312 6 0 C7.875 2.5 7.875 2.5 9 5 C8.01 6.485 8.01 6.485 7 8 C4.352 5.422 2.056 3.084 0 0 Z " fill="#F5D8AE" transform="translate(357,537)"/>
<path d="M0 0 C1.858 3.135 2.201 5.375 2 9 C1.34 8.01 0.68 7.02 0 6 C-0.33 6.99 -0.66 7.98 -1 9 C-1.99 8.67 -2.98 8.34 -4 8 C-3.67 6.02 -3.34 4.04 -3 2 C-2.67 2.66 -2.34 3.32 -2 4 C-1.34 4 -0.68 4 0 4 C0 2.68 0 1.36 0 0 Z " fill="#E3C69E" transform="translate(687,400)"/>
<path d="M0 0 C0 0.66 0 1.32 0 2 C0.66 2.66 1.32 3.32 2 4 C-3.415 5.231 -3.415 5.231 -6.375 4.062 C-6.911 3.712 -7.447 3.361 -8 3 C-7.34 3 -6.68 3 -6 3 C-6 2.34 -6 1.68 -6 1 C-3 0 -3 0 0 0 Z " fill="#FCD8A9" transform="translate(464,267)"/>
<path d="M0 0 C0.33 0.99 0.66 1.98 1 3 C-0.688 4.562 -0.688 4.562 -3 6 C-5.75 5.688 -5.75 5.688 -8 5 C-6.75 3 -6.75 3 -5 1 C-3.68 1 -2.36 1 -1 1 C-0.67 0.67 -0.34 0.34 0 0 Z " fill="#00DBE3" transform="translate(517,664)"/>
<path d="M0 0 C4.128 0.607 7.332 2.038 11 4 C10.67 4.66 10.34 5.32 10 6 C7.69 5.67 5.38 5.34 3 5 C3 4.01 3 3.02 3 2 C2.01 1.67 1.02 1.34 0 1 C0 0.67 0 0.34 0 0 Z " fill="#08111E" transform="translate(436,603)"/>
<path d="M0 0 C0.99 0.33 1.98 0.66 3 1 C3.99 1 4.98 1 6 1 C6.66 1.66 7.32 2.32 8 3 C6.68 4.32 5.36 5.64 4 7 C4 6.01 4 5.02 4 4 C2.68 3.67 1.36 3.34 0 3 C0 2.01 0 1.02 0 0 Z " fill="#0E1F2A" transform="translate(689,471)"/>
<path d="M0 0 C0 3 0 3 -1.531 4.824 C-2.181 5.439 -2.831 6.054 -3.5 6.688 C-4.15 7.31 -4.799 7.933 -5.469 8.574 C-5.974 9.045 -6.479 9.515 -7 10 C-7.66 9.67 -8.32 9.34 -9 9 C-8.505 8.381 -8.01 7.762 -7.5 7.125 C-5.808 5.161 -5.808 5.161 -6 3 C-5.196 2.691 -4.391 2.381 -3.562 2.062 C-1.109 1.237 -1.109 1.237 0 0 Z " fill="#090A10" transform="translate(782,388)"/>
<path d="M0 0 C0.33 0.66 0.66 1.32 1 2 C1.99 1.67 2.98 1.34 4 1 C4.33 3.31 4.66 5.62 5 8 C3.68 7.67 2.36 7.34 1 7 C0.67 4.69 0.34 2.38 0 0 Z " fill="#FAD9AE" transform="translate(335,387)"/>
<path d="M0 0 C0.66 0 1.32 0 2 0 C1.625 2.438 1.625 2.438 1 5 C0.01 5.495 0.01 5.495 -1 6 C-2.945 5.223 -2.945 5.223 -5.125 4.062 C-5.849 3.682 -6.574 3.302 -7.32 2.91 C-7.875 2.61 -8.429 2.309 -9 2 C-5.71 0.903 -4.287 1.2 -1 2 C-0.67 1.34 -0.34 0.68 0 0 Z " fill="#FDE6C3" transform="translate(582,275)"/>
<path d="M0 0 C2.64 0.33 5.28 0.66 8 1 C8 1.66 8 2.32 8 3 C8.804 3.124 9.609 3.248 10.438 3.375 C11.706 3.684 11.706 3.684 13 4 C13.33 4.66 13.66 5.32 14 6 C8.93 5.346 4.58 3.145 0 1 C0 0.67 0 0.34 0 0 Z " fill="#0D2839" transform="translate(579,271)"/>
<path d="M0 0 C0.99 0.66 1.98 1.32 3 2 C0.36 4.97 -2.28 7.94 -5 11 C-5.66 10.67 -6.32 10.34 -7 10 C-6.196 9.257 -5.391 8.515 -4.562 7.75 C-2.176 5.189 -1.472 4.302 -1 1 C-0.67 0.67 -0.34 0.34 0 0 Z " fill="#051E2B" transform="translate(755,265)"/>
<path d="M0 0 C0 0.99 0 1.98 0 3 C-2.935 5.822 -6.144 6.861 -10 8 C-5.559 2.202 -5.559 2.202 -2.75 1.188 C-1.884 1.095 -1.884 1.095 -1 1 C-0.67 0.67 -0.34 0.34 0 0 Z " fill="#00F8FD" transform="translate(535,644)"/>
<path d="M0 0 C0 3.589 -0.664 4.109 -3 6.688 C-3.557 7.31 -4.114 7.933 -4.688 8.574 C-5.121 9.045 -5.554 9.515 -6 10 C-6.99 9.67 -7.98 9.34 -9 9 C-6.03 6.03 -3.06 3.06 0 0 Z " fill="#01D6E2" transform="translate(774,622)"/>
<path d="M0 0 C2.97 0.33 5.94 0.66 9 1 C6.196 3.804 3.884 3.665 0 4 C-2.438 3.562 -2.438 3.562 -4 3 C-2.68 2.34 -1.36 1.68 0 1 C0 0.67 0 0.34 0 0 Z " fill="#E4CCA6" transform="translate(573,603)"/>
<path d="M0 0 C3.438 0.812 3.438 0.812 7 2 C7.33 2.99 7.66 3.98 8 5 C7.01 6.485 7.01 6.485 6 8 C3.667 5.667 1.333 3.333 -1 1 C-0.67 0.67 -0.34 0.34 0 0 Z " fill="#F6D7AA" transform="translate(406,583)"/>
<path d="M0 0 C0.99 0 1.98 0 3 0 C3.33 2.97 3.66 5.94 4 9 C0.062 5.677 0.062 5.677 -0.25 2.25 C-0.168 1.507 -0.085 0.765 0 0 Z " fill="#15202B" transform="translate(336,500)"/>
<path d="M0 0 C0.66 0 1.32 0 2 0 C2.188 2.875 2.188 2.875 2 6 C1.01 6.66 0.02 7.32 -1 8 C-1.66 8.99 -2.32 9.98 -3 11 C-2.67 8.69 -2.34 6.38 -2 4 C-1.34 4 -0.68 4 0 4 C0 2.68 0 1.36 0 0 Z " fill="#131F2D" transform="translate(344,356)"/>
<path d="M0 0 C0.66 0.66 1.32 1.32 2 2 C1.67 2.99 1.34 3.98 1 5 C0.34 5 -0.32 5 -1 5 C-1.268 5.619 -1.536 6.238 -1.812 6.875 C-3 9 -3 9 -6 11 C-5.333 9.667 -4.667 8.333 -4 7 C-3.227 5.422 -3.227 5.422 -2.438 3.812 C-1 1 -1 1 0 0 Z " fill="#061F2C" transform="translate(686,339)"/>
<path d="M0 0 C0.66 0 1.32 0 2 0 C2.25 2.812 2.25 2.812 2 6 C0 7.875 0 7.875 -2 9 C-2.25 3.375 -2.25 3.375 0 0 Z " fill="#FDDDB4" transform="translate(375,318)"/>
<path d="M0 0 C0 3 0 3 -2.25 5.562 C-4.559 7.609 -6.266 8.732 -9 10 C-8.064 8.894 -7.126 7.791 -6.188 6.688 C-5.665 6.073 -5.143 5.458 -4.605 4.824 C-3.128 3.146 -1.6 1.561 0 0 Z " fill="#080D18" transform="translate(286,613)"/>
<path d="M0 0 C1.32 0.33 2.64 0.66 4 1 C2.35 2.65 0.7 4.3 -1 6 C-1.66 5.34 -2.32 4.68 -3 4 C-2.01 2.68 -1.02 1.36 0 0 Z " fill="#E7D2AB" transform="translate(666,524)"/>
<path d="M0 0 C1.5 1.312 1.5 1.312 3 3 C3 3.99 3 4.98 3 6 C3.66 6 4.32 6 5 6 C5.33 5.34 5.66 4.68 6 4 C6.33 4.99 6.66 5.98 7 7 C6.01 7 5.02 7 4 7 C3.67 7.99 3.34 8.98 3 10 C0.966 6.27 0 4.331 0 0 Z " fill="#F9ECC8" transform="translate(342,507)"/>
<path d="M0 0 C1.32 0 2.64 0 4 0 C3.34 1.98 2.68 3.96 2 6 C1.01 6 0.02 6 -1 6 C-1 5.01 -1 4.02 -1 3 C-1.99 2.67 -2.98 2.34 -4 2 C-2.68 2 -1.36 2 0 2 C0 1.34 0 0.68 0 0 Z " fill="#00D7E3" transform="translate(284,368)"/>
<path d="M0 0 C0.66 0.99 1.32 1.98 2 3 C0.02 5.97 0.02 5.97 -2 9 C-3.062 7.125 -3.062 7.125 -4 5 C-3.67 4.34 -3.34 3.68 -3 3 C-2.34 3.33 -1.68 3.66 -1 4 C-0.67 2.68 -0.34 1.36 0 0 Z " fill="#F9D8AC" transform="translate(358,341)"/>
<path d="M0 0 C0.66 0.99 1.32 1.98 2 3 C0.188 5 0.188 5 -2 7 C-2.99 7 -3.98 7 -5 7 C-4.67 6.01 -4.34 5.02 -4 4 C-3.34 4 -2.68 4 -2 4 C-1.34 2.68 -0.68 1.36 0 0 Z " fill="#052330" transform="translate(714,309)"/>
<path d="M0 0 C2.762 2.762 2.579 5.207 3 9 C2.01 9 1.02 9 0 9 C-1.125 2.25 -1.125 2.25 0 0 Z " fill="#0D1A2B" transform="translate(344,515)"/>
<path d="M0 0 C1.619 2.572 2.044 3.677 1.625 6.75 C1.419 7.493 1.212 8.235 1 9 C0.34 9 -0.32 9 -1 9 C-2.033 6.212 -2.045 5.132 -1.062 2.25 C-0.712 1.507 -0.361 0.765 0 0 Z " fill="#072335" transform="translate(689,389)"/>
<path d="M0 0 C4.705 2.41 4.705 2.41 6 5 C5.01 5.33 4.02 5.66 3 6 C1.35 4.35 -0.3 2.7 -2 1 C-1.34 0.67 -0.68 0.34 0 0 Z " fill="#FCDBB0" transform="translate(618,298)"/>
<path d="M0 0 C0.66 1.32 1.32 2.64 2 4 C2.66 4 3.32 4 4 4 C3.67 4.99 3.34 5.98 3 7 C1.35 6.67 -0.3 6.34 -2 6 C-1.125 1.125 -1.125 1.125 0 0 Z " fill="#00DEEF" transform="translate(732,282)"/>
<path d="M0 0 C-1.616 2.041 -3.286 4.041 -5 6 C-5.66 6 -6.32 6 -7 6 C-6.75 3.625 -6.75 3.625 -6 1 C-2.693 -1.347 -2.693 -1.347 0 0 Z " fill="#041C2C" transform="translate(704,707)"/>
<path d="M0 0 C0.66 0.33 1.32 0.66 2 1 C2 1.99 2 2.98 2 4 C-1 6 -1 6 -4 6 C-2.848 3.532 -1.952 1.952 0 0 Z " fill="#071322" transform="translate(261,637)"/>
<path d="M0 0 C0 3.589 -0.664 4.109 -3 6.688 C-3.557 7.31 -4.114 7.933 -4.688 8.574 C-5.121 9.045 -5.554 9.515 -6 10 C-6.33 9.01 -6.66 8.02 -7 7 C-4.69 4.69 -2.38 2.38 0 0 Z " fill="#00D7E3" transform="translate(266,623)"/>
<path d="M0 0 C4.318 0.508 8.033 1.197 12 3 C9.108 3.826 7.113 4 4 4 C4 3.34 4 2.68 4 2 C2.68 1.34 1.36 0.68 0 0 Z " fill="#090D19" transform="translate(449,609)"/>
<path d="M0 0 C1.65 0 3.3 0 5 0 C5 0.66 5 1.32 5 2 C5.66 2.33 6.32 2.66 7 3 C6.67 3.99 6.34 4.98 6 6 C3.562 5.25 3.562 5.25 1 4 C0.188 1.875 0.188 1.875 0 0 Z " fill="#0F2B3A" transform="translate(432,602)"/>
<path d="M0 0 C1.32 1.32 2.64 2.64 4 4 C2.02 4.99 2.02 4.99 0 6 C0 5.34 0 4.68 0 4 C-1.32 3.67 -2.64 3.34 -4 3 C-2.68 2.01 -1.36 1.02 0 0 Z " fill="#F9E4BF" transform="translate(612,582)"/>
<path d="M0 0 C2.062 2.188 2.062 2.188 4 5 C3.75 7.812 3.75 7.812 3 10 C2.01 10 1.02 10 0 10 C0 6.7 0 3.4 0 0 Z " fill="#2B353B" transform="translate(690,461)"/>
<path d="M0 0 C1.32 0.66 2.64 1.32 4 2 C3.67 3.65 3.34 5.3 3 7 C2.67 6.01 2.34 5.02 2 4 C0.68 4.99 -0.64 5.98 -2 7 C-1.125 1.125 -1.125 1.125 0 0 Z " fill="#FBEDCC" transform="translate(344,364)"/>
<path d="M0 0 C0 4.316 -2.133 5.928 -5 9 C-5.66 9 -6.32 9 -7 9 C-5.445 5.183 -2.964 2.808 0 0 Z " fill="#00DFE9" transform="translate(706,689)"/>
<path d="M0 0 C0 0.99 0 1.98 0 3 C-0.66 3 -1.32 3 -2 3 C-2.33 3.99 -2.66 4.98 -3 6 C-3.99 5.67 -4.98 5.34 -6 5 C-2.25 1.125 -2.25 1.125 0 0 Z " fill="#042438" transform="translate(505,682)"/>
<path d="M0 0 C-0.33 0.99 -0.66 1.98 -1 3 C-4.062 4.188 -4.062 4.188 -7 5 C-7 4.01 -7 3.02 -7 2 C-4.353 0.539 -3.106 0 0 0 Z " fill="#01E4F0" transform="translate(538,642)"/>
<path d="M0 0 C0.742 0.082 1.485 0.165 2.25 0.25 C2.25 1.24 2.25 2.23 2.25 3.25 C-2.205 3.745 -2.205 3.745 -6.75 4.25 C-3.427 0.312 -3.427 0.312 0 0 Z " fill="#DCC5A0" transform="translate(557.75,609.75)"/>
<path d="M0 0 C0.99 0 1.98 0 3 0 C2.67 1.32 2.34 2.64 2 4 C2.66 4 3.32 4 4 4 C4 4.66 4 5.32 4 6 C1.525 5.01 1.525 5.01 -1 4 C-0.67 2.68 -0.34 1.36 0 0 Z " fill="#ECD9B6" transform="translate(445,602)"/>
<path d="M0 0 C1.801 2.702 3.002 4.931 4 8 C3.67 8.99 3.34 9.98 3 11 C0.397 8.288 0.005 7.109 -0.188 3.25 C-0.126 2.178 -0.064 1.105 0 0 Z " fill="#FCE9CE" transform="translate(340,492)"/>
<path d="M0 0 C0 3 0 3 -1.312 4.688 C-3 6 -3 6 -6 6 C-6.33 4.68 -6.66 3.36 -7 2 C-6.402 2.227 -5.804 2.454 -5.188 2.688 C-4.466 2.791 -3.744 2.894 -3 3 C-1.228 1.646 -1.228 1.646 0 0 Z " fill="#00F6FD" transform="translate(740,280)"/>
<path d="M0 0 C0.66 0 1.32 0 2 0 C1.441 3.243 0.587 4.931 -2 7 C-2.66 7 -3.32 7 -4 7 C-3.34 5.68 -2.68 4.36 -2 3 C-1.34 3 -0.68 3 0 3 C0 2.01 0 1.02 0 0 Z " fill="#283033" transform="translate(646,557)"/>
<path d="M0 0 C0.33 0.66 0.66 1.32 1 2 C1.66 2 2.32 2 3 2 C2.67 3.32 2.34 4.64 2 6 C1.34 5.67 0.68 5.34 0 5 C-0.66 5.66 -1.32 6.32 -2 7 C-1.125 1.125 -1.125 1.125 0 0 Z " fill="#F9E8C3" transform="translate(672,511)"/>
<path d="M0 0 C1.32 0.33 2.64 0.66 4 1 C4 1.99 4 2.98 4 4 C3.01 3.67 2.02 3.34 1 3 C0.67 3.99 0.34 4.98 0 6 C-0.66 6 -1.32 6 -2 6 C-1.34 4.02 -0.68 2.04 0 0 Z " fill="#F6E4C1" transform="translate(357,339)"/>
<path d="M0 0 C2.188 0.312 2.188 0.312 4 1 C3.67 2.32 3.34 3.64 3 5 C1.02 4.34 -0.96 3.68 -3 3 C-1.75 1.438 -1.75 1.438 0 0 Z " fill="#FDDAAF" transform="translate(568,271)"/>
<path d="M0 0 C0.99 0 1.98 0 3 0 C3.33 1.32 3.66 2.64 4 4 C2.68 4.33 1.36 4.66 0 5 C-0.562 3.062 -0.562 3.062 -1 1 C-0.67 0.67 -0.34 0.34 0 0 Z " fill="#FDD7AE" transform="translate(467,265)"/>
<path d="M0 0 C0.66 0 1.32 0 2 0 C2.33 0.99 2.66 1.98 3 3 C1.68 4.32 0.36 5.64 -1 7 C-1.66 6.67 -2.32 6.34 -3 6 C-2.34 5.01 -1.68 4.02 -1 3 C-0.67 2.01 -0.34 1.02 0 0 Z " fill="#081120" transform="translate(385,633)"/>
<path d="M0 0 C3.63 0.66 7.26 1.32 11 2 C9.02 2.99 9.02 2.99 7 4 C3.25 2.625 3.25 2.625 0 1 C0 0.67 0 0.34 0 0 Z " fill="#017DA4" transform="translate(453,614)"/>
<path d="M0 0 C2.31 0.66 4.62 1.32 7 2 C7 2.66 7 3.32 7 4 C6.01 4.33 5.02 4.66 4 5 C3.34 4.34 2.68 3.68 2 3 C1.34 3 0.68 3 0 3 C0 2.01 0 1.02 0 0 Z " fill="#EFD3AC" transform="translate(556,608)"/>
<path d="M0 0 C0.99 0.33 1.98 0.66 3 1 C2.67 1.99 2.34 2.98 2 4 C1.01 4.33 0.02 4.66 -1 5 C-1.66 5.66 -2.32 6.32 -3 7 C-2.25 2.25 -2.25 2.25 0 0 Z " fill="#F7E6C1" transform="translate(663,529)"/>
<path d="M0 0 C1.32 0 2.64 0 4 0 C4.33 1.65 4.66 3.3 5 5 C3.68 5 2.36 5 1 5 C0.505 2.525 0.505 2.525 0 0 Z " fill="#F6D4A7" transform="translate(678,493)"/>
<path d="M0 0 C0.66 0.66 1.32 1.32 2 2 C1.625 4.625 1.625 4.625 1 7 C-0.32 6.34 -1.64 5.68 -3 5 C-2.34 5 -1.68 5 -1 5 C-0.67 3.35 -0.34 1.7 0 0 Z " fill="#0C2130" transform="translate(689,480)"/>
<path d="M0 0 C0.66 0.66 1.32 1.32 2 2 C-0.97 4.475 -0.97 4.475 -4 7 C-4 4 -4 4 -2 1.812 C-1.34 1.214 -0.68 0.616 0 0 Z " fill="#032237" transform="translate(734,449)"/>
<path d="M0 0 C0.33 0.99 0.66 1.98 1 3 C3 4.209 3 4.209 5 5 C3.35 5.66 1.7 6.32 0 7 C-0.66 6.34 -1.32 5.68 -2 5 C-1.34 3.35 -0.68 1.7 0 0 Z " fill="#F9D6AA" transform="translate(429,277)"/>
<path d="M0 0 C-0.33 0.99 -0.66 1.98 -1 3 C-2.65 3.33 -4.3 3.66 -6 4 C-6 3.01 -6 2.02 -6 1 C-4 0 -4 0 0 0 Z " fill="#FDDBAD" transform="translate(441,275)"/>
<path d="M0 0 C0.99 0.66 1.98 1.32 3 2 C1.188 3.562 1.188 3.562 -1 5 C-1.99 4.67 -2.98 4.34 -4 4 C-2.68 2.68 -1.36 1.36 0 0 Z " fill="#051B26" transform="translate(789,233)"/>
</svg>
