<svg xmlns="http://www.w3.org/2000/svg" viewBox="0 0 1080 1080" width="1080" height="1080">
  <g id="background-layer">
    <image href="http://localhost:5000/static/images/sessions/bg_20250626_000847_b4427380/background_20250626_000847_7f59d6af.png" x="0" y="0" width="1080" height="1080"/>
  </g>
  <g id="elements-layer" transform="scale(1.0547) translate(0,0)">
    
    <path d="M0 0 C1.158 0.366 2.315 0.733 3.508 1.11 C17.906 5.685 32.161 10.378 45.797 16.946 C48.238 18.114 50.696 19.241 53.156 20.367 C68.937 27.648 83.715 36.094 98 46 C98.983 46.677 98.983 46.677 99.985 47.368 C108.967 53.568 117.677 59.926 126 67 C127 67.828 128.001 68.655 129.031 69.508 C146.953 84.374 163.628 100.642 178 119 C179.056 120.294 179.056 120.294 180.133 121.613 C205.873 153.854 224.833 190.407 239 229 C239.279 229.753 239.557 230.506 239.844 231.282 C243.557 241.422 245.988 251.821 248.372 262.334 C249.042 265.178 249.781 268.001 250.52 270.828 C252.118 277.189 253.14 283.574 254.062 290.062 C254.223 291.137 254.383 292.211 254.549 293.318 C255.066 296.875 255.542 300.435 256 304 C256.09 304.698 256.181 305.395 256.274 306.114 C257.914 319.071 258.363 331.885 258.312 344.938 C258.31 346.411 258.31 346.411 258.307 347.915 C258.257 364.128 257.436 379.949 255 396 C254.751 397.736 254.751 397.736 254.496 399.507 C251.782 418.104 247.434 436.02 242 454 C241.612 455.3 241.612 455.3 241.215 456.626 C237.669 468.343 232.972 479.545 228.172 490.797 C226.606 494.487 225.175 498.163 224 502 C223.34 502 222.68 502 222 502 C221.869 503.005 221.869 503.005 221.734 504.031 C220.793 507.835 219.097 511.075 217.25 514.5 C216.857 515.234 216.463 515.968 216.058 516.725 C205.445 536.219 193.153 554.893 179 572 C177.986 573.261 176.973 574.523 175.961 575.785 C165.275 589.038 154.05 602.019 141.113 613.141 C139.533 614.531 138.015 615.992 136.531 617.484 C134.176 619.825 131.771 621.917 129.188 624 C128.227 624.775 127.267 625.549 126.277 626.348 C125.754 626.769 125.23 627.191 124.691 627.625 C122.866 629.109 121.059 630.613 119.254 632.121 C111.074 638.919 102.737 645.137 93.772 650.859 C92.098 651.937 90.445 653.048 88.793 654.16 C78.567 660.974 67.752 666.677 56.909 672.44 C53.969 674.017 51.051 675.63 48.133 677.246 C44.509 679.226 40.957 680.978 37.062 682.375 C33.232 683.781 29.434 685.221 25.676 686.809 C11.764 692.649 -2.453 697.025 -17 701 C-17.93 701.254 -18.859 701.508 -19.817 701.77 C-34.657 705.743 -49.756 708.174 -65 710 C-65.74 710.089 -66.479 710.178 -67.241 710.27 C-80.727 711.845 -94.07 712.287 -107.64 712.206 C-110.827 712.187 -114.014 712.185 -117.201 712.186 C-128.506 712.166 -139.729 711.902 -151 711 C-151 711.66 -151 712.32 -151 713 C-159.571 714.429 -159.571 714.429 -163 712 C-163 711.01 -163 710.02 -163 709 C-164.189 708.79 -164.189 708.79 -165.401 708.576 C-190.238 704.133 -214.286 698.169 -237.984 689.35 C-238.867 689.027 -239.75 688.704 -240.66 688.371 C-241.43 688.082 -242.199 687.792 -242.992 687.494 C-245.185 686.765 -245.185 686.765 -248 688 C-248.33 687.01 -248.66 686.02 -249 685 C-250.992 683.766 -250.992 683.766 -253.504 682.758 C-254.938 682.129 -254.938 682.129 -256.402 681.487 C-257.445 681.037 -258.488 680.588 -259.562 680.125 C-278.328 671.767 -296.155 662.153 -313.004 650.386 C-314.988 649.009 -316.988 647.661 -318.996 646.32 C-320.206 645.506 -321.416 644.691 -322.625 643.875 C-323.669 643.171 -324.713 642.467 -325.789 641.742 C-326.519 641.167 -327.248 640.592 -328 640 C-328 639.34 -328 638.68 -328 638 C-328.566 637.742 -329.132 637.484 -329.715 637.219 C-337.372 633.135 -343.839 626.438 -350.164 620.59 C-352.353 618.591 -354.565 616.643 -356.809 614.707 C-361.187 610.886 -365.332 606.86 -369.438 602.75 C-370.185 602.002 -370.932 601.254 -371.702 600.483 C-376.403 595.73 -380.792 590.912 -384.914 585.645 C-386.834 583.211 -388.833 580.867 -390.869 578.531 C-416.359 549.13 -436.529 513.643 -449.938 477.188 C-450.365 476.028 -450.792 474.869 -451.233 473.675 C-455.373 462.266 -458.834 450.712 -462 439 C-462.203 438.263 -462.406 437.526 -462.616 436.766 C-463.866 432.204 -464.985 427.62 -466 423 C-466.249 421.879 -466.249 421.879 -466.503 420.736 C-485.165 334.392 -467.882 242.4 -417.452 153.689 C-407.091 137.876 -396.111 122.384 -383.266 108.477 C-381.411 106.449 -379.615 104.392 -377.824 102.309 C-373.608 97.478 -369.105 92.958 -364.562 88.438 C-363.755 87.626 -362.947 86.815 -362.115 85.979 C-357.24 81.111 -352.257 76.451 -347 72 C-346.406 71.494 -345.812 70.988 -345.199 70.466 C-288.813 22.846 -216.731 -8.162 -143 -14 C-141.831 -14.093 -140.662 -14.186 -139.458 -14.281 C-92.569 -17.609 -44.924 -14.481 0 0 Z " fill="#67D0CD" transform="translate(619,151)"/>
    <path d="M0 0 C7.713 4.808 12.869 10.303 16.582 18.609 C17.129 19.744 17.129 19.744 17.688 20.902 C20.492 29.388 19.313 40.134 15.836 48.215 C10.777 57.876 3.905 63.207 -6.293 66.984 C-16.537 70.091 -26.291 69.366 -35.797 64.355 C-45.298 58.455 -51.596 50.523 -54.418 39.609 C-55.867 29.203 -54.848 19.519 -48.43 10.957 C-44.047 5.803 -39.524 1.588 -33.418 -1.391 C-32.703 -1.753 -31.987 -2.115 -31.25 -2.488 C-21.57 -5.573 -8.981 -4.472 0 0 Z " fill="#85E9DF" transform="translate(116.41796875,893.390625)"/>
    <path d="M0 0 C0.99 0.495 0.99 0.495 2 1 C4.342 8.138 5.343 15.78 6.5 23.188 C6.688 24.385 6.688 24.385 6.879 25.608 C7.518 29.737 8.121 33.867 8.68 38.008 C8.911 39.609 9.143 41.211 9.375 42.812 C9.465 43.547 9.554 44.281 9.646 45.038 C10.252 49.092 11.205 52.733 14.063 55.782 C18.79 58.754 24.753 58.962 30.188 59.688 C31.542 59.887 32.895 60.089 34.249 60.294 C36.925 60.696 39.603 61.085 42.284 61.464 C47.162 62.168 52.018 62.979 56.875 63.812 C58.289 64.049 59.703 64.285 61.117 64.52 C62.544 64.757 62.544 64.757 64 65 C64 65.66 64 66.32 64 67 C59.907 67.8 55.813 68.597 51.719 69.392 C49.57 69.811 47.421 70.232 45.272 70.654 C33.275 72.997 33.275 72.997 27.332 73.891 C26.557 74.009 25.782 74.128 24.984 74.251 C23.031 74.539 21.074 74.804 19.117 75.066 C15.142 76.257 13.509 77.711 11 81 C9.956 84.116 9.956 84.116 9.562 87.75 C9.342 89.234 9.117 90.717 8.891 92.199 C8.696 93.511 8.696 93.511 8.498 94.849 C7.524 101.01 6.362 107.139 5.233 113.273 C4.553 116.974 3.881 120.677 3.207 124.379 C2.805 126.586 2.402 128.793 2 131 C1.34 130.67 0.68 130.34 0 130 C-0.575 128.04 -0.575 128.04 -1.037 125.436 C-1.214 124.465 -1.391 123.494 -1.573 122.493 C-1.848 120.907 -1.848 120.907 -2.129 119.289 C-2.323 118.21 -2.518 117.131 -2.718 116.019 C-3.341 112.556 -3.952 109.091 -4.562 105.625 C-5.178 102.167 -5.797 98.709 -6.417 95.252 C-6.803 93.097 -7.186 90.941 -7.566 88.785 C-7.826 87.319 -7.826 87.319 -8.092 85.823 C-8.244 84.962 -8.395 84.101 -8.552 83.214 C-8.986 80.841 -8.986 80.841 -10 78 C-13.66 76.093 -17.245 75.558 -21.312 75.07 C-23.16 74.84 -23.16 74.84 -25.044 74.604 C-26.35 74.446 -27.655 74.288 -29 74.125 C-41.438 72.565 -53.723 70.548 -66 68 C-66 67.34 -66 66.68 -66 66 C-64.714 65.798 -63.428 65.597 -62.104 65.389 C-57.301 64.635 -52.498 63.878 -47.696 63.119 C-45.623 62.792 -43.551 62.466 -41.478 62.142 C-38.486 61.673 -35.495 61.2 -32.504 60.727 C-31.588 60.584 -30.672 60.441 -29.728 60.294 C-27.148 59.884 -24.574 59.444 -22 59 C-21.17 58.876 -20.341 58.751 -19.486 58.623 C-15.809 57.98 -13.518 57.415 -10.569 55.053 C-8.266 50.573 -7.635 46.104 -6.895 41.152 C-6.725 40.103 -6.555 39.055 -6.381 37.974 C-5.843 34.631 -5.327 31.284 -4.812 27.938 C-4.282 24.588 -3.747 21.239 -3.212 17.89 C-2.881 15.809 -2.554 13.726 -2.23 11.643 C-2.083 10.699 -1.936 9.754 -1.784 8.781 C-1.657 7.952 -1.529 7.124 -1.397 6.27 C-1.026 4.146 -0.552 2.083 0 0 Z " fill="#5ABCB9" transform="translate(208,154)"/>
    <path d="M0 0 C0.66 0 1.32 0 2 0 C2.096 0.539 2.192 1.079 2.29 1.634 C3.296 7.297 4.302 12.959 5.308 18.622 C5.683 20.729 6.057 22.837 6.431 24.944 C6.972 27.99 7.513 31.036 8.055 34.082 C8.219 35.01 8.384 35.937 8.554 36.893 C8.873 38.689 9.194 40.485 9.518 42.28 C9.858 44.197 10.183 46.116 10.499 48.036 C10.748 49.514 10.748 49.514 11.003 51.022 C11.149 51.915 11.295 52.808 11.445 53.727 C11.894 56.204 11.894 56.204 13.902 58.562 C18.635 60.759 23.419 61.321 28.562 62 C30.803 62.325 33.042 62.653 35.281 62.984 C36.403 63.149 37.524 63.313 38.68 63.482 C43.671 64.26 48.615 65.234 53.562 66.25 C54.419 66.425 55.275 66.601 56.156 66.781 C58.105 67.183 60.053 67.591 62 68 C58.385 70.41 55.095 70.793 50.895 71.402 C49.255 71.656 47.615 71.909 45.975 72.162 C43.399 72.55 40.823 72.936 38.247 73.32 C35.753 73.695 33.261 74.079 30.77 74.465 C30.011 74.574 29.252 74.684 28.471 74.797 C22.203 75.77 15.251 76.904 11 82 C10.079 85.097 10.079 85.097 9.5 88.695 C9.379 89.356 9.258 90.017 9.133 90.698 C8.744 92.839 8.372 94.982 8 97.125 C7.738 98.585 7.475 100.046 7.21 101.506 C6.46 105.668 5.73 109.834 5 114 C4.649 115.966 4.298 117.932 3.945 119.898 C3.284 123.597 2.636 127.297 2 131 C-1.973 123.869 -2.688 115.028 -3.977 107.059 C-4.146 106.01 -4.316 104.961 -4.491 103.88 C-4.824 101.793 -5.149 99.705 -5.466 97.616 C-6.608 86.871 -6.608 86.871 -12.177 78.335 C-15.436 76.794 -18.284 76.223 -21.848 75.684 C-22.5 75.582 -23.153 75.48 -23.825 75.375 C-25.903 75.052 -27.982 74.744 -30.062 74.438 C-31.432 74.228 -32.801 74.018 -34.17 73.807 C-39.312 73.016 -44.454 72.226 -49.601 71.473 C-50.68 71.308 -51.759 71.143 -52.871 70.973 C-54.291 70.762 -54.291 70.762 -55.74 70.547 C-58 70 -58 70 -60 68 C-59.168 67.856 -59.168 67.856 -58.319 67.71 C-52.542 66.711 -46.768 65.704 -40.994 64.692 C-38.839 64.315 -36.683 63.941 -34.528 63.569 C-31.429 63.034 -28.332 62.49 -25.234 61.945 C-24.271 61.781 -23.307 61.616 -22.314 61.446 C-21.414 61.286 -20.513 61.126 -19.585 60.961 C-18.794 60.824 -18.004 60.686 -17.189 60.544 C-13.927 59.733 -11.688 59.059 -9.809 56.166 C-8.955 53.879 -8.457 51.751 -8.054 49.343 C-7.898 48.424 -7.741 47.506 -7.579 46.56 C-7.418 45.575 -7.256 44.59 -7.09 43.574 C-6.917 42.553 -6.745 41.532 -6.568 40.48 C-6.018 37.217 -5.478 33.952 -4.938 30.688 C-4.57 28.501 -4.202 26.314 -3.834 24.127 C-1.799 12.082 -1.799 12.082 0 0 Z " fill="#61D6CE" transform="translate(879,645)"/>
    <path d="M0 0 C2.411 0.005 4.821 -0 7.232 -0.006 C8.783 -0.006 10.335 -0.004 11.886 -0.002 C12.597 -0.004 13.309 -0.006 14.042 -0.009 C17.715 0.009 21.114 0.257 24.687 1.13 C21.694 2.852 19.575 3.374 16.134 3.342 C14.792 3.336 14.792 3.336 13.424 3.331 C12.467 3.318 11.509 3.304 10.523 3.291 C9.534 3.285 8.546 3.28 7.527 3.275 C4.372 3.257 1.217 3.226 -1.938 3.193 C-5.101 3.165 -8.263 3.141 -11.425 3.122 C-13.393 3.109 -15.361 3.092 -17.328 3.068 C-18.216 3.062 -19.104 3.055 -20.019 3.049 C-20.802 3.04 -21.585 3.032 -22.391 3.024 C-24.398 3.008 -24.398 3.008 -26.313 4.13 C-26.643 5.12 -26.973 6.11 -27.313 7.13 C-31.933 7.46 -36.553 7.79 -41.313 8.13 C-40.983 7.47 -40.653 6.81 -40.313 6.13 C-41.014 6.275 -41.716 6.419 -42.438 6.568 C-43.387 6.753 -44.336 6.939 -45.313 7.13 C-46.767 7.44 -46.767 7.44 -48.251 7.755 C-51.313 8.13 -51.313 8.13 -54.313 7.568 C-57.954 7.037 -59.863 7.913 -63.313 9.13 C-64.789 9.306 -66.269 9.45 -67.751 9.568 C-71.005 9.862 -72.779 10.335 -75.876 11.693 C-79.051 13.021 -80.348 13.287 -83.626 13.193 C-84.843 13.172 -86.059 13.152 -87.313 13.13 C-87.973 13.79 -88.633 14.45 -89.313 15.13 C-91.313 15.13 -93.313 15.13 -95.313 15.13 C-95.973 15.79 -96.633 16.45 -97.313 17.13 C-100 18.399 -102.305 19.129 -105.251 19.568 C-108.356 19.984 -108.356 19.984 -111.036 21.544 C-115.728 23.815 -120.601 24.783 -125.657 25.97 C-129.467 27.179 -132.044 28.874 -135.313 31.13 C-137.911 32.037 -137.911 32.037 -140.376 32.63 C-144.479 33.761 -147.245 35.062 -150.313 38.13 C-150.643 38.79 -150.973 39.45 -151.313 40.13 C-152.324 40.089 -153.334 40.048 -154.376 40.005 C-158.494 40.136 -161.432 40.863 -165.313 42.13 C-165.313 42.79 -165.313 43.45 -165.313 44.13 C-166.262 44.584 -167.211 45.038 -168.188 45.505 C-171.316 46.933 -171.316 46.933 -173.313 49.13 C-174.303 49.13 -175.293 49.13 -176.313 49.13 C-176.313 49.79 -176.313 50.45 -176.313 51.13 C-177.551 51.563 -178.788 51.997 -180.063 52.443 C-183.266 53.633 -185.621 55.015 -188.313 57.13 C-188.994 57.275 -189.674 57.419 -190.376 57.568 C-193.055 58.346 -193.683 59.913 -195.313 62.13 C-196.98 63.13 -198.647 64.13 -200.313 65.13 C-202.331 66.919 -204.302 68.744 -206.251 70.607 C-208.635 72.368 -210.433 72.594 -213.313 73.13 C-215.059 74.295 -215.059 74.295 -216.563 75.818 C-219.035 78.078 -221.437 79.859 -224.313 81.568 C-230.618 85.634 -235.576 91.237 -240.79 96.572 C-243.346 99.182 -245.951 101.654 -248.751 104.005 C-252.358 107.041 -255.348 110.491 -258.423 114.056 C-260.091 115.886 -261.749 117.413 -263.688 118.943 C-266.253 121.08 -266.949 122.221 -268.313 125.13 C-270.562 127.556 -272.734 129.721 -275.438 131.63 C-277.778 133.502 -278.831 135.536 -280.313 138.13 C-281.272 139.306 -281.272 139.306 -282.251 140.505 C-284.459 143.16 -284.459 143.16 -286.188 146.63 C-288.261 150.42 -290.877 152.553 -294.313 155.13 C-293.653 155.79 -292.993 156.45 -292.313 157.13 C-293.303 157.46 -294.293 157.79 -295.313 158.13 C-295.313 158.79 -295.313 159.45 -295.313 160.13 C-295.911 160.708 -296.509 161.285 -297.126 161.88 C-299.453 164.047 -299.453 164.047 -300.751 167.005 C-302.039 169.581 -303.084 171.152 -304.938 173.255 C-307.154 175.938 -307.65 176.923 -308.313 180.13 C-309.313 181.13 -310.313 182.13 -311.313 183.13 C-312.028 185.234 -312.028 185.234 -312.313 187.13 C-312.973 187.13 -313.633 187.13 -314.313 187.13 C-314.581 187.976 -314.849 188.822 -315.126 189.693 C-317.365 196.175 -319.948 201.333 -323.911 206.919 C-326.363 210.785 -327.544 214.643 -328.313 219.13 C-328.973 219.13 -329.633 219.13 -330.313 219.13 C-329.983 220.12 -329.653 221.11 -329.313 222.13 C-330.02 223.962 -330.02 223.962 -331.126 225.943 C-332.904 229.272 -334.167 232.526 -335.313 236.13 C-336.42 238.491 -337.651 240.766 -338.876 243.068 C-340.203 245.895 -340.793 248.083 -341.313 251.13 C-341.839 252.863 -341.839 252.863 -342.376 254.63 C-343.435 257.979 -343.435 257.979 -343.313 260.943 C-343.313 261.665 -343.313 262.387 -343.313 263.13 C-343.973 263.79 -344.633 264.45 -345.313 265.13 C-346.015 266.782 -346.683 268.45 -347.313 270.13 C-347.643 270.79 -347.973 271.45 -348.313 272.13 C-348.517 273.521 -348.678 274.919 -348.813 276.318 C-348.897 277.12 -348.981 277.921 -349.067 278.748 C-349.148 279.534 -349.23 280.32 -349.313 281.13 C-349.795 285.326 -350.338 288.427 -352.313 292.13 C-352.995 294.926 -353.313 297.244 -353.313 300.13 C-354.029 307.644 -354.029 307.644 -355.352 309.908 C-356.751 313.144 -356.446 316.302 -356.313 319.755 C-356.219 322.241 -356.22 324.638 -356.313 327.13 C-356.973 327.79 -357.633 328.45 -358.313 329.13 C-358.501 331.881 -358.569 334.529 -358.544 337.279 C-358.543 338.088 -358.543 338.897 -358.542 339.73 C-358.539 341.443 -358.531 343.156 -358.519 344.87 C-358.501 347.488 -358.499 350.106 -358.499 352.724 C-358.494 354.388 -358.488 356.052 -358.481 357.716 C-358.48 358.499 -358.479 359.281 -358.478 360.087 C-358.472 364.155 -358.472 364.155 -357.777 368.143 C-357.155 370.807 -357.661 373.171 -358.047 375.847 C-358.533 380.015 -358.457 384.19 -358.438 388.38 C-358.442 389.265 -358.446" fill="#61CFC7" />
  </g>
  <g id="text-layer">
    <style>
      .big-text { font-family: 'Arial', sans-serif; font-size: 100px; font-weight: bold; fill: white; }
      .small-text { font-family: 'Arial', sans-serif; font-size: 40px; fill: white; }
    </style>
    <circle cx="540" cy="540" r="350" fill="rgba(255, 255, 255, 0.2)"/>
    <text x="50%" y="45%" text-anchor="middle" class="big-text">COMING</text>
    <text x="50%" y="55%" text-anchor="middle" class="big-text">SOON</text>
    <text x="50%" y="65%" text-anchor="middle" class="small-text">aulom seu dramao digium</text>
    <text x="50%" y="75%" text-anchor="middle" class="small-text">abeusumpleam</text>
  </g>
</svg>