<svg width="1080" height="1080" viewBox="0 0 1080 1080" xmlns="http://www.w3.org/2000/svg" preserveAspectRatio="xMidYMid meet">
  <g id="background-layer">
    <image href="/static/images/sessions/parallel_20250625_154544_7033b4b1/background_20250625_154624_13f95410.png" x="0" y="0" width="1080" height="1080"/>
  </g>
  <g id="elements-layer" opacity="0.9">
    <path d="M0 0 C337.92 0 675.84 0 1024 0 C1024 337.92 1024 675.84 1024 1024 C686.08 1024 348.16 1024 0 1024 C0 686.08 0 348.16 0 0 Z " fill="#080A10" transform="translate(0,0)"/>
    <path d="M0 0 C50.16 0 100.32 0 152 0 C152 337.92 152 675.84 152 1024 C102.17 1024 52.34 1024 1 1024 C1.66 1023.67 2.32 1023.34 3 1023 C3 1022.34 3 1021.68 3 1021 C3.66 1021 4.32 1021 5 1021 C5.258 1020.456 5.516 1019.912 5.781 1019.352 C7.212 1016.59 8.831 1013.999 10.5 1011.375 C11.108 1010.413 11.717 1009.452 12.344 1008.461 C14 1006 14 1006 16 1004 C19.649 995.956 19.403 987.559 19.325 978.908 C19.322 977.392 19.321 975.875 19.321 974.359 C19.318 971.067 19.306 967.775 19.287 964.483 C19.254 959.024 19.245 953.564 19.238 948.104 C19.222 938.165 19.04 928.226 19.148 918.288 C19.081 901.221 19.04 884.153 19.008 867.086 C19.006 866.034 19.004 864.981 19.001 863.897 C18.909 817.063 19.144 770.232 19.39 723.399 C19.852 635.552 20.206 547.706 20.675 364.139 C20.691 357.063 20.707 349.986 20.722 342.91 C20.725 341.74 20.725 341.74 20.728 340.547 C20.785 314.77 20.857 288.994 20.937 263.217 C21.02 236.227 21.09 209.238 21.143 182.248 C21.151 178.452 21.159 174.656 21.166 170.86 C21.168 170.114 21.169 169.369 21.171 168.6 C21.195 156.701 21.233 144.802 21.276 132.903 C21.319 121.065 21.347 109.227 21.36 97.389 C21.367 91.005 21.381 84.62 21.413 78.235 C21.442 72.396 21.452 66.557 21.447 60.718 C21.449 58.612 21.457 56.507 21.473 54.401 C21.581 39.516 21.167 26.785 11 15 C9.787 13.421 8.578 11.837 7.375 10.25 C5.607 7.943 3.881 5.884 1.789 3.859 C0 2 0 2 0 0 Z " fill="#000C14" transform="translate(872,0)"/>
    <path d="M0 0 C51.48 0 102.96 0 156 0 C150 7 150 7 147.625 9.25 C145.223 11.766 143.11 14.3 141 17.062 C140.041 18.317 140.041 18.317 139.062 19.598 C132.717 30.065 131.272 39.369 131.361 51.4 C131.354 53.044 131.346 54.687 131.335 56.331 C131.313 60.839 131.321 65.346 131.335 69.854 C131.344 74.762 131.325 79.669 131.309 84.577 C131.285 93.175 131.279 101.773 131.286 110.371 C131.296 123.157 131.278 135.942 131.253 148.727 C131.211 171.561 131.197 194.394 131.194 217.227 C131.192 237.207 131.179 257.186 131.157 277.165 C131.155 278.503 131.154 279.841 131.152 281.18 C131.146 286.557 131.14 291.934 131.134 297.312 C131.117 312.343 131.101 327.375 131.087 342.406 C131.086 343.091 131.086 343.775 131.085 344.48 C131.064 366.288 131.051 388.095 131.043 409.903 C131.042 410.964 131.042 410.964 131.042 412.046 C131.038 423.531 131.034 435.016 131.03 446.501 C131.015 492.061 130.98 537.621 130.926 583.181 C130.925 584.622 130.923 586.062 130.921 587.502 C130.919 589.661 130.916 591.819 130.914 593.978 C130.904 601.863 130.895 609.748 130.886 617.633 C130.885 618.34 130.884 619.047 130.883 619.775 C130.839 657.941 130.808 696.106 130.783 734.271 C130.783 735.616 130.782 736.961 130.781 738.307 C130.78 739.304 130.78 739.304 130.779 740.322 C130.779 741.664 130.778 743.005 130.777 744.347 C130.775 747.689 130.772 751.032 130.77 754.374 C130.761 769.029 130.749 783.683 130.733 798.338 C130.732 798.998 130.732 799.659 130.731 800.339 C130.727 803.665 130.723 806.99 130.72 810.316 C130.693 834.341 130.675 858.366 130.676 882.391 C130.676 895.102 130.667 907.813 130.647 920.525 C130.635 929.008 130.633 937.491 130.64 945.974 C130.644 950.812 130.643 955.65 130.629 960.488 C130.616 964.888 130.617 969.287 130.63 973.686 C130.631 975.27 130.628 976.853 130.62 978.437 C130.559 989.55 130.559 989.55 134 1000 C134.556 1001.161 135.111 1002.323 135.684 1003.52 C136.552 1005.15 136.552 1005.15 137.438 1006.812 C138.014 1007.912 138.59 1009.012 139.184 1010.145 C140.947 1012.917 142.336 1014.18 145 1016 C146.37 1017.975 147.707 1019.974 149 1022 C149.66 1022.66 150.32 1023.32 151 1024 C101.17 1024 51.34 1024 0 1024 C0 686.08 0 348.16 0 0 Z " fill="#0F0509" transform="translate(872,0)"/>
  </g>
  <g id="text-layer" style="mix-blend-mode: normal; opacity: 1;">
    <text x="540" y="400" style="fill:#FFFFFF;font-family:'Arial Black',Arial,sans-serif;font-weight:900;font-size:96px;filter:drop-shadow(0 0 10px #FFFFFF);text-anchor:middle;dominant-baseline:middle;letter-spacing:0.05em;">COMING</text>
    <text x="540" y="500" style="fill:#FFFFFF;font-family:Arial,sans-serif;font-weight:400;font-size:48px;letter-spacing:0.02em;text-anchor:middle;dominant-baseline:middle;">SOON</text>
    <text x="540" y="650" style="fill:#FFFFFF;font-family:Arial,sans-serif;font-weight:400;font-size:48px;letter-spacing:0.02em;text-anchor:middle;dominant-baseline:middle;">Launching in QC 2021</text>
    <text x="540" y="700" style="fill:#FFFFFF;font-family:Arial,sans-serif;font-weight:300;font-size:24px;opacity:0.6;letter-spacing:0.02em;text-anchor:middle;dominant-baseline:middle;">Kiclip uc en cmrom equlson arena</text>
  </g>
</svg>