<?xml version="1.0" encoding="UTF-8"?>
<!-- Generator: visioncortex VTracer 0.6.4 -->
<svg version="1.1" xmlns="http://www.w3.org/2000/svg" width="1024" height="1024">
<path d="M0 0 C337.92 0 675.84 0 1024 0 C1024 337.92 1024 675.84 1024 1024 C686.08 1024 348.16 1024 0 1024 C0 686.08 0 348.16 0 0 Z " fill="#001B32" transform="translate(0,0)"/>
<path d="M0 0 C0.847 0.425 0.847 0.425 1.711 0.859 C3.212 1.607 4.717 2.347 6.227 3.078 C11.579 5.693 16.704 8.539 21.773 11.668 C23.81 12.886 25.863 13.971 28 15 C28 15.66 28 16.32 28 17 C29.299 17.433 29.299 17.433 30.625 17.875 C31.739 18.246 32.852 18.617 34 19 C35.093 19.33 36.186 19.66 37.312 20 C40 21 40 21 41 23 C43.718 23.858 46.464 24.473 49.238 25.121 C52.091 26.029 53.665 27.178 56 29 C57.646 29.716 59.315 30.382 61 31 C62.168 31.478 62.168 31.478 63.359 31.965 C69.498 34.462 75.691 36.62 82 38.641 C87.85 40.546 93.592 42.707 99.328 44.931 C102.88 46.289 106.257 47.357 110 48 C113.088 48.647 116.168 49.325 119.25 50 C120.078 50.178 120.905 50.356 121.758 50.539 C127.885 51.885 127.885 51.885 129 53 C131.243 53.376 133.495 53.701 135.75 54 C139.867 54.551 143.937 55.132 148 56 C148 56.66 148 57.32 148 58 C152.29 58 156.58 58 161 58 C161 58.66 161 59.32 161 60 C162.282 59.983 162.282 59.983 163.59 59.965 C165.247 59.951 165.247 59.951 166.938 59.938 C168.04 59.926 169.142 59.914 170.277 59.902 C173 60 173 60 174 61 C175.686 61.072 177.375 61.084 179.062 61.062 C179.982 61.053 180.901 61.044 181.848 61.035 C182.558 61.024 183.268 61.012 184 61 C184 61.66 184 62.32 184 63 C184.844 63.049 185.689 63.098 186.559 63.148 C187.839 63.223 189.119 63.298 190.438 63.375 C191.183 63.417 191.928 63.459 192.696 63.502 C197.778 63.792 202.853 64.133 207.93 64.512 C249.963 67.527 293.904 68.409 335.58 61.374 C338.179 60.972 340.776 60.669 343.391 60.387 C359.31 58.656 374.824 55.555 390.461 52.183 C394.069 51.405 397.68 50.666 401.305 49.973 C406.691 48.908 411.962 47.467 417.25 46 C418.204 45.74 419.158 45.479 420.141 45.211 C424.808 43.927 429.424 42.583 434 41 C435.468 40.522 435.468 40.522 436.965 40.035 C443.407 37.951 443.407 37.951 449.688 35.438 C452.201 34.347 454.59 33.455 457.188 32.625 C461.848 31.111 466.317 29.235 470.824 27.316 C474.044 25.982 477.293 24.769 480.562 23.562 C485.931 21.534 490.817 19.047 495.758 16.137 C498 15 498 15 501 15 C501 14.34 501 13.68 501 13 C501.736 12.746 502.472 12.492 503.23 12.23 C504.206 11.886 505.182 11.542 506.188 11.188 C507.15 10.851 508.113 10.515 509.105 10.168 C511.948 9.021 514.382 7.578 517 6 C517.66 6 518.32 6 519 6 C519 5.34 519 4.68 519 4 C525.4 0.923 525.4 0.923 528.438 1.312 C528.953 1.539 529.469 1.766 530 2 C520.987 7.524 511.605 12.258 502.137 16.937 C500.641 17.681 499.148 18.433 497.658 19.19 C491.502 22.309 485.267 25.187 478.938 27.938 C477.937 28.373 476.936 28.808 475.905 29.257 C468.622 32.386 461.28 35.165 453.773 37.703 C450.303 38.896 446.907 40.2 443.5 41.562 C427.51 47.786 410.619 51.516 393.875 55.062 C392.677 55.318 391.48 55.574 390.246 55.838 C386.832 56.565 383.417 57.285 380 58 C379.124 58.186 378.247 58.371 377.344 58.562 C343.491 65.57 307.519 68.535 273 69 C272.032 69.015 271.063 69.03 270.065 69.046 C255.623 69.238 241.188 68.916 226.75 68.562 C225.911 68.543 225.071 68.523 224.206 68.503 C221.799 68.446 219.392 68.382 216.984 68.316 C216.267 68.3 215.549 68.283 214.81 68.266 C210.791 68.147 206.948 67.758 203 67 C204.377 69.754 206.367 70.515 209 72 C208.34 72.66 207.68 73.32 207 74 C206.34 73.67 205.68 73.34 205 73 C205 72.34 205 71.68 205 71 C204.336 71.205 203.672 71.41 202.988 71.621 C199.093 72.115 195.885 71.156 192.188 70.062 C191.495 69.867 190.802 69.672 190.088 69.471 C188.389 68.99 186.694 68.497 185 68 C185.33 67.01 185.66 66.02 186 65 C185.01 65 184.02 65 183 65 C182.67 65.66 182.34 66.32 182 67 C180.928 66.649 179.855 66.299 178.75 65.938 C175.25 64.75 175.25 64.75 172.75 65.562 C172.173 65.707 171.595 65.851 171 66 C169.25 64.562 169.25 64.562 168 63 C167.67 63.66 167.34 64.32 167 65 C165.907 64.67 164.814 64.34 163.688 64 C160.154 62.869 160.154 62.869 157 63 C155.353 62.871 153.707 62.723 152.062 62.562 C151.208 62.481 150.353 62.4 149.473 62.316 C147.244 62.031 145.163 61.597 143 61 C143 60.34 143 59.68 143 59 C136.952 58.104 131.111 57.887 125 58 C125 57.34 125 56.68 125 56 C124.257 56.021 123.515 56.041 122.75 56.062 C120.26 56.006 118.372 55.689 116 55 C115.257 54.814 114.515 54.629 113.75 54.438 C113.173 54.293 112.595 54.149 112 54 C112 53.34 112 52.68 112 52 C110.515 52.495 110.515 52.495 109 53 C106.984 52.477 106.984 52.477 104.75 51.625 C100.83 50.225 97.149 49.479 93 49 C91.331 48.68 89.663 48.353 88 48 C88 47.34 88 46.68 88 46 C86.907 45.856 85.814 45.711 84.688 45.562 C81 45 81 45 78 44 C78 43.34 78 42.68 78 42 C77.299 42.041 76.597 42.082 75.875 42.125 C72.616 41.983 70.044 41.133 67 40 C67.495 39.01 67.495 39.01 68 38 C67.276 37.818 66.551 37.636 65.805 37.449 C60.51 36.073 55.863 34.542 51 32 C48.683 31.234 46.364 30.615 44 30 C44 29.34 44 28.68 44 28 C43.216 27.876 42.433 27.753 41.625 27.625 C39 27 39 27 37 25 C36.01 25.33 35.02 25.66 34 26 C33.505 25.01 33.505 25.01 33 24 C32.051 23.691 31.102 23.381 30.125 23.062 C27.058 22.02 26.098 21.298 24 19 C23.01 18.67 22.02 18.34 21 18 C21 17.34 21 16.68 21 16 C20.078 16.052 20.078 16.052 19.137 16.105 C18.328 16.133 17.52 16.16 16.688 16.188 C15.487 16.24 15.487 16.24 14.262 16.293 C11.473 15.932 10.838 15.044 9 13 C8.01 12.67 7.02 12.34 6 12 C6 11.34 6 10.68 6 10 C4.35 10 2.7 10 1 10 C1.021 8.907 1.041 7.814 1.062 6.688 C1.185 3.056 1.185 3.056 0 0 Z " fill="#005F73" transform="translate(33,527)"/>
<path d="M0 0 C7.413 3.852 11.803 9.168 16.879 15.691 C20.361 19.754 23.67 23.034 29.211 23.48 C33.642 23.518 37.091 23.394 41.125 21.312 C40.465 23.293 39.805 25.273 39.125 27.312 C37.475 27.643 35.825 27.972 34.125 28.312 C34.032 29.457 34.032 29.457 33.938 30.625 C33.125 33.312 33.125 33.312 30.938 34.875 C30.009 35.349 29.081 35.824 28.125 36.312 C27.3 37.034 26.475 37.756 25.625 38.5 C19.44 41.703 12.348 41.267 5.75 39.312 C2.701 36.99 0.436 34.394 -1.996 31.445 C-4.536 28.562 -7.4 26.182 -10.371 23.758 C-10.867 23.281 -11.364 22.804 -11.875 22.312 C-11.875 21.653 -11.875 20.992 -11.875 20.312 C-15.521 20.284 -19.167 20.266 -22.812 20.25 C-23.853 20.242 -24.894 20.233 -25.967 20.225 C-26.956 20.221 -27.946 20.218 -28.965 20.215 C-29.881 20.21 -30.798 20.204 -31.742 20.199 C-33.859 20.073 -33.859 20.073 -34.875 21.312 C-37.208 21.353 -39.542 21.355 -41.875 21.312 C-39.875 18.312 -39.875 18.312 -36.938 16.938 C-33.448 15.086 -32.795 13.652 -30.875 10.312 C-26.634 7.312 -26.634 7.312 -23.875 7.312 C-23.834 6.57 -23.793 5.827 -23.75 5.062 C-22.783 2.022 -21.695 0.667 -18.938 -0.957 C-12.805 -3.129 -5.931 -2.459 0 0 Z " fill="#045F61" transform="translate(653.875,893.6875)"/>
<path d="M0 0 C6.663 2.932 12.953 6.28 19.062 10.25 C24.626 13.724 30.607 14.858 37 16 C37 17.65 37 19.3 37 21 C38.32 20.67 39.64 20.34 41 20 C41 20.66 41 21.32 41 22 C40.34 22 39.68 22 39 22 C38.67 24.31 38.34 26.62 38 29 C36.02 29 34.04 29 32 29 C32 29.66 32 30.32 32 31 C28.337 33.344 25.274 33.295 21 33 C16.463 31.63 12.075 29.913 7.688 28.125 C7.055 27.881 6.423 27.638 5.771 27.387 C3.949 26.633 3.949 26.633 1 25 C0.227 22.875 0.227 22.875 0 21 C-2.329 19.802 -2.329 19.802 -5 19 C-5.587 18.666 -6.173 18.332 -6.777 17.988 C-13.68 14.919 -22.708 15.713 -30 17 C-29.578 16.529 -29.157 16.059 -28.723 15.574 C-28.175 14.952 -27.627 14.329 -27.062 13.688 C-26.517 13.073 -25.972 12.458 -25.41 11.824 C-23.799 9.948 -23.799 9.948 -23 7 C-28.099 5.764 -32.976 5.325 -38 7 C-36.524 2.571 -33.411 1.505 -29.418 -0.636 C-19.878 -5.377 -9.717 -3.432 0 0 Z " fill="#015256" transform="translate(367,896)"/>
<path d="M0 0 C0.99 0.33 1.98 0.66 3 1 C-10.385 10.586 -10.385 10.586 -15.938 14.438 C-20.248 17.447 -24.505 20.525 -28.75 23.625 C-29.376 24.081 -30.003 24.536 -30.648 25.006 C-33.595 27.166 -36.47 29.364 -39.258 31.727 C-41.704 33.755 -44.103 35.196 -46.883 36.703 C-49.737 38.451 -52.34 40.47 -55 42.5 C-59.23 45.721 -63.348 48.455 -68 51 C-69.321 51.863 -70.632 52.739 -71.938 53.625 C-76.916 56.989 -82.015 60.147 -87.119 63.316 C-90.769 65.588 -94.382 67.894 -97.938 70.312 C-101.338 72.607 -104.821 74.633 -108.426 76.59 C-111.601 78.329 -114.737 80.134 -117.875 81.938 C-127.724 87.574 -137.675 92.901 -147.844 97.934 C-150.521 99.259 -153.188 100.604 -155.844 101.973 C-165.897 107.127 -176.184 111.604 -186.599 115.975 C-188.844 116.934 -191.065 117.935 -193.285 118.949 C-199.244 121.613 -205.375 123.815 -211.5 126.062 C-212.672 126.496 -213.844 126.93 -215.051 127.377 C-231.862 133.575 -231.862 133.575 -239 135 C-241.225 135.577 -243.446 136.171 -245.664 136.777 C-246.965 137.13 -248.266 137.482 -249.566 137.834 C-251.587 138.383 -253.608 138.933 -255.627 139.486 C-263.019 141.508 -270.364 143.396 -277.939 144.608 C-280.053 144.913 -280.053 144.913 -282 146 C-284.376 146.352 -286.74 146.661 -289.125 146.938 C-290.178 147.065 -290.178 147.065 -291.252 147.195 C-294.268 147.56 -297.286 147.916 -300.303 148.271 C-302.515 148.531 -304.726 148.797 -306.938 149.062 C-307.629 149.142 -308.321 149.221 -309.034 149.302 C-312.302 149.461 -312.302 149.461 -315 151 C-316.525 150.911 -318.047 150.755 -319.562 150.562 C-320.389 150.461 -321.215 150.359 -322.066 150.254 C-322.704 150.17 -323.343 150.086 -324 150 C-324 149.34 -324 148.68 -324 148 C-323.033 147.951 -322.066 147.902 -321.07 147.852 C-314.545 147.477 -308.25 146.984 -301.863 145.535 C-297.146 144.653 -292.371 144.235 -287.594 143.785 C-282.56 143.282 -277.896 142.274 -273 141 C-270 140.875 -270 140.875 -268 141 C-268 140.34 -268 139.68 -268 139 C-265.69 139 -263.38 139 -261 139 C-261 138.34 -261 137.68 -261 137 C-260.072 136.897 -259.144 136.794 -258.188 136.688 C-253.899 136.085 -249.806 134.91 -245.648 133.719 C-243 133 -243 133 -240.574 132.535 C-236.302 131.647 -232.205 130.187 -228.059 128.84 C-225 128 -225 128 -221 128 C-221 127.34 -221 126.68 -221 126 C-220.355 125.768 -219.709 125.536 -219.044 125.297 C-216.112 124.242 -213.181 123.184 -210.25 122.125 C-208.726 121.578 -208.726 121.578 -207.172 121.02 C-206.192 120.665 -205.212 120.311 -204.203 119.945 C-203.302 119.621 -202.402 119.296 -201.474 118.961 C-199.023 118.068 -199.023 118.068 -196.925 116.878 C-195 116 -195 116 -191 116 C-190.67 115.34 -190.34 114.68 -190 114 C-188.239 113.161 -186.439 112.403 -184.625 111.688 C-179.419 109.598 -174.339 107.334 -169.277 104.918 C-167 104 -167 104 -164 104 C-164 103.34 -164 102.68 -164 102 C-152.478 96.444 -152.478 96.444 -147 96 C-147 95.34 -147 94.68 -147 94 C-146.051 93.546 -145.102 93.092 -144.125 92.625 C-140.997 91.198 -140.997 91.198 -139 89 C-136.673 87.985 -134.34 86.985 -132 86 C-131.01 85.34 -130.02 84.68 -129 84 C-128.01 84 -127.02 84 -126 84 C-126 83.34 -126 82.68 -126 82 C-124.907 81.464 -123.814 80.928 -122.688 80.375 C-114.577 76.298 -106.871 72.041 -99.488 66.742 C-89.199 59.538 -89.199 59.538 -84.766 58.453 C-84.183 58.304 -83.6 58.154 -83 58 C-82.711 57.381 -82.423 56.762 -82.125 56.125 C-80.12 52.337 -76.063 51.378 -72.188 50 C-71.466 49.67 -70.744 49.34 -70 49 C-69.67 48.01 -69.34 47.02 -69 46 C-67.195 44.977 -67.195 44.977 -65 44 C-62.916 42.702 -60.861 41.366 -58.805 40.023 C-57 39 -57 39 -55 39 C-55 38.34 -55 37.68 -55 37 C-50.54 33.542 -45.907 30.766 -41 28 C-37.948 26.047 -35.127 24.109 -32.375 21.75 C-30 20 -30 20 -26 20 C-25.66 19.103 -25.66 19.103 -25.312 18.188 C-23.628 15.381 -21.869 14.534 -19 13 C-16.046 11.323 -13.279 9.506 -10.555 7.484 C-9.652 6.815 -9.652 6.815 -8.73 6.133 C-7.481 5.202 -6.236 4.264 -4.996 3.32 C-3.385 2.136 -1.696 1.059 0 0 Z " fill="#004A63" transform="translate(731,393)"/>
<path d="M0 0 C0.847 0.425 0.847 0.425 1.711 0.859 C3.212 1.607 4.717 2.347 6.227 3.078 C11.579 5.693 16.704 8.539 21.773 11.668 C23.81 12.886 25.863 13.971 28 15 C28 15.66 28 16.32 28 17 C29.299 17.433 29.299 17.433 30.625 17.875 C31.739 18.246 32.852 18.617 34 19 C35.093 19.33 36.186 19.66 37.312 20 C40 21 40 21 41 23 C43.718 23.858 46.464 24.473 49.238 25.121 C52.091 26.029 53.665 27.178 56 29 C57.646 29.716 59.315 30.382 61 31 C62.168 31.478 62.168 31.478 63.359 31.965 C69.498 34.462 75.691 36.62 82 38.641 C87.85 40.546 93.592 42.707 99.328 44.931 C102.88 46.289 106.257 47.357 110 48 C113.088 48.647 116.168 49.325 119.25 50 C120.078 50.178 120.905 50.356 121.758 50.539 C127.885 51.885 127.885 51.885 129 53 C131.243 53.376 133.495 53.701 135.75 54 C139.867 54.551 143.937 55.132 148 56 C148 56.66 148 57.32 148 58 C152.29 58 156.58 58 161 58 C161.33 58.66 161.66 59.32 162 60 C163.888 60.685 163.888 60.685 166.062 61.125 C166.796 61.293 167.529 61.46 168.285 61.633 C168.851 61.754 169.417 61.875 170 62 C169.01 62.495 169.01 62.495 168 63 C167.67 63.66 167.34 64.32 167 65 C165.907 64.67 164.814 64.34 163.688 64 C160.154 62.869 160.154 62.869 157 63 C155.353 62.871 153.707 62.723 152.062 62.562 C151.208 62.481 150.353 62.4 149.473 62.316 C147.244 62.031 145.163 61.597 143 61 C143 60.34 143 59.68 143 59 C136.952 58.104 131.111 57.887 125 58 C125 57.34 125 56.68 125 56 C124.257 56.021 123.515 56.041 122.75 56.062 C120.26 56.006 118.372 55.689 116 55 C115.257 54.814 114.515 54.629 113.75 54.438 C113.173 54.293 112.595 54.149 112 54 C112 53.34 112 52.68 112 52 C110.515 52.495 110.515 52.495 109 53 C106.984 52.477 106.984 52.477 104.75 51.625 C100.83 50.225 97.149 49.479 93 49 C91.331 48.68 89.663 48.353 88 48 C88 47.34 88 46.68 88 46 C86.907 45.856 85.814 45.711 84.688 45.562 C81 45 81 45 78 44 C78 43.34 78 42.68 78 42 C77.299 42.041 76.597 42.082 75.875 42.125 C72.616 41.983 70.044 41.133 67 40 C67.495 39.01 67.495 39.01 68 38 C67.276 37.818 66.551 37.636 65.805 37.449 C60.51 36.073 55.863 34.542 51 32 C48.683 31.234 46.364 30.615 44 30 C44 29.34 44 28.68 44 28 C43.216 27.876 42.433 27.753 41.625 27.625 C39 27 39 27 37 25 C36.01 25.33 35.02 25.66 34 26 C33.505 25.01 33.505 25.01 33 24 C32.051 23.691 31.102 23.381 30.125 23.062 C27.058 22.02 26.098 21.298 24 19 C23.01 18.67 22.02 18.34 21 18 C21 17.34 21 16.68 21 16 C20.078 16.052 20.078 16.052 19.137 16.105 C18.328 16.133 17.52 16.16 16.688 16.188 C15.487 16.24 15.487 16.24 14.262 16.293 C11.473 15.932 10.838 15.044 9 13 C8.01 12.67 7.02 12.34 6 12 C6 11.34 6 10.68 6 10 C4.35 10 2.7 10 1 10 C1.021 8.907 1.041 7.814 1.062 6.688 C1.185 3.056 1.185 3.056 0 0 Z " fill="#006C80" transform="translate(33,527)"/>
<path d="M0 0 C-1.41 1.154 -2.828 2.298 -4.25 3.438 C-5.433 4.395 -5.433 4.395 -6.641 5.371 C-8.925 6.948 -10.338 7.452 -13 8 C-14.352 8.629 -15.684 9.3 -17 10 C-26.465 14.857 -35.843 19.011 -45.965 22.277 C-48.769 23.273 -51.354 24.646 -54 26 C-55.328 26.354 -56.662 26.685 -58 27 C-59.649 27.469 -61.294 27.949 -62.938 28.438 C-63.772 28.684 -64.606 28.93 -65.465 29.184 C-68.033 30.011 -70.499 30.989 -73 32 C-79.987 34.505 -86.995 36.56 -94.211 38.285 C-96.645 38.909 -98.952 39.647 -101.312 40.5 C-106.476 42.293 -111.785 43.221 -117.145 44.242 C-120.767 44.954 -124.347 45.766 -127.938 46.625 C-131.419 47.447 -134.819 48.173 -138.375 48.562 C-142.041 48.904 -142.041 48.904 -145.625 50.062 C-148.94 50.983 -151.587 51.079 -155 51 C-155.99 51.495 -155.99 51.495 -157 52 C-163.341 53.174 -163.341 53.174 -166.125 52.438 C-168.831 51.806 -170.474 52.953 -173 54 C-175.625 54.125 -175.625 54.125 -178 54 C-180.437 54 -182.598 54.182 -185 54.5 C-188.412 54.9 -191.692 55.014 -195.125 54.938 C-202.181 54.847 -209.037 55.948 -216 57 C-215.34 55.68 -214.68 54.36 -214 53 C-215.125 51.644 -215.125 51.644 -218.062 51.938 C-219.032 51.958 -220.001 51.979 -221 52 C-221.495 50.515 -221.495 50.515 -222 49 C-221.043 49.003 -221.043 49.003 -220.066 49.007 C-213.415 49.029 -206.764 49.044 -200.113 49.055 C-197.632 49.06 -195.151 49.067 -192.669 49.075 C-189.1 49.088 -185.53 49.093 -181.961 49.098 C-180.301 49.105 -180.301 49.105 -178.608 49.113 C-173.613 49.114 -168.913 49.009 -164 48 C-160.22 47.746 -156.44 47.56 -152.656 47.379 C-149.132 47.014 -146.325 46.17 -143 45 C-140.543 44.656 -140.543 44.656 -138.188 44.5 C-133.326 44.174 -128.731 43.111 -124 42 C-123.17 41.807 -122.341 41.615 -121.486 41.417 C-103.395 37.251 -103.395 37.251 -85.637 31.879 C-82.845 30.948 -80.038 30.077 -77.226 29.21 C-64.19 25.191 -51.514 20.431 -39 15 C-34.679 13.136 -30.345 11.307 -26 9.5 C-24.969 9.069 -23.938 8.639 -22.875 8.195 C-21.191 7.495 -19.504 6.8 -17.812 6.117 C-15.307 5.091 -13.142 4.111 -11 2.438 C-7.825 0.155 -3.675 -1.837 0 0 Z " fill="#007C8F" transform="translate(564,560)"/>
<path d="M0 0 C3.178 1.777 6.077 3.834 9 6 C10.937 7.417 12.875 8.834 14.812 10.25 C15.706 10.915 16.599 11.58 17.52 12.266 C22.042 15.428 24.841 16.293 30.438 16.312 C32.106 16.338 32.106 16.338 33.809 16.363 C37.285 15.968 39.172 15.004 42 13 C41.536 13.866 41.536 13.866 41.062 14.75 C40.074 16.843 39.483 18.745 39 21 C39.66 21 40.32 21 41 21 C39.504 24.808 37.339 26.694 34 29 C25.116 31.981 15.112 30.569 6.809 26.688 C2.862 24.316 -0.318 21.389 -3.645 18.227 C-9.135 13.036 -13.429 9.672 -21.188 9.375 C-26.37 9.632 -29.114 10.626 -33 14 C-33.66 14.33 -34.32 14.66 -35 15 C-33.505 11.195 -31.306 9.338 -28 7 C-22.048 5.016 -17.537 5.459 -11.938 8.062 C-7.813 10.289 -4.826 12.884 -1.641 16.285 C1.485 19.552 4.602 22.671 9.219 23.305 C11.665 23.347 11.665 23.347 15 23 C15 22.34 15 21.68 15 21 C14.01 21 13.02 21 12 21 C12 20.01 12 19.02 12 18 C11.34 18 10.68 18 10 18 C9.629 17.319 9.258 16.639 8.875 15.938 C4.444 8.996 -2.089 4.479 -10.061 2.484 C-12.181 2.051 -14.303 1.67 -16.438 1.312 C-17.169 1.183 -17.901 1.053 -18.654 0.92 C-20.435 0.606 -22.217 0.302 -24 0 C-20.48 -7.041 -5.54 -2.36 0 0 Z " fill="#086E6E" transform="translate(510,892)"/>
<path d="M0 0 C6.016 3.362 10.285 9.152 14.469 14.504 C17.311 18.139 19.727 19.884 24 21.625 C27.658 21.985 27.658 21.985 31.375 21.812 C33.243 21.772 33.243 21.772 35.148 21.73 C36.56 21.678 36.56 21.678 38 21.625 C32 27.625 32 27.625 29.27 27.758 C28.129 27.755 26.988 27.753 25.812 27.75 C24.685 27.753 23.557 27.755 22.395 27.758 C13.978 27.429 13.978 27.429 11.094 25.059 C10.568 24.4 10.042 23.741 9.5 23.062 C8.915 22.347 8.33 21.632 7.727 20.895 C6.064 18.709 4.469 16.486 2.875 14.25 C0.608 11.142 -1.128 9.536 -5 8.625 C-5 7.965 -5 7.305 -5 6.625 C-12.252 6.322 -18.523 6.24 -25.293 9.066 C-27 9.625 -27 9.625 -29 8.625 C-27.276 7.327 -25.545 6.037 -23.812 4.75 C-22.85 4.031 -21.887 3.311 -20.895 2.57 C-14.346 -1.831 -7.427 -3.143 0 0 Z " fill="#035F60" transform="translate(645,903.375)"/>
<path d="M0 0 C5.251 1.874 9.573 4.985 14.141 8.121 C20.905 12.004 28.957 12.237 36.535 10.605 C37.065 10.446 37.595 10.286 38.141 10.121 C37.811 12.101 37.481 14.081 37.141 16.121 C35.491 16.121 33.841 16.121 32.141 16.121 C32.141 16.781 32.141 17.441 32.141 18.121 C28.478 20.465 25.415 20.416 21.141 20.121 C16.603 18.752 12.215 17.034 7.828 15.246 C7.196 15.002 6.564 14.759 5.912 14.508 C4.09 13.754 4.09 13.754 1.141 12.121 C0.367 9.996 0.367 9.996 0.141 8.121 C-2.188 6.923 -2.188 6.923 -4.859 6.121 C-5.446 5.787 -6.032 5.453 -6.637 5.109 C-13.539 2.04 -22.568 2.834 -29.859 4.121 C-21.423 -4.537 -11.275 -2.846 0 0 Z " fill="#016263" transform="translate(366.859375,908.87890625)"/>
<path d="M0 0 C7.82 0.074 14.009 2.372 19.902 7.625 C22.905 10.796 25.574 14.247 28.254 17.691 C31.297 21.243 34.033 23.824 38.5 25.312 C40.395 25.381 42.292 25.397 44.188 25.375 C45.181 25.366 46.175 25.357 47.199 25.348 C47.958 25.336 48.718 25.324 49.5 25.312 C46.647 28.301 44.579 30.199 40.32 30.648 C39.101 30.661 37.881 30.674 36.625 30.688 C35.411 30.716 34.196 30.744 32.945 30.773 C27.774 30.082 25.53 27.369 22 23.75 C19.66 21.267 19.66 21.267 17 19.875 C13.777 17.861 11.895 15.246 9.5 12.312 C6.362 9.175 4.088 8.121 -0.188 7.375 C-2.539 6.949 -2.539 6.949 -4.5 6.312 C-6.062 3.688 -6.062 3.688 -6.5 1.312 C-4.745 -0.442 -2.385 0.057 0 0 Z " fill="#0CA4A9" transform="translate(642.5,891.6875)"/>
<path d="M0 0 C4.416 0.431 7.454 1.668 11.234 3.969 C13.379 5.221 15.627 6.145 17.922 7.086 C20.65 8.286 23.283 9.646 25.938 11 C29.353 12.729 32.703 14.347 36.312 15.625 C39.512 16.818 42.149 18.26 45.059 20.016 C48.825 21.925 52.933 22.92 57 24 C57 24.66 57 25.32 57 26 C57.784 26.082 58.567 26.165 59.375 26.25 C63.278 27.058 66.633 28.377 70.305 29.895 C84.109 35.556 98.241 39.455 112.812 42.5 C113.88 42.726 114.948 42.951 116.049 43.184 C121.355 44.293 126.624 45.286 132 46 C133.415 46.235 134.829 46.475 136.242 46.719 C146.824 48.522 157.271 49.632 168 50 C169.242 50.044 170.484 50.087 171.764 50.132 C180.842 50.448 189.921 50.732 199 51 C199 51.33 199 51.66 199 52 C192.329 52.051 185.658 52.086 178.987 52.11 C176.72 52.12 174.453 52.134 172.187 52.151 C168.917 52.175 165.648 52.187 162.379 52.195 C160.874 52.211 160.874 52.211 159.338 52.227 C153.965 52.227 149.125 51.783 143.912 50.474 C141.635 49.909 139.399 49.63 137.062 49.438 C136.23 49.363 135.397 49.288 134.539 49.211 C133.701 49.141 132.863 49.072 132 49 C124.764 48.399 117.921 47.247 110.886 45.464 C107.896 44.728 104.859 44.233 101.828 43.695 C98.847 42.962 96.073 41.894 93.212 40.789 C88.461 39.094 83.52 38.012 78.627 36.807 C77.41 36.498 77.41 36.498 76.168 36.184 C75.439 36.004 74.709 35.824 73.958 35.638 C72 35 72 35 69 33 C67.329 32.41 65.639 31.871 63.938 31.375 C63.06 31.115 62.182 30.854 61.277 30.586 C59.069 29.917 59.069 29.917 57 30 C57 29.34 57 28.68 57 28 C53.37 27.01 49.74 26.02 46 25 C46 24.34 46 23.68 46 23 C45.408 22.818 44.817 22.636 44.207 22.449 C43.022 22.072 43.022 22.072 41.812 21.688 C41.035 21.444 40.258 21.2 39.457 20.949 C37 20 37 20 34.805 18.68 C29.975 15.787 24.795 13.58 19.686 11.229 C18.857 10.842 18.029 10.456 17.176 10.059 C16.422 9.711 15.668 9.364 14.892 9.006 C13 8 13 8 11 6 C8.435 4.907 5.832 3.961 3.215 3 C1 2 1 2 0 0 Z " fill="#005067" transform="translate(168,634)"/>
<path d="M0 0 C-0.831 0.193 -1.663 0.387 -2.52 0.586 C-3.606 0.846 -4.693 1.107 -5.812 1.375 C-6.891 1.63 -7.97 1.885 -9.082 2.148 C-12.155 2.887 -12.155 2.887 -15 5 C-17.268 5.592 -19.54 6.007 -21.844 6.438 C-24.272 6.946 -24.272 6.946 -27 9 C-28.91 9.125 -28.91 9.125 -31.062 9 C-35.419 8.894 -39.257 9.571 -43.5 10.496 C-46.65 11.131 -49.769 11.442 -52.969 11.719 C-55.285 11.934 -57.597 12.192 -59.906 12.469 C-103.475 17.677 -146.921 14.414 -190 7 C-190 6.01 -190 5.02 -190 4 C-185.758 4.578 -181.535 5.233 -177.312 5.938 C-175.752 6.197 -175.752 6.197 -174.16 6.461 C-172.144 6.805 -170.131 7.163 -168.121 7.539 C-160.433 8.941 -152.788 9.49 -145 9.891 C-141.914 10.059 -138.832 10.282 -135.75 10.5 C-133.872 10.618 -133.872 10.618 -131.957 10.738 C-129.281 10.915 -126.62 11.119 -123.949 11.355 C-98.59 13.365 -72.729 10.576 -47.562 7.5 C-46.677 7.393 -45.792 7.285 -44.88 7.174 C-42.358 6.864 -39.837 6.544 -37.316 6.219 C-36.576 6.126 -35.836 6.033 -35.074 5.938 C-30.553 5.333 -26.361 4.338 -22 3 C-19.786 2.467 -17.567 1.988 -15.34 1.512 C-13.743 1.163 -12.152 0.789 -10.566 0.395 C-9.389 0.106 -9.389 0.106 -8.188 -0.188 C-7.48 -0.367 -6.772 -0.546 -6.043 -0.73 C-3.758 -1.032 -2.182 -0.691 0 0 Z " fill="#004E64" transform="translate(468,657)"/>
<path d="M0 0 C0.99 0.495 0.99 0.495 2 1 C1.67 1.66 1.34 2.32 1 3 C0.34 3 -0.32 3 -1 3 C-1 3.66 -1 4.32 -1 5 C-12.446 10.834 -23.945 16.523 -35.625 21.875 C-37.061 22.534 -37.061 22.534 -38.525 23.206 C-49.744 28.311 -61.12 32.873 -72.688 37.125 C-73.846 37.554 -75.004 37.984 -76.197 38.426 C-92.853 44.573 -92.853 44.573 -100 46 C-102.225 46.577 -104.446 47.171 -106.664 47.777 C-107.965 48.13 -109.266 48.482 -110.566 48.834 C-112.587 49.383 -114.608 49.933 -116.627 50.486 C-124.019 52.508 -131.364 54.396 -138.939 55.608 C-141.053 55.913 -141.053 55.913 -143 57 C-145.376 57.352 -147.74 57.661 -150.125 57.938 C-150.827 58.022 -151.529 58.107 -152.252 58.195 C-155.268 58.56 -158.286 58.916 -161.303 59.271 C-163.515 59.531 -165.726 59.797 -167.938 60.062 C-168.629 60.142 -169.321 60.221 -170.034 60.302 C-173.302 60.461 -173.302 60.461 -176 62 C-177.525 61.911 -179.047 61.755 -180.562 61.562 C-181.389 61.461 -182.215 61.359 -183.066 61.254 C-183.704 61.17 -184.343 61.086 -185 61 C-185 60.34 -185 59.68 -185 59 C-184.033 58.951 -183.066 58.902 -182.07 58.852 C-175.545 58.477 -169.25 57.984 -162.863 56.535 C-158.146 55.653 -153.371 55.235 -148.594 54.785 C-143.56 54.282 -138.896 53.274 -134 52 C-131 51.875 -131 51.875 -129 52 C-129 51.34 -129 50.68 -129 50 C-126.69 50 -124.38 50 -122 50 C-122 49.34 -122 48.68 -122 48 C-120.608 47.845 -120.608 47.845 -119.188 47.688 C-114.899 47.085 -110.806 45.91 -106.648 44.719 C-104 44 -104 44 -101.574 43.535 C-97.302 42.647 -93.205 41.187 -89.059 39.84 C-86 39 -86 39 -82 39 C-82 38.34 -82 37.68 -82 37 C-81.355 36.768 -80.709 36.536 -80.044 36.297 C-77.112 35.242 -74.181 34.184 -71.25 33.125 C-70.234 32.76 -69.218 32.395 -68.172 32.02 C-67.192 31.665 -66.212 31.311 -65.203 30.945 C-64.302 30.621 -63.402 30.296 -62.474 29.961 C-60.023 29.068 -60.023 29.068 -57.925 27.878 C-56 27 -56 27 -52 27 C-51.67 26.34 -51.34 25.68 -51 25 C-49.239 24.161 -47.439 23.403 -45.625 22.688 C-40.419 20.598 -35.339 18.334 -30.277 15.918 C-28 15 -28 15 -25 15 C-25 14.34 -25 13.68 -25 13 C-13.478 7.444 -13.478 7.444 -8 7 C-8 6.34 -8 5.68 -8 5 C-7.051 4.546 -6.102 4.092 -5.125 3.625 C-1.997 2.198 -1.997 2.198 0 0 Z " fill="#00435A" transform="translate(592,482)"/>
<path d="M0 0 C0.847 0.425 0.847 0.425 1.711 0.859 C3.212 1.607 4.717 2.347 6.227 3.078 C11.579 5.693 16.704 8.539 21.773 11.668 C23.81 12.886 25.863 13.971 28 15 C28 15.66 28 16.32 28 17 C29.299 17.433 29.299 17.433 30.625 17.875 C31.739 18.246 32.852 18.617 34 19 C35.093 19.33 36.186 19.66 37.312 20 C40 21 40 21 41 23 C43.718 23.858 46.464 24.473 49.238 25.121 C52.091 26.029 53.665 27.178 56 29 C57.644 29.721 59.313 30.387 61 31 C62.751 31.663 64.501 32.33 66.25 33 C67.121 33.33 67.993 33.66 68.891 34 C71 35 71 35 72 37 C64.822 37.542 59.623 35.61 53 33 C51.275 32.404 49.546 31.82 47.812 31.25 C47.076 31.008 46.34 30.765 45.582 30.516 C45.06 30.345 44.538 30.175 44 30 C44 29.34 44 28.68 44 28 C43.216 27.876 42.433 27.753 41.625 27.625 C39 27 39 27 37 25 C36.01 25.33 35.02 25.66 34 26 C33.505 25.01 33.505 25.01 33 24 C32.051 23.691 31.102 23.381 30.125 23.062 C27.058 22.02 26.098 21.298 24 19 C23.01 18.67 22.02 18.34 21 18 C21 17.34 21 16.68 21 16 C20.078 16.052 20.078 16.052 19.137 16.105 C18.328 16.133 17.52 16.16 16.688 16.188 C15.487 16.24 15.487 16.24 14.262 16.293 C11.473 15.932 10.838 15.044 9 13 C8.01 12.67 7.02 12.34 6 12 C6 11.34 6 10.68 6 10 C4.35 10 2.7 10 1 10 C1.021 8.907 1.041 7.814 1.062 6.688 C1.185 3.056 1.185 3.056 0 0 Z " fill="#005C73" transform="translate(33,527)"/>
<path d="M0 0 C3.371 1.551 5.492 3.515 8.156 6.059 C15.486 12.936 24.683 20.172 35.23 20.098 C36.434 20.093 36.434 20.093 37.662 20.088 C38.495 20.08 39.329 20.071 40.188 20.062 C41.455 20.056 41.455 20.056 42.748 20.049 C44.832 20.037 46.916 20.019 49 20 C48.505 21.485 48.505 21.485 48 23 C44.918 24.541 41.691 24.184 38.312 24.188 C37.269 24.206 37.269 24.206 36.205 24.225 C24.791 24.257 14.804 18.931 6 12 C5.67 11.34 5.34 10.68 5 10 C0.633 8.498 -3.939 8.816 -8.5 8.812 C-9.355 8.8 -10.209 8.788 -11.09 8.775 C-11.916 8.773 -12.742 8.772 -13.594 8.77 C-14.718 8.763 -14.718 8.763 -15.865 8.757 C-18.279 9.032 -19.858 9.895 -22 11 C-24.25 10.625 -24.25 10.625 -26 10 C-24.031 8.277 -22.047 6.626 -20 5 C-19.42 4.523 -18.84 4.046 -18.242 3.555 C-12.491 -0.656 -6.967 -1.029 0 0 Z " fill="#047174" transform="translate(495,901)"/>
<path d="M0 0 C1.317 0.23 1.317 0.23 2.66 0.465 C10.576 2.006 16.685 5.231 22.375 11 C22.952 11.57 23.53 12.14 24.125 12.727 C25.375 14.375 25.375 14.375 25.375 17.375 C26.035 17.375 26.695 17.375 27.375 17.375 C27.375 18.365 27.375 19.355 27.375 20.375 C28.365 20.375 29.355 20.375 30.375 20.375 C30.375 21.035 30.375 21.695 30.375 22.375 C27.279 23.292 25.525 23.746 22.375 23.375 C18.65 21.144 15.555 18.316 12.375 15.375 C6.384 9.937 0.865 5.71 -7.633 6.008 C-11.154 6.657 -13.654 8.414 -16.625 10.375 C-17.615 10.87 -17.615 10.87 -18.625 11.375 C-18.625 10.055 -18.625 8.735 -18.625 7.375 C-17.305 7.045 -15.985 6.715 -14.625 6.375 C-14.625 5.715 -14.625 5.055 -14.625 4.375 C-13.965 4.375 -13.305 4.375 -12.625 4.375 C-12.439 3.168 -12.439 3.168 -12.25 1.938 C-12.044 1.092 -11.837 0.246 -11.625 -0.625 C-8.003 -2.436 -3.85 -0.755 0 0 Z " fill="#026A6A" transform="translate(494.625,892.625)"/>
<path d="M0 0 C5.442 2.608 10.671 5.516 15.797 8.703 C20.165 11.413 24.54 13.092 29.484 14.453 C24.159 17.116 20.528 18.321 14.484 17.453 C9.715 15.365 6.014 12.245 2.484 8.453 C-0.73 6.31 -3.444 5.469 -7.141 4.391 C-13.413 2.556 -13.413 2.556 -14.516 1.453 C-16.002 1.297 -17.495 1.202 -18.988 1.137 C-20.337 1.074 -20.337 1.074 -21.713 1.01 C-22.658 0.97 -23.604 0.931 -24.578 0.891 C-25.528 0.847 -26.477 0.804 -27.455 0.76 C-29.808 0.653 -32.162 0.551 -34.516 0.453 C-25.493 -8.845 -10.637 -4.68 0 0 Z " fill="#06A0A5" transform="translate(370.515625,897.546875)"/>
<path d="M0 0 C1.924 1.732 2.243 2.925 2.609 5.449 C3.692 5.619 3.692 5.619 4.797 5.793 C8.604 6.681 11.685 8.452 15.109 10.293 C20.867 12.956 27.539 13.392 33.609 11.449 C32.43 13.422 32.43 13.422 30.609 15.449 C24.012 16.823 16.595 15.484 10.609 12.449 C10.114 11.459 10.114 11.459 9.609 10.449 C7.633 9.574 7.633 9.574 5.297 8.887 C4.127 8.514 4.127 8.514 2.934 8.133 C0.836 7.516 -1.264 6.96 -3.391 6.449 C-3.391 5.789 -3.391 5.129 -3.391 4.449 C-4.566 4.325 -5.742 4.202 -6.953 4.074 C-10.913 3.582 -14.558 2.573 -18.391 1.449 C-21.714 0.732 -25.05 0.081 -28.391 -0.551 C-28.391 -1.541 -28.391 -2.531 -28.391 -3.551 C-18.463 -5.303 -8.875 -5.134 0 0 Z M33.609 9.449 C35.259 9.449 36.909 9.449 38.609 9.449 C35.609 11.449 35.609 11.449 33.609 11.449 C33.609 10.789 33.609 10.129 33.609 9.449 Z " fill="#003D3F" transform="translate(365.390625,915.55078125)"/>
<path d="M0 0 C0 0.66 0 1.32 0 2 C0.742 2.082 1.485 2.165 2.25 2.25 C6.418 3.387 8.249 5.703 10.375 9.375 C11.843 11.747 13.201 13.275 15.188 15.188 C18 18 18 18 18 20 C21.063 20.108 24.123 20.187 27.188 20.25 C28.052 20.284 28.916 20.317 29.807 20.352 C34.019 20.416 36.312 20.444 39.926 18.109 C40.61 17.413 41.295 16.717 42 16 C42.99 15.34 43.98 14.68 45 14 C45.464 13.01 45.464 13.01 45.938 12 C47.26 9.51 48.5 9.172 51 8 C51.66 7.01 52.32 6.02 53 5 C53.66 5 54.32 5 55 5 C54.34 6.98 53.68 8.96 53 11 C51.35 11.33 49.7 11.66 48 12 C47.907 13.145 47.907 13.145 47.812 14.312 C47 17 47 17 44.812 18.562 C43.884 19.037 42.956 19.511 42 20 C40.763 21.083 40.763 21.083 39.5 22.188 C33.315 25.391 26.223 24.955 19.625 23 C16.576 20.677 14.311 18.082 11.879 15.133 C9.339 12.25 6.475 9.87 3.504 7.445 C3.008 6.968 2.511 6.491 2 6 C2 5.34 2 4.68 2 4 C-1.646 3.971 -5.292 3.953 -8.938 3.938 C-9.978 3.929 -11.019 3.921 -12.092 3.912 C-13.081 3.909 -14.071 3.906 -15.09 3.902 C-16.006 3.897 -16.923 3.892 -17.867 3.886 C-19.984 3.761 -19.984 3.761 -21 5 C-23.333 5.041 -25.667 5.042 -28 5 C-27.34 4.01 -26.68 3.02 -26 2 C-24.007 1.706 -22.011 1.422 -20.004 1.25 C-17.877 1.084 -17.877 1.084 -15.625 -0.062 C-10.658 -1.836 -4.974 -1.658 0 0 Z " fill="#004C50" transform="translate(640,910)"/>
<path d="M0 0 C-3.523 2.349 -5.817 2.552 -10 3.062 C-10.668 3.145 -11.335 3.227 -12.023 3.312 C-20.052 4.283 -27.914 5 -36 5 C-41.625 5.459 -47.078 6.287 -52.562 7.625 C-55 8 -55 8 -56.863 7.492 C-59.325 6.925 -61.135 7.134 -63.625 7.5 C-67.784 8.108 -67.784 8.108 -70 7 C-71.633 7.234 -73.266 7.472 -74.895 7.733 C-78.895 8.24 -82.912 8.146 -86.938 8.125 C-87.851 8.123 -88.765 8.121 -89.706 8.119 C-97.832 8.068 -105.9 7.642 -114 7 C-112 4 -112 4 -110.25 3.25 C-108 3 -108 3 -105.486 3.474 C-100.961 4.157 -96.539 4.162 -91.969 4.168 C-90.504 4.174 -90.504 4.174 -89.01 4.181 C-85.84 4.19 -82.67 4.19 -79.5 4.188 C-78.422 4.188 -77.344 4.188 -76.234 4.188 C-55.091 4.171 -34.112 3.676 -13.184 0.41 C-8.774 -0.158 -4.436 -0.184 0 0 Z " fill="#00384E" transform="translate(421,681)"/>
<path d="M0 0 C0.904 0.028 1.807 0.055 2.738 0.084 C8.391 0.373 12.775 1.457 17.842 3.992 C19.923 5.08 19.923 5.08 23 6 C25.875 6.98 28.206 8.292 30.75 9.938 C30.09 10.268 29.43 10.597 28.75 10.938 C26.767 10.211 24.786 9.479 22.82 8.707 C17.056 6.564 10.831 6.566 4.75 6.938 C3.76 7.433 3.76 7.433 2.75 7.938 C3.889 7.994 3.889 7.994 5.051 8.051 C6.045 8.117 7.039 8.182 8.062 8.25 C9.049 8.308 10.035 8.366 11.051 8.426 C13.994 8.984 14.932 9.623 16.75 11.938 C16.076 11.774 15.402 11.61 14.707 11.441 C11.236 10.85 7.957 10.842 4.438 10.875 C3.183 10.884 1.929 10.893 0.637 10.902 C-0.316 10.914 -1.269 10.926 -2.25 10.938 C-1.92 9.288 -1.59 7.638 -1.25 5.938 C-6.349 4.701 -11.226 4.263 -16.25 5.938 C-15.25 2.938 -15.25 2.938 -13.328 1.246 C-8.826 -0.668 -4.821 -0.287 0 0 Z " fill="#065A5D" transform="translate(345.25,897.0625)"/>
<path d="M0 0 C4.099 2.212 7.013 4.765 10.152 8.164 C17.852 15.813 26.728 18.828 37.375 19.25 C42.769 19.213 45.569 18.032 49.938 14.938 C50.928 14.278 51.918 13.617 52.938 12.938 C51.441 16.746 49.277 18.632 45.938 20.938 C37.054 23.918 27.05 22.507 18.746 18.625 C14.8 16.254 11.619 13.327 8.293 10.164 C2.802 4.974 -1.492 1.609 -9.25 1.312 C-14.433 1.57 -17.177 2.563 -21.062 5.938 C-22.053 6.433 -22.053 6.433 -23.062 6.938 C-21.568 3.133 -19.368 1.276 -16.062 -1.062 C-10.111 -3.046 -5.6 -2.603 0 0 Z " fill="#D3F7F8" transform="translate(498.0625,900.0625)"/>
<path d="M0 0 C4.905 3.676 8.755 8.605 12.512 13.41 C15.354 17.046 17.77 18.79 22.043 20.531 C25.701 20.891 25.701 20.891 29.418 20.719 C31.286 20.678 31.286 20.678 33.191 20.637 C34.603 20.585 34.603 20.585 36.043 20.531 C34.225 22.893 33.337 23.488 30.336 23.93 C21.614 23.864 16.689 22.286 10.043 16.531 C7.689 13.528 5.516 10.431 3.324 7.309 C0.229 3.541 -2.13 1.815 -6.973 1.062 C-13.879 0.996 -18.491 1.592 -24.25 5.535 C-24.813 5.864 -25.377 6.193 -25.957 6.531 C-26.617 6.201 -27.277 5.871 -27.957 5.531 C-19.235 -1.351 -10.714 -5.988 0 0 Z " fill="#DBF8FA" transform="translate(646.95703125,904.46875)"/>
<path d="M0 0 C0.33 0 0.66 0 1 0 C1 2.97 1 5.94 1 9 C-0.65 9.66 -2.3 10.32 -4 11 C-4 11.66 -4 12.32 -4 13 C-11.817 18.043 -18.786 19.274 -28 18 C-34.912 15.984 -42.453 12.711 -48 8 C-48.33 7.01 -48.66 6.02 -49 5 C-44.725 6.643 -40.742 8.647 -36.695 10.781 C-30.641 13.519 -25.222 14.303 -18.688 14.188 C-17.973 14.187 -17.258 14.186 -16.521 14.186 C-12.632 14.212 -12.632 14.212 -9 13 C-8.732 12.402 -8.464 11.804 -8.188 11.188 C-7 9 -7 9 -4.438 7 C-1.871 4.895 -1.437 4.168 -1 1 C-0.67 0.67 -0.34 0.34 0 0 Z " fill="#02474A" transform="translate(552,910)"/>
<path d="M0 0 C7.612 3.349 14.737 7.399 21.801 11.777 C24.81 13.45 27.647 14.271 31 15 C31 15.33 31 15.66 31 16 C22.056 16.139 16.412 12.643 9 8 C-2.829 1.332 -15.989 -1.243 -29.512 1.512 C-30.248 1.753 -30.248 1.753 -31 2 C-23.138 -6.648 -9.877 -3.489 0 0 Z " fill="#C9F3F6" transform="translate(367,896)"/>
<path d="M0 0 C5.12 3.508 8.284 8.529 11.809 13.543 C15.8 18.923 19.645 20.174 26.035 21.289 C27.908 21.553 29.783 21.808 31.66 22.039 C31.66 22.369 31.66 22.699 31.66 23.039 C24.558 23.841 19.082 24.119 13.285 19.539 C9.127 15.721 4.935 11.658 1.66 7.039 C1.66 6.379 1.66 5.719 1.66 5.039 C1 5.039 0.34 5.039 -0.34 5.039 C-0.34 4.379 -0.34 3.719 -0.34 3.039 C-5.742 1.238 -12.298 0.929 -17.695 2.898 C-19.006 3.598 -20.303 4.325 -21.582 5.082 C-24.071 6.437 -26.547 6.76 -29.34 7.039 C-26.953 4.275 -24.733 3.302 -21.34 2.039 C-20.515 1.503 -19.69 0.967 -18.84 0.414 C-12.89 -1.924 -6.021 -2.473 0 0 Z " fill="#10A7AE" transform="translate(645.33984375,905.9609375)"/>
<path d="M0 0 C11.593 -0.666 19.737 2.137 29 9 C30.937 10.417 32.875 11.834 34.812 13.25 C35.706 13.915 36.599 14.58 37.52 15.266 C42.042 18.428 44.841 19.293 50.438 19.312 C52.106 19.338 52.106 19.338 53.809 19.363 C57.285 18.968 59.172 18.004 62 16 C61.061 18.347 60.431 19.724 58.273 21.105 C53.004 23.179 46.813 22.849 41.449 21.23 C36.276 18.834 31.991 15.48 27.562 11.938 C18.667 4.84 10.28 2.436 -1 2 C-0.67 1.34 -0.34 0.68 0 0 Z " fill="#CAF4F5" transform="translate(490,889)"/>
<path d="M0 0 C-2.55 6.026 -7.65 11.277 -13 15 C-17.294 16.642 -21.438 17.5 -26 18 C-26.33 17.01 -26.66 16.02 -27 15 C-27.557 15.227 -28.114 15.454 -28.688 15.688 C-31.96 16.13 -33.42 14.935 -36 13 C-36 12.34 -36 11.68 -36 11 C-36.557 10.938 -37.114 10.876 -37.688 10.812 C-41.483 9.479 -44.212 6.577 -46 3 C-42.685 3.588 -40.994 4.64 -38.562 6.938 C-32.993 12.197 -27.524 12.429 -20.109 12.328 C-14.901 11.778 -12.643 9.643 -9 6 C-8.01 6 -7.02 6 -6 6 C-5.67 4.35 -5.34 2.7 -5 1 C-2 0 -2 0 0 0 Z " fill="#001B1E" transform="translate(693,921)"/>
<path d="M0 0 C3.371 1.551 5.492 3.515 8.156 6.059 C13.579 11.147 18.656 14.707 25.434 17.809 C28 19 28 19 31 21 C29.541 20.859 28.083 20.712 26.625 20.562 C25.407 20.441 25.407 20.441 24.164 20.316 C22 20 22 20 20 19 C20 18.34 20 17.68 20 17 C19.092 16.918 18.185 16.835 17.25 16.75 C13.542 15.894 12.498 14.756 10 12 C9.01 11.67 8.02 11.34 7 11 C6.402 10.031 5.804 9.061 5.188 8.062 C2.582 4.414 1.345 3.836 -3 3 C-10.862 1.916 -16.235 5.211 -23 9 C-21.42 5.554 -20.502 4.501 -17 3 C-15.879 2.242 -15.879 2.242 -14.734 1.469 C-10.024 -1.061 -5.207 -0.613 0 0 Z " fill="#1CA4AE" transform="translate(495,901)"/>
<path d="M0 0 C4.416 0.431 7.454 1.668 11.234 3.969 C13.379 5.221 15.627 6.145 17.922 7.086 C20.65 8.286 23.283 9.646 25.938 11 C29.353 12.729 32.703 14.347 36.312 15.625 C39.512 16.818 42.149 18.26 45.059 20.016 C48.825 21.925 52.933 22.92 57 24 C57 24.66 57 25.32 57 26 C53.37 25.67 49.74 25.34 46 25 C46 24.34 46 23.68 46 23 C45.408 22.818 44.817 22.636 44.207 22.449 C43.022 22.072 43.022 22.072 41.812 21.688 C41.035 21.444 40.258 21.2 39.457 20.949 C37 20 37 20 34.805 18.68 C29.975 15.787 24.795 13.58 19.686 11.229 C18.857 10.842 18.029 10.456 17.176 10.059 C16.422 9.711 15.668 9.364 14.892 9.006 C13 8 13 8 11 6 C8.435 4.907 5.832 3.961 3.215 3 C1 2 1 2 0 0 Z " fill="#007085" transform="translate(168,634)"/>
<path d="M0 0 C8.826 -0.663 14.732 1.066 22 6.062 C25.728 9.386 28.697 13.451 31.754 17.379 C34.797 20.93 37.533 23.511 42 25 C43.895 25.069 45.792 25.085 47.688 25.062 C48.681 25.053 49.675 25.044 50.699 25.035 C51.458 25.024 52.218 25.012 53 25 C51.377 26.947 50.478 27.907 47.949 28.398 C47.203 28.391 46.456 28.383 45.688 28.375 C44.58 28.387 44.58 28.387 43.449 28.398 C37.707 27.464 33.947 24.324 30 20.25 C29.135 19.364 28.27 18.479 27.379 17.566 C25.459 15.495 23.685 13.402 21.938 11.188 C16.224 4.402 8.512 2.191 0 1 C0 0.67 0 0.34 0 0 Z " fill="#D6F6F8" transform="translate(639,892)"/>
<path d="M0 0 C0.33 0.66 0.66 1.32 1 2 C1.928 1.959 2.856 1.918 3.812 1.875 C7 2 7 2 10 4 C11.176 4.433 12.351 4.866 13.562 5.312 C17 7 17 7 18.188 9.562 C18.456 10.367 18.724 11.171 19 12 C20.883 13.108 20.883 13.108 23 14 C25.25 16 25.25 16 27 18 C27 18.66 27 19.32 27 20 C27.66 20 28.32 20 29 20 C29.33 21.32 29.66 22.64 30 24 C23.552 20.579 18.415 16.53 13.375 11.25 C10.222 8.263 7.599 7.186 3.312 6.688 C2.549 6.461 1.786 6.234 1 6 C-0.312 3.438 -0.312 3.438 -1 1 C-0.67 0.67 -0.34 0.34 0 0 Z " fill="#017273" transform="translate(637,892)"/>
<path d="M0 0 C15.338 0.488 25.753 4.736 37 15 C37 15.66 37 16.32 37 17 C39.64 18.32 42.28 19.64 45 21 C39.929 22.268 38.671 21.186 34.359 18.664 C31.925 16.947 30.034 15.109 28 12.938 C20.096 4.725 9.787 3.747 -1 2 C-0.67 1.34 -0.34 0.68 0 0 Z " fill="#1AAAAD" transform="translate(487,890)"/>
<path d="M0 0 C1.505 0.95 3.004 1.91 4.5 2.875 C5.753 3.676 5.753 3.676 7.031 4.492 C7.681 4.99 8.331 5.487 9 6 C9 6.66 9 7.32 9 8 C9.639 8.309 10.279 8.619 10.938 8.938 C13 10 13 10 14 11 C16.35 11.235 18.706 11.414 21.062 11.562 C22.353 11.646 23.643 11.73 24.973 11.816 C25.972 11.877 26.971 11.938 28 12 C27.34 13.32 26.68 14.64 26 16 C10.255 16.923 10.255 16.923 3 11 C3.66 10.67 4.32 10.34 5 10 C5.99 10.33 6.98 10.66 8 11 C6.019 8.454 4.066 6.064 1.75 3.812 C0 2 0 2 0 0 Z " fill="#05686A" transform="translate(658,910)"/>
<path d="M0 0 C11.081 -0.52 22.418 0.473 33 4 C33.495 4.99 33.495 4.99 34 6 C35.641 7.041 37.307 8.045 39 9 C38.34 9.66 37.68 10.32 37 11 C36.34 10.67 35.68 10.34 35 10 C35 9.34 35 8.68 35 8 C34.336 8.205 33.672 8.41 32.988 8.621 C29.093 9.115 25.885 8.156 22.188 7.062 C21.495 6.867 20.802 6.672 20.088 6.471 C18.389 5.99 16.694 5.497 15 5 C15.33 4.01 15.66 3.02 16 2 C15.01 2 14.02 2 13 2 C12.67 2.66 12.34 3.32 12 4 C10.928 3.649 9.855 3.299 8.75 2.938 C4.746 1.933 4.746 1.933 1 3 C0.67 2.01 0.34 1.02 0 0 Z " fill="#007286" transform="translate(203,590)"/>
<path d="M0 0 C4.52 0.471 8.315 1.358 12.57 3.047 C15.67 4.263 18.801 5.38 21.938 6.5 C23.136 6.929 24.335 7.359 25.57 7.801 C28.472 8.815 31.381 9.765 34.312 10.688 C38 12 38 12 39 14 C36.667 13.667 34.333 13.333 32 13 C30.804 12.835 29.608 12.67 28.375 12.5 C25.557 12.083 22.785 11.591 20 11 C20 10.34 20 9.68 20 9 C18.907 8.856 17.814 8.711 16.688 8.562 C13 8 13 8 10 7 C10 6.34 10 5.68 10 5 C8.948 5.062 8.948 5.062 7.875 5.125 C4.616 4.983 2.044 4.133 -1 3 C-0.67 2.01 -0.34 1.02 0 0 Z " fill="#00798E" transform="translate(101,564)"/>
<path d="M0 0 C21.435 4.435 21.435 4.435 25 8 C27.309 8.847 29.645 9.524 32.004 10.219 C34 11 34 11 35 13 C27.822 13.542 22.623 11.61 16 9 C14.275 8.404 12.546 7.82 10.812 7.25 C10.076 7.008 9.34 6.765 8.582 6.516 C8.06 6.345 7.538 6.175 7 6 C7 5.34 7 4.68 7 4 C6.216 3.897 5.433 3.794 4.625 3.688 C2 3 2 3 0 0 Z " fill="#006278" transform="translate(70,551)"/>
<path d="M0 0 C0.66 0 1.32 0 2 0 C1.34 1.98 0.68 3.96 0 6 C-1.65 6.33 -3.3 6.66 -5 7 C-5.093 8.145 -5.093 8.145 -5.188 9.312 C-6 12 -6 12 -8.188 13.562 C-9.116 14.037 -10.044 14.511 -11 15 C-11.825 15.722 -12.65 16.444 -13.5 17.188 C-19.149 20.113 -26.074 20.234 -32.176 18.316 C-33.812 17.5 -33.812 17.5 -36 16 C-36 15.67 -36 15.34 -36 15 C-35.13 15.031 -35.13 15.031 -34.243 15.063 C-31.6 15.147 -28.957 15.199 -26.312 15.25 C-25.4 15.284 -24.488 15.317 -23.549 15.352 C-17.991 15.449 -17.991 15.449 -13.043 13.109 C-12.369 12.413 -11.695 11.717 -11 11 C-10.01 10.34 -9.02 9.68 -8 9 C-7.691 8.34 -7.381 7.68 -7.062 7 C-5.74 4.51 -4.5 4.172 -2 3 C-1.34 2.01 -0.68 1.02 0 0 Z " fill="#024144" transform="translate(693,915)"/>
<path d="M0 0 C1 3 1 3 1 5 C1.996 5.112 1.996 5.112 3.012 5.227 C11.122 6.434 11.122 6.434 14.125 10.125 C14.744 11.074 15.362 12.023 16 13 C13.386 12.552 11.157 12.074 8.75 10.938 C4.073 9.343 -0.588 9.076 -5.254 10.863 C-6.611 11.551 -7.954 12.27 -9.273 13.027 C-11 14 -11 14 -14 15 C-12.549 11.175 -10.618 9.809 -7 8 C-6.34 8 -5.68 8 -5 8 C-4.918 7.237 -4.835 6.474 -4.75 5.688 C-3.854 2.476 -2.784 1.706 0 0 Z " fill="#055555" transform="translate(635,893)"/>
<path d="M0 0 C5.723 1.559 11.295 3.428 16.875 5.438 C17.741 5.737 18.608 6.037 19.5 6.346 C20.322 6.643 21.145 6.94 21.992 7.246 C22.738 7.511 23.485 7.776 24.253 8.049 C26 9 26 9 27 12 C25.762 11.567 24.525 11.134 23.25 10.688 C11.999 6.99 -0.53 2.902 -12 8 C-12 7.01 -12 6.02 -12 5 C-11.34 5 -10.68 5 -10 5 C-10 4.34 -10 3.68 -10 3 C-9.043 2.927 -9.043 2.927 -8.066 2.852 C-7.24 2.777 -6.414 2.702 -5.562 2.625 C-4.327 2.521 -4.327 2.521 -3.066 2.414 C-2.044 2.209 -2.044 2.209 -1 2 C-0.67 1.34 -0.34 0.68 0 0 Z " fill="#014447" transform="translate(349,888)"/>
<path d="M0 0 C0.99 0.33 1.98 0.66 3 1 C-0.167 3.687 -3.364 5.811 -7 7.809 C-9.337 9.201 -11.49 10.773 -13.688 12.375 C-18.332 15.686 -23.157 18.185 -28.293 20.645 C-30.535 21.767 -32.522 22.932 -34.562 24.375 C-37 26 -37 26 -40 26 C-40 25.34 -40 24.68 -40 24 C-38.991 23.428 -37.981 22.855 -36.941 22.266 C-33.239 20.15 -29.586 17.958 -25.938 15.75 C-20.711 12.605 -15.469 9.49 -10.188 6.438 C-8.476 5.446 -8.476 5.446 -6.73 4.434 C-4 3 -4 3 -2 3 C-2 2.34 -2 1.68 -2 1 C-1.34 0.67 -0.68 0.34 0 0 Z " fill="#00687D" transform="translate(603,502)"/>
<path d="M0 0 C4.297 0.701 8.219 2.105 12.266 3.66 C13.717 4.209 15.168 4.758 16.62 5.306 C17.376 5.593 18.133 5.88 18.912 6.176 C34.133 11.947 49.419 17.27 65 22 C57.725 24.002 50.788 20.62 44 18 C43.34 18 42.68 18 42 18 C42 17.34 42 16.68 42 16 C40.928 15.938 39.855 15.876 38.75 15.812 C32.746 15.085 27.479 12.426 22 10 C19.471 8.964 16.968 7.989 14.375 7.125 C9.547 5.516 4.778 3.751 0 2 C0 1.34 0 0.68 0 0 Z " fill="#01485D" transform="translate(156,499)"/>
<path d="M0 0 C0 0.33 0 0.66 0 1 C-10.495 0.462 -20.668 -1.156 -31 -3 C-30.67 -3.66 -30.34 -4.32 -30 -5 C-19.336 -7.256 -9.018 -6.315 0 0 Z " fill="#005B5E" transform="translate(367,917)"/>
<path d="M0 0 C0.66 0.66 1.32 1.32 2 2 C-7.091 10.687 -7.091 10.687 -13 12 C-14.423 12.619 -14.423 12.619 -15.875 13.25 C-19.522 14.125 -21.566 13.62 -25.07 12.508 C-27.312 11.83 -27.312 11.83 -31 12 C-31 11.34 -31 10.68 -31 10 C-32.299 9.876 -33.599 9.753 -34.938 9.625 C-37.152 9.414 -37.152 9.414 -39 9 C-39.33 8.34 -39.66 7.68 -40 7 C-38.02 7 -36.04 7 -34 7 C-34 7.66 -34 8.32 -34 9 C-30.667 9.117 -27.334 9.188 -24 9.25 C-23.065 9.284 -22.131 9.317 -21.168 9.352 C-15.111 9.436 -9.893 8.882 -5 5 C-4.67 4.01 -4.34 3.02 -4 2 C-1.938 0.812 -1.938 0.812 0 0 Z " fill="#001D22" transform="translate(552,919)"/>
<path d="M0 0 C2.321 0.981 4.425 2.109 6.598 3.387 C8.249 4.348 8.249 4.348 9.934 5.328 C19.716 11.152 19.716 11.152 22.598 14.387 C15.907 12.541 10.375 9.729 4.472 6.168 C-2.118 2.227 -7.78 1.697 -15.402 2.387 C-18.363 3.791 -18.363 3.791 -20.402 5.387 C-21.062 5.057 -21.722 4.727 -22.402 4.387 C-15.485 -1.256 -8.875 -2.266 0 0 Z " fill="#C3F3F5" transform="translate(359.40234375,907.61328125)"/>
<path d="M0 0 C7.318 0.163 12.048 4.07 18 8 C24.854 12.086 32.305 11.267 40 11 C39.34 11.99 38.68 12.98 38 14 C23.88 15.587 13.979 11.591 3 3 C1.987 2.013 0.984 1.016 0 0 Z " fill="#38C4D1" transform="translate(363,909)"/>
<path d="M0 0 C0.66 0 1.32 0 2 0 C2 1.65 2 3.3 2 5 C3.32 4.67 4.64 4.34 6 4 C6 4.66 6 5.32 6 6 C5.34 6 4.68 6 4 6 C3.67 8.31 3.34 10.62 3 13 C2.67 13 2.34 13 2 13 C2 11.35 2 9.7 2 8 C0.964 8.023 -0.073 8.046 -1.141 8.07 C-2.51 8.089 -3.88 8.107 -5.25 8.125 C-5.932 8.142 -6.614 8.159 -7.316 8.176 C-11.061 8.212 -13.824 8.079 -17 6 C-17 5.67 -17 5.34 -17 5 C-16.348 4.963 -15.695 4.925 -15.023 4.887 C-6.837 4.295 -6.837 4.295 0 0 Z " fill="#003638" transform="translate(402,912)"/>
<path d="M0 0 C5.281 0.515 8.572 2.255 13 5 C13 5.66 13 6.32 13 7 C13.866 7.289 14.733 7.577 15.625 7.875 C16.739 8.246 17.852 8.617 19 9 C20.093 9.33 21.186 9.66 22.312 10 C25 11 25 11 26 13 C28.784 13.854 31.595 14.473 34.434 15.121 C37 16 37 16 39 19 C30.185 16.453 22.208 13.762 14.23 9.203 C9.042 6.404 3.859 4.732 -2 4 C-1.34 3.67 -0.68 3.34 0 3 C0 2.01 0 1.02 0 0 Z " fill="#00586F" transform="translate(48,537)"/>
<path d="M0 0 C0.66 1.32 1.32 2.64 2 4 C-4.464 10.823 -4.464 10.823 -9.797 11.195 C-10.771 11.172 -11.746 11.149 -12.75 11.125 C-13.735 11.107 -14.72 11.089 -15.734 11.07 C-16.856 11.036 -16.856 11.036 -18 11 C-17.297 9.059 -17.297 9.059 -16 7 C-13.828 6.348 -13.828 6.348 -11.25 6.062 C-6.07 5.244 -3.676 3.676 0 0 Z " fill="#025E5D" transform="translate(548,909)"/>
<path d="M0 0 C9.049 2.357 17.293 7.862 25 13 C19.419 12.543 15.659 10.912 10.875 8 C3.952 4.031 -1.959 2.821 -10 3 C-11.667 3 -13.333 3 -15 3 C-10.332 -1.092 -5.944 -0.698 0 0 Z " fill="#1DA1A7" transform="translate(355,909)"/>
<path d="M0 0 C2.495 0.986 4.974 1.989 7.43 3.07 C12.562 5.284 16.411 6.486 22 6 C22.33 6.66 22.66 7.32 23 8 C18.002 10.05 13.335 10.907 8 10 C4.399 8.369 0.811 6.622 -1 3 C0.32 3 1.64 3 3 3 C2.01 2.01 1.02 1.02 0 0 Z " fill="#05898E" transform="translate(377,905)"/>
<path d="M0 0 C0 0.66 0 1.32 0 2 C1.98 2.66 3.96 3.32 6 4 C3.665 5.167 2.382 5.089 -0.211 5.027 C-1.044 5.015 -1.876 5.003 -2.734 4.99 C-4.487 4.955 -6.24 4.916 -7.992 4.873 C-8.827 4.862 -9.663 4.851 -10.523 4.84 C-11.286 4.823 -12.048 4.806 -12.833 4.789 C-15.284 5.028 -16.834 5.875 -19 7 C-21.25 6.625 -21.25 6.625 -23 6 C-21.346 4.979 -19.676 3.984 -18 3 C-17.154 2.443 -16.309 1.886 -15.438 1.312 C-10.338 -0.635 -5.397 -0.236 0 0 Z " fill="#025D61" transform="translate(492,905)"/>
<path d="M0 0 C1.276 -0.018 1.276 -0.018 2.578 -0.037 C6.986 -0.047 10.684 -0.043 14.625 2.188 C15.938 4.312 15.938 4.312 16.625 6.188 C13.23 5.78 10.14 5.385 6.938 4.156 C2.775 2.939 -0.944 2.968 -5.25 3.062 C-6.034 3.072 -6.817 3.081 -7.625 3.09 C-9.542 3.113 -11.458 3.149 -13.375 3.188 C-11.118 -1.326 -4.391 0.003 0 0 Z " fill="#002D31" transform="translate(486.375,908.8125)"/>
<path d="M0 0 C9.804 0.455 19.595 1.049 29.375 1.875 C30.272 1.941 31.169 2.007 32.093 2.076 C33.358 2.189 33.358 2.189 34.648 2.305 C35.393 2.366 36.137 2.428 36.904 2.492 C39 3 39 3 43 6 C39.37 6 35.74 6 32 6 C32 5.34 32 4.68 32 4 C31.397 4.084 30.793 4.168 30.172 4.254 C28.973 4.407 28.973 4.407 27.75 4.562 C26.961 4.667 26.172 4.771 25.359 4.879 C22.987 5.001 21.279 4.579 19 4 C18.01 4.495 18.01 4.495 17 5 C16.01 4.67 15.02 4.34 14 4 C14 3.34 14 2.68 14 2 C13.361 2.206 12.721 2.413 12.062 2.625 C7.787 3.148 4.127 2.088 0 1 C0 0.67 0 0.34 0 0 Z " fill="#014C60" transform="translate(297,538)"/>
<path d="M0 0 C3.33 -0.517 6.706 -0.132 10.062 0.062 C10.98 0.09 11.897 0.118 12.842 0.146 C18.551 0.434 22.982 1.489 28.098 4.054 C30.174 5.144 30.174 5.144 33.25 6.062 C36.125 7.043 38.456 8.354 41 10 C40.34 10.33 39.68 10.66 39 11 C36.953 10.278 34.936 9.471 32.938 8.625 C27.465 6.43 22.868 5.298 17 5 C17 4.34 17 3.68 17 3 C10.73 3 4.46 3 -2 3 C-1.34 2.01 -0.68 1.02 0 0 Z " fill="#027C7F" transform="translate(335,897)"/>
<path d="M0 0 C1.32 0 2.64 0 4 0 C4 0.66 4 1.32 4 2 C6.238 2.575 8.473 3.1 10.734 3.578 C18.893 5.396 25.172 7.906 31 14 C30.67 14.66 30.34 15.32 30 16 C29.34 16 28.68 16 28 16 C27.67 15.34 27.34 14.68 27 14 C26.051 13.691 25.102 13.381 24.125 13.062 C21.058 12.02 20.098 11.298 18 9 C17.01 8.67 16.02 8.34 15 8 C15 7.34 15 6.68 15 6 C14.078 6.052 14.078 6.052 13.137 6.105 C12.328 6.133 11.52 6.16 10.688 6.188 C9.487 6.24 9.487 6.24 8.262 6.293 C5.473 5.932 4.838 5.044 3 3 C2.01 2.67 1.02 2.34 0 2 C0 1.34 0 0.68 0 0 Z " fill="#007086" transform="translate(39,537)"/>
<path d="M0 0 C16.83 0 33.66 0 51 0 C51 0.66 51 1.32 51 2 C49.946 2.025 48.892 2.05 47.806 2.076 C43.872 2.171 39.938 2.271 36.004 2.372 C34.305 2.415 32.607 2.457 30.909 2.497 C28.459 2.556 26.009 2.619 23.559 2.684 C22.432 2.709 22.432 2.709 21.282 2.734 C17.812 2.83 14.458 3.038 11.028 3.582 C10.028 3.72 9.029 3.858 8 4 C7.67 3.67 7.34 3.34 7 3 C5 2.959 3 2.957 1 3 C0.67 2.01 0.34 1.02 0 0 Z " fill="#007285" transform="translate(342,609)"/>
<path d="M0 0 C1.96 0.45 3.918 0.91 5.875 1.375 C7.511 1.758 7.511 1.758 9.18 2.148 C12 3 12 3 14 5 C12.48 5.255 12.48 5.255 10.93 5.516 C9.578 5.76 8.226 6.005 6.875 6.25 C5.877 6.414 5.877 6.414 4.859 6.582 C0.039 7.48 -3.082 9.047 -7 12 C-7 10.68 -7 9.36 -7 8 C-5.68 7.67 -4.36 7.34 -3 7 C-3 6.34 -3 5.68 -3 5 C-2.34 5 -1.68 5 -1 5 C-0.67 3.35 -0.34 1.7 0 0 Z " fill="#065458" transform="translate(483,892)"/>
<path d="M0 0 C3.31 0.342 5.654 0.934 8.625 2.375 C8.326 5.963 7.855 7.157 5.188 9.688 C2.625 11.375 2.625 11.375 0.625 11.375 C0.666 10.426 0.707 9.477 0.75 8.5 C0.975 5.273 0.975 5.273 -1.375 3.375 C-3.978 3.695 -3.978 3.695 -6.375 4.375 C-4.586 1.007 -3.887 0.432 0 0 Z " fill="#012227" transform="translate(335.375,900.625)"/>
<path d="M0 0 C5.338 0.8 10.086 3.113 14.918 5.438 C14.918 6.097 14.918 6.758 14.918 7.438 C13.313 7.323 11.709 7.196 10.105 7.062 C9.212 6.993 8.319 6.923 7.398 6.852 C4.918 6.438 4.918 6.438 1.918 4.438 C-1.05 3.978 -1.05 3.978 -4.27 3.812 C-5.356 3.738 -6.443 3.663 -7.562 3.586 C-8.394 3.537 -9.225 3.488 -10.082 3.438 C-7.025 -0.235 -4.577 -0.108 0 0 Z " fill="#004344" transform="translate(357.08203125,902.5625)"/>
<path d="M0 0 C0.99 0.33 1.98 0.66 3 1 C2.01 2.65 1.02 4.3 0 6 C-1 3 -1 3 0 0 Z M-32 8 C-29.042 8.413 -26.463 8.781 -23.75 10.062 C-17.861 12.07 -11.588 11.709 -6 9 C-5.01 9 -4.02 9 -3 9 C-7.993 14.125 -11.941 14.847 -19 15 C-19 14.34 -19 13.68 -19 13 C-20.299 12.814 -20.299 12.814 -21.625 12.625 C-24.917 12.015 -27.887 11.231 -31 10 C-31.33 9.34 -31.66 8.68 -32 8 Z " fill="#001F21" transform="translate(408,920)"/>
<path d="M0 0 C1.439 0.087 2.876 0.196 4.312 0.312 C5.113 0.371 5.914 0.429 6.738 0.488 C9.41 1.093 10.219 1.98 12 4 C12.866 4.516 13.732 5.031 14.625 5.562 C17 7 17 7 18 9 C13.173 7.587 9.284 5.57 5 3 C5 3.99 5 4.98 5 6 C6.32 6.66 7.64 7.32 9 8 C8.67 8.99 8.34 9.98 8 11 C7.518 10.578 7.036 10.157 6.539 9.723 C5.907 9.175 5.276 8.627 4.625 8.062 C3.999 7.517 3.372 6.972 2.727 6.41 C1.044 4.93 1.044 4.93 -1 4 C-0.67 2.68 -0.34 1.36 0 0 Z " fill="#036D6F" transform="translate(502,899)"/>
<path d="M0 0 C1.063 0.005 2.127 0.01 3.223 0.016 C4.284 0.01 5.344 0.005 6.438 0 C9.285 0.266 9.285 0.266 12.285 2.266 C12.285 2.926 12.285 3.586 12.285 4.266 C12.945 4.266 13.605 4.266 14.285 4.266 C16.012 6.016 16.012 6.016 17.91 8.266 C18.858 9.379 18.858 9.379 19.824 10.516 C20.547 11.382 20.547 11.382 21.285 12.266 C20.955 12.926 20.625 13.586 20.285 14.266 C19.682 13.7 19.079 13.134 18.457 12.551 C17.658 11.817 16.859 11.084 16.035 10.328 C15.246 9.597 14.457 8.866 13.645 8.113 C11.395 6.351 10.069 5.668 7.285 5.266 C7.285 4.606 7.285 3.946 7.285 3.266 C3.325 2.936 -0.635 2.606 -4.715 2.266 C-2.715 0.266 -2.715 0.266 0 0 Z " fill="#027A7D" transform="translate(632.71484375,906.734375)"/>
<path d="M0 0 C-3.029 1.691 -5.709 2.442 -9.125 3 C-12.763 3.618 -16.385 4.261 -20 5 C-22.5 5.5 -22.5 5.5 -25 6 C-25.92 6.188 -26.841 6.376 -27.789 6.57 C-33.306 7.649 -38.379 8.212 -44 8 C-44 7.67 -44 7.34 -44 7 C-43.442 6.895 -42.885 6.789 -42.31 6.68 C-23.923 3.495 -23.923 3.495 -5.738 -0.609 C-3.562 -1.098 -2.099 -0.675 0 0 Z " fill="#00334A" transform="translate(465,673)"/>
<path d="M0 0 C1.438 0.115 2.876 0.242 4.312 0.375 C5.513 0.479 5.513 0.479 6.738 0.586 C9 1 9 1 12 3 C13.674 3.507 15.364 3.96 17.062 4.375 C21.803 5.606 26.217 7.194 30.711 9.133 C33.124 10.047 35.461 10.56 38 11 C38 11.33 38 11.66 38 12 C30.162 11.847 24.027 10.521 16.898 7.266 C13.392 5.734 9.856 4.723 6.156 3.773 C3.704 2.894 2.003 1.648 0 0 Z " fill="#006479" transform="translate(105,564)"/>
<path d="M0 0 C0.99 0.33 1.98 0.66 3 1 C0.679 4.482 -0.081 4.833 -4 6 C-6.992 6.442 -9.986 6.75 -13 7 C-9.838 8.054 -7.131 8.313 -3.812 8.562 C-2.726 8.646 -1.639 8.73 -0.52 8.816 C0.312 8.877 1.143 8.938 2 9 C2 9.33 2 9.66 2 10 C-11.633 10.554 -11.633 10.554 -18 7 C-17.34 5.68 -16.68 4.36 -16 3 C-16.99 2.67 -17.98 2.34 -19 2 C-18.34 1.67 -17.68 1.34 -17 1 C-16.01 1.66 -15.02 2.32 -14 3 C-9.036 3.632 -4.495 3.32 0 1 C0 0.67 0 0.34 0 0 Z " fill="#025D5F" transform="translate(399,911)"/>
<path d="M0 0 C0.66 0.33 1.32 0.66 2 1 C-0.707 2.914 -3.424 4.813 -6.145 6.706 C-7.512 7.66 -8.878 8.617 -10.242 9.575 C-12.739 11.328 -15.244 13.071 -17.75 14.812 C-18.566 15.388 -19.381 15.963 -20.222 16.555 C-24.375 19.428 -28.034 21.742 -33 23 C-33 22.34 -33 21.68 -33 21 C-31.986 20.429 -30.971 19.858 -29.926 19.27 C-26.277 17.183 -22.718 14.969 -19.188 12.688 C-18.586 12.3 -17.984 11.913 -17.364 11.514 C-12.795 8.555 -8.319 5.48 -3.891 2.312 C-2 1 -2 1 0 0 Z " fill="#00697D" transform="translate(639,479)"/>
<path d="M0 0 C5.653 1.84 5.653 1.84 8.312 3.062 C12.135 4.396 15.981 4.667 20 5 C19.01 6.485 19.01 6.485 18 8 C10.096 9.243 3.721 8.217 -3 4 C-3 3.34 -3 2.68 -3 2 C-1.577 2.495 -1.577 2.495 -0.125 3 C2.771 4.102 2.771 4.102 5 4 C4.175 3.526 3.35 3.051 2.5 2.562 C1.675 2.047 0.85 1.531 0 1 C0 0.67 0 0.34 0 0 Z " fill="#098C8F" transform="translate(523,906)"/>
<path d="M0 0 C7.909 1.033 14.707 2.817 22 6 C23.538 6.594 25.079 7.178 26.625 7.75 C27.739 8.163 28.852 8.575 30 9 C26.173 10.144 24.682 9.542 21 8 C18.668 7.661 16.334 7.328 14 7 C11.993 6.356 9.991 5.694 8 5 C7.34 5 6.68 5 6 5 C6 4.34 6 3.68 6 3 C4.02 2.34 2.04 1.68 0 1 C0 0.67 0 0.34 0 0 Z " fill="#006178" transform="translate(219,659)"/>
<path d="M0 0 C-3.094 1.805 -5.278 2.232 -8.844 2.16 C-9.76 2.149 -10.677 2.138 -11.621 2.127 C-12.571 2.106 -13.521 2.084 -14.5 2.062 C-16.385 2.028 -18.271 1.998 -20.156 1.973 C-20.99 1.955 -21.823 1.937 -22.682 1.918 C-24.937 1.998 -26.841 2.366 -29 3 C-21.537 -5.209 -9.714 -2.407 0 0 Z " fill="#AAEDEF" transform="translate(365,895)"/>
<path d="M0 0 C-2.266 2.266 -4.335 2.882 -7.305 3.945 C-10.876 5.343 -14.338 6.941 -17.812 8.562 C-18.8 9.02 -18.8 9.02 -19.807 9.487 C-22.694 10.842 -25.341 12.227 -28 14 C-30.688 14.125 -30.688 14.125 -33 14 C-31.45 10.9 -28.409 10.461 -25.312 9.312 C-18.542 6.731 -12.207 3.652 -5.828 0.223 C-3 -1 -3 -1 0 0 Z " fill="#003951" transform="translate(617,601)"/>
<path d="M0 0 C4.475 -0.391 4.475 -0.391 6.816 1.355 C7.393 1.96 7.969 2.565 8.562 3.188 C13.367 7.724 18.857 9.778 25 12 C25 12.33 25 12.66 25 13 C23.541 12.859 22.083 12.712 20.625 12.562 C19.813 12.481 19.001 12.4 18.164 12.316 C16 12 16 12 14 11 C14 10.34 14 9.68 14 9 C13.092 8.918 12.185 8.835 11.25 8.75 C7.542 7.894 6.498 6.756 4 4 C3.01 3.67 2.02 3.34 1 3 C0.67 2.01 0.34 1.02 0 0 Z " fill="#09959A" transform="translate(501,909)"/>
<path d="M0 0 C7.093 0.756 14.015 2.134 21 3.562 C22.156 3.796 23.313 4.03 24.504 4.271 C27.336 4.845 30.168 5.421 33 6 C32.67 6.66 32.34 7.32 32 8 C31.051 7.814 30.103 7.629 29.125 7.438 C26.101 6.713 26.101 6.713 24 8 C22.212 7.588 20.442 7.097 18.688 6.562 C15.734 5.664 13.364 4.996 10.27 5.027 C8 5 8 5 6 3 C4.012 2.602 2.011 2.262 0 2 C0 1.34 0 0.68 0 0 Z " fill="#005369" transform="translate(272,666)"/>
<path d="M0 0 C2.236 0.497 4.209 1.091 6.313 2.013 C9.126 3.046 11.317 3.309 14.301 3.414 C15.277 3.453 16.254 3.491 17.26 3.531 C18.267 3.562 19.275 3.593 20.312 3.625 C21.853 3.683 21.853 3.683 23.424 3.742 C25.949 3.836 28.474 3.922 31 4 C31.33 4.66 31.66 5.32 32 6 C28.833 6.059 25.667 6.094 22.5 6.125 C21.613 6.142 20.726 6.159 19.812 6.176 C13.014 6.226 7.463 5.154 1 3 C0.67 2.01 0.34 1.02 0 0 Z " fill="#027E82" transform="translate(367,918)"/>
<path d="M0 0 C4.62 0.99 9.24 1.98 14 3 C14 3.66 14 4.32 14 5 C14.99 4.67 15.98 4.34 17 4 C17 4.99 17 5.98 17 7 C17.639 7.124 18.279 7.247 18.938 7.375 C19.958 7.684 19.958 7.684 21 8 C21.33 8.66 21.66 9.32 22 10 C20.561 9.913 19.124 9.804 17.688 9.688 C16.887 9.629 16.086 9.571 15.262 9.512 C12.588 8.907 11.857 7.937 10 6 C6.39 5.27 6.39 5.27 3 5 C3 4.34 3 3.68 3 3 C2.01 2.67 1.02 2.34 0 2 C0 1.34 0 0.68 0 0 Z " fill="#003045" transform="translate(83,651)"/>
<path d="M0 0 C0 0.99 0 1.98 0 3 C-5.688 8.43 -9.158 9.142 -17.062 9.125 C-18.905 9.129 -18.905 9.129 -20.785 9.133 C-24 9 -24 9 -27 8 C-27 7.34 -27 6.68 -27 6 C-25.173 6.07 -25.173 6.07 -23.309 6.141 C-21.685 6.178 -20.061 6.215 -18.438 6.25 C-17.238 6.3 -17.238 6.3 -16.014 6.352 C-10.125 6.448 -6.847 5.369 -2 2 C-1.34 1.34 -0.68 0.68 0 0 Z " fill="#B6EEF1" transform="translate(550,913)"/>
<path d="M0 0 C0 0.66 0 1.32 0 2 C-0.834 2.014 -1.668 2.028 -2.527 2.043 C-9.519 2.339 -14.439 3.108 -20.293 7.039 C-20.856 7.356 -21.42 7.673 -22 8 C-22.66 7.67 -23.32 7.34 -24 7 C-17.217 1.647 -8.96 -4.48 0 0 Z " fill="#ABE3E6" transform="translate(643,903)"/>
<path d="M0 0 C1.666 -0.043 3.334 -0.041 5 0 C5.33 0.33 5.66 0.66 6 1 C7.628 1.367 9.267 1.682 10.91 1.973 C12.394 2.239 12.394 2.239 13.908 2.51 C15.47 2.783 15.47 2.783 17.062 3.062 C18.107 3.249 19.152 3.435 20.229 3.627 C22.818 4.088 25.409 4.546 28 5 C27.67 5.66 27.34 6.32 27 7 C23.7 7 20.4 7 17 7 C17 6.34 17 5.68 17 5 C16.257 5.021 15.515 5.041 14.75 5.062 C12.26 5.006 10.372 4.689 8 4 C7.257 3.814 6.515 3.629 5.75 3.438 C5.173 3.293 4.595 3.149 4 3 C4 2.34 4 1.68 4 1 C3.01 1.33 2.02 1.66 1 2 C0.67 1.34 0.34 0.68 0 0 Z " fill="#007C90" transform="translate(141,578)"/>
<path d="M0 0 C1.98 0.66 3.96 1.32 6 2 C5.67 1.34 5.34 0.68 5 0 C5.619 0.289 6.237 0.577 6.875 0.875 C11.159 2.417 15.529 3.184 20 4 C19.67 4.66 19.34 5.32 19 6 C16.772 6.109 14.542 6.186 12.312 6.25 C11.071 6.296 9.83 6.343 8.551 6.391 C4.445 5.939 2.845 4.937 0 2 C0 1.34 0 0.68 0 0 Z " fill="#057F81" transform="translate(667,916)"/>
<path d="M0 0 C2 2 2 2 2.062 4.812 C0.598 9.207 -2.03 10.824 -6 13 C-9.015 14.005 -11.042 14.103 -14.188 14.062 C-15.539 14.049 -15.539 14.049 -16.918 14.035 C-17.605 14.024 -18.292 14.012 -19 14 C-19 13.67 -19 13.34 -19 13 C-18.112 12.961 -18.112 12.961 -17.207 12.922 C-11.848 12.537 -9.031 11.794 -5 8 C-4.01 7.67 -3.02 7.34 -2 7 C-0.77 3.488 -0.77 3.488 0 0 Z " fill="#002F30" transform="translate(406,918)"/>
<path d="M0 0 C0.681 0.088 1.361 0.175 2.062 0.266 C4 0.75 4 0.75 7 2.75 C-0.75 1.875 -0.75 1.875 -3 0.75 C-3.33 1.74 -3.66 2.73 -4 3.75 C-6.97 3.75 -9.94 3.75 -13 3.75 C-13 4.41 -13 5.07 -13 5.75 C-13.639 5.874 -14.279 5.997 -14.938 6.125 C-15.958 6.434 -15.958 6.434 -17 6.75 C-17.33 7.41 -17.66 8.07 -18 8.75 C-18.66 8.75 -19.32 8.75 -20 8.75 C-18.243 4.986 -17.041 3.171 -13.062 1.562 C-10 0.75 -10 0.75 -7 1.75 C-3.831 -0.363 -3.494 -0.503 0 0 Z " fill="#001C1F" transform="translate(352,887.25)"/>
<path d="M0 0 C3.414 1.312 6.636 2.803 9.875 4.5 C16.475 7.819 22.711 9.233 30 10 C30 10.33 30 10.66 30 11 C19.91 11.504 8.812 10.02 1 3 C0.67 2.01 0.34 1.02 0 0 Z " fill="#014E51" transform="translate(503,915)"/>
<path d="M0 0 C0.99 0.33 1.98 0.66 3 1 C3 1.99 3 2.98 3 4 C5.64 4.33 8.28 4.66 11 5 C11 5.33 11 5.66 11 6 C10.131 6.098 9.262 6.196 8.367 6.297 C1.826 7.146 -2.85 7.824 -8 12 C-8.66 12 -9.32 12 -10 12 C-8.549 8.175 -6.618 6.809 -3 5 C-2.34 5 -1.68 5 -1 5 C-0.67 3.35 -0.34 1.7 0 0 Z " fill="#014341" transform="translate(631,896)"/>
<path d="M0 0 C0.99 0.33 1.98 0.66 3 1 C-0.75 4 -0.75 4 -3 4 C-3 4.722 -3 5.444 -3 6.188 C-4.368 10.034 -6.576 10.848 -10.09 12.691 C-12.329 14.225 -12.891 15.57 -14 18 C-16.125 19.25 -16.125 19.25 -18 20 C-17.688 18.062 -17.688 18.062 -17 16 C-16.01 15.67 -15.02 15.34 -14 15 C-14 14.01 -14 13.02 -14 12 C-12.32 10.754 -12.32 10.754 -10.125 9.562 C-6.788 7.751 -5.53 6.462 -4 3 C-2.062 1.188 -2.062 1.188 0 0 Z " fill="#013536" transform="translate(634,892)"/>
<path d="M0 0 C0 0.99 0 1.98 0 3 C-3.639 5.856 -6.441 6.388 -11 6.312 C-12.516 6.307 -12.516 6.307 -14.062 6.301 C-17.052 5.995 -19.284 5.253 -22 4 C-21.67 3.01 -21.34 2.02 -21 1 C-20.474 1.324 -19.948 1.647 -19.406 1.98 C-16.33 3.284 -13.835 3.301 -10.5 3.312 C-8.814 3.338 -8.814 3.338 -7.094 3.363 C-3.765 2.972 -2.421 2.249 0 0 Z " fill="#A4EAED" transform="translate(551,905)"/>
<path d="M0 0 C2.623 0.974 4.915 1.943 7.25 3.5 C10.471 5.257 13.423 5.839 17.012 6.473 C19 7 19 7 21 9 C17.187 10.16 15.154 10.511 11.449 8.871 C7.107 6.304 3.479 3.671 0 0 Z " fill="#094C4E" transform="translate(520,899)"/>
<path d="M0 0 C0 0.66 0 1.32 0 2 C0.99 1.835 1.98 1.67 3 1.5 C7.027 0.915 10.935 0.929 15 1 C11.869 3.087 9.874 3.341 6.207 3.715 C2.717 4.166 -0.603 5.09 -4 6 C-4.33 4.68 -4.66 3.36 -5 2 C-2 0 -2 0 0 0 Z " fill="#001C21" transform="translate(612,913)"/>
<path d="M0 0 C0 0.66 0 1.32 0 2 C-0.557 2.026 -1.114 2.052 -1.688 2.078 C-6.894 2.465 -10.582 3.559 -15.137 6.078 C-17.686 7.339 -20.189 7.719 -23 8 C-20.613 5.236 -18.393 4.263 -15 3 C-14.092 2.464 -13.185 1.928 -12.25 1.375 C-8.048 -0.403 -4.494 -0.27 0 0 Z " fill="#0C959B" transform="translate(639,905)"/>
<path d="M0 0 C1.5 1.375 1.5 1.375 3 3 C3 3.66 3 4.32 3 5 C3.619 5.247 4.237 5.495 4.875 5.75 C7.351 7.206 7.951 8.378 9 11 C5.177 10.739 3.421 10.388 0.562 7.75 C-1 5 -1 5 -0.75 2.188 C-0.503 1.466 -0.255 0.744 0 0 Z " fill="#024F4F" transform="translate(657,910)"/>
<path d="M0 0 C0.99 0 1.98 0 3 0 C3 0.66 3 1.32 3 2 C2.34 2 1.68 2 1 2 C1 2.66 1 3.32 1 4 C2.98 4 4.96 4 7 4 C7 4.33 7 4.66 7 5 C4.75 5.054 2.5 5.093 0.25 5.125 C-1.003 5.148 -2.256 5.171 -3.547 5.195 C-6.728 5.015 -8.365 4.69 -11 3 C-11 2.67 -11 2.34 -11 2 C-10.29 1.939 -9.579 1.879 -8.848 1.816 C-7.469 1.691 -7.469 1.691 -6.062 1.562 C-5.146 1.481 -4.229 1.4 -3.285 1.316 C-1.038 1.24 -1.038 1.24 0 0 Z " fill="#004644" transform="translate(396,915)"/>
<path d="M0 0 C5.852 0.366 10.578 1.998 15 6 C15.727 8.168 15.727 8.168 16 10 C12.063 8.568 8.711 6.697 5.188 4.438 C4.212 3.817 3.236 3.197 2.23 2.559 C1.494 2.044 0.758 1.53 0 1 C0 0.67 0 0.34 0 0 Z " fill="#0F8D94" transform="translate(363,909)"/>
<path d="M0 0 C3.56 1.978 6.175 4.087 9 7 C11.603 9.158 14.185 11.123 17 13 C11.294 12.572 7.589 10.157 3 7 C3.33 6.34 3.66 5.68 4 5 C3.34 4.67 2.68 4.34 2 4 C2 3.34 2 2.68 2 2 C1.34 2 0.68 2 0 2 C0 1.34 0 0.68 0 0 Z " fill="#0AA0A5" transform="translate(515,899)"/>
<path d="M0 0 C0.33 0.66 0.66 1.32 1 2 C0.099 1.992 0.099 1.992 -0.82 1.984 C-3.526 1.963 -6.232 1.95 -8.938 1.938 C-9.883 1.929 -10.829 1.921 -11.803 1.912 C-12.702 1.909 -13.601 1.906 -14.527 1.902 C-15.36 1.897 -16.193 1.892 -17.051 1.886 C-19.005 1.784 -19.005 1.784 -20 3 C-22.333 3.041 -24.667 3.042 -27 3 C-26.34 2.01 -25.68 1.02 -25 0 C-22.04 -0.416 -19.285 -0.651 -16.312 -0.75 C-15.522 -0.793 -14.731 -0.835 -13.916 -0.879 C-9.142 -1.092 -4.682 -1.006 0 0 Z " fill="#013538" transform="translate(639,912)"/>
<path d="M0 0 C7.238 0.345 11.916 2.102 18 6 C18 6.66 18 7.32 18 8 C14.993 7.339 12.358 6.346 9.562 5.062 C6.402 3.628 3.238 2.253 0 1 C0 0.67 0 0.34 0 0 Z " fill="#E4FBFB" transform="translate(361,896)"/>
<path d="M0 0 C0.838 0.164 1.676 0.327 2.539 0.496 C6.205 1.03 9.672 1.097 13.375 1.062 C14.62 1.053 15.865 1.044 17.148 1.035 C18.089 1.024 19.03 1.012 20 1 C18.867 2.48 18.867 2.48 17 4 C14.258 4.363 14.258 4.363 11.125 4.312 C10.096 4.309 9.068 4.305 8.008 4.301 C4.982 3.998 2.746 3.272 0 2 C0 1.34 0 0.68 0 0 Z " fill="#BAEAEC" transform="translate(663,924)"/>
<path d="M0 0 C3.63 0 7.26 0 11 0 C11.33 0.66 11.66 1.32 12 2 C7.148 3.991 2.205 4.922 -3 4 C-4.77 2.48 -4.77 2.48 -6 1 C-4.02 1 -2.04 1 0 1 C0 0.67 0 0.34 0 0 Z " fill="#0C8284" transform="translate(388,911)"/>
<path d="M0 0 C1.189 0.009 2.377 0.018 3.602 0.027 C4.517 0.039 5.432 0.051 6.375 0.062 C6.375 1.053 6.375 2.043 6.375 3.062 C5.495 3.028 4.614 2.993 3.707 2.957 C1.965 2.916 1.965 2.916 0.188 2.875 C-0.961 2.84 -2.11 2.805 -3.293 2.77 C-6.916 3.088 -8.625 4.118 -11.625 6.062 C-12.285 5.732 -12.945 5.403 -13.625 5.062 C-8.593 0.957 -6.523 -0.064 0 0 Z " fill="#B5EFF1" transform="translate(350.625,906.9375)"/>
<path d="M0 0 C1.505 0.95 3.004 1.91 4.5 2.875 C5.753 3.676 5.753 3.676 7.031 4.492 C7.681 4.99 8.331 5.487 9 6 C9 6.66 9 7.32 9 8 C9.639 8.289 10.279 8.577 10.938 8.875 C13 10 13 10 14 12 C9.406 11.722 6.928 9.612 3.551 6.766 C1.706 4.665 0.907 2.627 0 0 Z " fill="#006769" transform="translate(658,910)"/>
<path d="M0 0 C7.267 -0.557 13.646 0.162 20 4 C20.33 4.99 20.66 5.98 21 7 C19.762 6.567 18.525 6.134 17.25 5.688 C11.583 3.789 5.81 2.386 0 1 C0 0.67 0 0.34 0 0 Z " fill="#187F83" transform="translate(355,893)"/>
<path d="M0 0 C5.941 1.003 10.202 2.309 15 6 C14.34 6.66 13.68 7.32 13 8 C11.02 7.34 9.04 6.68 7 6 C7 5.34 7 4.68 7 4 C6.216 3.897 5.433 3.794 4.625 3.688 C2 3 2 3 0 0 Z " fill="#007589" transform="translate(70,551)"/>
<path d="M0 0 C8.572 0.146 14.896 1.025 22 6 C18.644 7.119 18.104 6.922 14.938 5.75 C10.006 3.99 5.022 2.478 0 1 C0 0.67 0 0.34 0 0 Z " fill="#007C80" transform="translate(345,911)"/>
<path d="M0 0 C-0.66 0.66 -1.32 1.32 -2 2 C-2.643 4.069 -2.643 4.069 -3 6 C-3.66 6 -4.32 6 -5 6 C-5 6.66 -5 7.32 -5 8 C-6.32 8.33 -7.64 8.66 -9 9 C-8.4 3.6 -8.4 3.6 -6.75 1.125 C-4.418 -0.374 -2.716 -0.22 0 0 Z " fill="#012729" transform="translate(485,891)"/>
<path d="M0 0 C7.138 -0.536 12.829 0.149 19 4 C19.33 4.66 19.66 5.32 20 6 C19.01 6.33 18.02 6.66 17 7 C15.365 6.032 13.732 5.06 12.117 4.059 C8.316 2.158 4.17 1.638 0 1 C0 0.67 0 0.34 0 0 Z " fill="#B7F4F7" transform="translate(639,892)"/>
<path d="M0 0 C1.145 0.495 1.145 0.495 2.312 1 C7.252 2.339 11.915 2.163 17 2 C15.377 3.947 14.478 4.907 11.949 5.398 C6.875 5.346 3.44 4.732 -1 2 C-0.67 1.34 -0.34 0.68 0 0 Z " fill="#B9F1F3" transform="translate(675,915)"/>
<path d="M0 0 C3.323 1.564 5.562 3.214 8 6 C8 6.66 8 7.32 8 8 C8.66 8 9.32 8 10 8 C10.33 9.32 10.66 10.64 11 12 C4.782 9.13 2.481 6.349 0 0 Z " fill="#018587" transform="translate(656,904)"/>
<path d="M0 0 C0.66 0 1.32 0 2 0 C0.628 2.954 -0.989 5.44 -3 8 C-2.34 8.33 -1.68 8.66 -1 9 C-2.75 10.562 -2.75 10.562 -5 12 C-7.25 11.688 -7.25 11.688 -9 11 C-8.67 10.01 -8.34 9.02 -8 8 C-7.361 7.856 -6.721 7.711 -6.062 7.562 C-3.832 7.21 -3.832 7.21 -2.875 5.125 C-2.586 4.424 -2.298 3.722 -2 3 C-1.34 2.01 -0.68 1.02 0 0 Z " fill="#001419" transform="translate(329,898)"/>
<path d="M0 0 C-0.615 5.538 -0.615 5.538 -2.562 7.875 C-3.274 8.432 -3.274 8.432 -4 9 C-3.34 7.02 -2.68 5.04 -2 3 C-2.99 3.66 -3.98 4.32 -5 5 C-8.188 4.625 -8.188 4.625 -11 4 C-9.68 3.67 -8.36 3.34 -7 3 C-7 2.34 -7 1.68 -7 1 C-4.537 -0.231 -2.72 -0.072 0 0 Z " fill="#021116" transform="translate(697,912)"/>
<path d="M0 0 C3.063 -0.054 6.125 -0.094 9.188 -0.125 C10.484 -0.15 10.484 -0.15 11.807 -0.176 C20.081 -0.239 20.081 -0.239 24 2 C25.312 4.125 25.312 4.125 26 6 C25.443 5.711 24.886 5.423 24.312 5.125 C23.549 4.754 22.786 4.383 22 4 C21.309 3.66 20.618 3.319 19.906 2.969 C15.999 1.666 12.281 1.54 8.188 1.375 C7.005 1.317 7.005 1.317 5.799 1.258 C3.866 1.164 1.933 1.081 0 1 C0 0.67 0 0.34 0 0 Z " fill="#004146" transform="translate(477,909)"/>
<path d="M0 0 C1.887 0.031 1.887 0.031 3.812 0.062 C1.812 3.062 1.812 3.062 -0.359 3.652 C-1.21 3.767 -2.061 3.882 -2.938 4 C-7.665 4.802 -10.446 6.109 -14.188 9.062 C-12.693 5.258 -10.493 3.401 -7.188 1.062 C-4.437 0.146 -2.828 -0.046 0 0 Z " fill="#A3E6E6" transform="translate(489.1875,897.9375)"/>
<path d="M0 0 C1.134 0.021 2.269 0.041 3.438 0.062 C0.658 1.915 -1.22 2.671 -4.375 3.562 C-7.284 4.398 -10.137 5.261 -13 6.25 C-15.562 7.062 -15.562 7.062 -18.562 7.062 C-16.059 4.014 -13.718 3.345 -9.938 2.438 C-6.237 1.534 -3.681 0.065 0 0 Z " fill="#002F46" transform="translate(561.5625,642.9375)"/>
<path d="M0 0 C5.358 -0.169 10.193 0.435 15.438 1.5 C16.169 1.643 16.901 1.786 17.654 1.934 C19.437 2.283 21.219 2.641 23 3 C18.573 5.585 15.95 4.864 11 4 C10.01 3.67 9.02 3.34 8 3 C6.804 2.856 5.608 2.711 4.375 2.562 C3.261 2.377 2.147 2.191 1 2 C0.67 1.34 0.34 0.68 0 0 Z " fill="#014F64" transform="translate(274,534)"/>
<path d="M0 0 C0.99 0.33 1.98 0.66 3 1 C4.067 1.304 4.067 1.304 5.156 1.613 C11.508 3.508 11.508 3.508 14.062 6.062 C15 8 15 8 15 10 C14.34 10 13.68 10 13 10 C13 9.34 13 8.68 13 8 C12.34 7.753 11.68 7.505 11 7.25 C7.236 5.682 3.629 3.855 0 2 C0 1.34 0 0.68 0 0 Z " fill="#02898B" transform="translate(641,894)"/>
<path d="M0 0 C0.66 0.289 1.32 0.577 2 0.875 C5.625 2.234 9.233 3.106 13 4 C10.083 5.984 8.876 5.988 5.25 5.625 C4.178 5.419 3.105 5.212 2 5 C2 4.34 2 3.68 2 3 C1.34 3 0.68 3 0 3 C0 2.01 0 1.02 0 0 Z " fill="#025F5F" transform="translate(484,892)"/>
<path d="M0 0 C0.66 0.33 1.32 0.66 2 1 C1.67 2.65 1.34 4.3 1 6 C-5.93 6 -12.86 6 -20 6 C-20 5.67 -20 5.34 -20 5 C-18.337 4.961 -18.337 4.961 -16.641 4.922 C-15.177 4.866 -13.714 4.808 -12.25 4.75 C-11.156 4.729 -11.156 4.729 -10.039 4.707 C-6.374 4.54 -4.369 4.301 -1.484 1.953 C-0.995 1.309 -0.505 0.664 0 0 Z " fill="#036768" transform="translate(403,919)"/>
<path d="M0 0 C-1 2 -1 2 -4.273 3.105 C-5.638 3.475 -7.006 3.835 -8.375 4.188 C-9.404 4.473 -9.404 4.473 -10.453 4.764 C-13.823 5.652 -15.627 6.124 -19 5 C-6.891 -0.328 -6.891 -0.328 0 0 Z " fill="#003046" transform="translate(530,654)"/>
<path d="M0 0 C4.348 0.659 7.974 2.275 12 4 C14.779 4.691 14.779 4.691 17 5 C17 5.33 17 5.66 17 6 C10.373 6.541 6.468 5.873 1 2 C0.67 1.34 0.34 0.68 0 0 Z " fill="#0D5054" transform="translate(673,912)"/>
<path d="M0 0 C5.623 0.402 8.046 2.234 12 6 C12 6.33 12 6.66 12 7 C9.625 7.188 9.625 7.188 7 7 C6.34 6.01 5.68 5.02 5 4 C1.946 2.787 1.946 2.787 -1 2 C-0.67 1.34 -0.34 0.68 0 0 Z " fill="#0DA1A6" transform="translate(493,902)"/>
<path d="M0 0 C-0.928 0.34 -0.928 0.34 -1.875 0.688 C-4.239 1.853 -4.239 1.853 -5 4.562 C-5.33 5.367 -5.66 6.171 -6 7 C-8.125 7.812 -8.125 7.812 -10 8 C-10 4 -10 4 -8.574 2.48 C-7.952 2.054 -7.329 1.627 -6.688 1.188 C-6.073 0.748 -5.458 0.308 -4.824 -0.145 C-3 -1 -3 -1 0 0 Z " fill="#002425" transform="translate(634,893)"/>
<path d="M0 0 C0 0.66 0 1.32 0 2 C-3.663 4.344 -6.726 4.295 -11 4 C-14.438 3 -14.438 3 -17 2 C-14.253 1.084 -11.803 0.958 -8.938 1 C-5.658 1 -3.153 0 0 0 Z " fill="#015454" transform="translate(399,925)"/>
<path d="M0 0 C3.63 0.33 7.26 0.66 11 1 C8 4 8 4 5.957 4.293 C3.971 4.195 1.986 4.098 0 4 C0 2.68 0 1.36 0 0 Z " fill="#04393A" transform="translate(539,905)"/>
<path d="M0 0 C3.384 0.617 5.52 1.87 8.25 3.938 C8.956 4.462 9.663 4.987 10.391 5.527 C11.187 6.256 11.187 6.256 12 7 C12 7.66 12 8.32 12 9 C7.092 7.513 3.595 4.554 0 1 C0 0.67 0 0.34 0 0 Z " fill="#D6F6F8" transform="translate(517,899)"/>
<path d="M0 0 C5.634 0.896 5.634 0.896 7.875 1.531 C10.386 2.085 12.681 2.096 15.25 2.062 C16.142 2.053 17.034 2.044 17.953 2.035 C18.629 2.024 19.304 2.012 20 2 C19.67 2.66 19.34 3.32 19 4 C5.182 4.554 5.182 4.554 0 1 C0 0.67 0 0.34 0 0 Z " fill="#003335" transform="translate(657,930)"/>
<path d="M0 0 C1.32 0.33 2.64 0.66 4 1 C4 1.66 4 2.32 4 3 C4.681 3.103 5.361 3.206 6.062 3.312 C9.629 4.147 12.662 5.495 16 7 C16 7.33 16 7.66 16 8 C10.138 7.596 6.705 6.809 2 3 C1.34 2.01 0.68 1.02 0 0 Z " fill="#014B50" transform="translate(364,918)"/>
<path d="M0 0 C4.548 -0.178 7.879 0.002 12 2 C11.67 3.65 11.34 5.3 11 7 C10.01 7.33 9.02 7.66 8 8 C8.33 6.68 8.66 5.36 9 4 C8.01 3.67 7.02 3.34 6 3 C6 2.34 6 1.68 6 1 C4.02 1 2.04 1 0 1 C0 0.67 0 0.34 0 0 Z " fill="#013438" transform="translate(332,901)"/>
<path d="M0 0 C5.61 0.66 11.22 1.32 17 2 C16.67 2.99 16.34 3.98 16 5 C15.432 4.867 14.863 4.734 14.277 4.598 C9.528 3.512 4.832 2.617 0 2 C0 1.34 0 0.68 0 0 Z " fill="#007E91" transform="translate(176,586)"/>
<path d="M0 0 C4.29 0 8.58 0 13 0 C13.33 0.66 13.66 1.32 14 2 C10.305 3.232 7.813 2.555 4 2 C3.01 2.495 3.01 2.495 2 3 C1.34 2.67 0.68 2.34 0 2 C0 1.34 0 0.68 0 0 Z " fill="#001B1F" transform="translate(341,918)"/>
<path d="M0 0 C6.028 0.476 10.767 3.197 16 6 C13.049 7.253 12.026 7.01 8.984 5.785 C7.917 5.217 6.85 4.648 5.75 4.062 C4.672 3.497 3.595 2.931 2.484 2.348 C1.665 1.903 0.845 1.458 0 1 C0 0.67 0 0.34 0 0 Z " fill="#06939B" transform="translate(364,915)"/>
<path d="M0 0 C-3.253 2.045 -6.405 3.652 -10 5 C-10.928 5.371 -11.856 5.742 -12.812 6.125 C-13.534 6.414 -14.256 6.702 -15 7 C-15 6.01 -15 5.02 -15 4 C-2.766 -1.383 -2.766 -1.383 0 0 Z " fill="#002E44" transform="translate(603,628)"/>
<path d="M0 0 C-4.816 3.16 -10.156 6 -16 6 C-16 5.34 -16 4.68 -16 4 C-13.9 3.134 -11.795 2.283 -9.688 1.438 C-8.516 0.962 -7.344 0.486 -6.137 -0.004 C-3 -1 -3 -1 0 0 Z " fill="#003D55" transform="translate(584,616)"/>
<path d="M0 0 C1.212 0.041 1.212 0.041 2.449 0.082 C3.064 0.117 3.679 0.152 4.312 0.188 C2.604 2.294 1.791 3.126 -0.949 3.48 C-1.75 3.446 -2.55 3.411 -3.375 3.375 C-4.587 3.334 -4.587 3.334 -5.824 3.293 C-6.747 3.241 -6.747 3.241 -7.688 3.188 C-5.268 0.205 -3.789 -0.165 0 0 Z " fill="#005250" transform="translate(679.6875,922.8125)"/>
<path d="M0 0 C2.475 0.99 2.475 0.99 5 2 C5 2.99 5 3.98 5 5 C5.66 5 6.32 5 7 5 C7 5.66 7 6.32 7 7 C7.99 7.33 8.98 7.66 10 8 C9.01 8.33 8.02 8.66 7 9 C4.957 7.566 4.957 7.566 2.812 5.562 C2.097 4.904 1.382 4.245 0.645 3.566 C0.102 3.049 -0.441 2.533 -1 2 C-0.67 1.34 -0.34 0.68 0 0 Z " fill="#08ADAF" transform="translate(510,896)"/>
<path d="M0 0 C5.135 0.642 9.994 1.683 15 3 C15 3.33 15 3.66 15 4 C9.581 4.226 5.225 3.467 0 2 C0 1.34 0 0.68 0 0 Z " fill="#005D71" transform="translate(257,662)"/>
<path d="M0 0 C0.66 0.66 1.32 1.32 2 2 C-1.149 3.05 -3.388 3.101 -6.688 3.062 C-7.681 3.053 -8.675 3.044 -9.699 3.035 C-10.838 3.018 -10.838 3.018 -12 3 C-8.439 -0.561 -4.817 -0.263 0 0 Z " fill="#0B7777" transform="translate(542,917)"/>
<path d="M0 0 C5.433 0.639 9.382 3.059 12.875 7.25 C13.246 7.827 13.617 8.405 14 9 C10.82 7.462 7.785 5.744 4.75 3.938 C3.858 3.41 2.966 2.883 2.047 2.34 C1.371 1.898 0.696 1.456 0 1 C0 0.67 0 0.34 0 0 Z " fill="#049293" transform="translate(502,895)"/>
<path d="M0 0 C-5.123 2.455 -9.339 3.503 -15 4 C-12.757 0.636 -12.36 0.519 -8.625 -0.25 C-7.854 -0.42 -7.083 -0.59 -6.289 -0.766 C-3.905 -1.01 -2.268 -0.725 0 0 Z " fill="#003247" transform="translate(481,669)"/>
<path d="M0 0 C5.538 0.615 5.538 0.615 7.875 2.562 C8.432 3.274 8.432 3.274 9 4 C8.67 4.66 8.34 5.32 8 6 C7.34 6 6.68 6 6 6 C5.67 5.34 5.34 4.68 5 4 C3.021 3.273 1.02 2.602 -1 2 C-0.67 1.34 -0.34 0.68 0 0 Z " fill="#00758A" transform="translate(61,547)"/>
<path d="M0 0 C4.219 -0.196 7.17 0.198 11 2 C10.67 2.66 10.34 3.32 10 4 C7.25 4.25 7.25 4.25 4 4 C1.625 2 1.625 2 0 0 Z " fill="#055C60" transform="translate(661,920)"/>
<path d="M0 0 C2.062 0.438 2.062 0.438 4 1 C4 1.66 4 2.32 4 3 C5.32 3.66 6.64 4.32 8 5 C8 5.66 8 6.32 8 7 C4.063 5.688 1.773 4.081 -1 1 C-0.67 0.67 -0.34 0.34 0 0 Z " fill="#0C7779" transform="translate(511,909)"/>
<path d="M0 0 C4.869 0.596 9.328 1.57 14 3 C13.01 3.99 12.02 4.98 11 6 C10.67 5.34 10.34 4.68 10 4 C8.608 3.783 8.608 3.783 7.188 3.562 C3.891 2.981 2.465 2.181 0 0 Z " fill="#00374D" transform="translate(53,640)"/>
<path d="M0 0 C4.455 0.99 4.455 0.99 9 2 C9 2.66 9 3.32 9 4 C11.97 4.495 11.97 4.495 15 5 C11.262 6.246 10.009 5.544 6.375 4.188 C4.902 3.652 4.902 3.652 3.398 3.105 C1 2 1 2 0 0 Z " fill="#00778B" transform="translate(85,558)"/>
<path d="M0 0 C-0.99 0.33 -1.98 0.66 -3 1 C-3 1.66 -3 2.32 -3 3 C-6.3 3.66 -9.6 4.32 -13 5 C-12.34 4.34 -11.68 3.68 -11 3 C-10.01 3 -9.02 3 -8 3 C-8 2.34 -8 1.68 -8 1 C-2.25 -1.125 -2.25 -1.125 0 0 Z " fill="#006175" transform="translate(542,539)"/>
<path d="M0 0 C0.804 0.309 1.609 0.619 2.438 0.938 C6.622 2.186 10.663 2.634 15 3 C15 3.33 15 3.66 15 4 C12.896 4.081 10.792 4.139 8.688 4.188 C7.516 4.222 6.344 4.257 5.137 4.293 C2 4 2 4 0.082 2.488 C-0.275 1.997 -0.632 1.506 -1 1 C-0.67 0.67 -0.34 0.34 0 0 Z " fill="#20A2AB" transform="translate(662,925)"/>
<path d="M0 0 C-0.33 0.66 -0.66 1.32 -1 2 C-4.806 1.328 -8.352 0.273 -12 -1 C-7.854 -4.283 -4.281 -1.933 0 0 Z " fill="#15B1B7" transform="translate(511,895)"/>
<path d="M0 0 C-3.421 2.281 -4.682 2.219 -8.688 2.125 C-10.178 2.098 -10.178 2.098 -11.699 2.07 C-12.458 2.047 -13.218 2.024 -14 2 C-9.678 -0.881 -4.988 -1.796 0 0 Z " fill="#00374D" transform="translate(436,539)"/>
<path d="M0 0 C3.63 0 7.26 0 11 0 C11 0.66 11 1.32 11 2 C6.998 3.601 3.954 2.293 0 1 C0 0.67 0 0.34 0 0 Z " fill="#00171B" transform="translate(526,930)"/>
<path d="M0 0 C1.98 0.66 3.96 1.32 6 2 C5.67 1.34 5.34 0.68 5 0 C8.399 1.133 9.053 2.125 11 5 C9.742 4.876 8.484 4.753 7.188 4.625 C6.126 4.521 6.126 4.521 5.043 4.414 C3 4 3 4 0 2 C0 1.34 0 0.68 0 0 Z " fill="#038C92" transform="translate(667,916)"/>
<path d="M0 0 C8.193 0.35 8.193 0.35 11.562 3.062 C12.037 3.702 12.511 4.341 13 5 C10 4 7 3 4 2 C3.01 2.33 2.02 2.66 1 3 C0.67 2.01 0.34 1.02 0 0 Z " fill="#001B1F" transform="translate(631,914)"/>
<path d="M0 0 C-0.33 0.99 -0.66 1.98 -1 3 C-3.765 4.382 -6.046 4.095 -9.125 4.062 C-10.221 4.053 -11.316 4.044 -12.445 4.035 C-13.71 4.018 -13.71 4.018 -15 4 C-15 3.67 -15 3.34 -15 3 C-14.397 2.951 -13.793 2.902 -13.172 2.852 C-12.373 2.777 -11.573 2.702 -10.75 2.625 C-9.567 2.521 -9.567 2.521 -8.359 2.414 C-5.322 1.881 -3.049 0 0 0 Z " fill="#027C7C" transform="translate(545,911)"/>
<path d="M0 0 C2.164 0.93 2.164 0.93 4 2 C2.73 2.648 1.459 3.294 0.188 3.938 C-0.52 4.297 -1.228 4.657 -1.957 5.027 C-4 6 -4 6 -7 7 C-5.944 4.217 -4.995 2.996 -2.625 1.125 C-1.759 0.754 -0.893 0.383 0 0 Z " fill="#075457" transform="translate(628,901)"/>
<path d="M0 0 C6.4 0.492 6.4 0.492 9.438 3.062 C10.211 4.022 10.211 4.022 11 5 C7.877 4.514 5.004 4.001 2 3 C2 2.34 2 1.68 2 1 C1.34 0.67 0.68 0.34 0 0 Z " fill="#00687D" transform="translate(52,542)"/>
<path d="M0 0 C2.438 0.812 2.438 0.812 5 2 C5.33 2.99 5.66 3.98 6 5 C1.446 5.369 1.446 5.369 -0.812 3.5 C-1.204 3.005 -1.596 2.51 -2 2 C-1.34 2 -0.68 2 0 2 C0 1.34 0 0.68 0 0 Z " fill="#004E54" transform="translate(378,912)"/>
<path d="M0 0 C0.66 0.66 1.32 1.32 2 2 C-2.95 4.475 -2.95 4.475 -8 7 C-8.33 6.34 -8.66 5.68 -9 5 C-6.03 3.35 -3.06 1.7 0 0 Z " fill="#007083" transform="translate(573,553)"/>
<path d="M0 0 C0.99 0 1.98 0 3 0 C3 0.66 3 1.32 3 2 C-0.003 3.502 -2.791 3.093 -6.125 3.062 C-7.406 3.053 -8.688 3.044 -10.008 3.035 C-11.489 3.018 -11.489 3.018 -13 3 C-13 2.67 -13 2.34 -13 2 C-12.145 1.939 -11.291 1.879 -10.41 1.816 C-8.753 1.691 -8.753 1.691 -7.062 1.562 C-5.96 1.481 -4.858 1.4 -3.723 1.316 C-1.089 1.296 -1.089 1.296 0 0 Z " fill="#002427" transform="translate(677,932)"/>
<path d="M0 0 C5.35 0.373 7.509 1.996 11 6 C6.806 5.329 3.597 3.144 0 1 C0 0.67 0 0.34 0 0 Z " fill="#002024" transform="translate(363,922)"/>
<path d="M0 0 C2.164 0.777 2.164 0.777 4.625 1.938 C5.442 2.318 6.26 2.698 7.102 3.09 C7.728 3.39 8.355 3.691 9 4 C9 4.33 9 4.66 9 5 C4.443 4.562 1.423 4.15 -2 1 C-1.34 0.67 -0.68 0.34 0 0 Z " fill="#0DA5AC" transform="translate(358,910)"/>
<path d="M0 0 C3.3 0.66 6.6 1.32 10 2 C6 4 6 4 2.25 3.125 C1.178 2.754 0.105 2.383 -1 2 C-0.67 1.34 -0.34 0.68 0 0 Z " fill="#005A6F" transform="translate(267,659)"/>
<path d="M0 0 C-3.162 2.108 -4.507 2.338 -8.188 2.625 C-9.539 2.737 -9.539 2.737 -10.918 2.852 C-11.949 2.925 -11.949 2.925 -13 3 C-12.67 2.34 -12.34 1.68 -12 1 C-4.357 -1.381 -4.357 -1.381 0 0 Z " fill="#007083" transform="translate(485,592)"/>
<path d="M0 0 C1.751 0.115 3.501 0.242 5.25 0.375 C6.225 0.445 7.199 0.514 8.203 0.586 C10.896 0.985 12.67 1.635 15 3 C4.442 3.185 4.442 3.185 0 2 C0 1.34 0 0.68 0 0 Z " fill="#00495E" transform="translate(254,530)"/>
<path d="M0 0 C1.938 0.75 1.938 0.75 4 2 C4.75 4.125 4.75 4.125 5 6 C3.02 5.34 1.04 4.68 -1 4 C-1 1 -1 1 0 0 Z " fill="#0F9FA3" transform="translate(669,913)"/>
<path d="M0 0 C1.945 -0.293 1.945 -0.293 4.125 -0.188 C5.404 -0.126 6.683 -0.064 8 0 C6.938 1.5 6.938 1.5 5 3 C1.312 3.188 1.312 3.188 -2 3 C-1.34 2.01 -0.68 1.02 0 0 Z " fill="#034D52" transform="translate(614,912)"/>
<path d="M0 0 C0.99 0.66 1.98 1.32 3 2 C1.547 2.864 0.088 3.716 -1.375 4.562 C-2.593 5.276 -2.593 5.276 -3.836 6.004 C-4.55 6.333 -5.264 6.661 -6 7 C-6.66 6.67 -7.32 6.34 -8 6 C-5.36 4.02 -2.72 2.04 0 0 Z " fill="#8BE7ED" transform="translate(627,904)"/>
<path d="M0 0 C-1.432 0.699 -2.871 1.384 -4.312 2.062 C-5.513 2.637 -5.513 2.637 -6.738 3.223 C-9 4 -9 4 -12 3 C-7.792 -0.456 -5.251 -1.444 0 0 Z " fill="#003047" transform="translate(542,651)"/>
<path d="M0 0 C-1.432 0.699 -2.871 1.384 -4.312 2.062 C-5.513 2.637 -5.513 2.637 -6.738 3.223 C-9 4 -9 4 -12 3 C-8.453 -0.547 -4.726 -1.442 0 0 Z " fill="#002E45" transform="translate(617,623)"/>
<path d="M0 0 C1.791 -0.081 3.583 -0.139 5.375 -0.188 C6.872 -0.24 6.872 -0.24 8.398 -0.293 C9.257 -0.196 10.115 -0.1 11 0 C11.66 0.99 12.32 1.98 13 3 C11.582 2.885 10.166 2.757 8.75 2.625 C7.961 2.555 7.172 2.486 6.359 2.414 C3.914 1.985 2.152 1.214 0 0 Z " fill="#005C70" transform="translate(195,587)"/>
<path d="M0 0 C1.293 0.956 2.584 1.915 3.875 2.875 C4.594 3.409 5.314 3.942 6.055 4.492 C8 6 8 6 10 8 C8.35 7.67 6.7 7.34 5 7 C4.67 6.01 4.34 5.02 4 4 C2 2.791 2 2.791 0 2 C0 1.34 0 0.68 0 0 Z " fill="#017A7D" transform="translate(654,921)"/>
<path d="M0 0 C3.982 2.101 6.35 4.369 9 8 C4.752 7.528 2.732 5.111 0 2 C0 1.34 0 0.68 0 0 Z " fill="#006469" transform="translate(649,918)"/>
<path d="M0 0 C2.867 1.285 4.976 2.571 7 5 C7 5.66 7 6.32 7 7 C4.133 5.715 2.024 4.429 0 2 C0 1.34 0 0.68 0 0 Z " fill="#EDFCFD" transform="translate(668,909)"/>
<path d="M0 0 C2.97 0.495 2.97 0.495 6 1 C6.33 1.99 6.66 2.98 7 4 C4.69 3.67 2.38 3.34 0 3 C0 2.01 0 1.02 0 0 Z " fill="#05949B" transform="translate(382,909)"/>
<path d="M0 0 C6.523 0.615 6.523 0.615 8.938 2.562 C9.288 3.037 9.639 3.511 10 4 C9.67 4.66 9.34 5.32 9 6 C2.25 2.25 2.25 2.25 0 0 Z " fill="#007276" transform="translate(492,906)"/>
<path d="M0 0 C1.698 0.252 3.385 0.576 5.062 0.938 C5.982 1.132 6.901 1.327 7.848 1.527 C8.913 1.761 8.913 1.761 10 2 C10 2.33 10 2.66 10 3 C8.742 3.041 7.484 3.082 6.188 3.125 C5.48 3.148 4.772 3.171 4.043 3.195 C2 3 2 3 -1 1 C-0.67 0.67 -0.34 0.34 0 0 Z " fill="#15A9B0" transform="translate(359,897)"/>
<path d="M0 0 C0.66 0.33 1.32 0.66 2 1 C0.713 2.006 -0.58 3.004 -1.875 4 C-2.954 4.835 -2.954 4.835 -4.055 5.688 C-6 7 -6 7 -8 7 C-7 4 -7 4 -5.125 2.938 C-4.424 2.628 -3.722 2.319 -3 2 C-2.01 1.34 -1.02 0.68 0 0 Z " fill="#00405A" transform="translate(669,435)"/>
<path d="M0 0 C2.31 0.66 4.62 1.32 7 2 C6.67 2.66 6.34 3.32 6 4 C6.66 4.66 7.32 5.32 8 6 C4.21 5.459 2.486 3.841 0 1 C0 0.67 0 0.34 0 0 Z " fill="#13B1BB" transform="translate(377,916)"/>
<path d="M0 0 C0.33 0 0.66 0 1 0 C1 2.97 1 5.94 1 9 C-0.98 9.99 -0.98 9.99 -3 11 C-3 10.01 -3 9.02 -3 8 C-2.34 8 -1.68 8 -1 8 C-0.67 5.36 -0.34 2.72 0 0 Z " fill="#013236" transform="translate(552,910)"/>
<path d="M0 0 C1.65 1.65 3.3 3.3 5 5 C4.01 5.66 3.02 6.32 2 7 C0.438 4.625 0.438 4.625 -1 2 C-0.67 1.34 -0.34 0.68 0 0 Z " fill="#C6F2F5" transform="translate(653,911)"/>
<path d="M0 0 C-5.75 4 -5.75 4 -8 4 C-5.977 -0.48 -4.796 -1.439 0 0 Z " fill="#013439" transform="translate(472,913)"/>
<path d="M0 0 C2.031 0.934 4.035 1.932 6 3 C6 3.66 6 4.32 6 5 C2.644 4.401 0.622 3.154 -2 1 C-1.34 0.67 -0.68 0.34 0 0 Z " fill="#D6F8FA" transform="translate(373,899)"/>
<path d="M0 0 C0.33 0.66 0.66 1.32 1 2 C-0.64 2.217 -0.64 2.217 -2.312 2.438 C-5.931 2.883 -5.931 2.883 -9 4 C-8.67 3.01 -8.34 2.02 -8 1 C-5.291 -0.354 -2.991 -0.065 0 0 Z " fill="#024950" transform="translate(338,899)"/>
<path d="M0 0 C2.97 0 5.94 0 9 0 C6.435 2.565 4.523 2.54 1 3 C0.67 2.01 0.34 1.02 0 0 Z " fill="#001316" transform="translate(666,936)"/>
<path d="M0 0 C1.562 1.188 1.562 1.188 3 3 C2.688 5.688 2.688 5.688 2 8 C0.438 6.812 0.438 6.812 -1 5 C-0.688 2.312 -0.688 2.312 0 0 Z " fill="#035559" transform="translate(657,910)"/>
<path d="M0 0 C3.27 0.564 4.826 1.5 7 4 C6.01 4.33 5.02 4.66 4 5 C1.812 3.688 1.812 3.688 0 2 C0 1.34 0 0.68 0 0 Z " fill="#BFEFF3" transform="translate(652,894)"/>
<path d="M0 0 C0.33 0.99 0.66 1.98 1 3 C1.66 3 2.32 3 3 3 C3 3.66 3 4.32 3 5 C3.66 5.33 4.32 5.66 5 6 C2.03 5.505 2.03 5.505 -1 5 C-0.67 3.35 -0.34 1.7 0 0 Z " fill="#014949" transform="translate(483,892)"/>
<path d="M0 0 C-0.33 0.99 -0.66 1.98 -1 3 C-3.64 3 -6.28 3 -9 3 C-5.928 0.269 -4.096 -0.341 0 0 Z " fill="#007385" transform="translate(424,605)"/>
<path d="M0 0 C3.832 -0.089 7.266 0.121 11 1 C11 1.66 11 2.32 11 3 C9.541 2.886 8.083 2.758 6.625 2.625 C5.407 2.521 5.407 2.521 4.164 2.414 C2 2 2 2 0 0 Z " fill="#005F74" transform="translate(170,582)"/>
<path d="M0 0 C2.97 0.33 5.94 0.66 9 1 C8.67 1.66 8.34 2.32 8 3 C5.36 2.67 2.72 2.34 0 2 C0 1.34 0 0.68 0 0 Z " fill="#015267" transform="translate(236,526)"/>
</svg>
