<?xml version="1.0" encoding="UTF-8"?>
<!-- Generator: visioncortex VTracer 0.6.4 -->
<svg version="1.1" xmlns="http://www.w3.org/2000/svg" width="1024" height="1024">
<path d="M0 0 C337.92 0 675.84 0 1024 0 C1024 337.92 1024 675.84 1024 1024 C686.08 1024 348.16 1024 0 1024 C0 686.08 0 348.16 0 0 Z " fill="#0F0F0F" transform="translate(0,0)"/>
<path d="M0 0 C3.266 3.176 6.158 6.447 9 10 C9.75 10.743 10.5 11.485 11.273 12.25 C14.216 15.218 16.924 18.314 19.625 21.5 C20.146 22.112 20.668 22.723 21.205 23.354 C25.101 27.927 28.979 32.516 32.856 37.106 C37.197 42.242 41.572 47.348 45.953 52.449 C48.01 54.844 50.061 57.243 52.109 59.645 C57.33 65.763 62.596 71.824 67.996 77.785 C71.042 81.152 74.034 84.563 77 88 C77.447 88.516 77.895 89.031 78.355 89.562 C79.867 91.308 81.372 93.06 82.875 94.812 C83.364 95.376 83.853 95.94 84.357 96.521 C86.479 99.008 87.956 100.867 89 104 C89.66 104 90.32 104 91 104 C92.312 105.468 93.55 107.002 94.75 108.562 C97.258 111.789 99.787 114.945 102.5 118 C105 121 105 121 105 123 C105.66 123 106.32 123 107 123 C108.34 124.512 108.34 124.512 109.938 126.688 C112.965 130.697 116.114 134.557 119.375 138.375 C122.842 142.44 126.264 146.533 129.625 150.688 C133.251 155.143 137.027 159.43 140.891 163.68 C149.417 173.058 157.596 182.769 165.562 192.625 C168.636 196.408 171.823 200.039 175.125 203.625 C178.71 207.525 182.06 211.501 185.262 215.719 C188.429 219.875 191.727 223.928 195 228 C190.825 236.033 186.126 243.543 181 251 C180.341 251.984 179.683 252.967 179.004 253.98 C178.384 254.894 177.764 255.808 177.125 256.75 C176.571 257.57 176.016 258.39 175.445 259.234 C174.968 259.817 174.491 260.4 174 261 C173.34 261 172.68 261 172 261 C171.756 261.562 171.513 262.124 171.262 262.703 C169.758 265.44 167.933 267.458 165.812 269.75 C162.956 272.862 160.129 275.984 157.375 279.188 C150.866 286.618 143.72 292.84 136 299 C135.171 299.672 134.342 300.343 133.488 301.035 C130.978 303.018 128.423 304.902 125.812 306.75 C124.953 307.364 124.093 307.977 123.207 308.609 C121 310 121 310 119 310 C119 310.66 119 311.32 119 312 C74.107 339.011 22.121 351.176 -30 344 C-30.731 343.903 -31.462 343.807 -32.215 343.708 C-51.243 341.13 -69.279 335.904 -86.756 327.988 C-88.896 327.046 -91.052 326.184 -93.234 325.344 C-103.226 321.388 -112.082 315.994 -121 310.062 C-121.573 309.684 -122.146 309.305 -122.736 308.915 C-130.382 303.834 -137.301 298.278 -144 292 C-146.027 290.221 -148.068 288.46 -150.113 286.703 C-152.496 284.552 -154.737 282.277 -157 280 C-157.755 279.279 -158.511 278.559 -159.289 277.816 C-168.776 268.662 -176.506 258.314 -184 247.5 C-184.457 246.842 -184.914 246.184 -185.385 245.505 C-187.914 241.794 -190.087 238.079 -192 234 C-185.886 225.282 -179.248 217.06 -172.5 208.832 C-167.568 202.808 -162.724 196.755 -158.227 190.398 C-157.822 189.937 -157.417 189.475 -157 189 C-156.34 189 -155.68 189 -155 189 C-154.774 188.465 -154.549 187.93 -154.316 187.379 C-152.574 184.229 -150.288 181.64 -147.938 178.938 C-146.943 177.781 -145.95 176.623 -144.957 175.465 C-144.46 174.886 -143.963 174.307 -143.452 173.71 C-140.591 170.34 -137.835 166.886 -135.07 163.438 C-132.841 160.813 -130.434 158.434 -128 156 C-126.766 154.521 -125.557 153.021 -124.375 151.5 C-121.18 147.451 -117.905 143.489 -114.562 139.562 C-105.721 129.16 -105.721 129.16 -97.289 118.426 C-96.835 117.825 -96.38 117.224 -95.912 116.605 C-95.027 115.429 -94.147 114.248 -93.273 113.062 C-92.228 111.672 -91.119 110.331 -90 109 C-89.34 109 -88.68 109 -88 109 C-87.783 108.473 -87.567 107.946 -87.344 107.402 C-85.489 104.087 -83.006 101.392 -80.5 98.562 C-75.793 93.184 -71.342 87.683 -67.123 81.912 C-66.127 80.574 -65.069 79.282 -64 78 C-63.34 78 -62.68 78 -62 78 C-61.772 77.462 -61.544 76.925 -61.309 76.371 C-59.599 73.273 -57.37 70.722 -55.062 68.062 C-54.066 66.9 -53.07 65.737 -52.074 64.574 C-51.309 63.685 -51.309 63.685 -50.529 62.779 C-48.131 59.989 -45.752 57.183 -43.375 54.375 C-42.686 53.561 -42.686 53.561 -41.982 52.73 C-37.593 47.536 -33.287 42.278 -29 37 C-27.991 35.762 -26.982 34.523 -25.973 33.285 C-22.642 29.196 -19.319 25.099 -16 21 C-15.442 20.312 -14.885 19.624 -14.311 18.915 C-12.683 16.904 -11.06 14.89 -9.438 12.875 C-8.705 11.971 -8.705 11.971 -7.958 11.048 C-5.095 7.481 -2.482 3.843 0 0 Z " fill="#005988" transform="translate(512,382)"/>
<path d="M0 0 C1.362 0.499 2.724 0.998 4.086 1.496 C15.719 5.858 26.751 11.537 36.953 18.633 C39.118 20.079 41.335 21.325 43.625 22.562 C47.677 24.77 51.371 27.143 55 30 C55 30.66 55 31.32 55 32 C55.715 32.233 56.431 32.467 57.168 32.707 C60.52 34.237 62.637 36.159 65.312 38.688 C68.616 41.778 71.925 44.824 75.375 47.75 C78.656 50.596 81.28 53.618 84 57 C84.784 57.784 85.567 58.567 86.375 59.375 C96.557 69.557 105.029 81.412 112 94 C112 94.66 112 95.32 112 96 C112.66 96 113.32 96 114 96 C124.918 116.258 124.918 116.258 128 125 C128.322 125.852 128.645 126.704 128.977 127.582 C131.62 134.635 133.911 141.765 136 149 C136.203 149.66 136.405 150.319 136.614 150.999 C140.127 162.541 141.751 174.08 142.812 186.062 C142.876 186.771 142.939 187.479 143.004 188.208 C144.168 201.558 144.089 214.288 142.75 227.625 C142.684 228.285 142.618 228.946 142.55 229.626 C141.495 240.024 139.82 249.943 137 260 C136.692 261.25 136.384 262.501 136.066 263.789 C132.182 279.357 126.013 293.619 119 308 C118.01 308 117.02 308 116 308 C114.02 305.945 114.02 305.945 111.812 303.125 C111.011 302.113 110.209 301.101 109.383 300.059 C108.596 299.049 107.81 298.04 107 297 C105.732 295.394 104.461 293.789 103.188 292.188 C102.552 291.387 101.916 290.586 101.262 289.762 C99.481 287.587 97.674 285.453 95.832 283.332 C95.282 282.698 94.732 282.064 94.165 281.411 C93.068 280.152 91.966 278.897 90.86 277.645 C87 273.218 87 273.218 87 271 C86.01 270.67 85.02 270.34 84 270 C82.562 268.409 81.197 266.751 79.875 265.062 C76.849 261.268 73.776 257.581 70.5 254 C66.581 249.7 62.908 245.241 59.25 240.719 C57.065 238.079 54.808 235.533 52.5 233 C48.608 228.723 44.918 224.318 41.285 219.82 C39.682 217.842 38.069 215.88 36.434 213.93 C35.61 212.942 34.786 211.955 33.938 210.938 C32.806 209.59 32.806 209.59 31.652 208.215 C30 206 30 206 30 204 C29.34 204 28.68 204 28 204 C26.688 202.532 25.45 200.998 24.25 199.438 C21.742 196.211 19.213 193.055 16.5 190 C14 187 14 187 14 185 C13.34 185 12.68 185 12 185 C10.607 183.448 9.286 181.83 8 180.188 C4.783 176.161 1.5 172.289 -2 168.5 C-6.094 164.053 -9.924 159.453 -13.719 154.75 C-16.067 151.919 -18.509 149.206 -21 146.5 C-25.092 142.054 -28.922 137.456 -32.715 132.754 C-35.084 129.899 -37.549 127.166 -40.062 124.438 C-43.909 120.259 -47.483 115.95 -50.988 111.484 C-53.832 107.973 -56.865 104.65 -59.922 101.324 C-66 94.526 -66 94.526 -66 92 C-66.99 91.67 -67.98 91.34 -69 91 C-70.824 88.934 -70.824 88.934 -72.688 86.438 C-73.31 85.611 -73.933 84.785 -74.574 83.934 C-75.045 83.296 -75.515 82.657 -76 82 C-81.315 88.339 -86.592 94.701 -91.742 101.176 C-96.283 106.856 -100.883 112.488 -105.475 118.127 C-106.801 119.756 -108.125 121.385 -109.449 123.016 C-115.669 130.653 -122.037 138.161 -128.416 145.666 C-133.135 151.221 -137.841 156.781 -142.438 162.438 C-146.448 167.371 -150.586 172.183 -154.747 176.989 C-157.51 180.197 -160.14 183.442 -162.625 186.875 C-163.409 187.906 -164.192 188.938 -165 190 C-165.66 190 -166.32 190 -167 190 C-167.223 190.521 -167.446 191.042 -167.676 191.578 C-169.497 194.909 -171.829 197.791 -174.188 200.75 C-174.932 201.69 -174.932 201.69 -175.691 202.65 C-178.784 206.536 -181.959 210.324 -185.27 214.027 C-187.342 216.39 -189.327 218.814 -191.312 221.25 C-192.063 222.169 -192.813 223.088 -193.586 224.035 C-194.841 225.576 -196.095 227.118 -197.345 228.664 C-198.704 230.343 -200.07 232.015 -201.438 233.688 C-202.261 234.702 -203.085 235.716 -203.934 236.762 C-204.616 237.5 -205.297 238.239 -206 239 C-206.66 239 -207.32 239 -208 239 C-208.268 239.572 -208.536 240.145 -208.812 240.734 C-210.041 243.079 -211.425 245.124 -213 247.25 C-213.773 248.31 -213.773 248.31 -214.562 249.391 C-215.037 249.922 -215.511 250.453 -216 251 C-216.66 251 -217.32 251 -218 251 C-218.238 251.547 -218.477 252.093 -218.723 252.656 C-220.317 255.582 -222.3 257.945 -224.438 260.5 C-227.653 264.341 -227.653 264.341 -230.66 268.344 C-231.323 269.164 -231.323 269.164 -232 270 C-232.66 270 -233.32 270 -234 270 C-234.275 270.59 -234.551 271.18 -234.834 271.788 C-235.948 273.902 -237.132 275.563 -238.652 277.398 C-239.438 278.354 -239.438 278.354 -240.24 279.329 C-240.8 280.004 -241.36 280.679 -241.938 281.375 C-243.118 282.813 -244.298 284.252 -245.477 285.691 C-246.365 286.774 -246.365 286.774 -247.271 287.879 C-254.47 296.707 -261.391 305.721 -268 315 C-272.382 311.351 -274.379 306.745 -276.75 301.688 C-277.183 300.768 -277.616 299.849 -278.063 298.902 C-284.827 284.202 -290.184 268.952 -293 253 C-293.332 251.392 -293.666 249.784 -294 248.176 C-299.733 219.495 -299.698 186.02 -292.004 157.758 C-291.056 154.208 -290.263 150.656 -289.5 147.062 C-288.448 142.426 -287.014 138.358 -284.957 134.082 C-284.025 132.054 -283.342 130.07 -282.688 127.938 C-277.841 113.142 -270.273 100.109 -262 87 C-261.611 86.38 -261.223 85.761 -260.822 85.123 C-252.905 72.584 -243.156 61.733 -233 51 C-232.362 50.319 -231.724 49.639 -231.066 48.938 C-212.301 29.497 -188.219 14.936 -163.875 3.688 C-162.608 3.093 -162.608 3.093 -161.316 2.487 C-111.376 -20.083 -50.653 -19.273 0 0 Z " fill="#0F0F0F" transform="translate(589,301)"/>
<path d="M0 0 C0.637 0.235 1.274 0.471 1.931 0.713 C15.641 5.798 28.579 12.298 41 20 C42.205 20.694 43.413 21.382 44.625 22.062 C47.242 23.565 49.851 25.071 52.438 26.625 C53.457 27.232 53.457 27.232 54.496 27.852 C54.992 28.231 55.489 28.61 56 29 C56 29.66 56 30.32 56 31 C56.714 31.253 57.428 31.505 58.164 31.766 C73.667 38.513 86.69 54.62 98.438 66.25 C99.285 67.085 100.133 67.919 101.006 68.779 C102.177 69.948 102.177 69.948 103.371 71.141 C104.072 71.837 104.772 72.533 105.494 73.251 C107 75 107 75 107 77 C107.66 77 108.32 77 109 77 C110.923 79.315 112.723 81.638 114.5 84.062 C115.035 84.787 115.571 85.511 116.122 86.258 C124.987 98.346 132.947 110.769 140 124 C140.353 124.661 140.707 125.323 141.071 126.004 C146.215 135.725 150.449 145.594 154 156 C154.419 157.227 154.838 158.454 155.27 159.719 C156.595 163.792 157.812 167.885 159 172 C159.248 172.829 159.496 173.657 159.751 174.511 C171.689 214.993 171.617 261.34 161 302 C160.641 303.427 160.283 304.854 159.926 306.281 C157.172 316.992 153.979 327.322 149.246 337.332 C148.317 339.321 147.435 341.331 146.578 343.352 C144.934 347.153 143.166 350.86 141.312 354.562 C140.795 355.597 140.795 355.597 140.266 356.652 C136.76 363.585 132.953 370.313 129 377 C128.491 377.874 127.982 378.748 127.457 379.648 C126.367 381.471 125.194 383.244 124 385 C123.34 385 122.68 385 122 385 C121.765 385.708 121.531 386.415 121.289 387.145 C119.761 390.53 117.8 392.876 115.375 395.688 C114.558 396.64 113.74 397.593 112.898 398.574 C112.219 399.365 112.219 399.365 111.525 400.172 C109.733 402.32 108.028 404.528 106.309 406.734 C101.8 412.389 96.819 417.475 91.688 422.562 C90.814 423.444 89.941 424.325 89.041 425.232 C83.008 431.248 76.696 436.736 70 442 C69.357 442.508 68.713 443.016 68.05 443.54 C49.96 457.604 28.781 470.825 7.024 478.302 C5.521 478.82 4.02 479.35 2.522 479.886 C-58.656 501.728 -123.288 501.311 -184 478 C-185.173 477.559 -186.346 477.118 -187.555 476.664 C-195.71 473.441 -203.327 469.214 -211 465 C-211.777 464.591 -212.555 464.183 -213.355 463.762 C-229.409 455.223 -244.365 444.391 -257.723 432.094 C-259.865 430.124 -262.046 428.212 -264.25 426.312 C-267.656 423.336 -270.917 420.314 -274 417 C-274 416.34 -274 415.68 -274 415 C-274.99 414.67 -275.98 414.34 -277 414 C-279.58 411.571 -281.749 408.732 -284 406 C-284.441 405.47 -284.881 404.941 -285.335 404.395 C-330.064 350.45 -348.836 283.596 -342.552 214.187 C-341.515 203.217 -339.851 192.65 -337 182 C-336.672 180.634 -336.35 179.267 -336.031 177.898 C-333.329 166.399 -330.117 154.903 -324.992 144.223 C-324.128 142.286 -323.385 140.296 -322.664 138.301 C-320.96 133.714 -318.796 129.441 -316.5 125.125 C-316.066 124.307 -315.633 123.489 -315.186 122.646 C-308.343 109.895 -300.901 97.431 -292 86 C-291.34 85.148 -290.68 84.296 -290 83.418 C-283.452 75.197 -276.263 67.585 -269 60 C-268.448 59.419 -267.895 58.838 -267.326 58.239 C-259.457 49.996 -251.135 42.803 -242 36 C-241.064 35.292 -240.128 34.585 -239.164 33.855 C-222.839 21.719 -204.86 10.706 -186 3 C-184.54 2.393 -184.54 2.393 -183.051 1.773 C-125.909 -21.14 -57.585 -21.893 0 0 Z M-154 30 C-155.419 30.406 -155.419 30.406 -156.867 30.82 C-170.781 35.098 -184.005 41.736 -196.75 48.688 C-197.963 49.346 -197.963 49.346 -199.201 50.018 C-203.758 52.556 -207.953 55.325 -212.079 58.515 C-213.932 59.947 -215.815 61.321 -217.719 62.684 C-235.274 75.398 -252.753 90.943 -265 109 C-265.598 109.865 -266.196 110.73 -266.812 111.621 C-279.324 130.022 -289.463 148.788 -296.852 169.801 C-297.521 171.667 -298.219 173.524 -298.982 175.354 C-312.402 210.238 -311.926 256.22 -302.494 291.96 C-301.941 294.242 -301.518 296.534 -301.094 298.844 C-300.043 304.193 -298.386 309.204 -296.5 314.312 C-296.151 315.259 -295.802 316.205 -295.443 317.18 C-284.263 346.821 -266.963 374.026 -244 396 C-243.233 396.77 -242.466 397.539 -241.676 398.332 C-232.963 407.019 -224.067 414.876 -213.851 421.744 C-211.975 423.017 -210.131 424.328 -208.285 425.645 C-162.074 457.822 -101.965 466.769 -47.309 457.546 C-36.642 455.553 -26.256 452.52 -16 449 C-15.359 448.781 -14.718 448.562 -14.057 448.337 C1.25 443.038 17.794 436.516 31 427 C31 426.34 31 425.68 31 425 C32.077 424.615 32.077 424.615 33.176 424.223 C41.34 420.688 48.183 414.132 54.656 408.16 C56.798 406.186 58.979 404.274 61.188 402.375 C67.665 396.717 73.419 390.535 79 384 C79.512 383.416 80.024 382.832 80.551 382.23 C83.181 379.508 83.181 379.508 84 376 C84.66 376 85.32 376 86 376 C87.45 374.392 87.45 374.392 88.906 372.258 C89.48 371.448 90.054 370.638 90.646 369.804 C91.258 368.92 91.87 368.036 92.5 367.125 C93.129 366.22 93.757 365.314 94.405 364.382 C100.213 355.892 105.324 347.156 110 338 C110.363 337.293 110.726 336.586 111.101 335.857 C129.08 300.427 135.345 259.743 131.875 220.375 C131.812 219.656 131.748 218.937 131.683 218.196 C129.707 196.508 125.042 174.283 114.896 154.836 C114 153 114 153 112.75 149.438 C110.322 142.621 106.469 136.328 103 130 C102.34 130 101.68 130 101 130 C100.814 129.216 100.629 128.433 100.438 127.625 C98.396 122.478 95.287 118.432 92 114 C91.531 113.366 91.063 112.732 90.58 112.079 C80.955 98.979 80.955 98.979 70 87 C69.437 86.415 68.873 85.83 68.293 85.227 C62.9 79.669 57.056 74.816 51 70 C50.107 69.252 49.213 68.505 48.293 67.734 C46.213 65.799 46.213 65.799 44 66 C43.67 65.01 43.34 64.02 43 63 C41.068 61.462 41.068 61.462 38.562 60 C37.57 59.392 36.577 58.783 35.555 58.156 C34.994 57.817 34.433 57.478 33.854 57.129 C31.811 55.885 29.784 54.616 27.758 53.344 C14.031 44.769 0.406 37.78 -14.983 32.687 C-16.778 32.075 -18.553 31.405 -20.324 30.727 C-24.171 29.297 -28.049 28.097 -32 27 C-32.943 26.736 -33.885 26.472 -34.856 26.201 C-52.827 21.428 -70.349 20.388 -88.875 20.312 C-89.934 20.301 -90.994 20.29 -92.086 20.279 C-113.37 20.117 -133.633 23.945 -154 30 Z " fill="#FD9812" transform="translate(600,267)"/>
<path d="M0 0 C0.33 0 0.66 0 1 0 C1.128 40.859 1.255 81.718 1.382 122.577 C1.397 127.407 1.412 132.237 1.427 137.067 C1.43 138.028 1.433 138.99 1.436 139.98 C1.485 155.524 1.533 171.068 1.582 186.612 C1.632 202.575 1.681 218.539 1.731 234.503 C1.762 244.344 1.792 254.184 1.823 264.025 C1.844 270.785 1.865 277.544 1.886 284.303 C1.898 288.196 1.91 292.089 1.923 295.981 C2.017 325.925 2.017 325.925 2 340 C3.074 339.826 4.148 339.652 5.254 339.473 C9.104 338.987 12.201 339.302 16 340 C16 339.34 16 338.68 16 338 C17.114 337.711 18.227 337.423 19.375 337.125 C23.003 336.308 23.003 336.308 25 334 C25.99 335.485 25.99 335.485 27 337 C27.66 337.33 28.32 337.66 29 338 C29 337.34 29 336.68 29 336 C32.819 334.145 34.921 333.849 39 335 C39.763 335.186 40.526 335.371 41.312 335.562 C41.869 335.707 42.426 335.851 43 336 C43 335.34 43 334.68 43 334 C46.96 334 50.92 334 55 334 C55 333.34 55 332.68 55 332 C56.64 331.567 56.64 331.567 58.312 331.125 C62.04 330.181 62.04 330.181 65 328 C68.465 326.886 71.352 326 75 326 C75.66 325.67 76.32 325.34 77 325 C77.99 325.33 78.98 325.66 80 326 C80.33 324.35 80.66 322.7 81 321 C82.217 321.062 83.434 321.124 84.688 321.188 C88.645 321.188 90.758 320.366 94 318 C94.887 317.484 95.774 316.969 96.688 316.438 C99.079 315.072 99.079 315.072 101 313 C101.99 312.67 102.98 312.34 104 312 C104.619 311.67 105.237 311.34 105.875 311 C108.234 309.89 110.437 309.427 113 309 C113.33 307.02 113.66 305.04 114 303 C114.66 303.33 115.32 303.66 116 304 C116.99 304 117.98 304 119 304 C119.33 303.34 119.66 302.68 120 302 C120.99 302 121.98 302 123 302 C123.66 301.01 124.32 300.02 125 299 C125.99 299.33 126.98 299.66 128 300 C126.749 303.754 125.435 304.241 122 306 C121.34 306 120.68 306 120 306 C120 306.66 120 307.32 120 308 C75.107 335.011 23.121 347.176 -29 340 C-29.731 339.903 -30.462 339.807 -31.215 339.708 C-50.243 337.13 -68.279 331.904 -85.756 323.988 C-87.896 323.046 -90.052 322.184 -92.234 321.344 C-102.226 317.388 -111.082 311.994 -120 306.062 C-120.573 305.684 -121.146 305.305 -121.736 304.915 C-129.382 299.834 -136.301 294.278 -143 288 C-145.027 286.221 -147.068 284.46 -149.113 282.703 C-151.496 280.552 -153.737 278.277 -156 276 C-156.755 275.279 -157.511 274.559 -158.289 273.816 C-167.776 264.662 -175.506 254.314 -183 243.5 C-183.457 242.842 -183.914 242.184 -184.385 241.505 C-186.914 237.794 -189.087 234.079 -191 230 C-184.886 221.282 -178.248 213.06 -171.5 204.832 C-166.568 198.808 -161.724 192.755 -157.227 186.398 C-156.822 185.937 -156.417 185.475 -156 185 C-155.34 185 -154.68 185 -154 185 C-153.774 184.465 -153.549 183.93 -153.316 183.379 C-151.574 180.229 -149.288 177.64 -146.938 174.938 C-145.943 173.781 -144.95 172.623 -143.957 171.465 C-143.46 170.886 -142.963 170.307 -142.452 169.71 C-139.591 166.34 -136.835 162.886 -134.07 159.438 C-131.841 156.813 -129.434 154.434 -127 152 C-125.766 150.521 -124.557 149.021 -123.375 147.5 C-120.18 143.451 -116.905 139.489 -113.562 135.562 C-104.721 125.16 -104.721 125.16 -96.289 114.426 C-95.835 113.825 -95.38 113.224 -94.912 112.605 C-94.027 111.429 -93.147 110.248 -92.273 109.062 C-91.228 107.672 -90.119 106.331 -89 105 C-88.34 105 -87.68 105 -87 105 C-86.783 104.473 -86.567 103.946 -86.344 103.402 C-84.489 100.087 -82.006 97.392 -79.5 94.562 C-74.793 89.184 -70.342 83.683 -66.123 77.912 C-65.127 76.574 -64.069 75.282 -63 74 C-62.34 74 -61.68 74 -61 74 C-60.772 73.462 -60.544 72.925 -60.309 72.371 C-58.599 69.273 -56.37 66.722 -54.062 64.062 C-53.066 62.9 -52.07 61.737 -51.074 60.574 C-50.309 59.685 -50.309 59.685 -49.529 58.779 C-47.131 55.989 -44.752 53.183 -42.375 50.375 C-41.686 49.561 -41.686 49.561 -40.982 48.73 C-36.593 43.536 -32.286 38.279 -28 33 C-26.329 30.942 -24.657 28.884 -22.986 26.825 C-21.858 25.436 -20.731 24.047 -19.604 22.657 C-18.563 21.374 -17.521 20.092 -16.476 18.812 C-15.509 17.625 -14.546 16.435 -13.588 15.241 C-10.95 11.992 -8.586 10.115 -5 8 C-2.576 5.306 -1.149 3.446 0 0 Z " fill="#004476" transform="translate(511,386)"/>
<path d="M0 0 C0.99 0.33 1.98 0.66 3 1 C1.749 4.754 0.435 5.241 -3 7 C-3.66 7 -4.32 7 -5 7 C-5 7.66 -5 8.32 -5 9 C-49.836 35.977 -101.928 48.259 -154 41 C-154.774 40.893 -155.547 40.786 -156.344 40.675 C-166.5 39.224 -176.216 37.099 -186 34 C-186 33.34 -186 32.68 -186 32 C-180.375 31.75 -180.375 31.75 -177 34 C-174.462 34.484 -171.995 34.875 -169.438 35.188 C-168.752 35.282 -168.067 35.377 -167.361 35.475 C-163.573 36.068 -163.573 36.068 -160 35 C-159.01 35 -158.02 35 -157 35 C-156.67 35.66 -156.34 36.32 -156 37 C-154.074 37.752 -154.074 37.752 -152 38 C-151.34 37.67 -150.68 37.34 -150 37 C-149.67 37.66 -149.34 38.32 -149 39 C-146.319 39.433 -146.319 39.433 -143.188 39.562 C-137.352 39.911 -137.352 39.911 -134.949 40.52 C-129.812 41.786 -123.917 41.332 -118.75 40.438 C-115.322 39.892 -112.397 40.388 -109 41 C-109 40.34 -109 39.68 -109 39 C-107.886 38.711 -106.773 38.423 -105.625 38.125 C-101.997 37.308 -101.997 37.308 -100 35 C-99.34 35.99 -98.68 36.98 -98 38 C-97.34 38.33 -96.68 38.66 -96 39 C-96 38.34 -96 37.68 -96 37 C-92.181 35.145 -90.079 34.849 -86 36 C-84.855 36.278 -84.855 36.278 -83.688 36.562 C-83.131 36.707 -82.574 36.851 -82 37 C-82 36.34 -82 35.68 -82 35 C-78.04 35 -74.08 35 -70 35 C-70 34.34 -70 33.68 -70 33 C-68.907 32.711 -67.814 32.423 -66.688 32.125 C-62.96 31.181 -62.96 31.181 -60 29 C-56.535 27.886 -53.648 27 -50 27 C-49.01 26.505 -49.01 26.505 -48 26 C-47.01 26.33 -46.02 26.66 -45 27 C-44.67 25.35 -44.34 23.7 -44 22 C-42.783 22.062 -41.566 22.124 -40.312 22.188 C-36.355 22.188 -34.242 21.366 -31 19 C-29.67 18.227 -29.67 18.227 -28.312 17.438 C-25.921 16.072 -25.921 16.072 -24 14 C-23.01 13.67 -22.02 13.34 -21 13 C-20.072 12.505 -20.072 12.505 -19.125 12 C-16.766 10.89 -14.563 10.427 -12 10 C-11.67 8.02 -11.34 6.04 -11 4 C-10.01 4.495 -10.01 4.495 -9 5 C-8.01 5 -7.02 5 -6 5 C-5.67 4.34 -5.34 3.68 -5 3 C-4.01 3 -3.02 3 -2 3 C-1.34 2.01 -0.68 1.02 0 0 Z " fill="#132B76" transform="translate(636,685)"/>
<path d="M0 0 C0.99 0.33 1.98 0.66 3 1 C1.749 4.754 0.435 5.241 -3 7 C-3.66 7 -4.32 7 -5 7 C-5 7.66 -5 8.32 -5 9 C-19.811 17.911 -35.197 25.623 -51.562 31.25 C-52.892 31.718 -52.892 31.718 -54.248 32.196 C-55.075 32.466 -55.902 32.737 -56.754 33.016 C-57.479 33.256 -58.204 33.496 -58.951 33.743 C-61.551 34.069 -62.802 33.345 -65 32 C-60.339 28.893 -55.655 27 -50 27 C-49.34 26.67 -48.68 26.34 -48 26 C-47.01 26.33 -46.02 26.66 -45 27 C-44.67 25.35 -44.34 23.7 -44 22 C-42.783 22.062 -41.566 22.124 -40.312 22.188 C-36.355 22.188 -34.242 21.366 -31 19 C-30.113 18.484 -29.226 17.969 -28.312 17.438 C-25.921 16.072 -25.921 16.072 -24 14 C-23.01 13.67 -22.02 13.34 -21 13 C-20.381 12.67 -19.763 12.34 -19.125 12 C-16.766 10.89 -14.563 10.427 -12 10 C-11.67 8.02 -11.34 6.04 -11 4 C-10.34 4.33 -9.68 4.66 -9 5 C-8.01 5 -7.02 5 -6 5 C-5.67 4.34 -5.34 3.68 -5 3 C-4.01 3 -3.02 3 -2 3 C-1.34 2.01 -0.68 1.02 0 0 Z " fill="#0A3E79" transform="translate(636,685)"/>
<path d="M0 0 C5.625 -0.25 5.625 -0.25 9 2 C11.538 2.484 14.005 2.875 16.562 3.188 C17.59 3.33 17.59 3.33 18.639 3.475 C22.427 4.068 22.427 4.068 26 3 C26.99 3 27.98 3 29 3 C29.33 3.66 29.66 4.32 30 5 C31.926 5.752 31.926 5.752 34 6 C34.66 5.67 35.32 5.34 36 5 C36.495 5.99 36.495 5.99 37 7 C39.681 7.433 39.681 7.433 42.812 7.562 C46.361 7.774 49.565 8.125 53 9 C54.794 8.969 54.794 8.969 56.625 8.938 C60 9 60 9 62 11 C41.341 11.836 19.661 8.227 0 2 C0 1.34 0 0.68 0 0 Z " fill="#021C6B" transform="translate(450,717)"/>
<path d="M0 0 C1.65 0.33 3.3 0.66 5 1 C5 1.99 5 2.98 5 4 C5.66 4 6.32 4 7 4 C7.33 3.34 7.66 2.68 8 2 C8 2.99 8 3.98 8 5 C9.729 5.481 11.458 5.96 13.188 6.438 C14.15 6.704 15.113 6.971 16.105 7.246 C21.13 8.907 21.13 8.907 26 8 C26.66 8.66 27.32 9.32 28 10 C27.67 10.66 27.34 11.32 27 12 C27.66 12.33 28.32 12.66 29 13 C25.577 14.189 23.793 13.831 20.48 12.453 C19.623 12.102 18.765 11.752 17.881 11.391 C16.992 11.014 16.103 10.638 15.188 10.25 C14.31 9.889 13.433 9.528 12.529 9.156 C7.667 7.149 2.83 5.082 -2 3 C-1.34 2.67 -0.68 2.34 0 2 C0 1.34 0 0.68 0 0 Z " fill="#0A2F6A" transform="translate(420,704)"/>
<path d="M0 0 C5.625 -0.25 5.625 -0.25 9 2 C11.538 2.484 14.005 2.875 16.562 3.188 C17.59 3.33 17.59 3.33 18.639 3.475 C22.427 4.068 22.427 4.068 26 3 C26.99 3.99 27.98 4.98 29 6 C18.665 8.299 9.786 5.111 0 2 C0 1.34 0 0.68 0 0 Z " fill="#06256B" transform="translate(450,717)"/>
<path d="M0 0 C1.32 0.99 2.64 1.98 4 3 C3.683 3.552 3.366 4.103 3.039 4.672 C1.873 7.285 1.6 9.406 1.375 12.25 C1.3 13.142 1.225 14.034 1.148 14.953 C1.099 15.629 1.05 16.304 1 17 C0.67 17 0.34 17 0 17 C-0.33 13.7 -0.66 10.4 -1 7 C-1.723 7.866 -1.723 7.866 -2.461 8.75 C-3.408 9.864 -3.408 9.864 -4.375 11 C-5.315 12.114 -5.315 12.114 -6.273 13.25 C-6.843 13.827 -7.413 14.405 -8 15 C-8.66 15 -9.32 15 -10 15 C-8.378 11.415 -6.207 8.41 -3.875 5.25 C-3.151 4.265 -2.426 3.28 -1.68 2.266 C-1.125 1.518 -0.571 0.77 0 0 Z " fill="#005B93" transform="translate(512,382)"/>
<path d="M0 0 C-1.464 3.069 -3.14 5.904 -5 8.75 C-5.516 9.549 -6.031 10.348 -6.562 11.172 C-7.037 11.775 -7.511 12.378 -8 13 C-8.66 13 -9.32 13 -10 13 C-10.66 14.32 -11.32 15.64 -12 17 C-12.66 16.01 -13.32 15.02 -14 14 C-13.25 12.062 -13.25 12.062 -12 10 C-11.34 9.856 -10.68 9.711 -10 9.562 C-9.01 9.284 -9.01 9.284 -8 9 C-6.508 6.142 -6.508 6.142 -6 3 C-2.4 0 -2.4 0 0 0 Z " fill="#0A4C8B" transform="translate(694,630)"/>
<path d="M0 0 C0.33 1.32 0.66 2.64 1 4 C1.66 4 2.32 4 3 4 C5.388 26.801 5.388 26.801 5 36 C4.67 36 4.34 36 4 36 C2.671 28.025 2.912 20.058 3 12 C2.34 12 1.68 12 1 12 C0.018 7.947 -0.082 4.161 0 0 Z " fill="#24160F" transform="translate(728,478)"/>
<path d="M0 0 C0.33 0.99 0.66 1.98 1 3 C0.602 3.418 0.204 3.835 -0.206 4.266 C-2.038 6.194 -3.863 8.128 -5.688 10.062 C-6.313 10.719 -6.939 11.376 -7.584 12.053 C-11.449 16.16 -14.828 20.336 -18 25 C-18.66 24.67 -19.32 24.34 -20 24 C-13.57 15.792 -6.818 7.886 0 0 Z " fill="#005C94" transform="translate(474,430)"/>
<path d="M0 0 C0.454 0.474 0.908 0.949 1.375 1.438 C2.933 3.09 2.933 3.09 5 4 C5 3.34 5 2.68 5 2 C8.784 0.162 10.953 -0.203 15 1 C15.66 1.33 16.32 1.66 17 2 C12.087 3.862 7.431 4.583 2.25 5.125 C1.1 5.255 1.1 5.255 -0.074 5.387 C-5.613 6 -5.613 6 -8 6 C-8 5.34 -8 4.68 -8 4 C-6.866 3.711 -5.731 3.423 -4.562 3.125 C-3.387 2.754 -2.211 2.383 -1 2 C-0.67 1.34 -0.34 0.68 0 0 Z " fill="#053B69" transform="translate(535,720)"/>
<path d="M0 0 C0.99 0.99 1.98 1.98 3 3 C1.401 4.485 -0.204 5.963 -1.812 7.438 C-3.152 8.673 -3.152 8.673 -4.52 9.934 C-7 12 -7 12 -10 13 C-10.66 12.67 -11.32 12.34 -12 12 C-11.67 11.01 -11.34 10.02 -11 9 C-9 8.333 -7 7.667 -5 7 C-4.67 6.01 -4.34 5.02 -4 4 C-3.34 4 -2.68 4 -2 4 C-2 3.34 -2 2.68 -2 2 C-1.34 2 -0.68 2 0 2 C0 1.34 0 0.68 0 0 Z " fill="#0A4281" transform="translate(652,672)"/>
<path d="M0 0 C0 0.99 0 1.98 0 3 C-0.66 3 -1.32 3 -2 3 C-2.227 3.619 -2.454 4.237 -2.688 4.875 C-4.412 7.667 -5.91 8.044 -9 9 C-9.722 9.103 -10.444 9.206 -11.188 9.312 C-13.303 9.878 -13.303 9.878 -14.25 12.562 C-14.497 13.367 -14.745 14.171 -15 15 C-15.33 14.34 -15.66 13.68 -16 13 C-17.98 13.33 -19.96 13.66 -22 14 C-19.03 12.02 -16.011 10.19 -12.938 8.375 C-11.874 7.743 -10.811 7.112 -9.715 6.461 C-7 5 -7 5 -5 5 C-5 4.34 -5 3.68 -5 3 C-2.5 1.375 -2.5 1.375 0 0 Z " fill="#F0A00C" transform="translate(636,689)"/>
<path d="M0 0 C9.092 4.176 16.068 12.953 23 20 C21.68 20.33 20.36 20.66 19 21 C18.616 20.288 18.232 19.577 17.836 18.844 C15.749 15.611 13.378 13.185 10.625 10.5 C9.221 9.123 9.221 9.123 7.789 7.719 C6.869 6.822 5.948 5.924 5 5 C3.328 3.338 1.664 1.67 0 0 Z " fill="#FBB912" transform="translate(673,311)"/>
<path d="M0 0 C0 0.99 0 1.98 0 3 C-0.66 3.66 -1.32 4.32 -2 5 C-2.248 5.763 -2.495 6.526 -2.75 7.312 C-4.135 10.29 -5.832 11.681 -8.402 13.664 C-10.978 15.818 -12.922 18.372 -15 21 C-15 17.365 -14.26 16.745 -11.973 14.023 C-11.346 13.271 -10.718 12.518 -10.072 11.742 C-9.409 10.961 -8.746 10.18 -8.062 9.375 C-7.403 8.586 -6.744 7.797 -6.064 6.984 C-1.319 1.319 -1.319 1.319 0 0 Z " fill="#005D96" transform="translate(497,402)"/>
<path d="M0 0 C7.262 -0.492 7.262 -0.492 11 2 C11.66 2.66 12.32 3.32 13 4 C12.67 4.66 12.34 5.32 12 6 C7.012 5.525 3.977 4.03 0 1 C0 0.67 0 0.34 0 0 Z " fill="#042C6E" transform="translate(399,696)"/>
<path d="M0 0 C0.33 0.99 0.66 1.98 1 3 C-0.375 4.5 -0.375 4.5 -2 6 C-2.66 6 -3.32 6 -4 6 C-4.255 6.562 -4.51 7.124 -4.773 7.703 C-6.157 10.294 -7.799 12.451 -9.625 14.75 C-10.572 15.949 -10.572 15.949 -11.539 17.172 C-12.021 17.775 -12.503 18.378 -13 19 C-13.66 18.67 -14.32 18.34 -15 18 C-13.382 15.827 -11.757 13.662 -10.125 11.5 C-9.665 10.88 -9.205 10.26 -8.73 9.621 C-7.534 8.044 -6.271 6.517 -5 5 C-4.34 5 -3.68 5 -3 5 C-2.691 4.361 -2.381 3.721 -2.062 3.062 C-1 1 -1 1 0 0 Z " fill="#005A94" transform="translate(453,455)"/>
<path d="M0 0 C0.763 0.309 1.526 0.619 2.312 0.938 C4.188 1.679 6.087 2.362 8 3 C9.667 4.667 11.333 6.333 13 8 C15.284 9.752 17.625 11.37 20 13 C16.762 13 16.085 12.643 13.496 10.918 C12.838 10.48 12.18 10.043 11.502 9.592 C10.821 9.128 10.139 8.665 9.438 8.188 C8.752 7.736 8.067 7.284 7.361 6.818 C4.158 4.665 2.184 3.276 0 0 Z " fill="#0F2F74" transform="translate(376,680)"/>
<path d="M0 0 C7.254 0.476 13.268 2.295 20 5 C17 6 17 6 14 6 C14 5.34 14 4.68 14 4 C13.112 3.927 13.112 3.927 12.207 3.852 C7.809 3.435 4.031 2.95 0 1 C0 0.67 0 0.34 0 0 Z " fill="#F7B611" transform="translate(569,259)"/>
<path d="M0 0 C1.32 0.66 2.64 1.32 4 2 C4 2.33 4 2.66 4 3 C2.252 3.223 0.501 3.428 -1.25 3.625 C-2.225 3.741 -3.199 3.857 -4.203 3.977 C-7.134 4.001 -8.545 3.531 -11 2 C-7.532 0.844 -4.634 1 -1 1 C-0.67 0.67 -0.34 0.34 0 0 Z " fill="#18335C" transform="translate(475,720)"/>
<path d="M0 0 C0.722 0.33 1.444 0.66 2.188 1 C5.017 2.006 7.029 2.17 10 2 C10.33 2.66 10.66 3.32 11 4 C10.67 4.66 10.34 5.32 10 6 C10.66 6 11.32 6 12 6 C12 6.99 12 7.98 12 9 C8.58 7.798 6.399 6.712 4 4 C3.278 3.278 2.556 2.556 1.812 1.812 C1.214 1.214 0.616 0.616 0 0 Z " fill="#F5A812" transform="translate(637,326)"/>
<path d="M0 0 C0.66 0 1.32 0 2 0 C-0.609 6.709 -0.609 6.709 -2 9 C-2.99 9.33 -3.98 9.66 -5 10 C-5.33 10.66 -5.66 11.32 -6 12 C-6.66 11.67 -7.32 11.34 -8 11 C-6.716 9.161 -5.423 7.329 -4.125 5.5 C-3.046 3.969 -3.046 3.969 -1.945 2.406 C-1.303 1.612 -0.661 0.818 0 0 Z " fill="#00558D" transform="translate(422,491)"/>
<path d="M0 0 C0.99 0.33 1.98 0.66 3 1 C2.188 3.438 2.188 3.438 1 6 C0.01 6.33 -0.98 6.66 -2 7 C-3.219 9.504 -3.219 9.504 -4 12 C-5 9 -5 9 -4.004 6.738 C-3.528 5.938 -3.053 5.137 -2.562 4.312 C-2.089 3.504 -1.616 2.696 -1.129 1.863 C-0.756 1.248 -0.384 0.634 0 0 Z " fill="#EEA310" transform="translate(708,607)"/>
<path d="M0 0 C1.32 0.99 2.64 1.98 4 3 C3.524 3.828 3.524 3.828 3.039 4.672 C1.873 7.285 1.6 9.406 1.375 12.25 C1.3 13.142 1.225 14.034 1.148 14.953 C1.099 15.629 1.05 16.304 1 17 C0.67 17 0.34 17 0 17 C0 11.39 0 5.78 0 0 Z " fill="#0074A0" transform="translate(512,382)"/>
<path d="M0 0 C0.976 0.102 1.952 0.204 2.957 0.309 C3.693 0.392 4.429 0.476 5.188 0.562 C5.188 0.893 5.188 1.222 5.188 1.562 C-0.838 2.634 -6.702 2.662 -12.812 2.562 C-9.145 -1.105 -4.896 -0.531 0 0 Z " fill="#042578" transform="translate(524.8125,725.4375)"/>
<path d="M0 0 C-2.571 2.571 -4.605 2.801 -8.125 3.625 C-9.221 3.885 -10.316 4.146 -11.445 4.414 C-12.288 4.607 -13.131 4.801 -14 5 C-14.33 4.34 -14.66 3.68 -15 3 C-12.36 2.67 -9.72 2.34 -7 2 C-7 1.34 -7 0.68 -7 0 C-4.333 -1.333 -2.833 -0.671 0 0 Z " fill="#042C7C" transform="translate(573,718)"/>
<path d="M0 0 C0.33 0.66 0.66 1.32 1 2 C-1.957 6.477 -4.058 9.6 -9 12 C-7.556 8.761 -5.742 6.38 -3.375 3.75 C-2.743 3.044 -2.112 2.337 -1.461 1.609 C-0.979 1.078 -0.497 0.547 0 0 Z " fill="#00568E" transform="translate(410,507)"/>
<path d="M0 0 C0.99 0.33 1.98 0.66 3 1 C2.67 4.3 2.34 7.6 2 11 C1.01 11 0.02 11 -1 11 C-0.67 7.37 -0.34 3.74 0 0 Z " fill="#E88B0F" transform="translate(260,462)"/>
<path d="M0 0 C0.33 0.66 0.66 1.32 1 2 C2.926 2.752 2.926 2.752 5 3 C5.66 2.67 6.32 2.34 7 2 C7.33 2.99 7.66 3.98 8 5 C3.155 6.514 -0.259 5.366 -5 4 C-5 3.67 -5 3.34 -5 3 C-3.35 3 -1.7 3 0 3 C0 2.01 0 1.02 0 0 Z " fill="#052666" transform="translate(479,720)"/>
<path d="M0 0 C0.66 0.33 1.32 0.66 2 1 C0.607 4.367 -0.979 5.986 -4 8 C-4.66 7.01 -5.32 6.02 -6 5 C-4.366 3.292 -3.131 2.065 -1 1 C-0.67 0.67 -0.34 0.34 0 0 Z " fill="#1B4A79" transform="translate(662,664)"/>
<path d="M0 0 C0.33 0.66 0.66 1.32 1 2 C-0.1 3.295 -1.205 4.586 -2.312 5.875 C-2.927 6.594 -3.542 7.314 -4.176 8.055 C-6 10 -6 10 -9 12 C-7.118 7.723 -4.284 2.142 0 0 Z " fill="#00558E" transform="translate(373,551)"/>
<path d="M0 0 C0.99 0.33 1.98 0.66 3 1 C0.978 3.022 -0.259 3.676 -2.875 4.688 C-3.553 4.959 -4.231 5.231 -4.93 5.512 C-7.311 6.073 -8.704 5.767 -11 5 C-8.333 3.667 -5.667 2.333 -3 1 C-2.01 1.33 -1.02 1.66 0 2 C0 1.34 0 0.68 0 0 Z " fill="#02327F" transform="translate(591,710)"/>
<path d="M0 0 C0.33 0 0.66 0 1 0 C0.461 5.277 -0.773 9.256 -3 14 C-4.26 10.221 -3.481 8.966 -2.062 5.312 C-1.682 4.319 -1.302 3.325 -0.91 2.301 C-0.61 1.542 -0.309 0.782 0 0 Z " fill="#F6B410" transform="translate(752,591)"/>
<path d="M0 0 C0.66 0.33 1.32 0.66 2 1 C-0.751 3.955 -3.397 6.152 -7 8 C-7.99 8 -8.98 8 -10 8 C-8.898 7.04 -7.793 6.082 -6.688 5.125 C-5.765 4.324 -5.765 4.324 -4.824 3.508 C-3 2 -3 2 0 0 Z " fill="#060611" transform="translate(386,327)"/>
<path d="M0 0 C2.97 0.495 2.97 0.495 6 1 C6 1.99 6 2.98 6 4 C4.125 4.625 4.125 4.625 2 5 C1.34 4.34 0.68 3.68 0 3 C0 2.01 0 1.02 0 0 Z " fill="#0D4270" transform="translate(592,707)"/>
<path d="M0 0 C0.33 0.99 0.66 1.98 1 3 C-0.98 4.32 -2.96 5.64 -5 7 C-5.33 5.68 -5.66 4.36 -6 3 C-4.02 2.01 -2.04 1.02 0 0 Z " fill="#F39B0F" transform="translate(613,703)"/>
<path d="M0 0 C6.646 3.2 6.646 3.2 8.438 7.25 C8.623 8.158 8.809 9.065 9 10 C7.868 9.092 6.745 8.173 5.625 7.25 C4.999 6.74 4.372 6.229 3.727 5.703 C1.917 3.918 0.999 2.321 0 0 Z " fill="#022E82" transform="translate(348,653)"/>
<path d="M0 0 C0 3.562 -0.761 4.411 -2.875 7.188 C-3.409 7.903 -3.942 8.618 -4.492 9.355 C-4.99 9.898 -5.487 10.441 -6 11 C-6.66 11 -7.32 11 -8 11 C-6.636 8.008 -5.051 5.71 -2.875 3.25 C-2.336 2.636 -1.797 2.023 -1.242 1.391 C-0.627 0.702 -0.627 0.702 0 0 Z " fill="#00528B" transform="translate(334,598)"/>
<path d="M0 0 C0.66 0.33 1.32 0.66 2 1 C-0.31 3.64 -2.62 6.28 -5 9 C-5.66 8.67 -6.32 8.34 -7 8 C-4.69 5.36 -2.38 2.72 0 0 Z " fill="#F2A210" transform="translate(314,346)"/>
<path d="M0 0 C1.418 0.115 2.834 0.243 4.25 0.375 C5.039 0.445 5.828 0.514 6.641 0.586 C9.086 1.015 10.848 1.786 13 3 C10.69 3.66 8.38 4.32 6 5 C5.34 4.01 4.68 3.02 4 2 C1.95 0.808 1.95 0.808 0 0 Z " fill="#FCBD12" transform="translate(555,256)"/>
<path d="M0 0 C1.98 0 3.96 0 6 0 C5.01 0.495 5.01 0.495 4 1 C4 1.66 4 2.32 4 3 C1.69 3.33 -0.62 3.66 -3 4 C-3 3.34 -3 2.68 -3 2 C-2.01 2 -1.02 2 0 2 C0 1.34 0 0.68 0 0 Z " fill="#0F3671" transform="translate(554,720)"/>
<path d="M0 0 C2.475 0.99 2.475 0.99 5 2 C5 2.99 5 3.98 5 5 C2.03 4.505 2.03 4.505 -1 4 C-0.67 2.68 -0.34 1.36 0 0 Z " fill="#0D3965" transform="translate(406,697)"/>
<path d="M0 0 C0.99 0.33 1.98 0.66 3 1 C2.67 1.99 2.34 2.98 2 4 C1.01 4.33 0.02 4.66 -1 5 C-1.66 4.67 -2.32 4.34 -3 4 C-2.67 3.01 -2.34 2.02 -2 1 C-1.34 0.67 -0.68 0.34 0 0 Z " fill="#0E4676" transform="translate(643,680)"/>
<path d="M0 0 C-6 4 -6 4 -8 5 C-8 4.34 -8 3.68 -8 3 C-8.99 2.67 -9.98 2.34 -11 2 C-7.17 0.198 -4.219 -0.196 0 0 Z " fill="#06060F" transform="translate(454,296)"/>
<path d="M0 0 C0.99 0.33 1.98 0.66 3 1 C1.715 3.867 0.429 5.976 -2 8 C-2.66 8 -3.32 8 -4 8 C-4 7.34 -4 6.68 -4 6 C-3.01 5.34 -2.02 4.68 -1 4 C-0.276 1.941 -0.276 1.941 0 0 Z " fill="#0A438E" transform="translate(669,656)"/>
<path d="M0 0 C1.875 0.25 1.875 0.25 4 1 C5.25 3.062 5.25 3.062 6 5 C3.69 4.34 1.38 3.68 -1 3 C-0.67 2.01 -0.34 1.02 0 0 Z " fill="#EFA010" transform="translate(592,300)"/>
<path d="M0 0 C2.64 0.33 5.28 0.66 8 1 C8 1.66 8 2.32 8 3 C5.36 2.67 2.72 2.34 0 2 C0 1.34 0 0.68 0 0 Z " fill="#EC9513" transform="translate(542,725)"/>
<path d="M0 0 C0.33 0.99 0.66 1.98 1 3 C1.51 4.234 2.031 5.463 2.562 6.688 C3.037 7.781 3.511 8.874 4 10 C1 9 1 9 -0.688 5.938 C-1.121 4.968 -1.554 3.999 -2 3 C-1.34 2.01 -0.68 1.02 0 0 Z " fill="#063E8E" transform="translate(322,613)"/>
</svg>
