<?xml version="1.0" encoding="UTF-8"?>
<!-- Generator: visioncortex VTracer 0.6.4 -->
<svg version="1.1" xmlns="http://www.w3.org/2000/svg" width="1024" height="1024">
<path d="M0 0 C337.92 0 675.84 0 1024 0 C1024 337.92 1024 675.84 1024 1024 C686.08 1024 348.16 1024 0 1024 C0 686.08 0 348.16 0 0 Z " fill="#141414" transform="translate(0,0)"/>
<path d="M0 0 C6.724 3.064 10.221 6.901 13.27 13.516 C15.333 19.509 14.944 26.014 12.605 31.875 C9.938 37.144 6.162 41.623 0.84 44.293 C-5.447 46.251 -13.18 46.282 -19.27 43.625 C-24.501 40.506 -27.627 35.644 -30.207 30.25 C-31.775 22.41 -31.309 16.463 -27.395 9.391 C-20.814 -0.151 -11.165 -3.45 0 0 Z M-22.496 12.402 C-25.137 17.785 -24.88 24.696 -23.141 30.387 C-20.945 34.621 -18.118 37.177 -13.832 39.125 C-8.556 39.888 -4.276 39.781 0.605 37.562 C5.92 32.507 7.422 28.876 7.73 21.625 C7.563 16.613 7.012 13.21 3.641 9.426 C-0.962 5.36 -5.379 4.518 -11.363 4.707 C-16.424 5.564 -19.539 8.356 -22.496 12.402 Z " fill="#F3F3F2" transform="translate(851.83203125,879.875)"/>
<path d="M0 0 C5.339 3.981 8.774 8.972 10.781 15.328 C11.584 22.21 10.049 28.212 6.781 34.328 C2.367 39.489 -2.436 42.868 -9.27 43.699 C-17.754 43.872 -22.612 42.734 -28.742 36.871 C-34.04 31.068 -34.75 25.01 -34.59 17.43 C-33.748 10.396 -30.702 5.13 -25.156 0.766 C-17.906 -4.302 -7.607 -4.427 0 0 Z M-24.691 9.059 C-28.263 14.043 -29.189 18.288 -28.219 24.328 C-26.75 29.426 -24.506 32.958 -20.375 36.223 C-15.558 38.692 -10.159 38.254 -5.098 36.66 C-1.393 34.836 1.277 32.216 3.121 28.52 C4.93 22.516 4.828 16.422 2.031 10.828 C1.289 10.003 0.546 9.178 -0.219 8.328 C-0.899 7.565 -1.58 6.802 -2.281 6.016 C-5.991 2.785 -10.028 2.984 -14.719 3.059 C-19.289 3.551 -21.781 5.639 -24.691 9.059 Z " fill="#F4F4F3" transform="translate(949.21875,881.671875)"/>
<path d="M0 0 C-0.812 1.938 -0.812 1.938 -2 4 C-2.99 4.33 -3.98 4.66 -5 5 C-5.825 4.526 -6.65 4.051 -7.5 3.562 C-12.38 1.384 -16.734 1.163 -22 2 C-25.412 3.642 -27.451 5.877 -29.129 9.309 C-30.859 14.653 -31.017 20.86 -29.277 26.23 C-27.248 30.083 -25.073 32.527 -21 34 C-15.018 34.567 -9.587 34.416 -4 32 C-4 28.37 -4 24.74 -4 21 C-8.29 21 -12.58 21 -17 21 C-17 19.35 -17 17.7 -17 16 C-10.73 16 -4.46 16 2 16 C2.155 20.331 2.155 20.331 2.312 24.75 C2.358 25.653 2.404 26.557 2.45 27.487 C2.553 33.414 2.553 33.414 -0.332 36.469 C-1.212 36.974 -2.093 37.479 -3 38 C-3.99 38.577 -4.98 39.155 -6 39.75 C-11.4 41.898 -17.313 41.647 -23 41 C-29.254 38.157 -34.192 32.449 -36.875 26.125 C-38.962 19.589 -38.821 14.165 -36 7.875 C-33.123 2.622 -28.919 -2.632 -23.086 -4.668 C-14.135 -6.093 -7.528 -5.019 0 0 Z " fill="#F4F3F3" transform="translate(908,884)"/>
<path d="M0 0 C2.875 -0.188 2.875 -0.188 6 0 C8.526 3.788 8.254 6.785 8.195 11.168 C8.192 11.963 8.19 12.758 8.187 13.576 C8.176 16.114 8.15 18.65 8.125 21.188 C8.115 22.908 8.106 24.629 8.098 26.35 C8.076 30.567 8.041 34.783 8 39 C8.661 38.995 9.322 38.99 10.004 38.984 C12.982 38.963 15.96 38.95 18.938 38.938 C19.978 38.929 21.019 38.921 22.092 38.912 C23.081 38.909 24.071 38.906 25.09 38.902 C26.006 38.897 26.923 38.892 27.867 38.886 C30 39 30 39 31 40 C31.133 41.812 31.133 41.812 31.125 44 C31.129 45.083 31.129 45.083 31.133 46.188 C31 48 31 48 30 49 C27.624 49.088 25.278 49.115 22.902 49.098 C21.839 49.096 21.839 49.096 20.754 49.093 C18.482 49.088 16.21 49.075 13.938 49.062 C12.4 49.057 10.863 49.053 9.326 49.049 C5.551 49.038 1.775 49.021 -2 49 C-3.241 46.518 -3.129 44.836 -3.133 42.062 C-3.134 41.085 -3.135 40.108 -3.137 39.102 C-3.133 38.078 -3.129 37.055 -3.125 36 C-3.129 34.976 -3.133 33.953 -3.137 32.898 C-3.135 31.921 -3.134 30.944 -3.133 29.938 C-3.132 29.039 -3.131 28.141 -3.129 27.215 C-3 25 -3 25 -2 23 C-1.849 21.48 -1.751 19.955 -1.684 18.43 C-1.642 17.534 -1.6 16.638 -1.557 15.715 C-1.498 14.309 -1.498 14.309 -1.438 12.875 C-1.394 11.93 -1.351 10.985 -1.307 10.012 C-1.2 7.675 -1.098 5.337 -1 3 C-0.34 2.67 0.32 2.34 1 2 C0.67 1.34 0.34 0.68 0 0 Z " fill="#212020" transform="translate(790,877)"/>
<path d="M0 0 C1.65 0 3.3 0 5 0 C5 12.87 5 25.74 5 39 C12.92 39 20.84 39 29 39 C29 40.65 29 42.3 29 44 C19.43 44 9.86 44 0 44 C0 29.48 0 14.96 0 0 Z " fill="#FEFEFD" transform="translate(790,880)"/>
<path d="M0 0 C0.33 0 0.66 0 1 0 C1 14.52 1 29.04 1 44 C10.57 44 20.14 44 30 44 C30 44.33 30 44.66 30 45 C14.655 45.495 14.655 45.495 -1 46 C-2.241 43.518 -2.129 41.836 -2.133 39.062 C-2.134 38.085 -2.135 37.108 -2.137 36.102 C-2.133 35.078 -2.129 34.055 -2.125 33 C-2.129 31.976 -2.133 30.953 -2.137 29.898 C-2.135 28.921 -2.134 27.944 -2.133 26.938 C-2.132 26.039 -2.131 25.141 -2.129 24.215 C-2 22 -2 22 -1 20 C-0.849 18.48 -0.751 16.955 -0.684 15.43 C-0.642 14.534 -0.6 13.638 -0.557 12.715 C-0.498 11.309 -0.498 11.309 -0.438 9.875 C-0.394 8.93 -0.351 7.985 -0.307 7.012 C-0.2 4.675 -0.098 2.337 0 0 Z " fill="#383736" transform="translate(789,880)"/>
<path d="M0 0 C1.195 -0.004 1.195 -0.004 2.414 -0.008 C3.247 -0 4.08 0.008 4.938 0.016 C5.77 0.008 6.603 0 7.461 -0.008 C8.258 -0.005 9.054 -0.003 9.875 0 C10.606 0.002 11.337 0.005 12.09 0.007 C13.938 0.266 13.938 0.266 15.938 2.266 C14.938 3.266 14.938 3.266 13.08 3.379 C12.289 3.374 11.498 3.369 10.684 3.363 C9.83 3.36 8.976 3.357 8.096 3.354 C7.198 3.345 6.3 3.337 5.375 3.328 C4.473 3.324 3.572 3.319 2.643 3.314 C0.407 3.303 -1.827 3.286 -4.062 3.266 C-4.062 4.916 -4.062 6.566 -4.062 8.266 C0.227 8.266 4.518 8.266 8.938 8.266 C8.938 11.896 8.938 15.526 8.938 19.266 C5.776 15.051 5.601 14.205 5.938 9.266 C5.155 9.277 4.373 9.289 3.566 9.301 C2.554 9.31 1.543 9.319 0.5 9.328 C-0.509 9.34 -1.519 9.351 -2.559 9.363 C-5.062 9.266 -5.062 9.266 -6.062 8.266 C-6.25 5.328 -6.25 5.328 -6.062 2.266 C-3.697 -0.1 -3.21 0.01 0 0 Z " fill="#1E1E1D" transform="translate(895.0625,896.734375)"/>
<path d="M0 0 C0.33 0 0.66 0 1 0 C1.086 0.88 1.173 1.761 1.262 2.668 C2.074 9.776 2.074 9.776 5 16.188 C9.144 18.691 13.24 19.381 18 20 C18 20.66 18 21.32 18 22 C13.378 22.37 9.945 22.446 5.688 20.438 C1.707 16.827 -0.715 13.71 -1.277 8.359 C-1.309 5.872 -1.289 3.471 -1 1 C-0.67 0.67 -0.34 0.34 0 0 Z " fill="#090808" transform="translate(878,897)"/>
<path d="M0 0 C1.231 3.694 0.644 6.206 0 10 C-0.33 10 -0.66 10 -1 10 C-1.026 10.892 -1.052 11.784 -1.078 12.703 C-1.135 13.874 -1.192 15.044 -1.25 16.25 C-1.32 17.99 -1.32 17.99 -1.391 19.766 C-2.088 23.467 -3.118 24.671 -6 27 C-6.66 26.67 -7.32 26.34 -8 26 C-7.519 25.541 -7.038 25.082 -6.543 24.609 C-4.206 20.657 -4.429 16.765 -4.312 12.25 C-4.278 11.362 -4.244 10.474 -4.209 9.559 C-4.127 7.373 -4.057 5.187 -4 3 C-3.01 3 -2.02 3 -1 3 C-0.67 2.01 -0.34 1.02 0 0 Z " fill="#020202" transform="translate(914,896)"/>
<path d="M0 0 C0.66 0 1.32 0 2 0 C2.33 0.99 2.66 1.98 3 3 C3.99 2.01 4.98 1.02 6 0 C5.988 0.846 5.977 1.691 5.965 2.562 C5.915 8.816 6.031 14.82 7 21 C6.34 20.67 5.68 20.34 5 20 C4.375 16.938 4.375 16.938 4 14 C3.01 14 2.02 14 1 14 C0.67 9.38 0.34 4.76 0 0 Z " fill="#060605" transform="translate(865,893)"/>
<path d="M0 0 C3.075 1.139 4.154 2.202 6.188 4.875 C10.098 9.796 15.976 11.849 22.062 12.75 C23.032 12.832 24.001 12.915 25 13 C25 13.66 25 14.32 25 15 C18.416 15.549 13.42 14.969 8 11 C4.538 7.671 1.532 4.597 0 0 Z " fill="#0C0B0B" transform="translate(915,913)"/>
<path d="M0 0 C0.33 0 0.66 0 1 0 C1.227 1.072 1.454 2.145 1.688 3.25 C3.345 7.985 5.598 9.799 10 12 C11.707 12.07 13.417 12.084 15.125 12.062 C16.035 12.053 16.945 12.044 17.883 12.035 C18.581 12.024 19.28 12.012 20 12 C19.67 12.99 19.34 13.98 19 15 C14.214 15.554 9.86 16.012 5.523 13.652 C2.161 10.87 0.284 8.886 -1.062 4.688 C-1 2 -1 2 0 0 Z " fill="#0A0A0A" transform="translate(923,904)"/>
<path d="M0 0 C3.912 1.156 6.875 2.355 10 5 C9.502 8.688 8.899 10.605 6 13 C5.34 12.67 4.68 12.34 4 12 C5.32 10.02 6.64 8.04 8 6 C7.423 5.711 6.845 5.423 6.25 5.125 C4.167 4.083 2.083 3.042 0 2 C0 1.34 0 0.68 0 0 Z " fill="#090908" transform="translate(900,878)"/>
<path d="M0 0 C4.29 0 8.58 0 13 0 C13 3.63 13 7.26 13 11 C9.839 6.785 9.663 5.939 10 1 C6.7 1 3.4 1 0 1 C0 0.67 0 0.34 0 0 Z " fill="#373635" transform="translate(891,905)"/>
<path d="M0 0 C2.805 4.208 3.128 7.25 3.062 12.25 C3.053 13.142 3.044 14.034 3.035 14.953 C3.024 15.629 3.012 16.304 3 17 C2.34 17 1.68 17 1 17 C0.638 14.543 0.285 12.084 -0.062 9.625 C-0.166 8.926 -0.27 8.228 -0.377 7.508 C-1.113 2.227 -1.113 2.227 0 0 Z " fill="#040404" transform="translate(959,890)"/>
<path d="M0 0 C0 0.66 0 1.32 0 2 C-1.77 2.337 -3.541 2.669 -5.312 3 C-6.792 3.278 -6.792 3.278 -8.301 3.562 C-11 4 -11 4 -14 4 C-10.365 -1.287 -5.796 -0.398 0 0 Z " fill="#0C0C0B" transform="translate(848,885)"/>
<path d="M0 0 C3.337 1.112 3.675 1.624 5.5 4.438 C7.26 7.139 8.199 8.133 11 10 C11 10.66 11 11.32 11 12 C6.011 10.826 4.013 7.817 1.137 3.875 C0 2 0 2 0 0 Z " fill="#090908" transform="translate(821,912)"/>
<path d="M0 0 C0.33 0.66 0.66 1.32 1 2 C-1.416 5.192 -3.68 7.747 -7 10 C-7.66 9.67 -8.32 9.34 -9 9 C-7.879 7.684 -6.753 6.372 -5.625 5.062 C-4.999 4.332 -4.372 3.601 -3.727 2.848 C-2 1 -2 1 0 0 Z " fill="#0B0B0A" transform="translate(957,915)"/>
<path d="M0 0 C0.33 0 0.66 0 1 0 C1.66 4.62 2.32 9.24 3 14 C2.01 13.67 1.02 13.34 0 13 C-0.947 10.158 -1.135 8.324 -1.125 5.375 C-1.128 4.578 -1.13 3.782 -1.133 2.961 C-1 1 -1 1 0 0 Z " fill="#070606" transform="translate(829,898)"/>
<path d="M0 0 C0.789 0.046 1.578 0.093 2.391 0.141 C3.19 0.177 3.989 0.213 4.812 0.25 C5.416 0.296 6.019 0.343 6.641 0.391 C6.641 1.051 6.641 1.711 6.641 2.391 C2.351 3.051 -1.939 3.711 -6.359 4.391 C-2.359 0.391 -2.359 0.391 0 0 Z " fill="#050505" transform="translate(840.359375,875.609375)"/>
<path d="M0 0 C0.66 0.33 1.32 0.66 2 1 C0.882 2.339 -0.245 3.671 -1.375 5 C-2.001 5.742 -2.628 6.485 -3.273 7.25 C-4.128 8.116 -4.128 8.116 -5 9 C-5.66 9 -6.32 9 -7 9 C-5.65 4.581 -3.739 2.657 0 0 Z " fill="#0C0C0C" transform="translate(930,886)"/>
<path d="M0 0 C0.33 0.99 0.66 1.98 1 3 C-1.171 5.875 -3.454 8.454 -6 11 C-7 8 -7 8 -5.812 5.5 C-4.058 3.081 -2.482 1.626 0 0 Z " fill="#1F1F1E" transform="translate(878,881)"/>
<path d="M0 0 C3.3 0.33 6.6 0.66 10 1 C10 1.66 10 2.32 10 3 C7.03 3 4.06 3 1 3 C0.67 2.01 0.34 1.02 0 0 Z " fill="#030203" transform="translate(930,925)"/>
<path d="M0 0 C3.3 0.33 6.6 0.66 10 1 C10 1.66 10 2.32 10 3 C2.25 3.125 2.25 3.125 0 2 C0 1.34 0 0.68 0 0 Z " fill="#050404" transform="translate(836,925)"/>
<path d="M0 0 C3.795 1.491 5.61 3.757 8 7 C7.01 7.33 6.02 7.66 5 8 C0 2.25 0 2.25 0 0 Z " fill="#060606" transform="translate(944,887)"/>
<path d="M0 0 C1.986 0.098 3.971 0.195 5.957 0.293 C5.957 0.953 5.957 1.613 5.957 2.293 C2.327 2.623 -1.303 2.953 -5.043 3.293 C-2.043 0.293 -2.043 0.293 0 0 Z " fill="#040404" transform="translate(890.04296875,875.70703125)"/>
<path d="M0 0 C2.97 0 5.94 0 9 0 C9 0.66 9 1.32 9 2 C5.7 2.33 2.4 2.66 -1 3 C-0.67 2.01 -0.34 1.02 0 0 Z " fill="#040403" transform="translate(888,885)"/>
<path d="M0 0 C0.33 0 0.66 0 1 0 C1.188 2.875 1.188 2.875 1 6 C0.01 6.66 -0.98 7.32 -2 8 C-2.99 7.67 -3.98 7.34 -5 7 C-4.041 6.66 -4.041 6.66 -3.062 6.312 C-0.728 5.147 -0.728 5.147 -0.25 2.375 C-0.168 1.591 -0.085 0.808 0 0 Z " fill="#030303" transform="translate(902,910)"/>
<path d="M0 0 C3.3 0 6.6 0 10 0 C9.67 0.99 9.34 1.98 9 3 C8.01 3 7.02 3 6 3 C6 2.34 6 1.68 6 1 C4.02 1 2.04 1 0 1 C0 0.67 0 0.34 0 0 Z " fill="#302F2F" transform="translate(840,925)"/>
</svg>
