<?xml version="1.0" encoding="UTF-8"?>
<!-- Generator: visioncortex VTracer 0.6.4 -->
<svg version="1.1" xmlns="http://www.w3.org/2000/svg" width="1024" height="1024">
<path d="M0 0 C337.92 0 675.84 0 1024 0 C1024 337.92 1024 675.84 1024 1024 C686.08 1024 348.16 1024 0 1024 C0 686.08 0 348.16 0 0 Z " fill="#0B097B" transform="translate(0,0)"/>
<path d="M0 0 C1.684 -0.002 3.367 -0.004 5.051 -0.007 C9.636 -0.014 14.221 -0.008 18.807 0 C23.768 0.007 28.729 0.002 33.69 -0.001 C43.394 -0.006 53.097 -0.001 62.8 0.008 C74.114 0.019 85.429 0.019 96.743 0.018 C116.941 0.018 137.138 0.027 157.335 0.041 C176.906 0.056 196.476 0.063 216.046 0.062 C217.854 0.062 217.854 0.062 219.698 0.062 C221.503 0.062 221.503 0.062 223.344 0.062 C245.662 0.061 267.981 0.067 290.299 0.076 C298.173 0.079 306.048 0.08 313.922 0.08 C323.529 0.081 333.135 0.086 342.742 0.095 C347.637 0.099 352.532 0.102 357.428 0.101 C361.919 0.1 366.411 0.104 370.903 0.111 C372.517 0.113 374.132 0.113 375.746 0.111 C383.858 0.103 391.942 0.23 400.044 0.677 C401.086 0.732 401.086 0.732 402.148 0.788 C415.986 1.64 427.687 8.062 439.821 14.247 C439.821 14.907 439.821 15.567 439.821 16.247 C440.4 16.519 440.979 16.791 441.575 17.071 C451.395 22.212 458.14 30.661 464.821 39.247 C465.539 40.112 465.539 40.112 466.271 40.993 C470.557 46.415 472.583 52.78 474.821 59.247 C475.218 60.25 475.615 61.253 476.024 62.286 C483.101 82.371 479.719 105.657 470.853 124.599 C467.626 131.078 463.979 138.106 458.821 143.247 C458.161 143.247 457.501 143.247 456.821 143.247 C456.56 143.825 456.298 144.402 456.028 144.997 C453.044 150.56 448.05 155.762 442.821 159.247 C441.831 159.247 440.841 159.247 439.821 159.247 C439.821 159.907 439.821 160.567 439.821 161.247 C436.405 164.554 432.722 166.331 428.396 168.122 C425.938 169.153 425.938 169.153 424.121 170.168 C418.635 173.121 413.199 174.602 407.134 175.935 C406.21 176.147 405.287 176.359 404.335 176.577 C401.833 177.148 399.33 177.708 396.821 178.247 C396.092 178.42 395.362 178.593 394.61 178.77 C391.307 179.335 388.18 179.378 384.828 179.384 C383.785 179.388 383.785 179.388 382.72 179.392 C380.385 179.4 378.049 179.401 375.714 179.401 C374.024 179.405 372.335 179.41 370.645 179.414 C365.998 179.426 361.35 179.432 356.702 179.437 C351.691 179.443 346.68 179.454 341.669 179.465 C329.561 179.489 317.453 179.504 305.345 179.517 C301.923 179.521 298.501 179.525 295.08 179.529 C273.817 179.554 252.555 179.576 231.293 179.588 C226.367 179.591 221.442 179.594 216.517 179.597 C215.293 179.598 214.069 179.599 212.808 179.6 C193.002 179.612 173.196 179.645 153.39 179.687 C133.04 179.73 112.691 179.753 92.341 179.758 C80.922 179.762 69.503 179.773 58.084 179.806 C48.353 179.835 38.623 179.845 28.892 179.834 C23.933 179.829 18.975 179.832 14.017 179.857 C-10.353 179.973 -31.886 179.393 -54.179 168.247 C-54.179 167.587 -54.179 166.927 -54.179 166.247 C-55.231 166.133 -55.231 166.133 -56.304 166.017 C-59.977 165.033 -62.186 163.267 -65.179 160.935 C-66.189 160.155 -67.2 159.375 -68.241 158.571 C-69.211 157.804 -70.18 157.037 -71.179 156.247 C-72.436 155.311 -72.436 155.311 -73.718 154.357 C-76.714 151.789 -79.137 148.908 -81.554 145.81 C-82.032 145.199 -82.51 144.588 -83.003 143.958 C-88.999 136.104 -93.573 127.442 -97.179 118.247 C-97.433 117.639 -97.687 117.03 -97.948 116.403 C-101.385 107.87 -102.552 99.281 -102.491 90.122 C-102.486 89.213 -102.48 88.303 -102.474 87.366 C-102.064 64.211 -92.534 43.375 -75.964 27.068 C-70.611 22.247 -70.611 22.247 -68.179 22.247 C-68.179 21.587 -68.179 20.927 -68.179 20.247 C-67.599 19.944 -67.019 19.641 -66.421 19.329 C-62.693 17.33 -59.409 15.444 -56.179 12.685 C-50.05 7.705 -42.937 5.743 -35.366 3.861 C-33.219 3.451 -33.219 3.451 -32.179 2.247 C-21.47 0.216 -10.859 -0.038 0 0 Z " fill="#090D8F" transform="translate(323.1786804199219,652.7527618408203)"/>
<path d="M0 0 C1.041 -0.014 2.081 -0.028 3.153 -0.042 C19.055 0.055 34.969 5.062 46.438 16.375 C65.638 38.045 66.767 68.85 66.703 96.305 C66.704 98.391 66.706 100.477 66.709 102.564 C66.712 106.912 66.708 111.26 66.698 115.609 C66.687 121.131 66.693 126.653 66.705 132.175 C66.713 136.477 66.71 140.779 66.705 145.081 C66.704 147.115 66.705 149.148 66.71 151.182 C66.738 166.806 66.252 182.425 62.562 197.688 C62.302 198.797 62.302 198.797 62.036 199.928 C61.52 202.082 60.984 204.229 60.438 206.375 C60.14 207.562 59.842 208.749 59.535 209.973 C55.519 224.433 48.49 235.123 35.5 242.625 C17.267 252.736 -3.244 253.967 -23.297 248.695 C-38.38 244.276 -50.841 235.191 -58.562 221.375 C-63.043 211.971 -65.688 202.636 -67.562 192.375 C-67.937 190.666 -68.312 188.958 -68.688 187.25 C-70.891 175.827 -70.725 164.202 -70.73 152.617 C-70.734 150.903 -70.737 149.189 -70.741 147.475 C-70.747 143.889 -70.748 140.304 -70.748 136.718 C-70.748 133.098 -70.755 129.477 -70.768 125.857 C-71.088 40.18 -71.088 40.18 -48.562 17.375 C-34.786 4.234 -18.465 0.171 0 0 Z " fill="#FDEF91" transform="translate(438.5625,345.625)"/>
<path d="M0 0 C1.613 -0.011 1.613 -0.011 3.258 -0.021 C6.816 -0.039 10.374 -0.027 13.932 -0.014 C16.403 -0.016 18.874 -0.02 21.345 -0.025 C26.526 -0.031 31.706 -0.023 36.887 -0.004 C43.53 0.019 50.172 0.006 56.815 -0.018 C61.918 -0.033 67.021 -0.028 72.125 -0.018 C74.574 -0.015 77.023 -0.018 79.473 -0.028 C82.896 -0.038 86.319 -0.022 89.742 0 C90.756 -0.008 91.77 -0.016 92.814 -0.025 C97.175 0.028 99.748 0.113 103.565 2.359 C106.134 5.323 106.067 7.222 106.065 11.111 C106.067 12.389 106.069 13.666 106.071 14.982 C106.058 15.645 106.046 16.307 106.033 16.99 C105.998 19.012 106.012 21.03 106.031 23.053 C105.958 32.782 105.958 32.782 103.901 35.68 C100.51 38.207 97.517 38.049 93.454 37.972 C92.654 37.972 91.854 37.973 91.029 37.973 C88.388 37.971 85.748 37.94 83.108 37.908 C81.275 37.901 79.442 37.895 77.609 37.891 C72.789 37.876 67.969 37.837 63.149 37.792 C58.229 37.751 53.309 37.733 48.389 37.713 C38.738 37.67 29.087 37.602 19.436 37.518 C19.441 38.565 19.446 39.613 19.452 40.692 C19.47 44.647 19.481 48.602 19.491 52.557 C19.496 54.256 19.502 55.954 19.511 57.653 C19.563 67.998 19.373 78.207 18.436 88.518 C19.112 88.19 19.789 87.863 20.486 87.526 C23.217 86.206 25.952 84.893 28.686 83.58 C29.654 83.112 30.622 82.643 31.619 82.16 C33.021 81.488 33.021 81.488 34.451 80.803 C35.74 80.182 35.74 80.182 37.054 79.549 C48.83 74.449 65.036 77.293 76.561 81.705 C89.363 87.411 97.147 96.669 102.686 109.455 C103.691 112.117 104.584 114.803 105.436 117.518 C105.753 118.506 105.753 118.506 106.077 119.514 C113.134 142.859 111.619 172.915 106.436 196.518 C106.231 197.625 106.026 198.732 105.815 199.873 C102.896 213.886 95.242 227.714 83.686 236.33 C65.236 248.347 42.295 249.084 21.061 245.455 C9.578 242.594 -0.921 237.632 -7.564 227.518 C-13.58 217.007 -17.546 206.627 -19.252 194.643 C-19.381 193.821 -19.511 193 -19.644 192.154 C-20.564 185.917 -20.706 179.816 -20.564 173.518 C-14.904 173.468 -9.244 173.432 -3.584 173.408 C-1.658 173.398 0.269 173.384 2.195 173.367 C4.96 173.343 7.725 173.331 10.49 173.322 C11.355 173.312 12.22 173.302 13.111 173.291 C15.22 173.291 17.33 173.395 19.436 173.518 C21.802 175.884 21.786 176.713 22.147 179.955 C22.255 180.846 22.363 181.736 22.474 182.654 C22.585 183.599 22.696 184.544 22.811 185.518 C24.657 200.266 24.657 200.266 33.752 211.459 C38.5 214.444 44.046 214.033 49.436 213.518 C54.248 212.195 56.825 210.338 59.811 206.33 C64.143 197.292 64.247 186.663 65.061 176.83 C65.126 176.056 65.191 175.281 65.258 174.483 C68.191 147.668 68.191 147.668 61.748 122.08 C57.3 117.151 52.602 115.3 45.998 114.893 C38.837 115.19 34.406 118.554 29.463 123.486 C26.769 126.46 24.363 129.523 22.186 132.893 C20.436 135.518 20.436 135.518 17.436 137.518 C14.189 137.776 14.189 137.776 10.213 137.783 C9.512 137.785 8.811 137.787 8.088 137.789 C6.608 137.79 5.128 137.787 3.647 137.778 C1.378 137.768 -0.891 137.778 -3.16 137.791 C-4.598 137.79 -6.036 137.787 -7.474 137.783 C-8.785 137.781 -10.096 137.779 -11.447 137.776 C-14.564 137.518 -14.564 137.518 -16.564 135.518 C-16.803 132.673 -16.803 132.673 -16.786 128.953 C-16.785 128.269 -16.784 127.586 -16.784 126.881 C-16.778 124.573 -16.757 122.266 -16.736 119.959 C-16.727 118.308 -16.719 116.656 -16.712 115.005 C-16.681 109.509 -16.625 104.013 -16.564 98.518 C-16.554 97.56 -16.544 96.602 -16.533 95.615 C-16.402 83.383 -16.222 71.152 -15.989 58.922 C-15.888 53.597 -15.795 48.273 -15.72 42.948 C-15.647 37.685 -15.554 32.423 -15.448 27.161 C-15.411 25.18 -15.381 23.199 -15.358 21.218 C-15.324 18.482 -15.266 15.748 -15.202 13.013 C-15.198 12.207 -15.193 11.401 -15.189 10.57 C-15.091 7.313 -14.769 4.888 -13.185 2.019 C-8.962 -0.401 -4.783 -0.038 0 0 Z " fill="#FDEF91" transform="translate(543.564208984375,348.482421875)"/>
<path d="M0 0 C8.66 7.676 11.068 18.483 11.916 29.616 C12.061 32.073 12.184 34.529 12.296 36.988 C12.338 37.904 12.38 38.82 12.424 39.763 C12.865 50.053 12.933 60.339 12.953 70.637 C12.957 72.146 12.957 72.146 12.962 73.686 C12.977 78.998 12.986 84.31 12.99 89.621 C12.996 95.044 13.02 100.466 13.048 105.888 C13.067 110.122 13.072 114.356 13.074 118.59 C13.077 120.588 13.084 122.585 13.098 124.583 C13.203 141.644 13.065 161.49 3.875 176.5 C-0.865 180.822 -5.341 182.135 -11.656 181.906 C-17.22 180.901 -21.311 177.846 -24.816 173.492 C-31.924 161.993 -32.401 147.262 -32.395 134.119 C-32.4 132.456 -32.4 132.456 -32.405 130.76 C-32.415 127.109 -32.417 123.459 -32.418 119.809 C-32.421 117.255 -32.425 114.702 -32.428 112.148 C-32.434 106.798 -32.436 101.448 -32.435 96.097 C-32.435 89.95 -32.445 83.803 -32.461 77.656 C-32.476 71.705 -32.479 65.754 -32.479 59.802 C-32.48 57.289 -32.484 54.775 -32.492 52.262 C-32.602 13.008 -32.602 13.008 -23.836 2.789 C-16.991 -3.544 -8.067 -3.879 0 0 Z " fill="#0B1098" transform="translate(446.25,382.5625)"/>
<path d="M0 0 C4.95 0 9.9 0 15 0 C16.964 1.964 16.12 4.983 16.124 7.597 C16.121 8.548 16.117 9.498 16.114 10.477 C16.114 11.472 16.114 12.467 16.114 13.492 C16.113 16.798 16.105 20.104 16.098 23.41 C16.096 25.696 16.094 27.981 16.093 30.266 C16.09 36.295 16.08 42.323 16.069 48.352 C16.058 54.498 16.054 60.645 16.049 66.791 C16.038 78.861 16.021 90.93 16 103 C10.72 103 5.44 103 0 103 C0 69.01 0 35.02 0 0 Z " fill="#FEE000" transform="translate(505,163)"/>
<path d="M0 0 C3.063 1.339 4.817 2.689 6.906 5.281 C10.21 9.184 13.718 12.806 17.344 16.406 C17.92 16.979 18.497 17.553 19.091 18.143 C20.892 19.931 22.696 21.716 24.5 23.5 C37.959 36.807 37.959 36.807 43.198 42.971 C47.386 47.687 51.959 52.06 56.438 56.5 C57.466 57.523 58.494 58.547 59.521 59.57 C62.012 62.05 64.505 64.526 67 67 C65.395 70.411 63.595 72.618 60.875 75.25 C60.151 75.956 59.426 76.663 58.68 77.391 C58.125 77.922 57.571 78.453 57 79 C53.377 77.47 51.071 75.313 48.311 72.538 C47.386 71.613 46.462 70.688 45.509 69.736 C44.507 68.724 43.506 67.712 42.504 66.699 C41.468 65.66 40.432 64.621 39.396 63.582 C36.669 60.848 33.949 58.108 31.229 55.367 C28.474 52.591 25.712 49.82 22.951 47.049 C18.083 42.161 13.219 37.268 8.359 32.372 C5.11 29.105 1.862 25.84 -1.438 22.625 C-5.585 18.377 -5.585 18.377 -7.375 16.438 C-7.898 15.879 -8.422 15.321 -8.961 14.746 C-10 13 -10 13 -9.949 11.082 C-8.631 8.191 -6.725 6.441 -4.438 4.25 C-3.611 3.451 -2.785 2.652 -1.934 1.828 C-1.296 1.225 -0.657 0.622 0 0 Z " fill="#F8D803" transform="translate(341,212)"/>
<path d="M0 0 C2.485 1.203 4.175 2.761 6.139 4.696 C6.857 5.383 7.575 6.07 8.314 6.778 C9.826 8.884 9.826 8.884 9.698 10.722 C8.498 13.698 6.684 15.345 4.389 17.579 C3.047 18.9 3.047 18.9 1.678 20.247 C0.737 21.158 -0.204 22.07 -1.174 23.009 C-3.03 24.822 -4.884 26.637 -6.736 28.454 C-7.563 29.256 -8.389 30.058 -9.24 30.884 C-11.226 32.737 -11.226 32.737 -12.174 34.884 C-12.834 34.884 -13.494 34.884 -14.174 34.884 C-14.504 35.874 -14.834 36.864 -15.174 37.884 C-15.875 38.441 -16.576 38.998 -17.299 39.571 C-19.585 41.41 -21.115 42.912 -22.951 45.122 C-28.8 51.891 -35.269 58.083 -41.611 64.384 C-42.929 65.696 -44.246 67.009 -45.562 68.321 C-48.764 71.511 -51.968 74.698 -55.174 77.884 C-58.38 76.351 -60.775 74.643 -63.424 72.259 C-64.483 71.311 -64.483 71.311 -65.564 70.345 C-66.096 69.863 -66.627 69.381 -67.174 68.884 C-66.591 65.418 -65.445 63.79 -62.958 61.344 C-62.28 60.669 -61.602 59.995 -60.904 59.299 C-60.165 58.58 -59.427 57.86 -58.666 57.118 C-57.528 55.99 -57.528 55.99 -56.366 54.839 C-53.934 52.43 -51.492 50.031 -49.049 47.634 C-46.629 45.249 -44.211 42.862 -41.795 40.472 C-40.293 38.986 -38.787 37.503 -37.278 36.024 C-33.261 32.063 -29.454 27.999 -25.773 23.724 C-22.182 19.592 -18.312 15.72 -14.466 11.826 C-13.469 10.812 -12.477 9.793 -11.49 8.768 C-10.049 7.273 -8.592 5.794 -7.131 4.317 C-6.275 3.441 -5.419 2.565 -4.536 1.663 C-2.174 -0.116 -2.174 -0.116 0 0 Z " fill="#F9DA02" transform="translate(679.173828125,213.1162109375)"/>
<path d="M0 0 C13.552 -0.046 27.104 -0.082 40.656 -0.104 C46.95 -0.114 53.243 -0.128 59.536 -0.151 C65.611 -0.173 71.686 -0.185 77.762 -0.19 C80.077 -0.193 82.393 -0.201 84.709 -0.211 C87.957 -0.226 91.205 -0.228 94.453 -0.227 C95.883 -0.238 95.883 -0.238 97.341 -0.249 C104.033 -0.228 109.882 0.408 115.938 3.5 C122.021 10.874 118.728 25.093 118.221 34.096 C118 36 118 36 117 38 C116.34 38 115.68 38 115 38 C114.67 38.99 114.34 39.98 114 41 C110.475 42.175 107.22 42.23 103.547 42.316 C102.79 42.337 102.034 42.358 101.254 42.38 C98.753 42.446 96.252 42.505 93.75 42.562 C92.897 42.584 92.044 42.605 91.165 42.627 C71.777 43.104 52.392 43.104 33 43 C32.505 43.99 32.505 43.99 32 45 C32.99 45.495 32.99 45.495 34 46 C33.67 46.99 33.34 47.98 33 49 C32.93 50.604 32.916 52.211 32.938 53.816 C32.949 55.21 32.949 55.21 32.961 56.631 C32.974 57.598 32.987 58.566 33 59.562 C33.025 61.48 33.047 63.398 33.062 65.316 C33.074 66.167 33.086 67.017 33.098 67.893 C33 70 33 70 32 72 C31.928 74.552 31.907 77.075 31.938 79.625 C31.942 80.331 31.947 81.038 31.951 81.766 C31.963 83.51 31.981 85.255 32 87 C33.06 86.495 34.119 85.989 35.211 85.469 C36.599 84.812 37.987 84.156 39.375 83.5 C40.074 83.166 40.772 82.832 41.492 82.488 C46.773 80 46.773 80 49 80 C49.33 79.34 49.66 78.68 50 78 C53.208 77.971 56.417 77.953 59.625 77.938 C60.98 77.925 60.98 77.925 62.363 77.912 C67.029 77.895 71.41 78.032 76 79 C76 79.66 76 80.32 76 81 C75.402 80.974 74.803 80.948 74.187 80.921 C62.007 80.459 52.012 80.27 41 86 C40.032 86.477 39.064 86.954 38.066 87.445 C36.341 88.302 34.626 89.178 32.926 90.082 C31 91 31 91 29 91 C29.495 65.755 29.495 65.755 30 40 C35.885 39.963 41.769 39.925 47.832 39.887 C51.555 39.856 55.279 39.825 59.002 39.791 C64.914 39.737 70.827 39.686 76.74 39.654 C81.505 39.628 86.271 39.587 91.036 39.537 C92.857 39.52 94.677 39.509 96.497 39.502 C99.042 39.493 101.587 39.465 104.132 39.432 C104.888 39.434 105.644 39.435 106.423 39.437 C110.431 39.369 110.431 39.369 113.966 37.658 C116.438 33.694 115.475 28.069 115.446 23.548 C115.438 21.506 115.466 19.467 115.498 17.426 C115.497 16.141 115.497 14.855 115.496 13.531 C115.498 12.351 115.5 11.171 115.502 9.955 C115.294 6.95 115.294 6.95 113.261 5.339 C110.689 3.816 109.291 3.623 106.325 3.619 C105.39 3.611 104.455 3.602 103.491 3.593 C102.473 3.599 101.454 3.606 100.404 3.612 C98.786 3.604 98.786 3.604 97.136 3.596 C93.568 3.583 90.001 3.591 86.434 3.602 C83.958 3.6 81.482 3.597 79.006 3.593 C73.817 3.588 68.628 3.595 63.439 3.609 C56.778 3.626 50.118 3.616 43.457 3.598 C38.345 3.587 33.233 3.591 28.121 3.599 C25.665 3.601 23.208 3.598 20.752 3.591 C17.323 3.584 13.895 3.595 10.467 3.612 C9.446 3.606 8.425 3.6 7.373 3.593 C6.441 3.602 5.508 3.61 4.548 3.619 C3.332 3.621 3.332 3.621 2.091 3.622 C-0.521 4.094 -1.408 4.909 -3 7 C-3.473 9.519 -3.473 9.519 -3.432 12.389 C-3.452 13.49 -3.472 14.591 -3.492 15.726 C-3.499 16.913 -3.505 18.101 -3.512 19.324 C-3.539 21.149 -3.539 21.149 -3.566 23.011 C-3.62 26.903 -3.654 30.795 -3.688 34.688 C-3.721 37.324 -3.755 39.96 -3.791 42.596 C-3.876 49.064 -3.944 55.532 -4 62 C-4.33 62 -4.66 62 -5 62 C-5.169 55.329 -5.329 48.658 -5.482 41.987 C-5.535 39.72 -5.591 37.453 -5.648 35.187 C-5.731 31.918 -5.806 28.648 -5.879 25.379 C-5.906 24.375 -5.933 23.372 -5.961 22.338 C-6.084 16.464 -6.119 10.783 -5 5 C-3.684 4.299 -2.35 3.632 -1 3 C-0.67 2.01 -0.34 1.02 0 0 Z " fill="#050597" transform="translate(533,346)"/>
<path d="M0 0 C4.781 4.219 5.657 9.926 6.177 16.103 C6.82 28.789 5.718 41.488 4.688 54.125 C4.599 55.247 4.599 55.247 4.51 56.391 C2.425 82.419 2.425 82.419 -5 89 C-10.786 92.472 -16.345 92.716 -23 92 C-28.472 90.245 -32.033 86.835 -35 82 C-38.569 73.683 -39.703 65.056 -40.605 56.141 C-40.656 53.139 -40.656 53.139 -42 52 C-44.955 51.84 -47.89 51.74 -50.848 51.684 C-51.734 51.663 -52.621 51.642 -53.534 51.621 C-56.377 51.555 -59.22 51.496 -62.062 51.438 C-63.985 51.394 -65.908 51.351 -67.83 51.307 C-72.553 51.199 -77.277 51.098 -82 51 C-79.181 85.032 -79.181 85.032 -60.875 112.867 C-48.245 121.934 -33.139 123.348 -18.062 123.25 C-16.877 123.258 -15.692 123.265 -14.471 123.273 C-6.791 123.257 0.472 122.515 8 121 C8 121.66 8 122.32 8 123 C6.357 123.488 4.71 123.965 3.062 124.438 C2.146 124.704 1.229 124.971 0.285 125.246 C-7.234 126.972 -14.81 127.205 -22.5 127.25 C-23.386 127.271 -24.271 127.291 -25.184 127.312 C-31.366 127.349 -36.259 126.221 -42 124 C-43.768 123.448 -45.538 122.904 -47.312 122.375 C-48.113 122.135 -48.914 121.895 -49.738 121.648 C-51.816 121.053 -53.899 120.51 -56 120 C-56 119.34 -56 118.68 -56 118 C-56.88 117.84 -56.88 117.84 -57.777 117.676 C-62.882 116.124 -67.134 111.367 -70 107 C-71.021 105.546 -71.021 105.546 -72.062 104.062 C-73.776 101.354 -74.906 98.99 -76 96 C-76.474 95.01 -76.949 94.02 -77.438 93 C-82.938 79.898 -83.478 64.959 -85 51 C-80.033 49.035 -75.752 48.666 -70.496 48.629 C-69.695 48.62 -68.894 48.611 -68.069 48.602 C-66.384 48.587 -64.699 48.578 -63.014 48.574 C-60.441 48.563 -57.871 48.513 -55.299 48.463 C-53.656 48.453 -52.014 48.446 -50.371 48.441 C-49.224 48.412 -49.224 48.412 -48.054 48.382 C-44.064 48.416 -42.206 48.841 -39.014 51.308 C-36.441 54.747 -36.342 57.554 -36.375 61.688 C-36.095 71.465 -34.612 79.444 -28 87 C-24.404 88.795 -21.174 89.337 -17.188 89.625 C-16.212 89.7 -15.236 89.775 -14.23 89.852 C-13.126 89.925 -13.126 89.925 -12 90 C-12 89.34 -12 88.68 -12 88 C-10.886 87.546 -9.773 87.092 -8.625 86.625 C-4.982 84.992 -3.596 84.285 -1.941 80.719 C1.294 71.375 1.314 61.122 1.658 51.336 C1.786 47.834 1.92 44.466 2.516 41.008 C3.224 36.611 3.191 32.259 3.188 27.812 C3.186 26.411 3.186 26.411 3.185 24.98 C3.11 16.485 2.301 8.879 -1 1 C-0.67 0.67 -0.34 0.34 0 0 Z " fill="#0D1097" transform="translate(605,471)"/>
<path d="M0 0 C64.02 0 128.04 0 194 0 C193.01 0.33 192.02 0.66 191 1 C190.67 1.66 190.34 2.32 190 3 C190 2.34 190 1.68 190 1 C189.325 1.3 188.649 1.601 187.953 1.91 C186.615 2.481 186.615 2.481 185.25 3.062 C183.927 3.637 183.927 3.637 182.578 4.223 C179.689 5.094 178.819 4.827 176 4 C173.625 3.956 171.25 3.96 168.875 4 C162.221 4.111 162.221 4.111 160 3 C159.01 3.33 158.02 3.66 157 4 C154.746 4.096 152.49 4.131 150.234 4.133 C149.229 4.134 149.229 4.134 148.203 4.136 C146.777 4.136 145.351 4.135 143.926 4.13 C141.799 4.125 139.673 4.13 137.547 4.137 C129.38 4.139 121.318 3.827 113.181 3.117 C110.197 3.007 107.891 3.351 105 4 C103.359 4.088 101.714 4.131 100.07 4.133 C98.648 4.136 98.648 4.136 97.196 4.139 C96.183 4.134 95.169 4.13 94.125 4.125 C93.065 4.123 92.005 4.121 90.913 4.119 C82.732 4.076 74.579 3.77 66.409 3.356 C59.031 2.997 51.678 2.928 44.292 3.037 C38.391 3.101 38.391 3.101 35.815 2.434 C35.216 2.291 34.617 2.147 34 2 C33.67 2.33 33.34 2.66 33 3 C25.076 4.455 17.024 4.088 9 4 C9 3.01 9 2.02 9 1 C8.01 1.33 7.02 1.66 6 2 C3.991 1.724 1.988 1.398 0 1 C0 0.67 0 0.34 0 0 Z " fill="#150A97" transform="translate(361,653)"/>
<path d="M0 0 C13.389 1.944 21.578 10.778 29.645 21.012 C31 23 31 23 31 25 C31.66 25.33 32.32 25.66 33 26 C33 26.99 33 27.98 33 29 C33.66 29.33 34.32 29.66 35 30 C36.309 32.886 37.109 35.963 38 39 C38.249 39.811 38.498 40.622 38.754 41.457 C47.837 73.939 45.069 110.068 45.125 143.438 C45.128 144.548 45.131 145.659 45.133 146.803 C45.139 149.951 45.137 153.098 45.133 156.246 C45.135 157.191 45.137 158.136 45.139 159.109 C45.136 159.976 45.133 160.843 45.129 161.736 C45.129 162.491 45.128 163.246 45.127 164.024 C45 166 45 166 44 169 C43.79 170.406 43.615 171.817 43.465 173.23 C43.378 174.033 43.291 174.835 43.201 175.662 C43.114 176.495 43.027 177.329 42.938 178.188 C42.847 179.032 42.756 179.877 42.662 180.748 C42.438 182.832 42.219 184.916 42 187 C39.466 183.199 39.952 181.675 40.362 177.174 C41.18 166.855 41.183 156.558 41.203 146.211 C41.206 145.194 41.209 144.177 41.212 143.129 C41.227 137.748 41.236 132.367 41.24 126.986 C41.246 121.5 41.27 116.014 41.298 110.528 C41.317 106.244 41.322 101.959 41.324 97.674 C41.327 95.654 41.334 93.635 41.348 91.616 C41.511 65.095 39.63 33.213 20 13 C13.943 7.852 7.49 4.566 0 2 C0 1.34 0 0.68 0 0 Z " fill="#0C0B9A" transform="translate(463,348)"/>
<path d="M0 0 C0.66 0 1.32 0 2 0 C1.587 1.217 1.175 2.434 0.75 3.688 C-0.547 7.596 -1.82 11.511 -3.062 15.438 C-3.383 16.447 -3.704 17.456 -4.035 18.496 C-11.231 44.627 -9.396 73.247 -9.601 100.115 C-9.642 105.191 -9.692 110.268 -9.742 115.344 C-9.838 125.229 -9.923 135.114 -10 145 C-10.33 145 -10.66 145 -11 145 C-12.635 126.781 -13.239 108.863 -12.833 90.571 C-12.75 86.738 -12.688 82.904 -12.629 79.07 C-11.904 37.903 -11.904 37.903 -7.562 21.062 C-7.358 20.197 -7.154 19.331 -6.943 18.439 C-5.592 12.853 -3.901 7.422 -2 2 C-1.34 2 -0.68 2 0 2 C0 1.34 0 0.68 0 0 Z " fill="#010299" transform="translate(378,378)"/>
<path d="M0 0 C2.97 0.495 2.97 0.495 6 1 C6 1.66 6 2.32 6 3 C6.577 3.124 7.155 3.248 7.75 3.375 C12.182 4.606 14.957 6.522 18 10 C18 10.66 18 11.32 18 12 C18.99 12 19.98 12 21 12 C25 18.75 25 18.75 25 21 C25.66 21.33 26.32 21.66 27 22 C28.07 24.18 28.07 24.18 29.125 26.875 C29.478 27.759 29.831 28.644 30.195 29.555 C31 32 31 32 31 35 C31.66 35 32.32 35 33 35 C33.124 36.011 33.247 37.021 33.375 38.062 C33.908 41.951 33.908 41.951 35 45.438 C40.308 64.346 39.088 87.791 36 107 C34 105 34 105 33.786 103.11 C33.803 102.34 33.819 101.569 33.836 100.776 C33.856 99.461 33.856 99.461 33.876 98.121 C33.899 97.166 33.922 96.211 33.945 95.227 C33.971 93.182 33.995 91.138 34.02 89.094 C34.069 85.889 34.124 82.684 34.192 79.479 C34.664 55.79 32.598 30.512 16 12 C11.014 7.281 5.345 4.497 -1 2 C-0.67 1.34 -0.34 0.68 0 0 Z " fill="#090B97" transform="translate(618,428)"/>
<path d="M0 0 C0 4.41 -2.173 6.125 -5.125 9.25 C-8.286 12.274 -11.576 15.112 -14.914 17.938 C-17.126 20.124 -18.421 22.335 -20 25 C-21.797 26.809 -21.797 26.809 -23.75 28.438 C-26.876 31.052 -26.876 31.052 -29.902 33.781 C-34.265 37.829 -34.265 37.829 -37.688 38.625 C-40.74 37.8 -42.053 36.452 -44 34 C-44 33.34 -44 32.68 -44 32 C-45.485 32.495 -45.485 32.495 -47 33 C-47.66 30.69 -48.32 28.38 -49 26 C-49.66 26 -50.32 26 -51 26 C-51 24 -51 24 -49.25 22.188 C-48.508 21.466 -47.765 20.744 -47 20 C-45.948 18.67 -45.948 18.67 -44.875 17.312 C-43 15 -43 15 -41 14 C-41 13.01 -41 12.02 -41 11 C-39.68 11 -38.36 11 -37 11 C-37 10.34 -37 9.68 -37 9 C-35.35 7.646 -33.683 6.313 -32 5 C-31.67 4.34 -31.34 3.68 -31 3 C-29.68 3.33 -28.36 3.66 -27 4 C-27.601 4.59 -28.201 5.18 -28.82 5.788 C-31.047 7.982 -33.27 10.179 -35.49 12.38 C-36.451 13.331 -37.415 14.281 -38.38 15.229 C-39.767 16.592 -41.147 17.962 -42.527 19.332 C-43.36 20.154 -44.193 20.976 -45.051 21.823 C-47.198 23.931 -47.198 23.931 -48 27 C-47.196 27.309 -47.196 27.309 -46.375 27.625 C-42.998 29.58 -40.695 32.182 -38 35 C-35.009 33.658 -32.938 32.18 -30.64 29.851 C-30.006 29.214 -29.372 28.577 -28.719 27.92 C-28.046 27.234 -27.373 26.547 -26.68 25.84 C-25.98 25.135 -25.28 24.43 -24.559 23.703 C-22.326 21.453 -20.1 19.196 -17.875 16.938 C-15.642 14.677 -13.407 12.417 -11.17 10.161 C-9.778 8.757 -8.389 7.35 -7.003 5.941 C-6.061 4.99 -6.061 4.99 -5.101 4.019 C-4.549 3.459 -3.997 2.899 -3.428 2.322 C-2 1 -2 1 0 0 Z " fill="#130A92" transform="translate(660,255)"/>
<path d="M0 0 C4.95 0 9.9 0 15 0 C16.964 1.964 16.12 4.983 16.124 7.597 C16.121 8.548 16.117 9.498 16.114 10.477 C16.114 11.472 16.114 12.467 16.114 13.492 C16.113 16.798 16.105 20.104 16.098 23.41 C16.096 25.696 16.094 27.981 16.093 30.266 C16.09 36.295 16.08 42.323 16.069 48.352 C16.058 54.498 16.054 60.645 16.049 66.791 C16.038 78.861 16.021 90.93 16 103 C10.72 103 5.44 103 0 103 C0 69.01 0 35.02 0 0 Z M4 2 C3.67 2.99 3.34 3.98 3 5 C2.34 4.01 1.68 3.02 1 2 C1 35 1 68 1 102 C5.62 102 10.24 102 15 102 C15 68.67 15 35.34 15 1 C11.213 1 7.735 1.425 4 2 Z " fill="#DBB91B" transform="translate(505,163)"/>
<path d="M0 0 C2 2 2 2 2.312 5.562 C2.218 9.556 1.245 12.906 -0.148 16.629 C-0.824 18.51 -1.399 20.427 -1.938 22.352 C-6.232 37.097 -13.227 49.396 -27 57 C-34.153 60.272 -41.299 62.485 -49 64 C-49.99 64.495 -49.99 64.495 -51 65 C-52.451 65.095 -53.906 65.131 -55.359 65.133 C-56.228 65.134 -57.097 65.135 -57.992 65.137 C-58.902 65.133 -59.812 65.129 -60.75 65.125 C-61.645 65.129 -62.539 65.133 -63.461 65.137 C-68.087 65.13 -72.449 64.949 -77 64 C-76.67 63.34 -76.34 62.68 -76 62 C-75.427 62.01 -74.853 62.021 -74.263 62.032 C-53.23 62.365 -34.653 60.731 -18.004 46.266 C-5.99 33.744 -3.197 16.357 0 0 Z " fill="#0D0F95" transform="translate(502,534)"/>
<path d="M0 0 C0.33 0 0.66 0 1 0 C1.885 18.897 2.11 37.772 2.125 56.688 C2.127 57.817 2.13 58.947 2.133 60.112 C2.138 63.349 2.137 66.587 2.133 69.824 C2.135 70.807 2.137 71.79 2.139 72.803 C2.136 73.708 2.133 74.613 2.129 75.546 C2.129 76.337 2.128 77.128 2.127 77.943 C2 80 2 80 1 83 C0.79 84.406 0.615 85.817 0.465 87.23 C0.378 88.033 0.291 88.835 0.201 89.662 C0.114 90.495 0.027 91.329 -0.062 92.188 C-0.153 93.032 -0.244 93.877 -0.338 94.748 C-0.562 96.832 -0.781 98.916 -1 101 C-3.557 97.165 -3.044 95.497 -2.643 90.952 C-2.178 85.027 -1.878 79.137 -1.811 73.195 C-1.797 72.063 -1.797 72.063 -1.784 70.908 C-1.768 69.339 -1.753 67.77 -1.74 66.201 C-1.718 63.699 -1.691 61.197 -1.663 58.695 C-1.594 52.498 -1.534 46.302 -1.474 40.105 C-1.423 34.826 -1.368 29.548 -1.308 24.269 C-1.282 21.812 -1.261 19.354 -1.24 16.896 C-1.224 15.391 -1.207 13.887 -1.189 12.382 C-1.177 11.074 -1.164 9.765 -1.151 8.417 C-1.021 5.48 -0.683 2.851 0 0 Z " fill="#26249A" transform="translate(506,434)"/>
<path d="M0 0 C0.969 0.138 1.939 0.276 2.938 0.418 C7.905 1.243 7.905 1.243 10 2 C10.99 3.485 10.99 3.485 12 5 C11.347 4.86 10.695 4.72 10.022 4.576 C-11.779 0.214 -34.055 1.709 -53 14 C-59.112 18.241 -62.776 23.273 -66.555 29.645 C-68 32 -68 32 -70 34 C-70.428 30.36 -69.974 28.954 -68.125 25.688 C-67.073 24.357 -67.073 24.357 -66 23 C-65.34 23 -64.68 23 -64 23 C-64 22.01 -64 21.02 -64 20 C-63.34 20 -62.68 20 -62 20 C-62 19.34 -62 18.68 -62 18 C-45.325 2.676 -22.322 -3.565 0 0 Z " fill="#110E97" transform="translate(450,344)"/>
<path d="M0 0 C0.33 0 0.66 0 1 0 C1.025 0.731 1.05 1.462 1.076 2.216 C1.192 5.54 1.315 8.864 1.438 12.188 C1.477 13.338 1.516 14.488 1.557 15.674 C1.599 16.786 1.64 17.897 1.684 19.043 C1.72 20.064 1.757 21.085 1.795 22.137 C1.934 24.999 1.934 24.999 2.582 27.747 C3 30 3 30 2 32 C1.928 34.552 1.907 37.075 1.938 39.625 C1.942 40.331 1.947 41.038 1.951 41.766 C1.963 43.51 1.981 45.255 2 47 C3.06 46.495 4.119 45.989 5.211 45.469 C6.599 44.812 7.987 44.156 9.375 43.5 C10.074 43.166 10.772 42.832 11.492 42.488 C16.773 40 16.773 40 19 40 C19.33 39.34 19.66 38.68 20 38 C23.208 37.971 26.417 37.953 29.625 37.938 C30.98 37.925 30.98 37.925 32.363 37.912 C37.029 37.895 41.41 38.032 46 39 C46 39.66 46 40.32 46 41 C45.402 40.974 44.803 40.948 44.187 40.921 C32.007 40.459 22.012 40.27 11 46 C10.032 46.477 9.064 46.954 8.066 47.445 C6.341 48.302 4.626 49.178 2.926 50.082 C1 51 1 51 -1 51 C-0.505 25.755 -0.505 25.755 0 0 Z " fill="#1A199A" transform="translate(563,386)"/>
<path d="M0 0 C3.575 1.518 5.858 3.616 8.585 6.358 C9.486 7.259 10.386 8.159 11.314 9.088 C12.288 10.071 13.261 11.055 14.234 12.039 C15.237 13.046 16.24 14.052 17.244 15.057 C19.879 17.7 22.507 20.348 25.135 22.998 C27.819 25.703 30.51 28.402 33.199 31.102 C38.472 36.396 43.738 41.696 49 47 C51.934 45.582 54.433 44.017 57 42 C56.678 44.975 56.379 46.593 54.312 48.812 C51.4 50.308 49.23 50.22 46 50 C45.752 49.402 45.505 48.804 45.25 48.188 C43.81 45.668 42.323 44.708 40 43 C39.361 42.196 38.721 41.391 38.062 40.562 C36.091 37.904 36.091 37.904 33.375 36 C30.77 33.807 29.982 32.215 29 29 C27.68 29 26.36 29 25 29 C23.091 26.384 22.025 24.074 21 21 C20.34 20.835 19.68 20.67 19 20.5 C18.34 20.335 17.68 20.17 17 20 C16.67 19.01 16.34 18.02 16 17 C13.999 14.635 13.032 14.011 10 13 C9.67 12.01 9.34 11.02 9 10 C7.672 8.994 6.338 7.993 5 7 C5 6.34 5 5.68 5 5 C4.01 4.67 3.02 4.34 2 4 C2 3.34 2 2.68 2 2 C1.34 2 0.68 2 0 2 C0 1.34 0 0.68 0 0 Z " fill="#13098F" transform="translate(347,243)"/>
<path d="M0 0 C22.77 0 45.54 0 69 0 C69 0.33 69 0.66 69 1 C68.258 1.025 67.517 1.05 66.753 1.076 C63.397 1.192 60.042 1.315 56.688 1.438 C55.52 1.477 54.353 1.516 53.15 1.557 C52.032 1.599 50.914 1.64 49.762 1.684 C48.73 1.72 47.698 1.757 46.635 1.795 C43.893 1.902 43.893 1.902 41 3 C38.05 3.085 35.125 3.116 32.176 3.098 C31.314 3.096 30.453 3.095 29.565 3.093 C26.814 3.088 24.064 3.075 21.312 3.062 C19.447 3.057 17.582 3.053 15.717 3.049 C11.144 3.038 6.572 3.021 2 3 C1.67 3.66 1.34 4.32 1 5 C1.66 5.33 2.32 5.66 3 6 C2.67 6.99 2.34 7.98 2 9 C1.772 11.733 1.583 14.45 1.438 17.188 C1.394 17.937 1.351 18.687 1.307 19.459 C1.201 21.306 1.1 23.153 1 25 C0.67 25 0.34 25 0 25 C0 16.75 0 8.5 0 0 Z " fill="#020399" transform="translate(564,386)"/>
<path d="M0 0 C0.33 0 0.66 0 1 0 C2.063 7.79 2.152 15.457 2.125 23.312 C2.124 23.99 2.123 24.667 2.122 25.365 C2.096 42.584 1.565 59.792 1 77 C0.34 77 -0.32 77 -1 77 C-1.197 72.605 -1.381 68.209 -1.562 63.812 C-1.619 62.567 -1.675 61.321 -1.732 60.037 C-1.781 58.835 -1.829 57.633 -1.879 56.395 C-1.926 55.29 -1.973 54.185 -2.022 53.046 C-2 50 -2 50 -1.511 47.603 C-1.022 45.11 -0.845 42.838 -0.795 40.302 C-0.775 39.401 -0.755 38.5 -0.734 37.573 C-0.718 36.614 -0.701 35.656 -0.684 34.668 C-0.663 33.676 -0.642 32.684 -0.621 31.663 C-0.555 28.504 -0.496 25.346 -0.438 22.188 C-0.394 20.042 -0.351 17.897 -0.307 15.752 C-0.2 10.501 -0.098 5.251 0 0 Z " fill="#0F109C" transform="translate(526,406)"/>
<path d="M0 0 C0.33 0 0.66 0 1 0 C1.33 33.66 1.66 67.32 2 102 C7.61 102.33 13.22 102.66 19 103 C18.67 103.66 18.34 104.32 18 105 C12.545 106.579 6.531 106.084 1 105 C-0.209 102.582 -0.163 100.974 -0.221 98.271 C-0.244 97.276 -0.267 96.282 -0.291 95.258 C-0.321 93.622 -0.321 93.622 -0.352 91.953 C-0.375 90.814 -0.399 89.675 -0.423 88.501 C-0.497 84.751 -0.562 81 -0.625 77.25 C-0.648 75.98 -0.671 74.709 -0.694 73.4 C-1.12 48.912 -0.794 24.477 0 0 Z " fill="#0400A3" transform="translate(503,163)"/>
<path d="M0 0 C1.488 0.902 2.965 1.822 4.438 2.75 C5.261 3.26 6.085 3.771 6.934 4.297 C9.279 6.23 9.449 7.115 10 10 C10.763 10.454 11.526 10.907 12.312 11.375 C15 13 15 13 16.938 15.938 C18.835 19.179 18.835 19.179 22.125 21.062 C25.369 23.248 25.695 24.459 27 28 C28.883 29.108 28.883 29.108 31 30 C33.25 32 33.25 32 35 34 C35 34.66 35 35.32 35 36 C36.32 36.66 37.64 37.32 39 38 C39 38.66 39 39.32 39 40 C39.66 40 40.32 40 41 40 C41.495 42.475 41.495 42.475 42 45 C35.883 39.881 30.16 34.583 24.996 28.492 C20.123 22.896 14.828 17.721 9.562 12.5 C8.534 11.477 7.506 10.453 6.479 9.43 C3.988 6.95 1.495 4.474 -1 2 C-0.67 1.34 -0.34 0.68 0 0 Z " fill="#140990" transform="translate(351,219)"/>
<path d="M0 0 C5.66 -0.049 11.32 -0.086 16.98 -0.11 C18.906 -0.12 20.833 -0.134 22.759 -0.151 C25.524 -0.175 28.289 -0.186 31.055 -0.195 C31.919 -0.206 32.784 -0.216 33.675 -0.227 C35.785 -0.227 37.894 -0.123 40 0 C42.934 2.934 42.462 6.183 42.625 10.125 C42.683 11.256 42.683 11.256 42.742 12.41 C42.837 14.273 42.919 16.136 43 18 C42.34 18 41.68 18 41 18 C40.34 12.72 39.68 7.44 39 2 C26.79 2.33 14.58 2.66 2 3 C2 4.98 2 6.96 2 9 C1.34 9.66 0.68 10.32 0 11 C0 7.37 0 3.74 0 0 Z " fill="#F2ED8F" transform="translate(523,522)"/>
<path d="M0 0 C0.829 -0.009 1.658 -0.018 2.511 -0.027 C4.267 -0.042 6.023 -0.051 7.78 -0.054 C10.46 -0.066 13.138 -0.115 15.818 -0.166 C17.525 -0.175 19.231 -0.183 20.938 -0.188 C21.737 -0.207 22.536 -0.227 23.359 -0.247 C27.582 -0.213 29.211 0.021 32.676 2.679 C35.221 6.119 35.329 8.937 35.293 13.059 C35.426 18.936 36.058 23.892 38.145 29.453 C38.668 31.371 38.668 31.371 37.668 34.371 C34.269 27.778 32.817 21.709 31.98 14.371 C31.751 12.496 31.518 10.621 31.281 8.746 C31.186 7.929 31.091 7.112 30.993 6.27 C30.855 4.366 30.855 4.366 29.668 3.371 C26.713 3.211 23.778 3.112 20.82 3.055 C19.491 3.024 19.491 3.024 18.134 2.992 C15.291 2.926 12.448 2.867 9.605 2.809 C7.683 2.765 5.76 2.722 3.838 2.678 C-0.885 2.57 -5.609 2.469 -10.332 2.371 C-7.343 -0.618 -4.011 0.027 0 0 Z " fill="#06099A" transform="translate(533.33203125,519.62890625)"/>
<path d="M0 0 C15.18 0 30.36 0 46 0 C38.526 3.737 30.18 4.604 22 3 C18.247 2.793 14.645 2.882 10.938 3.562 C7.431 4.085 4.473 3.625 1 3 C0.67 2.01 0.34 1.02 0 0 Z " fill="#150A97" transform="translate(556,653)"/>
<path d="M0 0 C0.66 0 1.32 0 2 0 C1.587 1.217 1.175 2.434 0.75 3.688 C-0.547 7.596 -1.82 11.511 -3.062 15.438 C-3.383 16.447 -3.704 17.456 -4.035 18.496 C-6.511 27.486 -7.493 36.334 -8.125 45.625 C-8.211 46.82 -8.298 48.015 -8.387 49.246 C-8.597 52.164 -8.801 55.082 -9 58 C-9.33 58 -9.66 58 -10 58 C-12.015 38.806 -8.58 20.095 -2 2 C-1.34 2 -0.68 2 0 2 C0 1.34 0 0.68 0 0 Z " fill="#100E98" transform="translate(378,378)"/>
<path d="M0 0 C0.495 1.485 0.495 1.485 1 3 C-0.652 5.41 -0.652 5.41 -2.938 8.062 C-5.971 11.129 -5.971 11.129 -7 15 C-10.769 17.852 -13.702 18.409 -18.367 18.547 C-19.583 18.587 -20.798 18.627 -22.051 18.668 C-23.313 18.695 -24.575 18.722 -25.875 18.75 C-27.129 18.793 -28.384 18.835 -29.676 18.879 C-44.401 19.3 -44.401 19.3 -49 17 C-49 16.34 -49 15.68 -49 15 C-48.01 15.33 -47.02 15.66 -46 16 C-41.462 16.274 -36.922 16.313 -32.376 16.35 C-30.879 16.367 -29.381 16.394 -27.884 16.432 C-25.717 16.487 -23.551 16.509 -21.383 16.523 C-20.087 16.543 -18.792 16.563 -17.458 16.583 C-11.513 15.58 -8.781 10.903 -5.312 6.312 C-3.608 4.064 -1.996 1.996 0 0 Z " fill="#02049D" transform="translate(575,469)"/>
<path d="M0 0 C2.31 0.66 4.62 1.32 7 2 C7 2.33 7 2.66 7 3 C5.907 3.103 4.814 3.206 3.688 3.312 C-0.459 4.042 -0.459 4.042 -3 7 C-3.473 9.519 -3.473 9.519 -3.432 12.389 C-3.452 13.49 -3.472 14.591 -3.492 15.726 C-3.499 16.913 -3.505 18.101 -3.512 19.324 C-3.539 21.149 -3.539 21.149 -3.566 23.011 C-3.62 26.903 -3.654 30.795 -3.688 34.688 C-3.721 37.324 -3.755 39.96 -3.791 42.596 C-3.876 49.064 -3.944 55.532 -4 62 C-4.33 62 -4.66 62 -5 62 C-5.169 55.329 -5.329 48.658 -5.482 41.987 C-5.535 39.72 -5.591 37.453 -5.648 35.187 C-5.731 31.918 -5.806 28.648 -5.879 25.379 C-5.906 24.375 -5.933 23.372 -5.961 22.338 C-6.084 16.464 -6.119 10.783 -5 5 C-3.684 4.299 -2.35 3.632 -1 3 C-0.67 2.01 -0.34 1.02 0 0 Z " fill="#201D9C" transform="translate(533,346)"/>
<path d="M0 0 C1.903 2.854 2.924 5.308 4.125 8.5 C8.267 18.545 14.455 26.341 23 33 C22.01 33.66 21.02 34.32 20 35 C20 34.34 20 33.68 20 33 C19.381 32.753 18.762 32.505 18.125 32.25 C15.649 30.794 15.049 29.622 14 27 C13.01 27 12.02 27 11 27 C9.5 25.023 9.5 25.023 8 22.375 C7.223 21.008 7.223 21.008 6.43 19.613 C2 11.516 2 11.516 2 8 C1.34 7.67 0.68 7.34 0 7 C0 4.69 0 2.38 0 0 Z " fill="#151693" transform="translate(374,552)"/>
<path d="M0 0 C4.352 3.84 5.161 8.397 6 14 C6.52 23.219 6.885 32.923 5 42 C4.67 42 4.34 42 4 42 C3.98 41.3 3.96 40.601 3.94 39.88 C3.844 36.649 3.734 33.418 3.625 30.188 C3.594 29.087 3.563 27.987 3.531 26.854 C3.215 17.91 2.536 9.301 -1 1 C-0.67 0.67 -0.34 0.34 0 0 Z " fill="#252399" transform="translate(605,471)"/>
<path d="M0 0 C2 2 2 2 2.312 5.562 C2.217 9.637 1.185 13.04 -0.215 16.844 C-1.113 19.207 -1.113 19.207 -1.938 22.562 C-3.198 26.64 -4.992 30.247 -7 34 C-7.66 33.67 -8.32 33.34 -9 33 C-8.758 32.403 -8.515 31.806 -8.266 31.191 C-4.367 21.099 -2.058 10.603 0 0 Z " fill="#171898" transform="translate(502,534)"/>
<path d="M0 0 C9.595 1.558 9.595 1.558 13 6 C10 6 10 6 7 4 C4.597 3.672 4.597 3.672 1.886 3.681 C0.845 3.661 -0.196 3.641 -1.268 3.621 C-2.951 3.604 -2.951 3.604 -4.668 3.586 C-6.393 3.557 -6.393 3.557 -8.153 3.527 C-11.831 3.467 -15.509 3.421 -19.188 3.375 C-21.679 3.337 -24.171 3.298 -26.662 3.258 C-32.775 3.162 -38.887 3.077 -45 3 C-45 2.67 -45 2.34 -45 2 C-30.15 2 -15.3 2 0 2 C0 1.34 0 0.68 0 0 Z " fill="#1A1699" transform="translate(637,346)"/>
<path d="M0 0 C2.475 0.495 2.475 0.495 5 1 C-0.403 7.638 -6.477 13.572 -12.561 19.577 C-14.046 21.046 -15.524 22.522 -17 24 C-17.33 23.01 -17.66 22.02 -18 21 C-17.34 21 -16.68 21 -16 21 C-16 20.34 -16 19.68 -16 19 C-15.34 19 -14.68 19 -14 19 C-13.34 17.68 -12.68 16.36 -12 15 C-11.34 15 -10.68 15 -10 15 C-9.732 14.361 -9.464 13.721 -9.188 13.062 C-8 11 -8 11 -5 10 C-4.67 8.35 -4.34 6.7 -4 5 C-3.01 4.67 -2.02 4.34 -1 4 C-0.267 1.985 -0.267 1.985 0 0 Z " fill="#140A90" transform="translate(664,220)"/>
<path d="M0 0 C1.689 2.936 2.231 4.899 2.047 8.273 C2.006 9.092 1.964 9.911 1.922 10.755 C1.865 11.62 1.808 12.484 1.75 13.375 C1.699 14.26 1.648 15.146 1.596 16.058 C1.131 23.441 0.244 30.705 -1 38 C-1.66 38 -2.32 38 -3 38 C-2.939 37.315 -2.879 36.63 -2.816 35.924 C-2.541 32.783 -2.27 29.641 -2 26.5 C-1.905 25.422 -1.809 24.345 -1.711 23.234 C-1.218 17.459 -0.947 11.794 -1 6 C-0.713 3.993 -0.398 1.988 0 0 Z " fill="#090C9A" transform="translate(608,509)"/>
<path d="M0 0 C0.598 0.309 1.196 0.619 1.812 0.938 C4.09 2.102 4.09 2.102 7 3 C7 4.32 7 5.64 7 7 C7.66 7 8.32 7 9 7 C9.66 8.32 10.32 9.64 11 11 C7.387 15.56 4.012 19.017 -1 22 C0.539 18.502 2.691 15.735 5.074 12.781 C6.19 11.028 6.19 11.028 5.805 8.945 C4.582 5.989 2.266 4.208 0 2 C0 1.34 0 0.68 0 0 Z " fill="#110691" transform="translate(682,214)"/>
<path d="M0 0 C3.644 1.706 5.306 2.77 7.59 6.195 C4.904 5.658 2.894 4.854 0.402 3.633 C-3.835 1.787 -7.852 1.539 -12.41 2.195 C-14.439 3.135 -16.449 4.121 -18.41 5.195 C-19.4 4.865 -20.39 4.535 -21.41 4.195 C-14.811 -1.099 -8.201 -2.738 0 0 Z " fill="#18199C" transform="translate(597.41015625,463.8046875)"/>
<path d="M0 0 C3.375 -0.029 6.75 -0.047 10.125 -0.062 C11.552 -0.075 11.552 -0.075 13.008 -0.088 C17.79 -0.104 22.298 -0.005 27 1 C27 1.66 27 2.32 27 3 C17.43 3 7.86 3 -2 3 C-1.34 2.67 -0.68 2.34 0 2 C0 1.34 0 0.68 0 0 Z " fill="#0C0D99" transform="translate(582,424)"/>
<path d="M0 0 C3.882 0.629 7.107 1.827 10.688 3.438 C16.066 5.744 21.222 7.144 27 8 C26.01 8.33 25.02 8.66 24 9 C23.67 9.66 23.34 10.32 23 11 C20.097 10.123 17.204 9.224 14.312 8.312 C13.496 8.068 12.679 7.824 11.838 7.572 C6.619 5.903 3.53 4.22 0 0 Z " fill="#0F1192" transform="translate(397,587)"/>
<path d="M0 0 C0.66 0 1.32 0 2 0 C2.055 0.594 2.111 1.189 2.168 1.801 C2.423 4.534 2.68 7.267 2.938 10 C3.025 10.935 3.112 11.869 3.201 12.832 C3.711 18.236 4.296 23.618 5 29 C4.67 28.01 4.34 27.02 4 26 C3.34 26 2.68 26 2 26 C1.47 21.855 0.953 17.709 0.438 13.562 C0.286 12.378 0.135 11.194 -0.021 9.975 C-0.16 8.85 -0.299 7.725 -0.441 6.566 C-0.572 5.524 -0.703 4.482 -0.838 3.408 C-0.892 2.614 -0.945 1.819 -1 1 C-0.67 0.67 -0.34 0.34 0 0 Z " fill="#171899" transform="translate(521,521)"/>
<path d="M0 0 C0.33 0 0.66 0 1 0 C1.169 4.286 1.329 8.573 1.482 12.86 C1.535 14.316 1.591 15.772 1.648 17.227 C1.731 19.33 1.806 21.432 1.879 23.535 C1.95 25.428 1.95 25.428 2.022 27.36 C2 31.001 1.6 34.412 1 38 C-1 36 -1 36 -1.135 32.468 C-1.093 30.955 -1.039 29.442 -0.977 27.93 C-0.952 27.133 -0.927 26.337 -0.901 25.517 C-0.818 22.969 -0.722 20.422 -0.625 17.875 C-0.567 16.15 -0.509 14.425 -0.453 12.699 C-0.313 8.466 -0.16 4.233 0 0 Z " fill="#272695" transform="translate(653,497)"/>
<path d="M0 0 C3.973 2.097 6.439 4.301 9 8 C9 8.66 9 9.32 9 10 C9.598 10.248 10.196 10.495 10.812 10.75 C13.365 12.209 14.567 13.436 16 16 C15.688 18.25 15.688 18.25 15 20 C14.737 19.411 14.474 18.822 14.204 18.216 C12.944 15.897 11.62 14.391 9.742 12.547 C9.117 11.928 8.492 11.309 7.848 10.672 C7.197 10.038 6.546 9.403 5.875 8.75 C5.216 8.1 4.558 7.451 3.879 6.781 C2.257 5.183 0.631 3.589 -1 2 C-0.67 1.34 -0.34 0.68 0 0 Z " fill="#1F128B" transform="translate(394,263)"/>
<path d="M0 0 C9.018 1.309 15.728 5.384 22 12 C18.212 12 16.92 10.804 13.812 8.688 C9.289 5.716 5.141 3.649 0 2 C0 1.34 0 0.68 0 0 Z " fill="#1C1798" transform="translate(463,348)"/>
<path d="M0 0 C0.33 0.99 0.66 1.98 1 3 C-3.62 7.62 -8.24 12.24 -13 17 C-13.66 16.34 -14.32 15.68 -15 15 C-14.469 14.481 -13.938 13.961 -13.391 13.426 C-9.678 9.76 -6.247 6.089 -3 2 C-2.01 1.34 -1.02 0.68 0 0 Z " fill="#E5CB0F" transform="translate(651,260)"/>
<path d="M0 0 C1.32 0.33 2.64 0.66 4 1 C-0.62 5.62 -5.24 10.24 -10 15 C-11.044 11.867 -10.934 11.01 -10 8 C-8.68 8 -7.36 8 -6 8 C-6 7.34 -6 6.68 -6 6 C-4.35 4.646 -2.683 3.313 -1 2 C-0.67 1.34 -0.34 0.68 0 0 Z " fill="#1A0F8E" transform="translate(629,258)"/>
<path d="M0 0 C0.33 0.99 0.66 1.98 1 3 C-0.652 5.41 -0.652 5.41 -2.938 8.062 C-5.971 11.129 -5.971 11.129 -7 15 C-8.98 15.99 -8.98 15.99 -11 17 C-11.66 16.34 -12.32 15.68 -13 15 C-12.415 14.435 -11.83 13.871 -11.227 13.289 C-9.083 11.085 -7.233 8.822 -5.375 6.375 C-3.651 4.109 -2.014 2.014 0 0 Z " fill="#16189B" transform="translate(575,469)"/>
<path d="M0 0 C-4.976 4.976 -14.595 4.106 -21.277 4.136 C-24.853 4.12 -28.425 4.071 -32 4 C-32 3.67 -32 3.34 -32 3 C-30.857 2.939 -29.713 2.879 -28.535 2.816 C-27.044 2.732 -25.553 2.647 -24.062 2.562 C-23.308 2.523 -22.553 2.484 -21.775 2.443 C-18.081 2.56 -18.081 2.56 -15 1 C-10.034 0.153 -5.032 -0.129 0 0 Z " fill="#C3BB8F" transform="translate(461,593)"/>
<path d="M0 0 C7.26 0 14.52 0 22 0 C22 0.33 22 0.66 22 1 C20.211 1.091 20.211 1.091 18.387 1.184 C16.82 1.268 15.254 1.353 13.688 1.438 C12.902 1.477 12.116 1.516 11.307 1.557 C10.549 1.599 9.792 1.64 9.012 1.684 C8.315 1.72 7.619 1.757 6.901 1.795 C4.778 1.956 4.778 1.956 2 3 C2.062 4.423 2.062 4.423 2.125 5.875 C2 9 2 9 0 11 C0 7.37 0 3.74 0 0 Z " fill="#C8BF91" transform="translate(523,522)"/>
<path d="M0 0 C0.33 0 0.66 0 1 0 C2.259 8.717 1.237 14.836 -2 23 C-2.66 22.67 -3.32 22.34 -4 22 C-3.795 21.082 -3.59 20.164 -3.379 19.219 C-1.974 12.821 -0.652 6.52 0 0 Z " fill="#1D1D93" transform="translate(651,533)"/>
<path d="M0 0 C1.32 0.33 2.64 0.66 4 1 C-0.29 5.29 -4.58 9.58 -9 14 C-9.33 13.01 -9.66 12.02 -10 11 C-9.34 11 -8.68 11 -8 11 C-7.734 10.417 -7.469 9.835 -7.195 9.234 C-5.967 6.938 -4.597 5.196 -2.875 3.25 C-2.336 2.636 -1.797 2.023 -1.242 1.391 C-0.627 0.702 -0.627 0.702 0 0 Z " fill="#241786" transform="translate(643,244)"/>
<path d="M0 0 C0.66 0 1.32 0 2 0 C1.34 6.93 0.68 13.86 0 21 C-2.557 17.165 -2.048 14.325 -1.688 9.938 C-1.639 9.205 -1.591 8.472 -1.541 7.717 C-1.148 2.295 -1.148 2.295 0 0 Z " fill="#0E119C" transform="translate(505,514)"/>
<path d="M0 0 C2 0 2 0 3.625 1.375 C5 3 5 3 5 5 C6.32 5.66 7.64 6.32 9 7 C9 7.66 9 8.32 9 9 C9.66 9 10.32 9 11 9 C11.33 10.65 11.66 12.3 12 14 C3.314 6.716 3.314 6.716 0 3 C0 2.01 0 1.02 0 0 Z " fill="#2B1B82" transform="translate(381,250)"/>
<path d="M0 0 C0.33 0.99 0.66 1.98 1 3 C-1.1 6.987 -3.791 10.297 -7.688 12.562 C-10 13 -10 13 -13 12 C-12.397 11.553 -11.793 11.105 -11.172 10.645 C-6.898 7.412 -3.097 4.444 0 0 Z " fill="#151693" transform="translate(637,574)"/>
<path d="M0 0 C10.56 0 21.12 0 32 0 C32 0.33 32 0.66 32 1 C31.445 1.025 30.891 1.05 30.319 1.076 C27.796 1.192 25.273 1.315 22.75 1.438 C21.441 1.496 21.441 1.496 20.105 1.557 C19.261 1.599 18.417 1.64 17.547 1.684 C16.772 1.72 15.997 1.757 15.198 1.795 C12.975 1.942 12.975 1.942 10.778 2.582 C10.191 2.72 9.605 2.858 9 3 C8.67 2.67 8.34 2.34 8 2 C5.667 1.959 3.333 1.958 1 2 C0.67 1.34 0.34 0.68 0 0 Z " fill="#160993" transform="translate(632,653)"/>
<path d="M0 0 C1.488 0.902 2.965 1.822 4.438 2.75 C5.261 3.26 6.085 3.771 6.934 4.297 C9.268 6.221 9.525 7.1 10 10 C11.479 11.73 11.479 11.73 13 13 C10 13 10 13 7.301 10.594 C6.297 9.57 5.301 8.538 4.312 7.5 C3.801 6.975 3.29 6.451 2.764 5.91 C1.502 4.613 0.25 3.308 -1 2 C-0.67 1.34 -0.34 0.68 0 0 Z " fill="#1C0E89" transform="translate(351,219)"/>
<path d="M0 0 C6.93 0 13.86 0 21 0 C20.01 1.485 20.01 1.485 19 3 C16.257 3.471 13.804 3.178 11 3 C10.67 2.67 10.34 2.34 10 2 C8.318 1.767 6.629 1.587 4.938 1.438 C4.018 1.354 3.099 1.27 2.152 1.184 C1.087 1.093 1.087 1.093 0 1 C0 0.67 0 0.34 0 0 Z " fill="#160993" transform="translate(306,653)"/>
<path d="M0 0 C3.619 6.642 4.597 13.652 3 21 C-1.012 14.982 -0.111 7.021 0 0 Z " fill="#131393" transform="translate(368,524)"/>
<path d="M0 0 C5.94 0.33 11.88 0.66 18 1 C17.67 1.66 17.34 2.32 17 3 C11.375 4.628 5.719 3.661 0 3 C0 2.01 0 1.02 0 0 Z " fill="#0B0495" transform="translate(504,265)"/>
<path d="M0 0 C4.95 0 9.9 0 15 0 C11 2 11 2 7.938 2.438 C4.847 3.029 3.897 3.576 2 6 C1.34 5.67 0.68 5.34 0 5 C0 3.35 0 1.7 0 0 Z " fill="#D2B417" transform="translate(505,163)"/>
<path d="M0 0 C2.97 0.495 2.97 0.495 6 1 C6 1.66 6 2.32 6 3 C6.577 3.124 7.155 3.248 7.75 3.375 C10.023 4.006 11.925 4.889 14 6 C13.01 7.485 13.01 7.485 12 9 C11.481 8.662 10.961 8.325 10.426 7.977 C6.712 5.601 3.196 3.442 -1 2 C-0.67 1.34 -0.34 0.68 0 0 Z " fill="#181797" transform="translate(618,428)"/>
<path d="M0 0 C0.701 0.268 1.403 0.536 2.125 0.812 C1.795 1.472 1.465 2.132 1.125 2.812 C0.522 2.956 -0.082 3.099 -0.703 3.246 C-3.338 3.933 -4.617 5.06 -6.625 6.875 C-7.545 7.697 -7.545 7.697 -8.484 8.535 C-8.943 8.957 -9.402 9.378 -9.875 9.812 C-9.655 5.956 -8.86 4.796 -6.125 1.938 C-2.875 -0.188 -2.875 -0.188 0 0 Z " fill="#1D1087" transform="translate(678.875,211.1875)"/>
<path d="M0 0 C4.47 3.959 7.709 8.446 10 14 C9.67 14.66 9.34 15.32 9 16 C6.478 14.739 6.229 13.712 5.062 11.188 C3.914 8.78 2.868 6.826 1.25 4.688 C0 3 0 3 0 0 Z " fill="#E9E18E" transform="translate(635,441)"/>
<path d="M0 0 C0 4.69 -2.832 7.691 -6 11 C-8.875 12 -8.875 12 -11 12 C-10.34 11.67 -9.68 11.34 -9 11 C-8.704 10.397 -8.407 9.793 -8.102 9.172 C-6.846 6.697 -5.369 5.17 -3.375 3.25 C-2.743 2.636 -2.112 2.023 -1.461 1.391 C-0.738 0.702 -0.738 0.702 0 0 Z " fill="#31217D" transform="translate(676,237)"/>
<path d="M0 0 C5.94 0 11.88 0 18 0 C17.01 0.33 16.02 0.66 15 1 C15 1.66 15 2.32 15 3 C14.01 3 13.02 3 12 3 C12 2.34 12 1.68 12 1 C8.7 1.66 5.4 2.32 2 3 C1.34 2.01 0.68 1.02 0 0 Z " fill="#150995" transform="translate(337,653)"/>
<path d="M0 0 C1.669 0.323 3.335 0.66 5 1 C6.121 1.201 6.121 1.201 7.266 1.406 C8.464 1.638 8.464 1.638 9.688 1.875 C10.454 2.017 11.221 2.159 12.012 2.305 C14 3 14 3 16 6 C10.132 5.476 5.451 4.239 0 2 C0 1.34 0 0.68 0 0 Z " fill="#E6DE8D" transform="translate(406,589)"/>
<path d="M0 0 C2.82 -0.293 2.82 -0.293 6.125 -0.188 C7.769 -0.147 7.769 -0.147 9.445 -0.105 C10.288 -0.071 11.131 -0.036 12 0 C11.361 0.309 10.721 0.619 10.062 0.938 C8.064 1.835 8.064 1.835 7 3 C5.481 3.072 3.958 3.084 2.438 3.062 C1.611 3.053 0.785 3.044 -0.066 3.035 C-0.704 3.024 -1.343 3.012 -2 3 C-1.34 2.01 -0.68 1.02 0 0 Z " fill="#150A96" transform="translate(611,653)"/>
<path d="M0 0 C0.598 0.309 1.196 0.619 1.812 0.938 C4.09 2.102 4.09 2.102 7 3 C7 4.32 7 5.64 7 7 C7.66 7.33 8.32 7.66 9 8 C8.67 9.32 8.34 10.64 8 12 C7.34 11.67 6.68 11.34 6 11 C5.897 10.423 5.794 9.845 5.688 9.25 C4.691 5.989 2.405 4.344 0 2 C0 1.34 0 0.68 0 0 Z " fill="#180B89" transform="translate(682,214)"/>
<path d="M0 0 C2.965 2.445 3.556 4.446 4.188 8.188 C4.425 9.539 4.425 9.539 4.668 10.918 C4.778 11.605 4.887 12.292 5 13 C4.01 12.67 3.02 12.34 2 12 C1.876 11.113 1.753 10.226 1.625 9.312 C1.056 6.296 0.234 3.797 -1 1 C-0.67 0.67 -0.34 0.34 0 0 Z " fill="#14159B" transform="translate(605,471)"/>
<path d="M0 0 C2.354 1.218 2.873 2.51 3.812 4.938 C1.832 4.278 -0.147 3.618 -2.188 2.938 C-2.641 3.433 -3.095 3.928 -3.562 4.438 C-5.188 5.938 -5.188 5.938 -7.188 5.938 C-7.188 4.947 -7.188 3.958 -7.188 2.938 C-4.738 1.033 -3.151 -0.09 0 0 Z " fill="#0F058F" transform="translate(343.1875,210.0625)"/>
<path d="M0 0 C3.333 3.333 6.667 6.667 10 10 C8.35 9.67 6.7 9.34 5 9 C5 8.34 5 7.68 5 7 C4.34 7 3.68 7 3 7 C1.375 5.75 1.375 5.75 0 4 C0 2.68 0 1.36 0 0 Z " fill="#291B7E" transform="translate(331,225)"/>
<path d="M0 0 C-1 3 -1 3 -2.848 3.949 C-3.579 4.193 -4.309 4.436 -5.062 4.688 C-5.796 4.939 -6.529 5.19 -7.285 5.449 C-7.851 5.631 -8.417 5.813 -9 6 C-9.66 5.34 -10.32 4.68 -11 4 C-9.544 3.329 -8.085 2.663 -6.625 2 C-5.813 1.629 -5.001 1.258 -4.164 0.875 C-2 0 -2 0 0 0 Z " fill="#171795" transform="translate(624,587)"/>
<path d="M0 0 C3.337 1.381 5.223 2.82 7 6 C6.688 8.25 6.688 8.25 6 10 C5.752 9.423 5.505 8.845 5.25 8.25 C4.06 5.866 4.06 5.866 1.875 3.875 C1.256 3.256 0.637 2.637 0 2 C0 1.34 0 0.68 0 0 Z " fill="#150992" transform="translate(403,273)"/>
<path d="M0 0 C0.99 0.33 1.98 0.66 3 1 C1.35 2.65 -0.3 4.3 -2 6 C-3.32 5.34 -4.64 4.68 -6 4 C-5.381 3.711 -4.762 3.423 -4.125 3.125 C-1.867 2.063 -1.867 2.063 0 0 Z " fill="#DCC313" transform="translate(400,285)"/>
<path d="M0 0 C0 0.66 0 1.32 0 2 C-2.525 3.262 -4.312 3.099 -7.125 3.062 C-8.035 3.053 -8.945 3.044 -9.883 3.035 C-10.581 3.024 -11.28 3.012 -12 3 C-12 2.67 -12 2.34 -12 2 C-10.563 1.663 -9.126 1.33 -7.688 1 C-6.887 0.814 -6.086 0.629 -5.262 0.438 C-3 0 -3 0 0 0 Z " fill="#212193" transform="translate(613,592)"/>
<path d="M0 0 C0.66 0 1.32 0 2 0 C1.886 1.48 1.759 2.959 1.625 4.438 C1.521 5.673 1.521 5.673 1.414 6.934 C1.277 7.616 1.141 8.297 1 9 C0.01 9.495 0.01 9.495 -1 10 C-1.125 2.25 -1.125 2.25 0 0 Z " fill="#262598" transform="translate(505,514)"/>
<path d="M0 0 C-1.491 3.795 -3.757 5.61 -7 8 C-6.444 4.109 -4.341 0 0 0 Z " fill="#EDD309" transform="translate(633,280)"/>
<path d="M0 0 C0 3 0 3 -1.438 4.5 C-1.953 4.995 -2.469 5.49 -3 6 C-3.33 6.99 -3.66 7.98 -4 9 C-5.32 8.67 -6.64 8.34 -8 8 C-5.36 5.36 -2.72 2.72 0 0 Z " fill="#2D1D7F" transform="translate(685,228)"/>
<path d="M0 0 C3.937 1.312 6.227 2.919 9 6 C5.517 5.355 2.906 4.018 0 2 C0 1.34 0 0.68 0 0 Z " fill="#1D1D9A" transform="translate(596,464)"/>
<path d="M0 0 C2.31 0 4.62 0 7 0 C7 0.99 7 1.98 7 3 C4.36 2.67 1.72 2.34 -1 2 C-0.67 1.34 -0.34 0.68 0 0 Z " fill="#050A9C" transform="translate(588,463)"/>
<path d="M0 0 C2.5 1.375 2.5 1.375 5 3 C5 3.66 5 4.32 5 5 C5.99 5 6.98 5 8 5 C7.67 5.99 7.34 6.98 7 8 C5.827 7.049 4.662 6.089 3.5 5.125 C2.85 4.591 2.201 4.058 1.531 3.508 C1.026 3.01 0.521 2.513 0 2 C0 1.34 0 0.68 0 0 Z " fill="#05079A" transform="translate(631,435)"/>
<path d="M0 0 C3.291 1.135 3.996 1.993 5.75 5.125 C6.163 6.074 6.575 7.022 7 8 C3.644 6.611 1.927 5.083 0 2 C0 1.34 0 0.68 0 0 Z " fill="#E8E28D" transform="translate(483,362)"/>
<path d="M0 0 C2.31 0.66 4.62 1.32 7 2 C7 2.33 7 2.66 7 3 C5.907 3.124 4.814 3.248 3.688 3.375 C-0.074 3.755 -0.074 3.755 -3 6 C-3 5.01 -3 4.02 -3 3 C-2.34 3 -1.68 3 -1 3 C-0.67 2.01 -0.34 1.02 0 0 Z " fill="#121098" transform="translate(533,346)"/>
<path d="M0 0 C3.255 0.349 4.019 1.021 6.25 3.562 C6.827 4.367 7.405 5.171 8 6 C5 6 5 6 3.613 4.688 C2.409 3.125 1.204 1.562 0 0 Z " fill="#EAD10B" transform="translate(387,281)"/>
<path d="M0 0 C1 3 1 3 1 5 C-1.31 5.66 -3.62 6.32 -6 7 C-4.02 4.69 -2.04 2.38 0 0 Z " fill="#DBC014" transform="translate(659,231)"/>
<path d="M0 0 C0.66 0 1.32 0 2 0 C0.844 3.912 -0.355 6.875 -3 10 C-2.493 6.281 -1.884 3.265 0 0 Z " fill="#EFE88D" transform="translate(642,561)"/>
<path d="M0 0 C1.777 2.666 2.875 5.028 4 8 C3.34 8.66 2.68 9.32 2 10 C1.01 7.03 0.02 4.06 -1 1 C-0.67 0.67 -0.34 0.34 0 0 Z " fill="#E7E18F" transform="translate(530,559)"/>
<path d="M0 0 C4.5 3 4.5 3 9 6 C8.01 6.33 7.02 6.66 6 7 C2.812 5.25 2.812 5.25 0 3 C0 2.01 0 1.02 0 0 Z " fill="#E6DF8D" transform="translate(573,557)"/>
<path d="M0 0 C0.66 0 1.32 0 2 0 C0.667 3.333 -0.667 6.667 -2 10 C-2.33 10 -2.66 10 -3 10 C-2.25 3.375 -2.25 3.375 0 0 Z " fill="#F3EB8B" transform="translate(419,387)"/>
<path d="M0 0 C1.98 1.65 3.96 3.3 6 5 C5.01 5.33 4.02 5.66 3 6 C2.34 5.67 1.68 5.34 1 5 C1 4.34 1 3.68 1 3 C0.34 3 -0.32 3 -1 3 C-0.67 2.01 -0.34 1.02 0 0 Z " fill="#DABD14" transform="translate(369,240)"/>
<path d="M0 0 C4.95 0.33 9.9 0.66 15 1 C15 1.33 15 1.66 15 2 C10.05 2.33 5.1 2.66 0 3 C0 2.01 0 1.02 0 0 Z " fill="#1B0A85" transform="translate(504,161)"/>
<path d="M0 0 C3.821 0.531 6.062 1.497 9 4 C5.625 3.688 5.625 3.688 2 3 C1.34 2.01 0.68 1.02 0 0 Z " fill="#181892" transform="translate(397,587)"/>
<path d="M0 0 C0.66 0 1.32 0 2 0 C3.32 2.31 4.64 4.62 6 7 C4.125 6.688 4.125 6.688 2 6 C0 3 0 3 0 0 Z " fill="#1E1F96" transform="translate(533,572)"/>
<path d="M0 0 C0.66 0 1.32 0 2 0 C1.01 2.97 0.02 5.94 -1 9 C-1.33 9 -1.66 9 -2 9 C-2 6.69 -2 4.38 -2 2 C-1.34 2 -0.68 2 0 2 C0 1.34 0 0.68 0 0 Z " fill="#1A1898" transform="translate(378,378)"/>
<path d="M0 0 C2.475 0.495 2.475 0.495 5 1 C3.35 2.65 1.7 4.3 0 6 C0 4.02 0 2.04 0 0 Z " fill="#1D0F88" transform="translate(664,220)"/>
<path d="M0 0 C1.675 0.286 3.344 0.618 5 1 C4.67 1.66 4.34 2.32 4 3 C2.062 3.562 2.062 3.562 0 4 C-0.99 4.495 -0.99 4.495 -2 5 C-1.125 1.125 -1.125 1.125 0 0 Z " fill="#281783" transform="translate(676,211)"/>
</svg>
