<svg xmlns="http://www.w3.org/2000/svg" viewBox="0 0 1080 1080" width="1080" height="1080">
  <g id="background-layer">
    <image href="/static/images/parallel/20250625_144720_d14a9889/background_fallback_20250625_144713_41061e27.png" x="0" y="0" width="1080" height="1080"/>
  </g>
  <g id="elements-layer" opacity="0.8" blend-mode="multiply">
    <path d="M0 0 C337.92 0 675.84 0 1024 0 C1024 337.92 1024 675.84 1024 1024 C686.08 1024 348.16 1024 0 1024 C0 686.08 0 348.16 0 0 Z " fill="#230716" transform="translate(0,0)"/>
    <path d="M0 0 C0.99 0.495 0.99 0.495 2 1 C2 1.66 2 2.32 2 3 C-0.771 5.099 -2.73 5.965 -6.195 6.41 C-10.386 7.06 -13.898 8.309 -17.812 9.875 C-23.242 11.998 -28.605 13.87 -34.277 15.262 C-34.846 15.505 -35.414 15.749 -36 16 C-36.495 17.485 -36.495 17.485 -37 19 C-26.938 16.739 -26.938 16.739 -17 14 C-16.505 14.99 -16.505 14.99 -16 16 C-16.722 16.268 -17.444 16.536 -18.188 16.812 C-21.026 17.93 -21.026 17.93 -23.562 19.562 C-25.854 20.914 -27.454 21.399 -30 22 C-31.275 22.427 -32.545 22.865 -33.812 23.312 C-39.246 25.16 -44.79 26.538 -50.352 27.938 C-54.129 29.037 -57.462 30.289 -61 32 C-61.495 32.99 -61.495 32.99 -62 34 C-60.563 34.027 -59.125 34.046 -57.688 34.062 C-56.887 34.074 -56.086 34.086 -55.262 34.098 C-52.831 34.097 -52.831 34.097 -50 33 C-50 33.66 -50 34.32 -50 35 C-49.257 34.835 -48.515 34.67 -47.75 34.5 C-43.417 33.922 -39.264 34.02 -34.902 34.16 C-31.799 33.989 -29.809 33.29 -27 32 C-23.393 30.396 -20.567 29.772 -16.625 29.625 C-12.922 29.362 -10.425 28.977 -7.312 26.938 C-4.034 25.02 -3.342 24.782 0.188 24.938 C3.941 25.393 3.941 25.393 6.125 23.375 C6.744 22.921 7.362 22.467 8 22 C8.825 22.289 9.65 22.577 10.5 22.875 C15.959 24.63 22.973 24.541 28.18 21.891 C30 21 30 21 33 22 C35.7 22.122 38.363 22.185 41.062 22.188 C42.162 22.206 42.162 22.206 43.283 22.225 C45.19 22.23 47.097 22.122 49 22 C49.66 21.34 50.32 20.68 51 20 C51.99 20 52.98 20 54 20 C54 20.66 54 21.32 54 22 C56.97 21.67 59.94 21.34 63 21 C63 22.32 63 23.64 63 25 C60.525 25.99 60.525 25.99 58 27 C62.95 26.67 67.9 26.34 73 26 C73 25.34 73 24.68 73 24 C77.584 23.276 81.246 22.937 85.861 23.673 C88.438 24.067 91.021 24.375 93.609 24.684 C94.611 24.807 95.613 24.93 96.645 25.057 C98.73 25.312 100.816 25.562 102.902 25.807 C103.899 25.931 104.895 26.055 105.922 26.184 C106.825 26.292 107.728 26.401 108.659 26.513 C111 27 111 27 114 29 C116.844 29.26 116.844 29.26 120.059 29.16 C121.844 29.144 121.844 29.144 123.666 29.127 C124.911 29.106 126.155 29.084 127.438 29.062 C129.894 29.028 132.352 28.998 134.809 28.973 C135.9 28.955 136.991 28.937 138.115 28.918 C140.613 28.989 142.626 29.267 145 30 C145 30.66 145 31.32 145 32 C147.64 32 150.28 32 153 32 C153 31.34 153 30.68 153 30 C154.072 30.186 155.145 30.371 156.25 30.562 C159.653 30.96 160.881 30.812 164 30 C165.514 29.922 167.031 29.892 168.547 29.902 C169.813 29.907 169.813 29.907 171.105 29.912 C171.978 29.92 172.851 29.929 173.75 29.938 C174.638 29.942 175.526 29.947 176.441 29.951 C178.628 29.963 180.814 29.979 183 30 C183 30.66 183 31.32 183 32 C186.63 32 190.26 32 194 32 C194 31.34 194 30.68 194 30 C196.458 29.973 198.917 29.953 201.375 29.938 C202.074 29.929 202.772 29.921 203.492 29.912 C208.773 29.887 208.773 29.887 211 31 C212.093 30.835 213.186 30.67 214.312 30.5 C217.737 30.036 219.706 30.288 223 31 C232.65 32 234.3 32 236 32 C236 37.61 236 43.22 236 49 C232.549 49.195 229.099 49.391 225.648 49.586 C222.026 49.846 222.026 49.846 218.914 51.164 C215.186 52.234 213.62 51.276 210 50 C206.912 49.772 203.843 49.855 200.75 49.938 C192.239 50.119 192.239 50.119 190 49 C187.651 49.608 185.315 50.271 183 51 C183 50.34 183 49.68 183 49 C182.328 49.174 181.657 49.348 180.965 49.527 C177.38 50.099 174.179 49.858 170.562 49.562 C166.906 49.271 163.321 48.997 159.652 49.027 C157 49 157 49 155 48 C153.392 48.088 151.787 48.243 150.188 48.438 C141.882 49.43 141.882 49.43 137.812 48.5 C130.685 47.233 124.416 47.352 118 51 C117.175 51.825 116.35 52.65 115.5 53.5 C111.69 57.31 107.93 58.895 102.562 59.188 C101.717 59.126 100.871 59.064 100 59 C100 58.34 100 57.68 100 57 C95.285 56.706 95.285 56.706 90.875 58.062 C89 59 89 59 86.688 58.438 C82.742 57.795 80.48 59.165 77 61 C75.648 62.314 74.31 63.643 73 65 C72.01 65 71.02 65 70 65 C69.67 64.34 69.34 63.68 69 63 C66.422 62.527 66.422 62.527 63.375 62.375 C62.291 62.302 61.207 62.228 60.09 62.152 C56.711 61.986 53.381 61.928 50 62 C49.01 62 48.02 62 47 62 C46.67 61.34 46.34 60.68 46 60 C40.06 60 34.12 60 28 60 C27.67 59.34 27.34 58.68 27 58 C19.733 56.599 13.475 56.236 7 60 C6.67 59.01 6.34 58.02 6 57 C5.224 56.951 4.448 56.902 3.648 56.852 C-3.663 56.345 -10.857 55.517 -18.102 54.402 C-21.008 53.931 -21.008 53.931 -24 54 C-25.341 53.7 -26.675 53.364 -28 53 C-29.333 52.643 -30.666 52.289 -32 51.938 C-32.66 51.761 -33.32 51.584 -34 51.402 C-36.314 50.869 -36.314 50.869 -40 51 C-40.33 50.34 -40.66 49.68 -41 49 C-44422 47.748 -44.422 47.748 -48 47 C-48.99 47.495 -48.99 47.495 -50 48 C-53.238 47.571 -56.429 46.967 -59.641 46.375 C-63.053 45.994 -65.641 46.419 -69 47 C-70.678 46.727 -72.346 46.392 -74 46 C-77.084 45.712 -80.168 45.497 -83.258 45.281 C-86 45 -86 45 -89 44 C-89.33 44.66 -89.66 45.32 -90 46 C-90 45.34 -90 44.68 -90 44 C-91.65 43.67 -93.3 43.34 -95 43 C-94.67 41.68 -94.34 40.36 -94 39 C-91.525 38.505 -91.525 38.505 -89 38 C-89.33 37.34 -89.66 36.68 -90 36 C-92.31 36 -94.62 36 -97 36 C-97.33 35.34 -97.66 34.68 -98 34 C-101.61 34.656 -101.61 34.656 -105 36 C-105 35.34 -105 34.68 -105 34 C-109.455 34.495 -109.455 34.495 -114 35 C-112.848 31.545 -112.012 30.893 -109 29 C-108.394 28.866 -107.788 28.732 -107.164 28.594 C-104.488 27.86 -102.53 26.608 -100.188 25.125 C-97.181 23.269 -94.274 21.582 -91 20.25 C-87.948 19.202 -87.948 19.202 -86 17 C-85.175 16.876 -84.35 16.752 -83.5 16.625 C-79.515 15.913 -76.17 14.529 -72.465 12.938 C-66.446 10.648 -59.949 10.394 -53.594 9.695 C-50.042 9.23 -50.042 9.23 -47.527 7.465 C-44.118 5.489 -40.902 5.512 -37.062 5.438 C-31.237 5.291 -26.274 4.637 -21 2 C-19.005 1.745 -17.004 1.544 -15 1.375 C-13.391 1.232 -13.391 1.232 -11.75 1.086 C-9 1 -9 1 -7 2 C-4.667 2.04 -2.333 2.043 0 2 C0 1.34 0 0.68 0 0 Z " fill="#D00000" transform="translate(186,476)"/>
</g>
  <g id="text-layer">
    <svg width="1080" height="1080" viewBox="0 0 1080 1080" xmlns="http://www.w3.org/2000/svg" preserveAspectRatio="xMidYMid meet">
      <style>
        .title {
          font-family: 'Arial Black', Arial, sans-serif;
          font-weight: 900;
          font-size: 130px;
          fill: url(#grad1);
          stroke: #2a2f3a;
          stroke-width: 2;
          filter: url(#shadow);
          text-anchor: middle;
        }
        .subtitle {
          font-family: 'Arial', sans-serif;
          font-size: 42px;
          fill: url(#grad2);
          text-anchor: middle;
        }
      </style>
      <defs>
        <linearGradient id="grad1" x1="0%" y1="0%" x2="0%" y2="100%">
          <stop offset="0%" stop-color="#e0f3ff"/>
          <stop offset="100%" stop-color="#7aaedc"/>
        </linearGradient>
        <linearGradient id="grad2" x1="0%" y1="0%" x2="100%" y2="0%">
          <stop offset="0%" stop-color="#ff9cce"/>
          <stop offset="100%" stop-color="#ffcc96"/>
        </linearGradient>
        <filter id="shadow" x="-20%" y="-20%" width="140%" height="140%" >
          <feDropShadow dx="3" dy="3" stdDeviation="3" flood-color="#000000" flood-opacity="0.7"/>
        </filter>
      </defs>
      <text class="title" x="50%" y="45%">COMING</text>
      <text class="title" x="50%" y="65%">SOON</text>
      <text class="subtitle" x="50%" y="82%">L.uinching in Jure 2024</text>
    </svg>
  </g>
</svg>