<?xml version="1.0" encoding="UTF-8" standalone="no"?>
<svg xmlns="http://www.w3.org/2000/svg" xmlns:xlink="http://www.w3.org/1999/xlink" viewBox="0 0 1080 1080" width="1024" height="1024" style="enable-background:new 0 0 1024 1024;">
  <defs>
    <style type="text/css">
      @import url("https://fonts.googleapis.com/css2?family=Montserrat:wght@400;700&display=swap");
      @import url("https://fonts.googleapis.com/css2?family=Open+Sans:wght@400;600&display=swap");
      @import url("https://fonts.googleapis.com/css2?family=Georgia:ital@0;1&display=swap");
      @import url("https://fonts.googleapis.com/css2?family=Roboto:wght@300;400;500;700&display=swap");
      @import url("https://fonts.googleapis.com/css2?family=Lato:wght@400;700&display=swap");
      .text-content { font-family: inherit; }
    </style>
  </defs>
  <!-- Vectorized elements -->
  <g id="vectorized-content">
    
<path d="M0 0 C337.92 0 675.84 0 1024 0 C1024 337.92 1024 675.84 1024 1024 C686.08 1024 348.16 1024 0 1024 C0 686.08 0 348.16 0 0 Z " fill="#000000" transform="translate(0,0)"/>
<path d="M0 0 C127.05 0 254.1 0 385 0 C385 36.63 385 73.26 385 111 C371.47 111 357.94 111 344 111 C344 145.98 344 180.96 344 217 C329.28535156 217.06058594 314.57070313 217.12117187 299.41015625 217.18359375 C289.96288858 217.22419509 280.51562239 217.26499133 271.06835938 217.30664062 C256.14673686 217.3723893 241.22511414 217.43742757 226.3034668 217.49731445 C211.92234379 217.55521266 197.54124097 217.61683596 183.16015625 217.68359375 C181.99039387 217.68900665 180.82063149 217.69441955 179.61542177 217.69999647 C150.64194134 217.8357196 121.67082248 217.97180642 92.70436096 218.67295837 C71.1229448 219.1653799 49.61470041 219 28 219 C28 183.36 28 147.72 28 111 C18.76 111 9.52 111 0 111 C0 74.37 0 37.74 0 0 Z " fill="#B0E4FE" transform="translate(288,203)"/>
<path d="M0 0 C10.43197321 0.004462 20.86393507 0.00365436 31.29590808 -0.00091031 C129.19057196 -0.0426427 129.19057196 -0.0426427 163.26587878 0.36090609 C164.09422189 0.37071427 164.92256501 0.38052244 165.77600943 0.39062783 C180.99555398 0.57637015 196.21295129 0.86383877 211.43140613 1.12946078 C211.43140613 25.54946078 211.43140613 49.96946078 211.43140613 75.12946078 C83.72140613 75.12946078 -43.98859387 75.12946078 -175.56859387 75.12946078 C-175.89859387 50.70946078 -176.22859387 26.28946078 -176.56859387 1.12946078 C-144.3340026 0.51304577 -144.3340026 0.51304577 -132.24583997 0.36090609 C-131.40558609 0.35032876 -130.56533221 0.33975143 -129.69961609 0.32885358 C-86.47038809 -0.19792881 -43.23185603 -0.01887549 0 0 Z " fill="#9DDCFD" transform="translate(493.5685938745737,672.8705392181873)"/>
<path d="M0 0 C199.65 0 399.3 0 605 0 C605 15.18 605 30.36 605 46 C405.68 46 206.36 46 1 46 C0.67 30.82 0.34 15.64 0 0 Z " fill="#ADE4FD" transform="translate(176,470)"/>
<path d="M0 0 C1.36711758 0.00063635 1.36711758 0.00063635 2.76185369 0.00128555 C24.17458585 0.0114384 45.58728819 0.03100502 67 0.0625 C67 14.9125 67 29.7625 67 45.0625 C-104.93 45.0625 -276.86 45.0625 -454 45.0625 C-454 30.5425 -454 16.0225 -454 1.0625 C-401.35331457 0.89409883 -348.70661545 0.73038253 -296.05990028 0.57154435 C-293.07144799 0.562527 -290.08299572 0.55350065 -287.09454346 0.54447412 C-92.43417383 -0.04314279 -92.43417383 -0.04314279 0 0 Z " fill="#B0E4FD" transform="translate(670,422.9375)"/>
<path d="M0 0 C99 0 198 0 300 0 C300 16.17 300 32.34 300 49 C201 49 102 49 0 49 C0 32.83 0 16.66 0 0 Z " fill="#AAE2FE" transform="translate(349,615)"/>
<path d="M0 0 C9.50283502 0.01145184 19.00567103 0.01674352 28.5085113 0.021703 C47.95628732 0.03198129 67.40405041 0.04941087 86.85181582 0.07202661 C87.10866152 0.94810571 87.36550723 1.82418481 87.63013613 2.72681177 C87.97657168 3.88487329 88.32300723 5.04293481 88.67994082 6.23608911 C89.01928652 7.38029321 89.35863223 8.52449731 89.70826113 9.70337427 C92.87682723 19.03725024 98.47589621 26.92247596 107.44556582 31.35327661 C114.38303983 34.20988355 120.24349266 35.2262658 127.75122988 35.27734888 C128.64914248 35.28724847 129.54705508 35.29714807 130.47217715 35.30734766 C133.4372383 35.33891072 136.40231548 35.3636996 139.36744082 35.38843286 C141.42439083 35.40900687 143.48133666 35.43000346 145.53827822 35.45140588 C150.95021068 35.50658039 156.36218101 35.55601008 161.7741791 35.60425317 C167.29748809 35.65450191 172.82074214 35.71017038 178.34400332 35.76538599 C189.17989388 35.87291105 200.01583216 35.9743686 210.85181582 36.07202661 C210.85181582 41.02202661 210.85181582 45.97202661 210.85181582 51.07202661 C97.00181582 51.07202661 -16.84818418 51.07202661 -134.14818418 51.07202661 C-134.14818418 34.57202661 -134.14818418 18.07202661 -134.14818418 1.07202661 C-89.42266368 0.1136765 -44.73322429 -0.05492078 0 0 Z " fill="#A6E0FD" transform="translate(439.1481841802597,522.9279733896255)"/>
<path d="M0 0 C28.71 0 57.42 0 87 0 C87 25.74 87 51.48 87 78 C86.67 77.34 86.34 76.68 86 76 C57.95 76 29.9 76 1 76 C0.505 76.99 0.505 76.99 0 78 C0 52.26 0 26.52 0 0 Z " fill="#8FD5FA" transform="translate(441,118)"/>
<path d="M0 0 C199.65 0 399.3 0 605 0 C605 15.18 605 30.36 605 46 C405.68 46 206.36 46 1 46 C0.67 30.82 0.34 15.64 0 0 Z M2 1 C2 15.52 2 30.04 2 45 C200.66 45 399.32 45 604 45 C604 30.48 604 15.96 604 1 C590.48535988 0.94179428 590.48535988 0.94179428 576.97070312 0.90234375 C571.45577123 0.89040454 565.94090596 0.87630488 560.42602539 0.84912109 C555.97806125 0.8273344 551.53016862 0.81541909 547.08215523 0.81024551 C545.38815753 0.80656021 543.69416358 0.79936376 542.00019646 0.78853989 C539.6210584 0.77394743 537.24221297 0.77202528 534.86303711 0.77294922 C534.16819717 0.76575867 533.47335724 0.75856812 532.75746155 0.75115967 C528.11522199 0.77057077 524.36569518 1.56950077 520 3 C518.82428549 6.67410785 518.92633254 10.16929183 519 14 C518.67 9.71 518.34 5.42 518 1 C347.72 1 177.44 1 2 1 Z " fill="#F7FEFD" transform="translate(176,470)"/>
<path d="M0 0 C12.10099629 0.02310757 24.20199611 0.03353403 36.30300927 0.04340601 C61.0181496 0.0638267 85.73325041 0.09854949 110.44835651 0.14405322 C110.44835651 0.47405322 110.44835651 0.80405322 110.44835651 1.14405322 C96.57341478 1.31567411 82.69841525 1.48216382 68.82335651 1.64405322 C67.29680879 1.6618691 67.29680879 1.6618691 65.73942173 1.68004489 C35.63904653 2.02982404 5.55138204 2.25194937 -24.55164349 2.14405322 C7.12835651 2.63905322 7.12835651 2.63905322 39.44835651 3.14405322 C39.44835651 3.47405322 39.44835651 3.80405322 39.44835651 4.14405322 C-40.08164349 4.14405322 -119.61164349 4.14405322 -201.55164349 4.14405322 C-201.22164349 3.48405322 -200.89164349 2.82405322 -200.55164349 2.14405322 C-133.69308509 0.4726089 -66.87820229 -0.13016653 0 0 Z " fill="#0B2F40" transform="translate(520.5516434907913,419.8559467792511)"/>
<path d="M0 0 C123.09 0 246.18 0 373 0 C373 0.33 373 0.66 373 1 C342.27087792 1.17510647 311.54170967 1.34101382 280.8125 1.5 C279.66470959 1.50594854 278.51691918 1.51189708 277.33434725 1.51802588 C209.11849888 1.87099415 140.90429967 2.09569614 72.6875 2.0625 C71.78880455 2.06207577 70.89010911 2.06165154 69.96418047 2.06121445 C47.64277528 2.05049192 25.32138641 2.03110939 3 2 C2.81815035 3.6088434 2.64218955 5.21835324 2.46875 6.828125 C2.37013672 7.7243457 2.27152344 8.62056641 2.16992188 9.54394531 C1.98511914 12.21508827 2.4219125 14.39860625 3 17 C2.70131344 19.00546689 2.36628677 21.00577205 2 23 C1.96296931 24.99965715 1.95239444 27.00056665 2 29 C1.34 29.33 0.68 29.66 0 30 C0 20.1 0 10.2 0 0 Z " fill="#90E3FC" transform="translate(178,471)"/>
<path d="M0 0 C0.99 0.495 0.99 0.495 2 1 C2 1.33 2 1.66 2 2 C20.81 2.33 39.62 2.66 59 3 C59 3.33 59 3.66 59 4 C-17.23 4 -93.46 4 -172 4 C-172 3.67 -172 3.34 -172 3 C-139.28628257 1.9882025 -106.56836564 1.67827999 -73.84196341 1.42604947 C-68.0822281 1.38116811 -62.32256393 1.32972671 -56.56289619 1.27696168 C-50.92893477 1.22559292 -45.29494895 1.17830972 -39.66092545 1.13427413 C-36.32958294 1.10818864 -32.99829119 1.0801039 -29.66699028 1.0489006 C-25.98951987 1.01503171 -22.31205844 0.98785714 -18.63452148 0.96240234 C-17.5536879 0.95102737 -16.47285431 0.9396524 -15.35926819 0.92793274 C-10.12040522 0.89872952 -5.16007091 1.07390696 0 2 C0 1.34 0 0.68 0 0 Z " fill="#DBF7FE" transform="translate(572,416)"/>
<path d="M0 0 C41.91 0 83.82 0 127 0 C127 0.33 127 0.66 127 1 C116.18928875 2.26419063 105.43718172 2.03719044 94.578125 1.87890625 C92.62230026 1.85455752 90.66646914 1.83071649 88.71063232 1.80735779 C83.60120285 1.74498917 78.49188857 1.67579275 73.38256836 1.60510254 C68.15353573 1.53398835 62.92442243 1.46943062 57.6953125 1.40429688 C47.46345297 1.27589469 37.23170326 1.14026856 27 1 C26.67 1.66 26.34 2.32 26 3 C26 2.34 26 1.68 26 1 C18.08 1.33 10.16 1.66 2 2 C2 13.88 2 25.76 2 38 C3.98 38.33 5.96 38.66 8 39 C8 39.66 8 40.32 8 41 C9.155 40.855625 10.31 40.71125 11.5 40.5625 C12.2321875 40.47226562 12.964375 40.38203125 13.71875 40.2890625 C15.15760439 40.10674191 16.59535708 39.91527611 18.03125 39.7109375 C22.73561747 39.05755313 27.24935672 38.92082261 32 39 C33.32 39 34.64 39 36 39 C36.66 39 37.32 39 38 39 C38 39.66 38 40.32 38 41 C43.94 41 49.88 41 56 41 C56 40.34 56 39.68 56 39 C58.31 39 60.62 39 63 39 C63 39.66 63 40.32 63 41 C65.31 41 67.62 41 70 41 C70 41.33 70 41.66 70 42 C46.9 42 23.8 42 0 42 C0 28.14 0 14.28 0 0 Z " fill="#78CDF7" transform="translate(217,425)"/>
<path d="M0 0 C28.05 0 56.1 0 85 0 C85 0.66 85 1.32 85 2 C80.65865906 3.07003973 76.43955155 3.13512683 71.99682617 3.11352539 C71.20605682 3.11367142 70.41528748 3.11381744 69.60055542 3.1139679 C66.99799821 3.11327362 64.39551339 3.105504 61.79296875 3.09765625 C59.98407531 3.09579035 58.17518136 3.09436726 56.36628723 3.09336853 C51.61356197 3.08955694 46.86086744 3.07973825 42.1081543 3.06866455 C37.2550498 3.05842123 32.40194032 3.05386465 27.54882812 3.04882812 C18.03253861 3.03811475 8.51627186 3.02105465 -1 3 C-0.67 2.01 -0.34 1.02 0 0 Z " fill="#1E8587" transform="translate(442,194)"/>
<path d="M0 0 C20.79 0.33 41.58 0.66 63 1 C63 1.33 63 1.66 63 2 C56.77444659 2.14387265 50.54886106 2.28623439 44.32324219 2.42724609 C42.20897508 2.47534164 40.09471702 2.52383729 37.98046875 2.57275391 C34.92710678 2.6433269 31.87371424 2.71242159 28.8203125 2.78125 C27.88760529 2.80312378 26.95489807 2.82499756 25.993927 2.84753418 C24.64365921 2.87756531 24.64365921 2.87756531 23.26611328 2.90820312 C21.96265961 2.94022827 21.96265961 2.94022827 20.63287354 2.97290039 C18.81297628 2.99163221 16.99230843 2.9671885 15.17327881 2.90795898 C14.27417786 2.88096924 13.3750769 2.85397949 12.44873047 2.82617188 C11.64144501 2.78939331 10.83415955 2.75261475 10.00241089 2.71472168 C9.0112175 2.85593445 9.0112175 2.85593445 8 3 C7.01 4.485 7.01 4.485 6 6 C5.34 6 4.68 6 4 6 C4 27.12 4 48.24 4 70 C7.63405751 70.90851438 9.15367105 71.00076803 12.6875 70.5 C17.66514249 69.91570021 22.04855722 70.28124218 27 71 C27 71.66 27 72.32 27 73 C18.75 73 10.5 73 2 73 C1.97494385 70.85967285 1.9498877 68.7193457 1.92407227 66.51416016 C1.84070589 59.45334 1.75200624 52.39259416 1.66066074 45.33187294 C1.60542678 41.04972559 1.55200602 36.76757142 1.50268555 32.48535156 C1.45504897 28.35506512 1.40270642 24.22486299 1.34705925 20.09467697 C1.32663249 18.51659613 1.30791994 16.93849217 1.29092598 15.36037064 C1.26688903 13.15503811 1.23683366 10.94986549 1.20532227 8.74462891 C1.18977798 7.48776276 1.1742337 6.23089661 1.15821838 4.9359436 C1.19909528 2.06616168 1.19909528 2.06616168 0 0 Z " fill="#5BCBFB" transform="translate(317,674)"/>
<path d="M0 0 C38.28 0 76.56 0 116 0 C116 0.33 116 0.66 116 1 C102.76891177 1.97493974 89.60276307 2.13237883 76.33984375 2.09765625 C74.21179742 2.0957861 72.08375065 2.09436502 69.95570374 2.09336853 C64.41403977 2.08959033 58.87240292 2.07980144 53.33074951 2.06866455 C47.65214403 2.05834817 41.97353407 2.05384922 36.29492188 2.04882812 C25.19660281 2.03817389 14.09830368 2.02115553 3 2 C2.81815035 3.6088434 2.64218955 5.21835324 2.46875 6.828125 C2.37013672 7.7243457 2.27152344 8.62056641 2.16992188 9.54394531 C1.98511914 12.21508827 2.4219125 14.39860625 3 17 C2.70131344 19.00546689 2.36628677 21.00577205 2 23 C1.96296931 24.99965715 1.95239444 27.00056665 2 29 C1.34 29.33 0.68 29.66 0 30 C0 20.1 0 10.2 0 0 Z " fill="#71D2F8" transform="translate(178,471)"/>
<path d="M0 0 C22.77 0 45.54 0 69 0 C68.67 0.99 68.34 1.98 68 3 C62.60653012 3.02464849 57.21309275 3.04283531 51.81958008 3.05493164 C49.98331125 3.05997231 48.14704646 3.06680477 46.31079102 3.07543945 C43.67723599 3.08751672 41.04373384 3.09323081 38.41015625 3.09765625 C37.17109276 3.10539818 37.17109276 3.10539818 35.90699768 3.11329651 C33.93763632 3.11349205 31.96838386 3.06204152 30 3 C29.67 2.67 29.34 2.34 29 2 C26.85613343 1.84141158 24.70733162 1.74870702 22.55859375 1.68359375 C21.25341797 1.64169922 19.94824219 1.59980469 18.60351562 1.55664062 C17.2148467 1.51682392 15.82617478 1.47711175 14.4375 1.4375 C13.04490817 1.39432011 11.65232972 1.350706 10.25976562 1.30664062 C6.83995199 1.20014124 3.42006237 1.09813077 0 1 C0 0.67 0 0.34 0 0 Z " fill="#02101B" transform="translate(419,420)"/>
<path d="M0 0 C28.05 0 56.1 0 85 0 C85 2.64 85 5.28 85 8 C84.34 8.33 83.68 8.66 83 9 C83 6.69 83 4.38 83 2 C72.73426419 1.93058942 62.4685839 1.87723436 52.20266151 1.84456348 C47.43613033 1.82888567 42.6697593 1.80760901 37.90332031 1.77368164 C33.3062418 1.74116334 28.70931764 1.72316294 24.11213303 1.71536827 C22.35537662 1.70981118 20.59862897 1.69895997 18.84193802 1.68280983 C16.38743872 1.66113522 13.93358299 1.65802883 11.47900391 1.65942383 C10.74748611 1.648638 10.01596832 1.63785217 9.26228333 1.6267395 C7.03142521 1.60528345 7.03142521 1.60528345 4 2 C2.0549 4.91765 1.54723683 6.62537285 1 10 C0.67 10 0.34 10 0 10 C0 6.7 0 3.4 0 0 Z " fill="#72CEF9" transform="translate(442,119)"/>
<path d="M0 0 C20.79 0.33 41.58 0.66 63 1 C63 1.33 63 1.66 63 2 C56.77444659 2.14387265 50.54886106 2.28623439 44.32324219 2.42724609 C42.20897508 2.47534164 40.09471702 2.52383729 37.98046875 2.57275391 C34.92710678 2.6433269 31.87371424 2.71242159 28.8203125 2.78125 C27.88760529 2.80312378 26.95489807 2.82499756 25.993927 2.84753418 C24.64365921 2.87756531 24.64365921 2.87756531 23.26611328 2.90820312 C21.96265961 2.94022827 21.96265961 2.94022827 20.63287354 2.97290039 C18.81297628 2.99163221 16.99230843 2.9671885 15.17327881 2.90795898 C14.27417786 2.88096924 13.3750769 2.85397949 12.44873047 2.82617188 C11.64144501 2.78939331 10.83415955 2.75261475 10.00241089 2.71472168 C9.0112175 2.85593445 9.0112175 2.85593445 8 3 C7.01 4.485 7.01 4.485 6 6 C5.34 6 4.68 6 4 6 C4 10.29 4 14.58 4 19 C3.67 19 3.34 19 3 19 C2.86722656 17.79601562 2.73445313 16.59203125 2.59765625 15.3515625 C2.4194698 13.77601915 2.2410735 12.20049953 2.0625 10.625 C1.97548828 9.8309375 1.88847656 9.036875 1.79882812 8.21875 C1.3961065 3.97744999 1.3961065 3.97744999 0 0 Z " fill="#7BCEF7" transform="translate(317,674)"/>
<path d="M0 0 C6 0 12 0 18 0 C18 0.66 18 1.32 18 2 C23.94 2 29.88 2 36 2 C36 1.34 36 0.68 36 0 C38.31 0 40.62 0 43 0 C43 0.66 43 1.32 43 2 C45.31 2 47.62 2 50 2 C50 2.33 50 2.66 50 3 C43.20075608 3.07588365 36.40162078 3.12852926 29.60205078 3.16479492 C27.28755615 3.17990853 24.97309026 3.20039996 22.65869141 3.22631836 C19.33749304 3.26258841 16.01667232 3.27970044 12.6953125 3.29296875 C11.13588425 3.31619453 11.13588425 3.31619453 9.54495239 3.33988953 C8.10368484 3.34022942 8.10368484 3.34022942 6.63330078 3.34057617 C5.78502716 3.34723801 4.93675354 3.35389984 4.06277466 3.36076355 C3.0417012 3.18218559 3.0417012 3.18218559 2 3 C1.34 2.01 0.68 1.02 0 0 Z " fill="#84D2F8" transform="translate(237,464)"/>
<path d="M0 0 C5.08625949 -0.02492888 10.17248252 -0.04296724 15.25878906 -0.05493164 C16.98503235 -0.05992544 18.71127149 -0.06672279 20.4375 -0.07543945 C39.71348985 -0.17025769 39.71348985 -0.17025769 47 1 C47.495 1.99 47.495 1.99 48 3 C36.78 3 25.56 3 14 3 C14 2.67 14 2.34 14 2 C7.07 1.505 7.07 1.505 0 1 C0 0.67 0 0.34 0 0 Z " fill="#C3EFFE" transform="translate(624,310)"/>
<path d="M0 0 C1.33826811 0.31293346 2.67097644 0.6498782 4 1 C6.90668312 1.15138225 9.79458636 1.25643657 12.703125 1.31640625 C13.95980988 1.3475779 13.95980988 1.3475779 15.24188232 1.37937927 C17.91117356 1.4446255 20.58056098 1.50364358 23.25 1.5625 C25.06250984 1.60570894 26.87501005 1.64932399 28.6875 1.69335938 C33.12490209 1.80028129 37.56240068 1.90161866 42 2 C42 2.33 42 2.66 42 3 C24.84 3 7.68 3 -10 3 C-6.54153783 0.69435855 -5.0333286 0.91231894 -1 1 C-0.67 0.67 -0.34 0.34 0 0 Z " fill="#9EDEFC" transform="translate(395,512)"/>
<path d="M0 0 C10.56 0 21.12 0 32 0 C32 0.66 32 1.32 32 2 C25.01075656 3.21293909 18.53670715 2.74007766 11.5 2.0625 C10.39140625 1.96259766 9.2828125 1.86269531 8.140625 1.75976562 C5.42629543 1.514072 2.71292839 1.26063764 0 1 C0 0.67 0 0.34 0 0 Z " fill="#B5E3FC" transform="translate(600,674)"/>
<path d="M0 0 C0.99 0.495 0.99 0.495 2 1 C1.98428955 1.62044189 1.9685791 2.24088379 1.95239258 2.88012695 C1.89003786 5.69082528 1.85100852 8.50137812 1.8125 11.3125 C1.78736328 12.28896484 1.76222656 13.26542969 1.73632812 14.27148438 C1.72666016 15.20927734 1.71699219 16.14707031 1.70703125 17.11328125 C1.6913208 17.97735596 1.67561035 18.84143066 1.65942383 19.73168945 C2.06976682 22.46466201 2.93558421 23.2485291 5 25 C5 25.33 5 25.66 5 26 C3.35 26 1.7 26 0 26 C0 17.42 0 8.84 0 0 Z " fill="#7FD1F9" transform="translate(306,547)"/>
<path d="M0 0 C0.78375 0.185625 1.5675 0.37125 2.375 0.5625 C5.50488222 0.94024441 7.73429141 0.8793736 10.8125 0.5 C15.74505355 -0.09130763 20.09146418 0.28747061 25 1 C25 1.66 25 2.32 25 3 C16.75 3 8.5 3 0 3 C0 2.01 0 1.02 0 0 Z " fill="#75C7F7" transform="translate(319,744)"/>
<path d="M0 0 C0.33 0 0.66 0 1 0 C1 14.19 1 28.38 1 43 C-0.32 42.67 -1.64 42.34 -3 42 C-2.34 41.34 -1.68 40.68 -1 40 C-0.75393985 36.99113276 -0.62619218 34.06782248 -0.5859375 31.0546875 C-0.56657135 30.1696756 -0.5472052 29.2846637 -0.5272522 28.37283325 C-0.46737277 25.54032084 -0.42103787 22.70776797 -0.375 19.875 C-0.33682789 17.95701332 -0.29777662 16.03904393 -0.2578125 14.12109375 C-0.16166445 9.41420252 -0.07766458 4.70723104 0 0 Z " fill="#96DDFE" transform="translate(735,424)"/>
<path d="M0 0 C2.97 0 5.94 0 9 0 C9 0.33 9 0.66 9 1 C6.69 1.66 4.38 2.32 2 3 C2 6.96 2 10.92 2 15 C0 13 0 13 -0.1953125 9.9609375 C-0.16050781 8.18589844 -0.16050781 8.18589844 -0.125 6.375 C-0.10695313 5.18648438 -0.08890625 3.99796875 -0.0703125 2.7734375 C-0.04710937 1.85820312 -0.02390625 0.94296875 0 0 Z " fill="#D6F9FE" transform="translate(694,471)"/>
<path d="M0 0 C0.99 0 1.98 0 3 0 C2.34 4.95 1.68 9.9 1 15 C0.67 15 0.34 15 0 15 C0 10.05 0 5.1 0 0 Z " fill="#97DEFE" transform="translate(317,402)"/>
<path d="M0 0 C0 0.66 0 1.32 0 2 C3.465 1.505 3.465 1.505 7 1 C7 1.66 7 2.32 7 3 C1.72 3 -3.56 3 -9 3 C-5.87496336 0.91664224 -3.72863529 0 0 0 Z " fill="#8DD2FB" transform="translate(354,744)"/>
<path d="M0 0 C1.48831242 0.00667405 2.97660807 0.01863442 4.46484375 0.03515625 C5.22345703 0.03966797 5.98207031 0.04417969 6.76367188 0.04882812 C8.64326246 0.06064945 10.52281274 0.07858547 12.40234375 0.09765625 C12.40234375 0.42765625 12.40234375 0.75765625 12.40234375 1.09765625 C4.02724462 3.51082041 4.02724462 3.51082041 -0.59765625 2.09765625 C-1.74234375 1.81921875 -1.74234375 1.81921875 -2.91015625 1.53515625 C-3.46703125 1.39078125 -4.02390625 1.24640625 -4.59765625 1.09765625 C-3.59765625 0.09765625 -3.59765625 0.09765625 0 0 Z " fill="#82D4F9" transform="translate(315.59765625,203.90234375)"/>
<path d="M0 0 C1.22589844 0.15275391 1.22589844 0.15275391 2.4765625 0.30859375 C3.41628906 0.43427734 3.41628906 0.43427734 4.375 0.5625 C4.375 1.2225 4.375 1.8825 4.375 2.5625 C0.745 2.5625 -2.885 2.5625 -6.625 2.5625 C-6.625 1.9025 -6.625 1.2425 -6.625 0.5625 C-4.10446405 -0.69776798 -2.7707902 -0.35624445 0 0 Z " fill="#81CEFA" transform="translate(339.625,744.4375)"/>

  </g>
  <!-- Text elements with precise positioning -->
  <g id="text-content" class="text-content">
    <text
                x="366.0"
                y="127.4"
                font-family="Arial"
                font-size="48.0px"
                font-weight="normal"
                font-style="normal"
                fill="#9ee1ff"
                text-anchor="middle"
                dominant-baseline="auto"
                data-original-x="339.0"
                data-original-y="89.0"
                data-original-width="54.0"
                data-original-height="52.0"
                data-text-type="icon">
                △
            </text>
<text
                x="356.5"
                y="209.6"
                font-family="Arial Black"
                font-size="72.0px"
                font-weight="bold"
                font-style="normal"
                fill="#e6f7ff"
                text-anchor="middle"
                dominant-baseline="auto"
                data-original-x="222.0"
                data-original-y="152.0"
                data-original-width="269.0"
                data-original-height="85.0"
                data-text-type="title">
                COMING
            </text>
<text
                x="352.5"
                y="294.6"
                font-family="Arial Black"
                font-size="72.0px"
                font-weight="bold"
                font-style="normal"
                fill="#e6f7ff"
                text-anchor="middle"
                dominant-baseline="auto"
                data-original-x="239.0"
                data-original-y="237.0"
                data-original-width="227.0"
                data-original-height="85.0"
                data-text-type="title">
                SOON
            </text>
<text
                x="342.0"
                y="345.0"
                font-family="Arial"
                font-size="20.0px"
                font-weight="normal"
                font-style="normal"
                fill="#a6d3ff"
                text-anchor="middle"
                dominant-baseline="auto"
                data-original-x="161.0"
                data-original-y="329.0"
                data-original-width="362.0"
                data-original-height="26.0"
                data-text-type="body">
                Out: (Speriatime, unti rsoeitisinsmeor.
            </text>
<text
                x="341.5"
                y="382.0"
                font-family="Arial"
                font-size="20.0px"
                font-weight="normal"
                font-style="normal"
                fill="#a6d3ff"
                text-anchor="middle"
                dominant-baseline="auto"
                data-original-x="135.0"
                data-original-y="366.0"
                data-original-width="413.0"
                data-original-height="26.0"
                data-text-type="body">
                thd at. netlinary ibe: vermmerailiage
            </text>
<text
                x="352.5"
                y="419.0"
                font-family="Arial"
                font-size="20.0px"
                font-weight="normal"
                font-style="normal"
                fill="#a6d3ff"
                text-anchor="middle"
                dominant-baseline="auto"
                data-original-x="234.0"
                data-original-y="403.0"
                data-original-width="237.0"
                data-original-height="26.0"
                data-text-type="body">
                redilater livients.
            </text>
<text
                x="277.0"
                y="477.0"
                font-family="Arial"
                font-size="30.0px"
                font-weight="normal"
                font-style="normal"
                fill="#d6f0ff"
                text-anchor="middle"
                dominant-baseline="auto"
                data-original-x="261.0"
                data-original-y="453.0"
                data-original-width="32.0"
                data-original-height="32.0"
                data-text-type="icon">
                ⦿
            </text>
<text
                x="298.0"
                y="478.6"
                font-family="Arial Black"
                font-size="32.0px"
                font-weight="bold"
                font-style="normal"
                fill="#d6f0ff"
                text-anchor="start"
                dominant-baseline="auto"
                data-original-x="298.0"
                data-original-y="453.0"
                data-original-width="164.0"
                data-original-height="38.0"
                data-text-type="subtitle">
                24 DAYS
            </text>
<text
                x="373.5"
                y="548.8"
                font-family="Arial Black"
                font-size="36.0px"
                font-weight="bold"
                font-style="normal"
                fill="#ffffff"
                text-anchor="middle"
                dominant-baseline="auto"
                data-original-x="240.0"
                data-original-y="520.0"
                data-original-width="267.0"
                data-original-height="54.0"
                data-text-type="button">
                K1RITG PE
            </text>
  </g>
</svg>