<?xml version="1.0" encoding="UTF-8" standalone="no"?>
<svg xmlns="http://www.w3.org/2000/svg" xmlns:xlink="http://www.w3.org/1999/xlink" viewBox="0 0 1080 1080" width="1024" height="1024" style="enable-background:new 0 0 1024 1024;">
  <defs>
    <style type="text/css">
      @import url("https://fonts.googleapis.com/css2?family=Montserrat:wght@400;700&display=swap");
      @import url("https://fonts.googleapis.com/css2?family=Open+Sans:wght@400;600&display=swap");
      @import url("https://fonts.googleapis.com/css2?family=Georgia:ital@0;1&display=swap");
      .text-content { font-family: inherit; }
    </style>
  </defs>
  <!-- Vectorized elements -->
  <g id="vectorized-content">
    
<path d="" fill="#595A59" transform="translate(0,0)"/>
<path d="" fill="#666565" transform="translate(0,0)"/>
<path d="" fill="#666666" transform="translate(0,0)"/>
<path d="" fill="#484B4A" transform="translate(0,0)"/>
<path d="" fill="#474846" transform="translate(0,0)"/>
<path d="" fill="#676767" transform="translate(0,0)"/>
<path d="" fill="#60605F" transform="translate(0,0)"/>
<path d="" fill="#50504F" transform="translate(0,0)"/>
<path d="" fill="#4F4F51" transform="translate(0,0)"/>
<path d="" fill="#666766" transform="translate(0,0)"/>
<path d="" fill="#565756" transform="translate(0,0)"/>
<path d="" fill="#4E4F4E" transform="translate(0,0)"/>
<path d="" fill="#545554" transform="translate(0,0)"/>
<path d="" fill="#525151" transform="translate(0,0)"/>
<path d="" fill="#575756" transform="translate(0,0)"/>
<path d="" fill="#636364" transform="translate(0,0)"/>
<path d="" fill="#6B6B69" transform="translate(0,0)"/>
<path d="" fill="#6B6D6C" transform="translate(0,0)"/>
<path d="" fill="#585858" transform="translate(0,0)"/>
<path d="" fill="#6E6E6B" transform="translate(0,0)"/>
<path d="" fill="#4D4E4E" transform="translate(0,0)"/>
<path d="" fill="#4A4B4A" transform="translate(0,0)"/>
<path d="" fill="#4F4E50" transform="translate(0,0)"/>
<path d="" fill="#575956" transform="translate(0,0)"/>
<path d="" fill="#6D6E6D" transform="translate(0,0)"/>
<path d="" fill="#6B6B6B" transform="translate(0,0)"/>
<path d="" fill="#515251" transform="translate(0,0)"/>
<path d="" fill="#525452" transform="translate(0,0)"/>
<path d="" fill="#595858" transform="translate(0,0)"/>
<path d="" fill="#717471" transform="translate(0,0)"/>
<path d="" fill="#707070" transform="translate(0,0)"/>
<path d="" fill="#747372" transform="translate(0,0)"/>
<path d="" fill="#5E5F5E" transform="translate(0,0)"/>
<path d="" fill="#777877" transform="translate(0,0)"/>
<path d="" fill="#4F4F50" transform="translate(0,0)"/>
<path d="" fill="#6A6869" transform="translate(0,0)"/>
<path d="" fill="#575856" transform="translate(0,0)"/>
<path d="" fill="#7C7B79" transform="translate(0,0)"/>
<path d="" fill="#7A7979" transform="translate(0,0)"/>
<path d="" fill="#797878" transform="translate(0,0)"/>
<path d="" fill="#767676" transform="translate(0,0)"/>
<path d="" fill="#818181" transform="translate(0,0)"/>
<path d="" fill="#828282" transform="translate(0,0)"/>
<path d="" fill="#7A7C7B" transform="translate(0,0)"/>
<path d="" fill="#656465" transform="translate(0,0)"/>
<path d="" fill="#737471" transform="translate(0,0)"/>
<path d="" fill="#808280" transform="translate(0,0)"/>
<path d="" fill="#5C5C5D" transform="translate(0,0)"/>
<path d="" fill="#5E5F5F" transform="translate(0,0)"/>
<path d="" fill="#525351" transform="translate(0,0)"/>
<path d="" fill="#5C5D5C" transform="translate(0,0)"/>
<path d="" fill="#838382" transform="translate(0,0)"/>
<path d="" fill="#777676" transform="translate(0,0)"/>
<path d="" fill="#838482" transform="translate(0,0)"/>
<path d="" fill="#595958" transform="translate(0,0)"/>
<path d="" fill="#5B5C5A" transform="translate(0,0)"/>
<path d="" fill="#848584" transform="translate(0,0)"/>
<path d="" fill="#838283" transform="translate(0,0)"/>
<path d="" fill="#7B7A7B" transform="translate(0,0)"/>
<path d="" fill="#747575" transform="translate(0,0)"/>
<path d="" fill="#828383" transform="translate(0,0)"/>
<path d="" fill="#848483" transform="translate(0,0)"/>
<path d="" fill="#5A5B5C" transform="translate(0,0)"/>
<path d="" fill="#797979" transform="translate(0,0)"/>
<path d="" fill="#818382" transform="translate(0,0)"/>
<path d="" fill="#585A58" transform="translate(0,0)"/>
<path d="" fill="#878785" transform="translate(0,0)"/>
<path d="" fill="#585757" transform="translate(0,0)"/>
<path d="" fill="#7F7E7F" transform="translate(0,0)"/>
<path d="" fill="#57585A" transform="translate(0,0)"/>
<path d="" fill="#686A69" transform="translate(0,0)"/>
<path d="" fill="#848483" transform="translate(0,0)"/>
<path d="" fill="#838484" transform="translate(0,0)"/>
<path d="" fill="#5C5D5D" transform="translate(0,0)"/>
<path d="" fill="#5C5B5C" transform="translate(0,0)"/>
<path d="" fill="#60605F" transform="translate(0,0)"/>
<path d="" fill="#737473" transform="translate(0,0)"/>
<path d="" fill="#848583" transform="translate(0,0)"/>
<path d="" fill="#616262" transform="translate(0,0)"/>
<path d="" fill="#575858" transform="translate(0,0)"/>
<path d="" fill="#6B6D6D" transform="translate(0,0)"/>
<path d="" fill="#838483" transform="translate(0,0)"/>
<path d="" fill="#626362" transform="translate(0,0)"/>
<path d="" fill="#585B5A" transform="translate(0,0)"/>
<path d="" fill="#818180" transform="translate(0,0)"/>
<path d="" fill="#595858" transform="translate(0,0)"/>
<path d="" fill="#838383" transform="translate(0,0)"/>
<path d="" fill="#5B5C5B" transform="translate(0,0)"/>
<path d="" fill="#828384" transform="translate(0,0)"/>
<path d="" fill="#828281" transform="translate(0,0)"/>
<path d="" fill="#5F6061" transform="translate(0,0)"/>
<path d="" fill="#5A5B59" transform="translate(0,0)"/>
<path d="" fill="#676868" transform="translate(0,0)"/>
<path d="" fill="#5B5E5D" transform="translate(0,0)"/>
<path d="" fill="#6A6C6D" transform="translate(0,0)"/>
<path d="" fill="#838483" transform="translate(0,0)"/>
<path d="" fill="#7F8080" transform="translate(0,0)"/>
<path d="" fill="#80817E" transform="translate(0,0)"/>
<path d="" fill="#5D5E5F" transform="translate(0,0)"/>
<path d="" fill="#5F6160" transform="translate(0,0)"/>
<path d="" fill="#737573" transform="translate(0,0)"/>
<path d="" fill="#80837F" transform="translate(0,0)"/>
<path d="" fill="#7C7F7D" transform="translate(0,0)"/>
<path d="" fill="#595759" transform="translate(0,0)"/>
<path d="" fill="#5B5B5A" transform="translate(0,0)"/>
<path d="" fill="#686869" transform="translate(0,0)"/>
<path d="" fill="#7E7E7E" transform="translate(0,0)"/>
<path d="" fill="#656667" transform="translate(0,0)"/>
<path d="" fill="#808280" transform="translate(0,0)"/>
<path d="" fill="#7E7E7E" transform="translate(0,0)"/>
<path d="" fill="#7E7F7E" transform="translate(0,0)"/>
<path d="" fill="#818181" transform="translate(0,0)"/>
<path d="" fill="#808282" transform="translate(0,0)"/>
<path d="" fill="#5C5D5E" transform="translate(0,0)"/>
<path d="" fill="#707372" transform="translate(0,0)"/>
<path d="" fill="#7E7F7E" transform="translate(0,0)"/>
<path d="" fill="#7E7F7E" transform="translate(0,0)"/>
<path d="" fill="#676868" transform="translate(0,0)"/>
<path d="" fill="#7B7C7B" transform="translate(0,0)"/>
<path d="" fill="#6C6D6C" transform="translate(0,0)"/>
<path d="" fill="#7C7C7D" transform="translate(0,0)"/>
<path d="" fill="#808281" transform="translate(0,0)"/>
<path d="" fill="#636463" transform="translate(0,0)"/>
<path d="" fill="#676868" transform="translate(0,0)"/>
<path d="" fill="#7C7B7B" transform="translate(0,0)"/>
<path d="" fill="#71726F" transform="translate(0,0)"/>
<path d="" fill="#5E5F5E" transform="translate(0,0)"/>
<path d="" fill="#7C7D7C" transform="translate(0,0)"/>
<path d="" fill="#5C5E5E" transform="translate(0,0)"/>
<path d="" fill="#7A7C7A" transform="translate(0,0)"/>
<path d="" fill="#7B7E7D" transform="translate(0,0)"/>
<path d="" fill="#7A7A7A" transform="translate(0,0)"/>
<path d="" fill="#78797A" transform="translate(0,0)"/>
<path d="" fill="#787878" transform="translate(0,0)"/>
<path d="" fill="#7A7A7A" transform="translate(0,0)"/>
<path d="" fill="#6D6F6F" transform="translate(0,0)"/>
<path d="" fill="#757775" transform="translate(0,0)"/>
<path d="" fill="#747575" transform="translate(0,0)"/>
<path d="" fill="#797877" transform="translate(0,0)"/>
<path d="" fill="#747374" transform="translate(0,0)"/>
<path d="" fill="#7C7C7B" transform="translate(0,0)"/>
<path d="" fill="#767675" transform="translate(0,0)"/>
<path d="" fill="#6E6D6F" transform="translate(0,0)"/>
<path d="" fill="#5E605F" transform="translate(0,0)"/>
<path d="" fill="#666868" transform="translate(0,0)"/>
<path d="" fill="#6D6E6F" transform="translate(0,0)"/>
<path d="" fill="#747574" transform="translate(0,0)"/>
<path d="" fill="#7A7979" transform="translate(0,0)"/>
<path d="" fill="#747374" transform="translate(0,0)"/>
<path d="" fill="#767977" transform="translate(0,0)"/>
<path d="" fill="#747672" transform="translate(0,0)"/>
<path d="" fill="#767877" transform="translate(0,0)"/>
<path d="" fill="#616362" transform="translate(0,0)"/>
<path d="" fill="#787977" transform="translate(0,0)"/>
<path d="" fill="#737474" transform="translate(0,0)"/>
<path d="" fill="#606260" transform="translate(0,0)"/>
<path d="" fill="#656466" transform="translate(0,0)"/>
<path d="" fill="#747573" transform="translate(0,0)"/>
<path d="" fill="#757574" transform="translate(0,0)"/>
<path d="" fill="#646564" transform="translate(0,0)"/>
<path d="" fill="#787878" transform="translate(0,0)"/>
<path d="" fill="#747674" transform="translate(0,0)"/>
<path d="" fill="#60625F" transform="translate(0,0)"/>
<path d="" fill="#747373" transform="translate(0,0)"/>
<path d="" fill="#747473" transform="translate(0,0)"/>
<path d="" fill="#6C6D6D" transform="translate(0,0)"/>
<path d="" fill="#727171" transform="translate(0,0)"/>
<path d="" fill="#767675" transform="translate(0,0)"/>
<path d="" fill="#727273" transform="translate(0,0)"/>
<path d="" fill="#727172" transform="translate(0,0)"/>
<path d="" fill="#747272" transform="translate(0,0)"/>
<path d="" fill="#737372" transform="translate(0,0)"/>
<path d="" fill="#5D5E5D" transform="translate(0,0)"/>
<path d="" fill="#616362" transform="translate(0,0)"/>
<path d="" fill="#737473" transform="translate(0,0)"/>
<path d="" fill="#727271" transform="translate(0,0)"/>
<path d="" fill="#727171" transform="translate(0,0)"/>
<path d="" fill="#6F6F70" transform="translate(0,0)"/>
<path d="" fill="#737373" transform="translate(0,0)"/>
<path d="" fill="#717270" transform="translate(0,0)"/>
<path d="" fill="#727170" transform="translate(0,0)"/>
<path d="" fill="#656566" transform="translate(0,0)"/>
<path d="" fill="#707072" transform="translate(0,0)"/>
<path d="" fill="#717171" transform="translate(0,0)"/>
<path d="" fill="#727170" transform="translate(0,0)"/>
<path d="" fill="#696B6A" transform="translate(0,0)"/>
<path d="" fill="#707170" transform="translate(0,0)"/>
<path d="" fill="#5F5F5F" transform="translate(0,0)"/>
<path d="" fill="#707270" transform="translate(0,0)"/>
<path d="" fill="#70726F" transform="translate(0,0)"/>
<path d="" fill="#717172" transform="translate(0,0)"/>
<path d="" fill="#6E6F6F" transform="translate(0,0)"/>
<path d="" fill="#6D6E6D" transform="translate(0,0)"/>
<path d="" fill="#707070" transform="translate(0,0)"/>
<path d="" fill="#676668" transform="translate(0,0)"/>
<path d="" fill="#717272" transform="translate(0,0)"/>
<path d="" fill="#727172" transform="translate(0,0)"/>
<path d="" fill="#717370" transform="translate(0,0)"/>
<path d="" fill="#727270" transform="translate(0,0)"/>
<path d="" fill="#636263" transform="translate(0,0)"/>
<path d="" fill="#5D5D5E" transform="translate(0,0)"/>
<path d="" fill="#717172" transform="translate(0,0)"/>
<path d="" fill="#727373" transform="translate(0,0)"/>
<path d="" fill="#5B5B5B" transform="translate(0,0)"/>
<path d="" fill="#727271" transform="translate(0,0)"/>
<path d="" fill="#5F6160" transform="translate(0,0)"/>
<path d="" fill="#505150" transform="translate(0,0)"/>
<path d="" fill="#717171" transform="translate(0,0)"/>
<path d="" fill="#737272" transform="translate(0,0)"/>
<path d="" fill="#636263" transform="translate(0,0)"/>
<path d="" fill="#6F6F6F" transform="translate(0,0)"/>
<path d="" fill="#494A49" transform="translate(0,0)"/>
<path d="" fill="#555555" transform="translate(0,0)"/>
<path d="" fill="#4A4948" transform="translate(0,0)"/>
<path d="" fill="#646764" transform="translate(0,0)"/>
<path d="" fill="#6B6C6B" transform="translate(0,0)"/>
<path d="" fill="#6C6D6C" transform="translate(0,0)"/>
<path d="" fill="#5C5C5D" transform="translate(0,0)"/>
<path d="" fill="#5D5D5F" transform="translate(0,0)"/>
<path d="" fill="#6C6E6D" transform="translate(0,0)"/>
<path d="" fill="#454748" transform="translate(0,0)"/>
<path d="" fill="#6B6B6B" transform="translate(0,0)"/>
<path d="" fill="#50504F" transform="translate(0,0)"/>
<path d="" fill="#474848" transform="translate(0,0)"/>
<path d="" fill="#6B6B6B" transform="translate(0,0)"/>
<path d="" fill="#464646" transform="translate(0,0)"/>
<path d="" fill="#696A6A" transform="translate(0,0)"/>
<path d="" fill="#636563" transform="translate(0,0)"/>
<path d="" fill="#676767" transform="translate(0,0)"/>
<path d="" fill="#676866" transform="translate(0,0)"/>
<path d="" fill="#4D4D4E" transform="translate(0,0)"/>
<path d="" fill="#4B4D4C" transform="translate(0,0)"/>
<path d="" fill="#656666" transform="translate(0,0)"/>
<path d="" fill="#6B6B6A" transform="translate(0,0)"/>

  </g>
  <!-- Text elements -->
  <g id="text-content" class="text-content">
    <text
                x="95"
                y="110.4"
                font-family="Arial Black, Arial, sans-serif"
                font-size="72px"
                font-weight="bold"
                font-style="normal"
                fill="#2196F3"
                text-anchor="middle"
                dominant-baseline="auto">
                COMING
            </text>
<text
                x="95"
                y="189.0"
                font-family="Arial Black, Arial, sans-serif"
                font-size="70px"
                font-weight="bold"
                font-style="normal"
                fill="#2196F3"
                text-anchor="middle"
                dominant-baseline="auto">
                SOON
            </text>
<text
                x="105"
                y="259.4"
                font-family="Arial Black, Arial, sans-serif"
                font-size="42px"
                font-weight="bold"
                font-style="normal"
                fill="#FFFFFF"
                text-anchor="middle"
                dominant-baseline="auto">
                STAY TUNED
            </text>
<text
                x="125"
                y="315.2"
                font-family="Arial, sans-serif"
                font-size="36px"
                font-weight="normal"
                font-style="normal"
                fill="#FFFFFF"
                text-anchor="middle"
                dominant-baseline="auto">
                JUNE 2024
            </text>
<text
                x="105"
                y="381.0"
                font-family="Arial, sans-serif"
                font-size="30px"
                font-weight="normal"
                font-style="normal"
                fill="#FFFFFF"
                text-anchor="middle"
                dominant-baseline="auto">
                VISIT OUR WEBSITE
            </text>
  </g>
</svg>