<?xml version="1.0" ?><svg xmlns="http://www.w3.org/2000/svg" width="1080" height="1080" viewBox="0 0 1080 1080" fill="none" preserveAspectRatio="xMidYMid meet">
  <defs>
    <radialGradient id="bgGrad" cx="0.5" cy="0.5" r="0.5">
      <stop offset="0%" stop-color="#be9a6c"/>
      <stop offset="55%" stop-color="#4d3b28"/>
      <stop offset="100%" stop-color="#0a0702"/>
    </radialGradient>
    <filter id="glowRed" x="-50%" y="-50%" width="200%" height="200%" color-interpolation-filters="sRGB">
      <feDropShadow dx="0" dy="0" stdDeviation="8" flood-color="#a82529" flood-opacity="0.85"/>
    </filter>
    <filter id="textGlow" x="-50%" y="-50%" width="200%" height="200%" color-interpolation-filters="sRGB">
      <feDropShadow dx="0" dy="0" stdDeviation="4" flood-color="#cc8963" flood-opacity="0.6"/>
    </filter>
    <filter id="cherryShadow" x="-20" y="-20" width="140" height="140" color-interpolation-filters="sRGB">
      <feDropShadow dx="0" dy="4" stdDeviation="3" flood-color="#6f1619" flood-opacity="0.6"/>
    </filter>
  </defs>
  <rect width="1080" height="1080" fill="url(#bgGrad)"/>
  <g id="cheesecake">
    <path fill="#a76440" d="M280 660 720 640 730 748 270 768z"/>
    <path fill="#f6e9cd" stroke="#a88f70" stroke-width="1.7" d="M297 458 716 463 717 743 300 748z"/>
    <path fill="#f6e9cd" d="M297 458c-8-0.2-17 0.9-24 6-10 8-11 7-12 12-2 10-1 7-1 16v231l238 14v-288l-100-34z"/>
    <path fill="#c2463b" filter="url(#glowRed)" d="M560 500c23-10 58 2 85 12 12 5 53 26 68 34 4 2 8 5 12 7-7 4-14 3-18 12-7 17 3 20-17 20-20 0-27 0-45-17-20-20-29-29-52-31-19-2-24-5-35-9z"/>
    <path fill="#cb2832" filter="url(#cherryShadow)" d="M560 490c30-20 52-35 92-15 17 10 24 27 43 37 9 4 16 5 26 8-18-2-22 23-32 27-11 5-17 7-28 2-28-13-39-27-62-33-10-3-19-6-27-12z"/>
    <path fill="#d4383a" stroke="#f15e5c" stroke-width=".7" d="M610 493c11-7 39-6 53 10 12 14 22 32 27 40-21-16-61-38-80-38-5 0-8 0-5-12z"/>
    <path fill="#d33132" d="M637 523c24-2 32 5 53 15a83 83 0 0 1 20 15c-19-17-55-26-72-27-5-1-6-4-1-3z"/>
    <path fill="#b32a2c" d="M644 505c5 0 12 4 16 6s13 11 18 14c-10-12-39-22-44-20-4 2-3 3 10 0z"/>
    <path fill="#d34241" d="M596 506c6-5 12-10 21-9 8 1 16 8 18 12-14-6-23-6-32-3-5 2-10 3-7 0z"/>
  </g>
  <g id="steaming" stroke="#6b5e4d" stroke-width="2" stroke-linecap="round" stroke-linejoin="round" fill="none" filter="url(#textGlow)">
    <path d="M575 380c8-20 7-48-2-65"/>
    <path d="M687 340c-6 13-10 34-5 44"/>
    <path d="M740 412c-5 15-14 31-16 34"/>
  </g>
  <g id="text" font-family="Georgia, serif" text-anchor="middle" style="font-weight:600">
    <text x="540" y="860" fill="#e4d6aa" font-size="72" filter="url(#textGlow)" letter-spacing="2" stroke="#8d7854" stroke-width="1">CLASSIC NEW YORK</text>
    <text x="540" y="948" fill="#9c222a" font-size="140" font-weight="bold" filter="url(#glowRed)" letter-spacing="-2" stroke="#61171b" stroke-width="2">
      CHEESECAKE
    </text>
    <text x="540" y="1020" fill="#715850" font-family="Courier New, monospace" font-size="22" letter-spacing="1" opacity="0.18" style="filter:url(#textGlow)">
      W i r p   f i v   n i d e s s   r r e w d   S b r i n c l e   w e y   a n d ,   l l i r n   w u y .
    </text>
  </g>
</svg>