<?xml version="1.0" encoding="UTF-8" standalone="no"?>
<svg xmlns="http://www.w3.org/2000/svg" xmlns:xlink="http://www.w3.org/1999/xlink" viewBox="0 0 1080 1080" width="1024" height="1024" style="enable-background:new 0 0 1024 1024;">
  <defs>
    <style type="text/css">
      @import url("https://fonts.googleapis.com/css2?family=Montserrat:wght@400;700&display=swap");
      @import url("https://fonts.googleapis.com/css2?family=Open+Sans:wght@400;600&display=swap");
      @import url("https://fonts.googleapis.com/css2?family=Georgia:ital@0;1&display=swap");
      @import url("https://fonts.googleapis.com/css2?family=Roboto:wght@300;400;500;700&display=swap");
      @import url("https://fonts.googleapis.com/css2?family=Lato:wght@400;700&display=swap");
      .text-content { font-family: inherit; }
    </style>
  </defs>
  <!-- Vectorized elements -->
  <g id="vectorized-content">
    
<path d="M0 0 C337.92 0 675.84 0 1024 0 C1024 337.92 1024 675.84 1024 1024 C686.08 1024 348.16 1024 0 1024 C0 686.08 0 348.16 0 0 Z " fill="#000000" transform="translate(0,0)"/>
<path d="M0 0 C158.73 0 317.46 0 481 0 C481 67.98 481 135.96 481 206 C322.27 206 163.54 206 0 206 C0 138.02 0 70.04 0 0 Z " fill="#E5AC84" transform="translate(251,138)"/>
<path d="M0 0 C213.18 0 426.36 0 646 0 C646.33 50.16 646.66 100.32 647 152 C433.49 152 219.98 152 0 152 C0 101.84 0 51.68 0 0 Z " fill="#DDA47A" transform="translate(164,394)"/>
<path d="M0 0 C96.36 0 192.72 0 292 0 C292 30.03 292 60.06 292 91 C195.64 91 99.28 91 0 91 C0 60.97 0 30.94 0 0 Z " fill="#CFBFAE" transform="translate(328,650)"/>
<path d="M0 0 C20.46 0 40.92 0 62 0 C62 0.33 62 0.66 62 1 C48.80070818 1.97703178 35.66868811 2.12136452 22.4375 2.0625 C20.44336051 2.0574688 18.44921978 2.05290879 16.45507812 2.04882812 C11.63668716 2.03796501 6.81835793 2.02079222 2 2 C1.95745644 3.99954746 1.95919217 6.00041636 2 8 C2.33 8.33 2.66 8.66 3 9 C2.90982004 11.19050021 2.75333792 13.378466 2.5625 15.5625 C2.40974609 17.35880859 2.40974609 17.35880859 2.25390625 19.19140625 C2.17011719 20.11824219 2.08632812 21.04507812 2 22 C1.67 22 1.34 22 1 22 C-0.01960657 14.48040153 0 7.76083877 0 0 Z " fill="#B8A58F" transform="translate(165,395)"/>
<path d="M0 0 C0.33 0 0.66 0 1 0 C1 2.64 1 5.28 1 8 C-3.95 8 -8.9 8 -14 8 C-14 7.67 -14 7.34 -14 7 C-8.06 6.505 -8.06 6.505 -2 6 C-1.34 4.02 -0.68 2.04 0 0 Z " fill="#E0D2C2" transform="translate(618,732)"/>

  </g>
  <!-- Text elements with precise positioning -->
  <g id="text-content" class="text-content">
    <text
                x="400.0"
                y="162.2"
                font-family="Montserrat, sans-serif"
                font-size="64px"
                font-weight="bold"
                font-style="normal"
                fill="#FF6600"
                text-anchor="middle"
                dominant-baseline="auto"
                data-original-x="246"
                data-original-y="111"
                data-original-width="308"
                data-original-height="70"
                data-text-type="title">
                COMING
            </text>
<text
                x="399.5"
                y="230.2"
                font-family="Montserrat, sans-serif"
                font-size="64px"
                font-weight="bold"
                font-style="normal"
                fill="#FF6600"
                text-anchor="middle"
                dominant-baseline="auto"
                data-original-x="266"
                data-original-y="179"
                data-original-width="267"
                data-original-height="67"
                data-text-type="title">
                SOON
            </text>
<text
                x="364.5"
                y="307.6"
                font-family="Arial, sans-serif"
                font-size="32px"
                font-weight="normal"
                font-style="normal"
                fill="#14304B"
                text-anchor="middle"
                dominant-baseline="auto"
                data-original-x="186"
                data-original-y="282"
                data-original-width="357"
                data-original-height="44"
                data-text-type="body">
                Stov funed fo’
            </text>
<text
                x="366.5"
                y="357.6"
                font-family="Arial, sans-serif"
                font-size="32px"
                font-weight="normal"
                font-style="normal"
                fill="#14304B"
                text-anchor="middle"
                dominant-baseline="auto"
                data-original-x="168"
                data-original-y="332"
                data-original-width="397"
                data-original-height="44"
                data-text-type="body">
                morehifonmation,
            </text>
<text
                x="370.5"
                y="409.6"
                font-family="Arial, sans-serif"
                font-size="32px"
                font-weight="normal"
                font-style="normal"
                fill="#14304B"
                text-anchor="middle"
                dominant-baseline="auto"
                data-original-x="252"
                data-original-y="384"
                data-original-width="237"
                data-original-height="44"
                data-text-type="body">
                June 1 2084
            </text>
<text
                x="371.5"
                y="485.6"
                font-family="Arial, sans-serif"
                font-size="32px"
                font-weight="bold"
                font-style="normal"
                fill="#14304B"
                text-anchor="middle"
                dominant-baseline="auto"
                data-original-x="295"
                data-original-y="460"
                data-original-width="153"
                data-original-height="44"
                data-text-type="name">
                LOGO
            </text>
  </g>
</svg>