<?xml version="1.0" encoding="UTF-8" standalone="no"?>
<svg xmlns="http://www.w3.org/2000/svg" xmlns:xlink="http://www.w3.org/1999/xlink" viewBox="0 0 1080 1080" width="1024" height="1024" style="enable-background:new 0 0 1024 1024;">
  <defs>
    <style type="text/css">
      @import url("https://fonts.googleapis.com/css2?family=Montserrat:wght@400;700&display=swap");
      @import url("https://fonts.googleapis.com/css2?family=Open+Sans:wght@400;600&display=swap");
      @import url("https://fonts.googleapis.com/css2?family=Georgia:ital@0;1&display=swap");
      @import url("https://fonts.googleapis.com/css2?family=Roboto:wght@300;400;500;700&display=swap");
      @import url("https://fonts.googleapis.com/css2?family=Lato:wght@400;700&display=swap");
      .text-content { font-family: inherit; }
    </style>
  </defs>
  <!-- Vectorized elements -->
  <g id="vectorized-content">
    
<path d="M0 0 C337.92 0 675.84 0 1024 0 C1024 337.92 1024 675.84 1024 1024 C686.08 1024 348.16 1024 0 1024 C0 686.08 0 348.16 0 0 Z " fill="#FCE9DC" transform="translate(0,0)"/>
<path d="M0 0 C166.84455061 -0.04037864 166.84455061 -0.04037864 231.58844519 -0.04816496 C248.50906696 -0.05020511 265.42968873 -0.05229245 282.35031047 -0.05452599 C284.39566331 -0.05479586 286.44101615 -0.05506423 288.48636898 -0.05533109 C320.79077593 -0.05955816 353.09518107 -0.06703103 385.39958693 -0.07629722 C418.74706914 -0.08584468 452.09455035 -0.09191147 485.4420339 -0.09391499 C490.20893233 -0.09420293 494.97583076 -0.09452856 499.74272919 -0.09487724 C500.68044366 -0.09494467 501.61815814 -0.09501209 502.5842882 -0.09508156 C517.36274391 -0.09623935 532.14119644 -0.1008097 546.91965088 -0.10683203 C561.96842332 -0.11288524 577.01719279 -0.11492857 592.0659664 -0.11350138 C599.3016797 -0.11290145 606.53738924 -0.11237463 613.77310118 -0.11746839 C678.52142057 -0.16208926 743.24926837 0.47781668 808 1 C808 162.37 808 323.74 808 490 C541.36 490 274.72 490 0 490 C0 328.3 0 166.6 0 0 Z " fill="#FEF2E7" transform="translate(108,513)"/>
<path d="M0 0 C337.92 0 675.84 0 1024 0 C1024 337.92 1024 675.84 1024 1024 C686.08 1024 348.16 1024 0 1024 C0 686.08 0 348.16 0 0 Z M108 25 C108 183.4 108 341.8 108 505 C374.64 505 641.28 505 916 505 C916 346.6 916 188.2 916 25 C649.36 25 382.72 25 108 25 Z M108 513 C108 674.7 108 836.4 108 1003 C374.64 1003 641.28 1003 916 1003 C916 841.63 916 680.26 916 514 C817.88906556 513.15517347 817.88906556 513.15517347 719.78045797 512.88393438 C712.34402511 512.88855175 704.9075913 512.88695779 697.47115744 512.88625254 C682.38592357 512.88497787 667.30069427 512.8881226 652.21546173 512.89426994 C637.39121731 512.90029472 622.56697482 512.90405687 607.74272919 512.90512276 C606.8029917 512.9051915 605.86325422 512.90526024 604.89503985 512.90533106 C600.11796 512.90566963 595.34088015 512.90597093 590.56380031 512.90625793 C557.17892549 512.90832972 523.79405313 512.91498444 490.40917969 512.92456055 C458.08105481 512.93382248 425.75293063 512.94085045 393.42480469 512.94506836 C391.37355177 512.945339 389.32229884 512.9456097 387.27104592 512.94588047 C370.5899084 512.9480709 353.90877087 512.95011283 337.22763333 512.95211896 C260.81841988 512.961414 184.4092129 512.98150793 108 513 Z " fill="#000000" transform="translate(0,0)"/>
<path d="M0 0 C0.33 0 0.66 0 1 0 C1 100.65 1 201.3 1 305 C-265.64 305 -532.28 305 -807 305 C-807 265.4 -807 225.8 -807 185 C-806.67 185 -806.34 185 -806 185 C-805.10960913 204.29022357 -804.88993003 223.56605391 -804.875 242.875 C-804.87250244 243.97072327 -804.87000488 245.06644653 -804.86743164 246.19537354 C-804.83203683 265.1581417 -805.42516922 284.03058421 -806 303 C-777.62 303 -749.24 303 -720 303 C-723.63 290.13 -727.26 277.26 -731 264 C-737.0692371 241.33639311 -737.0692371 241.33639311 -739.02148438 233.78198242 C-739.66294087 231.30274028 -740.31492215 228.82619213 -740.97851562 226.3527832 C-743.91707514 215.13024987 -746.00782869 203.78259923 -748.03710938 192.36450195 C-748.62361083 189.07030254 -749.22137364 185.77828627 -749.8203125 182.48632812 C-751.64410536 172.36225172 -753.37990801 162.27014676 -754.42398071 152.03199768 C-754.71602299 149.17958379 -755.08817717 146.73546848 -756 144 C-756.33737681 141.58791172 -756.63649088 139.18569106 -756.90234375 136.765625 C-756.98442581 136.03287354 -757.06650787 135.30012207 -757.15107727 134.54516602 C-757.41955231 132.11408211 -757.68004828 129.68227542 -757.9375 127.25 C-758.0264856 126.40932983 -758.11547119 125.56865967 -758.20715332 124.70251465 C-761.39394584 94.17404943 -762.3891443 63.67953789 -762 33 C-761.67 33 -761.34 33 -761 33 C-760.93268677 34.72271118 -760.93268677 34.72271118 -760.86401367 36.48022461 C-759.06285571 81.97857528 -755.94063042 126.729121 -748.5 171.6875 C-748.35647095 172.55543182 -748.21294189 173.42336365 -748.06506348 174.31759644 C-744.89980217 193.34374617 -741.15160764 212.17044115 -736.4375 230.875 C-736.22745331 231.71453217 -736.01740662 232.55406433 -735.80099487 233.41903687 C-731.54381521 250.39541395 -726.7705129 267.21276164 -721.7616272 283.98143005 C-720.08038663 289.63379919 -718.55325829 295.3047196 -717 301 C-480.72 301.33 -244.44 301.66 -1 302 C-0.67 202.34 -0.34 102.68 0 0 Z " fill="#D5D3D0" transform="translate(915,698)"/>
<path d="M0 0 C0.33 0 0.66 0 1 0 C1.04487549 1.14847412 1.08975098 2.29694824 1.13598633 3.48022461 C2.93714429 48.97857528 6.05936958 93.729121 13.5 138.6875 C13.64352905 139.55543182 13.78705811 140.42336365 13.93493652 141.31759644 C17.10019783 160.34374617 20.84839236 179.17044115 25.5625 197.875 C25.77254669 198.71453217 25.98259338 199.55406433 26.19900513 200.41903687 C30.45618479 217.39541395 35.2294871 234.21276164 40.2383728 250.98143005 C41.91961337 256.63379919 43.44674171 262.3047196 45 268 C281.28 268.33 517.56 268.66 761 269 C761 269.33 761 269.66 761 270 C523.73 270 286.46 270 42 270 C28.46439983 222.01014484 28.46439983 222.01014484 22.97851562 200.78198242 C22.33705913 198.30274028 21.68507785 195.82619213 21.02148438 193.3527832 C18.08292486 182.13024987 15.99217131 170.78259923 13.96289062 159.36450195 C13.37638917 156.07030254 12.77862636 152.77828627 12.1796875 149.48632812 C10.35589464 139.36225172 8.62009199 129.27014676 7.57601929 119.03199768 C7.28397701 116.17958379 6.91182283 113.73546848 6 111 C5.66262319 108.58791172 5.36350912 106.18569106 5.09765625 103.765625 C5.01557419 103.03287354 4.93349213 102.30012207 4.84892273 101.54516602 C4.58044769 99.11408211 4.31995172 96.68227542 4.0625 94.25 C3.9735144 93.40932983 3.88452881 92.56865967 3.79284668 91.70251465 C0.60605416 61.17404943 -0.3891443 30.67953789 0 0 Z " fill="#F1E9DE" transform="translate(153,731)"/>
<path d="M0 0 C0.33 0 0.66 0 1 0 C1.76913356 39.08752035 2.14597038 78.15386049 2.10353777 117.24998702 C2.0961327 124.27135403 2.094866 131.29271927 2.09374207 138.31408962 C2.09159152 150.8198295 2.08504447 163.3255626 2.07543945 175.83129883 C2.06615869 187.92797819 2.05914274 200.02465566 2.05493164 212.12133789 C2.05466364 212.88350583 2.05439565 213.64567377 2.05411953 214.43093771 C2.05203824 220.39787782 2.05008197 226.36481797 2.04816496 232.33175814 C2.0388521 261.22117834 2.01870672 290.1105814 2 319 C-61.69 319 -125.38 319 -191 319 C-191 318.67 -191 318.34 -191 318 C-127.97 318 -64.94 318 0 318 C-0.33 307.44 -0.66 296.88 -1 286 C-1.08570807 276.95262329 -1.14191693 267.91033415 -1.1328125 258.86328125 C-1.13349087 256.39365123 -1.13446524 253.92402128 -1.13571167 251.45439148 C-1.13716729 246.32627718 -1.13510671 241.19818056 -1.13037109 236.07006836 C-1.12471362 229.6460077 -1.12801769 223.22198893 -1.13383865 216.79792976 C-1.15375205 190.41696833 -1.06090796 164.05486147 -0.26150513 137.68415833 C-0.23703938 136.8112723 -0.21257362 135.93838627 -0.18736649 135.03904915 C-0.14225667 133.44367251 -0.09228514 131.8484209 -0.03596115 130.2534008 C0.07935614 126.08779869 -0.21781366 122.21258652 -0.79966736 118.07209301 C-1.17578984 114.18175957 -0.82417568 110.31792904 -0.56860352 106.42700195 C0.07418549 95.00026914 0.12826469 83.60977633 0.09765625 72.16796875 C0.09578445 70.06805963 0.09436417 67.96815007 0.09336853 65.86824036 C0.0896032 60.41869844 0.07982627 54.96918443 0.06866455 49.51965332 C0.05831955 43.92781959 0.05384326 38.33598123 0.04882812 32.74414062 C0.03819677 21.82941502 0.0211951 10.91470986 0 0 Z " fill="#FCC4B2" transform="translate(914,185)"/>
<path d="M0 0 C112.2 0 224.4 0 340 0 C338.35 1.32 336.7 2.64 335 4 C333.91912109 4.86818359 333.91912109 4.86818359 332.81640625 5.75390625 C331.70072266 6.64916016 331.70072266 6.64916016 330.5625 7.5625 C329.69367188 8.25988281 328.82484375 8.95726562 327.9296875 9.67578125 C325.86267971 11.31560743 323.78830981 12.93720766 321.6953125 14.54296875 C314.41986279 20.14458416 307.5571378 26.01127504 300.875 32.30859375 C298.66567823 34.37683111 296.43744922 36.36386283 294.125 38.3125 C291.39856008 40.70602076 288.79154562 43.16927476 286.25 45.7578125 C285.57308105 46.44190186 284.89616211 47.12599121 284.19873047 47.83081055 C282.82814497 49.22317954 281.4624789 50.62041005 280.10205078 52.02270508 C279.15821533 52.98406372 279.15821533 52.98406372 278.1953125 53.96484375 C277.34477295 54.84064087 277.34477295 54.84064087 276.47705078 55.73413086 C275 57 275 57 273 57 C272.74565186 57.58104492 272.49130371 58.16208984 272.22924805 58.76074219 C270.86726505 61.24179642 269.3568556 62.85518103 267.33203125 64.828125 C266.60306641 65.54613281 265.87410156 66.26414062 265.12304688 67.00390625 C264.36056641 67.74511719 263.59808594 68.48632812 262.8125 69.25 C257.8555239 74.09089774 253.04972194 78.93754345 248.61206055 84.26464844 C246.89070825 86.11765043 245.06167575 87.54259406 243 89 C244.65041273 84.90855765 247.57074117 82.02027837 250.5625 78.875 C251.56461792 77.81066339 252.56589423 76.74553385 253.56640625 75.6796875 C254.10934326 75.1029126 254.65228027 74.5261377 255.21166992 73.93188477 C257.22265418 71.75947269 259.18355499 69.54621142 261.1484375 67.33203125 C266.08606239 61.83157637 271.25777679 56.59057239 276.4934082 51.3762207 C278.06774155 49.8072764 279.63661589 48.23301442 281.20507812 46.65820312 C286.6318789 41.2278251 292.15514575 35.98225927 298 31 C299.60768373 29.54554483 301.21239715 28.08779105 302.8125 26.625 C312.47519649 17.91827805 322.77165502 10.03655677 333 2 C223.11 1.67 113.22 1.34 0 1 C0 0.67 0 0.34 0 0 Z " fill="#E1D6C9" transform="translate(109,26)"/>
<path d="M0 0 C0.33 0 0.66 0 1 0 C1.04487549 1.14847412 1.08975098 2.29694824 1.13598633 3.48022461 C2.93714429 48.97857528 6.05936958 93.729121 13.5 138.6875 C13.64352905 139.55543182 13.78705811 140.42336365 13.93493652 141.31759644 C17.10021745 160.34386412 20.84937204 179.17011705 25.5625 197.875 C25.77254669 198.71519684 25.98259338 199.55539368 26.19900513 200.42105103 C29.89565815 215.17569263 33.98926565 229.7997274 38.33227539 244.37646484 C40.85639667 252.86899443 43.14490265 261.33056853 45 270 C44.01 270 43.02 270 42 270 C36.55141499 250.89082576 31.13458254 231.7756269 26.0625 212.5625 C25.88381378 211.88672913 25.70512756 211.21095825 25.52102661 210.51470947 C24.6650313 207.27257206 23.81751762 204.02858224 22.97851562 200.78198242 C22.33705913 198.30274028 21.68507785 195.82619213 21.02148438 193.3527832 C18.08292486 182.13024987 15.99217131 170.78259923 13.96289062 159.36450195 C13.37638917 156.07030254 12.77862636 152.77828627 12.1796875 149.48632812 C10.35589464 139.36225172 8.62009199 129.27014676 7.57601929 119.03199768 C7.28397701 116.17958379 6.91182283 113.73546848 6 111 C5.66262319 108.58791172 5.36350912 106.18569106 5.09765625 103.765625 C5.01557419 103.03287354 4.93349213 102.30012207 4.84892273 101.54516602 C4.58044769 99.11408211 4.31995172 96.68227542 4.0625 94.25 C3.9735144 93.40932983 3.88452881 92.56865967 3.79284668 91.70251465 C0.60605416 61.17404943 -0.3891443 30.67953789 0 0 Z " fill="#DAD8D3" transform="translate(153,731)"/>
<path d="M0 0 C0.33 0 0.66 0 1 0 C1.76913356 39.08752035 2.14597038 78.15386049 2.10353777 117.24998702 C2.0961327 124.27135403 2.094866 131.29271927 2.09374207 138.31408962 C2.09159152 150.8198295 2.08504447 163.3255626 2.07543945 175.83129883 C2.06615869 187.92797819 2.05913119 200.02465566 2.05493164 212.12133789 C2.05466892 212.87595662 2.05440619 213.63057534 2.05413551 214.4080613 C2.0528298 218.19644298 2.05156625 221.98482466 2.05032361 225.77320635 C2.04007649 256.84880916 2.02249451 287.92440352 2 319 C1.67 319 1.34 319 1 319 C0.99576806 318.00239655 0.99153612 317.00479309 0.98717594 315.97695923 C0.88396127 291.69793565 0.77521007 267.41894169 0.66066074 243.13996887 C0.60539352 231.39882389 0.55192225 219.65767586 0.50268555 207.91650391 C0.45976402 197.68236217 0.41346605 187.44824222 0.36312145 177.21413422 C0.33658466 171.79577833 0.31173333 166.37742658 0.29092598 160.95904541 C0.27128023 155.85705183 0.24711313 150.75509947 0.21950912 145.65314293 C0.2101806 143.78271931 0.20249043 141.91228668 0.19658089 140.04184914 C0.18824792 137.48285136 0.17395198 134.92395171 0.15821838 132.36499023 C0.15675122 131.26184196 0.15675122 131.26184196 0.15525442 130.13640785 C0.12766533 126.63291465 -0.0541328 123.2377562 -0.51724243 119.76295757 C-0.89211238 116.8409532 -1.07794105 114.3403633 -0.88233948 111.4276886 C-0.81045992 110.22236245 -0.81045992 110.22236245 -0.73712826 108.99268627 C-0.68151509 108.14601045 -0.62590193 107.29933462 -0.56860352 106.42700195 C0.07418549 95.00026914 0.12826469 83.60977633 0.09765625 72.16796875 C0.09578445 70.06805963 0.09436417 67.96815007 0.09336853 65.86824036 C0.0896032 60.41869844 0.07982627 54.96918443 0.06866455 49.51965332 C0.05831955 43.92781959 0.05384326 38.33598123 0.04882812 32.74414062 C0.03819677 21.82941502 0.0211951 10.91470986 0 0 Z " fill="#FDD6C3" transform="translate(914,185)"/>
<path d="M0 0 C0.99 0.495 0.99 0.495 2 1 C2.8099094 3.51062353 3.49947825 5.97577449 4.13671875 8.53125 C4.3370723 9.30628876 4.53742584 10.08132751 4.74385071 10.87985229 C5.17460386 12.54927382 5.60172894 14.21963476 6.02563477 15.89080811 C7.1304814 20.2463124 8.26031534 24.59534346 9.38671875 28.9453125 C9.72121536 30.24174179 9.72121536 30.24174179 10.06246948 31.56436157 C12.20657346 39.85439228 14.49758287 48.09847274 16.8425293 56.33398438 C18.32187158 61.53683811 19.71992985 66.74432738 21 72 C20.01 72 19.02 72 18 72 C14.54450255 59.82080306 11.10648347 47.63678412 7.68713379 35.4473877 C7.05684751 33.2024757 6.42470804 30.95809536 5.79199219 28.71386719 C4.78906781 25.14519588 3.79825099 21.57344649 2.8125 18 C2.37635376 16.45723389 2.37635376 16.45723389 1.93139648 14.88330078 C0.53153301 9.75379796 -0.33245354 5.31925659 0 0 Z " fill="#D8D4CE" transform="translate(177,929)"/>
<path d="M0 0 C0.33 0 0.66 0 1 0 C1.0501123 1.22702637 1.10022461 2.45405273 1.15185547 3.71826172 C2.3098985 33.55317105 2.3098985 33.55317105 4.39013672 63.33349609 C5.62638989 77.49444042 5.62638989 77.49444042 4 84 C3.67 84 3.34 84 3 84 C0.65434517 55.94774365 -0.16292419 28.13324802 0 0 Z " fill="#E0DFDA" transform="translate(153,731)"/>
<path d="M0 0 C0.66 0.66 1.32 1.32 2 2 C0.37660195 3.70884005 -1.29319053 5.37446717 -3 7 C-3.66 7 -4.32 7 -5 7 C-5.25434814 7.58104492 -5.50869629 8.16208984 -5.77075195 8.76074219 C-7.13273495 11.24179642 -8.6431444 12.85518103 -10.66796875 14.828125 C-11.39693359 15.54613281 -12.12589844 16.26414062 -12.87695312 17.00390625 C-13.63943359 17.74511719 -14.40191406 18.48632812 -15.1875 19.25 C-20.1444761 24.09089774 -24.95027806 28.93754345 -29.38793945 34.26464844 C-31.10929175 36.11765043 -32.93832425 37.54259406 -35 39 C-33.3494651 34.9082548 -30.42845781 32.02096568 -27.4375 28.875 C-26.34184446 27.70759733 -25.24679703 26.53962363 -24.15234375 25.37109375 C-23.61335449 24.7972998 -23.07436523 24.22350586 -22.51904297 23.63232422 C-20.47391804 21.43468595 -18.48733937 19.18738695 -16.5 16.9375 C-11.23842213 11.05577299 -5.62075988 5.53516455 0 0 Z " fill="#E2DCD3" transform="translate(387,76)"/>
<path d="M0 0 C1.3293457 0.00483398 1.3293457 0.00483398 2.68554688 0.00976562 C4.05356445 0.02233398 4.05356445 0.02233398 5.44921875 0.03515625 C6.38056641 0.03966797 7.31191406 0.04417969 8.27148438 0.04882812 C10.55996248 0.06056391 12.84830683 0.07698262 15.13671875 0.09765625 C15.13671875 0.42765625 15.13671875 0.75765625 15.13671875 1.09765625 C12.09544058 1.4349069 9.05377684 1.76757957 6.01171875 2.09765625 C5.15578125 2.19304688 4.29984375 2.2884375 3.41796875 2.38671875 C-1.03350599 2.86610834 -5.3777005 3.21531083 -9.86328125 3.09765625 C-9.86328125 2.43765625 -9.86328125 1.77765625 -9.86328125 1.09765625 C-6.51236354 0.34402573 -3.43218313 -0.02214312 0 0 Z " fill="#FBEADC" transform="translate(703.86328125,512.90234375)"/>

  </g>
  <!-- Text elements with precise positioning -->
  <g id="text-content" class="text-content">
    <text
                x="290.0"
                y="237.6"
                font-family="Montserrat, sans-serif"
                font-size="72.0px"
                font-weight="bold"
                font-style="normal"
                fill="#FF6B6B"
                text-anchor="middle"
                dominant-baseline="auto"
                data-original-x="140.0"
                data-original-y="180.0"
                data-original-width="300.0"
                data-original-height="80.0"
                data-text-type="title">
                COMING
            </text>
<text
                x="290.0"
                y="317.6"
                font-family="Montserrat, sans-serif"
                font-size="72.0px"
                font-weight="bold"
                font-style="normal"
                fill="#FF6B6B"
                text-anchor="middle"
                dominant-baseline="auto"
                data-original-x="140.0"
                data-original-y="260.0"
                data-original-width="300.0"
                data-original-height="80.0"
                data-text-type="title">
                SOON
            </text>
<text
                x="290.0"
                y="378.8"
                font-family="Montserrat, sans-serif"
                font-size="36.0px"
                font-weight="bold"
                font-style="normal"
                fill="#5A6B7B"
                text-anchor="middle"
                dominant-baseline="auto"
                data-original-x="140.0"
                data-original-y="350.0"
                data-original-width="300.0"
                data-original-height="50.0"
                data-text-type="subtitle">
                STAY TUNED
            </text>
<text
                x="280.0"
                y="456.0"
                font-family="Montserrat, sans-serif"
                font-size="20.0px"
                font-weight="normal"
                font-style="normal"
                fill="#5A6B7B"
                text-anchor="middle"
                dominant-baseline="auto"
                data-original-x="140.0"
                data-original-y="440.0"
                data-original-width="280.0"
                data-original-height="30.0"
                data-text-type="body">
                imogteampia.com
            </text>
  </g>
</svg>