<?xml version="1.0" encoding="UTF-8" standalone="no"?>
<svg xmlns="http://www.w3.org/2000/svg" xmlns:xlink="http://www.w3.org/1999/xlink" viewBox="0 0 1080 1080" width="1024" height="1024" style="enable-background:new 0 0 1024 1024;">
  <defs>
    <style type="text/css">
      @import url("https://fonts.googleapis.com/css2?family=Montserrat:wght@400;700&display=swap");
      @import url("https://fonts.googleapis.com/css2?family=Open+Sans:wght@400;600&display=swap");
      @import url("https://fonts.googleapis.com/css2?family=Georgia:ital@0;1&display=swap");
      @import url("https://fonts.googleapis.com/css2?family=Roboto:wght@300;400;500;700&display=swap");
      @import url("https://fonts.googleapis.com/css2?family=Lato:wght@400;700&display=swap");
      .text-content { font-family: inherit; }
    </style>
  </defs>
  <!-- Vectorized elements -->
  <g id="vectorized-content">
    
<path d="M0 0 C337.92 0 675.84 0 1024 0 C1024 337.92 1024 675.84 1024 1024 C686.08 1024 348.16 1024 0 1024 C0 686.08 0 348.16 0 0 Z " fill="#443E3D" transform="translate(0,0)"/>
<path d="M0 0 C257.4 0 514.8 0 780 0 C780.64787767 6.47877665 781.14478622 12.62537781 781.12304783 19.0860157 C781.12420157 19.94711677 781.12535532 20.80821783 781.12654402 21.69541287 C781.12917768 24.56308528 781.12471654 27.43070088 781.12025452 30.29837036 C781.12069228 32.37675489 781.12156983 34.45513937 781.12284851 36.53352356 C781.12508838 42.24355781 781.12108222 47.95357326 781.11607273 53.66360512 C781.11170364 59.91617284 781.1131675 66.16873969 781.11389065 72.42130852 C781.1143618 83.17848898 781.11129398 93.935662 781.10557556 104.69284058 C781.097395 120.10894864 781.09547209 135.52505106 781.09460449 150.94116211 C781.08935442 188.00244258 781.0753933 225.0637214 781.0625 262.125 C781.041875 344.91375 781.02125 427.7025 781 513 C522.94 513 264.88 513 -1 513 C-1.0309375 388.26 -1.0309375 388.26 -1.0625 261 C-1.071604 234.70828125 -1.08070801 208.4165625 -1.09008789 181.328125 C-1.09460449 149.30859375 -1.09460449 149.30859375 -1.09544373 134.33544922 C-1.09643981 123.14973207 -1.10075715 111.96402112 -1.10667343 100.77830592 C-1.11262326 89.3752433 -1.11475886 77.97218565 -1.11344495 66.56912112 C-1.11284111 60.37873057 -1.11381535 54.18835142 -1.11921513 47.99796295 C-1.12406559 42.40346733 -1.12433366 36.80899121 -1.12090111 31.21449471 C-1.120476 29.18904393 -1.1217534 27.16359195 -1.12488258 25.13814354 C-1.12889067 22.38245681 -1.12673544 19.62684043 -1.12304783 16.87115479 C-1.12567485 16.08194177 -1.12830188 15.29272875 -1.13100851 14.47960019 C-1.12876121 13.73778084 -1.1265139 12.99596148 -1.1241985 12.23166275 C-1.12443247 11.28829193 -1.12443247 11.28829193 -1.12467116 10.32586312 C-0.93935008 6.86851605 -0.42944674 3.43557393 0 0 Z " fill="#F85252" transform="translate(123,0)"/>
<path d="M0 0 C40.59 0 81.18 0 123 0 C123 337.92 123 675.84 123 1024 C82.41 1024 41.82 1024 0 1024 C0 686.08 0 348.16 0 0 Z " fill="#000000" transform="translate(0,0)"/>
<path d="M0 0 C39.93 0 79.86 0 121 0 C121 337.92 121 675.84 121 1024 C81.07 1024 41.14 1024 0 1024 C0 686.08 0 348.16 0 0 Z " fill="#000000" transform="translate(903,0)"/>

  </g>
  <!-- Text elements with precise positioning -->
  <g id="text-content" class="text-content">
    <text
                x="404.0"
                y="100.4"
                font-family="Arial Black, sans-serif"
                font-size="88px"
                font-weight="bold"
                font-style="normal"
                fill="#FF4C4C"
                text-anchor="middle"
                dominant-baseline="auto"
                data-original-x="232"
                data-original-y="30"
                data-original-width="344"
                data-original-height="94"
                data-text-type="title">
                COMING
            </text>
<text
                x="410.0"
                y="196.4"
                font-family="Arial Black, sans-serif"
                font-size="88px"
                font-weight="bold"
                font-style="normal"
                fill="#FF4C4C"
                text-anchor="middle"
                dominant-baseline="auto"
                data-original-x="276"
                data-original-y="126"
                data-original-width="268"
                data-original-height="94"
                data-text-type="title">
                SOON
            </text>
<text
                x="204"
                y="271.6"
                font-family="Arial, sans-serif"
                font-size="32px"
                font-weight="normal"
                font-style="normal"
                fill="#5A5F63"
                text-anchor="start"
                dominant-baseline="auto"
                data-original-x="204"
                data-original-y="246"
                data-original-width="344"
                data-original-height="52"
                data-text-type="body">
                Juine, 80, 2024
            </text>
<text
                x="164"
                y="335.6"
                font-family="Arial, sans-serif"
                font-size="32px"
                font-weight="normal"
                font-style="normal"
                fill="#5A5F63"
                text-anchor="start"
                dominant-baseline="auto"
                data-original-x="164"
                data-original-y="310"
                data-original-width="376"
                data-original-height="52"
                data-text-type="body">
                Our new webaile.is on
            </text>
<text
                x="264"
                y="391.6"
                font-family="Arial, sans-serif"
                font-size="32px"
                font-weight="normal"
                font-style="normal"
                fill="#5A5F63"
                text-anchor="start"
                dominant-baseline="auto"
                data-original-x="264"
                data-original-y="366"
                data-original-width="148"
                data-original-height="52"
                data-text-type="body">
                15 wayl
            </text>
<text
                x="362.0"
                y="473.6"
                font-family="Arial Black, sans-serif"
                font-size="32px"
                font-weight="bold"
                font-style="normal"
                fill="#1E1E1E"
                text-anchor="middle"
                dominant-baseline="auto"
                data-original-x="214"
                data-original-y="448"
                data-original-width="296"
                data-original-height="54"
                data-text-type="button">
                NOTIFY ME
            </text>
  </g>
</svg>