<?xml version="1.0" encoding="UTF-8"?>
<!-- Generator: visioncortex VTracer 0.6.4 -->
<svg version="1.1" xmlns="http://www.w3.org/2000/svg" width="1024" height="1024">
<path d="M0 0 C337.92 0 675.84 0 1024 0 C1024 337.92 1024 675.84 1024 1024 C686.08 1024 348.16 1024 0 1024 C0 686.08 0 348.16 0 0 Z " fill="#171616" transform="translate(0,0)"/>
<path d="M0 0 C1.957 1.504 1.957 1.504 3.812 3.562 C6.227 6.204 8.693 8.621 11.418 10.934 C18.421 16.991 24.794 23.741 31.3 30.321 C40.126 39.289 40.126 39.289 49.505 47.669 C51.618 49.55 53.237 51.796 55 54 C57.117 55.312 57.117 55.312 59 56 C58.395 59.187 57.369 61.144 55.375 63.688 C54.837 64.378 54.3 65.069 53.746 65.781 C53.17 66.513 52.594 67.246 52 68 C51.413 68.773 50.827 69.547 50.223 70.344 C47.031 74.534 43.746 78.288 40 82 C38.137 84.014 36.284 86.034 34.438 88.062 C25.461 97.843 16.172 107.148 5.992 115.684 C5.355 116.221 4.719 116.759 4.062 117.312 C3.497 117.783 2.931 118.254 2.348 118.738 C0.866 119.98 0.866 119.98 0 122 C-0.66 122 -1.32 122 -2 122 C-2.227 122.557 -2.454 123.114 -2.688 123.688 C-4.376 126.662 -6.467 128.72 -9 131 C-9.66 131 -10.32 131 -11 131 C-11.33 131.99 -11.66 132.98 -12 134 C-16.523 132.537 -19.413 130.064 -23 127 C-24.16 126.331 -24.16 126.331 -25.344 125.648 C-28.413 123.743 -30.861 121.527 -33.5 119.062 C-36.223 116.527 -38.896 114.08 -41.844 111.809 C-42.911 110.913 -42.911 110.913 -44 110 C-44 109.34 -44 108.68 -44 108 C-44.543 107.772 -45.085 107.544 -45.645 107.309 C-48.693 105.615 -51.141 103.414 -53.688 101.062 C-54.214 100.578 -54.741 100.094 -55.284 99.595 C-59.6 95.541 -63.37 91.174 -67.02 86.508 C-68.782 84.276 -70.629 82.207 -72.562 80.125 C-75 77 -75 77 -75.333 74.528 C-74.936 71.514 -74.215 70.579 -72.105 68.434 C-71.175 67.467 -71.175 67.467 -70.226 66.481 C-69.553 65.807 -68.881 65.132 -68.188 64.438 C-66.799 63.005 -65.411 61.571 -64.023 60.137 C-62.992 59.082 -62.992 59.082 -61.94 58.005 C-59.332 55.31 -56.823 52.537 -54.312 49.75 C-49.671 44.659 -44.846 39.8 -39.922 34.984 C-37.788 32.855 -35.805 30.641 -33.844 28.352 C-29.537 23.378 -24.897 18.746 -20.237 14.107 C-18.735 12.61 -17.238 11.108 -15.742 9.605 C-14.782 8.646 -13.821 7.686 -12.859 6.727 C-11.998 5.866 -11.137 5.006 -10.249 4.12 C-6.823 0.89 -4.73 -0.645 0 0 Z " fill="#000000" transform="translate(905,675)"/>
<path d="M0 0 C1.156 0.543 1.156 0.543 2.336 1.098 C8.302 4.101 12.482 8.145 17 13 C18.361 14.299 18.361 14.299 19.75 15.625 C28.483 24.843 31.008 34.492 31.688 46.75 C31.747 47.606 31.807 48.462 31.869 49.344 C32.281 56.794 31.505 63.345 28 70 C27.667 70.735 27.335 71.47 26.992 72.227 C19.807 87.653 8.648 97.624 -7.071 103.816 C-21.768 109.145 -36.201 106.24 -50.122 99.978 C-52.711 98.63 -54.836 96.948 -57 95 C-58.176 93.948 -58.176 93.948 -59.375 92.875 C-72.03 79.014 -75.033 63.688 -74.222 45.45 C-72.971 31.654 -62.798 18.2 -53 9 C-38.336 -2.627 -17.318 -8.833 0 0 Z " fill="#000000" transform="translate(247,626)"/>
<path d="M0 0 C9.644 9.151 15.725 18.357 16.336 31.875 C16.36 33.583 16.372 35.292 16.375 37 C16.399 37.851 16.424 38.702 16.449 39.578 C16.474 44.906 15.672 48.603 12.984 53.223 C11.959 55.075 11.347 56.849 10.75 58.875 C6.168 71.638 -6.847 81.72 -18.688 87.312 C-30.509 92.707 -42.697 91.887 -55 88 C-67.019 83.356 -77.412 77.565 -82.992 65.527 C-83.325 64.693 -83.657 63.859 -84 63 C-84.367 62.117 -84.735 61.234 -85.113 60.324 C-86.319 55.806 -86.342 51.533 -86.312 46.875 C-86.307 45.939 -86.301 45.002 -86.295 44.038 C-86.014 27.932 -80.462 15.299 -69.133 3.805 C-50.271 -13.971 -20.165 -16.726 0 0 Z " fill="#000000" transform="translate(666,770)"/>
<path d="M0 0 C0.608 0.433 1.217 0.866 1.844 1.312 C1.844 1.972 1.844 2.633 1.844 3.312 C3.164 3.643 4.484 3.972 5.844 4.312 C5.844 4.972 5.844 5.633 5.844 6.312 C6.729 6.726 6.729 6.726 7.633 7.148 C13.572 10.275 17.59 15.07 21.453 20.438 C25.02 25.246 29.699 28.952 34.27 32.762 C34.789 33.273 35.309 33.785 35.844 34.312 C35.844 34.972 35.844 35.633 35.844 36.312 C36.395 36.425 36.947 36.537 37.516 36.652 C40.244 37.426 42.571 38.581 45.094 39.875 C45.986 40.33 46.878 40.785 47.797 41.254 C48.472 41.603 49.148 41.953 49.844 42.312 C49.844 42.972 49.844 43.633 49.844 44.312 C66.398 45.556 66.398 45.556 81.062 38.773 C87.882 32.739 93.403 25.94 98.844 18.688 C106.974 7.872 116.653 -1.184 130.371 -3.41 C141.826 -4.695 151.621 -2.891 160.844 4.312 C179.702 21.486 179.702 21.486 179.969 26.812 C178.317 30.483 175.464 31.918 171.844 33.312 C168.906 33.562 168.906 33.562 166.844 33.312 C166.844 33.972 166.844 34.633 166.844 35.312 C165.194 34.653 163.544 33.992 161.844 33.312 C161.844 32.653 161.844 31.992 161.844 31.312 C161.122 31.086 160.4 30.859 159.656 30.625 C155.313 28.598 152.602 25.413 149.906 21.5 C144.729 17.802 138.978 18.562 132.844 19.312 C127.21 20.981 123.232 24.551 118.844 28.312 C118.184 28.312 117.524 28.312 116.844 28.312 C116.844 28.972 116.844 29.633 116.844 30.312 C116.184 30.312 115.524 30.312 114.844 30.312 C114.631 30.844 114.418 31.375 114.199 31.922 C112.321 35.234 109.764 37.822 107.156 40.562 C106.059 41.728 104.963 42.895 103.867 44.062 C103.341 44.623 102.815 45.184 102.272 45.762 C100.541 47.641 98.909 49.593 97.281 51.562 C89.446 60.533 78.75 68.884 66.844 71.312 C62.992 71.535 59.138 71.498 55.281 71.5 C54.227 71.512 53.174 71.524 52.088 71.537 C51.078 71.539 50.068 71.541 49.027 71.543 C48.105 71.547 47.183 71.551 46.232 71.555 C43.844 71.312 43.844 71.312 40.844 69.312 C40.844 68.653 40.844 67.993 40.844 67.312 C38.204 66.653 35.564 65.993 32.844 65.312 C32.844 64.653 32.844 63.993 32.844 63.312 C32.184 63.312 31.524 63.312 30.844 63.312 C30.844 62.653 30.844 61.993 30.844 61.312 C30.225 61.168 29.606 61.024 28.969 60.875 C26.844 60.312 26.844 60.312 24.844 59.312 C24.844 58.653 24.844 57.992 24.844 57.312 C24.184 57.312 23.524 57.312 22.844 57.312 C22.589 56.717 22.333 56.121 22.07 55.508 C20.724 53.098 19.377 51.884 17.219 50.188 C15.305 48.68 15.305 48.68 13.844 47.312 C13.844 46.653 13.844 45.992 13.844 45.312 C13.287 45.106 12.73 44.9 12.156 44.688 C8.997 42.809 7.177 40.124 4.844 37.312 C3.359 36.817 3.359 36.817 1.844 36.312 C-0.844 33.875 -0.844 33.875 -3.156 31.312 C-3.156 30.653 -3.156 29.992 -3.156 29.312 C-3.837 29.044 -4.517 28.776 -5.219 28.5 C-8.156 27.312 -8.156 27.312 -11.094 25.688 C-17.491 22.978 -25.353 23.205 -31.934 25.121 C-37.737 27.771 -42.152 31.754 -46.773 36.086 C-55.328 44.08 -55.328 44.08 -60.594 44.75 C-63.156 44.312 -63.156 44.312 -64.156 43.312 C-64.698 38.001 -63.713 34.86 -61.223 30.34 C-60.199 28.394 -59.48 26.518 -58.781 24.438 C-54.194 12.1 -46.166 3.887 -34.219 -1.688 C-22.727 -6.562 -10.656 -6.77 0 0 Z " fill="#000000" transform="translate(153.15625,782.6875)"/>
<path d="M0 0 C4.401 1.412 5.648 2.376 7.938 6.438 C9.317 11.062 9.317 11.062 8 14 C7.67 14.598 7.34 15.196 7 15.812 C5.633 18.803 5.375 21.753 5 25 C5.66 25 6.32 25 7 25 C9.125 26.875 9.125 26.875 11 29 C11 29.66 11 30.32 11 31 C11.982 30.965 11.982 30.965 12.984 30.93 C30.75 30.578 30.75 30.578 37.188 35.375 C40.072 39.553 40.072 39.553 40 42 C38.151 46.392 37.275 48.215 33.184 50.734 C27.561 52.949 21.467 52.052 15.562 51.688 C14.354 51.626 13.146 51.565 11.9 51.502 C8.932 51.349 5.966 51.182 3 51 C3.056 51.822 3.113 52.644 3.171 53.491 C3.412 57.222 3.613 60.954 3.812 64.688 C3.902 65.981 3.992 67.275 4.084 68.607 C4.145 69.855 4.206 71.102 4.27 72.387 C4.338 73.534 4.406 74.68 4.476 75.862 C3.848 80.001 2.185 81.396 -1 84 C-4.701 85.395 -8.104 85.253 -11.875 84.188 C-14 83 -14 83 -16 81 C-16.303 78.45 -16.303 78.45 -16.379 75.258 C-16.413 74.109 -16.447 72.961 -16.482 71.777 C-16.509 70.572 -16.535 69.367 -16.562 68.125 C-16.623 65.753 -16.686 63.38 -16.754 61.008 C-16.778 59.952 -16.802 58.897 -16.826 57.809 C-16.976 55.385 -17.309 53.318 -18 51 C-19.918 50.944 -19.918 50.944 -21.875 50.887 C-23.583 50.821 -25.292 50.755 -27 50.688 C-27.839 50.665 -28.678 50.642 -29.543 50.619 C-35.288 50.374 -39.716 49.281 -45 47 C-46.642 36.439 -46.642 36.439 -44 32 C-37.801 29.08 -32.291 28.485 -25.5 28.312 C-24.582 28.278 -23.664 28.244 -22.719 28.209 C-20.479 28.127 -18.24 28.058 -16 28 C-15.991 27.426 -15.981 26.851 -15.972 26.259 C-15.918 23.63 -15.834 21.003 -15.75 18.375 C-15.729 17.02 -15.729 17.02 -15.707 15.637 C-15.5 9.972 -14.846 6.45 -11 2 C-7.265 -0.49 -4.322 -0.507 0 0 Z " fill="#000000" transform="translate(359,872)"/>
<path d="M0 0 C2.775 1.595 3.603 2.802 4.602 5.812 C5.189 8.199 5.61 10.573 6 13 C6.186 14.147 6.371 15.295 6.562 16.477 C7.06 19.649 7.538 22.823 8 26 C8.635 25.979 9.27 25.958 9.924 25.937 C12.824 25.853 15.724 25.801 18.625 25.75 C19.624 25.716 20.623 25.683 21.652 25.648 C27.734 25.568 31.462 25.77 36 30 C37.315 34.178 37.304 36.234 35.688 40.312 C34 43 34 43 32 45 C29.478 45.411 29.478 45.411 26.336 45.633 C25.214 45.717 24.093 45.8 22.938 45.887 C21.762 45.965 20.586 46.044 19.375 46.125 C18.192 46.211 17.008 46.298 15.789 46.387 C12.86 46.599 9.93 46.803 7 47 C7 49.64 7 52.28 7 55 C7.33 55 7.66 55 8 55 C9.355 62.177 9.312 66.887 5.52 73.223 C2.88 76.311 0.544 76.931 -3.438 77.438 C-7 77 -7 77 -9.68 74.996 C-12.709 71.085 -12.709 68.433 -12.688 63.625 C-12.752 58.023 -13.231 53.341 -15 48 C-16.916 48.246 -16.916 48.246 -18.871 48.496 C-23.95 49.06 -28.958 49.114 -34.062 49.062 C-35.361 49.056 -35.361 49.056 -36.686 49.049 C-38.79 49.037 -40.895 49.019 -43 49 C-44.817 44.739 -45.585 41.677 -45 37 C-42.906 33.933 -41.261 32.245 -37.543 31.523 C-34.603 31.319 -31.696 31.254 -28.75 31.25 C-26.745 31.217 -24.74 31.181 -22.734 31.141 C-21.407 31.133 -21.407 31.133 -20.054 31.126 C-18.007 31.228 -18.007 31.228 -17 30 C-16.879 28.437 -16.82 26.868 -16.789 25.301 C-16.747 23.857 -16.747 23.857 -16.703 22.385 C-16.652 20.356 -16.607 18.328 -16.57 16.299 C-16.396 10.855 -16.166 6.644 -13 2 C-8.749 -0.834 -4.988 -0.631 0 0 Z " fill="#000000" transform="translate(257,321)"/>
<path d="M0 0 C5.784 2.913 10.723 7.053 14.312 12.438 C15.421 22.23 14.654 31.921 8.406 39.859 C3.914 44.586 1.384 46.288 -5.148 46.605 C-6.44 46.612 -7.732 46.618 -9.062 46.625 C-10.349 46.639 -11.635 46.653 -12.961 46.668 C-16.596 46.443 -19.31 45.744 -22.688 44.438 C-23.595 44.149 -24.503 43.86 -25.438 43.562 C-27.688 42.438 -27.688 42.438 -29 40.5 C-29.688 38.438 -29.688 38.438 -29.688 35.438 C-30.347 35.438 -31.008 35.438 -31.688 35.438 C-34.888 27.837 -34.531 20.132 -31.68 12.488 C-30.112 9.248 -28.234 6.984 -25.688 4.438 C-25.028 4.438 -24.367 4.438 -23.688 4.438 C-23.688 3.778 -23.688 3.118 -23.688 2.438 C-15.962 -2.227 -8.574 -3.415 0 0 Z " fill="#000000" transform="translate(846.6875,72.5625)"/>
<path d="M0 0 C0.99 0.577 1.98 1.155 3 1.75 C4.031 2.307 5.062 2.864 6.125 3.438 C10.439 6.908 13.334 10.561 14.484 16.07 C14.963 24.348 11.571 32.598 6.75 39.25 C0.707 44.744 -5.219 46.291 -13.293 45.941 C-14.186 45.878 -15.08 45.815 -16 45.75 C-16.821 45.718 -17.642 45.686 -18.488 45.652 C-23.65 45.314 -27.094 44.383 -31 40.75 C-35.873 33.584 -36.088 25.551 -34.527 17.23 C-32.352 9.585 -27.324 3.629 -20.473 -0.371 C-14.233 -2.589 -6.179 -2.477 0 0 Z " fill="#000000" transform="translate(136,895.25)"/>
<path d="M0 0 C5.851 4.552 8.95 9.968 9.91 17.312 C9.993 18.467 10.075 19.622 10.16 20.812 C8.84 21.143 7.52 21.472 6.16 21.812 C6.078 23.009 5.995 24.205 5.91 25.438 C5.075 31.677 2.099 35.358 -2.777 39.188 C-8.561 42.809 -14.222 42.782 -20.84 41.812 C-24.095 40.871 -27.084 39.812 -29.84 37.812 C-30.335 36.327 -30.335 36.327 -30.84 34.812 C-31.5 34.812 -32.16 34.812 -32.84 34.812 C-36.667 27.157 -36.879 19.17 -35.84 10.812 C-33.471 4.781 -29.524 0.778 -23.84 -2.188 C-16.428 -4.522 -6.584 -4.25 0 0 Z " fill="#000000" transform="translate(563.83984375,886.1875)"/>
<path d="M0 0 C5.458 0.648 10.072 2.446 14.688 5.438 C16.625 8.75 16.625 8.75 17.688 12.438 C18.395 13.824 19.125 15.199 19.875 16.562 C21.458 19.656 22.129 21.903 21.688 25.438 C20.883 25.685 20.079 25.933 19.25 26.188 C18.404 26.6 17.559 27.012 16.688 27.438 C16.316 28.761 15.988 30.096 15.688 31.438 C14.602 33.473 14.602 33.473 13.312 35.5 C12.892 36.172 12.472 36.843 12.039 37.535 C9.714 40.808 7.488 43.012 3.688 44.438 C-3.209 45.051 -9.801 44.86 -16.312 42.438 C-16.312 41.778 -16.312 41.118 -16.312 40.438 C-17.303 40.108 -18.293 39.778 -19.312 39.438 C-19.312 38.778 -19.312 38.118 -19.312 37.438 C-20.303 37.108 -21.293 36.778 -22.312 36.438 C-24.762 29.347 -25.916 21.394 -22.875 14.312 C-19.45 8.358 -13.924 2.799 -7.188 0.938 C-4.791 0.628 -2.395 0.316 0 0 Z " fill="#000000" transform="translate(935.3125,317.5625)"/>
<path d="M0 0 C4.709 3.532 8.24 9.511 9.492 15.258 C9.625 17.375 9.625 17.375 9 21 C6.75 22.5 6.75 22.5 4 24 C2.901 25.827 2.901 25.827 2 27.938 C-0.285 32.899 -2.925 35.135 -8 37.25 C-15.608 39.04 -23.558 39.253 -30.688 35.812 C-33.712 33.741 -34.821 32.486 -36.094 29.023 C-37.442 21.447 -37.927 13.779 -34.375 6.812 C-24.939 -4.361 -13.072 -7.719 0 0 Z " fill="#000000" transform="translate(110,658)"/>
<path d="M0 0 C6.086 2.766 11.453 8.753 14 15 C14 16.32 14 17.64 14 19 C13.34 19 12.68 19 12 19 C11.959 20.155 11.918 21.31 11.875 22.5 C11.06 28.977 7.211 33.189 2.301 37.211 C-1.623 39.338 -4.781 39.528 -9.125 39.375 C-9.828 39.374 -10.53 39.372 -11.254 39.371 C-14.972 39.308 -17.843 39.045 -21 37 C-21 36.34 -21 35.68 -21 35 C-21.99 35 -22.98 35 -24 35 C-27.77 29.345 -27.642 22.616 -27 16 C-25.156 9.248 -20.468 5.083 -15 1 C-10.579 -1.211 -4.813 -0.411 0 0 Z " fill="#000000" transform="translate(940,412)"/>
<path d="M0 0 C4.945 2.753 6.544 5.876 8.355 11.109 C9.015 11.439 9.675 11.769 10.355 12.109 C10.025 13.759 9.695 15.409 9.355 17.109 C8.695 17.109 8.035 17.109 7.355 17.109 C7.19 18.244 7.025 19.378 6.855 20.547 C5.458 26.217 1.711 30.354 -2.645 34.109 C-7.821 36.147 -14.214 35.71 -19.645 35.109 C-22.707 33.047 -22.707 33.047 -24.645 30.109 C-25.408 29.058 -26.171 28.006 -26.957 26.922 C-29.669 21.83 -29.617 16.361 -27.984 10.902 C-22.706 -1.048 -12.427 -4.185 0 0 Z " fill="#000000" transform="translate(347.64453125,693.890625)"/>
<path d="M0 0 C2.837 2.703 4.073 4.858 4.66 8.762 C4.828 18.093 4.272 28.743 -0.781 36.828 C-1.235 37.591 -1.689 38.354 -2.156 39.141 C-4.237 41.302 -5.85 41.511 -8.781 41.828 C-9.111 42.818 -9.441 43.808 -9.781 44.828 C-12.739 46.052 -14.779 45.793 -17.781 44.828 C-17.781 43.838 -17.781 42.848 -17.781 41.828 C-18.441 41.828 -19.101 41.828 -19.781 41.828 C-22.902 34.068 -24.169 27.201 -24.156 18.891 C-24.158 17.684 -24.158 17.684 -24.16 16.454 C-24.062 11.098 -23.204 6.674 -20.781 1.828 C-14.217 -1.328 -6.787 -4.465 0 0 Z " fill="#000000" transform="translate(616.78125,194.171875)"/>
<path d="M0 0 C1.142 -0.003 2.284 -0.005 3.461 -0.008 C6.057 0.101 8.161 0.36 10.625 1.125 C10.625 1.785 10.625 2.445 10.625 3.125 C11.202 3.331 11.78 3.538 12.375 3.75 C15.525 5.675 16.885 7.904 18.625 11.125 C18.301 13.023 18.301 13.023 17.625 15.125 C17.457 15.883 17.29 16.641 17.117 17.422 C15.323 24.552 12.089 30.34 5.703 34.324 C0.545 36.312 -5.014 35.527 -10.188 34 C-13.898 31.817 -16.713 30.147 -18.375 26.125 C-19.21 19.949 -19.361 14.286 -16.75 8.562 C-11.397 3.069 -7.884 -0.018 0 0 Z " fill="#000000" transform="translate(230.375,912.875)"/>
<path d="M0 0 C3.941 2.448 6.536 5.337 9.188 9.125 C10.597 15.849 7.676 21.823 4.547 27.754 C2.341 30.956 -0.336 32.1 -4 33 C-9.772 33.623 -13.788 33.224 -18.625 29.875 C-22.135 25.089 -22.517 18.941 -21.66 13.238 C-19.971 7.51 -16.201 3.357 -11.062 0.438 C-7.022 -1.275 -4.248 -1.39 0 0 Z " fill="#000000" transform="translate(807,534)"/>
<path d="M0 0 C3.803 2.005 5.618 3.427 8 7 C9.716 14.151 8.63 20.107 5.062 26.438 C2.311 29.855 0.75 30.897 -3.625 31.5 C-9.077 31.389 -12.894 28.328 -17 25 C-17.571 24.569 -18.142 24.139 -18.73 23.695 C-21.696 19.735 -20.607 13.656 -20 9 C-18.35 5.241 -15.609 3.415 -12.25 1.125 C-8.034 -0.334 -4.413 -0.726 0 0 Z " fill="#000000" transform="translate(692,713)"/>
<path d="M0 0 C4.164 2.487 7.141 5.495 9 10 C9.125 12.75 9.125 12.75 9 15 C8.01 15 7.02 15 6 15 C5.732 16.093 5.464 17.186 5.188 18.312 C3.648 23.094 3.648 23.094 1 25 C-4.235 26.745 -8.354 26.745 -13.312 24.5 C-17.718 20.402 -18.592 16.151 -19.688 10.375 C-18.768 5.862 -16.738 4.681 -13.043 2.164 C-8.913 -0.189 -4.657 -0.913 0 0 Z " fill="#000000" transform="translate(818,625)"/>
<path d="M0 0 C3.54 1.403 6.772 2.834 9 6 C9.688 9.188 9.688 9.188 10 12 C9.01 12.33 8.02 12.66 7 13 C6.691 13.784 6.381 14.567 6.062 15.375 C4.803 18.486 3.835 19.267 1 21 C-1.691 21.652 -1.691 21.652 -4.562 21.938 C-5.513 22.05 -6.463 22.162 -7.441 22.277 C-10 22 -10 22 -11.809 20.441 C-13.395 17.19 -13.469 14.61 -13.5 11 C-13.531 9.783 -13.562 8.566 -13.594 7.312 C-13 4 -13 4 -10.715 1.59 C-7.117 -0.517 -4.021 -0.662 0 0 Z " fill="#000000" transform="translate(673,912)"/>
<path d="M0 0 C3 2.312 3 2.312 5 5 C5.124 8.854 2.21 12.01 0 15 C-3.191 17.128 -5.239 17.547 -9.055 17.441 C-11 17 -11 17 -13.562 14.438 C-15.294 10.296 -15.269 8.283 -14 4 C-9.922 -1.165 -6.247 -1.508 0 0 Z " fill="#000000" transform="translate(293,585)"/>
<path d="M0 0 C0.66 0.33 1.32 0.66 2 1 C-0.119 3.173 -2.245 5.338 -4.375 7.5 C-4.978 8.12 -5.582 8.74 -6.203 9.379 C-6.783 9.965 -7.363 10.552 -7.961 11.156 C-8.495 11.701 -9.029 12.246 -9.58 12.807 C-11 14 -11 14 -13 14 C-13.247 14.619 -13.495 15.237 -13.75 15.875 C-15.206 18.351 -16.378 18.951 -19 20 C-17.625 17.5 -17.625 17.5 -16 15 C-15.34 15 -14.68 15 -14 15 C-13.796 14.459 -13.593 13.917 -13.383 13.359 C-11.447 10.056 -8.713 7.759 -5.875 5.25 C-5.312 4.743 -4.748 4.237 -4.168 3.715 C-2.783 2.471 -1.392 1.235 0 0 Z " fill="#0E0E0E" transform="translate(919,782)"/>
<path d="M0 0 C0.66 0.33 1.32 0.66 2 1 C2.206 6.759 1.831 11.508 0 17 C-0.99 17.33 -1.98 17.66 -3 18 C-2.691 17.258 -2.381 16.515 -2.062 15.75 C-0.59 10.553 -0.331 5.375 0 0 Z M-4 18 C-4 18.99 -4 19.98 -4 21 C-4.99 20.67 -5.98 20.34 -7 20 C-6.01 19.34 -5.02 18.68 -4 18 Z " fill="#0C0C0C" transform="translate(700,722)"/>
<path d="M0 0 C0.598 0.227 1.196 0.454 1.812 0.688 C0.493 1.678 -0.828 2.668 -2.188 3.688 C2.433 3.688 7.052 3.688 11.812 3.688 C8.092 6.168 4.947 6.131 0.625 6.312 C-0.125 6.351 -0.874 6.39 -1.646 6.43 C-3.493 6.524 -5.34 6.607 -7.188 6.688 C-3.692 -0.527 -3.692 -0.527 0 0 Z " fill="#0C0C0C" transform="translate(95.1875,582.3125)"/>
<path d="M0 0 C0 0.99 0 1.98 0 3 C-0.66 3.66 -1.32 4.32 -2 5 C0.287 6.144 1.593 6.103 4.125 6.062 C5.404 6.042 6.683 6.021 8 6 C8 6.33 8 6.66 8 7 C3.237 7.953 -1.167 8.083 -6 8 C-5.651 4.745 -4.979 3.981 -2.438 1.75 C-1.633 1.173 -0.829 0.595 0 0 Z " fill="#0F0F0F" transform="translate(644,432)"/>
<path d="M0 0 C1.137 3.404 0.84 5.775 0.062 9.25 C-0.132 10.142 -0.327 11.034 -0.527 11.953 C-0.683 12.629 -0.839 13.304 -1 14 C-3.209 10.686 -3.225 9.655 -3.125 5.812 C-3.107 4.911 -3.089 4.01 -3.07 3.082 C-3.047 2.395 -3.024 1.708 -3 1 C-2.01 0.67 -1.02 0.34 0 0 Z " fill="#0C0C0C" transform="translate(169,258)"/>
<path d="M0 0 C0.66 1.32 1.32 2.64 2 4 C0.878 5.149 -0.248 6.294 -1.375 7.438 C-2.315 8.395 -2.315 8.395 -3.273 9.371 C-6.919 12.81 -10.202 12.077 -15 12 C-15 11.67 -15 11.34 -15 11 C-14.42 10.96 -13.84 10.92 -13.242 10.879 C-9.291 10.351 -6.811 9.896 -4.066 6.863 C-2.598 4.62 -1.245 2.373 0 0 Z " fill="#0E0D0D" transform="translate(298,591)"/>
<path d="M0 0 C0.66 0 1.32 0 2 0 C3.555 5.753 2.646 11.351 1 17 C0.34 17.33 -0.32 17.66 -1 18 C-1.109 13.549 -0.64 9.399 0 5 C0.035 3.334 0.05 1.666 0 0 Z " fill="#0C0C0C" transform="translate(548,221)"/>
<path d="M0 0 C0.33 0 0.66 0 1 0 C2.567 6.989 2.567 6.989 0.953 9.867 C-0.438 11.5 -0.438 11.5 -3 14 C-4.274 11.453 -3.802 10.572 -3.062 7.875 C-2.868 7.151 -2.673 6.426 -2.473 5.68 C-2.317 5.125 -2.161 4.571 -2 4 C-1.34 4 -0.68 4 0 4 C0 2.68 0 1.36 0 0 Z " fill="#100F0F" transform="translate(954,427)"/>
<path d="M0 0 C0 0.33 0 0.66 0 1 C-1.423 1.371 -1.423 1.371 -2.875 1.75 C-6.048 2.68 -6.048 2.68 -7.312 4.938 C-7.539 5.618 -7.766 6.299 -8 7 C-8.33 7.99 -8.66 8.98 -9 10 C-9.33 10 -9.66 10 -10 10 C-10.125 3.25 -10.125 3.25 -9 1 C-5.804 -0.065 -3.343 -0.074 0 0 Z " fill="#0C0C0C" transform="translate(273,367)"/>
<path d="M0 0 C2.29 3.435 2.178 4.985 2 9 C0 5.25 0 5.25 0 3 C-2.64 2.67 -5.28 2.34 -8 2 C-4.792 -0.139 -3.723 -0.477 0 0 Z " fill="#0E0E0E" transform="translate(891,560)"/>
<path d="M0 0 C1 2 1 2 0.312 5.438 C-1.017 9.046 -1.737 10.151 -5 12 C-4.547 10.561 -4.088 9.124 -3.625 7.688 C-3.37 6.887 -3.115 6.086 -2.852 5.262 C-2 3 -2 3 0 0 Z " fill="#0E0E0E" transform="translate(182,203)"/>
<path d="M0 0 C0.66 0.66 1.32 1.32 2 2 C0.35 5.3 -1.3 8.6 -3 12 C-4.072 7.714 -4.037 7.339 -2.062 3.75 C-1.682 3.044 -1.302 2.337 -0.91 1.609 C-0.61 1.078 -0.309 0.547 0 0 Z " fill="#0D0D0D" transform="translate(611,387)"/>
<path d="M0 0 C0.66 0.33 1.32 0.66 2 1 C1.651 4.255 0.979 5.019 -1.562 7.25 C-2.769 8.116 -2.769 8.116 -4 9 C-2.941 5.597 -1.991 2.986 0 0 Z " fill="#0E0E0E" transform="translate(265,387)"/>
<path d="M0 0 C2 2 2 2 2.125 5.625 C2.084 6.739 2.043 7.853 2 9 C1.01 9.495 1.01 9.495 0 10 C-0.749 6.337 -1.238 3.576 0 0 Z " fill="#0C0B0C" transform="translate(546,300)"/>
<path d="M0 0 C1 3 1 3 -0.438 6.188 C-1.211 7.58 -1.211 7.58 -2 9 C-2.33 9 -2.66 9 -3 9 C-2.25 2.25 -2.25 2.25 0 0 Z " fill="#0F0F0F" transform="translate(93,808)"/>
<path d="M0 0 C0.66 0.33 1.32 0.66 2 1 C0.02 3.31 -1.96 5.62 -4 8 C-4.33 6.68 -4.66 5.36 -5 4 C-3.35 2.68 -1.7 1.36 0 0 Z " fill="#070707" transform="translate(804,628)"/>
<path d="M0 0 C0.66 0.33 1.32 0.66 2 1 C1.691 1.763 1.381 2.526 1.062 3.312 C0.321 5.188 -0.362 7.087 -1 9 C-1.66 9 -2.32 9 -3 9 C-2.01 6.03 -1.02 3.06 0 0 Z " fill="#0E0D0E" transform="translate(605,402)"/>
<path d="M0 0 C0.99 0 1.98 0 3 0 C2.387 2.962 1.746 4.381 0 7 C-0.66 6.67 -1.32 6.34 -2 6 C-1.34 4.02 -0.68 2.04 0 0 Z " fill="#100F10" transform="translate(174,220)"/>
</svg>
