<?xml version="1.0" encoding="UTF-8"?>
<!-- Generator: visioncortex VTracer 0.6.4 -->
<svg version="1.1" xmlns="http://www.w3.org/2000/svg" width="1024" height="1024">
<path d="M0 0 C337.92 0 675.84 0 1024 0 C1024 337.92 1024 675.84 1024 1024 C686.08 1024 348.16 1024 0 1024 C0 686.08 0 348.16 0 0 Z " fill="#AEA087" transform="translate(0,0)"/>
<path d="M0 0 C337.92 0 675.84 0 1024 0 C1024 337.92 1024 675.84 1024 1024 C686.08 1024 348.16 1024 0 1024 C0 686.08 0 348.16 0 0 Z M78.984 208.531 C69.343 220.526 63.665 235.024 63.746 250.4 C63.742 251.319 63.739 252.238 63.736 253.185 C63.728 256.263 63.733 259.341 63.739 262.42 C63.736 264.65 63.732 266.879 63.728 269.109 C63.717 275.236 63.72 281.363 63.724 287.49 C63.726 293.42 63.719 299.349 63.712 305.279 C63.697 318.904 63.695 332.529 63.698 346.154 C63.699 356.677 63.698 367.2 63.693 377.722 C63.693 379.234 63.692 380.746 63.692 382.258 C63.691 384.537 63.69 386.815 63.689 389.094 C63.68 410.279 63.676 431.463 63.68 452.648 C63.68 453.447 63.681 454.245 63.681 455.068 C63.682 459.116 63.682 463.163 63.683 467.211 C63.683 468.015 63.684 468.819 63.684 469.647 C63.684 471.272 63.685 472.898 63.685 474.523 C63.69 499.814 63.682 525.104 63.664 550.394 C63.643 578.813 63.632 607.231 63.636 635.649 C63.637 638.68 63.637 641.712 63.637 644.743 C63.638 645.489 63.638 646.235 63.638 647.004 C63.639 658.264 63.632 669.525 63.622 680.785 C63.61 693.594 63.608 706.403 63.62 719.212 C63.627 725.747 63.627 732.282 63.615 738.817 C63.605 744.802 63.608 750.786 63.622 756.771 C63.624 758.934 63.622 761.096 63.614 763.259 C63.545 778.852 63.545 778.852 67 794 C67.365 795.137 67.73 796.274 68.105 797.445 C74.293 812.768 85.044 822.5 100 829 C109.931 833.007 119.58 833.147 130.174 833.131 C131.514 833.133 132.855 833.135 134.195 833.138 C137.88 833.143 141.564 833.143 145.249 833.141 C149.257 833.14 153.265 833.145 157.273 833.149 C165.224 833.157 173.174 833.159 181.125 833.16 C190.647 833.161 200.17 833.167 209.693 833.174 C232.707 833.19 255.722 833.196 278.737 833.201 C289.624 833.203 300.511 833.207 311.398 833.211 C348.667 833.223 385.935 833.234 423.203 833.238 C425.542 833.238 427.882 833.238 430.221 833.238 C432.566 833.238 434.911 833.239 437.256 833.239 C441.96 833.239 446.664 833.24 451.368 833.24 C452.535 833.24 453.701 833.24 454.903 833.241 C492.728 833.244 530.554 833.26 568.379 833.283 C608.371 833.308 648.363 833.322 688.355 833.323 C692.745 833.323 697.135 833.323 701.525 833.324 C702.606 833.324 703.686 833.324 704.8 833.324 C722.196 833.325 739.592 833.336 756.988 833.35 C774.471 833.365 791.955 833.368 809.438 833.36 C819.824 833.356 830.21 833.359 840.597 833.375 C847.537 833.385 854.478 833.384 861.419 833.374 C865.371 833.368 869.324 833.368 873.276 833.38 C876.879 833.392 880.482 833.389 884.085 833.376 C885.976 833.372 887.868 833.383 889.76 833.395 C909.719 833.274 926.657 826.988 941.188 813.312 C953.037 801.017 958.164 785.734 958.134 768.92 C958.137 768.011 958.139 767.102 958.141 766.166 C958.148 763.11 958.148 760.055 958.147 757 C958.15 754.791 958.154 752.582 958.158 750.373 C958.168 744.295 958.172 738.217 958.175 732.139 C958.178 726.259 958.186 720.379 958.194 714.499 C958.215 698.746 958.226 682.993 958.234 667.24 C958.239 659.785 958.244 652.33 958.249 644.874 C958.267 619.346 958.282 593.817 958.289 568.288 C958.29 566.685 958.29 565.083 958.291 563.481 C958.291 562.686 958.291 561.891 958.292 561.073 C958.293 557.047 958.294 553.021 958.295 548.995 C958.296 547.797 958.296 547.797 958.296 546.574 C958.304 520.681 958.327 494.787 958.36 468.893 C958.394 441.506 958.414 414.119 958.417 386.732 C958.417 383.723 958.418 380.715 958.418 377.706 C958.419 376.965 958.419 376.225 958.419 375.461 C958.421 363.557 958.437 351.653 958.457 339.749 C958.478 327.775 958.483 315.8 958.474 303.826 C958.469 297.343 958.471 290.86 958.49 284.377 C958.508 278.435 958.507 272.494 958.491 266.552 C958.489 264.409 958.493 262.267 958.505 260.124 C958.585 244.842 957.919 229.861 949.688 216.438 C949.294 215.772 948.901 215.106 948.496 214.42 C945.57 209.607 942.502 205.455 938 202 C937.325 201.473 936.649 200.946 935.953 200.402 C923.855 191.672 910.121 189.693 895.57 189.748 C894.214 189.746 892.858 189.743 891.501 189.74 C887.778 189.732 884.054 189.736 880.331 189.743 C876.279 189.748 872.227 189.742 868.174 189.737 C861.073 189.729 853.972 189.73 846.871 189.735 C836.312 189.742 825.752 189.738 815.193 189.732 C796.333 189.722 777.474 189.723 758.614 189.728 C742.109 189.733 725.604 189.735 709.098 189.732 C708.004 189.732 706.91 189.732 705.782 189.732 C701.34 189.731 696.897 189.731 692.455 189.73 C650.771 189.724 609.087 189.729 567.403 189.74 C530.364 189.75 493.326 189.749 456.287 189.739 C414.683 189.729 373.078 189.724 331.474 189.73 C327.039 189.731 322.604 189.732 318.169 189.732 C317.077 189.733 315.985 189.733 314.86 189.733 C298.366 189.735 281.872 189.732 265.378 189.727 C246.623 189.722 227.868 189.723 209.113 189.734 C198.615 189.74 188.117 189.74 177.619 189.733 C170.608 189.728 163.596 189.731 156.585 189.74 C152.59 189.744 148.594 189.746 144.599 189.739 C140.961 189.732 137.323 189.735 133.685 189.745 C131.767 189.748 129.849 189.741 127.932 189.734 C109.376 189.814 92.121 194.869 78.984 208.531 Z " fill="#07636F" transform="translate(0,0)"/>
<path d="M0 0 C0.33 0.66 0.66 1.32 1 2 C-4.143 8.571 -4.143 8.571 -8 10 C-6.349 5.708 -3.262 3.121 0 0 Z " fill="#C6A889" transform="translate(85,203)"/>
</svg>
