<?xml version="1.0" encoding="UTF-8"?>
<!-- Generator: visioncortex VTracer 0.6.4 -->
<svg version="1.1" xmlns="http://www.w3.org/2000/svg" width="1024" height="1024">
<path d="M0 0 C337.92 0 675.84 0 1024 0 C1024 337.92 1024 675.84 1024 1024 C686.08 1024 348.16 1024 0 1024 C0 686.08 0 348.16 0 0 Z " fill="#9D7D85" transform="translate(0,0)"/>
<path d="M0 0 C0.967 0.753 1.934 1.506 2.93 2.281 C8.857 6.935 14.436 11.922 20 17 C21.687 18.5 23.375 20 25.062 21.5 C32.542 28.241 39.464 35.349 46 43 C46.892 44.018 47.786 45.035 48.68 46.051 C74.22 75.237 94.757 108.928 109 145 C109.295 145.731 109.589 146.461 109.893 147.214 C119.241 170.513 125.371 195.185 129 220 C129.185 221.268 129.371 222.536 129.562 223.843 C131.408 237.623 131.397 251.431 131.375 265.312 C131.375 266.555 131.375 267.798 131.374 269.078 C131.343 287.429 130.603 304.97 127 323 C126.585 325.248 126.173 327.497 125.762 329.746 C114.277 390.765 87.388 446.535 46.5 493.28 C45.478 494.451 44.465 495.629 43.458 496.812 C38.766 502.281 33.771 507.415 28.677 512.509 C27.261 513.927 25.853 515.353 24.445 516.779 C18.274 522.963 11.829 528.56 5 534 C3.717 535.072 2.438 536.148 1.164 537.23 C-14.333 550.248 -31.37 561.109 -49 571 C-49.971 571.553 -49.971 571.553 -50.962 572.118 C-64.123 579.578 -78 585.315 -92 591 C-92.767 591.316 -93.534 591.632 -94.324 591.958 C-143.136 611.961 -201.764 618.574 -254 611 C-255.069 610.849 -256.139 610.699 -257.241 610.543 C-330.079 599.958 -396.309 566.039 -449 515 C-449.648 514.374 -450.296 513.748 -450.963 513.104 C-457.995 506.278 -464.781 499.423 -470.848 491.707 C-472.775 489.283 -474.779 486.952 -476.823 484.627 C-528.268 425.634 -554.104 344.878 -554.24 267.473 C-554.25 264.166 -554.281 260.861 -554.312 257.555 C-554.385 242.811 -553.154 228.576 -551 214 C-550.784 212.436 -550.569 210.871 -550.356 209.306 C-545.404 174.038 -532.408 140.408 -516 109 C-515.399 107.844 -515.399 107.844 -514.786 106.665 C-508.053 93.803 -500.472 81.784 -492 70 C-491.37 69.119 -491.37 69.119 -490.727 68.22 C-475.26 46.719 -456.457 25.351 -435.57 9.016 C-432.824 6.862 -430.204 4.593 -427.562 2.312 C-411.621 -10.931 -393.916 -21.671 -376 -32 C-375.231 -32.447 -374.462 -32.894 -373.67 -33.355 C-295.557 -78.375 -193.031 -83.39 0 0 Z " fill="#FEFEFB" transform="translate(723,187)"/>
<path d="M0 0 C0 -0.66 0 -1.32 0 -2 C2.938 -2.081 5.874 -2.14 8.812 -2.188 C9.646 -2.213 10.479 -2.238 11.338 -2.264 C12.542 -2.278 12.542 -2.278 13.77 -2.293 C14.508 -2.309 15.246 -2.324 16.007 -2.341 C18.539 -1.908 19.274 -0.832 21 1 C23.839 1.288 23.839 1.288 26.938 1.062 C31.113 0.861 33.327 1.121 37 3 C40.702 2.205 40.702 2.205 44 1 C44.351 1.454 44.701 1.907 45.062 2.375 C50.186 6.672 56.334 6.134 62.645 5.777 C63.422 5.851 64.199 5.924 65 6 C65.66 6.99 66.32 7.98 67 9 C69.301 9.875 69.301 9.875 72.008 10.387 C73.487 10.711 73.487 10.711 74.996 11.041 C76.029 11.254 77.061 11.468 78.125 11.688 C79.685 12.025 79.685 12.025 81.277 12.369 C83.849 12.924 86.423 13.467 89 14 C89 14.66 89 15.32 89 16 C89.66 16 90.32 16 91 16 C91 15.34 91 14.68 91 14 C94.63 14 98.26 14 102 14 C101.34 15.65 100.68 17.3 100 19 C101.98 19 103.96 19 106 19 C106 19.66 106 20.32 106 21 C106.99 20.67 107.98 20.34 109 20 C109.392 20.495 109.784 20.99 110.188 21.5 C112.551 23.456 114.014 23.242 117 23 C117 23.66 117 24.32 117 25 C121.584 26.922 126.28 28.453 131 30 C131.99 30.33 132.98 30.66 134 31 C134 31.66 134 32.32 134 33 C136.31 33 138.62 33 141 33 C141.33 33.99 141.66 34.98 142 36 C144 37.209 144 37.209 146 38 C146 38.66 146 39.32 146 40 C147.32 39.67 148.64 39.34 150 39 C150 39.66 150 40.32 150 41 C150.598 41.289 151.196 41.577 151.812 41.875 C154 43 154 43 157 45 C158.979 45.627 158.979 45.627 161.062 46.062 C165.131 46.979 166.562 47.343 169 51 C170.112 52.077 171.261 53.118 172.438 54.125 C173.034 54.643 173.631 55.161 174.246 55.695 C176.077 57.199 176.077 57.199 179 58 C179.619 58.712 179.619 58.712 180.25 59.438 C182.83 61.741 185.693 62.189 189 63 C189.093 64.176 189.093 64.176 189.188 65.375 C189.456 66.241 189.724 67.108 190 68 C192.295 69.135 192.295 69.135 195 70 C197.818 72.043 200.19 74.195 202.625 76.688 C204.853 79.193 204.853 79.193 208 80 C208 80.66 208 81.32 208 82 C208.66 82 209.32 82 210 82 C210 82.66 210 83.32 210 84 C210.66 84 211.32 84 212 84 C213.38 85.285 214.704 86.63 216 88 C216.804 88.804 217.609 89.609 218.438 90.438 C226 98 226 98 228.5 100.562 C230.943 103.04 230.943 103.04 233.688 105.062 C235.955 106.962 236.932 108.283 238 111 C238.66 111 239.32 111 240 111 C241.034 112.646 242.028 114.317 243 116 C244.966 118.687 246.689 120.771 249.375 122.75 C253.071 125.918 255.622 129.766 258 134 C258 134.66 258 135.32 258 136 C258.66 136 259.32 136 260 136 C264 140.353 264 140.353 264 144 C264.99 144.33 265.98 144.66 267 145 C268.899 147.991 270.518 151.089 272.184 154.215 C274.082 157.126 275.003 157.583 278 159 C278.871 160.918 278.871 160.918 279.438 163.188 C280.616 167.205 282.189 169.884 284.727 173.168 C287.22 176.755 290 181.553 290 186 C290.66 186.33 291.32 186.66 292 187 C292 187.99 292 188.98 292 190 C292.66 190 293.32 190 294 190 C294 191.32 294 192.64 294 194 C294.66 194.33 295.32 194.66 296 195 C297.575 197.626 298 198.871 298 202 C298.66 202 299.32 202 300 202 C300.718 203.914 301.435 205.828 302.152 207.742 C302.889 209.705 303.632 211.665 304.375 213.625 C305.363 216.243 306.305 218.871 307.23 221.512 C307.45 222.137 307.669 222.762 307.895 223.406 C308.539 225.245 309.178 227.085 309.816 228.926 C310.911 232.104 310.911 232.104 313 235 C313.165 236.031 313.33 237.062 313.5 238.125 C313.665 239.074 313.83 240.023 314 241 C314.66 241.33 315.32 241.66 316 242 C316 243.32 316 244.64 316 246 C316.416 248.071 316.879 250.134 317.375 252.188 C317.65 253.339 317.924 254.49 318.207 255.676 C318.469 256.773 318.73 257.87 319 259 C319.358 260.624 319.713 262.249 320.062 263.875 C320.635 266.493 321.294 268.986 322.062 271.562 C323.097 275.357 323.589 279.102 324 283 C324.459 286.803 324.933 290.596 325.562 294.375 C326.113 298.935 326.083 303.414 326 308 C325.67 308 325.34 308 325 308 C324.905 307.338 324.81 306.676 324.712 305.994 C311.685 216.127 269.955 129.912 195.906 74.435 C193.85 72.887 191.817 71.313 189.781 69.738 C152.308 41.085 107.896 19.936 61.613 10.534 C59.133 10.027 56.661 9.491 54.188 8.949 C29.773 3.765 5.169 1.617 -19.75 1.688 C-21.106 1.691 -21.106 1.691 -22.49 1.695 C-42.634 1.793 -62.12 3.71 -82 7 C-82.986 7.159 -83.972 7.318 -84.988 7.482 C-143.199 17.184 -201.302 46.814 -244.523 86.734 C-246.565 88.602 -248.635 90.413 -250.73 92.219 C-255.312 96.219 -259.64 100.448 -263.938 104.75 C-264.731 105.544 -265.524 106.338 -266.342 107.157 C-271.195 112.06 -275.763 117.007 -280.008 122.449 C-282.213 125.273 -284.54 127.97 -286.875 130.688 C-320.506 171.076 -342.028 221.992 -353 273 C-353.33 273 -353.66 273 -354 273 C-353.699 265.695 -353.344 259.026 -350.699 252.176 C-349.43 248.227 -349.249 244.12 -349 240 C-348.01 240 -347.02 240 -346 240 C-346.041 238.928 -346.082 237.855 -346.125 236.75 C-346.009 233.269 -345.707 231.881 -344 229 C-344 228.34 -344 227.68 -344 227 C-343.34 227 -342.68 227 -342 227 C-341.856 226.278 -341.711 225.556 -341.562 224.812 C-341.042 222.208 -340.521 219.604 -340 217 C-339.34 217 -338.68 217 -338 217 C-338.319 216.155 -338.319 216.155 -338.645 215.293 C-339.119 212.23 -338.239 210.956 -336.688 208.312 C-336.238 207.525 -335.788 206.737 -335.324 205.926 C-334 204 -334 204 -332 203 C-331.621 201.343 -331.297 199.673 -331 198 C-330.356 195.993 -329.694 193.991 -329 192 C-328.34 192 -327.68 192 -327 192 C-326.732 190.969 -326.464 189.938 -326.188 188.875 C-324.468 182.918 -321.41 177.949 -317.988 172.832 C-316.763 170.907 -316.763 170.907 -317 168 C-316.01 168 -315.02 168 -314 168 C-314.33 167.01 -314.66 166.02 -315 165 C-314.34 165 -313.68 165 -313 165 C-311.785 162.664 -310.804 160.434 -309.938 157.938 C-307.954 153.178 -304.486 149.522 -301.156 145.648 C-298.941 143.067 -298.941 143.067 -297.344 140.164 C-296.679 139.093 -296.679 139.093 -296 138 C-295.34 138 -294.68 138 -294 138 C-293.01 135.03 -293.01 135.03 -292 132 C-291.34 132 -290.68 132 -290 132 C-289.762 131.294 -289.523 130.587 -289.277 129.859 C-287.785 126.519 -285.885 124.073 -283.562 121.25 C-282.78 120.286 -281.998 119.322 -281.191 118.328 C-279 116 -279 116 -276 115 C-275.505 113.515 -275.505 113.515 -275 112 C-274.34 112 -273.68 112 -273 112 C-273 111.34 -273 110.68 -273 110 C-270.625 107.375 -270.625 107.375 -268 105 C-267.34 105 -266.68 105 -266 105 C-266 104.34 -266 103.68 -266 103 C-265.01 102.34 -264.02 101.68 -263 101 C-262.505 99.515 -262.505 99.515 -262 98 C-261.01 98 -260.02 98 -259 98 C-259.33 97.01 -259.66 96.02 -260 95 C-259.072 94.608 -258.144 94.216 -257.188 93.812 C-253.68 91.818 -252.99 90.374 -251 87 C-248.312 85.688 -248.312 85.688 -246 85 C-246 84.34 -246 83.68 -246 83 C-242 79 -242 79 -239.125 77.625 C-235.984 76.191 -235.984 76.191 -233.938 73.938 C-231.766 71.766 -229.887 70.962 -227 70 C-227 69.34 -227 68.68 -227 68 C-226.34 67.67 -225.68 67.34 -225 67 C-224.344 64.473 -224.344 64.473 -224 62 C-223.01 62 -222.02 62 -221 62 C-217.112 61.502 -215.045 60.415 -212 58 C-211.34 58 -210.68 58 -210 58 C-209.814 57.423 -209.629 56.845 -209.438 56.25 C-207.694 53.521 -205.637 52.498 -202.812 51.016 C-200.747 49.923 -200.747 49.923 -198.188 47.75 C-195.4 45.52 -194.546 46 -191 46 C-190.67 45.34 -190.34 44.68 -190 44 C-187 42 -187 42 -184 42 C-183.67 40.68 -183.34 39.36 -183 38 C-181.866 37.876 -180.731 37.752 -179.562 37.625 C-178.387 37.419 -177.211 37.213 -176 37 C-175.67 36.34 -175.34 35.68 -175 35 C-171.493 31.731 -168.912 30.072 -164.062 29.688 C-163.052 29.791 -162.041 29.894 -161 30 C-160.67 29.34 -160.34 28.68 -160 28 C-158.074 27.254 -158.074 27.254 -155.688 26.562 C-152.186 25.471 -149.91 24.231 -147 22 C-145.783 21.67 -144.566 21.34 -143.312 21 C-142.219 20.67 -141.126 20.34 -140 20 C-139.67 19.01 -139.34 18.02 -139 17 C-138.257 17.021 -137.515 17.041 -136.75 17.062 C-134.269 17.006 -132.329 16.832 -130 16 C-129.67 15.34 -129.34 14.68 -129 14 C-125.452 13.387 -121.901 13.039 -118.32 12.66 C-114.836 11.967 -114.26 11.481 -112 9 C-109.275 8.609 -106.769 8.864 -104 9 C-103.67 8.34 -103.34 7.68 -103 7 C-100.516 6.172 -98.648 6 -96 6 C-94.519 5.896 -93.04 5.77 -91.562 5.625 C-90.801 5.555 -90.039 5.486 -89.254 5.414 C-86.968 5.109 -86.968 5.109 -85 3.953 C-82.588 2.804 -81.079 2.919 -78.438 3.125 C-76.112 3.243 -76.112 3.243 -74 3 C-71.876 1.177 -71.876 1.177 -71 -1 C-70.134 -0.67 -69.267 -0.34 -68.375 0 C-65.043 0.987 -62.448 1.164 -59 1 C-58.67 0.01 -58.34 -0.98 -58 -2 C-54.896 -2.058 -51.792 -2.094 -48.688 -2.125 C-47.806 -2.142 -46.925 -2.159 -46.018 -2.176 C-45.17 -2.182 -44.322 -2.189 -43.449 -2.195 C-42.669 -2.206 -41.889 -2.216 -41.085 -2.227 C-39 -2 -39 -2 -36 0 C-36 -0.66 -36 -1.32 -36 -2 C-35.296 -1.988 -34.592 -1.977 -33.867 -1.965 C-26.902 -1.901 -20.066 -2.24 -13.129 -2.879 C-8.239 -3.068 -4.463 -1.913 0 0 Z " fill="#2F8999" transform="translate(528,114)"/>
<path d="M0 0 C1.625 1.375 1.625 1.375 2.625 3.375 C3.285 3.045 3.945 2.715 4.625 2.375 C7.557 8.662 9.104 14.182 9.449 21.125 C9.486 23.41 9.486 23.41 10.625 25.375 C18.064 27.756 25.899 28.429 33.625 29.375 C33.625 30.035 33.625 30.695 33.625 31.375 C34.945 31.375 36.265 31.375 37.625 31.375 C37.295 33.025 36.965 34.675 36.625 36.375 C35.782 36.508 34.939 36.641 34.07 36.777 C32.975 36.954 31.879 37.131 30.75 37.312 C29.659 37.487 28.569 37.661 27.445 37.84 C24.687 38.231 24.687 38.231 22.625 39.375 C20.254 39.605 17.878 39.786 15.5 39.938 C14.219 40.021 12.937 40.105 11.617 40.191 C10.63 40.252 9.642 40.313 8.625 40.375 C9.12 42.85 9.12 42.85 9.625 45.375 C8.965 45.375 8.305 45.375 7.625 45.375 C7.648 46.001 7.671 46.628 7.695 47.273 C7.713 48.091 7.731 48.908 7.75 49.75 C7.773 50.562 7.796 51.374 7.82 52.211 C7.625 54.375 7.625 54.375 5.625 56.375 C4.928 57.692 4.255 59.024 3.625 60.375 C2.635 60.375 1.645 60.375 0.625 60.375 C-2.37 61.398 -4.12 62.12 -6.375 64.375 C-6.375 62.375 -6.375 60.375 -6.375 58.375 C-8.316 58.651 -8.316 58.651 -10.375 59.375 C-11.035 60.365 -11.695 61.355 -12.375 62.375 C-13.984 60.766 -13.71 58.907 -13.91 56.684 C-14.041 55.267 -14.041 55.267 -14.174 53.822 C-14.304 52.332 -14.304 52.332 -14.438 50.812 C-14.528 49.815 -14.619 48.818 -14.713 47.791 C-14.938 45.319 -15.158 42.847 -15.375 40.375 C-18.345 40.375 -21.315 40.375 -24.375 40.375 C-24.375 39.715 -24.375 39.055 -24.375 38.375 C-25.37 38.566 -26.365 38.757 -27.391 38.953 C-31.498 39.536 -35.055 38.959 -39.125 38.125 C-41.066 37.746 -41.066 37.746 -43.047 37.359 C-46.169 36.436 -47.458 35.922 -49.375 33.375 C-42.483 30.116 -36.497 27.922 -28.855 27.559 C-26.518 27.386 -24.598 26.963 -22.375 26.25 C-19.375 25.375 -19.375 25.375 -16.375 26.375 C-16.193 25.215 -16.193 25.215 -16.008 24.031 C-13.413 7.905 -13.413 7.905 -11.188 4.625 C-10.589 4.213 -9.991 3.8 -9.375 3.375 C-8.844 3.002 -8.313 2.63 -7.766 2.246 C-3.055 -0.804 -3.055 -0.804 0 0 Z " fill="#469F9D" transform="translate(178.375,112.625)"/>
<path d="M0 0 C0.66 0.33 1.32 0.66 2 1 C1.518 4.178 0.722 6.645 -0.562 9.625 C-2.196 12.849 -2.196 12.849 -2 16 C-2.66 16 -3.32 16 -4 16 C-4.66 17.65 -5.32 19.3 -6 21 C-6.66 21 -7.32 21 -8 21 C-8.082 22.237 -8.165 23.475 -8.25 24.75 C-8.743 28.825 -9.949 30.226 -13 33 C-13.309 33.928 -13.619 34.856 -13.938 35.812 C-15.087 39.26 -16.664 41.453 -18.824 44.32 C-20.293 46.419 -21.192 48.577 -22 51 C-22.99 51 -23.98 51 -25 51 C-25.247 51.866 -25.495 52.732 -25.75 53.625 C-27.924 59.494 -31.832 64.166 -35.633 69.07 C-37.05 70.962 -37.05 70.962 -38.023 73.086 C-39.462 75.906 -41.773 77.773 -44 80 C-44.697 81.317 -45.37 82.649 -46 84 C-47.312 85.437 -47.312 85.437 -49 87 C-53.036 90.914 -56.719 95.05 -60.375 99.312 C-60.948 99.975 -61.521 100.638 -62.111 101.321 C-64.51 104.097 -66.899 106.88 -69.262 109.688 C-69.856 110.389 -70.45 111.09 -71.062 111.812 C-71.791 112.688 -71.791 112.688 -72.535 113.582 C-74.211 115.204 -75.917 115.977 -78 117 C-78.619 117.784 -79.237 118.567 -79.875 119.375 C-82 122 -82 122 -85.062 124 C-88.166 126.113 -89.124 127.844 -91 131 C-92.328 131.354 -93.662 131.685 -95 132 C-96.689 133.644 -98.353 135.314 -100 137 C-101.994 138.342 -103.993 139.677 -106 141 C-106.33 141.66 -106.66 142.32 -107 143 C-107.66 143 -108.32 143 -109 143 C-109.235 143.612 -109.469 144.225 -109.711 144.855 C-111.344 147.572 -112.734 148.082 -115.625 149.312 C-120.206 151.444 -123.578 153.963 -127.211 157.449 C-129.045 159.039 -130.843 159.921 -133 161 C-133.33 161.66 -133.66 162.32 -134 163 C-134.825 163.082 -135.65 163.165 -136.5 163.25 C-141.489 164.319 -144.894 167.074 -149 170 C-150.093 170.701 -151.186 171.403 -152.312 172.125 C-155.031 173.831 -155.031 173.831 -156.688 176.125 C-159.961 178.779 -163.238 179.002 -167.344 179.605 C-169.621 179.944 -171.781 180.398 -174 181 C-174 181.66 -174 182.32 -174 183 C-174.771 183.338 -175.542 183.675 -176.336 184.023 C-177.339 184.469 -178.342 184.915 -179.375 185.375 C-180.373 185.816 -181.37 186.257 -182.398 186.711 C-185.08 187.867 -185.08 187.867 -187 190 C-187.99 190.124 -188.98 190.247 -190 190.375 C-193.121 190.659 -193.121 190.659 -194.375 193.062 C-194.684 194.022 -194.684 194.022 -195 195 C-196.32 194.34 -197.64 193.68 -199 193 C-199.33 193.66 -199.66 194.32 -200 195 C-202.97 195 -205.94 195 -209 195 C-209 195.66 -209 196.32 -209 197 C-210.083 197.186 -210.083 197.186 -211.188 197.375 C-213.963 197.911 -213.963 197.911 -216.328 198.938 C-219.046 200.018 -221.743 200.849 -224.562 201.625 C-225.492 201.885 -226.421 202.146 -227.379 202.414 C-230 203 -230 203 -234 203 C-234 203.66 -234 204.32 -234 205 C-237.715 206.238 -240.843 205.982 -244.723 205.84 C-247.201 205.764 -247.201 205.764 -249 208 C-251.688 208.27 -254.291 208.087 -257 208 C-257 208.66 -257 209.32 -257 210 C-260.215 211.607 -263.436 211.057 -267 211 C-267 210.34 -267 209.68 -267 209 C-267.626 209.307 -268.253 209.614 -268.898 209.93 C-273.118 211.386 -277.191 211.753 -281.625 212.125 C-282.625 212.209 -283.626 212.293 -284.656 212.38 C-295.906 213.188 -307.164 213.188 -318.438 213.188 C-319.859 213.189 -319.859 213.189 -321.31 213.19 C-324.06 213.19 -326.809 213.181 -329.559 213.168 C-330.377 213.167 -331.195 213.166 -332.038 213.164 C-336.745 213.127 -341.321 212.787 -345.993 212.219 C-348.464 211.949 -350.883 211.918 -353.367 211.973 C-354.272 211.985 -355.177 211.997 -356.109 212.01 C-357.977 212.045 -359.844 212.085 -361.711 212.127 C-362.608 212.138 -363.505 212.149 -364.43 212.16 C-365.64 212.185 -365.64 212.185 -366.875 212.211 C-369 212 -369 212 -372 210 C-371.67 209.34 -371.34 208.68 -371 208 C-371.771 208.023 -372.542 208.046 -373.336 208.07 C-374.339 208.088 -375.342 208.106 -376.375 208.125 C-377.373 208.148 -378.37 208.171 -379.398 208.195 C-382 208 -382 208 -384 206 C-384.66 206.66 -385.32 207.32 -386 208 C-386 207.34 -386 206.68 -386 206 C-387.65 206 -389.3 206 -391 206 C-391 205.34 -391 204.68 -391 204 C-393.475 204.99 -393.475 204.99 -396 206 C-396.763 205.319 -397.526 204.639 -398.312 203.938 C-399.199 203.298 -400.086 202.659 -401 202 C-401.99 202.33 -402.98 202.66 -404 203 C-404.33 202.526 -404.66 202.051 -405 201.562 C-408.098 199.142 -411.12 199.318 -415 199 C-415 198.34 -415 197.68 -415 197 C-419.211 196.017 -423.394 195.686 -427.695 195.379 C-430 195 -430 195 -433 193 C-433 192.34 -433 191.68 -433 191 C-436.3 190.67 -439.6 190.34 -443 190 C-443.33 189.01 -443.66 188.02 -444 187 C-446.874 185.864 -449.771 185.063 -452.75 184.25 C-456.663 182.745 -459.998 180.672 -463.535 178.438 C-466.894 176.479 -470.321 175.226 -474 174 C-474 173.34 -474 172.68 -474 172 C-475.32 171.67 -476.64 171.34 -478 171 C-478 170.34 -478 169.68 -478 169 C-479.609 168.567 -479.609 168.567 -481.25 168.125 C-484.094 167.272 -486.435 166.436 -489 165 C-489 164.34 -489 163.68 -489 163 C-490.65 163 -492.3 163 -494 163 C-494 162.34 -494 161.68 -494 161 C-494.66 161 -495.32 161 -496 161 C-496.33 161.66 -496.66 162.32 -497 163 C-497.218 162.25 -497.436 161.5 -497.66 160.727 C-499.357 157.274 -501.138 156.294 -504.438 154.375 C-509.761 151.242 -509.761 151.242 -511.617 149.363 C-513.932 147.081 -516.919 146.756 -520 146 C-520 145.01 -520 144.02 -520 143 C-522.376 141.391 -522.376 141.391 -525 140 C-525.66 139.34 -526.32 138.68 -527 138 C-527.681 137.691 -528.361 137.381 -529.062 137.062 C-531 136 -531 136 -532 133 C-534 131.791 -534 131.791 -536 131 C-536 130.34 -536 129.68 -536 129 C-537.207 128.629 -537.207 128.629 -538.438 128.25 C-541 127 -541 127 -541.812 124.875 C-541.874 124.256 -541.936 123.638 -542 123 C-538.915 124.383 -536.76 125.994 -534.312 128.312 C-513.107 147.449 -488 163.653 -462.226 175.935 C-460.706 176.662 -459.191 177.399 -457.681 178.144 C-428.395 192.556 -396.542 201.727 -364.375 206.812 C-363.709 206.918 -363.043 207.024 -362.357 207.133 C-304.918 216.117 -243.584 208.246 -190 186 C-189.026 185.598 -188.052 185.196 -187.048 184.782 C-158.668 172.961 -132.151 158.09 -108 139 C-107.394 138.522 -106.788 138.045 -106.163 137.553 C-86.173 121.746 -66.598 104.219 -51 84 C-50.126 82.946 -49.248 81.896 -48.367 80.848 C-28.201 56.671 -12.225 28.946 0 0 Z " fill="#E06C71" transform="translate(826,589)"/>
<path d="M0 0 C1.339 1.662 2.671 3.33 4 5 C4.557 5.598 5.114 6.196 5.688 6.812 C7.651 10.085 7.628 13.217 8 17 C8.33 17.33 8.66 17.66 9 18 C9.396 20.013 9.743 22.036 10.062 24.062 C10.239 25.167 10.416 26.272 10.598 27.41 C10.797 28.692 10.797 28.692 11 30 C15.321 31.466 19.636 32.904 24.02 34.172 C24.726 34.38 25.432 34.589 26.16 34.804 C27.575 35.22 28.993 35.627 30.414 36.022 C34.603 37.269 37.205 38.616 40 42 C36.905 43.548 33.633 43.444 30.215 43.719 C28.029 43.767 28.029 43.767 27 45 C24.647 45.073 22.292 45.084 19.938 45.062 C18.647 45.053 17.357 45.044 16.027 45.035 C15.028 45.024 14.029 45.012 13 45 C13.021 46.279 13.041 47.558 13.062 48.875 C13.125 52.75 13.125 52.75 12 55 C11.01 55 10.02 55 9 55 C8.691 55.784 8.381 56.567 8.062 57.375 C7 60 7 60 6 62 C5.34 62 4.68 62 4 62 C3.34 64.64 2.68 67.28 2 70 C0.68 69.34 -0.64 68.68 -2 68 C-2 60.08 -2 52.16 -2 44 C-4.31 43.67 -6.62 43.34 -9 43 C-11.126 42.675 -13.251 42.342 -15.375 42 C-16.414 41.835 -17.453 41.67 -18.523 41.5 C-21 41 -21 41 -22 40 C-23.351 39.84 -24.706 39.723 -26.062 39.625 C-30.798 39.162 -34.621 37.831 -39 36 C-39 35.34 -39 34.68 -39 34 C-27.055 29.88 -15.491 29.848 -3 30 C-3.023 28.828 -3.046 27.656 -3.07 26.449 C-3.309 9.073 -3.309 9.073 -1 1 C-0.67 0.67 -0.34 0.34 0 0 Z " fill="#D1E889" transform="translate(787,89)"/>
<path d="M0 0 C2.875 0.625 2.875 0.625 6 2 C7.188 4.438 7.188 4.438 8 8 C8.49 9.919 8.991 11.836 9.5 13.75 C9.737 14.694 9.974 15.637 10.219 16.609 C10.85 19.152 10.85 19.152 13 21 C13.4 23.323 13.74 25.657 14 28 C14.66 28 15.32 28 16 28 C18.085 34.671 19.073 40.976 19 48 C19.617 48.049 20.235 48.098 20.871 48.148 C26.035 48.604 30.922 49.377 35.957 50.598 C38.215 51.111 38.215 51.111 41.438 51 C42.283 51 43.129 51 44 51 C44.66 51.66 45.32 52.32 46 53 C48.323 53.4 50.657 53.74 53 54 C53 54.66 53 55.32 53 56 C55.31 56 57.62 56 60 56 C60.33 56.66 60.66 57.32 61 58 C58.36 58.33 55.72 58.66 53 59 C54.98 59.66 56.96 60.32 59 61 C56.458 63.542 55.482 63.309 51.938 63.5 C50.798 63.571 49.658 63.642 48.484 63.715 C47.806 63.756 47.127 63.797 46.428 63.839 C41.177 64.187 35.933 64.636 30.688 65.062 C28.462 65.241 26.237 65.42 24.012 65.598 C22.341 65.732 20.671 65.866 19 66 C18.986 66.869 18.972 67.738 18.957 68.633 C18.661 75.788 18.374 79.865 13 85 C11.891 86.354 10.808 87.73 9.75 89.125 C9.25 89.767 8.75 90.409 8.234 91.07 C6.882 92.941 6.882 92.941 6.516 95.18 C6.345 95.78 6.175 96.381 6 97 C5.01 97.33 4.02 97.66 3 98 C2.01 97.505 2.01 97.505 1 97 C1 95.68 1 94.36 1 93 C0.34 93 -0.32 93 -1 93 C-1.66 85.41 -2.32 77.82 -3 70 C-3.33 70 -3.66 70 -4 70 C-4 68.02 -4 66.04 -4 64 C-4.99 63.505 -4.99 63.505 -6 63 C-5.505 62.01 -5.505 62.01 -5 61 C-6.065 61.292 -6.065 61.292 -7.152 61.59 C-10.436 62.063 -12.413 61.548 -15.562 60.562 C-19.034 59.489 -21.301 59 -25 59 C-25 58.34 -25 57.68 -25 57 C-25.641 56.951 -26.281 56.902 -26.941 56.852 C-32.212 56.396 -36.97 55.64 -42 54 C-42.33 52.68 -42.66 51.36 -43 50 C-33.543 45.477 -24.692 44.774 -14.333 44.986 C-10.396 45.058 -6.849 44.991 -3 44 C-3.182 43.12 -3.364 42.239 -3.551 41.332 C-4.385 35.457 -3.658 29.572 -3.188 23.688 C-3.104 22.515 -3.021 21.343 -2.936 20.135 C-2.412 13.294 -1.551 6.685 0 0 Z M3 17 C-0.147 23.923 -0.141 30.982 -0.062 38.438 C-0.058 39.264 -0.053 40.091 -0.049 40.943 C-0.037 42.962 -0.019 44.981 0 47 C-0.955 46.988 -1.91 46.977 -2.895 46.965 C-14.429 46.884 -24.978 47.199 -36 51 C-36 51.66 -36 52.32 -36 53 C-30.908 55.129 -26.571 56.29 -21.086 56.758 C-18.229 57.09 -15.706 58.042 -13 59 C-8.165 60.267 -4.043 61 1 61 C1 68.92 1 76.84 1 85 C2.32 85.66 3.64 86.32 5 87 C5.66 84.36 6.32 81.72 7 79 C7.66 79 8.32 79 9 79 C11.316 75.779 11.316 75.779 12 72 C12.99 72 13.98 72 15 72 C16.144 69.713 16.103 68.407 16.062 65.875 C16.042 64.596 16.021 63.317 16 62 C16.999 62.012 17.998 62.023 19.027 62.035 C20.318 62.044 21.608 62.053 22.938 62.062 C24.225 62.074 25.513 62.086 26.84 62.098 C29.863 62.365 29.863 62.365 31 61 C33.548 60.717 36.095 60.552 38.652 60.379 C41.185 60.205 41.185 60.205 43 58 C38.792 54.942 35.288 53.26 30.188 51.938 C24.711 50.468 19.359 48.848 14 47 C13.801 45.718 13.801 45.718 13.598 44.41 C13.421 43.305 13.244 42.201 13.062 41.062 C12.888 39.96 12.714 38.858 12.535 37.723 C12.282 35.096 12.282 35.096 11 34 C10.938 32.845 10.876 31.69 10.812 30.5 C10.237 25.112 7.364 21.129 4 17 C3.67 17 3.34 17 3 17 Z " fill="#3E9D9F" transform="translate(784,72)"/>
<path d="M0 0 C1.812 1.25 1.812 1.25 2.812 3.25 C2.882 4.957 2.897 6.667 2.875 8.375 C2.866 9.285 2.857 10.195 2.848 11.133 C2.836 11.831 2.824 12.53 2.812 13.25 C3.898 13.36 4.983 13.469 6.102 13.582 C7.547 13.742 8.992 13.902 10.438 14.062 C11.15 14.133 11.863 14.203 12.598 14.275 C17.199 14.803 20.825 15.716 24.812 18.25 C25.308 19.735 25.308 19.735 25.812 21.25 C11.216 24.51 11.216 24.51 3.812 25.25 C3.68 26.177 3.547 27.104 3.41 28.059 C3.234 29.256 3.057 30.454 2.875 31.688 C2.701 32.882 2.527 34.077 2.348 35.309 C1.812 38.25 1.812 38.25 0.812 39.25 C-2.524 39.393 -5.847 39.292 -9.188 39.25 C-9.847 34.63 -10.507 30.01 -11.188 25.25 C-14.591 24.848 -14.591 24.848 -18.062 24.438 C-24.33 23.648 -30.213 22.359 -36.188 20.25 C-32.507 15.956 -27.578 15.196 -22.188 14.25 C-17.839 14.024 -13.536 14.063 -9.188 14.25 C-9.222 13.563 -9.257 12.876 -9.293 12.168 C-9.32 11.267 -9.347 10.366 -9.375 9.438 C-9.427 8.098 -9.427 8.098 -9.48 6.73 C-9.188 4.25 -9.188 4.25 -7.797 2.508 C-3.189 -1.093 -3.189 -1.093 0 0 Z " fill="#D3E988" transform="translate(178.1875,126.75)"/>
<path d="M0 0 C-0.319 3.72 -0.817 4.83 -3.625 7.438 C-4.409 8.283 -5.192 9.129 -6 10 C-5.822 12.984 -5.822 12.984 -5 16 C-5.308 18.004 -5.637 20.005 -6 22 C-5.505 22.99 -5.505 22.99 -5 24 C-5.825 27.216 -6.572 28.679 -9.25 30.688 C-14.01 32.959 -17.753 34 -23 34 C-23.66 34.66 -24.32 35.32 -25 36 C-27.625 36.625 -27.625 36.625 -30 37 C-30 37.99 -30 38.98 -30 40 C-29.113 39.979 -28.226 39.959 -27.312 39.938 C-24.355 39.993 -21.882 40.424 -19 41 C-18.01 40.979 -17.02 40.959 -16 40.938 C-12.759 41.005 -10.843 41.463 -8 43 C-5.036 46.166 -4.582 48.49 -4.418 52.77 C-4.372 53.9 -4.326 55.03 -4.279 56.194 C-4.249 57.388 -4.219 58.582 -4.188 59.812 C-4.149 61.024 -4.11 62.235 -4.071 63.484 C-3.865 72.192 -4.269 80.457 -6 89 C-6.99 88.505 -6.99 88.505 -8 88 C-8.475 85.579 -8.808 83.26 -9.062 80.812 C-9.145 80.075 -9.227 79.338 -9.312 78.578 C-10.336 68.751 -10.661 58.871 -11 49 C-13.92 48.402 -16.844 47.847 -19.777 47.316 C-20.456 47.193 -21.135 47.07 -21.834 46.943 C-23.232 46.69 -24.63 46.44 -26.029 46.193 C-30.164 45.437 -34.041 44.402 -38 43 C-38.743 42.835 -39.485 42.67 -40.25 42.5 C-42 42 -42 42 -44 40 C-40.535 39.505 -40.535 39.505 -37 39 C-37.495 37.515 -37.495 37.515 -38 36 C-39.65 35.67 -41.3 35.34 -43 35 C-41.02 34.505 -41.02 34.505 -39 34 C-39 33.34 -39 32.68 -39 32 C-38.41 31.884 -37.82 31.768 -37.212 31.649 C-34.537 31.122 -31.862 30.592 -29.188 30.062 C-28.259 29.88 -27.33 29.698 -26.373 29.51 C-25.48 29.333 -24.588 29.155 -23.668 28.973 C-22.435 28.729 -22.435 28.729 -21.177 28.481 C-18.838 28.004 -18.838 28.004 -16 27 C-13.812 27.438 -13.812 27.438 -12 28 C-11.986 26.721 -11.972 25.442 -11.957 24.125 C-11.91 22.417 -11.862 20.708 -11.812 19 C-11.807 18.161 -11.801 17.322 -11.795 16.457 C-11.584 10.42 -10.326 5.446 -6 1 C-3.872 0.256 -2.249 0 0 0 Z " fill="#F5AE73" transform="translate(193,725)"/>
<path d="M0 0 C0.99 0.495 0.99 0.495 2 1 C1.347 1.381 0.695 1.762 0.022 2.155 C-22.773 15.516 -45.047 29.745 -64.523 47.734 C-66.565 49.602 -68.635 51.413 -70.73 53.219 C-75.312 57.219 -79.64 61.448 -83.938 65.75 C-84.731 66.544 -85.524 67.338 -86.342 68.157 C-91.195 73.06 -95.763 78.007 -100.008 83.449 C-102.213 86.273 -104.54 88.97 -106.875 91.688 C-140.506 132.076 -162.028 182.992 -173 234 C-173.33 234 -173.66 234 -174 234 C-173.699 226.695 -173.344 220.026 -170.699 213.176 C-169.43 209.227 -169.249 205.12 -169 201 C-168.01 201 -167.02 201 -166 201 C-166.041 199.928 -166.083 198.855 -166.125 197.75 C-166.009 194.269 -165.707 192.881 -164 190 C-164 189.34 -164 188.68 -164 188 C-163.34 188 -162.68 188 -162 188 C-161.856 187.278 -161.711 186.556 -161.562 185.812 C-161.042 183.208 -160.521 180.604 -160 178 C-159.34 178 -158.68 178 -158 178 C-158.319 177.155 -158.319 177.155 -158.645 176.293 C-159.119 173.23 -158.239 171.956 -156.688 169.312 C-156.238 168.525 -155.788 167.737 -155.324 166.926 C-154 165 -154 165 -152 164 C-151.621 162.343 -151.297 160.673 -151 159 C-150.356 156.993 -149.694 154.991 -149 153 C-148.34 153 -147.68 153 -147 153 C-146.732 151.969 -146.464 150.938 -146.188 149.875 C-144.468 143.918 -141.41 138.949 -137.988 133.832 C-136.763 131.907 -136.763 131.907 -137 129 C-136.01 129 -135.02 129 -134 129 C-134.33 128.01 -134.66 127.02 -135 126 C-134.34 126 -133.68 126 -133 126 C-131.785 123.664 -130.804 121.434 -129.938 118.938 C-127.954 114.178 -124.486 110.522 -121.156 106.648 C-118.941 104.067 -118.941 104.067 -117.344 101.164 C-116.679 100.093 -116.679 100.093 -116 99 C-115.34 99 -114.68 99 -114 99 C-113.34 97.02 -112.68 95.04 -112 93 C-111.34 93 -110.68 93 -110 93 C-109.762 92.294 -109.523 91.587 -109.277 90.859 C-107.785 87.519 -105.885 85.073 -103.562 82.25 C-102.78 81.286 -101.998 80.322 -101.191 79.328 C-99 77 -99 77 -96 76 C-95.505 74.515 -95.505 74.515 -95 73 C-94.34 73 -93.68 73 -93 73 C-93 72.34 -93 71.68 -93 71 C-90.625 68.375 -90.625 68.375 -88 66 C-87.34 66 -86.68 66 -86 66 C-86 65.34 -86 64.68 -86 64 C-85.01 63.34 -84.02 62.68 -83 62 C-82.67 61.01 -82.34 60.02 -82 59 C-81.01 59 -80.02 59 -79 59 C-79.33 58.01 -79.66 57.02 -80 56 C-79.072 55.608 -78.144 55.216 -77.188 54.812 C-73.68 52.818 -72.99 51.374 -71 48 C-68.312 46.688 -68.312 46.688 -66 46 C-66 45.34 -66 44.68 -66 44 C-62 40 -62 40 -59.125 38.625 C-55.984 37.191 -55.984 37.191 -53.938 34.938 C-51.766 32.766 -49.887 31.962 -47 31 C-47 30.34 -47 29.68 -47 29 C-46.01 28.505 -46.01 28.505 -45 28 C-44.344 25.473 -44.344 25.473 -44 23 C-43.01 23 -42.02 23 -41 23 C-37.112 22.502 -35.045 21.415 -32 19 C-31.34 19 -30.68 19 -30 19 C-29.814 18.423 -29.629 17.845 -29.438 17.25 C-27.694 14.521 -25.637 13.498 -22.812 12.016 C-20.747 10.923 -20.747 10.923 -18.188 8.75 C-15.4 6.52 -14.546 7 -11 7 C-10.67 6.34 -10.34 5.68 -10 5 C-7.785 3.676 -7.785 3.676 -5.062 2.312 C-3.719 1.626 -3.719 1.626 -2.348 0.926 C-1.186 0.468 -1.186 0.468 0 0 Z " fill="#358A9A" transform="translate(348,153)"/>
<path d="M0 0 C1.339 1.662 2.671 3.33 4 5 C4.557 5.598 5.114 6.196 5.688 6.812 C7.651 10.085 7.628 13.217 8 17 C8.33 17.33 8.66 17.66 9 18 C9.396 20.013 9.743 22.036 10.062 24.062 C10.239 25.167 10.416 26.272 10.598 27.41 C10.797 28.692 10.797 28.692 11 30 C15.321 31.466 19.636 32.904 24.02 34.172 C24.726 34.38 25.432 34.589 26.16 34.804 C27.575 35.22 28.993 35.627 30.414 36.022 C34.603 37.269 37.205 38.616 40 42 C36.905 43.548 33.633 43.444 30.215 43.719 C28.029 43.767 28.029 43.767 27 45 C24.647 45.073 22.292 45.084 19.938 45.062 C18.647 45.053 17.357 45.044 16.027 45.035 C15.028 45.024 14.029 45.012 13 45 C13 44.67 13 44.34 13 44 C13.58 43.951 14.16 43.902 14.758 43.852 C19.411 43.406 23.654 42.847 28 41 C28.495 40.01 28.495 40.01 29 39 C27.422 38.845 27.422 38.845 25.812 38.688 C22.065 38.012 20.135 37.034 17 35 C14.809 34.304 14.809 34.304 13 34 C13 33.34 13 32.68 13 32 C12.072 31.783 12.072 31.783 11.125 31.562 C9 31 9 31 7 30 C6.361 27.302 5.832 24.666 5.375 21.938 C5.174 20.8 5.174 20.8 4.969 19.639 C4.638 17.76 4.318 15.88 4 14 C3.34 15.32 2.68 16.64 2 18 C2 16.68 2 15.36 2 14 C1.34 14.33 0.68 14.66 0 15 C-0.476 17.706 -0.841 20.336 -1.125 23.062 C-1.211 23.821 -1.298 24.58 -1.387 25.361 C-1.599 27.24 -1.801 29.12 -2 31 C-13.522 33.296 -13.522 33.296 -19 33 C-19.33 34.65 -19.66 36.3 -20 38 C-19.237 38.289 -18.474 38.578 -17.688 38.875 C-15 40 -15 40 -12 42 C-13.48 41.86 -14.959 41.712 -16.438 41.562 C-17.261 41.481 -18.085 41.4 -18.934 41.316 C-21 41 -21 41 -22 40 C-23.351 39.84 -24.706 39.723 -26.062 39.625 C-30.798 39.162 -34.621 37.831 -39 36 C-39 35.34 -39 34.68 -39 34 C-27.055 29.88 -15.491 29.848 -3 30 C-3.023 28.828 -3.046 27.656 -3.07 26.449 C-3.309 9.073 -3.309 9.073 -1 1 C-0.67 0.67 -0.34 0.34 0 0 Z " fill="#9FCE95" transform="translate(787,89)"/>
<path d="M0 0 C2.875 0.625 2.875 0.625 6 2 C8.016 6.127 8.456 10.466 9 15 C6.722 12.831 4.865 10.528 3 8 C1.116 16.567 0.593 24.935 0.375 33.688 C0.336 34.973 0.298 36.259 0.258 37.584 C0.164 40.723 0.079 43.861 0 47 C-0.761 47.05 -1.523 47.1 -2.307 47.152 C-5.768 47.384 -9.228 47.63 -12.688 47.875 C-13.886 47.954 -15.084 48.032 -16.318 48.113 C-17.475 48.197 -18.632 48.281 -19.824 48.367 C-20.887 48.441 -21.95 48.514 -23.046 48.589 C-25.996 48.999 -28.272 49.846 -31 51 C-33.812 51.125 -33.812 51.125 -36 51 C-36 51.66 -36 52.32 -36 53 C-34.866 53.144 -33.731 53.289 -32.562 53.438 C-29 54 -29 54 -28 55 C-26.609 55.185 -25.211 55.323 -23.812 55.438 C-19.943 55.827 -16.676 56.698 -13 58 C-10.723 58.551 -8.44 59.049 -6.148 59.535 C-4.089 59.981 -2.044 60.489 0 61 C0.33 71.56 0.66 82.12 1 93 C0.34 93 -0.32 93 -1 93 C-1.66 85.41 -2.32 77.82 -3 70 C-3.33 70 -3.66 70 -4 70 C-4 68.02 -4 66.04 -4 64 C-4.99 63.505 -4.99 63.505 -6 63 C-5.505 62.01 -5.505 62.01 -5 61 C-6.065 61.292 -6.065 61.292 -7.152 61.59 C-10.436 62.063 -12.413 61.548 -15.562 60.562 C-19.034 59.489 -21.301 59 -25 59 C-25 58.34 -25 57.68 -25 57 C-25.641 56.951 -26.281 56.902 -26.941 56.852 C-32.212 56.396 -36.97 55.64 -42 54 C-42.33 52.68 -42.66 51.36 -43 50 C-33.543 45.477 -24.692 44.774 -14.333 44.986 C-10.396 45.058 -6.849 44.991 -3 44 C-3.182 43.12 -3.364 42.239 -3.551 41.332 C-4.385 35.457 -3.658 29.572 -3.188 23.688 C-3.104 22.515 -3.021 21.343 -2.936 20.135 C-2.412 13.294 -1.551 6.685 0 0 Z " fill="#41A09F" transform="translate(784,72)"/>
<path d="M0 0 C1.145 1.207 1.145 1.207 2.312 2.438 C4.794 5.168 4.794 5.168 8 6 C8.688 8.062 8.688 8.062 9 10 C9.66 10 10.32 10 11 10 C12.034 11.646 13.028 13.317 14 15 C15.966 17.687 17.689 19.771 20.375 21.75 C24.071 24.918 26.622 28.766 29 33 C29 33.66 29 34.32 29 35 C29.66 35 30.32 35 31 35 C35 39.353 35 39.353 35 43 C35.99 43.33 36.98 43.66 38 44 C39.899 46.991 41.518 50.089 43.184 53.215 C45.082 56.126 46.003 56.583 49 58 C49.871 59.918 49.871 59.918 50.438 62.188 C51.616 66.205 53.189 68.884 55.727 72.168 C58.22 75.755 61 80.553 61 85 C61.99 85.495 61.99 85.495 63 86 C63 86.99 63 87.98 63 89 C63.66 89 64.32 89 65 89 C65 90.32 65 91.64 65 93 C65.66 93.33 66.32 93.66 67 94 C68.575 96.626 69 97.871 69 101 C69.66 101 70.32 101 71 101 C71.718 102.914 72.435 104.828 73.152 106.742 C73.889 108.705 74.632 110.665 75.375 112.625 C76.363 115.243 77.305 117.871 78.23 120.512 C78.45 121.137 78.669 121.762 78.895 122.406 C79.539 124.245 80.178 126.085 80.816 127.926 C81.911 131.104 81.911 131.104 84 134 C84.165 135.031 84.33 136.062 84.5 137.125 C84.665 138.074 84.83 139.023 85 140 C85.66 140.33 86.32 140.66 87 141 C87 142.32 87 143.64 87 145 C87.416 147.071 87.879 149.134 88.375 151.188 C88.787 152.914 88.787 152.914 89.207 154.676 C89.469 155.773 89.73 156.87 90 158 C90.358 159.624 90.713 161.249 91.062 162.875 C91.635 165.493 92.294 167.986 93.062 170.562 C94.097 174.357 94.589 178.102 95 182 C95.459 185.803 95.933 189.596 96.562 193.375 C97.113 197.935 97.083 202.414 97 207 C96.67 207 96.34 207 96 207 C95.905 206.338 95.81 205.676 95.712 204.994 C85.038 131.357 57.17 64.952 6.242 10.004 C5.42 9.116 4.597 8.228 3.75 7.312 C3.023 6.546 2.296 5.779 1.547 4.988 C0 3 0 3 0 0 Z " fill="#488594" transform="translate(757,215)"/>
<path d="M0 0 C0.99 0.495 0.99 0.495 2 1 C1.518 4.178 0.722 6.645 -0.562 9.625 C-2.196 12.849 -2.196 12.849 -2 16 C-2.66 16 -3.32 16 -4 16 C-4.66 17.65 -5.32 19.3 -6 21 C-6.66 21 -7.32 21 -8 21 C-8.082 22.237 -8.165 23.475 -8.25 24.75 C-8.743 28.825 -9.949 30.226 -13 33 C-13.464 34.392 -13.464 34.392 -13.938 35.812 C-15.087 39.26 -16.664 41.453 -18.824 44.32 C-20.293 46.419 -21.192 48.577 -22 51 C-22.99 51 -23.98 51 -25 51 C-25.247 51.866 -25.495 52.732 -25.75 53.625 C-27.924 59.494 -31.832 64.166 -35.633 69.07 C-37.05 70.962 -37.05 70.962 -38.023 73.086 C-39.462 75.906 -41.773 77.773 -44 80 C-44.697 81.317 -45.37 82.649 -46 84 C-47.312 85.438 -47.312 85.438 -49 87 C-53.036 90.914 -56.719 95.05 -60.375 99.312 C-60.948 99.975 -61.521 100.638 -62.111 101.321 C-64.51 104.097 -66.899 106.88 -69.262 109.688 C-69.856 110.389 -70.45 111.09 -71.062 111.812 C-71.548 112.396 -72.034 112.98 -72.535 113.582 C-74.224 115.217 -75.874 116.018 -78 117 C-79.485 117.99 -79.485 117.99 -81 119 C-81 116 -81 116 -79.215 113.906 C-78.393 113.112 -77.57 112.318 -76.723 111.5 C-75.816 110.612 -74.909 109.724 -73.975 108.809 C-73.005 107.872 -72.034 106.935 -71.062 106 C-63.842 99.016 -57.237 91.876 -51 84 C-50.024 82.826 -49.044 81.655 -48.059 80.488 C-28.033 56.408 -12.161 28.794 0 0 Z " fill="#C87078" transform="translate(826,589)"/>
<path d="M0 0 C0.66 0 1.32 0 2 0 C8.462 9.834 6.122 24.644 6 36 C7.207 36.133 8.413 36.266 9.656 36.402 C13.064 36.828 16.22 37.515 19.5 38.562 C20.356 38.832 21.212 39.101 22.094 39.379 C22.723 39.584 23.352 39.789 24 40 C24 40.66 24 41.32 24 42 C25.98 42 27.96 42 30 42 C30.33 42.66 30.66 43.32 31 44 C14.385 44 14.385 44 10.312 43.125 C9.525 42.963 8.737 42.8 7.926 42.633 C7.29 42.424 6.655 42.215 6 42 C5.67 41.34 5.34 40.68 5 40 C3.348 39.298 1.681 38.63 0 38 C-1 37 -1 37 -1.022 33.49 C-0.979 31.929 -0.931 30.369 -0.879 28.809 C-0.855 27.989 -0.832 27.169 -0.807 26.324 C-0.731 23.695 -0.647 21.066 -0.562 18.438 C-0.509 16.66 -0.457 14.882 -0.404 13.104 C-0.275 8.735 -0.139 4.368 0 0 Z " fill="#EA8773" transform="translate(199,717)"/>
<path d="M0 0 C0.99 0.33 1.98 0.66 3 1 C0.176 3.929 -2.722 6.584 -6 9 C-6.66 9 -7.32 9 -8 9 C-9.381 13.477 -9.371 18.132 -9.605 22.775 C-9.898 27.898 -9.898 27.898 -11 29 C-12.995 29.326 -14.996 29.611 -17 29.875 C-22.651 30.697 -27.658 32.008 -33 34 C-26.565 36.399 -20.434 37.672 -13.625 38.57 C-11 39 -11 39 -10 40 C-9.843 41.706 -9.749 43.417 -9.684 45.129 C-9.642 46.163 -9.6 47.198 -9.557 48.264 C-9.517 49.352 -9.478 50.441 -9.438 51.562 C-9.394 52.655 -9.351 53.747 -9.307 54.873 C-9.2 57.582 -9.098 60.291 -9 63 C-9.99 62.505 -9.99 62.505 -11 62 C-11.411 59.959 -11.411 59.959 -11.633 57.309 C-11.717 56.364 -11.8 55.42 -11.887 54.447 C-11.965 53.454 -12.044 52.461 -12.125 51.438 C-12.211 50.44 -12.298 49.443 -12.387 48.416 C-12.6 45.945 -12.804 43.473 -13 41 C-15.97 41 -18.94 41 -22 41 C-22 40.34 -22 39.68 -22 39 C-22.995 39.191 -23.99 39.382 -25.016 39.578 C-29.123 40.161 -32.68 39.584 -36.75 38.75 C-38.691 38.371 -38.691 38.371 -40.672 37.984 C-43.794 37.061 -45.083 36.547 -47 34 C-40.108 30.741 -34.122 28.547 -26.48 28.184 C-24.143 28.011 -22.223 27.588 -20 26.875 C-17 26 -17 26 -14 27 C-13.818 25.84 -13.818 25.84 -13.633 24.656 C-11.038 8.53 -11.038 8.53 -8.812 5.25 C-5.934 3.265 -3.14 1.57 0 0 Z " fill="#4BA29D" transform="translate(176,112)"/>
<path d="M0 0 C1.114 -0.165 2.227 -0.33 3.375 -0.5 C6.929 -0.99 9.522 -0.763 13 0 C8.969 4.926 2.722 5.307 -3.25 6.062 C-7.778 6.523 -7.778 6.523 -12 8 C-12.435 10.775 -12.435 10.775 -12.562 14.062 C-12.637 15.238 -12.712 16.414 -12.789 17.625 C-12.859 18.739 -12.928 19.852 -13 21 C-13.567 27.719 -15.02 31.895 -19.125 37.25 C-19.664 37.956 -20.203 38.663 -20.758 39.391 C-21.168 39.922 -21.578 40.453 -22 41 C-22.586 39.152 -22.586 39.152 -23 37 C-22.045 35.307 -21.041 33.641 -20 32 C-19.293 29.307 -19.293 29.307 -19 27 C-20.32 27.99 -21.64 28.98 -23 30 C-21.848 27.532 -20.952 25.952 -19 24 C-18.88 21.155 -18.86 18.402 -18.938 15.562 C-19.121 7.364 -19.121 7.364 -18 4 C-12.847 -0.026 -6.277 -1.674 0 0 Z " fill="#F39A71" transform="translate(217,766)"/>
<path d="M0 0 C-0.125 1.75 -0.125 1.75 -1 4 C-2.993 5.343 -4.994 6.676 -7 8 C-8.006 9.663 -9.007 11.329 -10 13 C-11.328 13.354 -12.662 13.685 -14 14 C-15.689 15.644 -17.353 17.314 -19 19 C-20.994 20.342 -22.993 21.677 -25 23 C-25.33 23.66 -25.66 24.32 -26 25 C-26.66 25 -27.32 25 -28 25 C-28.235 25.612 -28.469 26.225 -28.711 26.855 C-30.344 29.572 -31.734 30.082 -34.625 31.312 C-39.206 33.444 -42.578 35.963 -46.211 39.449 C-48.045 41.039 -49.843 41.921 -52 43 C-52.495 43.99 -52.495 43.99 -53 45 C-53.825 45.082 -54.65 45.165 -55.5 45.25 C-60.489 46.319 -63.894 49.074 -68 52 C-69.093 52.701 -70.186 53.403 -71.312 54.125 C-74.031 55.831 -74.031 55.831 -75.688 58.125 C-78.943 60.765 -82.143 60.949 -86.227 61.562 C-89.606 62.096 -92.737 62.985 -96 64 C-93.242 60.574 -89.415 59.227 -85.5 57.5 C-55.569 43.811 -27.584 23.747 -3.602 1.293 C-2 0 -2 0 0 0 Z " fill="#DA6C72" transform="translate(745,707)"/>
<path d="M0 0 C0 1.65 0 3.3 0 5 C0.66 5 1.32 5 2 5 C3.629 9.448 4.505 13.683 5.125 18.375 C5.293 19.62 5.46 20.865 5.633 22.148 C5.754 23.089 5.875 24.03 6 25 C8.31 25.33 10.62 25.66 13 26 C13 26.33 13 26.66 13 27 C11.762 27.021 10.525 27.041 9.25 27.062 C8.554 27.074 7.858 27.086 7.141 27.098 C4.967 26.998 3.087 26.597 1 26 C0.951 25.313 0.902 24.626 0.852 23.918 C0.777 23.017 0.702 22.116 0.625 21.188 C0.555 20.294 0.486 19.401 0.414 18.48 C0.134 15.756 0.134 15.756 -2 13 C-3.98 13.33 -5.96 13.66 -8 14 C-8.33 14.99 -8.66 15.98 -9 17 C-9.66 17 -10.32 17 -11 17 C-11 20.3 -11 23.6 -11 27 C-12.32 26.67 -13.64 26.34 -15 26 C-14.886 23.582 -14.759 21.167 -14.625 18.75 C-14.594 18.068 -14.563 17.386 -14.531 16.684 C-14.138 9.939 -14.138 9.939 -12 7 C-9.688 5.078 -9.688 5.078 -7 3.25 C-6.113 2.636 -5.226 2.023 -4.312 1.391 C-2 0 -2 0 0 0 Z " fill="#5EAC9B" transform="translate(180,114)"/>
<path d="M0 0 C2.596 2.318 3.946 4.598 5.426 7.734 C5.885 8.689 6.345 9.645 6.818 10.629 C7.311 11.659 7.804 12.689 8.312 13.75 C20.229 38.069 35.07 60.387 52.437 81.128 C53.899 82.879 55.343 84.643 56.785 86.41 C65.787 97.307 75.918 107.113 86 117 C82.068 117 80.836 115.606 78 113 C78 112.34 78 111.68 78 111 C77.34 111 76.68 111 76 111 C74.59 109.566 74.59 109.566 72.938 107.562 C69.458 103.446 65.711 99.707 61.82 95.98 C60 94 60 94 59 91 C58.34 91 57.68 91 57 91 C57 90.34 57 89.68 57 89 C56.01 88.67 55.02 88.34 54 88 C53.077 86.667 52.165 85.327 51.305 83.953 C48.174 79.267 44.591 74.482 40.516 70.578 C38.279 68.249 36.602 65.62 34.812 62.938 C33.739 61.342 33.739 61.342 32.645 59.715 C31 57 31 57 31 55 C29.515 55.495 29.515 55.495 28 56 C27.732 55.031 27.464 54.061 27.188 53.062 C26.796 52.052 26.404 51.041 26 50 C24.515 49.505 24.515 49.505 23 49 C21.938 45.812 21.938 45.812 21 42 C20.344 39.996 19.681 37.995 19 36 C18.01 36 17.02 36 16 36 C14 31 12 26 10 21 C9.34 21 8.68 21 8 21 C7.674 20.131 7.348 19.262 7.012 18.367 C6.575 17.215 6.138 16.062 5.688 14.875 C5.258 13.738 4.829 12.601 4.387 11.43 C3.047 7.978 3.047 7.978 1.332 4.695 C0 2 0 2 0 0 Z " fill="#C67179" transform="translate(197,593)"/>
<path d="M0 0 C0.33 0.99 0.66 1.98 1 3 C1.66 3 2.32 3 3 3 C4.423 6.823 5.24 9.913 5 14 C5.66 14 6.32 14 7 14 C7.169 15.896 7.335 17.791 7.5 19.688 C7.593 20.743 7.686 21.799 7.781 22.887 C7.972 25.606 8.04 28.275 8 31 C8.99 31.082 9.98 31.165 11 31.25 C15.408 31.871 19.27 33.589 23 36 C23.33 36.66 23.66 37.32 24 38 C14.337 39.558 14.337 39.558 10 37 C9.326 36.607 8.652 36.214 7.957 35.809 C2.407 32.203 2.407 32.203 1.266 28.828 C1 26.625 1 26.625 1 23 C0.67 24.65 0.34 26.3 0 28 C-0.33 28 -0.66 28 -1 28 C-1.029 24.271 -1.047 20.542 -1.062 16.812 C-1.071 15.757 -1.079 14.702 -1.088 13.615 C-1.091 12.594 -1.094 11.572 -1.098 10.52 C-1.103 9.582 -1.108 8.645 -1.114 7.679 C-1.001 5.02 -0.594 2.591 0 0 Z " fill="#DF8377" transform="translate(887,668)"/>
<path d="M0 0 C1.347 0.301 1.347 0.301 2.721 0.609 C3.732 0.826 4.743 1.042 5.784 1.266 C7.412 1.631 7.412 1.631 9.073 2.003 C17.318 3.752 25.538 5.382 33.885 6.566 C34.671 6.681 35.458 6.796 36.268 6.914 C51.628 9.03 67.098 9.099 82.573 9.378 C84.821 9.421 87.07 9.465 89.319 9.509 C94.778 9.615 100.238 9.717 105.698 9.816 C105.698 10.146 105.698 10.476 105.698 10.816 C94.774 11.574 83.906 11.977 72.956 11.946 C70.671 11.941 68.385 11.946 66.1 11.952 C59.614 11.955 53.226 11.901 46.787 11.03 C41.556 10.494 36.236 10.823 30.987 10.943 C29.641 10.959 29.641 10.959 28.268 10.976 C27.058 11.001 27.058 11.001 25.823 11.027 C23.698 10.816 23.698 10.816 20.698 8.816 C21.028 8.156 21.358 7.496 21.698 6.816 C20.541 6.85 20.541 6.85 19.362 6.886 C18.359 6.904 17.356 6.922 16.323 6.941 C15.325 6.964 14.327 6.987 13.299 7.011 C10.698 6.816 10.698 6.816 8.698 4.816 C8.038 5.476 7.378 6.136 6.698 6.816 C6.698 6.156 6.698 5.496 6.698 4.816 C5.048 4.816 3.398 4.816 1.698 4.816 C1.698 4.156 1.698 3.496 1.698 2.816 C0.048 3.476 -1.602 4.136 -3.302 4.816 C-3.962 3.826 -4.622 2.836 -5.302 1.816 C-2.302 -0.184 -2.302 -0.184 0 0 Z " fill="#E56267" transform="translate(433.30224609375,790.184326171875)"/>
<path d="M0 0 C0.91 0.195 1.82 0.389 2.758 0.59 C3.456 0.746 4.155 0.902 4.875 1.062 C2.548 3.389 0.701 4.053 -2.375 5.188 C-3.308 5.541 -4.242 5.894 -5.203 6.258 C-8.305 7.112 -10.924 7.205 -14.125 7.062 C-14.186 8.197 -14.246 9.331 -14.309 10.5 C-14.393 12.021 -14.478 13.542 -14.562 15.062 C-14.602 15.806 -14.641 16.55 -14.682 17.316 C-14.893 21.049 -15.182 24.738 -15.668 28.445 C-16.212 31.931 -16.212 31.931 -16 34.938 C-16.041 35.639 -16.082 36.34 -16.125 37.062 C-17.115 37.722 -18.105 38.383 -19.125 39.062 C-19.975 35.416 -20.207 32.114 -20.125 28.375 C-19.948 24.57 -19.948 24.57 -21.125 21.062 C-21.249 18.794 -21.301 16.522 -21.312 14.25 C-21.327 13.027 -21.341 11.803 -21.355 10.543 C-21.136 7.236 -20.552 5.023 -19.125 2.062 C-17.547 1.846 -17.547 1.846 -15.938 1.625 C-1.988 -0.433 -1.988 -0.433 0 0 Z " fill="#EE9473" transform="translate(909.125,713.9375)"/>
<path d="M0 0 C0.99 0.33 1.98 0.66 3 1 C3.197 4.437 3.381 7.875 3.562 11.312 C3.619 12.289 3.675 13.265 3.732 14.271 C3.781 15.209 3.829 16.147 3.879 17.113 C3.926 17.977 3.973 18.841 4.022 19.732 C4 22 4 22 3 25 C3.66 25 4.32 25 5 25 C4.34 26.98 3.68 28.96 3 31 C3.66 31.33 4.32 31.66 5 32 C4.463 37.132 4.012 40.153 -0.062 43.562 C-3.708 45.267 -7.024 45.264 -10.984 44.945 C-13.321 44.83 -13.321 44.83 -16 47 C-19.387 46.653 -22.037 45.646 -25 44 C-21.053 40.053 -13.835 40.138 -8.43 39.875 C-6.619 39.875 -4.809 39.93 -3 40 C-0.518 35.231 -0.811 30.849 -0.938 25.625 C-1.051 17.022 -0.727 8.572 0 0 Z " fill="#EDA477" transform="translate(876,659)"/>
<path d="M0 0 C1.669 0.24 1.669 0.24 3.371 0.484 C6.637 1.268 8.77 2.43 11.562 4.25 C12.553 4.58 13.543 4.91 14.562 5.25 C18.047 15.521 17.301 27.653 15.562 38.25 C16.222 38.25 16.883 38.25 17.562 38.25 C17.232 39.9 16.903 41.55 16.562 43.25 C13.933 41.935 13.594 40.992 12.562 38.25 C12.335 35.134 12.335 35.134 12.367 31.516 C12.374 30.22 12.38 28.925 12.387 27.59 C12.403 26.227 12.42 24.863 12.438 23.5 C12.448 22.121 12.457 20.742 12.465 19.363 C12.488 15.992 12.521 12.621 12.562 9.25 C11.008 8.96 11.008 8.96 9.422 8.664 C8.052 8.401 6.682 8.138 5.312 7.875 C4.631 7.749 3.949 7.622 3.246 7.492 C-3.44 6.194 -3.44 6.194 -6.438 4.25 C-6.768 3.59 -7.097 2.93 -7.438 2.25 C-8.428 1.59 -9.418 0.93 -10.438 0.25 C-6.773 -1.004 -3.792 -0.579 0 0 Z " fill="#E68976" transform="translate(863.4375,709.75)"/>
<path d="M0 0 C2.348 2.767 4.364 5.524 6.125 8.688 C7.784 11.962 7.784 11.962 10 14 C10.803 16.483 11.5 18.909 12.125 21.438 C12.304 22.152 12.483 22.866 12.667 23.602 C14.045 29.449 14.458 34.994 14 41 C12.68 40.67 11.36 40.34 10 40 C9.867 39.145 9.734 38.291 9.598 37.41 C9.421 36.305 9.244 35.201 9.062 34.062 C8.888 32.96 8.714 31.858 8.535 30.723 C8.282 28.096 8.282 28.096 7 27 C6.938 25.824 6.876 24.649 6.812 23.438 C6.249 18.069 3.403 15.055 0 11 C-0.99 16.445 -0.99 16.445 -2 22 C-2.33 22 -2.66 22 -3 22 C-3.281 14.81 -2.741 8.002 -1 1 C-0.67 0.67 -0.34 0.34 0 0 Z " fill="#44A3A0" transform="translate(787,79)"/>
<path d="M0 0 C0.66 0 1.32 0 2 0 C3 3 3 3 2.171 4.995 C1.726 5.755 1.282 6.514 0.824 7.297 C0.331 8.161 -0.163 9.026 -0.671 9.916 C-1.213 10.851 -1.754 11.786 -2.312 12.75 C-18.477 41.544 -29.071 72.788 -36 105 C-36.33 105 -36.66 105 -37 105 C-36.699 97.695 -36.344 91.026 -33.699 84.176 C-32.43 80.227 -32.249 76.12 -32 72 C-31.01 72 -30.02 72 -29 72 C-29.041 70.928 -29.083 69.855 -29.125 68.75 C-29.009 65.269 -28.707 63.881 -27 61 C-27 60.34 -27 59.68 -27 59 C-26.34 59 -25.68 59 -25 59 C-24.856 58.278 -24.711 57.556 -24.562 56.812 C-24.042 54.208 -23.521 51.604 -23 49 C-22.34 49 -21.68 49 -21 49 C-21.213 48.437 -21.425 47.873 -21.645 47.293 C-22.119 44.23 -21.239 42.956 -19.688 40.312 C-19.238 39.525 -18.788 38.737 -18.324 37.926 C-17 36 -17 36 -15 35 C-14.621 33.343 -14.297 31.673 -14 30 C-13.356 27.993 -12.694 25.991 -12 24 C-11.34 24 -10.68 24 -10 24 C-9.732 22.969 -9.464 21.938 -9.188 20.875 C-7.468 14.918 -4.41 9.949 -0.988 4.832 C0.237 2.907 0.237 2.907 0 0 Z " fill="#548392" transform="translate(211,282)"/>
<path d="M0 0 C0.66 0 1.32 0 2 0 C2.718 1.914 3.435 3.828 4.152 5.742 C4.889 7.705 5.632 9.665 6.375 11.625 C7.363 14.243 8.305 16.871 9.23 19.512 C9.45 20.137 9.669 20.762 9.895 21.406 C10.539 23.245 11.178 25.085 11.816 26.926 C12.911 30.104 12.911 30.104 15 33 C15.165 34.031 15.33 35.062 15.5 36.125 C15.747 37.548 15.747 37.548 16 39 C16.66 39.33 17.32 39.66 18 40 C18 41.32 18 42.64 18 44 C18.416 46.071 18.879 48.134 19.375 50.188 C19.65 51.339 19.924 52.49 20.207 53.676 C20.6 55.321 20.6 55.321 21 57 C21.358 58.624 21.713 60.249 22.062 61.875 C22.635 64.493 23.294 66.986 24.062 69.562 C25.097 73.357 25.589 77.102 26 81 C26.459 84.803 26.933 88.596 27.562 92.375 C28.113 96.935 28.083 101.414 28 106 C27.67 106 27.34 106 27 106 C26.905 105.338 26.81 104.676 26.712 103.994 C22.061 71.909 15.259 41.31 3.15 11.135 C2.534 9.599 2.534 9.599 1.906 8.031 C1.538 7.13 1.17 6.228 0.791 5.299 C0 3 0 3 0 0 Z " fill="#5B8593" transform="translate(826,316)"/>
<path d="M0 0 C0.33 0 0.66 0 1 0 C0.67 8.58 0.34 17.16 0 26 C-12.375 28.25 -12.375 28.25 -17 28 C-17.33 29.65 -17.66 31.3 -18 33 C-17.237 33.289 -16.474 33.578 -15.688 33.875 C-13 35 -13 35 -10 37 C-11.48 36.86 -12.959 36.712 -14.438 36.562 C-15.261 36.481 -16.085 36.4 -16.934 36.316 C-19 36 -19 36 -20 35 C-21.351 34.84 -22.706 34.723 -24.062 34.625 C-28.798 34.162 -32.621 32.831 -37 31 C-37 30.34 -37 29.68 -37 29 C-25.055 24.88 -13.491 24.848 -1 25 C-1.012 23.782 -1.023 22.564 -1.035 21.309 C-1.045 19.685 -1.054 18.061 -1.062 16.438 C-1.071 15.638 -1.079 14.838 -1.088 14.014 C-1.107 9.228 -0.804 4.719 0 0 Z " fill="#95C894" transform="translate(785,94)"/>
<path d="M0 0 C0.956 0.079 1.913 0.157 2.898 0.238 C5.561 0.677 7.274 1.423 9.625 2.688 C11.616 3.07 13.616 3.414 15.625 3.688 C15.625 4.347 15.625 5.008 15.625 5.688 C16.656 5.778 16.656 5.778 17.707 5.871 C19.059 5.997 19.059 5.997 20.438 6.125 C21.331 6.206 22.224 6.287 23.145 6.371 C25.625 6.688 25.625 6.688 28.625 7.688 C28.65 8.403 28.675 9.118 28.701 9.855 C28.818 13.133 28.94 16.41 29.062 19.688 C29.102 20.813 29.141 21.938 29.182 23.098 C29.407 29.026 29.838 34.81 30.625 40.688 C30.684 42.353 30.714 44.021 30.688 45.688 C30.678 46.451 30.669 47.214 30.66 48 C30.649 48.557 30.637 49.114 30.625 49.688 C29.635 49.192 29.635 49.192 28.625 48.688 C28.15 46.267 27.817 43.947 27.562 41.5 C27.48 40.763 27.398 40.025 27.313 39.266 C26.289 29.438 25.964 19.558 25.625 9.688 C22.705 9.09 19.781 8.535 16.848 8.004 C16.169 7.881 15.49 7.758 14.791 7.631 C13.393 7.378 11.995 7.128 10.596 6.881 C6.461 6.125 2.584 5.089 -1.375 3.688 C-2.118 3.523 -2.86 3.357 -3.625 3.188 C-5.375 2.688 -5.375 2.688 -7.375 0.688 C-4.713 -0.644 -2.953 -0.265 0 0 Z " fill="#EE8371" transform="translate(156.375,764.3125)"/>
<path d="M0 0 C2.244 3.53 2.024 5.693 1.312 9.75 C-2.096 30.727 -3.503 51.243 -3.688 72.5 C-3.719 75.185 -3.755 77.87 -3.791 80.555 C-3.875 87.036 -3.944 93.518 -4 100 C-4.33 100 -4.66 100 -5 100 C-5.838 91.048 -6.311 82.11 -6.625 73.125 C-6.677 71.846 -6.728 70.567 -6.781 69.25 C-6.825 68.015 -6.869 66.78 -6.914 65.508 C-6.955 64.401 -6.996 63.294 -7.038 62.153 C-7 58.987 -6.552 56.112 -6 53 C-5.884 51.162 -5.802 49.322 -5.754 47.48 C-5.721 46.458 -5.688 45.435 -5.654 44.381 C-5.593 42.264 -5.536 40.147 -5.482 38.029 C-5.3 32.535 -4.823 27.466 -3.492 22.133 C-2.655 18.505 -2.317 14.824 -1.938 11.125 C-1.127 3.381 -1.127 3.381 0 0 Z " fill="#6F808E" transform="translate(173,383)"/>
<path d="M0 0 C1.32 0 2.64 0 4 0 C4.125 7.75 4.125 7.75 3 10 C2.01 10 1.02 10 0 10 C-0.309 10.784 -0.619 11.567 -0.938 12.375 C-2 15 -2 15 -3 17 C-3.66 17 -4.32 17 -5 17 C-5.66 19.64 -6.32 22.28 -7 25 C-8.32 24.34 -9.64 23.68 -11 23 C-11 15.74 -11 8.48 -11 1 C-10.67 1 -10.34 1 -10 1 C-9.67 4.96 -9.34 8.92 -9 13 C-5.193 9.197 -5.193 9.197 -2.812 4.812 C-1.069 1.069 -1.069 1.069 0 0 Z " fill="#8EC396" transform="translate(796,134)"/>
<path d="M0 0 C4.747 5.61 5.279 11.517 5.754 18.609 C5.859 21.012 5.859 21.012 7 23 C14.439 25.381 22.274 26.054 30 27 C30 27.66 30 28.32 30 29 C30.66 29 31.32 29 32 29 C31.67 30.32 31.34 31.64 31 33 C27.966 33.233 25.028 33.348 22 33 C19.875 31.125 19.875 31.125 18 29 C14.365 27.722 14.365 27.722 11 27 C11 26.34 11 25.68 11 25 C9.298 25.031 9.298 25.031 7.562 25.062 C4 25 4 25 3 24 C2.647 21.84 2.343 19.671 2.062 17.5 C1.479 13.171 0.828 8.936 -0.188 4.688 C-0.456 3.471 -0.724 2.254 -1 1 C-0.67 0.67 -0.34 0.34 0 0 Z " fill="#4BA39F" transform="translate(182,115)"/>
<path d="M0 0 C0.66 0.99 1.32 1.98 2 3 C1.091 3.965 1.091 3.965 0.164 4.949 C-14.559 20.827 -26.449 38.747 -38 57 C-38.33 55.68 -38.66 54.36 -39 53 C-38.01 52.505 -38.01 52.505 -37 52 C-35.678 49.709 -34.806 47.441 -33.938 44.938 C-31.954 40.178 -28.486 36.522 -25.156 32.648 C-22.941 30.067 -22.941 30.067 -21.344 27.164 C-20.9 26.45 -20.457 25.736 -20 25 C-19.34 25 -18.68 25 -18 25 C-17.34 23.02 -16.68 21.04 -16 19 C-15.34 19 -14.68 19 -14 19 C-13.642 17.94 -13.642 17.94 -13.277 16.859 C-11.785 13.519 -9.885 11.073 -7.562 8.25 C-6.78 7.286 -5.998 6.322 -5.191 5.328 C-3 3 -3 3 0 2 C0 1.34 0 0.68 0 0 Z " fill="#488595" transform="translate(252,227)"/>
<path d="M0 0 C0.33 0 0.66 0 1 0 C1.015 0.717 1.029 1.433 1.044 2.171 C1.118 5.406 1.215 8.641 1.312 11.875 C1.335 13.003 1.358 14.131 1.381 15.293 C1.416 16.369 1.452 17.446 1.488 18.555 C1.514 19.55 1.541 20.545 1.568 21.57 C1.71 22.372 1.853 23.174 2 24 C2.99 24.66 3.98 25.32 5 26 C5.217 24.577 5.217 24.577 5.438 23.125 C6 20 6 20 7 18 C7.66 18 8.32 18 9 18 C9.309 17.216 9.619 16.433 9.938 15.625 C11 13 11 13 12 11 C12.99 11 13.98 11 15 11 C15.33 10.34 15.66 9.68 16 9 C16.25 14.625 16.25 14.625 14 18 C11.375 18.688 11.375 18.688 9 19 C8.856 19.969 8.711 20.939 8.562 21.938 C8 25 8 25 7 26 C6.767 27.682 6.587 29.371 6.438 31.062 C6.354 31.982 6.27 32.901 6.184 33.848 C6.123 34.558 6.062 35.268 6 36 C4.515 36.495 4.515 36.495 3 37 C2.34 36.67 1.68 36.34 1 36 C0.07 31.305 -0.119 26.748 -0.098 21.973 C-0.094 20.687 -0.091 19.401 -0.088 18.076 C-0.08 16.738 -0.071 15.4 -0.062 14.062 C-0.057 12.697 -0.053 11.332 -0.049 9.967 C-0.037 6.644 -0.021 3.322 0 0 Z " fill="#74B59B" transform="translate(784,133)"/>
<path d="M0 0 C0.66 0 1.32 0 2 0 C2.978 12.349 3.117 24.617 3 37 C4.094 37.299 5.189 37.598 6.316 37.906 C9.692 38.909 12.165 39.938 15 42 C15 42.66 15 43.32 15 44 C13.519 43.719 12.04 43.425 10.562 43.125 C9.739 42.963 8.915 42.8 8.066 42.633 C7.384 42.424 6.703 42.215 6 42 C5.67 41.34 5.34 40.68 5 40 C3.348 39.298 1.681 38.63 0 38 C-1 37 -1 37 -1.022 33.49 C-0.979 31.929 -0.931 30.369 -0.879 28.809 C-0.855 27.989 -0.832 27.169 -0.807 26.324 C-0.731 23.695 -0.647 21.066 -0.562 18.438 C-0.509 16.66 -0.457 14.882 -0.404 13.104 C-0.275 8.735 -0.139 4.368 0 0 Z " fill="#F1A072" transform="translate(199,717)"/>
<path d="M0 0 C2.6 6.357 2.612 13.212 3 20 C2.34 20 1.68 20 1 20 C0.951 19.313 0.902 18.626 0.852 17.918 C0.777 17.017 0.702 16.116 0.625 15.188 C0.555 14.294 0.486 13.401 0.414 12.48 C0.134 9.756 0.134 9.756 -2 7 C-3.98 7.33 -5.96 7.66 -8 8 C-8.33 8.99 -8.66 9.98 -9 11 C-9.66 11 -10.32 11 -11 11 C-11 14.3 -11 17.6 -11 21 C-12.32 20.67 -13.64 20.34 -15 20 C-14.34 20 -13.68 20 -13 20 C-13.023 19.336 -13.046 18.672 -13.07 17.988 C-13.26 8.688 -13.26 8.688 -11 5 C-10.01 4.67 -9.02 4.34 -8 4 C-8 3.01 -8 2.02 -8 1 C-3.375 -1.125 -3.375 -1.125 0 0 Z " fill="#8CC294" transform="translate(180,120)"/>
<path d="M0 0 C0.66 0 1.32 0 2 0 C3.223 2.446 3.249 4.334 3.438 7.062 C3.858 12.203 4.769 16.996 6 22 C6.969 22.247 7.939 22.495 8.938 22.75 C13.494 24.039 17.718 26 22 28 C18.341 30.439 17 30.122 12.855 29.48 C10.472 28.863 9.533 27.898 8 26 C6.347 24.977 4.682 23.974 3 23 C0.953 20.953 1.3 16.696 1 14 C0.67 15.65 0.34 17.3 0 19 C-0.33 19 -0.66 19 -1 19 C-0.67 12.73 -0.34 6.46 0 0 Z " fill="#F2B375" transform="translate(887,677)"/>
<path d="M0 0 C6.458 0.562 12.351 1.737 18.562 3.562 C19.38 3.796 20.198 4.03 21.041 4.271 C23.029 4.841 25.015 5.42 27 6 C27.495 7.98 27.495 7.98 28 10 C19.374 12.753 10.949 13.153 1.938 13.062 C0.639 13.056 0.639 13.056 -0.686 13.049 C-2.79 13.037 -4.895 13.019 -7 13 C-7 12.67 -7 12.34 -7 12 C-6.001 11.939 -5.002 11.879 -3.973 11.816 C-2.037 11.691 -2.037 11.691 -0.062 11.562 C1.225 11.481 2.513 11.4 3.84 11.316 C6.86 11.351 6.86 11.351 8 10 C10.579 9.678 13.159 9.487 15.75 9.281 C17.967 9.238 17.967 9.238 19 8 C12.834 4.626 6.822 2.655 0 1 C0 0.67 0 0.34 0 0 Z " fill="#6CB29B" transform="translate(807,122)"/>
<path d="M0 0 C0.99 0.33 1.98 0.66 3 1 C3.33 5.62 3.66 10.24 4 15 C7.3 14.67 10.6 14.34 14 14 C14.66 9.71 15.32 5.42 16 1 C16.33 1 16.66 1 17 1 C17.081 3.083 17.139 5.166 17.188 7.25 C17.24 8.99 17.24 8.99 17.293 10.766 C16.976 14.266 16.463 15.555 14 18 C10.087 19.652 6.193 20.401 2 21 C1.247 18.268 0.834 15.719 0.684 12.891 C0.642 12.137 0.6 11.382 0.557 10.605 C0.517 9.828 0.478 9.051 0.438 8.25 C0.394 7.457 0.351 6.664 0.307 5.848 C0.201 3.899 0.1 1.949 0 0 Z " fill="#76B598" transform="translate(165,151)"/>
<path d="M0 0 C-2.327 2.327 -4.174 2.99 -7.25 4.125 C-8.183 4.478 -9.117 4.831 -10.078 5.195 C-13.18 6.05 -15.799 6.142 -19 6 C-19.049 7.181 -19.098 8.362 -19.148 9.578 C-19.223 11.135 -19.299 12.693 -19.375 14.25 C-19.406 15.027 -19.437 15.805 -19.469 16.605 C-19.507 17.36 -19.546 18.114 -19.586 18.891 C-19.633 19.928 -19.633 19.928 -19.681 20.985 C-20 23 -20 23 -22 27 C-22 19.08 -22 11.16 -22 3 C-19.669 2.319 -17.339 1.639 -14.938 0.938 C-14.218 0.72 -13.499 0.502 -12.758 0.277 C-8.115 -1.017 -4.721 -0.976 0 0 Z " fill="#EA8F76" transform="translate(914,715)"/>
<path d="M0 0 C3 1 3 1 3.949 2.848 C4.193 3.579 4.436 4.309 4.688 5.062 C4.939 5.796 5.19 6.529 5.449 7.285 C5.631 7.851 5.813 8.417 6 9 C7.32 9 8.64 9 10 9 C10.99 6.03 11.98 3.06 13 0 C13.66 0.33 14.32 0.66 15 1 C14.692 3.147 14.379 5.292 14.062 7.438 C13.888 8.632 13.714 9.827 13.535 11.059 C13 14 13 14 12 15 C8.664 15.143 5.34 15.042 2 15 C1.34 10.05 0.68 5.1 0 0 Z " fill="#9DC991" transform="translate(167,151)"/>
<path d="M0 0 C-0.154 2.624 -0.449 4.441 -2.332 6.352 C-3.127 7.044 -3.127 7.044 -3.938 7.75 C-7.768 11.333 -8.362 14.931 -9 20 C-9.11 20.851 -9.219 21.702 -9.332 22.578 C-9.584 24.715 -9.796 26.858 -10 29 C-12.97 29 -15.94 29 -19 29 C-16 27 -16 27 -13.812 27.375 C-13.214 27.581 -12.616 27.788 -12 28 C-11.979 26.082 -11.979 26.082 -11.957 24.125 C-11.91 22.417 -11.862 20.708 -11.812 19 C-11.807 18.161 -11.801 17.322 -11.795 16.457 C-11.584 10.42 -10.326 5.446 -6 1 C-3.872 0.256 -2.249 0 0 0 Z " fill="#EA8B73" transform="translate(193,725)"/>
<path d="M0 0 C4.447 0.792 8.744 2.01 13.062 3.312 C14.123 3.613 14.123 3.613 15.205 3.92 C19.452 5.208 22.169 6.551 25 10 C21.905 11.548 18.633 11.444 15.215 11.719 C13.029 11.767 13.029 11.767 12 13 C9.647 13.073 7.292 13.084 4.938 13.062 C3.647 13.053 2.357 13.044 1.027 13.035 C0.028 13.024 -0.971 13.012 -2 13 C-2 12.67 -2 12.34 -2 12 C-1.13 11.927 -1.13 11.927 -0.242 11.852 C4.392 11.408 8.707 10.932 13 9 C13.33 8.01 13.66 7.02 14 6 C13.361 5.918 12.721 5.835 12.062 5.75 C7.795 4.705 3.969 2.859 0 1 C0 0.67 0 0.34 0 0 Z " fill="#91C496" transform="translate(802,121)"/>
<path d="M0 0 C0.66 0.33 1.32 0.66 2 1 C1.518 4.178 0.722 6.645 -0.562 9.625 C-2.196 12.849 -2.196 12.849 -2 16 C-2.66 16 -3.32 16 -4 16 C-4.99 18.475 -4.99 18.475 -6 21 C-6.66 21 -7.32 21 -8 21 C-8.082 22.237 -8.165 23.475 -8.25 24.75 C-8.743 28.825 -9.949 30.226 -13 33 C-13.679 34.996 -14.346 36.996 -15 39 C-15.99 39.66 -16.98 40.32 -18 41 C-18.753 35.674 -16.121 32.202 -13.5 27.812 C-8.298 18.818 -4.046 9.561 0 0 Z " fill="#BA757F" transform="translate(826,589)"/>
<path d="M0 0 C0.33 0 0.66 0 1 0 C1.368 18.943 0.869 37.217 -2 56 C-2.33 56 -2.66 56 -3 56 C-2.908 48.667 -2.8 41.335 -2.683 34.003 C-2.644 31.508 -2.609 29.013 -2.578 26.519 C-2.532 22.934 -2.474 19.35 -2.414 15.766 C-2.403 14.649 -2.391 13.532 -2.379 12.381 C-2.359 11.341 -2.339 10.3 -2.319 9.228 C-2.299 7.855 -2.299 7.855 -2.278 6.455 C-1.987 3.882 -1.3 2.22 0 0 Z " fill="#8D8795" transform="translate(856,435)"/>
<path d="M0 0 C0.99 0.33 1.98 0.66 3 1 C0.176 3.929 -2.722 6.584 -6 9 C-6.66 9 -7.32 9 -8 9 C-9.18 12.848 -9.332 16.758 -9.562 20.75 C-9.606 21.447 -9.649 22.145 -9.693 22.863 C-9.799 24.575 -9.9 26.288 -10 28 C-14.29 28 -18.58 28 -23 28 C-23 27.67 -23 27.34 -23 27 C-16.25 25.875 -16.25 25.875 -14 27 C-13.879 26.227 -13.758 25.453 -13.633 24.656 C-11.038 8.53 -11.038 8.53 -8.812 5.25 C-5.934 3.265 -3.14 1.57 0 0 Z " fill="#3F9FA0" transform="translate(176,112)"/>
<path d="M0 0 C2.064 0.257 4.126 0.531 6.188 0.812 C7.91 1.039 7.91 1.039 9.668 1.27 C13.048 2.01 15.136 3.116 18 5 C18.99 5.33 19.98 5.66 21 6 C23.591 11.957 23.709 19.638 23 26 C22.34 26.99 21.68 27.98 21 29 C20.67 22.4 20.34 15.8 20 9 C17.69 8.34 15.38 7.68 13 7 C10.678 6.151 8.365 5.277 6.062 4.375 C4.919 3.929 3.776 3.483 2.598 3.023 C1.74 2.686 0.883 2.348 0 2 C0 1.34 0 0.68 0 0 Z " fill="#F6B975" transform="translate(857,709)"/>
<path d="M0 0 C0.99 0.66 1.98 1.32 3 2 C2.916 2.626 2.832 3.253 2.746 3.898 C2.644 4.716 2.542 5.533 2.438 6.375 C2.333 7.187 2.229 7.999 2.121 8.836 C1.818 11.049 1.818 11.049 3 13 C2.175 16.216 1.428 17.679 -1.25 19.688 C-5.653 21.789 -9.088 23 -14 23 C-13.67 22.01 -13.34 21.02 -13 20 C-8.05 19.01 -8.05 19.01 -3 18 C-2.867 17.036 -2.734 16.072 -2.598 15.078 C-2.421 13.815 -2.244 12.552 -2.062 11.25 C-1.801 9.371 -1.801 9.371 -1.535 7.453 C-1.14 4.9 -0.696 2.481 0 0 Z " fill="#F3AC72" transform="translate(185,736)"/>
<path d="M0 0 C5.335 0.46 9.375 1.067 14 4 C14.33 4.99 14.66 5.98 15 7 C0.403 10.444 0.403 10.444 -7 10 C-7 9.67 -7 9.34 -7 9 C-5.907 8.691 -4.814 8.381 -3.688 8.062 C-1.446 7.417 0.787 6.738 3 6 C2.656 3.527 2.656 3.527 2 1 C1.34 0.67 0.68 0.34 0 0 Z " fill="#ACD591" transform="translate(189,141)"/>
<path d="M0 0 C1.812 1.25 1.812 1.25 2.812 3.25 C2.882 4.957 2.897 6.667 2.875 8.375 C2.866 9.285 2.857 10.195 2.848 11.133 C2.836 11.831 2.824 12.53 2.812 13.25 C2.153 12.92 1.493 12.59 0.812 12.25 C0.812 9.94 0.812 7.63 0.812 5.25 C0.214 5.58 -0.384 5.91 -1 6.25 C-3.188 7.25 -3.188 7.25 -6.188 7.25 C-6.518 9.23 -6.847 11.21 -7.188 13.25 C-7.847 13.25 -8.507 13.25 -9.188 13.25 C-9.269 11.813 -9.327 10.376 -9.375 8.938 C-9.41 8.137 -9.445 7.336 -9.48 6.512 C-9.12 3.731 -8.34 2.974 -6.188 1.25 C-2.883 -0.988 -2.883 -0.988 0 0 Z " fill="#ABD38F" transform="translate(178.1875,126.75)"/>
<path d="M0 0 C1.32 0.33 2.64 0.66 4 1 C3.01 1.495 3.01 1.495 2 2 C1.565 4.775 1.565 4.775 1.438 8.062 C1.363 9.238 1.288 10.414 1.211 11.625 C1.141 12.739 1.072 13.852 1 15 C0.433 21.719 -1.02 25.895 -5.125 31.25 C-5.664 31.956 -6.203 32.663 -6.758 33.391 C-7.168 33.922 -7.578 34.453 -8 35 C-8.574 33.133 -8.574 33.133 -9 31 C-8.052 29.303 -7.037 27.644 -6 26 C-1.705 17.689 -0.864 9.167 0 0 Z " fill="#EF8170" transform="translate(203,772)"/>
<path d="M0 0 C0.99 0.33 1.98 0.66 3 1 C2.34 14.2 1.68 27.4 1 41 C-2.96 41 -6.92 41 -11 41 C-11 40.67 -11 40.34 -11 40 C-8.36 40 -5.72 40 -3 40 C-0.518 35.231 -0.811 30.849 -0.938 25.625 C-1.051 17.022 -0.727 8.572 0 0 Z " fill="#DF8877" transform="translate(876,659)"/>
<path d="M0 0 C-0.33 0.66 -0.66 1.32 -1 2 C-3.649 2.594 -6.292 2.742 -9 3 C-8.67 3.66 -8.34 4.32 -8 5 C-7.01 5.33 -6.02 5.66 -5 6 C-5 6.66 -5 7.32 -5 8 C-2.03 8.33 0.94 8.66 4 9 C4 9.33 4 9.66 4 10 C-4.264 10.57 -11.198 8.486 -19 6 C-16.541 3.054 -14.301 2.264 -10.625 1.312 C-9.689 1.061 -8.753 0.81 -7.789 0.551 C-5.108 0.021 -2.723 -0.104 0 0 Z " fill="#9FCE96" transform="translate(161,141)"/>
<path d="M0 0 C0.66 0 1.32 0 2 0 C2 15.51 2 31.02 2 47 C1.67 47 1.34 47 1 47 C0.162 38.048 -0.311 29.11 -0.625 20.125 C-0.677 18.846 -0.728 17.567 -0.781 16.25 C-0.825 15.015 -0.869 13.78 -0.914 12.508 C-0.955 11.401 -0.996 10.294 -1.038 9.153 C-1 5.997 -0.603 3.094 0 0 Z " fill="#847D8A" transform="translate(167,436)"/>
<path d="M0 0 C-4.16 3.9 -7.551 4.892 -13 6 C-13.66 10.95 -14.32 15.9 -15 21 C-15.33 21 -15.66 21 -16 21 C-16.195 18.73 -16.381 16.459 -16.562 14.188 C-16.667 12.923 -16.771 11.658 -16.879 10.355 C-17 7 -17 7 -16 4 C-12.112 0.963 -4.758 -2.379 0 0 Z " fill="#F7B473" transform="translate(215,766)"/>
<path d="M0 0 C4.747 5.61 5.279 11.517 5.754 18.609 C5.859 21.012 5.859 21.012 7 23 C8.888 23.685 8.888 23.685 11.062 24.125 C11.796 24.293 12.529 24.46 13.285 24.633 C13.851 24.754 14.417 24.875 15 25 C11.072 26.162 8.027 25.76 4 25 C2.132 23.132 2.387 20.014 2.062 17.5 C1.479 13.171 0.828 8.936 -0.188 4.688 C-0.456 3.471 -0.724 2.254 -1 1 C-0.67 0.67 -0.34 0.34 0 0 Z " fill="#31979E" transform="translate(182,115)"/>
<path d="M0 0 C2.062 0.438 2.062 0.438 4 1 C2.68 1.33 1.36 1.66 0 2 C-0.182 2.843 -0.364 3.686 -0.551 4.555 C-0.802 5.65 -1.054 6.746 -1.312 7.875 C-1.556 8.966 -1.8 10.056 -2.051 11.18 C-3 14 -3 14 -6 16 C-7.205 18.552 -7.205 18.552 -8 21 C-8.66 20.67 -9.32 20.34 -10 20 C-11.016 15.692 -11.108 11.536 -11.062 7.125 C-11.053 5.973 -11.044 4.82 -11.035 3.633 C-11.024 2.764 -11.012 1.895 -11 1 C-10.67 1 -10.34 1 -10 1 C-9.67 4.96 -9.34 8.92 -9 13 C-5.193 9.197 -5.193 9.197 -2.812 4.812 C-1.069 1.069 -1.069 1.069 0 0 Z " fill="#ADD391" transform="translate(796,134)"/>
<path d="M0 0 C5.291 -0.182 8.963 0.167 14 2 C14.02 2.574 14.04 3.149 14.06 3.741 C14.156 6.369 14.265 8.997 14.375 11.625 C14.406 12.529 14.437 13.432 14.469 14.363 C14.686 19.332 15.406 23.27 17 28 C16.977 31.43 16.977 31.43 16.625 34.875 C16.514 36.027 16.403 37.18 16.289 38.367 C16.194 39.236 16.098 40.105 16 41 C15.67 41 15.34 41 15 41 C12.209 28.464 12.821 15.763 13 3 C8.71 2.34 4.42 1.68 0 1 C0 0.67 0 0.34 0 0 Z " fill="#F59C70" transform="translate(172,769)"/>
<path d="M0 0 C7.087 -0.108 13.979 -0.036 21 1 C22.683 2.683 22.228 4.82 22.316 7.129 C22.358 8.163 22.4 9.198 22.443 10.264 C22.483 11.352 22.522 12.441 22.562 13.562 C22.606 14.655 22.649 15.747 22.693 16.873 C22.8 19.582 22.902 22.291 23 25 C22.34 24.67 21.68 24.34 21 24 C20.589 21.959 20.589 21.959 20.367 19.309 C20.242 17.892 20.242 17.892 20.113 16.447 C20.035 15.454 19.956 14.461 19.875 13.438 C19.789 12.44 19.702 11.443 19.613 10.416 C19.4 7.945 19.196 5.473 19 3 C16.03 3 13.06 3 10 3 C10 2.34 10 1.68 10 1 C8.36 1.309 8.36 1.309 6.688 1.625 C3 2 3 2 0 0 Z " fill="#3E9B9D" transform="translate(144,150)"/>
<path d="M0 0 C0.99 0.495 0.99 0.495 2 1 C2.598 3.434 2.598 3.434 3.062 6.438 C3.624 10.349 3.624 10.349 5 14 C5.368 16.667 5.698 19.326 6 22 C6.462 25.803 6.933 29.595 7.562 33.375 C8.113 37.935 8.083 42.414 8 47 C7.67 47 7.34 47 7 47 C6.895 46.296 6.789 45.592 6.68 44.867 C3.912 26.416 3.912 26.416 0.516 8.074 C0.051 5.306 -0.105 2.798 0 0 Z " fill="#667B89" transform="translate(846,375)"/>
<path d="M0 0 C0.33 0.99 0.66 1.98 1 3 C1.99 3.33 2.98 3.66 4 4 C3.936 4.773 3.871 5.547 3.805 6.344 C3.891 10.213 4.221 12.526 6 16 C11.303 19.856 17.831 21.93 24 24 C19.536 25.456 17.19 23.985 13 22 C11.336 21.327 9.67 20.658 8 20 C8 19.34 8 18.68 8 18 C7.072 17.783 7.072 17.783 6.125 17.562 C4 17 4 17 2 16 C0.415 10.806 -0.285 5.421 0 0 Z " fill="#B2D78F" transform="translate(792,103)"/>
<path d="M0 0 C0.99 0.33 1.98 0.66 3 1 C-2.104 7.181 -7.683 12.798 -13.375 18.438 C-14.765 19.821 -14.765 19.821 -16.184 21.232 C-18.453 23.491 -20.726 25.746 -23 28 C-23.33 27.01 -23.66 26.02 -24 25 C-23.34 25 -22.68 25 -22 25 C-22 24.34 -22 23.68 -22 23 C-19.625 20.375 -19.625 20.375 -17 18 C-16.34 18 -15.68 18 -15 18 C-15 17.34 -15 16.68 -15 16 C-14.01 15.34 -13.02 14.68 -12 14 C-11.67 13.01 -11.34 12.02 -11 11 C-10.01 11 -9.02 11 -8 11 C-8.33 10.01 -8.66 9.02 -9 8 C-7.608 7.412 -7.608 7.412 -6.188 6.812 C-2.774 4.872 -1.688 3.47 0 0 Z " fill="#3B8494" transform="translate(277,201)"/>
<path d="M0 0 C0.66 1.32 1.32 2.64 2 4 C2.66 4 3.32 4 4 4 C8.818 11.945 10.992 18.689 11.656 27.922 C12.041 30.248 12.856 31.951 14 34 C12.68 33.67 11.36 33.34 10 33 C9.867 32.145 9.734 31.291 9.598 30.41 C9.421 29.305 9.244 28.201 9.062 27.062 C8.888 25.96 8.714 24.858 8.535 23.723 C8.282 21.096 8.282 21.096 7 20 C6.907 18.237 6.907 18.237 6.812 16.438 C6.323 11.832 4.277 9.167 1.375 5.664 C0 4 0 4 -1 2 C-0.67 1.34 -0.34 0.68 0 0 Z " fill="#7FBC97" transform="translate(787,86)"/>
<path d="M0 0 C0.99 0.33 1.98 0.66 3 1 C-0.716 4.716 -6.992 4.313 -12 5 C-12.66 11.27 -13.32 17.54 -14 24 C-16 22 -16 22 -16.266 18.918 C-16.26 17.687 -16.255 16.456 -16.25 15.188 C-16.255 13.964 -16.26 12.741 -16.266 11.48 C-16.015 8.192 -15.416 5.949 -14 3 C-12.422 2.783 -12.422 2.783 -10.812 2.562 C-5.236 1.856 -5.236 1.856 0 0 Z " fill="#F5B774" transform="translate(904,713)"/>
<path d="M0 0 C1.32 0 2.64 0 4 0 C3.758 0.958 3.515 1.916 3.266 2.902 C0.743 12.912 -1.661 22.946 -4 33 C-4.33 33 -4.66 33 -5 33 C-4.699 25.695 -4.344 19.026 -1.699 12.176 C-0.43 8.227 -0.249 4.12 0 0 Z " fill="#64818E" transform="translate(179,354)"/>
<path d="M0 0 C6.392 0.724 12.68 1.803 19 3 C19 3.66 19 4.32 19 5 C20.98 5 22.96 5 25 5 C25.33 5.66 25.66 6.32 26 7 C16.933 7.723 10.04 6.321 2 2 C1.34 1.34 0.68 0.68 0 0 Z " fill="#F19B72" transform="translate(204,754)"/>
<path d="M0 0 C0.33 0 0.66 0 1 0 C1.02 0.802 1.04 1.604 1.06 2.431 C1.155 6.058 1.265 9.685 1.375 13.312 C1.406 14.575 1.437 15.838 1.469 17.139 C1.507 18.347 1.546 19.556 1.586 20.801 C1.617 21.916 1.649 23.032 1.681 24.181 C1.805 27.204 1.805 27.204 4 30 C4.66 29.34 5.32 28.68 6 28 C6 30.64 6 33.28 6 36 C4.515 36.495 4.515 36.495 3 37 C2.34 36.67 1.68 36.34 1 36 C0.07 31.305 -0.119 26.748 -0.098 21.973 C-0.094 20.687 -0.091 19.401 -0.088 18.076 C-0.08 16.738 -0.071 15.4 -0.062 14.062 C-0.057 12.697 -0.053 11.332 -0.049 9.967 C-0.037 6.644 -0.021 3.322 0 0 Z " fill="#67AE98" transform="translate(784,133)"/>
<path d="M0 0 C4.446 4.446 5.116 9.013 6 15 C5.34 13.68 4.68 12.36 4 11 C3.34 11 2.68 11 2 11 C1.34 10.34 0.68 9.68 0 9 C-0.66 13.29 -1.32 17.58 -2 22 C-2.33 22 -2.66 22 -3 22 C-3.281 14.81 -2.741 8.002 -1 1 C-0.67 0.67 -0.34 0.34 0 0 Z " fill="#62B19D" transform="translate(787,79)"/>
<path d="M0 0 C0 0.33 0 0.66 0 1 C-3.96 1.99 -7.92 2.98 -12 4 C-10.68 5.32 -9.36 6.64 -8 8 C-12.927 8.462 -16.507 6.828 -21 5 C-21 4.34 -21 3.68 -21 3 C-13.845 0.392 -7.598 -0.39 0 0 Z " fill="#72B59B" transform="translate(769,120)"/>
<path d="M0 0 C-0.33 0.66 -0.66 1.32 -1 2 C-3.562 2.625 -3.562 2.625 -6 3 C-6 3.99 -6 4.98 -6 6 C-5.072 5.938 -4.144 5.876 -3.188 5.812 C0 6 0 6 1.875 7.5 C2.246 7.995 2.618 8.49 3 9 C-1.07 9.185 -3.441 8.891 -7 7 C-8.991 6.617 -10.991 6.274 -13 6 C-13 5.01 -13 4.02 -13 3 C-8.378 0.781 -5.232 -0.383 0 0 Z " fill="#F6AA71" transform="translate(169,759)"/>
<path d="M0 0 C0.33 0.66 0.66 1.32 1 2 C-9.56 2 -20.12 2 -31 2 C-31 1.34 -31 0.68 -31 0 C-30.296 0.012 -29.592 0.023 -28.867 0.035 C-21.902 0.099 -15.066 -0.24 -8.129 -0.879 C-5.168 -0.993 -2.831 -0.858 0 0 Z " fill="#2091A0" transform="translate(523,112)"/>
<path d="M0 0 C-2.327 2.327 -4.174 2.99 -7.25 4.125 C-8.183 4.478 -9.117 4.831 -10.078 5.195 C-13 6 -13 6 -19 6 C-19.33 11.61 -19.66 17.22 -20 23 C-20.33 23 -20.66 23 -21 23 C-21 16.73 -21 10.46 -21 4 C-17.973 3.544 -14.945 3.089 -11.918 2.633 C-7.27 1.625 -5.028 -0.223 0 0 Z " fill="#E17D75" transform="translate(914,715)"/>
<path d="M0 0 C0.33 0 0.66 0 1 0 C1.025 0.661 1.05 1.322 1.076 2.004 C1.192 4.982 1.314 7.96 1.438 10.938 C1.477 11.978 1.516 13.019 1.557 14.092 C1.599 15.081 1.64 16.071 1.684 17.09 C1.72 18.006 1.757 18.923 1.795 19.867 C1.77 21.982 1.77 21.982 3 23 C3.041 25 3.043 27 3 29 C3.66 29 4.32 29 5 29 C4.67 30.65 4.34 32.3 4 34 C1.37 32.685 1.032 31.742 0 29 C-0.227 25.884 -0.227 25.884 -0.195 22.266 C-0.189 20.97 -0.182 19.675 -0.176 18.34 C-0.159 16.977 -0.142 15.613 -0.125 14.25 C-0.115 12.871 -0.106 11.492 -0.098 10.113 C-0.074 6.742 -0.041 3.371 0 0 Z " fill="#E28071" transform="translate(876,719)"/>
<path d="M0 0 C-3.767 1.676 -7.539 3.339 -11.312 5 C-12.384 5.477 -13.456 5.954 -14.561 6.445 C-15.589 6.896 -16.617 7.348 -17.676 7.812 C-18.624 8.231 -19.572 8.65 -20.548 9.082 C-23 10 -23 10 -26 10 C-26 9.34 -26 8.68 -26 8 C-25.01 8 -24.02 8 -23 8 C-22.67 7.34 -22.34 6.68 -22 6 C-20.074 5.254 -20.074 5.254 -17.688 4.562 C-14.187 3.475 -11.917 2.213 -9 0 C-5.378 -0.887 -3.564 -1.188 0 0 Z " fill="#2B8797" transform="translate(390,136)"/>
<path d="M0 0 C0.33 0 0.66 0 1 0 C1.33 5.61 1.66 11.22 2 17 C3.403 17.454 4.805 17.908 6.25 18.375 C9.319 19.368 12.146 20.494 15 22 C15 22.66 15 23.32 15 24 C13.519 23.719 12.04 23.425 10.562 23.125 C9.739 22.963 8.915 22.8 8.066 22.633 C7.384 22.424 6.703 22.215 6 22 C5.67 21.34 5.34 20.68 5 20 C3.348 19.298 1.681 18.63 0 18 C-0.33 17.67 -0.66 17.34 -1 17 C-0.909 14.133 -0.762 11.297 -0.562 8.438 C-0.51 7.631 -0.458 6.825 -0.404 5.994 C-0.274 3.996 -0.138 1.998 0 0 Z " fill="#F8BD74" transform="translate(199,737)"/>
<path d="M0 0 C2.6 6.357 2.612 13.212 3 20 C2.34 20 1.68 20 1 20 C0.34 14.72 -0.32 9.44 -1 4 C-4.859 2.655 -4.859 2.655 -8 4 C-8 3.01 -8 2.02 -8 1 C-3.375 -1.125 -3.375 -1.125 0 0 Z M-10 4 C-9.34 4.33 -8.68 4.66 -8 5 C-9.32 6.32 -10.64 7.64 -12 9 C-11.125 5.125 -11.125 5.125 -10 4 Z " fill="#7AB997" transform="translate(180,120)"/>
<path d="M0 0 C0.66 0.99 1.32 1.98 2 3 C0.397 4.772 -1.208 6.542 -2.812 8.312 C-3.264 8.812 -3.716 9.312 -4.182 9.826 C-6.402 12.274 -8.632 14.695 -11 17 C-11.33 16.01 -11.66 15.02 -12 14 C-10.234 11.336 -10.234 11.336 -7.75 8.375 C-6.94 7.393 -6.131 6.41 -5.297 5.398 C-3 3 -3 3 0 2 C0 1.34 0 0.68 0 0 Z " fill="#438C9A" transform="translate(252,227)"/>
<path d="M0 0 C2.31 0.33 4.62 0.66 7 1 C7 1.66 7 2.32 7 3 C-0.777 6.218 -7.643 6.321 -16 6 C-16 5.67 -16 5.34 -16 5 C-15.13 4.927 -15.13 4.927 -14.242 4.852 C-9.589 4.406 -5.346 3.847 -1 2 C-0.67 1.34 -0.34 0.68 0 0 Z " fill="#A6D090" transform="translate(816,128)"/>
<path d="M0 0 C2.254 3.381 2.761 5.908 3.562 9.875 C3.811 11.089 4.06 12.304 4.316 13.555 C4.542 14.692 4.768 15.829 5 17 C5.193 17.873 5.387 18.745 5.586 19.645 C6.015 22.086 6.099 24.336 6.062 26.812 C6.053 27.603 6.044 28.393 6.035 29.207 C6.024 29.799 6.012 30.39 6 31 C5.67 31 5.34 31 5 31 C3.139 23.68 2.442 16.532 2 9 C1.34 9 0.68 9 0 9 C-1.108 5.675 -0.845 3.378 0 0 Z " fill="#E99877" transform="translate(887,668)"/>
<path d="M0 0 C0.33 0 0.66 0 1 0 C3.128 8.839 3.076 17.146 2.625 26.188 C2.567 27.534 2.509 28.881 2.453 30.229 C2.313 33.486 2.162 36.743 2 40 C1.67 40 1.34 40 1 40 C0.372 26.66 -0.177 13.357 0 0 Z " fill="#6E7483" transform="translate(854,423)"/>
<path d="M0 0 C6.27 0 12.54 0 19 0 C19.33 0.66 19.66 1.32 20 2 C13.303 3.03 6.769 3.102 0 3 C0 2.01 0 1.02 0 0 Z " fill="#2494A4" transform="translate(470,112)"/>
<path d="M0 0 C-2.545 3.11 -5.195 3.913 -9 5 C-9.625 5.182 -10.25 5.364 -10.895 5.551 C-13.239 6.051 -15.356 6.098 -17.75 6.062 C-18.549 6.053 -19.348 6.044 -20.172 6.035 C-20.775 6.024 -21.378 6.012 -22 6 C-18.799 4.3 -15.551 3.052 -12.125 1.875 C-11.117 1.522 -10.109 1.169 -9.07 0.805 C-5.914 -0.023 -3.248 -0.145 0 0 Z " fill="#EC8072" transform="translate(230,766)"/>
<path d="M0 0 C0.33 0 0.66 0 1 0 C1.312 2.25 1.312 2.25 1 5 C-1.609 7.538 -3.542 8.847 -7 10 C-7.66 10.66 -8.32 11.32 -9 12 C-9 7.133 -9 7.133 -8 5 C-5.697 3.931 -3.363 2.928 -1 2 C-0.67 1.34 -0.34 0.68 0 0 Z " fill="#61AB9C" transform="translate(181,165)"/>
<path d="M0 0 C2.504 2.252 3.851 4.402 5.262 7.449 C5.856 8.721 5.856 8.721 6.463 10.018 C6.867 10.899 7.271 11.78 7.688 12.688 C8.103 13.58 8.519 14.473 8.947 15.393 C9.971 17.592 10.988 19.795 12 22 C11.34 22.33 10.68 22.66 10 23 C10 22.34 10 21.68 10 21 C9.34 21 8.68 21 8 21 C7.674 20.131 7.348 19.262 7.012 18.367 C6.575 17.215 6.138 16.062 5.688 14.875 C5.258 13.738 4.829 12.601 4.387 11.43 C3.047 7.978 3.047 7.978 1.332 4.695 C0 2 0 2 0 0 Z " fill="#B97880" transform="translate(197,593)"/>
<path d="M0 0 C7.027 0.503 14.019 1.042 21 2 C17.241 4.422 13.825 4.267 9.438 4.25 C8.765 4.258 8.093 4.265 7.4 4.273 C3.716 4.259 2.144 4.096 -1 2 C-0.67 1.34 -0.34 0.68 0 0 Z " fill="#EF696F" transform="translate(455,797)"/>
<path d="M0 0 C0.66 0.33 1.32 0.66 2 1 C0.045 8.97 0.045 8.97 -3 11 C-5.688 11.688 -5.688 11.688 -8 12 C-9.858 8.865 -10.201 6.625 -10 3 C-9 5 -8 7 -7 9 C-5.68 9 -4.36 9 -3 9 C-2.01 6.03 -1.02 3.06 0 0 Z " fill="#ABD190" transform="translate(180,151)"/>
<path d="M0 0 C0.289 0.639 0.577 1.279 0.875 1.938 C1.828 4.152 1.828 4.152 4 5 C5.103 8.081 5.105 11.002 5.062 14.25 C5.053 15.142 5.044 16.034 5.035 16.953 C5.024 17.629 5.012 18.304 5 19 C3.099 17.394 2.104 16.441 1.523 13.984 C1.474 13.247 1.425 12.51 1.375 11.75 C1.312 10.962 1.249 10.175 1.184 9.363 C1.123 8.583 1.062 7.804 1 7 C0.698 4.661 0.347 2.333 0 0 Z " fill="#52A99F" transform="translate(796,100)"/>
<path d="M0 0 C-2.934 1.956 -5.269 2.636 -8.66 3.426 C-12.822 4.447 -16.905 5.741 -21 7 C-21.66 6.34 -22.32 5.68 -23 5 C-21.68 5 -20.36 5 -19 5 C-19 4.34 -19 3.68 -19 3 C-16.772 2.494 -14.543 1.995 -12.312 1.5 C-10.45 1.082 -10.45 1.082 -8.551 0.656 C-5.576 0.106 -3.006 -0.138 0 0 Z " fill="#EA8172" transform="translate(173,754)"/>
<path d="M0 0 C0.66 0 1.32 0 2 0 C3 3 3 3 1.348 6.355 C0.596 7.639 -0.166 8.916 -0.938 10.188 C-1.517 11.169 -1.517 11.169 -2.107 12.17 C-3.063 13.785 -4.03 15.393 -5 17 C-5.66 17 -6.32 17 -7 17 C-6.46 13.115 -5.455 11.022 -3 8 C-0.507 4.317 -0.507 4.317 0 0 Z " fill="#558A98" transform="translate(211,282)"/>
<path d="M0 0 C1.062 1.875 1.062 1.875 2 4 C1.67 4.66 1.34 5.32 1 6 C1.66 6 2.32 6 3 6 C2.34 7.98 1.68 9.96 1 12 C1.66 12.33 2.32 12.66 3 13 C2.34 15.97 1.68 18.94 1 22 C0.01 22 -0.98 22 -2 22 C-1.67 21.67 -1.34 21.34 -1 21 C-0.843 19.441 -0.749 17.875 -0.684 16.309 C-0.621 14.892 -0.621 14.892 -0.557 13.447 C-0.517 12.454 -0.478 11.461 -0.438 10.438 C-0.373 8.942 -0.373 8.942 -0.307 7.416 C-0.2 4.944 -0.098 2.472 0 0 Z " fill="#F7C977" transform="translate(878,678)"/>
<path d="M0 0 C0.697 0.146 1.395 0.291 2.113 0.441 C6.174 1.227 10.264 1.802 14.355 2.402 C17 3 17 3 19 5 C13.12 6.748 7.549 5.285 2 3 C1.34 2.01 0.68 1.02 0 0 Z " fill="#4FA59D" transform="translate(761,128)"/>
<path d="M0 0 C4.553 4.553 4.125 14.105 4.125 20.312 C4.084 21.529 4.042 22.746 4 24 C3.67 24 3.34 24 3 24 C2.879 23.094 2.758 22.188 2.633 21.254 C1.491 12.922 1.491 12.922 -0.188 4.688 C-0.456 3.471 -0.724 2.254 -1 1 C-0.67 0.67 -0.34 0.34 0 0 Z " fill="#41A0A0" transform="translate(182,115)"/>
<path d="M0 0 C3 1 3 1 4 3 C4.072 5.718 4.093 8.409 4.062 11.125 C4.058 11.879 4.053 12.633 4.049 13.41 C4.037 15.273 4.019 17.137 4 19 C3.67 19 3.34 19 3 19 C2.67 15.7 2.34 12.4 2 9 C1.67 9 1.34 9 1 9 C1 7.02 1 5.04 1 3 C0.34 2.67 -0.32 2.34 -1 2 C-0.67 1.34 -0.34 0.68 0 0 Z " fill="#3B9BA1" transform="translate(779,133)"/>
<path d="M0 0 C4.862 0.477 7.929 1.354 12 4 C14.309 5.07 16.646 6.031 19 7 C19 7.33 19 7.66 19 8 C13.695 8.685 9.65 6.203 5 4 C3.338 3.322 1.674 2.648 0 2 C0 1.34 0 0.68 0 0 Z " fill="#F0A375" transform="translate(857,709)"/>
<path d="M0 0 C0.99 0.33 1.98 0.66 3 1 C3.688 3.062 3.688 3.062 4 5 C5.65 5 7.3 5 9 5 C9.33 3.68 9.66 2.36 10 1 C10.201 4.716 10.152 5.772 8 9 C6.35 9.33 4.7 9.66 3 10 C2.01 6.7 1.02 3.4 0 0 Z " fill="#C0DE8B" transform="translate(169,151)"/>
<path d="M0 0 C0.66 1.32 1.32 2.64 2 4 C2.66 4 3.32 4 4 4 C4.869 5.408 5.72 6.826 6.562 8.25 C7.038 9.039 7.514 9.828 8.004 10.641 C9.13 13.308 9.017 14.345 8 17 C7.608 16.154 7.216 15.309 6.812 14.438 C5.115 11.218 3.249 8.426 1.086 5.516 C0 4 0 4 -1 2 C-0.67 1.34 -0.34 0.68 0 0 Z " fill="#75B99B" transform="translate(787,86)"/>
<path d="M0 0 C-1.32 0.33 -2.64 0.66 -4 1 C-4 1.66 -4 2.32 -4 3 C-5.083 3.186 -5.083 3.186 -6.188 3.375 C-8.957 3.99 -11.397 4.884 -14 6 C-14.33 5.01 -14.66 4.02 -15 3 C-9.897 1.095 -5.537 -0.426 0 0 Z " fill="#E6696D" transform="translate(621,783)"/>
<path d="M0 0 C0 0.66 0 1.32 0 2 C-6.468 3.512 -12.356 4.214 -19 4 C-13.086 0.816 -6.695 -0.343 0 0 Z M-21 4 C-19 5 -19 5 -19 5 Z " fill="#369AA0" transform="translate(763,117)"/>
<path d="M0 0 C0 0.66 0 1.32 0 2 C0.66 2.33 1.32 2.66 2 3 C2 3.66 2 4.32 2 5 C-5.75 4.25 -5.75 4.25 -8 2 C-4.772 -0.152 -3.716 -0.201 0 0 Z " fill="#94C694" transform="translate(150,144)"/>
<path d="M0 0 C3.3 0 6.6 0 10 0 C10.33 0.66 10.66 1.32 11 2 C8.36 2.33 5.72 2.66 3 3 C3.66 3.66 4.32 4.32 5 5 C2.36 5 -0.28 5 -3 5 C-1.68 4.67 -0.36 4.34 1 4 C0.67 2.68 0.34 1.36 0 0 Z " fill="#48A1A0" transform="translate(834,128)"/>
<path d="M0 0 C-3.265 3.265 -7.41 3.932 -11.938 4.125 C-12.618 4.084 -13.299 4.043 -14 4 C-11.686 1.292 -9.907 0.459 -6.438 -0.25 C-5.652 -0.42 -4.867 -0.59 -4.059 -0.766 C-2 -1 -2 -1 0 0 Z " fill="#F9C374" transform="translate(215,766)"/>
<path d="M0 0 C-2.69 2.69 -5.369 3.027 -9 4 C-9.99 4.495 -9.99 4.495 -11 5 C-11.99 4.34 -12.98 3.68 -14 3 C-10.172 -0.828 -5.154 -0.101 0 0 Z " fill="#E68B77" transform="translate(865,700)"/>
<path d="M0 0 C0.99 0.99 1.98 1.98 3 3 C0.667 5.333 -1.667 7.667 -4 10 C-4.66 9.01 -5.32 8.02 -6 7 C-4.02 4.69 -2.04 2.38 0 0 Z " fill="#CE7880" transform="translate(778,669)"/>
<path d="M0 0 C0.33 0.99 0.66 1.98 1 3 C-2.333 6.333 -5.667 9.667 -9 13 C-8.01 10.03 -7.02 7.06 -6 4 C-4.35 3.67 -2.7 3.34 -1 3 C-0.67 2.01 -0.34 1.02 0 0 Z " fill="#57A79F" transform="translate(799,148)"/>
<path d="M0 0 C4.318 0.508 8.033 1.197 12 3 C12 3.99 12 4.98 12 6 C9.75 6.25 9.75 6.25 7 6 C4.875 4.125 4.875 4.125 3 2 C2.01 1.34 1.02 0.68 0 0 Z " fill="#72B49B" transform="translate(197,142)"/>
<path d="M0 0 C3.63 0 7.26 0 11 0 C10.34 1.65 9.68 3.3 9 5 C6.03 4.01 3.06 3.02 0 2 C0 1.34 0 0.68 0 0 Z " fill="#2B93A3" transform="translate(619,128)"/>
<path d="M0 0 C2.64 0.33 5.28 0.66 8 1 C8 1.66 8 2.32 8 3 C9.98 3 11.96 3 14 3 C14.33 3.66 14.66 4.32 15 5 C13.742 5.021 12.484 5.041 11.188 5.062 C10.48 5.074 9.772 5.086 9.043 5.098 C7 5 7 5 4 4 C3.67 3.34 3.34 2.68 3 2 C2.01 1.34 1.02 0.68 0 0 Z " fill="#ED8672" transform="translate(215,756)"/>
<path d="M0 0 C0.66 0.33 1.32 0.66 2 1 C-1.491 5.004 -3.65 6.627 -9 7 C-9.33 6.34 -9.66 5.68 -10 5 C-8.38 4.136 -6.754 3.284 -5.125 2.438 C-4.22 1.962 -3.315 1.486 -2.383 0.996 C-1.203 0.503 -1.203 0.503 0 0 Z " fill="#E76F74" transform="translate(670,761)"/>
<path d="M0 0 C0.33 0 0.66 0 1 0 C1.025 0.59 1.05 1.18 1.076 1.788 C1.192 4.463 1.315 7.138 1.438 9.812 C1.477 10.741 1.516 11.67 1.557 12.627 C1.599 13.52 1.64 14.412 1.684 15.332 C1.72 16.154 1.757 16.976 1.795 17.823 C1.934 20.179 1.934 20.179 3 23 C2.01 23 1.02 23 0 23 C0 15.41 0 7.82 0 0 Z " fill="#EE9A75" transform="translate(877,718)"/>
<path d="M0 0 C0.66 0.33 1.32 0.66 2 1 C-3.002 10.595 -3.002 10.595 -7 14 C-7.33 12.68 -7.66 11.36 -8 10 C-7.34 10 -6.68 10 -6 10 C-3.68 6.81 -1.654 3.583 0 0 Z " fill="#C7E28C" transform="translate(794,134)"/>
<path d="M0 0 C2.062 0.438 2.062 0.438 4 1 C2.68 1.33 1.36 1.66 0 2 C-0.268 3.072 -0.536 4.145 -0.812 5.25 C-1.861 8.562 -2.628 10.529 -5 13 C-5.66 13 -6.32 13 -7 13 C-6.569 12.14 -6.569 12.14 -6.129 11.262 C-5.403 9.808 -4.682 8.353 -3.965 6.895 C-3.626 6.207 -3.287 5.52 -2.938 4.812 C-2.596 4.118 -2.254 3.423 -1.902 2.707 C-1 1 -1 1 0 0 Z " fill="#B8D98E" transform="translate(796,134)"/>
<path d="M0 0 C0.99 0.66 1.98 1.32 3 2 C5.324 2.394 7.658 2.735 10 3 C10 3.66 10 4.32 10 5 C4.346 5.346 0.97 4.434 -4 2 C-2.68 1.34 -1.36 0.68 0 0 Z " fill="#379AA1" transform="translate(827,123)"/>
<path d="M0 0 C0.66 0 1.32 0 2 0 C3.478 2.957 3.06 5.742 3 9 C2.67 7.68 2.34 6.36 2 5 C1.01 5.495 1.01 5.495 0 6 C-0.658 9.029 -0.658 9.029 -1 12 C-1.33 12 -1.66 12 -2 12 C-2.178 7.452 -1.998 4.121 0 0 Z " fill="#B2D890" transform="translate(787,98)"/>
<path d="M0 0 C1.339 1.662 2.671 3.33 4 5 C4.598 5.681 5.196 6.361 5.812 7.062 C7 9 7 9 6.688 11.25 C6.461 11.828 6.234 12.405 6 13 C2.792 11.396 2.37 8.197 1 5 C0.34 4.67 -0.32 4.34 -1 4 C-0.67 2.68 -0.34 1.36 0 0 Z " fill="#8AC498" transform="translate(787,89)"/>
<path d="M0 0 C0.91 0.009 1.82 0.018 2.758 0.027 C3.456 0.039 4.155 0.051 4.875 0.062 C-3.058 4.062 -3.058 4.062 -8.125 4.062 C-7.795 3.072 -7.465 2.082 -7.125 1.062 C-4.6 -0.2 -2.813 -0.036 0 0 Z " fill="#F9BE76" transform="translate(179.125,754.9375)"/>
<path d="M0 0 C5.07 0.654 9.42 2.855 14 5 C11 7 11 7 7 7 C7 6.01 7 5.02 7 4 C6.103 3.567 6.103 3.567 5.188 3.125 C3 2 3 2 0 0 Z " fill="#EE9F75" transform="translate(895,700)"/>
<path d="M0 0 C0.66 0.33 1.32 0.66 2 1 C1.335 5.389 -0.188 8.981 -2 13 C-3.117 11.297 -3.117 11.297 -4 9 C-3.32 6.641 -3.32 6.641 -2.125 4.25 C-1.736 3.451 -1.346 2.652 -0.945 1.828 C-0.633 1.225 -0.321 0.622 0 0 Z " fill="#B97B85" transform="translate(826,589)"/>
<path d="M0 0 C7.745 0.745 7.745 0.745 11 4 C11 4.66 11 5.32 11 6 C9.35 6 7.7 6 6 6 C6 5.01 6 4.02 6 3 C4.02 2.34 2.04 1.68 0 1 C0 0.67 0 0.34 0 0 Z " fill="#97C796" transform="translate(193,142)"/>
<path d="M0 0 C0.33 0 0.66 0 1 0 C1 3.3 1 6.6 1 10 C-2.96 10 -6.92 10 -11 10 C-11 9.67 -11 9.34 -11 9 C-4.25 7.875 -4.25 7.875 -2 9 C-1.34 6.03 -0.68 3.06 0 0 Z " fill="#2C939D" transform="translate(164,130)"/>
<path d="M0 0 C-3.445 2.296 -5.938 2.54 -10 3 C-10 3.66 -10 4.32 -10 5 C-9.01 5.33 -8.02 5.66 -7 6 C-9.97 5.505 -9.97 5.505 -13 5 C-13 4.01 -13 3.02 -13 2 C-4.571 -0.286 -4.571 -0.286 0 0 Z " fill="#54A79D" transform="translate(758,120)"/>
<path d="M0 0 C1.32 0 2.64 0 4 0 C3.34 3.3 2.68 6.6 2 10 C1.34 9.67 0.68 9.34 0 9 C0 6.03 0 3.06 0 0 Z " fill="#648997" transform="translate(179,354)"/>
<path d="M0 0 C6.098 -0.221 11.216 -0.012 17 2 C17 2.33 17 2.66 17 3 C10.998 3.218 5.808 2.506 0 1 C0 0.67 0 0.34 0 0 Z " fill="#248493" transform="translate(569,119)"/>
<path d="M0 0 C1.98 0.66 3.96 1.32 6 2 C6 2.66 6 3.32 6 4 C7.65 4 9.3 4 11 4 C11 4.33 11 4.66 11 5 C6.38 5 1.76 5 -3 5 C-2.01 3.35 -1.02 1.7 0 0 Z " fill="#349AAB" transform="translate(457,113)"/>
<path d="M0 0 C-0.99 0.66 -1.98 1.32 -3 2 C-1.68 2.66 -0.36 3.32 1 4 C-0.688 4.688 -0.688 4.688 -3 5 C-5.75 3.562 -5.75 3.562 -8 2 C-6.142 -1.716 -3.445 -1.069 0 0 Z " fill="#90C496" transform="translate(764,123)"/>
<path d="M0 0 C4.177 -0.265 7.043 -0.319 11 1 C10.67 1.66 10.34 2.32 10 3 C6.04 3 2.08 3 -2 3 C-1.34 2.01 -0.68 1.02 0 0 Z " fill="#2695A7" transform="translate(553,115)"/>
<path d="M0 0 C0.928 0.206 1.856 0.413 2.812 0.625 C1.812 2.625 1.812 2.625 -1.25 3.75 C-2.704 4.183 -2.704 4.183 -4.188 4.625 C-4.848 3.635 -5.507 2.645 -6.188 1.625 C-3.188 -0.375 -3.188 -0.375 0 0 Z " fill="#E67176" transform="translate(434.1875,790.375)"/>
<path d="M0 0 C0.99 0.495 0.99 0.495 2 1 C2 2.98 2 4.96 2 7 C2.66 7 3.32 7 4 7 C3.67 8.65 3.34 10.3 3 12 C2.34 11.67 1.68 11.34 1 11 C0.586 8.496 0.586 8.496 0.375 5.438 C0.3 4.426 0.225 3.414 0.148 2.371 C0.099 1.589 0.05 0.806 0 0 Z " fill="#EC8873" transform="translate(877,741)"/>
<path d="M0 0 C0 1.98 0 3.96 0 6 C-1.65 6.66 -3.3 7.32 -5 8 C-3.919 0 -3.919 0 0 0 Z " fill="#A2CD91" transform="translate(799,135)"/>
<path d="M0 0 C0.33 0 0.66 0 1 0 C1.25 5.625 1.25 5.625 -1 9 C-3.125 9.688 -3.125 9.688 -5 10 C-4.188 7.562 -4.188 7.562 -3 5 C-2.01 4.67 -1.02 4.34 0 4 C0 2.68 0 1.36 0 0 Z " fill="#6BB19C" transform="translate(799,142)"/>
<path d="M0 0 C0.887 0.186 1.774 0.371 2.688 0.562 C5.852 0.98 7.948 0.808 11 0 C10.67 0.99 10.34 1.98 10 3 C6.7 3 3.4 3 0 3 C0 2.01 0 1.02 0 0 Z " fill="#90C295" transform="translate(169,163)"/>
<path d="M0 0 C2.97 0.33 5.94 0.66 9 1 C9.33 1.99 9.66 2.98 10 4 C9.34 4.66 8.68 5.32 8 6 C6.664 5.192 5.331 4.378 4 3.562 C3.258 3.11 2.515 2.658 1.75 2.191 C1.173 1.798 0.595 1.405 0 1 C0 0.67 0 0.34 0 0 Z " fill="#2C94A4" transform="translate(686,160)"/>
<path d="M0 0 C0.66 0.33 1.32 0.66 2 1 C0.401 2.008 -1.204 3.006 -2.812 4 C-4.152 4.835 -4.152 4.835 -5.52 5.688 C-8 7 -8 7 -11 7 C-9.606 4.212 -7.825 3.696 -5.062 2.312 C-4.167 1.855 -3.271 1.397 -2.348 0.926 C-1.573 0.62 -0.798 0.315 0 0 Z " fill="#318594" transform="translate(348,153)"/>
<path d="M0 0 C0.598 0.206 1.196 0.412 1.812 0.625 C0.822 1.12 0.822 1.12 -0.188 1.625 C2.287 2.615 2.287 2.615 4.812 3.625 C4.812 3.955 4.812 4.285 4.812 4.625 C-0.603 4.994 -0.603 4.994 -3.562 3.125 C-4.099 2.63 -4.635 2.135 -5.188 1.625 C-2.188 -0.375 -2.188 -0.375 0 0 Z " fill="#6DB29B" transform="translate(143.1875,144.375)"/>
<path d="M0 0 C1 3 1 3 0.223 5.043 C-0.16 5.751 -0.543 6.458 -0.938 7.188 C-1.318 7.903 -1.698 8.618 -2.09 9.355 C-2.54 10.17 -2.54 10.17 -3 11 C-3.66 10.67 -4.32 10.34 -5 10 C-3.665 6.406 -2.04 3.245 0 0 Z " fill="#E68075" transform="translate(187,726)"/>
<path d="M0 0 C6.4 0.492 6.4 0.492 9.438 3.062 C10.211 4.022 10.211 4.022 11 5 C9.539 4.549 8.082 4.089 6.625 3.625 C5.813 3.37 5.001 3.115 4.164 2.852 C2 2 2 2 0 0 Z " fill="#E68A76" transform="translate(900,701)"/>
<path d="M0 0 C1.698 0.252 3.385 0.576 5.062 0.938 C5.982 1.132 6.901 1.327 7.848 1.527 C8.913 1.761 8.913 1.761 10 2 C10.33 2.99 10.66 3.98 11 5 C9.373 4.718 7.749 4.424 6.125 4.125 C4.768 3.881 4.768 3.881 3.383 3.633 C1 3 1 3 -1 1 C-0.67 0.67 -0.34 0.34 0 0 Z " fill="#3394A3" transform="translate(651,142)"/>
<path d="M0 0 C2.09 4.179 2.166 4.804 1 9 C0.01 9 -0.98 9 -2 9 C-1.34 6.03 -0.68 3.06 0 0 Z " fill="#AB7D88" transform="translate(839,553)"/>
<path d="M0 0 C1.65 0 3.3 0 5 0 C5 1.32 5 2.64 5 4 C4.01 4.33 3.02 4.66 2 5 C1.34 4.67 0.68 4.34 0 4 C0 2.68 0 1.36 0 0 Z " fill="#4BA0A0" transform="translate(785,165)"/>
<path d="M0 0 C-3.188 2.125 -5.265 2.502 -9 3 C-8.67 2.01 -8.34 1.02 -8 0 C-4.71 -1.097 -3.287 -0.8 0 0 Z " fill="#3394A2" transform="translate(353,152)"/>
<path d="M0 0 C0 0.66 0 1.32 0 2 C-2.647 3.461 -3.894 4 -7 4 C-7 3.01 -7 2.02 -7 1 C-4.537 -0.231 -2.72 -0.072 0 0 Z " fill="#BFDE8C" transform="translate(179,130)"/>
<path d="M0 0 C2.31 0.33 4.62 0.66 7 1 C7 1.66 7 2.32 7 3 C4.36 3 1.72 3 -1 3 C-0.67 2.01 -0.34 1.02 0 0 Z " fill="#B4D893" transform="translate(816,128)"/>
<path d="M0 0 C1.375 0.017 1.375 0.017 2.777 0.035 C3.696 0.044 4.616 0.053 5.562 0.062 C6.273 0.074 6.983 0.086 7.715 0.098 C4.701 1.662 2.125 2.739 -1.285 3.098 C-1.945 2.438 -2.605 1.778 -3.285 1.098 C-2.285 0.098 -2.285 0.098 0 0 Z " fill="#3F909E" transform="translate(405.28515625,127.90234375)"/>
<path d="M0 0 C-0.33 1.32 -0.66 2.64 -1 4 C-3.333 4 -5.667 4 -8 4 C-8 3.34 -8 2.68 -8 2 C-5.094 0.743 -3.204 0 0 0 Z " fill="#94C695" transform="translate(180,124)"/>
<path d="M0 0 C-1.32 1.32 -2.64 2.64 -4 4 C-4.99 3.01 -5.98 2.02 -7 1 C-3.375 -1.125 -3.375 -1.125 0 0 Z " fill="#41909F" transform="translate(291,193)"/>
<path d="M0 0 C-1.176 0.433 -1.176 0.433 -2.375 0.875 C-5.097 1.849 -5.097 1.849 -7 4 C-7 2.333 -7 0.667 -7 -1 C-3.514 -2.202 -3.32 -2.213 0 0 Z " fill="#52A29D" transform="translate(179,173)"/>
<path d="M0 0 C0.33 0.66 0.66 1.32 1 2 C-1.174 4.5 -2.73 5.436 -6 6 C-4.755 2.264 -3.366 1.812 0 0 Z " fill="#268A9A" transform="translate(358,146)"/>
<path d="M0 0 C1.98 0.495 1.98 0.495 4 1 C3.34 1 2.68 1 2 1 C2.33 2.65 2.66 4.3 3 6 C1.68 5.67 0.36 5.34 -1 5 C-0.67 3.35 -0.34 1.7 0 0 Z " fill="#BCDC8D" transform="translate(768,122)"/>
<path d="M0 0 C3.625 -0.188 3.625 -0.188 7 0 C4.64 2.097 3.454 2.969 0.25 3.188 C-0.864 3.095 -0.864 3.095 -2 3 C-1.34 2.01 -0.68 1.02 0 0 Z " fill="#F7C275" transform="translate(869,701)"/>
<path d="M0 0 C2.565 2.565 2.54 4.477 3 8 C2.01 8.33 1.02 8.66 0 9 C-0.879 2.848 -0.879 2.848 -1 1 C-0.67 0.67 -0.34 0.34 0 0 Z " fill="#728996" transform="translate(849,387)"/>
<path d="M0 0 C2.31 0 4.62 0 7 0 C7.33 1.32 7.66 2.64 8 4 C2.25 2.25 2.25 2.25 0 0 Z " fill="#2A94A4" transform="translate(662,147)"/>
<path d="M0 0 C2.296 3.445 2.54 5.938 3 10 C1.5 8.938 1.5 8.938 0 7 C-0.188 3.312 -0.188 3.312 0 0 Z " fill="#66B099" transform="translate(798,109)"/>
</svg>
