<?xml version="1.0" encoding="UTF-8"?>
<!-- Generator: visioncortex VTracer 0.6.4 -->
<svg version="1.1" xmlns="http://www.w3.org/2000/svg" width="1024" height="1024">
<path d="M0 0 C337.92 0 675.84 0 1024 0 C1024 337.92 1024 675.84 1024 1024 C686.08 1024 348.16 1024 0 1024 C0 686.08 0 348.16 0 0 Z " fill="#139F99" transform="translate(0,0)"/>
<path d="M0 0 C0.855 -0.003 1.71 -0.007 2.591 -0.01 C4.004 -0.008 4.004 -0.008 5.445 -0.005 C6.448 -0.008 7.45 -0.01 8.483 -0.013 C11.877 -0.019 15.27 -0.019 18.663 -0.018 C21.107 -0.022 23.551 -0.025 25.996 -0.03 C32.03 -0.038 38.064 -0.043 44.098 -0.045 C51.324 -0.048 58.549 -0.057 65.774 -0.065 C83.241 -0.086 100.708 -0.097 118.175 -0.106 C126.437 -0.11 134.7 -0.115 142.962 -0.12 C171.242 -0.138 199.521 -0.153 227.801 -0.161 C229.577 -0.161 231.353 -0.162 233.129 -0.162 C234.009 -0.162 234.89 -0.162 235.798 -0.163 C240.26 -0.164 244.722 -0.165 249.184 -0.166 C250.069 -0.167 250.955 -0.167 251.867 -0.167 C280.573 -0.175 309.279 -0.198 337.986 -0.231 C368.33 -0.265 398.675 -0.285 429.02 -0.288 C432.351 -0.289 435.683 -0.289 439.015 -0.29 C439.835 -0.29 440.655 -0.29 441.501 -0.29 C454.701 -0.292 467.901 -0.308 481.101 -0.328 C494.372 -0.349 507.643 -0.354 520.914 -0.345 C528.797 -0.34 536.679 -0.345 544.562 -0.367 C550.451 -0.382 556.34 -0.377 562.229 -0.363 C564.609 -0.36 566.989 -0.365 569.37 -0.376 C584.18 -0.446 596.018 -0.026 608.832 8.129 C608.832 8.789 608.832 9.449 608.832 10.129 C609.575 10.356 610.317 10.583 611.082 10.816 C614.375 12.388 615.807 14.129 617.832 17.129 C617.832 17.789 617.832 18.449 617.832 19.129 C618.492 19.129 619.152 19.129 619.832 19.129 C620.618 20.705 621.384 22.29 622.145 23.879 C622.574 24.761 623.003 25.642 623.446 26.551 C628.348 39.201 628.257 51.262 628.213 64.637 C628.217 66.936 628.222 69.236 628.228 71.535 C628.24 77.835 628.234 84.136 628.225 90.436 C628.219 96.539 628.227 102.641 628.234 108.744 C628.25 121.991 628.249 135.239 628.24 148.486 C628.232 160.079 628.23 171.672 628.234 183.265 C628.234 184.42 628.234 184.42 628.235 185.598 C628.236 188.722 628.236 191.846 628.237 194.971 C628.247 224.267 628.238 253.563 628.222 282.859 C628.208 308.875 628.209 334.891 628.224 360.907 C628.24 390.15 628.246 419.393 628.237 448.636 C628.236 451.755 628.235 454.874 628.234 457.992 C628.234 459.144 628.234 459.144 628.233 460.319 C628.23 471.904 628.234 483.488 628.241 495.073 C628.25 508.248 628.248 521.423 628.232 534.598 C628.223 541.319 628.221 548.04 628.23 554.762 C628.239 560.916 628.234 567.071 628.219 573.226 C628.215 575.45 628.217 577.675 628.224 579.9 C628.307 607.389 628.307 607.389 620.832 617.129 C619.935 618.892 619.935 618.892 619.02 620.691 C616.749 624.763 613.78 626.716 609.832 629.129 C609.172 629.129 608.512 629.129 607.832 629.129 C607.832 629.789 607.832 630.449 607.832 631.129 C605.98 631.926 604.126 632.716 602.27 633.504 C601.237 633.945 600.205 634.386 599.141 634.84 C592.106 637.581 586.407 638.42 578.898 638.386 C577.909 638.39 576.92 638.393 575.901 638.397 C572.579 638.406 569.257 638.401 565.934 638.396 C563.531 638.4 561.129 638.405 558.726 638.41 C553.497 638.42 548.268 638.423 543.04 638.421 C535.264 638.418 527.488 638.426 519.712 638.437 C505.014 638.456 490.316 638.462 475.618 638.463 C464.264 638.464 452.91 638.468 441.556 638.474 C438.287 638.476 435.019 638.478 431.75 638.48 C430.531 638.48 430.531 638.48 429.288 638.481 C406.427 638.493 383.566 638.501 360.706 638.5 C359.844 638.5 358.982 638.5 358.094 638.5 C353.725 638.5 349.356 638.5 344.987 638.5 C344.119 638.5 343.252 638.5 342.358 638.5 C340.603 638.499 338.848 638.499 337.094 638.499 C309.81 638.498 282.526 638.513 255.242 638.54 C224.582 638.571 193.922 638.588 163.263 638.586 C159.991 638.586 156.719 638.586 153.447 638.586 C152.642 638.586 151.836 638.586 151.006 638.586 C138.06 638.586 125.114 638.599 112.168 638.616 C99.146 638.633 86.124 638.635 73.102 638.622 C65.374 638.614 57.646 638.618 49.917 638.638 C44.134 638.651 38.352 638.644 32.569 638.628 C30.238 638.625 27.908 638.629 25.577 638.64 C11.269 638.704 -1.539 637.672 -15.168 633.129 C-15.168 632.469 -15.168 631.809 -15.168 631.129 C-15.724 630.861 -16.281 630.593 -16.855 630.316 C-24.099 626.596 -27.924 622.1 -32.168 615.129 C-32.168 614.139 -32.168 613.149 -32.168 612.129 C-32.828 612.129 -33.488 612.129 -34.168 612.129 C-36.549 605.327 -37.603 599.329 -37.545 592.139 C-37.549 591.181 -37.554 590.222 -37.558 589.235 C-37.569 586.034 -37.559 582.834 -37.548 579.633 C-37.552 577.311 -37.557 574.989 -37.563 572.666 C-37.575 566.293 -37.569 559.92 -37.56 553.546 C-37.552 547.376 -37.562 541.206 -37.569 535.036 C-37.585 521.639 -37.584 508.242 -37.575 494.845 C-37.567 483.119 -37.565 471.394 -37.569 459.669 C-37.569 458.891 -37.569 458.113 -37.57 457.311 C-37.571 454.152 -37.572 450.994 -37.573 447.835 C-37.582 418.209 -37.573 388.583 -37.557 358.957 C-37.543 332.646 -37.544 306.335 -37.559 280.024 C-37.575 250.455 -37.581 220.886 -37.572 191.317 C-37.571 188.163 -37.57 185.01 -37.569 181.856 C-37.569 181.08 -37.569 180.304 -37.568 179.504 C-37.565 167.788 -37.569 156.073 -37.576 144.357 C-37.585 131.032 -37.583 117.707 -37.567 104.382 C-37.559 97.584 -37.556 90.785 -37.566 83.987 C-37.574 77.762 -37.57 71.537 -37.554 65.312 C-37.55 63.062 -37.552 60.811 -37.559 58.561 C-37.611 41.345 -37.018 25.23 -24.418 11.941 C-22.168 10.129 -22.168 10.129 -19.168 9.129 C-18.707 8.648 -18.247 8.167 -17.773 7.672 C-15.796 5.772 -14.089 5.235 -11.48 4.441 C-10.268 4.064 -10.268 4.064 -9.031 3.68 C-8.108 3.407 -8.108 3.407 -7.168 3.129 C-7.168 2.469 -7.168 1.809 -7.168 1.129 C-4.423 0.214 -2.824 0.003 0 0 Z " fill="#FEF4E2" transform="translate(219.16753286123276,263.87119883298874)"/>
<path d="M0 0 C0.904 0.019 1.807 0.037 2.738 0.057 C10.483 0.374 16.321 2.527 22.75 6.812 C24.125 8.875 24.125 8.875 25.75 11.812 C26.156 12.5 26.562 13.187 26.98 13.895 C34.744 27.259 36.052 44.977 32.572 60.021 C29.993 69.723 26.152 77.092 17.75 82.812 C7.169 88.386 -3.909 87.68 -15.25 84.812 C-15.25 84.153 -15.25 83.493 -15.25 82.812 C-17.23 82.483 -19.21 82.153 -21.25 81.812 C-21.25 81.153 -21.25 80.493 -21.25 79.812 C-21.848 79.543 -22.446 79.274 -23.062 78.996 C-29.584 75.468 -32.202 69.195 -34.488 62.461 C-39.22 46.009 -36.834 27.315 -28.855 12.344 C-26.656 8.876 -24.667 7.091 -21.25 4.812 C-20.239 4.07 -19.229 3.328 -18.188 2.562 C-12.396 -0.888 -6.522 -0.27 0 0 Z " fill="#000302" transform="translate(603.25,119.1875)"/>
<path d="M0 0 C0.66 0 1.32 0 2 0 C3.174 3.602 4.338 7.207 5.5 10.812 C5.834 11.837 6.168 12.861 6.512 13.916 C6.828 14.899 7.143 15.882 7.469 16.895 C7.909 18.253 7.909 18.253 8.357 19.64 C9 22 9 22 9 25 C26.82 25 44.64 25 63 25 C63.99 20.545 63.99 20.545 65 16 C65.46 14.526 65.951 13.061 66.508 11.621 C66.904 10.582 66.904 10.582 67.309 9.521 C67.578 8.834 67.847 8.146 68.125 7.438 C68.402 6.715 68.679 5.992 68.965 5.248 C69.638 3.497 70.318 1.748 71 0 C73.229 2.739 74.564 5.107 75.605 8.477 C75.867 9.312 76.128 10.147 76.396 11.008 C76.658 11.871 76.919 12.735 77.188 13.625 C77.596 14.932 77.596 14.932 78.014 16.266 C80 22.698 80 22.698 80 25 C87.92 25 95.84 25 104 25 C102.219 28.562 101.662 29.567 98.742 31.797 C98.117 32.28 97.492 32.764 96.848 33.262 C95.871 33.998 95.871 33.998 94.875 34.75 C94.216 35.257 93.558 35.763 92.879 36.285 C91.258 37.53 89.63 38.766 88 40 C89.713 47.318 91.718 54.419 94.23 61.504 C95 64 95 64 95 67 C90.314 65.423 86.658 62.862 82.688 60 C82.042 59.549 81.397 59.098 80.732 58.633 C79.115 57.476 77.552 56.243 76 55 C76 54.34 76 53.68 76 53 C72.622 52.155 70.325 51.892 67 53 C67 53.66 67 54.32 67 55 C65.563 56.145 65.563 56.145 63.57 57.383 C62.857 57.828 62.145 58.272 61.41 58.73 C60.656 59.191 59.902 59.651 59.125 60.125 C58.379 60.593 57.632 61.061 56.863 61.543 C51.27 65 51.27 65 49 65 C50.742 57.909 52.639 50.915 55 44 C55.66 44 56.32 44 57 44 C57 42.68 57 41.36 57 40 C56.319 39.773 55.639 39.546 54.938 39.312 C51.301 37.688 47.972 35.672 45 33 C45 32.34 45 31.68 45 31 C44.01 31 43.02 31 42 31 C42 30.34 42 29.68 42 29 C39.348 27.925 36.716 26.905 34 26 C34 26.66 34 27.32 34 28 C32.439 29.329 32.439 29.329 30.281 30.82 C29.514 31.355 28.747 31.89 27.957 32.441 C26.741 33.275 26.741 33.275 25.5 34.125 C24.689 34.688 23.878 35.252 23.043 35.832 C21.033 37.227 19.018 38.616 17 40 C17.499 43.9 18.022 47.554 19.375 51.25 C21.191 56.428 22.602 61.696 24 67 C23.34 67 22.68 67 22 67 C22 66.34 22 65.68 22 65 C21.319 64.938 20.639 64.876 19.938 64.812 C16.045 63.736 12.966 61.743 10 59 C10 58.34 10 57.68 10 57 C9.257 56.732 8.515 56.464 7.75 56.188 C5 55 5 55 2.938 53.312 C1.113 51.788 1.113 51.788 -1 52.125 C-3.286 53.125 -5.026 54.487 -7 56 C-7.66 56 -8.32 56 -9 56 C-9 56.66 -9 57.32 -9 58 C-10.793 59.473 -10.793 59.473 -13.188 61.062 C-13.965 61.59 -14.742 62.117 -15.543 62.66 C-18.07 64.038 -20.166 64.592 -23 65 C-21.071 58.052 -18.665 51.383 -15.988 44.688 C-14.885 42.164 -14.885 42.164 -15 40 C-17.675 37.506 -20.683 35.417 -23.625 33.25 C-24.433 32.622 -25.241 31.994 -26.074 31.348 C-30.689 27.756 -30.689 27.756 -36.27 27.398 C-38.956 28.974 -41.541 30.545 -44.062 32.375 C-44.92 32.992 -45.777 33.61 -46.66 34.246 C-48.471 35.603 -50.244 37.011 -52 38.438 C-54 40 -54 40 -56 40 C-55.511 41.056 -55.511 41.056 -55.012 42.133 C-51.523 50.016 -49.541 57.532 -48 66 C-51.305 64.75 -54.306 63.357 -57.312 61.5 C-58.01 61.077 -58.707 60.654 -59.426 60.219 C-59.945 59.817 -60.465 59.414 -61 59 C-61 58.34 -61 57.68 -61 57 C-61.577 56.897 -62.155 56.794 -62.75 56.688 C-65.357 55.891 -66.974 54.809 -69 53 C-69 52.34 -69 51.68 -69 51 C-73.911 53.851 -78.597 57.028 -83.312 60.188 C-84.148 60.746 -84.984 61.305 -85.846 61.881 C-87.898 63.253 -89.949 64.626 -92 66 C-93.176 62.584 -92.824 60.669 -91.602 57.305 C-91.287 56.424 -90.973 55.544 -90.648 54.637 C-90.311 53.725 -89.973 52.814 -89.625 51.875 C-89.295 50.956 -88.965 50.037 -88.625 49.09 C-86.23 42.461 -86.23 42.461 -85 40 C-86.092 39.615 -86.092 39.615 -87.207 39.223 C-90.128 37.944 -92.22 36.444 -94.688 34.438 C-97.688 31.975 -97.688 31.975 -101 30 C-101 29.34 -101 28.68 -101 28 C-103.475 27.01 -103.475 27.01 -106 26 C-106 25.67 -106 25.34 -106 25 C-97.09 25 -88.18 25 -79 25 C-78.67 22.69 -78.34 20.38 -78 18 C-77.062 15.523 -77.062 15.523 -76 13.375 C-74.526 10.25 -73.447 7.46 -73 4 C-72.34 4 -71.68 4 -71 4 C-70.67 3.34 -70.34 2.68 -70 2 C-68.042 7.318 -66.095 12.641 -64.25 18 C-64.008 18.701 -63.765 19.403 -63.516 20.125 C-63 22 -63 22 -63 25 C-44.85 25 -26.7 25 -8 25 C-7.01 21.04 -6.02 17.08 -5 13 C-4.159 10.564 -3.274 8.141 -2.312 5.75 C-1.876 4.652 -1.439 3.553 -0.988 2.422 C-0.662 1.623 -0.336 0.823 0 0 Z " fill="#FEA725" transform="translate(587,682)"/>
<path d="M0 0 C8.58 0 17.16 0 26 0 C28.555 5.11 30.742 9.67 32.656 14.957 C33 15.9 33 15.9 33.35 16.861 C34.071 18.844 34.786 20.828 35.5 22.812 C35.977 24.128 36.455 25.444 36.934 26.76 C37.859 29.308 38.783 31.858 39.703 34.409 C41.461 39.275 43.23 44.138 45 49 C46.916 46.125 47.818 43.883 48.875 40.625 C49.227 39.543 49.579 38.462 49.941 37.348 C50.918 34.258 51.871 31.163 52.812 28.062 C55.679 18.645 58.869 9.333 62 0 C70.25 0 78.5 0 87 0 C87 1.65 87 3.3 87 5 C85.68 5.66 84.36 6.32 83 7 C82.67 30.43 82.34 53.86 82 78 C83.65 78.33 85.3 78.66 87 79 C87 80.65 87 82.3 87 84 C82.897 85.142 78.92 85.184 74.688 85.188 C73.953 85.2 73.219 85.212 72.463 85.225 C67.598 85.238 63.616 84.543 59 83 C59 82.01 59 81.02 59 80 C61.475 79.01 61.475 79.01 64 78 C65.164 71.442 65.221 64.934 65.316 58.285 C65.348 56.469 65.348 56.469 65.379 54.616 C65.445 50.765 65.504 46.914 65.562 43.062 C65.606 40.445 65.649 37.827 65.693 35.209 C65.8 28.806 65.902 22.403 66 16 C64.563 20.266 63.277 24.54 62.062 28.875 C60.342 34.914 58.382 40.852 56.297 46.773 C56.054 47.466 55.811 48.158 55.561 48.871 C54.334 52.366 53.094 55.856 51.834 59.339 C49.226 66.667 47.288 73.755 46.348 81.515 C46 84 46 84 45 86 C43.68 86 42.36 86 41 86 C40.648 85.019 40.296 84.038 39.934 83.027 C37.421 76.127 34.795 69.41 31.562 62.812 C27.474 54.415 24.682 45.602 21.872 36.711 C20.613 32.797 19.305 28.899 18 25 C17.975 30.941 17.957 36.881 17.945 42.822 C17.94 44.84 17.933 46.857 17.925 48.874 C17.912 51.788 17.907 54.703 17.902 57.617 C17.897 58.506 17.892 59.395 17.887 60.311 C17.886 66.263 18.302 72.089 19 78 C20.32 78.33 21.64 78.66 23 79 C23.043 80.666 23.041 82.334 23 84 C21.216 85.784 18.841 85.132 16.469 85.137 C15.737 85.133 15.004 85.129 14.25 85.125 C13.533 85.129 12.817 85.133 12.078 85.137 C8.26 85.13 4.711 84.92 1 84 C1 82.35 1 80.7 1 79 C1.639 78.897 2.279 78.794 2.938 78.688 C3.618 78.461 4.299 78.234 5 78 C6.136 74.592 6.159 71.92 6.205 68.325 C6.215 67.652 6.225 66.979 6.235 66.285 C6.267 64.061 6.292 61.837 6.316 59.613 C6.337 58.071 6.358 56.528 6.379 54.985 C6.435 50.926 6.484 46.867 6.532 42.808 C6.582 38.666 6.638 34.523 6.693 30.381 C6.801 22.254 6.902 14.127 7 6 C6.031 5.752 5.061 5.505 4.062 5.25 C3.052 4.838 2.041 4.425 1 4 C0.67 2.68 0.34 1.36 0 0 Z " fill="#000302" transform="translate(469,120)"/>
<path d="M0 0 C6.159 3.002 12.021 7.29 17 12 C17 12.66 17 13.32 17 14 C17.874 14.398 17.874 14.398 18.766 14.805 C25.602 18.462 31.964 25.174 37 31 C37 31.66 37 32.32 37 33 C37.619 33.289 38.237 33.577 38.875 33.875 C41 35 41 35 43 37 C43 40.644 41.761 42.496 39.312 45.008 C38.218 46.057 37.114 47.096 36 48.125 C31.672 51.971 31.672 51.971 29 57 C27.293 58.43 27.293 58.43 25.188 59.875 C22.691 61.669 20.936 63.08 19 65.5 C15.386 70.018 11.15 73.173 5.75 75.25 C-1.347 74.777 -8.058 71.049 -13 66 C-14.663 64.994 -16.33 63.994 -18 63 C-19.692 61.699 -21.357 60.362 -23 59 C-23.947 58.215 -24.895 57.43 -25.871 56.621 C-26.915 55.748 -27.958 54.874 -29 54 C-29.575 53.518 -30.15 53.036 -30.743 52.54 C-32.518 51.05 -34.291 49.557 -36.062 48.062 C-36.623 47.59 -37.183 47.118 -37.76 46.631 C-39.909 44.81 -42.007 42.993 -44 41 C-44.137 37.71 -43.541 35.683 -41.49 33.093 C-39.467 30.974 -37.382 28.947 -35.25 26.938 C-34.533 26.243 -33.817 25.549 -33.078 24.834 C-31.686 23.487 -30.289 22.144 -28.887 20.807 C-25.756 17.809 -22.712 14.731 -19.688 11.625 C-7.045 -0.724 -7.045 -0.724 0 0 Z " fill="#FE4701" transform="translate(512,317)"/>
<path d="M0 0 C13.411 7.385 28.333 23.498 33.508 38.137 C33.754 40.004 33.754 40.004 32.754 43.004 C31.765 44.015 30.764 45.014 29.754 46.004 C28.832 47.383 27.938 48.78 27.066 50.191 C20.415 60.267 10.053 69.516 -1.246 74.004 C-6.217 73.867 -9.532 71.933 -13.684 69.316 C-14.537 68.779 -14.537 68.779 -15.408 68.232 C-19.103 65.865 -22.501 63.346 -25.684 60.328 C-27.265 58.908 -27.265 58.908 -29.387 57.77 C-33.535 55.208 -37.225 52.148 -40.996 49.066 C-42.166 48.135 -42.166 48.135 -43.359 47.186 C-44.101 46.58 -44.842 45.975 -45.605 45.352 C-46.281 44.805 -46.956 44.259 -47.651 43.696 C-49.457 41.78 -49.954 40.601 -50.246 38.004 C-49.32 36.082 -49.32 36.082 -47.934 34.254 C-47.484 33.64 -47.034 33.027 -46.57 32.395 C-45.915 31.706 -45.915 31.706 -45.246 31.004 C-44.586 31.004 -43.926 31.004 -43.246 31.004 C-42.906 30.2 -42.906 30.2 -42.559 29.379 C-40.79 26.179 -38.709 23.714 -36.246 21.004 C-35.586 21.004 -34.926 21.004 -34.246 21.004 C-34.246 20.344 -34.246 19.684 -34.246 19.004 C-32.777 17.523 -32.777 17.523 -30.746 15.816 C-30.02 15.199 -29.295 14.581 -28.547 13.945 C-27.788 13.305 -27.028 12.664 -26.246 12.004 C-24.806 10.757 -23.368 9.507 -21.934 8.254 C-21.298 7.702 -20.663 7.15 -20.008 6.582 C-18.244 5.044 -18.244 5.044 -16.723 3.406 C-12.124 -0.961 -5.779 -2.563 0 0 Z " fill="#FE4701" transform="translate(607.24609375,315.99609375)"/>
<path d="M0 0 C4.217 2.424 7.816 5.337 11.539 8.453 C12.29 9.078 13.04 9.703 13.814 10.346 C22.633 17.761 30.477 25.553 37.289 34.891 C35.976 37.793 34.57 39.858 32.312 42.098 C31.729 42.68 31.145 43.263 30.543 43.864 C29.923 44.471 29.303 45.078 28.664 45.703 C28.025 46.333 27.385 46.964 26.726 47.613 C22.378 51.875 18.047 56.084 13.289 59.891 C12.41 60.599 12.41 60.599 11.514 61.322 C9.432 62.989 7.332 64.63 5.227 66.266 C4.553 66.803 3.88 67.34 3.186 67.893 C-1.009 71.092 -4.23 73.038 -9.711 72.891 C-12.449 71.371 -12.449 71.371 -15.023 69.078 C-15.966 68.24 -16.908 67.402 -17.879 66.539 C-18.813 65.665 -19.748 64.791 -20.711 63.891 C-21.573 63.12 -22.436 62.349 -23.324 61.555 C-29.319 55.942 -40.395 44.76 -40.711 35.891 C-39.496 32.875 -39.496 32.875 -37.773 29.641 C-37.208 28.563 -36.642 27.485 -36.059 26.375 C-35.614 25.555 -35.169 24.735 -34.711 23.891 C-34.051 23.891 -33.391 23.891 -32.711 23.891 C-32.051 22.241 -31.391 20.591 -30.711 18.891 C-30.051 18.891 -29.391 18.891 -28.711 18.891 C-28.483 18.345 -28.255 17.8 -28.02 17.238 C-26.319 14.187 -24.146 11.889 -21.773 9.328 C-20.898 8.378 -20.023 7.428 -19.121 6.449 C-13.432 0.41 -8.762 -3.586 0 0 Z " fill="#FE4701" transform="translate(428.7109375,321.109375)"/>
<path d="M0 0 C6.6 0 13.2 0 20 0 C20 1.98 20 3.96 20 6 C18.68 6 17.36 6 16 6 C16.004 6.832 16.009 7.664 16.013 8.521 C16.054 16.391 16.084 24.262 16.104 32.132 C16.114 36.177 16.128 40.223 16.151 44.268 C16.173 48.178 16.185 52.088 16.19 55.998 C16.193 57.484 16.201 58.969 16.211 60.455 C16.337 78.326 16.337 78.326 13 85 C9.7 85 6.4 85 3 85 C2.34 83.68 1.68 82.36 1 81 C0.34 81 -0.32 81 -1 81 C-2.622 78.866 -4.104 76.742 -5.562 74.5 C-6.006 73.825 -6.449 73.15 -6.906 72.455 C-13.382 62.468 -19.043 52.041 -24.438 41.438 C-24.933 40.474 -24.933 40.474 -25.438 39.49 C-27.49 35.379 -28.866 31.428 -30 27 C-31.233 28.007 -31.233 28.007 -31.082 30.056 C-31.062 30.96 -31.042 31.864 -31.022 32.795 C-31.002 33.816 -30.982 34.837 -30.961 35.889 C-30.934 36.999 -30.907 38.11 -30.879 39.254 C-30.855 40.384 -30.832 41.515 -30.807 42.68 C-30.73 46.308 -30.647 49.935 -30.562 53.562 C-30.509 56.015 -30.457 58.467 -30.404 60.92 C-30.275 66.947 -30.14 72.973 -30 79 C-28.68 79.33 -27.36 79.66 -26 80 C-26 81.65 -26 83.3 -26 85 C-29.485 86.162 -32.267 86.133 -35.938 86.125 C-37.163 86.128 -38.389 86.13 -39.652 86.133 C-42.328 86.027 -44.469 85.799 -47 85 C-47 83.35 -47 81.7 -47 80 C-45.35 80 -43.7 80 -42 80 C-41.861 70.812 -41.754 61.624 -41.689 52.435 C-41.658 48.169 -41.615 43.903 -41.547 39.636 C-41.482 35.519 -41.446 31.402 -41.431 27.284 C-41.42 25.713 -41.398 24.143 -41.366 22.572 C-41.322 20.371 -41.316 18.173 -41.319 15.972 C-41.299 14.093 -41.299 14.093 -41.278 12.176 C-41.697 8.708 -41.697 8.708 -45.043 6.814 C-46.019 6.216 -46.994 5.617 -48 5 C-48 3.68 -48 2.36 -48 1 C-40.08 1 -32.16 1 -24 1 C-20.029 8.861 -16.113 16.742 -12.305 24.684 C-11.978 25.363 -11.652 26.042 -11.316 26.742 C-8.63 32.334 -8.63 32.334 -7.333 35.057 C-3.894 42.281 -0.419 49.309 4 56 C4.33 56.66 4.66 57.32 5 58 C4.881 52.665 4.756 47.331 4.628 41.997 C4.585 40.187 4.543 38.377 4.503 36.568 C4.231 24.208 4.231 24.208 3.652 11.859 C3.573 10.498 3.573 10.498 3.492 9.108 C3.164 6.615 3.164 6.615 0 5 C0 3.35 0 1.7 0 0 Z " fill="#000302" transform="translate(696,119)"/>
<path d="M0 0 C5.28 0 10.56 0 16 0 C21.939 14.089 26.102 28.256 29.324 43.203 C29.949 46.006 29.949 46.006 30.949 48.66 C32.449 53.426 33.257 58.273 34.125 63.188 C34.307 64.185 34.489 65.182 34.676 66.209 C36 73.592 36 73.592 36 77 C37.65 77.33 39.3 77.66 41 78 C40.67 79.65 40.34 81.3 40 83 C30.76 83 21.52 83 12 83 C12 81.35 12 79.7 12 78 C12.99 77.67 13.98 77.34 15 77 C16.226 74.547 16.034 73.157 15.879 70.43 C15.831 69.534 15.782 68.638 15.732 67.715 C15.648 66.309 15.648 66.309 15.562 64.875 C15.484 63.458 15.484 63.458 15.404 62.012 C15.274 59.674 15.139 57.337 15 55 C12.27 55.114 9.542 55.241 6.812 55.375 C6.044 55.406 5.275 55.437 4.482 55.469 C-1.509 55.753 -1.509 55.753 -7 58 C-8.394 60.835 -8.632 63.878 -9 67 C-9.095 67.748 -9.191 68.495 -9.289 69.266 C-9.522 71.632 -9.522 71.632 -9 75 C-6.537 76.645 -6.537 76.645 -4 78 C-4 79.98 -4 81.96 -4 84 C-15.385 83.505 -15.385 83.505 -27 83 C-27 81.35 -27 79.7 -27 78 C-26.374 77.756 -25.749 77.511 -25.104 77.259 C-22.484 75.691 -22.197 74.737 -21.335 71.851 C-21.07 70.991 -20.805 70.131 -20.531 69.245 C-20.123 67.838 -20.123 67.838 -19.707 66.402 C-19.41 65.425 -19.114 64.447 -18.808 63.44 C-17.858 60.297 -16.929 57.149 -16 54 C-15.387 51.966 -14.773 49.932 -14.158 47.899 C-12.314 41.793 -10.499 35.678 -8.688 29.562 C-8.062 27.458 -7.436 25.353 -6.811 23.248 C-5.673 19.419 -4.536 15.59 -3.401 11.76 C-3.178 11.007 -2.955 10.254 -2.725 9.478 C-1.802 6.323 -0.903 3.161 0 0 Z " fill="#000202" transform="translate(791,121)"/>
<path d="M0 0 C18.81 0 37.62 0 57 0 C57 6.27 57 12.54 57 19 C53.7 19 50.4 19 47 19 C44.525 14.05 44.525 14.05 42 9 C36.06 9 30.12 9 24 9 C22.451 18.993 22.451 18.993 21 29 C21.66 29 22.32 29 23 29 C23 31.31 23 33.62 23 36 C25.292 35.94 27.584 35.851 29.875 35.75 C31.151 35.704 32.427 35.657 33.742 35.609 C35.355 35.308 35.355 35.308 37 35 C38.164 33.048 38.164 33.048 39 31 C40.65 30.67 42.3 30.34 44 30 C44 37.26 44 44.52 44 52 C42.35 52 40.7 52 39 52 C38.827 51.366 38.655 50.732 38.477 50.078 C37.068 47.613 37.068 47.613 33.523 47.172 C32.143 47.009 30.759 46.873 29.375 46.75 C25.724 46.379 25.724 46.379 22 46 C22 55.57 22 65.14 22 75 C36.635 75.518 36.635 75.518 49.059 69.176 C50.871 67.305 50.871 67.305 52.367 65.391 C54 64 54 64 59 64 C59 70.6 59 77.2 59 84 C39.53 84 20.06 84 0 84 C0 81.69 0 79.38 0 77 C1.32 77 2.64 77 4 77 C4 53.57 4 30.14 4 6 C2.68 5.67 1.36 5.34 0 5 C0 3.35 0 1.7 0 0 Z " fill="#000302" transform="translate(223,120)"/>
<path d="M0 0 C1.952 0 1.952 0 3.943 0 C5.363 0.011 6.784 0.021 8.204 0.032 C9.657 0.035 11.11 0.038 12.563 0.04 C16.386 0.048 20.208 0.068 24.03 0.09 C27.931 0.11 31.832 0.119 35.734 0.129 C43.387 0.151 51.04 0.185 58.693 0.227 C58.554 4.04 58.406 7.852 58.255 11.665 C58.216 12.753 58.176 13.842 58.136 14.963 C58.094 15.998 58.052 17.032 58.009 18.098 C57.972 19.056 57.936 20.015 57.898 21.002 C57.693 23.227 57.693 23.227 56.693 24.227 C54.693 24.268 52.692 24.27 50.693 24.227 C49.854 22.772 49.022 21.313 48.193 19.852 C47.729 19.04 47.265 18.228 46.786 17.391 C45.693 15.227 45.693 15.227 45.693 13.227 C41.38 11.755 37.085 10.482 32.693 9.227 C32.693 32.987 32.693 56.747 32.693 81.227 C35.003 81.557 37.313 81.887 39.693 82.227 C39.693 84.207 39.693 86.187 39.693 88.227 C29.463 88.227 19.233 88.227 8.693 88.227 C9.353 86.247 10.013 84.267 10.693 82.227 C12.178 81.732 12.178 81.732 13.693 81.227 C15.126 78.36 14.857 75.87 14.898 72.666 C14.908 71.993 14.918 71.319 14.928 70.626 C14.96 68.397 14.984 66.167 15.009 63.938 C15.03 62.394 15.051 60.85 15.072 59.306 C15.127 55.238 15.177 51.171 15.225 47.104 C15.275 42.955 15.331 38.806 15.386 34.657 C15.494 26.514 15.595 18.37 15.693 10.227 C14.076 10.337 12.46 10.462 10.845 10.593 C9.945 10.661 9.045 10.729 8.118 10.799 C5.468 11.05 5.468 11.05 3.255 13.372 C2.74 14.252 2.224 15.132 1.693 16.04 C1.156 16.912 0.62 17.785 0.068 18.684 C-1.335 21.126 -1.335 21.126 -2.12 23.489 C-3.307 25.227 -3.307 25.227 -6.432 25.977 C-7.855 26.101 -7.855 26.101 -9.307 26.227 C-9.394 22.269 -9.448 18.311 -9.495 14.352 C-9.52 13.224 -9.545 12.096 -9.571 10.934 C-9.581 9.858 -9.59 8.781 -9.6 7.672 C-9.616 6.677 -9.632 5.682 -9.648 4.657 C-9.536 3.855 -9.423 3.053 -9.307 2.227 C-5.742 -0.15 -4.229 -0.016 0 0 Z " fill="#000101" transform="translate(154.307373046875,115.77294921875)"/>
<path d="M0 0 C0 5.94 0 11.88 0 18 C-0.66 18 -1.32 18 -2 18 C-2 19.65 -2 21.3 -2 23 C-4.31 23 -6.62 23 -9 23 C-9.082 21.928 -9.165 20.855 -9.25 19.75 C-9.743 16.068 -9.743 16.068 -11.562 13.625 C-15.556 10.963 -19.817 10.618 -24.5 11.438 C-24.995 11.623 -25.49 11.809 -26 12 C-26 12.66 -26 13.32 -26 14 C-28.31 14.33 -30.62 14.66 -33 15 C-33.197 16.728 -33.382 18.458 -33.562 20.188 C-33.667 21.15 -33.771 22.113 -33.879 23.105 C-33.998 25.942 -33.678 28.254 -33 31 C-31.515 31.495 -31.515 31.495 -30 32 C-30 32.66 -30 33.32 -30 34 C-29.022 34.098 -28.043 34.196 -27.035 34.297 C-19.417 35.166 -12.803 36.287 -6 40 C-4.668 40.669 -3.335 41.337 -2 42 C-2 42.66 -2 43.32 -2 44 C-1.34 44 -0.68 44 0 44 C6.363 55.089 6.363 55.089 5 62 C3.651 66.769 2.221 71.557 0 76 C-0.66 76 -1.32 76 -2 76 C-2.495 77.485 -2.495 77.485 -3 79 C-4.742 80.062 -4.742 80.062 -6.875 81 C-9.859 82.321 -11.756 83.64 -14 86 C-22.545 90.273 -36.301 85.527 -45 83 C-46.65 82.34 -48.3 81.68 -50 81 C-50 72.75 -50 64.5 -50 56 C-49.01 56.33 -48.02 56.66 -47 57 C-47 57.99 -47 58.98 -47 60 C-46.34 60 -45.68 60 -45 60 C-44.685 60.652 -44.371 61.305 -44.047 61.977 C-39.507 72.307 -39.507 72.307 -31 79 C-24.714 79.721 -20.211 78.654 -15 75 C-12.093 71.73 -11.257 68.452 -11.48 64.043 C-12.864 58.603 -17.679 55.826 -22.184 53.008 C-29.144 48.831 -29.144 48.831 -37 48 C-37 47.34 -37 46.68 -37 46 C-37.598 45.773 -38.196 45.546 -38.812 45.312 C-41.585 43.649 -42.433 41.793 -44 39 C-44.98 37.981 -45.978 36.978 -47 36 C-49.951 31.574 -49.485 27.573 -48.535 22.535 C-46.18 13.49 -41.778 7.551 -33.734 2.812 C-32 2 -32 2 -30 2 C-30 1.34 -30 0.68 -30 0 C-10.138 -1.448 -10.138 -1.448 0 0 Z " fill="#000302" transform="translate(341,118)"/>
<path d="M0 0 C21.78 0 43.56 0 66 0 C65.67 6.93 65.34 13.86 65 21 C62.69 21 60.38 21 58 21 C56.995 19.211 55.996 17.419 55 15.625 C54.443 14.627 53.886 13.63 53.312 12.602 C52 10 52 10 52 8 C48.37 8 44.74 8 41 8 C40.977 16.684 40.959 25.368 40.948 34.052 C40.943 38.084 40.936 42.116 40.925 46.148 C40.914 50.039 40.908 53.929 40.905 57.819 C40.903 59.304 40.9 60.79 40.894 62.275 C40.887 64.353 40.886 66.431 40.886 68.509 C40.884 69.693 40.882 70.876 40.88 72.096 C40.869 75.067 40.869 75.067 42 78 C44.015 78.733 44.015 78.733 46 79 C46 80.65 46 82.3 46 84 C36.43 84 26.86 84 17 84 C17 82.35 17 80.7 17 79 C17.639 78.711 18.279 78.423 18.938 78.125 C21.152 77.172 21.152 77.172 22 75 C22.121 72.846 22.177 70.688 22.205 68.531 C22.22 67.535 22.22 67.535 22.235 66.52 C22.267 64.323 22.292 62.127 22.316 59.93 C22.337 58.408 22.358 56.886 22.379 55.365 C22.435 51.357 22.484 47.349 22.532 43.34 C22.582 39.252 22.638 35.163 22.693 31.074 C22.801 23.05 22.902 15.025 23 7 C19.531 7.458 16.326 7.891 13 9 C12.732 9.701 12.464 10.403 12.188 11.125 C10.591 14.99 8.317 18.402 5 21 C3.35 21 1.7 21 0 21 C0 14.07 0 7.14 0 0 Z " fill="#000101" transform="translate(354,120)"/>
<path d="M0 0 C9.24 0 18.48 0 28 0 C27.67 1.65 27.34 3.3 27 5 C25.35 5.33 23.7 5.66 22 6 C22 29.1 22 52.2 22 76 C32.395 75.505 32.395 75.505 43 75 C45.042 68.279 45.042 68.279 46.875 61.5 C48 59 48 59 50.438 57.625 C53 57 53 57 56 57 C56.33 65.91 56.66 74.82 57 84 C38.19 84 19.38 84 0 84 C0 82.35 0 80.7 0 79 C2.475 78.505 2.475 78.505 5 78 C4.505 42.36 4.505 42.36 4 6 C2.68 5.34 1.36 4.68 0 4 C0 2.68 0 1.36 0 0 Z " fill="#000202" transform="translate(844,120)"/>
<path d="M0 0 C5.96 2.916 8.713 6.898 11 13 C13.035 19.796 13.306 26.382 13.25 33.438 C13.262 34.896 13.262 34.896 13.273 36.385 C13.251 44.641 12.862 54.031 8 61 C3.589 64.829 -1.115 66.91 -6.961 67.262 C-9 67 -9 67 -11.812 64.938 C-12.534 63.968 -13.256 62.999 -14 62 C-14.701 61.093 -15.403 60.185 -16.125 59.25 C-21.19 50.47 -21.502 42.144 -21.446 32.289 C-21.438 30.004 -21.466 27.722 -21.498 25.438 C-21.574 9.829 -21.574 9.829 -17 4 C-16.01 3.67 -15.02 3.34 -14 3 C-14 2.34 -14 1.68 -14 1 C-9.429 -3.129 -5.325 -1.991 0 0 Z " fill="#13A29D" transform="translate(607,129)"/>
<path d="M0 0 C0.66 0 1.32 0 2 0 C9 18.69 9 18.69 9 24 C10.671 23.753 10.671 23.753 12.375 23.5 C20.204 22.605 28.133 22.924 36 23 C36.495 23.99 36.495 23.99 37 25 C34.38 26.841 31.753 28.671 29.125 30.5 C28.379 31.025 27.632 31.549 26.863 32.09 C26.148 32.586 25.432 33.082 24.695 33.594 C24.035 34.055 23.376 34.515 22.696 34.99 C21 36 21 36 19 36 C19 36.66 19 37.32 19 38 C18.01 38.495 18.01 38.495 17 39 C17.631 44.781 18.652 50.344 20 56 C20.66 56 21.32 56 22 56 C22.66 59.3 23.32 62.6 24 66 C18.828 64.615 15.406 62.349 11.312 59.062 C10.745 58.62 10.177 58.177 9.592 57.721 C6.913 55.614 4.329 53.493 2 51 C-1.705 52.336 -4.634 53.997 -7.812 56.312 C-19.971 65 -19.971 65 -23 65 C-21.201 58.078 -19.14 51.344 -16.672 44.629 C-15.953 41.816 -15.787 40.618 -17 38 C-18.792 36.207 -18.792 36.207 -21.062 34.625 C-21.867 34.027 -22.671 33.429 -23.5 32.812 C-24.325 32.214 -25.15 31.616 -26 31 C-27.523 29.878 -29.044 28.753 -30.562 27.625 C-31.224 27.143 -31.885 26.661 -32.566 26.164 C-33.276 25.588 -33.276 25.588 -34 25 C-34 24.67 -34 24.34 -34 24 C-25.09 24 -16.18 24 -7 24 C-6.01 20.04 -5.02 16.08 -4 12 C-3.305 9.739 -2.584 7.486 -1.812 5.25 C-1.468 4.245 -1.124 3.239 -0.77 2.203 C-0.389 1.113 -0.389 1.113 0 0 Z " fill="#FEA825" transform="translate(372,683)"/>
<path d="M0 0 C0.66 0 1.32 0 2 0 C3.009 3.414 4.005 6.832 5 10.25 C5.286 11.218 5.572 12.186 5.867 13.184 C6.138 14.118 6.409 15.053 6.688 16.016 C6.939 16.874 7.19 17.733 7.449 18.618 C8 21 8 21 8 25 C17.24 25 26.48 25 36 25 C32.428 28.572 29.481 31.234 25.438 34.062 C21.97 36.491 18.913 38.923 16 42 C16.413 43.237 16.825 44.475 17.25 45.75 C17.519 46.561 17.789 47.372 18.066 48.207 C18.735 50.206 19.41 52.204 20.09 54.199 C20.633 55.802 20.633 55.802 21.188 57.438 C21.532 58.447 21.876 59.456 22.23 60.496 C23 63 23 63 23 65 C17.205 63.129 12.63 59.308 7.795 55.725 C7.108 55.234 6.422 54.744 5.715 54.238 C5.097 53.785 4.48 53.332 3.844 52.865 C2.015 51.804 2.015 51.804 -0.109 52.287 C-2.355 53.134 -4.095 54.249 -6.062 55.625 C-11.293 59.216 -16.637 62.612 -22 66 C-20.281 58.655 -18.265 51.519 -15.77 44.398 C-14.898 42.102 -14.898 42.102 -15 40 C-17.023 38.484 -17.023 38.484 -19.5 37 C-22.031 35.438 -22.031 35.438 -24 34 C-24 33.34 -24 32.68 -24 32 C-24.99 32 -25.98 32 -27 32 C-27 31.34 -27 30.68 -27 30 C-27.598 29.732 -28.196 29.464 -28.812 29.188 C-31 28 -31 28 -34 25 C-25.42 25 -16.84 25 -8 25 C-7.01 21.37 -6.02 17.74 -5 14 C-4.137 11.426 -3.246 8.861 -2.312 6.312 C-1.876 5.112 -1.439 3.912 -0.988 2.676 C-0.662 1.793 -0.336 0.91 0 0 Z " fill="#FEA825" transform="translate(444,682)"/>
<path d="M0 0 C8.91 0 17.82 0 27 0 C27 1.32 27 2.64 27 4 C25.35 4.66 23.7 5.32 22 6 C22 29.43 22 52.86 22 77 C23.65 77.66 25.3 78.32 27 79 C27 80.65 27 82.3 27 84 C17.76 84 8.52 84 -1 84 C-1 82.02 -1 80.04 -1 78 C1.475 77.505 1.475 77.505 4 77 C3.939 67.777 3.862 58.554 3.764 49.332 C3.72 45.05 3.68 40.768 3.654 36.485 C3.628 32.355 3.587 28.225 3.537 24.095 C3.52 22.517 3.509 20.939 3.502 19.36 C3.493 17.155 3.465 14.95 3.432 12.745 C3.421 11.488 3.41 10.231 3.399 8.936 C3.267 7.967 3.136 6.998 3 6 C2.01 5.34 1.02 4.68 0 4 C0 2.68 0 1.36 0 0 Z " fill="#000000" transform="translate(431,120)"/>
<path d="M0 0 C9.24 0 18.48 0 28 0 C27.67 1.65 27.34 3.3 27 5 C25.35 5.66 23.7 6.32 22 7 C22 30.1 22 53.2 22 77 C23.65 77.33 25.3 77.66 27 78 C27 79.98 27 81.96 27 84 C18.09 84 9.18 84 0 84 C0 82.02 0 80.04 0 78 C1.98 77.01 1.98 77.01 4 76 C4 53.23 4 30.46 4 7 C2.68 6.34 1.36 5.68 0 5 C0 3.35 0 1.7 0 0 Z " fill="#000100" transform="translate(729,120)"/>
<path d="M0 0 C0.99 0 1.98 0 3 0 C3.182 0.981 3.364 1.962 3.551 2.973 C3.804 4.336 4.058 5.699 4.312 7.062 C4.446 7.778 4.579 8.494 4.716 9.231 C5.406 12.914 6.113 16.592 6.867 20.262 C7.005 20.933 7.142 21.603 7.284 22.295 C7.669 24.161 8.059 26.026 8.449 27.891 C9 31 9 31 9 35 C3.39 35 -2.22 35 -8 35 C-7.203 30.22 -6.089 25.986 -4.562 21.438 C-2.247 14.334 -0.853 7.438 0 0 Z " fill="#13A7A2" transform="translate(795,133)"/>
<path d="M0 0 C0.33 0 0.66 0 1 0 C1.99 4.62 2.98 9.24 4 14 C3.01 13.67 2.02 13.34 1 13 C1 23.56 1 34.12 1 45 C0.67 45 0.34 45 0 45 C0 30.15 0 15.3 0 0 Z " fill="#17CAC3" transform="translate(486,140)"/>
<path d="M0 0 C0.33 0 0.66 0 1 0 C1 1.65 1 3.3 1 5 C0.34 5 -0.32 5 -1 5 C-1 9.95 -1 14.9 -1 20 C-2.32 20.33 -3.64 20.66 -5 21 C-6.345 16.966 -5.225 13.916 -4.188 9.938 C-4.009 9.205 -3.83 8.472 -3.646 7.717 C-2.258 2.258 -2.258 2.258 0 0 Z " fill="#139C98" transform="translate(535,135)"/>
<path d="M0 0 C8.25 0 16.5 0 25 0 C22.439 2.561 21.334 2.297 17.773 2.414 C16.742 2.453 15.711 2.491 14.648 2.531 C13.568 2.562 12.488 2.593 11.375 2.625 C9.743 2.683 9.743 2.683 8.078 2.742 C5.386 2.837 2.693 2.922 0 3 C0 2.01 0 1.02 0 0 Z " fill="#FEF8EF" transform="translate(381,704)"/>
<path d="M0 0 C0.33 0.66 0.66 1.32 1 2 C-2.248 3.083 -4.359 3.034 -7.762 2.879 C-8.88 2.831 -9.998 2.782 -11.15 2.732 C-12.901 2.648 -12.901 2.648 -14.688 2.562 C-16.456 2.484 -16.456 2.484 -18.26 2.404 C-21.173 2.275 -24.087 2.14 -27 2 C-27 1.67 -27 1.34 -27 1 C-18.022 -0.33 -9.052 -0.088 0 0 Z " fill="#FE9D14" transform="translate(408,706)"/>
<path d="M0 0 C0.648 1.844 0.648 1.844 1 4 C-0.623 5.709 -2.293 7.374 -4 9 C-4.861 11.173 -4.861 11.173 -5 13 C-4.01 13.66 -3.02 14.32 -2 15 C-2.33 15.99 -2.66 16.98 -3 18 C-5.562 15.875 -5.562 15.875 -8 13 C-8.25 10.125 -8.25 10.125 -7 7 C-4.842 4.458 -2.498 2.205 0 0 Z " fill="#FC4409" transform="translate(476,345)"/>
<path d="M0 0 C0.99 0 1.98 0 3 0 C3.33 4.29 3.66 8.58 4 13 C3.34 12.67 2.68 12.34 2 12 C1.34 12.66 0.68 13.32 0 14 C-0.913 9.029 -0.913 4.971 0 0 Z " fill="#129C96" transform="translate(795,133)"/>
<path d="M0 0 C5.738 -0.204 10.605 -0.271 16 2 C16 3.65 16 5.3 16 7 C15.34 6.01 14.68 5.02 14 4 C10.892 3.195 10.892 3.195 7.375 2.812 C5.592 2.575 5.592 2.575 3.773 2.332 C2.858 2.222 1.943 2.113 1 2 C0.505 3.98 0.505 3.98 0 6 C0 4.02 0 2.04 0 0 Z " fill="#12A9A2" transform="translate(245,166)"/>
<path d="M0 0 C1.062 1.812 1.062 1.812 2 4 C0.957 7.129 0.258 7.786 -2 10 C-3.094 11.541 -4.155 13.105 -5.188 14.688 C-5.982 15.9 -5.982 15.9 -6.793 17.137 C-7.39 18.059 -7.39 18.059 -8 19 C-9 16 -9 16 -7.82 13.625 C-7.261 12.759 -6.701 11.892 -6.125 11 C-4.382 8.275 -3.026 6.078 -2 3 C-1.34 2.01 -0.68 1.02 0 0 Z " fill="#FE5B1B" transform="translate(639,352)"/>
<path d="M0 0 C0.66 0 1.32 0 2 0 C2.33 0.99 2.66 1.98 3 3 C1.926 4.684 1.926 4.684 0.312 6.438 C-0.241 7.046 -0.794 7.654 -1.363 8.281 C-3.211 10.221 -5.069 12.143 -7 14 C-7 10.306 -5.718 8.222 -4 5 C-3.34 5 -2.68 5 -2 5 C-1.34 3.35 -0.68 1.7 0 0 Z " fill="#FE4409" transform="translate(398,340)"/>
<path d="M0 0 C1.06 0.007 1.06 0.007 2.141 0.014 C3.885 0.025 5.63 0.043 7.375 0.062 C7.375 0.393 7.375 0.722 7.375 1.062 C6.555 1.088 5.735 1.114 4.891 1.141 C3.274 1.226 3.274 1.226 1.625 1.312 C0.024 1.382 0.024 1.382 -1.609 1.453 C-5.192 2.177 -6.448 3.167 -8.625 6.062 C-8.625 7.053 -8.625 8.042 -8.625 9.062 C-9.285 9.062 -9.945 9.062 -10.625 9.062 C-10.625 10.713 -10.625 12.363 -10.625 14.062 C-10.955 14.062 -11.285 14.062 -11.625 14.062 C-11.484 12.458 -11.337 10.854 -11.188 9.25 C-11.106 8.357 -11.025 7.463 -10.941 6.543 C-10.625 4.062 -10.625 4.062 -9.625 1.062 C-6.56 -0.47 -3.357 -0.04 0 0 Z " fill="#15BBB4" transform="translate(256.625,127.9375)"/>
<path d="M0 0 C1.514 0.017 1.514 0.017 3.059 0.035 C4.071 0.044 5.082 0.053 6.125 0.062 C7.299 0.08 7.299 0.08 8.496 0.098 C8.496 0.428 8.496 0.758 8.496 1.098 C7.424 1.139 6.351 1.18 5.246 1.223 C1.339 1.753 1.339 1.753 -0.879 4.785 C-2.459 8.006 -3.166 10.546 -3.504 14.098 C-3.834 14.098 -4.164 14.098 -4.504 14.098 C-4.364 11.951 -4.217 9.806 -4.066 7.66 C-3.985 6.465 -3.904 5.27 -3.82 4.039 C-3.4 0.133 -3.4 0.133 0 0 Z " fill="#11ACA5" transform="translate(786.50390625,177.90234375)"/>
<path d="M0 0 C9.57 0 19.14 0 29 0 C28.01 0.99 27.02 1.98 26 3 C25.34 3 24.68 3 24 3 C24 2.34 24 1.68 24 1 C16.08 1 8.16 1 0 1 C0 0.67 0 0.34 0 0 Z " fill="#FE9006" transform="translate(451,707)"/>
<path d="M0 0 C3.15 3.423 3.562 6.443 4 11 C3.67 10.34 3.34 9.68 3 9 C1.35 9 -0.3 9 -2 9 C-1.125 2.25 -1.125 2.25 0 0 Z " fill="#FEA117" transform="translate(658,682)"/>
<path d="M0 0 C1.347 4.042 0.026 6.766 -1.312 10.625 C-1.539 11.319 -1.765 12.012 -1.998 12.727 C-3.741 17.871 -3.741 17.871 -6 19 C-4.472 12.401 -2.924 6.126 0 0 Z " fill="#FEF9EF" transform="translate(353,730)"/>
<path d="M0 0 C0.66 0.66 1.32 1.32 2 2 C-0.852 5.011 -3.244 7.256 -7 9 C-7.33 9.66 -7.66 10.32 -8 11 C-9.32 10.67 -10.64 10.34 -12 10 C-10.752 8.894 -9.501 7.79 -8.25 6.688 C-7.554 6.073 -6.858 5.458 -6.141 4.824 C-4.149 3.127 -2.111 1.545 0 0 Z " fill="#FE4C0F" transform="translate(589,321)"/>
<path d="M0 0 C0.33 0 0.66 0 1 0 C1.33 5.28 1.66 10.56 2 16 C-0.534 14.733 -0.932 13.569 -2.188 11.062 C-2.552 10.352 -2.917 9.642 -3.293 8.91 C-3.526 8.28 -3.76 7.649 -4 7 C-3.67 6.34 -3.34 5.68 -3 5 C-1.515 5.99 -1.515 5.99 0 7 C0 4.69 0 2.38 0 0 Z " fill="#13ADA8" transform="translate(700,163)"/>
<path d="M0 0 C0.66 0 1.32 0 2 0 C2.67 1.957 3.336 3.916 4 5.875 C4.371 6.966 4.742 8.056 5.125 9.18 C6 12 6 12 6 14 C5.34 14 4.68 14 4 14 C4 13.34 4 12.68 4 12 C3.01 12 2.02 12 1 12 C1 11.34 1 10.68 1 10 C1.66 10 2.32 10 3 10 C2.505 8.907 2.01 7.814 1.5 6.688 C0 3 0 3 0 0 Z " fill="#FD9F15" transform="translate(605,735)"/>
<path d="M0 0 C0.66 0.99 1.32 1.98 2 3 C-0.25 5.5 -0.25 5.5 -3 8 C-4.32 8 -5.64 8 -7 8 C-7 7.01 -7 6.02 -7 5 C-5.469 3.613 -5.469 3.613 -3.5 2.312 C-2.85 1.876 -2.201 1.439 -1.531 0.988 C-1.026 0.662 -0.521 0.336 0 0 Z " fill="#FEEBCD" transform="translate(538,717)"/>
<path d="M0 0 C0.557 0.289 1.114 0.577 1.688 0.875 C4.085 2.041 6.516 3.034 9 4 C8.67 6.31 8.34 8.62 8 11 C7.67 11 7.34 11 7 11 C6.938 9.886 6.938 9.886 6.875 8.75 C5.656 4.918 3.334 4.057 0 2 C0 1.34 0 0.68 0 0 Z " fill="#FEA218" transform="translate(423,716)"/>
<path d="M0 0 C0.66 0.99 1.32 1.98 2 3 C-0.97 5.475 -0.97 5.475 -4 8 C-4.66 7.34 -5.32 6.68 -6 6 C-4.71 4.624 -3.373 3.292 -2 2 C-1.34 2 -0.68 2 0 2 C0 1.34 0 0.68 0 0 Z " fill="#FE5213" transform="translate(573,335)"/>
<path d="M0 0 C1.737 2.605 2.691 4.583 3.688 7.5 C3.959 8.273 4.231 9.047 4.512 9.844 C5 12 5 12 4 15 C0.958 9.772 -0.506 6.073 0 0 Z " fill="#FEA013" transform="translate(386,721)"/>
<path d="M0 0 C2.648 3.13 4.005 6.019 5 10 C4.625 12.375 4.625 12.375 4 14 C1.378 8.984 0 5.652 0 0 Z " fill="#FEA115" transform="translate(458,723)"/>
<path d="M0 0 C0.66 0.33 1.32 0.66 2 1 C2 4.113 1.826 6.108 1 9 C-0.562 7.812 -0.562 7.812 -2 6 C-1.579 1.579 -1.579 1.579 0 0 Z " fill="#FD5415" transform="translate(559,351)"/>
<path d="M0 0 C0.33 1.32 0.66 2.64 1 4 C-0.188 5.812 -0.188 5.812 -2 7 C-3.32 6.67 -4.64 6.34 -6 6 C-4.02 4.02 -2.04 2.04 0 0 Z " fill="#FE5B1D" transform="translate(412,325)"/>
<path d="M0 0 C2.743 3.2 4.63 6.005 6 10 C5.216 9.361 4.433 8.721 3.625 8.062 C1.205 6.019 1.205 6.019 -1 5 C-0.67 3.35 -0.34 1.7 0 0 Z " fill="#14B7B1" transform="translate(681,178)"/>
<path d="M0 0 C0.66 0.99 1.32 1.98 2 3 C1.258 3.681 1.258 3.681 0.5 4.375 C-1.226 5.876 -1.226 5.876 -1 8 C-1.66 8 -2.32 8 -3 8 C-3.33 7.01 -3.66 6.02 -4 5 C-2.062 2.312 -2.062 2.312 0 0 Z " fill="#209E96" transform="translate(841,879)"/>
<path d="M0 0 C2.603 2.712 2.995 3.891 3.188 7.75 C3.126 8.822 3.064 9.895 3 11 C0.991 7.987 -0.039 5.473 -1 2 C-0.67 1.34 -0.34 0.68 0 0 Z " fill="#FEECCC" transform="translate(460,722)"/>
<path d="M0 0 C1.32 0 2.64 0 4 0 C2.902 2.993 2.323 3.846 -0.625 5.25 C-1.409 5.497 -2.192 5.745 -3 6 C-2.01 4.02 -1.02 2.04 0 0 Z " fill="#FEA21B" transform="translate(686,708)"/>
<path d="M0 0 C1.212 0.014 1.212 0.014 2.449 0.027 C3.372 0.045 3.372 0.045 4.312 0.062 C4.312 0.392 4.312 0.723 4.312 1.062 C1.646 1.729 -1.021 2.396 -3.688 3.062 C-4.435 3.249 -5.183 3.436 -5.953 3.629 C-6.525 3.772 -7.098 3.915 -7.688 4.062 C-7.688 3.072 -7.688 2.082 -7.688 1.062 C-4.805 0.102 -2.989 -0.043 0 0 Z " fill="#FEE1C3" transform="translate(600.6875,313.9375)"/>
<path d="M0 0 C0.598 0.309 1.196 0.619 1.812 0.938 C5.765 2.878 5.765 2.878 10 2 C9.67 2.99 9.34 3.98 9 5 C5.936 5.255 4.368 5.219 1.688 3.625 C1.131 3.089 0.574 2.553 0 2 C0 1.34 0 0.68 0 0 Z " fill="#FDA21D" transform="translate(669,739)"/>
<path d="M0 0 C2.12 3.534 2.532 6.944 3 11 C2.34 11 1.68 11 1 11 C-0.283 7.15 -0.066 4.053 0 0 Z " fill="#FDAE37" transform="translate(449,696)"/>
<path d="M0 0 C0.99 0.33 1.98 0.66 3 1 C2.34 1 1.68 1 1 1 C0.34 3.97 -0.32 6.94 -1 10 C-1.33 10 -1.66 10 -2 10 C-2.25 3.375 -2.25 3.375 0 0 Z " fill="#FEEDD1" transform="translate(371,682)"/>
<path d="M0 0 C0 3 0 3 -2.5 5.688 C-3.325 6.451 -4.15 7.214 -5 8 C-5.66 7.67 -6.32 7.34 -7 7 C-5.547 3.171 -3.571 1.879 0 0 Z " fill="#FEFAF2" transform="translate(476,343)"/>
<path d="M0 0 C0.33 0.99 0.66 1.98 1 3 C-0.32 3.33 -1.64 3.66 -3 4 C-3 5.65 -3 7.3 -3 9 C-4.062 7.188 -4.062 7.188 -5 5 C-4 2 -4 2 -1.938 0.812 C-1.298 0.544 -0.659 0.276 0 0 Z " fill="#16B7B0" transform="translate(806,195)"/>
<path d="M0 0 C1.32 0.33 2.64 0.66 4 1 C4.33 2.98 4.66 4.96 5 7 C4.361 6.67 3.721 6.34 3.062 6 C1.232 4.927 1.232 4.927 0 5 C0 3.35 0 1.7 0 0 Z " fill="#12A9A3" transform="translate(487,153)"/>
<path d="M0 0 C0.835 0.371 0.835 0.371 1.688 0.75 C-0.672 2.847 -1.859 3.719 -5.062 3.938 C-6.176 3.845 -6.176 3.845 -7.312 3.75 C-2.882 -0.312 -2.882 -0.312 0 0 Z " fill="#0D827D" transform="translate(600.3125,127.25)"/>
<path d="M0 0 C0.66 0 1.32 0 2 0 C2.33 2.31 2.66 4.62 3 7 C0.525 6.01 0.525 6.01 -2 5 C-1.34 3.35 -0.68 1.7 0 0 Z " fill="#FDA01C" transform="translate(393,742)"/>
<path d="M0 0 C4.248 0.472 6.2 2.967 9 6 C8.237 5.691 7.474 5.381 6.688 5.062 C4.812 4.321 2.913 3.638 1 3 C0.67 2.01 0.34 1.02 0 0 Z " fill="#FEF8F0" transform="translate(458,743)"/>
<path d="M0 0 C0.66 0 1.32 0 2 0 C2.33 1.98 2.66 3.96 3 6 C0.525 5.01 0.525 5.01 -2 4 C-2 3.34 -2 2.68 -2 2 C-1.34 2 -0.68 2 0 2 C0 1.34 0 0.68 0 0 Z " fill="#FD9F1B" transform="translate(464,741)"/>
<path d="M0 0 C0.33 0 0.66 0 1 0 C0.75 3.375 0.75 3.375 0 7 C-2.062 8.438 -2.062 8.438 -4 9 C-2.801 5.917 -1.523 2.937 0 0 Z " fill="#FE5914" transform="translate(394,345)"/>
<path d="M0 0 C0.33 0 0.66 0 1 0 C1 1.65 1 3.3 1 5 C0.34 5 -0.32 5 -1 5 C-1.33 6.65 -1.66 8.3 -2 10 C-3.261 6.218 -2.423 4.636 -1 1 C-0.67 0.67 -0.34 0.34 0 0 Z " fill="#0A6762" transform="translate(535,135)"/>
<path d="M0 0 C-0.33 0.66 -0.66 1.32 -1 2 C-3.066 2.414 -3.066 2.414 -5.562 2.625 C-6.389 2.7 -7.215 2.775 -8.066 2.852 C-9.024 2.925 -9.024 2.925 -10 3 C-6.934 -0.595 -4.63 -0.262 0 0 Z " fill="#0D7971" transform="translate(377,127)"/>
<path d="M0 0 C1.65 0 3.3 0 5 0 C3.35 1.65 1.7 3.3 0 5 C-0.99 4.67 -1.98 4.34 -3 4 C-2.34 3.67 -1.68 3.34 -1 3 C-0.67 2.01 -0.34 1.02 0 0 Z " fill="#FE9F19" transform="translate(544,709)"/>
<path d="M0 0 C0.33 0.66 0.66 1.32 1 2 C-0.32 3.65 -1.64 5.3 -3 7 C-3.99 6.67 -4.98 6.34 -6 6 C-4.02 4.02 -2.04 2.04 0 0 Z " fill="#FEECD6" transform="translate(460,363)"/>
<path d="M0 0 C0.33 1.32 0.66 2.64 1 4 C-1.375 5.562 -1.375 5.562 -4 7 C-4.66 6.67 -5.32 6.34 -6 6 C-4.02 4.02 -2.04 2.04 0 0 Z " fill="#FF5217" transform="translate(476,345)"/>
<path d="M0 0 C3.344 0.557 6.033 1.352 9 3 C7.312 3.688 7.312 3.688 5 4 C2.25 2.625 2.25 2.625 0 1 C0 0.67 0 0.34 0 0 Z " fill="#14B0AB" transform="translate(311,168)"/>
<path d="M0 0 C0.33 0 0.66 0 1 0 C1.393 4.449 0.153 7.142 -2 11 C-2.955 8.83 -3.144 7.437 -2.398 5.176 C-1.641 3.432 -0.824 1.714 0 0 Z " fill="#15A9A5" transform="translate(533,143)"/>
</svg>
