<?xml version="1.0" encoding="UTF-8"?>
<!-- Generator: visioncortex VTracer 0.6.4 -->
<svg version="1.1" xmlns="http://www.w3.org/2000/svg" width="1024" height="1024">
<path d="M0 0 C337.92 0 675.84 0 1024 0 C1024 337.92 1024 675.84 1024 1024 C686.08 1024 348.16 1024 0 1024 C0 686.08 0 348.16 0 0 Z " fill="#036F70" transform="translate(0,0)"/>
<path d="M0 0 C1.714 0.003 1.714 0.003 3.462 0.007 C21.712 0.062 39.606 0.66 57.688 3.312 C58.346 3.407 59.004 3.502 59.683 3.6 C89.224 7.873 117.939 15.207 145.688 26.312 C146.537 26.652 147.387 26.992 148.263 27.342 C182.304 41.115 212.881 59.662 241.688 82.312 C242.685 83.081 243.683 83.849 244.711 84.641 C246.092 85.716 246.092 85.716 247.5 86.812 C248.311 87.442 249.122 88.071 249.957 88.719 C250.528 89.245 251.099 89.771 251.688 90.312 C251.688 90.972 251.688 91.632 251.688 92.312 C252.283 92.588 252.879 92.863 253.493 93.146 C255.587 94.259 257.065 95.371 258.797 96.973 C259.378 97.51 259.96 98.048 260.559 98.602 C261.489 99.479 261.489 99.479 262.438 100.375 C263.091 100.99 263.745 101.605 264.419 102.238 C272.175 109.615 279.496 117.389 286.688 125.312 C287.23 125.91 287.773 126.508 288.332 127.124 C333.281 177.106 363.937 241.374 375.75 307.375 C375.9 308.205 376.051 309.035 376.206 309.891 C376.744 313.026 377.22 316.166 377.688 319.312 C377.81 320.103 377.933 320.893 378.06 321.707 C380.477 337.549 381.13 353.109 381.024 369.122 C381 372.941 381.003 376.759 381.01 380.578 C380.989 399.962 380.033 419.044 376.438 438.125 C376.223 439.291 376.008 440.457 375.787 441.658 C365.935 493.873 347.064 543.901 317.688 588.312 C317.229 589.012 316.77 589.712 316.297 590.433 C309.809 600.288 302.7 609.489 295.146 618.549 C293.166 620.942 291.246 623.382 289.312 625.812 C279.817 637.377 269.315 648.012 258.168 657.976 C256.771 659.237 255.4 660.526 254.031 661.816 C246.705 668.69 238.841 674.731 230.797 680.734 C228.855 682.187 226.926 683.655 225 685.129 C152.766 739.871 58.153 764.729 -50.806 753.954 C-83.168 749.433 -114.091 740.569 -144.312 728.312 C-145.141 727.979 -145.969 727.645 -146.823 727.301 C-158.04 722.733 -168.688 717.103 -179.312 711.312 C-180.389 710.728 -180.389 710.728 -181.487 710.131 C-200.761 699.616 -218.596 687.314 -235.718 673.587 C-237.151 672.442 -238.594 671.31 -240.039 670.18 C-255.626 657.795 -270.42 643.468 -283.312 628.312 C-284.171 627.343 -285.03 626.374 -285.914 625.375 C-299.327 610.159 -310.876 593.686 -321.312 576.312 C-321.805 575.496 -322.297 574.679 -322.804 573.838 C-345.004 536.716 -361.005 495.797 -369.312 453.312 C-369.524 452.258 -369.735 451.203 -369.952 450.116 C-388.312 356.877 -371.37 261.687 -322.312 180.312 C-321.847 179.532 -321.381 178.751 -320.901 177.947 C-315.095 168.234 -308.675 159.145 -301.759 150.192 C-300.385 148.407 -299.029 146.609 -297.68 144.805 C-293.017 138.602 -288.128 132.718 -282.832 127.043 C-280.917 124.967 -279.071 122.87 -277.234 120.727 C-272.313 115.086 -267.036 109.795 -261.75 104.5 C-261.218 103.966 -260.686 103.433 -260.138 102.883 C-253.187 95.931 -246.176 89.283 -238.234 83.461 C-235.454 81.417 -232.865 79.249 -230.25 77 C-217.927 66.861 -203.995 58.347 -190.18 50.391 C-188.904 49.654 -187.632 48.91 -186.363 48.16 C-143.834 23.041 -94.252 8.108 -45.312 2.312 C-44.649 2.23 -43.986 2.148 -43.303 2.063 C-28.859 0.302 -14.541 -0.049 0 0 Z " fill="#FEFEFE" transform="translate(510.3125,125.6875)"/>
<path d="M0 0 C1.121 3.362 0.936 3.785 -0.375 6.875 C-1.6 9.907 -2.493 12.752 -3 16 C-3.66 16 -4.32 16 -5 16 C-5.943 20.312 -6.48 24.621 -7 29 C-7.66 29 -8.32 29 -9 29 C-9.289 29.722 -9.577 30.444 -9.875 31.188 C-10.246 32.116 -10.618 33.044 -11 34 C-11.433 35.176 -11.433 35.176 -11.875 36.375 C-13.042 39.097 -14.495 41.561 -15.996 44.109 C-17.031 46.058 -17.773 47.981 -18.5 50.062 C-19.837 53.808 -21.741 56.709 -24 60 C-24.931 61.679 -25.846 63.368 -26.75 65.062 C-29.727 70.613 -33.004 75.926 -36.363 81.25 C-38.101 83.947 -38.101 83.947 -39 87 C-39.66 87 -40.32 87 -41 87 C-41.144 87.928 -41.289 88.856 -41.438 89.812 C-42.861 94.995 -46.564 98.654 -50.004 102.645 C-52.011 104.824 -52.011 104.824 -53 107 C-53.66 107 -54.32 107 -55 107 C-55.124 107.598 -55.247 108.196 -55.375 108.812 C-56 111 -56 111 -58 114 C-58.66 114 -59.32 114 -60 114 C-60 114.99 -60 115.98 -60 117 C-61.144 118.178 -62.296 119.348 -63.492 120.473 C-67.068 124.095 -70.386 128.157 -72 133 C-73.052 133.34 -73.052 133.34 -74.125 133.688 C-78.543 135.704 -80.947 139.307 -84 143 C-85.409 144.632 -86.825 146.257 -88.25 147.875 C-89.217 148.985 -89.217 148.985 -90.203 150.117 C-92 152 -92 152 -95 154 C-95.66 154.99 -96.32 155.98 -97 157 C-97.804 157.454 -98.609 157.908 -99.438 158.375 C-102.15 159.827 -102.15 159.827 -103.5 162.5 C-105.282 165.47 -107.037 166.296 -110 168 C-110.743 168.99 -110.743 168.99 -111.5 170 C-113.353 172.47 -115.33 173.474 -118 175 C-120.482 176.905 -122.789 178.789 -125 181 C-125.99 181 -126.98 181 -128 181 C-128.33 181.99 -128.66 182.98 -129 184 C-130.637 185.047 -132.311 186.038 -134 187 C-137.115 189.343 -140.187 191.736 -143.258 194.137 C-146 196 -146 196 -149 196 C-149 196.66 -149 197.32 -149 198 C-149.545 198.291 -150.091 198.583 -150.652 198.883 C-155.597 201.571 -160.275 204.483 -164.926 207.648 C-167.512 209.334 -170.215 210.674 -173 212 C-173.99 212.66 -174.98 213.32 -176 214 C-176.99 214 -177.98 214 -179 214 C-179.33 214.99 -179.66 215.98 -180 217 C-181.333 217.333 -182.667 217.667 -184 218 C-184.784 218.639 -185.567 219.279 -186.375 219.938 C-189.267 222.21 -191.513 222.866 -195 224 C-197.65 225.069 -200.262 226.219 -202.875 227.375 C-203.937 227.841 -203.937 227.841 -205.021 228.317 C-208.602 229.9 -212.142 231.524 -215.625 233.312 C-218.735 234.868 -221.689 235.965 -225 237 C-227.029 237.758 -229.051 238.534 -231.07 239.316 C-233.728 240.258 -236.17 241 -239 241 C-239.33 241.66 -239.66 242.32 -240 243 C-241.926 243.344 -241.926 243.344 -244.312 243.5 C-247.744 243.727 -249.977 244.379 -253 246 C-255.325 246.694 -257.659 247.361 -260 248 C-260.99 248.33 -261.98 248.66 -263 249 C-264.352 249.169 -265.706 249.313 -267.062 249.438 C-270.998 249.598 -270.998 249.598 -273 252 C-274.667 252 -276.333 252 -278 252 C-278.99 252.66 -279.98 253.32 -281 254 C-281.99 253.67 -282.98 253.34 -284 253 C-286.012 253.487 -288.024 253.978 -290.02 254.527 C-292.386 255.092 -294.574 255 -297 255 C-297.99 255.309 -298.98 255.619 -300 255.938 C-304.493 257.337 -309.05 257.423 -313.723 257.707 C-316.684 257.972 -319.369 258.482 -322.25 259.188 C-327.212 260.302 -331.202 259.507 -336 258 C-336 257.67 -336 257.34 -336 257 C-335.264 256.941 -334.528 256.881 -333.77 256.82 C-305.72 254.475 -277.939 250.396 -251 242 C-249.968 241.682 -248.936 241.364 -247.872 241.036 C-200.503 226.283 -156.818 203.321 -118.725 171.433 C-116.222 169.354 -113.669 167.34 -111.125 165.312 C-106.561 161.583 -102.434 157.537 -98.32 153.32 C-96.343 151.343 -94.334 149.538 -92.188 147.75 C-82.379 139.331 -74.024 129.077 -66 119 C-65.046 117.836 -64.09 116.673 -63.133 115.512 C-56.706 107.669 -50.786 99.65 -45.338 91.098 C-44.413 89.648 -43.482 88.203 -42.545 86.762 C-27.795 64.043 -15.981 40.272 -6.202 15.054 C-4.214 10.003 -2.109 5.002 0 0 Z " fill="#072E2F" transform="translate(871,625)"/>
<path d="M0 0 C0.73 -0.001 1.46 -0.002 2.212 -0.003 C3.755 -0.004 5.299 -0.002 6.842 0.002 C9.181 0.008 11.52 0.003 13.859 -0.004 C15.365 -0.003 16.87 -0.002 18.375 0 C19.065 -0.002 19.755 -0.004 20.466 -0.006 C25.218 0.016 29.755 0.497 34.453 1.133 C35.891 1.149 37.33 1.139 38.766 1.07 C42.453 1.133 42.453 1.133 45.453 3.133 C42.373 4.159 40.347 4.237 37.125 4.199 C36.031 4.189 34.937 4.179 33.81 4.169 C32.62 4.155 31.43 4.14 30.203 4.125 C27.647 4.107 25.091 4.091 22.535 4.074 C18.534 4.045 14.533 4.009 10.533 3.961 C-7.729 3.757 -25.451 4.648 -43.547 7.133 C-44.626 7.278 -45.706 7.423 -46.818 7.573 C-82.563 12.419 -117.857 23.13 -150.571 38.26 C-152.547 39.133 -152.547 39.133 -155.547 40.133 C-155.877 39.473 -156.207 38.813 -156.547 38.133 C-155.887 38.133 -155.227 38.133 -154.547 38.133 C-154.547 37.473 -154.547 36.813 -154.547 36.133 C-151.493 35.115 -148.449 34.104 -145.359 33.195 C-142.557 32.357 -142.557 32.357 -140.984 30.57 C-139.547 29.133 -139.547 29.133 -137.52 28.758 C-133.336 27.878 -129.51 26.275 -125.547 24.695 C-124.753 24.383 -123.959 24.07 -123.141 23.748 C-119.997 22.509 -116.858 21.261 -113.734 19.973 C-111.679 19.184 -109.684 18.645 -107.547 18.133 C-106.106 17.643 -104.669 17.142 -103.234 16.633 C-99.348 15.314 -95.621 14.671 -91.547 14.133 C-89.907 13.576 -89.907 13.576 -88.234 13.008 C-85.547 12.133 -85.547 12.133 -83.547 13.133 C-83.547 12.473 -83.547 11.813 -83.547 11.133 C-81.783 10.947 -81.783 10.947 -79.984 10.758 C-77.063 10.406 -74.654 9.865 -71.797 9.008 C-68.727 8.181 -67.433 7.978 -64.547 9.133 C-64.547 8.473 -64.547 7.813 -64.547 7.133 C-63.86 7.072 -63.173 7.012 -62.465 6.949 C-61.564 6.865 -60.663 6.782 -59.734 6.695 C-58.394 6.573 -58.394 6.573 -57.027 6.449 C-54.419 6.198 -54.419 6.198 -51.547 5.133 C-48.88 4.771 -46.219 4.443 -43.547 4.133 C-40.172 3.713 -36.797 3.291 -33.423 2.865 C-31.277 2.596 -29.131 2.333 -26.984 2.07 C-26.268 1.979 -25.552 1.889 -24.814 1.795 C-21.421 1.384 -18.198 1.133 -14.77 1.137 C-11.764 1.279 -11.764 1.279 -9.817 0.641 C-6.557 -0.089 -3.323 -0.01 0 0 Z " fill="#13A7AA" transform="translate(501.546875,122.8671875)"/>
<path d="M0 0 C11.412 0.72 22.699 1.889 33.832 4.562 C37.174 5.237 40.538 5.494 43.934 5.754 C46 6 46 6 48 7 C52.17 8.097 56.35 9.084 60.562 10 C64.426 10.849 68.202 11.887 72 13 C72.869 13.227 73.738 13.454 74.633 13.688 C75.579 13.935 76.525 14.183 77.5 14.438 C78.377 14.663 79.253 14.889 80.156 15.121 C83 16 83 16 86.348 17.445 C90.164 19.07 93.966 20.271 97.938 21.438 C102.895 22.937 107.499 24.513 112.051 27.02 C116.184 29.099 120.633 30.491 125 32 C125 32.66 125 33.32 125 34 C126.083 34.186 126.083 34.186 127.188 34.375 C132.038 35.453 135.948 37.484 140.23 39.984 C143.719 41.987 147.184 43.728 151 45 C151 45.66 151 46.32 151 47 C152.65 47.33 154.3 47.66 156 48 C156 48.66 156 49.32 156 50 C157.65 50.33 159.3 50.66 161 51 C161 51.66 161 52.32 161 53 C162.299 53.093 162.299 53.093 163.625 53.188 C167.849 54.204 169.816 56.087 173 59 C176.669 62.088 176.669 62.088 181 64 C181 64.66 181 65.32 181 66 C181.722 66.268 182.444 66.536 183.188 66.812 C185.998 67.999 188.484 69.275 191 71 C191 71.66 191 72.32 191 73 C192.65 73.66 194.3 74.32 196 75 C196 75.66 196 76.32 196 77 C198.332 78.206 200.496 79.165 203 80 C204.71 81.622 206.373 83.294 208 85 C208.763 85.763 209.526 86.526 210.312 87.312 C210.869 87.869 211.426 88.426 212 89 C211.67 89.66 211.34 90.32 211 91 C210.487 90.501 209.974 90.002 209.445 89.488 C154.433 37.902 74.324 8.624 0 3 C0 2.01 0 1.02 0 0 Z " fill="#15A7AB" transform="translate(549,125)"/>
<path d="M0 0 C3.863 3.757 7.395 7.701 10.875 11.812 C11.944 13.067 13.013 14.321 14.082 15.574 C14.589 16.17 15.097 16.766 15.62 17.38 C27.547 31.375 39.94 45.107 54 57 C54.884 57.773 55.769 58.547 56.68 59.344 C76.03 76.167 97.118 90.177 119.268 102.992 C121.525 104.306 123.765 105.649 126 107 C124.68 107.33 123.36 107.66 122 108 C122 107.34 122 106.68 122 106 C121.408 105.818 120.817 105.636 120.207 105.449 C111.695 102.741 111.695 102.741 108 100 C108 99.34 108 98.68 108 98 C107.134 97.814 107.134 97.814 106.25 97.625 C103.977 96.994 102.075 96.111 100 95 C100 94.34 100 93.68 100 93 C99.175 92.794 98.35 92.587 97.5 92.375 C93.007 90.61 89.746 87.998 86 85 C84.419 83.747 82.836 82.497 81.25 81.25 C80.175 80.391 80.175 80.391 79.078 79.516 C77.116 78.085 75.202 77.012 73 76 C73 75.34 73 74.68 73 74 C72.278 73.773 71.556 73.546 70.812 73.312 C67.468 71.752 65.559 69.627 63 67 C62.01 66.67 61.02 66.34 60 66 C60 65.34 60 64.68 60 64 C59.34 64 58.68 64 58 64 C58 63.34 58 62.68 58 62 C57.381 61.691 56.762 61.381 56.125 61.062 C54.75 60.375 53.375 59.688 52 59 C52 58.34 52 57.68 52 57 C50.68 56.67 49.36 56.34 48 56 C48 55.34 48 54.68 48 54 C47.402 53.732 46.804 53.464 46.188 53.188 C44.002 52.001 42.587 50.904 41 49 C41 48.34 41 47.68 41 47 C40.01 46.67 39.02 46.34 38 46 C38 45.34 38 44.68 38 44 C37.443 43.773 36.886 43.546 36.312 43.312 C31.536 40.602 28.368 36.237 25 32 C23.686 30.647 22.356 29.311 21 28 C18.646 25.646 16.565 23.117 14.438 20.559 C13.063 18.884 13.063 18.884 11 18 C11 16.68 11 15.36 11 14 C10.34 14 9.68 14 9 14 C5 9.529 5 9.529 5 7 C4.361 6.773 3.721 6.546 3.062 6.312 C1 5 1 5 0.25 2.375 C0.167 1.591 0.085 0.808 0 0 Z " fill="#092C2C" transform="translate(208,731)"/>
<path d="M0 0 C1.121 3.362 0.936 3.785 -0.375 6.875 C-1.6 9.907 -2.493 12.752 -3 16 C-3.66 16 -4.32 16 -5 16 C-5.943 20.312 -6.48 24.621 -7 29 C-7.66 29 -8.32 29 -9 29 C-9.289 29.722 -9.577 30.444 -9.875 31.188 C-10.432 32.58 -10.432 32.58 -11 34 C-11.289 34.784 -11.577 35.567 -11.875 36.375 C-13.042 39.097 -14.495 41.561 -15.996 44.109 C-17.031 46.058 -17.773 47.981 -18.5 50.062 C-19.837 53.808 -21.741 56.709 -24 60 C-24.931 61.679 -25.846 63.368 -26.75 65.062 C-29.727 70.613 -33.004 75.926 -36.363 81.25 C-38.101 83.947 -38.101 83.947 -39 87 C-39.66 87 -40.32 87 -41 87 C-41.144 87.928 -41.289 88.856 -41.438 89.812 C-42.861 94.995 -46.564 98.654 -50.004 102.645 C-52.011 104.824 -52.011 104.824 -53 107 C-53.66 107 -54.32 107 -55 107 C-55.124 107.598 -55.247 108.196 -55.375 108.812 C-56 111 -56 111 -58 114 C-58.66 114 -59.32 114 -60 114 C-60 114.99 -60 115.98 -60 117 C-61.144 118.178 -62.296 119.348 -63.492 120.473 C-67.068 124.095 -70.386 128.157 -72 133 C-72.99 132.67 -73.98 132.34 -75 132 C-73.729 128.37 -72.349 126.009 -69.688 123.25 C-59.247 111.843 -50.242 99.063 -42 86 C-41.548 85.286 -41.097 84.572 -40.631 83.836 C-26.902 61.956 -15.583 39.148 -6.218 15.086 C-4.221 10.026 -2.113 5.013 0 0 Z " fill="#063334" transform="translate(871,625)"/>
<path d="M0 0 C2.568 1.284 2.59 2.113 3.523 4.777 C3.816 5.588 4.109 6.398 4.41 7.233 C4.728 8.126 5.047 9.018 5.375 9.938 C17.236 42.062 33.549 72.531 54 100 C53.67 100.66 53.34 101.32 53 102 C51.5 100.625 51.5 100.625 50 99 C50 98.34 50 97.68 50 97 C49.34 97 48.68 97 48 97 C44 90.25 44 90.25 44 88 C43.01 88 42.02 88 41 88 C40.67 86.02 40.34 84.04 40 82 C39.01 81.67 38.02 81.34 37 81 C35.812 77.438 35.812 77.438 35 74 C34.34 74 33.68 74 33 74 C33 73.01 33 72.02 33 71 C32.34 71 31.68 71 31 71 C30.539 70.065 30.077 69.131 29.602 68.168 C25.698 60.294 21.712 52.468 17.625 44.688 C17.197 43.87 16.768 43.052 16.327 42.21 C15.922 41.443 15.518 40.677 15.102 39.887 C14.744 39.208 14.386 38.53 14.018 37.831 C13.095 36.171 12.053 34.58 11 33 C10.493 31.643 10.03 30.27 9.602 28.887 C7.807 23.311 5.634 17.911 3.43 12.486 C1.774 8.322 0.53 4.488 0 0 Z " fill="#083333" transform="translate(154,629)"/>
<path d="M0 0 C3.102 0.66 5.68 1.726 8.508 3.152 C27.721 12.679 47.526 20.605 68 27 C69.25 27.391 70.501 27.781 71.789 28.184 C74.856 29.133 77.926 30.072 81 31 C80.67 31.66 80.34 32.32 80 33 C75.86 32.522 72.681 31.904 69 30 C67.68 30 66.36 30 65 30 C63.326 29.013 61.659 28.012 60 27 C58.341 26.631 56.672 26.304 55 26 C50.252 24.553 45.578 22.92 41 21 C41 20.34 41 19.68 41 19 C40.134 19.34 40.134 19.34 39.25 19.688 C37 20 37 20 35.188 18.688 C34.466 18.131 33.744 17.574 33 17 C30.677 16.299 28.342 15.635 26 15 C21.735 13.309 17.915 11.37 14 9 C12.346 8.302 10.683 7.625 9 7 C9 6.34 9 5.68 9 5 C8.072 4.732 7.144 4.464 6.188 4.188 C3.238 3.089 1.944 2.376 0 0 Z " fill="#082D2D" transform="translate(334,839)"/>
<path d="M0 0 C2.64 0.66 5.28 1.32 8 2 C8 2.66 8 3.32 8 4 C9.65 4.33 11.3 4.66 13 5 C13 5.66 13 6.32 13 7 C14.65 7.33 16.3 7.66 18 8 C18 8.66 18 9.32 18 10 C18.866 10.062 19.732 10.124 20.625 10.188 C24.849 11.204 26.816 13.087 30 16 C33.669 19.088 33.669 19.088 38 21 C38 21.66 38 22.32 38 23 C38.722 23.268 39.444 23.536 40.188 23.812 C42.998 24.999 45.484 26.275 48 28 C48 28.66 48 29.32 48 30 C50.475 30.99 50.475 30.99 53 32 C53 32.66 53 33.32 53 34 C55.332 35.206 57.496 36.165 60 37 C61.71 38.622 63.373 40.294 65 42 C66.145 43.145 66.145 43.145 67.312 44.312 C67.869 44.869 68.426 45.426 69 46 C68.505 46.99 68.505 46.99 68 48 C67.487 47.501 66.974 47.002 66.445 46.488 C47.511 28.734 24.415 15.171 2.02 2.285 C1.353 1.861 0.687 1.437 0 1 C0 0.67 0 0.34 0 0 Z " fill="#12A0A3" transform="translate(692,168)"/>
<path d="M0 0 C-2.637 2.637 -5.742 3.908 -9.062 5.5 C-27.475 14.536 -44.567 25.769 -61 38 C-61.495 36.515 -61.495 36.515 -62 35 C-60.232 33.85 -58.46 32.705 -56.688 31.562 C-55.701 30.924 -54.715 30.286 -53.699 29.629 C-51 28 -51 28 -48 27 C-48 26.34 -48 25.68 -48 25 C-46.68 24.67 -45.36 24.34 -44 24 C-44 23.01 -44 22.02 -44 21 C-42.35 21 -40.7 21 -39 21 C-39 20.34 -39 19.68 -39 19 C-37.545 18.162 -36.086 17.329 -34.625 16.5 C-33.813 16.036 -33.001 15.572 -32.164 15.094 C-30 14 -30 14 -28 14 C-28 13.34 -28 12.68 -28 12 C-26.949 11.481 -25.899 10.961 -24.816 10.426 C-23.398 9.722 -21.98 9.017 -20.562 8.312 C-19.832 7.95 -19.102 7.588 -18.349 7.215 C-13.687 4.889 -9.14 2.446 -4.699 -0.285 C-3 -1 -3 -1 0 0 Z " fill="#13A0A3" transform="translate(345,163)"/>
<path d="M0 0 C-3.196 2.813 -5.527 3.473 -9.734 3.879 C-10.859 3.995 -11.983 4.11 -13.142 4.229 C-14.928 4.394 -14.928 4.394 -16.75 4.562 C-19.195 4.808 -21.641 5.054 -24.086 5.301 C-25.272 5.418 -26.457 5.534 -27.679 5.655 C-33.126 6.221 -38.541 6.986 -43.961 7.766 C-46.904 7.993 -49.159 7.745 -52 7 C-52 6.67 -52 6.34 -52 6 C-51.313 5.939 -50.626 5.879 -49.918 5.816 C-49.017 5.733 -48.116 5.649 -47.188 5.562 C-45.848 5.441 -45.848 5.441 -44.48 5.316 C-41.873 5.065 -41.873 5.065 -39 4 C-36.333 3.638 -33.673 3.31 -31 3 C-28.333 2.668 -25.667 2.334 -23 2 C-20.126 1.64 -17.251 1.287 -14.375 0.938 C-13.651 0.847 -12.926 0.756 -12.18 0.662 C-8.092 0.17 -4.127 -0.098 0 0 Z " fill="#16A9AC" transform="translate(489,124)"/>
<path d="M0 0 C-6.425 5.584 -15.88 5.153 -24 5 C-24.33 5.33 -24.66 5.66 -25 6 C-26.492 6.258 -27.995 6.458 -29.5 6.625 C-30.315 6.72 -31.129 6.816 -31.969 6.914 C-32.974 6.957 -32.974 6.957 -34 7 C-34.33 6.67 -34.66 6.34 -35 6 C-37.328 5.632 -39.662 5.298 -42 5 C-42 4.67 -42 4.34 -42 4 C-41.123 3.914 -40.245 3.829 -39.341 3.74 C-36.065 3.42 -32.788 3.097 -29.512 2.773 C-28.098 2.634 -26.684 2.495 -25.27 2.357 C-23.229 2.158 -21.189 1.956 -19.148 1.754 C-17.31 1.573 -17.31 1.573 -15.435 1.389 C-13.204 1.136 -10.978 0.829 -8.764 0.457 C-5.8 -0.033 -2.999 -0.071 0 0 Z " fill="#072829" transform="translate(577,878)"/>
<path d="M0 0 C11.466 0.724 22.83 1.897 34.023 4.559 C36.996 5.222 39.98 5.614 43 6 C39.707 8.196 39.421 8.214 35.781 7.609 C34.94 7.478 34.098 7.346 33.231 7.21 C31.879 6.982 31.879 6.982 30.5 6.75 C28.611 6.454 26.722 6.161 24.832 5.871 C23.387 5.648 23.387 5.648 21.913 5.421 C17.35 4.761 12.774 4.275 8.188 3.812 C7.364 3.729 6.54 3.646 5.691 3.56 C3.795 3.37 1.897 3.184 0 3 C0 2.01 0 1.02 0 0 Z " fill="#21ADB1" transform="translate(549,125)"/>
<path d="M0 0 C1.121 3.362 0.936 3.785 -0.375 6.875 C-1.6 9.907 -2.493 12.752 -3 16 C-3.66 16 -4.32 16 -5 16 C-5.943 20.312 -6.48 24.621 -7 29 C-7.66 29 -8.32 29 -9 29 C-9.433 30.083 -9.433 30.083 -9.875 31.188 C-10.917 33.792 -11.958 36.396 -13 39 C-13.66 38.67 -14.32 38.34 -15 38 C-12.63 30.593 -9.844 23.4 -6.938 16.188 C-6.491 15.069 -6.044 13.951 -5.584 12.799 C-1.978 3.814 -1.978 3.814 0 0 Z " fill="#093C3D" transform="translate(871,625)"/>
<path d="M0 0 C3.863 3.757 7.396 7.7 10.875 11.812 C11.932 13.055 12.989 14.297 14.047 15.539 C14.553 16.134 15.059 16.728 15.58 17.341 C17.918 20.073 20.302 22.765 22.695 25.449 C24 27 24 27 26 30 C20.552 27.993 18.068 24.925 14.438 20.559 C13.063 18.884 13.063 18.884 11 18 C11 16.68 11 15.36 11 14 C10.34 14 9.68 14 9 14 C5 9.529 5 9.529 5 7 C4.361 6.773 3.721 6.546 3.062 6.312 C1 5 1 5 0.25 2.375 C0.167 1.591 0.085 0.808 0 0 Z " fill="#0D3737" transform="translate(208,731)"/>
<path d="M0 0 C5.256 -0.242 9.184 0.479 14.125 2.25 C15.431 2.708 16.737 3.165 18.043 3.621 C18.697 3.852 19.351 4.082 20.025 4.32 C24.97 6.023 29.994 7.489 35 9 C34.67 9.66 34.34 10.32 34 11 C29.86 10.522 26.681 9.904 23 8 C21.68 8 20.36 8 19 8 C17.326 7.013 15.659 6.012 14 5 C12.341 4.631 10.672 4.304 9 4 C5.98 3.058 2.989 2.035 0 1 C0 0.67 0 0.34 0 0 Z " fill="#083232" transform="translate(380,861)"/>
<path d="M0 0 C2.672 1.336 2.752 2.495 3.77 5.27 C4.099 6.154 4.428 7.038 4.768 7.948 C5.112 8.894 5.457 9.839 5.812 10.812 C6.526 12.73 7.241 14.646 7.957 16.562 C8.305 17.494 8.652 18.426 9.01 19.387 C10.876 24.313 12.917 29.162 15 34 C14.34 34.66 13.68 35.32 13 36 C11.283 33.425 10.492 31.76 9.602 28.887 C7.807 23.311 5.634 17.911 3.43 12.486 C1.774 8.322 0.53 4.488 0 0 Z " fill="#0A4041" transform="translate(154,629)"/>
<path d="M0 0 C-0.33 0.66 -0.66 1.32 -1 2 C-1.763 1.959 -2.526 1.918 -3.312 1.875 C-6.227 1.779 -6.227 1.779 -9 4 C-9.99 3.67 -10.98 3.34 -12 3 C-14.045 3.403 -15.974 4.011 -17.965 4.625 C-20.287 5.053 -21.772 4.718 -24 4 C-23.34 4 -22.68 4 -22 4 C-22 3.34 -22 2.68 -22 2 C-19.648 1.464 -17.295 0.946 -14.938 0.438 C-13.952 0.21 -13.952 0.21 -12.947 -0.021 C-8.293 -1.007 -4.672 -0.917 0 0 Z " fill="#093536" transform="translate(599,875)"/>
<path d="M0 0 C0.66 0.33 1.32 0.66 2 1 C1.527 1.45 1.054 1.9 0.566 2.363 C-4.325 7.121 -8.679 12.142 -12.922 17.484 C-14.837 19.803 -16.836 21.914 -19 24 C-19.66 23.67 -20.32 23.34 -21 23 C-19.77 21.571 -19.77 21.571 -18.516 20.113 C-17.427 18.846 -16.338 17.579 -15.25 16.312 C-14.711 15.687 -14.172 15.061 -13.617 14.416 C-11.29 11.705 -8.995 8.993 -6.781 6.188 C-4.769 3.717 -2.542 1.907 0 0 Z " fill="#0D9193" transform="translate(238,239)"/>
<path d="M0 0 C0.33 0.66 0.66 1.32 1 2 C0.34 2 -0.32 2 -1 2 C-1.33 2.99 -1.66 3.98 -2 5 C-3.333 5.333 -4.667 5.667 -6 6 C-6.66 6.619 -7.32 7.237 -8 7.875 C-12.539 11.09 -17.615 11.866 -23 13 C-20.699 10.438 -18.414 9.031 -15.332 7.52 C-14.439 7.078 -13.547 6.637 -12.627 6.182 C-11.698 5.73 -10.769 5.278 -9.812 4.812 C-8.872 4.349 -7.932 3.886 -6.963 3.408 C-4.645 2.267 -2.324 1.131 0 0 Z " fill="#032A2B" transform="translate(693,837)"/>
<path d="M0 0 C6.481 -0.183 12.599 0.52 19 1.5 C19.966 1.643 20.931 1.786 21.926 1.934 C24.285 2.284 26.643 2.639 29 3 C25.137 5.152 22.669 5.067 18.25 4.625 C17.08 4.514 15.909 4.403 14.703 4.289 C13.365 4.146 13.365 4.146 12 4 C12 3.34 12 2.68 12 2 C10.422 2.031 10.422 2.031 8.812 2.062 C5.673 2.011 3.031 1.735 0 1 C0 0.67 0 0.34 0 0 Z " fill="#092D2E" transform="translate(447,878)"/>
<path d="M0 0 C0 0.99 0 1.98 0 3 C-2.188 4.438 -2.188 4.438 -5 6 C-7.482 7.905 -9.789 9.789 -12 12 C-12.99 12 -13.98 12 -15 12 C-15.33 12.99 -15.66 13.98 -16 15 C-16.99 14.67 -17.98 14.34 -19 14 C-6.889 1.082 -6.889 1.082 0 0 Z " fill="#083737" transform="translate(758,794)"/>
<path d="M0 0 C2.965 4.448 4.135 9.352 5.688 14.438 C6.021 15.487 6.354 16.537 6.697 17.619 C7.007 18.63 7.317 19.642 7.637 20.684 C7.922 21.607 8.208 22.531 8.503 23.482 C9.016 26.082 8.868 27.527 8 30 C7.019 27.251 6.04 24.501 5.062 21.75 C4.785 20.973 4.507 20.195 4.221 19.395 C3.953 18.64 3.686 17.886 3.41 17.109 C3.164 16.418 2.918 15.727 2.664 15.015 C1.485 11.437 0.823 7.995 0.438 4.25 C0.312 3.051 0.312 3.051 0.184 1.828 C0.123 1.225 0.062 0.622 0 0 Z " fill="#094545" transform="translate(145,598)"/>
<path d="M0 0 C0.66 0 1.32 0 2 0 C0.504 4.411 -2.364 5.579 -6.375 7.625 C-7.517 8.215 -8.659 8.806 -9.836 9.414 C-10.88 9.937 -11.924 10.461 -13 11 C-13.797 11.4 -14.593 11.799 -15.414 12.211 C-15.937 12.471 -16.461 12.732 -17 13 C-17 12.01 -17 11.02 -17 10 C-15.285 9.043 -15.285 9.043 -13.535 8.066 C-12.044 7.232 -10.553 6.397 -9.062 5.562 C-8.308 5.142 -7.553 4.721 -6.775 4.287 C-6.057 3.884 -5.338 3.481 -4.598 3.066 C-3.933 2.695 -3.268 2.323 -2.582 1.94 C-1.014 1.097 -1.014 1.097 0 0 Z " fill="#0B3232" transform="translate(711,826)"/>
<path d="M0 0 C0.33 0.99 0.66 1.98 1 3 C0.074 4.824 0.074 4.824 -1.312 6.688 C-1.762 7.31 -2.212 7.933 -2.676 8.574 C-3.113 9.045 -3.55 9.515 -4 10 C-4.66 10 -5.32 10 -6 10 C-6.062 10.557 -6.124 11.114 -6.188 11.688 C-7.334 14.95 -9.494 16.687 -12 19 C-12.66 18.67 -13.32 18.34 -14 18 C-13.241 17.036 -12.481 16.072 -11.699 15.078 C-10.695 13.802 -9.691 12.526 -8.688 11.25 C-8.188 10.616 -7.688 9.982 -7.174 9.328 C-4.748 6.244 -2.334 3.155 0 0 Z " fill="#053030" transform="translate(822,722)"/>
<path d="M0 0 C0.99 0 1.98 0 3 0 C5.864 5.858 7.012 11.574 8 18 C7.34 18 6.68 18 6 18 C4.996 15.376 3.997 12.751 3 10.125 C2.571 9.005 2.571 9.005 2.133 7.863 C0 2.227 0 2.227 0 0 Z " fill="#108686" transform="translate(866,364)"/>
<path d="M0 0 C0 0.33 0 0.66 0 1 C-4.893 2.882 -9.762 3.857 -15 4 C-15.33 3.67 -15.66 3.34 -16 3 C-18.328 2.632 -20.662 2.298 -23 2 C-23 1.67 -23 1.34 -23 1 C-15.315 0.325 -7.716 -0.157 0 0 Z " fill="#012525" transform="translate(558,881)"/>
<path d="M0 0 C0.33 0.66 0.66 1.32 1 2 C-5.93 2 -12.86 2 -20 2 C-20 1.67 -20 1.34 -20 1 C-13.278 -0.73 -6.846 -1.715 0 0 Z " fill="#0AA5A8" transform="translate(504,124)"/>
<path d="M0 0 C6.86 0.66 13.344 2.236 20 4 C20 4.33 20 4.66 20 5 C7.026 5.208 7.026 5.208 3 4 C1.125 1.938 1.125 1.938 0 0 Z " fill="#072D2E" transform="translate(416,871)"/>
<path d="M0 0 C7.283 0.84 12.694 8.695 17 14 C17.99 15.485 17.99 15.485 19 17 C18.34 17.33 17.68 17.66 17 18 C16.587 17.515 16.175 17.031 15.75 16.531 C11.378 11.457 6.784 6.685 2 2 C1.34 1.34 0.68 0.68 0 0 Z " fill="#0C9598" transform="translate(770,224)"/>
<path d="M0 0 C4.871 4.566 8.892 9.75 13 15 C12.67 15.66 12.34 16.32 12 17 C11.67 16.01 11.34 15.02 11 14 C10.34 14 9.68 14 9 14 C5 9.529 5 9.529 5 7 C4.361 6.773 3.721 6.546 3.062 6.312 C1 5 1 5 0.25 2.375 C0.167 1.591 0.085 0.808 0 0 Z " fill="#062E2F" transform="translate(208,731)"/>
<path d="M0 0 C0.33 0.99 0.66 1.98 1 3 C-1.123 4.815 -3.248 6.627 -5.375 8.438 C-6.28 9.212 -6.28 9.212 -7.203 10.002 C-11.773 13.887 -11.773 13.887 -14 15 C-13.637 12.204 -13.139 11.134 -11.074 9.148 C-10.287 8.563 -9.499 7.978 -8.688 7.375 C-7.908 6.785 -7.128 6.194 -6.324 5.586 C-4.266 4.182 -2.258 3.044 0 2 C0 1.34 0 0.68 0 0 Z " fill="#109A9D" transform="translate(276,203)"/>
<path d="M0 0 C0.66 0.33 1.32 0.66 2 1 C2 1.66 2 2.32 2 3 C1.34 3 0.68 3 0 3 C-0.227 4.052 -0.454 5.104 -0.688 6.188 C-1.794 10.16 -3.886 12.296 -7 15 C-7.33 14.01 -7.66 13.02 -8 12 C-6.602 9.59 -6.602 9.59 -4.625 6.938 C-2.105 3.596 -2.105 3.596 0 0 Z " fill="#0A3B3D" transform="translate(830,709)"/>
<path d="M0 0 C0.99 0.33 1.98 0.66 3 1 C1.02 5.29 -0.96 9.58 -3 14 C-3.66 13.67 -4.32 13.34 -5 13 C-5 12.34 -5 11.68 -5 11 C-4.34 11 -3.68 11 -3 11 C-3 9.02 -3 7.04 -3 5 C-2.34 4.67 -1.68 4.34 -1 4 C-0.348 1.975 -0.348 1.975 0 0 Z " fill="#138D8E" transform="translate(171,331)"/>
<path d="M0 0 C0 4.332 -2.658 6.224 -5.5 9.188 C-6.287 10.026 -6.287 10.026 -7.09 10.881 C-8.387 12.26 -9.692 13.631 -11 15 C-11 10.668 -8.342 8.776 -5.5 5.812 C-4.975 5.254 -4.451 4.695 -3.91 4.119 C-2.613 2.74 -1.308 1.369 0 0 Z " fill="#062729" transform="translate(797,754)"/>
<path d="M0 0 C0.66 0.33 1.32 0.66 2 1 C0.884 3.005 -0.243 5.004 -1.375 7 C-2.315 8.671 -2.315 8.671 -3.273 10.375 C-3.843 11.241 -4.413 12.108 -5 13 C-5.66 13 -6.32 13 -7 13 C-5.414 8.638 -3.325 3.325 0 0 Z " fill="#128C8E" transform="translate(184,310)"/>
<path d="M0 0 C-3.008 2.006 -5.571 2.929 -9 4 C-9.99 4.33 -10.98 4.66 -12 5 C-11.742 3.117 -11.742 3.117 -11 1 C-9.258 -0.117 -9.258 -0.117 -7.125 -0.875 C-6.426 -1.141 -5.728 -1.406 -5.008 -1.68 C-3 -2 -3 -2 0 0 Z " fill="#093A3C" transform="translate(655,858)"/>
<path d="M0 0 C0.66 0.99 1.32 1.98 2 3 C1.34 3 0.68 3 0 3 C-0.433 4.083 -0.433 4.083 -0.875 5.188 C-1.917 7.792 -2.958 10.396 -4 13 C-4.66 12.67 -5.32 12.34 -6 12 C-5.574 10.559 -5.134 9.122 -4.688 7.688 C-4.444 6.887 -4.2 6.086 -3.949 5.262 C-2.958 2.9 -1.919 1.661 0 0 Z " fill="#0C4A49" transform="translate(862,651)"/>
<path d="M0 0 C0.66 0 1.32 0 2 0 C5 4.385 5 4.385 5 7 C5.66 7 6.32 7 7 7 C7 8.98 7 10.96 7 13 C0 4.552 0 4.552 0 0 Z " fill="#118E8F" transform="translate(832,296)"/>
<path d="M0 0 C-1 2 -1 2 -2.961 2.703 C-4.156 2.974 -4.156 2.974 -5.375 3.25 C-6.166 3.441 -6.958 3.632 -7.773 3.828 C-10 4 -10 4 -13 2 C-11.588 1.466 -10.17 0.948 -8.75 0.438 C-7.961 0.147 -7.172 -0.143 -6.359 -0.441 C-3.809 -1.045 -2.447 -0.847 0 0 Z " fill="#1DAAAE" transform="translate(407,139)"/>
<path d="M0 0 C1.125 1.562 1.125 1.562 2 4 C1.125 7.75 1.125 7.75 0 11 C-1.562 9.75 -1.562 9.75 -3 8 C-2.712 5.027 -1.399 2.612 0 0 Z " fill="#0C8486" transform="translate(147,392)"/>
<path d="M0 0 C3.831 1.561 6.281 3.914 9 7 C9.812 9.312 9.812 9.312 10 11 C5.587 7.848 2.992 4.445 0 0 Z " fill="#0D9092" transform="translate(799,254)"/>
<path d="M0 0 C1.32 0.66 2.64 1.32 4 2 C4 2.33 4 2.66 4 3 C-6.558 4.333 -6.558 4.333 -11 3 C-11 2.67 -11 2.34 -11 2 C-10.29 1.939 -9.579 1.879 -8.848 1.816 C-7.469 1.691 -7.469 1.691 -6.062 1.562 C-5.146 1.481 -4.229 1.4 -3.285 1.316 C-1.038 1.24 -1.038 1.24 0 0 Z " fill="#25B0B2" transform="translate(448,128)"/>
<path d="M0 0 C-4.554 2.666 -7.739 3.316 -13 3 C-8.834 0.223 -4.936 -1.898 0 0 Z " fill="#07292A" transform="translate(624,868)"/>
<path d="M0 0 C5.75 2.625 5.75 2.625 8 6 C7.67 6.99 7.34 7.98 7 9 C5.825 8.073 4.66 7.133 3.5 6.188 C2.525 5.404 2.525 5.404 1.531 4.605 C0 3 0 3 0 0 Z " fill="#16A0A2" transform="translate(762,215)"/>
<path d="M0 0 C4.824 -0.193 8.496 0.243 13 2 C13 2.99 13 3.98 13 5 C12.34 4.711 11.68 4.423 11 4.125 C7.375 2.766 3.767 1.894 0 1 C0 0.67 0 0.34 0 0 Z " fill="#0A3C3D" transform="translate(380,861)"/>
<path d="M0 0 C2.495 2.495 2.359 3.673 2.625 7.125 C2.7 8.035 2.775 8.945 2.852 9.883 C2.925 10.931 2.925 10.931 3 12 C0.938 9.938 0.938 9.938 -1 7 C-0.75 3.188 -0.75 3.188 0 0 Z " fill="#064C4C" transform="translate(141,582)"/>
<path d="M0 0 C0.33 0.99 0.66 1.98 1 3 C-1.64 5.64 -4.28 8.28 -7 11 C-7.33 10.01 -7.66 9.02 -8 8 C-7.01 7.67 -6.02 7.34 -5 7 C-5 6.34 -5 5.68 -5 5 C-3.374 3.293 -1.709 1.623 0 0 Z " fill="#0C9597" transform="translate(259,217)"/>
<path d="M0 0 C0.893 0.128 1.787 0.255 2.707 0.387 C3.608 0.507 4.509 0.626 5.438 0.75 C6.125 0.857 6.812 0.964 7.52 1.074 C7.52 1.404 7.52 1.734 7.52 2.074 C1.085 2.569 1.085 2.569 -5.48 3.074 C-2.48 0.074 -2.48 0.074 0 0 Z " fill="#074141" transform="translate(559.48046875,879.92578125)"/>
<path d="M0 0 C0.66 0.33 1.32 0.66 2 1 C2.594 3.649 2.742 6.292 3 9 C2.01 8.67 1.02 8.34 0 8 C-0.8 4.713 -1.097 3.29 0 0 Z " fill="#168C8C" transform="translate(875,384)"/>
<path d="M0 0 C0.99 0.33 1.98 0.66 3 1 C3.704 2.987 4.371 4.988 5 7 C5.66 7.33 6.32 7.66 7 8 C4.245 7.62 3.18 7.193 1.25 5.125 C0 3 0 3 0 0 Z " fill="#0F9494" transform="translate(813,269)"/>
<path d="M0 0 C-0.33 0.66 -0.66 1.32 -1 2 C-4.3 1.67 -7.6 1.34 -11 1 C-6.468 -1.266 -4.822 -0.927 0 0 Z " fill="#174646" transform="translate(599,875)"/>
<path d="M0 0 C2.899 2.395 3.502 4.312 4 8 C3.01 8.495 3.01 8.495 2 9 C0.502 5.629 0 3.796 0 0 Z " fill="#0F8A8B" transform="translate(858,342)"/>
<path d="M0 0 C0.99 0 1.98 0 3 0 C3 0.66 3 1.32 3 2 C3.99 2.33 4.98 2.66 6 3 C6 3.66 6 4.32 6 5 C6.66 5 7.32 5 8 5 C7.67 5.99 7.34 6.98 7 8 C4.352 5.422 2.056 3.084 0 0 Z " fill="#0E9395" transform="translate(792,246)"/>
<path d="M0 0 C2 1 2 1 2 1 Z M0 1 C-0.33 1.66 -0.66 2.32 -1 3 C-3.31 3 -5.62 3 -8 3 C-8.33 2.34 -8.66 1.68 -9 1 C-5.675 -0.108 -3.378 0.155 0 1 Z " fill="#0D3F40" transform="translate(632,865)"/>
<path d="M0 0 C0 0.99 0 1.98 0 3 C-2.97 3 -5.94 3 -9 3 C-5.732 0.821 -3.92 0 0 0 Z " fill="#27ADB1" transform="translate(476,125)"/>
</svg>
