<?xml version="1.0" encoding="UTF-8"?>
<!-- Generator: visioncortex VTracer 0.6.4 -->
<svg version="1.1" xmlns="http://www.w3.org/2000/svg" width="1024" height="1024">
<path d="M0 0 C1.3199999999999932 0 2.6399999999999864 0 4 0 C4 0.660000000000025 4 1.3199999999999932 4 2 C4.659999999999968 1.339999999999975 5.319999999999993 0.6800000000000068 6 0 C7.980000000000018 0 9.960000000000036 0 12 0 C12 0.660000000000025 12 1.3199999999999932 12 2 C15.974611842140462 2.168537600219395 19.955547547786068 2.1841780226220635 23.93359375 2.151123046875 C27.837640380859398 2.125706863403309 27.837640380859398 2.125706863403309 31.820556640625 2.0997772216796875 C34.69287475555825 2.0707849377483853 37.56518916235484 2.0414232588769323 40.4375 2.01171875 C43.35212635529268 1.9881076978406895 46.26675876344939 1.965233133435902 49.181396484375 1.9430694580078125 C55.30166694568618 1.8944224577463729 61.421827291386876 1.8390304742469539 67.5419921875 1.778564453125 C75.41136961407051 1.7010406574036665 83.28078418745741 1.636682280667685 91.15031433105469 1.5769071578979492 C97.17236013996529 1.530312592426526 103.1943517497474 1.4785174813304138 109.21633911132813 1.424936294555664 C112.1190588493223 1.399411509863853 115.02178971333205 1.3751227133573138 117.92453002929688 1.3520565032958984 C121.97186674003274 1.3187695718668806 126.01914086860813 1.2781142003238415 130.06640625 1.237060546875 C132.3758422851563 1.2154838562011605 134.68527832031248 1.193907165527321 137.064697265625 1.1716766357421875 C142.1665659225638 1.8172538915913492 142.1665659225638 1.8172538915913492 142 0 C143.98000000000002 0 145.96000000000004 0 148 0 C148 0.660000000000025 148 1.3199999999999932 148 2 C151.06015256951878 2.1199489893953682 154.12604365122797 2.0917595730379617 157.1875 2.01171875 C159.08242187500002 1.9646679687500068 160.97734375000005 1.9176171875000136 162.9296875 1.869140625 C164.93289062500003 1.8091992187499955 166.93609375000005 1.749257812499991 169 1.6875 C171.00320312500003 1.63916015625 173.00640625000005 1.5908203125 175.0703125 1.541015625 C183.5775359673105 1.8732760362227054 183.5775359673105 1.8732760362227054 190 0 C192.30999999999995 0 194.62 0 197 0 C197 0.3299999999999841 197 0.660000000000025 197 1 C201.1274159786676 1.111265227923809 205.25684191247638 1.1465286550969154 209.3857421875 1.15771484375 C210.70270584106447 1.1627955627441224 212.01966949462894 1.1678762817383017 213.3765411376953 1.1731109619140625 C216.2527066339435 1.1838543372553545 219.12888069848918 1.1924587677630143 222.00505828857422 1.1992301940917969 C226.56186850856363 1.210976148321265 231.1185820884259 1.2304213020466932 235.67535400390625 1.252349853515625 C248.6375402955341 1.3140860226012592 261.5997193105313 1.367903803384877 274.56201171875 1.4013671875 C282.47894382177117 1.4223601323006392 290.3957043298939 1.457711699964193 298.31253814697266 1.5021247863769531 C301.3281374381464 1.5162600206446655 304.343767142743 1.5250016022142177 307.3593978881836 1.5281791687011719 C311.59362086753777 1.5331095325898332 315.8273927162372 1.5563273658185608 320.0615234375 1.58349609375 C323.6722378540039 1.5956263732909974 323.6722378540039 1.5956263732909974 327.35589599609375 1.608001708984375 C367.61967814547324 3.983541553499549 381.3651947879216 35.15192222390317 381.25396728515625 71.18093872070313 C381.2570872664452 72.7525179851055 381.2602072477341 74.32409724950787 381.2634217739105 75.9433001279831 C381.2713617066054 81.17854749727888 381.2650936565766 86.41367766777768 381.2587890625 91.64892578125 C381.2615006715506 95.41472440183611 381.2650625591567 99.18052249174184 381.2694091796875 102.94631958007813 C381.27851452140237 113.15259559817883 381.2749966800444 123.35883111040357 381.26865100860596 133.5651078224182 C381.2635822017204 144.25246189575466 381.26828484717794 154.93981253634377 381.27142333984375 165.62716674804688 C381.27506008841556 183.5712750425311 381.2702711615358 201.5153668635868 381.2607421875 219.45947265625 C381.2498549129683 240.2008509135494 381.25338641736926 260.94218985905945 381.2643949985504 281.68356716632843 C381.2734721760942 299.4996041897771 381.27475112864397 317.3156293828499 381.269517660141 335.131667971611 C381.26640077507454 345.76909140637883 381.26598101394006 356.4064963641458 381.27259063720703 367.04391860961914 C381.2783697970308 377.04285140956574 381.2743565877025 387.0417335297816 381.26280212402344 397.0406608581543 C381.26015876188126 400.70903692496404 381.26091509479784 404.37741726040315 381.2653274536133 408.04579162597656 C381.27079681777934 413.0549280968611 381.26393144556084 418.06390240703445 381.25396728515625 423.0730285644531 C381.2584287285805 424.5226489365101 381.26289017200475 425.9722693085671 381.2674868106842 427.46581757068634 C381.1525667159575 457.275724175106 369.1318912276954 479.2893695907683 340 489 C339.66999999999996 489.6600000000001 339.34000000000003 490.31999999999994 339 491 C338.01 490.6700000000001 337.02 490.3399999999999 336 490 C329.7913839492909 489.90743294661866 323.59403672795645 489.8789431095248 317.3853454589844 489.89320373535156 C315.4192990648746 489.8937604421377 313.45325267076487 489.89431714892385 311.4276291131973 489.89489072561264 C304.79207256172754 489.8979442982927 298.1565454323345 489.9081387436361 291.52099609375 489.918212890625 C286.78332042910006 489.9217663832219 282.0456443944681 489.9248530897403 277.30796813964844 489.92750549316406 C267.0833530567951 489.93407134173685 256.85874661037985 489.94364017771306 246.63413619995117 489.95540046691895 C231.84984228122562 489.97234410628573 217.06555035436895 489.981920180089 202.2812488824129 489.9892792031169 C178.29524429219714 490.0012338338389 154.30924282012325 490.01618756591415 130.3232421875 490.034423828125 C128.16845185212787 490.0360590117052 128.16845185212787 490.0360590117052 125.97013039886951 490.03772722929716 C105.57040609800242 490.0533473624607 85.17068556981576 490.0719409326837 64.77096493542194 490.0917251035571 C63.333831662982675 490.0931184170395 61.89669839054346 490.09451173052184 60.416015625 490.095947265625 C58.262928676083675 490.09803756039594 58.262928676083675 490.09803756039594 56.066345021128654 490.100170083344 C32.16987528785194 490.12317022633783 8.27340800758816 490.1385078259018 -15.623071074485779 490.14750665426254 C-29.050968309135442 490.15284609728576 -42.47884104758941 490.16215306650463 -55.9067268371582 490.18089485168457 C-68.52538258429468 490.19827853296647 -81.1440107963544 490.20665246683495 -93.7626781463623 490.2079219818115 C-98.40965376878296 490.2100806427843 -103.05662918274481 490.2157101509134 -107.7035961151123 490.2249526977539 C-114.01553795018754 490.2370270540416 -120.32736304452368 490.2370060481592 -126.63931274414063 490.23377990722656 C-128.50589967370036 490.2402877098323 -130.37248660326003 490.24679551243776 -132.29563677310944 490.253500521183 C-144.8858929276309 490.2282141447381 -144.8858929276309 490.2282141447381 -146 488 C-147.485 487.4225 -148.97000000000003 486.845 -150.5 486.25 C-168.93165155011292 478.70977891131747 -177.57601480459294 465.59652066996705 -183 447 C-183.66 446.3399999999999 -184.32 445.68000000000006 -185 445 C-184.67 444.6700000000001 -184.34 444.3399999999999 -184 444 C-183.90052206372894 440.8137802176707 -183.87030865508834 437.6252688674674 -183.875 434.4375 C-183.872421875 432.6830859375 -183.86984375 430.92867187499996 -183.8671875 429.12109375 C-183.31816291067105 424.8334198168882 -183.31816291067105 424.8334198168882 -185 425 C-185.09017624473043 421.0021864836176 -185.10676965071497 417.00272627755953 -185.09765625 413.00390625 C-185.09443359375 410.52697265625 -185.0912109375 408.0500390625 -185.087890625 405.498046875 C-185.07951171875 402.8793164062499 -185.0711328125 400.2605859375001 -185.0625 397.5625 C-185.05798828125 394.94763671875 -185.0534765625 392.3327734375 -185.048828125 389.638671875 C-185.03691038328853 383.0924266063481 -185.0201231768896 376.54622423585545 -185 370 C-185 367.3007558114441 -185.02178646480837 364.60155482701805 -185.03515625 361.90234375 C-185.0445155177654 358.9140632563318 -185.05361763327184 355.9257819492632 -185.0625 352.9375 C-185.07087890625 351.41576171875 -185.0792578125 349.8940234375 -185.087890625 348.326171875 C-185.09634448713587 344.5506770451218 -185.05293232224454 340.7751332224816 -185 337 C-184.67 337 -184.34 337 -184 337 C-183.91669269613266 333.66770784530627 -183.91669269613266 330.33229215469373 -184 327 C-184.33 327 -184.66 327 -185 327 C-185.08331181962873 323.3342799363352 -185.08331181962873 319.6657200636648 -185 316 C-184.67 316 -184.34 316 -184 316 C-183.89885239310902 312.83467489023496 -183.8703699745715 309.6669373930903 -183.875 306.5 C-183.872421875 304.7365625 -183.86984375 302.973125 -183.8671875 301.15625 C-183.3122611870157 296.8334183611231 -183.3122611870157 296.8334183611231 -185 297 C-185.08332176166996 292.00069429980203 -185.08332176166996 286.99930570019797 -185 282 C-184.67 282 -184.34 282 -184 282 C-183.89673655903817 279.0590531847272 -183.8708557410337 276.11545734953154 -183.8686981201172 273.1726989746094 C-183.8626858520508 270.2370580291748 -183.8626858520508 270.2370580291748 -183.85655212402344 267.2421112060547 C-183.85734519958496 263.97896781921384 -183.85734519958496 263.97896781921384 -183.858154296875 260.64990234375 C-183.85467987060548 258.380301361084 -183.85120544433593 256.11070037841796 -183.84762573242188 253.77232360839844 C-183.8402450560711 248.8171755254748 -183.83491208155067 243.86202408423821 -183.83133506774902 238.9068717956543 C-183.82419937741815 231.06464675737016 -183.80855311840205 223.2224853846103 -183.7899932861328 215.38027954101563 C-183.7836549518294 212.69740107652063 -183.7773293397407 210.01452258194058 -183.77101612091064 207.33164405822754 C-183.76626740396023 205.31542753100393 -183.76626740396023 205.31542753100393 -183.76142275333405 203.25847935676575 C-183.7193363519588 184.99198935830395 -183.68640240249334 166.72551957084204 -183.674072265625 148.458984375 C-183.66478204593292 134.83626565791212 -183.63465712015957 121.21370953637847 -183.59275245666504 107.5910530090332 C-183.5804325906626 102.39446836083386 -183.57532296795762 97.19786143912523 -183.57755088806152 92.00126266479492 C-183.57990309331396 84.72121120513492 -183.55773666235467 77.44161153198968 -183.530029296875 70.16162109375 C-183.53663070678712 68.01453140258786 -183.54323211669922 65.86744171142578 -183.55003356933594 63.65528869628906 C-183.4051901000011 40.46003445737756 -177.4562201803376 21.935550996389964 -157 9 C-156.34 8.339999999999975 -155.68 7.680000000000007 -155 7 C-144.0972966138046 2.911486230176706 -133.99640616669313 1.7470385727816051 -122.38037109375 1.697021484375 C-121.05242523193363 1.6885821533203398 -119.7244793701172 1.6801428222656227 -118.35629272460938 1.67144775390625 C-113.99533711959708 1.645788958683454 -109.63444894554925 1.6335615656426512 -105.2734375 1.62109375 C-102.23857083361099 1.60491411719687 -99.20370935195683 1.587733634035942 -96.16885375976563 1.5695953369140625 C-88.20223373642432 1.5240096395448859 -80.23560681284044 1.4891404269916393 -72.2689208984375 1.4573974609375 C-59.48167960326589 1.4054077292991565 -46.69451374841549 1.340615165018562 -33.90736770629883 1.2691822052001953 C-29.43120256159267 1.2462615269719208 -24.955047246629874 1.230053395948687 -20.478851318359375 1.2144622802734375 C-17.76112759984204 1.201066223795408 -15.043404943090877 1.1874523605476384 -12.32568359375 1.173583984375 C-8.746888580322263 1.1593161773681686 -8.746888580322263 1.1593161773681686 -5.095794677734375 1.1447601318359375 C0.16659945725541547 1.8449090184426495 0.16659945725541547 1.8449090184426495 0 0 Z " fill="#F0E6D6" transform="translate(412,281)"/>
<path d="M0 0 C2.3203125 0.06187499999998636 2.3203125 0.06187499999998636 4.6875 0.125 C5.677500000000009 0.125 6.667500000000018 0.125 7.6875 0.125 C8.677500000000009 0.4550000000000125 9.667500000000018 0.7849999999999966 10.6875 1.125 C11.017499999999984 0.7949999999999875 11.347499999999968 0.4650000000000034 11.6875 0.125 C12.347499999999968 0.4550000000000125 13.007499999999993 0.7849999999999966 13.6875 1.125 C14.677500000000009 0.7949999999999875 15.667500000000018 0.4650000000000034 16.6875 0.125 C18.007499999999993 0.4550000000000125 19.327499999999986 0.7849999999999966 20.6875 1.125 C22.06937499999998 0.9393750000000125 23.451250000000016 0.7537499999999966 24.875 0.5625 C28.6875 0.125 28.6875 0.125 29.6875 2.125 C31.007499999999993 1.4650000000000034 32.327499999999986 0.8050000000000068 33.6875 0.125 C35.00749999999999 0.4550000000000125 36.327499999999986 0.7849999999999966 37.6875 1.125 C39.00749999999999 0.7949999999999875 40.327499999999986 0.4650000000000034 41.6875 0.125 C41.6875 0.7849999999999966 41.6875 1.4449999999999932 41.6875 2.125 C45.76203559925 2.7212847939999563 45.76203559925 2.7212847939999563 46.6875 0.125 C47.67750000000001 0.4550000000000125 48.66750000000002 0.7849999999999966 49.6875 1.125 C51.564374999999984 0.9393750000000125 53.44124999999997 0.7537499999999966 55.375 0.5625 C57.12812500000001 0.4181250000000034 58.88125000000002 0.2737500000000068 60.6875 0.125 C60.6875 0.7849999999999966 60.6875 1.4449999999999932 60.6875 2.125 C63.16250000000002 1.6299999999999955 63.16250000000002 1.6299999999999955 65.6875 1.125 C75.79861111111109 0.125 75.79861111111109 0.125 78.6875 0.125 C78.6875 0.7849999999999966 78.6875 1.4449999999999932 78.6875 2.125 C79.67750000000001 1.4650000000000034 80.66750000000002 0.8050000000000068 81.6875 0.125 C82.67750000000001 0.125 83.66750000000002 0.125 84.6875 0.125 C84.6875 0.7849999999999966 84.6875 1.4449999999999932 84.6875 2.125 C86.33749999999998 1.4650000000000034 87.98750000000001 0.8050000000000068 89.6875 0.125 C89.6875 0.7849999999999966 89.6875 1.4449999999999932 89.6875 2.125 C95.45179773960444 2.8321067811865532 95.45179773960444 2.8321067811865532 97.6875 0.125 C98.67750000000001 0.125 99.66750000000002 0.125 100.6875 0.125 C100.6875 0.7849999999999966 100.6875 1.4449999999999932 100.6875 2.125 C101.67750000000001 1.4650000000000034 102.66750000000002 0.8050000000000068 103.6875 0.125 C105.33749999999998 0.125 106.98750000000001 0.125 108.6875 0.125 C108.6875 0.7849999999999966 108.6875 1.4449999999999932 108.6875 2.125 C111.16250000000002 1.134999999999991 111.16250000000002 1.134999999999991 113.6875 0.125 C114.01750000000004 0.4550000000000125 114.34749999999997 0.7849999999999966 114.6875 1.125 C117.88961302086358 1.2462678125181696 117.88961302086358 1.2462678125181696 121.6875 0.125 C121.6875 0.7849999999999966 121.6875 1.4449999999999932 121.6875 2.125 C123.91110679775 2.423142396999964 123.91110679775 2.423142396999964 124.6875 0.125 C124.6875 1.115000000000009 124.6875 2.1049999999999898 124.6875 3.125 C127.16250000000002 2.134999999999991 127.16250000000002 2.134999999999991 129.6875 1.125 C134 0.375 134 0.375 137.6875 0.125 C137.6875 0.7849999999999966 137.6875 1.4449999999999932 137.6875 2.125 C138.925 1.8156250000000114 140.16250000000002 1.5062499999999943 141.4375 1.1875 C145.6875 0.125 145.6875 0.125 149.6875 1.125 C151.0075 0.7949999999999875 152.3275 0.4650000000000034 153.6875 0.125 C153.6875 0.7849999999999966 153.6875 1.4449999999999932 153.6875 2.125 C155.91110679775 2.423142396999964 155.91110679775 2.423142396999964 156.6875 0.125 C156.6875 0.7849999999999966 156.6875 1.4449999999999932 156.6875 2.125 C158.33749999999998 1.7949999999999875 159.9875 1.4650000000000034 161.6875 1.125 C168.6875 0.125 168.6875 0.125 170.6875 2.125 C174.15250000000003 1.6299999999999955 174.15250000000003 1.6299999999999955 177.6875 1.125 C179.33749999999998 1.4550000000000125 180.98749999999995 1.7849999999999966 182.6875 2.125 C182.6875 1.4650000000000034 182.6875 0.8050000000000068 182.6875 0.125 C185.6875 0.125 185.6875 0.125 186.6875 2.125 C189.8365711985 2.57221359549996 189.8365711985 2.57221359549996 190.6875 0.125 C191.6775 0.4550000000000125 192.66750000000002 0.7849999999999966 193.6875 1.125 C195.66750000000002 1.4550000000000125 197.64750000000004 1.7849999999999966 199.6875 2.125 C199.6875 1.4650000000000034 199.6875 0.8050000000000068 199.6875 0.125 C201.99749999999995 0.4550000000000125 204.3075 0.7849999999999966 206.6875 1.125 C208.00749999999994 0.7949999999999875 209.3275 0.4650000000000034 210.6875 0.125 C213.6875 0.125 213.6875 0.125 218.5 0.625 C225.67808995087194 1.4084229786516573 225.67808995087194 1.4084229786516573 232.6875 0.125 C233.01749999999993 0.4550000000000125 233.34750000000008 0.7849999999999966 233.6875 1.125 C234.84249999999997 0.9806250000000034 235.99749999999995 0.8362500000000068 237.1875 0.6875 C243.22445172758194 -0.06711896594774203 248.76312419920805 -0.356093950197959 254.6875 1.125 C256.1725 0.6299999999999955 256.1725 0.6299999999999955 257.6875 0.125 C258.0174999999999 0.4550000000000125 258.3475000000001 0.7849999999999966 258.6875 1.125 C260.00749999999994 0.7949999999999875 261.3275 0.4650000000000034 262.6875 0.125 C264.6675 0.125 266.64750000000004 0.125 268.6875 0.125 C268.6875 0.7849999999999966 268.6875 1.4449999999999932 268.6875 2.125 C269.3475000000001 2.125 270.00749999999994 2.125 270.6875 2.125 C270.6875 1.4650000000000034 270.6875 0.8050000000000068 270.6875 0.125 C271.6775 0.125 272.6675 0.125 273.6875 0.125 C273.6875 0.7849999999999966 273.6875 1.4449999999999932 273.6875 2.125 C276.3611296639957 1.8531054578987494 279.02786705584117 1.510454049878092 281.6875 1.125 C283.3375 1.125 284.98749999999995 1.125 286.6875 1.125 C288.1725 0.6299999999999955 288.1725 0.6299999999999955 289.6875 0.125 C290.6775 0.125 291.6675 0.125 292.6875 0.125 C292.6875 0.7849999999999966 292.6875 1.4449999999999932 292.6875 2.125 C294.1725 1.134999999999991 294.1725 1.134999999999991 295.6875 0.125 C300.875 -0.125 300.875 -0.125 305.6875 0.125 C305.6875 0.7849999999999966 305.6875 1.4449999999999932 305.6875 2.125 C307.3375 1.4650000000000034 308.98749999999995 0.8050000000000068 310.6875 0.125 C312.3375 0.4550000000000125 313.98749999999995 0.7849999999999966 315.6875 1.125 C315.6875 0.7949999999999875 315.6875 0.4650000000000034 315.6875 0.125 C317.6675 0.125 319.64750000000004 0.125 321.6875 0.125 C321.6875 0.7849999999999966 321.6875 1.4449999999999932 321.6875 2.125 C325.7620355992501 2.7212847939999563 325.7620355992501 2.7212847939999563 326.6875 0.125 C337.6875 0.125 337.6875 0.125 338.6875 1.125 C340.00749999999994 0.7949999999999875 341.3275 0.4650000000000034 342.6875 0.125 C343.6775 0.125 344.6675 0.125 345.6875 0.125 C345.6875 0.7849999999999966 345.6875 1.4449999999999932 345.6875 2.125 C347.99749999999995 1.4650000000000034 350.3075 0.8050000000000068 352.6875 0.125 C354.6675 1.115000000000009 354.6675 1.115000000000009 356.6875 2.125 C357.3475000000001 1.4650000000000034 358.00749999999994 0.8050000000000068 358.6875 0.125 C361.6875 0.125 361.6875 0.125 363.6875 2.125 C365.0899999999999 2.248750000000001 366.49250000000006 2.3725000000000023 367.9375 2.5 C382.7991524283807 4.455480582681673 383.80394491404 16.00815539363336 383.96875 28.23046875 C384.0061328125 30.657128906249994 384.04351562500005 33.08378906249999 384.08203125 35.583984375 C384.1525036425462 40.74804469546987 384.2228154187053 45.91210721025473 384.29296875 51.076171875 C384.3303515625 53.49896484375 384.36773437500005 55.921757812500005 384.40625 58.41796875 C384.43654296875 60.661179199218736 384.46683593750004 62.9043896484375 384.498046875 65.215576171875 C383.87508050808606 70.29154270810525 383.87508050808606 70.29154270810525 385.6875 70.125 C385.6875 72.10500000000002 385.6875 74.08499999999998 385.6875 76.125 C385.0274999999999 76.125 384.36750000000006 76.125 383.6875 76.125 C383.254375 77.34187500000002 382.82124999999996 78.55875 382.375 79.8125 C377.50151444956873 92.26696307332432 368.3467405277195 91.38386179132411 356.89453125 91.25 C354.70916999816893 91.23864013671874 354.70916999816893 91.23864013671874 352.4796600341797 91.22705078125 C347.8196545188216 91.20257791332887 343.15989394118424 91.16530178543726 338.5 91.125 C332.36068424246594 91.07208301024752 326.22148765993916 91.03197688914628 320.08203125 91 C318.65607131958006 90.9834033203125 317.23011138916013 90.96680664062501 315.7609405517578 90.94970703125 C309.2569868825766 90.02024172434704 309.2569868825766 90.02024172434704 304.6875 93.125 C304.6875 92.465 304.6875 91.805 304.6875 91.125 C301.89282278398923 91.0139625438189 299.0923566965688 91.05554357601923 296.296875 91.14404296875 C293.51382934570313 91.22055587768554 293.51382934570313 91.22055587768554 290.674560546875 91.29861450195313 C287.58721557617184 91.39443313598633 287.58721557617184 91.39443313598633 284.4375 91.4921875 C257.76274003641777 92.18413147555466 231.1039805775472 92.27736828571932 204.42138671875 92.25537109375 C196.66762353445188 92.24998619602746 188.91391775433397 92.25536841297762 181.16015625 92.26171875 C157.09183499417713 92.26305924082453 133.04713686492357 92.21711737643403 108.9931640625 91.29861450195313 C101.83488047812318 90.03151563649183 101.83488047812318 90.03151563649183 96.6875 93.125 C96.6875 92.465 96.6875 91.805 96.6875 91.125 C93.22249999999997 91.62 93.22249999999997 91.62 89.6875 92.125 C86.53907333780609 92.22026652799781 83.38887300622093 92.26302955797678 80.239013671875 92.270263671875 C77.4052338409424 92.27983345031737 77.4052338409424 92.27983345031737 74.51420593261719 92.28959655761719 C72.48182266235352 92.29070938110351 70.44943939208986 92.29182220458983 68.35546875 92.29296875 C66.25826980590818 92.29629714965819 64.16107086181643 92.2996255493164 62.00032043457031 92.30305480957031 C57.56458759857031 92.30811710156473 53.12885095614331 92.31046335050718 48.693115234375 92.310302734375 C41.911882693016935 92.31248811385981 35.13081311136688 92.33064889394768 28.349609375 92.349609375 C24.039063056223824 92.35254364741184 19.728515964874987 92.35452821660908 15.41796875 92.35546875 C13.391658172607436 92.36265426635742 11.365347595214871 92.36983978271485 9.277633666992188 92.37724304199219 C6.429669113159207 92.37262809753418 6.429669113159207 92.37262809753418 3.524169921875 92.367919921875 C1.0310047149658317 92.37005744934083 1.0310047149658317 92.37005744934083 -1.5125274658203125 92.37223815917969 C-18.539944819534014 91.49518578187147 -25.14503128839027 86.07066447258501 -27.3125 69.125 C-26.982500000000016 67.475 -26.652499999999975 65.82499999999999 -26.3125 64.125 C-26.807500000000005 62.639999999999986 -26.807500000000005 62.639999999999986 -27.3125 61.125 C-26.982500000000016 60.13499999999999 -26.652499999999975 59.14500000000001 -26.3125 58.125 C-26.972500000000025 58.125 -27.632499999999993 58.125 -28.3125 58.125 C-27.982500000000016 56.474999999999994 -27.652499999999975 54.82499999999999 -27.3125 53.125 C-27.3125 50.485000000000014 -27.3125 47.845 -27.3125 45.125 C-26.982500000000016 43.80500000000001 -26.652499999999975 42.485000000000014 -26.3125 41.125 C-26.47750000000002 39.165625000000006 -26.642499999999984 37.20625000000001 -26.8125 35.1875 C-27.3125 29.125 -27.3125 29.125 -26.3125 24.125 C-26.642499999999984 23.13499999999999 -26.972500000000025 22.14500000000001 -27.3125 21.125 C-26.982500000000016 20.795000000000016 -26.652499999999975 20.465000000000003 -26.3125 20.125 C-26.064999999999998 18.743124999999992 -25.817499999999995 17.361249999999984 -25.5625 15.9375 C-23.181164642060367 6.769358871932383 -18.570940074473356 3.408342615171591 -9.5625 2.625 C0.07957995946128449 1.7067066705274954 -8.559597642789186 0.248104279501149 0 0 Z M241.6875 1.125 C245.6875 2.125 245.6875 2.125 245.6875 2.125 Z M260.6875 1.125 C261.6875 3.125 261.6875 3.125 261.6875 3.125 Z M297.6875 1.125 C301.6875 2.125 301.6875 2.125 301.6875 2.125 Z " fill="#2F8596" transform="translate(334.3125,143.875)"/>
<path d="M0 0 C0 0.6599999999999682 0 1.32000000000005 0 2 C1.9800000000000182 2.659999999999968 3.9600000000000364 3.32000000000005 6 4 C24.992675185116468 18.609750142397274 26.118551178015537 39.826732893669714 13 59 C3.5336740256275334 68.29421095665657 -6.768436256810219 72 -20 72 C-20 71.34000000000003 -20 70.68000000000006 -20 70 C-21.73249999999996 69.81437500000004 -21.73249999999996 69.81437500000004 -23.5 69.625 C-45.22657098877323 66.60742069600371 -52.3667828786804 46.134960301525325 -51 27 C-48.83698106338272 15.729532909204863 -43.40735849246062 11.322538041820508 -35 4 C-34.00999999999999 3.009999999999991 -33.01999999999998 2.019999999999982 -32 1 C-21.193802409646423 -2.60206586345123 -11.018259377280742 -2.4485020838401397 0 0 Z " fill="#FD8E7A" transform="translate(648,808)"/>
<path d="M0 0 C1.3406250000000455 1.1343749999999773 2.6812499999999773 2.2687499999999545 4.0625 3.4375 C19.229181423653586 17.15973557378186 18.03304670534908 37.059705125012556 7.625 53.25 C-4.743445021670141 65.9527273195531 -20.02420151005481 67.74608504984405 -37 65 C-37 64.00999999999999 -37 63.01999999999998 -37 62 C-39.64430277478789 60.94227889008482 -42.29814878277875 59.900617072407044 -45 59 C-49.63123059434707 53.65627239113803 -52.749895271717435 49.75031418484764 -55 43 C-56.31999999999999 42.34000000000003 -57.639999999999986 41.67999999999995 -59 41 C-58.670000000000016 38.690000000000055 -58.339999999999975 36.379999999999995 -58 34 C-58 31.360000000000014 -58 28.720000000000027 -58 26 C-53.94428761291397 1.665725677483806 -21.110873126745844 -21.1108731267459 0 0 Z M-57 40 C-56 42 -56 42 -56 42 Z " fill="#FD8D7A" transform="translate(533,813)"/>
<path d="M0 0 C0.9900000000000091 0.3300000000000409 1.9800000000000182 0.6599999999999682 3 1 C3.990000000000009 3.4750000000000227 3.990000000000009 3.4750000000000227 5 6 C6.0106250000000045 7.83562500000005 7.021250000000009 9.671249999999986 8.0625 11.5625 C17.670736528331418 32.61884813655615 8.001505958962525 51.0213521125994 -11 62 C-33.71132243090045 68.48894926597154 -53.42414110323813 58.72757669028556 -61 36 C-63.355382418059435 -0.18021845445412055 -31.300283582920997 -20.86685572194733 0 0 Z " fill="#FD8E7A" transform="translate(412,815)"/>
<path d="M0 0 C0 7.5557893245231185 -2.6023477171550553 10.455226424224008 -7.5625 15.9375 C-15.169165569184543 24.927195672672667 -16.421725666242537 32.367411500636194 -10 42 C-8.205624999999998 43.11374999999998 -6.4112499999999955 44.22750000000002 -4.5625 45.375 C9.336264549754333 54.432621841412924 9.743729881746958 68.66957400128774 3 83 C-8.599626031588514 97.96725939559803 -23.59691360526614 99.73562834480208 -38.875 88.375 C-62.02781126135159 63.818988056142246 -47.50320019996934 25.503200199969342 -26.625 4.625 C-18.473657832470394 -1.763889806982661 -8.825272695907415 -8.825272695907415 0 0 Z " fill="#2E8393" transform="translate(333,338)"/>
<path d="M0 0 C6.924540572951855 27.698162291807535 -7.771018985709361 62.27343172164308 -35 73 C-44 73.75 -44 73.75 -49 70 C-49 61.63039524315593 -46.54567257519807 58.92531145331691 -41.4375 52.5625 C-34.626540924438814 43.52249977243696 -32.54081404540693 37.45918595459307 -41 29 C-42.340625000000045 28.174999999999955 -43.68124999999998 27.350000000000023 -45.0625 26.5 C-57.964043337735006 18.308543912549226 -58.373475602891745 4.591500581322748 -52 -8 C-34.66080587507122 -29.928980805056995 -11.666823237524113 -24.187316468037807 0 0 Z " fill="#2E8393" transform="translate(738,637)"/>
<path d="M0 0 C8.30118650957536 29.054152783513928 -7.772303403712044 64.35607515403126 -36 76 C-47.9055441478439 76 -47.9055441478439 76 -48.08984375 68.1953125 C-46.806391998816366 63.25471328576634 -44.87720391852031 60.72850494558793 -41.5625 56.875 C-35.866155246014955 50.20574629846351 -32.73959402576793 44.900348523538696 -35 36 C-40.556388178102 31.09568036385724 -40.556388178102 31.09568036385724 -45.5625 28.3125 C-58.17958641088035 18.89411155244136 -57.83047424653614 3.6355379887287427 -50 -9 C-33.920636415154036 -29.09920448105754 -10.664502409992792 -20.0889464002189 0 0 Z " fill="#2E8393" transform="translate(667,635)"/>
<path d="M0 0 C0 8.766051235822943 -3.0435417487315135 11.695738748270287 -8.125 18.625 C-13.739433102441012 26.412762045321358 -16.3529703322493 31.0783827795845 -11 40 C-8.04018420266732 42.05900229379665 -5.036852722941944 44.05641425731716 -2 46 C11.309901121120618 57.091584267600524 10.824894210056641 71.85721719030147 0.6875 85.4375 C-11.177514128119526 96.90031025936969 -25.008968747447625 96.34661029591933 -38.25 87 C-61.00988542089556 62.722788884378076 -45.66530093077267 27.63526672744365 -26.8125 6.25 C-19.377205032942925 -0.3162345163621012 -8.825829828188944 -8.825829828188944 0 0 Z " fill="#2E8393" transform="translate(402,340)"/>
<path d="M0 0 C2.3203125 0.06187499999998636 2.3203125 0.06187499999998636 4.6875 0.125 C5.677500000000009 0.125 6.667500000000018 0.125 7.6875 0.125 C8.677500000000009 0.4550000000000125 9.667500000000018 0.7849999999999966 10.6875 1.125 C11.017499999999984 0.7949999999999875 11.347500000000025 0.4650000000000034 11.6875 0.125 C12.347500000000025 0.4550000000000125 13.007499999999993 0.7849999999999966 13.6875 1.125 C14.677500000000009 0.7949999999999875 15.667500000000018 0.4650000000000034 16.6875 0.125 C18.007499999999993 0.4550000000000125 19.327499999999986 0.7849999999999966 20.6875 1.125 C22.06937499999998 0.9393750000000125 23.451250000000016 0.7537499999999966 24.875 0.5625 C28.6875 0.125 28.6875 0.125 29.6875 2.125 C31.007499999999993 1.4650000000000034 32.327499999999986 0.8050000000000068 33.6875 0.125 C35.00749999999999 0.4550000000000125 36.327499999999986 0.7849999999999966 37.6875 1.125 C39.00749999999999 0.7949999999999875 40.327499999999986 0.4650000000000034 41.6875 0.125 C41.6875 0.7849999999999966 41.6875 1.4449999999999932 41.6875 2.125 C45.76203559925 2.7212847939999563 45.76203559925 2.7212847939999563 46.6875 0.125 C47.67750000000001 0.4550000000000125 48.66750000000002 0.7849999999999966 49.6875 1.125 C51.564374999999984 0.9393750000000125 53.44124999999997 0.7537499999999966 55.375 0.5625 C57.12812500000001 0.4181250000000034 58.88125000000002 0.2737500000000068 60.6875 0.125 C60.6875 0.7849999999999966 60.6875 1.4449999999999932 60.6875 2.125 C63.16250000000002 1.6299999999999955 63.16250000000002 1.6299999999999955 65.6875 1.125 C75.79861111111114 0.125 75.79861111111114 0.125 78.6875 0.125 C78.6875 0.7849999999999966 78.6875 1.4449999999999932 78.6875 2.125 C79.67750000000001 1.4650000000000034 80.66750000000002 0.8050000000000068 81.6875 0.125 C82.67750000000001 0.125 83.66750000000002 0.125 84.6875 0.125 C84.6875 0.7849999999999966 84.6875 1.4449999999999932 84.6875 2.125 C86.33749999999998 1.4650000000000034 87.98750000000001 0.8050000000000068 89.6875 0.125 C89.6875 0.7849999999999966 89.6875 1.4449999999999932 89.6875 2.125 C92.67953211519671 2.4129237253711153 95.68362100998286 2.5785630304546316 98.6875 2.6875 C107.6875 3.0277777777777715 107.6875 3.0277777777777715 107.6875 4.125 C103.98618874833522 4.227316946919927 100.28280304878007 4.253024076849897 96.580078125 4.25439453125 C94.15756713867188 4.257546691894532 91.73505615234376 4.260698852539065 89.2391357421875 4.263946533203125 C86.56567364529212 4.262156808726303 83.89221171229423 4.260105870148834 81.21875 4.2578125 C78.50589997640895 4.258485312101527 75.7930500113398 4.259455145060855 73.0802001953125 4.260711669921875 C67.38370186612485 4.262189715807779 61.68721917413791 4.26003067945166 55.99072265625 4.25537109375 C48.666076715272766 4.2496737512582285 41.34146740972966 4.2529521893400215 34.016822814941406 4.258943557739258 C28.41171997919963 4.262546305415157 22.806625918266946 4.261411910342872 17.201522827148438 4.258815765380859 C14.49975072978026 4.258145700708326 11.797977851424037 4.258977663796884 9.096206665039063 4.261295318603516 C5.329111876846696 4.263817165371705 1.5620143182561605 4.2592962553746645 -2.205078125 4.25439453125 C-4.354630126953111 4.253598937988272 -6.504182128906223 4.252803344726573 -8.7188720703125 4.251983642578125 C-13.3125 4.125 -13.3125 4.125 -13.3125 3.125 C-11.827499999999986 2.9806250000000034 -10.342499999999973 2.836250000000007 -8.8125 2.6875 C-0.3442132718123503 1.6289641589765438 -8.290813121810174 0.24031342382059506 0 0 Z " fill="#1D5E6D" transform="translate(334.3125,143.875)"/>
<path d="M0 0 C0.9900000000000091 0 1.9800000000000182 0 3 0 C3 0.9900000000000091 3 1.9799999999999898 3 3 C7.0304665983800305 3.2847452195252913 11.076709463640668 3.3413827140685726 15.1171875 3.32470703125 C16.404658813476544 3.323538818359367 17.69213012695309 3.3223706054687625 19.01861572265625 3.3211669921875 C23.30423657019469 3.313937988573201 27.58946783454701 3.285690723267521 31.875 3.2578125 C34.834469042697606 3.24968504233172 37.7939424336422 3.243018623891544 40.75341796875 3.237762451171875 C48.565757537060335 3.2205871803249124 56.37792584283966 3.186298874472925 64.190185546875 3.147705078125 C76.69738899362108 3.088663916734845 89.20468030725999 3.054772515766416 101.71197509765625 3.0219383239746094 C106.09952778978823 3.0078940349937113 110.48699599793088 2.986312478286436 114.87451171875 2.963653564453125 C117.54394471655303 2.953636297641623 120.21337828929336 2.94377068970158 122.8828125 2.93408203125 C125.2277783203125 2.922812805175795 127.57274414062499 2.9115435791015614 129.98876953125 2.899932861328125 C135 3 135 3 135 4 C129.48817202513885 4.1024237058029485 123.98875002542934 4.13602380003843 118.4765625 4.12939453125 C115.84309844970699 4.132023010253903 115.84309844970699 4.132023010253903 113.15643310546875 4.13470458984375 C107.31261221951286 4.13913100313539 101.4688212307085 4.136182345373925 95.625 4.1328125 C91.58935540912717 4.133485312089476 87.55371085759384 4.134455145030671 83.51806640625 4.135711669921875 C75.04394140273939 4.137189714980622 66.56982691091503 4.13503067765609 58.095703125 4.13037109375 C47.199545932641854 4.124673756655966 36.30341336749791 4.127952194412757 25.407257080078125 4.133943557739258 C17.069089887888595 4.137546304414656 8.730928594328134 4.136411909557069 0.39276123046875 4.133815765380859 C-3.6264038377222505 4.133145700714209 -7.645569430911053 4.133977663388919 -11.66473388671875 4.136295318603516 C-17.268691320201242 4.1388171720199125 -22.872608116101276 4.134987877563304 -28.4765625 4.12939453125 C-30.159695434570324 4.1314187622070335 -31.842828369140648 4.133442993164067 -33.57696533203125 4.135528564453125 C-45 4.114260862431507 -45 4.114260862431507 -45 3 C-39.08132592601436 2.7847754882187132 -33.170767840191616 2.621290388228516 -27.25 2.5 C-23.921787495638284 2.431193156494828 -20.593653159839846 2.3584602533082943 -17.265625 2.28125 C-15.778369140624989 2.2509570312500102 -14.291113281249977 2.220664062499992 -12.7587890625 2.189453125 C-8.922218608953528 2.1175408841861554 -8.922218608953528 2.1175408841861554 -5 1 C-2.5249999999999773 1.4950000000000045 -2.5249999999999773 1.4950000000000045 0 2 C0 1.3400000000000034 0 0.6800000000000068 0 0 Z " fill="#0B4B5B" transform="translate(517,144)"/>
<path d="M0 0 C12.455861037594673 2.491172207518929 12.262244627688233 13.88938791474797 12.37890625 24.30078125 C12.413066406249982 26.72099609374999 12.447226562499964 29.141210937500006 12.482421875 31.634765625 C12.522060546874968 35.435244140625 12.522060546874968 35.435244140625 12.5625 39.3125 C12.622029927025551 44.32947959464752 12.685585756839373 49.34641366399222 12.75390625 54.36328125 C12.777834472656195 56.59376220703126 12.801762695312505 58.824243164062494 12.826416015625 61.122314453125 C12.192465264182715 66.1665612284169 12.192465264182715 66.1665612284169 14 66 C14 67.98000000000002 14 69.95999999999998 14 72 C13.340000000000032 72 12.67999999999995 72 12 72 C11.009999999999991 72.99000000000001 11.009999999999991 72.99000000000001 10 74 C9.99065429687505 72.09267089843752 9.981308593749986 70.18534179687498 9.9716796875 68.22021484375 C9.93179968039135 61.14185250554692 9.866044631038449 54.06392568537768 9.79248046875 46.98583984375 C9.764259650321492 43.92274572397821 9.743050749824647 40.85957863036097 9.72900390625 37.79638671875 C9.707591280086604 33.392523271133655 9.660944487424558 28.9895383162401 9.609375 24.5859375 C9.608146362304637 23.216983337402354 9.606917724609389 21.84802917480468 9.60565185546875 20.437591552734375 C9.454403087762671 10.61283311645525 7.8368115080526195 6.26944920644209 0 0 Z " fill="#276877" transform="translate(706,148)"/>
<path d="M0 0 C-1.1137499999999818 0.7012499999999875 -2.2275000000000205 1.4025000000000034 -3.375 2.125 C-10.753331477696008 7.976780137483047 -9.293943521384563 16.447270598385217 -9.37890625 25.1484375 C-9.39590072631836 26.516102600097668 -9.412895202636719 27.883767700195307 -9.430404663085938 29.292877197265625 C-9.483482440742762 33.653538150140065 -9.523834369027611 38.01418927207368 -9.5625 42.375 C-9.606345833144132 46.757187367248434 -9.65292695067268 51.13929894628592 -9.705307006835938 55.521392822265625 C-9.751947837067746 59.48212919677181 -9.78938369030044 63.442970727557764 -9.826416015625 67.40380859375 C-10 73 -10 73 -11 73 C-12.427824634626745 67.68531941555597 -13.09233490193219 64.46167450966087 -12 59 C-12.495000000000005 57.514999999999986 -12.495000000000005 57.514999999999986 -13 56 C-12.670000000000016 55.00999999999999 -12.339999999999975 54.02000000000001 -12 53 C-12.660000000000025 53 -13.319999999999993 53 -14 53 C-13.670000000000016 51.349999999999994 -13.339999999999975 49.69999999999999 -13 48 C-13 45.360000000000014 -13 42.72 -13 40 C-12.670000000000016 38.68000000000001 -12.339999999999975 37.360000000000014 -12 36 C-12.16500000000002 34.040625000000006 -12.329999999999984 32.08125000000001 -12.5 30.0625 C-13 24 -13 24 -12 19 C-12.329999999999984 18.00999999999999 -12.660000000000025 17.02000000000001 -13 16 C-12.670000000000016 15.670000000000016 -12.339999999999975 15.340000000000003 -12 15 C-11.752499999999998 13.618124999999992 -11.504999999999995 12.236250000000013 -11.25 10.8125 C-9.709477506497535 4.88148840001557 -6.904873456285998 -2.3016244854286754 0 0 Z " fill="#276773" transform="translate(320,149)"/>
<path d="M0 0 C0 0.6599999999999966 0 1.3199999999999932 0 2 C4.074535599249998 2.5962847939999563 4.074535599249998 2.5962847939999563 5 0 C5.990000000000009 0.3300000000000125 6.980000000000018 0.6599999999999966 8 1 C9.876874999999984 0.8143750000000125 11.753750000000025 0.6287499999999966 13.6875 0.4375 C15.440625000000011 0.2931250000000034 17.193750000000023 0.14875000000000682 19 0 C19 0.6599999999999966 19 1.3199999999999932 19 2 C20.649999999999977 1.6699999999999875 22.30000000000001 1.3400000000000034 24 1 C34.111111111111086 0 34.111111111111086 0 37 0 C37 0.6599999999999966 37 1.3199999999999932 37 2 C37.99000000000001 1.3400000000000034 38.98000000000002 0.6800000000000068 40 0 C40.99000000000001 0 41.98000000000002 0 43 0 C43 0.6599999999999966 43 1.3199999999999932 43 2 C44.64999999999998 1.3400000000000034 46.30000000000001 0.6800000000000068 48 0 C48 0.6599999999999966 48 1.3199999999999932 48 2 C49.64999999999998 2 51.30000000000001 2 53 2 C53 3 53 3 47.033203125 3.113525390625 C44.28254700170811 3.113365741027991 41.531888004369705 3.1076413893769654 38.78125 3.09765625 C37.3385070800781 3.0962413024902276 35.89576416015626 3.094826354980455 34.4093017578125 3.0933685302734375 C29.772847289119284 3.087742982232811 25.136440024853755 3.0751861807598004 20.5 3.0625 C17.36849027761798 3.0574882910999577 14.23697980310476 3.052924816592224 11.10546875 3.048828125 C3.4036274718689015 3.0377652530816306 -4.298178245321026 3.0204835684964735 -12 3 C-8.949988153004767 -1.5750177704928205 -5.030551590528603 0 0 0 Z " fill="#438B98" transform="translate(376,144)"/>
<path d="M0 0 C4 0 4 0 5 1 C6.32000000000005 0.6699999999999875 7.639999999999986 0.3400000000000034 9 0 C9.990000000000009 0 10.980000000000018 0 12 0 C12 0.6599999999999966 12 1.3199999999999932 12 2 C14.309999999999945 1.3400000000000034 16.620000000000005 0.6800000000000068 19 0 C20.32000000000005 0.6599999999999966 21.639999999999986 1.3199999999999932 23 2 C23.659999999999968 1.3400000000000034 24.32000000000005 0.6800000000000068 25 0 C28 0 28 0 30 4 C26.00439453125 4.469970703125 26.00439453125 4.469970703125 20.1328125 4.42578125 C18.050976562499955 4.4174023437500125 15.969140625000023 4.409023437499997 13.82421875 4.400390625 C11.613476562499955 4.371386718749989 9.402734375000023 4.342382812500006 7.125 4.3125 C4.9219921874999955 4.302832031250006 2.718984374999991 4.293164062500011 0.44921875 4.283203125 C-16 4.166217339208401 -16 4.166217339208401 -16 3 C-11.83564378493088 2.7071937036279508 -7.671051928921315 2.549079375572319 -3.5 2.37890625 C0.3313970045280712 2.550865023302265 0.3313970045280712 2.550865023302265 0 0 Z " fill="#286B79" transform="translate(668,144)"/>
<path d="M0 0 C0 0.6599999999999966 0 1.3199999999999932 0 2 C1.8562499999999886 1.5359374999999886 1.8562499999999886 1.5359374999999886 3.75 1.0625 C8 0 8 0 12 1 C13.319999999999993 0.6699999999999875 14.639999999999986 0.3400000000000034 16 0 C16 0.6599999999999966 16 1.3199999999999932 16 2 C18.223606797749994 2.298142396999964 18.223606797749994 2.298142396999964 19 0 C19 0.6599999999999966 19 1.3199999999999932 19 2 C20.649999999999977 1.6699999999999875 22.30000000000001 1.3400000000000034 24 1 C31 0 31 0 33 3 C18.810000000000002 3 4.6200000000000045 3 -10 3 C-6.929124342529747 -0.0708756574702818 -4.227027482507083 0 0 0 Z " fill="#448C99" transform="translate(472,144)"/>
<path d="M0 0 C0.10287118802489204 5.1086220166324665 0.13956663473086905 10.203551519984956 0.1328125 15.3125 C0.13376922607420738 16.86622314453126 0.13472595214844318 18.419946289062523 0.135711669921875 20.020751953125 C0.13639426616990136 23.316243899711196 0.13453449142107843 26.61173717515976 0.13037109375 29.9072265625 C0.12502399961340416 34.97724400291787 0.1303134836705908 40.047172843883914 0.13671875 45.1171875 C0.13605798271396452 48.307291863965474 0.134776849647551 51.49739617238947 0.1328125 54.6875 C0.13483673095703352 56.21866455078123 0.13686096191406705 57.74982910156251 0.138946533203125 59.327392578125 C0.11494160274145315 70 0.11494160274145315 70 -1 70 C-1.102871188024892 64.89137798336753 -1.139566634730869 59.79644848001499 -1.1328125 54.6875 C-1.1337692260742074 53.13377685546874 -1.1347259521484432 51.58005371093748 -1.135711669921875 49.979248046875 C-1.1363942661699014 46.683756100288804 -1.1345344914210784 43.38826282484024 -1.13037109375 40.0927734375 C-1.1250239996134042 35.02275599708207 -1.1303134836705908 29.952827156116143 -1.13671875 24.8828125 C-1.1360579827139645 21.692708136034526 -1.134776849647551 18.50260382761053 -1.1328125 15.3125 C-1.1348367309570335 13.781335449218773 -1.136860961914067 12.250170898437489 -1.138946533203125 10.672607421875 C-1.1149416027414532 0 -1.1149416027414532 0 0 0 Z " fill="#EBE3D3" transform="translate(228,378)"/>
<path d="M0 0 C0.10116121382523602 3.83222480608498 0.12962989973439676 7.66644301991164 0.125 11.5 C0.12757812500001364 13.634687499999984 0.13015624999999886 15.769375000000025 0.1328125 17.96875 C0 23 0 23 -1 23 C-1.101161213825236 19.16777519391502 -1.1296298997343968 15.33355698008836 -1.125 11.5 C-1.1275781250000136 9.365312500000016 -1.1301562499999989 7.230624999999975 -1.1328125 5.03125 C-1 0 -1 0 0 0 Z " fill="#EBE4D3" transform="translate(228,457)"/>
<path d="M0 0 C0.10116121382523602 3.83222480608498 0.12962989973439676 7.66644301991164 0.125 11.5 C0.12757812500001364 13.634687499999984 0.13015624999999886 15.769375000000025 0.1328125 17.96875 C0 23 0 23 -1 23 C-1.101161213825236 19.16777519391502 -1.1296298997343968 15.33355698008836 -1.125 11.5 C-1.1275781250000136 9.365312500000016 -1.1301562499999989 7.230624999999975 -1.1328125 5.03125 C-1 0 -1 0 0 0 Z " fill="#EBE3D2" transform="translate(228,354)"/>
<path d="M0 0 C0.10115537848773215 3.4987860323995505 0.12962995363088226 6.999755055051082 0.125 10.5 C0.12757812500001364 12.449062500000025 0.13015624999999886 14.398124999999993 0.1328125 16.40625 C0 21 0 21 -1 21 C-1.1011553784877322 17.50121396760045 -1.1296299536308823 14.000244944948918 -1.125 10.5 C-1.1275781250000136 8.550937499999975 -1.1301562499999989 6.601875000000007 -1.1328125 4.59375 C-1 0 -1 0 0 0 Z " fill="#ECE4D4" transform="translate(228,485)"/>
<path d="M0 0 C0.1011476068909758 3.1653251097650354 0.12963002542849722 6.333062606909721 0.125 9.5 C0.12757812500001364 11.263437500000009 0.13015624999999886 13.026875000000018 0.1328125 14.84375 C0 19 0 19 -1 19 C-1.1011476068909758 15.834674890234965 -1.1296300254284972 12.66693739309028 -1.125 9.5 C-1.128867187499992 6.854843749999986 -1.128867187499992 6.854843749999986 -1.1328125 4.15625 C-1 0 -1 0 0 0 Z " fill="#EBE4D4" transform="translate(228,541)"/>
<path d="M0 0 C7.5 0.125 7.5 0.125 7.5 1.125 C2.500694299802035 1.2083217616699926 -2.500694299802035 1.2083217616699926 -7.5 1.125 C-7.5 0.125 -7.5 0.125 0 0 Z " fill="#EBE6D7" transform="translate(681.5,280.875)"/>
<path d="M0 0 C0.08332004994545628 4.665922796945438 0.08332004994545628 9.334077203054562 0 14 C-1 14 -1 14 -1.125 7 C-1 0 -1 0 0 0 Z " fill="#E9E1D1" transform="translate(228,338)"/>
<path d="M0 0 C6.5 0.125 6.5 0.125 6.5 1.125 C2.167467726537325 1.2083179283358163 -2.167467726537325 1.2083179283358163 -6.5 1.125 C-6.5 0.125 -6.5 0.125 0 0 Z " fill="#ECE7D7" transform="translate(594.5,280.875)"/>
<path d="M0 0 C6 0.125 6 0.125 6 1.125 C2.0008677730875206 1.2083152547273244 -2.0008677730875206 1.2083152547273244 -6 1.125 C-6 0.125 -6 0.125 0 0 Z " fill="#ECE7D7" transform="translate(578,280.875)"/>
<path d="M0 0 C6 0.125 6 0.125 6 1.125 C2.0008677730875775 1.2083152547273244 -2.0008677730875775 1.2083152547273244 -6 1.125 C-6 0.125 -6 0.125 0 0 Z " fill="#ECE7D7" transform="translate(498,280.875)"/>
<path d="M0 0 C0.08331181962873302 3.6657200636648213 0.08331181962873302 7.334279936335179 0 11 C-1 11 -1 11 -1.125 5.5 C-1 0 -1 0 0 0 Z " fill="#E8E0CF" transform="translate(228,709)"/>
<path d="M0 0 C0.08330120172107058 2.9988432619582 0.08330120172107058 6.0011567380418 0 9 C-1 9 -1 9 -1.125 4.5 C-1 0 -1 0 0 0 Z " fill="#EBE4D4" transform="translate(228,587)"/>
<path d="M0 0 C3 3 3 3 2 6 C0 3 0 3 0 0 Z " fill="#E3D9C9" transform="translate(234,745)"/>
<path d="M0 0 C0.3300000000000125 0 0.6599999999999966 0 1 0 C1 2.3099999999999454 1 4.6200000000000045 1 7 C0.6699999999999875 7 0.3400000000000034 7 0 7 C0 4.690000000000055 0 2.3799999999999955 0 0 Z " fill="#ECE4D4" transform="translate(227,579)"/>
<path d="M0 0 C0.3300000000000125 0 0.6599999999999966 0 1 0 C1 2.3100000000000023 1 4.6200000000000045 1 7 C0.6699999999999875 7 0.3400000000000034 7 0 7 C0 4.689999999999998 0 2.3799999999999955 0 0 Z " fill="#EBE3D3" transform="translate(227,507)"/>
<path d="M0 0 C0.3300000000000125 0 0.6599999999999966 0 1 0 C1 2.3100000000000023 1 4.6200000000000045 1 7 C0.6699999999999875 7 0.3400000000000034 7 0 7 C0 4.689999999999998 0 2.3799999999999955 0 0 Z " fill="#EBE4D3" transform="translate(227,449)"/>
<path d="M0 0 C2.3099999999999454 0 4.6200000000000045 0 7 0 C7 0.3299999999999841 7 0.660000000000025 7 1 C4.690000000000055 1 2.3799999999999955 1 0 1 C0 0.6700000000000159 0 0.339999999999975 0 0 Z " fill="#EAE3D3" transform="translate(722,281)"/>
<path d="M0 0 C2.3099999999999454 0 4.6200000000000045 0 7 0 C7 0.3299999999999841 7 0.660000000000025 7 1 C4.690000000000055 1 2.3799999999999955 1 0 1 C0 0.6700000000000159 0 0.339999999999975 0 0 Z " fill="#ECE7D6" transform="translate(666,281)"/>
<path d="M0 0 C2.3099999999999454 0 4.6200000000000045 0 7 0 C7 0.3299999999999841 7 0.660000000000025 7 1 C4.690000000000055 1 2.3799999999999955 1 0 1 C0 0.6700000000000159 0 0.339999999999975 0 0 Z " fill="#ECE7D7" transform="translate(658,281)"/>
<path d="M0 0 C2.3099999999999454 0 4.6200000000000045 0 7 0 C7 0.3299999999999841 7 0.660000000000025 7 1 C4.690000000000055 1 2.3799999999999955 1 0 1 C0 0.6700000000000159 0 0.339999999999975 0 0 Z " fill="#EDE8D7" transform="translate(650,281)"/>
<path d="M0 0 C2.3099999999999454 0 4.6200000000000045 0 7 0 C7 0.3299999999999841 7 0.660000000000025 7 1 C4.690000000000055 1 2.3799999999999955 1 0 1 C0 0.6700000000000159 0 0.339999999999975 0 0 Z " fill="#ECE7D7" transform="translate(634,281)"/>
<path d="M0 0 C2.3099999999999454 0 4.6200000000000045 0 7 0 C7 0.3299999999999841 7 0.660000000000025 7 1 C4.690000000000055 1 2.3799999999999955 1 0 1 C0 0.6700000000000159 0 0.339999999999975 0 0 Z " fill="#ECE7D7" transform="translate(610,281)"/>
<path d="M0 0 C2.3099999999999454 0 4.6200000000000045 0 7 0 C7 0.3299999999999841 7 0.660000000000025 7 1 C4.690000000000055 1 2.3799999999999955 1 0 1 C0 0.6700000000000159 0 0.339999999999975 0 0 Z " fill="#EDE8D8" transform="translate(546,281)"/>
<path d="M0 0 C2.3100000000000023 0 4.6200000000000045 0 7 0 C7 0.3299999999999841 7 0.660000000000025 7 1 C4.689999999999998 1 2.3799999999999955 1 0 1 C0 0.6700000000000159 0 0.339999999999975 0 0 Z " fill="#EBE5D6" transform="translate(386,281)"/>
<path d="M0 0 C2.3100000000000023 0 4.6200000000000045 0 7 0 C7 0.3299999999999841 7 0.660000000000025 7 1 C4.689999999999998 1 2.3799999999999955 1 0 1 C0 0.6700000000000159 0 0.339999999999975 0 0 Z " fill="#E9E5D6" transform="translate(369,281)"/>
<path d="M0 0 C2.3100000000000023 0 4.6200000000000045 0 7 0 C7 0.3299999999999841 7 0.660000000000025 7 1 C4.689999999999998 1 2.3799999999999955 1 0 1 C0 0.6700000000000159 0 0.339999999999975 0 0 Z " fill="#EAE5D5" transform="translate(314,281)"/>
<path d="M0 0 C2.4750000000000227 0.49500000000000455 2.4750000000000227 0.49500000000000455 5 1 C1 2 1 2 0 0 Z " fill="#ED917F" transform="translate(499,878)"/>
<path d="M0 0 C0.3300000000000125 0 0.6599999999999966 0 1 0 C1 1.9800000000000182 1 3.9600000000000364 1 6 C0.6699999999999875 6 0.3400000000000034 6 0 6 C0 4.019999999999982 0 2.0399999999999636 0 0 Z " fill="#EBE5D4" transform="translate(227,611)"/>
<path d="M0 0 C1.9800000000000182 0 3.9600000000000364 0 6 0 C6 0.3299999999999841 6 0.660000000000025 6 1 C4.019999999999982 1 2.0399999999999636 1 0 1 C0 0.6700000000000159 0 0.339999999999975 0 0 Z " fill="#EAE4D4" transform="translate(714,281)"/>
<path d="M0 0 C1.9800000000000182 0 3.9600000000000364 0 6 0 C6 0.3299999999999841 6 0.660000000000025 6 1 C4.019999999999982 1 2.0399999999999636 1 0 1 C0 0.6700000000000159 0 0.339999999999975 0 0 Z " fill="#EAE5D7" transform="translate(690,281)"/>
<path d="M0 0 C1.9800000000000182 0 3.9600000000000364 0 6 0 C6 0.3299999999999841 6 0.660000000000025 6 1 C4.019999999999982 1 2.0399999999999636 1 0 1 C0 0.6700000000000159 0 0.339999999999975 0 0 Z " fill="#EDE7D7" transform="translate(626,281)"/>
<path d="M0 0 C1.9800000000000182 0 3.9600000000000364 0 6 0 C6 0.3299999999999841 6 0.660000000000025 6 1 C4.019999999999982 1 2.0399999999999636 1 0 1 C0 0.6700000000000159 0 0.339999999999975 0 0 Z " fill="#EDE7D8" transform="translate(618,281)"/>
<path d="M0 0 C1.9800000000000182 0 3.9600000000000364 0 6 0 C6 0.3299999999999841 6 0.660000000000025 6 1 C4.019999999999982 1 2.0399999999999636 1 0 1 C0 0.6700000000000159 0 0.339999999999975 0 0 Z " fill="#ECE6D7" transform="translate(530,281)"/>
<path d="M0 0 C1.9800000000000182 0 3.9600000000000364 0 6 0 C6 0.3299999999999841 6 0.660000000000025 6 1 C4.019999999999982 1 2.0399999999999636 1 0 1 C0 0.6700000000000159 0 0.339999999999975 0 0 Z " fill="#EEE8D8" transform="translate(522,281)"/>
<path d="M0 0 C1.9800000000000182 0 3.9600000000000364 0 6 0 C6 0.3299999999999841 6 0.660000000000025 6 1 C4.019999999999982 1 2.0399999999999636 1 0 1 C0 0.6700000000000159 0 0.339999999999975 0 0 Z " fill="#ECE7D6" transform="translate(514,281)"/>
<path d="M0 0 C1.9800000000000182 0 3.9599999999999795 0 6 0 C6 0.3299999999999841 6 0.660000000000025 6 1 C4.019999999999982 1 2.0400000000000205 1 0 1 C0 0.6700000000000159 0 0.339999999999975 0 0 Z " fill="#EDE8D8" transform="translate(506,281)"/>
<path d="M0 0 C1.9800000000000182 0 3.9599999999999795 0 6 0 C6 0.3299999999999841 6 0.660000000000025 6 1 C4.019999999999982 1 2.0400000000000205 1 0 1 C0 0.6700000000000159 0 0.339999999999975 0 0 Z " fill="#EAE6D7" transform="translate(426,281)"/>
<path d="M0 0 C1.9800000000000182 0 3.9599999999999795 0 6 0 C6 0.3299999999999841 6 0.660000000000025 6 1 C4.019999999999982 1 2.0400000000000205 1 0 1 C0 0.6700000000000159 0 0.339999999999975 0 0 Z " fill="#ECE6D6" transform="translate(346,281)"/>
<path d="M0 0 C1.9800000000000182 0 3.9599999999999795 0 6 0 C6 0.3299999999999841 6 0.660000000000025 6 1 C4.019999999999982 1 2.0400000000000205 1 0 1 C0 0.6700000000000159 0 0.339999999999975 0 0 Z " fill="#ECE8D8" transform="translate(338,281)"/>
<path d="M0 0 C1.9800000000000182 0 3.9599999999999795 0 6 0 C6 0.3299999999999841 6 0.660000000000025 6 1 C4.019999999999982 1 2.0400000000000205 1 0 1 C0 0.6700000000000159 0 0.339999999999975 0 0 Z " fill="#EAE4D4" transform="translate(290,281)"/>
<path d="M0 0 C0.3300000000000409 0 0.6599999999999682 0 1 0 C1 1.9799999999999898 1 3.960000000000008 1 6 C0.6699999999999591 6 0.34000000000003183 6 0 6 C0 4.02000000000001 0 2.039999999999992 0 0 Z " fill="#478B99" transform="translate(719,200)"/>
<path d="M0 0 C0.9900000000000091 0 1.9800000000000182 0 3 0 C3 0.6599999999999682 3 1.32000000000005 3 2 C0 1 0 1 0 0 Z " fill="#EB8C78" transform="translate(369,876)"/>
<path d="M0 0 C0.3299999999999841 1.32000000000005 0.660000000000025 2.6399999999999864 1 4 C-1 3 -1 3 0 0 Z " fill="#F89D8A" transform="translate(473,840)"/>
<path d="M0 0 C0.3300000000000125 0 0.6599999999999966 0 1 0 C1 1.6499999999999773 1 3.2999999999999545 1 5 C0.6699999999999875 5 0.3400000000000034 5 0 5 C0 3.3500000000000227 0 1.7000000000000455 0 0 Z " fill="#EBE3D3" transform="translate(227,531)"/>
<path d="M0 0 C1.6499999999999773 0 3.2999999999999545 0 5 0 C5 0.3299999999999841 5 0.660000000000025 5 1 C3.3500000000000227 1 1.7000000000000455 1 0 1 C0 0.6700000000000159 0 0.339999999999975 0 0 Z " fill="#EBE6D6" transform="translate(700,281)"/>
<path d="M0 0 C1.6499999999999773 0 3.2999999999999545 0 5 0 C5 0.3299999999999841 5 0.660000000000025 5 1 C3.3500000000000227 1 1.7000000000000455 1 0 1 C0 0.6700000000000159 0 0.339999999999975 0 0 Z " fill="#EDE7D7" transform="translate(540,281)"/>
<path d="M0 0 C1.6499999999999773 0 3.3000000000000114 0 5 0 C5 0.3299999999999841 5 0.660000000000025 5 1 C3.3500000000000227 1 1.6999999999999886 1 0 1 C0 0.6700000000000159 0 0.339999999999975 0 0 Z " fill="#ECE7D7" transform="translate(476,281)"/>
<path d="M0 0 C1.6499999999999773 0 3.3000000000000114 0 5 0 C5 0.3299999999999841 5 0.660000000000025 5 1 C3.3500000000000227 1 1.6999999999999886 1 0 1 C0 0.6700000000000159 0 0.339999999999975 0 0 Z " fill="#ECE7D7" transform="translate(460,281)"/>
<path d="M0 0 C1.6499999999999773 0 3.3000000000000114 0 5 0 C5 0.3299999999999841 5 0.660000000000025 5 1 C3.3500000000000227 1 1.6999999999999886 1 0 1 C0 0.6700000000000159 0 0.339999999999975 0 0 Z " fill="#ECE7D6" transform="translate(452,281)"/>
<path d="M0 0 C1.6499999999999773 0 3.3000000000000114 0 5 0 C5 0.3299999999999841 5 0.660000000000025 5 1 C3.3500000000000227 1 1.6999999999999886 1 0 1 C0 0.6700000000000159 0 0.339999999999975 0 0 Z " fill="#EBE6D7" transform="translate(396,281)"/>
<path d="M0 0 C1.6499999999999773 0 3.3000000000000114 0 5 0 C5 0.3299999999999841 5 0.660000000000025 5 1 C3.3500000000000227 1 1.6999999999999886 1 0 1 C0 0.6700000000000159 0 0.339999999999975 0 0 Z " fill="#EBE6D6" transform="translate(300,281)"/>
<path d="M0 0 C0.3300000000000409 0 0.6599999999999682 0 1 0 C1 1.6500000000000057 1 3.3000000000000114 1 5 C0.6699999999999591 5 0.34000000000003183 5 0 5 C0 3.3499999999999943 0 1.6999999999999886 0 0 Z " fill="#458A98" transform="translate(719,192)"/>
<path d="M0 0 C0.3300000000000409 0 0.6599999999999682 0 1 0 C1 1.6500000000000057 1 3.3000000000000114 1 5 C0.6699999999999591 5 0.34000000000003183 5 0 5 C0 3.3499999999999943 0 1.6999999999999886 0 0 Z " fill="#448896" transform="translate(719,184)"/>
<path d="M0 0 C0 3 0 3 0 3 Z " fill="#F59A86" transform="translate(474,847)"/>
<path d="M0 0 C1 4 1 4 1 4 Z " fill="#EF9A88" transform="translate(671,842)"/>
<path d="M0 0 C0.9900000000000091 0.49500000000000455 0.9900000000000091 0.49500000000000455 2 1 C1.6699999999999875 1.6599999999999682 1.3400000000000034 2.32000000000005 1 3 C0.6699999999999875 2.009999999999991 0.3400000000000034 1.0199999999999818 0 0 Z " fill="#E5DCCB" transform="translate(232,742)"/>
<path d="M0 0 C1 4 1 4 1 4 Z " fill="#EBE3D3" transform="translate(227,525)"/>
<path d="M0 0 C0.9900000000000091 0.3299999999999841 1.9800000000000182 0.660000000000025 3 1 C2.009999999999991 1 1.0199999999999818 1 0 1 C0 0.6700000000000159 0 0.339999999999975 0 0 Z " fill="#E2DBCA" transform="translate(765,288)"/>
<path d="M0 0 C4 1 4 1 4 1 Z " fill="#E9E1D2" transform="translate(732,281)"/>
<path d="M0 0 C4 1 4 1 4 1 Z " fill="#EAE6D5" transform="translate(708,281)"/>
<path d="M0 0 C4 1 4 1 4 1 Z " fill="#EDE7D8" transform="translate(644,281)"/>
<path d="M0 0 C4 1 4 1 4 1 Z " fill="#EBE6D6" transform="translate(564,281)"/>
<path d="M0 0 C4 1 4 1 4 1 Z " fill="#ECE7D6" transform="translate(484,281)"/>
<path d="M0 0 C4 1 4 1 4 1 Z " fill="#EBE6D7" transform="translate(468,281)"/>
<path d="M0 0 C4 1 4 1 4 1 Z " fill="#EAE5D5" transform="translate(444,281)"/>
<path d="M0 0 C4 1 4 1 4 1 Z " fill="#EBE6D6" transform="translate(436,281)"/>
<path d="M0 0 C4 1 4 1 4 1 Z " fill="#EBE7D6" transform="translate(404,281)"/>
<path d="M0 0 C4 1 4 1 4 1 Z " fill="#EBE6D7" transform="translate(380,281)"/>
<path d="M0 0 C4 1 4 1 4 1 Z " fill="#EBE7D6" transform="translate(364,281)"/>
<path d="M0 0 C4 1 4 1 4 1 Z " fill="#EDE8D9" transform="translate(356,281)"/>
<path d="M0 0 C4 1 4 1 4 1 Z " fill="#EDE7D7" transform="translate(332,281)"/>
<path d="M0 0 C4 1 4 1 4 1 Z " fill="#EBE7D7" transform="translate(324,281)"/>
<path d="M0 0 C4 1 4 1 4 1 Z " fill="#EBE5D6" transform="translate(308,281)"/>
<path d="M0 0 C4 1 4 1 4 1 Z " fill="#E9E2D3" transform="translate(284,281)"/>
<path d="M0 0 C0 3 0 3 0 3 Z " fill="#59949F" transform="translate(718,223)"/>
<path d="M0 0 C1 4 1 4 1 4 Z " fill="#4A8E9C" transform="translate(719,209)"/>
<path d="M0 0 C1 4 1 4 1 4 Z " fill="#448694" transform="translate(719,168)"/>
<path d="M0 0 C4 1 4 1 4 1 Z " fill="#438591" transform="translate(700,145)"/>
<path d="M0 0 C4 1 4 1 4 1 Z " fill="#44848E" transform="translate(319,145)"/>
<path d="M0 0 C4 1 4 1 4 1 Z " fill="#418794" transform="translate(400,144)"/>
<path d="M0 0 C3 1 3 1 3 1 Z " fill="#E9927F" transform="translate(623,879)"/>
<path d="M0 0 C0.6599999999999682 0.6599999999999682 1.32000000000005 1.32000000000005 2 2 C1.3400000000000318 2 0.67999999999995 2 0 2 C0 1.3400000000000318 0 0.67999999999995 0 0 Z " fill="#EC907C" transform="translate(620,878)"/>
<path d="M0 0 C3 1 3 1 3 1 Z " fill="#EC9683" transform="translate(518,879)"/>
<path d="M0 0 C0.6599999999999682 0 1.32000000000005 0 2 0 C1.669999999999959 0.6599999999999682 1.3400000000000318 1.32000000000005 1 2 C0.6699999999999591 1.3400000000000318 0.34000000000003183 0.67999999999995 0 0 Z " fill="#E9907C" transform="translate(644,878)"/>
<path d="M0 0 C0.3300000000000409 0.6599999999999682 0.6599999999999682 1.32000000000005 1 2 C0.34000000000003183 1.669999999999959 -0.32000000000005 1.3400000000000318 -1 1 C-0.6699999999999591 0.6699999999999591 -0.34000000000003183 0.34000000000003183 0 0 Z " fill="#ED907D" transform="translate(524,878)"/>
<path d="M0 0 C0.3299999999999841 0.6599999999999682 0.660000000000025 1.32000000000005 1 2 C0.339999999999975 1.669999999999959 -0.3199999999999932 1.3400000000000318 -1 1 C-0.6700000000000159 0.6699999999999591 -0.339999999999975 0.34000000000003183 0 0 Z " fill="#E8917E" transform="translate(361,870)"/>
<path d="M0 0 C0.6599999999999682 0.6599999999999682 1.32000000000005 1.32000000000005 2 2 C1.3400000000000318 2 0.67999999999995 2 0 2 C0 1.3400000000000318 0 0.67999999999995 0 0 Z " fill="#F09885" transform="translate(600,862)"/>
<path d="M0 0 C0.660000000000025 0.6599999999999682 1.3199999999999932 1.32000000000005 2 2 C1.339999999999975 2 0.6800000000000068 2 0 2 C0 1.3400000000000318 0 0.67999999999995 0 0 Z " fill="#E8DFCD" transform="translate(256,766)"/>
<path d="" fill="#EBE4D4" transform="translate(0,0)"/>
<path d="M0 0 C3 1 3 1 3 1 Z " fill="#E6DECF" transform="translate(271,282)"/>
<path d="M0 0 C3 1 3 1 3 1 Z " fill="#E4DDCE" transform="translate(277,281)"/>
<path d="M0 0 C3 1 3 1 3 1 Z " fill="#6DA3AC" transform="translate(321,236)"/>
<path d="" fill="#438795" transform="translate(0,0)"/>
<path d="M0 0 C3 1 3 1 3 1 Z " fill="#3F8591" transform="translate(384,144)"/>
<path d="M0 0 C2 1 2 1 2 1 Z " fill="#EB907D" transform="translate(496,879)"/>
<path d="" fill="#EA917B" transform="translate(0,0)"/>
<path d="M0 0 C2 1 2 1 2 1 Z " fill="#E9927D" transform="translate(379,879)"/>
<path d="" fill="#EC917D" transform="translate(0,0)"/>
<path d="M0 0 C2 1 2 1 2 1 Z " fill="#EC8F7C" transform="translate(401,877)"/>
<path d="M0 0 C2 1 2 1 2 1 Z " fill="#ED927F" transform="translate(608,871)"/>
<path d="" fill="#E9917F" transform="translate(0,0)"/>
<path d="" fill="#EA917F" transform="translate(0,0)"/>
<path d="" fill="#ED8F7E" transform="translate(0,0)"/>
<path d="" fill="#F69C87" transform="translate(0,0)"/>
<path d="" fill="#F8A08E" transform="translate(0,0)"/>
<path d="M0 0 C2 1 2 1 2 1 Z " fill="#F5AD9D" transform="translate(495,808)"/>
<path d="M0 0 C2 1 2 1 2 1 Z " fill="#E8DBCB" transform="translate(271,771)"/>
<path d="" fill="#E5DBCC" transform="translate(0,0)"/>
<path d="" fill="#E2D8C7" transform="translate(0,0)"/>
<path d="" fill="#E3DCCB" transform="translate(0,0)"/>
<path d="" fill="#E7E0CF" transform="translate(0,0)"/>
<path d="" fill="#E6DFCE" transform="translate(0,0)"/>
<path d="" fill="#E5DECD" transform="translate(0,0)"/>
<path d="" fill="#E2DAC9" transform="translate(0,0)"/>
<path d="M0 0 C2 1 2 1 2 1 Z " fill="#E5DCCC" transform="translate(248,292)"/>
<path d="M0 0 C2 1 2 1 2 1 Z " fill="#E3DBCB" transform="translate(756,284)"/>
<path d="M0 0 C2 1 2 1 2 1 Z " fill="#E4DECE" transform="translate(748,282)"/>
<path d="M0 0 C2 1 2 1 2 1 Z " fill="#E5DECE" transform="translate(742,281)"/>
<path d="M0 0 C2 1 2 1 2 1 Z " fill="#EAE4D5" transform="translate(433,281)"/>
<path d="" fill="#5794A0" transform="translate(0,0)"/>
<path d="" fill="#438693" transform="translate(0,0)"/>
<path d="M0 0 C2 1 2 1 2 1 Z " fill="#438893" transform="translate(642,144)"/>
<path d="M0 0 C2 1 2 1 2 1 Z " fill="#428693" transform="translate(552,144)"/>
<path d="M0 0 C2 1 2 1 2 1 Z " fill="#408693" transform="translate(521,144)"/>
<path d="M0 0 C2 1 2 1 2 1 Z " fill="#418592" transform="translate(505,144)"/>
<path d="M0 0 C2 1 2 1 2 1 Z " fill="#418694" transform="translate(481,144)"/>
<path d="M0 0 C2 1 2 1 2 1 Z " fill="#468591" transform="translate(326,144)"/>
<path d="" fill="#6E493D" transform="translate(0,0)"/>
<path d="" fill="#E8907B" transform="translate(0,0)"/>
<path d="" fill="#EB917D" transform="translate(0,0)"/>
<path d="" fill="#EA907C" transform="translate(0,0)"/>
<path d="" fill="#E88B76" transform="translate(0,0)"/>
<path d="" fill="#ED8E7D" transform="translate(0,0)"/>
<path d="" fill="#E68E7A" transform="translate(0,0)"/>
<path d="" fill="#EF917C" transform="translate(0,0)"/>
<path d="" fill="#E98C78" transform="translate(0,0)"/>
<path d="" fill="#E7927D" transform="translate(0,0)"/>
<path d="" fill="#EC917F" transform="translate(0,0)"/>
<path d="" fill="#E7927E" transform="translate(0,0)"/>
<path d="" fill="#F19581" transform="translate(0,0)"/>
<path d="" fill="#F19280" transform="translate(0,0)"/>
<path d="" fill="#E9917E" transform="translate(0,0)"/>
<path d="" fill="#E79684" transform="translate(0,0)"/>
<path d="" fill="#EF9683" transform="translate(0,0)"/>
<path d="" fill="#F29581" transform="translate(0,0)"/>
<path d="" fill="#F0957F" transform="translate(0,0)"/>
<path d="" fill="#E9917F" transform="translate(0,0)"/>
<path d="" fill="#E89280" transform="translate(0,0)"/>
<path d="" fill="#F19683" transform="translate(0,0)"/>
<path d="" fill="#F29A86" transform="translate(0,0)"/>
<path d="" fill="#F09784" transform="translate(0,0)"/>
<path d="" fill="#F49886" transform="translate(0,0)"/>
<path d="" fill="#F19F89" transform="translate(0,0)"/>
<path d="" fill="#F59885" transform="translate(0,0)"/>
<path d="" fill="#EA9887" transform="translate(0,0)"/>
<path d="" fill="#ED9987" transform="translate(0,0)"/>
<path d="" fill="#EE937F" transform="translate(0,0)"/>
<path d="" fill="#F89E8A" transform="translate(0,0)"/>
<path d="" fill="#F6A18F" transform="translate(0,0)"/>
<path d="" fill="#F8A08D" transform="translate(0,0)"/>
<path d="" fill="#EF9985" transform="translate(0,0)"/>
<path d="" fill="#F99F8A" transform="translate(0,0)"/>
<path d="" fill="#F89F8F" transform="translate(0,0)"/>
<path d="" fill="#F9A38E" transform="translate(0,0)"/>
<path d="" fill="#F89F8F" transform="translate(0,0)"/>
<path d="" fill="#F39E8A" transform="translate(0,0)"/>
<path d="" fill="#F8A18D" transform="translate(0,0)"/>
<path d="" fill="#F9A08D" transform="translate(0,0)"/>
<path d="" fill="#F3A28F" transform="translate(0,0)"/>
<path d="" fill="#F7A28E" transform="translate(0,0)"/>
<path d="" fill="#FAA793" transform="translate(0,0)"/>
<path d="" fill="#F6A795" transform="translate(0,0)"/>
<path d="" fill="#F8A996" transform="translate(0,0)"/>
<path d="" fill="#F3A495" transform="translate(0,0)"/>
<path d="" fill="#FAAB98" transform="translate(0,0)"/>
<path d="" fill="#F9AC98" transform="translate(0,0)"/>
<path d="" fill="#FBAB98" transform="translate(0,0)"/>
<path d="" fill="#FBAB95" transform="translate(0,0)"/>
<path d="" fill="#F9AE9A" transform="translate(0,0)"/>
<path d="" fill="#FAAE9C" transform="translate(0,0)"/>
<path d="" fill="#F7AB96" transform="translate(0,0)"/>
<path d="" fill="#FBAB99" transform="translate(0,0)"/>
<path d="" fill="#F8AD9A" transform="translate(0,0)"/>
<path d="" fill="#FAAC96" transform="translate(0,0)"/>
<path d="" fill="#F7AC97" transform="translate(0,0)"/>
<path d="" fill="#FAAA99" transform="translate(0,0)"/>
<path d="" fill="#F9AB98" transform="translate(0,0)"/>
<path d="" fill="#F6AC98" transform="translate(0,0)"/>
<path d="" fill="#FBB29B" transform="translate(0,0)"/>
<path d="" fill="#F8B19E" transform="translate(0,0)"/>
<path d="" fill="#F6B39D" transform="translate(0,0)"/>
<path d="" fill="#FAB2A0" transform="translate(0,0)"/>
<path d="" fill="#FBB6A1" transform="translate(0,0)"/>
<path d="" fill="#F9B19D" transform="translate(0,0)"/>
<path d="" fill="#EEE0D0" transform="translate(0,0)"/>
<path d="" fill="#E8DECA" transform="translate(0,0)"/>
<path d="" fill="#F1E3D2" transform="translate(0,0)"/>
<path d="" fill="#F4E3D3" transform="translate(0,0)"/>
<path d="" fill="#F0E2D2" transform="translate(0,0)"/>
<path d="" fill="#EDE4D1" transform="translate(0,0)"/>
<path d="" fill="#ECE1D0" transform="translate(0,0)"/>
<path d="" fill="#E8DFCB" transform="translate(0,0)"/>
<path d="" fill="#E6D9C9" transform="translate(0,0)"/>
<path d="" fill="#E4D8C8" transform="translate(0,0)"/>
<path d="" fill="#E2D7C6" transform="translate(0,0)"/>
<path d="" fill="#E5D9C7" transform="translate(0,0)"/>
<path d="" fill="#E3D8C7" transform="translate(0,0)"/>
<path d="" fill="#E7DCCA" transform="translate(0,0)"/>
<path d="" fill="#E8DBCA" transform="translate(0,0)"/>
<path d="" fill="#E2D9C7" transform="translate(0,0)"/>
<path d="" fill="#E4D9C9" transform="translate(0,0)"/>
<path d="" fill="#E1DACA" transform="translate(0,0)"/>
<path d="" fill="#E3D8C7" transform="translate(0,0)"/>
<path d="" fill="#E7DECC" transform="translate(0,0)"/>
<path d="" fill="#E5DECD" transform="translate(0,0)"/>
<path d="" fill="#E7DECE" transform="translate(0,0)"/>
<path d="" fill="#E8E2CF" transform="translate(0,0)"/>
<path d="" fill="#EBE4D5" transform="translate(0,0)"/>
<path d="" fill="#ECE5D5" transform="translate(0,0)"/>
<path d="" fill="#EBE3D3" transform="translate(0,0)"/>
<path d="" fill="#EDE4D3" transform="translate(0,0)"/>
<path d="" fill="#ECE6D5" transform="translate(0,0)"/>
<path d="" fill="#ECE3D3" transform="translate(0,0)"/>
<path d="" fill="#E6DDCD" transform="translate(0,0)"/>
<path d="" fill="#E5DDCC" transform="translate(0,0)"/>
<path d="" fill="#E0D8C9" transform="translate(0,0)"/>
<path d="" fill="#E5DCCB" transform="translate(0,0)"/>
<path d="" fill="#E6DFCD" transform="translate(0,0)"/>
<path d="" fill="#E2D8C9" transform="translate(0,0)"/>
<path d="" fill="#E1D8CB" transform="translate(0,0)"/>
<path d="" fill="#E3DACB" transform="translate(0,0)"/>
<path d="" fill="#E3DBCB" transform="translate(0,0)"/>
<path d="" fill="#E3DCCD" transform="translate(0,0)"/>
<path d="" fill="#E2D9CC" transform="translate(0,0)"/>
<path d="" fill="#E3DCCD" transform="translate(0,0)"/>
<path d="" fill="#DFD8C8" transform="translate(0,0)"/>
<path d="" fill="#E2DCCE" transform="translate(0,0)"/>
<path d="" fill="#E7DFD1" transform="translate(0,0)"/>
<path d="" fill="#E6E0D0" transform="translate(0,0)"/>
<path d="" fill="#E8E2D1" transform="translate(0,0)"/>
<path d="" fill="#EAE5D4" transform="translate(0,0)"/>
<path d="" fill="#EAE5D7" transform="translate(0,0)"/>
<path d="" fill="#ECE7D6" transform="translate(0,0)"/>
<path d="" fill="#EEE7D8" transform="translate(0,0)"/>
<path d="" fill="#EDE9D6" transform="translate(0,0)"/>
<path d="" fill="#ECE5D7" transform="translate(0,0)"/>
<path d="" fill="#EDE5D6" transform="translate(0,0)"/>
<path d="" fill="#ECE7D7" transform="translate(0,0)"/>
<path d="" fill="#ECE5D6" transform="translate(0,0)"/>
<path d="" fill="#EBE7D6" transform="translate(0,0)"/>
<path d="" fill="#ECE5D7" transform="translate(0,0)"/>
<path d="" fill="#ECE6D6" transform="translate(0,0)"/>
<path d="" fill="#ECE6D6" transform="translate(0,0)"/>
<path d="" fill="#E9E4D6" transform="translate(0,0)"/>
<path d="" fill="#ECE7D7" transform="translate(0,0)"/>
<path d="" fill="#EAE7D6" transform="translate(0,0)"/>
<path d="" fill="#EBE7D5" transform="translate(0,0)"/>
<path d="" fill="#EBE5D5" transform="translate(0,0)"/>
<path d="" fill="#EAE5D5" transform="translate(0,0)"/>
<path d="" fill="#ECE7D8" transform="translate(0,0)"/>
<path d="" fill="#EBE6D7" transform="translate(0,0)"/>
<path d="" fill="#EAE6D6" transform="translate(0,0)"/>
<path d="" fill="#EBE5D5" transform="translate(0,0)"/>
<path d="" fill="#71A7B2" transform="translate(0,0)"/>
<path d="" fill="#6FA5B0" transform="translate(0,0)"/>
<path d="" fill="#6FA7B0" transform="translate(0,0)"/>
<path d="" fill="#71A8B0" transform="translate(0,0)"/>
<path d="" fill="#6EA8B1" transform="translate(0,0)"/>
<path d="" fill="#6FA7B1" transform="translate(0,0)"/>
<path d="" fill="#6EA7B1" transform="translate(0,0)"/>
<path d="" fill="#6DA9B3" transform="translate(0,0)"/>
<path d="" fill="#6FA8B0" transform="translate(0,0)"/>
<path d="" fill="#70A6B1" transform="translate(0,0)"/>
<path d="" fill="#6DA1AB" transform="translate(0,0)"/>
<path d="" fill="#6EA5AE" transform="translate(0,0)"/>
<path d="" fill="#74A7B1" transform="translate(0,0)"/>
<path d="" fill="#72A7B1" transform="translate(0,0)"/>
<path d="" fill="#74A8B0" transform="translate(0,0)"/>
<path d="" fill="#73A9B3" transform="translate(0,0)"/>
<path d="" fill="#70A4AF" transform="translate(0,0)"/>
<path d="" fill="#74A8B1" transform="translate(0,0)"/>
<path d="" fill="#6EA1A9" transform="translate(0,0)"/>
<path d="" fill="#6DA0AA" transform="translate(0,0)"/>
<path d="" fill="#669CA5" transform="translate(0,0)"/>
<path d="" fill="#5C96A0" transform="translate(0,0)"/>
<path d="" fill="#5A97A2" transform="translate(0,0)"/>
<path d="" fill="#5D94A0" transform="translate(0,0)"/>
<path d="" fill="#4C8E99" transform="translate(0,0)"/>
<path d="" fill="#448896" transform="translate(0,0)"/>
<path d="" fill="#4B8E99" transform="translate(0,0)"/>
<path d="" fill="#438794" transform="translate(0,0)"/>
<path d="" fill="#4A8894" transform="translate(0,0)"/>
<path d="" fill="#498794" transform="translate(0,0)"/>
<path d="" fill="#49838C" transform="translate(0,0)"/>
<path d="" fill="#42818D" transform="translate(0,0)"/>
<path d="" fill="#47818B" transform="translate(0,0)"/>
<path d="" fill="#44838E" transform="translate(0,0)"/>
<path d="" fill="#41848E" transform="translate(0,0)"/>
<path d="" fill="#48909B" transform="translate(0,0)"/>
<path d="" fill="#47919B" transform="translate(0,0)"/>
<path d="" fill="#488A95" transform="translate(0,0)"/>
<path d="" fill="#418492" transform="translate(0,0)"/>
<path d="" fill="#428691" transform="translate(0,0)"/>
<path d="" fill="#408692" transform="translate(0,0)"/>
<path d="" fill="#428693" transform="translate(0,0)"/>
<path d="" fill="#408893" transform="translate(0,0)"/>
<path d="" fill="#418793" transform="translate(0,0)"/>
<path d="" fill="#418794" transform="translate(0,0)"/>
<path d="" fill="#418794" transform="translate(0,0)"/>
<path d="" fill="#418693" transform="translate(0,0)"/>
<path d="" fill="#428793" transform="translate(0,0)"/>
<path d="" fill="#418792" transform="translate(0,0)"/>
<path d="" fill="#3F8593" transform="translate(0,0)"/>
<path d="" fill="#3F8591" transform="translate(0,0)"/>
<path d="" fill="#428793" transform="translate(0,0)"/>
<path d="" fill="#428793" transform="translate(0,0)"/>
<path d="" fill="#438894" transform="translate(0,0)"/>
<path d="" fill="#408893" transform="translate(0,0)"/>
<path d="" fill="#408894" transform="translate(0,0)"/>
<path d="" fill="#408693" transform="translate(0,0)"/>
<path d="" fill="#408694" transform="translate(0,0)"/>
<path d="" fill="#418893" transform="translate(0,0)"/>
<path d="" fill="#428692" transform="translate(0,0)"/>
<path d="" fill="#418691" transform="translate(0,0)"/>
<path d="" fill="#458490" transform="translate(0,0)"/>
</svg>
