<?xml version="1.0" encoding="UTF-8"?>
<!-- Generator: visioncortex VTracer 0.6.4 -->
<svg version="1.1" xmlns="http://www.w3.org/2000/svg" width="1024" height="1024">
<path d="M0 0 C337.92 0 675.84 0 1024 0 C1024 337.92 1024 675.84 1024 1024 C686.08 1024 348.16 1024 0 1024 C0 686.08 0 348.16 0 0 Z " fill="#FEFEFE" transform="translate(0,0)"/>
<path d="M0 0 C17.477 15.266 29.203 35.505 31.137 58.969 C31.232 61.51 31.259 64.039 31.242 66.582 C31.237 67.493 31.231 68.404 31.225 69.342 C30.81 92.778 22.384 112.703 5.93 129.457 C5.192 130.219 4.455 130.981 3.695 131.766 C-14.749 149.622 -36.716 153.054 -61.41 152.727 C-79.932 152.354 -96.277 144.593 -110.07 132.457 C-111.306 131.521 -111.306 131.521 -112.566 130.566 C-127.515 117.973 -135.479 97.364 -138.07 78.457 C-140.266 51.018 -132.785 28.289 -115.18 7.191 C-86.11 -23.832 -32.602 -27.002 0 0 Z " fill="#E5E5E7" transform="translate(565.0703125,185.54296875)"/>
<path d="M0 0 C3.817 1.555 6.192 4.036 9 7 C7.827 10.337 6.811 12.774 4 15 C3.34 15 2.68 15 2 15 C2 15.66 2 16.32 2 17 C1.34 17 0.68 17 0 17 C1.386 13.908 2.492 12.508 5 10 C-41.86 9.67 -88.72 9.34 -137 9 C-137 8.34 -137 7.68 -137 7 C-90.14 7 -43.28 7 5 7 C5 6.34 5 5.68 5 5 C4.34 5 3.68 5 3 5 C1.375 2.5 1.375 2.5 0 0 Z " fill="#E1E2E5" transform="translate(798,247)"/>
<path d="M0 0 C0 0.99 0 1.98 0 3 C-0.99 3.99 -1.98 4.98 -3 6 C43.86 6.33 90.72 6.66 139 7 C139 7.66 139 8.32 139 9 C68.71 9.495 68.71 9.495 -3 10 C-1.02 12.97 -1.02 12.97 1 16 C-2.819 14.444 -5.26 12.044 -8 9 C-8 8.34 -8 7.68 -8 7 C-6.25 5.273 -6.25 5.273 -4 3.375 C-3.257 2.743 -2.515 2.112 -1.75 1.461 C-1.173 0.979 -0.595 0.497 0 0 Z " fill="#E1E2E5" transform="translate(224,247)"/>
</svg>
