<?xml version="1.0" encoding="UTF-8"?>
<!-- Generator: visioncortex VTracer 0.6.4 -->
<svg version="1.1" xmlns="http://www.w3.org/2000/svg" width="1024" height="1024">
<path d="M0 0 C337.92 0 675.84 0 1024 0 C1024 337.92 1024 675.84 1024 1024 C686.08 1024 348.16 1024 0 1024 C0 686.08 0 348.16 0 0 Z " fill="#FDFDFD" transform="translate(0,0)"/>
<path d="M0 0 C2.775 1.388 2.957 2.877 4.109 5.738 C4.736 7.282 4.736 7.282 5.375 8.857 C5.829 9.997 6.283 11.138 6.75 12.312 C7.23 13.504 7.709 14.696 8.203 15.924 C20.773 47.24 32.779 78.788 44.436 110.453 C47.224 117.994 50.144 125.471 53.17 132.919 C55.424 138.488 57.521 144.1 59.562 149.75 C68.998 176.896 68.998 176.896 88.938 196.438 C96.593 199.795 104.115 199.434 112 197 C121.177 193.399 128.722 187.319 136.445 181.332 C137.026 180.882 137.607 180.433 138.206 179.969 C139.336 179.092 140.462 178.211 141.585 177.325 C144.279 175.222 146.863 173.376 150 172 C150 171.34 150 170.68 150 170 C151.223 168.766 151.223 168.766 153.062 167.25 C164.419 157.576 175.058 147.099 185.53 136.484 C186.905 135.096 188.294 133.721 189.684 132.348 C191.707 130.297 193.585 128.204 195.438 126 C198.398 122.577 201.479 119.832 205 117 C206.153 115.862 207.304 114.721 208.443 113.568 C210.315 111.682 212.213 109.822 214.109 107.961 C221.516 100.656 228.719 93.457 235.125 85.25 C237.519 82.377 240.207 80.071 243.082 77.695 C245.828 75.268 248.124 72.519 250.457 69.699 C252 68 252 68 255 66 C253.878 71.609 252.439 77.08 250.812 82.562 C250.602 83.272 250.392 83.982 250.176 84.714 C249.165 88.116 248.147 91.515 247.117 94.912 C242.413 110.239 242.413 110.239 239.508 125.977 C238.792 130.237 237.449 134.248 236.104 138.34 C234.098 144.5 232.432 150.729 230.812 157 C230.438 158.451 230.438 158.451 230.056 159.931 C228.999 164.048 227.958 168.169 226.945 172.297 C226.087 175.659 225.117 178.945 224.062 182.25 C222.754 186.436 221.575 190.608 220.562 194.875 C219.447 199.476 218.08 203.955 216.562 208.438 C216.347 209.079 216.131 209.72 215.909 210.38 C214.933 213.272 213.945 216.157 212.93 219.035 C207.203 236.147 200.299 262.826 208.125 280.125 C211.515 285.401 215.82 287.941 221.818 289.585 C226.46 290.467 231.166 290.327 235.875 290.312 C237.374 290.337 237.374 290.337 238.902 290.361 C251.028 290.369 263 288.58 275 287 C276.261 286.834 277.522 286.668 278.822 286.497 C287.103 285.402 295.38 284.282 303.656 283.148 C307.219 282.66 310.783 282.176 314.347 281.693 C329.1 279.691 343.84 277.634 358.543 275.283 C364.745 274.301 370.936 273.525 377.188 272.938 C384.072 272.275 390.676 271.175 397.445 269.719 C401.018 268.996 404.574 268.474 408.188 268 C413.8 267.254 419.133 266.042 424.574 264.488 C427 264 427 264 430 265 C429.074 265.437 429.074 265.437 428.129 265.883 C421.194 269.239 414.987 273.181 408.707 277.621 C404.021 280.931 399.284 284.117 394.438 287.188 C382.734 294.632 371.533 302.818 360.387 311.066 C356.443 313.975 352.437 316.758 348.375 319.5 C342.584 323.469 337.299 327.852 331.996 332.434 C328.797 335.174 325.517 337.767 322.172 340.324 C319.77 342.178 317.418 344.087 315.062 346 C311.859 348.583 308.611 350.968 305.188 353.25 C297.118 358.8 290.065 365.808 283.25 372.812 C280.774 375.351 278.14 377.485 275.312 379.625 C269.341 384.185 265.844 388.348 264.707 395.961 C264.169 404.016 267.184 411.195 271.926 417.602 C279.264 425.586 288.642 430.725 298 436 C298.674 436.385 299.348 436.77 300.042 437.167 C310.344 443.012 321.083 447.752 331.93 452.49 C338.573 455.412 345.061 458.473 351.438 461.938 C360.202 466.696 369.195 470.881 378.256 475.043 C386.025 478.612 393.746 482.266 401.438 486 C408.212 489.288 415.019 492.483 421.902 495.535 C422.567 495.83 423.233 496.126 423.918 496.43 C427.173 497.873 430.432 499.305 433.697 500.725 C434.867 501.24 436.037 501.755 437.242 502.285 C438.282 502.738 439.322 503.19 440.394 503.656 C442.823 504.909 444.156 506.047 446 508 C427.048 508.66 408.107 509.07 389.142 509.13 C386.018 509.141 382.893 509.155 379.769 509.17 C377.656 509.179 375.543 509.189 373.43 509.199 C371.853 509.207 371.853 509.207 370.245 509.214 C364.872 509.238 359.498 509.252 354.125 509.25 C348.799 509.25 343.473 509.273 338.147 509.312 C336.161 509.323 334.176 509.324 332.19 509.317 C312.114 509.246 286.693 511.852 269.91 524.086 C264.771 529.235 261.711 536.049 261.375 543.312 C263.016 569.342 278.869 596.099 290 619 C290.368 619.759 290.735 620.518 291.114 621.299 C295.135 629.57 299.428 637.645 303.938 645.66 C309.343 655.314 314.366 665.17 319.447 674.998 C321.724 679.4 324.012 683.797 326.312 688.188 C326.711 688.949 327.109 689.71 327.519 690.494 C330.725 696.579 334.156 702.514 337.699 708.41 C338.128 709.265 338.558 710.119 339 711 C338.67 711.66 338.34 712.32 338 713 C337.242 712.31 336.484 711.621 335.703 710.91 C331.127 707.101 325.916 704.359 320.75 701.438 C310.949 695.808 301.486 689.858 292.162 683.477 C288.416 680.918 284.647 678.395 280.875 675.875 C280.132 675.378 279.389 674.88 278.623 674.368 C273.662 671.062 268.637 667.879 263.562 664.75 C258.094 661.374 252.842 657.821 247.684 653.98 C244.256 651.451 240.753 649.042 237.244 646.628 C232.762 643.538 228.316 640.399 223.875 637.25 C217.692 632.867 211.456 628.572 205.188 624.312 C199.004 620.104 192.938 615.805 186.988 611.27 C183.334 608.494 179.639 605.775 175.938 603.062 C175.293 602.589 174.649 602.116 173.985 601.628 C171.354 599.7 168.715 597.81 166 596 C165.801 618.101 165.713 640.173 166.875 662.25 C166.934 663.436 166.934 663.436 166.994 664.646 C167.401 672.628 168.074 680.216 170 688 C170.177 690.121 170.305 692.247 170.375 694.375 C170.77 701.332 172.116 707.916 173.716 714.691 C173.895 715.467 174.074 716.243 174.258 717.043 C174.424 717.734 174.591 718.425 174.762 719.137 C175 721 175 721 174 724 C173.432 722.973 172.863 721.945 172.277 720.887 C168.252 713.648 164.18 706.487 159.652 699.547 C158.576 697.887 157.525 696.21 156.504 694.516 C150.784 685.102 143.848 676.605 137 668 C136.548 667.426 136.095 666.852 135.629 666.261 C120.936 647.561 120.936 647.561 100 638 C99.031 637.862 98.061 637.724 97.062 637.582 C81.379 636.352 68.647 646.592 57 656 C55.606 657.073 55.606 657.073 54.184 658.168 C49.856 661.525 46.404 664.697 43 669 C41.861 670.012 40.694 670.992 39.5 671.938 C33.813 676.798 29.176 682.577 24.409 688.314 C23.209 689.75 21.986 691.166 20.758 692.578 C-3.041 720.418 -23.716 755.141 -35 790 C-35.33 790 -35.66 790 -36 790 C-35.998 789.115 -35.996 788.229 -35.993 787.317 C-35.934 762.652 -35.928 737.986 -35.994 713.321 C-36 711.16 -36.004 708.999 -36.009 706.837 C-35.687 672.541 -35.687 672.541 -42 639 C-42.359 637.811 -42.359 637.811 -42.725 636.597 C-46.19 625.562 -50.899 614.471 -61 608 C-73.873 601.551 -88.436 605.864 -101.348 610.098 C-104.607 611.313 -107.802 612.63 -111 614 C-111.65 614.273 -112.3 614.546 -112.969 614.827 C-130.997 622.425 -148.049 631.497 -164.473 642.113 C-168.637 644.797 -172.89 647.288 -177.188 649.75 C-184.432 653.936 -191.414 658.485 -198.375 663.125 C-199.361 663.782 -200.348 664.439 -201.364 665.116 C-210.794 671.45 -219.936 678.157 -229 685 C-230.333 686 -231.666 687 -233 688 C-231.743 684.057 -230.316 680.32 -228.566 676.57 C-228.088 675.54 -227.61 674.51 -227.117 673.449 C-226.604 672.352 -226.091 671.255 -225.562 670.125 C-224.471 667.775 -223.38 665.425 -222.289 663.074 C-221.738 661.889 -221.186 660.703 -220.618 659.482 C-216.82 651.309 -213.059 643.12 -209.333 634.914 C-208.06 632.132 -206.764 629.363 -205.465 626.594 C-198.885 612.35 -193.433 597.732 -188.062 583 C-187.691 581.991 -187.32 580.981 -186.938 579.941 C-174.769 549.488 -174.769 549.488 -177.602 518.176 C-191.769 496.133 -226.66 493.392 -250.271 488.145 C-258.576 486.295 -266.754 484.287 -274.918 481.884 C-279.263 480.637 -283.646 479.646 -288.062 478.688 C-296.538 476.797 -304.995 474.842 -313.438 472.812 C-314.62 472.528 -315.803 472.244 -317.021 471.951 C-324.423 470.156 -331.802 468.285 -339.172 466.363 C-340.043 466.137 -340.914 465.911 -341.811 465.677 C-346.119 464.557 -350.424 463.43 -354.726 462.288 C-362.499 460.248 -369.938 458.441 -378 458 C-375.302 455.302 -372.325 454.848 -368.73 453.934 C-367.201 453.531 -365.671 453.129 -364.141 452.726 C-363.334 452.516 -362.526 452.306 -361.694 452.09 C-344.292 447.559 -327.112 442.534 -310 437 C-308.999 436.679 -307.997 436.357 -306.965 436.026 C-289.486 430.396 -272.239 424.112 -255.018 417.744 C-252.924 416.972 -250.827 416.207 -248.729 415.443 C-241.901 412.939 -235.172 410.44 -228.812 406.875 C-227.91 406.394 -227.91 406.394 -226.99 405.902 C-221.208 402.748 -217.047 399.69 -213.75 393.938 C-213 392.652 -213 392.652 -212.234 391.34 C-207.717 382.777 -209.876 372.576 -212.406 363.656 C-216.836 349.784 -224.273 336.303 -232 324 C-232.507 323.179 -233.013 322.358 -233.535 321.512 C-234.679 319.667 -235.837 317.832 -237 316 C-235.993 316.182 -234.986 316.364 -233.949 316.551 C-230.129 317.237 -226.305 317.902 -222.48 318.563 C-220.098 318.983 -217.721 319.424 -215.344 319.867 C-192.1 324.063 -163.752 324.287 -143.188 311.062 C-141.783 310.054 -140.386 309.034 -139 308 C-137.928 307.257 -136.855 306.515 -135.75 305.75 C-129.525 299.525 -127.531 292.016 -125.688 283.625 C-125.43 282.476 -125.43 282.476 -125.167 281.304 C-122.887 269.97 -124.128 258.802 -125.625 247.438 C-125.712 246.771 -125.798 246.105 -125.888 245.419 C-128.278 227.268 -131.972 209.279 -137.615 191.844 C-139.098 187.197 -139.098 187.197 -138 185 C-136.982 185.788 -135.963 186.575 -134.914 187.387 C-130.294 190.949 -125.652 194.48 -121 198 C-120.268 198.555 -119.537 199.11 -118.783 199.682 C-110.001 206.306 -101.003 212.411 -91.562 218.062 C-90.675 218.599 -89.788 219.135 -88.874 219.688 C-79.615 225.112 -68.676 230.504 -57.656 228.594 C-47.582 225.696 -40.106 218.516 -35.062 209.559 C-30.581 201.035 -26.965 192.265 -23.774 183.189 C-22.937 180.823 -22.077 178.466 -21.215 176.109 C-17.498 165.848 -14.42 155.638 -12 145 C-11.747 143.964 -11.495 142.927 -11.234 141.859 C-7.803 127.624 -4.944 113.255 -3.683 98.656 C-3.338 94.742 -2.811 90.975 -2.016 87.125 C-0.463 78.872 -0.257 70.497 0.125 62.125 C0.167 61.248 0.209 60.371 0.252 59.468 C0.803 47.895 1.18 36.337 1.188 24.75 C1.189 23.06 1.189 23.06 1.19 21.336 C1.141 14.185 0.694 7.118 0 0 Z " fill="#000000" transform="translate(458,54)"/>
<path d="M0 0 C4.595 4.005 9.014 8.183 13.38 12.436 C14.738 13.747 16.127 15.026 17.523 16.297 C29.271 27.239 37.509 41.467 44 56 C44.519 57.129 45.039 58.258 45.574 59.422 C49.047 67.481 51.45 75.73 53.75 84.188 C54.044 85.268 54.338 86.349 54.641 87.462 C57.622 98.791 59.335 109.524 59.188 121.25 C59.181 122.329 59.175 123.408 59.168 124.519 C59.087 133.039 58.709 141.509 58 150 C54.711 150 54.01 149.593 51.367 147.832 C50.652 147.358 49.937 146.883 49.201 146.395 C48.433 145.872 47.666 145.35 46.875 144.812 C46.075 144.274 45.274 143.735 44.449 143.18 C38.239 138.952 32.258 134.472 26.33 129.861 C21.457 126.08 16.495 122.467 11.438 118.938 C-1.879 109.63 -14.792 99.883 -27.141 89.316 C-27.689 88.849 -28.237 88.381 -28.802 87.899 C-30.329 86.593 -31.85 85.281 -33.371 83.969 C-38.398 79.752 -43.731 75.907 -49 72 C-48.518 73.453 -48.518 73.453 -48.025 74.936 C-12.215 183.051 -12.215 183.051 -27.312 215.438 C-31.25 222.596 -35.567 227.494 -43 231 C-43.99 231 -44.98 231 -46 231 C-46 231.66 -46 232.32 -46 233 C-47.203 233.656 -48.413 234.299 -49.625 234.938 C-50.298 235.297 -50.971 235.657 -51.664 236.027 C-56.605 238.085 -61.734 238.135 -67.023 238.168 C-67.682 238.172 -68.34 238.177 -69.019 238.181 C-71.137 238.191 -73.256 238.191 -75.375 238.188 C-76.1 238.186 -76.825 238.185 -77.572 238.184 C-98.674 238.113 -117.406 233.931 -137.727 228.461 C-138.609 228.225 -139.49 227.989 -140.399 227.745 C-142.06 227.299 -143.719 226.846 -145.376 226.385 C-147.24 225.88 -149.119 225.433 -151 225 C-151.33 225.33 -151.66 225.66 -152 226 C-151.394 226.851 -150.788 227.702 -150.164 228.578 C-144.59 236.577 -139.937 244.739 -135.691 253.514 C-133.08 258.898 -130.278 264.091 -127.25 269.25 C-122.835 276.842 -119.877 284.728 -117 293 C-116.344 294.671 -115.683 296.34 -115 298 C-135.177 296.46 -154.018 288.928 -172 280 C-173.168 279.422 -173.168 279.422 -174.359 278.833 C-185.432 273.257 -194.876 266.558 -204.256 258.479 C-206.673 256.429 -209.186 254.508 -211.688 252.562 C-240.106 229.121 -260.667 190.85 -264.574 154.195 C-266.389 131.995 -266.536 108.65 -261 87 C-260.818 86.273 -260.636 85.546 -260.449 84.797 C-254.106 60.35 -241.052 35.978 -222.59 18.559 C-220.859 16.862 -219.355 15.056 -217.812 13.188 C-208.899 2.933 -197.25 -4.568 -186 -12 C-185.151 -12.576 -184.301 -13.152 -183.426 -13.746 C-129.359 -48.564 -48.751 -40.786 0 0 Z " fill="#000000" transform="translate(342,122)"/>
<path d="M0 0 C46.013 -1.534 89.781 15.533 123.467 46.729 C124.983 48.147 126.492 49.572 128 51 C128.931 51.877 129.861 52.753 130.82 53.656 C137.967 60.579 144.12 68 150 76 C150.421 76.566 150.843 77.133 151.277 77.716 C168.351 100.951 179.629 130.405 183 159 C183.135 160.12 183.135 160.12 183.272 161.263 C186.881 193.605 181.568 226.824 167 256 C166.705 256.609 166.411 257.218 166.107 257.846 C158.163 274.193 147.229 288.625 135 302 C134.313 302.763 134.313 302.763 133.613 303.541 C105.494 334.452 64.176 351.51 23 354 C-24.746 355.83 -71.052 342.521 -107.375 310.438 C-108.927 308.969 -110.469 307.49 -112 306 C-112.855 305.207 -113.709 304.414 -114.59 303.598 C-144.007 275.531 -161.908 235.845 -169.938 196.5 C-170.161 195.407 -170.385 194.313 -170.616 193.187 C-170.814 192.166 -171.011 191.145 -171.215 190.094 C-171.391 189.183 -171.568 188.272 -171.75 187.334 C-172 185 -172 185 -171 182 C-170.623 182.634 -170.246 183.268 -169.858 183.921 C-160.625 199.398 -151.426 213.856 -139 227 C-138.242 227.822 -137.484 228.645 -136.703 229.492 C-115.962 251.251 -83.871 266.528 -53.769 268.177 C-37.752 268.473 -22.532 268.345 -7 264 C-6.27 263.807 -5.54 263.614 -4.789 263.415 C14.068 258.315 32.275 248.836 47 236 C47.874 235.251 48.748 234.502 49.648 233.73 C52.148 231.534 54.581 229.285 57 227 C57.821 226.243 58.642 225.487 59.488 224.707 C80.104 205.054 91.324 178.694 96 151 C96.133 150.228 96.266 149.456 96.402 148.66 C101.171 114.626 90.359 79.024 70.272 51.684 C64.255 43.722 57.865 36.194 50 30 C49.092 29.256 48.185 28.512 47.25 27.746 C32.734 16.152 17.304 7.695 0 1 C0 0.67 0 0.34 0 0 Z " fill="#000000" transform="translate(774,582)"/>
<path d="M0 0 C-1.394 1.069 -1.394 1.069 -2.816 2.16 C-10.491 7.951 -10.491 7.951 -17.5 14.5 C-21.132 18.333 -25.304 21.457 -29.471 24.676 C-33.514 27.807 -37.441 31.036 -41.312 34.375 C-46.935 39.207 -52.785 43.695 -58.7 48.161 C-63.105 51.504 -67.38 54.946 -71.562 58.562 C-76.204 62.575 -80.999 66.298 -85.938 69.938 C-91.82 74.275 -97.417 78.83 -102.919 83.638 C-106.699 86.927 -110.566 90.042 -114.562 93.062 C-119.633 96.895 -124.51 100.906 -129.338 105.038 C-132.492 107.734 -135.681 110.367 -138.938 112.938 C-142.976 116.14 -146.906 119.452 -150.812 122.812 C-151.408 123.325 -152.003 123.837 -152.617 124.365 C-153.822 125.402 -155.028 126.44 -156.233 127.479 C-164 134.166 -171.834 140.719 -179.917 147.022 C-186.77 152.368 -193.474 157.889 -200.145 163.461 C-200.883 164.075 -201.622 164.69 -202.384 165.323 C-203.833 166.529 -205.28 167.739 -206.724 168.952 C-216.349 176.948 -224.033 182.545 -236.898 182.312 C-242.379 181.76 -244.771 179.326 -248.375 175.438 C-250.681 170.56 -250.762 166.304 -250 161 C-245.955 152.235 -236.966 147.226 -229.018 142.378 C-222.607 138.444 -216.394 134.248 -210.188 130 C-208.035 128.53 -205.883 127.06 -203.73 125.59 C-203.184 125.216 -202.637 124.843 -202.074 124.458 C-195.735 120.132 -189.377 115.833 -183 111.562 C-182.142 110.988 -182.142 110.988 -181.266 110.401 C-173.931 105.5 -166.509 100.839 -158.845 96.467 C-153.317 93.279 -148.169 89.676 -142.994 85.947 C-127.579 74.898 -111.436 64.816 -95.38 54.729 C-91.078 52.015 -86.868 49.223 -82.723 46.273 C-79.393 43.921 -76.172 41.915 -72.438 40.25 C-64.154 36.263 -56.647 31.07 -49 26 C-39.935 19.994 -30.701 14.521 -21.16 9.301 C-17.043 7.042 -13.022 4.65 -9.043 2.156 C-2.778 -1.389 -2.778 -1.389 0 0 Z " fill="#010101" transform="translate(378,714)"/>
<path d="M0 0 C4.821 4.247 7.432 7.472 7.875 14 C7.64 23.925 2.105 30.275 -4.375 37.312 C-5.39 38.219 -6.427 39.101 -7.5 39.938 C-10.091 42.078 -11.613 43.88 -13.562 46.562 C-16.936 51.037 -20.767 54.223 -25.156 57.672 C-29.064 60.805 -32.677 64.246 -36.312 67.688 C-37.001 68.339 -37.69 68.991 -38.4 69.663 C-39.762 70.952 -41.123 72.241 -42.484 73.53 C-45.089 75.986 -47.729 78.401 -50.375 80.812 C-55.013 85.048 -59.608 89.326 -64.188 93.625 C-64.86 94.257 -65.533 94.888 -66.227 95.539 C-67.594 96.823 -68.96 98.106 -70.327 99.39 C-73.653 102.513 -76.981 105.633 -80.312 108.75 C-80.937 109.335 -81.561 109.919 -82.204 110.521 C-85.544 113.638 -88.924 116.692 -92.375 119.688 C-95.794 122.69 -98.756 125.911 -101.699 129.375 C-106.169 134.543 -111.18 139.056 -116.352 143.504 C-118.388 145.324 -120.286 147.228 -122.188 149.188 C-127.694 154.769 -133.85 159.558 -140.02 164.379 C-144.812 168.141 -149.213 172.024 -153.461 176.391 C-155.908 178.847 -158.502 181.091 -161.133 183.348 C-163.297 185.244 -165.401 187.197 -167.501 189.163 C-172.877 194.183 -178.448 198.777 -184.29 203.244 C-188.956 206.861 -193.016 210.885 -197.109 215.141 C-200.26 218.161 -203.57 220.198 -207.375 222.312 C-205.879 218.631 -203.8 216.805 -200.75 214.312 C-195.979 210.142 -192.864 205.767 -189.508 200.434 C-185.713 194.881 -180.992 190.181 -176.375 185.312 C-174.006 182.676 -171.693 179.993 -169.375 177.312 C-168.375 176.166 -167.375 175.021 -166.375 173.875 C-160.681 167.343 -155.062 160.77 -149.602 154.039 C-143.195 146.194 -136.576 138.525 -129.938 130.875 C-129.393 130.248 -128.849 129.62 -128.289 128.974 C-123.894 123.908 -123.894 123.908 -121.791 121.495 C-115.955 114.793 -110.31 108.022 -104.955 100.93 C-101.711 96.666 -98.216 92.712 -94.59 88.773 C-92.261 86.186 -90.063 83.52 -87.875 80.812 C-84.949 77.194 -81.949 73.688 -78.812 70.25 C-75.227 66.312 -71.888 62.242 -68.59 58.062 C-65.996 54.841 -63.322 51.698 -60.625 48.562 C-60.117 47.971 -59.609 47.38 -59.085 46.771 C-56.484 43.749 -53.873 40.734 -51.254 37.727 C-44.271 29.682 -37.781 21.423 -31.547 12.777 C-24.117 2.753 -12.84 -6.42 0 0 Z " fill="#020202" transform="translate(898.375,83.6875)"/>
<path d="M0 0 C0.33 0 0.66 0 1 0 C1.402 1.562 1.402 1.562 1.812 3.156 C6.891 22.054 14.94 40.044 32 51 C42.675 56.88 53.807 61.675 66 63 C63.665 65.335 61.676 65.732 58.542 66.546 C40.454 71.245 24.575 80.252 14.137 96.199 C8.217 106.282 3.959 117.721 1 129 C0.67 129 0.34 129 0 129 C-0.196 128.031 -0.392 127.061 -0.594 126.062 C-4.803 106.672 -14.148 88.416 -30.879 77.043 C-40.925 70.84 -51.746 67.402 -63 64 C-63 63.67 -63 63.34 -63 63 C-61.438 62.706 -61.438 62.706 -59.844 62.406 C-45.45 59.486 -31.895 54.169 -21 44 C-20.402 43.443 -19.804 42.886 -19.188 42.312 C-8.44 31.181 -2.725 14.971 0 0 Z " fill="#010101" transform="translate(522,798)"/>
<path d="M0 0 C0.33 0 0.66 0 1 0 C1.346 1.415 1.346 1.415 1.699 2.859 C6.294 21.162 13.738 39.67 30 50.625 C40.599 56.946 51.884 61.59 64 64 C64 64.33 64 64.66 64 65 C62.97 65.257 61.94 65.513 60.879 65.777 C42.777 70.536 24.729 78.592 14.585 95.152 C8.459 105.849 4.408 117.194 1 129 C-0.365 126.394 -1.437 123.87 -2.297 121.059 C-8.774 100.419 -18.351 84.14 -38.046 73.804 C-46.227 69.717 -54.989 66.615 -64 65 C-64 64.67 -64 64.34 -64 64 C-62.438 63.706 -62.438 63.706 -60.844 63.406 C-46.983 60.593 -33.718 55.527 -23 46 C-22.136 45.273 -22.136 45.273 -21.254 44.531 C-9.198 33.576 -2.215 15.884 0 0 Z " fill="#010101" transform="translate(915,381)"/>
<path d="M0 0 C1.931 3.504 3.014 7.121 4.188 10.938 C9.518 27.286 18.65 41.532 34 50 C35.284 50.748 35.284 50.748 36.594 51.512 C45.28 56.249 54.467 58.606 64 61 C60.532 62.91 56.967 63.974 53.188 65.125 C40.35 69.274 29.469 75.262 20 85 C19.178 85.773 19.178 85.773 18.34 86.562 C8.822 96.309 4.541 111.197 1 124 C0.34 124 -0.32 124 -1 124 C-1.135 123.319 -1.271 122.639 -1.41 121.938 C-5.745 102.418 -15.136 84.915 -32.305 73.875 C-41.956 68.239 -52.298 65.041 -63 62 C-59.896 60.218 -56.709 59.319 -53.264 58.403 C-34.754 53.436 -19.941 43.686 -10.191 26.883 C-5.624 18.219 -2.648 9.397 0 0 Z " fill="#010101" transform="translate(153,595)"/>
<path d="M0 0 C1.952 3.54 3.055 7.21 4.25 11.062 C9.191 26.221 18.229 40.354 32.78 47.926 C40.904 51.878 49.163 55.034 58 57 C54.72 59.186 51.891 60.04 48.125 61.188 C31.484 66.565 17.971 75.367 9.785 91.188 C7.206 96.504 5.173 102.028 3.227 107.602 C2.287 110.204 1.316 112.577 0 115 C-0.392 113.948 -0.784 112.896 -1.188 111.812 C-1.463 111.084 -1.739 110.356 -2.023 109.605 C-2.731 107.718 -3.422 105.824 -4.102 103.926 C-10.582 86.262 -20.269 73.638 -37.426 65.344 C-44.466 62.205 -51.493 59.747 -59 58 C-55.619 56.111 -52.242 55.211 -48.5 54.25 C-32.889 49.845 -19.232 41.566 -10.992 27.248 C-6.156 18.474 -2.528 9.712 0 0 Z " fill="#010101" transform="translate(596,52)"/>
<path d="M0 0 C3.805 2.565 5.968 4.461 7 9 C7.099 15.022 5.772 18.568 1.594 22.926 C-8.376 30.899 -21.162 35.595 -33 40 C-34.263 40.472 -35.526 40.945 -36.789 41.418 C-38.763 42.156 -40.737 42.893 -42.712 43.628 C-48.577 45.817 -54.384 48.14 -60.188 50.485 C-65.873 52.772 -71.578 55.003 -77.297 57.203 C-93.943 63.613 -110.437 70.228 -126.805 77.324 C-140.073 83.074 -153.483 88.265 -167.125 93.062 C-168.271 93.469 -169.417 93.876 -170.598 94.296 C-171.661 94.663 -172.725 95.031 -173.82 95.41 C-174.772 95.742 -175.723 96.073 -176.704 96.414 C-179 97 -179 97 -181 96 C-171.778 89.734 -162.448 83.758 -152.844 78.096 C-151.052 77.031 -149.273 75.949 -147.496 74.859 C-139.279 69.833 -130.894 65.175 -122.42 60.596 C-115.407 56.797 -108.482 52.867 -101.604 48.829 C-93.017 43.797 -84.274 39.114 -75.395 34.615 C-63.825 28.751 -52.567 22.76 -41.793 15.504 C-35.443 11.242 -28.735 7.611 -22 4 C-20.741 3.285 -20.741 3.285 -19.457 2.555 C-13.386 -0.608 -6.726 -1.185 0 0 Z " fill="#030303" transform="translate(938,208)"/>
<path d="M0 0 C0 3.92 -1.739 6.217 -3.75 9.438 C-4.589 10.808 -5.427 12.18 -6.266 13.551 C-6.714 14.279 -7.162 15.006 -7.623 15.756 C-9.94 19.531 -12.22 23.328 -14.5 27.125 C-14.994 27.947 -15.488 28.769 -15.998 29.616 C-20.143 36.528 -24.217 43.482 -28.282 50.442 C-36.44 64.407 -44.789 78.245 -53.246 92.031 C-58.35 100.367 -63.176 108.839 -67.938 117.375 C-94.186 164.395 -94.186 164.395 -105 168 C-108.815 168.347 -111.133 168.534 -114.438 166.5 C-116.658 162.947 -116.797 160.003 -116 156 C-113.163 148.906 -108.969 142.801 -104.375 136.75 C-103.76 135.926 -103.144 135.103 -102.51 134.254 C-98.444 128.836 -94.275 123.505 -90.047 118.212 C-85.938 113.026 -82.184 107.611 -78.412 102.177 C-75.427 97.915 -72.325 93.888 -68.938 89.938 C-63.536 83.62 -58.973 76.835 -54.331 69.957 C-40.095 49.023 -25.165 27.699 -7.857 9.198 C-5.091 6.235 -2.492 3.197 0 0 Z " fill="#020202" transform="translate(383,741)"/>
<path d="M0 0 C0.66 0.33 1.32 0.66 2 1 C0.127 2.731 -1.749 4.46 -3.625 6.188 C-4.147 6.67 -4.669 7.153 -5.207 7.65 C-8.719 10.88 -12.313 13.972 -16 17 C-16.66 16.67 -17.32 16.34 -18 16 C-12.34 10.131 -6.733 4.627 0 0 Z " fill="#BBBCBC" transform="translate(719,282)"/>
<path d="M0 0 C0.99 0.33 1.98 0.66 3 1 C1.755 2.13 0.504 3.254 -0.75 4.375 C-1.446 5.001 -2.142 5.628 -2.859 6.273 C-4.845 7.875 -6.68 8.965 -9 10 C-7.635 6.883 -6.131 4.913 -3.562 2.688 C-2.966 2.155 -2.369 1.623 -1.754 1.074 C-1.175 0.72 -0.596 0.365 0 0 Z " fill="#191919" transform="translate(700,296)"/>
<path d="M0 0 C0.33 0 0.66 0 1 0 C1.125 7.625 1.125 7.625 0 11 C-0.66 11 -1.32 11 -2 11 C-2.33 11.99 -2.66 12.98 -3 14 C-2.404 9.131 -1.43 4.672 0 0 Z " fill="#929392" transform="translate(707,139)"/>
<path d="M0 0 C0.66 0.33 1.32 0.66 2 1 C0.735 2.319 -0.537 3.63 -1.812 4.938 C-2.52 5.668 -3.228 6.399 -3.957 7.152 C-6 9 -6 9 -9 10 C-7.618 6.79 -6.076 4.951 -3.375 2.75 C-2.743 2.229 -2.112 1.708 -1.461 1.172 C-0.738 0.592 -0.738 0.592 0 0 Z " fill="#DFE0E0" transform="translate(733,434)"/>
<path d="M0 0 C0.66 0.33 1.32 0.66 2 1 C-0.97 3.97 -3.94 6.94 -7 10 C-7 7 -7 7 -4.625 4.438 C-3.759 3.633 -2.893 2.829 -2 2 C-1.34 1.34 -0.68 0.68 0 0 Z " fill="#C1C1C2" transform="translate(731,575)"/>
</svg>
