<?xml version="1.0" encoding="UTF-8"?>
<!-- Generator: visioncortex VTracer 0.6.4 -->
<svg version="1.1" xmlns="http://www.w3.org/2000/svg" width="1024" height="1024">
<path d="M0 0 C337.92 0 675.84 0 1024 0 C1024 337.92 1024 675.84 1024 1024 C686.08 1024 348.16 1024 0 1024 C0 686.08 0 348.16 0 0 Z " fill="#AF6F52" transform="translate(0,0)"/>
<path d="M0 0 C3.23 1.829 6.494 3.529 9.84 5.141 C16.762 8.525 23.398 12.408 30.086 16.227 C36.745 20.012 43.47 23.631 50.277 27.141 C57.102 30.661 63.635 34.387 70.121 38.5 C74.488 41.133 79.046 43.318 83.625 45.555 C88.972 48.243 94.125 51.256 99.299 54.26 C102.608 56.167 105.944 58.026 109.277 59.891 C113.979 62.523 118.645 65.2 123.277 67.953 C127.427 70.395 131.638 72.591 135.965 74.703 C141.751 77.545 147.248 80.698 152.748 84.055 C158.121 87.332 163.605 90.357 169.152 93.328 C176.85 97.465 184.431 101.775 191.965 106.203 C200.164 111.045 200.164 111.045 208.469 115.699 C215.943 119.763 222.099 124.332 228.152 130.328 C228.988 131.107 228.988 131.107 229.84 131.902 C232.107 134.047 233.145 135.305 234.152 138.328 C235.142 138.658 236.132 138.988 237.152 139.328 C245.746 150.365 249.873 162.628 252.668 176.094 C252.977 177.517 253.308 178.936 253.668 180.347 C255.117 186.162 255.44 191.628 255.42 197.604 C255.424 198.601 255.429 199.598 255.433 200.625 C255.446 203.945 255.445 207.266 255.443 210.586 C255.449 212.975 255.456 215.364 255.463 217.754 C255.479 223.559 255.485 229.364 255.486 235.17 C255.487 239.894 255.492 244.619 255.498 249.344 C255.515 262.767 255.525 276.191 255.523 289.614 C255.523 290.698 255.523 290.698 255.523 291.803 C255.523 292.527 255.523 293.25 255.523 293.996 C255.522 305.705 255.541 317.414 255.569 329.123 C255.598 341.174 255.612 353.225 255.61 365.276 C255.609 372.03 255.615 378.784 255.636 385.539 C255.656 391.897 255.656 398.256 255.641 404.615 C255.639 406.938 255.644 409.262 255.656 411.585 C255.719 424.523 255.034 435.937 251.152 448.328 C250.546 450.557 249.941 452.786 249.34 455.016 C245.745 466.331 239.425 476.04 232.152 485.328 C231.638 485.986 231.124 486.643 230.594 487.32 C220.718 499.363 206.652 508.14 193.125 515.547 C187.632 518.577 182.288 521.843 176.935 525.114 C173.849 526.999 170.758 528.878 167.668 530.758 C167.04 531.14 166.412 531.522 165.764 531.916 C138.456 548.531 138.456 548.531 125.84 555.703 C124.889 556.248 124.889 556.248 123.919 556.805 C121.046 558.416 118.417 559.764 115.152 560.328 C115.152 560.988 115.152 561.648 115.152 562.328 C99.796 570.999 99.796 570.999 93.965 574.141 C88.692 577.002 83.485 579.974 78.277 582.953 C77.387 583.462 76.496 583.972 75.578 584.496 C70.777 587.244 65.983 590.003 61.195 592.773 C59.756 593.604 59.756 593.604 58.287 594.451 C56.432 595.52 54.579 596.593 52.729 597.67 C51.895 598.15 51.062 598.63 50.203 599.125 C49.467 599.551 48.732 599.978 47.974 600.417 C46.152 601.328 46.152 601.328 44.152 601.328 C44.152 601.988 44.152 602.648 44.152 603.328 C43.604 603.625 43.056 603.921 42.491 604.227 C28.814 611.635 28.814 611.635 15.574 619.789 C12.18 621.946 8.659 623.828 5.113 625.723 C1.696 627.576 -1.668 629.511 -5.035 631.453 C-12.024 635.459 -18.752 639.234 -26.48 641.602 C-28.033 642.078 -29.572 642.603 -31.09 643.18 C-52.142 650.376 -74.643 643.481 -93.848 634.328 C-96.504 632.877 -99.059 631.347 -101.609 629.719 C-103.885 628.305 -106.188 627.121 -108.598 625.953 C-117.229 621.725 -125.539 616.873 -133.598 611.641 C-137.718 608.972 -141.903 606.765 -146.32 604.637 C-150.071 602.694 -153.549 600.368 -157.09 598.07 C-160.51 595.91 -164.024 593.99 -167.59 592.082 C-171.928 589.747 -176.231 587.349 -180.535 584.953 C-181.351 584.5 -182.166 584.046 -183.006 583.579 C-184.954 582.496 -186.901 581.412 -188.848 580.328 C-188.848 579.668 -188.848 579.008 -188.848 578.328 C-189.648 578.104 -190.449 577.88 -191.273 577.648 C-195.837 575.963 -199.84 573.649 -204.035 571.203 C-204.931 570.686 -205.828 570.169 -206.751 569.636 C-215.716 564.446 -224.624 559.156 -233.52 553.849 C-239.576 550.241 -245.656 546.699 -251.848 543.328 C-251.848 542.668 -251.848 542.008 -251.848 541.328 C-252.567 541.057 -253.286 540.787 -254.027 540.508 C-263.359 536.605 -271.907 530.433 -280.423 525.021 C-285.967 521.501 -291.548 518.05 -297.16 514.641 C-325.711 497.243 -348.946 478.423 -357.175 444.558 C-359.915 431.929 -359.586 419.057 -359.556 406.199 C-359.553 402.405 -359.579 398.612 -359.601 394.818 C-359.639 387.52 -359.652 380.223 -359.654 372.925 C-359.658 364.514 -359.687 356.103 -359.716 347.692 C-359.763 334.266 -359.793 320.84 -359.81 307.414 C-359.829 291.531 -359.9 275.649 -360.012 259.766 C-360.056 253.27 -360.087 246.773 -360.116 240.276 C-360.138 235.403 -360.166 230.53 -360.208 225.657 C-360.521 188.063 -357.538 156.5 -330.223 128.266 C-324.105 122.134 -317.3 117.669 -309.848 113.328 C-308.977 112.81 -308.977 112.81 -308.089 112.282 C-300.713 107.896 -293.165 103.954 -285.465 100.164 C-279.522 97.191 -273.783 93.841 -268.01 90.555 C-264.133 88.356 -260.241 86.184 -256.348 84.016 C-255.618 83.607 -254.889 83.199 -254.138 82.778 C-250.741 80.887 -247.334 79.052 -243.848 77.332 C-239.594 75.231 -235.477 72.913 -231.348 70.578 C-225.768 67.448 -220.164 64.439 -214.41 61.641 C-206.749 57.897 -199.299 53.781 -191.848 49.641 C-191.263 49.316 -190.678 48.992 -190.075 48.658 C-184.244 45.423 -178.48 42.14 -172.856 38.557 C-169.56 36.54 -166.153 34.733 -162.753 32.899 C-157.797 30.219 -152.887 27.457 -147.973 24.703 C-146.892 24.098 -145.811 23.492 -144.698 22.869 C-133.683 16.689 -122.719 10.422 -111.766 4.133 C-104.968 0.23 -98.155 -3.635 -91.25 -7.348 C-88.838 -8.637 -88.838 -8.637 -86.605 -10.145 C-82.826 -12.238 -78.888 -13.479 -74.785 -14.797 C-73.581 -15.193 -73.581 -15.193 -72.354 -15.598 C-46.029 -24.205 -22.739 -12.917 0 0 Z " fill="#FEFEFA" transform="translate(564.84765625,130.671875)"/>
<path d="M0 0 C6.106 0.366 8.921 1.622 13 6 C13.375 8.812 13.375 8.812 13 11 C13.66 11 14.32 11 15 11 C15.124 11.969 15.247 12.939 15.375 13.938 C15.581 14.948 15.788 15.959 16 17 C16.66 17.33 17.32 17.66 18 18 C17.907 19.083 17.907 19.083 17.812 20.188 C18.035 23.529 19.128 25.27 21 28 C20.34 28 19.68 28 19 28 C19.99 33.445 19.99 33.445 21 39 C22.691 39.433 24.382 39.866 26.125 40.312 C30.407 41.476 34.061 42.945 38 45 C41.765 46.382 45.589 47.586 49.438 48.715 C57.477 51.161 57.477 51.161 60 55 C60.713 58.21 60.584 60.042 58.859 62.871 C55.66 66.921 53.106 68.798 48 70 C46.475 70.487 44.954 70.988 43.438 71.5 C42.667 71.757 41.896 72.013 41.102 72.277 C38.699 73.104 36.354 74.046 34 75 C30.352 76.292 26.812 77.327 23 78 C23 78.66 23 79.32 23 80 C22.34 80.66 21.68 81.32 21 82 C20.431 83.876 19.941 85.777 19.5 87.688 C19.242 88.76 18.984 89.832 18.719 90.938 C18.298 92.728 17.881 94.52 17.469 96.312 C17 98.188 17 98.188 16 101 C14.515 101.495 14.515 101.495 13 102 C13 102.66 13 103.32 13 104 C12.34 104 11.68 104 11 104 C10.907 105.547 10.907 105.547 10.812 107.125 C9.779 112.052 8.786 113.708 5 117 C1.188 116.875 1.188 116.875 -2 116 C-2.66 114.35 -3.32 112.7 -4 111 C-4.66 111 -5.32 111 -6 111 C-6.195 108.949 -6.391 106.898 -6.586 104.848 C-6.791 103.933 -6.791 103.933 -7 103 C-7.99 102.505 -7.99 102.505 -9 102 C-9.746 99.707 -9.746 99.707 -10.438 96.812 C-11.525 92.538 -12.901 88.898 -15 85 C-15 84.34 -15 83.68 -15 83 C-15.99 82.505 -15.99 82.505 -17 82 C-17.33 81.34 -17.66 80.68 -18 80 C-20.41 78.753 -20.41 78.753 -23 78 C-23.99 78.495 -23.99 78.495 -25 79 C-27 77 -27 77 -28 75 C-29.992 74.621 -31.994 74.297 -34 74 C-36.354 73.393 -38.67 72.699 -41 72 C-41 71.34 -41 70.68 -41 70 C-42.65 70 -44.3 70 -46 70 C-46 69.34 -46 68.68 -46 68 C-46.763 67.794 -47.526 67.587 -48.312 67.375 C-51.905 65.537 -52.61 63.732 -54 60 C-54.188 57.125 -54.188 57.125 -54 55 C-53.34 55 -52.68 55 -52 55 C-52 54.01 -52 53.02 -52 52 C-48.074 48.751 -43.273 47.907 -38.426 46.746 C-35.849 46.161 -35.849 46.161 -34 44 C-33.34 44.33 -32.68 44.66 -32 45 C-32 44.34 -32 43.68 -32 43 C-30.701 42.814 -30.701 42.814 -29.375 42.625 C-26.105 42.019 -23.142 41.071 -20 40 C-19.34 40 -18.68 40 -18 40 C-15.838 35.662 -15.838 35.662 -15 31 C-14.34 31 -13.68 31 -13 31 C-13.062 29.969 -13.124 28.938 -13.188 27.875 C-12.984 23.666 -11.981 21.657 -10 18 C-9.691 16.886 -9.381 15.773 -9.062 14.625 C-7.872 10.565 -6.554 6.423 -4 3 C-1.867 2.273 -1.867 2.273 0 2 C0 1.34 0 0.68 0 0 Z " fill="#FCB961" transform="translate(910,712)"/>
<path d="M0 0 C2.98 1.023 2.98 1.023 4.555 3.359 C4.922 4.362 5.289 5.365 5.668 6.398 C6.078 7.479 6.488 8.559 6.91 9.672 C7.902 12.778 8.615 15.838 9.293 19.023 C10.221 22.613 10.221 22.613 12.449 25.457 C17.766 28.352 24.078 29.528 29.906 30.996 C32.856 31.982 34.204 32.523 35.98 35.023 C36.48 38.023 36.48 38.023 35.98 41.023 C33.918 42.711 33.918 42.711 30.98 44.023 C29.949 44.518 28.918 45.013 27.855 45.523 C25.621 46.496 23.63 47.092 21.227 47.562 C15.655 48.524 15.655 48.524 11.457 51.969 C10.406 54.3 9.641 56.555 8.98 59.023 C8.455 60.818 8.455 60.818 7.918 62.648 C7.609 63.762 7.299 64.876 6.98 66.023 C5.71 69.432 4.594 72.41 1.98 75.023 C-0.395 75.461 -0.395 75.461 -3.02 75.023 C-7.811 70.318 -9.158 64.171 -10.936 57.885 C-12.512 53.05 -12.512 53.05 -16.08 49.598 C-18.368 48.559 -20.613 47.742 -23.02 47.023 C-23.973 46.713 -24.927 46.402 -25.91 46.082 C-26.689 45.877 -27.467 45.672 -28.27 45.461 C-35.567 43.313 -35.567 43.313 -38.02 41.023 C-38.582 37.523 -38.582 37.523 -38.02 34.023 C-35.359 31.542 -32.878 30.499 -29.395 29.586 C-25.704 28.54 -22.105 27.39 -18.52 26.023 C-17.705 25.714 -16.89 25.405 -16.051 25.086 C-13.699 24.063 -13.699 24.063 -12.02 21.023 C-11.495 19.05 -11.495 19.05 -11.145 16.898 C-7.65 0.059 -7.65 0.059 0 0 Z " fill="#FABF60" transform="translate(109.01953125,51.9765625)"/>
<path d="M0 0 C0.66 0.33 1.32 0.66 2 1 C-0.209 4.487 -2.047 5.814 -6 7 C-6.99 7 -7.98 7 -9 7 C-9.33 7.99 -9.66 8.98 -10 10 C-12.223 11.43 -12.223 11.43 -15.062 12.875 C-19.172 15.023 -23.113 17.274 -27.016 19.773 C-29.98 21.606 -33.045 23.244 -36.117 24.887 C-38.148 25.982 -38.148 25.982 -40 28 C-40.66 28 -41.32 28 -42 28 C-44.077 29.438 -46.009 31.008 -47.965 32.605 C-48.941 33.389 -48.941 33.389 -49.938 34.188 C-50.586 34.717 -51.234 35.247 -51.902 35.793 C-54.439 37.253 -56.12 37.225 -59 37 C-59 37.66 -59 38.32 -59 39 C-62.454 41.007 -65.914 43.004 -69.375 45 C-70.36 45.572 -71.345 46.145 -72.359 46.734 C-73.771 47.546 -73.771 47.546 -75.211 48.375 C-76.08 48.878 -76.95 49.38 -77.845 49.898 C-80 51 -80 51 -82 51 C-82 51.66 -82 52.32 -82 53 C-84.647 54.461 -85.894 55 -89 55 C-89 55.66 -89 56.32 -89 57 C-89.797 57.387 -90.593 57.773 -91.414 58.172 C-98.167 61.411 -98.167 61.411 -104.5 65.375 C-107 67 -107 67 -111 67 C-111 67.66 -111 68.32 -111 69 C-111.615 69.338 -112.23 69.675 -112.863 70.023 C-113.672 70.469 -114.48 70.915 -115.312 71.375 C-116.113 71.816 -116.914 72.257 -117.738 72.711 C-119.535 73.735 -121.279 74.853 -123 76 C-124.32 76 -125.64 76 -127 76 C-127.99 77.98 -127.99 77.98 -129 80 C-130.65 80 -132.3 80 -134 80 C-134 80.66 -134 81.32 -134 82 C-136.06 83.433 -136.06 83.433 -138.934 85.082 C-139.976 85.685 -141.018 86.287 -142.092 86.908 C-143.748 87.851 -143.748 87.851 -145.438 88.812 C-146.507 89.429 -147.576 90.046 -148.678 90.682 C-154.138 93.824 -159.62 96.921 -165.149 99.939 C-166.938 100.965 -168.62 102.074 -170.312 103.25 C-172.672 104.787 -174.254 105.578 -177 106 C-177 106.66 -177 107.32 -177 108 C-177.969 108.371 -178.939 108.743 -179.938 109.125 C-183.923 110.818 -187.345 113.126 -190.887 115.598 C-197.468 119.965 -207.066 125 -215 125 C-216.321 125.464 -217.63 125.962 -218.93 126.48 C-224.66 128.451 -230.118 128.406 -236.125 128.312 C-237.693 128.317 -237.693 128.317 -239.293 128.322 C-244.942 128.283 -249.651 127.797 -255 126 C-257.792 125.831 -257.792 125.831 -260 126 C-260 125.01 -260 124.02 -260 123 C-252.525 123.887 -252.525 123.887 -249.656 124.505 C-222.282 129.607 -200.562 117.702 -177.999 104.188 C-173.912 101.76 -169.767 99.435 -165.633 97.09 C-162.9 95.529 -160.193 93.93 -157.492 92.316 C-156.725 91.859 -155.958 91.402 -155.168 90.932 C-153.671 90.038 -152.176 89.139 -150.684 88.236 C-150.002 87.83 -149.32 87.423 -148.617 87.004 C-148.015 86.641 -147.413 86.278 -146.792 85.905 C-144.883 84.941 -143.087 84.441 -141 84 C-141 83.34 -141 82.68 -141 82 C-140.504 81.73 -140.008 81.459 -139.497 81.181 C-129.576 75.765 -119.69 70.294 -109.875 64.688 C-109.036 64.209 -108.197 63.73 -107.333 63.237 C-103.187 60.862 -99.068 58.449 -94.977 55.98 C-90.201 53.104 -85.37 50.339 -80.5 47.625 C-79.703 47.175 -78.907 46.725 -78.086 46.262 C-77.325 45.838 -76.565 45.414 -75.781 44.977 C-75.101 44.596 -74.421 44.215 -73.721 43.823 C-72 43 -72 43 -70 43 C-70 42.34 -70 41.68 -70 41 C-68.759 40.36 -68.759 40.36 -67.492 39.707 C-49.598 30.376 -32.444 19.713 -15.234 9.191 C-14.371 8.667 -13.508 8.142 -12.619 7.602 C-10.798 6.488 -8.984 5.36 -7.178 4.222 C-6.279 3.663 -5.379 3.104 -4.453 2.527 C-3.645 2.018 -2.837 1.509 -2.005 0.984 C-1.343 0.659 -0.682 0.335 0 0 Z " fill="#F8542D" transform="translate(750,650)"/>
<path d="M0 0 C1.813 2.72 3.208 5.451 4.613 8.394 C8.37 16.213 12.495 23.25 18 30 C18.699 30.862 19.397 31.725 20.117 32.613 C30.902 45.259 45.934 53.19 60 61.688 C68.235 66.678 76.409 71.751 84.527 76.93 C89.938 80.37 95.423 83.605 101.043 86.695 C101.689 87.126 102.335 87.556 103 88 C103 88.66 103 89.32 103 90 C103.865 90.257 104.73 90.513 105.621 90.777 C109.12 92.043 111.903 93.601 115.062 95.562 C116.373 96.365 117.684 97.166 118.996 97.965 C119.759 98.43 120.522 98.895 121.308 99.375 C126.417 102.459 131.563 105.48 136.71 108.5 C138.576 109.596 140.441 110.696 142.305 111.795 C150.109 116.384 157.997 120.767 166 125 C166 125.66 166 126.32 166 127 C166.79 127.211 167.58 127.423 168.395 127.641 C173.2 129.453 177.33 132.056 181.688 134.75 C183.479 135.843 185.272 136.934 187.066 138.023 C187.921 138.543 188.776 139.062 189.657 139.597 C193.255 141.751 196.932 143.74 200.633 145.711 C203.134 147.073 205.566 148.521 208 150 C211.231 151.96 214.485 153.833 217.812 155.625 C223.282 158.576 228.672 161.657 234.062 164.75 C243.66 170.254 253.313 175.654 263 181 C259.617 181.976 257.434 181.859 254 181 C254 180.01 254 179.02 254 178 C253.299 177.918 252.597 177.835 251.875 177.75 C248.347 176.83 245.999 175.042 243 173 C242.319 172.835 241.639 172.67 240.938 172.5 C239 172 239 172 236.438 169.938 C234.128 167.689 234.128 167.689 231 168 C231 167.34 231 166.68 231 166 C230.278 165.753 229.556 165.505 228.812 165.25 C226 164 226 164 223.75 162.125 C220.769 159.821 217.924 158.593 214.477 157.141 C210.898 155.492 207.604 153.445 204.262 151.367 C202.066 149.987 202.066 149.987 199.895 149.008 C198 148 198 148 196.699 146.605 C194.12 144.169 190.98 142.834 187.812 141.312 C187.158 140.992 186.504 140.672 185.83 140.342 C184.223 139.556 182.612 138.777 181 138 C181 137.34 181 136.68 181 136 C179.35 136 177.7 136 176 136 C176 135.34 176 134.68 176 134 C175.01 134 174.02 134 173 134 C173 133.34 173 132.68 173 132 C172.34 132 171.68 132 171 132 C171 131.34 171 130.68 171 130 C170.374 129.795 169.747 129.59 169.102 129.379 C167.876 128.975 167.876 128.975 166.625 128.562 C165.813 128.296 165.001 128.029 164.164 127.754 C162 127 162 127 160 126 C160 125.34 160 124.68 160 124 C159.188 123.847 159.188 123.847 158.359 123.691 C155.394 122.822 152.945 121.445 150.25 119.938 C149.265 119.39 148.28 118.842 147.266 118.277 C146.518 117.856 145.77 117.434 145 117 C145 116.34 145 115.68 145 115 C142.03 114.505 142.03 114.505 139 114 C139 113.34 139 112.68 139 112 C137.35 111.67 135.7 111.34 134 111 C133.67 110.01 133.34 109.02 133 108 C131.35 107.67 129.7 107.34 128 107 C128 106.34 128 105.68 128 105 C126.701 104.598 126.701 104.598 125.375 104.188 C120.888 102.609 116.955 100.637 113 98 C113 97.34 113 96.68 113 96 C111.35 96 109.7 96 108 96 C108 95.34 108 94.68 108 94 C106.02 93.34 104.04 92.68 102 92 C102 91.34 102 90.68 102 90 C101.34 90 100.68 90 100 90 C100 89.34 100 88.68 100 88 C99.257 87.876 98.515 87.753 97.75 87.625 C94.022 86.778 91.706 85.706 89 83 C88.154 82.505 87.309 82.01 86.438 81.5 C84 80 84 80 83 78 C82.423 77.856 81.845 77.711 81.25 77.562 C78.43 76.857 76.379 75.652 74 74 C74 73.34 74 72.68 74 72 C72.02 72 70.04 72 68 72 C67.754 71.384 67.508 70.768 67.254 70.133 C65.752 67.578 64.623 67.035 61.938 65.875 C58.097 64.194 58.097 64.194 57 62 C56.01 62 55.02 62 54 62 C54 61.34 54 60.68 54 60 C53.34 59.773 52.68 59.546 52 59.312 C48.711 57.874 45.863 56.085 42.867 54.121 C40.893 52.843 40.893 52.843 38 52 C37.196 51.175 36.391 50.35 35.562 49.5 C33.163 47.159 32.229 46.359 29 46 C29 45.34 29 44.68 29 44 C28.257 43.567 27.515 43.134 26.75 42.688 C23.721 40.829 22.139 38.803 20 36 C19.34 35.67 18.68 35.34 18 35 C17 33.333 16 31.667 15 30 C14.34 29.67 13.68 29.34 13 29 C12.67 28.01 12.34 27.02 12 26 C11.484 25.484 10.969 24.969 10.438 24.438 C9.963 23.963 9.489 23.489 9 23 C9 22.34 9 21.68 9 21 C8.34 21 7.68 21 7 21 C6.723 20.362 6.446 19.724 6.16 19.066 C5.798 18.24 5.436 17.414 5.062 16.562 C4.523 15.327 4.523 15.327 3.973 14.066 C3.169 12.056 3.169 12.056 2 11 C1.959 9.334 1.957 7.666 2 6 C1.34 6 0.68 6 0 6 C0 4.02 0 2.04 0 0 Z " fill="#F5532E" transform="translate(210,584)"/>
<path d="M0 0 C4.335 0.834 7.259 2.347 10.25 5.625 C11.5 9.375 11.5 9.375 11.852 11.438 C12.428 14.603 13.568 17.529 14.664 20.547 C15.25 22.625 15.25 22.625 15.25 26.625 C15.972 26.76 16.694 26.896 17.438 27.035 C25.015 28.624 32.374 31.06 39.25 34.625 C39.25 35.615 39.25 36.605 39.25 37.625 C39.91 37.955 40.57 38.285 41.25 38.625 C41.169 41.371 40.678 43.129 38.871 45.223 C34.911 48.828 31.537 50.428 26.25 51.625 C24.902 52.262 23.564 52.921 22.25 53.625 C21.26 53.955 20.27 54.285 19.25 54.625 C17.105 55.338 17.105 55.338 15.25 56.625 C14.336 58.693 14.336 58.693 14 61.062 C13.85 61.845 13.701 62.627 13.547 63.434 C13.183 65.752 13.183 65.752 13.25 68.625 C12.59 69.285 11.93 69.945 11.25 70.625 C8.531 74.434 8.531 74.434 7.25 78.625 C5.836 78.849 4.418 79.053 3 79.25 C2.211 79.366 1.422 79.482 0.609 79.602 C-2.121 79.629 -3.487 79.125 -5.75 77.625 C-6.875 75.187 -6.875 75.187 -7.75 72.625 C-8.41 71.635 -9.07 70.645 -9.75 69.625 C-10.133 67.296 -10.484 64.962 -10.812 62.625 C-11.588 57.858 -11.588 57.858 -14.453 54.285 C-16.587 53.643 -16.587 53.643 -18.922 53.266 C-22.715 52.406 -25.878 50.725 -29.312 48.938 C-29.945 48.615 -30.577 48.292 -31.228 47.959 C-32.738 47.187 -34.244 46.407 -35.75 45.625 C-35.75 44.965 -35.75 44.305 -35.75 43.625 C-35.131 43.893 -34.513 44.161 -33.875 44.438 C-31.27 45.428 -28.742 46.195 -26.062 46.938 C-12.365 51.14 -12.365 51.14 -9.228 55.968 C-8.059 58.718 -7.118 61.453 -6.25 64.312 C-5.618 66.214 -4.983 68.113 -4.344 70.012 C-4.083 70.849 -3.822 71.687 -3.553 72.55 C-2.842 74.802 -2.842 74.802 -0.75 76.625 C1.75 76.958 1.75 76.958 4.25 76.625 C6.776 74.099 7.208 72.041 8.25 68.625 C9.033 66.059 9.825 63.498 10.625 60.938 C10.821 60.274 11.017 59.611 11.219 58.928 C12.48 54.964 13.505 52.588 17.25 50.625 C19.258 50.07 19.258 50.07 21.375 49.75 C26.114 48.838 29.959 46.936 34.184 44.648 C36.25 43.625 36.25 43.625 38.25 43.625 C37.915 40.72 37.706 39.091 36.25 36.625 C30.975 33.341 24.443 31.998 18.477 30.434 C15.89 29.494 14.245 28.529 12.25 26.625 C11.344 24.312 11.344 24.312 10.75 21.625 C9.337 15.778 7.39 10.241 5.25 4.625 C2.399 3.858 2.399 3.858 -0.75 3.625 C-4.14 5.977 -5.064 9.562 -6.438 13.312 C-6.874 14.492 -7.311 15.671 -7.762 16.887 C-8.088 17.79 -8.414 18.694 -8.75 19.625 C-9.41 19.625 -10.07 19.625 -10.75 19.625 C-10.875 16.75 -10.875 16.75 -10.75 13.625 C-10.09 12.965 -9.43 12.305 -8.75 11.625 C-9.08 10.965 -9.41 10.305 -9.75 9.625 C-8.76 9.625 -7.77 9.625 -6.75 9.625 C-6.647 9.068 -6.544 8.511 -6.438 7.938 C-4.373 0.994 -4.373 0.994 0 0 Z " fill="#32847B" transform="translate(106.75,49.375)"/>
<path d="M0 0 C1.813 2.72 3.208 5.451 4.613 8.394 C8.37 16.213 12.495 23.25 18 30 C18.699 30.862 19.397 31.725 20.117 32.613 C30.902 45.26 45.934 53.188 60 61.688 C67.573 66.283 75.125 70.91 82.625 75.625 C83.4 76.109 84.174 76.594 84.973 77.093 C88.839 79.534 92.494 82.048 96 85 C93.625 85.125 93.625 85.125 91 85 C90.34 84.34 89.68 83.68 89 83 C88.154 82.505 87.309 82.01 86.438 81.5 C84 80 84 80 83 78 C82.423 77.856 81.845 77.711 81.25 77.562 C78.43 76.857 76.379 75.652 74 74 C74 73.34 74 72.68 74 72 C72.02 72 70.04 72 68 72 C67.754 71.384 67.508 70.768 67.254 70.133 C65.752 67.578 64.623 67.035 61.938 65.875 C58.097 64.194 58.097 64.194 57 62 C56.01 62 55.02 62 54 62 C54 61.34 54 60.68 54 60 C53.34 59.773 52.68 59.546 52 59.312 C48.711 57.874 45.863 56.085 42.867 54.121 C40.893 52.843 40.893 52.843 38 52 C37.196 51.175 36.391 50.35 35.562 49.5 C33.163 47.159 32.229 46.359 29 46 C29 45.34 29 44.68 29 44 C28.257 43.567 27.515 43.134 26.75 42.688 C23.721 40.829 22.139 38.803 20 36 C19.34 35.67 18.68 35.34 18 35 C17 33.333 16 31.667 15 30 C14.34 29.67 13.68 29.34 13 29 C12.67 28.01 12.34 27.02 12 26 C11.484 25.484 10.969 24.969 10.438 24.438 C9.963 23.963 9.489 23.489 9 23 C9 22.34 9 21.68 9 21 C8.34 21 7.68 21 7 21 C6.723 20.362 6.446 19.724 6.16 19.066 C5.798 18.24 5.436 17.414 5.062 16.562 C4.523 15.327 4.523 15.327 3.973 14.066 C3.169 12.056 3.169 12.056 2 11 C1.959 9.334 1.957 7.666 2 6 C1.34 6 0.68 6 0 6 C0 4.02 0 2.04 0 0 Z " fill="#EB502E" transform="translate(210,584)"/>
<path d="M0 0 C1.796 2.661 2.033 3.781 1.539 7.016 C1.237 8.083 0.936 9.15 0.625 10.25 C0.329 11.328 0.032 12.405 -0.273 13.516 C-0.513 14.335 -0.753 15.155 -1 16 C-1.66 16 -2.32 16 -3 16 C-2.938 17.237 -2.876 18.475 -2.812 19.75 C-2.799 23.467 -3.361 25.255 -6 28 C-6.33 28.66 -6.66 29.32 -7 30 C-7.66 30 -8.32 30 -9 30 C-9.103 30.722 -9.206 31.444 -9.312 32.188 C-10.09 35.367 -11.195 37.261 -13 40 C-13.436 40.695 -13.871 41.39 -14.32 42.105 C-17.454 47.003 -20.641 51.136 -25 55 C-25.66 55 -26.32 55 -27 55 C-27 55.66 -27 56.32 -27 57 C-30.462 60 -30.462 60 -33 60 C-33 60.66 -33 61.32 -33 62 C-35.23 64.164 -35.23 64.164 -38.188 66.625 C-39.15 67.442 -40.113 68.26 -41.105 69.102 C-44.146 71.096 -45.458 71.453 -49 71 C-49.33 71.99 -49.66 72.98 -50 74 C-54.805 77.04 -59.9 79.495 -65 82 C-65 81.01 -65 80.02 -65 79 C-62.465 77.318 -59.973 75.834 -57.312 74.375 C-42.019 65.677 -28.557 56.286 -18 42 C-17.477 41.304 -16.953 40.608 -16.414 39.891 C-7.811 27.783 -3.542 14.249 0 0 Z " fill="#EA5733" transform="translate(818,569)"/>
<path d="M0 0 C1 3 1 3 -0.688 6.5 C-1.25 7.579 -1.25 7.579 -1.824 8.68 C-10.9 26.591 -11.602 47.268 -11.391 66.93 C-11.383 69.028 -11.377 71.127 -11.373 73.225 C-11.358 78.667 -11.319 84.108 -11.275 89.549 C-11.233 95.134 -11.215 100.719 -11.195 106.305 C-11.153 117.203 -11.085 128.102 -11 139 C-11.66 139 -12.32 139 -13 139 C-13.154 126.422 -13.302 113.844 -13.443 101.266 C-13.509 95.425 -13.576 89.585 -13.648 83.745 C-13.718 78.11 -13.782 72.476 -13.843 66.841 C-13.867 64.69 -13.893 62.538 -13.921 60.387 C-13.959 57.377 -13.991 54.368 -14.022 51.358 C-14.035 50.466 -14.048 49.573 -14.061 48.653 C-14.072 47.421 -14.072 47.421 -14.082 46.164 C-14.091 45.452 -14.099 44.74 -14.107 44.007 C-13.994 41.888 -13.561 40.042 -13 38 C-12.791 36.586 -12.603 35.169 -12.438 33.75 C-12.293 32.512 -12.149 31.275 -12 30 C-11.34 30 -10.68 30 -10 30 C-10.186 29.257 -10.371 28.515 -10.562 27.75 C-11.385 22.581 -8.956 17.876 -7.188 13.062 C-6.939 12.359 -6.691 11.656 -6.436 10.932 C-4.86 6.653 -3.101 3.437 0 0 Z " fill="#565138" transform="translate(217,279)"/>
<path d="M0 0 C0.33 0.99 0.66 1.98 1 3 C2.985 3.709 4.989 4.367 7 5 C8.682 5.938 10.363 6.88 12.02 7.863 C16.67 10.533 21.544 12.829 26.383 15.137 C31.898 17.795 31.898 17.795 33 20 C34.775 21.127 34.775 21.127 36.875 22.125 C37.574 22.478 38.272 22.831 38.992 23.195 C41.104 24.186 41.104 24.186 44 24 C44 24.66 44 25.32 44 26 C45.052 26.268 46.104 26.536 47.188 26.812 C50.597 27.874 53.102 28.954 56 31 C56.495 31.99 56.495 31.99 57 33 C58.694 33.731 60.391 34.457 62.102 35.148 C64.956 36.429 67.419 38.243 70 40 C71.093 40.536 72.186 41.072 73.312 41.625 C76 43 76 43 77 45 C73.237 44.293 70.218 42.657 66.855 40.859 C66.257 40.541 65.66 40.222 65.043 39.894 C63.089 38.851 61.138 37.801 59.188 36.75 C57.831 36.023 56.474 35.297 55.117 34.57 C45.938 29.644 36.855 24.563 27.813 19.392 C21.102 15.571 14.29 12.043 7.352 8.656 C3.15 6.58 -0.943 4.344 -5 2 C-5 1.67 -5 1.34 -5 1 C-3.35 0.67 -1.7 0.34 0 0 Z " fill="#277767" transform="translate(552,120)"/>
<path d="M0 0 C1.208 -0.021 2.416 -0.041 3.66 -0.062 C10.769 -0.093 16.422 0.603 23 3.25 C24.658 3.622 26.322 3.979 28 4.25 C28 4.91 28 5.57 28 6.25 C28.949 6.353 29.898 6.456 30.875 6.562 C34 7.25 34 7.25 36 10.25 C32.308 9.439 28.853 8.125 25.312 6.812 C7.922 0.583 -6.798 0.762 -24 7.25 C-25.439 7.751 -25.439 7.751 -26.906 8.262 C-32.124 10.17 -36.431 12.673 -40.895 15.98 C-43.264 17.409 -45.279 17.856 -48 18.25 C-48 17.59 -48 16.93 -48 16.25 C-47.34 16.25 -46.68 16.25 -46 16.25 C-46 15.59 -46 14.93 -46 14.25 C-42.545 12.577 -39.085 10.913 -35.625 9.25 C-34.64 8.773 -33.655 8.296 -32.641 7.805 C-31.7 7.354 -30.759 6.902 -29.789 6.438 C-28.92 6.019 -28.05 5.6 -27.155 5.168 C-25 4.25 -25 4.25 -23 4.25 C-22.67 3.59 -22.34 2.93 -22 2.25 C-20.188 1.871 -20.188 1.871 -18 1.688 C-11.938 1.157 -6.542 0.027 0 0 Z " fill="#146552" transform="translate(511,110.75)"/>
<path d="M0 0 C1.485 0.99 1.485 0.99 3 2 C3 2.99 3 3.98 3 5 C3.66 5.33 4.32 5.66 5 6 C7.852 9.964 9.022 14.124 10.125 18.812 C10.294 19.486 10.463 20.16 10.637 20.854 C11.494 24.379 12.141 27.844 12.555 31.449 C12.608 34.812 12.608 34.812 14 36 C14.095 38.556 14.126 41.085 14.114 43.641 C14.114 44.441 14.114 45.241 14.114 46.065 C14.113 48.722 14.105 51.378 14.098 54.035 C14.096 55.872 14.094 57.709 14.093 59.546 C14.09 64.391 14.08 69.236 14.069 74.081 C14.058 79.021 14.054 83.961 14.049 88.9 C14.038 98.6 14.021 108.3 14 118 C13.67 118 13.34 118 13 118 C13.001 117.093 13.002 116.186 13.002 115.252 C13.005 106.577 12.977 97.903 12.92 89.228 C12.891 84.772 12.873 80.316 12.88 75.859 C12.911 51.28 12.932 26.452 1.102 4.125 C0 2 0 2 0 0 Z " fill="#5C4F31" transform="translate(807,277)"/>
<path d="M0 0 C0.763 0.062 1.526 0.124 2.312 0.188 C-0.625 3.398 -3.5 5.376 -7.344 7.395 C-8.45 7.982 -9.556 8.569 -10.695 9.174 C-11.848 9.776 -13 10.379 -14.188 11 C-21.878 15.053 -29.471 19.198 -36.959 23.614 C-40.607 25.718 -44.335 27.606 -48.125 29.438 C-53.412 32.004 -53.412 32.004 -58.473 34.984 C-59.204 35.381 -59.934 35.778 -60.688 36.188 C-61.678 35.858 -62.668 35.528 -63.688 35.188 C-63.027 35.188 -62.368 35.188 -61.688 35.188 C-61.358 34.197 -61.027 33.208 -60.688 32.188 C-59.045 31.463 -57.371 30.81 -55.688 30.188 C-53.982 29.222 -52.276 28.255 -50.582 27.27 C-41.123 21.867 -41.123 21.867 -35.688 21.188 C-35.688 20.528 -35.688 19.868 -35.688 19.188 C-25.688 14.188 -25.688 14.188 -23.52 13.117 C-20.09 11.377 -16.885 9.319 -13.688 7.188 C-12.697 7.188 -11.707 7.188 -10.688 7.188 C-10.358 6.528 -10.028 5.868 -9.688 5.188 C-8.354 4.521 -7.021 3.854 -5.688 3.188 C-5.213 2.651 -4.739 2.115 -4.25 1.562 C-2.688 0.188 -2.688 0.188 0 0 Z " fill="#387869" transform="translate(389.6875,168.8125)"/>
<path d="M0 0 C3.132 2.036 4.783 3.111 5.688 6.812 C4.711 11.341 2.473 13.998 -1 17 C-3.812 18.25 -3.812 18.25 -7 19 C-8.525 19.487 -10.046 19.988 -11.562 20.5 C-12.719 20.885 -12.719 20.885 -13.898 21.277 C-16.301 22.104 -18.646 23.046 -21 24 C-24.648 25.292 -28.188 26.327 -32 27 C-32 27.66 -32 28.32 -32 29 C-32.66 29.66 -33.32 30.32 -34 31 C-34.495 32.485 -34.495 32.485 -35 34 C-35.33 34 -35.66 34 -36 34 C-36.438 31.375 -36.438 31.375 -36 28 C-31.648 22.565 -26.51 20.896 -19.875 19.812 C-14.642 18.889 -10.43 18.133 -6 15 C-4.391 13.948 -4.391 13.948 -2.75 12.875 C-0.198 11.259 -0.198 11.259 1 10 C1.136 6.337 1.165 3.494 0 0 Z " fill="#FD8A41" transform="translate(965,763)"/>
<path d="M0 0 C6.106 0.366 8.921 1.622 13 6 C13.375 8.812 13.375 8.812 13 11 C13.66 11 14.32 11 15 11 C15.124 11.969 15.247 12.939 15.375 13.938 C15.684 15.453 15.684 15.453 16 17 C16.66 17.33 17.32 17.66 18 18 C17.907 19.083 17.907 19.083 17.812 20.188 C18.035 23.529 19.128 25.27 21 28 C16.125 27.125 16.125 27.125 15 26 C14.675 24.486 14.391 22.963 14.125 21.438 C12.286 11.479 12.286 11.479 6 4 C2.56 3.427 0.82 3.469 -2.125 5.375 C-4.895 9.253 -6.398 13.534 -8 18 C-8.33 18 -8.66 18 -9 18 C-8.546 12.554 -7.398 7.423 -4 3 C-1.863 2.273 -1.863 2.273 0 2 C0 1.34 0 0.68 0 0 Z " fill="#FD8A41" transform="translate(910,712)"/>
<path d="M0 0 C1.32 0.33 2.64 0.66 4 1 C0.475 3.546 -3.092 5.591 -7 7.5 C-13.239 10.561 -19.339 13.857 -25.438 17.188 C-26.397 17.711 -27.357 18.234 -28.346 18.773 C-33.567 21.61 -33.567 21.61 -38.617 24.732 C-39.404 25.15 -40.19 25.569 -41 26 C-41.99 25.67 -42.98 25.34 -44 25 C-43.01 24.67 -42.02 24.34 -41 24 C-40.67 23.34 -40.34 22.68 -40 22 C-38.886 21.526 -37.772 21.051 -36.625 20.562 C-33.159 19.351 -33.159 19.351 -31.684 17.609 C-29.247 15.28 -26.471 14.136 -23.438 12.688 C-18.971 10.532 -14.7 8.278 -10.5 5.625 C-7.005 3.456 -4.195 2.221 0 2 C0 1.34 0 0.68 0 0 Z " fill="#3B7262" transform="translate(322,205)"/>
<path d="M0 0 C0.99 0.66 1.98 1.32 3 2 C-3.625 5 -3.625 5 -7 5 C-7.33 5.99 -7.66 6.98 -8 8 C-9.98 8.33 -11.96 8.66 -14 9 C-14.169 10.437 -14.335 11.875 -14.5 13.312 C-14.593 14.113 -14.686 14.914 -14.781 15.738 C-15.048 18.119 -15.048 18.119 -15 21 C-14.216 21.124 -13.433 21.247 -12.625 21.375 C-10 22 -10 22 -8 24 C-5.682 24.719 -3.349 25.391 -1 26 C-1 26.66 -1 27.32 -1 28 C-2.65 28 -4.3 28 -6 28 C-6 27.34 -6 26.68 -6 26 C-7.65 26 -9.3 26 -11 26 C-11 25.34 -11 24.68 -11 24 C-12.145 23.691 -12.145 23.691 -13.312 23.375 C-16.905 21.537 -17.61 19.732 -19 16 C-19.188 13.125 -19.188 13.125 -19 11 C-18.34 11 -17.68 11 -17 11 C-17 10.01 -17 9.02 -17 8 C-13.049 4.73 -8.208 3.901 -3.328 2.746 C-2.176 2.377 -2.176 2.377 -1 2 C-0.67 1.34 -0.34 0.68 0 0 Z " fill="#FD8A40" transform="translate(875,756)"/>
<path d="M0 0 C1 3 1 3 -0.688 6.5 C-1.25 7.579 -1.25 7.579 -1.824 8.68 C-7.44 19.763 -9.003 31.866 -11 44 C-11.99 43.34 -12.98 42.68 -14 42 C-13.856 41.505 -13.711 41.01 -13.562 40.5 C-12.78 37.022 -12.413 33.54 -12 30 C-11.34 30 -10.68 30 -10 30 C-10.186 29.257 -10.371 28.515 -10.562 27.75 C-11.385 22.581 -8.956 17.876 -7.188 13.062 C-6.939 12.359 -6.691 11.656 -6.436 10.932 C-4.86 6.653 -3.101 3.437 0 0 Z " fill="#516A56" transform="translate(217,279)"/>
<path d="M0 0 C5.607 -0.251 10.174 1.15 15 4 C17.837 8.61 18.758 13.766 20 19 C20.33 19.66 20.66 20.32 21 21 C21.04 23.333 21.043 25.667 21 28 C20.34 27.67 19.68 27.34 19 27 C18.254 24.707 18.254 24.707 17.562 21.812 C16.475 17.538 15.099 13.898 13 10 C13 9.34 13 8.68 13 8 C12.34 7.67 11.68 7.34 11 7 C10.67 6.34 10.34 5.68 10 5 C7.59 3.753 7.59 3.753 5 3 C4.01 3.495 4.01 3.495 3 4 C1 2 1 2 0 0 Z " fill="#FD853F" transform="translate(882,787)"/>
<path d="M0 0 C0.688 1.75 0.688 1.75 1 4 C-0.444 6.466 -1.448 7.761 -4.094 8.906 C-4.888 9.102 -5.682 9.298 -6.5 9.5 C-10.427 10.553 -14.239 11.739 -18.062 13.125 C-18.982 13.458 -19.901 13.79 -20.848 14.133 C-22.945 14.815 -22.945 14.815 -24 16 C-24.368 18.328 -24.702 20.662 -25 23 C-25.66 22.67 -26.32 22.34 -27 22 C-27.25 16.375 -27.25 16.375 -25 13 C-24.34 13 -23.68 13 -23 13 C-22.67 12.01 -22.34 11.02 -22 10 C-21.29 9.951 -20.579 9.902 -19.848 9.852 C-18.469 9.739 -18.469 9.739 -17.062 9.625 C-16.146 9.555 -15.229 9.486 -14.285 9.414 C-13.154 9.209 -13.154 9.209 -12 9 C-11.67 8.34 -11.34 7.68 -11 7 C-10.34 7.33 -9.68 7.66 -9 8 C-9 7.34 -9 6.68 -9 6 C-8.257 5.938 -7.515 5.876 -6.75 5.812 C-3.181 4.758 -2.078 3.001 0 0 Z " fill="#33857B" transform="translate(96,70)"/>
<path d="M0 0 C4.545 1.219 7.723 3.041 11.387 5.879 C13.122 7.197 13.122 7.197 16 8 C16 8.66 16 9.32 16 10 C17.114 9.876 17.114 9.876 18.25 9.75 C21.832 10.076 22.627 11.398 25 14 C27.193 15.274 29.288 16.101 31.688 16.938 C32.451 17.288 33.214 17.639 34 18 C34.495 19.485 34.495 19.485 35 21 C31.888 20.354 29.431 19.282 26.656 17.742 C25.827 17.284 24.998 16.826 24.144 16.355 C23.271 15.866 22.399 15.378 21.5 14.875 C20.61 14.381 19.719 13.887 18.802 13.378 C12.149 9.674 5.543 5.896 -1 2 C-0.67 1.34 -0.34 0.68 0 0 Z " fill="#377865" transform="translate(642,171)"/>
<path d="M0 0 C0.66 0.66 1.32 1.32 2 2 C-1.436 4.045 -4.874 6.085 -8.312 8.125 C-9.27 8.695 -10.227 9.265 -11.213 9.852 C-30.383 21.212 -30.383 21.212 -37 23 C-37 22.34 -37 21.68 -37 21 C-32.615 18 -32.615 18 -30 18 C-29.67 17.34 -29.34 16.68 -29 16 C-23.692 13 -23.692 13 -20 13 C-20 12.34 -20 11.68 -20 11 C-16.633 8.568 -15.266 8 -11 8 C-10.67 7.34 -10.34 6.68 -10 6 C-8.345 4.908 -6.651 3.873 -4.938 2.875 C-4.018 2.336 -3.099 1.797 -2.152 1.242 C-1.442 0.832 -0.732 0.422 0 0 Z " fill="#2B7A6A" transform="translate(461,128)"/>
<path d="M0 0 C1.98 0 3.96 0 6 0 C6 0.99 6 1.98 6 3 C6.969 3.124 7.939 3.248 8.938 3.375 C10.453 3.684 10.453 3.684 12 4 C12.33 4.66 12.66 5.32 13 6 C15.025 6.652 15.025 6.652 17 7 C17 7.66 17 8.32 17 9 C17.566 9.126 18.132 9.253 18.715 9.383 C21.114 10.031 23.286 10.881 25.562 11.875 C26.327 12.202 27.091 12.53 27.879 12.867 C30.03 14.016 31.321 15.26 33 17 C35.599 18.19 35.599 18.19 38 19 C38 19.66 38 20.32 38 21 C33.546 20.433 30.625 18.731 26.875 16.312 C25.723 15.581 24.569 14.852 23.414 14.125 C22.554 13.584 22.554 13.584 21.677 13.031 C17.559 10.499 13.26 8.281 9 6 C7.269 5.045 5.54 4.087 3.812 3.125 C3.076 2.715 2.34 2.305 1.582 1.883 C1.06 1.591 0.538 1.3 0 1 C0 0.67 0 0.34 0 0 Z " fill="#3D725D" transform="translate(706,208)"/>
<path d="M0 0 C1.485 0.99 1.485 0.99 3 2 C3 2.99 3 3.98 3 5 C3.66 5.33 4.32 5.66 5 6 C7.852 9.964 9.022 14.124 10.125 18.812 C10.294 19.486 10.463 20.16 10.637 20.854 C11.494 24.379 12.141 27.844 12.555 31.449 C12.608 34.812 12.608 34.812 14 36 C14.041 37.666 14.043 39.334 14 41 C13.34 41 12.68 41 12 41 C11.85 40.28 11.699 39.561 11.544 38.82 C7.943 20.932 7.943 20.932 1.102 4.125 C0 2 0 2 0 0 Z " fill="#51684E" transform="translate(807,277)"/>
<path d="M0 0 C1.813 2.72 3.208 5.453 4.615 8.395 C7.969 15.383 11.516 21.571 16.336 27.668 C18.028 30.039 19.037 32.261 20 35 C19.34 35 18.68 35 18 35 C16.981 33.345 15.982 31.677 15 30 C14.34 29.67 13.68 29.34 13 29 C12.67 28.01 12.34 27.02 12 26 C11.484 25.484 10.969 24.969 10.438 24.438 C9.963 23.963 9.489 23.489 9 23 C9 22.34 9 21.68 9 21 C8.34 21 7.68 21 7 21 C6.723 20.362 6.446 19.724 6.16 19.066 C5.798 18.24 5.436 17.414 5.062 16.562 C4.523 15.327 4.523 15.327 3.973 14.066 C3.169 12.056 3.169 12.056 2 11 C1.959 9.334 1.957 7.666 2 6 C1.34 6 0.68 6 0 6 C0 4.02 0 2.04 0 0 Z " fill="#E05335" transform="translate(210,584)"/>
<path d="M0 0 C0.928 0.825 1.856 1.65 2.812 2.5 C10.209 8.825 18.21 14.267 26.492 19.359 C29.137 21.09 31.563 22.991 34 25 C29.5 24.578 26.53 22.608 22.867 20.156 C20.899 18.838 20.899 18.838 18 18 C17.196 17.175 16.391 16.35 15.562 15.5 C13.163 13.159 12.229 12.359 9 12 C9 11.34 9 10.68 9 10 C8.257 9.567 7.515 9.134 6.75 8.688 C3.702 6.817 2.025 4.926 0 2 C0 1.34 0 0.68 0 0 Z " fill="#E54928" transform="translate(230,618)"/>
<path d="M0 0 C0.99 0 1.98 0 3 0 C3 0.66 3 1.32 3 2 C2.34 2 1.68 2 1 2 C1 2.66 1 3.32 1 4 C0.238 4.291 -0.524 4.583 -1.309 4.883 C-7.384 7.295 -12.721 9.845 -17.965 13.766 C-20.299 15.181 -22.315 15.608 -25 16 C-25 15.34 -25 14.68 -25 14 C-24.34 14 -23.68 14 -23 14 C-23 13.34 -23 12.68 -23 12 C-19.545 10.327 -16.085 8.663 -12.625 7 C-11.148 6.285 -11.148 6.285 -9.641 5.555 C-8.7 5.104 -7.759 4.652 -6.789 4.188 C-5.92 3.769 -5.05 3.35 -4.155 2.918 C-2 2 -2 2 0 2 C0 1.34 0 0.68 0 0 Z " fill="#277968" transform="translate(488,113)"/>
<path d="M0 0 C1.621 3.243 0.16 6.383 -0.688 9.75 C-0.849 10.454 -1.011 11.158 -1.178 11.883 C-2.342 16.573 -3.892 20.19 -7 24 C-8.895 24.988 -8.895 24.988 -10.812 25.312 C-11.5 25.44 -12.187 25.568 -12.895 25.699 C-13.589 25.798 -14.284 25.898 -15 26 C-15.684 26.11 -16.369 26.219 -17.074 26.332 C-18.712 26.581 -20.356 26.794 -22 27 C-22 26.34 -22 25.68 -22 25 C-20.701 24.814 -20.701 24.814 -19.375 24.625 C-16.105 24.019 -13.142 23.071 -10 22 C-9.34 22 -8.68 22 -8 22 C-5.838 17.662 -5.838 17.662 -5 13 C-4.34 13 -3.68 13 -3 13 C-3.062 11.969 -3.124 10.938 -3.188 9.875 C-2.989 5.765 -2.055 3.511 0 0 Z " fill="#FD803D" transform="translate(900,730)"/>
<path d="M0 0 C0.742 0.454 1.485 0.907 2.25 1.375 C5.324 3.191 8.289 4.729 11.625 6 C14.434 7.183 15.637 8.275 17 11 C18.656 11.382 20.325 11.714 22 12 C22.66 12.33 23.32 12.66 24 13 C24 13.66 24 14.32 24 15 C18.323 14.101 14.099 11.482 9.188 8.625 C8.304 8.13 7.42 7.635 6.51 7.125 C5.675 6.643 4.84 6.161 3.98 5.664 C3.216 5.225 2.452 4.787 1.665 4.334 C1.115 3.894 0.566 3.454 0 3 C0 2.01 0 1.02 0 0 Z " fill="#49745D" transform="translate(745,228)"/>
<path d="M0 0 C0.66 0.33 1.32 0.66 2 1 C-5.714 11.204 -5.714 11.204 -10 15 C-10.66 15 -11.32 15 -12 15 C-12 15.66 -12 16.32 -12 17 C-14.5 18.625 -14.5 18.625 -17 20 C-17 19.01 -17 18.02 -17 17 C-15.592 15.793 -14.176 14.595 -12.715 13.453 C-10.335 11.436 -8.444 9.11 -6.457 6.715 C-4.433 4.333 -2.242 2.176 0 0 Z " fill="#EC5D3A" transform="translate(803,609)"/>
<path d="M0 0 C0.99 0.66 1.98 1.32 3 2 C-3 5 -9 8 -15 11 C-15.66 10.01 -16.32 9.02 -17 8 C-16.165 7.636 -16.165 7.636 -15.312 7.266 C-10.127 4.988 -5.047 2.57 0 0 Z " fill="#FB5D36" transform="translate(559,762)"/>
<path d="M0 0 C5.605 1.578 10.351 4.264 15.375 7.125 C16.206 7.593 17.038 8.061 17.895 8.543 C19.932 9.691 21.967 10.843 24 12 C20.617 12.976 18.434 12.859 15 12 C15 11.01 15 10.02 15 9 C14.285 8.907 13.569 8.814 12.832 8.719 C9.514 7.877 7.454 6.5 4.688 4.5 C3.804 3.871 2.921 3.242 2.012 2.594 C1.348 2.068 0.684 1.542 0 1 C0 0.67 0 0.34 0 0 Z " fill="#FA4D24" transform="translate(449,753)"/>
<path d="M0 0 C0.99 0.66 1.98 1.32 3 2 C-3.625 5 -3.625 5 -7 5 C-7.33 5.99 -7.66 6.98 -8 8 C-9.98 8.33 -11.96 8.66 -14 9 C-14.33 9.99 -14.66 10.98 -15 12 C-16.32 11.67 -17.64 11.34 -19 11 C-18.34 11 -17.68 11 -17 11 C-17 10.01 -17 9.02 -17 8 C-13.049 4.73 -8.208 3.901 -3.328 2.746 C-2.176 2.377 -2.176 2.377 -1 2 C-0.67 1.34 -0.34 0.68 0 0 Z " fill="#FD803E" transform="translate(875,756)"/>
<path d="M0 0 C0.611 0.191 1.223 0.381 1.853 0.577 C-1.268 2.418 -4.395 4.248 -7.522 6.077 C-8.412 6.602 -9.301 7.127 -10.218 7.667 C-11.068 8.164 -11.919 8.66 -12.796 9.171 C-13.974 9.862 -13.974 9.862 -15.176 10.568 C-17.147 11.577 -17.147 11.577 -19.147 11.577 C-19.147 10.587 -19.147 9.597 -19.147 8.577 C-18.339 8.179 -17.531 7.781 -16.698 7.37 C-15.629 6.841 -14.561 6.311 -13.46 5.765 C-12.404 5.243 -11.348 4.721 -10.26 4.183 C-7.162 2.658 -7.162 2.658 -4.503 0.816 C-2.147 -0.423 -2.147 -0.423 0 0 Z " fill="#3F6F5E" transform="translate(267.147216796875,236.422607421875)"/>
<path d="M0 0 C5.73 0.369 9.888 1.201 15 4 C15.99 4 16.98 4 18 4 C18 4.66 18 5.32 18 6 C19.423 6.155 19.423 6.155 20.875 6.312 C24 7 24 7 26 10 C22.304 9.177 18.809 7.907 15.25 6.625 C14.015 6.18 12.78 5.736 11.508 5.277 C7.662 3.877 3.826 2.454 0 1 C0 0.67 0 0.34 0 0 Z " fill="#247465" transform="translate(521,111)"/>
<path d="M0 0 C1.344 3.725 0.658 6.411 -0.312 10.188 C-0.709 11.787 -0.709 11.787 -1.113 13.418 C-2 16 -2 16 -4 17 C-4.487 10.299 -3.077 5.934 0 0 Z " fill="#FD7F3F" transform="translate(928,797)"/>
<path d="M0 0 C0.99 0.33 1.98 0.66 3 1 C0.611 3.617 -1.971 5.362 -5 7.188 C-5.866 7.717 -6.733 8.247 -7.625 8.793 C-10 10 -10 10 -13 10 C-13 9.34 -13 8.68 -13 8 C-11.21 7.023 -9.419 6.047 -7.629 5.07 C-5.834 4.086 -5.834 4.086 -5 2 C-3.677 1.628 -2.343 1.294 -1 1 C-0.67 0.67 -0.34 0.34 0 0 Z " fill="#317C6D" transform="translate(421,150)"/>
<path d="M0 0 C2.899 2.395 3.502 4.312 4 8 C4.66 8 5.32 8 6 8 C6 9.32 6 10.64 6 12 C8.31 12 10.62 12 13 12 C12.67 12.66 12.34 13.32 12 14 C9.69 13.67 7.38 13.34 5 13 C4.34 11.35 3.68 9.7 3 8 C2.34 8 1.68 8 1 8 C0.67 5.36 0.34 2.72 0 0 Z " fill="#FD8841" transform="translate(903,815)"/>
<path d="M0 0 C4.974 -0.622 8.991 1.18 13 4 C14.5 6.75 14.5 6.75 15 9 C14.01 9.495 14.01 9.495 13 10 C13 9.34 13 8.68 13 8 C12.34 7.67 11.68 7.34 11 7 C10.67 6.34 10.34 5.68 10 5 C7.59 3.753 7.59 3.753 5 3 C4.01 3.495 4.01 3.495 3 4 C1 2 1 2 0 0 Z " fill="#FE783D" transform="translate(882,787)"/>
<path d="M0 0 C0.33 0.66 0.66 1.32 1 2 C4.029 2.658 4.029 2.658 7 3 C7 3.66 7 4.32 7 5 C7.99 5 8.98 5 10 5 C10 5.66 10 6.32 10 7 C12.475 7.99 12.475 7.99 15 9 C15 9.66 15 10.32 15 11 C11.041 9.567 7.713 7.669 4.188 5.375 C3.212 4.743 2.236 4.112 1.23 3.461 C0.494 2.979 -0.242 2.497 -1 2 C-0.67 1.34 -0.34 0.68 0 0 Z " fill="#4F745C" transform="translate(771,243)"/>
<path d="M0 0 C1.98 0 3.96 0 6 0 C6.247 0.639 6.495 1.279 6.75 1.938 C7.779 4.173 7.779 4.173 9.875 4.5 C10.927 4.748 10.927 4.748 12 5 C14.25 7.062 14.25 7.062 16 9 C10.094 7.446 5.023 4.405 0 1 C0 0.67 0 0.34 0 0 Z " fill="#3A7764" transform="translate(677,192)"/>
<path d="M0 0 C4.065 0.52 7.563 1.956 11.312 3.562 C12.381 4.018 13.45 4.473 14.551 4.941 C15.763 5.465 15.763 5.465 17 6 C11.164 7.595 7.455 5.479 2 3 C1.01 2.34 0.02 1.68 -1 1 C-0.67 0.67 -0.34 0.34 0 0 Z " fill="#FA4D26" transform="translate(473,766)"/>
<path d="M0 0 C9.041 3.164 9.041 3.164 12 6 C12 6.66 12 7.32 12 8 C7.173 6.587 3.284 4.57 -1 2 C-0.67 1.34 -0.34 0.68 0 0 Z " fill="#3D7762" transform="translate(694,200)"/>
<path d="M0 0 C0.66 0.33 1.32 0.66 2 1 C0.417 2.272 -1.166 3.542 -2.75 4.812 C-3.632 5.52 -4.513 6.228 -5.422 6.957 C-7.59 8.675 -9.777 10.354 -12 12 C-9.718 6.218 -8.718 4.745 -3 2 C-2.01 1.34 -1.02 0.68 0 0 Z " fill="#426D5A" transform="translate(246,248)"/>
<path d="M0 0 C0.66 0.66 1.32 1.32 2 2 C-1.887 4.684 -5.721 6.962 -10 9 C-10 8.01 -10 7.02 -10 6 C-7.812 4.395 -7.812 4.395 -5 2.812 C-4.072 2.283 -3.144 1.753 -2.188 1.207 C-1.466 0.809 -0.744 0.41 0 0 Z " fill="#F05935" transform="translate(763,642)"/>
<path d="M0 0 C3.836 0.518 5.366 1.256 8 4 C10.599 5.19 10.599 5.19 13 6 C13 6.66 13 7.32 13 8 C9.24 7.419 6.47 6.348 3.188 4.438 C2.397 3.982 1.607 3.527 0.793 3.059 C0.201 2.709 -0.39 2.36 -1 2 C-0.67 1.34 -0.34 0.68 0 0 Z " fill="#477761" transform="translate(731,221)"/>
<path d="M0 0 C-3 2 -3 2 -6 2 C-6 2.66 -6 3.32 -6 4 C-6.66 4.66 -7.32 5.32 -8 6 C-8.33 6.99 -8.66 7.98 -9 9 C-9.33 9 -9.66 9 -10 9 C-10.365 3.529 -10.365 3.529 -8.75 1.188 C-5.509 -1.012 -3.732 -1.244 0 0 Z " fill="#FE783F" transform="translate(939,788)"/>
<path d="M0 0 C-0.66 1.32 -1.32 2.64 -2 4 C-5.3 4 -8.6 4 -12 4 C-7.967 -0.033 -5.583 0 0 0 Z " fill="#FC9847" transform="translate(945,784)"/>
<path d="M0 0 C0.66 0.33 1.32 0.66 2 1 C1.402 2.176 0.804 3.351 0.188 4.562 C-1.695 8.32 -3.384 12.121 -5 16 C-5.33 16 -5.66 16 -6 16 C-5.531 10.374 -4.156 4.156 0 0 Z " fill="#FC7C3D" transform="translate(907,714)"/>
<path d="M0 0 C1.546 2.319 2.862 4.53 4.125 7 C4.478 7.681 4.831 8.361 5.195 9.062 C6 11 6 11 6 14 C5.34 14 4.68 14 4 14 C1.848 10.772 1.799 9.716 2 6 C1.34 6 0.68 6 0 6 C0 4.02 0 2.04 0 0 Z " fill="#DB4C2F" transform="translate(210,584)"/>
<path d="M0 0 C0.66 0.66 1.32 1.32 2 2 C1.333 3.333 0.667 4.667 0 6 C-0.289 6.66 -0.577 7.32 -0.875 8 C-2.241 10.429 -3.972 12.107 -6 14 C-5.387 11.038 -4.746 9.619 -3 7 C-2.615 5.345 -2.272 3.678 -2 2 C-1.34 2 -0.68 2 0 2 C0 1.34 0 0.68 0 0 Z " fill="#FE743D" transform="translate(923,814)"/>
<path d="M0 0 C0.33 0.66 0.66 1.32 1 2 C0.34 2 -0.32 2 -1 2 C-1 2.66 -1 3.32 -1 4 C-2.264 4.7 -3.537 5.384 -4.812 6.062 C-5.52 6.445 -6.228 6.828 -6.957 7.223 C-9 8 -9 8 -12 7 C-8.04 4.69 -4.08 2.38 0 0 Z " fill="#F84D26" transform="translate(659,704)"/>
<path d="M0 0 C0.66 0.33 1.32 0.66 2 1 C0.421 1.986 -1.164 2.963 -2.75 3.938 C-4.073 4.755 -4.073 4.755 -5.422 5.59 C-7.684 6.827 -9.486 7.536 -12 8 C-10.98 5.217 -10.402 4.196 -7.688 2.875 C-6.801 2.586 -5.914 2.298 -5 2 C-3.67 1.412 -3.67 1.412 -2.312 0.812 C-1.168 0.41 -1.168 0.41 0 0 Z " fill="#327263" transform="translate(354,189)"/>
<path d="M0 0 C-2.777 1.451 -5.533 2.619 -8.5 3.625 C-9.253 3.885 -10.006 4.146 -10.781 4.414 C-13 5 -13 5 -17 5 C-14.391 2.391 -12.017 1.89 -8.5 0.812 C-7.335 0.448 -6.169 0.083 -4.969 -0.293 C-2 -1 -2 -1 0 0 Z " fill="#FE793E" transform="translate(962,780)"/>
<path d="M0 0 C-2.466 2.466 -4.79 3.652 -8 5 C-10.195 4.582 -10.195 4.582 -12 4 C-10.57 3.134 -9.131 2.282 -7.688 1.438 C-6.487 0.724 -6.487 0.724 -5.262 -0.004 C-3 -1 -3 -1 0 0 Z " fill="#447869" transform="translate(307,216)"/>
<path d="M0 0 C3.694 0.583 6.499 1.599 9.75 3.438 C10.529 3.869 11.307 4.301 12.109 4.746 C14 6 14 6 15 8 C11.344 7.312 8.481 5.746 5.25 3.938 C4.265 3.39 3.28 2.842 2.266 2.277 C1.518 1.856 0.77 1.434 0 1 C0 0.67 0 0.34 0 0 Z " fill="#25715F" transform="translate(614,157)"/>
<path d="M0 0 C1.938 0.375 1.938 0.375 4 1 C4.33 1.66 4.66 2.32 5 3 C7.31 4.054 9.643 5.057 12 6 C9.533 6.883 8.361 7.131 5.859 6.223 C5.163 5.84 4.467 5.457 3.75 5.062 C3.044 4.682 2.337 4.302 1.609 3.91 C1.078 3.61 0.547 3.309 0 3 C0 2.01 0 1.02 0 0 Z " fill="#388170" transform="translate(604,150)"/>
<path d="M0 0 C3 1 3 1 4.75 4.375 C6 8 6 8 5 11 C4.01 10.67 3.02 10.34 2 10 C2.041 9.092 2.082 8.185 2.125 7.25 C2.005 4.122 1.609 2.614 0 0 Z " fill="#FD9B45" transform="translate(894,790)"/>
<path d="M0 0 C0.33 0.66 0.66 1.32 1 2 C2.661 2.359 4.329 2.689 6 3 C8.312 4.062 8.312 4.062 10 5 C10 5.66 10 6.32 10 7 C5.485 6.469 2.653 4.634 -1 2 C-0.67 1.34 -0.34 0.68 0 0 Z " fill="#317866" transform="translate(630,164)"/>
<path d="M0 0 C-1 2 -1 2 -2.926 2.668 C-3.713 2.839 -4.501 3.011 -5.312 3.188 C-6.092 3.367 -6.872 3.546 -7.676 3.73 C-10.092 4.011 -11.702 3.741 -14 3 C-13.169 2.693 -13.169 2.693 -12.32 2.379 C-11.596 2.109 -10.871 1.84 -10.125 1.562 C-9.406 1.296 -8.686 1.029 -7.945 0.754 C-3.382 -1.015 -3.382 -1.015 0 0 Z " fill="#FDB14F" transform="translate(882,758)"/>
<path d="M0 0 C2.366 3.549 2.109 4.576 1.625 8.688 C1.514 9.681 1.403 10.675 1.289 11.699 C1.194 12.458 1.098 13.218 1 14 C0.01 13.34 -0.98 12.68 -2 12 C-1.783 11.257 -1.783 11.257 -1.562 10.5 C-0.78 7.022 -0.413 3.54 0 0 Z " fill="#5C705D" transform="translate(205,309)"/>
<path d="M0 0 C1.32 0.33 2.64 0.66 4 1 C4 1.66 4 2.32 4 3 C4.99 3.33 5.98 3.66 7 4 C7 4.66 7 5.32 7 6 C7.99 6.33 8.98 6.66 10 7 C10 7.66 10 8.32 10 9 C6.79 7.618 4.951 6.076 2.75 3.375 C2.229 2.743 1.708 2.112 1.172 1.461 C0.785 0.979 0.398 0.497 0 0 Z " fill="#4F7159" transform="translate(786,254)"/>
<path d="M0 0 C0.33 0.99 0.66 1.98 1 3 C4.008 4.225 4.008 4.225 7 5 C4.533 5.883 3.361 6.131 0.859 5.223 C0.163 4.84 -0.533 4.457 -1.25 4.062 C-1.956 3.682 -2.663 3.302 -3.391 2.91 C-3.922 2.61 -4.453 2.309 -5 2 C-5 1.67 -5 1.34 -5 1 C-3.35 0.67 -1.7 0.34 0 0 Z " fill="#2F7D6F" transform="translate(552,120)"/>
<path d="M0 0 C0.66 0.33 1.32 0.66 2 1 C0.739 2.033 -0.534 3.051 -1.812 4.062 C-2.874 4.915 -2.874 4.915 -3.957 5.785 C-4.631 6.186 -5.305 6.587 -6 7 C-6.99 6.67 -7.98 6.34 -9 6 C-6.03 4.02 -3.06 2.04 0 0 Z " fill="#FC5027" transform="translate(569,756)"/>
<path d="M0 0 C1.605 0.31 3.209 0.623 4.812 0.938 C5.706 1.112 6.599 1.286 7.52 1.465 C10 2 10 2 13 3 C13 3.66 13 4.32 13 5 C11.582 4.715 10.166 4.422 8.75 4.125 C7.961 3.963 7.172 3.8 6.359 3.633 C4.032 3.008 2.11 2.152 0 1 C0 0.67 0 0.34 0 0 Z " fill="#FD713D" transform="translate(942,754)"/>
<path d="M0 0 C0 0.66 0 1.32 0 2 C-8.429 5.429 -8.429 5.429 -13 5 C-13 4.34 -13 3.68 -13 3 C-11.639 2.814 -11.639 2.814 -10.25 2.625 C-6.471 1.898 -3.833 0 0 0 Z " fill="#FE6D3C" transform="translate(891,752)"/>
<path d="M0 0 C0.99 0.66 1.98 1.32 3 2 C-3.75 6 -3.75 6 -6 6 C-6 5.01 -6 4.02 -6 3 C-4.02 2.01 -2.04 1.02 0 0 Z " fill="#F8603B" transform="translate(686,688)"/>
<path d="M0 0 C1.125 1.625 1.125 1.625 2 4 C1.169 7.461 0.53 9.47 -2 12 C-1.858 10.562 -1.711 9.125 -1.562 7.688 C-1.481 6.887 -1.4 6.086 -1.316 5.262 C-1 3 -1 3 0 0 Z " fill="#E14E2C" transform="translate(818,569)"/>
<path d="M0 0 C0.33 0 0.66 0 1 0 C1.228 2.051 1.456 4.102 1.684 6.152 C1.819 8.011 1.819 8.011 3 9 C3.041 10.666 3.043 12.334 3 14 C2.34 14 1.68 14 1 14 C-0.05 10.851 -0.101 8.612 -0.062 5.312 C-0.053 4.319 -0.044 3.325 -0.035 2.301 C-0.024 1.542 -0.012 0.782 0 0 Z " fill="#5D6B53" transform="translate(818,304)"/>
<path d="M0 0 C1.32 0.33 2.64 0.66 4 1 C2.02 3.31 0.04 5.62 -2 8 C-3 5 -3 5 -2 2 C-1.34 2 -0.68 2 0 2 C0 1.34 0 0.68 0 0 Z " fill="#4E705F" transform="translate(226,264)"/>
<path d="M0 0 C2 4 2 4 1.125 7.25 C0.754 8.157 0.382 9.065 0 10 C-0.99 10 -1.98 10 -3 10 C-2.01 6.7 -1.02 3.4 0 0 Z " fill="#39887A" transform="translate(120,103)"/>
<path d="M0 0 C2.245 0.387 3.871 0.92 5.812 2.125 C7.707 5.116 6.691 7.671 6 11 C4.868 8.817 3.876 6.675 3 4.375 C2.121 1.869 2.121 1.869 0 0 Z " fill="#3E8C7B" transform="translate(110,52)"/>
<path d="M0 0 C4.273 -0.366 6.488 0.592 10 3 C9.67 4.32 9.34 5.64 9 7 C9 6.34 9 5.68 9 5 C8.34 5 7.68 5 7 5 C7 4.34 7 3.68 7 3 C5.824 2.814 5.824 2.814 4.625 2.625 C2 2 2 2 0 0 Z " fill="#F05B39" transform="translate(303,669)"/>
<path d="M0 0 C0.66 0.33 1.32 0.66 2 1 C1.01 1.33 0.02 1.66 -1 2 C-1 2.66 -1 3.32 -1 4 C-1.99 4 -2.98 4 -4 4 C-4.33 4.99 -4.66 5.98 -5 7 C-6.32 6.67 -7.64 6.34 -9 6 C-6.03 4.02 -3.06 2.04 0 0 Z " fill="#ED4D26" transform="translate(773,636)"/>
<path d="M0 0 C0.99 0 1.98 0 3 0 C3 0.66 3 1.32 3 2 C2.34 2 1.68 2 1 2 C1 2.66 1 3.32 1 4 C-0.98 4.66 -2.96 5.32 -5 6 C-5.66 5.34 -6.32 4.68 -7 4 C-4.69 3.34 -2.38 2.68 0 2 C0 1.34 0 0.68 0 0 Z " fill="#328071" transform="translate(488,113)"/>
<path d="M0 0 C2.062 0.688 2.062 0.688 5.062 2.688 C5.062 3.347 5.062 4.007 5.062 4.688 C-1.688 2.938 -1.688 2.938 -3.938 0.688 C-1.938 -0.312 -1.938 -0.312 0 0 Z " fill="#39837A" transform="translate(84.9375,98.3125)"/>
<path d="M0 0 C0.66 0.66 1.32 1.32 2 2 C0.547 2.864 -0.912 3.716 -2.375 4.562 C-3.593 5.276 -3.593 5.276 -4.836 6.004 C-5.55 6.333 -6.264 6.661 -7 7 C-7.66 6.67 -8.32 6.34 -9 6 C-6.03 4.02 -3.06 2.04 0 0 Z " fill="#247464" transform="translate(461,128)"/>
<path d="M0 0 C2 3.75 2 3.75 2 6 C1 7 0 8 -1 9 C-2.176 11.1 -2.176 11.1 -3 13 C-4 11 -4 11 -3.223 8.398 C-2.84 7.401 -2.457 6.403 -2.062 5.375 C-1.682 4.372 -1.302 3.369 -0.91 2.336 C-0.61 1.565 -0.309 0.794 0 0 Z " fill="#DFB85F" transform="translate(102,56)"/>
<path d="M0 0 C1 3 1 3 0.223 4.824 C-0.852 6.549 -1.926 8.275 -3 10 C-3.33 10 -3.66 10 -4 10 C-4.412 6.397 -4.154 5.216 -2 2.188 C-1.34 1.466 -0.68 0.744 0 0 Z " fill="#4B6955" transform="translate(217,279)"/>
<path d="M0 0 C0.33 0.66 0.66 1.32 1 2 C1.969 2.144 2.939 2.289 3.938 2.438 C4.948 2.623 5.959 2.809 7 3 C7.99 4.485 7.99 4.485 9 6 C5.59 5.213 2.311 4.129 -1 3 C-0.67 2.01 -0.34 1.02 0 0 Z " fill="#2C7C6C" transform="translate(538,115)"/>
<path d="M0 0 C4.554 -0.369 4.554 -0.369 6.812 1.5 C7.204 1.995 7.596 2.49 8 3 C6.25 3.75 6.25 3.75 4 4 C1.75 2.062 1.75 2.062 0 0 Z " fill="#FA5F39" transform="translate(421,738)"/>
<path d="M0 0 C3.465 1.485 3.465 1.485 7 3 C6.01 4.485 6.01 4.485 5 6 C3.062 5.25 3.062 5.25 1 4 C0.25 1.875 0.25 1.875 0 0 Z " fill="#F46441" transform="translate(369,706)"/>
<path d="M0 0 C0.66 0.99 1.32 1.98 2 3 C1.125 6.188 1.125 6.188 0 9 C-0.66 8.67 -1.32 8.34 -2 8 C-1.125 2.25 -1.125 2.25 0 0 Z " fill="#597361" transform="translate(212,287)"/>
<path d="M0 0 C2.02 0.602 4.021 1.273 6 2 C6.33 2.66 6.66 3.32 7 4 C6.01 4.33 5.02 4.66 4 5 C1.312 3.562 1.312 3.562 -1 2 C-0.67 1.34 -0.34 0.68 0 0 Z " fill="#408271" transform="translate(642,171)"/>
<path d="M0 0 C-5.625 4 -5.625 4 -9 4 C-9 3.34 -9 2.68 -9 2 C-3.375 -1.125 -3.375 -1.125 0 0 Z " fill="#297262" transform="translate(408,161)"/>
<path d="M0 0 C0.66 0 1.32 0 2 0 C2.33 2.31 2.66 4.62 3 7 C2.01 7 1.02 7 0 7 C-1.125 2.25 -1.125 2.25 0 0 Z " fill="#FC9843" transform="translate(857,768)"/>
<path d="M0 0 C3.871 0.574 6.082 2.487 9 5 C5.656 4.443 2.967 3.648 0 2 C0 1.34 0 0.68 0 0 Z " fill="#F94E25" transform="translate(428,741)"/>
<path d="M0 0 C1.32 0 2.64 0 4 0 C3.67 0.99 3.34 1.98 3 3 C2.01 3 1.02 3 0 3 C0 3.66 0 4.32 0 5 C-0.99 4.67 -1.98 4.34 -3 4 C-2.34 4 -1.68 4 -1 4 C-0.67 2.68 -0.34 1.36 0 0 Z " fill="#F7633F" transform="translate(661,702)"/>
<path d="M0 0 C3 1 3 1 5 3 C5.33 3.99 5.66 4.98 6 6 C3.085 4.926 1.222 4.222 -1 2 C-0.67 1.34 -0.34 0.68 0 0 Z " fill="#577D67" transform="translate(756,234)"/>
</svg>
