<?xml version="1.0" encoding="UTF-8"?>
<!-- Generator: visioncortex VTracer 0.6.4 -->
<svg version="1.1" xmlns="http://www.w3.org/2000/svg" width="1024" height="1024">
<path d="M0 0 C337.92 0 675.84 0 1024 0 C1024 337.92 1024 675.84 1024 1024 C686.08 1024 348.16 1024 0 1024 C0 686.08 0 348.16 0 0 Z " fill="#0EC2BA" transform="translate(0,0)"/>
<path d="M0 0 C0.81 0.003 1.62 0.006 2.455 0.01 C6.478 0.028 10.5 0.056 14.523 0.092 C17.809 0.122 21.093 0.117 24.379 0.105 C36.302 0.221 47.918 2.356 59.625 4.438 C60.464 4.586 61.303 4.735 62.168 4.888 C71.551 6.569 80.709 8.505 89.837 11.282 C92.343 12.023 94.814 12.62 97.375 13.125 C101.753 14.043 105.839 15.555 110.02 17.129 C112.292 17.977 114.566 18.757 116.875 19.5 C121.263 20.95 125.602 22.525 129.938 24.125 C130.624 24.374 131.31 24.624 132.016 24.88 C135.852 26.309 139.206 27.996 142.688 30.125 C145.014 31.141 147.348 32.14 149.688 33.125 C159.835 37.822 169.493 43.221 179 49.095 C182.301 51.11 185.668 53.017 189.027 54.934 C189.575 55.327 190.123 55.72 190.688 56.125 C190.688 56.785 190.688 57.445 190.688 58.125 C191.394 58.369 192.1 58.612 192.828 58.863 C196.102 60.308 198.601 62.132 201.438 64.312 C201.966 64.717 202.494 65.121 203.038 65.538 C204.591 66.729 206.139 67.927 207.688 69.125 C208.443 69.695 209.198 70.265 209.977 70.852 C228.303 84.785 245.637 100.854 259.688 119.125 C262.13 122.059 264.581 124.986 267.035 127.91 C268.688 130.125 268.688 130.125 268.688 132.125 C269.347 132.125 270.008 132.125 270.688 132.125 C272.26 134.239 273.703 136.349 275.125 138.562 C275.567 139.241 276.008 139.92 276.464 140.62 C277.403 142.064 278.34 143.51 279.274 144.958 C280.605 146.998 281.964 149.015 283.336 151.027 C299.498 174.974 310.719 201.254 319.938 228.5 C320.45 229.997 320.45 229.997 320.972 231.524 C322.755 236.861 324.174 242.09 325.183 247.624 C325.722 250.296 326.432 252.879 327.184 255.5 C328.807 261.32 329.848 267.154 330.75 273.125 C330.919 274.245 331.088 275.365 331.263 276.519 C335.776 307.757 337 340.451 331.109 371.602 C330.681 374.165 330.515 376.656 330.375 379.25 C329.779 386.739 327.39 393.822 325.291 400.998 C324.463 403.917 323.76 406.86 323.062 409.812 C321.999 414.161 320.489 418.019 318.688 422.125 C318.086 424.093 317.503 426.066 316.93 428.043 C314.831 434.926 312.193 441.439 309.25 448 C308.47 449.743 308.47 449.743 307.674 451.521 C292.7 484.35 271.285 514.679 245.688 540.125 C244.632 541.202 243.577 542.28 242.523 543.359 C235.578 550.435 228.509 557.008 220.688 563.125 C219.904 563.776 219.12 564.427 218.312 565.098 C211.15 571.023 203.473 576.072 195.688 581.125 C194.691 581.779 193.695 582.432 192.668 583.105 C182.112 589.946 170.977 595.606 159.688 601.125 C158.672 601.63 157.656 602.136 156.609 602.656 C147.677 606.962 138.425 610.128 129.051 613.311 C126.929 614.042 124.82 614.797 122.715 615.574 C116.338 617.926 110.035 619.932 103.406 621.449 C100.643 622.091 100.643 622.091 97.855 623.117 C93.428 624.526 88.931 625.19 84.346 625.893 C80.378 626.564 80.378 626.564 76.859 628.41 C75.383 630.571 74.251 632.759 73.125 635.125 C70.46 640.601 67.668 645.995 64.812 651.375 C61.204 658.176 57.694 665.014 54.375 671.962 C52.528 675.75 50.677 679.13 47.688 682.125 C43.261 683.219 38.94 682.631 34.75 680.938 C32.278 678.765 30.941 677.188 29.688 674.125 C29.99 667.755 32.453 662.781 35.25 657.125 C35.695 656.209 36.139 655.293 36.597 654.349 C40.432 646.503 44.479 638.777 48.688 631.125 C47.756 631.318 46.824 631.512 45.863 631.711 C22.001 636.585 22.001 636.585 10.688 636.125 C10.734 637.089 10.78 638.053 10.828 639.047 C10.864 640.31 10.9 641.573 10.938 642.875 C10.984 644.128 11.03 645.381 11.078 646.672 C10.688 650.125 10.688 650.125 8.859 652.453 C5.005 655.42 2.708 656.568 -2.246 656.449 C-5.613 655.921 -7.74 654.269 -10.312 652.125 C-12.804 648.388 -12.519 646.38 -12.438 641.938 C-12.419 640.665 -12.401 639.393 -12.383 638.082 C-12.348 636.618 -12.348 636.618 -12.312 635.125 C-13.447 635.137 -14.581 635.148 -15.75 635.16 C-17.271 635.17 -18.792 635.179 -20.312 635.188 C-21.056 635.196 -21.8 635.204 -22.566 635.213 C-27.581 635.235 -32.343 634.788 -37.312 634.125 C-38.978 634.066 -40.646 634.036 -42.312 634.062 C-43.457 634.076 -43.457 634.076 -44.625 634.09 C-45.182 634.101 -45.739 634.113 -46.312 634.125 C-46.024 634.679 -45.735 635.234 -45.438 635.805 C-44.881 636.891 -44.881 636.891 -44.312 638 C-43.941 638.719 -43.57 639.439 -43.188 640.18 C-42.312 642.125 -42.312 642.125 -42.312 644.125 C-41.652 644.125 -40.993 644.125 -40.312 644.125 C-39.715 645.355 -39.715 645.355 -39.105 646.609 C-38.576 647.687 -38.046 648.765 -37.5 649.875 C-36.978 650.942 -36.456 652.01 -35.918 653.109 C-34.445 656.079 -34.445 656.079 -32.633 658.301 C-30.542 661.189 -31.009 663.666 -31.312 667.125 C-32.278 671.633 -34.654 673.721 -38.379 676.176 C-41.51 677.713 -43.909 677.629 -47.312 677.125 C-52.625 674.852 -54.519 670.999 -57.125 666.125 C-57.532 665.401 -57.938 664.676 -58.357 663.93 C-61.312 658.546 -61.312 658.546 -61.312 655.125 C-61.973 655.125 -62.632 655.125 -63.312 655.125 C-64.151 653.503 -64.983 651.877 -65.812 650.25 C-66.277 649.345 -66.741 648.44 -67.219 647.508 C-68.312 645.125 -68.312 645.125 -68.312 643.125 C-68.973 643.125 -69.632 643.125 -70.312 643.125 C-70.551 642.172 -70.789 641.22 -71.035 640.238 C-72.419 635.969 -73.975 632.225 -77.312 629.125 C-83.599 626.25 -90.714 625.633 -97.493 624.618 C-101.396 623.935 -105.032 622.785 -108.75 621.438 C-114.064 619.545 -114.064 619.545 -119.5 618.062 C-127.819 616.017 -135.707 613.124 -143.449 609.469 C-145.792 608.369 -148.144 607.308 -150.512 606.262 C-164.604 600.014 -178.315 593.44 -191.312 585.125 C-192.513 584.361 -192.513 584.361 -193.738 583.582 C-200.163 579.389 -206.362 574.852 -212.584 570.367 C-214.212 569.197 -215.846 568.038 -217.48 566.879 C-222.143 563.55 -226.354 560.286 -230.312 556.125 C-231.824 554.74 -233.346 553.366 -234.875 552 C-235.739 551.225 -236.602 550.451 -237.492 549.652 C-238.937 548.357 -240.382 547.063 -241.829 545.77 C-255.405 533.615 -255.405 533.615 -259.312 528.125 C-259.312 527.465 -259.312 526.805 -259.312 526.125 C-259.972 526.125 -260.632 526.125 -261.312 526.125 C-262.934 524.043 -262.934 524.043 -264.75 521.312 C-266.774 518.282 -268.732 515.679 -271.312 513.125 C-272.737 511.292 -274.13 509.436 -275.5 507.562 C-276.215 506.592 -276.931 505.621 -277.668 504.621 C-279.312 502.125 -279.312 502.125 -279.312 500.125 C-279.972 500.125 -280.632 500.125 -281.312 500.125 C-282.717 498.169 -282.717 498.169 -284.316 495.453 C-284.892 494.479 -285.468 493.504 -286.061 492.5 C-286.959 490.953 -286.959 490.953 -287.875 489.375 C-288.478 488.359 -289.08 487.343 -289.701 486.297 C-294.574 477.984 -294.574 477.984 -295.312 474.125 C-295.972 474.125 -296.632 474.125 -297.312 474.125 C-303.169 462.243 -309.012 450.367 -313.938 438.062 C-314.414 436.88 -314.414 436.88 -314.9 435.673 C-316.777 430.878 -318.125 426.134 -319.312 421.125 C-319.748 419.784 -320.202 418.449 -320.688 417.125 C-323.034 410.264 -324.642 403.175 -326.312 396.125 C-326.475 395.468 -326.638 394.81 -326.806 394.133 C-328.497 387.019 -329.424 379.806 -330.375 372.562 C-330.463 371.892 -330.551 371.222 -330.642 370.531 C-331.921 360.738 -333.118 351.01 -333.312 341.125 C-333.333 340.242 -333.353 339.358 -333.375 338.448 C-333.985 307.915 -331.588 276.612 -323.312 247.125 C-322.828 245.126 -322.349 243.126 -321.875 241.125 C-318.872 229.163 -314.916 217.561 -310.312 206.125 C-309.805 204.819 -309.299 203.513 -308.793 202.207 C-304.713 191.832 -299.795 182.052 -294.469 172.266 C-293.447 170.375 -292.451 168.474 -291.469 166.562 C-272.345 129.759 -241.766 95.805 -208.852 70.848 C-206.047 68.716 -203.32 66.5 -200.59 64.273 C-195.351 60.074 -189.883 56.335 -184.25 52.688 C-183.252 52.039 -182.254 51.39 -181.226 50.721 C-173.956 46.051 -166.554 41.82 -158.848 37.918 C-155.967 36.457 -153.168 34.93 -150.375 33.312 C-146.83 31.329 -143.226 29.805 -139.434 28.355 C-136.903 27.358 -134.407 26.316 -131.91 25.238 C-131.104 24.892 -130.299 24.546 -129.468 24.189 C-127.878 23.503 -126.29 22.813 -124.704 22.118 C-104.465 13.444 -81.111 7.253 -59.312 4.125 C-58.455 3.998 -57.598 3.871 -56.715 3.74 C-53.791 3.312 -50.865 2.902 -47.938 2.5 C-46.61 2.315 -46.61 2.315 -45.256 2.126 C-30.244 0.179 -15.118 -0.061 0 0 Z " fill="#F8FCFD" transform="translate(511.3125,134.875)"/>
<path d="M0 0 C2.321 2.5 3.623 4.61 5.215 7.598 C5.742 8.581 6.269 9.563 6.812 10.576 C7.617 12.085 7.617 12.085 8.438 13.625 C9.436 15.471 10.436 17.316 11.438 19.16 C12.939 21.927 14.441 24.694 15.938 27.463 C19.282 33.617 22.799 39.641 26.438 45.625 C27.63 47.622 28.819 49.621 30 51.625 C30.538 52.533 31.075 53.44 31.629 54.375 C33.095 57.009 34.454 59.649 35.785 62.352 C38.429 67.687 41.335 72.845 44.312 78 C44.837 78.914 45.361 79.828 45.902 80.77 C49.266 86.624 52.666 92.455 56.133 98.25 C57.453 100.654 58.431 103.077 59.438 105.625 C60.121 106.847 60.828 108.058 61.562 109.25 C63.438 112.625 63.438 112.625 63.438 115.625 C64.097 115.625 64.757 115.625 65.438 115.625 C68.993 122.075 72.459 128.562 75.827 135.112 C80.233 143.677 84.694 152.065 90.012 160.102 C91.46 162.664 92.045 164.725 92.438 167.625 C93.097 167.625 93.757 167.625 94.438 167.625 C94.836 168.445 95.234 169.265 95.645 170.109 C96.174 171.187 96.704 172.265 97.25 173.375 C97.772 174.442 98.294 175.51 98.832 176.609 C100.305 179.579 100.305 179.579 102.117 181.801 C104.208 184.689 103.741 187.166 103.438 190.625 C102.472 195.133 100.096 197.221 96.371 199.676 C93.24 201.213 90.841 201.129 87.438 200.625 C82.125 198.352 80.231 194.499 77.625 189.625 C77.218 188.901 76.812 188.176 76.393 187.43 C73.438 182.046 73.438 182.046 73.438 178.625 C72.778 178.625 72.118 178.625 71.438 178.625 C70.599 177.003 69.767 175.377 68.938 173.75 C68.473 172.845 68.009 171.94 67.531 171.008 C66.438 168.625 66.438 168.625 66.438 166.625 C65.778 166.625 65.118 166.625 64.438 166.625 C64.048 165.812 63.659 164.998 63.258 164.16 C59.409 156.276 55.237 148.701 50.639 141.225 C50.223 140.538 49.807 139.852 49.379 139.145 C49.005 138.537 48.63 137.93 48.244 137.304 C47.438 135.625 47.438 135.625 47.438 132.625 C46.778 132.625 46.118 132.625 45.438 132.625 C44.953 131.632 44.468 130.64 43.969 129.617 C39.813 121.169 35.422 112.933 30.688 104.791 C28.009 100.15 25.385 95.478 22.75 90.812 C22.203 89.846 21.656 88.879 21.093 87.883 C17.85 82.144 14.63 76.392 11.438 70.625 C4.536 58.15 4.536 58.15 -2.5 45.75 C-5.876 39.868 -9.168 33.942 -12.438 28 C-12.914 27.134 -13.391 26.268 -13.883 25.375 C-20.988 12.43 -20.988 12.43 -19.562 4.625 C-17.562 1.384 -15.208 -0.825 -11.574 -2.039 C-7.354 -2.744 -3.74 -2.007 0 0 Z " fill="#F99E47" transform="translate(376.5625,611.375)"/>
<path d="M0 0 C3.442 1.721 5.404 2.998 7.375 6.312 C8.432 10.858 8.806 14.493 6.562 18.688 C6.047 19.451 5.531 20.214 5 21 C4.304 23.191 4.304 23.191 4 25 C3.34 25 2.68 25 2 25 C1.83 25.555 1.661 26.109 1.486 26.681 C-0.248 32.14 -2.387 37.123 -5.055 42.184 C-5.438 42.924 -5.822 43.664 -6.217 44.427 C-7.43 46.767 -8.652 49.102 -9.875 51.438 C-10.687 52.998 -11.498 54.558 -12.309 56.119 C-13.486 58.386 -14.663 60.652 -15.843 62.916 C-18.259 67.554 -20.624 72.214 -22.948 76.898 C-24.659 80.316 -26.456 83.687 -28.25 87.062 C-33.102 96.24 -37.869 105.46 -42.625 114.688 C-42.98 115.376 -43.335 116.064 -43.701 116.773 C-49.503 128.018 -55.195 139.316 -60.811 150.655 C-64.499 158.101 -68.33 165.461 -72.225 172.801 C-75.375 178.755 -78.409 184.759 -81.312 190.837 C-83.16 194.625 -85.01 198.005 -88 201 C-92.427 202.094 -96.747 201.506 -100.938 199.812 C-103.41 197.64 -104.747 196.063 -106 193 C-105.687 186.715 -103.324 181.834 -100.562 176.25 C-100.115 175.328 -99.668 174.405 -99.207 173.455 C-95.891 166.67 -92.4 159.987 -88.833 153.332 C-84.919 145.978 -81.35 138.47 -77.842 130.915 C-75.553 126.035 -73.113 121.464 -70.185 116.941 C-68.126 113.568 -66.553 109.976 -64.938 106.375 C-63.137 102.367 -61.386 98.578 -58.941 94.914 C-57.233 92.35 -56.038 89.905 -54.88 87.062 C-52.908 82.443 -50.566 77.987 -48.312 73.5 C-47.777 72.431 -47.242 71.363 -46.69 70.262 C-43.182 63.282 -39.569 56.371 -35.859 49.496 C-32.439 43.065 -29.231 36.528 -26 30 C-18.476 14.802 -18.476 14.802 -14.75 7.688 C-14.093 6.425 -14.093 6.425 -13.422 5.137 C-10.017 0.02 -5.95 -1.03 0 0 Z " fill="#FE6C74" transform="translate(647,616)"/>
<path d="M0 0 C0.793 -0.006 1.586 -0.013 2.402 -0.02 C6.472 1.254 9.341 3.539 12.062 6.812 C13.036 9.68 12.999 12.357 12.931 15.366 C12.94 16.213 12.949 17.061 12.958 17.934 C12.979 20.768 12.95 23.599 12.921 26.432 C12.925 28.466 12.933 30.5 12.943 32.533 C12.962 38.052 12.938 43.57 12.904 49.088 C12.875 54.861 12.883 60.634 12.885 66.408 C12.884 76.1 12.856 85.793 12.81 95.485 C12.758 106.697 12.744 117.909 12.751 129.121 C12.758 139.903 12.742 150.684 12.715 161.465 C12.703 166.056 12.698 170.647 12.699 175.237 C12.699 180.64 12.679 186.042 12.643 191.445 C12.633 193.43 12.63 195.415 12.634 197.4 C12.638 200.105 12.617 202.808 12.591 205.513 C12.597 206.303 12.604 207.093 12.611 207.906 C12.552 211.398 12.38 213.4 10.217 216.206 C6.343 219.094 4.059 220.255 -0.871 220.137 C-4.238 219.609 -6.365 217.956 -8.938 215.812 C-11.448 212.047 -11.228 209.078 -11.218 204.716 C-11.224 203.881 -11.23 203.047 -11.236 202.187 C-11.254 199.379 -11.257 196.572 -11.26 193.765 C-11.269 191.756 -11.279 189.747 -11.29 187.738 C-11.316 182.273 -11.329 176.808 -11.338 171.343 C-11.344 167.93 -11.352 164.517 -11.361 161.103 C-11.388 150.426 -11.408 139.749 -11.415 129.072 C-11.424 116.742 -11.459 104.412 -11.517 92.082 C-11.561 82.555 -11.581 73.028 -11.583 63.501 C-11.585 57.809 -11.597 52.118 -11.633 46.426 C-11.666 41.071 -11.67 35.717 -11.653 30.362 C-11.651 28.397 -11.66 26.433 -11.68 24.469 C-11.705 21.784 -11.693 19.101 -11.672 16.417 C-11.689 15.641 -11.705 14.866 -11.721 14.068 C-11.625 8.742 -10.078 6.018 -6.471 2.129 C-4.315 0.279 -2.825 -0.096 0 0 Z " fill="#FEDD84" transform="translate(509.9375,571.1875)"/>
<path d="M0 0 C3.431 2.097 5.765 4.647 8 8 C8.047 10.156 8.047 10.156 7.75 12.5 C7.662 13.273 7.575 14.047 7.484 14.844 C7 17 7 17 5 20 C3.064 21.101 1.074 22.107 -0.938 23.062 C-2.213 23.68 -3.488 24.3 -4.762 24.922 C-5.447 25.255 -6.132 25.588 -6.837 25.932 C-18.64 31.762 -30.175 38.144 -41.656 44.578 C-50.73 49.651 -59.891 54.538 -69.125 59.312 C-78.251 64.036 -78.251 64.036 -87.332 68.844 C-88.119 69.265 -88.906 69.686 -89.716 70.12 C-91.163 70.896 -92.607 71.676 -94.049 72.46 C-98.782 75 -98.782 75 -101 75 C-101 75.66 -101 76.32 -101 77 C-101.848 77.413 -102.696 77.825 -103.57 78.25 C-111.158 81.985 -118.541 85.938 -125.844 90.203 C-128.853 91.916 -131.897 93.464 -135 95 C-138.174 96.653 -141.337 98.327 -144.5 100 C-147.664 101.673 -150.83 103.34 -154 105 C-155.123 105.589 -156.246 106.178 -157.402 106.785 C-160.585 108.274 -162.525 108.518 -166 108 C-169.175 105.907 -170.885 104.173 -173 101 C-173.371 98.914 -173.371 98.914 -173.438 96.625 C-173.497 95.5 -173.497 95.5 -173.559 94.352 C-172.478 89.801 -168.806 87.524 -165.047 85.078 C-163.959 84.475 -162.871 83.872 -161.75 83.25 C-161.147 82.914 -160.544 82.578 -159.923 82.232 C-157.955 81.143 -155.979 80.069 -154 79 C-153.323 78.633 -152.646 78.267 -151.948 77.889 C-145.084 74.184 -138.185 70.564 -131.18 67.133 C-123.267 63.256 -115.634 58.989 -108.009 54.574 C-101.278 50.69 -94.455 47.026 -87.554 43.453 C-83.067 41.121 -78.703 38.678 -74.375 36.062 C-69.695 33.268 -65.239 31.484 -60 30 C-60 29.34 -60 28.68 -60 28 C-59.147 27.585 -58.293 27.17 -57.414 26.742 C-46.192 21.23 -35.194 15.318 -24.199 9.367 C-23.167 8.809 -22.136 8.251 -21.073 7.676 C-19.007 6.549 -16.947 5.41 -14.894 4.26 C-13.921 3.716 -12.948 3.173 -11.945 2.613 C-11.083 2.126 -10.221 1.64 -9.333 1.138 C-5.95 -0.512 -3.675 -0.793 0 0 Z " fill="#FCDC84" transform="translate(747,732)"/>
<path d="M0 0 C4.769 0.684 8.446 2.945 12.533 5.39 C14.451 6.487 16.369 7.584 18.287 8.679 C19.825 9.571 19.825 9.571 21.393 10.481 C24.989 12.544 28.612 14.549 32.248 16.539 C32.889 16.89 33.529 17.24 34.189 17.602 C35.48 18.308 36.772 19.015 38.063 19.721 C46.007 24.069 53.928 28.428 61.65 33.163 C63.557 34.293 65.476 35.303 67.471 36.265 C71.199 38.07 74.766 40.124 78.346 42.203 C82.983 44.888 87.657 47.403 92.471 49.765 C103.226 55.058 113.664 60.963 123.971 67.078 C128.101 69.513 132.294 71.71 136.596 73.828 C141.6 76.3 146.536 78.854 151.408 81.578 C152.546 82.211 153.685 82.844 154.857 83.496 C157.588 85.303 159.116 86.567 160.721 89.39 C161.339 94.108 161.235 97.205 158.783 101.328 C156.66 103.902 154.932 105.024 151.658 105.703 C145.195 105.905 140.16 102.524 134.721 99.39 C133.445 98.68 132.167 97.972 130.889 97.265 C125.557 94.307 120.266 91.276 114.975 88.246 C114.373 87.902 113.772 87.557 113.152 87.202 C111.532 86.274 109.913 85.342 108.295 84.41 C99.427 79.36 90.397 74.595 81.408 69.765 C49.391 52.537 49.391 52.537 35.459 44.511 C23.136 37.472 10.606 30.76 -2.001 24.244 C-10.872 19.613 -10.872 19.613 -12.279 15.39 C-12.883 10.864 -13.038 6.722 -10.404 2.828 C-6.569 -0.163 -4.708 -0.13 0 0 Z " fill="#FC6C73" transform="translate(277.279296875,730.609619140625)"/>
<path d="M0 0 C2.224 3.336 2.896 6.34 3.691 10.188 C3.842 10.886 3.992 11.585 4.146 12.305 C4.625 14.536 5.094 16.768 5.562 19 C6.036 21.232 6.512 23.463 6.989 25.695 C7.285 27.082 7.579 28.47 7.871 29.858 C8.46 32.638 9.1 35.301 10 38 C10.04 40.333 10.044 42.667 10 45 C11.196 45.103 12.392 45.206 13.625 45.312 C25.605 46.658 37.341 50.017 49 53 C45.714 55.191 43.129 55.894 39.312 56.875 C38.659 57.044 38.006 57.212 37.333 57.386 C35.942 57.743 34.551 58.098 33.16 58.45 C30.98 59.005 28.804 59.576 26.629 60.148 C25.211 60.516 23.793 60.883 22.375 61.25 C21.713 61.425 21.051 61.6 20.368 61.781 C16.834 62.679 13.647 63.196 10 63 C9.884 64.089 9.768 65.179 9.648 66.301 C8.976 71.67 7.802 76.91 6.625 82.188 C6.402 83.198 6.18 84.209 5.95 85.25 C4.346 92.511 2.708 99.763 1 107 C0.67 107 0.34 107 0 107 C-0.1 106.407 -0.2 105.814 -0.304 105.203 C-2.117 94.58 -4.023 84.188 -7.184 73.875 C-8.217 70.235 -8.699 66.765 -9 63 C-10.005 62.863 -11.011 62.727 -12.047 62.586 C-21.398 61.2 -30.59 59.22 -39.68 56.629 C-42.429 55.884 -45.178 55.381 -48 55 C-44.136 52.424 -40.238 51.379 -35.812 50.062 C-34.928 49.797 -34.043 49.532 -33.132 49.259 C-25.174 46.936 -17.181 45.302 -9 44 C-8.914 43.354 -8.827 42.708 -8.738 42.043 C-7.749 35.407 -6.268 29.024 -4.5 22.562 C-2.453 15.07 -0.929 7.723 0 0 Z " fill="#EDFDF3" transform="translate(191,124)"/>
<path d="M0 0 C2.238 3.702 2.728 7.612 3.375 11.812 C4.533 18.924 6.178 25.73 8.23 32.633 C9.044 36.193 9.134 39.36 9 43 C10.833 43.155 10.833 43.155 12.703 43.312 C18.848 43.996 24.76 45.504 30.75 47 C32.953 47.542 35.156 48.084 37.359 48.625 C38.323 48.865 39.287 49.105 40.28 49.352 C42.844 49.963 45.412 50.501 48 51 C39.66 55.553 29.53 57.184 20.312 59.25 C19.534 59.425 18.756 59.6 17.955 59.781 C14.912 60.446 12.124 61 9 61 C8.986 61.574 8.972 62.147 8.957 62.738 C8.595 69.181 7.286 75.065 5.562 81.25 C3.272 89.478 1.851 97.501 1 106 C-0.495 103.274 -1.303 101.019 -1.676 97.938 C-1.779 97.15 -1.883 96.362 -1.989 95.55 C-2.096 94.708 -2.203 93.867 -2.312 93 C-3.756 82.446 -6.234 72.276 -9 62 C-18.269 59.225 -27.516 56.943 -37 55 C-40.003 54.344 -43.001 53.672 -46 53 C-43.736 50.736 -42.493 50.401 -39.449 49.562 C-38.528 49.308 -37.607 49.054 -36.659 48.792 C-35.678 48.53 -34.698 48.269 -33.688 48 C-32.697 47.732 -31.706 47.465 -30.685 47.189 C-23.483 45.287 -16.4 43.881 -9 43 C-8.804 42.005 -8.804 42.005 -8.604 40.991 C-5.901 27.288 -3.113 13.616 0 0 Z " fill="#D8FEF6" transform="translate(850,737)"/>
<path d="M0 0 C4.778 7.167 3.115 18.183 3.062 26.484 C3.058 27.872 3.054 29.26 3.051 30.647 C3.04 35.015 3.02 39.382 3 43.75 C2.976 48.83 2.956 53.909 2.944 58.989 C2.938 61.012 2.925 63.036 2.912 65.059 C2.907 66.907 2.907 66.907 2.902 68.792 C2.897 69.873 2.892 70.954 2.886 72.068 C2.993 74.828 3.443 77.303 4 80 C3.696 81.672 3.36 83.339 3 85 C2.909 87.374 2.87 89.75 2.875 92.125 C2.872 93.344 2.87 94.564 2.867 95.82 C2.854 99.023 2.854 99.023 4 102 C3.686 104.336 3.35 106.669 3 109 C2.819 113.611 2.819 113.611 3.562 118.125 C4 120 4 120 3.534 122.249 C2.961 125.201 2.88 127.886 2.886 130.892 C2.887 132.053 2.887 133.213 2.887 134.41 C2.892 135.652 2.897 136.895 2.902 138.176 C2.904 139.456 2.905 140.736 2.907 142.055 C2.91 145.447 2.92 148.838 2.931 152.23 C2.942 155.696 2.946 159.161 2.951 162.627 C2.962 169.418 2.979 176.209 3 183 C7.29 183.66 11.58 184.32 16 185 C16 185.33 16 185.66 16 186 C10.416 187.176 6.013 187 0 187 C0 125.29 0 63.58 0 0 Z " fill="#D1D6D1" transform="translate(522,584)"/>
<path d="M0 0 C3.851 0.783 6.107 2.493 8.926 5.117 C10.673 8.52 10.776 11.733 10.113 15.43 C7.837 19.224 5.274 21.858 1.113 23.43 C-3.376 23.172 -6.86 22.251 -10.387 19.43 C-12.812 16.196 -13.36 13.695 -13.285 9.605 C-12.665 6.22 -11.162 4.17 -8.801 1.719 C-5.871 -0.254 -3.456 -0.29 0 0 Z " fill="#F9FDFD" transform="translate(294.88671875,874.5703125)"/>
<path d="M0 0 C0 4.023 -1.762 5.709 -4 9 C-5.333 11.618 -5.333 11.618 -6 14 C-5.67 14.66 -5.34 15.32 -5 16 C-5.639 16.619 -6.279 17.237 -6.938 17.875 C-9.039 19.826 -9.039 19.826 -10 22 C-10.66 22 -11.32 22 -12 22 C-11.505 24.475 -11.505 24.475 -11 27 C-12.485 27.495 -12.485 27.495 -14 28 C-15.034 29.982 -16.032 31.984 -17 34 C-18.688 35.875 -18.688 35.875 -20 37 C-19.67 37.66 -19.34 38.32 -19 39 C-19.619 39.082 -20.237 39.165 -20.875 39.25 C-23.137 39.78 -23.137 39.78 -23.941 41.762 C-24.465 42.87 -24.465 42.87 -25 44 C-26.516 46.32 -28.087 48.597 -29.66 50.879 C-31.149 53.049 -31.149 53.049 -32 56 C-33.667 57.667 -35.333 59.333 -37 61 C-37.33 61.99 -37.66 62.98 -38 64 C-38.66 64 -39.32 64 -40 64 C-40 64.66 -40 65.32 -40 66 C-40.99 66 -41.98 66 -43 66 C-43.282 67.004 -43.282 67.004 -43.57 68.027 C-45.605 72.258 -48.632 75.209 -51.875 78.562 C-52.548 79.267 -53.22 79.972 -53.913 80.698 C-55.934 82.807 -57.965 84.904 -60 87 C-60.562 87.584 -61.123 88.167 -61.702 88.769 C-68.397 95.713 -75.405 102.036 -83 108 C-84.709 109.374 -86.417 110.749 -88.125 112.125 C-89.749 113.418 -91.374 114.71 -93 116 C-93.762 116.608 -94.524 117.217 -95.309 117.844 C-99.785 121.382 -104.354 124.649 -109.152 127.738 C-111.126 129.002 -111.126 129.002 -113 131 C-113.846 131.247 -114.691 131.495 -115.562 131.75 C-119.504 133.183 -122.462 135.228 -125.852 137.66 C-127.957 138.973 -129.625 139.414 -132 140 C-132.495 140.99 -132.495 140.99 -133 142 C-133.66 141.34 -134.32 140.68 -135 140 C-132.144 138.028 -129.433 136.212 -126.312 134.688 C-112.484 127.643 -98.96 117.886 -87 108 C-86.498 107.587 -85.996 107.174 -85.479 106.749 C-77.961 100.53 -70.838 94.064 -64.087 87.013 C-62.759 85.641 -61.384 84.316 -60 83 C-59.34 83 -58.68 83 -58 83 C-57.762 82.441 -57.523 81.881 -57.277 81.305 C-55.714 78.484 -53.784 76.464 -51.562 74.125 C-37.485 58.968 -25.561 41.745 -15 24 C-14.203 22.712 -14.203 22.712 -13.391 21.398 C-10.013 15.914 -7.124 10.304 -4.395 4.469 C-3 2 -3 2 0 0 Z " fill="#08A6A2" transform="translate(819,589)"/>
<path d="M0 0 C0.33 0 0.66 0 1 0 C2.32 5.94 3.64 11.88 5 18 C7.97 18.33 10.94 18.66 14 19 C16.02 19.603 18.032 20.243 20 21 C16.195 22.968 13.124 24.133 8.812 24.062 C6.925 24.032 6.925 24.032 5 24 C3.476 30.638 2.179 37.292 1 44 C0.34 43.67 -0.32 43.34 -1 43 C-1.27 41.141 -1.528 39.279 -1.715 37.41 C-2.21 33.226 -3.13 29.12 -4 25 C-4.748 24.867 -5.495 24.734 -6.266 24.598 C-7.25 24.421 -8.235 24.244 -9.25 24.062 C-10.712 23.801 -10.712 23.801 -12.203 23.535 C-14.497 23.096 -16.743 22.597 -19 22 C-19 21.34 -19 20.68 -19 20 C-18.024 19.876 -17.048 19.753 -16.043 19.625 C-9.131 18.836 -9.131 18.836 -3.473 15.336 C-2.687 13.204 -2.306 11.251 -2 9 C-1.61 7.332 -1.214 5.665 -0.812 4 C-0.536 2.668 -0.263 1.335 0 0 Z " fill="#DDFDF8" transform="translate(154,654)"/>
<path d="M0 0 C0.99 0 1.98 0 3 0 C3.186 0.959 3.186 0.959 3.375 1.938 C3.581 2.618 3.788 3.299 4 4 C4.66 4.33 5.32 4.66 6 5 C6.667 6.667 7.333 8.333 8 10 C9.904 13.273 9.904 13.273 12 16 C12.66 16 13.32 16 14 16 C14.144 17.093 14.289 18.186 14.438 19.312 C14.883 22.931 14.883 22.931 16 26 C16.66 26.33 17.32 26.66 18 27 C18.667 28.333 19.333 29.667 20 31 C20.66 31.33 21.32 31.66 22 32 C22.289 33.052 22.577 34.104 22.875 35.188 C24.063 39.212 25.621 41.563 28 45 C29.578 47.885 31.113 50.79 32.633 53.707 C33.793 56.121 33.793 56.121 36 57 C36.633 59.285 36.633 59.285 37.125 62.062 C37.293 62.982 37.46 63.901 37.633 64.848 C37.815 65.913 37.815 65.913 38 67 C38.66 67 39.32 67 40 67 C40.99 68.98 41.98 70.96 43 73 C43.66 73 44.32 73 45 73 C47.125 77.625 47.125 77.625 46 81 C46.99 81.495 46.99 81.495 48 82 C48.727 83.979 49.398 85.98 50 88 C50.66 88 51.32 88 52 88 C56 94.75 56 94.75 56 97 C55.01 97 54.02 97 53 97 C51.013 93.421 49.037 89.836 47.062 86.25 C46.217 84.726 46.217 84.726 45.354 83.172 C44.815 82.192 44.277 81.212 43.723 80.203 C43.225 79.302 42.728 78.402 42.215 77.474 C41.14 75.285 40.469 73.381 40 71 C39.34 71 38.68 71 38 71 C37.734 70.374 37.469 69.747 37.195 69.102 C36.842 68.284 36.489 67.467 36.125 66.625 C35.777 65.813 35.429 65.001 35.07 64.164 C34.076 61.862 34.076 61.862 32 60 C31.311 58.381 30.625 56.761 29.949 55.137 C25.521 45.169 19.462 35.786 14.051 26.332 C11.319 21.558 8.588 16.785 5.875 12 C5.509 11.36 5.143 10.721 4.766 10.062 C2.913 6.783 1.299 3.537 0 0 Z " fill="#DDE6E8" transform="translate(402,656)"/>
<path d="M0 0 C1.17 2.765 1.057 3.856 -0.062 6.688 C-1.611 9.335 -3.234 11.753 -5 14.25 C-7.188 17.441 -8.458 20.123 -9.375 23.875 C-10.77 29.301 -13.684 33.035 -17.16 37.359 C-19.146 40.209 -19.966 42.698 -21 46 C-22.716 49.525 -24.528 52.991 -26.344 56.465 C-27.999 59.999 -29.038 63.235 -30 67 C-22.048 65.737 -22.048 65.737 -15 62 C-14.01 62.99 -13.02 63.98 -12 65 C-12.598 65.289 -13.196 65.577 -13.812 65.875 C-16.193 67.047 -16.193 67.047 -19 69 C-20.901 69.502 -20.901 69.502 -23.012 69.852 C-23.769 69.98 -24.526 70.109 -25.307 70.242 C-26.092 70.369 -26.878 70.495 -27.688 70.625 C-28.883 70.826 -28.883 70.826 -30.104 71.031 C-32.068 71.361 -34.034 71.681 -36 72 C-35.378 67.923 -34.045 64.729 -32.191 61.055 C-31.614 59.905 -31.037 58.755 -30.442 57.57 C-29.816 56.338 -29.189 55.107 -28.562 53.875 C-27.921 52.605 -27.28 51.335 -26.64 50.065 C-21.936 40.759 -17.128 31.511 -12.225 22.309 C-10.874 19.762 -9.535 17.208 -8.199 14.652 C-7.737 13.77 -7.276 12.888 -6.8 11.979 C-5.91 10.278 -5.021 8.577 -4.134 6.875 C-3.738 6.119 -3.342 5.364 -2.934 4.586 C-2.409 3.581 -2.409 3.581 -1.873 2.556 C-1 1 -1 1 0 0 Z " fill="#C4D6D8" transform="translate(625,690)"/>
<path d="M0 0 C0 0.33 0 0.66 0 1 C-0.669 0.996 -1.338 0.991 -2.027 0.987 C-8.464 0.946 -14.902 0.916 -21.34 0.896 C-24.646 0.886 -27.952 0.871 -31.258 0.849 C-53.008 0.708 -74.611 1.351 -96.145 4.633 C-98.803 4.975 -101.324 5.069 -104 5 C-102.562 3.438 -102.562 3.438 -100 2 C-96.946 2.032 -94.003 2.467 -91 3 C-91 2.34 -91 1.68 -91 1 C-90.248 0.947 -89.496 0.893 -88.721 0.838 C-82.562 0.385 -76.42 -0.147 -70.277 -0.789 C-46.682 -3.215 -23.536 -3.764 0 0 Z " fill="#09A19F" transform="translate(551,135)"/>
<path d="M0 0 C2.145 -0.082 4.291 -0.14 6.438 -0.188 C8.23 -0.24 8.23 -0.24 10.059 -0.293 C13.995 -0 16.946 0.84 20.619 2.165 C24.759 3.617 29.001 4.669 33.25 5.75 C34.557 6.1 34.557 6.1 35.891 6.457 C41.921 8.021 41.921 8.021 48 7 C48 7.66 48 8.32 48 9 C54.573 11.434 61.083 12.901 68 14 C68 14.99 68 15.98 68 17 C68.577 16.814 69.155 16.629 69.75 16.438 C72.277 15.946 73.618 16.047 76 17 C76.99 18.485 76.99 18.485 78 20 C79.707 21.038 79.707 21.038 81.695 21.824 C82.411 22.13 83.126 22.437 83.863 22.752 C84.61 23.061 85.356 23.369 86.125 23.688 C87.256 24.168 87.256 24.168 88.41 24.658 C90.27 25.447 92.135 26.225 94 27 C91.718 27.785 90.458 28.161 88.145 27.346 C87.522 26.994 86.899 26.643 86.258 26.281 C82.214 24.105 78.118 22.253 73.875 20.5 C73.145 20.198 72.415 19.896 71.663 19.585 C65.85 17.234 60.023 15.414 53.953 13.824 C51 13 51 13 48.605 12.016 C45.171 10.677 41.649 9.877 38.062 9.062 C36.936 8.803 36.936 8.803 35.788 8.537 C23.902 5.809 11.963 3.362 0 1 C0 0.67 0 0.34 0 0 Z " fill="#099F9C" transform="translate(564,138)"/>
<path d="M0 0 C4.273 0.475 6.103 3.031 9 6 C9.681 6.33 10.361 6.66 11.062 7 C13 8 13 8 14.875 10.438 C16.839 13.169 16.839 13.169 19.875 14.375 C23.353 16.184 24.944 18.034 27.363 21.031 C31.024 25.435 35.123 29.525 39.625 33.062 C42.335 35.273 44.444 37.727 46.668 40.414 C48.059 42.117 48.059 42.117 50 44 C51.339 45.662 52.671 47.33 54 49 C54.916 50.063 55.833 51.125 56.75 52.188 C59 55 59 55 59 57 C59.99 57 60.98 57 62 57 C62.598 58.093 63.196 59.186 63.812 60.312 C65.29 62.911 66.698 65.043 69 67 C68.34 67.66 67.68 68.32 67 69 C67 68.34 67 67.68 67 67 C66.34 67 65.68 67 65 67 C63.486 65.178 62.082 63.348 60.688 61.438 C52.002 49.9 42.486 39.311 32.312 29.062 C31.541 28.282 30.77 27.501 29.975 26.697 C24.619 21.37 18.955 16.639 13 12 C11.892 11.1 10.787 10.196 9.688 9.285 C8.801 8.552 7.914 7.818 7 7.062 C6.092 6.311 5.185 5.559 4.25 4.785 C2.136 2.982 2.136 2.982 0 2 C0 1.34 0 0.68 0 0 Z " fill="#009C98" transform="translate(715,200)"/>
<path d="M0 0 C4.407 1.63 8.443 3.764 12.562 6 C15.04 7.337 17.519 8.67 20 10 C20.722 10.414 21.444 10.828 22.188 11.254 C25.739 12.716 29.387 12.029 33 11 C36.046 8.625 36.046 8.625 38 6 C38 6.66 38 7.32 38 8 C38.66 8.33 39.32 8.66 40 9 C36.89 12.288 33.984 14.837 30 17 C30 16.34 30 15.68 30 15 C29.313 15.168 28.626 15.335 27.918 15.508 C26.566 15.813 26.566 15.813 25.188 16.125 C24.294 16.334 23.401 16.543 22.48 16.758 C20 17 20 17 17 15 C17 13.68 17 12.36 17 11 C16.42 10.879 15.84 10.758 15.242 10.633 C10.72 9.663 6.362 8.566 2 7 C2.33 6.01 2.66 5.02 3 4 C2.01 4.33 1.02 4.66 0 5 C0 3.35 0 1.7 0 0 Z " fill="#0ECFC6" transform="translate(400,823)"/>
<path d="M0 0 C5.61 0 11.22 0 17 0 C17.062 2.207 17.124 4.414 17.188 6.688 C17.41 12.565 17.41 12.565 20.438 17.312 C24.648 20.085 28 20.556 33 20 C36.745 18.27 36.745 18.27 39 15 C39.23 12.629 39.411 10.253 39.562 7.875 C39.707 5.606 39.851 3.337 40 1 C47.92 0.505 47.92 0.505 56 0 C56 0.66 56 1.32 56 2 C51.795 3.201 48.205 3.201 44 2 C44.495 3.485 44.495 3.485 45 5 C44.34 5.66 43.68 6.32 43 7 C42.957 9 42.96 11 43 13 C42.688 15.25 42.688 15.25 42 17 C41.01 17.66 40.02 18.32 39 19 C38.34 19.99 37.68 20.98 37 22 C31.376 24.173 24.711 22.737 19.375 20.438 C18.591 19.963 17.808 19.489 17 19 C17 18.01 17 17.02 17 16 C16.34 16 15.68 16 15 16 C14.973 14.063 14.954 12.125 14.938 10.188 C14.926 9.109 14.914 8.03 14.902 6.918 C15 4 15 4 16 1 C10.72 1 5.44 1 0 1 C0 0.67 0 0.34 0 0 Z " fill="#0AA9A7" transform="translate(482,770)"/>
<path d="M0 0 C1.578 0.433 1.578 0.433 3.188 0.875 C4.116 1.246 5.044 1.617 6 2 C6.75 4.062 6.75 4.062 7 6 C7.66 6.33 8.32 6.66 9 7 C9.57 17.88 9.57 17.88 6 22 C5.34 22 4.68 22 4 22 C3.67 22.66 3.34 23.32 3 24 C-0.74 25.924 -3.82 26.445 -8 26 C-10.375 24.5 -10.375 24.5 -12 23 C-11.67 22.34 -11.34 21.68 -11 21 C-10.432 21.202 -9.863 21.405 -9.277 21.613 C-4.559 23.087 -4.559 23.087 0.121 22.09 C2.669 20.273 4.588 18.824 6 16 C6.52 10.206 6.52 10.206 4.188 5.062 C0.616 1.695 -3.061 1.559 -7.77 1.566 C-10.482 2.094 -11.328 2.888 -13.062 5 C-13.702 5.99 -14.341 6.98 -15 8 C-15.99 7.67 -16.98 7.34 -18 7 C-15.993 3.989 -15.161 3.37 -12 2 C-12 1.34 -12 0.68 -12 0 C-3.724 -2.483 -3.724 -2.483 0 0 Z " fill="#19DBCF" transform="translate(298,874)"/>
<path d="M0 0 C0.66 0 1.32 0 2 0 C2 0.66 2 1.32 2 2 C2.619 2.227 3.237 2.454 3.875 2.688 C6.651 4.402 7.03 5.941 8 9 C8.33 9.99 8.66 10.98 9 12 C11.504 13.219 11.504 13.219 14 14 C13.67 15.32 13.34 16.64 13 18 C13.99 18.33 14.98 18.66 16 19 C16 20.32 16 21.64 16 23 C16.66 23 17.32 23 18 23 C18.65 24.392 18.65 24.392 19.312 25.812 C20.75 28.928 20.75 28.928 22.688 30.625 C24 32 24 32 24 36 C24.66 36 25.32 36 26 36 C26.433 37.031 26.866 38.062 27.312 39.125 C28.353 41.572 29.459 43.883 30.688 46.25 C32 49 32 49 32 52 C32.66 52 33.32 52 34 52 C33.67 53.32 33.34 54.64 33 56 C32.673 55.396 32.346 54.793 32.01 54.171 C28.359 47.436 24.688 40.714 21 34 C20.385 32.88 19.77 31.76 19.137 30.605 C14.708 22.789 9.652 15.381 4.622 7.943 C3.728 6.62 3.728 6.62 2.816 5.27 C2.274 4.471 1.732 3.673 1.174 2.851 C0 1 0 1 0 0 Z " fill="#0BA5A2" transform="translate(783,269)"/>
<path d="M0 0 C5.373 1.54 9.923 4.009 14.75 6.75 C15.543 7.195 16.335 7.64 17.152 8.099 C22.828 11.3 28.457 14.574 34 18 C33.505 19.485 33.505 19.485 33 21 C30.98 20.398 28.979 19.727 27 19 C26.67 18.34 26.34 17.68 26 17 C25.34 17.99 24.68 18.98 24 20 C24 18.68 24 17.36 24 16 C23.34 16 22.68 16 22 16 C19.911 14.101 18.268 12.536 17 10 C15.68 10 14.36 10 13 10 C12.67 10.66 12.34 11.32 12 12 C10.68 12 9.36 12 8 12 C8 10.02 8 8.04 8 6 C7.34 6 6.68 6 6 6 C6 5.34 6 4.68 6 4 C4.02 4 2.04 4 0 4 C0 2.68 0 1.36 0 0 Z " fill="#0FCFC6" transform="translate(336,788)"/>
<path d="M0 0 C0.33 0 0.66 0 1 0 C2.096 8.38 2.117 16.684 2.062 25.125 C2.057 26.477 2.053 27.828 2.049 29.18 C2.037 32.453 2.019 35.727 2 39 C6.29 39.66 10.58 40.32 15 41 C15 41.33 15 41.66 15 42 C9.639 43.129 4.447 43.097 -1 43 C-1.152 28.639 -0.692 14.344 0 0 Z " fill="#C1D4D9" transform="translate(523,728)"/>
<path d="M0 0 C-1.375 1.5 -1.375 1.5 -3 3 C-3.66 3 -4.32 3 -5 3 C-5.66 3.66 -6.32 4.32 -7 5 C-7.99 4.67 -8.98 4.34 -10 4 C-11.687 4.728 -13.372 5.461 -15.039 6.234 C-18.306 7.51 -21.513 7.668 -25 8 C-27.002 8.322 -29.003 8.65 -31 9 C-31.33 10.32 -31.66 11.64 -32 13 C-33.65 13.33 -35.3 13.66 -37 14 C-37 14.66 -37 15.32 -37 16 C-37.99 16.33 -38.98 16.66 -40 17 C-38.779 12.524 -37.698 9.853 -34 7 C-30.99 6.012 -27.93 5.476 -24.812 4.938 C-19.006 3.883 -13.521 2.642 -7.972 0.606 C-5.279 -0.222 -2.791 -0.215 0 0 Z " fill="#069F9C" transform="translate(624,754)"/>
<path d="M0 0 C1.17 3.917 0.696 6.98 0 11 C-0.99 11 -1.98 11 -3 11 C-3 12.32 -3 13.64 -3 15 C-3.66 15 -4.32 15 -5 15 C-5 15.99 -5 16.98 -5 18 C-5.66 18.33 -6.32 18.66 -7 19 C-8.114 22.647 -7.943 25.333 -7 29 C-9.667 29.667 -12.333 30.333 -15 31 C-13.518 26.112 -11.497 21.72 -9.188 17.188 C-8.834 16.486 -8.48 15.785 -8.115 15.062 C-5.533 9.972 -2.856 4.943 0 0 Z " fill="#0BB2AC" transform="translate(583,771)"/>
<path d="M0 0 C0.99 0.33 1.98 0.66 3 1 C2.67 1.701 2.34 2.403 2 3.125 C0.91 6.26 0.847 8.706 1 12 C-3.75 13 -3.75 13 -6 13 C-6.33 15.31 -6.66 17.62 -7 20 C-7.99 19.67 -8.98 19.34 -10 19 C-10 18.01 -10 17.02 -10 16 C-11.98 16 -13.96 16 -16 16 C-16 16.66 -16 17.32 -16 18 C-17.32 17.67 -18.64 17.34 -20 17 C-19.34 15.68 -18.68 14.36 -18 13 C-17.336 13.093 -16.672 13.186 -15.988 13.281 C-13.153 13.513 -10.795 13.562 -8 13 C-5.587 10.683 -4.373 8.019 -3 5 C-2.402 4.01 -1.804 3.02 -1.188 2 C-0.796 1.34 -0.404 0.68 0 0 Z " fill="#08BAB2" transform="translate(567,803)"/>
<path d="M0 0 C1.134 0.021 2.269 0.041 3.438 0.062 C-0.343 2.199 -4.415 3.307 -8.562 4.5 C-9.695 4.83 -9.695 4.83 -10.851 5.167 C-16.195 6.711 -21.568 8.074 -26.977 9.371 C-29.404 10.02 -31.669 10.818 -34 11.75 C-37.201 12.929 -39.213 13.377 -42.562 13.062 C-40.034 9.906 -37.866 9.534 -33.938 9 C-31.045 8.642 -31.045 8.642 -28.562 8.062 C-28.233 7.403 -27.902 6.743 -27.562 6.062 C-25.241 5.655 -22.906 5.318 -20.562 5.062 C-20.562 4.403 -20.562 3.743 -20.562 3.062 C-19.593 3.104 -18.624 3.145 -17.625 3.188 C-13.142 3.197 -8.856 2.325 -4.562 1.062 C-3.562 0.062 -3.562 0.062 0 0 Z " fill="#089D9B" transform="translate(436.5625,140.9375)"/>
<path d="M0 0 C0.66 0.33 1.32 0.66 2 1 C1.004 2.024 0.003 3.044 -1 4.062 C-1.557 4.631 -2.114 5.199 -2.688 5.785 C-4.644 7.659 -6.639 9.428 -8.691 11.195 C-13.305 15.207 -17.627 19.479 -21.938 23.812 C-22.704 24.575 -23.47 25.337 -24.26 26.123 C-24.987 26.852 -25.715 27.581 -26.465 28.332 C-27.449 29.318 -27.449 29.318 -28.453 30.323 C-30.083 31.934 -30.083 31.934 -31 34 C-31.66 34 -32.32 34 -33 34 C-32.459 30.214 -30.883 28.446 -28 26 C-27.34 26 -26.68 26 -26 26 C-26.33 24.68 -26.66 23.36 -27 22 C-26.051 21.752 -25.103 21.505 -24.125 21.25 C-20.912 20.339 -20.912 20.339 -19.812 17.938 C-19.544 17.298 -19.276 16.659 -19 16 C-18.01 15.67 -17.02 15.34 -16 15 C-14.829 13.863 -13.664 12.718 -12.539 11.535 C-10.034 9.037 -7.29 6.815 -4.574 4.551 C-4.055 4.039 -3.535 3.527 -3 3 C-3 2.34 -3 1.68 -3 1 C-2.01 0.67 -1.02 0.34 0 0 Z " fill="#03A29E" transform="translate(292,212)"/>
<path d="M0 0 C0.33 0.66 0.66 1.32 1 2 C1.66 2.33 2.32 2.66 3 3 C2.134 3.742 2.134 3.742 1.25 4.5 C-1.166 7.184 -2.473 9.696 -4 12.934 C-4.902 14.798 -5.944 16.593 -7 18.375 C-10.366 24.177 -12.836 30.393 -14 37 C-14.99 37 -15.98 37 -17 37 C-17.33 37.99 -17.66 38.98 -18 40 C-19 37 -19 37 -18.015 34.447 C-17.504 33.444 -16.992 32.44 -16.465 31.406 C-15.902 30.293 -15.339 29.179 -14.76 28.031 C-14.158 26.866 -13.557 25.701 -12.938 24.5 C-12.076 22.798 -12.076 22.798 -11.197 21.062 C-7.591 13.972 -3.851 6.961 0 0 Z " fill="#C8D4D7" transform="translate(645,650)"/>
<path d="M0 0 C4.485 1.334 8.193 3.137 12.188 5.562 C16.432 8.131 16.432 8.131 21 10 C21 11.65 21 13.3 21 15 C20.01 15.495 20.01 15.495 19 16 C19 15.01 19 14.02 19 13 C16.03 12.505 16.03 12.505 13 12 C13 11.34 13 10.68 13 10 C12.34 10 11.68 10 11 10 C10.67 9.34 10.34 8.68 10 8 C7.678 7.593 5.343 7.256 3 7 C2.876 6.361 2.752 5.721 2.625 5.062 C2.419 4.382 2.212 3.701 2 3 C1.34 2.67 0.68 2.34 0 2 C0 1.34 0 0.68 0 0 Z " fill="#0ED3C8" transform="translate(285,760)"/>
<path d="M0 0 C1.56 3.121 0.482 6.125 -0.125 9.438 C-0.258 10.178 -0.39 10.918 -0.527 11.681 C-2.191 20.578 -4.58 29.285 -7 38 C-7.33 38 -7.66 38 -8 38 C-7.859 35.395 -7.713 32.791 -7.562 30.188 C-7.504 29.081 -7.504 29.081 -7.443 27.951 C-7.256 24.769 -7.013 22.038 -6 19 C-5.34 19 -4.68 19 -4 19 C-4.33 18.01 -4.66 17.02 -5 16 C-3.866 10.422 -2.079 5.291 0 0 Z " fill="#15A49E" transform="translate(191,122)"/>
<path d="M0 0 C0.66 0 1.32 0 2 0 C2 0.66 2 1.32 2 2 C2.66 2 3.32 2 4 2 C4 2.66 4 3.32 4 4 C4.99 4 5.98 4 7 4 C7.33 4.99 7.66 5.98 8 7 C8.99 8.485 8.99 8.485 10 10 C13.222 10.289 13.222 10.289 16.875 10.062 C24.518 9.751 24.518 9.751 28 12 C23.905 13.365 20.272 12.972 16 12.75 C15.18 12.723 14.36 12.696 13.516 12.668 C12.727 12.628 11.938 12.588 11.125 12.547 C10.406 12.514 9.686 12.482 8.945 12.448 C6.483 11.881 5.583 10.935 4 9 C2.832 6.738 2.832 6.738 1.812 4.312 C1.468 3.504 1.124 2.696 0.77 1.863 C0.516 1.248 0.262 0.634 0 0 Z " fill="#F3F6F8" transform="translate(457,756)"/>
<path d="M0 0 C-1.687 4.498 -3.817 8.729 -6 13 C-6.66 13 -7.32 13 -8 13 C-7.835 12.402 -7.67 11.804 -7.5 11.188 C-6.861 8.39 -6.7 6.6 -8 4 C-12.29 4 -16.58 4 -21 4 C-21 3.67 -21 3.34 -21 3 C-18.063 2.497 -15.125 1.998 -12.188 1.5 C-11.354 1.357 -10.521 1.214 -9.662 1.066 C-8.458 0.863 -8.458 0.863 -7.23 0.656 C-6.123 0.468 -6.123 0.468 -4.993 0.275 C-3 0 -3 0 0 0 Z " fill="#06A6A0" transform="translate(560,766)"/>
<path d="M0 0 C2 1 2 1 2.938 2.938 C3.953 5.32 3.953 5.32 7 7 C7.688 10.125 7.688 10.125 8 13 C8.66 13 9.32 13 10 13 C9.75 15.375 9.75 15.375 9 18 C7 19.188 7 19.188 5 20 C4.67 20.66 4.34 21.32 4 22 C2.68 21.67 1.36 21.34 0 21 C0.66 21 1.32 21 2 21 C3.582 16.847 4.568 13.447 4 9 C2.706 7.302 1.375 5.633 0 4 C0 2.68 0 1.36 0 0 Z " fill="#0CB7B5" transform="translate(750,731)"/>
<path d="M0 0 C6.136 -0.085 11.932 0.101 18 1 C18 1.33 18 1.66 18 2 C13.545 2.495 13.545 2.495 9 3 C8.711 3.949 8.423 4.898 8.125 5.875 C7 9 7 9 5 11 C3.35 7.37 1.7 3.74 0 0 Z " fill="#08ADA6" transform="translate(464,768)"/>
<path d="M0 0 C3.375 0.547 5.082 1.055 8 3 C8.188 5.625 8.188 5.625 8 8 C10.64 8 13.28 8 16 8 C15.67 8.66 15.34 9.32 15 10 C15.99 11.485 15.99 11.485 17 13 C12.8 12.095 9.42 10.097 5.75 7.938 C5.1 7.56 4.451 7.183 3.781 6.795 C2.185 5.868 0.592 4.934 -1 4 C-0.67 2.68 -0.34 1.36 0 0 Z " fill="#0CCCC4" transform="translate(311,744)"/>
<path d="M0 0 C0.186 0.619 0.371 1.238 0.562 1.875 C2.736 5.088 5.317 5.225 9 6 C9.99 6 10.98 6 12 6 C12 6.66 12 7.32 12 8 C12.713 8.049 13.426 8.098 14.16 8.148 C19.689 8.58 24.709 9.236 30 11 C31.702 11.557 31.702 11.557 33.438 12.125 C34.706 12.558 34.706 12.558 36 13 C36 13.33 36 13.66 36 14 C29.991 13.629 24.655 12.692 18.938 10.832 C12.74 9.077 6.34 8.109 0 7 C0 4.69 0 2.38 0 0 Z " fill="#059B98" transform="translate(201,162)"/>
<path d="M0 0 C3.679 2.453 3.782 3.857 5 8 C5.458 9.131 5.458 9.131 5.926 10.285 C7.143 13.361 8.145 16.466 9.125 19.625 C9.478 20.752 9.831 21.878 10.195 23.039 C11 26 11 26 11 29 C11.66 29 12.32 29 13 29 C13 31.64 13 34.28 13 37 C11.233 34.349 10.378 32.473 9.414 29.5 C8.98 28.176 8.98 28.176 8.537 26.825 C8.236 25.893 7.935 24.961 7.625 24 C5.413 17.238 3.163 10.513 0.629 3.863 C0 2 0 2 0 0 Z " fill="#0BA19E" transform="translate(822,338)"/>
<path d="M0 0 C1 3 1 3 0.199 4.986 C-0.229 5.732 -0.657 6.478 -1.098 7.246 C-1.567 8.079 -2.037 8.911 -2.52 9.769 C-3.029 10.649 -3.538 11.53 -4.062 12.438 C-5.082 14.242 -6.101 16.048 -7.117 17.855 C-7.613 18.734 -8.109 19.612 -8.62 20.517 C-11.255 25.258 -13.647 30.114 -16 35 C-17 33 -17 33 -16.223 30.398 C-15.84 29.401 -15.457 28.403 -15.062 27.375 C-14.682 26.372 -14.302 25.369 -13.91 24.336 C-13.61 23.565 -13.309 22.794 -13 22 C-12.34 22 -11.68 22 -11 22 C-11 20.68 -11 19.36 -11 18 C-10.34 18 -9.68 18 -9 18 C-8.845 17.227 -8.845 17.227 -8.688 16.438 C-7.757 13.14 -6.386 10.134 -5 7 C-4.34 7 -3.68 7 -3 7 C-2.691 6.216 -2.381 5.433 -2.062 4.625 C-1 2 -1 2 0 0 Z " fill="#09A6A1" transform="translate(222,295)"/>
<path d="M0 0 C3.595 2.697 6.281 5.432 9 9 C9.915 10.064 10.831 11.127 11.75 12.188 C14 15 14 15 14 17 C14.99 17 15.98 17 17 17 C17.897 18.64 17.897 18.64 18.812 20.312 C20.29 22.911 21.698 25.043 24 27 C23.34 27.66 22.68 28.32 22 29 C22 28.34 22 27.68 22 27 C21.34 27 20.68 27 20 27 C18.42 25.116 16.953 23.228 15.5 21.25 C11.147 15.433 6.576 9.869 1.836 4.363 C0 2 0 2 0 0 Z " fill="#0FA5A0" transform="translate(760,240)"/>
<path d="M0 0 C-3.224 2.149 -5.984 3.025 -9.688 4.125 C-10.867 4.478 -12.046 4.831 -13.262 5.195 C-14.165 5.461 -15.069 5.726 -16 6 C-12.37 6.99 -8.74 7.98 -5 9 C-5.66 9.66 -6.32 10.32 -7 11 C-11.759 10.688 -15.649 10.039 -20 8 C-19.67 6.68 -19.34 5.36 -19 4 C-16.773 3.325 -14.544 2.66 -12.312 2 C-10.45 1.443 -10.45 1.443 -8.551 0.875 C-5.499 0.123 -3.111 -0.19 0 0 Z " fill="#079D9B" transform="translate(162,172)"/>
<path d="M0 0 C0.33 0 0.66 0 1 0 C1.573 9.74 1.573 9.74 -2 14 C-2.66 14 -3.32 14 -4 14 C-4.33 14.66 -4.66 15.32 -5 16 C-8.74 17.924 -11.82 18.445 -16 18 C-18.375 16.5 -18.375 16.5 -20 15 C-19.67 14.34 -19.34 13.68 -19 13 C-18.432 13.202 -17.863 13.405 -17.277 13.613 C-12.559 15.087 -12.559 15.087 -7.879 14.09 C-5.331 12.273 -3.412 10.824 -2 8 C-1.34 8 -0.68 8 0 8 C0 5.36 0 2.72 0 0 Z " fill="#1EDDD1" transform="translate(306,882)"/>
<path d="M0 0 C0.66 0.33 1.32 0.66 2 1 C0.188 3 0.188 3 -2 5 C-2.99 5 -3.98 5 -5 5 C-5 5.66 -5 6.32 -5 7 C-5.742 7.268 -6.485 7.536 -7.25 7.812 C-9.992 8.851 -9.992 8.851 -11.938 10.562 C-14.563 12.393 -16.855 12.643 -20 13 C-18.795 9.385 -18.08 9.203 -14.816 7.484 C-13.971 7.038 -13.126 6.592 -12.256 6.133 C-11.367 5.676 -10.478 5.22 -9.562 4.75 C-8.235 4.042 -8.235 4.042 -6.881 3.32 C-1.974 0.764 -1.974 0.764 0 0 Z " fill="#0AB4B4" transform="translate(675,792)"/>
<path d="M0 0 C2 -0.043 4 -0.041 6 0 C6.33 0.33 6.66 0.66 7 1 C9.263 1.072 11.51 0.996 13.773 0.938 C16 1 16 1 19 2 C19 2.66 19 3.32 19 4 C19.66 4 20.32 4 21 4 C20.67 4.66 20.34 5.32 20 6 C19.442 5.678 18.884 5.355 18.309 5.023 C14.331 3.26 10.263 3.408 6 4 C2.913 5.795 2.913 5.795 1 8 C0 2.25 0 2.25 0 0 Z " fill="#0AD7CC" transform="translate(264,728)"/>
<path d="M0 0 C0.66 0.33 1.32 0.66 2 1 C-2.719 4.693 -7.136 7.051 -12.766 9.105 C-15.224 10.001 -15.224 10.001 -18 12 C-22.138 13.43 -24.809 14.299 -29 13 C-28.08 12.648 -27.159 12.296 -26.211 11.934 C-18.117 8.79 -10.397 5.303 -2.73 1.223 C-1.829 0.819 -0.928 0.416 0 0 Z " fill="#0AA29E" transform="translate(679,731)"/>
<path d="M0 0 C0.66 0 1.32 0 2 0 C2.572 0.585 3.145 1.17 3.734 1.773 C7.174 5.154 11.311 7.11 15.516 9.414 C16.335 9.937 17.155 10.461 18 11 C18 11.66 18 12.32 18 13 C17.34 13 16.68 13 16 13 C16 12.34 16 11.68 16 11 C14.68 11 13.36 11 12 11 C11.67 11.66 11.34 12.32 11 13 C10.01 12.67 9.02 12.34 8 12 C8 11.01 8 10.02 8 9 C7.443 8.794 6.886 8.587 6.312 8.375 C3.075 6.45 1.318 3.961 -1 1 C-0.67 0.67 -0.34 0.34 0 0 Z " fill="#0DD3C9" transform="translate(264,747)"/>
<path d="M0 0 C0.66 0.33 1.32 0.66 2 1 C1.595 11.623 0.37 21.626 -2 32 C-2.33 32 -2.66 32 -3 32 C-3.682 21.213 -1.668 10.617 0 0 Z " fill="#089592" transform="translate(844,488)"/>
<path d="M0 0 C5.093 -0.208 9.279 -0.009 14 2 C15.258 4.664 15.888 6.502 16.438 9.312 C16.597 9.977 16.756 10.642 16.92 11.326 C17.743 14.927 18.178 18.311 18 22 C14.732 17.097 13.721 12.868 14 7 C13.34 7 12.68 7 12 7 C11.67 6.01 11.34 5.02 11 4 C8.44 2.97 8.44 2.97 5.438 2.312 C3.92 1.935 3.92 1.935 2.371 1.551 C1.197 1.278 1.197 1.278 0 1 C0 0.67 0 0.34 0 0 Z " fill="#069D99" transform="translate(168,185)"/>
<path d="M0 0 C0.33 1.32 0.66 2.64 1 4 C1.66 4 2.32 4 3 4 C3 4.99 3 5.98 3 7 C3.66 7 4.32 7 5 7 C5 7.66 5 8.32 5 9 C0.173 7.587 -3.716 5.57 -8 3 C-7.67 2.01 -7.34 1.02 -7 0 C-4.333 -1.333 -2.833 -0.671 0 0 Z " fill="#0BD0C5" transform="translate(301,736)"/>
<path d="M0 0 C0.99 0.66 1.98 1.32 3 2 C1.155 10.303 -2.716 18.192 -9 24 C-8.01 21.03 -7.02 18.06 -6 15 C-5.34 15 -4.68 15 -4 15 C-3.814 13.886 -3.814 13.886 -3.625 12.75 C-3 10 -3 10 -2 8.062 C-0.723 5.428 -0.393 2.885 0 0 Z " fill="#D6DFE1" transform="translate(655,626)"/>
<path d="M0 0 C1.247 3.74 0.767 6.166 0 10 C-0.66 10.66 -1.32 11.32 -2 12 C-2.541 14.225 -2.887 16.449 -3.242 18.711 C-4.2 21.603 -5.747 23.002 -8 25 C-6.25 16.177 -3.732 8.186 0 0 Z " fill="#13A09D" transform="translate(835,542)"/>
<path d="M0 0 C0.99 0.66 1.98 1.32 3 2 C1.793 2.681 1.793 2.681 0.562 3.375 C-2.089 4.747 -2.089 4.747 -3 7 C-7.126 8.727 -10.547 9.212 -15 9 C-11.917 6.556 -8.715 4.669 -5.25 2.812 C-4.265 2.283 -3.28 1.753 -2.266 1.207 C-1.518 0.809 -0.77 0.41 0 0 Z " fill="#14BBB6" transform="translate(619,822)"/>
<path d="M0 0 C1.32 0.33 2.64 0.66 4 1 C4.144 1.928 4.289 2.856 4.438 3.812 C4.921 7.007 4.921 7.007 6 10 C6.66 10 7.32 10 8 10 C8.33 11.98 8.66 13.96 9 16 C9.66 16 10.32 16 11 16 C11.33 17.32 11.66 18.64 12 20 C11.34 20.33 10.68 20.66 10 21 C8.327 17.879 6.662 14.752 5 11.625 C4.523 10.736 4.046 9.846 3.555 8.93 C3.104 8.079 2.652 7.228 2.188 6.352 C1.769 5.566 1.35 4.781 0.918 3.971 C0 2 0 2 0 0 Z " fill="#DDE5E5" transform="translate(386,626)"/>
<path d="M0 0 C0.33 0 0.66 0 1 0 C1.027 1.979 1.046 3.958 1.062 5.938 C1.074 7.04 1.086 8.142 1.098 9.277 C1 12 1 12 0 13 C0.093 14.547 0.093 14.547 0.188 16.125 C-0.046 20.952 -1.393 23.007 -4 27 C-5.176 23.525 -4.812 21.125 -4.004 17.578 C-3.775 16.553 -3.546 15.529 -3.311 14.473 C-2.94 12.877 -2.94 12.877 -2.562 11.25 C-2.198 9.632 -2.198 9.632 -1.826 7.98 C-1.225 5.318 -0.616 2.658 0 0 Z " fill="#039C99" transform="translate(199,195)"/>
<path d="M0 0 C1.32 0.99 2.64 1.98 4 3 C3.103 3.433 3.103 3.433 2.188 3.875 C-0.193 5.047 -0.193 5.047 -3 7 C-6.137 7.414 -6.137 7.414 -9.688 7.625 C-10.867 7.7 -12.046 7.775 -13.262 7.852 C-14.617 7.925 -14.617 7.925 -16 8 C-16 7.67 -16 7.34 -16 7 C-14.35 7 -12.7 7 -11 7 C-10.67 6.01 -10.34 5.02 -10 4 C-8.639 3.845 -8.639 3.845 -7.25 3.688 C-3.98 2.996 -2.463 2.179 0 0 Z " fill="#D0E0E3" transform="translate(609,752)"/>
<path d="M0 0 C-0.188 1.875 -0.188 1.875 -1 4 C-3.25 5.125 -3.25 5.125 -6 6 C-6.825 6.33 -7.65 6.66 -8.5 7 C-10.239 7.695 -11.99 8.36 -13.75 9 C-16.157 9.784 -16.157 9.784 -17 12 C-17 10.68 -17 9.36 -17 8 C-14.544 6.662 -12.086 5.329 -9.625 4 C-8.926 3.618 -8.228 3.237 -7.508 2.844 C-2.227 0 -2.227 0 0 0 Z " fill="#0DB6B5" transform="translate(736,760)"/>
<path d="M0 0 C0.99 0.495 0.99 0.495 2 1 C2.527 2.969 2.527 2.969 2.938 5.5 C3.576 9.099 4.42 12.385 5.688 15.812 C6.899 19.23 7.252 21.471 6 25 C4.089 21.532 2.985 17.981 1.875 14.188 C1.522 13.005 1.169 11.823 0.805 10.605 C-0.011 6.95 -0.143 3.732 0 0 Z " fill="#14A7A4" transform="translate(835,375)"/>
<path d="M0 0 C4.273 0.475 6.103 3.031 9 6 C9.681 6.33 10.361 6.66 11.062 7 C13 8 13 8 14.875 10.438 C17.3 13.362 19.544 14.508 23 16 C22.34 16.99 21.68 17.98 21 19 C19.983 18.039 19.983 18.039 18.945 17.059 C13.484 11.983 8.085 7.441 1.801 3.375 C1.207 2.921 0.612 2.468 0 2 C0 1.34 0 0.68 0 0 Z " fill="#0CA29E" transform="translate(715,200)"/>
<path d="M0 0 C-4.569 2.622 -8.13 3.44 -13.375 3.688 C-15.243 3.786 -15.243 3.786 -17.148 3.887 C-18.089 3.924 -19.03 3.961 -20 4 C-20 6.31 -20 8.62 -20 11 C-20.66 11 -21.32 11 -22 11 C-21.67 8.36 -21.34 5.72 -21 3 C-18.064 2.303 -15.127 1.617 -12.188 0.938 C-11.354 0.738 -10.521 0.539 -9.662 0.334 C-8.86 0.15 -8.057 -0.033 -7.23 -0.223 C-6.123 -0.482 -6.123 -0.482 -4.993 -0.746 C-3 -1 -3 -1 0 0 Z " fill="#019593" transform="translate(222,184)"/>
<path d="M0 0 C0.59 0.204 1.181 0.407 1.789 0.617 C-1.139 2.321 -4.08 4.002 -7.023 5.68 C-7.857 6.165 -8.69 6.65 -9.549 7.15 C-10.752 7.832 -10.752 7.832 -11.98 8.527 C-12.719 8.952 -13.457 9.376 -14.218 9.813 C-16.211 10.617 -16.211 10.617 -19.211 9.617 C-18.221 9.287 -17.231 8.957 -16.211 8.617 C-15.478 6.602 -15.478 6.602 -15.211 4.617 C-13.942 4.493 -13.942 4.493 -12.648 4.367 C-9.591 3.7 -8.142 3.093 -5.586 1.492 C-2.211 -0.383 -2.211 -0.383 0 0 Z " fill="#0BACAF" transform="translate(710.2109375,747.3828125)"/>
<path d="M0 0 C3.108 4.661 4.423 9.467 3.625 15 C3.419 15.99 3.213 16.98 3 18 C-1.127 11.809 -1.167 7.095 0 0 Z " fill="#DFF8F0" transform="translate(191,124)"/>
<path d="M0 0 C0.66 0 1.32 0 2 0 C3.258 6.742 4.264 13.135 4 20 C3.34 20 2.68 20 2 20 C0.742 13.258 -0.264 6.865 0 0 Z " fill="#0BA19F" transform="translate(841,401)"/>
<path d="M0 0 C7.788 0.51 15.539 1.648 23 4 C23.33 4.66 23.66 5.32 24 6 C21 7 21 7 18.812 6.062 C18.214 5.712 17.616 5.361 17 5 C16.34 5.66 15.68 6.32 15 7 C15 6.34 15 5.68 15 5 C14.169 4.807 13.337 4.613 12.48 4.414 C10.85 4.023 10.85 4.023 9.188 3.625 C8.109 3.37 7.03 3.115 5.918 2.852 C3 2 3 2 0 0 Z " fill="#07ABA6" transform="translate(411,759)"/>
<path d="M0 0 C0.66 0 1.32 0 2 0 C2 1.32 2 2.64 2 4 C-4.646 6.609 -10.885 7.614 -18 8 C-15 6 -15 6 -11 6 C-11 5.34 -11 4.68 -11 4 C-3.25 2.875 -3.25 2.875 -1 4 C-0.67 2.68 -0.34 1.36 0 0 Z " fill="#0D9F9C" transform="translate(180,164)"/>
<path d="M0 0 C0.66 0 1.32 0 2 0 C2 1.65 2 3.3 2 5 C1.34 5 0.68 5 0 5 C-0.247 5.99 -0.495 6.98 -0.75 8 C-1.958 12.281 -3.908 16.091 -6 20 C-7.08 16.782 -6.977 15.179 -5.566 12.109 C-5.247 11.4 -4.928 10.691 -4.6 9.961 C-4.257 9.231 -3.915 8.502 -3.562 7.75 C-3.224 7.005 -2.886 6.26 -2.537 5.492 C-1.702 3.657 -0.852 1.828 0 0 Z " fill="#0EA09C" transform="translate(826,568)"/>
<path d="M0 0 C0.99 0 1.98 0 3 0 C3.506 1.748 4.005 3.499 4.5 5.25 C4.778 6.225 5.057 7.199 5.344 8.203 C6 11 6 11 6 15 C5.34 15 4.68 15 4 15 C2.243 10.026 0.674 5.258 0 0 Z " fill="#1AD2C8" transform="translate(841,808)"/>
<path d="M0 0 C2.117 0.414 2.117 0.414 4 1 C-1.595 4.16 -7.231 7.168 -13 10 C-13.33 9.01 -13.66 8.02 -14 7 C-13.01 7 -12.02 7 -11 7 C-10.67 6.01 -10.34 5.02 -10 4 C-8.639 3.845 -8.639 3.845 -7.25 3.688 C-4.004 3.244 -4.004 3.244 -1.875 1.375 C-1.256 0.921 -0.638 0.467 0 0 Z " fill="#0AACAE" transform="translate(674,765)"/>
<path d="M0 0 C-5.528 4.58 -11.971 5.996 -19 7 C-19.99 6.67 -20.98 6.34 -22 6 C-18.713 4.8 -15.42 3.617 -12.125 2.438 C-11.188 2.095 -10.251 1.753 -9.285 1.4 C-8.389 1.081 -7.493 0.762 -6.57 0.434 C-5.743 0.135 -4.915 -0.163 -4.063 -0.471 C-2 -1 -2 -1 0 0 Z " fill="#079D99" transform="translate(649,746)"/>
<path d="M0 0 C4.972 1.764 9.434 4.394 14 7 C10.937 8.532 8.314 7.523 5 7 C4.01 7 3.02 7 2 7 C1.34 4.69 0.68 2.38 0 0 Z " fill="#0DD1C8" transform="translate(374,809)"/>
<path d="M0 0 C5.61 0 11.22 0 17 0 C17.33 5.28 17.66 10.56 18 16 C17.01 16 16.02 16 15 16 C14.973 14.063 14.954 12.125 14.938 10.188 C14.926 9.109 14.914 8.03 14.902 6.918 C15 4 15 4 16 1 C10.72 1 5.44 1 0 1 C0 0.67 0 0.34 0 0 Z " fill="#009B9E" transform="translate(482,770)"/>
<path d="M0 0 C0 1.98 0 3.96 0 6 C-1.65 6.33 -3.3 6.66 -5 7 C-5 7.66 -5 8.32 -5 9 C-5.99 9.33 -6.98 9.66 -8 10 C-6.838 5.741 -5.252 0 0 0 Z " fill="#09ABA5" transform="translate(592,761)"/>
<path d="M0 0 C0.33 0 0.66 0 1 0 C1.182 5.266 0.882 9.017 -1 14 C-1.165 14.908 -1.33 15.815 -1.5 16.75 C-2 19 -2 19 -4 21 C-4.215 15.769 -3.524 11.562 -2 6.562 C-1.629 5.326 -1.258 4.09 -0.875 2.816 C-0.586 1.887 -0.298 0.958 0 0 Z " fill="#079793" transform="translate(840,520)"/>
<path d="M0 0 C0 3.996 -1.521 5.647 -3.75 8.938 C-4.794 10.498 -4.794 10.498 -5.859 12.09 C-7.75 14.66 -9.674 16.826 -12 19 C-10.832 15.885 -9.505 12.87 -8.062 9.875 C-7.585 8.881 -7.585 8.881 -7.098 7.867 C-5.939 5.896 -4.675 4.546 -3 3 C-2.165 2.165 -2.165 2.165 -1.312 1.312 C-0.879 0.879 -0.446 0.446 0 0 Z " fill="#08A39F" transform="translate(240,268)"/>
<path d="M0 0 C6.99 1.122 13.38 4.577 18 10 C13.64 8.652 9.687 6.951 5.625 4.875 C4.565 4.336 3.506 3.797 2.414 3.242 C1.617 2.832 0.821 2.422 0 2 C0 1.34 0 0.68 0 0 Z " fill="#0DA29F" transform="translate(663,168)"/>
<path d="M0 0 C4.345 6.517 4.381 15.349 5 23 C0.714 16.571 -0.534 7.657 0 0 Z " fill="#069996" transform="translate(196,139)"/>
<path d="M0 0 C1.32 0 2.64 0 4 0 C4 0.66 4 1.32 4 2 C1.711 3.172 -0.581 4.337 -2.875 5.5 C-3.526 5.834 -4.177 6.168 -4.848 6.512 C-9.773 9 -9.773 9 -12 9 C-11.67 8.01 -11.34 7.02 -11 6 C-9.02 5.67 -7.04 5.34 -5 5 C-5 4.34 -5 3.68 -5 3 C-3.35 2.67 -1.7 2.34 0 2 C0 1.34 0 0.68 0 0 Z " fill="#0EAEAF" transform="translate(618,795)"/>
<path d="M0 0 C0.66 0 1.32 0 2 0 C1.521 4.219 0.834 6.797 -2 10 C-3.32 9.34 -4.64 8.68 -6 8 C-6 6.68 -6 5.36 -6 4 C-3.525 4.495 -3.525 4.495 -1 5 C-0.67 3.35 -0.34 1.7 0 0 Z " fill="#0BADA8" transform="translate(550,780)"/>
<path d="M0 0 C0.33 0 0.66 0 1 0 C2.32 5.94 3.64 11.88 5 18 C4.34 18 3.68 18 3 18 C1.646 15.291 1.935 12.991 2 10 C0.68 10.33 -0.64 10.66 -2 11 C-1.34 7.37 -0.68 3.74 0 0 Z " fill="#EFFDFA" transform="translate(154,654)"/>
<path d="M0 0 C1.938 0.312 1.938 0.312 4 1 C4.33 1.99 4.66 2.98 5 4 C5.949 4.474 6.898 4.949 7.875 5.438 C10.993 6.996 12.197 8.096 14 11 C10.835 10.366 8.483 9.268 5.75 7.562 C4.69 6.915 4.69 6.915 3.609 6.254 C3.078 5.84 2.547 5.426 2 5 C2 4.34 2 3.68 2 3 C1.01 2.67 0.02 2.34 -1 2 C-0.67 1.34 -0.34 0.68 0 0 Z " fill="#0DA5A3" transform="translate(700,188)"/>
<path d="M0 0 C1.32 0.33 2.64 0.66 4 1 C1.522 4.717 -0.572 5.399 -4.625 7.188 C-5.814 7.717 -7.002 8.247 -8.227 8.793 C-9.142 9.191 -10.057 9.59 -11 10 C-11.33 9.01 -11.66 8.02 -12 7 C-11.258 6.876 -10.515 6.753 -9.75 6.625 C-4.984 5.542 -2.727 4.09 0 0 Z " fill="#08AFB2" transform="translate(601,803)"/>
<path d="M0 0 C2.31 0 4.62 0 7 0 C4.102 2.292 1.169 4.079 -2.125 5.75 C-2.994 6.199 -3.863 6.647 -4.758 7.109 C-5.498 7.403 -6.238 7.697 -7 8 C-7.66 7.67 -8.32 7.34 -9 7 C-6.75 4.438 -6.75 4.438 -4 2 C-1.688 2.188 -1.688 2.188 0 3 C0 2.01 0 1.02 0 0 Z " fill="#12AFAE" transform="translate(652,776)"/>
<path d="M0 0 C0.66 0 1.32 0 2 0 C2 0.66 2 1.32 2 2 C2.66 2 3.32 2 4 2 C4 2.66 4 3.32 4 4 C4.99 4 5.98 4 7 4 C7.33 4.99 7.66 5.98 8 7 C8.651 8.341 9.315 9.676 10 11 C7.676 10.816 7.676 10.816 5 10 C3.418 7.715 3.418 7.715 2.188 4.938 C1.769 4.018 1.35 3.099 0.918 2.152 C0.615 1.442 0.312 0.732 0 0 Z " fill="#D7DFE3" transform="translate(457,756)"/>
<path d="M0 0 C3.3 0 6.6 0 10 0 C6.545 2.303 3.635 2.653 -0.375 3.125 C-1.682 3.293 -2.989 3.46 -4.336 3.633 C-7.267 3.926 -10.061 4.079 -13 4 C-11.562 2.438 -11.562 2.438 -9 1 C-5.946 1.032 -3.003 1.467 0 2 C0 1.34 0 0.68 0 0 Z " fill="#019793" transform="translate(460,136)"/>
<path d="M0 0 C0.66 0 1.32 0 2 0 C3.676 4.091 2.241 7.715 1.062 11.75 C0.867 12.447 0.672 13.145 0.471 13.863 C-0.011 15.578 -0.504 17.289 -1 19 C-1.33 19 -1.66 19 -2 19 C-1.859 16.395 -1.713 13.791 -1.562 11.188 C-1.504 10.081 -1.504 10.081 -1.443 8.951 C-1.256 5.769 -1.013 3.038 0 0 Z " fill="#049996" transform="translate(185,141)"/>
<path d="M0 0 C3.876 1.8 6.978 3.978 10 7 C7.688 7.625 7.688 7.625 5 8 C4.01 7.34 3.02 6.68 2 6 C2.33 5.34 2.66 4.68 3 4 C2.01 4.33 1.02 4.66 0 5 C0 3.35 0 1.7 0 0 Z " fill="#15CDC3" transform="translate(400,823)"/>
<path d="M0 0 C3 1 3 1 4.25 3.375 C5 6 5 6 4 9 C1.938 9.688 1.938 9.688 0 10 C0.33 9.01 0.66 8.02 1 7 C0.347 5.328 -0.319 3.661 -1 2 C-0.67 1.34 -0.34 0.68 0 0 Z " fill="#0CB7AE" transform="translate(433,765)"/>
<path d="M0 0 C1.319 0.397 2.63 0.818 3.938 1.25 C4.668 1.482 5.399 1.714 6.152 1.953 C8 3 8 3 8.629 4.984 C8.813 5.982 8.813 5.982 9 7 C9.66 7.66 10.32 8.32 11 9 C10.967 11.729 10.436 14.297 10 17 C9.67 17 9.34 17 9 17 C8.876 15.175 8.876 15.175 8.75 13.312 C8.232 9.187 7.036 6.949 4 4 C1.883 2.688 1.883 2.688 0 2 C0 1.34 0 0.68 0 0 Z " fill="#0DD8CA" transform="translate(296,873)"/>
<path d="M0 0 C0.33 0.66 0.66 1.32 1 2 C0.67 2.66 0.34 3.32 0 4 C-0.959 4.217 -0.959 4.217 -1.938 4.438 C-4.382 4.862 -4.382 4.862 -6 8 C-7.32 8 -8.64 8 -10 8 C-10 7.01 -10 6.02 -10 5 C-6.7 3.35 -3.4 1.7 0 0 Z " fill="#07B3B3" transform="translate(690,784)"/>
<path d="M0 0 C0.99 0.33 1.98 0.66 3 1 C-0.305 3.093 -3.718 4.947 -7.188 6.75 C-8.047 7.199 -8.907 7.647 -9.793 8.109 C-10.521 8.403 -11.25 8.697 -12 9 C-12.66 8.67 -13.32 8.34 -14 8 C-10.462 4.878 -7.491 3.367 -3 2 C-2.01 1.34 -1.02 0.68 0 0 Z " fill="#0B9F9D" transform="translate(358,168)"/>
<path d="M0 0 C0.33 0.99 0.66 1.98 1 3 C1.94 2.766 1.94 2.766 2.898 2.527 C3.716 2.333 4.533 2.138 5.375 1.938 C6.187 1.74 6.999 1.543 7.836 1.34 C10 1 10 1 12 2 C8.212 4.674 5.645 5.692 1 5 C-1.375 3 -1.375 3 -3 1 C-2.01 0.67 -1.02 0.34 0 0 Z " fill="#EADE82" transform="translate(580,835)"/>
<path d="M0 0 C4.95 0.99 4.95 0.99 10 2 C10 2.66 10 3.32 10 4 C10.66 4.33 11.32 4.66 12 5 C8.04 4.67 4.08 4.34 0 4 C0 2.68 0 1.36 0 0 Z " fill="#17CDC4" transform="translate(824,794)"/>
<path d="M0 0 C0.33 0.99 0.66 1.98 1 3 C-5.625 7 -5.625 7 -9 7 C-8.754 5.109 -8.754 5.109 -8 3 C-6.152 1.953 -6.152 1.953 -3.938 1.25 C-2.837 0.886 -2.837 0.886 -1.715 0.516 C-1.149 0.345 -0.583 0.175 0 0 Z " fill="#E5F4F7" transform="translate(680,728)"/>
<path d="M0 0 C1.062 1.812 1.062 1.812 2 4 C1.67 4.99 1.34 5.98 1 7 C0.265 9.865 -0.464 12.732 -1.184 15.602 C-2 18 -2 18 -4 19 C-2.893 12.594 -1.661 6.286 0 0 Z " fill="#FAFEF8" transform="translate(190,133)"/>
<path d="M0 0 C0.66 0.33 1.32 0.66 2 1 C0.801 4.083 -0.477 7.063 -2 10 C-2.66 10 -3.32 10 -4 10 C-3.512 3.945 -3.512 3.945 -3 2 C-2.01 1.34 -1.02 0.68 0 0 Z " fill="#20D4C9" transform="translate(856,822)"/>
<path d="M0 0 C1.98 0.99 3.96 1.98 6 3 C6 3.66 6 4.32 6 5 C3.69 5.33 1.38 5.66 -1 6 C-1.043 4.334 -1.041 2.666 -1 1 C-0.67 0.67 -0.34 0.34 0 0 Z " fill="#0ECEC5" transform="translate(329,784)"/>
<path d="M0 0 C0.99 0 1.98 0 3 0 C3 0.66 3 1.32 3 2 C3.959 2.155 3.959 2.155 4.938 2.312 C5.618 2.539 6.299 2.766 7 3 C7.33 3.99 7.66 4.98 8 6 C5.69 6 3.38 6 1 6 C0.34 4.35 -0.32 2.7 -1 1 C-0.67 0.67 -0.34 0.34 0 0 Z " fill="#28D5CD" transform="translate(893,784)"/>
<path d="M0 0 C0.66 0.66 1.32 1.32 2 2 C0.68 2.33 -0.64 2.66 -2 3 C-2 3.66 -2 4.32 -2 5 C-4.812 6.562 -4.812 6.562 -8 8 C-8.99 7.67 -9.98 7.34 -11 7 C-10.34 7 -9.68 7 -9 7 C-8.67 6.01 -8.34 5.02 -8 4 C-6.152 2.832 -6.152 2.832 -3.938 1.812 C-3.204 1.468 -2.471 1.124 -1.715 0.77 C-1.149 0.516 -0.583 0.262 0 0 Z " fill="#0FAEAF" transform="translate(689,757)"/>
<path d="M0 0 C0.33 0.66 0.66 1.32 1 2 C0.004 4.383 0.004 4.383 -1.438 7.125 C-1.911 8.035 -2.384 8.945 -2.871 9.883 C-3.244 10.581 -3.616 11.28 -4 12 C-5.32 11.34 -6.64 10.68 -8 10 C-7.34 10 -6.68 10 -6 10 C-5.753 9.464 -5.505 8.928 -5.25 8.375 C-3.703 5.436 -1.87 2.742 0 0 Z " fill="#E8F6F8" transform="translate(565,754)"/>
<path d="M0 0 C0.33 0 0.66 0 1 0 C1 5.61 1 11.22 1 17 C0.67 17 0.34 17 0 17 C-0.061 16.408 -0.121 15.817 -0.184 15.207 C-0.716 10.131 -0.716 10.131 -1.688 5.125 C-2 3 -2 3 0 0 Z " fill="#EAF8F9" transform="translate(844,432)"/>
<path d="M0 0 C4 2 4 2 5.75 3.062 C9.104 4.46 12.39 4.639 16 5 C16 5.33 16 5.66 16 6 C9.869 6.327 5.373 6.394 0 3 C0 2.01 0 1.02 0 0 Z " fill="#03A7B0" transform="translate(499,786)"/>
<path d="M0 0 C0.33 0 0.66 0 1 0 C1.042 2.333 1.041 4.667 1 7 C0 8 0 8 -2.562 8.062 C-3.367 8.042 -4.171 8.021 -5 8 C-4.688 6.062 -4.688 6.062 -4 4 C-3.01 3.67 -2.02 3.34 -1 3 C-0.67 2.01 -0.34 1.02 0 0 Z " fill="#E69E52" transform="translate(479,795)"/>
<path d="M0 0 C3.775 1.091 6.47 1.908 9 5 C8.01 5.33 7.02 5.66 6 6 C6 5.34 6 4.68 6 4 C4.02 4 2.04 4 0 4 C0 2.68 0 1.36 0 0 Z " fill="#19CFC5" transform="translate(336,788)"/>
<path d="M0 0 C2.97 0.33 5.94 0.66 9 1 C9 1.66 9 2.32 9 3 C9.99 3.33 10.98 3.66 12 4 C7.839 4.082 4.053 3.982 0 3 C0 2.01 0 1.02 0 0 Z " fill="#0ECDC2" transform="translate(883,783)"/>
<path d="M0 0 C1.562 1.438 1.562 1.438 3 4 C2.968 7.054 2.533 9.997 2 13 C-0.365 10.635 -0.367 9.741 -0.688 6.5 C-0.774 5.706 -0.86 4.912 -0.949 4.094 C-1 2 -1 2 0 0 Z " fill="#0FB8B1" transform="translate(442,778)"/>
<path d="M0 0 C3.594 1.335 6.755 2.96 10 5 C7.291 6.354 4.991 6.065 2 6 C2 5.01 2 4.02 2 3 C1.01 2.67 0.02 2.34 -1 2 C-0.67 1.34 -0.34 0.68 0 0 Z " fill="#0CD2C9" transform="translate(318,778)"/>
<path d="M0 0 C0.33 0.66 0.66 1.32 1 2 C0.004 4.164 0.004 4.164 -1.438 6.625 C-1.911 7.442 -2.384 8.26 -2.871 9.102 C-3.244 9.728 -3.616 10.355 -4 11 C-4.33 10.01 -4.66 9.02 -5 8 C-5.66 7.34 -6.32 6.68 -7 6 C-6.216 5.753 -5.433 5.505 -4.625 5.25 C-1.677 3.846 -1.098 2.993 0 0 Z " fill="#F9656E" transform="translate(583,769)"/>
<path d="M0 0 C0 0.66 0 1.32 0 2 C-5.46 3.56 -10.479 2.736 -16 2 C-16 1.67 -16 1.34 -16 1 C-10.651 0.408 -5.391 -0.142 0 0 Z " fill="#049993" transform="translate(538,770)"/>
<path d="M0 0 C-1 2 -1 2 -2.848 2.633 C-3.579 2.795 -4.309 2.958 -5.062 3.125 C-6.163 3.376 -6.163 3.376 -7.285 3.633 C-7.851 3.754 -8.417 3.875 -9 4 C-9 3.34 -9 2.68 -9 2 C-9.99 1.67 -10.98 1.34 -12 1 C-8.019 -0.327 -4.15 -0.069 0 0 Z " fill="#24D3C9" transform="translate(882,794)"/>
<path d="M0 0 C0.33 0.66 0.66 1.32 1 2 C1.66 2.33 2.32 2.66 3 3 C2.134 3.742 2.134 3.742 1.25 4.5 C-1.617 7.685 -3.232 11.126 -5 15 C-5.684 13.359 -5.684 13.359 -6 11 C-4.785 8.203 -4.785 8.203 -3.062 5.25 C-2.497 4.265 -1.931 3.28 -1.348 2.266 C-0.903 1.518 -0.458 0.77 0 0 Z " fill="#C9E1E4" transform="translate(645,650)"/>
<path d="M0 0 C2.97 1.98 5.94 3.96 9 6 C8.67 6.66 8.34 7.32 8 8 C6.517 7.215 5.039 6.422 3.562 5.625 C2.739 5.184 1.915 4.743 1.066 4.289 C-1 3 -1 3 -2 1 C-1.34 0.67 -0.68 0.34 0 0 Z " fill="#0BCAC3" transform="translate(411,800)"/>
<path d="M0 0 C1.32 0.66 2.64 1.32 4 2 C3.67 3.65 3.34 5.3 3 7 C2.67 6.34 2.34 5.68 2 5 C1.01 5 0.02 5 -1 5 C-0.67 3.35 -0.34 1.7 0 0 Z " fill="#07B6AC" transform="translate(476,784)"/>
<path d="M0 0 C-2.673 2.196 -4.671 3.196 -8 4 C-8.33 4.66 -8.66 5.32 -9 6 C-9.66 5.34 -10.32 4.68 -11 4 C-7.203 1.174 -4.814 -0.566 0 0 Z " fill="#0CA8A4" transform="translate(695,725)"/>
<path d="M0 0 C0.66 0 1.32 0 2 0 C1.25 6.75 1.25 6.75 -1 9 C-1.66 9 -2.32 9 -3 9 C-2.01 6.03 -1.02 3.06 0 0 Z " fill="#E1F4F6" transform="translate(816,584)"/>
<path d="M0 0 C4.455 0.99 4.455 0.99 9 2 C9.33 3.32 9.66 4.64 10 6 C6.059 5.437 3.249 4.321 0 2 C0 1.34 0 0.68 0 0 Z " fill="#F7656E" transform="translate(329,782)"/>
<path d="M0 0 C1.32 0.33 2.64 0.66 4 1 C4.544 4.058 5 6.888 5 10 C2.355 6.875 1.156 3.912 0 0 Z " fill="#DFEAEF" transform="translate(386,626)"/>
<path d="M0 0 C2.966 2.966 3.483 3.719 4.312 7.562 C4.494 8.348 4.676 9.133 4.863 9.941 C4.908 10.621 4.954 11.3 5 12 C4.34 12.66 3.68 13.32 3 14 C2.01 9.38 1.02 4.76 0 0 Z " fill="#009591" transform="translate(837,386)"/>
<path d="M0 0 C0.99 0.33 1.98 0.66 3 1 C4.188 4.062 4.188 4.062 5 7 C3.35 6.67 1.7 6.34 0 6 C0 4.02 0 2.04 0 0 Z " fill="#ECF2F3" transform="translate(428,756)"/>
<path d="M0 0 C0.66 0.66 1.32 1.32 2 2 C-3.273 5.223 -3.273 5.223 -5 6 C-5.66 5.67 -6.32 5.34 -7 5 C-6.01 3.68 -5.02 2.36 -4 1 C-2.68 1.33 -1.36 1.66 0 2 C0 1.34 0 0.68 0 0 Z " fill="#09AAAF" transform="translate(726,737)"/>
<path d="M0 0 C1.98 0 3.96 0 6 0 C4.951 2.622 4.351 3.794 1.875 5.25 C1.256 5.497 0.637 5.745 0 6 C0 4.02 0 2.04 0 0 Z " fill="#13CDC6" transform="translate(264,728)"/>
<path d="M0 0 C0.99 0 1.98 0 3 0 C3 1.65 3 3.3 3 5 C1.02 5.99 1.02 5.99 -1 7 C-0.67 4.69 -0.34 2.38 0 0 Z " fill="#10CCC4" transform="translate(157,684)"/>
<path d="M0 0 C2.961 3.364 3.923 6.692 5 11 C3.5 9.625 3.5 9.625 2 8 C2 7.34 2 6.68 2 6 C1.34 6 0.68 6 0 6 C-1.125 2.25 -1.125 2.25 0 0 Z " fill="#05BBB3" transform="translate(202,584)"/>
<path d="M0 0 C1.261 3.784 0.912 6.141 0 10 C-2.051 11.215 -2.051 11.215 -4 12 C-3.523 10.374 -3.043 8.749 -2.562 7.125 C-2.296 6.22 -2.029 5.315 -1.754 4.383 C-1 2 -1 2 0 0 Z " fill="#019490" transform="translate(835,542)"/>
<path d="M0 0 C0.66 0.66 1.32 1.32 2 2 C1.625 5.125 1.625 5.125 1 8 C0.01 8 -0.98 8 -2 8 C-1.125 2.25 -1.125 2.25 0 0 Z " fill="#E0F3F5" transform="translate(832,542)"/>
<path d="M0 0 C-3.448 2.053 -5.317 3.063 -9.375 2.688 C-10.241 2.461 -11.107 2.234 -12 2 C-7.932 -0.712 -4.693 -1.564 0 0 Z " fill="#07A09E" transform="translate(222,184)"/>
<path d="M0 0 C1.562 1.188 1.562 1.188 3 3 C2.688 5.688 2.688 5.688 2 8 C1.34 8 0.68 8 0 8 C-1.125 2.25 -1.125 2.25 0 0 Z " fill="#05BCB7" transform="translate(444,783)"/>
<path d="M0 0 C1.374 3.818 0.68 7.073 0 11 C-0.66 11 -1.32 11 -2 11 C-3.149 7.447 -3.087 6.2 -1.562 2.688 C-1.047 1.801 -0.531 0.914 0 0 Z " fill="#03B4AD" transform="translate(583,771)"/>
<path d="M0 0 C3.011 2.007 3.63 2.839 5 6 C4.01 6.495 4.01 6.495 3 7 C2.34 6.67 1.68 6.34 1 6 C1 5.34 1 4.68 1 4 C0.34 4 -0.32 4 -1 4 C-0.67 2.68 -0.34 1.36 0 0 Z " fill="#1ACBC2" transform="translate(297,766)"/>
<path d="M0 0 C0.99 0.33 1.98 0.66 3 1 C2.67 2.32 2.34 3.64 2 5 C2.99 5.33 3.98 5.66 5 6 C4.01 6.66 3.02 7.32 2 8 C0.438 5.688 0.438 5.688 -1 3 C-0.67 2.01 -0.34 1.02 0 0 Z " fill="#14ADA9" transform="translate(794,282)"/>
<path d="M0 0 C0 0.33 0 0.66 0 1 C-8.571 1.286 -8.571 1.286 -12 -1 C-7.483 -2.369 -4.412 -1.471 0 0 Z " fill="#079A96" transform="translate(563,137)"/>
<path d="M0 0 C0.66 0 1.32 0 2 0 C2 0.99 2 1.98 2 3 C2.928 3.217 2.928 3.217 3.875 3.438 C6 4 6 4 8 5 C7.67 5.66 7.34 6.32 7 7 C4.36 5.68 1.72 4.36 -1 3 C-0.67 2.01 -0.34 1.02 0 0 Z " fill="#FB646B" transform="translate(397,818)"/>
<path d="M0 0 C2.97 0.33 5.94 0.66 9 1 C9 1.33 9 1.66 9 2 C7.02 2.33 5.04 2.66 3 3 C3 3.66 3 4.32 3 5 C1.68 4.67 0.36 4.34 -1 4 C-0.67 2.68 -0.34 1.36 0 0 Z " fill="#2DAEAB" transform="translate(548,816)"/>
<path d="M0 0 C3.63 0.66 7.26 1.32 11 2 C10.01 2.33 9.02 2.66 8 3 C8 3.66 8 4.32 8 5 C7.34 4.67 6.68 4.34 6 4 C4.004 3.321 2.004 2.654 0 2 C0 1.34 0 0.68 0 0 Z " fill="#1AB6AF" transform="translate(388,752)"/>
<path d="M0 0 C-3.089 2.059 -3.709 2.239 -7.188 2.125 C-9.075 2.063 -9.075 2.063 -11 2 C-11 1.34 -11 0.68 -11 0 C-7.182 -1.374 -3.927 -0.68 0 0 Z " fill="#C6E8E9" transform="translate(627,752)"/>
<path d="M0 0 C0.66 1.32 1.32 2.64 2 4 C-0.97 3.67 -3.94 3.34 -7 3 C-7 2.34 -7 1.68 -7 1 C-4.509 0.313 -2.621 0 0 0 Z " fill="#06B0B3" transform="translate(747,729)"/>
<path d="M0 0 C3 1 3 1 4.75 3.375 C6 6 6 6 5 9 C2.675 6.147 1.249 3.459 0 0 Z " fill="#DFE6E6" transform="translate(397,647)"/>
<path d="M0 0 C0.99 0 1.98 0 3 0 C3.33 0.99 3.66 1.98 4 3 C2.68 4.32 1.36 5.64 0 7 C-1.044 3.867 -0.934 3.01 0 0 Z " fill="#E6F5F8" transform="translate(787,632)"/>
<path d="M0 0 C1.485 0.99 1.485 0.99 3 2 C2.34 4.31 1.68 6.62 1 9 C0.34 9 -0.32 9 -1 9 C-0.67 6.03 -0.34 3.06 0 0 Z " fill="#E2EDF0" transform="translate(655,626)"/>
<path d="M0 0 C1.735 2.603 2.611 3.987 3 7 C2.34 7.66 1.68 8.32 1 9 C-0.619 6.428 -1.044 5.323 -0.625 2.25 C-0.419 1.507 -0.212 0.765 0 0 Z " fill="#DBF1F4" transform="translate(820,335)"/>
<path d="M0 0 C2.31 0 4.62 0 7 0 C7.33 0.66 7.66 1.32 8 2 C7.01 3.485 7.01 3.485 6 5 C3.981 3.696 1.981 2.362 0 1 C0 0.67 0 0.34 0 0 Z " fill="#0BCEC3" transform="translate(427,811)"/>
<path d="M0 0 C0.99 0.33 1.98 0.66 3 1 C2.01 2.485 2.01 2.485 1 4 C-2.125 4.188 -2.125 4.188 -5 4 C-3.366 2.292 -2.131 1.065 0 0 Z " fill="#04B6B8" transform="translate(746,754)"/>
<path d="M0 0 C0.66 0 1.32 0 2 0 C2 0.99 2 1.98 2 3 C2.66 3 3.32 3 4 3 C4 5.64 4 8.28 4 11 C1.542 7.313 0.988 4.303 0 0 Z " fill="#019896" transform="translate(831,364)"/>
<path d="M0 0 C0.66 0.33 1.32 0.66 2 1 C0.796 3.494 -0.454 5.681 -2 8 C-2.99 7.67 -3.98 7.34 -5 7 C-4.34 6.67 -3.68 6.34 -3 6 C-3 5.34 -3 4.68 -3 4 C-2.34 4 -1.68 4 -1 4 C-0.67 2.68 -0.34 1.36 0 0 Z " fill="#09A4A0" transform="translate(256,246)"/>
<path d="M0 0 C-3.423 3.15 -6.443 3.562 -11 4 C-10 2 -10 2 -7.75 0.875 C-4.984 -0.005 -2.88 -0.165 0 0 Z " fill="#019A98" transform="translate(394,154)"/>
<path d="M0 0 C1.562 1.25 1.562 1.25 3 3 C2.688 5.188 2.688 5.188 2 7 C1.67 6.34 1.34 5.68 1 5 C0.34 5 -0.32 5 -1 5 C-0.67 3.35 -0.34 1.7 0 0 Z " fill="#05B2AE" transform="translate(537,801)"/>
<path d="M0 0 C0.99 0.66 1.98 1.32 3 2 C3 2.66 3 3.32 3 4 C1.02 4 -0.96 4 -3 4 C-3 3.01 -3 2.02 -3 1 C-2.01 1.33 -1.02 1.66 0 2 C0 1.34 0 0.68 0 0 Z " fill="#E8F2F4" transform="translate(542,765)"/>
<path d="M0 0 C0.33 0.66 0.66 1.32 1 2 C3.527 2.656 3.527 2.656 6 3 C6 3.33 6 3.66 6 4 C0.585 4.369 0.585 4.369 -2.375 2.5 C-2.911 2.005 -3.447 1.51 -4 1 C-2.68 0.67 -1.36 0.34 0 0 Z " fill="#16D2C8" transform="translate(138,676)"/>
<path d="M0 0 C4.455 0.99 4.455 0.99 9 2 C8.34 2.66 7.68 3.32 7 4 C4.384 3.673 2.359 3.18 0 2 C0 1.34 0 0.68 0 0 Z " fill="#009997" transform="translate(148,179)"/>
</svg>
