<?xml version="1.0" encoding="UTF-8"?>
<!-- Generator: visioncortex VTracer 0.6.4 -->
<svg version="1.1" xmlns="http://www.w3.org/2000/svg" width="1024" height="1024">
<path d="M0 0 C337.92 0 675.84 0 1024 0 C1024 337.92 1024 675.84 1024 1024 C686.08 1024 348.16 1024 0 1024 C0 686.08 0 348.16 0 0 Z " fill="#0C1C2A" transform="translate(0,0)"/>
<path d="M0 0 C2.438 0.375 2.438 0.375 5 1 C5.33 1.66 5.66 2.32 6 3 C6.949 3.309 7.898 3.619 8.875 3.938 C11.909 4.969 12.968 5.664 15 8 C15.66 8.33 16.32 8.66 17 9 C16.592 14.203 15.967 17.451 12 21 C9.68 21.414 7.344 21.749 5 22 C4.411 22.501 3.822 23.003 3.215 23.52 C0.09 25.608 -2.225 25.225 -5.938 25.062 C-10.921 24.792 -10.921 24.792 -15.629 26.121 C-18 27 -18 27 -20.093 26.063 C-24.083 24.604 -27.669 24.789 -31.879 24.875 C-32.728 24.883 -33.577 24.89 -34.452 24.898 C-37.156 24.922 -39.859 24.96 -42.562 25 C-46.126 25.053 -49.69 25.093 -53.254 25.125 C-54.071 25.142 -54.887 25.158 -55.729 25.175 C-59.735 25.21 -62.55 25.061 -66 23 C-69.542 22.137 -72.894 21.85 -76.532 21.779 C-77.626 21.756 -78.719 21.733 -79.846 21.709 C-81.027 21.689 -82.209 21.669 -83.426 21.648 C-84.662 21.625 -85.899 21.601 -87.173 21.577 C-90.522 21.516 -93.871 21.46 -97.221 21.408 C-99.326 21.375 -101.431 21.34 -103.536 21.306 C-120.024 21.041 -136.479 20.934 -152.962 21.513 C-172.399 22.179 -191.843 22.12 -211.289 22.124 C-214.05 22.125 -216.811 22.128 -219.572 22.132 C-223.961 22.138 -228.349 22.138 -232.738 22.134 C-234.379 22.133 -236.02 22.134 -237.662 22.136 C-239.94 22.139 -242.218 22.135 -244.496 22.129 C-245.781 22.129 -247.066 22.128 -248.39 22.127 C-251.993 22 -255.438 21.533 -259 21 C-261.133 21.094 -263.263 21.252 -265.387 21.469 C-272.843 22.083 -280.125 21.901 -287.586 21.591 C-299.932 21.086 -312.128 20.997 -324.475 21.664 C-331.582 22.022 -338.514 21.813 -345.608 21.338 C-353.715 20.846 -361.719 21.3 -369.82 21.738 C-379.153 22.238 -388.447 22.172 -397.776 21.641 C-408.917 21.009 -420.024 20.849 -431.18 20.842 C-433.106 20.838 -435.032 20.832 -436.958 20.827 C-441.059 20.816 -445.161 20.807 -449.262 20.801 C-455.757 20.79 -462.251 20.77 -468.746 20.748 C-487.198 20.686 -505.649 20.632 -524.101 20.599 C-534.327 20.58 -544.553 20.551 -554.779 20.511 C-560.174 20.49 -565.569 20.474 -570.965 20.472 C-576.03 20.47 -581.095 20.454 -586.161 20.427 C-588.012 20.42 -589.864 20.418 -591.715 20.422 C-601.226 20.436 -609.944 20.344 -619 17 C-619.195 10.945 -619.195 10.945 -619 9 C-613.677 3.677 -605.78 3.888 -598.696 3.858 C-597.261 3.86 -597.261 3.86 -595.798 3.861 C-594.768 3.858 -593.737 3.856 -592.676 3.853 C-589.208 3.844 -585.74 3.843 -582.272 3.842 C-579.768 3.837 -577.263 3.832 -574.758 3.827 C-569.304 3.816 -563.85 3.808 -558.395 3.803 C-550.285 3.796 -542.175 3.783 -534.065 3.769 C-520.422 3.745 -506.779 3.726 -493.137 3.709 C-479.627 3.693 -466.118 3.674 -452.608 3.653 C-451.769 3.652 -450.929 3.65 -450.064 3.649 C-445.799 3.642 -441.535 3.636 -437.271 3.629 C-407.059 3.581 -376.848 3.538 -346.636 3.497 C-317.285 3.458 -287.933 3.417 -258.582 3.372 C-257.677 3.371 -256.772 3.37 -255.84 3.368 C-246.756 3.355 -237.672 3.341 -228.587 3.327 C-210.081 3.299 -191.575 3.271 -173.068 3.244 C-172.218 3.242 -171.367 3.241 -170.49 3.24 C-113.66 3.155 -56.83 3.077 0 3 C0 2.01 0 1.02 0 0 Z " fill="#5B3925" transform="translate(815,599)"/>
<path d="M0 0 C0.323 0.488 0.646 0.977 0.978 1.48 C4.142 3.859 7.547 3.383 11.348 3.325 C12.201 3.324 13.054 3.322 13.932 3.321 C16.761 3.314 19.589 3.286 22.418 3.258 C24.393 3.25 26.368 3.243 28.344 3.238 C33.56 3.221 38.777 3.186 43.994 3.148 C52.297 3.089 60.6 3.054 68.902 3.022 C71.782 3.008 74.662 2.987 77.542 2.964 C87.013 2.904 96.377 3.08 105.821 3.823 C109.739 4.041 113.129 3.601 117 3 C120.605 2.853 124.205 2.86 127.812 2.875 C128.753 2.871 129.693 2.867 130.662 2.863 C131.564 2.865 132.466 2.866 133.395 2.867 C134.208 2.868 135.021 2.869 135.859 2.871 C138 3 138 3 141 4 C143.667 3.963 146.28 3.861 148.938 3.688 C150.012 3.634 150.012 3.634 151.107 3.58 C154.935 3.342 157.625 2.734 161 1 C163.024 1.95 165.026 2.95 167 4 C167.99 3.67 168.98 3.34 170 3 C172.851 3.174 175.667 3.512 178.504 3.844 C181.342 3.971 183.712 3.849 186.506 3.514 C192.154 2.922 197.732 2.89 203.406 2.938 C204.453 2.941 205.499 2.945 206.578 2.949 C209.885 2.961 213.193 2.98 216.5 3 C220.885 3.027 225.271 3.047 229.656 3.062 C230.664 3.071 231.673 3.079 232.712 3.088 C233.64 3.091 234.569 3.094 235.525 3.098 C236.753 3.106 236.753 3.106 238.005 3.114 C240.074 3.128 240.074 3.128 242 2 C243.875 2.239 245.75 2.482 247.621 2.746 C250.107 3.011 252.5 3.034 255 3 C261.034 2.924 266.999 3.389 273.008 3.879 C275.945 3.968 278.344 3.891 281.209 3.516 C285.709 2.989 290.126 2.858 294.653 2.871 C295.872 2.868 295.872 2.868 297.116 2.865 C299.77 2.861 302.424 2.864 305.078 2.867 C306.937 2.867 308.795 2.866 310.654 2.864 C314.533 2.863 318.413 2.865 322.293 2.87 C327.262 2.875 332.23 2.872 337.199 2.866 C341.03 2.862 344.861 2.864 348.693 2.866 C350.525 2.867 352.358 2.866 354.19 2.864 C356.748 2.861 359.306 2.865 361.864 2.871 C362.618 2.869 363.371 2.867 364.147 2.864 C367.906 2.88 371.332 3.213 375 4 C377.004 3.694 379.004 3.357 381 3 C383.698 2.908 386.369 2.86 389.066 2.867 C389.823 2.866 390.579 2.865 391.359 2.864 C392.95 2.864 394.541 2.865 396.132 2.87 C398.558 2.875 400.985 2.87 403.412 2.863 C404.964 2.864 406.515 2.865 408.066 2.867 C408.787 2.865 409.508 2.863 410.251 2.861 C413.98 2.878 417.36 3.247 421 4 C422.793 4.015 424.588 3.971 426.379 3.879 C427.382 3.831 428.386 3.782 429.42 3.732 C430.457 3.676 431.494 3.62 432.562 3.562 C434.626 3.459 436.69 3.356 438.754 3.254 C440.12 3.182 440.12 3.182 441.514 3.108 C451.98 2.654 462.525 3 473 3 C473.33 2.34 473.66 1.68 474 1 C476.31 1.33 478.62 1.66 481 2 C481 2.66 481 3.32 481 4 C482.217 3.814 483.434 3.629 484.688 3.438 C487.13 3.065 488.87 2.971 491.297 3.504 C494.825 4.151 497.994 3.812 501.562 3.5 C505.701 3.139 509.013 2.882 513 4 C515.024 3.903 515.024 3.903 517.188 3.562 C521.992 2.993 526.674 2.99 531.5 3.062 C537.893 3.142 543.796 2.707 550 1 C550.33 1.66 550.66 2.32 551 3 C553.325 3.256 555.663 3.406 558 3.5 C560.337 3.594 562.675 3.744 565 4 C565.33 4.66 565.66 5.32 566 6 C564.727 6.001 563.453 6.003 562.142 6.004 C506.038 6.064 449.935 6.126 393.832 6.201 C392.983 6.202 392.134 6.204 391.259 6.205 C372.806 6.229 354.354 6.255 335.902 6.28 C326.853 6.293 317.804 6.305 308.755 6.317 C307.855 6.319 306.954 6.32 306.026 6.321 C276.829 6.361 247.631 6.395 218.433 6.425 C188.434 6.456 158.435 6.493 128.436 6.539 C124.2 6.545 119.965 6.552 115.73 6.558 C114.896 6.559 114.063 6.561 113.204 6.562 C99.775 6.582 86.346 6.595 72.917 6.605 C59.422 6.616 45.928 6.634 32.434 6.659 C24.413 6.674 16.391 6.683 8.37 6.685 C2.386 6.686 -3.597 6.698 -9.581 6.714 C-12.006 6.719 -14.432 6.72 -16.857 6.718 C-20.145 6.716 -23.433 6.725 -26.721 6.738 C-27.67 6.735 -28.619 6.731 -29.597 6.727 C-36.755 6.775 -42.385 8.194 -49 11 C-49.33 13.64 -49.66 16.28 -50 19 C-40.044 21.445 -30.177 21.301 -20 21.303 C-18.092 21.311 -16.184 21.319 -14.275 21.329 C-10.182 21.347 -6.089 21.359 -1.995 21.366 C4.497 21.378 10.99 21.403 17.482 21.43 C27.77 21.472 38.057 21.504 48.345 21.533 C66.721 21.584 85.096 21.647 103.472 21.718 C109.905 21.743 116.338 21.762 122.77 21.778 C126.802 21.788 130.833 21.802 134.865 21.817 C136.711 21.823 138.556 21.828 140.402 21.83 C151.739 21.848 163.023 22.167 174.345 22.775 C183.809 23.268 193.221 23.115 202.678 22.589 C212.803 22.032 222.721 22.149 232.846 22.664 C239.059 22.955 245.112 22.947 251.312 22.5 C262.57 21.698 273.81 22.237 285.073 22.682 C292.739 22.967 300.153 23.032 307.797 22.139 C310.463 22.023 312.721 22.153 315.351 22.462 C322.687 23.272 330.044 23.144 337.414 23.133 C339.016 23.134 340.619 23.135 342.221 23.137 C346.477 23.139 350.732 23.135 354.988 23.128 C357.638 23.125 360.289 23.124 362.939 23.123 C381.654 23.118 400.356 23.088 419.062 22.438 C435.419 21.869 451.758 22.068 468.118 22.341 C470.172 22.375 472.225 22.407 474.278 22.44 C478.116 22.503 481.955 22.574 485.793 22.648 C486.952 22.668 488.112 22.688 489.306 22.709 C490.38 22.732 491.453 22.755 492.559 22.779 C493.493 22.797 494.428 22.816 495.39 22.835 C502.27 23.27 502.27 23.27 505 26 C501.417 26.844 498.302 27.058 494.633 26.844 C493.58 26.791 492.526 26.738 491.441 26.684 C489.301 26.565 487.16 26.443 485.02 26.316 C477.699 25.957 470.515 26.098 463.199 26.461 C451.754 27.028 440.337 27.153 428.879 27.13 C425.644 27.125 422.409 27.13 419.174 27.137 C417.078 27.136 414.982 27.135 412.887 27.133 C411.939 27.135 410.991 27.137 410.014 27.139 C404.769 27.121 399.686 26.833 394.488 26.116 C391.239 25.964 388.214 26.524 385 27 C382.822 27.086 380.641 27.128 378.461 27.129 C377.205 27.133 375.949 27.136 374.656 27.139 C373.3 27.137 371.945 27.135 370.59 27.133 C369.176 27.133 367.762 27.134 366.349 27.136 C363.389 27.137 360.429 27.135 357.47 27.13 C353.717 27.125 349.965 27.128 346.212 27.134 C343.291 27.138 340.369 27.136 337.448 27.134 C336.066 27.133 334.685 27.134 333.304 27.136 C326.47 27.145 319.707 27.024 312.895 26.465 C305.994 25.925 299.251 26.122 292.344 26.43 C274.932 27.091 257.516 27.12 240.094 27.133 C239.379 27.133 238.664 27.134 237.927 27.134 C229.058 27.14 220.188 27.136 211.319 27.129 C205.194 27.124 199.069 27.127 192.944 27.132 C186.979 27.137 181.014 27.137 175.049 27.135 C171.51 27.133 167.972 27.133 164.433 27.136 C160.526 27.14 156.62 27.135 152.713 27.129 C151.549 27.131 150.384 27.133 149.185 27.136 C148.129 27.133 147.073 27.13 145.985 27.127 C144.605 27.126 144.605 27.126 143.197 27.126 C141 27 141 27 139 26 C136.093 26.092 133.213 26.242 130.312 26.438 C108.725 27.728 108.725 27.728 102.082 26.43 C98.934 25.991 96.304 26.331 93.176 26.753 C89.751 27.142 86.329 27.143 82.887 27.133 C81.782 27.134 81.782 27.134 80.656 27.136 C79.115 27.136 77.575 27.135 76.035 27.13 C73.676 27.125 71.318 27.13 68.959 27.137 C67.456 27.136 65.952 27.135 64.449 27.133 C63.395 27.136 63.395 27.136 62.319 27.139 C59.267 27.124 56.92 26.973 54 26 C52.308 26.113 50.62 26.287 48.938 26.5 C44.25 26.996 40.04 26.851 35.387 26.156 C32.937 25.9 32.937 25.9 30.305 26.482 C26.731 27.042 23.355 27.13 19.738 27.133 C19.066 27.134 18.393 27.135 17.7 27.136 C16.289 27.136 14.879 27.135 13.468 27.13 C11.308 27.125 9.149 27.13 6.99 27.137 C5.615 27.136 4.239 27.135 2.863 27.133 C0.996 27.131 0.996 27.131 -0.909 27.129 C-4 27 -4 27 -7 26 C-8.114 26.247 -8.114 26.247 -9.25 26.5 C-12 27 -12 27 -15.25 26.5 C-18.338 26.088 -20.366 26.055 -23.375 26.438 C-32.616 27.591 -40.402 27.173 -49 23 C-49.33 22.01 -49.66 21.02 -50 20 C-51.32 20 -52.64 20 -54 20 C-55.416 14.721 -54.713 11.727 -52 7 C-50.079 5.337 -48.241 4.245 -46 3 C-46 3.66 -46 4.32 -46 5 C-41.623 3.774 -37.303 2.469 -33 1 C-32.01 1.99 -31.02 2.98 -30 4 C-29.67 3.67 -29.34 3.34 -29 3 C-27.38 2.791 -25.753 2.632 -24.125 2.5 C-21.151 2.257 -18.849 1.95 -16 1 C-14.664 1.324 -13.331 1.657 -12 2 C-11.34 1.67 -10.68 1.34 -10 1 C-8.48 0.955 -6.958 0.961 -5.438 1 C-3.959 1.038 -2.478 1.046 -1 1 C-0.67 0.67 -0.34 0.34 0 0 Z " fill="#443329" transform="translate(246,597)"/>
<path d="M0 0 C207.9 0 415.8 0 630 0 C630 1.65 630 3.3 630 5 C422.1 5 214.2 5 0 5 C0 3.35 0 1.7 0 0 Z " fill="#FBDD20" transform="translate(196,609)"/>
<path d="M0 0 C1.889 -0.375 1.889 -0.375 4.244 -0.375 C5.141 -0.382 6.039 -0.389 6.964 -0.397 C7.958 -0.39 8.953 -0.382 9.977 -0.375 C11.032 -0.379 12.086 -0.383 13.172 -0.387 C16.747 -0.397 20.322 -0.386 23.896 -0.374 C26.468 -0.377 29.04 -0.381 31.612 -0.386 C37.226 -0.396 42.84 -0.394 48.453 -0.385 C56.801 -0.371 65.149 -0.374 73.496 -0.381 C88.403 -0.393 103.31 -0.388 118.216 -0.376 C131.263 -0.366 144.31 -0.361 157.357 -0.363 C158.653 -0.363 158.653 -0.363 159.975 -0.363 C163.483 -0.363 166.991 -0.363 170.499 -0.364 C203.433 -0.368 236.367 -0.355 269.301 -0.334 C298.578 -0.316 327.854 -0.31 357.131 -0.316 C359.01 -0.316 360.89 -0.316 362.769 -0.317 C363.698 -0.317 364.627 -0.317 365.585 -0.317 C370.261 -0.318 374.938 -0.319 379.614 -0.32 C380.537 -0.32 381.46 -0.32 382.41 -0.32 C406.852 -0.324 431.293 -0.319 455.734 -0.31 C458.364 -0.309 460.993 -0.308 463.622 -0.307 C465.367 -0.307 467.111 -0.306 468.855 -0.306 C481.029 -0.301 493.203 -0.301 505.376 -0.303 C521.065 -0.305 536.753 -0.301 552.441 -0.286 C560.743 -0.277 569.045 -0.275 577.347 -0.28 C583.535 -0.284 589.724 -0.276 595.913 -0.265 C598.424 -0.262 600.936 -0.263 603.447 -0.267 C606.847 -0.272 610.246 -0.265 613.645 -0.254 C614.633 -0.259 615.62 -0.263 616.637 -0.268 C621.188 -0.241 624.878 -0.189 629 2 C629 4.31 629 6.62 629 9 C421.1 9 213.2 9 -1 9 C-1 8.67 -1 8.34 -1 8 C206.57 8 414.14 8 628 8 C628 6.35 628 4.7 628 3 C420.1 3 212.2 3 -2 3 C-1.34 2.01 -0.68 1.02 0 0 Z " fill="#9C6732" transform="translate(198,606)"/>
<path d="M0 0 C205.92 0 411.84 0 624 0 C621.108 2.892 618.661 3.125 614.749 3.126 C613.438 3.131 613.438 3.131 612.101 3.135 C610.658 3.132 610.658 3.132 609.185 3.129 C608.16 3.13 607.135 3.132 606.079 3.134 C602.612 3.139 599.144 3.136 595.676 3.134 C593.178 3.136 590.68 3.138 588.183 3.141 C582.734 3.145 577.286 3.147 571.837 3.146 C563.735 3.145 555.632 3.149 547.53 3.154 C532.216 3.164 516.903 3.166 501.59 3.167 C489.762 3.168 477.935 3.17 466.108 3.173 C462.706 3.174 459.305 3.175 455.903 3.175 C455.057 3.176 454.211 3.176 453.34 3.176 C429.542 3.182 405.744 3.186 381.946 3.186 C381.049 3.186 380.151 3.186 379.226 3.186 C374.675 3.186 370.125 3.186 365.574 3.185 C364.67 3.185 363.766 3.185 362.835 3.185 C361.008 3.185 359.18 3.185 357.352 3.185 C328.928 3.185 300.503 3.192 272.079 3.206 C240.156 3.221 208.233 3.23 176.31 3.229 C172.905 3.229 169.501 3.229 166.096 3.229 C165.258 3.229 164.42 3.229 163.556 3.229 C150.066 3.229 136.575 3.235 123.085 3.244 C109.523 3.252 95.961 3.253 82.398 3.247 C74.342 3.243 66.287 3.245 58.231 3.254 C52.213 3.261 46.195 3.257 40.177 3.25 C37.744 3.248 35.311 3.25 32.878 3.255 C29.568 3.263 26.258 3.257 22.948 3.249 C22.006 3.254 21.065 3.259 20.095 3.264 C13.244 3.228 6.723 2.287 0 1 C0 0.67 0 0.34 0 0 Z " fill="#7F4B27" transform="translate(200,615)"/>
<path d="M0 0 C2.041 1.616 4.041 3.286 6 5 C6 5.66 6 6.32 6 7 C6.99 7 7.98 7 9 7 C10.667 10.333 12.333 13.667 14 17 C12.356 18.694 10.688 20.35 9 22 C8.446 22.574 7.891 23.147 7.32 23.738 C5.608 25.394 4.055 26.794 2 28 C-1.375 27.625 -1.375 27.625 -4 26 C-4.875 23.875 -4.875 23.875 -5 22 C-6.32 22 -7.64 22 -9 22 C-11.656 18.902 -12.905 16.826 -13.375 12.75 C-13 10 -13 10 -11 8 C-10.01 8 -9.02 8 -8 8 C-8 7.34 -8 6.68 -8 6 C-7.381 5.918 -6.763 5.835 -6.125 5.75 C-3.823 5.2 -3.823 5.2 -2.875 3 C-2.586 2.34 -2.297 1.68 -2 1 C-1.34 0.67 -0.68 0.34 0 0 Z " fill="#532A14" transform="translate(120,73)"/>
<path d="M0 0 C7.75 0.875 7.75 0.875 10 2 C10.124 3.134 10.247 4.269 10.375 5.438 C10.581 6.613 10.788 7.789 11 9 C12.95 10.225 12.95 10.225 15 11 C15.75 13.125 15.75 13.125 16 15 C15.113 15.701 14.226 16.403 13.312 17.125 C10.096 19.791 7.588 22.727 5 26 C0.986 25.382 -1.829 23.466 -5 21 C-5.875 18.75 -5.875 18.75 -6 17 C-7.32 17 -8.64 17 -10 17 C-10.113 13.835 -9.95 11.033 -9 8 C-7.079 6.026 -5.142 4.652 -2.812 3.191 C-0.85 2.119 -0.85 2.119 0 0 Z " fill="#4D2717" transform="translate(910,508)"/>
<path d="M0 0 C2.875 0.75 2.875 0.75 6 2 C7.188 4.062 7.188 4.062 8 6 C8.99 6.33 9.98 6.66 11 7 C13.75 9.875 13.75 9.875 16 13 C15.67 13.99 15.34 14.98 15 16 C12.69 16.33 10.38 16.66 8 17 C7.711 17.763 7.423 18.526 7.125 19.312 C6 22 6 22 4 25 C-1.32 24.667 -5.392 21.742 -9 18 C-10.361 13.916 -10.42 12.04 -8.812 8.062 C-7.915 7.042 -7.915 7.042 -7 6 C-5.68 6 -4.36 6 -3 6 C-2.876 5.381 -2.753 4.763 -2.625 4.125 C-2 2 -2 2 0 0 Z " fill="#492414" transform="translate(910,906)"/>
<path d="M0 0 C2.438 0.375 2.438 0.375 5 1 C5.495 1.99 5.495 1.99 6 3 C6.949 3.309 7.898 3.619 8.875 3.938 C11.909 4.969 12.968 5.664 15 8 C15.99 8.495 15.99 8.495 17 9 C16.592 14.203 15.967 17.451 12 21 C9.68 21.414 7.344 21.749 5 22 C4.411 22.501 3.822 23.003 3.215 23.52 C0.09 25.608 -2.225 25.225 -5.938 25.062 C-10.921 24.792 -10.921 24.792 -15.629 26.121 C-18 27 -18 27 -20.084 26.067 C-24.108 24.594 -27.77 24.752 -32.02 24.805 C-33.307 24.809 -33.307 24.809 -34.621 24.813 C-37.352 24.824 -40.082 24.85 -42.812 24.875 C-44.669 24.885 -46.525 24.894 -48.381 24.902 C-52.921 24.924 -57.46 24.959 -62 25 C-62.33 24.34 -62.66 23.68 -63 23 C-50.489 21.901 -38.05 21.913 -25.5 22 C-21.594 22.027 -17.688 22.047 -13.781 22.062 C-12.902 22.071 -12.023 22.079 -11.117 22.088 C-6.296 22.107 -1.753 21.816 3 21 C3.495 19.515 3.495 19.515 4 18 C6.896 16.552 8.742 16 12 16 C11.505 12.535 11.505 12.535 11 9 C6.71 7.68 2.42 6.36 -2 5 C-1.67 4.34 -1.34 3.68 -1 3 C-0.67 2.01 -0.34 1.02 0 0 Z " fill="#3B3029" transform="translate(815,599)"/>
<path d="M0 0 C0.66 0 1.32 0 2 0 C2 2.31 2 4.62 2 7 C4.97 7 7.94 7 11 7 C11.33 8.32 11.66 9.64 12 11 C10.577 11.093 10.577 11.093 9.125 11.188 C8.094 11.456 7.062 11.724 6 12 C4.661 14.348 4.661 14.348 4 17 C3.34 17.99 2.68 18.98 2 20 C-1.786 18.738 -2.041 17.347 -4 14 C-4.99 13.34 -5.98 12.68 -7 12 C-7.688 9.875 -7.688 9.875 -8 8 C-4.535 7.505 -4.535 7.505 -1 7 C-0.67 4.69 -0.34 2.38 0 0 Z " fill="#773A0C" transform="translate(912,911)"/>
<path d="M0 0 C1.32 0 2.64 0 4 0 C4.33 2.97 4.66 5.94 5 9 C7.31 9.33 9.62 9.66 12 10 C12 10.66 12 11.32 12 12 C9.36 12.33 6.72 12.66 4 13 C4 15.64 4 18.28 4 21 C3.01 20.67 2.02 20.34 1 20 C0.505 17.525 0.505 17.525 0 15 C-2.31 14.67 -4.62 14.34 -7 14 C-6.812 10.688 -6.812 10.688 -6 7 C-3.5 5.312 -3.5 5.312 -1 4 C-0.122 1.915 -0.122 1.915 0 0 Z " fill="#7B410F" transform="translate(910,510)"/>
<path d="M0 0 C1.521 0.491 1.521 0.491 3.073 0.992 C6.727 2.032 10.019 2.202 13.832 2.125 C15.761 2.1 15.761 2.1 17.728 2.074 C18.396 2.062 19.065 2.049 19.753 2.037 C31.964 1.819 43.906 2.142 56 4 C55.67 4.66 55.34 5.32 55 6 C53.229 6.027 51.458 6.046 49.688 6.062 C48.701 6.074 47.715 6.086 46.699 6.098 C44 6 44 6 41 5 C40.257 5.165 39.515 5.33 38.75 5.5 C36 6 36 6 32.75 5.5 C29.662 5.088 27.634 5.055 24.625 5.438 C15.008 6.638 8.15 5.468 -1 2 C-0.67 1.34 -0.34 0.68 0 0 Z " fill="#3F322A" transform="translate(198,618)"/>
<path d="M0 0 C0.33 1.32 0.66 2.64 1 4 C-2.75 7 -2.75 7 -5 7 C-5.33 9.31 -5.66 11.62 -6 14 C-3.69 14 -1.38 14 1 14 C1.66 15.98 2.32 17.96 3 20 C4.32 20 5.64 20 7 20 C7.33 19.34 7.66 18.68 8 18 C8.66 18 9.32 18 10 18 C8.848 20.468 7.952 22.048 6 24 C2.037 23.717 -0.947 21.375 -4 19 C-4.875 16.75 -4.875 16.75 -5 15 C-6.32 15 -7.64 15 -9 15 C-9.113 11.834 -8.952 9.034 -8 6 C-5.614 3.503 -2.978 1.73 0 0 Z " fill="#3E2318" transform="translate(909,510)"/>
<path d="M0 0 C2.625 0.375 2.625 0.375 5 1 C4.361 1.227 3.721 1.454 3.062 1.688 C0.728 2.853 0.728 2.853 0.25 5.625 C0.168 6.409 0.085 7.192 0 8 C-0.99 8.33 -1.98 8.66 -3 9 C-3.33 9.66 -3.66 10.32 -4 11 C-4.99 11.33 -5.98 11.66 -7 12 C-7.33 12.99 -7.66 13.98 -8 15 C-7.01 15 -6.02 15 -5 15 C-3.43 16.426 -3.43 16.426 -1.875 18.312 C-1.357 18.927 -0.839 19.542 -0.305 20.176 C1 22 1 22 2 25 C-1.99 23.245 -5.897 21.087 -9 18 C-10.297 13.965 -10.4 11.99 -8.812 8.062 C-7.915 7.042 -7.915 7.042 -7 6 C-5.68 6 -4.36 6 -3 6 C-2.876 5.381 -2.753 4.763 -2.625 4.125 C-2 2 -2 2 0 0 Z " fill="#432315" transform="translate(910,906)"/>
<path d="M0 0 C2.438 0.375 2.438 0.375 5 1 C5.33 1.66 5.66 2.32 6 3 C6.949 3.309 7.898 3.619 8.875 3.938 C11.909 4.969 12.968 5.664 15 8 C15.66 8.33 16.32 8.66 17 9 C16.744 11.343 16.407 13.678 16 16 C15.34 16.33 14.68 16.66 14 17 C13.856 15.907 13.711 14.814 13.562 13.688 C13.102 11.714 13.102 11.714 12 10 C9.138 8.449 6.147 7.77 3 7 C1.326 6.351 -0.345 5.694 -2 5 C-1.67 4.34 -1.34 3.68 -1 3 C-0.67 2.01 -0.34 1.02 0 0 Z " fill="#3F2D26" transform="translate(815,599)"/>
<path d="M0 0 C0.33 0.99 0.66 1.98 1 3 C-0.98 3.33 -2.96 3.66 -5 4 C-5 3.34 -5 2.68 -5 2 C-3.35 1.34 -1.7 0.68 0 0 Z M-13 2 C-12.67 2.66 -12.34 3.32 -12 4 C-10.02 3.67 -8.04 3.34 -6 3 C-5.67 3.66 -5.34 4.32 -5 5 C-6.258 5.247 -7.516 5.495 -8.812 5.75 C-11.449 6.43 -12.828 6.855 -14.938 8.625 C-16.476 12.064 -16.687 15.248 -17 19 C-17.99 19 -18.98 19 -20 19 C-21.418 13.715 -20.643 10.758 -18 6 C-15.312 3.562 -15.312 3.562 -13 2 Z " fill="#332A27" transform="translate(212,598)"/>
<path d="M0 0 C0.66 0 1.32 0 2 0 C2.33 1.98 2.66 3.96 3 6 C5.31 6.33 7.62 6.66 10 7 C10 7.66 10 8.32 10 9 C7.36 9.33 4.72 9.66 2 10 C2 11.98 2 13.96 2 16 C1.34 16 0.68 16 0 16 C-0.66 14.02 -1.32 12.04 -2 10 C-4.97 9.505 -4.97 9.505 -8 9 C-7.67 8.34 -7.34 7.68 -7 7 C-4.438 6.375 -4.438 6.375 -2 6 C-1.34 4.02 -0.68 2.04 0 0 Z " fill="#ECBD0D" transform="translate(912,513)"/>
<path d="M0 0 C0.66 0 1.32 0 2 0 C2 2.31 2 4.62 2 7 C4.31 7.33 6.62 7.66 9 8 C8.67 8.66 8.34 9.32 8 10 C5.438 10.625 5.438 10.625 3 11 C2.67 12.65 2.34 14.3 2 16 C1.34 16 0.68 16 0 16 C-0.495 13.525 -0.495 13.525 -1 11 C-3.31 10.34 -5.62 9.68 -8 9 C-5.353 7.539 -4.106 7 -1 7 C-0.67 4.69 -0.34 2.38 0 0 Z " fill="#EEC10F" transform="translate(912,911)"/>
<path d="M0 0 C0.33 0 0.66 0 1 0 C1.33 2.64 1.66 5.28 2 8 C3.98 8 5.96 8 8 8 C8 8.66 8 9.32 8 10 C6.02 10 4.04 10 2 10 C1.67 12.31 1.34 14.62 1 17 C0.34 17 -0.32 17 -1 17 C-1.33 15.02 -1.66 13.04 -2 11 C-4.31 10.67 -6.62 10.34 -9 10 C-9 9.34 -9 8.68 -9 8 C-5.535 7.505 -5.535 7.505 -2 7 C-1.34 4.69 -0.68 2.38 0 0 Z " fill="#F1C613" transform="translate(120,79)"/>
<path d="M0 0 C0.66 0.99 1.32 1.98 2 3 C-8.492 5.291 -19.314 5.144 -30 5 C-29.67 4.34 -29.34 3.68 -29 3 C-26.82 2.621 -26.82 2.621 -24.125 2.438 C-21.132 2.224 -18.867 1.956 -16 1 C-14.664 1.324 -13.331 1.657 -12 2 C-11.34 1.67 -10.68 1.34 -10 1 C-8.48 0.955 -6.958 0.961 -5.438 1 C-3.959 1.038 -2.478 1.046 -1 1 C-0.67 0.67 -0.34 0.34 0 0 Z " fill="#372E2A" transform="translate(246,597)"/>
<path d="M0 0 C2.041 1.616 4.041 3.286 6 5 C6 5.66 6 6.32 6 7 C6.99 7 7.98 7 9 7 C9.33 8.65 9.66 10.3 10 12 C7.125 11.75 7.125 11.75 4 11 C2.132 8.453 2 7.191 2 4 C1.01 4 0.02 4 -1 4 C-1 4.99 -1 5.98 -1 7 C-3.31 7.33 -5.62 7.66 -8 8 C-8 7.34 -8 6.68 -8 6 C-7.381 5.918 -6.763 5.835 -6.125 5.75 C-3.823 5.2 -3.823 5.2 -2.875 3 C-2.442 2.01 -2.442 2.01 -2 1 C-1.34 0.67 -0.68 0.34 0 0 Z " fill="#3B231D" transform="translate(120,73)"/>
<path d="M0 0 C1.32 0 2.64 0 4 0 C5.32 2.64 6.64 5.28 8 8 C6.35 8 4.7 8 3 8 C3 5.69 3 3.38 3 1 C2.34 1 1.68 1 1 1 C0.67 3.31 0.34 5.62 0 8 C-3 9 -6 10 -9 11 C-9 10.01 -9 9.02 -9 8 C-6 7 -3 6 0 5 C0 3.35 0 1.7 0 0 Z " fill="#8D4C0D" transform="translate(911,910)"/>
<path d="M0 0 C0.99 0 1.98 0 3 0 C4.461 2.647 5 3.894 5 7 C5.928 7.217 5.928 7.217 6.875 7.438 C9 8 9 8 11 9 C11 10.32 11 11.64 11 13 C8.36 13 5.72 13 3 13 C3 12.67 3 12.34 3 12 C4.98 12 6.96 12 9 12 C9 11.34 9 10.68 9 10 C7.02 10 5.04 10 3 10 C2.691 8.907 2.381 7.814 2.062 6.688 C1.417 4.446 0.738 2.213 0 0 Z " fill="#85490E" transform="translate(119,77)"/>
<path d="M0 0 C0.66 0 1.32 0 2 0 C2.33 0.66 2.66 1.32 3 2 C4.979 2.727 6.98 3.398 9 4 C9 5.65 9 7.3 9 9 C6.36 9.33 3.72 9.66 1 10 C0.67 10.99 0.34 11.98 0 13 C0 11.35 0 9.7 0 8 C2.64 7.67 5.28 7.34 8 7 C8 6.34 8 5.68 8 5 C5.69 5 3.38 5 1 5 C0.505 2.525 0.505 2.525 0 0 Z " fill="#87420A" transform="translate(914,515)"/>
<path d="M0 0 C0.043 2 0.041 4 0 6 C-1 7 -1 7 -4.562 7.062 C-5.697 7.042 -6.831 7.021 -8 7 C-7.67 5.02 -7.34 3.04 -7 1 C-4.509 0.313 -2.621 0 0 0 Z " fill="#572610" transform="translate(119,80)"/>
<path d="M0 0 C0.66 1.32 1.32 2.64 2 4 C-0.795 6.88 -3.654 9.676 -6.625 12.375 C-7.195 12.898 -7.765 13.422 -8.352 13.961 C-8.896 14.304 -9.44 14.647 -10 15 C-10.99 14.67 -11.98 14.34 -13 14 C-12.103 13.66 -12.103 13.66 -11.188 13.312 C-7.872 11.323 -6.686 8.373 -5 5 C-3.68 5 -2.36 5 -1 5 C-0.67 3.35 -0.34 1.7 0 0 Z " fill="#35211D" transform="translate(132,86)"/>
<path d="M0 0 C7.75 0.875 7.75 0.875 10 2 C10.407 4.322 10.744 6.657 11 9 C10.01 9 9.02 9 8 9 C7.34 7.35 6.68 5.7 6 4 C5.34 4 4.68 4 4 4 C4 3.34 4 2.68 4 2 C2.68 2 1.36 2 0 2 C0 1.34 0 0.68 0 0 Z " fill="#3D2218" transform="translate(910,508)"/>
<path d="M0 0 C0.66 0 1.32 0 2 0 C1.67 4.29 1.34 8.58 1 13 C0.01 13 -0.98 13 -2 13 C-3.468 7.527 -2.44 4.881 0 0 Z " fill="#2E221F" transform="translate(194,604)"/>
<path d="M0 0 C1.207 0.031 1.207 0.031 2.438 0.062 C3.097 1.383 3.758 2.702 4.438 4.062 C3.447 4.062 2.457 4.062 1.438 4.062 C1.438 3.403 1.438 2.742 1.438 2.062 C0.117 2.062 -1.202 2.062 -2.562 2.062 C-2.439 3.207 -2.439 3.207 -2.312 4.375 C-2.562 7.062 -2.562 7.062 -4.312 8.938 C-6.562 10.062 -6.562 10.062 -8.812 9.75 C-9.39 9.523 -9.967 9.296 -10.562 9.062 C-9.572 9.062 -8.582 9.062 -7.562 9.062 C-7.232 8.072 -6.903 7.082 -6.562 6.062 C-5.572 6.062 -4.582 6.062 -3.562 6.062 C-3.583 5.258 -3.604 4.454 -3.625 3.625 C-3.541 0.168 -3.457 0.084 0 0 Z " fill="#562913" transform="translate(913.5625,907.9375)"/>
<path d="M0 0 C0.66 0.33 1.32 0.66 2 1 C2.125 3.875 2.125 3.875 2 7 C-0.398 9.398 -1.333 9.343 -4.625 9.625 C-5.442 9.7 -6.26 9.775 -7.102 9.852 C-7.728 9.901 -8.355 9.95 -9 10 C-8 8 -8 8 -5.625 6.875 C-3 6 -3 6 0 6 C0 4.02 0 2.04 0 0 Z " fill="#4C3125" transform="translate(827,609)"/>
<path d="M0 0 C-0.454 0.433 -0.908 0.866 -1.375 1.312 C-3.2 3.108 -3.2 3.108 -5 6 C-6.969 7.378 -8.967 8.718 -11 10 C-11.33 9.34 -11.66 8.68 -12 8 C-11.381 7.423 -10.763 6.845 -10.125 6.25 C-7.939 4.178 -7.939 4.178 -7 1.812 C-6 0 -6 0 -4 -0.812 C-2 -1 -2 -1 0 0 Z " fill="#3E2218" transform="translate(924,923)"/>
<path d="M0 0 C0.33 0.99 0.66 1.98 1 3 C2.98 3 4.96 3 7 3 C7 3.66 7 4.32 7 5 C5.02 5 3.04 5 1 5 C0.67 7.31 0.34 9.62 0 12 C-0.66 12 -1.32 12 -2 12 C-2 10.68 -2 9.36 -2 8 C-1.34 8 -0.68 8 0 8 C-0.186 7.422 -0.371 6.845 -0.562 6.25 C-1.04 3.793 -0.757 2.356 0 0 Z " fill="#E3B013" transform="translate(121,84)"/>
<path d="M0 0 C1.65 0.33 3.3 0.66 5 1 C5 1.99 5 2.98 5 4 C3.907 4.103 2.814 4.206 1.688 4.312 C-1.856 4.973 -2.932 5.203 -5 8 C-4.67 6.35 -4.34 4.7 -4 3 C-2.35 2.67 -0.7 2.34 1 2 C0.67 1.34 0.34 0.68 0 0 Z " fill="#834810" transform="translate(919,918)"/>
<path d="M0 0 C2.31 0 4.62 0 7 0 C7.33 1.65 7.66 3.3 8 5 C4.562 4.188 4.562 4.188 1 3 C0.67 2.01 0.34 1.02 0 0 Z " fill="#58260E" transform="translate(903,524)"/>
<path d="M0 0 C2.475 0.99 2.475 0.99 5 2 C4.744 4.343 4.407 6.678 4 9 C3.01 9.495 3.01 9.495 2 10 C1.01 5.05 1.01 5.05 0 0 Z " fill="#2A2121" transform="translate(827,606)"/>
<path d="M0 0 C2.31 0.66 4.62 1.32 7 2 C7.33 3.65 7.66 5.3 8 7 C5.03 6.505 5.03 6.505 2 6 C1.34 4.02 0.68 2.04 0 0 Z " fill="#482312" transform="translate(122,78)"/>
<path d="M0 0 C0.33 0.66 0.66 1.32 1 2 C3.31 2 5.62 2 8 2 C8.33 3.65 8.66 5.3 9 7 C5.917 5.801 2.937 4.523 0 3 C0 2.01 0 1.02 0 0 Z " fill="#894607" transform="translate(110,87)"/>
<path d="M0 0 C0.99 0 1.98 0 3 0 C2.301 3.147 1.239 6.026 0 9 C-0.66 8.67 -1.32 8.34 -2 8 C-2.125 5.125 -2.125 5.125 -2 2 C-1.34 1.34 -0.68 0.68 0 0 Z " fill="#37211D" transform="translate(109,81)"/>
<path d="M0 0 C2.252 2.688 3.882 4.646 5 8 C3.35 8 1.7 8 0 8 C0 5.36 0 2.72 0 0 Z " fill="#823A06" transform="translate(914,910)"/>
<path d="M0 0 C2.97 0.33 5.94 0.66 9 1 C8.67 1.66 8.34 2.32 8 3 C4.7 3 1.4 3 -2 3 C-1.34 2.01 -0.68 1.02 0 0 Z " fill="#3E322A" transform="translate(261,621)"/>
<path d="M0 0 C1.65 0 3.3 0 5 0 C5 0.99 5 1.98 5 3 C3.02 3.66 1.04 4.32 -1 5 C-0.67 3.35 -0.34 1.7 0 0 Z " fill="#55260F" transform="translate(915,525)"/>
<path d="M0 0 C0.99 0.33 1.98 0.66 3 1 C2.67 2.98 2.34 4.96 2 7 C1.01 7 0.02 7 -1 7 C-0.67 4.69 -0.34 2.38 0 0 Z " fill="#44271D" transform="translate(901,518)"/>
<path d="M0 0 C0.99 0 1.98 0 3 0 C1.848 2.468 0.952 4.048 -1 6 C-3.125 5.625 -3.125 5.625 -5 5 C-3.68 4.67 -2.36 4.34 -1 4 C-0.67 2.68 -0.34 1.36 0 0 Z " fill="#38221D" transform="translate(916,528)"/>
<path d="M0 0 C1.675 0.286 3.344 0.618 5 1 C2.333 2.333 -0.333 3.667 -3 5 C-1.125 1.125 -1.125 1.125 0 0 Z " fill="#35211C" transform="translate(910,906)"/>
<path d="M0 0 C0.562 1.938 0.562 1.938 1 4 C0 5 0 5 -3.562 5.062 C-4.697 5.042 -5.831 5.021 -7 5 C-4 3 -4 3 -1 3 C-0.67 2.01 -0.34 1.02 0 0 Z " fill="#954E03" transform="translate(118,82)"/>
</svg>
