<?xml version="1.0" encoding="UTF-8"?>
<!-- Generator: visioncortex VTracer 0.6.4 -->
<svg version="1.1" xmlns="http://www.w3.org/2000/svg" width="1024" height="1024">
<path d="M0 0 C337.92 0 675.84 0 1024 0 C1024 337.92 1024 675.84 1024 1024 C686.08 1024 348.16 1024 0 1024 C0 686.08 0 348.16 0 0 Z " fill="#016A76" transform="translate(0,0)"/>
<path d="M0 0 C1.403 -0.002 2.806 -0.006 4.209 -0.01 C8.058 -0.018 11.907 -0.015 15.757 -0.009 C19.947 -0.004 24.137 -0.012 28.327 -0.018 C35.668 -0.027 43.01 -0.028 50.352 -0.024 C61.269 -0.019 72.186 -0.025 83.104 -0.033 C103.736 -0.049 124.368 -0.05 145.001 -0.048 C160.932 -0.046 176.863 -0.048 192.794 -0.052 C195.083 -0.053 197.371 -0.053 199.659 -0.054 C203.108 -0.055 206.556 -0.056 210.004 -0.057 C242.066 -0.065 274.128 -0.069 306.189 -0.065 C307.398 -0.065 308.607 -0.065 309.853 -0.065 C315.979 -0.064 322.106 -0.063 328.233 -0.062 C330.058 -0.062 330.058 -0.062 331.92 -0.062 C334.381 -0.061 336.842 -0.061 339.303 -0.061 C377.597 -0.055 415.891 -0.063 454.185 -0.082 C497.202 -0.102 540.219 -0.113 583.237 -0.109 C587.822 -0.109 592.408 -0.108 596.994 -0.108 C598.123 -0.108 599.252 -0.108 600.416 -0.108 C617.469 -0.107 634.522 -0.113 651.575 -0.124 C670.966 -0.136 690.357 -0.137 709.748 -0.125 C720.601 -0.118 731.454 -0.12 742.308 -0.134 C749.557 -0.142 756.806 -0.139 764.056 -0.128 C768.186 -0.121 772.317 -0.12 776.447 -0.132 C780.209 -0.142 783.971 -0.139 787.733 -0.124 C789.714 -0.12 791.696 -0.131 793.677 -0.142 C810.115 -0.043 822.197 4.942 834.403 15.879 C843.3 25.428 848.362 38.236 848.285 51.196 C848.289 51.958 848.292 52.719 848.296 53.504 C848.305 56.046 848.3 58.588 848.295 61.13 C848.299 62.975 848.304 64.82 848.309 66.665 C848.321 71.727 848.321 76.79 848.319 81.853 C848.318 87.316 848.329 92.779 848.339 98.242 C848.356 108.943 848.361 119.644 848.362 130.346 C848.363 139.046 848.367 147.746 848.374 156.446 C848.391 181.119 848.4 205.792 848.399 230.465 C848.399 231.462 848.399 231.462 848.399 232.479 C848.399 233.824 848.399 235.168 848.399 236.512 C848.397 257.419 848.412 278.325 848.44 299.232 C848.47 322.733 848.488 346.234 848.486 369.736 C848.485 382.174 848.491 394.613 848.512 407.051 C848.53 417.643 848.535 428.234 848.521 438.826 C848.515 444.227 848.514 449.628 848.532 455.029 C848.548 459.98 848.545 464.931 848.527 469.882 C848.524 471.666 848.528 473.451 848.539 475.236 C848.623 489.541 847.411 502.704 838.028 514.254 C837.391 515.076 836.754 515.897 836.098 516.743 C827.835 526.717 817.685 532.739 805.028 535.254 C800.317 535.66 795.634 535.66 790.907 535.635 C789.5 535.638 788.093 535.643 786.686 535.649 C782.831 535.661 778.975 535.655 775.12 535.646 C770.921 535.639 766.722 535.65 762.524 535.658 C755.168 535.671 747.813 535.672 740.457 535.666 C729.519 535.657 718.582 535.665 707.644 535.676 C688.107 535.696 668.571 535.698 649.035 535.693 C631.937 535.688 614.839 535.689 597.74 535.695 C595.447 535.696 593.154 535.696 590.861 535.697 C587.405 535.698 583.949 535.699 580.494 535.701 C548.364 535.711 516.235 535.716 484.106 535.708 C482.895 535.708 481.683 535.708 480.435 535.707 C470.599 535.705 460.762 535.702 450.926 535.7 C412.558 535.689 374.19 535.698 335.822 535.721 C292.716 535.747 249.611 535.76 206.505 535.753 C201.909 535.752 197.313 535.751 192.717 535.751 C191.586 535.751 190.454 535.75 189.288 535.75 C172.203 535.748 155.118 535.756 138.033 535.769 C118.603 535.784 99.173 535.785 79.743 535.767 C68.87 535.757 57.998 535.759 47.125 535.776 C39.86 535.787 32.595 535.783 25.33 535.767 C21.192 535.758 17.055 535.756 12.917 535.771 C9.146 535.785 5.376 535.78 1.605 535.761 C-0.377 535.755 -2.358 535.769 -4.339 535.784 C-16.549 535.685 -27.66 532.911 -37.972 526.254 C-37.972 525.594 -37.972 524.934 -37.972 524.254 C-38.57 523.966 -39.168 523.677 -39.784 523.379 C-41.972 522.254 -41.972 522.254 -44.972 520.254 C-44.972 519.594 -44.972 518.934 -44.972 518.254 C-45.632 518.254 -46.292 518.254 -46.972 518.254 C-55.701 507.598 -60.133 495.466 -60.109 481.765 C-60.113 480.642 -60.113 480.642 -60.117 479.496 C-60.125 476.978 -60.125 474.461 -60.126 471.943 C-60.13 470.123 -60.134 468.302 -60.139 466.482 C-60.151 461.474 -60.157 456.465 -60.161 451.456 C-60.167 446.056 -60.179 440.657 -60.19 435.257 C-60.214 422.212 -60.229 409.167 -60.242 396.121 C-60.245 392.436 -60.249 388.751 -60.253 385.065 C-60.279 362.174 -60.301 339.284 -60.313 316.393 C-60.316 311.091 -60.319 305.788 -60.322 300.486 C-60.323 299.168 -60.324 297.851 -60.324 296.493 C-60.337 275.155 -60.37 253.817 -60.412 232.478 C-60.454 210.565 -60.478 188.652 -60.483 166.738 C-60.486 154.437 -60.498 142.136 -60.531 129.835 C-60.559 119.357 -60.57 108.878 -60.559 98.4 C-60.554 93.057 -60.557 87.715 -60.581 82.372 C-60.604 77.472 -60.603 72.572 -60.584 67.672 C-60.581 65.908 -60.587 64.144 -60.602 62.38 C-60.722 47.483 -58.752 33.157 -48.972 21.254 C-48.364 20.486 -47.755 19.718 -47.128 18.926 C-42.674 13.588 -37.983 9.721 -31.972 6.254 C-30.984 5.669 -30.984 5.669 -29.976 5.071 C-20.588 -0.086 -10.469 -0.036 0 0 Z " fill="#FCEDD2" transform="translate(117.97196769714355,279.7455244064331)"/>
<path d="M0 0 C0.66 0 1.32 0 2 0 C2.398 0.736 2.797 1.472 3.207 2.23 C3.737 3.206 4.267 4.182 4.812 5.188 C5.335 6.15 5.857 7.113 6.395 8.105 C7.928 10.969 7.928 10.969 9.637 13.426 C12.463 18.762 12.146 24.947 12.129 30.867 C12.13 31.632 12.132 32.398 12.134 33.186 C12.139 35.748 12.136 38.31 12.134 40.872 C12.136 42.728 12.138 44.585 12.141 46.441 C12.147 51.541 12.147 56.64 12.145 61.74 C12.145 67.24 12.151 72.74 12.155 78.241 C12.164 89.016 12.166 99.79 12.167 110.565 C12.168 119.322 12.17 128.078 12.173 136.835 C12.18 157.616 12.186 178.397 12.186 199.179 C12.186 199.843 12.186 200.507 12.186 201.192 C12.186 204.559 12.186 207.927 12.185 211.295 C12.185 211.963 12.185 212.632 12.185 213.321 C12.185 214.674 12.185 216.026 12.185 217.379 C12.185 238.426 12.192 259.473 12.206 280.52 C12.221 304.169 12.23 327.818 12.229 351.467 C12.229 363.988 12.231 376.509 12.242 389.03 C12.251 399.688 12.253 410.347 12.247 421.005 C12.243 426.444 12.243 431.883 12.252 437.322 C12.26 442.3 12.258 447.278 12.25 452.257 C12.248 454.058 12.25 455.86 12.255 457.661 C12.263 460.11 12.257 462.558 12.249 465.007 C12.256 466.056 12.256 466.056 12.264 467.125 C12.228 472.064 11.327 476.281 10 481 C9.67 481 9.34 481 9 481 C9.162 479.887 9.324 478.773 9.491 477.626 C10.354 469.778 10.145 461.863 10.14 453.977 C10.143 452.129 10.146 450.28 10.149 448.432 C10.157 443.363 10.159 438.295 10.16 433.227 C10.162 427.756 10.169 422.286 10.176 416.815 C10.19 404.861 10.196 392.907 10.2 380.953 C10.203 373.488 10.207 366.023 10.212 358.558 C10.224 337.886 10.234 317.215 10.238 296.543 C10.238 295.208 10.238 293.872 10.238 292.537 C10.238 291.198 10.239 289.859 10.239 288.521 C10.239 285.835 10.24 283.15 10.24 280.464 C10.24 279.798 10.24 279.132 10.241 278.446 C10.244 256.848 10.26 235.249 10.283 213.65 C10.308 190.801 10.322 167.951 10.323 145.102 C10.324 132.651 10.33 120.201 10.348 107.75 C10.363 97.152 10.368 86.554 10.36 75.955 C10.356 70.549 10.357 65.142 10.371 59.735 C10.384 54.784 10.383 49.833 10.37 44.881 C10.369 43.092 10.372 41.303 10.38 39.513 C10.436 27.237 9.103 17.327 3.312 6.375 C2.992 5.752 2.672 5.13 2.342 4.488 C1.569 2.988 0.786 1.494 0 0 Z " fill="#004760" transform="translate(955,299)"/>
<path d="M0 0 C0.66 0 1.32 0 2 0 C2.398 0.736 2.797 1.472 3.207 2.23 C3.737 3.206 4.267 4.182 4.812 5.188 C5.335 6.15 5.857 7.113 6.395 8.105 C7.434 9.979 8.529 11.823 9.688 13.625 C11.455 16.824 11.211 19.409 11 23 C9.266 20.399 8.276 18.323 7.188 15.438 C5.112 10.118 2.629 5.064 0 0 Z " fill="#075566" transform="translate(955,299)"/>
</svg>
