<?xml version="1.0" encoding="UTF-8"?>
<!-- Generator: visioncortex VTracer 0.6.4 -->
<svg version="1.1" xmlns="http://www.w3.org/2000/svg" width="1024" height="1024">
<path d="M0 0 C337.92 0 675.84 0 1024 0 C1024 337.92 1024 675.84 1024 1024 C686.08 1024 348.16 1024 0 1024 C0 686.08 0 348.16 0 0 Z " fill="#03487A" transform="translate(0,0)"/>
<path d="M0 0 C1.588 0.545 1.588 0.545 3.209 1.102 C34.532 12.007 64.83 27.486 91 48 C92.034 48.799 93.068 49.598 94.133 50.422 C116.992 68.16 137.855 87.409 156 110 C156.737 110.907 157.475 111.815 158.234 112.75 C170.156 127.792 180.945 144.035 189.936 160.996 C191.103 163.194 192.292 165.38 193.48 167.566 C202.233 183.785 209.384 200.232 215.227 217.709 C215.921 219.767 216.639 221.814 217.371 223.859 C221.061 234.388 223.648 245.104 226 256 C226.184 256.844 226.369 257.687 226.559 258.556 C242.377 332.511 231.908 414.068 199 482 C198.619 482.807 198.238 483.613 197.846 484.444 C179.073 524.192 150.668 564.472 117.133 593.141 C115.601 594.476 114.099 595.845 112.617 597.234 C105.47 603.934 97.883 609.798 89.973 615.562 C88.153 616.888 86.342 618.224 84.531 619.562 C46.998 647.087 4.264 665.944 -40.938 676.75 C-42.054 677.02 -43.17 677.289 -44.32 677.567 C-48.199 678.456 -52.092 679.248 -56 680 C-56.875 680.173 -57.751 680.346 -58.653 680.524 C-77.068 684.064 -95.074 684.565 -113.736 684.391 C-116.685 684.369 -119.633 684.37 -122.581 684.371 C-142.126 684.37 -161.208 683.668 -180.438 679.812 C-182.063 679.49 -182.063 679.49 -183.721 679.161 C-213.714 673.069 -242.396 664.326 -270 651 C-270.716 650.657 -271.432 650.315 -272.169 649.961 C-294.764 639.091 -316.36 625.91 -336.121 610.464 C-338.101 608.921 -340.096 607.399 -342.094 605.879 C-343.396 604.878 -344.699 603.877 -346 602.875 C-346.607 602.413 -347.213 601.952 -347.838 601.476 C-349.263 600.364 -350.638 599.188 -352 598 C-352 597.34 -352 596.68 -352 596 C-352.575 595.742 -353.15 595.484 -353.742 595.219 C-367.224 587.942 -380.919 571.694 -390.016 559.613 C-391.668 557.437 -393.364 555.332 -395.109 553.23 C-400.581 546.638 -405.851 540.135 -410.289 532.785 C-411.888 530.183 -413.59 527.677 -415.33 525.167 C-448.52 476.92 -465.354 421.288 -471.312 363.5 C-471.4 362.676 -471.487 361.852 -471.577 361.004 C-473.344 344.087 -473.517 327.281 -472.25 310.312 C-472.165 309.143 -472.08 307.974 -471.992 306.77 C-471.109 295.694 -469.449 284.788 -467.501 273.855 C-466.968 270.815 -466.476 267.77 -465.984 264.723 C-462.717 245.082 -455.5 225.874 -448.783 207.189 C-448.109 205.304 -447.451 203.412 -446.797 201.52 C-443.858 193.356 -439.913 185.847 -435.801 178.23 C-433.848 174.613 -431.958 170.971 -430.105 167.301 C-421.536 150.386 -411.606 134.983 -400 120 C-399.443 119.261 -398.886 118.523 -398.312 117.762 C-385.351 100.719 -370.507 82.948 -353.688 69.625 C-350.165 66.797 -346.79 63.907 -343.5 60.812 C-303.139 24.265 -245.505 -1.325 -192.283 -11.558 C-190.565 -11.891 -188.85 -12.232 -187.135 -12.579 C-124.72 -25.103 -60.116 -20.708 0 0 Z " fill="#E5D9C0" transform="translate(634,90)"/>
<path d="M0 0 C1.588 0.545 1.588 0.545 3.209 1.102 C34.532 12.007 64.83 27.486 91 48 C92.034 48.799 93.068 49.598 94.133 50.422 C116.992 68.16 137.855 87.409 156 110 C156.737 110.907 157.475 111.815 158.234 112.75 C170.156 127.792 180.945 144.035 189.936 160.996 C191.103 163.194 192.292 165.38 193.48 167.566 C202.233 183.785 209.384 200.232 215.227 217.709 C215.921 219.767 216.639 221.814 217.371 223.859 C221.061 234.388 223.648 245.104 226 256 C226.184 256.844 226.369 257.687 226.559 258.556 C242.377 332.511 231.908 414.068 199 482 C198.619 482.807 198.238 483.613 197.846 484.444 C179.073 524.192 150.668 564.472 117.133 593.141 C115.601 594.476 114.099 595.845 112.617 597.234 C105.47 603.934 97.883 609.798 89.973 615.562 C88.153 616.888 86.342 618.224 84.531 619.562 C46.998 647.087 4.264 665.944 -40.938 676.75 C-42.054 677.02 -43.17 677.289 -44.32 677.567 C-48.199 678.456 -52.092 679.248 -56 680 C-56.875 680.173 -57.751 680.346 -58.653 680.524 C-77.068 684.064 -95.074 684.565 -113.736 684.391 C-116.685 684.369 -119.633 684.37 -122.581 684.371 C-142.126 684.37 -161.208 683.668 -180.438 679.812 C-182.063 679.49 -182.063 679.49 -183.721 679.161 C-213.714 673.069 -242.396 664.326 -270 651 C-270.716 650.657 -271.432 650.315 -272.169 649.961 C-294.764 639.091 -316.36 625.91 -336.121 610.464 C-338.101 608.921 -340.096 607.399 -342.094 605.879 C-343.396 604.878 -344.699 603.877 -346 602.875 C-346.607 602.413 -347.213 601.952 -347.838 601.476 C-349.263 600.364 -350.638 599.188 -352 598 C-352 597.34 -352 596.68 -352 596 C-352.575 595.742 -353.15 595.484 -353.742 595.219 C-367.224 587.942 -380.919 571.694 -390.016 559.613 C-391.668 557.437 -393.364 555.332 -395.109 553.23 C-400.581 546.638 -405.851 540.135 -410.289 532.785 C-411.888 530.183 -413.59 527.677 -415.33 525.167 C-448.52 476.92 -465.354 421.288 -471.312 363.5 C-471.4 362.676 -471.487 361.852 -471.577 361.004 C-473.344 344.087 -473.517 327.281 -472.25 310.312 C-472.165 309.143 -472.08 307.974 -471.992 306.77 C-471.109 295.694 -469.449 284.788 -467.501 273.855 C-466.968 270.815 -466.476 267.77 -465.984 264.723 C-462.717 245.082 -455.5 225.874 -448.783 207.189 C-448.109 205.304 -447.451 203.412 -446.797 201.52 C-443.858 193.356 -439.913 185.847 -435.801 178.23 C-433.848 174.613 -431.958 170.971 -430.105 167.301 C-421.536 150.386 -411.606 134.983 -400 120 C-399.443 119.261 -398.886 118.523 -398.312 117.762 C-385.351 100.719 -370.507 82.948 -353.688 69.625 C-350.165 66.797 -346.79 63.907 -343.5 60.812 C-303.139 24.265 -245.505 -1.325 -192.283 -11.558 C-190.565 -11.891 -188.85 -12.232 -187.135 -12.579 C-124.72 -25.103 -60.116 -20.708 0 0 Z M-229 12 C-230.515 12.538 -230.515 12.538 -232.061 13.086 C-239.087 15.607 -246.056 18.259 -253 21 C-254.345 21.527 -254.345 21.527 -255.717 22.065 C-269.286 27.441 -281.878 34.093 -294.445 41.496 C-296.685 42.815 -298.934 44.116 -301.188 45.41 C-316.271 54.154 -329.991 64.421 -343 76 C-344.457 77.272 -345.916 78.543 -347.375 79.812 C-347.971 80.338 -348.566 80.864 -349.18 81.406 C-350.527 82.586 -351.889 83.751 -353.258 84.906 C-353.998 85.535 -354.738 86.164 -355.5 86.812 C-356.17 87.376 -356.841 87.939 -357.531 88.52 C-359.235 89.889 -359.235 89.889 -359 92 C-359.594 92.257 -360.189 92.513 -360.801 92.777 C-363.211 94.117 -364.449 95.437 -366.188 97.562 C-368.697 100.545 -371.29 103.264 -374.125 105.938 C-380.212 111.962 -385.181 118.829 -390.272 125.691 C-391.963 127.951 -393.686 130.182 -395.418 132.41 C-419.101 163.199 -437.519 200.634 -447.29 238.267 C-448.028 241.107 -448.793 243.94 -449.559 246.773 C-460.795 289.124 -463.6 334.929 -457.372 378.365 C-457.046 380.675 -456.758 382.983 -456.496 385.301 C-453.357 412.08 -445.033 438.483 -434 463 C-433.557 463.987 -433.113 464.974 -432.657 465.99 C-422.752 487.792 -411.114 508.634 -397 528 C-396.243 529.039 -395.487 530.078 -394.707 531.148 C-392.501 534.123 -390.26 537.066 -388 540 C-387.556 540.581 -387.112 541.161 -386.655 541.759 C-379.663 550.954 -379.663 550.954 -371.717 559.314 C-369.967 561.032 -368.384 562.826 -366.793 564.691 C-363.054 568.995 -359.104 573.044 -355.062 577.062 C-354.398 577.731 -353.733 578.399 -353.049 579.088 C-346.451 585.673 -339.513 591.756 -332.125 597.438 C-331.558 597.883 -330.991 598.328 -330.406 598.787 C-327.536 601.231 -327.536 601.231 -324 602 C-324 602.66 -324 603.32 -324 604 C-321.97 605.537 -319.947 606.933 -317.812 608.312 C-316.811 608.967 -316.811 608.967 -315.789 609.635 C-313.533 611.101 -311.268 612.552 -309 614 C-308.213 614.505 -307.426 615.011 -306.615 615.531 C-281.068 631.868 -254.787 645.402 -226 655 C-224.966 655.351 -224.966 655.351 -223.911 655.708 C-206.545 661.568 -189.156 666.386 -171 669 C-170.012 669.15 -169.025 669.299 -168.007 669.453 C-134.933 674.274 -98.975 674.574 -66 669 C-65.124 668.855 -64.247 668.711 -63.344 668.562 C-5.634 658.739 46.079 633.947 92 598 C92.931 597.282 93.861 596.564 94.82 595.824 C109.624 584.092 123.871 570.486 136 556 C136.443 555.476 136.886 554.952 137.342 554.413 C151.16 538.014 163.144 520.477 174 502 C174.577 501.036 174.577 501.036 175.166 500.052 C220.357 424.387 231.348 328.863 210.504 243.824 C205.541 224.227 198.995 205.131 190 187 C189.147 185.221 189.147 185.221 188.277 183.406 C180.457 167.243 171.671 151.46 161 137 C160.536 136.368 160.072 135.735 159.594 135.083 C146.726 117.579 132.723 101.668 117.438 86.25 C116.575 85.375 115.713 84.5 114.825 83.598 C108.866 77.631 102.622 72.218 96 67 C95.268 66.419 94.535 65.838 93.781 65.24 C84.165 57.671 74.306 50.595 64 44 C62.924 43.303 61.847 42.605 60.738 41.887 C53.049 37.016 45.107 32.92 36.932 28.953 C35.143 28.071 33.375 27.148 31.609 26.223 C21.413 20.895 10.804 16.912 0 13 C-1.196 12.559 -2.392 12.118 -3.625 11.664 C-76.317 -13.881 -156.505 -13.744 -229 12 Z " fill="#E7A31D" transform="translate(634,90)"/>
<path d="M0 0 C-1.267 0.674 -2.539 1.339 -3.812 2 C-4.874 2.557 -4.874 2.557 -5.957 3.125 C-8 4 -8 4 -11 4 C-11.33 4.66 -11.66 5.32 -12 6 C-14.582 6.781 -14.582 6.781 -17.812 7.5 C-22.695 8.594 -26.355 9.957 -30.562 12.625 C-33 14 -33 14 -36 14 C-36 14.66 -36 15.32 -36 16 C-37.176 16.093 -37.176 16.093 -38.375 16.188 C-43.373 17.308 -47.489 19.629 -52 22 C-53.353 22.648 -54.707 23.294 -56.062 23.938 C-59.901 25.845 -63.363 28.198 -66.895 30.617 C-69.487 32.32 -72.216 33.64 -75 35 C-76.338 35.993 -77.672 36.994 -79 38 C-80.161 38.656 -81.328 39.301 -82.5 39.938 C-84.737 41.179 -86.1 42.106 -87.875 44 C-90.541 46.509 -93.282 47.505 -96.684 48.777 C-99.714 50.377 -101.622 52.535 -104 55 C-106.232 57.004 -108.523 58.937 -110.812 60.875 C-112.056 61.935 -113.3 62.995 -114.543 64.055 C-115.138 64.561 -115.732 65.067 -116.345 65.589 C-122.344 70.672 -122.344 70.672 -128.062 76.062 C-129.714 77.714 -131.385 79.147 -133.188 80.625 C-136.965 83.834 -140.186 87.425 -143.457 91.141 C-145.326 93.242 -147.212 95.31 -149.137 97.359 C-149.942 98.219 -149.942 98.219 -150.763 99.095 C-151.814 100.215 -152.869 101.332 -153.927 102.446 C-156.743 105.457 -158.975 108.417 -161 112 C-161.98 113.348 -162.98 114.682 -164 116 C-165.645 118.158 -167.127 120.217 -168.5 122.562 C-169.848 124.753 -171.223 126.415 -172.938 128.312 C-176.119 131.915 -178.01 135.637 -180 140 C-180.66 140 -181.32 140 -182 140 C-182.387 141.046 -182.387 141.046 -182.781 142.113 C-184.129 145.306 -185.748 148.199 -187.5 151.188 C-188.108 152.233 -188.717 153.278 -189.344 154.355 C-191 157 -191 157 -193 159 C-193.743 160.686 -194.482 162.375 -195.184 164.079 C-196.471 167.108 -197.998 170.01 -199.5 172.938 C-201.672 177.22 -203.69 181.463 -205.25 186.008 C-206.226 188.601 -207.432 191.062 -208.625 193.562 C-210.608 197.844 -211.61 201.323 -212 206 C-212.33 206.99 -212.66 207.98 -213 209 C-213.66 209 -214.32 209 -215 209 C-215.144 209.887 -215.289 210.774 -215.438 211.688 C-215.623 212.781 -215.809 213.874 -216 215 C-216.124 215.763 -216.248 216.526 -216.375 217.312 C-217.52 222.236 -219.174 227.027 -221.125 231.688 C-222.586 235.55 -222.938 239.551 -223.5 243.625 C-223.878 246.18 -224.36 248.512 -225 251 C-225.338 252.478 -225.672 253.957 -226 255.438 C-226.165 256.179 -226.33 256.92 -226.5 257.684 C-229.115 269.798 -230.455 281.888 -231.125 294.25 C-231.167 294.995 -231.209 295.74 -231.252 296.508 C-231.896 308.109 -232.188 319.693 -232.188 331.312 C-232.188 332.015 -232.189 332.718 -232.19 333.442 C-232.189 339.761 -232.096 345.769 -231 352 C-231.021 352.908 -231.041 353.815 -231.062 354.75 C-230.994 358.295 -230.367 361.414 -229.625 364.871 C-229.015 367.925 -228.519 370.987 -228.04 374.063 C-226.689 382.685 -224.891 391.116 -222.714 399.568 C-221.255 405.365 -220.439 411.038 -220 417 C-219.01 417.33 -218.02 417.66 -217 418 C-217.062 418.743 -217.124 419.485 -217.188 420.25 C-216.969 423.454 -216.097 424.64 -214 427 C-214.66 427 -215.32 427 -216 427 C-216 427.66 -216 428.32 -216 429 C-215.34 429 -214.68 429 -214 429 C-213.732 429.846 -213.464 430.691 -213.188 431.562 C-211.955 435.129 -210.493 438.535 -209 442 C-206 449.391 -206 449.391 -206 453 C-205.34 453 -204.68 453 -204 453 C-203.349 454.56 -202.704 456.123 -202.062 457.688 C-201.523 458.993 -201.523 458.993 -200.973 460.324 C-200 463 -200 463 -199.496 465.77 C-199.332 466.506 -199.169 467.242 -199 468 C-198.34 468.33 -197.68 468.66 -197 469 C-195.643 471.356 -194.366 473.708 -193.125 476.125 C-192.441 477.441 -191.756 478.756 -191.07 480.07 C-190.733 480.72 -190.395 481.37 -190.048 482.04 C-188.993 484.013 -187.877 485.939 -186.742 487.867 C-185 491 -185 491 -185 493 C-184.34 493 -183.68 493 -183 493 C-182.711 493.804 -182.423 494.609 -182.125 495.438 C-181.267 498.133 -181.267 498.133 -179 499 C-178.105 500.602 -178.105 500.602 -177.188 502.625 C-175.195 506.791 -172.768 510.309 -170 514 C-170.33 514.66 -170.66 515.32 -171 516 C-212.245 462.346 -235.291 393.705 -235.188 326.188 C-235.187 325.454 -235.186 324.721 -235.186 323.965 C-235.086 278.772 -228.744 233.839 -211 192 C-210.645 191.152 -210.289 190.303 -209.923 189.429 C-193.652 150.928 -170.912 113.98 -140.727 84.789 C-138.925 83.007 -138.925 83.007 -137.398 80.773 C-136.937 80.188 -136.475 79.603 -136 79 C-135.34 79 -134.68 79 -134 79 C-133.505 77.515 -133.505 77.515 -133 76 C-131.504 74.492 -131.504 74.492 -129.562 72.875 C-126.381 70.181 -123.265 67.437 -120.188 64.625 C-103.945 50.049 -86.27 37.84 -67.208 27.241 C-65.119 26.067 -63.053 24.86 -60.992 23.637 C-46.392 15.041 -30.717 8.948 -14.938 2.875 C-13.908 2.472 -12.879 2.069 -11.818 1.654 C-10.856 1.291 -9.894 0.929 -8.902 0.555 C-7.626 0.067 -7.626 0.067 -6.324 -0.43 C-3.791 -1.051 -2.432 -0.858 0 0 Z " fill="#FDF2DB" transform="translate(409,103)"/>
<path d="M0 0 C2.368 3.552 3.066 6.958 3.938 11.062 C4.196 12.259 4.196 12.259 4.46 13.48 C6.255 21.942 7.74 30.442 9 39 C9.101 39.678 9.201 40.356 9.305 41.055 C14.23 75.323 13.115 110.843 8 145 C7.896 145.731 7.791 146.463 7.684 147.216 C6.096 158.344 4.031 169.17 1 180 C0.779 180.813 0.558 181.626 0.33 182.464 C-4.369 199.582 -10.915 215.76 -18 232 C-18.373 232.859 -18.745 233.718 -19.129 234.603 C-29.885 259.14 -44.71 281.809 -61 303 C-62.689 305.319 -64.348 307.655 -66 310 C-67 307 -67 307 -66 304 C-65.34 303.34 -64.68 302.68 -64 302 C-62.512 300.307 -61.052 298.59 -59.594 296.871 C-58.585 295.686 -57.565 294.511 -56.531 293.348 C-54.113 290.585 -52.74 288.575 -52 285 C-50.688 283.562 -50.688 283.562 -49 282 C-46.691 279.284 -45.133 277.398 -44 274 C-43.34 274 -42.68 274 -42 274 C-41.897 273.257 -41.794 272.515 -41.688 271.75 C-40.949 268.796 -39.878 267.347 -38 265 C-37.67 264.01 -37.34 263.02 -37 262 C-36.34 262 -35.68 262 -35 262 C-35 260.68 -35 259.36 -35 258 C-33.5 256.375 -33.5 256.375 -32 255 C-32 254.34 -32 253.68 -32 253 C-31.34 253 -30.68 253 -30 253 C-29.34 250.36 -28.68 247.72 -28 245 C-27.34 245 -26.68 245 -26 245 C-25.727 244.039 -25.727 244.039 -25.449 243.059 C-23.937 237.856 -22.25 232.929 -20 228 C-19.34 228 -18.68 228 -18 228 C-18 226.68 -18 225.36 -18 224 C-17.34 224 -16.68 224 -16 224 C-13.869 217.034 -11.886 210.036 -10 203 C-9.34 203 -8.68 203 -8 203 C-7.34 199.37 -6.68 195.74 -6 192 C-5.34 192 -4.68 192 -4 192 C-4.33 191.01 -4.66 190.02 -5 189 C-4.512 186.766 -4.512 186.766 -3.688 184.25 C-3.406 183.368 -3.125 182.487 -2.836 181.578 C-2.56 180.727 -2.284 179.877 -2 179 C-0.549 174.577 -0.549 174.577 0 170 C0.66 170 1.32 170 2 170 C2 169.092 2 168.185 2 167.25 C2 160 2 160 2.938 156.812 C3.967 153.119 4.433 149.72 4.754 145.918 C5 144 5 144 6 142 C6.209 140.004 6.368 138.003 6.5 136 C6.789 131.844 7.115 127.705 7.562 123.562 C7.932 120.025 8.094 116.561 8 113 C8.66 113 9.32 113 10 113 C9.97 112.266 9.939 111.532 9.908 110.775 C8.855 84.901 8.855 84.901 9.062 73.234 C8.995 69.751 8.497 66.445 8 63 C7.982 61.083 8.002 59.166 8.062 57.25 C8.113 52.155 7.522 47.507 6.508 42.523 C5.67 38.359 5.184 34.163 4.824 29.93 C4.318 24.388 3.141 19.175 1.719 13.797 C1.053 11.208 0.505 8.624 0 6 C-0.309 4.639 -0.309 4.639 -0.625 3.25 C-0.749 2.507 -0.872 1.765 -1 1 C-0.67 0.67 -0.34 0.34 0 0 Z " fill="#BAC0BA" transform="translate(842,329)"/>
<path d="M0 0 C0.99 0.33 1.98 0.66 3 1 C-15.396 18.192 -36.434 32.131 -58 45 C-58.759 45.456 -59.518 45.913 -60.3 46.383 C-72.971 53.944 -86.272 59.637 -100 65 C-100.68 65.267 -101.36 65.533 -102.061 65.808 C-106.002 67.331 -109.982 68.693 -114 70 C-114.791 70.258 -115.581 70.517 -116.396 70.783 C-158.025 84.268 -158.025 84.268 -174.875 84.062 C-176.325 84.049 -176.325 84.049 -177.805 84.035 C-178.529 84.024 -179.254 84.012 -180 84 C-177.153 82.406 -174.934 81.731 -171.688 81.5 C-168.852 81.296 -166.482 80.851 -163.73 80.059 C-159.71 78.918 -155.744 78.222 -151.625 77.562 C-146.275 76.663 -141.203 75.641 -136.102 73.75 C-132.703 72.537 -129.209 71.687 -125.723 70.766 C-122.348 69.817 -119.065 68.666 -115.777 67.453 C-114 67 -114 67 -112 68 C-112 67.34 -112 66.68 -112 66 C-111.455 65.83 -110.909 65.66 -110.348 65.484 C-105.423 63.902 -100.745 62.051 -96.043 59.898 C-94 59 -94 59 -91.125 58.062 C-87.066 56.683 -83.264 54.854 -79.391 53.023 C-77 52 -77 52 -75 52 C-74.505 51.01 -74.505 51.01 -74 50 C-73.34 50 -72.68 50 -72 50 C-72 49.34 -72 48.68 -72 48 C-70.886 47.814 -70.886 47.814 -69.75 47.625 C-67.172 47.039 -65.328 46.202 -63 45 C-61.676 44.632 -60.344 44.288 -59 44 C-59 43.34 -59 42.68 -59 42 C-57.35 41.67 -55.7 41.34 -54 41 C-54 40.01 -54 39.02 -54 38 C-51.36 37.34 -48.72 36.68 -46 36 C-46 35.34 -46 34.68 -46 34 C-43.525 33.505 -43.525 33.505 -41 33 C-41 32.34 -41 31.68 -41 31 C-38.678 29.452 -36.322 28.156 -33.812 26.938 C-31.822 26.024 -31.822 26.024 -30 24 C-28.552 23.047 -27.092 22.111 -25.625 21.188 C-22.727 19.299 -20.937 17.921 -18.75 15.188 C-17 13 -17 13 -14.25 12.188 C-13.507 12.126 -12.765 12.064 -12 12 C-11.67 11.01 -11.34 10.02 -11 9 C-10.01 9 -9.02 9 -8 9 C-8 8.34 -8 7.68 -8 7 C-7.34 7 -6.68 7 -6 7 C-6 6.34 -6 5.68 -6 5 C-5.01 5 -4.02 5 -3 5 C-3 4.34 -3 3.68 -3 3 C-1.5 1.375 -1.5 1.375 0 0 Z " fill="#B7BCB7" transform="translate(737,675)"/>
<path d="M0 0 C4.455 0.99 4.455 0.99 9 2 C9 2.66 9 3.32 9 4 C10.65 4 12.3 4 14 4 C14 4.66 14 5.32 14 6 C16.31 6 18.62 6 21 6 C21.33 6.99 21.66 7.98 22 9 C22.99 8.67 23.98 8.34 25 8 C27.262 8.559 27.262 8.559 29.688 9.438 C30.496 9.725 31.304 10.012 32.137 10.309 C32.752 10.537 33.366 10.765 34 11 C34 11.66 34 12.32 34 13 C34.536 12.773 35.072 12.546 35.625 12.312 C39.059 11.861 40.988 13.402 44 15 C45.66 15.363 47.328 15.692 49 16 C52.124 16.774 55.239 17.576 58.355 18.379 C60.872 19.076 60.872 19.076 63 19 C63 19.66 63 20.32 63 21 C64.39 21.091 64.39 21.091 65.809 21.184 C67.006 21.267 68.204 21.351 69.438 21.438 C70.632 21.519 71.827 21.6 73.059 21.684 C76 22 76 22 77 23 C79.668 23.381 82.322 23.71 85 24 C85.782 24.088 86.565 24.177 87.371 24.268 C89.58 24.516 91.79 24.759 94 25 C94.847 25.093 95.694 25.186 96.566 25.281 C97.866 25.424 99.166 25.563 100.467 25.7 C102.393 25.928 104.314 26.195 106.232 26.48 C116.324 27.914 126.202 28.282 136.387 28.206 C138.987 28.187 141.586 28.185 144.186 28.186 C145.841 28.181 147.497 28.175 149.152 28.168 C150.316 28.166 150.316 28.166 151.503 28.165 C155.046 28.458 155.046 28.458 158 27 C159.729 26.953 161.459 26.963 163.188 27 C167.273 27.048 170.972 26.688 175 26 C177.375 26.438 177.375 26.438 179 27 C168.459 32.961 151.368 30.243 139.562 30.25 C138.471 30.251 137.379 30.251 136.254 30.252 C102.569 30.219 70.861 25.796 38.621 15.803 C36.935 15.287 35.244 14.784 33.549 14.3 C26.501 12.28 19.739 9.665 12.938 6.938 C11.799 6.491 10.66 6.044 9.486 5.584 C8.407 5.153 7.327 4.722 6.215 4.277 C5.236 3.888 4.258 3.499 3.25 3.097 C1 2 1 2 0 0 Z " fill="#BDC5C7" transform="translate(378,732)"/>
<path d="M0 0 C1.885 2.771 1.994 4.079 1.75 7.5 C1.111 10.484 0.366 12.352 -1 15 C-1.383 16.991 -1.726 18.991 -2 21 C-2.66 21 -3.32 21 -4 21 C-4.098 21.846 -4.196 22.691 -4.297 23.562 C-5.106 29.704 -5.987 34.888 -9.055 40.297 C-10.414 42.746 -11.17 45.333 -12 48 C-13.001 50.67 -14.096 53.191 -15.375 55.742 C-17.004 59.009 -18.543 62.306 -20.062 65.625 C-21.659 69.111 -23.262 72.582 -25 76 C-25.33 76.66 -25.66 77.32 -26 78 C-27.667 81.333 -29.333 84.667 -31 88 C-31.66 88 -32.32 88 -33 88 C-33.227 88.804 -33.454 89.609 -33.688 90.438 C-37.9 101.872 -37.9 101.872 -42.088 104.122 C-43.035 104.557 -43.035 104.557 -44 105 C-41.41 99.726 -38.677 94.592 -35.75 89.5 C-20.213 62.069 -5.504 31.273 0 0 Z " fill="#DD9018" transform="translate(844,500)"/>
<path d="M0 0 C0.495 0.99 0.495 0.99 1 2 C-3.75 6 -3.75 6 -6 6 C-7.792 6.918 -9.56 7.884 -11.312 8.875 C-15.473 11.225 -19.501 13.429 -24.188 14.5 C-26.233 14.904 -26.233 14.904 -28 17 C-29.333 17.333 -30.667 17.667 -32 18 C-32.66 18.66 -33.32 19.32 -34 20 C-35.992 20.379 -37.994 20.703 -40 21 C-42.68 21.622 -45.336 22.311 -48 23 C-48 23.66 -48 24.32 -48 25 C-49.32 24.67 -50.64 24.34 -52 24 C-52 24.66 -52 25.32 -52 26 C-52.835 26.115 -53.671 26.229 -54.531 26.348 C-58.318 27.06 -61.869 28.18 -65.5 29.438 C-66.138 29.655 -66.776 29.872 -67.434 30.096 C-69.29 30.728 -71.145 31.364 -73 32 C-77.967 33.694 -82.455 35.025 -87.688 35.438 C-91.094 35.748 -94.305 36.245 -97.625 37.062 C-101.848 38.079 -105.665 38.158 -110 38 C-107.343 36.566 -105.012 35.667 -102.043 35.141 C-100.887 34.926 -100.887 34.926 -99.707 34.708 C-98.876 34.557 -98.044 34.406 -97.188 34.25 C-72.532 29.515 -49.017 22.082 -25.875 12.438 C-25.216 12.164 -24.556 11.891 -23.877 11.609 C-15.655 8.185 -7.722 4.453 0 0 Z " fill="#DE9119" transform="translate(674,722)"/>
<path d="M0 0 C1.432 3.783 0.535 5.879 -1.027 9.516 C-1.486 10.594 -1.944 11.672 -2.417 12.783 C-2.918 13.927 -3.42 15.071 -3.938 16.25 C-4.445 17.424 -4.952 18.599 -5.474 19.808 C-9.07 28.062 -12.839 36.185 -17.036 44.149 C-18.028 46.054 -18.981 47.975 -19.93 49.902 C-28.681 67.388 -40.057 83.558 -52 99 C-53.69 101.318 -55.348 103.655 -57 106 C-58 103 -58 103 -57 100 C-56.01 99.01 -56.01 99.01 -55 98 C-53.512 96.307 -52.052 94.59 -50.594 92.871 C-49.585 91.686 -48.565 90.511 -47.531 89.348 C-45.113 86.585 -43.74 84.575 -43 81 C-41.688 79.562 -41.688 79.562 -40 78 C-37.691 75.284 -36.133 73.398 -35 70 C-34.34 70 -33.68 70 -33 70 C-32.897 69.257 -32.794 68.515 -32.688 67.75 C-31.949 64.796 -30.878 63.347 -29 61 C-28.67 60.01 -28.34 59.02 -28 58 C-27.34 58 -26.68 58 -26 58 C-26 56.68 -26 55.36 -26 54 C-24.5 52.375 -24.5 52.375 -23 51 C-23 50.34 -23 49.68 -23 49 C-22.34 49 -21.68 49 -21 49 C-20.34 46.36 -19.68 43.72 -19 41 C-18.34 41 -17.68 41 -17 41 C-16.818 40.359 -16.636 39.719 -16.449 39.059 C-14.937 33.856 -13.25 28.929 -11 24 C-10.34 24 -9.68 24 -9 24 C-9 22.68 -9 21.36 -9 20 C-8.34 20 -7.68 20 -7 20 C-6.807 19.348 -6.613 18.695 -6.414 18.023 C-2.338 4.342 -2.338 4.342 0 0 Z " fill="#B6BDB8" transform="translate(833,533)"/>
<path d="M0 0 C0 0.33 0 0.66 0 1 C-0.691 0.996 -1.382 0.991 -2.094 0.987 C-8.682 0.946 -15.27 0.916 -21.858 0.896 C-25.243 0.886 -28.628 0.872 -32.013 0.849 C-51.558 0.625 -51.558 0.625 -70.969 2.567 C-74 3 -74 3 -77.215 2.996 C-80.102 2.849 -80.102 2.849 -83.062 4.062 C-86.239 5.076 -87.848 4.927 -91 4 C-90.67 3.34 -90.34 2.68 -90 2 C-85.322 0.912 -80.516 0.45 -75.75 -0.125 C-75.024 -0.214 -74.298 -0.303 -73.55 -0.395 C-49.287 -3.297 -24.217 -3.446 0 0 Z " fill="#FEF3DC" transform="translate(552,85)"/>
<path d="M0 0 C0.66 0.33 1.32 0.66 2 1 C1.404 2.275 0.798 3.544 0.188 4.812 C-0.149 5.52 -0.485 6.228 -0.832 6.957 C-2.022 9.038 -3.16 10.469 -5 12 C-5.66 12 -6.32 12 -7 12 C-7 13.32 -7 14.64 -7 16 C-7.66 16 -8.32 16 -9 16 C-9.247 16.536 -9.495 17.072 -9.75 17.625 C-11.3 20.569 -13.129 23.249 -15 26 C-15.959 27.516 -15.959 27.516 -16.938 29.062 C-19.057 32.081 -21.394 34.394 -24 37 C-25.858 39.308 -27.66 41.651 -29.449 44.012 C-31 46 -31 46 -33 48 C-34.083 49.114 -34.083 49.114 -35.188 50.25 C-37.269 52.285 -39.333 54.144 -41.562 56 C-44.432 58.419 -46.768 60.965 -49 64 C-49.66 63.34 -50.32 62.68 -51 62 C-50.071 61.082 -49.141 60.164 -48.184 59.219 C-45.624 56.683 -43.073 54.139 -40.531 51.586 C-39.942 50.993 -39.352 50.401 -38.744 49.791 C-35.678 46.643 -32.795 43.389 -30 40 C-29.564 39.483 -29.129 38.967 -28.68 38.435 C-19.944 28.069 -12.059 17.23 -4.419 6.036 C-2.991 3.988 -1.51 1.989 0 0 Z " fill="#DE9218" transform="translate(799,606)"/>
<path d="M0 0 C0 4.022 -1.293 5.08 -4 8 C-5.987 9.353 -7.987 10.686 -10 12 C-10.825 12.825 -11.65 13.65 -12.5 14.5 C-15.14 17.14 -17.87 18.978 -21 21 C-24.553 23.536 -24.553 23.536 -27 27 C-27.804 27.124 -28.609 27.247 -29.438 27.375 C-30.283 27.581 -31.129 27.788 -32 28 C-32.423 28.915 -32.423 28.915 -32.855 29.848 C-34.366 32.688 -36.085 33.51 -38.875 35.062 C-42.1 36.877 -45.058 38.758 -48 41 C-54.341 45 -54.341 45 -57 45 C-57.33 45.99 -57.66 46.98 -58 48 C-60.875 49.75 -60.875 49.75 -64 51 C-64.99 50.67 -65.98 50.34 -67 50 C-62.374 46.908 -57.742 43.827 -53.09 40.773 C-34.32 28.417 -16.577 15.21 0 0 Z " fill="#DE9015" transform="translate(747,669)"/>
<path d="M0 0 C2.185 3.603 2.606 7.267 3.062 11.375 C3.218 12.661 3.374 13.948 3.535 15.273 C4.924 28.796 5.291 42.298 5.558 55.881 C5.626 59.284 5.703 62.687 5.781 66.09 C5.826 68.253 5.87 70.415 5.914 72.578 C5.938 73.596 5.962 74.613 5.986 75.662 C6.003 76.597 6.02 77.533 6.038 78.497 C6.055 79.321 6.072 80.145 6.089 80.993 C6 83 6 83 5 85 C4.955 86.52 4.961 88.042 5 89.562 C5.038 91.041 5.046 92.522 5 94 C4.505 94.495 4.505 94.495 4 95 C3.769 96.347 3.588 97.704 3.438 99.062 C3.293 100.362 3.149 101.661 3 103 C2.67 103 2.34 103 2 103 C1.885 96.967 2.044 91.017 2.5 85 C4.204 60.799 3.75 35.699 0.402 11.656 C-0.031 7.717 -0.066 3.96 0 0 Z " fill="#E18F0F" transform="translate(850,360)"/>
<path d="M0 0 C0.99 0.33 1.98 0.66 3 1 C2.34 2.65 1.68 4.3 1 6 C0.34 6 -0.32 6 -1 6 C-1.794 7.561 -2.585 9.124 -3.375 10.688 C-3.816 11.558 -4.257 12.428 -4.711 13.324 C-5.927 15.848 -6.993 18.387 -8 21 C-8.66 21 -9.32 21 -10 21 C-10.33 23.31 -10.66 25.62 -11 28 C-11.66 28 -12.32 28 -13 28 C-13.314 29.854 -13.626 31.708 -13.938 33.562 C-14.124 34.657 -14.311 35.751 -14.504 36.879 C-14.883 39.263 -15.16 41.599 -15.375 44 C-16.113 47.542 -17.28 48.705 -20 51 C-20.33 51.66 -20.66 52.32 -21 53 C-21.66 53 -22.32 53 -23 53 C-23.33 54.65 -23.66 56.3 -24 58 C-25.74 53.9 -24.055 50.627 -22.5 46.75 C-22.223 46.042 -21.946 45.334 -21.661 44.604 C-20.788 42.397 -19.896 40.198 -19 38 C-18.742 37.355 -18.484 36.709 -18.218 36.044 C-13.167 23.499 -6.608 11.779 0 0 Z " fill="#EBB31D" transform="translate(207,252)"/>
<path d="M0 0 C0.66 0 1.32 0 2 0 C1.629 1.093 1.258 2.186 0.875 3.312 C0.586 4.529 0.298 5.746 0 7 C0.99 8.485 0.99 8.485 2 10 C1.237 10.742 0.474 11.485 -0.312 12.25 C-3.649 16.151 -4.291 20.548 -5.227 25.488 C-5.482 26.317 -5.737 27.146 -6 28 C-6.99 28.33 -7.98 28.66 -9 29 C-9.122 29.705 -9.245 30.41 -9.371 31.137 C-10.034 34.155 -10.982 36.919 -12.062 39.812 C-12.425 40.788 -12.787 41.764 -13.16 42.77 C-13.437 43.506 -13.714 44.242 -14 45 C-14.66 45 -15.32 45 -16 45 C-15.67 46.65 -15.34 48.3 -15 50 C-15.66 50 -16.32 50 -17 50 C-17.33 50.99 -17.66 51.98 -18 53 C-18.66 53 -19.32 53 -20 53 C-20.227 53.99 -20.454 54.98 -20.688 56 C-21.952 60.514 -24.383 64.154 -27 68 C-27.33 67.34 -27.66 66.68 -28 66 C-27.079 63.799 -27.079 63.799 -25.605 61.031 C-25.067 59.998 -24.528 58.964 -23.973 57.899 C-23.384 56.778 -22.794 55.656 -22.188 54.5 C-15.441 41.355 -10.016 27.902 -5 14 C-4.701 13.178 -4.401 12.356 -4.093 11.509 C-2.7 7.682 -1.33 3.849 0 0 Z " fill="#0C317C" transform="translate(851,524)"/>
<path d="M0 0 C0.33 0 0.66 0 1 0 C2.122 13.464 2.323 26.935 2.562 40.438 C2.606 42.73 2.649 45.022 2.693 47.314 C2.799 52.876 2.901 58.438 3 64 C2.34 64 1.68 64 1 64 C0.963 64.862 0.925 65.725 0.887 66.613 C0.316 77.215 -1.21 87.541 -3 98 C-3.66 98 -4.32 98 -5 98 C-4.879 97.065 -4.758 96.131 -4.633 95.168 C-3.652 87.516 -2.744 79.86 -1.938 72.188 C-1.858 71.437 -1.779 70.686 -1.698 69.913 C-1.545 68.445 -1.396 66.976 -1.251 65.507 C-1.086 63.863 -0.916 62.219 -0.739 60.576 C-0.028 53.549 0.131 46.609 0.098 39.551 C0.096 38.412 0.095 37.274 0.093 36.1 C0.088 32.504 0.075 28.908 0.062 25.312 C0.057 22.857 0.053 20.402 0.049 17.947 C0.038 11.965 0.021 5.982 0 0 Z " fill="#0C2E7F" transform="translate(866,385)"/>
<path d="M0 0 C4.455 0.99 4.455 0.99 9 2 C9 2.66 9 3.32 9 4 C10.65 4 12.3 4 14 4 C14 4.66 14 5.32 14 6 C16.31 6 18.62 6 21 6 C21.33 6.99 21.66 7.98 22 9 C22.99 8.67 23.98 8.34 25 8 C27.262 8.559 27.262 8.559 29.688 9.438 C30.496 9.725 31.304 10.012 32.137 10.309 C32.752 10.537 33.366 10.765 34 11 C34 11.66 34 12.32 34 13 C34.536 12.773 35.072 12.546 35.625 12.312 C39.059 11.861 40.988 13.402 44 15 C45.66 15.364 47.328 15.693 49 16 C51.107 16.51 53.211 17.031 55.312 17.562 C56.381 17.832 57.45 18.101 58.551 18.379 C59.359 18.584 60.167 18.789 61 19 C61 19.66 61 20.32 61 21 C54.231 20.43 48.07 19.106 41.562 17.188 C40.685 16.939 39.808 16.691 38.904 16.436 C33.646 14.913 28.581 13.121 23.52 11.037 C20.92 9.967 18.305 8.945 15.684 7.93 C13.935 7.245 12.186 6.56 10.438 5.875 C9.537 5.528 8.637 5.181 7.709 4.824 C6.855 4.488 6.001 4.151 5.121 3.805 C4.352 3.505 3.583 3.206 2.791 2.898 C1 2 1 2 0 0 Z " fill="#CDCCC1" transform="translate(378,732)"/>
<path d="M0 0 C4.862 0.707 9.133 2.536 13.625 4.438 C14.454 4.788 15.283 5.139 16.137 5.5 C29.334 11.194 42.1 17.924 54 26 C51 27 51 27 47.812 25.562 C46.884 25.047 45.956 24.531 45 24 C45 23.34 45 22.68 45 22 C44.196 21.752 43.391 21.505 42.562 21.25 C38.257 19.739 34.146 17.898 30 16 C30 15.34 30 14.68 30 14 C26.7 13.01 23.4 12.02 20 11 C20 10.34 20 9.68 20 9 C19.145 8.818 18.291 8.636 17.41 8.449 C16.305 8.198 15.201 7.946 14.062 7.688 C12.96 7.444 11.858 7.2 10.723 6.949 C9.824 6.636 8.926 6.323 8 6 C7.67 5.01 7.34 4.02 7 3 C5.824 2.814 5.824 2.814 4.625 2.625 C2 2 2 2 0 0 Z " fill="#F3E9D1" transform="translate(642,107)"/>
<path d="M0 0 C2.368 3.552 3.065 6.958 3.938 11.062 C4.109 11.855 4.281 12.648 4.458 13.465 C7.816 29.268 10.25 44.812 10 61 C9.67 61 9.34 61 9 61 C8.867 59.735 8.734 58.471 8.598 57.168 C8.419 55.508 8.241 53.848 8.062 52.188 C7.975 51.354 7.888 50.521 7.799 49.662 C7.712 48.86 7.625 48.057 7.535 47.23 C7.457 46.492 7.378 45.754 7.297 44.993 C7.028 42.797 7.028 42.797 6 40 C5.536 36.635 5.11 33.283 4.82 29.898 C4.318 24.368 3.139 19.164 1.719 13.797 C1.053 11.208 0.505 8.624 0 6 C-0.206 5.092 -0.413 4.185 -0.625 3.25 C-0.749 2.507 -0.872 1.765 -1 1 C-0.67 0.67 -0.34 0.34 0 0 Z " fill="#C9CCC4" transform="translate(842,329)"/>
<path d="M0 0 C0 0.66 0 1.32 0 2 C-4.492 3.094 -8.888 4.047 -13.5 4.438 C-18.286 4.904 -22.497 6.384 -27 8 C-33.579 10.024 -40.289 11.486 -47 13 C-47 12.34 -47 11.68 -47 11 C-36.28 7.387 -25.583 3.89 -14.5 1.562 C-13.346 1.317 -13.346 1.317 -12.169 1.067 C-8.05 0.246 -4.223 -0.167 0 0 Z " fill="#FDF3DB" transform="translate(459,89)"/>
<path d="M0 0 C0.33 0 0.66 0 1 0 C1.664 12.833 2.104 25.649 2.125 38.5 C2.13 39.626 2.134 40.752 2.139 41.911 C2.128 47.703 1.876 53.273 1 59 C0.67 59 0.34 59 0 59 C-0.172 54.5 -0.338 50 -0.5 45.5 C-0.524 44.837 -0.548 44.174 -0.573 43.49 C-0.887 34.707 -1.096 25.952 -0.938 17.164 C-0.933 13.903 -0.933 13.903 -1.559 10.332 C-2.115 6.134 -1.363 3.93 0 0 Z " fill="#BFC5C4" transform="translate(852,385)"/>
<path d="M0 0 C0 0.99 0 1.98 0 3 C-2.31 3.33 -4.62 3.66 -7 4 C-7 4.66 -7 5.32 -7 6 C-8.013 6.182 -8.013 6.182 -9.047 6.367 C-10.385 6.619 -10.385 6.619 -11.75 6.875 C-13.073 7.119 -13.073 7.119 -14.422 7.367 C-16.888 7.973 -18.757 8.842 -21 10 C-21.624 10.149 -22.247 10.298 -22.89 10.451 C-25.021 11.005 -26.729 11.765 -28.68 12.777 C-29.362 13.126 -30.044 13.475 -30.746 13.834 C-32.158 14.566 -33.569 15.297 -34.98 16.029 C-38.919 18.043 -42.743 19.726 -47 21 C-44.302 17.843 -40.868 16.093 -37.25 14.188 C-36.59 13.838 -35.931 13.488 -35.251 13.128 C-28.36 9.55 -21.25 6.766 -14 4 C-11.347 2.896 -8.696 1.788 -6.051 0.664 C-4 0 -4 0 0 0 Z " fill="#EFBA17" transform="translate(389,96)"/>
<path d="M0 0 C0.66 0 1.32 0 2 0 C3.482 5.828 2.491 11.046 1.562 16.875 C1.415 17.85 1.267 18.824 1.115 19.828 C0.752 22.22 0.38 24.611 0 27 C-0.66 27 -1.32 27 -2 27 C-2.33 28.32 -2.66 29.64 -3 31 C-4.206 25.773 -3.756 21.235 -3 16 C-2.34 16 -1.68 16 -1 16 C-1 11.71 -1 7.42 -1 3 C-0.34 3 0.32 3 1 3 C0.67 2.01 0.34 1.02 0 0 Z " fill="#0A446A" transform="translate(164,359)"/>
<path d="M0 0 C3.591 1.303 6.429 2.864 9.5 5.125 C17.648 10.959 26.252 16.118 35 21 C35 21.33 35 21.66 35 22 C31.7 21.67 28.4 21.34 25 21 C25 19.68 25 18.36 25 17 C22.03 16.01 19.06 15.02 16 14 C16 13.01 16 12.02 16 11 C15.299 10.732 14.598 10.464 13.875 10.188 C7.601 7.596 4.071 5.388 0 0 Z " fill="#0F3A6E" transform="translate(303,705)"/>
<path d="M0 0 C-0.639 0.103 -1.279 0.206 -1.938 0.312 C-2.618 0.539 -3.299 0.766 -4 1 C-4.33 1.99 -4.66 2.98 -5 4 C-5.99 4 -6.98 4 -8 4 C-8.99 4.495 -8.99 4.495 -10 5 C-12.695 5.046 -15.369 5.047 -18.062 5 C-20.715 4.954 -23.347 4.953 -26 5 C-26.33 5.33 -26.66 5.66 -27 6 C-29 6.041 -31 6.043 -33 6 C-33 5.34 -33 4.68 -33 4 C-29.378 3.319 -25.752 2.658 -22.125 2 C-20.605 1.714 -20.605 1.714 -19.055 1.422 C-12.628 0.268 -6.527 -0.261 0 0 Z " fill="#EAAD22" transform="translate(478,74)"/>
<path d="M0 0 C7.068 0.427 13.932 1.084 20.879 2.457 C27.539 3.616 34.282 4.26 41 5 C41 5.33 41 5.66 41 6 C34.812 6.727 29.124 7.331 23 6 C22.67 5.67 22.34 5.34 22 5 C18.481 4.551 14.964 4.18 11.434 3.838 C7.299 3.399 3.801 2.817 0 1 C0 0.67 0 0.34 0 0 Z " fill="#082F76" transform="translate(449,769)"/>
<path d="M0 0 C0.99 0.33 1.98 0.66 3 1 C2.01 1.33 1.02 1.66 0 2 C-0.33 2.99 -0.66 3.98 -1 5 C-3.323 6.09 -5.62 7.056 -8 8 C-13.703 10.464 -18.266 13.605 -23.02 17.609 C-25 19 -25 19 -28 19 C-28.33 18.01 -28.66 17.02 -29 16 C-28.335 15.657 -27.669 15.315 -26.984 14.962 C-23.946 13.395 -20.91 11.823 -17.875 10.25 C-16.828 9.711 -15.782 9.172 -14.703 8.617 C-8.398 5.376 -8.398 5.376 -2.445 1.547 C-1.638 1.036 -0.831 0.526 0 0 Z " fill="#062B7D" transform="translate(697,723)"/>
<path d="M0 0 C0.495 0.99 0.495 0.99 1 2 C0.091 2.147 0.091 2.147 -0.836 2.297 C-6.533 3.314 -11.574 4.865 -16.871 7.195 C-19 8 -19 8 -22 8 C-22 8.66 -22 9.32 -22 10 C-23.196 9.979 -24.393 9.959 -25.625 9.938 C-28.378 9.923 -30.637 10.118 -33.375 10.625 C-34.241 10.749 -35.107 10.872 -36 11 C-36.66 10.34 -37.32 9.68 -38 9 C-37.285 8.834 -36.569 8.668 -35.832 8.497 C-32.553 7.733 -29.277 6.96 -26 6.188 C-24.875 5.926 -23.749 5.665 -22.59 5.396 C-15.51 3.72 -7.206 -0.676 0 0 Z " fill="#092E77" transform="translate(625,758)"/>
<path d="M0 0 C0.33 0.99 0.66 1.98 1 3 C-2.75 5 -2.75 5 -5 5 C-5.33 5.66 -5.66 6.32 -6 7 C-7.977 7.731 -9.981 8.394 -12 9 C-12.99 9.33 -13.98 9.66 -15 10 C-15.577 10.124 -16.155 10.247 -16.75 10.375 C-19.981 11.272 -22.934 12.644 -26 14 C-26.66 13.01 -27.32 12.02 -28 11 C-27.401 10.773 -26.801 10.547 -26.183 10.313 C-23.434 9.273 -20.686 8.23 -17.938 7.188 C-16.995 6.831 -16.052 6.475 -15.08 6.107 C-10.001 4.178 -4.974 2.187 0 0 Z " fill="#0E3276" transform="translate(655,745)"/>
<path d="M0 0 C4.941 0.449 6.618 1.515 10 5 C12.289 6.182 14.59 7.073 17 8 C17 8.66 17 9.32 17 10 C18.32 10 19.64 10 21 10 C21 10.66 21 11.32 21 12 C21.654 12.245 22.307 12.49 22.98 12.742 C26.854 14.356 30.569 16.232 34.312 18.125 C35.053 18.498 35.794 18.87 36.557 19.254 C38.372 20.167 40.186 21.083 42 22 C39 23 39 23 36.802 22.171 C35.956 21.726 35.11 21.282 34.238 20.824 C33.291 20.33 32.344 19.836 31.367 19.327 C30.359 18.786 29.351 18.245 28.312 17.688 C27.287 17.144 26.261 16.601 25.205 16.042 C16.576 11.421 8.054 6.576 0 1 C0 0.67 0 0.34 0 0 Z " fill="#D7D5CB" transform="translate(335,709)"/>
<path d="M0 0 C0.99 0.33 1.98 0.66 3 1 C2.34 2.65 1.68 4.3 1 6 C0.34 6 -0.32 6 -1 6 C-1.794 7.561 -2.585 9.124 -3.375 10.688 C-3.816 11.558 -4.257 12.428 -4.711 13.324 C-5.927 15.848 -6.993 18.387 -8 21 C-8.66 21 -9.32 21 -10 21 C-10.33 23.31 -10.66 25.62 -11 28 C-11.66 28 -12.32 28 -13 28 C-13.289 28.949 -13.577 29.897 -13.875 30.875 C-15 34 -15 34 -17 36 C-16.502 30.171 -14.069 25.846 -11.312 20.812 C-10.863 19.975 -10.413 19.138 -9.95 18.276 C-8.642 15.846 -7.322 13.422 -6 11 C-5.334 9.771 -4.669 8.542 -4.004 7.312 C-2.678 4.87 -1.345 2.432 0 0 Z " fill="#F1BD16" transform="translate(207,252)"/>
<path d="M0 0 C0 2 0 4 0 6 C-0.857 6.213 -1.714 6.425 -2.598 6.645 C-6.773 8.308 -9.257 10.589 -12.438 13.688 C-13.005 14.227 -13.573 14.766 -14.158 15.322 C-15.782 16.872 -17.393 18.433 -19 20 C-20.135 21.092 -20.135 21.092 -21.293 22.207 C-24.124 24.977 -26.763 27.711 -29 31 C-29.66 30.67 -30.32 30.34 -31 30 C-22.195 20.288 -13.48 11.011 -3.223 2.785 C-1.152 1.188 -1.152 1.188 0 0 Z " fill="#EDBE15" transform="translate(287,154)"/>
<path d="M0 0 C0.33 0.66 0.66 1.32 1 2 C-0.787 7.263 -2.826 10.223 -7 14 C-10.762 17.48 -13.305 20.893 -15.789 25.328 C-17 27 -17 27 -20 28 C-19.452 23.854 -17.191 21.59 -14.5 18.5 C-9.376 12.533 -4.654 6.34 0 0 Z " fill="#092F7B" transform="translate(802,624)"/>
<path d="M0 0 C1.242 3.727 1.627 7.083 2 11 C1.67 11.66 1.34 12.32 1 13 C0.34 13 -0.32 13 -1 13 C-0.34 14.32 0.32 15.64 1 17 C0.366 17.235 -0.268 17.469 -0.922 17.711 C-3.183 18.823 -3.183 18.823 -3.828 21.164 C-3.967 21.976 -4.107 22.788 -4.25 23.625 C-4.4 24.442 -4.549 25.26 -4.703 26.102 C-4.801 26.728 -4.899 27.355 -5 28 C-5.33 28 -5.66 28 -6 28 C-5.149 5.149 -5.149 5.149 0 0 Z " fill="#EDB81A" transform="translate(174,333)"/>
<path d="M0 0 C0.66 0.33 1.32 0.66 2 1 C1.287 1.773 0.574 2.547 -0.16 3.344 C-1.128 4.396 -2.095 5.448 -3.062 6.5 C-3.817 7.32 -3.817 7.32 -4.587 8.156 C-7.384 11.206 -10.128 14.287 -12.812 17.438 C-15.623 20.69 -18.613 23.357 -22 26 C-21.67 24.35 -21.34 22.7 -21 21 C-20.01 21 -19.02 21 -18 21 C-18 20.01 -18 19.02 -18 18 C-13.657 14 -13.657 14 -11 14 C-10.34 12.35 -9.68 10.7 -9 9 C-8.34 9 -7.68 9 -7 9 C-6.67 8.01 -6.34 7.02 -6 6 C-5.34 6 -4.68 6 -4 6 C-3.567 5.072 -3.567 5.072 -3.125 4.125 C-2 2 -2 2 0 0 Z " fill="#B5BBB6" transform="translate(773,639)"/>
<path d="M0 0 C2 3.75 2 3.75 2 6 C2.66 6 3.32 6 4 6 C4.382 7.656 4.714 9.325 5 11 C4.67 11.33 4.34 11.66 4 12 C4.545 15.271 5.201 18.502 5.885 21.746 C6.794 26.262 7.151 30.392 7 35 C4.584 32.584 4.536 31.415 4 28.09 C3.835 27.099 3.67 26.109 3.5 25.088 C3.335 24.048 3.17 23.009 3 21.938 C2.669 19.905 2.335 17.872 2 15.84 C1.758 14.366 1.758 14.366 1.512 12.863 C1.028 10.155 0.444 7.493 -0.188 4.816 C-0.456 3.557 -0.724 2.298 -1 1 C-0.67 0.67 -0.34 0.34 0 0 Z " fill="#0A3479" transform="translate(857,331)"/>
<path d="M0 0 C-2.783 1.867 -5.578 3.716 -8.375 5.562 C-9.169 6.096 -9.963 6.629 -10.781 7.178 C-11.542 7.677 -12.302 8.177 -13.086 8.691 C-13.788 9.157 -14.489 9.624 -15.212 10.104 C-15.802 10.4 -16.392 10.695 -17 11 C-17.66 10.67 -18.32 10.34 -19 10 C-19 9.34 -19 8.68 -19 8 C-16.763 6.378 -14.423 4.977 -12.066 3.535 C-9.713 2.093 -9.713 2.093 -9 -1 C-5.125 -2.076 -3.475 -1.946 0 0 Z " fill="#DD991A" transform="translate(714,713)"/>
<path d="M0 0 C0.33 0 0.66 0 1 0 C1.029 3.792 1.047 7.583 1.062 11.375 C1.071 12.455 1.079 13.535 1.088 14.648 C1.091 15.68 1.094 16.711 1.098 17.773 C1.103 18.727 1.108 19.68 1.114 20.662 C1 23 1 23 0 25 C-0.66 25 -1.32 25 -2 25 C-2 26.65 -2 28.3 -2 30 C-2.33 30 -2.66 30 -3 30 C-3.33 20.149 -3.146 9.437 0 0 Z " fill="#F2BC18" transform="translate(167,362)"/>
<path d="M0 0 C0.66 0.33 1.32 0.66 2 1 C-0.39 7.215 -4.876 11.823 -10 16 C-10.99 16 -11.98 16 -13 16 C-12.67 14.02 -12.34 12.04 -12 10 C-11.34 10 -10.68 10 -10 10 C-9.34 9.34 -8.68 8.68 -8 8 C-7.34 8.33 -6.68 8.66 -6 9 C-5.753 8.443 -5.505 7.886 -5.25 7.312 C-3.784 4.6 -1.97 2.364 0 0 Z " fill="#D8961C" transform="translate(773,656)"/>
<path d="M0 0 C0.66 0.99 1.32 1.98 2 3 C-10.375 4.98 -10.375 4.98 -23 7 C-23 6.34 -23 5.68 -23 5 C-21.68 5 -20.36 5 -19 5 C-19 4.34 -19 3.68 -19 3 C-17.35 3 -15.7 3 -14 3 C-14 2.34 -14 1.68 -14 1 C-11.36 1.66 -8.72 2.32 -6 3 C-6 2.34 -6 1.68 -6 1 C-4.02 0.67 -2.04 0.34 0 0 Z " fill="#0D436D" transform="translate(470,71)"/>
<path d="M0 0 C0.33 0 0.66 0 1 0 C1.054 2.208 1.093 4.417 1.125 6.625 C1.148 7.855 1.171 9.085 1.195 10.352 C1.002 13.955 0.237 16.636 -1 20 C-0.979 20.784 -0.959 21.567 -0.938 22.375 C-1.031 26.299 -2.525 29.374 -4 33 C-5.126 29.582 -4.873 27.057 -4.258 23.535 C-4.079 22.488 -3.899 21.44 -3.715 20.361 C-3.52 19.273 -3.326 18.184 -3.125 17.062 C-2.938 15.978 -2.751 14.893 -2.559 13.775 C-1.761 9.171 -0.931 4.579 0 0 Z " fill="#DE9015" transform="translate(851,464)"/>
<path d="M0 0 C1.32 0.33 2.64 0.66 4 1 C4 5 4 5 3 8 C2.34 7.67 1.68 7.34 1 7 C0.67 7.99 0.34 8.98 0 10 C-0.66 10 -1.32 10 -2 10 C-2.124 11.279 -2.248 12.558 -2.375 13.875 C-2.75 17.75 -2.75 17.75 -5 20 C-4.455 12.913 -2.391 6.672 0 0 Z " fill="#EFB71C" transform="translate(180,312)"/>
<path d="M0 0 C2.882 1.441 2.933 3.152 3.945 6.172 C4.3 7.229 4.654 8.286 5.02 9.375 C5.384 10.489 5.749 11.603 6.125 12.75 C6.498 13.848 6.87 14.947 7.254 16.078 C7.782 17.671 7.782 17.671 8.32 19.297 C8.643 20.27 8.965 21.243 9.297 22.245 C9.989 24.956 10.136 27.217 10 30 C7.867 27.404 6.449 25.369 6 22 C6.33 21.34 6.66 20.68 7 20 C6.34 19.67 5.68 19.34 5 19 C2.28 13.029 1.139 6.42 0 0 Z " fill="#D1CFC2" transform="translate(832,299)"/>
<path d="M0 0 C5.94 0.66 11.88 1.32 18 2 C17.67 2.66 17.34 3.32 17 4 C13.368 5.211 10.689 4.95 6.875 4.688 C5.614 4.609 4.354 4.53 3.055 4.449 C2.047 4.301 1.039 4.153 0 4 C-0.33 3.34 -0.66 2.68 -1 2 C-0.67 1.34 -0.34 0.68 0 0 Z " fill="#D3971F" transform="translate(466,768)"/>
<path d="M0 0 C1.147 0.178 2.293 0.356 3.475 0.539 C4.668 0.738 5.861 0.936 7.09 1.141 C8.885 1.415 8.885 1.415 10.717 1.695 C19.618 3.118 19.618 3.118 23.027 5.391 C19.378 6.524 17.037 5.988 13.359 4.974 C8.979 3.879 4.497 3.37 0.027 2.766 C-0.938 2.632 -1.904 2.498 -2.898 2.359 C-5.256 2.033 -7.614 1.71 -9.973 1.391 C-6.422 -0.875 -4.094 -0.645 0 0 Z " fill="#FCF4E4" transform="translate(562.97265625,85.609375)"/>
<path d="M0 0 C0.688 1.812 0.688 1.812 1 4 C-0.438 5.75 -0.438 5.75 -2 7 C-1.34 7.33 -0.68 7.66 0 8 C-0.949 8.681 -1.898 9.361 -2.875 10.062 C-6.438 12.987 -7.127 15.55 -8 20 C-8.66 20 -9.32 20 -10 20 C-10.699 18.305 -10.699 18.305 -11 16 C-9.707 13.633 -9.707 13.633 -7.812 11.125 C-7.168 10.254 -6.523 9.382 -5.859 8.484 C-5.246 7.665 -4.632 6.845 -4 6 C-3.177 4.799 -2.362 3.592 -1.562 2.375 C-1.047 1.591 -0.531 0.808 0 0 Z " fill="#0A3379" transform="translate(815,604)"/>
<path d="M0 0 C2.536 2.536 2.793 4.469 3.625 7.938 C3.885 8.998 4.146 10.059 4.414 11.152 C5 14 5 14 5 17 C6.32 17.33 7.64 17.66 9 18 C9 21.3 9 24.6 9 28 C6.213 24.284 4.774 21.134 3.375 16.812 C3.156 16.149 2.938 15.486 2.712 14.802 C1.128 9.823 0.274 5.203 0 0 Z " fill="#EBB719" transform="translate(175,516)"/>
<path d="M0 0 C0 3 0 3 -2.188 5.625 C-5.007 8.006 -6.398 8.691 -10 9 C-10.33 9.99 -10.66 10.98 -11 12 C-11.66 12 -12.32 12 -13 12 C-13.33 13.32 -13.66 14.64 -14 16 C-15.65 16.33 -17.3 16.66 -19 17 C-17.588 13.639 -15.994 11.936 -13.086 9.766 C-12.325 9.192 -11.565 8.618 -10.781 8.027 C-9.59 7.148 -9.59 7.148 -8.375 6.25 C-7.573 5.648 -6.771 5.046 -5.945 4.426 C-3.969 2.943 -1.987 1.468 0 0 Z " fill="#F4BD17" transform="translate(311,135)"/>
<path d="M0 0 C3.356 0.591 6.33 1.42 9.469 2.742 C10.287 3.086 11.106 3.431 11.949 3.785 C12.791 4.145 13.633 4.504 14.5 4.875 C15.763 5.403 15.763 5.403 17.051 5.941 C21.226 7.71 25.188 9.516 29 12 C28.67 12.66 28.34 13.32 28 14 C25.36 13.01 22.72 12.02 20 11 C20 10.34 20 9.68 20 9 C19.145 8.818 18.291 8.636 17.41 8.449 C16.305 8.198 15.201 7.946 14.062 7.688 C12.96 7.444 11.858 7.2 10.723 6.949 C9.824 6.636 8.926 6.323 8 6 C7.67 5.01 7.34 4.02 7 3 C5.824 2.814 5.824 2.814 4.625 2.625 C2 2 2 2 0 0 Z " fill="#F7EFDC" transform="translate(642,107)"/>
<path d="M0 0 C0.667 1.333 1.333 2.667 2 4 C2.32 4.535 2.639 5.07 2.969 5.621 C4.461 9.063 5.002 12.637 5.625 16.312 C5.759 17.047 5.893 17.781 6.031 18.537 C6.824 23.094 7.134 27.376 7 32 C4.674 28.512 4.177 25.355 3.5 21.312 C2.354 14.771 2.354 14.771 0.812 8.312 C0.092 5.376 -0.188 3.002 0 0 Z " fill="#E39414" transform="translate(843,327)"/>
<path d="M0 0 C0 3.167 -0.278 5.915 -1 9 C-1.99 9.66 -2.98 10.32 -4 11 C-4.516 11.866 -5.031 12.732 -5.562 13.625 C-6.037 14.409 -6.511 15.192 -7 16 C-7.66 16 -8.32 16 -9 16 C-9.99 18.475 -9.99 18.475 -11 21 C-11.33 20.34 -11.66 19.68 -12 19 C-9.003 12.072 -4.727 5.85 0 0 Z " fill="#F1BA1A" transform="translate(221,229)"/>
<path d="M0 0 C0.33 0.66 0.66 1.32 1 2 C-1.541 2.338 -4.083 2.671 -6.625 3 C-7.338 3.095 -8.051 3.191 -8.785 3.289 C-12.888 3.816 -16.852 4.105 -21 4 C-20.67 3.01 -20.34 2.02 -20 1 C-19.229 1.012 -18.458 1.023 -17.664 1.035 C-16.16 1.049 -16.16 1.049 -14.625 1.062 C-13.128 1.08 -13.128 1.08 -11.602 1.098 C-7.624 0.948 -4.202 -0.078 0 0 Z " fill="#B9C1C0" transform="translate(556,758)"/>
<path d="M0 0 C-1 2 -1 2 -3.328 2.887 C-4.292 3.151 -5.257 3.415 -6.25 3.688 C-7.204 3.959 -8.158 4.231 -9.141 4.512 C-12.118 5.02 -14.108 4.786 -17 4 C-16.67 3.01 -16.34 2.02 -16 1 C-13.897 0.637 -11.793 0.285 -9.688 -0.062 C-8.516 -0.26 -7.344 -0.457 -6.137 -0.66 C-3 -1 -3 -1 0 0 Z " fill="#DD981B" transform="translate(637,752)"/>
<path d="M0 0 C8.028 0.554 15.339 2.657 23 5 C20.661 6.477 19.513 7.089 16.738 6.609 C15.938 6.326 15.137 6.042 14.312 5.75 C9.574 4.166 4.889 3.025 0 2 C0 1.34 0 0.68 0 0 Z " fill="#FBF0DB" transform="translate(587,91)"/>
<path d="M0 0 C0.66 0 1.32 0 2 0 C4.451 4.901 2.875 11.752 2 17 C1.34 17 0.68 17 0 17 C-0.495 18.98 -0.495 18.98 -1 21 C-0.928 19.903 -0.856 18.806 -0.781 17.676 C-0.687 16.221 -0.594 14.767 -0.5 13.312 C-0.428 12.231 -0.428 12.231 -0.355 11.127 C-0.118 7.412 0.059 3.723 0 0 Z " fill="#C1BDA9" transform="translate(850,442)"/>
<path d="M0 0 C0.33 0 0.66 0 1 0 C1.199 3.333 1.382 6.666 1.562 10 C1.619 10.935 1.675 11.869 1.732 12.832 C2.024 18.385 1.875 23.506 1 29 C0.34 29 -0.32 29 -1 29 C-1.15 19.284 -0.696 9.684 0 0 Z " fill="#FEF8EC" transform="translate(175,395)"/>
<path d="M0 0 C5.365 0.847 10.679 1.917 16 3 C16.33 3.99 16.66 4.98 17 6 C18.32 6 19.64 6 21 6 C21 6.66 21 7.32 21 8 C13.607 6.349 6.794 4.38 0 1 C0 0.67 0 0.34 0 0 Z " fill="#EBAA12" transform="translate(391,751)"/>
<path d="M0 0 C0 0.33 0 0.66 0 1 C-1.013 1.182 -1.013 1.182 -2.047 1.367 C-2.939 1.535 -3.831 1.702 -4.75 1.875 C-6.073 2.119 -6.073 2.119 -7.422 2.367 C-9.985 2.89 -9.985 2.89 -12.078 4.07 C-14 5 -14 5 -18 5 C-18 4.34 -18 3.68 -18 3 C-19.32 2.67 -20.64 2.34 -22 2 C-19.647 1.661 -17.292 1.328 -14.938 1 C-14.281 0.905 -13.624 0.809 -12.947 0.711 C-8.599 0.111 -4.387 -0.091 0 0 Z " fill="#01287A" transform="translate(574,771)"/>
<path d="M0 0 C0.39 1.768 0.762 3.539 1.125 5.312 C1.334 6.299 1.543 7.285 1.758 8.301 C2 11 2 11 0 14 C-0.433 12.298 -0.433 12.298 -0.875 10.562 C-1.246 9.387 -1.618 8.211 -2 7 C-2.66 6.67 -3.32 6.34 -4 6 C-3.625 3.562 -3.625 3.562 -3 1 C-1 0 -1 0 0 0 Z " fill="#084369" transform="translate(172,505)"/>
<path d="M0 0 C0.99 0.66 1.98 1.32 3 2 C3 2.66 3 3.32 3 4 C6.63 4.99 10.26 5.98 14 7 C14 7.33 14 7.66 14 8 C10.04 8 6.08 8 2 8 C2 7.01 2 6.02 2 5 C0.68 4.67 -0.64 4.34 -2 4 C-1.34 4 -0.68 4 0 4 C-0.33 3.01 -0.66 2.02 -1 1 C-0.67 0.67 -0.34 0.34 0 0 Z " fill="#DE9B1F" transform="translate(410,752)"/>
<path d="M0 0 C-7.492 4.995 -16.235 5.458 -25 5 C-21.377 2.885 -17.717 2.184 -13.625 1.375 C-11.695 0.984 -11.695 0.984 -9.727 0.586 C-6.399 0.063 -3.358 -0.114 0 0 Z " fill="#E28F0D" transform="translate(589,755)"/>
<path d="M0 0 C3.986 0.607 6.553 2.632 9.75 5 C11.227 6.083 11.227 6.083 12.734 7.188 C13.482 7.786 14.23 8.384 15 9 C15 9.33 15 9.66 15 10 C12.69 10 10.38 10 8 10 C7.794 9.051 7.587 8.102 7.375 7.125 C6.292 3.708 6.292 3.708 2.875 2.625 C1.926 2.419 0.978 2.212 0 2 C0 1.34 0 0.68 0 0 Z " fill="#0A3870" transform="translate(288,694)"/>
<path d="M0 0 C3.258 3.053 5.754 6.302 8.25 10 C8.956 11.031 9.663 12.062 10.391 13.125 C12 16 12 16 12 20 C11.34 20 10.68 20 10 20 C9.01 17.69 8.02 15.38 7 13 C6.34 13 5.68 13 5 13 C4.732 12.113 4.464 11.226 4.188 10.312 C3.082 7.229 1.699 4.78 0 2 C0 1.34 0 0.68 0 0 Z " fill="#093971" transform="translate(211,604)"/>
<path d="M0 0 C3.297 2.683 4.611 6.236 6.188 10.062 C6.46 10.7 6.733 11.337 7.014 11.994 C9 16.719 9 16.719 9 19 C8.01 19 7.02 19 6 19 C5.711 17.928 5.423 16.855 5.125 15.75 C4.259 12.864 3.396 10.617 2 8 C0.698 5.035 0 3.266 0 0 Z " fill="#D8D4C3" transform="translate(822,275)"/>
<path d="M0 0 C0.66 0.99 1.32 1.98 2 3 C1.25 6.625 1.25 6.625 0 10 C-0.99 10.495 -0.99 10.495 -2 11 C-2.66 11.99 -3.32 12.98 -4 14 C-4 10.333 -4 6.667 -4 3 C-3.34 3 -2.68 3 -2 3 C-1.34 2.01 -0.68 1.02 0 0 Z " fill="#104C63" transform="translate(180,305)"/>
<path d="M0 0 C0 4.85 -3.292 7.274 -6.562 10.625 C-7.769 11.801 -7.769 11.801 -9 13 C-9.598 13.598 -10.196 14.196 -10.812 14.812 C-11.204 15.204 -11.596 15.596 -12 16 C-12.66 15.34 -13.32 14.68 -14 14 C-9.38 9.38 -4.76 4.76 0 0 Z " fill="#E08F0F" transform="translate(762,654)"/>
<path d="M0 0 C0.33 1.32 0.66 2.64 1 4 C0.529 4.398 0.059 4.797 -0.426 5.207 C-1.048 5.737 -1.671 6.267 -2.312 6.812 C-2.927 7.335 -3.542 7.857 -4.176 8.395 C-5.854 9.872 -7.439 11.4 -9 13 C-9 8.862 -7.285 7.791 -4.5 4.812 C-3.665 3.911 -2.829 3.01 -1.969 2.082 C-0.994 1.051 -0.994 1.051 0 0 Z " fill="#F3BA18" transform="translate(255,185)"/>
<path d="M0 0 C4.516 -0.077 8.591 -0.102 13 1 C12.01 1.66 11.02 2.32 10 3 C9.34 3.66 8.68 4.32 8 5 C4.875 4.625 4.875 4.625 2 4 C2 3.34 2 2.68 2 2 C1.34 2 0.68 2 0 2 C0 1.34 0 0.68 0 0 Z " fill="#D69320" transform="translate(593,760)"/>
<path d="M0 0 C0.33 0.66 0.66 1.32 1 2 C4.046 2.47 4.046 2.47 7.562 2.625 C8.76 2.7 9.958 2.775 11.191 2.852 C12.118 2.901 13.045 2.95 14 3 C14.33 3.99 14.66 4.98 15 6 C9.219 5.369 3.656 4.348 -2 3 C-1.34 2.01 -0.68 1.02 0 0 Z " fill="#C7C3B5" transform="translate(440,751)"/>
<path d="M0 0 C0.66 0 1.32 0 2 0 C3.514 4.845 2.366 8.259 1 13 C-0.32 13.33 -1.64 13.66 -3 14 C-2.783 13.157 -2.567 12.314 -2.344 11.445 C-2.065 10.35 -1.787 9.254 -1.5 8.125 C-1.082 6.489 -1.082 6.489 -0.656 4.82 C0.076 2.158 0.076 2.158 0 0 Z " fill="#0B4A66" transform="translate(171,329)"/>
<path d="M0 0 C0.99 0.99 1.98 1.98 3 3 C-1.455 5.97 -1.455 5.97 -6 9 C-6.33 8.01 -6.66 7.02 -7 6 C-6.34 6 -5.68 6 -5 6 C-5 5.01 -5 4.02 -5 3 C-3.68 3 -2.36 3 -1 3 C-0.67 2.01 -0.34 1.02 0 0 Z " fill="#124D67" transform="translate(308,133)"/>
<path d="M0 0 C-0.99 1.485 -0.99 1.485 -2 3 C-2.99 3 -3.98 3 -5 3 C-5 3.66 -5 4.32 -5 5 C-5.66 4.67 -6.32 4.34 -7 4 C-7 3.67 -7 3.34 -7 3 C-8.65 2.67 -10.3 2.34 -12 2 C-8.409 -1.591 -4.696 -1.208 0 0 Z " fill="#F1B519" transform="translate(433,83)"/>
<path d="M0 0 C-0.639 0.103 -1.279 0.206 -1.938 0.312 C-2.618 0.539 -3.299 0.766 -4 1 C-4.33 1.99 -4.66 2.98 -5 4 C-5.66 3.67 -6.32 3.34 -7 3 C-9.207 2.929 -11.417 2.916 -13.625 2.938 C-15.408 2.951 -15.408 2.951 -17.227 2.965 C-18.599 2.982 -18.599 2.982 -20 3 C-14.097 -0.935 -6.864 -0.124 0 0 Z " fill="#F7BD16" transform="translate(478,74)"/>
<path d="M0 0 C0.33 0.99 0.66 1.98 1 3 C-4.152 3.09 -8.919 2.847 -14 2 C-14 1.67 -14 1.34 -14 1 C-8.805 -1.208 -5.417 -0.934 0 0 Z " fill="#D29120" transform="translate(566,769)"/>
<path d="M0 0 C1.939 0.451 3.876 0.911 5.812 1.375 C6.891 1.63 7.97 1.885 9.082 2.148 C12 3 12 3 15 5 C13.063 5.081 11.125 5.139 9.188 5.188 C8.109 5.222 7.03 5.257 5.918 5.293 C3 5 3 5 1.113 3.613 C0 2 0 2 0 0 Z " fill="#0B3374" transform="translate(415,760)"/>
<path d="M0 0 C0.66 0 1.32 0 2 0 C1.867 0.724 1.734 1.449 1.598 2.195 C0.697 7.125 -0.198 12.053 -1 17 C-1.33 17 -1.66 17 -2 17 C-3.313 10.436 -2.527 6.166 0 0 Z " fill="#114867" transform="translate(169,344)"/>
<path d="M0 0 C4.75 -0.125 4.75 -0.125 7 1 C7 1.66 7 2.32 7 3 C7.66 3 8.32 3 9 3 C9.33 2.01 9.66 1.02 10 0 C10.33 1.32 10.66 2.64 11 4 C4.375 5.25 4.375 5.25 1 3 C0.67 2.01 0.34 1.02 0 0 Z " fill="#0A496A" transform="translate(611,80)"/>
<path d="M0 0 C0.66 0.33 1.32 0.66 2 1 C1.34 5.62 0.68 10.24 0 15 C-1.32 14.67 -2.64 14.34 -4 14 C-3.567 13.041 -3.567 13.041 -3.125 12.062 C-1.675 8.116 -0.842 4.113 0 0 Z " fill="#BEBCAC" transform="translate(847,478)"/>
<path d="M0 0 C5.868 0.524 10.549 1.761 16 4 C16 4.33 16 4.66 16 5 C14.02 5.33 12.04 5.66 10 6 C9.67 5.34 9.34 4.68 9 4 C7.679 3.622 6.342 3.298 5 3 C3.326 2.353 1.657 1.69 0 1 C0 0.67 0 0.34 0 0 Z " fill="#F8EED7" transform="translate(611,97)"/>
<path d="M0 0 C1.32 0.33 2.64 0.66 4 1 C4.33 1.66 4.66 2.32 5 3 C4.216 3.082 3.433 3.165 2.625 3.25 C-0.147 3.728 -0.147 3.728 -1.312 6.062 C-1.539 6.702 -1.766 7.341 -2 8 C-3.32 7.67 -4.64 7.34 -6 7 C-4.02 4.69 -2.04 2.38 0 0 Z " fill="#0C3578" transform="translate(779,653)"/>
<path d="M0 0 C-2.517 2.517 -4.395 2.37 -7.824 2.715 C-11.01 3.132 -13.936 4.043 -17 5 C-17 4.34 -17 3.68 -17 3 C-14.921 2.3 -12.836 1.615 -10.75 0.938 C-9.59 0.555 -8.43 0.172 -7.234 -0.223 C-4.199 -0.952 -2.843 -1.119 0 0 Z " fill="#EDB817" transform="translate(421,86)"/>
<path d="M0 0 C3.012 0.644 5.517 1.65 8.25 3.062 C8.956 3.425 9.663 3.787 10.391 4.16 C11.187 4.576 11.187 4.576 12 5 C11.67 6.32 11.34 7.64 11 9 C8.5 7.625 8.5 7.625 6 6 C6 5.34 6 4.68 6 4 C5.196 3.711 4.391 3.423 3.562 3.125 C1 2 1 2 0 0 Z " fill="#0B3671" transform="translate(342,730)"/>
<path d="M0 0 C0 3.974 -1.348 5.126 -4 8 C-6.25 9.312 -6.25 9.312 -8 10 C-8 7 -8 7 -6.25 5.176 C-5.508 4.561 -4.765 3.946 -4 3.312 C-3.258 2.69 -2.515 2.067 -1.75 1.426 C-1.173 0.955 -0.595 0.485 0 0 Z " fill="#DC941F" transform="translate(747,669)"/>
<path d="M0 0 C0.66 0.33 1.32 0.66 2 1 C1.335 5.389 -0.188 8.981 -2 13 C-2.33 13 -2.66 13 -3 13 C-3 10.36 -3 7.72 -3 5 C-2.34 5 -1.68 5 -1 5 C-0.67 3.35 -0.34 1.7 0 0 Z " fill="#134C66" transform="translate(195,268)"/>
<path d="M0 0 C0.33 0.99 0.66 1.98 1 3 C-4.75 7 -4.75 7 -7 7 C-7.33 6.01 -7.66 5.02 -8 4 C-5.36 2.68 -2.72 1.36 0 0 Z " fill="#0F3575" transform="translate(676,735)"/>
<path d="M0 0 C0.33 0 0.66 0 1 0 C1.309 1.33 1.309 1.33 1.625 2.688 C3.383 6.923 5.354 8.305 9 11 C8.67 11.66 8.34 12.32 8 13 C6.325 11.741 4.66 10.467 3 9.188 C2.072 8.48 1.144 7.772 0.188 7.043 C-0.534 6.369 -1.256 5.695 -2 5 C-2 4.01 -2 3.02 -2 2 C-1.34 2 -0.68 2 0 2 C0 1.34 0 0.68 0 0 Z " fill="#114072" transform="translate(732,138)"/>
<path d="M0 0 C0.33 0.99 0.66 1.98 1 3 C4.465 2.505 4.465 2.505 8 2 C5.651 4.349 4.043 4.731 0.875 5.625 C-0.035 5.885 -0.945 6.146 -1.883 6.414 C-2.581 6.607 -3.28 6.801 -4 7 C-4.66 6.34 -5.32 5.68 -6 5 C-5.196 4.732 -4.391 4.464 -3.562 4.188 C-2.717 3.796 -1.871 3.404 -1 3 C-0.67 2.01 -0.34 1.02 0 0 Z " fill="#0B466B" transform="translate(392,88)"/>
<path d="M0 0 C1.896 -0.027 3.792 -0.046 5.688 -0.062 C6.743 -0.074 7.799 -0.086 8.887 -0.098 C11.724 -0.009 14.244 0.351 17 1 C17 1.33 17 1.66 17 2 C13.7 2.33 10.4 2.66 7 3 C7 2.34 7 1.68 7 1 C4.69 1 2.38 1 0 1 C0 0.67 0 0.34 0 0 Z " fill="#02267A" transform="translate(473,773)"/>
<path d="M0 0 C3.837 1.349 6.652 3.078 9.812 5.625 C10.998 6.572 10.998 6.572 12.207 7.539 C12.799 8.021 13.39 8.503 14 9 C10.151 9 8.299 7.98 5 6 C3.141 4.097 1.61 2.131 0 0 Z " fill="#053174" transform="translate(303,705)"/>
<path d="M0 0 C2.797 2.068 3.027 3.144 3.688 6.688 C3.791 7.781 3.894 8.874 4 10 C4.66 10 5.32 10 6 10 C5.67 11.65 5.34 13.3 5 15 C2.69 12.69 2.278 11.169 1.375 8.062 C1.115 7.187 0.854 6.312 0.586 5.41 C0 3 0 3 0 0 Z " fill="#E39412" transform="translate(837,308)"/>
<path d="M0 0 C1.65 0 3.3 0 5 0 C5 3 5 3 3.5 4.688 C3.005 5.121 2.51 5.554 2 6 C1.01 5.67 0.02 5.34 -1 5 C-0.67 3.35 -0.34 1.7 0 0 Z " fill="#0B4C68" transform="translate(242,192)"/>
<path d="M0 0 C1.458 -0.027 2.917 -0.046 4.375 -0.062 C5.187 -0.074 5.999 -0.086 6.836 -0.098 C9 0 9 0 11 1 C11 1.66 11 2.32 11 3 C11.66 3.33 12.32 3.66 13 4 C8.286 3.521 4.334 3.032 0 1 C0 0.67 0 0.34 0 0 Z " fill="#ECAA12" transform="translate(416,759)"/>
<path d="M0 0 C0.66 1.32 1.32 2.64 2 4 C1.072 4.34 1.072 4.34 0.125 4.688 C-2.623 6.385 -2.932 8.025 -4 11 C-4.99 11.495 -4.99 11.495 -6 12 C-4.681 7.385 -2.786 3.901 0 0 Z " fill="#0C2E7D" transform="translate(822,592)"/>
<path d="M0 0 C0.99 0.33 1.98 0.66 3 1 C1.68 3.64 0.36 6.28 -1 9 C-1.66 8.67 -2.32 8.34 -3 8 C-2.453 4.625 -1.945 2.918 0 0 Z " fill="#F0AD21" transform="translate(211,262)"/>
<path d="M0 0 C0.66 0.66 1.32 1.32 2 2 C1.01 2.33 0.02 2.66 -1 3 C-1.733 5.015 -1.733 5.015 -2 7 C-3.65 7.33 -5.3 7.66 -7 8 C-5.509 4.205 -3.243 2.39 0 0 Z " fill="#EDB61A" transform="translate(299,144)"/>
<path d="M0 0 C-0.125 1.812 -0.125 1.812 -1 4 C-3.938 5.812 -3.938 5.812 -7 7 C-7.66 6.67 -8.32 6.34 -9 6 C-8.072 4.991 -7.132 3.993 -6.188 3 C-5.665 2.443 -5.143 1.886 -4.605 1.312 C-3 0 -3 0 0 0 Z " fill="#022C7E" transform="translate(752,684)"/>
<path d="M0 0 C4.274 1.583 6.265 4.506 9 8 C6 8 6 8 4.395 6.758 C3.872 6.219 3.35 5.68 2.812 5.125 C2.283 4.591 1.753 4.058 1.207 3.508 C0 2 0 2 0 0 Z " fill="#DCAB19" transform="translate(250,655)"/>
<path d="M0 0 C1.32 0.66 2.64 1.32 4 2 C2.35 2.66 0.7 3.32 -1 4 C-1 4.33 -1 4.66 -1 5 C-3.64 5.33 -6.28 5.66 -9 6 C-9 5.34 -9 4.68 -9 4 C-7.68 4 -6.36 4 -5 4 C-5 3.34 -5 2.68 -5 2 C-3.35 2 -1.7 2 0 2 C0 1.34 0 0.68 0 0 Z " fill="#144D64" transform="translate(456,72)"/>
<path d="M0 0 C0.33 0.99 0.66 1.98 1 3 C1.99 3.33 2.98 3.66 4 4 C3.34 5.32 2.68 6.64 2 8 C1.34 7.67 0.68 7.34 0 7 C-0.495 8.98 -0.495 8.98 -1 11 C-0.67 7.37 -0.34 3.74 0 0 Z " fill="#0E367A" transform="translate(857,498)"/>
<path d="M0 0 C0.33 1.32 0.66 2.64 1 4 C1.66 4 2.32 4 3 4 C3.33 6.31 3.66 8.62 4 11 C3.01 10.67 2.02 10.34 1 10 C0.234 8.223 0.234 8.223 -0.25 6.062 C-0.42 5.352 -0.59 4.642 -0.766 3.91 C-1 2 -1 2 0 0 Z " fill="#0B4767" transform="translate(164,478)"/>
<path d="M0 0 C0.66 0 1.32 0 2 0 C2.054 1.75 2.093 3.5 2.125 5.25 C2.148 6.225 2.171 7.199 2.195 8.203 C1.999 11.02 1.446 12.609 0 15 C-1.206 9.773 -0.756 5.235 0 0 Z " fill="#0A4D62" transform="translate(161,375)"/>
<path d="M0 0 C0.66 0 1.32 0 2 0 C1.67 3.3 1.34 6.6 1 10 C0.34 10 -0.32 10 -1 10 C-1.027 8.521 -1.046 7.042 -1.062 5.562 C-1.074 4.739 -1.086 3.915 -1.098 3.066 C-1 1 -1 1 0 0 Z " fill="#EFAC1F" transform="translate(176,370)"/>
<path d="M0 0 C0.66 0 1.32 0 2 0 C2.33 0.99 2.66 1.98 3 3 C2.34 3.66 1.68 4.32 1 5 C0.01 5 -0.98 5 -2 5 C-2.66 6.65 -3.32 8.3 -4 10 C-4.33 9.01 -4.66 8.02 -5 7 C-4.074 5.176 -4.074 5.176 -2.688 3.312 C-2.238 2.69 -1.788 2.067 -1.324 1.426 C-0.887 0.955 -0.45 0.485 0 0 Z " fill="#F1BA18" transform="translate(232,212)"/>
<path d="M0 0 C0.99 0.33 1.98 0.66 3 1 C2.67 1.66 2.34 2.32 2 3 C2.66 3 3.32 3 4 3 C4.33 5.31 4.66 7.62 5 10 C2.365 7.541 0.255 5.422 -1 2 C-0.67 1.34 -0.34 0.68 0 0 Z " fill="#0E4370" transform="translate(796,205)"/>
<path d="M0 0 C2.312 -0.25 2.312 -0.25 5 0 C6.812 2 6.812 2 8 4 C5 5 5 5 1.812 3.562 C0.884 3.047 -0.044 2.531 -1 2 C-0.67 1.34 -0.34 0.68 0 0 Z " fill="#0B456C" transform="translate(672,104)"/>
<path d="M0 0 C2.64 0.99 5.28 1.98 8 3 C7.67 3.99 7.34 4.98 7 6 C6.01 6.33 5.02 6.66 4 7 C2 5.188 2 5.188 0 3 C0 2.01 0 1.02 0 0 Z " fill="#113C6C" transform="translate(372,744)"/>
<path d="M0 0 C0.33 0.66 0.66 1.32 1 2 C-1.615 4.12 -4.196 6.131 -7 8 C-7.99 7.67 -8.98 7.34 -10 7 C-6.7 4.69 -3.4 2.38 0 0 Z " fill="#062A7E" transform="translate(711,714)"/>
<path d="M0 0 C0.66 0.33 1.32 0.66 2 1 C-0.625 6.75 -0.625 6.75 -4 9 C-4 4.319 -3.004 3.379 0 0 Z " fill="#CD9123" transform="translate(773,656)"/>
<path d="M0 0 C1.777 2.666 2.875 5.028 4 8 C2.68 7.67 1.36 7.34 0 7 C0 6.01 0 5.02 0 4 C-0.99 4.33 -1.98 4.66 -3 5 C-1.125 1.125 -1.125 1.125 0 0 Z " fill="#0D416A" transform="translate(188,558)"/>
<path d="M0 0 C0.66 0.33 1.32 0.66 2 1 C1.67 3.64 1.34 6.28 1 9 C0.01 9.33 -0.98 9.66 -2 10 C-1.463 6.623 -0.889 3.303 0 0 Z " fill="#D6951D" transform="translate(851,514)"/>
<path d="M0 0 C2 1 2 1 2.812 3.375 C3 6 3 6 1.562 7.812 C1.047 8.204 0.531 8.596 0 9 C-1.125 2.25 -1.125 2.25 0 0 Z " fill="#DE9B1B" transform="translate(849,311)"/>
<path d="M0 0 C0.866 0.557 0.866 0.557 1.75 1.125 C-1.012 3.887 -3.457 3.704 -7.25 4.125 C-6.25 1.125 -6.25 1.125 -4.438 -0.188 C-2.25 -0.875 -2.25 -0.875 0 0 Z " fill="#D9981C" transform="translate(582.25,765.875)"/>
<path d="M0 0 C0.99 0.33 1.98 0.66 3 1 C2.34 1.66 1.68 2.32 1 3 C0.01 3 -0.98 3 -2 3 C-2 3.66 -2 4.32 -2 5 C-3.98 5.66 -5.96 6.32 -8 7 C-5.422 4.352 -3.084 2.056 0 0 Z " fill="#052A7F" transform="translate(721,707)"/>
<path d="M0 0 C6.705 4.114 6.705 4.114 7.938 7.812 C7.958 8.534 7.979 9.256 8 10 C4.825 7.598 2.142 5.383 0 2 C0 1.34 0 0.68 0 0 Z " fill="#EEE6D4" transform="translate(252,636)"/>
<path d="M0 0 C0.66 0 1.32 0 2 0 C2.33 1.32 2.66 2.64 3 4 C0.625 5.562 0.625 5.562 -2 7 C-2.66 6.67 -3.32 6.34 -4 6 C-2.726 3.962 -1.389 1.961 0 0 Z " fill="#EEB718" transform="translate(238,204)"/>
<path d="M0 0 C1.485 0.99 1.485 0.99 3 2 C2.01 2 1.02 2 0 2 C0 2.66 0 3.32 0 4 C0.99 4.33 1.98 4.66 3 5 C3.99 6.485 3.99 6.485 5 8 C4.67 8.99 4.34 9.98 4 11 C0.389 7.212 0.389 7.212 -1 5 C-0.812 2.125 -0.812 2.125 0 0 Z " fill="#133F72" transform="translate(787,192)"/>
<path d="M0 0 C0.33 0.66 0.66 1.32 1 2 C0.34 2 -0.32 2 -1 2 C-1.33 3.32 -1.66 4.64 -2 6 C-3.98 6.33 -5.96 6.66 -8 7 C-6.536 2.608 -4.022 2.121 0 0 Z " fill="#F4BC15" transform="translate(333,121)"/>
<path d="M0 0 C3.579 1.652 6.748 3.783 10 6 C6.531 6 4.177 5.382 1 4 C0.125 1.875 0.125 1.875 0 0 Z " fill="#0B4A6A" transform="translate(701,119)"/>
<path d="M0 0 C1.32 0 2.64 0 4 0 C4 0.66 4 1.32 4 2 C5.32 2.33 6.64 2.66 8 3 C5.072 3.976 3.044 4.082 0 4 C-0.33 3.34 -0.66 2.68 -1 2 C-0.67 1.34 -0.34 0.68 0 0 Z " fill="#135263" transform="translate(409,82)"/>
<path d="M0 0 C0 0.33 0 0.66 0 1 C-4.177 2.591 -7.532 3.213 -12 3 C-12 2.34 -12 1.68 -12 1 C-8.019 -0.327 -4.15 -0.069 0 0 Z " fill="#F4BB14" transform="translate(457,77)"/>
<path d="M0 0 C3.465 1.485 3.465 1.485 7 3 C6.67 3.66 6.34 4.32 6 5 C3.03 4.505 3.03 4.505 0 4 C0 2.68 0 1.36 0 0 Z " fill="#09376E" transform="translate(381,748)"/>
<path d="M0 0 C0.33 0 0.66 0 1 0 C1.33 2.64 1.66 5.28 2 8 C0.02 8.99 0.02 8.99 -2 10 C-2.22 6.144 -1.604 3.508 0 0 Z " fill="#D69320" transform="translate(858,483)"/>
<path d="M0 0 C0.33 0 0.66 0 1 0 C1.185 9.41 1.185 9.41 0 14 C-0.33 14 -0.66 14 -1 14 C-2.12 8.511 -1.792 5.166 0 0 Z " fill="#CBBFA3" transform="translate(852,385)"/>
<path d="M0 0 C0.66 0.33 1.32 0.66 2 1 C-2.308 6.785 -2.308 6.785 -5.812 7.875 C-6.895 7.937 -6.895 7.937 -8 8 C-5.333 5.333 -2.667 2.667 0 0 Z " fill="#EFAE22" transform="translate(282,160)"/>
<path d="M0 0 C0.66 0.33 1.32 0.66 2 1 C1.381 1.433 0.762 1.866 0.125 2.312 C-2.22 3.997 -2.22 3.997 -4 7 C-4.66 7 -5.32 7 -6 7 C-5.812 5.188 -5.812 5.188 -5 3 C-2.562 1.188 -2.562 1.188 0 0 Z " fill="#F2BB1A" transform="translate(322,128)"/>
<path d="M0 0 C2.31 0.33 4.62 0.66 7 1 C3.715 3.19 0.793 3.998 -3 5 C-2.01 3.35 -1.02 1.7 0 0 Z " fill="#0E5264" transform="translate(338,113)"/>
<path d="M0 0 C2.438 0.75 2.438 0.75 4.438 2.75 C0.501 4.062 -1.687 2.993 -5.562 1.75 C-2.562 -0.25 -2.562 -0.25 0 0 Z " fill="#12486C" transform="translate(630.5625,86.25)"/>
<path d="M0 0 C0.66 0.33 1.32 0.66 2 1 C2 1.66 2 2.32 2 3 C-0.5 4.625 -0.5 4.625 -3 6 C-3.66 4.68 -4.32 3.36 -5 2 C-2.625 0.938 -2.625 0.938 0 0 Z " fill="#D8961E" transform="translate(723,702)"/>
<path d="M0 0 C-5.07 2.535 -7.215 2.964 -13 2 C-13 1.67 -13 1.34 -13 1 C-8.591 -0.102 -4.516 -0.077 0 0 Z " fill="#E18F0E" transform="translate(561,760)"/>
<path d="M0 0 C2.31 0 4.62 0 7 0 C6.01 1.485 6.01 1.485 5 3 C1.875 3.188 1.875 3.188 -1 3 C-0.67 2.01 -0.34 1.02 0 0 Z " fill="#C0BAA6" transform="translate(536,759)"/>
<path d="M0 0 C0.66 0.66 1.32 1.32 2 2 C1.34 2 0.68 2 0 2 C-0.33 2.99 -0.66 3.98 -1 5 C-2.98 5 -4.96 5 -7 5 C-4.872 2.659 -2.884 1.293 0 0 Z " fill="#092D7B" transform="translate(666,740)"/>
<path d="M0 0 C0.99 0.99 1.98 1.98 3 3 C1.35 4.65 -0.3 6.3 -2 8 C-2.33 7.34 -2.66 6.68 -3 6 C-2.67 5.34 -2.34 4.68 -2 4 C-1.34 4 -0.68 4 0 4 C0 2.68 0 1.36 0 0 Z " fill="#D69220" transform="translate(808,608)"/>
<path d="M0 0 C0 1.65 0 3.3 0 5 C-0.66 5 -1.32 5 -2 5 C-2.66 5.66 -3.32 6.32 -4 7 C-4 5.02 -4 3.04 -4 1 C-1 0 -1 0 0 0 Z " fill="#D79322" transform="translate(820,592)"/>
<path d="M0 0 C0.66 0.66 1.32 1.32 2 2 C1.977 4.164 1.977 4.164 1.625 6.625 C1.514 7.442 1.403 8.26 1.289 9.102 C1.194 9.728 1.098 10.355 1 11 C0.67 11 0.34 11 0 11 C-0.195 9.543 -0.381 8.084 -0.562 6.625 C-0.667 5.813 -0.771 5.001 -0.879 4.164 C-1 2 -1 2 0 0 Z " fill="#FCE9C4" transform="translate(182,490)"/>
<path d="M0 0 C0.33 0 0.66 0 1 0 C1.33 3.3 1.66 6.6 2 10 C1.01 10 0.02 10 -1 10 C-0.67 6.7 -0.34 3.4 0 0 Z " fill="#144566" transform="translate(164,467)"/>
<path d="M0 0 C0.99 0 1.98 0 3 0 C3.125 3.375 3.125 3.375 3 7 C2.34 7.66 1.68 8.32 1 9 C0.67 6.03 0.34 3.06 0 0 Z " fill="#DC9319" transform="translate(853,436)"/>
<path d="M0 0 C0.99 0.33 1.98 0.66 3 1 C3.688 3.062 3.688 3.062 4 5 C2.35 5.66 0.7 6.32 -1 7 C-0.67 4.69 -0.34 2.38 0 0 Z " fill="#DC9B1D" transform="translate(842,295)"/>
<path d="M0 0 C0.688 1.688 0.688 1.688 1 4 C-1.262 8.631 -1.262 8.631 -4 10 C-3.294 6.331 -1.723 3.295 0 0 Z " fill="#08496A" transform="translate(273,160)"/>
<path d="M0 0 C2.051 0.033 4.102 0.065 6.152 0.098 C3.767 1.99 2.081 3.122 -0.848 4.098 C-0.848 3.438 -0.848 2.778 -0.848 2.098 C-1.508 1.768 -2.168 1.438 -2.848 1.098 C-1.848 0.098 -1.848 0.098 0 0 Z " fill="#114A68" transform="translate(356.84765625,104.90234375)"/>
<path d="M0 0 C0 0.66 0 1.32 0 2 C-2.915 2.81 -4.461 3.218 -7.312 2.062 C-7.869 1.712 -8.426 1.361 -9 1 C-5.804 -0.065 -3.343 -0.074 0 0 Z " fill="#FEF6E4" transform="translate(459,89)"/>
<path d="M0 0 C1.65 0.33 3.3 0.66 5 1 C5 1.66 5 2.32 5 3 C2.69 3 0.38 3 -2 3 C-1.34 2.01 -0.68 1.02 0 0 Z " fill="#C3BFAE" transform="translate(481,758)"/>
<path d="M0 0 C0.66 0 1.32 0 2 0 C2.625 2.812 2.625 2.812 3 6 C2.34 6.99 1.68 7.98 1 9 C0.67 6.03 0.34 3.06 0 0 Z " fill="#FDF5E2" transform="translate(180,483)"/>
<path d="M0 0 C0.66 0.33 1.32 0.66 2 1 C2.625 3.562 2.625 3.562 3 6 C2.34 6 1.68 6 1 6 C1 5.34 1 4.68 1 4 C0.01 4 -0.98 4 -2 4 C-2.33 3.01 -2.66 2.02 -3 1 C-2.01 0.67 -1.02 0.34 0 0 Z " fill="#DD9D1A" transform="translate(852,321)"/>
<path d="M0 0 C1.65 0 3.3 0 5 0 C4.188 1.938 4.188 1.938 3 4 C2.01 4.33 1.02 4.66 0 5 C0 3.35 0 1.7 0 0 Z " fill="#074D63" transform="translate(248,184)"/>
<path d="M0 0 C0.66 0 1.32 0 2 0 C0.607 3.367 -0.979 4.986 -4 7 C-4 6.01 -4 5.02 -4 4 C-3.01 3.67 -2.02 3.34 -1 3 C-0.67 2.01 -0.34 1.02 0 0 Z " fill="#FDF0D2" transform="translate(276,179)"/>
<path d="M0 0 C2.97 0.495 2.97 0.495 6 1 C5.67 2.32 5.34 3.64 5 5 C3.35 3.35 1.7 1.7 0 0 Z " fill="#12416F" transform="translate(723,136)"/>
<path d="M0 0 C1.65 0.33 3.3 0.66 5 1 C3.35 2.32 1.7 3.64 0 5 C-0.66 4.34 -1.32 3.68 -2 3 C-1.34 2.01 -0.68 1.02 0 0 Z " fill="#0B4A6A" transform="translate(321,124)"/>
</svg>
