<?xml version="1.0" encoding="UTF-8"?>
<!-- Generator: visioncortex VTracer 0.6.4 -->
<svg version="1.1" xmlns="http://www.w3.org/2000/svg" width="1024" height="1024">
<path d="M0 0 C337.92 0 675.84 0 1024 0 C1024 337.92 1024 675.84 1024 1024 C686.08 1024 348.16 1024 0 1024 C0 686.08 0 348.16 0 0 Z " fill="#FEFBEE" transform="translate(0,0)"/>
<path d="M0 0 C2.6 10.759 2.157 22.204 -3 32 C-3.616 33.279 -4.227 34.561 -4.836 35.844 C-8.384 43.242 -12.047 50.427 -17 57 C-17.485 57.695 -17.969 58.39 -18.469 59.105 C-23.315 65.437 -29.62 68.275 -37 71 C-37.66 71 -38.32 71 -39 71 C-39.33 70.01 -39.66 69.02 -40 68 C-40.433 69.361 -40.433 69.361 -40.875 70.75 C-41.765 73.322 -42.715 75.613 -44 78 C-44.66 78 -45.32 78 -46 78 C-46.227 78.639 -46.454 79.279 -46.688 79.938 C-49.647 86.844 -53.203 92.533 -58.285 98.07 C-60.784 100.882 -62.871 103.903 -65 107 C-60.883 105.652 -58.746 103.959 -55.875 100.75 C-48.701 93.35 -39.021 88.454 -29 86 C-27.515 86.495 -27.515 86.495 -26 87 C-27.935 87.84 -29.873 88.672 -31.812 89.5 C-33.431 90.196 -33.431 90.196 -35.082 90.906 C-38 92 -38 92 -41 92 C-41 92.66 -41 93.32 -41 94 C-47.75 98 -47.75 98 -50 98 C-50 98.66 -50 99.32 -50 100 C-52.375 102.625 -52.375 102.625 -55 105 C-55.66 105 -56.32 105 -57 105 C-57 105.99 -57 106.98 -57 108 C-51.045 106.626 -45.384 104.789 -39.637 102.707 C-37 102 -37 102 -34 103 C-35.65 104.32 -37.3 105.64 -39 107 C-31.167 106.217 -25.114 102.966 -20 97 C-16.802 93.234 -16.802 93.234 -16.25 88.625 C-16.497 88.089 -16.745 87.553 -17 87 C-19.31 86.67 -21.62 86.34 -24 86 C-24 85.67 -24 85.34 -24 85 C-22.543 84.919 -21.084 84.861 -19.625 84.812 C-18.407 84.76 -18.407 84.76 -17.164 84.707 C-16.45 84.804 -15.736 84.9 -15 85 C-13 88 -13 88 -13.125 90.312 C-15.591 97.885 -21.902 104.522 -28.812 108.375 C-36.387 111.79 -48.119 112.627 -56 110 C-61.759 109.539 -66.882 110.302 -72 113 C-73.829 114.751 -75.321 116.527 -76.809 118.574 C-77.202 119.045 -77.595 119.515 -78 120 C-78.66 120 -79.32 120 -80 120 C-80.33 120.99 -80.66 121.98 -81 123 C-82.98 124.691 -84.979 126.358 -87 128 C-87.495 128.99 -87.495 128.99 -88 130 C-88.99 130 -89.98 130 -91 130 C-91 130.66 -91 131.32 -91 132 C-91.66 132 -92.32 132 -93 132 C-92.508 127.763 -89.88 125.327 -87.062 122.375 C-86.331 121.59 -86.331 121.59 -85.584 120.789 C-81.527 116.466 -77.304 112.328 -72.996 108.254 C-68.301 102.953 -68.649 97.495 -68.734 90.711 C-69.125 85.256 -70.514 80.241 -72 75 C-75.523 57.705 -71.237 41.661 -64 26 C-63.01 26.33 -62.02 26.66 -61 27 C-59.625 29.828 -59.037 32.949 -58.312 36 C-58.093 36.925 -57.873 37.851 -57.646 38.804 C-54.44 53.741 -52.577 75.433 -60.5 89.25 C-62.61 93.147 -63.971 96.696 -65 101 C-64.34 100.01 -63.68 99.02 -63 98 C-62.34 98 -61.68 98 -61 98 C-60.604 97.151 -60.604 97.151 -60.199 96.285 C-58.912 93.833 -57.43 91.684 -55.812 89.438 C-48.38 78.924 -41.44 69.04 -39.062 56.25 C-35.178 37.592 -25.821 24.725 -13 11 C-11.157 8.907 -9.331 6.801 -7.508 4.691 C-7.01 4.133 -6.513 3.575 -6 3 C-5.502 2.432 -5.005 1.863 -4.492 1.277 C-3 0 -3 0 0 0 Z " fill="#10120E" transform="translate(868,295)"/>
<path d="M0 0 C14.175 3.866 25.768 25.67 32.723 37.586 C35.911 43.611 37.153 49.7 38.375 56.375 C39.509 62.394 41.248 67.472 44.012 72.926 C45 75 45 75 45 77 C45.66 77 46.32 77 47 77 C48.727 78.898 48.727 78.898 50.625 81.375 C51.257 82.187 51.888 82.999 52.539 83.836 C54 86 54 86 54 88 C54.99 88.33 55.98 88.66 57 89 C58.397 90.956 59.738 92.954 61 95 C60.742 93.581 60.468 92.165 60.188 90.75 C60.037 89.961 59.886 89.172 59.73 88.359 C59.139 85.952 59.139 85.952 57.559 84.164 C52.364 76.953 52.6 67.319 52.812 58.812 C52.833 57.241 52.833 57.241 52.854 55.639 C52.888 53.092 52.937 50.546 53 48 C53.66 47.67 54.32 47.34 55 47 C55.015 47.598 55.029 48.197 55.044 48.813 C55.353 60.192 55.708 71.028 59 82 C59.66 81.34 60.32 80.68 61 80 C61.33 81.32 61.66 82.64 62 84 C62.483 81.98 62.961 79.959 63.438 77.938 C63.704 76.812 63.971 75.687 64.246 74.527 C67.112 61.119 68.192 43.784 62.312 31 C61 28 61 28 61.312 25.562 C61.539 25.047 61.766 24.531 62 24 C62.495 26.475 62.495 26.475 63 29 C63.66 29 64.32 29 65 29 C69.614 45.383 72.514 60 66.375 76.438 C64.564 81.606 64.603 86.581 65 92 C65.052 93.688 65.052 93.688 65.105 95.41 C66.327 100.313 68.894 102.5 72.562 105.812 C74.748 107.843 76.884 109.895 79 112 C79 112.66 79 113.32 79 114 C79.66 114 80.32 114 81 114 C82.508 115.426 82.508 115.426 84.125 117.312 C84.664 117.927 85.203 118.542 85.758 119.176 C87 121 87 121 87 124 C84 122.5 84 122.5 81 121 C81 120.34 81 119.68 81 119 C80.437 118.763 79.873 118.526 79.293 118.281 C76.487 116.714 74.562 114.791 72.312 112.5 C71.525 111.706 70.737 110.912 69.926 110.094 C68 108 68 108 67 106 C63.279 104.487 59.703 103.179 55.812 102.188 C51.901 100.536 50.445 98.452 48 95 C48 94.34 48 93.68 48 93 C46.68 93 45.36 93 44 93 C42.794 95.332 41.835 97.496 41 100 C43.64 100.66 46.28 101.32 49 102 C48.67 102.66 48.34 103.32 48 104 C37.024 104.613 28.797 104.577 19.91 97.285 C15.742 93.39 13.211 90.088 12.812 84.25 C13 82 13 82 14 81 C26.517 79.543 38.721 83.996 48.777 91.289 C51.073 93.119 52.955 94.939 54.688 97.312 C55.121 97.869 55.554 98.426 56 99 C56.99 99 57.98 99 59 99 C57.011 95.832 55.217 93.217 52.562 90.562 C49.564 87.564 47.337 84.539 45 81 C45 80.34 45 79.68 45 79 C44.374 78.924 43.747 78.848 43.102 78.77 C41 78 41 78 40.086 76.074 C39.851 75.287 39.617 74.499 39.375 73.688 C38.195 70.736 37.604 69.341 34.805 67.762 C33.073 67.161 31.336 66.577 29.594 66.008 C18.621 61.744 12.348 49.343 7.25 39.5 C6.769 38.602 6.288 37.703 5.793 36.777 C-0.063 25.572 -1.866 13.61 -1 1 C-0.67 0.67 -0.34 0.34 0 0 Z " fill="#11130E" transform="translate(159,292)"/>
<path d="M0 0 C0.99 0.33 1.98 0.66 3 1 C3.236 8.623 2.837 15.586 1 23 C0.34 23 -0.32 23 -1 23 C-1.103 24.029 -1.206 25.057 -1.312 26.117 C-3.475 38.331 -14.133 53.655 -24 61 C-26.366 62.035 -28.456 62.44 -31 63 C-30.34 61.02 -29.68 59.04 -29 57 C-29.495 57.495 -29.495 57.495 -30 58 C-30.66 58 -31.32 58 -32 58 C-32 59.32 -32 60.64 -32 62 C-32.66 62 -33.32 62 -34 62 C-34.396 55.957 -33.083 51.373 -30.938 45.75 C-30.62 44.91 -30.303 44.069 -29.976 43.203 C-25.983 32.971 -20.176 25.006 -13.137 16.641 C-10.632 13.545 -8.502 10.295 -6.352 6.949 C-4.499 4.278 -2.398 2.186 0 0 Z " fill="#A5B86C" transform="translate(864,299)"/>
<path d="M0 0 C3.738 0.553 5.263 1.978 7.688 4.812 C8.289 5.5 8.891 6.187 9.512 6.895 C10.994 8.991 11.577 10.492 12 13 C12.66 13 13.32 13 14 13 C15.184 14.355 15.184 14.355 16.438 16.188 C16.881 16.833 17.324 17.479 17.781 18.145 C19.257 20.391 20.625 22.691 22 25 C22.442 25.634 22.884 26.268 23.34 26.922 C30.129 36.665 35.415 46.969 35 59 C34.34 59 33.68 59 33 59 C31.618 57.374 30.281 55.707 29 54 C29.33 55.65 29.66 57.3 30 59 C30.66 59 31.32 59 32 59 C32 59.66 32 60.32 32 61 C26.571 60.374 23.246 56.463 19.895 52.527 C7.469 36.637 0.689 20.415 0 0 Z " fill="#A3B66C" transform="translate(160,296)"/>
<path d="M0 0 C0.99 0.33 1.98 0.66 3 1 C4.375 3.828 4.963 6.949 5.688 10 C5.907 10.925 6.127 11.851 6.354 12.804 C9.643 28.129 11.214 49.453 3.375 63.688 C2.929 64.516 2.483 65.345 2.023 66.199 C1.686 66.793 1.348 67.388 1 68 C-0.32 68 -1.64 68 -3 68 C-10.458 43.525 -10.8 23.37 0 0 Z " fill="#AABC70" transform="translate(804,321)"/>
<path d="M0 0 C12.827 0.133 24.933 5.661 34.25 14.312 C34.704 15.034 35.157 15.756 35.625 16.5 C38.256 19.435 41.447 19.564 45.25 20.312 C45.25 21.303 45.25 22.293 45.25 23.312 C39.672 22.772 35.419 22.2 31.625 17.812 C29.25 14.716 29.25 14.716 29.25 12.312 C27.93 12.312 26.61 12.312 25.25 12.312 C24.044 14.645 23.085 16.809 22.25 19.312 C24.89 19.973 27.53 20.632 30.25 21.312 C29.92 21.973 29.59 22.632 29.25 23.312 C18.274 23.925 10.047 23.89 1.16 16.598 C-3.008 12.702 -5.539 9.4 -5.938 3.562 C-5.6 -0.487 -3.641 0.1 0 0 Z " fill="#161A11" transform="translate(177.75,372.6875)"/>
<path d="M0 0 C0.66 0 1.32 0 2 0 C2.456 1.921 2.911 3.841 3.367 5.762 C3.973 8.064 3.973 8.064 5 10.441 C11.331 26.639 8.91 48.151 3 64 C-4.249 57.588 -4.131 47.384 -4.814 38.264 C-5.596 24.813 -3.774 12.897 0 0 Z " fill="#A9BA6F" transform="translate(218,314)"/>
<path d="M0 0 C3.3 0.33 6.6 0.66 10 1 C11.16 3.215 11.16 3.215 12 6 C9.48 12.2 4.685 17.287 -1.336 20.086 C-8.177 22.85 -14.657 23.744 -22 24 C-19.453 21.453 -17.555 21.647 -14.07 21.441 C-11.476 20.888 -10.01 19.69 -8 18 C-9.73 18.455 -11.459 18.914 -13.188 19.375 C-14.15 19.63 -15.113 19.885 -16.105 20.148 C-18.994 20.944 -18.994 20.944 -21.656 22.094 C-24.537 23.208 -26.938 23.142 -30 23 C-30 22.01 -30 21.02 -30 20 C-29.34 20 -28.68 20 -28 20 C-27.732 19.361 -27.464 18.721 -27.188 18.062 C-26 16 -26 16 -23 15 C-23 14.34 -23 13.68 -23 13 C-16.25 9 -16.25 9 -14 9 C-14 8.34 -14 7.68 -14 7 C-9.38 5.35 -4.76 3.7 0 2 C0 1.34 0 0.68 0 0 Z " fill="#A3B56E" transform="translate(841,380)"/>
<path d="M0 0 C2.6 10.759 2.157 22.204 -3 32 C-3.616 33.279 -4.227 34.561 -4.836 35.844 C-8.384 43.242 -12.047 50.427 -17 57 C-17.485 57.695 -17.969 58.39 -18.469 59.105 C-23.315 65.437 -29.62 68.275 -37 71 C-37.66 71 -38.32 71 -39 71 C-39.33 70.01 -39.66 69.02 -40 68 C-40.99 68.99 -40.99 68.99 -42 70 C-37.593 45.879 -29.733 29.335 -13 11 C-11.174 8.915 -9.358 6.822 -7.543 4.727 C-6.779 3.872 -6.779 3.872 -6 3 C-5.501 2.43 -5.002 1.86 -4.488 1.273 C-3 0 -3 0 0 0 Z M-4 4 C-8.295 7.96 -11.68 11.815 -14.633 16.852 C-16.191 19.3 -17.957 21.457 -19.812 23.688 C-26.62 32.123 -31.832 40.7 -35.5 50.875 C-35.883 51.927 -35.883 51.927 -36.274 53 C-37.798 57.507 -38.248 61.247 -38 66 C-37.34 66 -36.68 66 -36 66 C-36 64.68 -36 63.36 -36 62 C-35.34 62 -34.68 62 -34 62 C-33.505 61.505 -33.505 61.505 -33 61 C-33.66 62.98 -34.32 64.96 -35 67 C-26.866 65.362 -22.897 61.512 -18 55 C-17.477 54.308 -16.953 53.616 -16.414 52.902 C-7.842 40.862 -7.842 40.862 -5 27 C-4.34 27 -3.68 27 -3 27 C-1.163 19.586 -0.764 12.623 -1 5 C-1.99 4.67 -2.98 4.34 -4 4 Z " fill="#151811" transform="translate(868,295)"/>
<path d="M0 0 C3.527 1.312 3.527 1.312 6.938 3 C8.653 3.835 8.653 3.835 10.402 4.688 C11.688 5.337 11.688 5.337 13 6 C13 7.32 13 8.64 13 10 C11.68 10 10.36 10 9 10 C11.31 11.32 13.62 12.64 16 14 C16 14.66 16 15.32 16 16 C13.69 16 11.38 16 9 16 C12.285 18.19 15.207 18.998 19 20 C13.443 21.852 7.08 19.283 1.797 17.082 C-3.303 14.366 -6.913 10.391 -9 5 C-9 3.68 -9 2.36 -9 1 C-5.921 -0.54 -3.412 -0.224 0 0 Z " fill="#ABBD72" transform="translate(183,374)"/>
<path d="M0 0 C1.134 0.021 2.269 0.041 3.438 0.062 C4.102 1.781 4.102 1.781 4.438 4.062 C0.954 11.5 -4.091 16.206 -11.625 19.25 C-17.545 21.307 -23.329 21.845 -29.562 22.062 C-26.994 19.494 -25.028 19.757 -21.539 19.414 C-18.96 18.955 -17.436 17.858 -15.562 16.062 C-18.533 16.392 -21.503 16.723 -24.562 17.062 C-24.893 16.402 -25.222 15.743 -25.562 15.062 C-24.002 14.411 -22.439 13.767 -20.875 13.125 C-20.005 12.765 -19.135 12.406 -18.238 12.035 C-15.681 11.105 -13.24 10.521 -10.562 10.062 C-10.562 9.402 -10.562 8.743 -10.562 8.062 C-7.924 6.279 -5.591 5.072 -2.562 4.062 C-2.562 3.402 -2.562 2.743 -2.562 2.062 C-3.222 1.733 -3.883 1.402 -4.562 1.062 C-3.562 0.062 -3.562 0.062 0 0 Z " fill="#ADC072" transform="translate(848.5625,381.9375)"/>
<path d="M0 0 C0.66 0.33 1.32 0.66 2 1 C2 2.32 2 3.64 2 5 C2.66 5 3.32 5 4 5 C8.98 22.68 10.895 37.127 4.664 54.75 C3.568 58.463 3.306 62.148 3 66 C2.67 65.34 2.34 64.68 2 64 C0.515 64.495 0.515 64.495 -1 65 C-1.802 63.506 -2.591 62.004 -3.375 60.5 C-3.816 59.665 -4.257 58.829 -4.711 57.969 C-8.06 50.256 -8.26 43.296 -8.125 35 C-8.116 33.939 -8.107 32.878 -8.098 31.785 C-8.074 29.19 -8.042 26.595 -8 24 C-7.34 23.67 -6.68 23.34 -6 23 C-5.985 23.598 -5.971 24.197 -5.956 24.813 C-5.647 36.192 -5.292 47.028 -2 58 C-1.34 57.34 -0.68 56.68 0 56 C0.33 57.32 0.66 58.64 1 60 C1.483 57.98 1.961 55.959 2.438 53.938 C2.704 52.812 2.971 51.687 3.246 50.527 C6.506 35.276 6.572 18.34 0 4 C0 2.68 0 1.36 0 0 Z " fill="#191B13" transform="translate(220,316)"/>
<path d="M0 0 C1.457 -0.081 2.916 -0.139 4.375 -0.188 C5.187 -0.222 5.999 -0.257 6.836 -0.293 C7.55 -0.196 8.264 -0.1 9 0 C11 3 11 3 10.875 5.312 C8.409 12.885 2.098 19.522 -4.812 23.375 C-9.432 25.458 -13.983 25.825 -19 26 C-19.839 26.04 -20.678 26.08 -21.543 26.121 C-27.291 26.273 -32.457 25.5 -38 24 C-37.361 23.876 -36.721 23.752 -36.062 23.625 C-35.382 23.419 -34.701 23.212 -34 23 C-33.67 22.34 -33.34 21.68 -33 21 C-33 21.66 -33 22.32 -33 23 C-27.045 21.626 -21.384 19.789 -15.637 17.707 C-13 17 -13 17 -10 18 C-11.65 19.32 -13.3 20.64 -15 22 C-7.167 21.217 -1.114 17.966 4 12 C7.198 8.234 7.198 8.234 7.75 3.625 C7.503 3.089 7.255 2.553 7 2 C4.69 1.67 2.38 1.34 0 1 C0 0.67 0 0.34 0 0 Z " fill="#202417" transform="translate(844,380)"/>
<path d="M0 0 C0.66 0 1.32 0 2 0 C1.473 4.215 0.214 6.327 -2.562 9.5 C-11.501 20.402 -16.341 30.832 -20.457 44.18 C-21.72 48.262 -23.235 52.11 -25 56 C-27.902 47.295 -21.658 33.283 -18 25 C-13.35 16.057 -6.986 7.237 0 0 Z " fill="#0E0F0B" transform="translate(852,309)"/>
<path d="M0 0 C0.66 0 1.32 0 2 0 C3.558 2.597 4.007 4.144 4.156 7.227 C5.292 12.306 7.794 14.409 11.562 17.812 C13.748 19.843 15.884 21.895 18 24 C18 24.66 18 25.32 18 26 C18.66 26 19.32 26 20 26 C21.508 27.426 21.508 27.426 23.125 29.312 C23.664 29.927 24.203 30.542 24.758 31.176 C26 33 26 33 26 36 C24 35 22 34 20 33 C20 32.34 20 31.68 20 31 C19.437 30.763 18.873 30.526 18.293 30.281 C15.487 28.714 13.562 26.791 11.312 24.5 C10.525 23.706 9.737 22.912 8.926 22.094 C7 20 7 20 6 18 C5.01 17.67 4.02 17.34 3 17 C3 16.01 3 15.02 3 14 C2.175 13.526 1.35 13.051 0.5 12.562 C-0.325 12.047 -1.15 11.531 -2 11 C-2 9.68 -2 8.36 -2 7 C-1.34 7 -0.68 7 0 7 C-0.186 6.031 -0.371 5.061 -0.562 4.062 C-0.707 3.052 -0.851 2.041 -1 1 C-0.67 0.67 -0.34 0.34 0 0 Z " fill="#0F100B" transform="translate(220,380)"/>
<path d="M0 0 C4.87 2.149 6.795 5.459 9.523 9.797 C11.032 12.201 11.032 12.201 13.625 14.625 C16.518 17.518 18.09 20.393 20 24 C14.243 23.507 11.827 20.079 8.188 15.938 C2.493 10.893 -4.79 8.95 -12 7 C-12 6.67 -12 6.34 -12 6 C-10.583 6.142 -9.166 6.289 -7.75 6.438 C-6.567 6.559 -6.567 6.559 -5.359 6.684 C-3.176 6.976 -1.123 7.421 1 8 C0.67 5.36 0.34 2.72 0 0 Z " fill="#F0F0E7" transform="translate(199,368)"/>
<path d="M0 0 C0.99 0.33 1.98 0.66 3 1 C3 2.32 3 3.64 3 5 C2.01 5 1.02 5 0 5 C-0.134 5.726 -0.268 6.451 -0.406 7.199 C-1.132 10.623 -2.197 13.883 -3.281 17.207 C-4.897 23.484 -5.167 29.744 -5.125 36.188 C-5.123 36.916 -5.121 37.645 -5.119 38.396 C-5.068 44.958 -4.636 51.469 -4 58 C-4.66 57.67 -5.32 57.34 -6 57 C-11.915 36.947 -8.608 18.626 0 0 Z " fill="#0F100C" transform="translate(804,321)"/>
<path d="M0 0 C2.031 0.898 2.031 0.898 3.297 3.113 C3.622 4.012 3.947 4.91 4.281 5.836 C4.616 6.732 4.952 7.628 5.297 8.551 C6.031 10.898 6.031 10.898 6.031 12.898 C6.691 12.898 7.351 12.898 8.031 12.898 C9.758 14.797 9.758 14.797 11.656 17.273 C12.288 18.086 12.92 18.898 13.57 19.734 C15.031 21.898 15.031 21.898 15.031 23.898 C16.021 24.228 17.011 24.558 18.031 24.898 C19.719 27.961 19.719 27.961 21.031 30.898 C20.041 32.383 20.041 32.383 19.031 33.898 C18.639 33.177 18.248 32.455 17.844 31.711 C16.122 28.822 16.122 28.822 13.656 26.523 C10.631 23.499 8.388 20.467 6.031 16.898 C6.031 16.238 6.031 15.578 6.031 14.898 C5.414 14.825 4.796 14.751 4.16 14.676 C2.031 13.898 2.031 13.898 0.871 11.902 C0.573 11.097 0.276 10.291 -0.031 9.461 C-1.363 5.9 -1.664 5.101 -4.969 2.898 C-2.545 -0.131 -2.545 -0.131 0 0 Z " fill="#212319" transform="translate(197.96875,356.1015625)"/>
<path d="M0 0 C0.66 0 1.32 0 2 0 C2.771 4.723 3.098 9.215 3 14 C3.33 14 3.66 14 4 14 C4.426 19.537 2.905 23.897 1 29 C-3.98 24.181 -3.98 24.181 -4.062 19.375 C-4.042 18.261 -4.021 17.147 -4 16 C-3.34 16 -2.68 16 -2 16 C-2.035 14.77 -2.035 14.77 -2.07 13.516 C-2.088 12.438 -2.106 11.36 -2.125 10.25 C-2.148 9.183 -2.171 8.115 -2.195 7.016 C-2.005 4.075 -1.527 2.476 0 0 Z " fill="#B0C177" transform="translate(220,349)"/>
<path d="M0 0 C0.66 0 1.32 0 2 0 C2 0.66 2 1.32 2 2 C3.176 1.876 4.351 1.752 5.562 1.625 C10.168 1.609 12.3 3.313 15.555 6.406 C17 8 17 8 18.438 10.25 C21.015 13.137 24.273 13.267 28 14 C28 14.99 28 15.98 28 17 C22.422 16.46 18.169 15.887 14.375 11.5 C12 8.403 12 8.403 12 6 C10.68 6 9.36 6 8 6 C7.691 6.619 7.381 7.238 7.062 7.875 C6.375 9.25 5.688 10.625 5 12 C3.68 11.67 2.36 11.34 1 11 C1.99 11 2.98 11 4 11 C1.634 8.385 -0.942 6.736 -4 5 C-3.34 4.67 -2.68 4.34 -2 4 C-1.01 4.33 -0.02 4.66 1 5 C0.505 2.525 0.505 2.525 0 0 Z " fill="#1B1F16" transform="translate(195,379)"/>
<path d="M0 0 C-0.298 2.781 -0.944 3.94 -2.875 6 C-11.029 11.218 -19.448 12.667 -29 13 C-27 11 -27 11 -23.125 10.625 C-19.102 10.212 -17.622 9.165 -15 6 C-10.806 2.26 -5.746 -1.915 0 0 Z " fill="#A8BB72" transform="translate(848,391)"/>
<path d="M0 0 C1.402 2.266 2.045 3.537 1.785 6.227 C-0.25 12.98 -3.185 18.779 -8 24 C-11.438 25.625 -11.438 25.625 -14 26 C-11.906 20.709 -9.542 15.5 -6 11 C-5.34 11 -4.68 11 -4 11 C-3.845 10.227 -3.845 10.227 -3.688 9.438 C-2.757 6.14 -1.386 3.134 0 0 Z " fill="#9EA878" transform="translate(828,362)"/>
<path d="M0 0 C0.66 0.66 1.32 1.32 2 2 C1.605 4.963 0.402 7.383 -1 10 C-1.66 10 -2.32 10 -3 10 C-3.34 10.959 -3.34 10.959 -3.688 11.938 C-6.656 18.864 -10.222 24.64 -15.352 30.176 C-17.033 32.036 -18.524 33.974 -20 36 C-20.99 35.67 -21.98 35.34 -23 35 C-21.625 32.5 -21.625 32.5 -20 30 C-19.34 30 -18.68 30 -18 30 C-17.604 29.151 -17.604 29.151 -17.199 28.285 C-15.912 25.833 -14.43 23.684 -12.812 21.438 C-5.449 11.25 -5.449 11.25 0 0 Z " fill="#151710" transform="translate(825,363)"/>
<path d="M0 0 C3.534 1.963 6.245 4.041 9 7 C9.33 5.02 9.66 3.04 10 1 C10.33 1 10.66 1 11 1 C11.193 1.699 11.387 2.397 11.586 3.117 C11.846 4.027 12.107 4.937 12.375 5.875 C12.63 6.78 12.885 7.685 13.148 8.617 C13.86 11.146 13.86 11.146 16 13 C16.633 15.383 16.633 15.383 17.125 18.125 C17.293 19.035 17.46 19.945 17.633 20.883 C17.754 21.581 17.875 22.28 18 23 C14.528 19.614 11.327 16.123 8.25 12.375 C7.471 11.434 6.693 10.493 5.891 9.523 C4 7 4 7 3 4 C2.34 4 1.68 4 1 4 C0.67 2.68 0.34 1.36 0 0 Z " fill="#E8E9E0" transform="translate(203,365)"/>
<path d="M0 0 C0.33 0 0.66 0 1 0 C1.015 0.598 1.029 1.197 1.044 1.813 C1.353 13.192 1.708 24.028 5 35 C5.66 34.34 6.32 33.68 7 33 C7.33 34.32 7.66 35.64 8 37 C8.66 37 9.32 37 10 37 C10 38.98 10 40.96 10 43 C9.67 42.34 9.34 41.68 9 41 C7.515 41.495 7.515 41.495 6 42 C5.198 40.506 4.409 39.004 3.625 37.5 C3.184 36.665 2.743 35.829 2.289 34.969 C-1.042 27.298 -1.286 20.316 -1.188 12.062 C-1.187 11.01 -1.186 9.957 -1.186 8.873 C-1.141 1.141 -1.141 1.141 0 0 Z " fill="#454839" transform="translate(213,339)"/>
<path d="M0 0 C0.99 0 1.98 0 3 0 C2.372 2.929 1.414 5.361 0 8 C0.433 7.567 0.866 7.134 1.312 6.688 C2.875 5.125 4.438 3.562 6 2 C4.382 7.797 1.559 12.062 -3 16 C-3.66 16 -4.32 16 -5 16 C-5 17.32 -5 18.64 -5 20 C-5.66 20 -6.32 20 -7 20 C-7.615 12.769 -5.162 7.546 -1.438 1.438 C-0.963 0.963 -0.489 0.489 0 0 Z " fill="#8A9A5F" transform="translate(837,341)"/>
<path d="M0 0 C0.99 0.33 1.98 0.66 3 1 C2.188 3.438 2.188 3.438 1 6 C0.01 6.33 -0.98 6.66 -2 7 C-2.33 7.99 -2.66 8.98 -3 10 C-4.98 11.691 -6.979 13.358 -9 15 C-9.33 15.66 -9.66 16.32 -10 17 C-10.99 17 -11.98 17 -13 17 C-13 17.66 -13 18.32 -13 19 C-13.66 19 -14.32 19 -15 19 C-14.553 14.581 -11.547 11.991 -8.625 8.938 C-8.13 8.408 -7.635 7.879 -7.125 7.334 C-4.792 4.848 -2.432 2.39 0 0 Z " fill="#11110E" transform="translate(790,408)"/>
<path d="M0 0 C0.66 0 1.32 0 2 0 C2.499 1.965 2.997 3.93 3.48 5.898 C3.886 7.541 4.314 9.178 4.75 10.812 C5 13 5 13 3 16 C0.375 16.188 0.375 16.188 -2 16 C-2.33 18.64 -2.66 21.28 -3 24 C-3.33 24 -3.66 24 -4 24 C-4.212 18.111 -3.553 13.167 -2 7.5 C-1.809 6.773 -1.618 6.046 -1.422 5.297 C-0.957 3.529 -0.48 1.764 0 0 Z " fill="#74814F" transform="translate(218,314)"/>
<path d="M0 0 C4.755 -0.743 7.561 1.268 11.426 3.711 C11.945 4.136 12.465 4.562 13 5 C13 5.66 13 6.32 13 7 C16.285 9.19 19.207 9.998 23 11 C17.439 12.854 10.853 10.332 5.656 7.906 C4.069 6.996 2.528 6.007 1 5 C1.33 4.34 1.66 3.68 2 3 C1.34 2.67 0.68 2.34 0 2 C0 1.34 0 0.68 0 0 Z " fill="#9CAE68" transform="translate(179,383)"/>
<path d="M0 0 C3.3 0.33 6.6 0.66 10 1 C10 1.33 10 1.66 10 2 C8.02 2.33 6.04 2.66 4 3 C4.33 3.99 4.66 4.98 5 6 C0.375 10 0.375 10 -3 10 C-3 10.66 -3 11.32 -3 12 C-3.566 12.205 -4.132 12.41 -4.715 12.621 C-5.448 12.891 -6.182 13.16 -6.938 13.438 C-8.034 13.838 -8.034 13.838 -9.152 14.246 C-10.983 14.854 -10.983 14.854 -12 16 C-13.666 16.041 -15.334 16.043 -17 16 C-15.344 12.687 -11.801 12.306 -8.445 11.098 C-5.984 9.993 -4.669 9.094 -3 7 C-2.67 6.01 -2.34 5.02 -2 4 C-2.66 3.67 -3.32 3.34 -4 3 C-2.68 2.34 -1.36 1.68 0 1 C0 0.67 0 0.34 0 0 Z " fill="#7F8E55" transform="translate(841,380)"/>
<path d="M0 0 C1.32 0 2.64 0 4 0 C5.703 1.969 5.703 1.969 7.25 4.5 C7.771 5.335 8.292 6.171 8.828 7.031 C9.215 7.681 9.602 8.331 10 9 C4.604 11.207 4.604 11.207 1.812 10.25 C0.915 9.631 0.915 9.631 0 9 C-0.99 8.34 -1.98 7.68 -3 7 C-2.387 4.038 -1.746 2.619 0 0 Z " fill="#A6B66F" transform="translate(203,385)"/>
<path d="M0 0 C3.167 1.584 4.733 2.453 6.312 5.688 C6.539 6.451 6.766 7.214 7 8 C5.68 9.65 4.36 11.3 3 13 C2.381 12.567 1.762 12.134 1.125 11.688 C-3.066 9.425 -7.422 8.253 -12 7 C-12 6.67 -12 6.34 -12 6 C-10.583 6.142 -9.166 6.289 -7.75 6.438 C-6.567 6.559 -6.567 6.559 -5.359 6.684 C-3.176 6.976 -1.123 7.421 1 8 C0.67 5.36 0.34 2.72 0 0 Z " fill="#E9E9DD" transform="translate(199,368)"/>
<path d="M0 0 C8.687 0.068 16.955 2.615 24.25 7.312 C23.92 7.973 23.59 8.632 23.25 9.312 C21.93 8.983 20.61 8.652 19.25 8.312 C19.25 7.652 19.25 6.993 19.25 6.312 C18.239 6.209 17.229 6.106 16.188 6 C12.25 5.312 12.25 5.312 8.875 3.75 C4.475 2.005 0.911 2.027 -3.75 2.312 C-3.09 4.623 -2.43 6.933 -1.75 9.312 C-2.74 9.312 -3.73 9.312 -4.75 9.312 C-5.629 3.16 -5.629 3.16 -5.75 1.312 C-4.105 -0.332 -2.269 0.062 0 0 Z " fill="#151811" transform="translate(177.75,372.6875)"/>
<path d="M0 0 C4.634 0.38 7.883 0.871 12 3 C14.667 3.168 14.667 3.168 17 3 C17.33 4.65 17.66 6.3 18 8 C12.742 8.315 9.521 7.733 5 5 C4.34 4.34 3.68 3.68 3 3 C1.683 2.303 0.351 1.63 -1 1 C-0.67 0.67 -0.34 0.34 0 0 Z " fill="#9FB169" transform="translate(178,376)"/>
<path d="M0 0 C0.608 0.192 1.217 0.384 1.844 0.582 C0.56 2.421 -0.733 4.253 -2.031 6.082 C-2.751 7.103 -3.47 8.124 -4.211 9.176 C-4.853 9.97 -5.495 10.764 -6.156 11.582 C-6.816 11.582 -7.476 11.582 -8.156 11.582 C-8.816 12.902 -9.476 14.222 -10.156 15.582 C-11.156 13.582 -11.156 13.582 -10.555 11.34 C-5.716 -1.108 -5.716 -1.108 0 0 Z " fill="#ECECE3" transform="translate(813.15625,381.41796875)"/>
<path d="M0 0 C0.33 0.66 0.66 1.32 1 2 C1.99 1.67 2.98 1.34 4 1 C3.928 1.687 3.856 2.374 3.781 3.082 C3.688 3.983 3.596 4.884 3.5 5.812 C3.407 6.706 3.314 7.599 3.219 8.52 C2.956 11.083 2.956 11.083 3 14 C1.812 15.688 1.812 15.688 0 17 C-2.688 17.188 -2.688 17.188 -5 17 C-4.361 15.866 -3.721 14.731 -3.062 13.562 C-0.802 9.098 -0.229 4.954 0 0 Z " fill="#050604" transform="translate(800,387)"/>
<path d="M0 0 C3.717 6.81 4.283 14.371 4 22 C1.903 18.854 1.48 16.985 0.875 13.312 C0.707 12.319 0.54 11.325 0.367 10.301 C0.246 9.542 0.125 8.782 0 8 C-1.32 8.33 -2.64 8.66 -4 9 C-5 6 -5 6 -4.25 3.375 C-3 1 -3 1 0 0 Z " fill="#99A860" transform="translate(807,325)"/>
<path d="M0 0 C2.559 3.838 3.142 7.526 4.121 11.992 C4.881 15.068 4.881 15.068 6.66 17.758 C7.102 18.498 7.544 19.238 8 20 C7.67 20.66 7.34 21.32 7 22 C1.633 17.592 -0.896 11.208 -1.75 4.438 C-1.833 3.303 -1.915 2.169 -2 1 C-1.34 0.67 -0.68 0.34 0 0 Z " fill="#13150F" transform="translate(161,309)"/>
<path d="M0 0 C0.33 0 0.66 0 1 0 C1.214 8.27 1.074 15.962 -1 24 C-1.33 24 -1.66 24 -2 24 C-2.33 17.4 -2.66 10.8 -3 4 C-2.34 4 -1.68 4 -1 4 C-0.67 2.68 -0.34 1.36 0 0 Z " fill="#626949" transform="translate(811,354)"/>
<path d="M0 0 C0.99 0.495 0.99 0.495 2 1 C2 2.32 2 3.64 2 5 C2.66 5 3.32 5 4 5 C4.679 7.497 5.343 9.997 6 12.5 C6.286 13.544 6.286 13.544 6.578 14.609 C7.857 19.541 8.184 23.906 8 29 C7.34 29.33 6.68 29.66 6 30 C5.818 28.71 5.636 27.419 5.449 26.09 C5.196 24.372 4.942 22.655 4.688 20.938 C4.57 20.09 4.452 19.242 4.33 18.369 C3.73 14.387 3.066 10.809 1.395 7.129 C0 4 0 4 0 0 Z " fill="#171910" transform="translate(220,316)"/>
<path d="M0 0 C-0.309 3.109 -0.484 4.566 -2.926 6.617 C-4.107 7.24 -4.107 7.24 -5.312 7.875 C-6.092 8.306 -6.872 8.736 -7.676 9.18 C-10.287 10.101 -11.444 9.948 -14 9 C-13.031 8.423 -12.061 7.845 -11.062 7.25 C-7.895 5.371 -7.895 5.371 -7.25 2.812 C-7.168 2.214 -7.085 1.616 -7 1 C-4.537 -0.231 -2.72 -0.072 0 0 Z " fill="#A6B96E" transform="translate(839,384)"/>
<path d="M0 0 C0.99 0.495 0.99 0.495 2 1 C2 1.66 2 2.32 2 3 C2.66 3 3.32 3 4 3 C4.33 2.34 4.66 1.68 5 1 C7.293 6.897 8.345 11.666 8 18 C7.34 18 6.68 18 6 18 C5.818 17.336 5.636 16.672 5.449 15.988 C4.088 11.207 2.685 7.219 0 3 C0 2.01 0 1.02 0 0 Z " fill="#8EA064" transform="translate(187,337)"/>
<path d="M0 0 C1.457 -0.081 2.916 -0.139 4.375 -0.188 C5.187 -0.222 5.999 -0.257 6.836 -0.293 C7.55 -0.196 8.264 -0.1 9 0 C11 3 11 3 10.875 5.312 C8.861 11.499 4.987 15.146 0 19 C0 16 0 16 2.312 13.625 C3.199 12.759 4.086 11.892 5 11 C7.555 7.671 7.555 7.671 7.688 3.688 C7.461 3.131 7.234 2.574 7 2 C4.69 1.67 2.38 1.34 0 1 C0 0.67 0 0.34 0 0 Z " fill="#1E2015" transform="translate(844,380)"/>
<path d="M0 0 C-1.75 4.875 -1.75 4.875 -4 6 C-4.103 7.114 -4.206 8.228 -4.312 9.375 C-5 13 -5 13 -7.438 15 C-8.706 15.495 -8.706 15.495 -10 16 C-10.66 15.67 -11.32 15.34 -12 15 C-3.732 0 -3.732 0 0 0 Z " fill="#C2CCA2" transform="translate(826,372)"/>
<path d="M0 0 C3.3 0.66 6.6 1.32 10 2 C9.01 2.33 8.02 2.66 7 3 C5.833 4.917 5.833 4.917 5 7 C4.67 7.66 4.34 8.32 4 9 C2.68 8.67 1.36 8.34 0 8 C0.99 8 1.98 8 3 8 C0.634 5.385 -1.942 3.736 -5 2 C-4.34 1.67 -3.68 1.34 -3 1 C-2.01 1.33 -1.02 1.66 0 2 C0 1.34 0 0.68 0 0 Z " fill="#91A265" transform="translate(196,382)"/>
<path d="M0 0 C3.839 1.471 5.141 3.401 7.125 6.938 C7.623 7.813 8.12 8.688 8.633 9.59 C9.31 10.783 9.31 10.783 10 12 C10.99 13.485 10.99 13.485 12 15 C11.67 15.99 11.34 16.98 11 18 C5.975 12.679 3.101 6.585 0 0 Z " fill="#0B0C08" transform="translate(166,330)"/>
<path d="M0 0 C-1.935 0.84 -3.873 1.672 -5.812 2.5 C-7.431 3.196 -7.431 3.196 -9.082 3.906 C-12 5 -12 5 -15 5 C-15 5.66 -15 6.32 -15 7 C-20.75 10 -20.75 10 -23 10 C-23 9.34 -23 8.68 -23 8 C-6.259 -2.086 -6.259 -2.086 0 0 Z " fill="#161811" transform="translate(842,382)"/>
<path d="M0 0 C3.534 1.963 6.245 4.041 9 7 C9.33 5.02 9.66 3.04 10 1 C10.33 1 10.66 1 11 1 C12.231 6.415 12.231 6.415 11.062 9.375 C10.712 9.911 10.361 10.447 10 11 C7.202 10.614 6.179 10.199 4.25 8.062 C3 6 3 6 3 4 C2.34 4 1.68 4 1 4 C0.67 2.68 0.34 1.36 0 0 Z " fill="#E3E5D4" transform="translate(203,365)"/>
<path d="M0 0 C1.485 0.99 1.485 0.99 3 2 C3 2.66 3 3.32 3 4 C4.32 4 5.64 4 7 4 C7.33 3.01 7.66 2.02 8 1 C8.33 1.66 8.66 2.32 9 3 C8.064 5.36 7.067 7.696 6 10 C4.68 10 3.36 10 2 10 C1.01 5.05 1.01 5.05 0 0 Z " fill="#8E9C62" transform="translate(799,379)"/>
<path d="M0 0 C0.66 0.66 1.32 1.32 2 2 C1.605 4.963 0.402 7.383 -1 10 C-1.66 10 -2.32 10 -3 10 C-3.433 11.145 -3.433 11.145 -3.875 12.312 C-5 15 -5 15 -7 18 C-7.99 17.67 -8.98 17.34 -10 17 C-9.529 16.359 -9.059 15.719 -8.574 15.059 C-5.06 10.176 -2.088 5.649 0 0 Z " fill="#484C38" transform="translate(825,363)"/>
<path d="M0 0 C0.66 0.33 1.32 0.66 2 1 C0.858 4.425 -0.115 5.113 -2.875 7.312 C-6.319 10.213 -8.336 12.736 -10 17 C-10.66 15.68 -11.32 14.36 -12 13 C-10.188 11.021 -8.375 9.041 -6.562 7.062 C-6.046 6.499 -5.53 5.935 -4.998 5.354 C-1.113 1.113 -1.113 1.113 0 0 Z " fill="#22221A" transform="translate(865,295)"/>
<path d="M0 0 C3.723 1.241 5.241 3.241 8 6 C10.463 7.645 10.463 7.645 13 9 C15.5 10.5 15.5 10.5 18 12 C15.62 12.851 14.453 13.184 12.07 12.215 C7.49 9.207 3.649 6.105 0 2 C0 1.34 0 0.68 0 0 Z " fill="#0A0C07" transform="translate(174,382)"/>
<path d="M0 0 C0.33 0.99 0.66 1.98 1 3 C1.66 3.33 2.32 3.66 3 4 C2.385 4.193 1.77 4.387 1.137 4.586 C0.328 4.846 -0.48 5.107 -1.312 5.375 C-2.113 5.63 -2.914 5.885 -3.738 6.148 C-6.227 6.988 -6.227 6.988 -9 9 C-9.66 8.01 -10.32 7.02 -11 6 C-8.334 2.55 -5.088 2.06 -1 1 C-0.67 0.67 -0.34 0.34 0 0 Z " fill="#353B28" transform="translate(802,401)"/>
<path d="M0 0 C-1.133 3.4 -1.536 3.663 -4.562 5.25 C-9.103 7.418 -12.152 7.039 -17 6 C-13.872 4.355 -10.695 3.083 -7.375 1.875 C-6.413 1.522 -5.452 1.169 -4.461 0.805 C-2 0 -2 0 0 0 Z " fill="#2C2E24" transform="translate(844,398)"/>
<path d="M0 0 C-0.125 1.75 -0.125 1.75 -1 4 C-4.667 6.934 -6.231 8 -11 8 C-11 7.01 -11 6.02 -11 5 C-9.02 4.34 -7.04 3.68 -5 3 C-5 2.34 -5 1.68 -5 1 C-2 0 -2 0 0 0 Z " fill="#71804F" transform="translate(832,386)"/>
<path d="M0 0 C0.99 0.33 1.98 0.66 3 1 C3 2.32 3 3.64 3 5 C2.01 5 1.02 5 0 5 C-0.186 6.052 -0.186 6.052 -0.375 7.125 C-1.038 10.177 -1.972 13.053 -3 16 C-4.148 14.391 -4.148 14.391 -5 12 C-4.102 8.984 -4.102 8.984 -2.625 5.75 C-2.143 4.672 -1.661 3.595 -1.164 2.484 C-0.78 1.665 -0.396 0.845 0 0 Z " fill="#2D3024" transform="translate(804,321)"/>
<path d="M0 0 C-0.268 0.639 -0.536 1.279 -0.812 1.938 C-2.354 5.912 -3.676 9.949 -5 14 C-5.99 13.01 -6.98 12.02 -8 11 C-5.462 0 -5.462 0 0 0 Z " fill="#141711" transform="translate(840,330)"/>
<path d="M0 0 C-0.33 1.32 -0.66 2.64 -1 4 C-1.33 3.34 -1.66 2.68 -2 2 C-3.578 2.681 -3.578 2.681 -5.188 3.375 C-8.108 4.628 -11.043 5.835 -14 7 C-14.33 6.34 -14.66 5.68 -15 5 C-13.069 3.967 -11.13 2.949 -9.188 1.938 C-8.109 1.369 -7.03 0.801 -5.918 0.215 C-3 -1 -3 -1 0 0 Z " fill="#90A25F" transform="translate(848,391)"/>
<path d="M0 0 C0.66 0 1.32 0 2 0 C2.75 1.75 2.75 1.75 3 4 C1.312 6.25 1.312 6.25 -1 8 C-2.32 8 -3.64 8 -5 8 C-3.631 5.05 -2.122 2.475 0 0 Z " fill="#ECEDDE" transform="translate(808,394)"/>
<path d="M0 0 C3.736 1.245 4.188 2.634 6 6 C4.02 6.66 2.04 7.32 0 8 C-0.99 6.68 -1.98 5.36 -3 4 C-2.34 3.34 -1.68 2.68 -1 2 C-0.34 2.33 0.32 2.66 1 3 C0.67 2.01 0.34 1.02 0 0 Z " fill="#AFBD7C" transform="translate(207,388)"/>
<path d="M0 0 C0.99 0 1.98 0 3 0 C3.364 4.49 3.364 4.49 1.75 6.75 C-0.169 8.12 -1.691 8.602 -4 9 C-2.801 5.917 -1.523 2.937 0 0 Z " fill="#B2C477" transform="translate(841,347)"/>
<path d="M0 0 C5.809 3.485 7.564 8.988 10 15 C9.01 15.495 9.01 15.495 8 16 C6.658 13.901 5.327 11.796 4 9.688 C3.618 9.093 3.237 8.498 2.844 7.885 C0 3.34 0 3.34 0 0 Z " fill="#EBEBE2" transform="translate(182,313)"/>
<path d="M0 0 C2.5 1.062 2.5 1.062 5 3 C5.438 6.562 5.438 6.562 5 10 C4.34 10.66 3.68 11.32 3 12 C0.015 7.895 -0.295 5.023 0 0 Z " fill="#A3B375" transform="translate(217,366)"/>
<path d="M0 0 C0.33 0 0.66 0 1 0 C1.832 5.72 2.12 11.222 2 17 C1.34 16.67 0.68 16.34 0 16 C-0.449 12.91 -0.449 12.91 -0.688 9.062 C-0.774 7.795 -0.86 6.528 -0.949 5.223 C-1 2 -1 2 0 0 Z " fill="#0E100A" transform="translate(159,294)"/>
<path d="M0 0 C1.514 0.017 1.514 0.017 3.059 0.035 C4.071 0.044 5.082 0.053 6.125 0.062 C7.299 0.08 7.299 0.08 8.496 0.098 C8.166 0.758 7.836 1.418 7.496 2.098 C4.526 2.098 1.556 2.098 -1.504 2.098 C-0.844 4.408 -0.184 6.718 0.496 9.098 C-0.494 9.098 -1.484 9.098 -2.504 9.098 C-3.383 2.945 -3.383 2.945 -3.504 1.098 C-2.504 0.098 -2.504 0.098 0 0 Z " fill="#3A3D2A" transform="translate(175.50390625,372.90234375)"/>
<path d="M0 0 C2.979 2.979 4 5.803 4 10 C2 10 2 10 0.5 8.562 C0.005 8.047 -0.49 7.531 -1 7 C-1.66 6.67 -2.32 6.34 -3 6 C-3 5.01 -3 4.02 -3 3 C-2.01 3 -1.02 3 0 3 C0 2.01 0 1.02 0 0 Z " fill="#98AB67" transform="translate(187,330)"/>
<path d="M0 0 C0 0.66 0 1.32 0 2 C-0.638 2.193 -1.276 2.387 -1.934 2.586 C-3.173 2.977 -3.173 2.977 -4.438 3.375 C-5.673 3.758 -5.673 3.758 -6.934 4.148 C-9.178 4.809 -9.178 4.809 -10 7 C-11.32 6.67 -12.64 6.34 -14 6 C-10.357 1.446 -5.817 0 0 0 Z " fill="#EFF1E4" transform="translate(807,404)"/>
<path d="M0 0 C0.33 0 0.66 0 1 0 C1 4.29 1 8.58 1 13 C0.01 13 -0.98 13 -2 13 C-2.167 8.079 -2.248 4.497 0 0 Z " fill="#262622" transform="translate(228,341)"/>
<path d="M0 0 C0.33 0 0.66 0 1 0 C1.33 1.98 1.66 3.96 2 6 C2.33 6 2.66 6 3 6 C3.125 9.375 3.125 9.375 3 13 C2.34 13.66 1.68 14.32 1 15 C0 14 0 14 -0.098 10.84 C-0.08 8.908 -0.08 8.908 -0.062 6.938 C-0.053 5.647 -0.044 4.357 -0.035 3.027 C-0.024 2.028 -0.012 1.029 0 0 Z " fill="#25261C" transform="translate(795,349)"/>
<path d="M0 0 C0.33 0.99 0.66 1.98 1 3 C-0.65 4.32 -2.3 5.64 -4 7 C-4.66 5.68 -5.32 4.36 -6 3 C-3.375 0 -3.375 0 0 0 Z " fill="#F3F2EA" transform="translate(815,390)"/>
<path d="M0 0 C3 1 3 1 4.188 3.062 C4.456 3.702 4.724 4.341 5 5 C3.02 5.99 3.02 5.99 1 7 C0.01 6.34 -0.98 5.68 -2 5 C-1.34 3.35 -0.68 1.7 0 0 Z " fill="#F6F6ED" transform="translate(205,376)"/>
<path d="M0 0 C0.66 1.32 1.32 2.64 2 4 C2.66 4 3.32 4 4 4 C4 5.98 4 7.96 4 10 C3.67 9.34 3.34 8.68 3 8 C2.01 8.33 1.02 8.66 0 9 C-0.99 7.02 -1.98 5.04 -3 3 C-2.01 2.01 -1.02 1.02 0 0 Z " fill="#656C4C" transform="translate(219,372)"/>
<path d="M0 0 C0.33 0.66 0.66 1.32 1 2 C1.99 1.67 2.98 1.34 4 1 C3.25 7.75 3.25 7.75 1 10 C-0.607 6.785 -0.057 3.564 0 0 Z " fill="#10110C" transform="translate(800,387)"/>
<path d="M0 0 C0.66 0 1.32 0 2 0 C0.636 2.992 -0.949 5.29 -3.125 7.75 C-3.933 8.67 -3.933 8.67 -4.758 9.609 C-5.168 10.068 -5.578 10.527 -6 11 C-6.66 10.34 -7.32 9.68 -8 9 C-6.715 7.494 -5.422 5.995 -4.125 4.5 C-3.046 3.247 -3.046 3.247 -1.945 1.969 C-1.303 1.319 -0.661 0.669 0 0 Z " fill="#E7E7E0" transform="translate(850,309)"/>
<path d="M0 0 C0.474 0.495 0.949 0.99 1.438 1.5 C2.759 3.115 2.759 3.115 4 3 C4 5.64 4 8.28 4 11 C3.34 11 2.68 11 2 11 C0.577 7.177 -0.24 4.087 0 0 Z " fill="#61704B" transform="translate(191,344)"/>
<path d="M0 0 C3.813 3.287 5.23 6.397 7 11 C6.01 11 5.02 11 4 11 C3.329 9.544 2.663 8.085 2 6.625 C1.629 5.813 1.257 5.001 0.875 4.164 C0 2 0 2 0 0 Z " fill="#89985F" transform="translate(182,337)"/>
<path d="M0 0 C7.429 -0.286 7.429 -0.286 11 2 C9.023 2.731 7.019 3.394 5 4 C4.34 3.67 3.68 3.34 3 3 C3 2.34 3 1.68 3 1 C2.01 0.67 1.02 0.34 0 0 Z " fill="#F6F6E8" transform="translate(211,394)"/>
<path d="M0 0 C0.66 0 1.32 0 2 0 C2.99 1.98 3.98 3.96 5 6 C4.34 6.66 3.68 7.32 3 8 C2.67 7.01 2.34 6.02 2 5 C1.01 5.33 0.02 5.66 -1 6 C-1.33 5.01 -1.66 4.02 -2 3 C-1.34 3 -0.68 3 0 3 C0 2.01 0 1.02 0 0 Z " fill="#FCFCF2" transform="translate(213,372)"/>
<path d="M0 0 C0.33 0 0.66 0 1 0 C2.231 5.415 2.231 5.415 1.062 8.375 C0.712 8.911 0.361 9.447 0 10 C-0.99 10 -1.98 10 -3 10 C-3 8.68 -3 7.36 -3 6 C-2.34 6 -1.68 6 -1 6 C-0.67 4.02 -0.34 2.04 0 0 Z " fill="#EBE9DE" transform="translate(213,366)"/>
<path d="M0 0 C2.139 2.139 2.427 3.133 3 6 C2.34 6 1.68 6 1 6 C1 7.32 1 8.64 1 10 C0.34 10 -0.32 10 -1 10 C-1.125 3.375 -1.125 3.375 0 0 Z " fill="#5E6D48" transform="translate(831,351)"/>
<path d="M0 0 C0.66 0 1.32 0 2 0 C2.33 0.66 2.66 1.32 3 2 C3.66 2 4.32 2 5 2 C3.25 6.875 3.25 6.875 1 8 C0.67 5.36 0.34 2.72 0 0 Z " fill="#A0B36F" transform="translate(832,348)"/>
<path d="M0 0 C0.66 0 1.32 0 2 0 C2.866 1.43 3.718 2.869 4.562 4.312 C5.038 5.113 5.514 5.914 6.004 6.738 C7 9 7 9 6 12 C0.444 4.886 0.444 4.886 0 0 Z " fill="#B2C679" transform="translate(181,340)"/>
<path d="M0 0 C0.33 0.66 0.66 1.32 1 2 C0.223 3.945 0.223 3.945 -0.938 6.125 C-1.318 6.849 -1.698 7.574 -2.09 8.32 C-2.39 8.875 -2.691 9.429 -3 10 C-3.66 10 -4.32 10 -5 10 C-4.551 8.518 -4.09 7.039 -3.625 5.562 C-3.37 4.739 -3.115 3.915 -2.852 3.066 C-2 1 -2 1 0 0 Z " fill="#0C0D0A" transform="translate(865,323)"/>
<path d="M0 0 C3.653 1.25 4.781 1.671 7 5 C4.16 5 1.763 4.597 -1 4 C-0.67 2.68 -0.34 1.36 0 0 Z " fill="#222418" transform="translate(159,292)"/>
<path d="M0 0 C4.95 0.99 4.95 0.99 10 2 C10 2.66 10 3.32 10 4 C8.721 3.897 7.442 3.794 6.125 3.688 C5.046 3.6 5.046 3.6 3.945 3.512 C2 3 2 3 0 0 Z " fill="#1A2014" transform="translate(191,383)"/>
<path d="M0 0 C-1.75 4.875 -1.75 4.875 -4 6 C-4.66 6.99 -5.32 7.98 -6 9 C-5.39 3.508 -5.39 3.508 -3.562 1.125 C-2 0 -2 0 0 0 Z " fill="#D0DDA8" transform="translate(826,372)"/>
<path d="M0 0 C2 3 2 3 2 7 C1.34 7 0.68 7 0 7 C-0.33 7.66 -0.66 8.32 -1 9 C-1.33 6.36 -1.66 3.72 -2 1 C-1.34 0.67 -0.68 0.34 0 0 Z " fill="#272B1D" transform="translate(161,309)"/>
<path d="M0 0 C0.66 0 1.32 0 2 0 C2 0.66 2 1.32 2 2 C4.64 2 7.28 2 10 2 C8.375 3.625 8.375 3.625 6 5 C2.75 4.188 2.75 4.188 0 3 C0 2.01 0 1.02 0 0 Z " fill="#495336" transform="translate(195,379)"/>
<path d="M0 0 C1.32 0 2.64 0 4 0 C4 0.66 4 1.32 4 2 C3.34 2 2.68 2 2 2 C2 2.66 2 3.32 2 4 C2.99 4.33 3.98 4.66 5 5 C4.01 5.33 3.02 5.66 2 6 C1.01 4.35 0.02 2.7 -1 1 C-0.67 0.67 -0.34 0.34 0 0 Z " fill="#A8BC6E" transform="translate(177,381)"/>
<path d="M0 0 C0.66 0.33 1.32 0.66 2 1 C1.67 2.65 1.34 4.3 1 6 C-0.32 6.33 -1.64 6.66 -3 7 C-1.125 2.25 -1.125 2.25 0 0 Z " fill="#93A665" transform="translate(843,325)"/>
<path d="M0 0 C0.99 0.33 1.98 0.66 3 1 C2.072 2.145 2.072 2.145 1.125 3.312 C-1.056 5.996 -1.056 5.996 -3 9 C-3.75 7.312 -3.75 7.312 -4 5 C-2.062 2.25 -2.062 2.25 0 0 Z " fill="#181B13" transform="translate(857,303)"/>
<path d="M0 0 C-0.66 1.32 -1.32 2.64 -2 4 C-3.65 3.67 -5.3 3.34 -7 3 C-4.5 -0.001 -4.262 0 0 0 Z " fill="#B0C172" transform="translate(846,393)"/>
<path d="M0 0 C1.32 0 2.64 0 4 0 C3.67 0.99 3.34 1.98 3 3 C-0.062 4.188 -0.062 4.188 -3 5 C-1.125 1.125 -1.125 1.125 0 0 Z " fill="#FDFCF4" transform="translate(812,378)"/>
<path d="M0 0 C1.619 2.572 2.044 3.677 1.625 6.75 C1.419 7.493 1.212 8.235 1 9 C0.34 9 -0.32 9 -1 9 C-1.098 2.848 -1.098 2.848 -1 1 C-0.67 0.67 -0.34 0.34 0 0 Z " fill="#A6B57E" transform="translate(828,362)"/>
<path d="M0 0 C1.709 1.623 3.374 3.293 5 5 C5 5.66 5 6.32 5 7 C5.66 7.33 6.32 7.66 7 8 C6.01 8.33 5.02 8.66 4 9 C4 8.34 4 7.68 4 7 C3.34 7 2.68 7 2 7 C1.34 4.69 0.68 2.38 0 0 Z " fill="#2C3323" transform="translate(188,348)"/>
<path d="M0 0 C0.33 1.32 0.66 2.64 1 4 C-0.65 5.32 -2.3 6.64 -4 8 C-4 4.092 -2.494 2.884 0 0 Z " fill="#292C21" transform="translate(847,352)"/>
<path d="M0 0 C0.33 0 0.66 0 1 0 C1 1.98 1 3.96 1 6 C0.01 6.33 -0.98 6.66 -2 7 C-2.125 4.625 -2.125 4.625 -2 2 C-1.34 1.34 -0.68 0.68 0 0 Z " fill="#070705" transform="translate(833,340)"/>
</svg>
