<?xml version="1.0" encoding="UTF-8"?>
<!-- Generator: visioncortex VTracer 0.6.4 -->
<svg version="1.1" xmlns="http://www.w3.org/2000/svg" width="1024" height="1024">
<path d="M0 0 C337.92 0 675.84 0 1024 0 C1024 337.92 1024 675.84 1024 1024 C686.08 1024 348.16 1024 0 1024 C0 686.08 0 348.16 0 0 Z " fill="#16AFAB" transform="translate(0,0)"/>
<path d="M0 0 C1.158 0.366 2.315 0.733 3.508 1.11 C17.906 5.685 32.161 10.378 45.797 16.946 C48.238 18.114 50.696 19.241 53.156 20.367 C68.937 27.648 83.715 36.094 98 46 C98.983 46.677 98.983 46.677 99.985 47.368 C108.967 53.568 117.677 59.926 126 67 C127 67.828 128.001 68.655 129.031 69.508 C146.953 84.374 163.628 100.642 178 119 C179.056 120.294 179.056 120.294 180.133 121.613 C205.873 153.854 224.833 190.407 239 229 C239.279 229.753 239.557 230.506 239.844 231.282 C243.557 241.422 245.988 251.821 248.372 262.334 C249.042 265.178 249.781 268.001 250.52 270.828 C252.118 277.189 253.14 283.574 254.062 290.062 C254.223 291.137 254.383 292.211 254.549 293.318 C255.066 296.875 255.542 300.435 256 304 C256.09 304.698 256.181 305.395 256.274 306.114 C257.914 319.071 258.363 331.885 258.312 344.938 C258.31 346.411 258.31 346.411 258.307 347.915 C258.257 364.128 257.436 379.949 255 396 C254.751 397.736 254.751 397.736 254.496 399.507 C251.782 418.104 247.434 436.02 242 454 C241.612 455.3 241.612 455.3 241.215 456.626 C237.669 468.343 232.972 479.545 228.172 490.797 C226.606 494.487 225.175 498.163 224 502 C223.34 502 222.68 502 222 502 C221.869 503.005 221.869 503.005 221.734 504.031 C220.793 507.835 219.097 511.075 217.25 514.5 C216.857 515.234 216.463 515.968 216.058 516.725 C205.445 536.219 193.153 554.893 179 572 C177.986 573.261 176.973 574.523 175.961 575.785 C165.275 589.038 154.05 602.019 141.113 613.141 C139.533 614.531 138.015 615.992 136.531 617.484 C134.176 619.825 131.771 621.917 129.188 624 C128.227 624.775 127.267 625.549 126.277 626.348 C125.754 626.769 125.23 627.191 124.691 627.625 C122.866 629.109 121.059 630.613 119.254 632.121 C111.074 638.919 102.737 645.137 93.772 650.859 C92.098 651.937 90.445 653.048 88.793 654.16 C78.567 660.974 67.752 666.677 56.909 672.44 C53.969 674.017 51.051 675.63 48.133 677.246 C44.509 679.226 40.957 680.978 37.062 682.375 C33.232 683.781 29.434 685.221 25.676 686.809 C11.764 692.649 -2.453 697.025 -17 701 C-17.93 701.254 -18.859 701.508 -19.817 701.77 C-34.657 705.743 -49.756 708.174 -65 710 C-65.74 710.089 -66.479 710.178 -67.241 710.27 C-80.727 711.845 -94.07 712.287 -107.64 712.206 C-110.827 712.187 -114.014 712.185 -117.201 712.186 C-128.506 712.166 -139.729 711.902 -151 711 C-151 711.66 -151 712.32 -151 713 C-159.571 714.429 -159.571 714.429 -163 712 C-163 711.01 -163 710.02 -163 709 C-164.189 708.79 -164.189 708.79 -165.401 708.576 C-190.238 704.133 -214.286 698.169 -237.984 689.35 C-238.867 689.027 -239.75 688.704 -240.66 688.371 C-241.43 688.082 -242.199 687.792 -242.992 687.494 C-245.185 686.765 -245.185 686.765 -248 688 C-248.33 687.01 -248.66 686.02 -249 685 C-250.992 683.766 -250.992 683.766 -253.504 682.758 C-254.938 682.129 -254.938 682.129 -256.402 681.487 C-257.445 681.037 -258.488 680.588 -259.562 680.125 C-278.328 671.767 -296.155 662.153 -313.004 650.386 C-314.988 649.009 -316.988 647.661 -318.996 646.32 C-320.206 645.506 -321.416 644.691 -322.625 643.875 C-323.669 643.171 -324.713 642.467 -325.789 641.742 C-326.519 641.167 -327.248 640.592 -328 640 C-328 639.34 -328 638.68 -328 638 C-328.566 637.742 -329.132 637.484 -329.715 637.219 C-337.372 633.135 -343.839 626.438 -350.164 620.59 C-352.353 618.591 -354.565 616.643 -356.809 614.707 C-361.187 610.886 -365.332 606.86 -369.438 602.75 C-370.185 602.002 -370.932 601.254 -371.702 600.483 C-376.403 595.73 -380.792 590.912 -384.914 585.645 C-386.834 583.211 -388.833 580.867 -390.869 578.531 C-416.359 549.13 -436.529 513.643 -449.938 477.188 C-450.365 476.028 -450.792 474.869 -451.233 473.675 C-455.373 462.266 -458.834 450.712 -462 439 C-462.203 438.263 -462.406 437.526 -462.616 436.766 C-463.866 432.204 -464.985 427.62 -466 423 C-466.249 421.879 -466.249 421.879 -466.503 420.736 C-485.165 334.392 -467.882 242.4 -417.452 153.689 C-407.091 137.876 -396.111 122.384 -383.266 108.477 C-381.411 106.449 -379.615 104.392 -377.824 102.309 C-373.608 97.478 -369.105 92.958 -364.562 88.438 C-363.755 87.626 -362.947 86.815 -362.115 85.979 C-357.24 81.111 -352.257 76.451 -347 72 C-346.406 71.494 -345.812 70.988 -345.199 70.466 C-288.813 22.846 -216.731 -8.162 -143 -14 C-141.831 -14.093 -140.662 -14.186 -139.458 -14.281 C-92.569 -17.609 -44.924 -14.481 0 0 Z " fill="#67D0CD" transform="translate(619,151)"/>
<path d="M0 0 C7.713 4.808 12.869 10.303 16.582 18.609 C17.129 19.744 17.129 19.744 17.688 20.902 C20.492 29.388 19.313 40.134 15.836 48.215 C10.777 57.876 3.905 63.207 -6.293 66.984 C-16.537 70.091 -26.291 69.366 -35.797 64.355 C-45.298 58.455 -51.596 50.523 -54.418 39.609 C-55.867 29.203 -54.848 19.519 -48.43 10.957 C-44.047 5.803 -39.524 1.588 -33.418 -1.391 C-32.703 -1.753 -31.987 -2.115 -31.25 -2.488 C-21.57 -5.573 -8.981 -4.472 0 0 Z " fill="#85E9DF" transform="translate(116.41796875,893.390625)"/>
<path d="M0 0 C0.99 0.495 0.99 0.495 2 1 C4.342 8.138 5.343 15.78 6.5 23.188 C6.688 24.385 6.688 24.385 6.879 25.608 C7.518 29.737 8.121 33.867 8.68 38.008 C8.911 39.609 9.143 41.211 9.375 42.812 C9.465 43.547 9.554 44.281 9.646 45.038 C10.252 49.092 11.205 52.733 14.063 55.782 C18.79 58.754 24.753 58.962 30.188 59.688 C31.542 59.887 32.895 60.089 34.249 60.294 C36.925 60.696 39.603 61.085 42.284 61.464 C47.162 62.168 52.018 62.979 56.875 63.812 C58.289 64.049 59.703 64.285 61.117 64.52 C62.544 64.757 62.544 64.757 64 65 C64 65.66 64 66.32 64 67 C59.907 67.8 55.813 68.597 51.719 69.392 C49.57 69.811 47.421 70.232 45.272 70.654 C33.275 72.997 33.275 72.997 27.332 73.891 C26.557 74.009 25.782 74.128 24.984 74.251 C23.031 74.539 21.074 74.804 19.117 75.066 C15.142 76.257 13.509 77.711 11 81 C9.956 84.116 9.956 84.116 9.562 87.75 C9.342 89.234 9.117 90.717 8.891 92.199 C8.696 93.511 8.696 93.511 8.498 94.849 C7.524 101.01 6.362 107.139 5.233 113.273 C4.553 116.974 3.881 120.677 3.207 124.379 C2.805 126.586 2.402 128.793 2 131 C1.34 130.67 0.68 130.34 0 130 C-0.575 128.04 -0.575 128.04 -1.037 125.436 C-1.214 124.465 -1.391 123.494 -1.573 122.493 C-1.848 120.907 -1.848 120.907 -2.129 119.289 C-2.323 118.21 -2.518 117.131 -2.718 116.019 C-3.341 112.556 -3.952 109.091 -4.562 105.625 C-5.178 102.167 -5.797 98.709 -6.417 95.252 C-6.803 93.097 -7.186 90.941 -7.566 88.785 C-7.826 87.319 -7.826 87.319 -8.092 85.823 C-8.244 84.962 -8.395 84.101 -8.552 83.214 C-8.986 80.841 -8.986 80.841 -10 78 C-13.66 76.093 -17.245 75.558 -21.312 75.07 C-23.16 74.84 -23.16 74.84 -25.044 74.604 C-26.35 74.446 -27.655 74.288 -29 74.125 C-41.438 72.565 -53.723 70.548 -66 68 C-66 67.34 -66 66.68 -66 66 C-64.714 65.798 -63.428 65.597 -62.104 65.389 C-57.301 64.635 -52.498 63.878 -47.696 63.119 C-45.623 62.792 -43.551 62.466 -41.478 62.142 C-38.486 61.673 -35.495 61.2 -32.504 60.727 C-31.588 60.584 -30.672 60.441 -29.728 60.294 C-27.148 59.884 -24.574 59.444 -22 59 C-21.17 58.876 -20.341 58.751 -19.486 58.623 C-15.809 57.98 -13.518 57.415 -10.569 55.053 C-8.266 50.573 -7.635 46.104 -6.895 41.152 C-6.725 40.103 -6.555 39.055 -6.381 37.974 C-5.843 34.631 -5.327 31.284 -4.812 27.938 C-4.282 24.588 -3.747 21.239 -3.212 17.89 C-2.881 15.809 -2.554 13.726 -2.23 11.643 C-2.083 10.699 -1.936 9.754 -1.784 8.781 C-1.657 7.952 -1.529 7.124 -1.397 6.27 C-1.026 4.146 -0.552 2.083 0 0 Z " fill="#5ABCB9" transform="translate(208,154)"/>
<path d="M0 0 C0.66 0 1.32 0 2 0 C2.096 0.539 2.192 1.079 2.29 1.634 C3.296 7.297 4.302 12.959 5.308 18.622 C5.683 20.729 6.057 22.837 6.431 24.944 C6.972 27.99 7.513 31.036 8.055 34.082 C8.219 35.01 8.384 35.937 8.554 36.893 C8.873 38.689 9.194 40.485 9.518 42.28 C9.858 44.197 10.183 46.116 10.499 48.036 C10.748 49.514 10.748 49.514 11.003 51.022 C11.149 51.915 11.295 52.808 11.445 53.727 C11.894 56.204 11.894 56.204 13.902 58.562 C18.635 60.759 23.419 61.321 28.562 62 C30.803 62.325 33.042 62.653 35.281 62.984 C36.403 63.149 37.524 63.313 38.68 63.482 C43.671 64.26 48.615 65.234 53.562 66.25 C54.419 66.425 55.275 66.601 56.156 66.781 C58.105 67.183 60.053 67.591 62 68 C58.385 70.41 55.095 70.793 50.895 71.402 C49.255 71.656 47.615 71.909 45.975 72.162 C43.399 72.55 40.823 72.936 38.247 73.32 C35.753 73.695 33.261 74.079 30.77 74.465 C30.011 74.574 29.252 74.684 28.471 74.797 C22.203 75.77 15.251 76.904 11 82 C10.079 85.097 10.079 85.097 9.5 88.695 C9.379 89.356 9.258 90.017 9.133 90.698 C8.744 92.839 8.372 94.982 8 97.125 C7.738 98.585 7.475 100.046 7.21 101.506 C6.46 105.668 5.73 109.834 5 114 C4.649 115.966 4.298 117.932 3.945 119.898 C3.284 123.597 2.636 127.297 2 131 C-1.973 123.869 -2.688 115.028 -3.977 107.059 C-4.146 106.01 -4.316 104.961 -4.491 103.88 C-4.824 101.793 -5.149 99.705 -5.466 97.616 C-6.608 86.871 -6.608 86.871 -12.177 78.335 C-15.436 76.794 -18.284 76.223 -21.848 75.684 C-22.5 75.582 -23.153 75.48 -23.825 75.375 C-25.903 75.052 -27.982 74.744 -30.062 74.438 C-31.432 74.228 -32.801 74.018 -34.17 73.807 C-39.312 73.016 -44.454 72.226 -49.601 71.473 C-50.68 71.308 -51.759 71.143 -52.871 70.973 C-54.291 70.762 -54.291 70.762 -55.74 70.547 C-58 70 -58 70 -60 68 C-59.168 67.856 -59.168 67.856 -58.319 67.71 C-52.542 66.711 -46.768 65.704 -40.994 64.692 C-38.839 64.315 -36.683 63.941 -34.528 63.569 C-31.429 63.034 -28.332 62.49 -25.234 61.945 C-24.271 61.781 -23.307 61.616 -22.314 61.446 C-21.414 61.286 -20.513 61.126 -19.585 60.961 C-18.794 60.824 -18.004 60.686 -17.189 60.544 C-13.927 59.733 -11.688 59.059 -9.809 56.166 C-8.955 53.879 -8.457 51.751 -8.054 49.343 C-7.898 48.424 -7.741 47.506 -7.579 46.56 C-7.418 45.575 -7.256 44.59 -7.09 43.574 C-6.917 42.553 -6.745 41.532 -6.568 40.48 C-6.018 37.217 -5.478 33.952 -4.938 30.688 C-4.57 28.501 -4.202 26.314 -3.834 24.127 C-1.799 12.082 -1.799 12.082 0 0 Z " fill="#61D6CE" transform="translate(879,645)"/>
<path d="M0 0 C2.411 0.005 4.821 -0 7.232 -0.006 C8.783 -0.006 10.335 -0.004 11.886 -0.002 C12.597 -0.004 13.309 -0.006 14.042 -0.009 C17.715 0.009 21.114 0.257 24.687 1.13 C21.694 2.852 19.575 3.374 16.134 3.342 C14.792 3.336 14.792 3.336 13.424 3.331 C12.467 3.318 11.509 3.304 10.523 3.291 C9.534 3.285 8.546 3.28 7.527 3.275 C4.372 3.257 1.217 3.226 -1.938 3.193 C-5.101 3.165 -8.263 3.141 -11.425 3.122 C-13.393 3.109 -15.361 3.092 -17.328 3.068 C-18.216 3.062 -19.104 3.055 -20.019 3.049 C-20.802 3.04 -21.585 3.032 -22.391 3.024 C-24.398 3.008 -24.398 3.008 -26.313 4.13 C-26.643 5.12 -26.973 6.11 -27.313 7.13 C-31.933 7.46 -36.553 7.79 -41.313 8.13 C-40.983 7.47 -40.653 6.81 -40.313 6.13 C-41.014 6.275 -41.716 6.419 -42.438 6.568 C-43.387 6.753 -44.336 6.939 -45.313 7.13 C-46.767 7.44 -46.767 7.44 -48.251 7.755 C-51.313 8.13 -51.313 8.13 -54.313 7.568 C-57.954 7.037 -59.863 7.913 -63.313 9.13 C-64.789 9.306 -66.269 9.45 -67.751 9.568 C-71.005 9.862 -72.779 10.335 -75.876 11.693 C-79.051 13.021 -80.348 13.287 -83.626 13.193 C-84.843 13.172 -86.059 13.152 -87.313 13.13 C-87.973 13.79 -88.633 14.45 -89.313 15.13 C-91.313 15.13 -93.313 15.13 -95.313 15.13 C-95.973 15.79 -96.633 16.45 -97.313 17.13 C-100 18.399 -102.305 19.129 -105.251 19.568 C-108.356 19.984 -108.356 19.984 -111.036 21.544 C-115.728 23.815 -120.601 24.783 -125.657 25.97 C-129.467 27.179 -132.044 28.874 -135.313 31.13 C-137.911 32.037 -137.911 32.037 -140.376 32.63 C-144.479 33.761 -147.245 35.062 -150.313 38.13 C-150.643 38.79 -150.973 39.45 -151.313 40.13 C-152.324 40.089 -153.334 40.048 -154.376 40.005 C-158.494 40.136 -161.432 40.863 -165.313 42.13 C-165.313 42.79 -165.313 43.45 -165.313 44.13 C-166.262 44.584 -167.211 45.038 -168.188 45.505 C-171.316 46.933 -171.316 46.933 -173.313 49.13 C-174.303 49.13 -175.293 49.13 -176.313 49.13 C-176.313 49.79 -176.313 50.45 -176.313 51.13 C-177.551 51.563 -178.788 51.997 -180.063 52.443 C-183.266 53.633 -185.621 55.015 -188.313 57.13 C-188.994 57.275 -189.674 57.419 -190.376 57.568 C-193.055 58.346 -193.683 59.913 -195.313 62.13 C-196.98 63.13 -198.647 64.13 -200.313 65.13 C-202.331 66.919 -204.302 68.744 -206.251 70.607 C-208.635 72.368 -210.433 72.594 -213.313 73.13 C-215.059 74.295 -215.059 74.295 -216.563 75.818 C-219.035 78.078 -221.437 79.859 -224.313 81.568 C-230.618 85.634 -235.576 91.237 -240.79 96.572 C-243.346 99.182 -245.951 101.654 -248.751 104.005 C-252.358 107.041 -255.348 110.491 -258.423 114.056 C-260.091 115.886 -261.749 117.413 -263.688 118.943 C-266.253 121.08 -266.949 122.221 -268.313 125.13 C-270.562 127.556 -272.734 129.721 -275.438 131.63 C-277.778 133.502 -278.831 135.536 -280.313 138.13 C-281.272 139.306 -281.272 139.306 -282.251 140.505 C-284.459 143.16 -284.459 143.16 -286.188 146.63 C-288.261 150.42 -290.877 152.553 -294.313 155.13 C-293.653 155.79 -292.993 156.45 -292.313 157.13 C-293.303 157.46 -294.293 157.79 -295.313 158.13 C-295.313 158.79 -295.313 159.45 -295.313 160.13 C-295.911 160.708 -296.509 161.285 -297.126 161.88 C-299.453 164.047 -299.453 164.047 -300.751 167.005 C-302.039 169.581 -303.084 171.152 -304.938 173.255 C-307.154 175.938 -307.65 176.923 -308.313 180.13 C-309.313 181.13 -310.313 182.13 -311.313 183.13 C-312.028 185.234 -312.028 185.234 -312.313 187.13 C-312.973 187.13 -313.633 187.13 -314.313 187.13 C-314.581 187.976 -314.849 188.822 -315.126 189.693 C-317.365 196.175 -319.948 201.333 -323.911 206.919 C-326.363 210.785 -327.544 214.643 -328.313 219.13 C-328.973 219.13 -329.633 219.13 -330.313 219.13 C-329.983 220.12 -329.653 221.11 -329.313 222.13 C-330.02 223.962 -330.02 223.962 -331.126 225.943 C-332.904 229.272 -334.167 232.526 -335.313 236.13 C-336.42 238.491 -337.651 240.766 -338.876 243.068 C-340.203 245.895 -340.793 248.083 -341.313 251.13 C-341.839 252.863 -341.839 252.863 -342.376 254.63 C-343.435 257.979 -343.435 257.979 -343.313 260.943 C-343.313 261.665 -343.313 262.387 -343.313 263.13 C-343.973 263.79 -344.633 264.45 -345.313 265.13 C-346.015 266.782 -346.683 268.45 -347.313 270.13 C-347.643 270.79 -347.973 271.45 -348.313 272.13 C-348.517 273.521 -348.678 274.919 -348.813 276.318 C-348.897 277.12 -348.981 277.921 -349.067 278.748 C-349.148 279.534 -349.23 280.32 -349.313 281.13 C-349.795 285.326 -350.338 288.427 -352.313 292.13 C-352.995 294.926 -353.313 297.244 -353.313 300.13 C-354.029 307.644 -354.029 307.644 -355.352 309.908 C-356.751 313.144 -356.446 316.302 -356.313 319.755 C-356.219 322.241 -356.22 324.638 -356.313 327.13 C-356.973 327.79 -357.633 328.45 -358.313 329.13 C-358.501 331.881 -358.569 334.529 -358.544 337.279 C-358.543 338.088 -358.543 338.897 -358.542 339.73 C-358.539 341.443 -358.531 343.156 -358.519 344.87 C-358.501 347.488 -358.499 350.106 -358.499 352.724 C-358.494 354.388 -358.488 356.052 -358.481 357.716 C-358.48 358.499 -358.479 359.281 -358.478 360.087 C-358.472 364.155 -358.472 364.155 -357.777 368.143 C-357.155 370.807 -357.661 373.171 -358.047 375.847 C-358.533 380.015 -358.457 384.19 -358.438 388.38 C-358.442 389.265 -358.446 390.149 -358.45 391.06 C-358.449 391.913 -358.447 392.767 -358.446 393.646 C-358.445 394.412 -358.444 395.178 -358.443 395.967 C-358.312 398.145 -357.884 400.031 -357.313 402.13 C-357.099 403.877 -356.912 405.628 -356.751 407.38 C-356.667 408.272 -356.583 409.164 -356.497 410.083 C-356.436 410.759 -356.376 411.434 -356.313 412.13 C-357.303 412.13 -358.293 412.13 -359.313 412.13 C-359.633 409.944 -359.943 407.756 -360.251 405.568 C-360.425 404.35 -360.599 403.132 -360.778 401.876 C-362.33 389.186 -362.519 376.459 -362.501 363.693 C-362.5 362.859 -362.499 362.024 -362.498 361.165 C-362.29 275.205 -331.374 187.263 -272.579 123.607 C-270.724 121.579 -268.928 119.522 -267.137 117.439 C-262.922 112.609 -258.418 108.089 -253.876 103.568 C-253.068 102.756 -252.261 101.945 -251.428 101.109 C-246.554 96.242 -241.57 91.582 -236.313 87.13 C-235.719 86.624 -235.125 86.118 -234.513 85.596 C-169.199 30.437 -85.388 -0.23 0 0 Z " fill="#E5FAF9" transform="translate(508.313232421875,135.86962890625)"/>
<path d="M0 0 C-1.4 4.68 -4.037 7.205 -7.625 10.312 C-8.802 11.367 -9.976 12.424 -11.148 13.484 C-11.772 14.048 -12.396 14.612 -13.038 15.193 C-21.909 23.362 -30.491 31.89 -37.941 41.383 C-40.157 44.2 -42.479 46.905 -44.812 49.625 C-54.089 60.734 -62.077 72.905 -70 85 C-70.582 83.09 -70.582 83.09 -71 81 C-69.688 79.563 -69.688 79.563 -68 78 C-67.691 77.196 -67.381 76.391 -67.062 75.562 C-66 73 -66 73 -63.938 71.375 C-61.729 68.668 -61.757 67.986 -61.594 64.617 C-60.98 56.477 -59.469 48.494 -58.044 40.465 C-57.561 37.743 -57.088 35.02 -56.615 32.297 C-56.308 30.547 -56 28.797 -55.691 27.047 C-55.552 26.243 -55.412 25.438 -55.268 24.61 C-53.034 12.115 -53.034 12.115 -49.835 8.665 C-46.414 6.656 -43.555 6.026 -39.645 5.367 C-38.943 5.244 -38.241 5.122 -37.518 4.995 C-35.285 4.608 -33.049 4.241 -30.812 3.875 C-29.33 3.623 -27.847 3.369 -26.365 3.113 C-24.207 2.742 -22.049 2.372 -19.888 2.012 C-15.218 1.232 -10.597 0.32 -5.987 -0.761 C-3.741 -1.031 -2.143 -0.675 0 0 Z " fill="#26A2A3" transform="translate(271,222)"/>
<path d="M0 0 C12.527 -0.78 23.078 0.495 33 9 C32.67 9.66 32.34 10.32 32 11 C31.169 10.578 30.337 10.157 29.48 9.723 C28.394 9.175 27.307 8.627 26.188 8.062 C25.109 7.517 24.03 6.972 22.918 6.41 C14.759 2.467 3.498 2.501 -5.195 4.871 C-7.684 6.061 -9.792 7.35 -12 9 C-12.724 9.531 -13.449 10.062 -14.195 10.609 C-20.697 15.84 -24.772 21.955 -27 30 C-28.24 42.247 -26.678 52.497 -18.812 62.375 C-11.295 70.219 -2.426 73.886 8.25 74.375 C18.344 74.178 27.197 70.345 34.625 63.625 C42.773 54.619 44.748 45.71 44.363 33.824 C43.89 28.847 42.468 25.277 40 21 C39.322 19.338 38.648 17.674 38 16 C39.485 16.495 39.485 16.495 41 17 C41 17.66 41 18.32 41 19 C41.66 19 42.32 19 43 19 C43.205 19.71 43.41 20.421 43.621 21.152 C43.891 22.071 44.16 22.991 44.438 23.938 C44.704 24.854 44.971 25.771 45.246 26.715 C45.79 28.94 45.79 28.94 47 30 C48.298 39.319 48.848 46.659 44 55 C43.412 56.763 43.412 56.763 42.812 58.562 C40.197 63.523 36.256 66.453 32 70 C31.52 70.54 31.041 71.08 30.547 71.637 C28.435 73.498 26.471 73.898 23.75 74.562 C22.772 74.807 21.793 75.052 20.785 75.305 C19.866 75.534 18.947 75.764 18 76 C16.113 76.588 16.113 76.588 14.188 77.188 C8.025 78.758 3.307 77.7 -2.562 75.562 C-6.672 74.1 -10.682 72.721 -15 72 C-15.33 70.35 -15.66 68.7 -16 67 C-16.66 67 -17.32 67 -18 67 C-23 61.524 -23 61.524 -23 59 C-23.66 59 -24.32 59 -25 59 C-28 52.5 -28 52.5 -28 48 C-28.66 48 -29.32 48 -30 48 C-30.734 36.012 -30.289 26.542 -24 16 C-23.34 15.67 -22.68 15.34 -22 15 C-21.67 14.01 -21.34 13.02 -21 12 C-18.819 10.334 -16.682 8.843 -14.375 7.375 C-13.77 6.968 -13.166 6.56 -12.543 6.141 C-8.316 3.419 -5.016 2.374 0 2 C0 1.34 0 0.68 0 0 Z " fill="#2CCDC2" transform="translate(90,887)"/>
<path d="M0 0 C0.33 0 0.66 0 1 0 C1.214 6.131 0.394 11.925 -0.574 17.973 C-0.74 19.014 -0.906 20.055 -1.076 21.128 C-1.429 23.321 -1.784 25.514 -2.143 27.706 C-2.686 31.052 -3.201 34.402 -3.717 37.752 C-4.063 39.888 -4.412 42.024 -4.762 44.16 C-4.911 45.157 -5.06 46.154 -5.214 47.181 C-6.238 53.194 -7.24 57.014 -12 61 C-14.951 62.121 -17.882 62.573 -21 63 C-22.718 63.29 -24.435 63.58 -26.153 63.87 C-28.009 64.158 -29.866 64.444 -31.723 64.727 C-32.709 64.879 -33.695 65.032 -34.711 65.189 C-37.828 65.67 -40.945 66.148 -44.062 66.625 C-46.189 66.953 -48.316 67.281 -50.443 67.609 C-55.628 68.409 -60.814 69.206 -66 70 C-66 69.34 -66 68.68 -66 68 C-65.237 67.876 -64.474 67.752 -63.688 67.625 C-60.54 67.092 -57.394 66.554 -54.25 66 C-53.306 65.835 -52.363 65.67 -51.391 65.5 C-48.999 65.106 -48.999 65.106 -47 64 C-45.441 63.82 -43.877 63.68 -42.312 63.562 C-37.965 63.171 -34.143 62.351 -30 61 C-30.33 60.01 -30.66 59.02 -31 58 C-29.35 58.33 -27.7 58.66 -26 59 C-25.505 58.01 -25.505 58.01 -25 57 C-24.34 57.66 -23.68 58.32 -23 59 C-20.048 55.512 -18 51.666 -18 47 C-15.69 46.67 -13.38 46.34 -11 46 C-11.041 44.721 -11.083 43.442 -11.125 42.125 C-11.195 39.945 -11.195 39.945 -11 38 C-10.34 37.34 -9.68 36.68 -9 36 C-8.34 36.66 -7.68 37.32 -7 38 C-6.897 36.783 -6.794 35.566 -6.688 34.312 C-6.134 29.312 -5.007 24.527 -3.832 19.641 C-2.345 13.135 -1.188 6.565 0 0 Z " fill="#099496" transform="translate(207,151)"/>
<path d="M0 0 C1.207 0.031 1.207 0.031 2.438 0.062 C2.438 0.722 2.438 1.382 2.438 2.062 C15.967 2.062 29.497 2.062 43.438 2.062 C43.438 2.393 43.438 2.722 43.438 3.062 C49.546 3.907 55.096 4.095 61.211 3.219 C63.569 3.053 65.224 3.243 67.438 4.062 C67.933 5.053 67.933 5.053 68.438 6.062 C69.469 5.836 70.5 5.609 71.562 5.375 C76.01 5.016 77.629 5.91 81.438 8.062 C84.173 8.762 84.173 8.762 86.438 9.062 C86.438 9.393 86.438 9.722 86.438 10.062 C79.889 10.241 73.666 9.545 67.188 8.625 C52.016 6.497 37.179 5.864 21.875 5.875 C20.383 5.874 20.383 5.874 18.861 5.873 C3.778 5.874 -11.077 6.452 -26.096 7.875 C-29.597 8.141 -33.053 8.129 -36.562 8.062 C-36.562 7.403 -36.562 6.743 -36.562 6.062 C-35.147 5.724 -33.73 5.392 -32.312 5.062 C-31.129 4.784 -31.129 4.784 -29.922 4.5 C-27.562 4.062 -27.562 4.062 -23.562 4.062 C-23.562 3.403 -23.562 2.743 -23.562 2.062 C-22.902 2.062 -22.243 2.062 -21.562 2.062 C-21.562 2.722 -21.562 3.382 -21.562 4.062 C-15.195 4.487 -9.596 3.077 -3.562 1.062 C-2.562 0.062 -2.562 0.062 0 0 Z " fill="#0C8789" transform="translate(493.5625,130.9375)"/>
<path d="M0 0 C-0.743 0.701 -1.485 1.403 -2.25 2.125 C-5.077 4.901 -5.077 4.901 -7.062 8.188 C-9.101 11.146 -9.932 11.501 -13 13 C-14.744 14.457 -14.744 14.457 -16.383 16.152 C-17.297 17.07 -17.297 17.07 -18.23 18.006 C-18.856 18.643 -19.481 19.281 -20.125 19.938 C-20.758 20.571 -21.391 21.205 -22.043 21.857 C-24.659 24.498 -26.929 26.893 -29 30 C-29.66 30 -30.32 30 -31 30 C-31 30.66 -31 31.32 -31 32 C-32.622 33.71 -34.294 35.373 -36 37 C-36.516 37.557 -37.031 38.114 -37.562 38.688 C-39 40 -39 40 -40.906 40.867 C-43.227 42.123 -44.329 43.366 -45.938 45.438 C-48.357 48.404 -50.663 50.093 -54 52 C-54.33 52.99 -54.66 53.98 -55 55 C-56.645 55.672 -58.293 56.338 -59.953 56.973 C-63.217 58.611 -65.668 61.076 -68.301 63.574 C-70 65 -70 65 -72 65 C-72 65.66 -72 66.32 -72 67 C-73.898 68.508 -73.898 68.508 -76.375 70.125 C-77.187 70.664 -77.999 71.203 -78.836 71.758 C-81 73 -81 73 -83 73 C-82.648 70.331 -82.284 69.243 -80.207 67.465 C-79.417 66.961 -78.627 66.457 -77.812 65.938 C-73.461 63.03 -69.295 59.987 -65.188 56.75 C-64.602 56.289 -64.016 55.829 -63.412 55.354 C-58.528 51.481 -53.771 47.464 -49.087 43.353 C-45.214 40 -45.214 40 -43 40 C-42.767 39.429 -42.533 38.858 -42.293 38.27 C-40.69 35.457 -38.762 33.8 -36.312 31.688 C-28.43 24.756 -21.202 17.431 -14.77 9.117 C-14 8.13 -13.23 7.142 -12.438 6.125 C-11.735 5.199 -11.032 4.274 -10.309 3.32 C-7.417 0.414 -4.005 -2.003 0 0 Z " fill="#24C3BC" transform="translate(800,728)"/>
<path d="M0 0 C20.267 19.374 45.045 58.354 50 86 C49.67 86.66 49.34 87.32 49 88 C48.34 88 47.68 88 47 88 C46.845 86.701 46.845 86.701 46.688 85.375 C45.96 81.803 44.828 79.144 43 76 C42.01 75.505 42.01 75.505 41 75 C41.33 73.35 41.66 71.7 42 70 C41.01 70 40.02 70 39 70 C38.918 69.154 38.835 68.309 38.75 67.438 C38.093 64.426 37.476 62.867 35.938 60.312 C34 57 34 57 34 54 C33.01 54 32.02 54 31 54 C30.587 52.783 30.175 51.566 29.75 50.312 C28.382 46.609 26.524 44.046 24 41 C24 40.01 24 39.02 24 38 C23.34 38 22.68 38 22 38 C21.83 37.29 21.66 36.579 21.484 35.848 C21.242 34.929 21 34.009 20.75 33.062 C20.518 32.146 20.286 31.229 20.047 30.285 C19.701 29.531 19.356 28.777 19 28 C16.986 27.306 16.986 27.306 15 27 C14.319 25.005 13.656 23.004 13 21 C11.502 18.829 9.902 16.784 8.242 14.734 C7 13 7 13 7 11 C6.01 10.67 5.02 10.34 4 10 C4 8.68 4 7.36 4 6 C3.34 6 2.68 6 2 6 C1.34 4.02 0.68 2.04 0 0 Z " fill="#E9F9F9" transform="translate(801,277)"/>
<path d="M0 0 C0.66 0.33 1.32 0.66 2 1 C1.481 9.081 0.449 16.884 -1.188 24.812 C-1.406 25.884 -1.624 26.956 -1.85 28.06 C-5.239 44.323 -9.412 60.349 -15 76 C-15.99 75.34 -16.98 74.68 -18 74 C-17.453 70.625 -16.945 68.918 -15 66 C-14.443 63.889 -13.95 61.761 -13.5 59.625 C-12.448 54.652 -11.097 50.255 -8.875 45.688 C-7.677 42.006 -7.869 38.863 -8 35 C-7.01 34.505 -7.01 34.505 -6 34 C-3.875 26.298 -3.351 18.586 -2.789 10.645 C-2.714 9.702 -2.64 8.76 -2.562 7.789 C-2.502 6.94 -2.441 6.092 -2.379 5.217 C-2 3 -2 3 0 0 Z " fill="#EBFBFA" transform="translate(872,541)"/>
<path d="M0 0 C0.826 2.892 1 4.887 1 8 C1.66 8.33 2.32 8.66 3 9 C3.414 11.504 3.414 11.504 3.625 14.562 C3.7 15.574 3.775 16.586 3.852 17.629 C3.901 18.411 3.95 19.194 4 20 C4.66 20 5.32 20 6 20 C5.773 20.928 5.546 21.856 5.312 22.812 C5.209 23.864 5.106 24.916 5 26 C5.495 26.495 5.99 26.99 6.5 27.5 C6.995 27.995 7.49 28.49 8 29 C7.713 31.007 7.381 33.009 7 35 C7.66 35.66 8.32 36.32 9 37 C9.359 38.661 9.689 40.329 10 42 C10.33 42.763 10.66 43.526 11 44.312 C11.911 46.76 12.24 48.619 12.5 51.188 C12.608 55.014 12.608 55.014 15 57 C14.625 60.125 14.625 60.125 14 63 C12.014 60.021 11.201 57.77 10.195 54.363 C9.861 53.236 9.527 52.109 9.182 50.947 C8.833 49.748 8.484 48.548 8.125 47.312 C7.767 46.091 7.409 44.87 7.041 43.611 C-2.229 11.737 -2.229 11.737 -2 1 C-1.34 0.67 -0.68 0.34 0 0 Z " fill="#ECFAFA" transform="translate(153,557)"/>
<path d="M0 0 C0.66 0.66 1.32 1.32 2 2 C0.074 4.606 -0.998 5 -4.25 5.625 C-5.487 5.749 -6.725 5.872 -8 6 C-9.949 6.278 -9.949 6.278 -11.938 6.562 C-13.453 6.779 -13.453 6.779 -15 7 C-15.33 7.99 -15.66 8.98 -16 10 C-18.715 10.078 -21.08 9.984 -23.75 9.438 C-24.492 9.293 -25.235 9.149 -26 9 C-26.33 9.33 -26.66 9.66 -27 10 C-29.221 10.284 -31.443 10.448 -33.676 10.621 C-36.014 10.875 -36.014 10.875 -37.934 12.027 C-40.643 13.303 -42.772 13.196 -45.75 13.125 C-46.735 13.107 -47.72 13.089 -48.734 13.07 C-49.856 13.036 -49.856 13.036 -51 13 C-51 12.34 -51 11.68 -51 11 C-49.913 10.818 -49.913 10.818 -48.805 10.633 C-47.838 10.465 -46.871 10.298 -45.875 10.125 C-44.924 9.963 -43.972 9.8 -42.992 9.633 C-39.986 9.06 -39.986 9.06 -37.121 8.016 C-33.519 6.844 -29.916 6.219 -26.188 5.625 C-19.145 4.465 -12.251 2.949 -5.358 1.094 C-3.592 0.644 -1.796 0.311 0 0 Z " fill="#28C9C1" transform="translate(602,851)"/>
<path d="M0 0 C0.66 0 1.32 0 2 0 C6.225 17.829 8.394 35.703 9 54 C8.01 54 7.02 54 6 54 C5.092 49.233 4.773 44.524 4.562 39.688 C4.292 34.313 3.837 29.266 2.473 24.043 C1.733 20.846 1.502 17.62 1.219 14.355 C1.027 12.292 0.74 10.238 0.438 8.188 C0.055 5.402 -0.085 2.805 0 0 Z " fill="#E8F9F9" transform="translate(867,420)"/>
<path d="M0 0 C2.562 0.188 2.562 0.188 4.562 2.188 C4.355 4.156 4.355 4.156 3.75 6.688 C2.076 14.775 1.907 22.958 1.562 31.188 C2.552 31.518 3.543 31.847 4.562 32.188 C4.233 33.508 3.903 34.827 3.562 36.188 C1.188 36.812 1.188 36.812 -1.438 37.188 C-2.097 36.528 -2.757 35.867 -3.438 35.188 C-3.062 33.062 -3.062 33.062 -2.438 31.188 C-1.778 31.188 -1.118 31.188 -0.438 31.188 C-0.767 22.938 -1.097 14.688 -1.438 6.188 C-2.757 5.857 -4.078 5.528 -5.438 5.188 C-3.041 0.234 -3.041 0.234 0 0 Z " fill="#28C9BD" transform="translate(98.4375,906.8125)"/>
<path d="M0 0 C0 0.99 0 1.98 0 3 C-0.893 3.146 -1.786 3.292 -2.706 3.443 C-6.022 3.987 -9.337 4.534 -12.653 5.081 C-14.087 5.318 -15.522 5.554 -16.956 5.788 C-19.019 6.126 -21.082 6.467 -23.145 6.809 C-25.006 7.115 -25.006 7.115 -26.906 7.427 C-30.021 7.93 -30.021 7.93 -33 9 C-21.12 10.98 -21.12 10.98 -9 13 C-11 15 -11 15 -13.094 15.012 C-14.285 14.851 -14.285 14.851 -15.5 14.688 C-16.294 14.588 -17.088 14.489 -17.906 14.387 C-20 14 -20 14 -22 13 C-22 13.66 -22 14.32 -22 15 C-25.375 14.453 -27.082 13.945 -30 12 C-31.031 11.691 -32.062 11.381 -33.125 11.062 C-34.074 10.712 -35.023 10.361 -36 10 C-36.33 9.01 -36.66 8.02 -37 7 C-30.213 4.184 -24.311 3.631 -17 4 C-17 3.34 -17 2.68 -17 2 C-13.7 2 -10.4 2 -7 2 C-7 1.34 -7 0.68 -7 0 C-4.333 -1.333 -2.833 -0.671 0 0 Z " fill="#22BFB8" transform="translate(854,705)"/>
<path d="M0 0 C-3.929 3.368 -7.296 5.169 -12.211 6.68 C-13.008 6.93 -13.804 7.18 -14.625 7.438 C-15.38 7.663 -16.136 7.889 -16.914 8.121 C-19.08 8.878 -19.08 8.878 -20.586 10.598 C-22 12 -22 12 -25 12 C-25.99 13.485 -25.99 13.485 -27 15 C-27.557 14.814 -28.114 14.629 -28.688 14.438 C-31.429 13.919 -33.288 14.405 -36 15 C-37.666 15.037 -39.334 15.048 -41 15 C-41.33 14.34 -41.66 13.68 -42 13 C-41.016 12.743 -40.033 12.487 -39.02 12.223 C-29.259 9.565 -20.141 6.117 -10.958 1.86 C-10.11 1.475 -9.261 1.091 -8.387 0.695 C-7.636 0.345 -6.885 -0.006 -6.112 -0.367 C-3.666 -1.1 -2.379 -0.835 0 0 Z " fill="#24C8BE" transform="translate(660,833)"/>
<path d="M0 0 C5.181 1.227 8.786 3.808 13.023 6.867 C21.68 13.07 30.521 19.119 40 24 C39.67 24.66 39.34 25.32 39 26 C35.37 25.01 31.74 24.02 28 23 C28.33 22.01 28.66 21.02 29 20 C28.319 19.732 27.639 19.464 26.938 19.188 C25.968 18.796 24.999 18.404 24 18 C23.388 17.771 22.775 17.541 22.145 17.305 C20.395 16.619 18.694 15.814 17 15 C16.67 14.01 16.34 13.02 16 12 C15.01 12 14.02 12 13 12 C12.67 11.01 12.34 10.02 12 9 C10.907 8.938 9.814 8.876 8.688 8.812 C5 8 5 8 3.25 5.562 C2.837 4.717 2.425 3.871 2 3 C1.01 2.34 0.02 1.68 -1 1 C-0.67 0.67 -0.34 0.34 0 0 Z " fill="#25C5BD" transform="translate(291,792)"/>
<path d="M0 0 C-0.33 0.66 -0.66 1.32 -1 2 C1.31 2 3.62 2 6 2 C6 2.66 6 3.32 6 4 C7.32 3.34 8.64 2.68 10 2 C10 2.66 10 3.32 10 4 C11.634 4.817 13.283 5.601 14.938 6.375 C18 8 18 8 19.379 9.434 C21.399 11.385 23.487 12.442 26 13.688 C26.866 14.124 27.732 14.561 28.625 15.012 C31.033 16.192 31.033 16.192 34 16 C34 16.66 34 17.32 34 18 C34.99 18 35.98 18 37 18 C38.356 19.311 39.686 20.647 41 22 C42.64 23.043 44.301 24.056 46 25 C45.01 25.495 45.01 25.495 44 26 C42.06 24.998 40.174 23.891 38.312 22.75 C23.936 14.205 8.456 7.349 -7 1 C-3.375 -1.125 -3.375 -1.125 0 0 Z " fill="#109393" transform="translate(656,161)"/>
<path d="M0 0 C-0.33 0.66 -0.66 1.32 -1 2 C-3.028 2.651 -3.028 2.651 -5.723 3.227 C-7.227 3.562 -7.227 3.562 -8.761 3.904 C-9.851 4.142 -10.94 4.38 -12.062 4.625 C-22.448 6.977 -32.448 9.953 -42.469 13.547 C-43.415 13.881 -44.361 14.215 -45.336 14.559 C-46.167 14.861 -46.997 15.163 -47.853 15.474 C-50 16 -50 16 -53 15 C-51.399 14.327 -49.794 13.662 -48.188 13 C-47.294 12.629 -46.401 12.257 -45.48 11.875 C-43 11 -43 11 -40 11 C-39.67 10.01 -39.34 9.02 -39 8 C-35.838 6.946 -33.131 6.687 -29.812 6.438 C-28.726 6.354 -27.639 6.27 -26.52 6.184 C-25.688 6.123 -24.857 6.062 -24 6 C-24 5.34 -24 4.68 -24 4 C-15.973 -0.143 -8.93 -0.463 0 0 Z " fill="#108483" transform="translate(433,143)"/>
<path d="M0 0 C0.66 0.66 1.32 1.32 2 2 C0.625 3.5 0.625 3.5 -1 5 C-1.66 5 -2.32 5 -3 5 C-3 5.66 -3 6.32 -3 7 C-3.566 7.182 -4.132 7.364 -4.715 7.551 C-5.448 7.802 -6.182 8.054 -6.938 8.312 C-7.668 8.556 -8.399 8.8 -9.152 9.051 C-11.359 9.912 -11.359 9.912 -12 13 C-12.99 13.33 -13.98 13.66 -15 14 C-15.33 14.66 -15.66 15.32 -16 16 C-19.63 16 -23.26 16 -27 16 C-24.121 12.86 -21.363 10.919 -17.578 8.984 C-16.553 8.456 -15.529 7.927 -14.473 7.383 C-13.409 6.844 -12.346 6.305 -11.25 5.75 C-10.171 5.196 -9.092 4.641 -7.98 4.07 C-5.324 2.707 -2.664 1.35 0 0 Z " fill="#24CCC3" transform="translate(688,816)"/>
<path d="M0 0 C7.126 -0.346 13.559 0.964 20.5 2.5 C22.163 2.858 22.163 2.858 23.859 3.223 C26.575 3.808 29.288 4.4 32 5 C32 5.66 32 6.32 32 7 C33.98 7 35.96 7 38 7 C37.67 7.66 37.34 8.32 37 9 C35.02 8.67 33.04 8.34 31 8 C31 8.66 31 9.32 31 10 C32.32 10.33 33.64 10.66 35 11 C32.36 11 29.72 11 27 11 C27 9.68 27 8.36 27 7 C25.928 7.041 24.855 7.082 23.75 7.125 C20.177 7.006 19.009 6.556 16 5 C13.803 5.298 13.803 5.298 12 6 C12 5.34 12 4.68 12 4 C11.134 3.876 10.267 3.753 9.375 3.625 C6.105 3.019 3.127 2.117 0 1 C0 0.67 0 0.34 0 0 Z " fill="#25C8BF" transform="translate(417,853)"/>
<path d="M0 0 C1.207 0.031 1.207 0.031 2.438 0.062 C2.438 0.722 2.438 1.382 2.438 2.062 C15.967 2.062 29.497 2.062 43.438 2.062 C43.107 2.722 42.778 3.382 42.438 4.062 C24.947 4.062 7.457 4.062 -10.562 4.062 C-10.562 3.732 -10.562 3.403 -10.562 3.062 C-9.428 2.753 -8.294 2.444 -7.125 2.125 C0 0 0 0 0 0 Z " fill="#039A9D" transform="translate(493.5625,130.9375)"/>
<path d="M0 0 C1.65 0 3.3 0 5 0 C5.66 1.32 6.32 2.64 7 4 C6.01 4.495 6.01 4.495 5 5 C5.99 6.176 5.99 6.176 7 7.375 C9 10 9 10 9 12 C9.99 12 10.98 12 12 12 C13.65 15.3 15.3 18.6 17 22 C17.99 22 18.98 22 20 22 C24.035 25.679 24.549 29.014 24.922 34.207 C24.948 34.799 24.973 35.39 25 36 C20.939 32.373 18.246 28.032 15.312 23.5 C10.961 16.853 6.445 10.441 1.547 4.188 C0 2 0 2 0 0 Z " fill="#129696" transform="translate(799,272)"/>
<path d="M0 0 C1.848 2.772 2.321 3.827 2.816 6.941 C2.941 7.69 3.065 8.438 3.193 9.209 C3.315 9.986 3.437 10.762 3.562 11.562 C4.256 16.937 4.256 16.937 6 22 C5.979 23.155 5.959 24.31 5.938 25.5 C5.596 29.059 5.596 29.059 8 31 C8 31.66 8 32.32 8 33 C9.725 33.677 11.455 34.341 13.188 35 C14.15 35.371 15.113 35.743 16.105 36.125 C18.953 36.986 21.055 37.077 24 37 C26.347 37.616 28.685 38.274 31 39 C31 39.33 31 39.66 31 40 C25.887 40.17 20.898 40.028 15.812 39.438 C14.85 39.333 13.887 39.229 12.895 39.121 C8.574 37.448 6.28 35.013 4 31 C2.764 27.049 2.171 23.097 1.625 19 C1.461 17.946 1.298 16.891 1.129 15.805 C0.336 10.49 -0.198 5.372 0 0 Z " fill="#0F9698" transform="translate(214,174)"/>
<path d="M0 0 C3.884 0.566 5.758 2.338 8.562 5 C15.42 11.36 22.696 17.165 30 23 C29.67 24.32 29.34 25.64 29 27 C28.01 26.67 27.02 26.34 26 26 C25.897 25.381 25.794 24.763 25.688 24.125 C25.149 21.648 25.149 21.648 22.062 20.312 C21.052 19.879 20.041 19.446 19 19 C18.34 18.67 17.68 18.34 17 18 C17 17.01 17 16.02 17 15 C16.34 15 15.68 15 15 15 C15 14.34 15 13.68 15 13 C14.01 12.67 13.02 12.34 12 12 C12 11.34 12 10.68 12 10 C11.402 9.918 10.804 9.835 10.188 9.75 C7.399 8.794 6.721 7.32 5 5 C4.01 5 3.02 5 2 5 C1.34 3.35 0.68 1.7 0 0 Z " fill="#27C3BB" transform="translate(259,765)"/>
<path d="M0 0 C0.33 0 0.66 0 1 0 C2.217 6.366 2.186 12.652 2.185 19.105 C2.188 21.192 2.206 23.278 2.225 25.365 C2.228 27.34 2.228 27.34 2.23 29.355 C2.235 30.558 2.239 31.761 2.243 33.001 C2 36 2 36 0 39 C-0.169 37.396 -0.335 35.792 -0.5 34.188 C-0.593 33.294 -0.686 32.401 -0.781 31.48 C-1 29 -1 29 -1 26 C-1.011 24.26 -1.023 22.521 -1.035 20.781 C-1.044 18.688 -1.054 16.594 -1.062 14.5 C-1.071 13.442 -1.079 12.383 -1.088 11.293 C-1.091 10.278 -1.094 9.264 -1.098 8.219 C-1.103 7.29 -1.108 6.361 -1.114 5.404 C-1 3 -1 3 0 0 Z " fill="#E8F9F9" transform="translate(875,476)"/>
<path d="M0 0 C0.66 0 1.32 0 2 0 C2.33 1.65 2.66 3.3 3 5 C10.065 7.304 10.065 7.304 17.375 8.5 C21.082 9.011 22.292 9.582 25 12 C26.318 12.696 27.648 13.372 29 14 C25.024 15.325 23.268 14.337 19.312 13.016 C18.655 12.799 17.997 12.583 17.319 12.36 C15.21 11.665 13.105 10.958 11 10.25 C8.251 9.334 5.501 8.424 2.75 7.516 C2.086 7.296 1.422 7.076 0.738 6.849 C-4.791 5.033 -10.363 3.442 -16 2 C-16 1.67 -16 1.34 -16 1 C-10.72 1.33 -5.44 1.66 0 2 C0 1.34 0 0.68 0 0 Z " fill="#0C8E8E" transform="translate(615,144)"/>
<path d="M0 0 C0.66 0.33 1.32 0.66 2 1 C1.488 9.594 0.212 17.832 -1.562 26.25 C-1.796 27.388 -2.03 28.526 -2.271 29.699 C-2.841 32.468 -3.418 35.234 -4 38 C-5.288 35.859 -6.06 34.567 -5.793 32.041 C-5.593 31.354 -5.393 30.668 -5.188 29.961 C-3.561 23.597 -3.251 17.178 -2.789 10.645 C-2.714 9.702 -2.64 8.76 -2.562 7.789 C-2.472 6.516 -2.472 6.516 -2.379 5.217 C-2 3 -2 3 0 0 Z " fill="#E2F7F7" transform="translate(872,541)"/>
<path d="M0 0 C-1.34 4.385 -3.058 6.616 -7 9 C-9.812 8.75 -9.812 8.75 -12 8 C-12 7.34 -12 6.68 -12 6 C-12.66 6 -13.32 6 -14 6 C-14 4.333 -14 2.667 -14 1 C-12.419 0.635 -10.835 0.283 -9.25 -0.062 C-8.368 -0.26 -7.487 -0.457 -6.578 -0.66 C-4.013 -0.998 -2.429 -0.812 0 0 Z " fill="#34A5A6" transform="translate(271,222)"/>
<path d="M0 0 C1.875 0.25 1.875 0.25 4 1 C5.25 3.062 5.25 3.062 6 5 C6.66 5 7.32 5 8 5 C8.33 6.65 8.66 8.3 9 10 C9.66 10 10.32 10 11 10 C12.362 11.644 13.69 13.315 15 15 C15.866 15.846 16.733 16.691 17.625 17.562 C19.71 19.702 20.888 21.271 22 24 C22.66 24 23.32 24 24 24 C24.33 25.98 24.66 27.96 25 30 C18.202 24.863 13.415 18.426 8.298 11.699 C6.496 9.341 4.652 7.016 2.812 4.688 C0 1.124 0 1.124 0 0 Z " fill="#E9FBFA" transform="translate(216,713)"/>
<path d="M0 0 C0.99 0 1.98 0 3 0 C1.346 3.584 -0.814 6.72 -3 10 C-3.652 11.184 -4.298 12.372 -4.938 13.562 C-7.657 18.393 -11.494 21.829 -16 25 C-16.33 24.01 -16.66 23.02 -17 22 C-15.918 20.449 -15.918 20.449 -14.188 18.688 C-10.104 14.308 -6.779 9.545 -3.466 4.573 C-2.382 2.997 -1.198 1.491 0 0 Z " fill="#21BEB8" transform="translate(813,702)"/>
<path d="M0 0 C0.574 0.219 1.147 0.438 1.738 0.664 C-1.68 4.509 -4.768 6.63 -9.492 8.672 C-11.598 9.677 -11.598 9.677 -13.262 12.664 C-13.922 12.664 -14.582 12.664 -15.262 12.664 C-16.939 13.303 -18.607 13.967 -20.262 14.664 C-20.262 13.344 -20.262 12.024 -20.262 10.664 C-19.444 10.227 -19.444 10.227 -18.609 9.781 C-13.583 7.049 -8.907 4.106 -4.305 0.703 C-2.262 -0.336 -2.262 -0.336 0 0 Z " fill="#26C6BD" transform="translate(713.26171875,802.3359375)"/>
<path d="M0 0 C0.66 0.33 1.32 0.66 2 1 C-2.764 7.528 -7.649 13.897 -12.875 20.062 C-13.339 20.61 -13.803 21.157 -14.281 21.721 C-16.435 24.242 -18.604 26.707 -21 29 C-20.474 25.212 -19.619 22.828 -17 20 C-16.34 20 -15.68 20 -15 20 C-14.938 19.443 -14.876 18.886 -14.812 18.312 C-13.661 15.036 -11.518 13.334 -9 11 C-6.847 9.224 -6.847 9.224 -6.625 7 C-6 5 -6 5 -4.062 3.938 C-3.382 3.628 -2.701 3.319 -2 3 C-1.34 2.01 -0.68 1.02 0 0 Z " fill="#EAFAF9" transform="translate(806,709)"/>
<path d="M0 0 C1.65 0 3.3 0 5 0 C1.655 3.718 -2.068 6.029 -6.312 8.562 C-14.561 13.588 -22.299 19.18 -30 25 C-30.66 24.67 -31.32 24.34 -32 24 C-29.681 20.521 -27.736 19.706 -24 18 C-24 17.34 -24 16.68 -24 16 C-23.361 15.876 -22.721 15.752 -22.062 15.625 C-21.382 15.419 -20.701 15.213 -20 15 C-19.67 14.34 -19.34 13.68 -19 13 C-17.258 12.07 -17.258 12.07 -15.125 11.125 C-11.695 9.492 -10.258 8.044 -8 5 C-5.684 3.962 -3.351 2.958 -1 2 C-0.67 1.34 -0.34 0.68 0 0 Z " fill="#149192" transform="translate(317,187)"/>
<path d="M0 0 C0.66 0 1.32 0 2 0 C2 0.66 2 1.32 2 2 C3.025 1.988 4.05 1.977 5.105 1.965 C6.466 1.955 7.827 1.946 9.188 1.938 C9.861 1.929 10.535 1.921 11.229 1.912 C14.954 1.894 18.379 2.107 22 3 C22 3.33 22 3.66 22 4 C17.667 4.338 13.334 4.67 9 5 C7.169 5.143 7.169 5.143 5.301 5.289 C-0.818 5.752 -6.863 6.123 -13 6 C-13 5.34 -13 4.68 -13 4 C-11.585 3.661 -10.168 3.329 -8.75 3 C-7.567 2.722 -7.567 2.722 -6.359 2.438 C-4 2 -4 2 0 2 C0 1.34 0 0.68 0 0 Z " fill="#1F9898" transform="translate(470,133)"/>
<path d="M0 0 C1.32 0 2.64 0 4 0 C4.182 0.675 4.364 1.351 4.551 2.047 C4.802 2.939 5.054 3.831 5.312 4.75 C5.556 5.632 5.8 6.513 6.051 7.422 C7.025 10.067 8.262 11.806 10 14 C10.352 15.329 10.688 16.662 11 18 C11.66 18.66 12.32 19.32 13 20 C16.088 24.347 16.088 24.347 15.688 27.312 C15.461 27.869 15.234 28.426 15 29 C12.186 26.527 10.745 23.863 9.082 20.527 C8.55 19.463 8.019 18.399 7.471 17.303 C6.923 16.192 6.376 15.082 5.812 13.938 C5.254 12.823 4.695 11.709 4.119 10.561 C0 2.267 0 2.267 0 0 Z " fill="#EFFCFC" transform="translate(176,644)"/>
<path d="M0 0 C2.475 0.99 2.475 0.99 5 2 C5 2.66 5 3.32 5 4 C5.66 4 6.32 4 7 4 C7.205 4.771 7.41 5.542 7.621 6.336 C7.891 7.339 8.16 8.342 8.438 9.375 C8.704 10.373 8.971 11.37 9.246 12.398 C9.902 14.954 9.902 14.954 11 17 C11.99 17.33 12.98 17.66 14 18 C14.103 18.866 14.206 19.733 14.312 20.625 C14.858 24.073 14.858 24.073 16.625 27.188 C18 30 18 30 17 33 C16.698 32.416 16.396 31.832 16.085 31.231 C14.685 28.527 13.28 25.826 11.875 23.125 C11.401 22.207 10.926 21.289 10.438 20.344 C7.525 14.756 4.451 9.333 1.106 3.992 C0 2 0 2 0 0 Z " fill="#0F9998" transform="translate(824,308)"/>
<path d="M0 0 C3.555 0.563 4.936 1.674 7.188 4.438 C9.926 7.723 12.73 10.913 15.625 14.062 C19.072 17.874 22.13 21.741 25 26 C22.379 26 20.491 25.687 18 25 C18 23.68 18 22.36 18 21 C16.751 19.417 16.751 19.417 15 18 C12.075 15.169 9.418 12.281 7 9 C7 8.34 7 7.68 7 7 C6.01 7 5.02 7 4 7 C3.567 6.041 3.567 6.041 3.125 5.062 C2.172 2.848 2.172 2.848 0 2 C0 1.34 0 0.68 0 0 Z " fill="#E8F8F8" transform="translate(774,247)"/>
<path d="M0 0 C3.817 1.28 7.627 2.576 11.438 3.875 C12.526 4.24 13.615 4.605 14.736 4.98 C16.288 5.512 16.288 5.512 17.871 6.055 C18.829 6.379 19.788 6.704 20.775 7.039 C23 8 23 8 24 10 C22.542 10.054 21.084 10.093 19.625 10.125 C18.813 10.148 18.001 10.171 17.164 10.195 C15 10 15 10 13 8 C10.294 6.647 8.708 5.885 5.688 6.375 C5.131 6.581 4.574 6.788 4 7 C3.34 6.01 2.68 5.02 2 4 C-0.05 2.808 -0.05 2.808 -2 2 C-1.34 1.34 -0.68 0.68 0 0 Z " fill="#27C6BD" transform="translate(377,838)"/>
<path d="M0 0 C0.33 0 0.66 0 1 0 C1.25 1.434 1.474 2.873 1.688 4.312 C1.815 5.113 1.943 5.914 2.074 6.738 C2 9 2 9 0.645 10.793 C-1 12 -1 12 -3 12 C-3 13.65 -3 15.3 -3 17 C-3.619 17.289 -4.237 17.577 -4.875 17.875 C-7.133 18.937 -7.133 18.937 -9 21 C-8.236 14.736 -6.615 9.414 -2 5 C-0.81 2.401 -0.81 2.401 0 0 Z " fill="#1BBEB9" transform="translate(852,632)"/>
<path d="M0 0 C1.345 4.034 0.215 5.222 -1.641 8.988 C-2.217 10.17 -2.793 11.351 -3.387 12.568 C-4.008 13.817 -4.629 15.065 -5.25 16.312 C-5.856 17.548 -6.462 18.785 -7.066 20.021 C-9.682 25.362 -12.338 30.682 -15 36 C-15.33 35.34 -15.66 34.68 -16 34 C-14.617 30.673 -13.113 27.443 -11.537 24.205 C-9.365 19.524 -8.614 16.162 -9 11 C-8.34 11 -7.68 11 -7 11 C-6.67 9.68 -6.34 8.36 -6 7 C-5.34 7.33 -4.68 7.66 -4 8 C-3.34 6.02 -2.68 4.04 -2 2 C-1.34 2 -0.68 2 0 2 C0 1.34 0 0.68 0 0 Z " fill="#139897" transform="translate(188,325)"/>
<path d="M0 0 C-2.291 2.588 -4.404 3.793 -7.598 5.078 C-8.481 5.434 -9.365 5.79 -10.275 6.156 C-11.195 6.517 -12.115 6.878 -13.062 7.25 C-14.448 7.815 -14.448 7.815 -15.861 8.391 C-16.744 8.741 -17.626 9.092 -18.535 9.453 C-19.343 9.774 -20.152 10.096 -20.985 10.427 C-23 11 -23 11 -25 10 C-24.67 9.34 -24.34 8.68 -24 8 C-23.01 8 -22.02 8 -21 8 C-20.67 6.68 -20.34 5.36 -20 4 C-19.336 3.879 -18.672 3.758 -17.988 3.633 C-12.49 2.607 -12.49 2.607 -7.188 0.875 C-4.663 -0.135 -2.694 -0.154 0 0 Z " fill="#128D8E" transform="translate(379,159)"/>
<path d="M0 0 C0.103 0.619 0.206 1.238 0.312 1.875 C0.875 4.365 0.875 4.365 4 6 C2.722 9.45 1.239 12.381 -0.82 15.426 C-1.623 16.62 -1.623 16.62 -2.441 17.838 C-2.997 18.655 -3.553 19.471 -4.125 20.312 C-4.688 21.148 -5.252 21.984 -5.832 22.846 C-7.217 24.9 -8.607 26.951 -10 29 C-10.582 27.09 -10.582 27.09 -11 25 C-9.688 23.562 -9.688 23.562 -8 22 C-7.691 21.196 -7.381 20.391 -7.062 19.562 C-6 17 -6 17 -3.938 15.375 C-1.157 11.967 -1.377 8.759 -1.176 4.461 C-1 2 -1 2 0 0 Z " fill="#219C9C" transform="translate(211,278)"/>
<path d="M0 0 C-0.731 0.378 -1.462 0.756 -2.216 1.146 C-5.54 2.866 -8.864 4.589 -12.188 6.312 C-13.338 6.907 -14.488 7.502 -15.674 8.115 C-16.786 8.692 -17.897 9.269 -19.043 9.863 C-20.575 10.657 -20.575 10.657 -22.137 11.466 C-25.023 12.965 -25.023 12.965 -27.747 14.759 C-28.491 15.168 -29.234 15.578 -30 16 C-30.66 15.67 -31.32 15.34 -32 15 C-28.25 12 -28.25 12 -26 12 C-25.67 11.01 -25.34 10.02 -25 9 C-23.667 8.667 -22.333 8.333 -21 8 C-20.67 7.01 -20.34 6.02 -20 5 C-18.215 4.41 -18.215 4.41 -15.938 4.062 C-11.694 3.278 -8.441 1.87 -4.727 -0.293 C-3 -1 -3 -1 0 0 Z " fill="#118D8D" transform="translate(354,171)"/>
<path d="M0 0 C0.33 0.66 0.66 1.32 1 2 C-0.254 4.581 -1.563 7.023 -3 9.5 C-3.409 10.217 -3.818 10.933 -4.24 11.672 C-7.518 17.34 -11.078 22.754 -15 28 C-15.33 26.68 -15.66 25.36 -16 24 C-15.34 24 -14.68 24 -14 24 C-13.753 23.299 -13.505 22.597 -13.25 21.875 C-12 19 -12 19 -9.938 15.938 C-8.232 13.352 -7.586 11.928 -7 9 C-5.514 5.162 -2.958 2.802 0 0 Z " fill="#E8FAF9" transform="translate(833,667)"/>
<path d="M0 0 C0.433 0.454 0.866 0.908 1.312 1.375 C3.108 3.2 3.108 3.2 6 5 C5.474 5.866 5.474 5.866 4.938 6.75 C3.851 9.358 4.069 10.394 5 13 C5.66 13 6.32 13 7 13 C7.11 13.566 7.219 14.132 7.332 14.715 C7.491 15.448 7.649 16.182 7.812 16.938 C7.963 17.668 8.114 18.399 8.27 19.152 C8.511 19.762 8.752 20.372 9 21 C9.99 21.33 10.98 21.66 12 22 C13.37 25.197 12.825 27.699 12 31 C8.057 27.057 6.463 21.139 4.312 16.062 C3.526 14.254 3.526 14.254 2.725 12.408 C2.234 11.254 1.744 10.099 1.238 8.91 C0.558 7.319 0.558 7.319 -0.135 5.696 C-1 3 -1 3 0 0 Z " fill="#149998" transform="translate(843,340)"/>
<path d="M0 0 C0.66 0 1.32 0 2 0 C0.506 5.825 -2.577 10.162 -6 15 C-6.744 16.056 -6.744 16.056 -7.504 17.133 C-8.661 18.761 -9.829 20.382 -11 22 C-11.99 21.67 -12.98 21.34 -14 21 C-5.974 7.577 -5.974 7.577 -1 2 C-0.67 1.34 -0.34 0.68 0 0 Z " fill="#20BDB7" transform="translate(834,670)"/>
<path d="M0 0 C1.32 6.27 2.64 12.54 4 19 C3.01 19.33 2.02 19.66 1 20 C1 18.68 1 17.36 1 16 C0.01 15.67 -0.98 15.34 -2 15 C-3.206 10.328 -3.094 5.785 -3 1 C-1 0 -1 0 0 0 Z " fill="#21B8B4" transform="translate(155,577)"/>
<path d="M0 0 C8.62 5.31 15.898 11.816 23 19 C22.34 20.32 21.68 21.64 21 23 C19 20 19 20 19 17 C18.34 17 17.68 17 17 17 C17 16.34 17 15.68 17 15 C15.948 14.969 15.948 14.969 14.875 14.938 C11.155 13.724 9.927 11.786 7.559 8.777 C6.017 7.02 4.614 5.953 2.625 4.75 C1.759 4.173 0.893 3.595 0 3 C0 2.01 0 1.02 0 0 Z " fill="#ECFAFA" transform="translate(733,209)"/>
<path d="M0 0 C0.99 0.33 1.98 0.66 3 1 C5.84 7.67 7.434 14.79 8 22 C7.01 22.33 6.02 22.66 5 23 C3.279 17.014 1.744 11.199 1 5 C0.68 3.331 0.353 1.663 0 0 Z " fill="#D8F5F4" transform="translate(860,396)"/>
<path d="M0 0 C0.66 0 1.32 0 2 0 C2.186 0.959 2.186 0.959 2.375 1.938 C2.581 2.618 2.787 3.299 3 4 C3.66 4.33 4.32 4.66 5 5 C5.781 6.926 5.781 6.926 6.5 9.312 C7.242 11.751 7.955 13.915 9.156 16.168 C9.435 16.773 9.713 17.377 10 18 C9.67 18.66 9.34 19.32 9 20 C9.66 20 10.32 20 11 20 C10.67 20.99 10.34 21.98 10 23 C9.34 23 8.68 23 8 23 C6.658 19.733 5.328 16.461 4 13.188 C3.618 12.259 3.237 11.33 2.844 10.373 C2.483 9.48 2.122 8.588 1.75 7.668 C1.415 6.846 1.08 6.024 0.734 5.177 C0 3 0 3 0 0 Z " fill="#EDFCFB" transform="translate(167,620)"/>
<path d="M0 0 C0.99 0.33 1.98 0.66 3 1 C2.546 1.969 2.092 2.939 1.625 3.938 C0.38 6.798 -0.361 9.499 -0.938 12.562 C-1.798 16.855 -3.343 19.545 -6 23 C-7.629 19.743 -6.116 16.565 -5.25 13.188 C-4.995 12.119 -4.995 12.119 -4.734 11.029 C-3.694 6.894 -2.438 3.566 0 0 Z " fill="#1DB5B0" transform="translate(862,603)"/>
<path d="M0 0 C4.714 0.65 8.577 2.516 12.812 4.562 C13.505 4.892 14.198 5.221 14.912 5.561 C16.61 6.369 18.306 7.184 20 8 C19.67 8.66 19.34 9.32 19 10 C17.907 9.835 16.814 9.67 15.688 9.5 C12.125 8.933 12.125 8.933 9 9 C7 8 7 8 6 6 C5.01 6 4.02 6 3 6 C3 4.68 3 3.36 3 2 C2.01 2 1.02 2 0 2 C0 1.34 0 0.68 0 0 Z " fill="#24C6BE" transform="translate(341,823)"/>
<path d="M0 0 C4.738 1.443 8.989 3.372 13.375 5.625 C14.016 5.95 14.656 6.275 15.316 6.609 C16.879 7.403 18.44 8.201 20 9 C19.34 9.66 18.68 10.32 18 11 C16.055 10.758 16.055 10.758 13.875 10.125 C13.151 9.921 12.426 9.718 11.68 9.508 C11.125 9.34 10.571 9.173 10 9 C10 8.34 10 7.68 10 7 C8.02 7.99 8.02 7.99 6 9 C5.567 8.216 5.134 7.433 4.688 6.625 C3.108 3.783 3.108 3.783 0 2 C0 1.34 0 0.68 0 0 Z " fill="#ECFBF9" transform="translate(661,167)"/>
<path d="M0 0 C4.936 1.197 7.13 4.228 10.223 7.977 C11.841 9.819 13.424 11.219 15.375 12.688 C18 15 18 15 18.875 17.812 C18.916 18.534 18.957 19.256 19 20 C14.286 16.143 9.892 12.028 5.562 7.75 C5.018 7.219 4.474 6.687 3.913 6.14 C2.569 4.799 1.279 3.403 0 2 C0 1.34 0 0.68 0 0 Z " fill="#E7FBFA" transform="translate(244,746)"/>
<path d="M0 0 C0 0.33 0 0.66 0 1 C-3.63 1.33 -7.26 1.66 -11 2 C-11 2.66 -11 3.32 -11 4 C-10.34 4 -9.68 4 -9 4 C-9 4.66 -9 5.32 -9 6 C-11.292 5.886 -13.584 5.759 -15.875 5.625 C-17.151 5.555 -18.427 5.486 -19.742 5.414 C-23 5 -23 5 -25 3 C-22.147 2.493 -19.293 1.994 -16.438 1.5 C-15.638 1.357 -14.838 1.214 -14.014 1.066 C-9.265 0.252 -4.818 -0.155 0 0 Z " fill="#65DCD5" transform="translate(844,710)"/>
<path d="M0 0 C0.33 1.32 0.66 2.64 1 4 C1.66 4 2.32 4 3 4 C3 4.66 3 5.32 3 6 C3.66 6 4.32 6 5 6 C5 4.35 5 2.7 5 1 C5.33 1 5.66 1 6 1 C5.858 3.063 5.711 5.125 5.562 7.188 C5.481 8.336 5.4 9.485 5.316 10.668 C5.046 13.516 4.625 16.212 4 19 C3.34 18.67 2.68 18.34 2 18 C0.348 12.107 -0.271 6.097 0 0 Z " fill="#66C6C5" transform="translate(206,266)"/>
<path d="M0 0 C3 2 3 2 3.708 4.135 C3.86 5.002 4.011 5.869 4.168 6.762 C4.339 7.716 4.51 8.671 4.686 9.654 C4.851 10.655 5.017 11.656 5.188 12.688 C5.365 13.669 5.542 14.651 5.725 15.662 C6.625 20.847 7.213 25.739 7 31 C2.945 23.759 2.736 17.121 3 9 C2.01 8.67 1.02 8.34 0 8 C0 5.36 0 2.72 0 0 Z " fill="#0E9495" transform="translate(197,233)"/>
<path d="M0 0 C0 0.33 0 0.66 0 1 C-20.295 4.465 -20.295 4.465 -41 8 C-41.33 7.34 -41.66 6.68 -42 6 C-41.237 5.876 -40.474 5.752 -39.688 5.625 C-36.54 5.092 -33.394 4.554 -30.25 4 C-29.306 3.835 -28.363 3.67 -27.391 3.5 C-24.999 3.106 -24.999 3.106 -23 2 C-21.421 1.796 -19.836 1.635 -18.25 1.5 C-15.394 1.242 -12.639 0.936 -9.812 0.438 C-6.512 -0.076 -3.334 -0.067 0 0 Z " fill="#058C8D" transform="translate(183,213)"/>
<path d="M0 0 C0.33 0 0.66 0 1 0 C1.14 5.119 0.647 9.89 -0.312 14.902 C-0.446 15.625 -0.579 16.347 -0.716 17.092 C-1.138 19.375 -1.569 21.656 -2 23.938 C-2.29 25.495 -2.579 27.053 -2.867 28.611 C-3.572 32.409 -4.284 36.205 -5 40 C-5.33 40 -5.66 40 -6 40 C-6.389 32.812 -5.63 26.538 -3.867 19.57 C-2.87 15.464 -2.075 11.342 -1.312 7.188 C-1.181 6.475 -1.05 5.763 -0.915 5.029 C-0.608 3.353 -0.303 1.676 0 0 Z " fill="#078B8D" transform="translate(207,151)"/>
<path d="M0 0 C0.33 0.66 0.66 1.32 1 2 C2.98 2 4.96 2 7 2 C7 2.66 7 3.32 7 4 C7.66 4 8.32 4 9 4 C9.33 3.34 9.66 2.68 10 2 C10.33 2.99 10.66 3.98 11 5 C11.99 5.33 12.98 5.66 14 6 C5.266 5.392 -3.346 4.319 -12 3 C-12 2.67 -12 2.34 -12 2 C-8.04 1.34 -4.08 0.68 0 0 Z " fill="#249FA0" transform="translate(259,213)"/>
<path d="M0 0 C1.98 0 3.96 0 6 0 C6.33 0.66 6.66 1.32 7 2 C7.99 2 8.98 2 10 2 C10 2.99 10 3.98 10 5 C10.66 5 11.32 5 12 5 C12 5.99 12 6.98 12 8 C12.722 8.248 13.444 8.495 14.188 8.75 C17.263 10.117 19.434 11.839 22 14 C22.99 14.66 23.98 15.32 25 16 C24.34 16.33 23.68 16.66 23 17 C20.479 15.272 17.958 13.542 15.438 11.812 C14.733 11.33 14.029 10.847 13.303 10.35 C11.198 8.905 9.098 7.454 7 6 C6.311 5.524 5.621 5.047 4.911 4.556 C3.255 3.397 1.625 2.202 0 1 C0 0.67 0 0.34 0 0 Z " fill="#178F8F" transform="translate(710,192)"/>
<path d="M0 0 C-0.33 0.66 -0.66 1.32 -1 2 C-3.367 2.624 -5.66 3.127 -8.062 3.562 C-8.742 3.692 -9.421 3.821 -10.121 3.954 C-14.735 4.816 -19.332 5.524 -24 6 C-24 5.34 -24 4.68 -24 4 C-15.973 -0.143 -8.93 -0.463 0 0 Z " fill="#1A9091" transform="translate(433,143)"/>
<path d="M0 0 C0.557 0.722 1.114 1.444 1.688 2.188 C3.954 5.048 3.954 5.048 6.625 7.562 C9.716 10.735 11 12.562 11 17 C10.34 17 9.68 17 9 17 C8.67 16.34 8.34 15.68 8 15 C7.01 14.67 6.02 14.34 5 14 C5 13.01 5 12.02 5 11 C4.01 11 3.02 11 2 11 C1.34 7.37 0.68 3.74 0 0 Z " fill="#28BFB8" transform="translate(195,685)"/>
<path d="M0 0 C3.709 1.687 6.328 3.938 9.316 6.66 C11.072 8.215 11.072 8.215 14 9 C14.474 9.825 14.949 10.65 15.438 11.5 C16.746 14.159 16.746 14.159 19.188 14.812 C19.786 14.874 20.384 14.936 21 15 C21.33 16.98 21.66 18.96 22 21 C16.901 16.683 11.946 12.245 7.062 7.688 C6.379 7.055 5.695 6.423 4.99 5.771 C4.345 5.17 3.7 4.569 3.035 3.949 C2.451 3.406 1.867 2.863 1.266 2.303 C0 1 0 1 0 0 Z " fill="#109192" transform="translate(754,225)"/>
<path d="M0 0 C7.343 2.046 13.978 4.136 20 9 C19.67 9.66 19.34 10.32 19 11 C18.169 10.578 17.337 10.157 16.48 9.723 C15.394 9.175 14.307 8.627 13.188 8.062 C12.109 7.517 11.03 6.972 9.918 6.41 C5.34 4.198 1.314 3.722 -3.688 3.438 C-4.389 3.394 -5.091 3.351 -5.814 3.307 C-7.543 3.201 -9.271 3.1 -11 3 C-11 2.67 -11 2.34 -11 2 C-5.555 1.505 -5.555 1.505 0 1 C0 0.67 0 0.34 0 0 Z " fill="#33CEC4" transform="translate(103,887)"/>
<path d="M0 0 C-0.33 0.66 -0.66 1.32 -1 2 C-2.96 2.257 -4.923 2.508 -6.895 2.656 C-9.042 2.89 -9.042 2.89 -10.902 4.023 C-13.629 5.293 -15.758 5.196 -18.75 5.125 C-19.735 5.107 -20.72 5.089 -21.734 5.07 C-22.856 5.036 -22.856 5.036 -24 5 C-24 4.34 -24 3.68 -24 3 C-20.939 2.494 -17.876 1.996 -14.812 1.5 C-13.948 1.357 -13.084 1.214 -12.193 1.066 C-8.095 0.407 -4.168 -0.207 0 0 Z " fill="#26D0C7" transform="translate(575,859)"/>
<path d="M0 0 C0.66 0 1.32 0 2 0 C2.625 2.312 2.625 2.312 3 5 C2.01 6.485 2.01 6.485 1 8 C1.66 8.33 2.32 8.66 3 9 C2.67 10.65 2.34 12.3 2 14 C0.02 14.33 -1.96 14.66 -4 15 C-4 12.69 -4 10.38 -4 8 C-3.34 8 -2.68 8 -2 8 C-1.34 5.36 -0.68 2.72 0 0 Z " fill="#18BAB5" transform="translate(867,587)"/>
<path d="M0 0 C6.644 -0.214 12.532 0.488 19 2 C15.473 4.351 13.971 4.214 9.812 4.125 C8.726 4.107 7.639 4.089 6.52 4.07 C5.272 4.036 5.272 4.036 4 4 C3.67 3.34 3.34 2.68 3 2 C2.01 1.34 1.02 0.68 0 0 Z " fill="#E8F8F8" transform="translate(540,137)"/>
<path d="M0 0 C-0.33 1.32 -0.66 2.64 -1 4 C-3.31 4.33 -5.62 4.66 -8 5 C-8 5.66 -8 6.32 -8 7 C-10.31 7.66 -12.62 8.32 -15 9 C-15 9.66 -15 10.32 -15 11 C-16.65 10.67 -18.3 10.34 -20 10 C-16.575 7.204 -12.819 5.26 -8.875 3.312 C-7.926 2.832 -7.926 2.832 -6.957 2.342 C-2.253 0 -2.253 0 0 0 Z " fill="#DDF4F4" transform="translate(358,169)"/>
<path d="M0 0 C0.99 0.33 1.98 0.66 3 1 C3 1.66 3 2.32 3 3 C3.66 3 4.32 3 5 3 C5.205 3.71 5.41 4.421 5.621 5.152 C5.891 6.071 6.16 6.991 6.438 7.938 C6.838 9.312 6.838 9.312 7.246 10.715 C7.79 12.94 7.79 12.94 9 14 C9.073 16.353 9.084 18.708 9.062 21.062 C9.053 22.353 9.044 23.643 9.035 24.973 C9.024 25.972 9.012 26.971 9 28 C8.67 28 8.34 28 8 28 C7.83 26.866 7.66 25.731 7.484 24.562 C6.245 16.721 5.139 9.899 1 3 C0.67 2.01 0.34 1.02 0 0 Z " fill="#27CABF" transform="translate(128,903)"/>
<path d="M0 0 C0.33 0.99 0.66 1.98 1 3 C1.99 3 2.98 3 4 3 C4.82 4.559 5.631 6.122 6.438 7.688 C6.89 8.558 7.342 9.428 7.809 10.324 C8.96 12.91 9.563 15.214 10 18 C6.877 15.071 4.51 12.031 2.188 8.438 C1.25 7.012 1.25 7.012 0.293 5.559 C-0.347 4.292 -0.347 4.292 -1 3 C-0.67 2.01 -0.34 1.02 0 0 Z " fill="#EDFCFB" transform="translate(200,686)"/>
<path d="M0 0 C0.33 0 0.66 0 1 0 C2.36 5.486 3.279 10.138 2.289 15.793 C1.794 19.573 1.983 23.363 2.062 27.168 C2.002 29.906 1.623 32.339 1 35 C0.67 35 0.34 35 0 35 C0 23.45 0 11.9 0 0 Z " fill="#F7F8F8" transform="translate(148,496)"/>
<path d="M0 0 C0.66 0 1.32 0 2 0 C3.405 6.12 4.233 11.717 4 18 C3.01 18 2.02 18 1 18 C-0.326 12.033 -0.088 6.074 0 0 Z " fill="#FAFCFA" transform="translate(872,456)"/>
<path d="M0 0 C2.97 0.495 2.97 0.495 6 1 C4.39 5.074 1.462 7.765 -1.625 10.75 C-2.141 11.257 -2.656 11.763 -3.188 12.285 C-4.454 13.528 -5.726 14.765 -7 16 C-7 15.01 -7 14.02 -7 13 C-6.216 12.278 -5.433 11.556 -4.625 10.812 C-1.265 7.212 -0.891 4.776 0 0 Z " fill="#179797" transform="translate(246,240)"/>
<path d="M0 0 C2.834 0.115 5.667 0.242 8.5 0.375 C9.291 0.406 10.083 0.437 10.898 0.469 C16.177 0.728 20.945 1.418 26 3 C26.33 3.66 26.66 4.32 27 5 C21.06 4.01 21.06 4.01 15 3 C15 3.66 15 4.32 15 5 C13.68 4.67 12.36 4.34 11 4 C11 3.34 11 2.68 11 2 C7.37 1.67 3.74 1.34 0 1 C0 0.67 0 0.34 0 0 Z " fill="#0F9394" transform="translate(169,227)"/>
<path d="M0 0 C-0.66 0 -1.32 0 -2 0 C-2.33 0.99 -2.66 1.98 -3 3 C-5.354 3.17 -7.708 3.336 -10.062 3.5 C-11.373 3.593 -12.684 3.686 -14.035 3.781 C-17.701 3.983 -21.33 4.038 -25 4 C-25 3.67 -25 3.34 -25 3 C-21.398 2.3 -17.793 1.617 -14.188 0.938 C-12.651 0.639 -12.651 0.639 -11.084 0.334 C-10.101 0.15 -9.118 -0.033 -8.105 -0.223 C-7.199 -0.395 -6.294 -0.568 -5.36 -0.746 C-3 -1 -3 -1 0 0 Z " fill="#21C3BA" transform="translate(588,856)"/>
<path d="M0 0 C1.832 0.172 1.832 0.172 4 1 C5.449 3.328 5.449 3.328 6.688 6.25 C7.104 7.204 7.52 8.158 7.949 9.141 C8.915 11.769 9.542 14.243 10 17 C9.01 17 8.02 17 7 17 C6.227 14.018 5.588 11.024 5 8 C4.01 7.67 3.02 7.34 2 7 C1.375 5.125 1.375 5.125 1 3 C0.67 2.01 0.34 1.02 0 0 Z " fill="#21BEB8" transform="translate(182,663)"/>
<path d="M0 0 C-1.936 6.205 -4.256 12.108 -7 18 C-7.33 18 -7.66 18 -8 18 C-8.089 14.168 -7.879 10.734 -7 7 C-6.01 7 -5.02 7 -4 7 C-4 5.02 -4 3.04 -4 1 C-2 0 -2 0 0 0 Z " fill="#EAFAFA" transform="translate(851,631)"/>
<path d="M0 0 C1.131 3.393 0.865 4.165 -0.215 7.449 C-0.489 8.297 -0.763 9.144 -1.045 10.018 C-1.339 10.899 -1.634 11.78 -1.938 12.688 C-2.228 13.58 -2.519 14.473 -2.818 15.393 C-3.538 17.598 -4.265 19.8 -5 22 C-5.873 18.793 -6.027 16.322 -5.688 13 C-5.609 12.154 -5.53 11.309 -5.449 10.438 C-4.994 7.968 -4.233 6.174 -3 4 C-2.34 4 -1.68 4 -1 4 C-0.67 2.68 -0.34 1.36 0 0 Z " fill="#129E9D" transform="translate(163,384)"/>
<path d="M0 0 C0.99 0.33 1.98 0.66 3 1 C2.01 2.485 2.01 2.485 1 4 C1 4.66 1 5.32 1 6 C0.01 6 -0.98 6 -2 6 C-1.965 6.615 -1.93 7.23 -1.895 7.863 C-1.867 8.672 -1.84 9.48 -1.812 10.312 C-1.76 11.513 -1.76 11.513 -1.707 12.738 C-2.062 15.479 -2.894 16.292 -5 18 C-5.425 5.891 -5.425 5.891 -1.375 1.062 C-0.694 0.537 -0.694 0.537 0 0 Z " fill="#0D9597" transform="translate(222,230)"/>
<path d="M0 0 C1.848 2.772 2.321 3.827 2.816 6.941 C2.941 7.69 3.065 8.438 3.193 9.209 C3.315 9.986 3.437 10.762 3.562 11.562 C4.256 16.937 4.256 16.937 6 22 C5.718 24.34 5.387 26.675 5 29 C4.67 29 4.34 29 4 29 C3.323 25.481 2.66 21.96 2 18.438 C1.809 17.447 1.618 16.456 1.422 15.436 C0.448 10.199 -0.239 5.326 0 0 Z " fill="#088D8F" transform="translate(214,174)"/>
<path d="M0 0 C3.748 2.051 6.424 4.239 9.25 7.438 C9.936 8.199 10.622 8.961 11.328 9.746 C12.947 11.928 13.589 13.348 14 16 C13.34 16 12.68 16 12 16 C12 15.01 12 14.02 12 13 C11.01 12.67 10.02 12.34 9 12 C7.656 10.342 6.324 8.674 5 7 C4.093 6.299 3.185 5.597 2.25 4.875 C1.136 3.947 1.136 3.947 0 3 C0 2.01 0 1.02 0 0 Z " fill="#20C0B8" transform="translate(232,736)"/>
<path d="M0 0 C-0.99 0.495 -0.99 0.495 -2 1 C-2.33 1.99 -2.66 2.98 -3 4 C-4.072 3.814 -5.145 3.629 -6.25 3.438 C-11.875 2.709 -17.388 3.392 -23 4 C-16.534 -0.311 -7.602 -0.292 0 0 Z " fill="#1F9B9C" transform="translate(249,226)"/>
<path d="M0 0 C0.99 0.33 1.98 0.66 3 1 C2.522 3.584 2.043 6.167 1.562 8.75 C1.428 9.48 1.293 10.209 1.154 10.961 C0.525 14.335 -0.143 17.676 -1 21 C-1.66 21 -2.32 21 -3 21 C-2.415 13.906 -1.368 6.984 0 0 Z " fill="#22BEB7" transform="translate(887,736)"/>
<path d="M0 0 C4.983 2.345 8.431 6.179 11 11 C11.168 13.758 11.168 13.758 11 16 C10.34 15.67 9.68 15.34 9 15 C8.691 14.01 8.381 13.02 8.062 12 C7.712 11.01 7.361 10.02 7 9 C6.01 8.67 5.02 8.34 4 8 C3.312 5.938 3.312 5.938 3 4 C2.34 4 1.68 4 1 4 C0.67 2.68 0.34 1.36 0 0 Z " fill="#23C0B9" transform="translate(219,720)"/>
<path d="M0 0 C2 3 2 3 1.625 5.5 C1.419 6.325 1.213 7.15 1 8 C1 8.99 1 9.98 1 11 C0.799 13.715 0.435 16.302 0 19 C-0.66 19.33 -1.32 19.66 -2 20 C-2.054 17.792 -2.093 15.583 -2.125 13.375 C-2.148 12.145 -2.171 10.915 -2.195 9.648 C-2.003 6.057 -1.303 3.333 0 0 Z " fill="#EFFCFB" transform="translate(154,425)"/>
<path d="M0 0 C0.66 0.66 1.32 1.32 2 2 C0.903 2.543 -0.194 3.085 -1.324 3.645 C-2.779 4.367 -4.233 5.09 -5.688 5.812 C-6.409 6.169 -7.13 6.525 -7.873 6.893 C-10.955 8.426 -13.89 9.927 -16.77 11.824 C-19 13 -19 13 -23 12 C-15.41 8.04 -7.82 4.08 0 0 Z " fill="#2BBFB8" transform="translate(688,816)"/>
<path d="M0 0 C2.554 3.175 4.374 6.481 6.188 10.125 C6.717 11.179 7.247 12.234 7.793 13.32 C9 16 9 16 9 18 C7.68 18 6.36 18 5 18 C4.876 16.732 4.876 16.732 4.75 15.438 C4.09 12.412 3.509 10.969 1.938 8.438 C0.064 5.114 -0.448 3.695 0 0 Z " fill="#DAF3F3" transform="translate(835,329)"/>
<path d="M0 0 C0.99 0.33 1.98 0.66 3 1 C2.67 1.66 2.34 2.32 2 3 C-9.22 3 -20.44 3 -32 3 C-32 2.67 -32 2.34 -32 2 C-21.44 2 -10.88 2 0 2 C0 1.34 0 0.68 0 0 Z " fill="#BCF9F7" transform="translate(524,860)"/>
<path d="M0 0 C2.503 2.938 3.469 5.179 4 9 C4.99 9 5.98 9 7 9 C6.67 10.65 6.34 12.3 6 14 C2.322 10.716 0.186 7.372 -2 3 C-1 1 -1 1 0 0 Z " fill="#E8FAFA" transform="translate(193,673)"/>
<path d="M0 0 C0.99 0.33 1.98 0.66 3 1 C2.67 6.61 2.34 12.22 2 18 C1.34 17.67 0.68 17.34 0 17 C-1.123 12.275 -1.244 7.699 0 3 C0 2.01 0 1.02 0 0 Z " fill="#EEFCFB" transform="translate(873,520)"/>
<path d="M0 0 C0.66 0 1.32 0 2 0 C2.837 2.123 3.67 4.249 4.5 6.375 C4.964 7.558 5.428 8.742 5.906 9.961 C7 13 7 13 7 15 C4.525 14.01 4.525 14.01 2 13 C1.783 11.175 1.783 11.175 1.562 9.312 C1.172 6.173 0.676 3.092 0 0 Z " fill="#E4F7F7" transform="translate(851,367)"/>
<path d="M0 0 C2.48 2.48 2.297 3.328 2.312 6.75 C2.242 11.184 1.405 14.193 -1 18 C-1.66 17.67 -2.32 17.34 -3 17 C-1.515 8.585 -1.515 8.585 0 0 Z " fill="#1FC0B7" transform="translate(883,759)"/>
<path d="M0 0 C0.99 0 1.98 0 3 0 C3.99 3.96 4.98 7.92 6 12 C4.68 11.67 3.36 11.34 2 11 C2 9.35 2 7.7 2 6 C1.34 5.67 0.68 5.34 0 5 C0 3.35 0 1.7 0 0 Z " fill="#E9F9F8" transform="translate(856,383)"/>
<path d="M0 0 C8.786 0.494 17.35 1.368 26 3 C26 3.66 26 4.32 26 5 C19.059 4.603 12.618 4.161 6 2 C4.005 1.637 2.006 1.294 0 1 C0 0.67 0 0.34 0 0 Z " fill="#69C5C4" transform="translate(240,215)"/>
<path d="M0 0 C0.846 0.289 1.691 0.577 2.562 0.875 C2.562 1.205 2.562 1.535 2.562 1.875 C-4.008 2.123 -10.007 1.199 -16.438 -0.125 C-9.824 -3.432 -7.147 -2.339 0 0 Z " fill="#088C8D" transform="translate(577.4375,139.125)"/>
<path d="M0 0 C2.733 2.172 4.729 3.858 5.555 7.336 C5.787 9.563 5.946 11.762 6 14 C1.564 10.482 0.48 6.246 -1 1 C-0.67 0.67 -0.34 0.34 0 0 Z " fill="#0E9E9E" transform="translate(818,294)"/>
<path d="M0 0 C0.99 0 1.98 0 3 0 C1.522 3.671 -0.476 5.411 -3.625 7.75 C-4.442 8.364 -5.26 8.977 -6.102 9.609 C-6.728 10.068 -7.355 10.527 -8 11 C-8.66 10.67 -9.32 10.34 -10 10 C-5.375 4.125 -5.375 4.125 -2 3 C-1.34 2.01 -0.68 1.02 0 0 Z " fill="#EBFAF9" transform="translate(736,780)"/>
<path d="M0 0 C1.32 0.33 2.64 0.66 4 1 C4 1.66 4 2.32 4 3 C7.63 3.33 11.26 3.66 15 4 C15.33 4.99 15.66 5.98 16 7 C6.319 6.79 6.319 6.79 2.375 3.5 C0 1 0 1 0 0 Z " fill="#1FBCB4" transform="translate(890,700)"/>
<path d="M0 0 C0.99 0.33 1.98 0.66 3 1 C2.627 1.447 2.255 1.895 1.871 2.355 C-1.288 6.182 -1.288 6.182 -1.812 10.938 C-1.544 11.618 -1.276 12.299 -1 13 C-2.98 13.99 -2.98 13.99 -5 15 C-4.722 14.103 -4.722 14.103 -4.438 13.188 C-3.779 10.836 -3.779 10.836 -5 8 C-4.632 4.199 -2.764 2.496 0 0 Z " fill="#199E9F" transform="translate(158,264)"/>
<path d="M0 0 C5.47 3.79 9.9 7.75 14 13 C10.593 12.716 9.312 12.351 7 9.75 C6.34 8.843 5.68 7.935 5 7 C4.092 6.113 3.185 5.226 2.25 4.312 C0 2 0 2 0 0 Z " fill="#E4F6F5" transform="translate(756,228)"/>
<path d="M0 0 C0 0.66 0 1.32 0 2 C-1.98 2 -3.96 2 -6 2 C-6.33 5.3 -6.66 8.6 -7 12 C-8.65 12.33 -10.3 12.66 -12 13 C-11.711 12.301 -11.423 11.603 -11.125 10.883 C-10.754 9.973 -10.382 9.063 -10 8.125 C-9.629 7.22 -9.257 6.315 -8.875 5.383 C-7.885 3.11 -7.885 3.11 -8 1 C-5.291 -0.354 -2.991 -0.065 0 0 Z " fill="#179B9C" transform="translate(197,197)"/>
<path d="M0 0 C0.33 0.99 0.66 1.98 1 3 C-0.234 5.343 -1.492 7.483 -2.938 9.688 C-3.324 10.294 -3.71 10.901 -4.107 11.525 C-5.062 13.023 -6.03 14.512 -7 16 C-8 14 -8 14 -7.441 11.836 C-7.151 11.024 -6.861 10.212 -6.562 9.375 C-6.275 8.558 -5.988 7.74 -5.691 6.898 C-5.463 6.272 -5.235 5.645 -5 5 C-4.34 5 -3.68 5 -3 5 C-3 4.34 -3 3.68 -3 3 C-1.5 1.375 -1.5 1.375 0 0 Z " fill="#109796" transform="translate(198,308)"/>
<path d="M0 0 C-0.33 0.66 -0.66 1.32 -1 2 C0.072 1.897 1.145 1.794 2.25 1.688 C6 2 6 2 8.438 4.5 C8.953 5.325 9.469 6.15 10 7 C5.942 6.345 2.46 5.054 -1.312 3.438 C-2.381 2.982 -3.45 2.527 -4.551 2.059 C-5.763 1.535 -5.763 1.535 -7 1 C-3.375 -1.125 -3.375 -1.125 0 0 Z " fill="#0A8C8B" transform="translate(656,161)"/>
<path d="M0 0 C0 0.66 0 1.32 0 2 C-1.423 2.124 -1.423 2.124 -2.875 2.25 C-6.105 2.651 -6.105 2.651 -7.375 5.062 C-7.581 5.702 -7.788 6.341 -8 7 C-9.32 7 -10.64 7 -12 7 C-12 5.68 -12 4.36 -12 3 C-10.376 2.497 -8.751 1.997 -7.125 1.5 C-6.22 1.222 -5.315 0.943 -4.383 0.656 C-2 0 -2 0 0 0 Z " fill="#2ECAC1" transform="translate(617,847)"/>
<path d="M0 0 C3.347 1.548 6.247 3.491 9.25 5.625 C10.142 6.257 11.034 6.888 11.953 7.539 C12.629 8.021 13.304 8.503 14 9 C13.67 9.66 13.34 10.32 13 11 C12.01 11 11.02 11 10 11 C9.938 10.072 9.938 10.072 9.875 9.125 C9.586 8.424 9.298 7.722 9 7 C8.051 6.691 7.102 6.381 6.125 6.062 C3 5 3 5 1.125 2.375 C0.754 1.591 0.383 0.808 0 0 Z " fill="#ECFAFA" transform="translate(714,196)"/>
<path d="M0 0 C0.66 0 1.32 0 2 0 C1.717 2.418 1.424 4.834 1.125 7.25 C1.046 7.932 0.968 8.614 0.887 9.316 C0.427 12.963 -0.255 15.784 -2 19 C-1.86 16.02 -1.713 13.042 -1.562 10.062 C-1.523 9.212 -1.484 8.362 -1.443 7.486 C-1.401 6.677 -1.36 5.869 -1.316 5.035 C-1.28 4.286 -1.243 3.537 -1.205 2.766 C-1 1 -1 1 0 0 Z " fill="#18A19E" transform="translate(150,433)"/>
<path d="M0 0 C0 0.33 0 0.66 0 1 C-4.763 1.953 -9.167 2.083 -14 2 C-14 1.34 -14 0.68 -14 0 C-4.59 -2.665 -4.59 -2.665 0 0 Z " fill="#0A8E8E" transform="translate(471,137)"/>
<path d="M0 0 C1.106 0.936 2.209 1.874 3.312 2.812 C3.927 3.335 4.542 3.857 5.176 4.395 C8.52 7.337 8.52 7.337 10 9 C10 9.66 10 10.32 10 11 C9.01 10.67 8.02 10.34 7 10 C7 9.34 7 8.68 7 8 C4.525 7.01 4.525 7.01 2 6 C2 5.34 2 4.68 2 4 C1.01 3.67 0.02 3.34 -1 3 C-0.67 2.01 -0.34 1.02 0 0 Z " fill="#22C0B8" transform="translate(249,753)"/>
<path d="M0 0 C0.99 0.33 1.98 0.66 3 1 C2.216 1.681 1.433 2.361 0.625 3.062 C-2.459 6.513 -3.044 8.566 -4 13 C-4.66 13 -5.32 13 -6 13 C-5.631 5.738 -5.631 5.738 -2.438 2 C-1.633 1.34 -0.829 0.68 0 0 Z " fill="#1DBCB5" transform="translate(894,722)"/>
<path d="M0 0 C0.66 0.33 1.32 0.66 2 1 C2.393 5.449 1.153 8.142 -1 12 C-1.66 11.34 -2.32 10.68 -3 10 C-2.793 7.871 -2.793 7.871 -2.188 5.438 C-1.995 4.632 -1.803 3.826 -1.605 2.996 C-1 1 -1 1 0 0 Z " fill="#EDFCFB" transform="translate(872,541)"/>
<path d="M0 0 C7.429 -0.143 7.429 -0.143 11 1 C11 1.66 11 2.32 11 3 C2.429 4.429 2.429 4.429 -1 2 C-0.67 1.34 -0.34 0.68 0 0 Z " fill="#28CFC5" transform="translate(457,861)"/>
<path d="M0 0 C1.65 0 3.3 0 5 0 C5.33 0.99 5.66 1.98 6 3 C2.313 5.458 0.357 5.311 -4 5 C-4.99 4.34 -5.98 3.68 -7 3 C-3.535 2.505 -3.535 2.505 0 2 C0 1.34 0 0.68 0 0 Z " fill="#23BFB7" transform="translate(938,712)"/>
<path d="M0 0 C2 3 2 3 2 7 C1.381 7.289 0.763 7.577 0.125 7.875 C-2.133 8.937 -2.133 8.937 -4 11 C-3.49 6.611 -2.478 3.663 0 0 Z " fill="#20B6B1" transform="translate(847,642)"/>
<path d="M0 0 C3.177 4.765 4.241 6.457 3.625 12.188 C3.514 13.274 3.403 14.361 3.289 15.48 C3.194 16.312 3.098 17.143 3 18 C2.67 18 2.34 18 2 18 C0.771 11.932 -0.276 6.201 0 0 Z " fill="#129D9B" transform="translate(872,434)"/>
<path d="M0 0 C0.66 0.33 1.32 0.66 2 1 C1.67 2.65 1.34 4.3 1 6 C-0.32 6 -1.64 6 -3 6 C-3.33 7.98 -3.66 9.96 -4 12 C-4.33 12 -4.66 12 -5 12 C-5 9.36 -5 6.72 -5 4 C-4.01 4 -3.02 4 -2 4 C-1.34 2.68 -0.68 1.36 0 0 Z " fill="#16A5A4" transform="translate(189,321)"/>
<path d="M0 0 C1.32 0.33 2.64 0.66 4 1 C4 1.66 4 2.32 4 3 C5.65 3.33 7.3 3.66 9 4 C8.67 4.99 8.34 5.98 8 7 C8.875 9.167 8.875 9.167 10 11 C5.861 7.7 2.413 4.827 0 0 Z " fill="#139898" transform="translate(776,246)"/>
<path d="M0 0 C1.06 0.007 1.06 0.007 2.141 0.014 C3.885 0.025 5.63 0.043 7.375 0.062 C7.375 0.393 7.375 0.722 7.375 1.062 C1.92 2.448 -2.992 3.302 -8.625 3.062 C-8.955 2.403 -9.285 1.743 -9.625 1.062 C-6.56 -0.47 -3.357 -0.04 0 0 Z " fill="#098D8E" transform="translate(447.625,138.9375)"/>
<path d="M0 0 C8.571 1 8.571 1 12 2 C12 2.66 12 3.32 12 4 C12.66 4.33 13.32 4.66 14 5 C12.35 5.33 10.7 5.66 9 6 C9 5.34 9 4.68 9 4 C6.03 3.01 3.06 2.02 0 1 C0 0.67 0 0.34 0 0 Z " fill="#22C8BF" transform="translate(402,848)"/>
<path d="M0 0 C0.66 0 1.32 0 2 0 C0.997 5.941 -0.309 10.202 -4 15 C-5 13 -5 13 -4.004 9.961 C-3.29 8.186 -3.29 8.186 -2.562 6.375 C-2.089 5.186 -1.616 3.998 -1.129 2.773 C-0.756 1.858 -0.384 0.943 0 0 Z " fill="#17BDB8" transform="translate(860,611)"/>
<path d="M0 0 C5.65 0.601 10.662 2.075 16 4 C15.67 4.66 15.34 5.32 15 6 C14.01 6 13.02 6 12 6 C12 5.34 12 4.68 12 4 C11.134 3.876 10.267 3.753 9.375 3.625 C6.105 3.019 3.127 2.117 0 1 C0 0.67 0 0.34 0 0 Z " fill="#26D0C7" transform="translate(417,853)"/>
<path d="M0 0 C-3.63 2.31 -7.26 4.62 -11 7 C-11.33 6.01 -11.66 5.02 -12 4 C-5.302 -1.767 -5.302 -1.767 0 0 Z " fill="#E8FBFA" transform="translate(714,801)"/>
<path d="M0 0 C0.66 0 1.32 0 2 0 C4.277 8.036 4.277 8.036 3 12 C2.34 12 1.68 12 1 12 C0.366 7.959 -0.124 4.093 0 0 Z " fill="#DAF5F5" transform="translate(867,420)"/>
<path d="M0 0 C-2.62 1.364 -5.246 2.716 -7.875 4.062 C-8.995 4.647 -8.995 4.647 -10.137 5.244 C-10.852 5.608 -11.568 5.972 -12.305 6.348 C-13.294 6.858 -13.294 6.858 -14.304 7.379 C-14.864 7.584 -15.423 7.789 -16 8 C-16.66 7.67 -17.32 7.34 -18 7 C-15.44 3.871 -12.791 3.189 -9 2 C-7.422 1.165 -7.422 1.165 -5.812 0.312 C-3 -1 -3 -1 0 0 Z " fill="#098888" transform="translate(354,171)"/>
<path d="M0 0 C1.98 0 3.96 0 6 0 C6.33 1.65 6.66 3.3 7 5 C4.03 4.505 4.03 4.505 1 4 C0.67 2.68 0.34 1.36 0 0 Z " fill="#EAFAFA" transform="translate(418,848)"/>
<path d="M0 0 C0.33 0.66 0.66 1.32 1 2 C0.004 4.383 0.004 4.383 -1.438 7.125 C-1.911 8.035 -2.384 8.945 -2.871 9.883 C-3.244 10.581 -3.616 11.28 -4 12 C-4.66 12 -5.32 12 -6 12 C-5.574 10.559 -5.134 9.122 -4.688 7.688 C-4.444 6.887 -4.2 6.086 -3.949 5.262 C-2.958 2.9 -1.919 1.661 0 0 Z " fill="#E7F8F8" transform="translate(841,651)"/>
<path d="M0 0 C6.705 -0.198 12.652 -0.308 19 2 C19 2.33 19 2.66 19 3 C12.356 3.214 6.468 2.512 0 1 C0 0.67 0 0.34 0 0 Z " fill="#0C8F91" transform="translate(226,211)"/>
<path d="M0 0 C1.627 0.282 3.251 0.576 4.875 0.875 C5.78 1.037 6.685 1.2 7.617 1.367 C10 2 10 2 12 4 C9 5 9 5 5 5 C5 4.34 5 3.68 5 3 C3.35 2.67 1.7 2.34 0 2 C0 1.34 0 0.68 0 0 Z " fill="#EEFAF9" transform="translate(619,152)"/>
<path d="M0 0 C0.99 0.33 1.98 0.66 3 1 C2.619 3.763 2.164 4.841 0.125 6.812 C-0.576 7.204 -1.278 7.596 -2 8 C-2.99 7.67 -3.98 7.34 -5 7 C-3.35 4.69 -1.7 2.38 0 0 Z " fill="#23BDB7" transform="translate(819,693)"/>
<path d="M0 0 C2.957 3.467 5.078 6.869 7 11 C5.35 11 3.7 11 2 11 C1.34 7.37 0.68 3.74 0 0 Z " fill="#1EC4BE" transform="translate(195,685)"/>
<path d="M0 0 C0.33 0.66 0.66 1.32 1 2 C-0.434 4.602 -0.434 4.602 -2.438 7.625 C-3.426 9.129 -3.426 9.129 -4.434 10.664 C-4.951 11.435 -5.467 12.206 -6 13 C-6.582 11.09 -6.582 11.09 -7 9 C-5.688 7.562 -5.688 7.562 -4 6 C-3.327 4.336 -2.659 2.67 -2 1 C-1.34 0.67 -0.68 0.34 0 0 Z " fill="#149897" transform="translate(207,294)"/>
<path d="M0 0 C1.5 1.25 1.5 1.25 3 3 C3 4.32 3 5.64 3 7 C3.99 7.33 4.98 7.66 6 8 C5.67 8.99 5.34 9.98 5 11 C2.69 8.36 0.38 5.72 -2 3 C-1.34 2.67 -0.68 2.34 0 2 C0 1.34 0 0.68 0 0 Z " fill="#0E9696" transform="translate(788,255)"/>
<path d="M0 0 C1.707 1.281 3.374 2.618 5 4 C5 4.66 5 5.32 5 6 C-0.461 5.648 -0.461 5.648 -3 5 C-4.5 2.938 -4.5 2.938 -5 1 C-2.525 1.495 -2.525 1.495 0 2 C0 1.34 0 0.68 0 0 Z " fill="#129A9C" transform="translate(181,208)"/>
<path d="M0 0 C0.99 0.33 1.98 0.66 3 1 C4.188 4.062 4.188 4.062 5 7 C4.01 7.99 3.02 8.98 2 10 C0.396 6.492 -0.22 3.856 0 0 Z " fill="#10A19F" transform="translate(863,395)"/>
<path d="M0 0 C2.147 0.281 4.293 0.575 6.438 0.875 C7.632 1.037 8.827 1.2 10.059 1.367 C11.515 1.68 11.515 1.68 13 2 C13.33 2.66 13.66 3.32 14 4 C7.07 3.505 7.07 3.505 0 3 C0 2.01 0 1.02 0 0 Z " fill="#ECFBFB" transform="translate(574,141)"/>
<path d="M0 0 C0.99 0.33 1.98 0.66 3 1 C-0.96 4.465 -0.96 4.465 -5 8 C-5.66 7.34 -6.32 6.68 -7 6 C-5.907 4.967 -4.8 3.949 -3.688 2.938 C-3.073 2.369 -2.458 1.801 -1.824 1.215 C-0.921 0.613 -0.921 0.613 0 0 Z " fill="#ECFCFB" transform="translate(753,767)"/>
<path d="M0 0 C0.99 0 1.98 0 3 0 C3.125 6.625 3.125 6.625 2 10 C1.34 10 0.68 10 0 10 C0 6.7 0 3.4 0 0 Z " fill="#F6FDFD" transform="translate(864,576)"/>
<path d="M0 0 C1.429 2.354 2.087 3.48 1.625 6.25 C1.316 7.116 1.316 7.116 1 8 C0.67 7.67 0.34 7.34 0 7 C-0.33 8.98 -0.66 10.96 -1 13 C-1.33 13 -1.66 13 -2 13 C-2.33 10.36 -2.66 7.72 -3 5 C-2.34 5 -1.68 5 -1 5 C-0.67 3.35 -0.34 1.7 0 0 Z " fill="#2AB6B1" transform="translate(151,563)"/>
<path d="M0 0 C1.98 0 3.96 0 6 0 C6.33 0.66 6.66 1.32 7 2 C7.99 2 8.98 2 10 2 C10 2.99 10 3.98 10 5 C10.66 5 11.32 5 12 5 C11.67 5.66 11.34 6.32 11 7 C9.351 6.216 7.706 5.422 6.062 4.625 C5.146 4.184 4.229 3.743 3.285 3.289 C1 2 1 2 0 0 Z " fill="#099798" transform="translate(710,192)"/>
<path d="M0 0 C2.625 0.938 2.625 0.938 5 2 C4.67 3.32 4.34 4.64 4 6 C2.125 5.75 2.125 5.75 0 5 C-1.25 2.938 -1.25 2.938 -2 1 C-1.34 0.67 -0.68 0.34 0 0 Z " fill="#29C9C2" transform="translate(334,818)"/>
<path d="M0 0 C0.99 0.33 1.98 0.66 3 1 C3.222 2.456 3.427 3.915 3.625 5.375 C3.741 6.187 3.857 6.999 3.977 7.836 C3.984 8.55 3.992 9.264 4 10 C3.34 10.66 2.68 11.32 2 12 C1.856 10.948 1.711 9.896 1.562 8.812 C1.125 5.845 0.622 2.932 0 0 Z " fill="#F3FDFC" transform="translate(860,396)"/>
<path d="M0 0 C0.66 0.99 1.32 1.98 2 3 C-1.96 3.99 -5.92 4.98 -10 6 C-10 5.34 -10 4.68 -10 4 C-6.7 2.68 -3.4 1.36 0 0 Z " fill="#069A9C" transform="translate(419,143)"/>
<path d="M0 0 C0.66 0.33 1.32 0.66 2 1 C-2.455 4.465 -2.455 4.465 -7 8 C-7.66 7.67 -8.32 7.34 -9 7 C-3.518 1.213 -3.518 1.213 0 0 Z " fill="#E1F8F7" transform="translate(723,792)"/>
<path d="M0 0 C2 3 2 3 3 5 C3.66 4.67 4.32 4.34 5 4 C4.34 6.97 3.68 9.94 3 13 C1.263 9.526 0.699 7.924 0.375 4.25 C0.3 3.451 0.225 2.652 0.148 1.828 C0.099 1.225 0.05 0.622 0 0 Z " fill="#0B9B99" transform="translate(868,414)"/>
<path d="M0 0 C1.65 0.99 3.3 1.98 5 3 C4.34 4.32 3.68 5.64 3 7 C2.01 7 1.02 7 0 7 C0 4.69 0 2.38 0 0 Z " fill="#25C3BD" transform="translate(213,712)"/>
<path d="M0 0 C0.66 0 1.32 0 2 0 C1.886 1.605 1.758 3.209 1.625 4.812 C1.521 6.152 1.521 6.152 1.414 7.52 C1 10 1 10 -1 13 C-2.073 9.728 -1.893 7.571 -1.062 4.25 C-0.771 3.051 -0.771 3.051 -0.473 1.828 C-0.317 1.225 -0.161 0.622 0 0 Z " fill="#D7F3F4" transform="translate(868,566)"/>
<path d="M0 0 C3.459 1.249 6.147 2.675 9 5 C8.34 5.66 7.68 6.32 7 7 C5.828 6.217 4.662 5.423 3.5 4.625 C2.85 4.184 2.201 3.743 1.531 3.289 C1.026 2.864 0.521 2.438 0 2 C0 1.34 0 0.68 0 0 Z " fill="#E9F8F9" transform="translate(689,181)"/>
<path d="M0 0 C0.99 0 1.98 0 3 0 C4.32 2.64 5.64 5.28 7 8 C3.245 6.122 2.112 5.38 0 2 C0 1.34 0 0.68 0 0 Z " fill="#EAFBFA" transform="translate(210,704)"/>
<path d="M0 0 C0 0.66 0 1.32 0 2 C-3.62 3.316 -6.096 4 -10 4 C-10 3.34 -10 2.68 -10 2 C-8.709 1.664 -7.417 1.331 -6.125 1 C-5.406 0.814 -4.686 0.629 -3.945 0.438 C-2 0 -2 0 0 0 Z " fill="#1DBBB4" transform="translate(866,703)"/>
<path d="M0 0 C0.33 0 0.66 0 1 0 C1.336 1.625 1.668 3.25 2 4.875 C2.186 5.78 2.371 6.685 2.562 7.617 C3 10 3 10 3 12 C2.01 12 1.02 12 0 12 C0 8.04 0 4.08 0 0 Z " fill="#F9F9FA" transform="translate(149,536)"/>
<path d="M0 0 C0.66 0.33 1.32 0.66 2 1 C2 3.64 2 6.28 2 9 C1.01 9 0.02 9 -1 9 C-0.67 6.03 -0.34 3.06 0 0 Z " fill="#E6FCFC" transform="translate(874,465)"/>
<path d="M0 0 C-2.686 2.686 -5.376 3.06 -9 4 C-8.688 2.062 -8.688 2.062 -8 0 C-4.71 -1.097 -3.287 -0.8 0 0 Z " fill="#079B9D" transform="translate(367,163)"/>
<path d="M0 0 C0.99 0.33 1.98 0.66 3 1 C3 1.99 3 2.98 3 4 C3.99 4 4.98 4 6 4 C5.67 4.99 5.34 5.98 5 7 C2.5 5.75 2.5 5.75 0 4 C0 2.68 0 1.36 0 0 Z " fill="#E8FCFB" transform="translate(323,808)"/>
<path d="M0 0 C0.33 0 0.66 0 1 0 C1.33 3.3 1.66 6.6 2 10 C0 9 0 9 -2 6 C-2 4.68 -2 3.36 -2 2 C-1.34 2 -0.68 2 0 2 C0 1.34 0 0.68 0 0 Z " fill="#21BEB6" transform="translate(872,734)"/>
<path d="M0 0 C-0.33 0.99 -0.66 1.98 -1 3 C-3.64 3 -6.28 3 -9 3 C-9.33 2.34 -9.66 1.68 -10 1 C-2.25 0 -2.25 0 0 0 Z " fill="#20BDB6" transform="translate(923,717)"/>
<path d="M0 0 C0.99 0.99 1.98 1.98 3 3 C1.68 3.99 0.36 4.98 -1 6 C-1.66 5.67 -2.32 5.34 -3 5 C-3 4.01 -3 3.02 -3 2 C-2.01 2 -1.02 2 0 2 C0 1.34 0 0.68 0 0 Z " fill="#EEFCFB" transform="translate(693,809)"/>
<path d="M0 0 C0.66 0.33 1.32 0.66 2 1 C1.049 2.173 0.089 3.338 -0.875 4.5 C-1.409 5.15 -1.942 5.799 -2.492 6.469 C-2.99 6.974 -3.487 7.479 -4 8 C-4.66 8 -5.32 8 -6 8 C-4.557 4.634 -2.667 2.49 0 0 Z " fill="#E1F7F6" transform="translate(778,743)"/>
<path d="M0 0 C0.66 0 1.32 0 2 0 C2.75 2.25 2.75 2.25 3 5 C1.062 7.312 1.062 7.312 -1 9 C-0.67 6.03 -0.34 3.06 0 0 Z " fill="#CEF0F1" transform="translate(154,419)"/>
<path d="M0 0 C2.97 0.99 5.94 1.98 9 3 C6 5 6 5 3.938 4.875 C2 4 2 4 0 0 Z " fill="#E5F7F7" transform="translate(649,162)"/>
<path d="M0 0 C0.99 0.33 1.98 0.66 3 1 C1.544 1.671 0.085 2.337 -1.375 3 C-2.187 3.371 -2.999 3.742 -3.836 4.125 C-6 5 -6 5 -8 5 C-7.67 4.01 -7.34 3.02 -7 2 C-6.216 1.856 -5.433 1.711 -4.625 1.562 C-2.036 1.122 -2.036 1.122 0 0 Z " fill="#E0F9F9" transform="translate(657,830)"/>
<path d="M0 0 C2.31 0 4.62 0 7 0 C7 1.32 7 2.64 7 4 C4.98 3.398 2.979 2.727 1 2 C0.67 1.34 0.34 0.68 0 0 Z " fill="#ECFCFA" transform="translate(332,816)"/>
<path d="M0 0 C1.98 0.66 3.96 1.32 6 2 C6.33 3.65 6.66 5.3 7 7 C5.83 6.024 4.664 5.044 3.5 4.062 C2.85 3.517 2.201 2.972 1.531 2.41 C1.026 1.945 0.521 1.479 0 1 C0 0.67 0 0.34 0 0 Z " fill="#EFFDFC" transform="translate(265,767)"/>
<path d="M0 0 C0.33 0 0.66 0 1 0 C1.33 2.97 1.66 5.94 2 9 C1.34 9 0.68 9 0 9 C-1.125 6.188 -1.125 6.188 -2 3 C-1.34 2.01 -0.68 1.02 0 0 Z " fill="#24C0B9" transform="translate(874,745)"/>
<path d="M0 0 C1.98 0 3.96 0 6 0 C5.34 1.32 4.68 2.64 4 4 C2.68 3.67 1.36 3.34 0 3 C0 2.01 0 1.02 0 0 Z " fill="#1EBDB7" transform="translate(908,704)"/>
<path d="M0 0 C0.99 0.33 1.98 0.66 3 1 C4.125 6.75 4.125 6.75 3 9 C2.876 8.361 2.752 7.721 2.625 7.062 C2.419 6.382 2.213 5.701 2 5 C1.34 4.67 0.68 4.34 0 4 C0 2.68 0 1.36 0 0 Z " fill="#25BFB9" transform="translate(170,635)"/>
<path d="M0 0 C0.99 0 1.98 0 3 0 C3.688 2.312 3.688 2.312 4 5 C2.562 6.812 2.562 6.812 1 8 C0.67 5.36 0.34 2.72 0 0 Z " fill="#24BBB5" transform="translate(157,598)"/>
<path d="M0 0 C0.99 0.33 1.98 0.66 3 1 C3.33 2.98 3.66 4.96 4 7 C2.35 5.68 0.7 4.36 -1 3 C-0.67 2.01 -0.34 1.02 0 0 Z " fill="#079695" transform="translate(772,239)"/>
<path d="M0 0 C0.99 0.33 1.98 0.66 3 1 C2.01 2.485 2.01 2.485 1 4 C1 4.66 1 5.32 1 6 C0.01 6 -0.98 6 -2 6 C-2.33 5.01 -2.66 4.02 -3 3 C-2.01 2.01 -1.02 1.02 0 0 Z " fill="#199B9D" transform="translate(222,230)"/>
<path d="M0 0 C0.66 0.33 1.32 0.66 2 1 C-1.465 3.97 -1.465 3.97 -5 7 C-5.66 6.67 -6.32 6.34 -7 6 C-5.012 3.018 -3.424 1.215 0 0 Z " fill="#0E8E90" transform="translate(282,213)"/>
<path d="M0 0 C2.875 0.25 2.875 0.25 6 1 C7.375 3.062 7.375 3.062 8 5 C4.625 3.814 2.353 2.724 0 0 Z " fill="#0C9191" transform="translate(702,187)"/>
<path d="M0 0 C0.99 0.33 1.98 0.66 3 1 C3 1.99 3 2.98 3 4 C0.69 4.33 -1.62 4.66 -4 5 C-3.67 4.34 -3.34 3.68 -3 3 C-2.34 3 -1.68 3 -1 3 C-0.67 2.01 -0.34 1.02 0 0 Z " fill="#129C9D" transform="translate(334,176)"/>
<path d="M0 0 C2.31 0 4.62 0 7 0 C2.375 4 2.375 4 -1 4 C-0.67 2.68 -0.34 1.36 0 0 Z " fill="#EEFAFA" transform="translate(404,151)"/>
<path d="M0 0 C2.64 0 5.28 0 8 0 C8.33 0.99 8.66 1.98 9 3 C4.545 2.01 4.545 2.01 0 1 C0 0.67 0 0.34 0 0 Z " fill="#D8F7F7" transform="translate(408,848)"/>
<path d="M0 0 C-3.188 2.125 -5.265 2.502 -9 3 C-8.67 2.01 -8.34 1.02 -8 0 C-4.71 -1.097 -3.287 -0.8 0 0 Z " fill="#E5FAFA" transform="translate(611,848)"/>
<path d="M0 0 C3.63 0.66 7.26 1.32 11 2 C11 2.33 11 2.66 11 3 C9.543 3.081 8.084 3.139 6.625 3.188 C5.813 3.222 5.001 3.257 4.164 3.293 C3.45 3.196 2.736 3.1 2 3 C1.34 2.01 0.68 1.02 0 0 Z " fill="#22D0C7" transform="translate(390,845)"/>
<path d="M0 0 C0.33 0.99 0.66 1.98 1 3 C-0.65 4.32 -2.3 5.64 -4 7 C-4.66 6.67 -5.32 6.34 -6 6 C-4.02 4.02 -2.04 2.04 0 0 Z " fill="#17BDB6" transform="translate(777,747)"/>
<path d="M0 0 C1.32 0 2.64 0 4 0 C4.33 1.65 4.66 3.3 5 5 C4.01 5.33 3.02 5.66 2 6 C1.34 4.02 0.68 2.04 0 0 Z " fill="#E0F9F8" transform="translate(176,644)"/>
<path d="M0 0 C1.746 2.619 2.387 4.038 3 7 C2.01 7.33 1.02 7.66 0 8 C-0.981 4.947 -0.981 3.053 0 0 Z " fill="#F5FDFC" transform="translate(865,411)"/>
<path d="M0 0 C2 2 2 2 3 5 C2.562 7.688 2.562 7.688 2 10 C0 8 0 8 -0.195 6.055 C-0.098 3.027 -0.098 3.027 0 0 Z " fill="#09A29E" transform="translate(853,361)"/>
<path d="M0 0 C4.675 -0.326 7.167 0.294 11 3 C7.591 4.136 6.997 3.867 3.812 2.562 C3.097 2.275 2.382 1.988 1.645 1.691 C1.102 1.463 0.559 1.235 0 1 C0 0.67 0 0.34 0 0 Z " fill="#0A8787" transform="translate(633,155)"/>
<path d="M0 0 C2.125 0.938 2.125 0.938 4 2 C3.34 2 2.68 2 2 2 C2 2.66 2 3.32 2 4 C0.35 4 -1.3 4 -3 4 C-2.67 3.01 -2.34 2.02 -2 1 C-1.34 0.67 -0.68 0.34 0 0 Z " fill="#089595" transform="translate(396,150)"/>
</svg>
