<?xml version="1.0" encoding="UTF-8"?>
<!-- Generator: visioncortex VTracer 0.6.4 -->
<svg version="1.1" xmlns="http://www.w3.org/2000/svg" width="1024" height="1024">
<path d="M0 0 C337.92 0 675.84 0 1024 0 C1024 337.92 1024 675.84 1024 1024 C686.08 1024 348.16 1024 0 1024 C0 686.08 0 348.16 0 0 Z " fill="#73373F" transform="translate(0,0)"/>
<path d="M0 0 C3.015 1.508 3.414 3.823 4.75 6.875 C5.295 8.053 5.841 9.231 6.402 10.445 C7.371 12.602 8.294 14.78 9.129 16.992 C13.046 26.12 20.348 29.048 28.925 33.003 C32.052 34.505 35.012 36.241 38 38 C38 38.66 38 39.32 38 40 C31 43.5 31 43.5 24 47 C23.252 47.405 22.505 47.81 21.734 48.227 C20 49 20 49 17 49 C17 49.66 17 50.32 17 51 C16.01 51.33 15.02 51.66 14 52 C12.76 54.091 12.76 54.091 11.812 56.562 C11.468 57.389 11.124 58.215 10.77 59.066 C10.389 60.024 10.389 60.024 10 61 C9.34 61 8.68 61 8 61 C7.867 61.572 7.734 62.145 7.598 62.734 C7.006 64.977 6.267 67.086 5.438 69.25 C5.168 69.956 4.899 70.663 4.621 71.391 C4.416 71.922 4.211 72.453 4 73 C3.34 73 2.68 73 2 73 C2 74.32 2 75.64 2 77 C1.01 77 0.02 77 -1 77 C-1.433 75.948 -1.866 74.896 -2.312 73.812 C-3.244 71.627 -4.178 69.713 -5.438 67.688 C-8.195 62.944 -11 57.547 -11 52 C-12.114 51.814 -12.114 51.814 -13.25 51.625 C-15.829 51.039 -17.748 50.367 -20 49 C-20.33 48.34 -20.66 47.68 -21 47 C-22.619 46.292 -24.24 45.591 -25.879 44.93 C-29.735 43.24 -33.352 41.093 -37 39 C-37 38.34 -37 37.68 -37 37 C-35.02 36.34 -33.04 35.68 -31 35 C-31 34.34 -31 33.68 -31 33 C-30.445 32.78 -29.891 32.559 -29.319 32.333 C-18.642 28.453 -18.642 28.453 -10.059 21.527 C-9.142 19.083 -9.142 19.083 -8.613 16.559 C-7.674 12.641 -5.492 9.607 -3.367 6.227 C-2.119 4.194 -1.03 2.149 0 0 Z " fill="#FCFBFB" transform="translate(881,505)"/>
<path d="M0 0 C3.391 1.696 4.406 5.512 6 8.812 C6.534 9.9 6.534 9.9 7.078 11.01 C7.745 12.37 8.409 13.73 9.07 15.093 C9.377 15.722 9.684 16.352 10 17 C10.329 17.718 10.657 18.436 10.996 19.176 C12.328 21.595 13.537 21.915 16.125 22.75 C16.849 22.992 17.574 23.235 18.32 23.484 C18.875 23.655 19.429 23.825 20 24 C20 24.66 20 25.32 20 26 C21.98 26.33 23.96 26.66 26 27 C26 27.66 26 28.32 26 29 C28.64 29.66 31.28 30.32 34 31 C34 31.66 34 32.32 34 33 C32.449 33.67 30.898 34.338 29.344 35 C27.55 35.765 25.759 36.538 23.969 37.312 C22.375 37.993 22.375 37.993 20.75 38.688 C19.734 39.124 18.718 39.561 17.672 40.012 C15 41 15 41 12 41 C11.34 43.31 10.68 45.62 10 48 C9.34 48 8.68 48 8 48 C7.816 48.828 7.816 48.828 7.629 49.672 C6.92 52.296 5.964 54.734 4.938 57.25 C4.575 58.142 4.213 59.034 3.84 59.953 C3.563 60.629 3.286 61.304 3 62 C-0.475 60.6 -1.724 59.276 -3.367 55.938 C-3.778 55.141 -4.19 54.344 -4.613 53.523 C-5.453 51.844 -6.286 50.162 -7.113 48.477 C-9.658 43.438 -9.658 43.438 -14.32 40.438 C-15.205 40.293 -16.089 40.149 -17 40 C-17 39.34 -17 38.68 -17 38 C-17.907 37.897 -18.815 37.794 -19.75 37.688 C-23.097 36.979 -24.394 36.084 -27 34 C-29.147 33.295 -29.147 33.295 -31 33 C-31 32.34 -31 31.68 -31 31 C-31.66 30.67 -32.32 30.34 -33 30 C-29.551 28.506 -26.129 27.048 -22.605 25.738 C-10.384 20.64 -5.609 11.546 0 0 Z " fill="#FAFAFB" transform="translate(135,292)"/>
<path d="M0 0 C2.438 1.438 2.438 1.438 3.25 4.562 C3.312 5.511 3.374 6.46 3.438 7.438 C4.097 7.438 4.757 7.438 5.438 7.438 C6.936 10.808 7.438 12.642 7.438 16.438 C8.097 16.438 8.757 16.438 9.438 16.438 C9.672 17.082 9.907 17.727 10.148 18.391 C11.249 20.645 11.249 20.645 13.602 21.047 C14.82 21.116 14.82 21.116 16.062 21.188 C16.88 21.244 17.697 21.301 18.539 21.359 C19.166 21.385 19.792 21.411 20.438 21.438 C19.942 22.923 19.942 22.923 19.438 24.438 C20.269 24.847 21.1 25.257 21.957 25.68 C23.044 26.219 24.13 26.757 25.25 27.312 C26.329 27.846 27.408 28.38 28.52 28.93 C31.438 30.438 31.438 30.438 34.438 32.438 C31.425 36.798 28.142 39.021 23.438 41.25 C22.513 41.717 22.513 41.717 21.57 42.193 C18.204 43.837 16.261 44.438 12.438 44.438 C12.169 45.015 11.901 45.592 11.625 46.188 C10.438 48.438 10.438 48.438 9 50.312 C6.061 54.309 4.201 58.824 2.438 63.438 C1.447 63.438 0.458 63.438 -0.562 63.438 C0.06 61.853 0.686 60.27 1.312 58.688 C1.661 57.806 2.009 56.924 2.367 56.016 C3.302 53.763 4.315 51.601 5.438 49.438 C6.097 49.438 6.757 49.438 7.438 49.438 C7.582 48.654 7.726 47.87 7.875 47.062 C8.438 44.438 8.438 44.438 9.438 42.438 C11.032 41.584 11.032 41.584 13.078 40.746 C13.819 40.441 14.561 40.136 15.324 39.822 C16.494 39.353 16.494 39.353 17.688 38.875 C18.452 38.559 19.216 38.242 20.004 37.916 C23.789 36.376 27.368 35.032 31.438 34.438 C31.438 33.778 31.438 33.118 31.438 32.438 C30.489 32.293 29.54 32.149 28.562 32 C25.438 31.438 25.438 31.438 23.438 30.438 C23.438 29.777 23.438 29.118 23.438 28.438 C21.458 28.108 19.477 27.777 17.438 27.438 C17.438 26.777 17.438 26.118 17.438 25.438 C16.695 25.314 15.952 25.19 15.188 25.062 C9.253 23.714 9.253 23.714 7.417 20.839 C6.344 18.77 5.348 16.68 4.375 14.562 C1.439 8.183 1.439 8.183 -2.562 2.438 C-2.926 3.127 -3.29 3.817 -3.664 4.527 C-4.722 6.504 -5.8 8.469 -6.895 10.426 C-7.881 12.208 -8.833 14.012 -9.699 15.855 C-14.002 23.931 -23.194 28.376 -31.562 31.438 C-34.59 31.684 -34.59 31.684 -36.562 31.438 C-35.562 29.438 -35.562 29.438 -33.496 28.586 C-32.672 28.331 -31.849 28.075 -31 27.812 C-29.761 27.422 -29.761 27.422 -28.496 27.023 C-27.858 26.83 -27.22 26.637 -26.562 26.438 C-26.562 25.777 -26.562 25.118 -26.562 24.438 C-25.294 23.931 -24.023 23.433 -22.75 22.938 C-22.042 22.659 -21.335 22.381 -20.605 22.094 C-18.562 21.438 -18.562 21.438 -15.562 21.438 C-15.315 20.592 -15.067 19.746 -14.812 18.875 C-13.836 16.188 -12.871 14.112 -11.438 11.688 C-9.396 8.774 -9.396 8.774 -9.562 6.438 C-8.903 6.438 -8.243 6.438 -7.562 6.438 C-7.109 5.468 -6.655 4.499 -6.188 3.5 C-3.879 -0.851 -3.879 -0.851 0 0 Z " fill="#1E2458" transform="translate(137.5625,290.5625)"/>
<path d="M0 0 C0.99 0 1.98 0 3 0 C3 0.66 3 1.32 3 2 C3.887 2.103 4.774 2.206 5.688 2.312 C9.087 3.018 11.116 4.129 14 6 C14.99 6.33 15.98 6.66 17 7 C17 7.66 17 8.32 17 9 C18.031 9.124 19.062 9.248 20.125 9.375 C23.917 10.448 25.192 12.298 27.188 15.625 C28.148 17.405 29.086 19.196 30 21 C30.405 21.746 30.81 22.493 31.227 23.262 C33.103 26.805 34.496 29.97 35 34 C34.34 34 33.68 34 33 34 C30.958 31.095 30 29.599 30 26 C29.01 26.33 28.02 26.66 27 27 C27 24.69 27 22.38 27 20 C26.34 19.67 25.68 19.34 25 19 C24.629 18.216 24.257 17.433 23.875 16.625 C21.168 12.835 18.397 12.37 14 11 C14.33 10.01 14.66 9.02 15 8 C13.948 7.897 12.896 7.794 11.812 7.688 C8.079 7.014 6.103 6.069 3 4 C2.01 3.67 1.02 3.34 0 3 C0 2.01 0 1.02 0 0 Z " fill="#21265A" transform="translate(101,323)"/>
<path d="M0 0 C2.438 1.438 2.438 1.438 3.25 4.562 C3.312 5.511 3.374 6.46 3.438 7.438 C4.097 7.438 4.757 7.438 5.438 7.438 C5.768 8.428 6.097 9.418 6.438 10.438 C5.447 11.923 5.447 11.923 4.438 13.438 C2.458 9.808 0.477 6.178 -1.562 2.438 C-2.553 3.757 -3.542 5.077 -4.562 6.438 C-5.544 7.456 -6.538 8.462 -7.562 9.438 C-7.113 7.956 -6.653 6.477 -6.188 5 C-5.932 4.176 -5.677 3.353 -5.414 2.504 C-4.136 -0.596 -3.218 -0.706 0 0 Z " fill="#141C54" transform="translate(137.5625,290.5625)"/>
<path d="M0 0 C0.33 0 0.66 0 1 0 C1.465 5.808 0.426 8.365 -3 13 C-3.716 14.646 -4.403 16.307 -5 18 C-6.375 13.723 -5.387 11.161 -4 7 C-3.34 7 -2.68 7 -2 7 C-1.783 5.824 -1.783 5.824 -1.562 4.625 C-1 2 -1 2 0 0 Z " fill="#8C4341" transform="translate(893,559)"/>
<path d="M0 0 C0.897 0.526 0.897 0.526 1.812 1.062 C-0.077 2.075 -1.974 3.072 -3.875 4.062 C-5.459 4.898 -5.459 4.898 -7.074 5.75 C-10.11 7.03 -11.948 7.351 -15.188 7.062 C-14.188 5.062 -14.188 5.062 -12.121 4.211 C-11.297 3.956 -10.474 3.7 -9.625 3.438 C-8.799 3.177 -7.972 2.917 -7.121 2.648 C-6.483 2.455 -5.845 2.262 -5.188 2.062 C-5.188 1.402 -5.188 0.743 -5.188 0.062 C-2.188 -0.938 -2.188 -0.938 0 0 Z " fill="#23285B" transform="translate(116.1875,314.9375)"/>
<path d="M0 0 C0.99 0 1.98 0 3 0 C3 0.66 3 1.32 3 2 C3.969 2.124 4.939 2.248 5.938 2.375 C7.453 2.684 7.453 2.684 9 3 C9.33 3.66 9.66 4.32 10 5 C6.053 5.179 3.402 5.094 0 3 C0 2.01 0 1.02 0 0 Z " fill="#22295B" transform="translate(101,323)"/>
<path d="M0 0 C3.867 3.222 4.881 6.149 6 11 C5.34 11 4.68 11 4 11 C1.384 7.442 0.506 4.355 0 0 Z " fill="#1B1C50" transform="translate(130,346)"/>
<path d="M0 0 C2.375 0.25 2.375 0.25 5 1 C6.794 3.563 7 4.831 7 8 C4.507 6.753 3.534 5.3 2 3 C2 2.34 2 1.68 2 1 C1.34 0.67 0.68 0.34 0 0 Z " fill="#171B4C" transform="translate(120,333)"/>
<path d="M0 0 C0.33 1.32 0.66 2.64 1 4 C-0.98 4.33 -2.96 4.66 -5 5 C-4 2 -4 2 -1.938 0.812 C-1.298 0.544 -0.659 0.276 0 0 Z " fill="#823D40" transform="translate(915,546)"/>
<path d="M0 0 C0.66 0.99 1.32 1.98 2 3 C1.01 4.65 0.02 6.3 -1 8 C-1.66 7.67 -2.32 7.34 -3 7 C-2.01 4.69 -1.02 2.38 0 0 Z " fill="#1F2051" transform="translate(140,347)"/>
<path d="M0 0 C0.66 0.33 1.32 0.66 2 1 C2 2.667 2 4.333 2 6 C1.01 6 0.02 6 -1 6 C-1 5.01 -1 4.02 -1 3 C-1.66 3 -2.32 3 -3 3 C-3 2.34 -3 1.68 -3 1 C-2.01 0.67 -1.02 0.34 0 0 Z " fill="#202961" transform="translate(156,312)"/>
</svg>
