<svg version="1.1" xmlns="http://www.w3.org/2000/svg" xmlns:xlink="http://www.w3.org/1999/xlink" width="1024" height="1024" viewBox="0 0 1024 1024"><path stroke="none" fill="black" fill-rule="evenodd" d="M509.4334514833889,927.1001181500556C509.17673561845487,926.8434022851216 510.3238792626519,926.0627090320947 511.9826595816045,925.3652442544404C517.7686472838049,922.9324190152468 517.8635652787193,920.4032905507042 512.642949895536,907.7715410864541C507.48991572774094,895.3033104640672 507.4123494841797,895.0 509.3768559623421,895.0C510.6962772113391,895.0 512.6916755688745,898.9884413350678 516.5060636417614,909.25C518.4545590944114,914.4918893971077 519.5140941546975,915.1461739980392 520.5545123549732,911.75C522.6064619133105,905.0519455700924 527.4578819668079,895.0 528.6386474439912,895.0C530.5492293699385,895.0 530.3836574600277,895.8764145623951 527.1061910382823,903.1116845902372C525.5145961093376,906.6252580656068 522.7810747529473,913.214607394183 521.0316991351929,917.7546830981844C519.2823235174385,922.2947588021857 517.0562801660898,926.4346960106958 516.0849361321957,926.95454356154C514.3231700246673,927.897412168544 510.3183941444939,927.9850608111606 509.4334514833889,927.1001181500556zM383.5,918.0459723851873C382.4,917.5909821275013 380.375,916.0076173130294 379.0,914.5273839085831C377.00213641976603,912.3766170656821 376.51477836551186,910.8431773539664 376.5735774429524,906.8928066734263C376.6650211535027,900.7492314881998 379.2143248392724,897.0187936078814 384.6302890522189,895.1032884823308C388.16159867304606,893.8543434353102 388.97659393205237,893.8950584869054 392.3337501967095,895.488133442462C398.7437828553663,898.52989310087 401.18832538911386,906.8675651806371 397.66674824080496,913.6775444589853C395.3730382142968,918.1130905490551 388.66390341690305,920.1819048818439 383.5,918.0459723851873zM406.0,907.0C406.0,897.0 406.25,895.0 407.5,895.0C408.325,895.0 409.0,895.6853738409344 409.0,896.5230529798542C409.0,897.8606522155294 409.30129699921116,897.8486885835853 411.47442452295104,896.4248007425482C415.31324067471917,893.9095117948142 420.8860576046537,894.1410641235342 423.12738390439745,896.9089849379341C425.63790218144123,900.0093437722344 425.95574407104164,918.0 423.5,918.0C422.27972473266965,918.0 422.0,916.350554173568 422.0,909.1549875621121C422.0,901.8560750331463 421.68033783947357,900.0206848448698 420.17125932841594,898.6549875621121C417.8906457361688,896.5910606271447 416.6775384980521,896.5846523247058 412.40112912253323,898.6139414428703L409.0,900.2278828857405L409.0,909.6139414428703C409.0,917.2904379380967 408.7267923402303,919.0 407.5,919.0C406.25,919.0 406.0,917.0 406.0,907.0zM488.5,917.8600283534167C485.6880809018416,916.1881990877364 485.03283724213026,914.958929081726 485.01531277451704,911.3225801490329C484.98705962807594,905.4600169502916 492.63880012097087,901.9574228417757 497.7118487210172,905.5107243959444C500.3810559491364,907.3803099134154 501.3973095659467,906.0854236934833 500.4928143665868,901.9672840253654C499.4499950340656,897.2193587041753 493.55843384193474,895.3540243213816 489.44112963510486,898.4681966281296C487.00376819162494,900.3117241227045 486.0,900.370292000243 486.0,898.66897969811C486.0,896.6293831587856 490.40258182284356,894.7272727272727 495.1233858840581,894.7272727272727C498.49236005191494,894.7272727272727 499.84665421139186,895.2829751557689 501.68432955289904,897.4194000649627C503.73027519970447,899.7979536342274 504.0,901.1486456679218 504.0,909.0155069937055L504.0,917.9194865847581L501.25,917.8616142496721C499.7375,917.8297844653748 496.7,918.0839543059536 494.5,918.4264361176251C492.0841966696921,918.8025127999913 489.70790166515394,918.5781874765546 488.5,917.8600283534167zM572.3757611434493,917.9649481951601C568.903785152084,916.9014800255311 566.518204847226,914.5885779271782 567.4081260268766,913.1486552111951C567.739061007414,912.6131911646194 569.5858098785968,913.024090336772 571.7056578415625,914.1048503346951C575.9593377166296,916.2734997535487 579.1817494524798,916.4999006894586 582.3157414540893,914.8502959998887C588.9406482850114,911.3632171015885 586.0119041031835,904.0 578.0,904.0C575.1111111111111,904.0 574.0,903.5833333333334 574.0,902.5C574.0,901.507393738987 574.9927667043139,901.0 576.9349003388255,901.0C578.5490955251795,901.0 581.0240955251795,900.5611378811786 582.4349003388255,900.0247508470637C584.5442876261525,899.2227632298503 585.0,898.3984697758902 585.0,895.3849934456791C585.0,891.0539677355641 582.9148877424951,889.0776557434048 578.2970530211259,889.0318033718704C574.8167638050573,888.9972461553804 570.0,890.8135856419769 570.0,892.1605150203081C570.0,892.6222317591387 569.55,893.0 569.0,893.0C567.3748970628731,893.0 567.8568501921737,890.4395239198257 569.81561722632,888.666864116848C573.7121142151316,885.1405828061665 583.358184008915,885.3581840089153 587.0557768608203,889.0557768608203C590.0066066833192,892.0066066833192 589.6360715678443,897.3545057337483 586.2989135800133,899.9795145895501L583.5978271600266,902.1041894771661L586.1756408548396,904.302094738583C592.9919133783519,910.1138107958081 589.6717289266147,917.4478045319456 579.7575702688025,918.4790448931011C577.4159066209611,918.7226175601576 574.0940925145521,918.4912740460842 572.3757611434493,917.9649481951601zM635.5640413311302,917.8133820566463C635.3320331642816,917.0910219254908 634.9582766235216,912.7641366192083 634.7334712405523,908.1980813760184C634.2319220360586,898.0110416145639 632.9825525965288,896.1905944733826 627.6912331473656,897.936887369957C623.3363732903315,899.3741207305546 623.0,900.2449408067428 623.0,910.0817874682358C623.0,916.2035116582874 622.6822533481924,918.0 621.5994979973707,918.0C620.5272990027123,918.0 620.117067340872,915.8711991427932 619.8494979973707,908.918786025926C619.5570339334038,901.3195186063937 619.1821839899867,899.6052776515218 617.5524566270815,898.4140961863336C615.6069852316842,896.9921347466485 612.6444641053721,897.3291551562548 610.25,899.2448335274898C609.4189696341896,899.9096949860729 609.0,903.2204303029396 609.0,909.1224447154422C609.0,917.3333333333334 608.8498085012602,918.0 607.0,918.0C605.1159420289855,918.0 605.0,917.3333333333334 605.0,906.5C605.0,895.6666666666666 605.1159420289855,895.0 607.0,895.0C608.1943544689655,895.0 609.0,895.6666666666666 609.0,896.6549875621121C609.0,898.1615134381398 609.1736797714665,898.1527970912565 610.9361080232115,896.5578214443123C613.4981149321914,894.2392370576403 619.844432272038,894.0667632576997 621.4568668161442,896.2718988926803C622.5949407145087,897.8283076893649 622.9552901840091,897.8071959122997 626.5522178913255,895.9733778039244C631.5393469715137,893.4307946996125 632.5772341583415,893.4863250674324 635.5454545454545,896.4545454545455C637.8065250269183,898.7156159360092 638.0,899.6568416775427 638.0,908.3955284601705C638.0,913.6854848986603 637.554509258416,918.1572944312225 636.992937180882,918.5043650622713C636.4390526303671,918.8466845403331 635.7960494979787,918.5357421878017 635.5640413311302,917.8133820566463zM644.4119131122786,917.631045072957C643.6613545909588,915.675120919139 644.6839706175573,914.0 646.6285679474508,914.0C647.610334878917,914.0 648.0272421187337,914.7602004393709 647.8195509530758,916.1716720596108C647.4315265645444,918.8086903970946 645.2262370881297,919.7531393376378 644.4119131122786,917.631045072957zM445.22460705634523,902.25L445.5,886.5L448.14576651642375,886.1936357312171C450.4881583730247,885.9224004714556 450.99363469700904,886.4383893014328 452.5540857004449,890.6936357312171C453.52348966762344,893.3371360790477 455.5953947352328,898.5846191512019 457.15831918402114,902.354709224893C458.7212436328095,906.1247992985842 460.0,910.0918829529244 460.0,911.1704506789824C460.0,912.2490184050404 460.4936974752822,914.0539650789326 461.0971055006272,915.1814432876317C461.9221910573859,916.7231297526503 461.89957984670446,917.1331932822349 461.00591040933483,916.8353034697783C459.72453523104883,916.4081784103496 455.1610249256811,906.4776328121317 451.4311976043446,896.0L449.1173278569131,889.5L449.05866392845655,903.75C449.00257884162767,917.3735759919135 448.9109645778446,918.0 446.97460705634523,918.0C445.014823872213,918.0 444.95813508028056,917.4898008726076 445.22460705634523,902.25zM474.0,904.8C474.0,897.54 473.6315925877047,892.0274999999999 473.18131686156596,892.55C472.7310411354272,893.0725 470.6238410749647,897.8875 468.4986500605381,903.25C466.3734590461116,908.6125 464.3043664584069,913.0 463.90066653230554,913.0C462.07071983498525,913.0 462.60752392113415,909.9735155967242 465.75702617699346,902.5339032312046C467.62762605623146,898.1152564540421 469.8946054348587,892.5875 470.7947581294983,890.25C472.05863034624076,886.9679998191104 472.95168228208746,886.0 474.71569969623977,886.0C476.99958758859674,886.0 477.0,886.0028886668015 477.0,902.0C477.0,915.5555555555555 476.7708333333333,918.0 475.5,918.0C474.24242424242425,918.0 474.0,915.8666666666667 474.0,904.8zM557.0,904.5C557.0,897.075 556.8000428363652,891.0 556.5556507474782,891.0C556.3112586585912,891.0 554.3987586585912,892.572850116498 552.3056507474782,894.4952224811066C547.9536551065011,898.4922243111092 547.0,898.7773577380773 547.0,896.0815594803123C547.0,894.9880458050926 548.4257868934861,893.281934199736 550.3157938394736,892.1138456681424C552.1394804511841,890.9867453572772 554.4592248541346,889.1500435911366 555.4707814015858,888.0322861878301C559.5294303120785,883.5475296227557 560.0,884.9987253614361 560.0,902.0C560.0,915.5555555555555 559.7708333333334,918.0 558.5,918.0C557.2407407407408,918.0 557.0,915.8333333333334 557.0,904.5zM498.45294697887414,915.8394849796919C500.272643462349,915.0103757762483 501.0,913.9030705246757 501.0,911.9619296951341C501.0,905.6489565166125 490.1877073976149,903.7458934852953 487.93806232822055,909.6629084223423C485.7788723665247,915.3420083964172 491.79221065333525,918.874319546537 498.45294697887414,915.8394849796919zM393.9274198509671,913.3651413081986C398.89072226528384,907.0553247674474 394.42538283247933,896.6968774116448 387.1992270409308,897.7574518881183C380.33231190896987,898.7653010310311 377.4073265984644,908.4982356893737 382.4545454545455,913.5454545454545C385.89558626750636,916.9864953584155 391.14374313820866,916.9040127893326 393.9274198509671,913.3651413081986zM538.0,861.3930111958157C538.0,860.5091673535143 538.5625,860.0000367991806 539.25,860.2616099639631C541.6342643702321,861.1687511668715 545.0892709367547,859.0174569714139 546.4683818895405,855.767012700377C547.75265366033,852.7400961122773 547.6869138645503,852.3162724373174 545.5738536704233,850.0C542.4367938595633,846.5612502690141 541.8927419436505,844.5172761521167 543.5368802509962,842.3471991838649C544.8519840596996,840.6114106109833 544.9383114214046,840.6565136687693 544.9681966281296,843.0950124378879C544.996717491627,845.4221869216683 547.6264430164514,849.0 549.3084168061769,849.0C551.1570506225947,849.0 557.0413167645906,833.7074035080675 558.4737036534743,825.1803715015185C559.0946422819648,821.4839096026193 561.1834796898091,818.8501463564753 562.4721557814712,820.1388224481377C563.066435755046,820.7331024217128 556.5201826980424,842.9283726260571 554.2548051008338,848.0C553.1492803570607,850.475 550.3101174808442,854.8625 547.9455542647972,857.75C544.6057869922413,861.8283760544274 543.0163106068757,863.0 540.8231742087196,863.0C538.8968153499007,863.0 538.0,862.4895206175163 538.0,861.3930111958157zM705.1657293967621,860.4530090300286C703.6095489946035,859.3300304809934 703.1647921268576,858.4352078731424 703.8314587935242,857.7685412064758C704.4981254601909,857.1018745398092 705.600384409072,857.3071176720632 707.1382356401675,858.3842706032378C712.2461676729057,861.9620054647471 720.0,858.6381085532329 720.0,852.8707158823181C720.0,849.9867220204218 719.9254255286857,849.9388260556544 717.7774937565946,851.4432960313509C715.2372743954627,853.2225349299802 709.7804119465104,853.4880313156783 706.9446089944208,851.9703556334478C701.4993743152124,849.0561544719798 700.3106653562992,836.4915679888886 705.0072243968657,831.4923099819327C707.7814119816761,828.5393226189784 714.2234445740178,828.0673510214042 717.7774937565946,830.5567039686491C719.8018616786811,831.9746264548821 720.0,831.968089543387 720.0,830.4833798054385C720.0,829.4955525951548 720.6614505535726,828.9807354110269 721.6788873605351,829.1766758367895C722.6022754088295,829.3545041265553 723.2772754088295,829.8375 723.1788873605351,830.25C723.0804993122408,830.6625 723.0,836.8001472169606 723.0,843.8892160376902C723.0,859.908782026422 722.3333910851652,861.1484386186008 713.3987349738469,861.744169996528C708.9843360291597,862.0385065589288 706.9126127087322,861.7136035499757 705.1657293967621,860.4530090300286zM568.0,853.2905648194316C565.6338294926121,852.4205389983803 562.9965681633131,849.8145698227781 563.5598736754118,848.9031223581524C563.8418647968831,848.4468511390861 565.5187532241537,848.9553100735051 567.2862924026798,850.0330311013056C569.0538315812059,851.1107521291062 571.2875,851.9942060063217 572.25,851.9962619395624C573.2125,851.9983178728031 574.0,852.45 574.0,853.0C574.0,854.0547877826573 570.5348096624989,854.2225981834425 568.0,853.2905648194316zM298.4,849.6C295.42832858676564,846.6283285867656 295.0,845.561890713762 295.0,841.1347962283062C295.0,836.8951796060448 295.50586036584207,835.4934493292103 298.10359219468853,832.5347962283062C300.84441688651447,829.4131693600291 301.7665583993182,829.0 305.9928082323787,829.0C309.2176995541085,829.0 311.5483530776468,829.6241856618078 313.1392160376902,830.9139203834702C315.85544780526124,833.1160072449453 314.8798337254317,835.0305588332002 311.9680904498359,833.212145061269C310.9005664313083,832.545465277571 308.2144174135837,832.0 305.99887041044803,832.0C302.5378743286679,832.0 301.68429465066737,832.457673550854 299.93748899934076,835.25C297.65575480788306,838.8974273642804 297.8618346181199,843.6139947563713 300.4773466234634,847.605770627808C301.74037388396835,849.5333938744803 302.90710667922383,850.0 306.46403598547926,850.0C308.89389749965324,850.0 311.1600813061875,849.55 311.5,849.0C312.4254558003621,847.5025810599284 314.0,847.7953305467165 314.0,849.4648162415119C314.0,851.5760033975284 310.7637447854627,853.0 305.9657414540893,853.0C302.56156489845836,853.0 301.1784250215009,852.3784250215009 298.4,849.6zM322.9966170486746,850.1504632025208C317.8327761473287,844.9866223011749 317.82304828855655,837.0231055575973 322.97428876999436,831.8718650761596C326.5600190821794,828.2861347639745 333.27994854808713,827.8591670555999 337.22978172998467,830.9661062892919C343.09989478968396,835.5835378950053 343.51385132562535,845.3640270682496 338.04596727025245,850.25C333.6381240269009,854.1887453275004 326.99093448752205,854.1447806413681 322.9966170486746,850.1504632025208zM347.0,836.5C347.0,820.6666666666666 347.0808080808081,820.0 349.0,820.0C350.9191919191919,820.0 351.0,820.6666666666666 351.0,836.5C351.0,852.3333333333334 350.9191919191919,853.0 349.0,853.0C347.0808080808081,853.0 347.0,852.3333333333334 347.0,836.5zM357.0,836.5C357.0,820.6666666666666 357.0808080808081,820.0 359.0,820.0C360.9191919191919,820.0 361.0,820.6666666666666 361.0,836.5C361.0,852.3333333333334 360.9191919191919,853.0 359.0,853.0C357.0808080808081,853.0 357.0,852.3333333333334 357.0,836.5zM367.9064784347513,852.75C367.85504157386447,852.6125 367.59589837075106,845.1875 367.3306046500548,836.25C366.857566386923,820.3137785709943 366.888336412744,820.0 368.92412621530354,820.0C370.9414175732949,820.0 371.0,820.4656400826291 371.0,836.5C371.0,850.5 370.77272727272725,853.0 369.5,853.0C368.675,853.0 367.9579152956381,852.8875 367.9064784347513,852.75zM382.5,852.0546432346931C374.53036238981645,848.7927336625679 373.93580181300416,835.3642960540734 381.54039818820536,830.3815731368242C384.5630572443594,828.4010508570034 392.0829077192047,828.9400505763475 394.4497315302239,831.3068743873667C396.230102433582,833.0872452907248 394.6938196248044,834.7822295591778 392.7061951235001,833.2305220152559C388.7449835775076,830.1380657515336 382.8020009238545,831.548421082379 380.42500448329656,836.145025337572C378.04364456462775,840.7500676289816 379.03062979238393,845.7371444137203 382.9133428156446,848.7181966281296C384.8385792134765,850.1963461057333 390.64288804383045,850.3868362772462 391.5,849.0C392.29802428507213,847.7087695829056 395.0,847.698409419915 395.0,848.9865799791366C395.0,850.1383251745463 388.50674548730456,853.0292422099271 386.12787604532747,852.9366136995809C385.23254422039736,852.9017512343504 383.6,852.5048645251509 382.5,852.0546432346931zM401.0741389536563,852.1227368356183C399.7399153781672,851.7498901230939 398.46491537816723,850.8947461345017 398.24080562032293,850.2224168609689C397.73048647476594,848.6914594242978 400.63494527735634,848.6003120566339 401.57283622507407,850.1178514877821C402.01203237796403,850.8284857908862 403.9460307466975,851.0190310121169 406.881853219449,850.640916984664C411.1054685247385,850.0969439725638 411.33416795199383,850.1723065304174 409.55887036489514,851.523065496882C407.5167410262564,853.0768469783038 405.0997040076642,853.2476747575773 401.0741389536563,852.1227368356183zM426.0814340399231,851.2670247155236C424.0672627457011,849.6360477488261 423.8123318198921,848.516033889267 423.764010169815,841.0856516837589C423.7167709209417,833.8217094618144 423.4686919271503,832.6738205876003 421.8548579022611,832.251793509744C419.3262811987638,831.5905558478438 419.49892228487863,829.0 422.0715655110975,829.0C423.73986187016703,829.0 424.0805322531544,828.4682728733748 423.8215655110975,826.2685548316983C423.59016944091593,824.3030278829151 423.9907134507813,823.4412441654874 425.25,823.1952306684879C426.6112165133881,822.9293041922303 427.0,823.5361274928141 427.0,825.9266758367894C427.0,828.5382216108807 427.375634300676,829.0 429.5,829.0C431.05555555555554,829.0 432.0,829.5666666666667 432.0,830.5C432.0,831.4333333333333 431.05555555555554,832.0 429.5,832.0C427.0198314337326,832.0 427.0,832.0708905656059 427.0,840.9366415159118L427.0,849.8732830318237L430.25,850.1866415159118C432.0375,850.3589886821603 433.40149017625794,850.95 433.28108928057316,851.5C432.8891612364175,853.2903556535829 428.4007773857047,853.1451150178153 426.0814340399231,851.2670247155236zM437.0,851.5C437.0,850.675 437.505100121949,850.0 438.12244471544216,850.0C438.90409201490314,850.0 438.931576699773,849.6204741631228 438.2129678175583,848.75C437.645410930229,848.0625 437.1627301079787,843.3375 437.14034376811327,838.25C437.1076364764182,830.8169695225262 437.3844988078949,829.0 438.5498206659971,829.0C439.7361609261119,829.0 440.0,831.1832257655459 440.0,841.0C440.0,851.0 439.75,853.0 438.5,853.0C437.675,853.0 437.0,852.325 437.0,851.5zM449.77021827001533,851.0338937107081C441.0408859271471,844.1673998890712 445.28382082732645,829.0 455.93398907422335,829.0C461.66835592055577,829.0 462.83606228174574,829.7429719448871 465.5647114795107,835.1277019582494C468.11462388859235,840.1597118963074 468.09025788591106,843.4676539644263 465.4750877624938,847.2950675987669C464.4068484472929,848.8584816509265 464.1716221717772,848.889623501537 463.6523353300753,847.5363836839962C463.32440861066624,846.6818203515505 463.4942167267689,844.830310822508 464.0296866991923,843.4219180639016C466.3237546480373,837.3880620994267 462.69172910059547,832.0 456.3303140038977,832.0C452.4848070726653,832.0 451.7368886052655,832.3833196411896 449.98903962644727,835.25C447.55790161085514,839.2373557059645 447.4756125568784,842.3036987007025 449.6987477668977,846.0671666454002C451.36643935975076,848.8903434918008 455.4334250624397,851.0 459.20824025960155,851.0C460.25862681063313,851.0 460.8399186938125,851.45 460.5,852.0C459.4178510709962,853.7509537480173 452.4238145132146,853.1212128198185 449.77021827001533,851.0338937107081zM473.0,841.6323411575854C473.0,830.1177698225433 473.9515057684118,826.9054018159866 476.40170389614383,830.1478865945917C477.3196528029028,831.3626599323127 477.9105158810634,831.3901672814175 480.0,830.3154035554063C482.7439827422747,828.9039866944356 487.8704218808823,828.6102450317858 489.6002959998886,829.765312774517C492.06480774086987,831.4109111347174 493.0,835.328681797942 493.0,844.0075827091212C493.0,852.173543288295 492.81366434075085,853.110660790603 491.25,852.8086658493396C489.7411883481224,852.5172647638819 489.5259741055055,851.3912482405883 489.6884613622028,844.6385824638711C489.945245340576,833.9671217104916 489.09347001748813,832.0 484.2158804821686,832.0C477.9116630169583,832.0 477.09166144126107,833.2663976901442 476.77683453964937,843.4887469459718C476.5416766876775,851.1242624651356 476.23654225542805,852.5278635828229 474.75,852.8120711091823C473.16528487194273,853.1150480107032 473.0,852.0591393059009 473.0,841.6323411575854zM517.25,852.2942669930909C515.259716834551,851.9109217377168 515.001576156054,851.2629203925062 515.0136546832924,846.6804490469242C515.0386354667468,837.2029918942256 514.9315206691618,837.302450344547 524.5688079325494,837.8082786635564C532.8248083102059,838.2416079478909 533.0,838.2030808584395 533.0,835.9541422524874C533.0,834.6909787523617 532.2125,832.7822475649349 531.25,831.7125173915388C529.573268235114,829.8489843405358 529.5837351258447,829.7833804530836 531.5,830.1455791015334C532.6,830.3534932154266 534.3546904759265,832.1145918357621 535.3993121687257,834.0591315911678C538.1017478651511,839.0896547789885 536.9464207178424,844.2888733998046 532.0347028518731,849.2005912657739C528.7199689069571,852.51532521069 527.6781315257558,852.9826278210988 523.8676470588235,852.8638179461668C521.4654411764706,852.7889178165585 518.4875,852.5326198876744 517.25,852.2942669930909zM592.2225062434054,851.4432960313509C590.9813622361004,850.573964929326 590.0,848.832629568517 590.0,847.4996668912693L590.0,845.1127417198368L593.2228612517745,848.0563708599184C596.675790698984,851.2101348433525 601.0,852.012814949347 601.0,849.5C601.0,848.675 601.675,848.0 602.5,848.0C604.6515236485473,848.0 604.3512353309029,850.7416570385176 602.0657414540893,851.9648162415119C599.2531638382633,853.470062100989 594.7775717703431,853.2329335892855 592.2225062434054,851.4432960313509zM633.75,851.9199012005281C631.7506328665756,850.7553767512742 631.2918273376545,843.1917498153746 633.0242020822616,839.9547779956364C634.5823581404635,837.0433367691612 633.0902420426562,833.0373768014213 629.6177113512252,830.8091990966074L626.5,828.8086941219536L629.75,829.3793470609769C633.1965549863642,829.9845122094304 633.6288459480925,829.1977198260212 633.1176753761589,823.25C632.9937636260354,821.8082261316436 633.4767147906188,821.0 634.4621507374081,821.0C635.8681353571149,821.0 636.6623349597428,823.8929116761095 635.9720820120222,826.5C635.1814139763698,829.4863565387595 635.2515559150061,848.037436116795 636.0553938199009,848.5342352634655C637.171860384119,849.224249547455 637.3381271473112,853.0137093362895 636.25,852.9695913140993C635.8375,852.9528665368539 634.7125,852.4805059857468 633.75,851.9199012005281zM643.3104276908266,852.2130165979006C642.4168478608208,851.6448576751064 642.3292123320387,847.8919941423211 642.9582268557508,837.1305302074934C644.150648879067,816.7300368718501 645.8254981630857,816.5854221842965 646.20083752913,836.850547325533C646.4948019000262,852.7221166364171 646.2401136735516,854.075779359745 643.3104276908266,852.2130165979006zM666.0,840.9266758367894C666.0,829.9671660992007 666.1614447867454,828.8842939648994 667.75,829.1887543267231C669.278520448291,829.4817085060043 669.535656348973,831.0097053193215 669.7817353124535,841.2620784899336C670.0511549532827,852.4868929080553 669.9746561106099,853.0 668.0317353124535,853.0C666.1016102348308,853.0 666.0,852.3961943291076 666.0,840.9266758367894zM677.0,841.0C677.0,831.0 677.25,829.0 678.5,829.0C679.325,829.0 680.0,829.6483135858207 680.0,830.4406968573794C680.0,831.6934658207763 680.3587164821002,831.6942694424289 682.75,830.4468575989542C687.0358259980974,828.2111586242906 692.5922233694729,828.5797298190662 694.4432960313509,831.2225062434054C696.6639111201044,834.3928783875953 696.7123601130121,853.0 694.5,853.0C693.2741935483871,853.0 693.0,851.3 693.0,843.7C693.0,833.2018295322307 692.3790534640551,832.0 686.9549875621121,832.0C681.2022467963218,832.0 680.0,834.1311596667462 680.0,844.328740671584C680.0,851.3698600746204 679.7180098304688,853.0 678.5,853.0C677.25,853.0 677.0,851.0 677.0,841.0zM413.1873473530127,849.8586298192793C412.342356523485,848.2742344965093 411.98608419315224,844.7435914120512 412.1873473530127,839.9486739123457L412.5,832.5L408.6017857288353,832.1807987339873C406.15918479528125,831.9807888689264 404.3912281373296,832.3541940325107 403.8670985033524,833.1807987339873C403.23001671235045,834.185540251217 403.0269754227404,834.0912369867984 403.01531277451704,832.7851837584881C403.00689074853267,831.8420348256565 403.8704163456598,830.6045348256564 404.93425854591067,830.0351837584881C407.6940944504123,828.5581644063067 413.9637490151349,828.741956511266 414.56838159002234,830.3176037443798C414.8464681885621,831.0422858037887 414.9448450302097,836.2892659619088 414.78699679368367,841.9775596513133C414.5313418119655,851.1904634580186 414.3566502715593,852.0511247083446 413.1873473530127,849.8586298192793zM617.5567039686491,849.7774937565946C616.4874428632637,848.2509096851145 616.0,845.2324610631995 616.0,840.13773635521C616.0,834.2464263863708 615.639974833787,832.4471871667092 614.25,831.3920459704859C612.6591087008325,830.184387452028 612.750027958451,830.0607152047806 615.25,830.0318033718704C617.3439344572902,830.0075873077914 618.0,830.4771385765163 618.0,832.0C618.0,833.95457894493 619.4185430477995,834.741688816411 620.2527716574216,833.25C620.4834627356702,832.8375 620.4084627356702,833.175 620.086104990755,834.0C619.7637472458397,834.825 619.5786629637278,839.2125 619.6748065860618,843.75C619.7709502083958,848.2875 619.6839669942879,852.0 619.4815105547109,852.0C619.2790541151338,852.0 618.412891151406,850.9998721904676 617.5567039686491,849.7774937565946zM530.7269736842105,846.5361842105262C533.182072368421,844.0810855263157 535.0131614594062,841.5394843782187 534.7960605530666,840.8881816591996C534.5426898405123,840.1280695215366 531.2854957651026,839.600676253164 525.7006658162245,839.415487724989L517.0,839.1269805526314L517.0,844.0957144803706C517.0,848.3138416660182 517.3398984921042,849.2010709084672 519.25,849.9688379036357C523.8045897812001,851.799559305657 526.17152700535,851.0916308893869 530.7269736842105,846.5361842105262zM718.25,848.2671014918922C719.5145742442157,847.1274840805232 720.0,845.1598875093362 720.0,841.173753109472C720.0,834.3508911615265 718.2061607790934,832.0 713.0,832.0C707.7921371684098,832.0 705.6153846153846,834.7052229089111 705.6153846153846,841.1774467815351C705.6153846153846,845.5316903998981 706.0272629398316,846.6266998232325 708.4484242111397,848.7092950724024C711.5400106341174,851.3685657592381 714.9807120605554,851.2133400979773 718.25,848.2671014918922zM335.02198646686804,848.9882332000257C338.8631953800741,846.9324805767186 339.4008023814029,837.5977161871161 335.9195652410364,833.4030820445157C335.2464750839979,832.5920580206065 332.91764281352243,832.0 330.400608264412,832.0C325.7187528679569,832.0 323.88892449596136,833.6881414463453 322.61733319760583,839.1806019786723C320.88851091517927,846.6480077134514 328.3587514032775,852.5542883850471 335.02198646686804,848.9882332000257zM577.0,845.0590169943749C577.0,843.9265576474687 577.45,843.0 578.0,843.0C578.55,843.0 579.0,843.6484423525313 579.0,844.4409830056251C579.0,845.2335236587188 578.55,846.1600813061875 578.0,846.5C577.45,846.8399186938125 577.0,846.1914763412811 577.0,845.0590169943749zM560.0,843.9063803848901C560.0,842.684624421664 560.7976069176746,841.6041818753258 561.9153057756021,841.311897058139C562.9687239521832,841.0364220167364 564.0757755494549,839.8342221730619 564.3754204362057,838.6403418499733C564.9860108847932,836.2075557279105 571.6539019125066,829.3205685791734 572.5404037332285,830.207070399895C572.8541043056246,830.5207709722912 572.0051298235151,831.9704388552992 570.653793772985,833.4285545843575C569.302457722455,834.8866703134156 567.8941765047406,837.2992474210953 567.5242799558418,838.7898370458679C566.1762020178746,844.2222504968745 560.0,848.4220949312216 560.0,843.9063803848901zM569.0,844.2405467887713C569.0,843.8228475225956 570.0125,842.85910329271 571.25,842.0988929445812C573.4920097439731,840.7216008169255 573.4932349607336,840.7242978060802 571.5950124378879,842.8583461558098C569.5569261864644,845.149634215619 569.0,845.4462739219282 569.0,844.2405467887713zM402.5,841.5309957741099C405.7137132013405,838.8967472686518 407.6404955369211,838.4868600425826 409.947845125232,839.9466047807938C411.06486711086956,840.6532887502543 410.7221269235778,841.0083435424723 408.447845125232,841.5004995619549C406.82653030635436,841.8513531141257 404.4663261404934,842.5572717113012 403.20294697887414,843.0692075556781C399.4956130945617,844.5714621124342 399.3035202442524,844.1511181969173 402.5,841.5309957741099zM592.015312774517,842.2252491529363C592.0601672910049,840.1008333553987 594.3161028592014,839.5 602.2477448475122,839.5C607.6470989231788,839.5 610.8610271893372,839.8827718835213 610.6442034290367,840.5C610.4439193816152,841.0701448272064 607.5168909282345,841.3723837641106 603.8348670789401,841.2031180640215C600.2829395326802,841.0398329992333 596.1670331709942,841.3661951180546 594.6884084974156,841.9283672169578C593.209783823837,842.4905393158609 592.0068907485327,842.6241361870512 592.015312774517,842.2252491529363zM545.7866922090759,837.0C546.0288607889768,835.35 546.4009240064395,834.0 546.6134993589933,834.0C546.826074711547,834.0 547.0,835.35 547.0,837.0C547.0,838.65 546.6279367825372,840.0 546.1731928500826,840.0C545.7184489176282,840.0 545.544523629175,838.65 545.7866922090759,837.0zM605.2032564480098,835.183090625366C605.6061147933502,833.0912154702213 609.0,832.3108049997098 609.0,834.3100444728284C609.0,835.1112255124157 608.0737978179254,836.0089445835962 606.9417729287233,836.3049757421186C605.4070568238635,836.7063130191149 604.9648643876394,836.4209610431953 605.2032564480098,835.183090625366zM579.0,833.4686152036613C579.0,832.6608768416476 579.4765576474687,832.0 580.0590169943749,832.0C580.6414763412812,832.0 580.8399186938125,831.55 580.5,831.0C580.1600813061875,830.45 580.7819660112501,830.0 581.8819660112501,830.0C585.8930307976584,830.0 585.17504053893,832.7359171380546 580.75,834.313380539952C579.5945405938974,834.7252852240944 579.0,834.4382867756702 579.0,833.4686152036613zM598.7333333333333,830.8759123189747C599.4116666666666,830.1924938768719 600.2185742979024,829.885240964569 600.526461402746,830.1931280694126C600.8343485075897,830.5010151742563 600.2793485075896,831.0601757177949 599.2931280694127,831.435707055054C597.8679296152976,831.9783916929051 597.7530660618211,831.8635281394286 598.7333333333333,830.8759123189747zM545.4719859044419,826.2555943788341C546.5179225616969,822.0882508014619 548.1306661287496,820.4821030774824 549.2538773638032,822.4891702033581C549.831961061868,823.5221484626393 549.7378527873757,824.6109417803658 548.9929013520041,825.5085533475742C548.3521067217845,826.2806636422584 548.1181183072351,827.3821024414251 548.4729270974501,827.9561951235C548.84525536297,828.5586349120837 548.2015545222162,829.0 546.9506089645004,829.0C545.0865603706126,829.0 544.8795961707937,828.6158630764621 545.4719859044419,826.2555943788341zM437.06430211812483,825.0609026284703C435.8694154931845,824.3048098296027 435.8497370547516,823.8859820599866 436.94698080708525,822.563884219272C438.5209770386155,820.6673347838591 441.2182735751064,822.2676132446443 440.3335702621045,824.5731131220163C439.69999323650967,826.22418838459 439.05482152424196,826.320450904899 437.06430211812483,825.0609026284703zM517.0,822.9409830056251C517.0,821.1562823502086 517.416577070772,820.1394247999211 518.0,820.5C518.55,820.8399186938125 519.0,822.2164763412811 519.0,823.5590169943749C519.0,824.9015576474687 518.55,826.0 518.0,826.0C517.45,826.0 517.0,824.6234423525312 517.0,822.9409830056251zM665.7183473613843,824.7084082800966C665.4250284956356,823.944031568632 665.516883577313,822.7816987924308 665.9224697651116,822.125446555205C666.9537229643889,820.4568438277674 670.1655554294096,821.9018233097196 669.787608540275,823.8643436757225C669.3911884408207,825.9227877085693 666.4207817422866,826.5389229342547 665.7183473613843,824.7084082800966zM341.22087562240773,794.8373731327767C341.4340238813987,794.197928355804 342.4834378653936,793.5463206051757 343.5529066979521,793.3893559091582C345.70458659568874,793.0735563544697 349.0,789.5029345823542 349.0,787.4873619700695C349.0,786.7772734121486 346.94399681349,781.3831293816979 344.4311040299778,775.5003752357349C341.9182112464656,769.6176210897718 340.09880361522994,764.5678630514367 340.3879759605652,764.2786907061015C341.8912971176024,762.7753695490644 343.9675295639968,765.656191122813 346.9608286418734,773.398679095777C348.7897600282144,778.1294055930997 350.6241607310628,782.0 351.03727464820304,782.0C351.45038856534325,782.0 353.2985029174186,778.1209916979875 355.1441954305926,773.3799815510835C358.18697495068665,765.5640271184844 360.14593459888295,762.8126012655501 361.6190957886779,764.2857624553445C361.9121575960969,764.5788242627634 360.8143400862409,767.8969166315278 359.17950132233125,771.6593010525985C357.5446625584215,775.4216854736693 354.76492685770705,781.9960450503903 353.0023108762991,786.2689890008675C351.2396948948911,790.5419329513446 348.9726884278516,794.4794329513446 347.9645187273225,795.0189890008675C345.39714228170806,796.393007176485 340.7441019319764,796.2676942040707 341.22087562240773,794.8373731327767zM277.10760899295684,784.9243672323198C274.03130847323706,783.0489137972002 273.8608595738417,782.7105689975868 275.2782932221296,781.2931353492991C276.69572687041745,779.8757017010112 277.09426522843825,779.9289887414303 279.55554292097406,781.8650300565416C281.36974774853735,783.2920837818846 283.69343245350404,784.0 286.5634301203727,784.0C291.8244780576131,784.0 294.2262797010174,781.9218003381983 293.80400341467913,777.734970990298C293.52414097673807,774.9601614486422 292.9113900613228,774.5135132893494 286.0877302640538,772.1104029764058C277.6632453527772,769.143524911994 274.31588053402703,765.8618850722008 275.38184868042833,761.6147296849445C276.8019233380023,755.9567015791489 281.9749239602471,753.6443886699028 290.298883265491,754.9468681945775C295.6221683975967,755.7798215565917 297.5546398989546,757.1122483010652 296.6936296812168,759.3560049618993C296.2020007941069,760.6371693051167 295.5920199422034,760.5764014800566 292.34940520628027,758.9232224047237C290.2746462332891,757.8654500821257 287.60795143878113,757.0 286.42341677404033,757.0C283.58054484930074,757.0 279.0,760.6714713780163 279.0,762.9501354335907C279.0,765.3304710518235 280.48464609098136,766.4033828320081 286.5,768.3701735155723C289.25,769.2693183475484 292.9625,770.8972469879666 294.75,771.9877927165014C297.5579379273953,773.7009030452915 298.0,774.5231735591191 298.0,778.0330504654721C298.0,784.2605164361091 294.5155533718995,787.0011069690064 286.60397727316484,786.9962619395624C282.1980997948818,786.9935637911983 279.55625165110877,786.4171717405835 277.10760899295684,784.9243672323198zM306.2,785.8C305.4465709204175,785.0465709204175 305.0,781.2903067521978 305.0,775.70638038489C305.0,767.6537646860639 304.8108747725493,766.7633034117998 303.0,766.2897490209291C301.9,766.002092559061 301.0,765.4217054996429 301.0,765.0C301.0,764.5782945003571 301.9,763.997907440939 303.0,763.7102509790709C304.45629778646605,763.3294205529972 305.0,762.3462353139362 305.0,760.0936196151099C305.0,755.7859871473678 307.76933369996925,755.9218886812329 308.1866415159119,760.25C308.4268135526628,762.7409461816934 309.0254987972892,763.5746327295618 310.75,763.8195509530758C311.9875,763.9953039772676 313.0,764.5265060483835 313.0,765.0C313.0,765.4734939516165 311.9875,766.0046960227324 310.75,766.1804490469242C308.61927473109057,766.483060287112 308.5,766.9482034294994 308.5,774.9549150281252C308.5,783.0805395063395 308.59447914204947,783.43213355623 310.9258610463437,783.9824981671563C312.2600846218328,784.2974656281547 313.53508462183277,785.1052538654983 313.75919437967707,785.7775831390311C314.30010285606755,787.4003085682026 307.8195267766087,787.4195267766088 306.2,785.8zM318.5729300053348,785.4300728624776C315.88850441874575,782.7456472758887 315.5377575072848,779.0960887988559 317.6874712028958,776.2167809619314C320.2029975519355,772.8475068369314 323.7810368066739,771.9387786387937 328.34876967236795,773.5090905599486L332.0,774.7643238844333L332.0,771.5821619422167C332.0,769.8319728739975 331.46,767.86 330.8,767.2C329.1008409240825,765.5008409240825 322.85704686518005,765.7113998874332 320.2225062434054,767.5567039686491C318.23811142128886,768.9466282058122 318.0,768.9493794854255 318.0,767.5823841148806C318.0,765.6922595882265 322.9939520402955,763.0 326.5,763.0C329.80467910434686,763.0 334.5710366743358,765.4397562012289 335.378818657776,767.5448023069628C335.7204683959992,768.4351272531926 336.0,773.1767705757655 336.0,778.0817874682358C336.0,787.0467390765443 335.1826673828121,788.7826673828122 332.31286771068756,785.9128677106876C331.53002465827103,785.130024658271 331.03767433056277,785.130024658271 330.55385071631264,785.9128677106876C329.5002422811628,787.6176419695936 320.39352600510324,787.2506688622461 318.5729300053348,785.4300728624776zM380.0,775.5C380.0,766.2450980392157 380.27657004830917,764.0 381.41666666666663,764.0C382.1958333333333,764.0 382.9903680699463,764.4711042098392 383.18229941469565,765.0468982440868C383.40801694660297,765.7240508398089 384.83128288707553,765.5506145397762 387.21213619719356,764.5558305093668C389.53751512030857,763.5842251578172 391.11899305768594,763.3835178173862 391.5066777787628,764.0108048730076C391.8441967630013,764.5569220613538 390.85659369579713,765.4842239961549 389.3120042960868,766.0714758392323C383.6996073485561,768.2053053554373 383.0,769.6000314771269 383.0,778.6549875621121C383.0,785.4061097291236 382.71350127706705,787.0 381.5,787.0C380.2536231884058,787.0 380.0,785.0555555555555 380.0,775.5zM396.44897335366176,783.5321186308964C395.59177499291627,781.4805541784908 395.0,776.7838408805278 395.0,772.0321186308964C395.0,764.6666666666666 395.1660002042555,764.0 397.0,764.0C398.8484848484849,764.0 399.0,764.6666666666666 399.0,772.8C399.0,782.7899713337771 399.66212027781836,784.0 405.1285714285714,784.0C410.9317509567772,784.0 412.0,782.2010774947807 412.0,772.4285714285714C412.0,765.6031746031746 412.2853107344633,764.0 413.5,764.0C414.7463768115942,764.0 415.0,765.9444444444445 415.0,775.5C415.0,784.7549019607843 414.72342995169083,787.0 413.58333333333337,787.0C412.8041666666667,787.0 411.9951569321396,786.4854707964188 411.7855339232732,785.8566017698195C411.4995791543041,784.9987374629122 410.870876163949,784.9987374629122 409.26794204402916,785.8566017698195C408.0928895193114,786.4854707964188 405.05393726298627,787.0 402.5147148077511,787.0C398.1917708264409,787.0 397.8057299639214,786.7792942668301 396.44897335366176,783.5321186308964zM422.0,775.5C422.0,765.9444444444445 422.2536231884058,764.0 423.5,764.0C424.325,764.0 425.0,764.6683857047044 425.0,765.4853015660098C425.0,766.6972396664202 425.5981487419989,766.6059047572352 428.25,764.9890396264473C432.1622703208718,762.603682059748 435.77721384793466,762.4552261191594 438.7774937565946,764.5567039686491C440.83291603724575,765.9963777743058 441.0,766.8985158713305 441.0,776.5567039686491C441.0,785.1729671076276 440.73757812377136,787.0 439.5,787.0C438.2741935483871,787.0 438.0,785.3 438.0,777.7C438.0,771.8000000000001 437.56129032258065,767.9612903225806 436.8,767.2C435.1018404824524,765.5018404824524 430.36878677317543,765.7122556658642 427.46481670565504,767.615009933484C425.1511823662009,769.1309613760782 425.0,769.7749909469048 425.0,778.115009933484C425.0,785.3461122148316 424.72078396720985,787.0 423.5,787.0C422.2536231884058,787.0 422.0,785.0555555555555 422.0,775.5zM451.11072957218545,784.4397190818416C447.81838390686755,781.6693928488796 446.3370209475205,776.777654955794 447.44888680183556,772.3476285342701C448.422367773877,768.4689714010757 454.26320849227693,763.0 457.43211863089647,763.0C464.0036701198623,763.0 470.0,768.2245760004955 470.0,773.9503400731157C470.0,775.8727175246187 469.4100565170531,776.0 460.5,776.0C451.8523605596089,776.0 451.0,776.169504551485 451.0,777.8892160376902C451.0,778.9282848584198 451.86046421366194,780.8407848584199 452.9121426970265,782.1392160376902C454.44294143511524,784.0291822604119 455.73142200371143,784.4810617629804 459.37286837985823,784.4050395036742C461.8745890220511,784.352811230695 464.5740623534646,783.76845999322 465.37169800522156,783.106481198174C466.4249606179857,782.2323508684569 467.01059371853535,782.2081240022826 467.5111101194698,783.0179765509213C468.7218569435245,784.9770060640127 464.6643335284168,786.9353829947516 459.3267252819435,786.9681966281296C455.20646646492634,786.993526449278 453.53410715737795,786.4788568817854 451.11072957218545,784.4397190818416zM478.30135180842785,785.2277641544113C473.6215194053841,781.5502105077546 472.659774335907,773.2899264346506 476.28363336242865,767.8978832197918C479.22721925322,763.5180378081367 484.3492211092979,762.0299993647408 488.8143170027572,764.2574825516983L491.9061628528137,765.7998983949401L492.2030814264068,760.1596675027229C492.4365044775053,755.7255902140282 492.8742344677905,754.4482160556845 494.25,754.1863941420423C495.8596691479399,753.8800580355057 496.0,755.1823509314602 496.0,770.4266758367895C496.0,786.0931402295187 495.8951237617568,787.0 494.08333333333337,787.0C493.0291666666667,787.0 491.9604166666667,786.4375 491.70833333333337,785.75C491.3416666666667,784.75 490.985,784.75 489.925,785.75C487.9950473514582,787.5707100457942 480.87581072595503,787.2508517278384 478.30135180842785,785.2277641544113zM517.0,776.9063803848901C517.0,767.6537646860639 516.8333593005576,766.7691832479576 515.0,766.2897490209291C513.9,766.002092559061 513.0,765.3692213858604 513.0,764.883368636039C513.0,764.3975158862175 513.9,764.0 515.0,764.0C516.5257469412817,764.0 517.0,763.3333333333334 517.0,761.1885614466321C517.0,757.3833926514684 520.4659133929721,753.7993145380135 523.765400650391,754.1925053856273C527.6549488234915,754.6560121743192 527.6875879358064,756.8098648566976 523.8107046639254,757.1821139917763C520.869451928058,757.4645261022765 520.5,757.834779419092 520.5,760.5C520.5,763.0293521586188 520.9314271879327,763.5496411646557 523.25,763.8164223456972C524.7625,763.9904546358307 526.0,764.5230645802669 526.0,765.0C526.0,765.4769354197331 524.7625,766.0095453641693 523.25,766.1835776543028L520.5,766.5L520.2150169055128,776.75C519.9868641992124,784.9559788275731 519.6378849746517,787.0 518.4650169055128,787.0C517.2750896105637,787.0 517.0,785.1046977146477 517.0,776.9063803848901zM532.5728213023124,784.0760090612944C527.0790561760659,778.3417538782967 528.3527671597584,767.9374176943693 534.9672669771059,764.51692690399C538.6207610158667,762.6276317104953 541.1185383282658,762.6048617558041 545.4657009368088,764.4212222691517C552.5412202448074,767.3775629998208 554.1562404641213,778.0961571067693 548.4271786976876,784.0760090612944C546.0441504996633,786.5633545305185 544.8603689022934,787.0 540.5,787.0C536.1396310977066,787.0 534.9558495003367,786.5633545305185 532.5728213023124,784.0760090612944zM557.0,775.5C557.0,766.3369981205914 557.283083873616,764.0 558.3930111958157,764.0C559.1591673535142,764.0 560.068549452874,764.7362537197234 560.4138603055039,765.6361193771631C560.9717456488231,767.0899452775609 561.2343570999243,767.1068807954352 562.7708491096882,765.7881189409877C565.3533386632432,763.5715836833391 568.0,762.844164296554 568.0,764.3509174066584C568.0,765.0593987043478 566.5375,766.2827755459955 564.75,767.0695326103196L561.5,768.5L561.2124741862112,777.75C560.9505397176284,786.1767002063681 560.7502776056639,787.0 558.9624741862112,787.0C557.1262752240867,787.0 557.0,786.2600335397015 557.0,775.5zM588.9174614215199,784.2175594640705C581.2337694493833,777.3521815883479 586.0127415121797,763.0 595.9824587040123,763.0C603.4432930006622,763.0 608.5880363304556,769.0906006351755 607.7096892057857,776.883273268332C606.9994501902779,783.1844951698985 602.7717365786482,787.0 596.5,787.0C593.0254971054658,787.0 591.3388665996376,786.3810847066613 588.9174614215199,784.2175594640705zM615.6107109720983,785.4678538292412C613.658193219325,783.5153360764676 612.9718227776925,779.2482263995519 613.243324005856,770.75C613.4257629143235,765.0395022658644 613.7316325989376,764.0 615.2294864596995,764.0C616.7874415561141,764.0 617.0018383703083,765.0504784864204 617.015312774517,772.75C617.0237348005014,777.5625 617.4337836650591,782.136915352434 617.9265324735342,782.9153674498532C618.9634879273924,784.5535655217765 625.0080374185833,784.6012497795781 628.0095106135043,782.9949100741192C629.7695883295077,782.0529450668375 630.0,780.8918985971374 630.0,772.9648162415119C630.0,765.662757360168 630.2782138499061,764.0 631.5,764.0C632.7463768115942,764.0 633.0,765.9444444444445 633.0,775.5C633.0,785.0555555555555 632.7463768115942,787.0 631.5,787.0C630.675,787.0 630.0,786.2994832141079 630.0,785.4432960313509C630.0,784.0343574064855 629.7890354198794,784.0343574064855 627.7774937565946,785.4432960313509C624.9056958442758,787.4547815875917 617.6123598177943,787.4695026749372 615.6107109720983,785.4678538292412zM640.0,775.5C640.0,765.9444444444445 640.2536231884058,764.0 641.5,764.0C642.325,764.0 643.0,764.7447444029505 643.0,765.6549875621121C643.0,767.1499117126311 643.1692526135546,767.1613513103403 644.75,765.7732681343919C647.5482239638554,763.3160965204643 651.0,762.5756735476258 651.0,764.4326123294429C651.0,765.2946755482493 650.3856864113105,766.0 649.6348586918014,766.0C648.8840309722921,766.0 647.084030972292,766.9326610670648 645.6348586918014,768.0725801490329C643.1607711103242,770.0186977242539 643.0,770.6593759752949 643.0,778.5725801490329C643.0,785.3969533498926 642.7146730532376,787.0 641.5,787.0C640.2536231884058,787.0 640.0,785.0555555555555 640.0,775.5zM668.0,775.5C668.0,764.8333333333333 668.1388888888889,764.0 669.9166666666667,764.0C670.9708333333334,764.0 671.989515982826,764.4685479484781 672.1804058877615,765.0412176632846C672.3977587976156,765.6932763928465 673.7577590099833,765.4686905503337 675.819166611157,764.4403250050814C680.2760906896948,762.2169184562921 685.3079851859502,763.1857771149616 686.847057998723,766.5636739873905C687.4811760994254,767.9554116175641 688.0,773.122932182745 688.0,778.0470530211257C688.0,785.3385614467918 687.7216382677466,787.0 686.5,787.0C685.2833754949996,787.0 684.9939918025024,785.3469762791686 684.9681966281296,778.25C684.9475296609787,772.5639374244429 684.4712212947824,768.8872125151114 683.6079540295142,767.75C681.9613000122782,765.5808043965068 677.1839701625677,765.4824138965064 674.2225062434054,767.5567039686491C672.2075476871536,768.9680358785088 672.0,769.9485733782702 672.0,778.0567039686491C672.0,786.3333333333334 671.8509125350811,787.0 670.0,787.0C668.1159420289855,787.0 668.0,786.3333333333334 668.0,775.5zM698.2056417677688,784.519582429127C691.1367895071621,778.5715353996849 694.687396065239,765.0872766231389 703.7711802514507,763.3831484375667C708.6476117350029,762.4683243768246 713.7233168932199,765.0935562064287 715.5552814931532,769.4780646509153C718.2240711423213,775.86537734995 718.0555601928944,776.0 707.3915919701253,776.0L697.7831839402508,776.0L698.4573969211541,778.75C698.8282140606509,780.2625 699.6644976740945,782.0060735563842 700.3158049510287,782.6246079030759C702.2614402578932,784.4723413862586 708.5223489448285,784.9604458124462 711.3644144044076,783.4859645282997C713.1853650204191,782.5412439928826 714.1671065415553,782.4613670696041 714.6358397040167,783.2197932581207C715.8223414935733,785.1395934813359 711.7620323960573,787.0 706.3855956468385,787.0C702.2746110223442,787.0 700.5217848495571,786.46848834334 698.2056417677688,784.519582429127zM726.5020798745059,785.75C725.0593519738109,781.6056643279373 720.0,765.1848163188653 720.0,764.6465729376432C720.0,764.2909578219395 720.6559446813826,764.0 721.4576548475168,764.0C722.7850512121445,764.0 723.4344758482176,765.7109129892664 727.664004031363,780.3506631019909C728.4570553866686,783.0956675482306 729.4548127841653,781.4047859797192 732.4759425387979,772.1959572071055C736.0129808245088,761.4145666079942 737.3643525603554,761.5897940935187 741.2796337003717,773.3375C742.8995851651673,778.198125 744.5550991492929,781.7981249999999 744.9585536650953,781.3375C745.3620081808978,780.876875 746.7239102010769,776.7875 747.9850025988269,772.25C749.7617116852681,765.8572745390334 750.6794367159695,764.0 752.061530513341,764.0C753.7179274929496,764.0 753.6722237085313,764.5528472557778 751.4208393901795,771.75C750.0874613172076,776.0125 748.4697382690496,781.2086340062746 747.8258992831616,783.2969644583878C746.9260437708559,786.2156999031795 746.1984768159458,787.0252417309405 744.6803121684989,786.7969644583878C743.1338734176045,786.5644357792241 742.1406101264465,784.6022268316572 740.1026706959071,777.7537539257587C738.6712018131583,772.943318584926 737.0574025635966,769.1533510637272 736.5164501413258,769.3316038786502C735.9754977190549,769.5098566935732 734.5474716997796,773.0953585307074 733.3430589873806,777.2993857389483C732.1386462749815,781.5034129471893 730.8671860639162,785.4058804683882 730.5175918516799,785.9715357860568C729.6329245293203,787.4029575823712 727.0274682932737,787.2592145681377 726.5020798745059,785.75zM329.75,784.3697139527466C331.5911416609615,783.8763070694722 332.0,783.064533685503 332.0,779.9024206642539C332.0,776.4995479483744 331.67161833989525,775.9661496901324 329.25,775.4355292742243C327.7375,775.1041131440112 325.98916112055986,774.6794871216963 325.36480249013306,774.4919158913023C323.14005350248334,773.8235517739581 320.0,777.0515741866271 320.0,780.0070138550778C320.0,784.240432682454 323.83282596413096,785.9554552678961 329.75,784.3697139527466zM490.8,782.8C491.4653831553222,782.1346168446779 492.0,778.9397201492409 492.0,775.6287406715841C492.0,768.5197114885437 490.2771714609278,766.0 485.4164410093165,766.0C478.18953311231303,766.0 475.0896721392865,774.4550145758446 479.6420204110775,781.75C480.74267049311965,783.5137548417257 481.970392528927,784.0 485.3230529798542,784.0C487.6753738409344,784.0 490.14000000000004,783.46 490.8,782.8zM546.5385007349668,781.581584501773C547.4100344170381,780.2514559777482 548.1488236457695,777.2998171021438 548.180254576592,775.0223870004301C548.3300838798278,764.1660185640295 534.8015840081309,762.5209566506296 532.4752549857785,773.1126633117852C531.074973316563,779.4881039914201 534.4552389562266,784.0 540.6319345822578,784.0C544.0996612350522,784.0 545.2670906436232,783.5220015654139 546.5385007349668,781.581584501773zM602.7042197474185,781.3286653203692C606.8707794841647,774.9696914024273 603.2403305596102,766.0 596.5,766.0C589.8750751868741,766.0 586.1998169336281,775.0774351545414 590.2945273211366,781.3267531052845C591.7591828532456,783.5620999899844 592.7756907386931,784.0 596.5,784.0C600.2235141682,784.0 601.2409243680283,783.5619363496365 602.7042197474185,781.3286653203692zM467.0,772.6348586918014C467.0,771.8840309722921 466.0673389329352,770.084030972292 464.9274198509671,768.6348586918014C461.02107110810783,763.6687410035987 451.0,766.0900308547801 451.0,772.0C451.0,773.8333333333334 451.6666666666667,774.0 459.0,774.0C465.0932005344043,774.0 467.0,773.674618660383 467.0,772.6348586918014zM713.0,772.2225062434054C713.0,765.9970617545747 704.0920655062757,763.5249111054359 700.0725801490329,768.6348586918014C696.4382972952867,773.2551006496941 697.1918434348161,774.0 705.5,774.0C712.0203839311486,774.0 713.0,773.7678318071676 713.0,772.2225062434054zM311.5,652.6545506264868C298.48552435353196,649.2759982548533 287.5306747191337,640.7519462359936 282.0133182145065,629.7107387266061C277.4928545253401,620.664490294249 277.5153164117534,620.6222321275812 288.6945382101757,617.1411752034887C294.02653422577237,615.4808644963566 298.7579646985333,614.3504139572162 299.20882814964455,614.629062894288C299.65969160075576,614.9077118313598 300.8840189317909,616.7926654271289 301.92955555194476,618.8178486626639C307.9675879206048,630.5133949428379 322.6353057727758,636.2876724388423 332.945311971445,631.0278997503433C344.22156120617217,625.275186647108 343.7614454936513,613.0002417644286 332.0455173182563,607.0232212030531C330.0089217741837,605.9842276841537 324.1030276550009,603.9267828880771 318.92130816451674,602.4511216562165C304.2355617463553,598.2688831753387 296.25783310393615,594.2006955065285 290.774738682718,588.0979727816964C285.1421554151826,581.8288679176111 284.01296802279046,578.2943822383658 284.0055769344027,566.9097223450433C284.0006561707949,559.3301593426771 284.3584839453278,557.6020548266931 287.0468308907141,552.2221964730874C292.0152047717694,542.2796004202588 300.76035391617825,536.1993398961653 313.4570877504284,533.8598747375044C326.2757049106138,531.4979516933613 341.10996855877016,536.0147304635324 350.11761413369675,545.0223760384586C354.1102509343177,549.0150128390794 360.96139235246545,559.1653354210698 360.9906159383653,561.1312941027696C361.0000890288783,561.7685774464476 341.6406149950675,569.0 339.92505015666563,569.0C339.41627257049953,569.0 339.0,568.5403518832144 339.0,567.9785597404764C339.0,565.4814493247876 333.2783710211517,558.6725000962701 329.60547411719426,556.7987279131262C324.5096976989587,554.199056766974 316.0318026570403,554.0989564854724 312.19909172322525,556.5932071123914C308.1186483760973,559.2486769749597 307.06667664209806,561.0971835299945 307.0318033718704,565.6730769230769C306.9787844241295,572.6299539550093 310.30351858223867,574.9882772414848 328.4297992836125,580.8512504680159C356.4523370684683,589.9151831897252 364.48405689661075,598.0815542506698 364.4949465690978,617.5210274775318C364.4995285132264,625.7003901094105 364.1939213658846,627.1637889397913 361.2194260483843,633.2058468300702C357.1916666946426,641.387387759128 350.10071049213497,648.0506928145427 342.2016317049687,651.0766898549508C335.12997144835487,653.7857175256271 319.0422643049284,654.6125192490503 311.5,652.6545506264868zM420.174341007602,652.4143600338476C404.4771726989889,648.9779198752716 389.5423724451686,637.0067477635006 382.1236575440832,621.9143685394329C377.289525502673,612.0799760656765 376.0,606.1161224363274 376.0,593.5934107968598C376.0,565.5710126907976 393.37443414497807,542.5987497720162 420.0,535.417152508843C428.5384017603322,533.1141267986004 443.40692022221424,533.0793553774893 451.9277590868716,535.3424864579388C462.7107992518357,538.2064572155932 470.8285927825725,542.8274704130696 478.55020877759966,550.4971822387809C490.53422485814036,562.4006425910738 495.970437826608,575.8202408602193 495.970437826608,593.5C495.970437826608,611.488317782312 490.5858549843784,624.5343753791536 477.9663445399033,637.1212878284923C469.5383821252792,645.5274796142944 461.8663099765313,649.8769394490479 450.9117999163906,652.4590809182921C443.0853353919612,654.3038953823942 428.7099311151519,654.2829801598505 420.174341007602,652.4143600338476zM552.6449455489482,652.4793198565741C532.6390686148011,647.4200725955529 515.5870607627131,630.4440075971423 510.5179098877671,610.5399012392525C508.54718212331494,602.8018054528413 508.53312971355376,585.2126335887534 510.49166795107766,577.6932975376944C515.9475337299211,556.7468143623327 532.942116978448,540.4042107986202 555.0,534.892481811856C564.2125727432732,532.5904837378724 580.0557368060385,533.2601109974071 589.5784105940734,536.3539731044693C607.3473032992986,542.1269844507392 621.1030265996077,555.5725077303476 627.0698934874999,573.0C630.1089991860392,581.8763486873526 630.831580679831,598.7954472564835 628.5811908360663,608.3867197365985C626.2039650009672,618.5185734660226 620.6441263609258,628.4233311835646 613.0370971499426,636.0782575432936C605.7386010802433,643.4227081035275 599.907346965701,647.1680094841047 590.1195702251423,650.797740444376C581.644638002958,653.9406118735528 561.9228043235469,654.825579495581 552.6449455489482,652.4793198565741zM647.0,593.5L647.0,535.0L658.9609187137969,535.0L670.9218374275938,535.0L687.5502003531418,559.75C696.6957999621932,573.3625 708.3008865409846,590.6759878330779 713.3392816393449,598.2244174068398C718.3776767377052,605.7728469806018 722.8271395197808,611.9603469806018 723.2269767106238,611.9744174068398C723.626813901467,611.9884878330779 723.9516883792558,594.7875 723.9489199945988,573.75L723.9438865679499,535.5L734.971943283975,535.2172488771694L746.0,534.9344977543386L746.0,593.4672488771694L746.0,652.0L733.25,651.9489589978509L720.5,651.8979179957018L695.5,612.8942169514698L670.5,573.890515907238L670.2383927268063,612.9452579536189L669.9767854536127,652.0L658.4883927268063,652.0L647.0,652.0L647.0,593.5zM451.114966585476,627.7321808972888C458.3705980415945,624.1823311935651 464.38054683804336,618.0037177112927 468.2773883341415,610.0881087102832C471.25944383652035,604.0306939040163 471.4996000312454,602.7940219389676 471.49464181687983,593.5210274775319C471.48995514094264,584.7558719588702 471.1540806736073,582.7833910648294 468.8145857471542,577.781934731268C465.2639676318138,570.1912957175945 458.2100046925844,562.8281794111723 451.2009320909332,559.3963291406095C446.28283922032847,556.9882846948063 444.2612527207079,556.5977753060221 436.4789725224681,556.5524916724296C428.26099495750634,556.5046727973128 426.8685130403997,556.7901764215632 420.83658536874475,559.7596846488354C412.86679788573815,563.6831981239076 407.8391990912244,568.9885581911083 403.66815702855513,577.8766223472119C400.88680991298247,583.8033886641606 400.56640301984896,585.4465717268765 400.62172963554906,593.5C400.7426157570848,611.0963719574345 409.20190534414127,623.7999301023641 424.41921194921076,629.2373627138982C431.9226359161481,631.9184785798556 443.94383301416576,631.2406896380426 451.114966585476,627.7321808972888zM585.3393503546529,627.1537024793698C598.2325133948316,620.8064191882776 605.2143691966062,609.4167959467221 605.3561180097238,594.5C605.5729748447809,571.6792857587019 590.8975098756524,556.5545283364519 568.5,556.5155241693856C561.8166791597579,556.5038854932978 559.5124906301817,556.9622180344021 554.5,559.3003030592615C537.2612264861008,567.3413591276961 529.0214334721135,586.8078626392709 534.8751285135039,605.6640441213947C540.0518205197407,622.3394334705933 553.0645135521524,631.4487051797696 570.6545310021145,630.7106888127682C577.3919876347688,630.4280084071913 579.9438794749298,629.8098840583756 585.3393503546529,627.1537024793698zM218.3466866798567,484.90523697631806C198.6566466138992,481.61564794870924 181.774701964486,467.5996535705418 174.34976537501842,448.37741897481067C172.15478793600022,442.6948962008121 171.61244146888907,439.3836819700561 171.22820227916398,429.3191881721793C170.82476813900067,418.7519152075694 171.05664106313515,416.17217668249 172.97864072303776,409.844411173972C177.53061610179049,394.85802309170055 185.13723612618628,384.39709316791954 197.49048536331588,376.1347361458804C206.7628434913258,369.93300477794554 215.62939198970162,367.03148203415805 227.5,366.31430948670027C242.23117291217528,365.42431355765433 254.32201298642428,368.7182296790713 264.89550920950217,376.5019945356588C271.0769761608755,381.0525314822972 281.4044075640908,393.53663782161857 280.3708224740987,395.20901362749095C280.04485093671417,395.73644665434426 276.35438681752316,398.3521377378439 272.1697910981187,401.0216604797124L264.5614352446561,405.8753381922007L259.448043819833,401.0393055701554C253.04053049060755,394.9793463548492 245.55870078658037,391.14260673486484 237.63799400582636,389.8549448528579C221.7448180985664,387.27120613278083 206.16757554165474,395.6999464836274 198.72430083214462,410.91088043678064C195.78056080299487,416.92665130460034 195.5,418.32663739123825 195.5,427.0C195.5,435.9200420902514 195.7089487750024,436.88537223870276 198.9226852141445,442.8125895968259C203.1541522739064,450.6168465674574 210.29759273631615,457.1792288611996 217.7983682950313,460.15289628575636C225.7694871868128,463.31303038125236 239.1918901626098,463.33857023101734 247.0,460.20846050089597C252.3538620981068,458.062207925559 259.2964988318852,452.44065965976586 263.76550388079346,446.63320186642466L265.9715871256582,443.76640373284926L273.472592143939,449.51170983553436C280.1756219563555,454.64581626445977 280.90922593708075,455.5358966532601 280.3685045738134,457.87850796910976C278.5594204943028,465.71615065142754 269.3101998670828,475.7250764470002 259.64968303550813,480.29911568370153C249.063428261989,485.3114711868282 232.1009059437939,487.20313625038796 218.3466866798567,484.90523697631806zM338.6751472020474,484.4422295056429C320.981461535603,480.4661681239765 306.77984950579184,469.3394965452068 298.47128068221537,452.9433251542321C292.3421093507901,440.8479877057983 291.06291480584906,421.2352035388811 295.489301190887,407.2232113647443C304.85756067252294,377.5674228448634 336.3949759675155,360.41688498485456 368.302594547347,367.6262078455568C389.1954354160186,372.34681195214904 406.44281422571555,388.6793302275721 412.5771410971128,409.55227954832264C414.9489091073434,417.62256900566365 414.94890910734324,434.377430994338 412.5771410971124,442.44772045167815C408.5195983705338,456.2541062987615 398.2957590470312,469.82527616778737 386.6821960031775,476.8207859409832C373.34630325610345,484.8537528861124 354.10205156653905,487.90890794893863 338.6751472020474,484.4422295056429zM788.3466866798567,484.90523697631806C766.2465493582156,481.2129961785143 746.7114989402378,462.84685268189827 741.5374400820481,440.89688677555966C738.2497305448688,426.9494010145892 740.4770341019504,409.5153839065541 747.1856482717831,396.6860481152885C751.8307702407687,387.8028677709059 762.826066666563,377.17973755597563 772.0983029406648,372.61663113019745C789.721508627337,363.9437974432178 812.4169997410331,363.77503128013115 828.2225189795124,372.1992852992712C837.7262265498664,377.2647086800718 852.1382345296561,393.43090809522374 849.3838110912548,395.93627383275265C848.8977149910646,396.3784166411472 844.8250045272349,398.62926485046177 840.3333433938553,400.93815874234053L832.1666867877105,405.13614763666556L827.9559211869105,400.56800635098193C825.5165580793473,397.92160985711985 820.9679877746497,394.63266984785537 817.1436052705872,392.74993253264915C811.0969239831259,389.7731611242009 809.7418000134053,389.5 801.021027477532,389.5C792.5105559601615,389.5 790.8631637157569,389.812222079481 785.5,392.44162333905365C778.222673000609,396.0094824969426 770.2916172575492,403.7350901878433 766.9613946685613,410.5C764.8199411211818,414.85008163203486 764.5,416.8648285727268 764.5,426.0C764.5,435.6226794484642 764.7442148088519,436.98197439227727 767.4228261989938,442.26839458514024C771.0805708801962,449.4872003492795 779.2521445336323,457.3104527504399 786.6926607656371,460.71683376430195C805.4479229735495,469.30327684203235 830.0373968057646,459.94801781410627 832.6026938814352,443.25L833.2556164434407,439.0L818.6278082217203,439.0L804.0,439.0L804.0,429.5L804.0,420.0L829.6134818660634,420.0L855.2269637321267,420.0L854.7782171771509,433.75C854.4181555563416,444.78261346795887 853.8722574332235,448.7845827242376 852.0159678230862,454.0C847.3787323871667,467.02874167489557 840.5129122592946,474.99323206805053 829.459805749416,480.16560480705016C818.216679805685,485.42689837013313 802.3900221144861,487.251438507754 788.3466866798567,484.90523697631806zM431.0,426.0L431.0,368.0L446.2811676234538,368.0L461.5623352469077,368.0L467.4425354788938,380.25C470.6766456064861,386.9875 477.84910866002684,401.6368403056634 483.38134226453997,412.80408956814085L493.43994881820015,433.1081791362817L509.722975903657,400.55408956814085L526.0060029891139,368.0L540.0030014945569,368.0L554.0,368.0L554.0,426.0L554.0,484.0L542.5113444178819,484.0L531.0226888357638,484.0L530.7613444178819,443.99080414245157L530.5,403.9816082849031L515.1480888418043,434.0341709714014L499.7961776836086,464.0867336578998L493.3398991060387,463.7933668289499L486.8836205284687,463.5L470.6918102642344,432.5L454.5,401.5L454.2389068186204,442.75L453.97781363724084,484.0L442.4889068186204,484.0L431.0,484.0L431.0,426.0zM578.0,426.0L578.0,368.0L589.5,368.0L601.0,368.0L601.0,426.0L601.0,484.0L589.5,484.0L578.0,484.0L578.0,426.0zM625.0,426.0L625.0,368.0L637.4166666666667,368.0C644.6151203196481,368.0 649.9734195887343,368.4110495522669 650.1666666666667,368.9780868010936C650.8567956519292,371.0031049557064 698.5329400682289,440.9209309914782 699.25,440.95957782289116C699.6625,440.981810020301 700.0,424.575 700.0,404.5L700.0,368.0L711.0,368.0L722.0,368.0L722.0,426.03275112283075L722.0,484.0655022456615L710.7873787035687,483.78275112283075L699.5747574071374,483.5L682.8814784380984,458.0C673.7001750051268,443.975 662.2083545885209,426.32694139705654 657.3440997345297,418.782091993459C652.4798448805383,411.23724258986147 648.275,405.04958261252034 648.0,405.03173648825657C647.725,405.01389036399274 647.6226512183663,422.7744489669362 647.7725582630362,444.4996444947975L648.0451165260725,484.0L636.5225582630362,484.0L625.0,484.0L625.0,426.0zM366.4591465382898,460.9294009921066C374.2003821559507,458.03303356684063 382.126322197378,450.5201212796555 386.22588690208306,442.1927229727762C389.2297666862558,436.09097675565226 389.5,434.75622418851526 389.5,426.0210274775319C389.5,417.68549023168873 389.15108235093214,415.7529229217206 386.69773774986027,410.5C378.4990953797625,392.94566359978165 358.2620663668494,384.4402435543596 340.5029321868724,391.0847871750788C332.6808588883385,394.01139985280554 324.1237960456784,402.1560574948446 320.4009364714698,410.2179729461901C317.8414053079374,415.76068102425893 317.5008628143228,417.61803566100224 317.50733137264973,426.0C317.5139192668082,434.53659982867293 317.82773920757717,436.1591685382764 320.601880788391,442.0C323.8320701728382,448.8010197873426 330.23816771667634,456.02837877670447 335.4404550429899,458.74087887273026C344.50033442308046,463.4647478455523 357.2740260601819,464.3659949757907 366.4591465382898,460.9294009921066zM402.0,223.1028272327216L402.0,201.0L411.9349003388255,201.0C422.51112796799123,201.0 426.1466196523937,201.86543736464927 429.75,205.240926466117C432.7862856987655,208.08518610469042 432.9362433927134,215.8427362502606 430.0061967494641,218.4943920188095C428.03018885152966,220.2826545890754 428.04421203607154,220.32643322327624 431.57736375854734,223.39937958092156C438.0126921608944,228.99648395898842 437.07969427739783,238.76029246349484 429.7330730960099,242.69985300555572C427.3203188777524,243.9936710861747 423.3918406871564,244.53151056053872 414.25,244.8196071422674L402.0,245.20565446544322L402.0,223.1028272327216zM443.0,223.0L443.0,201.0L454.1339804406108,201.0C467.21468695911767,201.0 472.1840645819396,202.2416040327483 475.66615740080385,206.37983622432873C477.89092530139055,209.02382264971217 478.15608725700264,210.10425010555662 477.7580875475865,214.90360337288246C477.3616391926894,219.68424934418925 476.8419364839441,220.79756728735038 473.76524239895184,223.45715922978974L470.22816804519,226.51471847721731L475.0938479377454,234.50735923860867C477.76997187865084,238.9033116573739 479.9686340684831,243.0625 479.9797639151504,243.75C479.99326295094113,244.5838468070212 478.3572744462307,245.0 475.0657426715545,245.0L470.131485343109,245.0L465.3157426715545,236.50659823483383C460.6166914346284,228.21900215831195 460.4091328358466,228.01303658623092 456.75,228.00659823483383L453.0,228.0L453.0,236.5L453.0,245.0L448.0,245.0L443.0,245.0L443.0,223.0zM482.0380809745044,243.75C482.0590255104818,243.0625 485.81226779309804,233.275 490.37861938031824,222.0L498.6810768116278,201.5L504.2196930219817,201.20370188817122L509.75830923233565,200.90740377634245L518.3791546161679,222.4561019114139C523.1206195772755,234.3078858857032 527.0,244.22872003602615 527.0,244.50240002324267C527.0,244.7760800104592 524.734008174477,245.0 521.964462609949,245.0C516.9488516617254,245.0 516.9212921485481,244.9821927668733 515.0,240.5L513.071074780102,236.0L504.17139529699847,236.0L495.27171581389496,236.0L493.55315013401605,240.5C491.8383098251591,244.99024525521762 491.8239251362048,245.0 486.9172922270686,245.0C483.62981525901137,245.0 482.01262177443584,244.58569290176624 482.0380809745044,243.75zM533.0,223.0L533.0,201.0L538.25,201.01298971862758L543.5,201.02597943725516L553.4983614686168,214.01298971862758C558.9974602763562,221.15584537338242 563.8349602763561,227.0 564.2483614686168,227.0C564.6617626608776,227.0 565.0,221.15 565.0,214.0L565.0,201.0L570.0,201.0L575.0,201.0L575.0,223.0L575.0,245.0L570.5917841593667,245.0L566.1835683187335,245.0L554.8417841593667,230.79895147227774L543.5,216.5979029445555L543.2225433993267,230.79895147227774L542.9450867986534,245.0L537.9725433993267,245.0L533.0,245.0L533.0,223.0zM583.0,222.8971727672784L583.0,200.79434553455678L595.3297526399879,201.1471727672784C606.9873782254421,201.48076646502062 607.9234885100427,201.66353784398407 612.5021133938399,204.5C618.8380440707858,208.42511464564302 622.002081256402,214.22742145756592 621.9944230655973,221.9072837448635C621.9860089357077,230.34522430652922 620.4994236262248,234.2849273410422 615.630392433025,238.77304357374305C610.4241055653491,243.57203123181105 604.9938847227069,245.0 591.9507788970996,245.0L583.0,245.0L583.0,222.8971727672784zM424.6498577018857,234.46417034440555C427.8467901171454,230.09210475124283 425.08287030681083,226.83727311756326 417.6498577018857,226.2208698873642L412.0,225.7523397337492L412.0,231.5L412.0,237.2476602662508L417.6498577018857,236.7791301126358C421.6026626626251,236.45133277451046 423.70525883669495,235.7559862671095 424.6498577018857,234.46417034440555zM606.1484801312702,233.89427282093035C611.6728089823731,229.9606037119141 613.3895170355706,222.73044803585012 610.3300353744808,216.28306902878796C608.0961047784542,211.5754097506723 603.659816075564,209.00838884984077 597.75,209.00373806043757L593.0,209.0L593.0,223.139290952463L593.0,237.27858190492603L598.0353408352499,236.68222026874815C600.8047782946375,236.35422136885032 604.4556909778465,235.0996450173323 606.1484801312702,233.89427282093035zM508.35003853243774,222.25C506.941854912059,218.5375 505.4743144608493,214.67121016636378 505.08883752974947,213.65824481414177C504.43626986321703,211.9434121410381 502.9419829287516,214.99359338697133 498.43022266292485,227.25C497.85805285626077,228.8043258925544 498.5197639548538,229.0 504.34819738965155,229.0L510.91037238767177,229.0L508.35003853243774,222.25zM464.49481670510966,219.3636154163521C467.24160036932415,218.30957562581426 468.29786637144247,214.10354685391218 466.5035151776906,211.3650207888552C465.16026654416146,209.3149642516619 464.1579075296046,209.0 458.97694702014576,209.0L453.0,209.0L453.0,214.5L453.0,220.0L457.9182125317642,220.0C460.6232294242345,220.0 463.58270130223997,219.71362693735844 464.49481670510966,219.3636154163521zM420.75,216.7519210552498C421.4375,216.20367528787602 422.0,214.74031081301362 422.0,213.5C422.0,210.5726828576182 420.3234120001123,209.27203931221695 416.0,208.8453911915569C412.5900902173192,208.50889039071643 412.49184980559795,208.59923209268678 412.1833653946465,212.35516135645543C412.0092163617021,214.47550010250592 412.08003364467794,216.76618104384033 412.3407371345928,217.44556344830966C412.8773858743228,218.84404764686104 418.73206312050235,218.3611215687218 420.75,216.7519210552498zM488.31981231265155,175.9289931791171C481.280051074205,173.69789810506424 470.7252826609295,168.01824366717975 466.94528113888543,164.42708749200722C463.548695931629,161.2001925105092 462.6882696083041,161.34165712242032 459.0789300131339,165.72041183482935C456.18235220525645,169.2344629213702 455.91714403515414,169.3457154637256 454.2975768588865,167.72614828745793C452.6780096826189,166.10658111119022 452.799861181494,165.78928600538964 456.4943985038286,162.00573645262858C458.64572186875716,159.80258140368286 460.0593505438678,158.0 459.6357955596301,158.0C459.2122405753924,158.0 457.38027939445254,159.575 455.56477071309706,161.5C452.2211637566632,165.04525619030903 449.67582094351724,165.90251825129477 448.4383008795311,163.90016872600538C447.58172748363114,162.5142038575803 451.4090267104968,157.40155446734386 453.01601529783056,157.78508666889587C453.67299289137947,157.94188433678858 454.81908924358396,157.5651057360252 455.56289608050724,156.94780088942167C456.68097924167387,156.01987428263092 456.57612074167645,155.4613921391236 454.9576360738202,153.7241527738937C453.8809362332191,152.56845115695683 453.0,150.9896964824501 453.0,150.21580905276767C453.0,149.44192162308525 452.17856808683865,147.61427427406971 451.1745957485303,146.15437049939982C448.7091056875345,142.56923362946998 447.32531675572176,138.80089377784986 445.4495048753163,130.56377890287843C443.08610662961894,120.18556185005417 442.0481666680386,109.01979050575137 443.0266863490445,104.5C443.5029790655927,102.3 444.60841486361704,97.01109703589916 445.48321034465425,92.74688230199811C448.4200309402923,78.4312691944681 453.2756270865686,70.11602404158661 463.73715021390535,61.48687211042078C478.6843298315649,49.157741610659116 495.3937273811903,43.48078112289582 514.5,44.24036806226111C527.2381865392775,44.74678604966638 540.5417990574298,48.450889966521295 544.7551791018673,52.66427001095822L547.250276964582,55.15936787367248L543.7682143600626,58.82968393683624C541.853079927577,60.84835777157631 539.9876289749354,63.348119263363316 539.6227677986368,64.3847094741407C538.8690170462768,66.52615587079183 544.7067855318105,61.544075936204635 550.6177296852031,55.001367340523224C554.2914939449045,50.93494945926834 557.0,49.842618358093034 557.0,52.42741985096723C557.0,53.21250076899921 555.8063019533085,54.793802722308186 554.3473376740191,55.94142419165384C552.8883733947296,57.08904566099949 551.9009343572836,58.2342676906182 552.1530287019172,58.48636203525098C552.4051230465507,58.73845637988375 554.3051968181614,57.54853015149398 556.3754148610524,55.84208152771816C561.3449140988905,51.74580038265474 563.1344840458844,53.2394262088063 559.5629010560933,58.502447896415816C556.1760360335813,63.493272446044706 556.3273820918481,65.24959158337798 560.4128422312508,68.36572394491688C562.2899054584387,69.79742986476711 565.8356951875131,74.01333985346317 568.2923749625272,77.73441280868592C581.2075306352729,97.29668420242962 581.6289498807374,121.88829762762391 569.4629950521046,146.04509633933228C563.6089285347382,157.66896873545141 549.6897663163378,168.36827355271444 537.5343179301565,170.58785570800293C533.6654430685704,171.2943113919893 527.35,172.60257185707903 523.5,173.49510118598008C519.65,174.38763051488112 513.8,175.07152694155428 510.5,175.01487102303156C506.555879540178,174.94715654805714 503.8147068199407,175.43003322052476 502.5,176.4241267591701C499.8367986054936,178.43786188112648 495.7901999242394,178.29656566303237 488.31981231265155,175.9289931791171zM517.75,176.33771929824562C518.4375,176.06030701754386 519.5625,176.06030701754386 520.25,176.33771929824562C520.9375,176.61513157894737 520.375,176.8421052631579 519.0,176.8421052631579C517.625,176.8421052631579 517.0625,176.61513157894737 517.75,176.33771929824562zM524.2690318893704,175.3070092793149C525.2419994285241,175.05346586846082 526.5919994285241,175.0701401603852 527.2690318893704,175.34406326136906C527.9460643502166,175.61798636235292 527.15,175.82543097123352 525.5,175.80505128110372C523.85,175.78467159097394 523.2960643502166,175.56055269016898 524.2690318893704,175.3070092793149zM517.4584463224129,149.46880779434568C520.6917004365622,148.6266520812358 525.9621874809554,146.53845329166236 529.1706397543979,144.828366039738C546.5350814736398,135.573214991785 554.2152749462947,113.77051557850417 546.8992512910193,94.5C544.583474436953,88.40020917845924 544.5768109076649,88.73090965866449 547.0,89.5C550.0020398792219,90.45281044418566 549.4067569527111,88.42582491882808 545.9647529901456,85.97490191522142C542.6109216455003,83.58676335343972 542.5038241038845,83.62445627044806 536.25,89.39400353688274C532.6953472696576,92.67339493049937 532.1913176008952,94.0 534.5,94.0C537.3708979769644,94.0 535.9468463675088,95.91352686463492 527.2939607384956,103.68290027056933C516.1948042617097,113.64876539998968 512.3606225942169,117.61476288247543 509.45742466557897,122.13264086611909C508.1735361869832,124.13059334248459 502.1604119845067,130.85811679464348 496.0949264378535,137.0826929820277C485.47006243822847,147.98623482341466 483.4796493947748,150.59093277098083 487.865465331804,147.8519453856943C489.55071876615443,146.7994871968486 490.7969710764307,146.81089967329507 494.71284408005886,147.91464982205937C506.7644733033055,151.3115903090686 509.63143998051186,151.50748396227613 517.4584463224129,149.46880779434568zM459.5,142.0C460.4954863183233,140.9 460.8599751242242,140.0 460.3099751242242,140.0C459.7599751242242,140.0 458.4954863183233,140.9 457.5,142.0C456.5045136816767,143.1 456.1400248757758,144.0 456.6900248757758,144.0C457.2400248757758,144.0 458.5045136816767,143.1 459.5,142.0zM470.6827678766807,131.5083696551892C472.3272920245595,130.68797296554322 475.6456922695882,127.65047296554323 478.0569906434113,124.75836965518918C488.2641927217801,112.51588517430807 525.2596678002927,75.25318211422494 526.8545886189053,75.60829388113189C527.7595648785074,75.80978834706764 530.525,74.12259487316253 533.0,71.85897505023163C537.3863134783775,67.84727964043603 537.4084717582521,67.79714882422836 533.8770807481194,69.87467058111017L530.2541614962387,72.00603851731759L523.4997488853701,69.46368445474161C519.7848219493925,68.06538972032483 516.4651356127388,67.22563819678541 516.1226681372508,67.59756995798735C515.7802006617628,67.96950171918928 516.0625,68.47470238095201 516.75,68.72023809523785C520.0316378218712,69.8922516030496 517.1681816818561,70.77099399156981 508.60848062085586,71.2187216883461C496.69658815668186,71.84179066461337 488.9204619560755,75.19162828039599 481.2934162354352,82.98563850467436C470.0518086594411,94.47333735870288 465.70255887445205,108.58525739297819 469.44068331077983,121.44395372898086C471.08605299961306,127.10382662768885 471.0772970031609,127.28881866784216 469.0625268133123,129.43344325720156C465.6400738491047,133.07647749502542 466.17253942492255,133.7583679274202 470.6827678766807,131.5083696551892zM893.75,128.42802510772C889.8727844948453,126.32460096905452 890.3119120055173,125.59869792267017 894.25,127.60149633334039C898.0195238543059,129.51856786525246 898.6866538765101,130.0154321280843 897.4166666666667,129.9599623693448C896.9125,129.93794167248444 895.2625,129.24856990475328 893.75,128.42802510772zM884.75,123.42802510772C881.0115591131504,121.39988744244995 881.2391165025621,120.55517155916492 885.0,122.5C886.65,123.35324816085475 888.0,124.26480422665897 888.0,124.5256801462316C888.0,125.1691774778721 887.8925533401074,125.13288844168677 884.75,123.42802510772zM878.4411296351049,119.44483377901597C876.5771052575565,117.95144163527208 876.5893741594402,117.93297827488126 878.75,118.98001753750395C879.9875,119.57971002621358 881.0,120.2795348256564 881.0,120.53518375848799C881.0,121.30040375041442 880.4813921275269,121.07942183164953 878.4411296351049,119.44483377901597zM872.5070792067986,116.0114543972137C872.156740408483,115.44459431396118 872.5581370729171,115.27694688340966 873.4480622124238,115.61844320139804C875.180479451647,116.28323407216985 875.497449098925,117.0 874.0590169943749,117.0C873.5414763412812,117.0 872.8431043368719,116.55515447874616 872.5070792067986,116.0114543972137z"/></svg>