<svg version="1.1" xmlns="http://www.w3.org/2000/svg" xmlns:xlink="http://www.w3.org/1999/xlink" width="1024" height="1024" viewBox="0 0 1024 1024"><path stroke="none" fill="black" fill-rule="evenodd" d="M535.25,856.9688379036357C532.6709191006092,855.9321740487376 532.482493032537,855.0899922194167 534.2797244121534,852.6321318529392C535.3461293241236,851.1737362353938 536.0369069583464,851.0635336946807 538.4237665701583,851.9710161016338C542.0264433111444,853.3407513571995 547.3477586529143,851.7692924547804 549.4968987291318,848.700965185408C551.0316970359213,846.5097336552617 551.6076176191219,841.5372852369989 550.25,842.1987540605528C549.8375,842.3997354605234 548.2638271636107,843.1838625234536 546.7529492524682,843.941258644842C542.7294209048445,845.9582348295573 536.5488580919787,843.9170738306138 533.8970347817612,839.6955302188262C530.846302206523,834.8389469899785 531.639359450639,826.0296404325878 535.4890442627986,822.0114353255713C539.0515071882062,818.2930252689308 543.8182094316479,817.2639615523041 547.944572609938,819.3224626063097C549.625057674472,820.1607989638035 551.0,820.4312006599949 551.0,819.9233552645128C551.0,819.4155098690308 552.125,819.0 553.5,819.0L556.0,819.0L556.0,834.6176470588235L556.0,850.2352941176471L552.1176470588235,854.1176470588235C548.5454097446012,857.6898843730459 547.8065357697749,857.9949368121362 542.8676470588235,857.9366136995809C539.9154411764706,857.9017512343504 536.4875,857.466252126175 535.25,856.9688379036357zM327.0,826.0664223456972L327.0,806.0L330.0211399273576,806.0L333.0422798547151,806.0L332.7711399273576,825.75L332.5,845.5L329.75,845.8164223456972L327.0,846.1328446913944L327.0,826.0664223456972zM342.5,844.8452676412157C337.34627765900444,842.026400587434 336.4679023881139,836.441188520977 340.53818220658434,832.3709087025065C342.82333901759625,830.0857518914947 343.72073690645675,829.8659859565486 349.5402799943543,830.1663632479612C355.15743657161704,830.4562943048559 356.0039207698652,830.2707537732736 356.00209778776997,828.75C355.9996153124633,826.6790889912926 352.57462370765285,823.0 350.6492232652266,823.0C349.9062960611012,823.0 347.812487647331,823.5180080564072 345.99631567907056,824.1511290142382C343.11474720630895,825.1556491937222 342.5160405905287,825.0601285138456 341.29544920266903,823.4011290142382C340.01363641435637,821.6589188073239 340.2144997986093,821.3559064297791 343.69835678882504,819.7762237413857C350.06344041639215,816.8901085980597 356.52311003806557,817.7518577354024 359.7181966281296,821.9133428156447C361.24844413827566,823.9064350223955 361.49448313470845,846.0 359.9864311555617,846.0C359.4289682911207,846.0 358.112310513616,845.4625765076327 357.06052498332906,844.8057255725171C355.57824489442527,843.880026335873 354.5587293208685,843.880026335873 352.5270408066415,844.8057255725171C349.294646628458,846.2785029211724 345.15025869488045,846.2948464940713 342.5,844.8452676412157zM373.5,845.0546432346931C368.6026751266864,843.0502069399165 367.51899112079946,840.3744281184844 367.1589750072509,829.3976986921894L366.81795001450183,819.0L369.9089750072509,819.0L373.0,819.0L373.0,827.2774937565946C373.0,838.6150639730201 375.85118884888226,842.2907438620882 382.06574145408933,838.9648162415119C383.7689296434365,838.0532975849247 384.0,836.7989467903807 384.0,828.4648162415119L384.0,819.0L387.0,819.0L390.0,819.0L390.0,831.5C390.0,838.375 390.1125,844.3313372306355 390.25,844.7363049569678C390.3875,845.1412726833001 389.68060601464407,845.6304107771041 388.67912447698683,845.8232784987543C387.50252970649984,846.0498699476794 386.666614605305,845.4411362085224 386.3166492034129,844.1028664558412C385.7751429514118,842.0321433671506 385.7746140035811,842.0321283525557 383.2526660346248,844.0158929140546C380.63620412947216,846.0740021486006 376.9498381388586,846.466634669918 373.5,845.0546432346931zM398.0,832.4400872112533C398.0,820.1644476744907 398.15595180158715,819.0 399.80000000000007,819.0C400.7900000000001,819.0 402.09189406206895,819.4918940620689 402.69309791570873,820.0930979157088C403.48389513665364,820.8838951366537 404.5059249384576,820.7146112082604 406.38868534072975,819.4809792123949C410.0249023534706,817.0984383190266 415.1661875496947,818.220358387048 418.43971908184164,822.1107295721854C420.82404570493384,824.9443407652782 421.0,825.8611954271798 421.0,835.4517252819435L421.0,845.75L418.5,845.75C416.0211267605634,845.75 416.0,845.675 416.0,836.875C416.0,827.1455864524388 414.45863323106744,824.0 409.69112963510486,824.0C404.75310758158383,824.0 403.81345378259215,825.8724079399542 403.6507570378122,836.0363921516504L403.5,845.4544794907522L400.75,845.6673269566293L398.0,845.8801744225065L398.0,832.4400872112533zM435.0199333001233,844.2978515008804C421.3976841757578,837.2604056282266 426.75591509287773,816.7701344884981 441.81226504728556,818.3234727697097C444.4866361818417,818.5993831380297 447.06644380937536,819.6532438858186 448.6044108477396,821.0980888984329L451.08429160090805,823.427815900843L448.834270228466,825.1250102008036C446.86941658465014,826.6071020801894 446.32891454692566,826.6433613890811 444.5696181846065,825.4111022503821C441.3544898490087,823.1591387049064 437.4064098268718,823.6678750435659 435.0725801490329,826.6348586918014C432.2673062252411,830.2011865775698 432.4181179328888,834.5090270237979 435.4545454545455,837.5454545454545C438.27026731079684,840.3611764017058 439.98882354006537,840.5742599620019 443.8362147937862,838.5846966218044C446.26871256055176,837.3268031395158 446.8327597016497,837.3652475811762 448.9076737364187,838.9303581689462L451.24223773903327,840.6913230942839L448.1306201161061,842.9069902734627C443.7966485022688,845.9930502666695 439.237510461728,846.4767112998429 435.0199333001233,844.2978515008804zM456.71257632355133,845.379242990218C456.3206593455981,844.9873260122647 456.0,835.9666666666666 456.0,825.3333333333333L456.0,806.0L459.5,806.0L463.0,806.0L463.0,813.5256801462316L463.0,821.0513602924632L465.9503400731158,819.5256801462316C469.626698082207,817.6245615341705 471.34741858493294,817.6111767425587 474.91481496675306,819.4559491073028C479.4896044839457,821.8216647084193 481.1226301168276,826.6247393897456 480.7891709715959,836.7336758176696L480.5,845.5L477.59545917065157,845.5L474.69091834130313,845.5L474.9034824727971,837.458623367226C475.0855287485963,830.5717480604367 474.81015563289856,829.028369380255 472.98544315311267,826.708623367226C470.66192049531156,823.7547429716423 466.05683363931513,823.0216670794763 464.1625625502751,825.3041241098501C463.56728276594,826.0213923702677 462.94968264399097,830.8588923702678 462.7901178348329,836.0541241098501C462.50508714795205,845.334368789434 462.45550687303785,845.5051887061886 459.96257632355133,845.7959096568846C458.56699330150457,845.9586599681712 457.1044933015046,845.7711599681712 456.71257632355133,845.379242990218zM489.0,832.2818921534144L489.0,819.0L491.5,819.0L494.0,819.0L494.0,832.4887984791601L494.0,845.9775969583201L491.5,845.7706906325745L489.0,845.563784306829L489.0,832.2818921534144zM501.0,832.5L501.0,819.0L504.0,819.0C505.65,819.0 507.0,819.442719618789 507.0,819.9838213750868C507.0,820.5249231313844 508.52751510198357,820.2392215671938 510.394478004408,819.3489290102186C514.726703750766,817.2830345395195 518.419261506627,818.1668068986709 522.1522932475862,822.1630304550603C524.9068002240817,825.1117398230878 525.0,825.5538673299806 525.0,835.6721776005518L525.0,846.1328446913944L522.25,845.8164223456972C519.5031210136638,845.5003591121689 519.4996684809978,845.4898223294654 519.2078906553513,836.5322103694987C518.8883247956719,826.7215026492672 517.6008620363571,824.0 513.2792709837986,824.0C507.6389215188532,824.0 507.0,825.2245908651643 507.0,836.0351837584881L507.0,846.0L504.0,846.0L501.0,846.0L501.0,832.5zM562.0398690376985,844.5480392515706C559.3921863354021,841.35777676326 563.2987290885675,836.3431811179734 566.4161774596279,838.9304334702806C568.2973429975664,840.4916622008963 568.469877147226,843.1301228527741 566.8,844.8C565.1967072126231,846.4032927873769 563.5052900782663,846.3137635852491 562.0398690376985,844.5480392515706zM581.0,844.2484460009207C578.624453821002,843.0617276533003 576.7327114376742,840.9525005256817 575.1117205366894,837.6832186800807C573.0067860689667,833.4378993279952 572.8584358966647,832.4158647975446 573.8612955233503,829.0686176887866C576.4033255498013,820.5840776494848 583.1928681769817,816.5427802946862 590.983682976781,818.8769651838929C596.0919782407392,820.4074476714301 597.686109563121,823.0691042549051 594.9678219007507,825.5291207795931C593.1340812865506,827.1886332275839 592.8753952774284,827.1972094001164 591.171259328416,825.6549875621121C587.5590511087721,822.3859840515754 580.8459100694461,824.4934898182512 579.646303864968,829.2731016398013C578.7062329795642,833.0186423849209 580.3768381051775,837.3773544164359 583.296117108996,838.7956899855587C585.4138459441779,839.8245913439991 586.7838597346388,839.8454329439281 589.9497483658882,838.8969096387452C593.1180602761716,837.9476603015041 594.2535264183124,837.9655188081871 595.4805986891843,838.9838983421469C597.3378829453042,840.5253073692078 596.1588439080311,842.3493782328428 591.8724927074654,844.5659365835459C588.2105764985654,846.4595870504842 585.2533495105996,846.3732322701568 581.0,844.2484460009207zM609.3885621663845,844.0952250577657C604.8168445845379,841.3074739139332 602.0,836.8220636958789 602.0,832.3300277800225C602.0,821.5254181255654 612.998295289021,814.6530215751181 621.75,819.9890396264473C625.4030657916376,822.2163571206513 625.8565787637245,823.9839641307536 623.2005488306982,825.6426822771493C621.8282321872491,826.4997082055041 620.9520712035844,826.4381219695174 619.5094191955932,825.3832290659207C612.0923811371673,819.959758422827 603.8883070767182,830.9792161676274 610.4545454545455,837.5454545454545C613.1411081387843,840.2320172296934 615.0604529867286,840.5731978188147 618.1588822226236,838.9149688149394C620.6979288738672,837.5561122851504 625.0,838.5520672712989 625.0,840.4987281628078C625.0,842.2452716607047 618.0237590977538,846.0015411741226 614.7898380672964,845.9962619395624C613.5304271302834,845.9942060063217 611.099852974873,845.1387394095132 609.3885621663845,844.0952250577657zM638.0710848547451,844.2978515008804C627.9621139927887,838.9975079033801 627.5155163578326,825.924212264032 637.2408599576277,819.9945980180653C645.7099438816688,814.8309346296234 656.0,820.9060547087631 656.0,831.0697590306268C656.0,837.3876009620277 654.7934861823067,840.2987995803616 651.0789404500838,842.9437894415203C646.7943880229421,845.994659869924 642.2162128642805,846.4712282972112 638.0710848547451,844.2978515008804zM662.0,832.5L662.0,819.0L664.5,819.0C665.875,819.0 667.0,819.4233135858208 667.0,819.9406968573794C667.0,820.458080128938 668.2375,820.2358524626468 669.75,819.4468575989542C673.2580108104372,817.6169055254252 675.3838283144473,817.6300049454346 679.0075479304535,819.5039031865319C681.6278179382391,820.8588974684021 682.2652833823804,820.84113792219 685.4456203541725,819.3245409234053C690.0553303744503,817.126323425062 695.4751297025095,818.3790088069238 698.4041744394981,822.3196686560343C700.2100470120032,824.7492421784916 700.5,826.5477644004729 700.5,835.3196686560343L700.5,845.5L697.8484694826188,845.8069204697557L695.1969389652376,846.1138409395114L694.8484694826188,836.4752642671524C694.5540597346064,828.3319660133656 694.1988632917818,826.61665314962 692.5588703648951,825.4183437973966C690.023604661427,823.5658769037715 687.5221775786788,823.6206795641783 685.5714285714286,825.5714285714286C684.3650793650794,826.7777777777777 684.0,829.3333333333334 684.0,836.5714285714286L684.0,846.0L681.0,846.0L678.0,846.0L678.0,837.2225062434054C678.0,825.3557789489868 675.2479900395231,821.6561772076523 668.9342585459107,825.0351837584881C667.2205756051569,825.9523190355774 667.0,827.2067178654835 667.0,836.0351837584881C667.0,845.9976544161008 666.9994115335792,846.0 664.5,846.0L662.0,846.0L662.0,832.5zM354.1351756520886,839.23125C354.5188972607373,838.8290625 354.9829597607373,837.6 355.1664256520886,836.5C355.4621157694106,834.7271411505508 354.94452478263713,834.5 350.60898649570066,834.5C346.96599506522875,834.5 345.43499695279615,834.9614859732533 344.60898649570066,836.3085690746673C343.71836767602565,837.7610174686066 343.89381485143815,838.4131932004623 345.5,839.6206622040863C347.4566371736517,841.0915877325898 352.58071905083835,840.8605119446605 354.1351756520886,839.23125zM648.5454545454545,837.5454545454545C651.5818820671112,834.5090270237979 651.7326937747589,830.2011865775698 648.9274198509671,826.6348586918014C644.8209259066904,821.4142976114706 636.0,824.4642572686173 636.0,831.1046966015089C636.0,838.8858205453828 643.4039479492909,842.6869611416183 648.5454545454545,837.5454545454545zM548.3687469197969,837.7196330135332C549.7447592847925,836.713468206598 550.0533902406903,835.2678946082464 549.8098765549017,830.9696330135332C549.5016203770117,825.5286012847937 549.4797430290519,825.4949976803848 545.6261111921631,824.54336980982C542.0644661115651,823.663846059961 541.5607027378472,823.8093944782518 539.3761111921631,826.3491335111464C536.4519339747058,829.748692130216 536.3560811426432,832.9116724415808 539.0725801490329,836.3651413081986C541.3565048094625,839.2686810076214 545.437173214579,839.8632520435384 548.3687469197969,837.7196330135332zM489.57142857142856,812.4285714285714C486.8534053252342,809.7105481823771 488.35961048690297,806.0 492.1809479717851,806.0C494.44136072176684,806.0 495.6830025402312,810.4721059977563 493.989222589307,812.5129859854526C492.4213057713057,814.4022101756934 491.5279981277776,814.3851409849204 489.57142857142856,812.4285714285714zM420.5723781048207,781.6765825804514C418.9921635523925,780.5211014884882 418.93439387986365,780.077914407678 420.11712585508053,778.1840594837724C421.11101270252107,776.5925936747202 422.00812214723766,776.2080138771502 423.4858773853647,776.739917089318C429.74844478856545,778.9940655654908 436.3760047284094,775.7049104128837 437.2248309602133,769.9214876292583C437.7251446457843,766.5126326013667 437.6707597587665,766.4907003160694 434.03832074444006,768.6364348326538C429.3059259441645,771.4319292178333 422.1297212292105,768.8479376094157 419.1468207635289,763.2743371060881C417.2030607013639,759.642388207533 417.753918315287,752.6609270275801 420.28001531922644,748.9124519292775C423.2563343421968,744.4958924207514 426.6225208258727,742.798951504689 431.0,743.5083601736414C432.925,743.8203232083955 436.4125,744.0405375808215 438.75,743.9977254456991L443.0,743.919885200022L443.0,757.7480528409196C443.0,770.1006744973914 442.7599119022004,772.0519671749956 440.75,776.0347091343659C439.5125,778.4868778932678 437.375,781.0505944737803 436.0,781.7318570910603C432.6809471463316,783.3763273703192 422.84874168889047,783.3411002725488 420.5723781048207,781.6765825804514zM252.0,752.0L252.0,733.0L265.0,733.0L278.0,733.0L278.0,735.5C278.0,737.9912280701755 277.96666666666664,738.0 268.5,738.0L259.0,738.0L259.0,742.9561904472794L259.0,747.9123808945587L266.2029945765422,748.2061904472794L273.4059891530845,748.5L273.4059891530845,751.5L273.4059891530845,754.5L266.2029945765422,754.7938095527206L259.0,755.0876191054413L259.0,760.0438095527206L259.0,765.0L268.5,765.0L278.0,765.0L278.0,768.0L278.0,771.0L265.0,771.0L252.0,771.0L252.0,752.0zM283.57685144151895,768.25C284.5706306611867,766.7375 286.69490051501487,763.3942689440905 288.2974511166926,760.8205976535345L291.21117948337945,756.141195307069L287.10558974168976,750.407805983389C284.84751538376037,747.254441855365 283.0,744.2976729112745 283.0,743.8372083298545C283.0,743.3767437484346 284.29020118491053,743.0 285.86711374424556,743.0C288.1042339878406,743.0 289.3158716211724,743.8789236240314 291.3813022366402,747.0C292.8371933481222,749.2 294.1871933481222,751.0 294.3813022366402,751.0C294.5754111251582,751.0 295.92541112515823,749.2 297.3813022366402,747.0C299.28984050748306,744.1160039629747 300.7219208582132,743.0 302.5141884923946,743.0C303.88138482157757,743.0 305.0,743.3767437484346 305.0,743.8372083298545C305.0,744.2976729112745 303.16960894545156,747.230528008036 300.93246432322564,750.3546641004355L296.8649286464513,756.0349115411618L301.93246432322564,763.0021418743343C304.71960894545157,766.8341185575791 307.0,770.2012634608177 307.0,770.4846861037533C307.0,770.768108746689 305.6716183053523,771.0 304.0480406785607,771.0C301.6747676097618,771.0 300.48914219457606,770.117844166087 298.0,766.5C296.2971552535832,764.025 294.58803694823087,762.0008046378135 294.2019593214393,762.00178808403C293.81588169464766,762.0027715302464 292.2211791664705,764.0277715302465 290.65817592548996,766.50178808403C288.31284035372335,770.2141278134651 287.2881780508843,771.0 284.79316599200604,771.0L281.7699801330321,771.0L283.57685144151895,768.25zM317.24085995762766,769.0054019819347C307.804098323366,763.251738304336 307.804098323366,750.8592317394811 317.24085995762766,744.9360533325536C321.468208903549,742.2826704279648 328.096018831461,742.8021257337037 331.56226504728556,746.0584949747209C334.5304485421541,748.8469585842183 334.5538273910959,749.1730354922548 331.90420798964595,750.8277501954208C330.13808503938844,751.9307122328328 329.5358223471372,751.889900121773 328.0754673180619,750.568296984192C321.5639180543468,744.6754258904496 312.4528025536234,755.2207518137011 317.98225635903833,762.2503132166266C320.31437384144493,765.2151201610955 325.5428206213203,766.0571793786798 327.7728743112225,763.8271256887774C328.662269343404,762.9377306565959 329.5565453305373,762.9325489819694 331.47287431122254,763.8056868976277C334.77372882263546,765.3096568615719 334.6561605254374,766.043997395931 330.68128724083516,768.75C326.5926541794491,771.5334476520427 321.54451910471516,771.6293749373881 317.24085995762766,769.0054019819347zM340.0,756.9335776543028L340.0,742.8671553086056L342.75,743.1835776543028L345.5,743.5L345.77821955426384,757.25L346.05643910852774,771.0L343.02821955426384,771.0L340.0,771.0L340.0,756.9335776543028zM358.3997040001114,770.234687225483C356.0043202079481,768.6352468272543 355.0,764.7794102251714 355.0,757.1823728180503C355.0,750.0742666442056 354.7884030019088,749.1779288699104 353.0,748.7102509790709C350.3430791528259,748.0154505696513 350.1044614526752,742.7619595380585 352.75,743.2061632392728C354.14522725193854,743.4404312713801 354.5612824280682,742.6600159756074 354.8022899862104,739.3565812883905C355.05699948964264,735.8653372158477 355.48984984396674,735.1395135742719 357.5522899862104,734.745253159873C359.8423595589825,734.3074786226778 360.0,734.5543396613135 360.0,738.5783066097564C360.0,742.8264654315198 360.04603972993687,742.8830799119697 363.75,743.189634738274C367.0005692635397,743.4586650796705 367.5,743.8329538243069 367.5,746.0C367.5,748.1343878089863 366.98814293258073,748.5430638516987 364.0,748.7944640028222L360.5,749.0889280056444L360.6642768281175,755.5998813522812C360.8840458531361,764.3102143026383 361.3708441709181,765.3758311658164 364.81544150921445,764.6869116981571C366.9141150954296,764.2671769809141 367.91187310043875,764.6292396702046 368.8657767364308,766.1566821811114C369.9381680074232,767.8738535533912 369.85416302877894,768.3936075930425 368.31573550343626,769.5598870558399C366.3748443085648,771.0312735870959 360.21998410444996,771.4501206539364 358.3997040001114,770.234687225483zM375.0,757.1666666666667L375.0,743.3333333333334L378.0,743.3333333333334L381.0,743.3333333333334L381.0,757.1666666666667L381.0,771.0L378.0,771.0L375.0,771.0L375.0,757.1666666666667zM388.8041156033604,757.4983164556456C388.50408581840156,744.17802915163 388.52943603873996,743.9966555298497 390.69098300562507,743.9983164556456C391.89602365871883,743.9992424050406 393.1375300107169,744.4135112374381 393.44988601006526,744.9189138609737C393.7713639671227,745.4390761221265 395.33980856456367,745.1783259920488 397.06433039450235,744.3180212027705C401.30286530453805,742.203561519325 406.249999329021,743.3199630274995 409.43971908184164,747.1107295721854C411.8283955207418,749.9495102276505 412.0,750.8520772721794 412.0,760.5767252819435L412.0,771.0L409.5,771.0C407.0200240787547,771.0 407.0,770.9284946567311 407.0,762.0725801490329C407.0,753.6192183067657 406.8600854574454,753.0351035028524 404.3651413081987,751.0725801490329C401.3575753195633,748.7068283975829 398.2892832644269,748.464455401182 395.75,750.3920459704859C394.29623213694174,751.4956129738389 394.0,753.3522600170091 394.0,761.3602425986154C394.0,770.9191088260445 393.9794755768257,771.0 391.5541156033604,771.0L389.1082312067208,771.0L388.8041156033604,757.4983164556456zM463.0,757.5L463.0,744.0L465.41666666666663,744.0C466.74583333333334,744.0 468.01152328160185,744.5345698448056 468.22931099615226,745.1879329884569C468.51013925393534,746.0304177618059 469.3260710304592,745.8850188973647 471.03515057289104,744.6879329884569C474.0873274726445,742.5501050714539 477.41699925396966,742.5425408403084 481.0104955898728,744.6652713507881C485.13049117778826,747.0990126211299 486.0,749.9538259482799 486.0,761.0470530211259C486.0,770.9968631319249 485.9992120755587,771.0 483.5,771.0C481.0193235492161,771.0 481.0,770.9307363235054 481.0,762.0389551474195C481.0,754.108317066949 480.7483431259538,752.8434562522032 478.8114385533679,751.0389551474195C476.38153249680306,748.7751532928255 472.04711969962483,748.3528803003751 470.2,750.2C469.4299319727891,750.9700680272109 469.0,754.9111111111113 469.0,761.2L469.0,771.0L466.0,771.0L463.0,771.0L463.0,757.5zM498.181971090572,768.9695895237755C493.4150409917626,766.0632897507295 490.57478278734715,759.2928526516235 491.9617253945273,754.1421410331473C494.04508152721786,746.4051470273976 500.27467830560954,742.0785436389015 507.40524805712556,743.4162465877664C512.4808684647468,744.368438715913 515.2552587286333,748.0329421118129 515.7909197629692,754.4923099819327L516.2476602662508,760.0L506.65521492946414,760.0C498.77087776058556,760.0 497.1599886446788,760.2533487884282 497.6087352753775,761.4227637627391C497.9090164008626,762.2052838322456 499.7120276222304,763.5845274142831 501.6154268784171,764.4877495006001C504.4884210537426,765.8510745016896 505.6815472086579,765.9301733029234 508.6408813405587,764.9535049647557C511.5806081401466,763.9833076297977 512.4644856509098,764.0359142223383 513.6821207120076,765.2535492834363C514.9841351515369,766.5555637229654 514.837866101694,766.9823742449289 512.444457079026,768.8650300565416C508.9270850493318,771.6317952983329 502.6243242243065,771.6780013604808 498.181971090572,768.9695895237755zM528.6061358853792,769.177063881305C527.4269840782246,765.0772439585242 523.0,745.7247705137949 523.0,744.6699516052525C523.0,744.0264782223636 524.1379482712182,743.5 525.5287739360404,743.5C528.2312013831653,743.5 529.1337707966138,745.5072987067742 530.587266659136,754.75C530.9548590405037,757.0875 531.5579901473236,759.0 531.9275580076248,759.0C532.2971258679262,759.0 533.4399337673177,755.625 534.4671311173839,751.5C536.2960101818259,744.1556214924652 536.3999137902669,744.0 539.4746467950897,744.0C542.5261251921584,744.0 542.6827326792561,744.2229127294075 545.0368353043018,751.9171350300356C546.3691027116967,756.2715592965552 547.7397317916103,759.6608545989759 548.08267770411,759.4489023687481C548.4256236166098,759.2369501385205 549.2786510450425,755.7170460319526 549.9782942117383,751.6268932430418C551.1859067131151,744.5671235267789 551.396061576458,744.1688692213052 554.1251863483199,743.7683187544119C555.729555343757,743.5328473839502 557.0,743.8090185748691 557.0,744.3932501167923C557.0,744.969025545937 555.6029843565614,751.2164420142666 553.8955207923585,758.276397824191C550.8399584973299,770.9104213135561 550.7493564257065,771.1078541429403 548.1455207923585,770.8063405574815C545.8256912691219,770.5377137254932 545.2224618312437,769.6382268132465 543.24561658316,763.5C542.005705703898,759.65 540.7070140592514,755.825 540.3596351506119,755.0C539.9768053817992,754.0908067490119 538.6476431276897,756.809437929437 536.9850234277457,761.9023361318357C534.552505724589,769.3535680871208 533.9503321359016,770.3357701281027 531.6652435060387,770.5794000131407C529.9503034914284,770.7622422159096 528.9271532028885,770.2932163443686 528.6061358853792,769.177063881305zM579.0,760.0C579.0,749.6666666666666 578.8787878787879,749.0 577.0,749.0C575.6666666666666,749.0 575.0,748.3333333333334 575.0,747.0C575.0,744.0815429329631 575.3298063375393,743.5002055486486 576.9866507345189,743.4982045215727C577.8043086385044,743.4972170084377 578.609329242336,742.5972170084376 578.7755854097004,741.4982045215727C580.0011249337834,733.3969517291757 582.3651425122059,731.0 589.1295444522573,731.0C594.46501204811,731.0 595.133957723577,731.5242228960187 593.9148109906947,734.75C593.3014154682724,736.3730017097588 592.2535920684035,737.0 590.154668919497,737.0C586.8443963991838,737.0 584.6711542733939,739.0539249858236 585.1808793506423,741.7007144526C585.4477184991141,743.0862987195377 586.3820446194508,743.458935893572 589.2634550283858,743.3289676184079C592.764175587153,743.1710648734731 593.0,743.3447041705351 593.0,746.0802139142372C593.0,748.8199643476271 592.7533577500752,749.0 589.0,749.0L585.0,749.0L585.0,760.0L585.0,771.0L582.0,771.0L579.0,771.0L579.0,760.0zM603.2985485148422,769.0404844880994C591.2458730324706,761.6915374814337 597.6413714913626,741.6860667053758 611.5,743.3858933624524C617.4304307348483,744.1132888796031 621.0,748.483149253988 621.0,755.0157765424592L621.0,760.0L611.9166666666667,760.0C602.0273826703385,760.0 600.9600250991848,760.9044733068997 606.814415472234,764.323621375987C609.5058521568714,765.8955050320056 610.4894493940844,765.9935712988789 613.5228394278163,764.9924623090818C616.2739023524492,764.0845296678054 617.4077272862752,764.0934941620271 618.538702011695,765.0321198168754C620.7041621812446,766.8292921355909 620.3602689609116,767.6011582986288 616.5988708774669,769.3860585571297C612.0536472837526,771.5429083739763 607.195649111553,771.416686005079 603.2985485148422,769.0404844880994zM628.3950191034963,768.4859281944055C626.4544734056949,766.545382496604 625.951558424832,765.1422550407015 626.190473648951,762.3352697873903C626.6438018893347,757.0091726734045 630.4054658508685,754.5333333333333 638.0443377969211,754.5333333333333C643.532829162553,754.5333333333333 643.9412722973226,754.3793148317719 643.3923553842146,752.5166666666667C642.1094581354469,748.1633917914099 638.8451290408923,747.3544051088579 631.387905725903,749.5416480261933C628.5989914089615,750.359651300217 627.1563245937845,747.0900788800978 629.5378069170292,745.3486964892536C631.801371643551,743.6935375502906 638.3480129757129,742.6978890960971 641.8745812999744,743.4724534325629C647.4699668825261,744.7014062622028 648.4646863782275,747.006136900513 648.8360529760757,759.6019423276476C649.1491849565763,770.2225784383082 649.0434648895912,771.0 647.2860529760757,771.0C646.248723839234,771.0 644.9083116814325,770.5083116814325 644.3073592920722,769.9073592920722C643.5171716815018,769.1171716815019 642.6495798022578,769.1171716815019 641.1731007461615,769.9073592920722C637.3804013534767,771.9371504078644 631.1535699043582,771.2444789952673 628.3950191034963,768.4859281944055zM661.3997040001113,770.2933663996773C658.9747208758146,768.5448367941925 658.0,764.7523765766301 658.0,757.0657414540893C658.0,749.6666666666666 657.8346917836478,749.0 656.0,749.0C654.4380436397039,749.0 654.0,748.3333333333334 654.0,745.9561632392728C654.0,743.6119999392555 654.4022648560003,742.979869451255 655.75,743.2061632392728C657.1454428651615,743.4404674742893 657.5612815254261,742.6597827225755 657.802469359542,739.3529103182134C658.0424533408986,736.0625436695541 658.5589137377464,735.0840897568044 660.302469359542,734.6165650015058C663.8659427398618,733.6610394081031 664.0,733.7995396778334 664.0,738.4366415159118C664.0,742.711137896102 664.1187771626816,742.8847352877136 667.25,743.1866415159118C669.9580830292267,743.4477494521652 670.5527614274047,743.9585451291158 670.8164223456972,746.25C671.1092677184388,748.7950945105181 670.8671066854147,749.0 667.5664223456972,749.0L664.0,749.0L664.0,755.8775552845578C664.0,763.3258119810903 665.3227997572833,765.6670980192077 668.891108781947,764.5345607300419C671.2584668610161,763.7831904639518 673.88055410774,767.51944589226 672.1796056973274,769.2203943026726C670.8769615015653,770.5230384984347 662.8291592273496,771.3240724526381 661.3997040001113,770.2933663996773zM681.8560645467583,769.4835979394834C678.2104526633576,767.5031070613065 677.0,763.267040360827 677.0,752.4894486062558L677.0,743.2773437429648L679.5,743.7552490240971C681.9001575514054,744.2140682118435 682.0,744.5306514267662 682.0,751.682318606704C682.0,761.6366379696757 683.7575584264425,764.9529060629494 689.05,764.984687225483C693.2918397894073,765.0101595142016 694.0,763.3385169755535 694.0,753.3L694.0,744.0L697.0,744.0L700.0,744.0L700.0,757.5C700.0,770.0790032903343 699.8708550309107,771.0 698.1069888041843,771.0C697.0658326464857,771.0 695.9442465178691,770.2970920455131 695.6145751850364,769.4379823233623C695.0711959574137,768.0219587545123 694.806736975201,768.0219587545123 692.7850801374467,769.4379823233623C690.0305360253446,771.367340121052 685.3594728452222,771.3868362433819 681.8560645467583,769.4835979394834zM708.0,757.5L708.0,744.0L710.3930111958157,744.0C711.7091673535143,744.0 713.0685494528741,744.7362537197234 713.4138603055039,745.6361193771631C713.9951535205139,747.1509452133805 714.1757260734861,747.1509452133805 715.8495897812724,745.6361193771631C716.843930140315,744.7362537197234 719.0845480409553,744.0 720.828740671584,744.0C723.6856954809351,744.0 724.0,744.2973309526426 724.0,747.0C724.0,749.6809626002005 723.6739712726766,750.0 720.9342585459107,750.0C714.6353569194345,750.0 714.0,751.0569203281619 714.0,761.5351837584881L714.0,771.0L711.0,771.0L708.0,771.0L708.0,757.5zM734.6781136192924,769.5158472984361C728.1151851191992,766.092774308433 725.5410178659902,758.621922790305 728.4606011079454,751.4711329441259C730.4328067922204,746.6407077728111 733.8828948482313,743.9595221977544 739.0115372850212,743.2716268961476C746.4047679142964,742.2799865788015 752.0,748.0428515210508 752.0,756.6492232652265L752.0,760.0L742.4166666666667,760.0C732.0314021234532,760.0 730.6850924362739,761.0078760624277 736.869261031421,764.152905829605C739.4081047544167,765.4440638826533 740.8922428412844,765.592425128802 743.6506171438837,764.8308012709563C750.0580272459501,763.0616300616183 752.6370869979734,766.5849490220612 747.0496599268843,769.4743198537684C743.32647880042,771.39965164085 738.3220671692851,771.4164498988802 734.6781136192924,769.5158472984361zM759.75,769.42802510772C758.2375,768.6074803106867 757.0,767.570241647432 757.0,767.1230503004872C757.0,765.5642591545296 760.6162379968943,763.016892362886 761.5636536063687,763.9083007028632C763.4370661058439,765.6709648489357 768.5017417751978,766.0848205065022 770.4817103802093,764.6370321145675C773.1776594726058,762.6657060080125 771.2982080656078,760.591928853388 764.8851982229817,758.4618689717356C758.468786403986,756.3306791349512 756.3883675435901,753.3832943077489 757.9533535928006,748.6413400020878C759.3916909602399,744.2831349714663 763.3290222699345,742.4991190607801 769.6094202407671,743.3599433604616C776.111874763506,744.2512038962975 777.2835470044761,745.4255924933926 775.103505160192,748.8667655375427C774.3994876389035,749.9780497650539 773.5641265650071,750.0112529598877 770.634517870808,749.0443949008393C766.6492089188552,747.7291243373598 763.0,748.4090922231035 763.0,750.4669571850818C763.0,751.1996571992642 765.2993619510587,752.6259780429638 768.1096932245748,753.6365590599698C776.4975391439195,756.6527863423348 779.5307052273166,760.8474711825975 777.378818657776,766.4551976930372C775.7754739543518,770.6334470143678 765.245192134704,772.4092160596733 759.75,769.42802510772zM641.0657414540893,764.9648162415119C642.1749317035178,764.3711956349446 643.0,762.8782519724789 643.0,761.4648162415119C643.0,759.3058941115298 642.5574764172381,759.0 639.4342585459107,759.0C635.3360297469922,759.0 632.0,760.4966216417266 632.0,762.335183758488C632.0,765.6320733370218 637.070704616357,767.1028950716276 641.0657414540893,764.9648162415119zM435.02041242741495,762.4754045296211C437.0200668779461,760.0659683167472 436.63926660243504,751.9406115135074 434.45172750775225,750.3410438738142C431.9514394928483,748.5127886402165 428.0384226649978,748.6552528418496 425.82874067158406,750.6549875621121C423.4743286545537,752.7857011536117 423.37080400163205,759.6472649045046 425.65498756211207,762.171259328416C427.67741352152035,764.4060148588546 433.2674838917604,764.5875542019128 435.02041242741495,762.4754045296211zM511.0,754.4342585459107C511.0,752.6864763126773 508.54534272708236,749.7776379188083 506.3737233770465,748.9519897135245C503.65550295083096,747.9185241494821 500.44756688054633,749.0925139352269 498.28180337187047,751.9133428156447C496.1769741023691,754.6548070466067 496.8164624110003,755.0 504.0,755.0C507.85,755.0 511.0,754.7454163456598 511.0,754.4342585459107zM616.0,753.9545454545455C616.0,752.455391222061 611.3369786142688,748.0 609.7679607888599,748.0C607.8995742216425,748.0 604.2068836412016,750.7449172885753 602.9725532196362,753.0512847782252C601.9847187549833,754.8970703593193 602.3012254835264,755.0 608.9648162415119,755.0C613.1921904503154,755.0 616.0,754.5827490287021 616.0,753.9545454545455zM745.984687225483,753.75C745.9544232510667,751.2795157661845 741.9822735743494,748.0 739.0202869086347,748.0C737.6129007963336,748.0 733.0,752.5625279801335 733.0,753.9545454545455C733.0,754.574592074592 735.6449275362319,755.0 739.5,755.0C744.0415001464091,755.0 745.9953861435923,754.623365412771 745.984687225483,753.75zM340.3840416731306,736.5584132667982C339.3188579299082,733.7825889273992 340.4562988611342,731.5 342.9047085473315,731.5C346.0591222087366,731.5 347.8460122804821,734.2756912766494 346.0695665297194,736.4161774596279C344.42786181829206,738.394310622339 341.12029421711946,738.477056641289 340.3840416731306,736.5584132667982zM375.30946793883317,736.364077230354C374.4822197940206,734.2083031212346 376.2586981537255,731.5 378.5,731.5C379.48011485472927,731.5 380.74018720083666,732.2263347536593 381.3001607691275,733.114077230354C382.8278858909928,735.5360245510693 381.4157621810044,738.0 378.5,738.0C377.0498372354941,738.0 375.66469213041046,737.2897766349851 375.30946793883317,736.364077230354zM320.81542827125975,650.4811824417593C312.5852171561566,648.8425626493188 302.54305752989075,643.9542599308187 297.00221997521874,638.8894357277078L292.83267189666344,635.0780935225037L295.62028633374257,629.956327468164C298.7094045835282,624.2805995844429 303.17131784364625,620.0 305.9983347066225,620.0C307.01302098512696,620.0 311.71450581174605,622.025 316.44607876577606,624.5C323.7491710426731,628.320115120475 325.91398350935975,628.9977727269896 330.7744693410971,628.9852581976029C333.92351120349366,628.9771502062846 337.58162053275,628.4146502062846 338.9036011838889,627.7352581976029C344.68042647204925,624.7664334020624 346.9016283932585,617.551197076558 343.59318181489675,612.5018693745781C341.82354398323963,609.801060667465 332.71337121465905,604.9353224018685 323.8115757919757,601.9365244765497C304.9981556066281,595.5987417326091 297.6402317751903,586.7884293748691 297.5573928264452,570.5C297.472677964126,553.8427141122345 305.2998828890464,542.6445255138199 320.5,537.6765790555917C328.06429768143056,535.2042937698182 336.06410288170605,534.5817194546053 342.14385052727425,535.992174862834C352.8916833705755,538.4855906827526 366.0746219167284,546.1570305180478 365.9386591486845,549.8388936419931C365.904921680461,550.7525021388968 364.2116719101859,554.191185383519 362.17588188140655,557.4804119633757C357.0994885055098,565.682342312656 355.15147197080677,566.2270475194578 346.38083295994124,561.8970302188885C340.5881889813908,559.0372330465174 338.41952925353803,558.5 332.6679709575758,558.5C326.21560382735015,558.5 325.67378768152446,558.6814820983963 322.9179709575758,561.7657765424592C319.0283861189972,566.1189778287011 319.02457875992707,570.2864005320354 322.90687324328866,573.9130065838834C324.5056535270974,575.4064909853593 331.9596849904601,579.2568948800983 339.47138760631685,582.4694596833035C355.3377136577408,589.255085158064 361.3375394447417,593.902709816988 365.674460354841,602.7670568751203C367.9730890022594,607.465284606466 368.4449239289586,609.7324607607596 368.42213117304004,615.9696694973982C368.358586232696,633.3586617939368 357.7285513965229,646.3750359520633 340.1608808818457,650.5752953148088C333.25645030860784,652.2260775932812 329.48732661267894,652.20774134305 320.81542827125975,650.4811824417593zM425.5,650.4760680234284C412.50460689582894,647.6917360573694 403.2510907928665,642.9739837421255 395.4630732606223,635.1622371411172C385.14044131421264,624.8081534879971 380.0191314953118,613.0061585172689 379.2349231080181,597.7646663520175C378.60120295928,585.4479902765585 380.0673690755621,577.7368584895522 384.9968229672748,567.460617810146C391.1430484691419,554.6478207103954 400.8168528043335,545.7743749958424 415.15617852111234,539.7964853737132C421.44787002287495,537.1735560898057 424.12920683227304,536.6635938035582 433.8717928283829,536.2369707960554C447.0994379384006,535.6577387788817 453.2595012088507,536.7663302781642 463.5337258336906,541.5750599257096C471.5764839837696,545.339378010679 478.5030774353225,551.0590899531903 483.9532373544449,558.4366997378922C492.094473926967,569.4570858345047 495.0,578.6794558977496 495.0,593.5C495.0,611.125119933301 490.2504844650753,622.9696844376887 478.4496712273825,634.7739857938378C469.27324959691356,643.9531198175129 459.85932611718107,648.6277875820191 446.51455493203207,650.6319921843758C435.95999398307816,652.2171448510088 433.5424571658176,652.1992071691968 425.5,650.4760680234284zM551.4829683069261,650.5360908103293C522.3912873504082,643.8561120572816 505.7330629931211,623.3254522614498 505.6214431265554,594.01341762492C505.5563698509693,576.924792037217 510.82732630550584,563.929249937368 522.4844104886183,552.4377749171417C533.4511794462027,541.6268079935911 544.1305095121255,537.0517994925325 560.2713980472474,536.249887826568C568.7098265721097,535.8306497987625 572.5001392560027,536.0991476323865 577.7713980472474,537.4895512739629C600.4053448597358,543.4597233557436 615.2801766608325,559.6470985658115 620.0511177060049,583.5C621.414982091512,590.318806279323 620.7451986248799,603.2227600284913 618.6723787862624,610.0625894619301C614.9128095843158,622.4683044234745 605.4492449144119,635.1885222626818 594.6426906454872,642.3615041331584C583.2316193269071,649.9357415500066 564.4010338086066,653.5023134638323 551.4829683069261,650.5360908103293zM635.0,593.5L635.0,536.0L645.8930111958157,536.0C653.8177324599627,536.0 656.9197877899911,536.3485870404043 657.2769137854942,537.2792424666228C657.5469040521189,537.9828258232653 665.1800528966713,548.4453258232653 674.2394667733886,560.5292424666228C691.4492883236968,583.4845960790066 706.0,604.3215467211243 706.0,606.0110496752704C706.0,606.5549723538717 706.3375,607.0002589082665 706.75,607.0005753517032C707.1625,607.0008917951399 707.3704101294321,591.3949635244226 707.2120225098491,572.3207347501091C707.0536348902662,553.2465059757957 707.1078457619157,537.1587470675292 707.3324911135146,536.570159398406C707.5999087313809,535.8695051838316 711.7563877494455,535.607223561807 719.3704686036656,535.8105404400786L731.0,536.1210808801573L731.0,593.5605404400786L731.0,651.0L722.54259299709,651.0L714.08518599418,651.0L708.7012222262873,644.25C701.8998696492735,635.7229868412892 665.3388557947743,586.763180195212 662.0289920350089,581.75C660.6672628055197,579.6875 659.3161685492154,577.9997290903451 659.0265603543326,577.9993979785447C658.7369521594496,577.9990668667443 658.6334532893169,594.4240668667443 658.7965628651486,614.4993979785447L659.0931257302974,651.0L647.0465628651486,651.0L635.0,651.0L635.0,593.5zM450.4041035869218,626.5020405096948C457.2324677108569,623.2717070809746 463.57597612116535,616.9149174981347 466.87166655976046,610.0C469.1845812195952,605.1471127671197 469.4934108378314,603.2618212438764 469.49649948935865,593.9763579012795C469.4998374081051,583.941518461642 469.337431823437,583.1286775788268 466.0,576.4763579012795C463.33385275080144,571.1620729218735 461.1041148065518,568.3858717725526 456.64093414889754,564.8235762641332C449.70364166472996,559.286564040673 443.7098500283612,557.5316387272766 434.1388196421103,558.2351706690343C416.97410582348226,559.4968869059699 405.3688860040679,572.0492411054464 404.2325799021651,590.5821421035829C403.37627392545255,604.5483030385211 408.73875492836044,617.0031099099314 418.32289837756207,623.3080753558534C425.4396962637212,627.9898880807641 428.2811239201281,628.8297872936721 437.31192541904505,628.921052631579C443.67471370678317,628.9853550108506 446.1033545981187,628.5366205313384 450.4041035869218,626.5020405096948zM577.1026679454293,625.75C584.7624684431888,621.784297476433 591.2428080304762,614.2888350275693 593.4565584474301,606.8343289152558C594.3571534825553,603.8016965359932 595.0,597.8223487036071 595.0,592.4782211176155C595.0,584.2846267070663 594.6810353347165,582.6811399050679 591.9732900051802,577.2624619492544C586.3436822740409,565.9966198555215 574.5270145284867,558.0 563.5089992263013,558.0C551.8536569774192,558.0 539.69190849907,565.7985940073182 534.363658388606,576.6891449697987C532.2338771495929,581.0422610288321 531.5278305333272,584.1650919670677 531.1814848240299,590.7638389480126C530.3910766070859,605.8230808998093 534.2270771983726,615.3260152827082 543.9889972363935,622.4919232291543C550.5790238237303,627.3294473745644 555.2150039235291,628.8464350200776 563.6626275934818,628.9295380488102C569.8672231556753,628.9905754130945 571.66488595343,628.5652986196685 577.1026679454293,625.75zM229.6384658802339,482.48023319067545C211.3188662793491,477.84049343116254 198.04622842222344,466.0415016440124 191.4142398127413,448.5C187.89081925857434,439.18061013327156 186.94791618636415,422.685751282431 189.38493726664794,413.0C196.61181407210873,384.2773386111573 220.0099977031212,367.5302596356573 250.4301782813863,369.30731476962853C264.4020735693476,370.12351072181565 273.0621266697443,373.30097898364085 283.2119693844406,381.3353127031478C287.5454582426738,384.765582179777 287.53074380975295,384.82262310994247 279.7624060148223,394.7076461343096C274.05449053091843,401.97083131870653 272.5382584106691,402.34505033907703 266.20618161418724,398.0534379476989C256.7861579800478,391.66894649967827 241.4219990074423,390.7389916396289 231.13709945376547,395.93079241593216C206.32338017846567,408.45671805323343 206.40930843110954,444.5866583906931 231.28268042956336,457.14269662683563C241.54932949412935,462.3252845855475 254.01506443692,461.01666614309613 268.3524348320897,453.2512161412552C274.8897119016792,449.71047632405833 276.47020420419705,450.12968003864336 281.2137904430732,456.6625127594888C286.943977665468,464.5540852318595 287.4329057008131,465.864163241866 285.4610592510038,468.0430290433001C282.40533025148557,471.4195715809531 271.64432305173415,477.84994610552997 264.5,480.56857232320004C255.68308171117798,483.92367049631923 238.95879740219627,484.8407603679289 229.6384658802339,482.48023319067545zM346.0,483.30914568572746C344.625,483.0789760720942 341.25,482.1776269426146 338.5,481.3061476202173C314.2700869261968,473.6276500830159 299.0,452.4003203029846 299.0,426.39620962420145C299.0,410.3030771715904 304.4738133563792,397.3112777650203 316.1254002747785,385.75C320.4211961417321,381.4875 324.4774188141751,378.0 325.139228435763,378.0C325.80103805735087,378.0 327.0716584256918,377.34013757814046 327.9628292542984,376.53363906253435C331.5001068308947,373.3324468519765 343.3731318326204,369.82630298633046 352.5,369.28773073859446C376.9738547079789,367.8435399494746 398.03576868092176,378.9743398989826 408.22621379568153,398.7379192874643C413.421071717735,408.8129440580391 414.51187216937427,413.8850209366818 414.41178459478067,427.5C414.33441272344123,438.02494690427466 413.99152356537854,440.35725388818616 411.6222782992603,446.47401787640456C407.92559495123885,456.0178755353763 403.98113601247985,461.85288346148525 396.4874398936122,468.86286852194326C389.0377608963899,475.8316777246877 380.27069460757394,480.42858628688185 370.5,482.48907836466424C363.9771207091514,483.8646551934298 351.7612007481109,484.2735481222777 346.0,483.30914568572746zM780.5,482.9935435411304C756.3447181261574,479.3367003082017 739.2443991379401,462.6784976261658 734.4090265046301,438.094218632206C732.6010619128425,428.90206131437793 732.953429478586,420.93748193752884 735.6298452306366,410.5C740.5599559521653,391.27356196751236 758.0600839361841,374.6375930678467 777.7427301240452,370.46665601521755C785.8187693611603,368.7552676698159 798.8755888544725,368.58290320748876 806.2007788970993,370.09097828771587C813.1239339185398,371.5162843212287 824.9790836917638,377.3249552673906 828.5305770051446,381.03191551626264C831.8239270528438,384.4694322550513 831.4541641439135,385.9082981650515 825.5161463348746,392.7620307462048C820.2560609304518,398.83328547721356 819.0093521828418,399.3006076844681 814.3868241487019,396.9337985462297C801.2249385443482,390.1947001795436 784.2013098711991,390.428923463123 772.9947723683686,397.5033000589929C761.0122802845609,405.0675152803739 755.2957574674429,424.5435010614152 760.7341533146074,439.27478422813954C764.1824154696018,448.6152823577132 769.0989958816754,454.43111257357174 776.7177624332412,458.1818190123864C782.6108532758635,461.082978093498 784.2275768198487,461.42797478994646 791.9064265075101,461.4229661760949C798.4029267858882,461.41872876260146 801.4761123080845,460.9393878970243 804.5,459.4586804618092L808.5,457.5L808.7875258137888,448.25L809.0750516275776,439.0L800.5375258137888,439.0L792.0,439.0L792.0000496647302,429.75L792.0000993294605,420.5L811.2500496647302,420.5L830.5,420.5L830.7669660980869,445.6525332843717L831.0339321961737,470.8050665687434L827.2669660980869,473.7566429824795C816.9589425035051,481.83341312635054 797.8140601650251,485.6147012688552 780.5,482.9935435411304zM430.0,426.0L430.0,369.0L442.44396231280007,369.0L454.88792462560014,369.0L463.11849236393505,385.25C467.6453046200193,394.1875 475.4564360795571,409.65854252258487 480.476562274019,419.630094494633L489.604064445768,437.76018898926606L505.552032222884,406.28408922426286C514.3234145002978,388.9722343535111 522.2808857047044,373.50119183092625 523.2353015660099,371.90399472962986L524.9706031320196,369.0L536.4853015660099,369.0L548.0,369.0L548.0,426.0L548.0,483.0L535.9755125835852,483.0L523.9510251671704,483.0L524.2255125835852,446.9995843485177C524.3764806626134,427.19935574020246 524.275,411.0077108779258 524.0,411.0181513212362C523.725,411.0285917645466 517.4422572001586,422.9709932213329 510.0383493336857,437.55682122520574L496.5766986673713,464.0765085049745L489.22423553094274,463.78825425248726L481.87177239451415,463.5L468.6858861972571,437.3146208776543C461.4336487887657,422.9126623603642 455.1625,411.1001623603642 454.75,411.0646208776543C454.3375,411.02907939494446 454.0,427.2 454.0,447.0L454.0,483.0L442.0,483.0L430.0,483.0L430.0,426.0zM573.5,426.0L573.5,369.0L585.75,369.0L598.0,369.0L598.0,426.0L598.0,483.0L585.75,483.0L573.5,483.0L573.5,426.0zM621.0,426.0L621.0,369.0L630.8776731821001,369.0L640.7553463642004,369.0L649.2580275285729,380.25C653.9345021689779,386.4375 663.7200191446375,399.375 671.0036208078164,409.0C678.2872224709954,418.625 686.4892222110215,429.65 689.2302868967633,433.5L694.2140408708394,440.5L693.4983107305461,404.75L692.7825805902528,369.0L703.8912902951264,369.0L715.0,369.0L715.0,426.0L715.0,483.0L707.0450808665091,483.0L699.0901617330184,483.0L692.1395447805185,473.25C688.3167054566435,467.8875 680.1872490565936,456.975 674.0740861137409,449.0C667.9609231708882,441.025 659.1165251411281,429.2125 654.4198682698297,422.75C649.7232113985314,416.2875 645.794881408652,410.9997226158817 645.690246070098,410.9993835908482C645.5856107315442,410.99904456581476 645.6430175428857,427.19904456581475 645.8178167619681,446.9993835908482L646.1356335239361,483.0L633.5678167619681,483.0L621.0,483.0L621.0,426.0zM370.2017947549093,458.7692118785584C375.95838917269765,456.3523341805397 383.8838114475285,448.20592723524675 387.04592657268836,441.4554148757718C388.98291143097737,437.3203218420117 389.37045771089527,434.84459502871806 389.3870230816458,426.5C389.40427690627956,417.8086050754357 389.06881955877924,415.7802672085104 386.82355031360197,411.0C382.43141723364704,401.6489746017677 373.54077357303964,394.52578838929713 363.15401349106685,392.03596041118027C348.96522375668917,388.634741419169 332.4715778427559,397.6474763722131 326.80558627443986,411.898078354838C323.41876621749435,420.41630928341755 323.5567152214769,434.4888958286802 327.10111295809696,442.04563079910315C330.58542258002745,449.4742565697911 335.25739401098036,454.59000132111834 341.39996430189365,457.7026772500735C350.26815529864587,462.1965297160034 361.0845064873994,462.5970602696249 370.2017947549093,458.7692118785584zM498.5,279.04366784629013C482.95834767453647,276.9235010091782 470.74209913009355,270.58991917959247 457.9108541400502,258.0C451.1262986356809,251.34304617083134 448.3731875473752,247.75467293555587 445.2136984089799,241.45067368220984C438.44873538909,227.95282008681494 436.61200818449964,220.41511430717506 436.5753648527606,206.0C436.5438758992078,193.6125656884101 438.4477721095736,180.54067040543092 440.13187185872636,181.5815012908525C440.9288745099335,182.07407601842232 441.38187356188183,180.35499359180903 441.2704390235698,177.26076199529984C441.2458928153003,176.57918109271475 441.67321267817357,176.2980343280187 442.2200387188437,176.63599140708638C442.81855784548685,177.0058965702688 442.96714463411786,176.47184241056988 442.5933659142737,175.29416994714956C441.90799749091167,173.1347652602594 450.842575557188,158.73977129509493 454.1503908643541,156.67400644557335C455.1676758889593,156.03870143285948 456.0,154.94553818210875 456.0,154.24475477723837C456.0,153.543971372368 457.2508139100486,152.18971742731512 458.7795864667746,151.23530156600975C460.3083590235006,150.2808857047044 464.4708590235006,147.41785137357544 468.0295864667746,144.87300305238983C481.87752879025084,134.97033044384858 501.1319313900603,129.16252433943745 516.0419127590392,130.39079409878914C539.3226813977966,132.3086411695402 561.8782604067964,144.75796894187877 572.7168827714922,161.67198080168703C582.7746600563579,177.36745930028655 585.6278440662965,185.82040238775576 586.6906565463039,203.07117343146592C587.9381356700999,223.31931423826697 580.391914873568,242.76020776994952 565.2180576086246,258.3897919892207C557.8609325234578,265.96787870260977 549.2849481188827,272.32332246120654 547.3949333350652,271.5980557382381C546.5860804613003,271.28766976764047 545.6691729477454,271.69854654221547 545.3573610827208,272.51111523729355C545.0455492176961,273.32368393237164 544.3875835747558,273.7395398226802 543.8952152095198,273.4352394379792C543.4028468442839,273.1309390532782 543.0,273.38508130618754 543.0,274.0C543.0,274.61491869381246 542.55,274.8399186938125 542.0,274.5C541.45,274.1600813061875 541.0,274.2835236587188 541.0,274.7743163389584C541.0,275.26510901919795 540.4375,275.70824676068537 539.75,275.7590668755971C539.0625,275.8098869905089 536.025,276.55128482897055 533.0,277.4066176277342C526.4344280362664,279.2630635924365 506.9021991152898,280.18988213226163 498.5,279.04366784629013zM523.140508161815,247.10280542807266C537.8199640091588,242.90485826499128 549.10563569769,231.70489477582464 553.40465363287,217.06849877257218C559.0555237318368,197.82959961502465 549.1024428678501,176.49249392232434 530.1686217483401,167.25581514482383C522.8003968181512,163.66129893961906 522.088691854404,163.51446434094635 512.0,163.50737665029962C502.263914244317,163.50053667887994 501.01085265956016,163.7317192004682 494.7766706304707,166.68498001970312C479.15003930231313,174.08763811065023 469.0,189.16362283159427 469.0,204.9714024666804C469.0,223.91109627972125 480.9978710113976,240.71852632040756 498.5,246.29699979384242C508.3605246672238,249.4398560329936 514.2901844393963,249.6337705911718 523.140508161815,247.10280542807266zM503.2754725068747,227.81090036833928C495.9239710847593,224.91311222964632 491.4001045018999,220.18412584473106 489.40095312421425,213.30728668829744C485.2986591817217,199.1958912583062 491.8560547734187,186.82006850582206 505.4523634819459,183.01333740053363C515.0340194818102,180.33063956564402 526.2082922004539,184.21260474859142 531.4894353094919,192.0586693738437C533.9841102293617,195.764946639233 534.5405976149008,197.71006163140487 534.8518367355398,203.81141991853107C535.4863951660957,216.25094979186633 531.8039843124534,222.3663000417854 520.5,227.64540038832806C514.4285151688887,230.48085882404416 510.1531992576351,230.52193772726147 503.2754725068747,227.81090036833928z"/></svg>