<svg width="1080" height="1080" viewBox="0 0 1080 1080" fill="none" xmlns="http://www.w3.org/2000/svg">
  <defs>
    <linearGradient id="bg" x1="0" y1="0" x2="1080" y2="1080" gradientUnits="userSpaceOnUse">
      <stop stop-color="#26B5B6"/>
      <stop offset="1" stop-color="#1EB6B6"/>
    </linearGradient>
    <filter id="blurBox" x="0" y="0" width="1080" height="1080" filterUnits="userSpaceOnUse">
      <feFlood flood-opacity="0" result="BG"/>
      <feBlend in="SourceGraphic" in2="BG" mode="normal"/>
      <feGaussianBlur stdDeviation="3"/>
    </filter>
    <style>
      .title { font-family: 'Montserrat', Arial, sans-serif; font-weight: bold; font-size: 180px; text-anchor: middle; fill: #fff; letter-spacing: 0.02em;}
      .subtitle { font-family: 'Montserrat', Arial, sans-serif; font-weight: 400; font-size: 44px; text-anchor: middle; fill: #fff; letter-spacing: 0.02em;}
      .brand { font-family: 'Montserrat', Arial, sans-serif; font-weight: 700; font-size: 110px; text-anchor: start; fill: #fff;}
      .url { font-family: 'Montserrat', Arial, sans-serif; font-weight: 400; font-size: 44px; text-anchor: middle; fill: #fff;}
    </style>
  </defs>
  <g>
    <rect width="1080" height="1080" rx="30" fill="url(#bg)" />
    <rect x="17" y="17" width="1046" height="1046" rx="25" stroke="#F3F6F8" stroke-width="12" fill="none"/>
    <g filter="url(#blurBox)">
      <path d="M125 190c55-29 412-180 853 20M209 944c175 70 637 165 676-108M100 765c48 70 466 259 828 38M129 303c36 22 65 52 79 66" stroke="#FAFFFF" stroke-opacity=".12" stroke-width="11"/>
      <path d="M129 303c36 22 65 52 79 66" stroke="#D9FDFF" stroke-opacity=".08" stroke-width="15"/>
    </g>
    <text class="title" x="540" y="200">COMING</text>
    <text class="title" x="540" y="405">SOON</text>
    <text class="subtitle" x="540" y="570">Innovate, Collaborate, Evolve</text>
    <g>
      <g>
        <circle cx="314" cy="814" r="110" stroke="#fff" stroke-width="18" fill="none"/>
        <path d="M314 895c49 0 89-40 89-89 0-49-40-89-89-89-49 0-89 40-89 89 0 37 22 68 54 82" stroke="#fff" stroke-width="16" fill="none"/>
        <path d="M260 846c8 12 23 19 38 19 26 0 47-21 47-47 0-26-21-47-47-47-16 0-30 8-38 22" stroke="#fff" stroke-width="16" fill="none"/>
        <circle cx="314" cy="814" r="17" fill="#fff"/>
      </g>
      <text class="brand" x="415" y="872">echai</text>
    </g>
    <text class="url" x="540" y="1040">echai.com</text>
  </g>
</svg>