<svg version="1.1" xmlns="http://www.w3.org/2000/svg" xmlns:xlink="http://www.w3.org/1999/xlink" width="1024" height="1024" viewBox="0 0 1024 1024"><path stroke="none" fill="black" fill-rule="evenodd" d="M926.4865525668624,880.0C926.4865525668624,801.075 926.6050567222379,768.7875 926.7498951343634,808.25C926.8947335464891,847.7125 926.8947335464891,912.2875 926.7498951343634,951.75C926.6050567222379,991.2125 926.4865525668624,958.925 926.4865525668624,880.0zM398.25,930.9688379036357C396.5120213805426,930.2702558561308 396.0,929.2606376021781 396.0,926.5322242040548C396.0,922.4364145586818 395.6306007220097,922.3181486149128 391.22583036268196,925.0037380604376C386.94600927871414,927.6131459056157 386.0,927.5219564015288 386.0,924.5C386.0,922.5 386.5,922.0 388.5,922.0C389.875,922.0 391.0,921.55 391.0,921.0C391.0,919.4817686646819 388.03500330383423,919.794129663348 382.1993143740523,921.9271480655013C375.94118585020607,924.214573503187 372.6971957046738,923.8124518260389 368.16383895477577,920.1873249889907C366.3155087075612,918.7092962450457 363.7225098416034,916.9129453100151 362.4016192526474,916.1954340222558C359.7527697594995,914.7565719190658 359.5707214193302,914.2116508939023 361.0,912.0C361.83539873380096,910.7073126391429 361.971490805431,910.7337080997612 361.98468722548296,912.1909830056251C361.99310925146733,913.1210236587189 362.45,914.1600813061875 363.0,914.5C363.584998535909,914.8615489785607 364.0,913.8240453183331 364.0,912.0C364.0,910.2850813061875 363.6575372008032,909.0936196610362 363.2389715573404,909.3523074552191C361.32084905136315,910.5377723584991 359.0124308230288,906.649946249278 355.6243898339296,896.5278680743038C350.55097737043917,881.3705905400105 350.314175895741,879.2766688108899 353.1926874053719,875.0254911976266C355.693491950554,871.3321363987819 365.06910867369095,863.3442190439374 371.1839024369842,859.6971834148324C392.58063534142013,846.9355678526921 393.7322833207663,846.5496216747732 400.34924913291286,849.9231428339926C402.423922265552,850.9808713926886 406.45657112854445,852.3883977174045 409.3106910506738,853.050979111139C423.852734334323,856.4269014863413 428.0108328696528,860.1297253511597 432.3919391445189,873.6050365836859C433.98250567400436,878.4972664626587 436.3966372545785,883.960168386753 437.7566759902392,885.7448186372291C440.7609573774092,889.6870530674187 441.83462706450126,899.2395306055321 440.02515987968854,905.9276007908612C438.17828509355746,912.7539352482264 430.90970613263437,918.9800990370263 416.5,926.0789260163416C404.37047455525664,932.0544401372318 402.318607311391,932.604218220899 398.25,930.9688379036357zM408.75,927.7195606600569C410.5375,926.6651488392704 412.0,925.4370402412042 412.0,924.9904304421318C412.0,923.7248846044896 403.2571885584307,919.8044592965759 401.273470899287,920.1804724059148C400.0168517525144,920.4186642022396 399.40833613429334,921.6274300315152 399.18547422436694,924.32810470443C398.63541522096733,930.993803744614 401.4858628437805,932.0045352532499 408.75,927.7195606600569zM496.9795918367347,930.5C496.9683673469388,930.225 496.9471266203873,919.9875 496.93239022217585,907.75L496.90559677088225,885.5L500.0979337233026,885.1758169152536C501.97888189240035,884.9848058820216 503.62890852099525,885.3955986031121 504.11462278296904,886.1758169152536C504.7808626879754,887.2460193261381 505.32582828580934,887.2602477739034 506.9559186006693,886.25C509.3941980291396,884.7388773693632 519.3761867674483,884.5957777726325 522.0624752224427,886.0334357243593C527.332314188254,888.8537679487088 530.3704185392006,904.2275577204167 527.099689652154,911.5233685021026C524.4008666433981,917.5434645373083 522.6794733983504,918.5224533188774 515.0963052845578,918.3499194198228C511.46833737805105,918.2673751007252 507.6,918.0423751007252 506.5,917.8499194198228C504.65406450393255,917.5269550809156 504.50885356398265,918.0199677007722 504.6149332098783,924.25L504.7298664197566,931.0L500.8649332098783,931.0C498.7392199444452,931.0 496.9908163265306,930.775 496.9795918367347,930.5zM381.44112963510486,924.4448337790159C379.6108242670704,922.9784561445829 379.642731666482,922.9576432802946 382.0,924.0802884611952C385.06103211012453,925.5380999874226 385.62833929114055,926.0 384.35779630177154,926.0C383.82125093441255,926.0 382.50875093441255,925.3001752005572 381.44112963510486,924.4448337790159zM414.5411185159376,921.0665311563541C414.1785846383595,920.4799390203593 413.1210236587188,920.0143115173418 412.19098300562507,920.0318033718704C410.7063348633131,920.0597260752978 410.7351337077137,920.2414962911055 412.42699913824174,921.5214709002954C414.4820754147681,923.0762313478101 415.630452616839,922.8291107567168 414.5411185159376,921.0665311563541zM410.0,920.0817874682358C410.0,918.0623878222575 408.71259685299646,916.0 407.4520281901906,916.0C405.1762134378161,916.0 404.70792167606777,918.0635200949367 406.6498622029201,919.5347314845509C408.81479789611745,921.1748836959973 410.0,921.3684195867808 410.0,920.0817874682358zM423.48128612191545,918.6689050384041C424.32135176680856,917.3868028095264 427.293967594233,915.2674377818834 430.0870990717475,913.959204976975C435.0519523630843,911.6337920848244 438.7901442350604,907.0874972227174 437.48017840311303,904.9679279825256C436.4736219698597,903.3392854619269 432.9547773331022,905.887267478491 431.45776136828897,909.3287372494902C429.9471354192506,912.801494829301 429.7230923284669,912.4622572396847 429.58957501220834,906.5C429.51727487420527,903.2714148747233 429.1625059923085,902.5566675119913 427.75,902.7938367607272C426.46495196069014,903.0096049625841 426.0,902.411809584554 426.0,900.5438367607272C426.0,897.7098362552397 424.0757330581621,896.9932270047028 423.86835875375806,899.75C423.795956068325,900.7125 423.458456068325,899.9301089646808 423.11835875375806,898.0113532548463C422.26343266743663,893.188044633005 419.97078676235753,893.1033995594304 414.0548986064667,897.6767279865883C408.1112446961375,902.2715209699933 407.39974070575477,903.6792396026486 409.72333266920555,906.2467798216854C411.79072291855164,908.5312203332447 417.68591711268897,908.3009002476175 422.82995640795514,905.7347154854853C425.58207481942776,904.3617780085876 426.05274083501445,904.3586225312646 427.1706447047309,905.7056142905112C428.9290282980931,907.8243369052335 426.252042111604,909.6056261772248 419.1159096316854,911.0653031999132C411.1039670768848,912.7041248567773 410.99863432746434,912.7516162496803 411.01310669575383,914.7186152036613C411.02887997112765,916.8624257770562 416.61740683694194,920.8510630266396 419.72694702014576,920.9378477383387C421.0045545249628,920.9735047141094 422.60501579818185,920.0062625913382 423.48128612191545,918.6689050384041zM381.5,918.0L386.5,916.1550075330921L382.5,916.0072185039357C379.3147013886042,915.8895304565979 378.90735069430207,915.6843848781518 380.5,915.0C383.4484098437005,913.7330248382972 388.7542423539494,913.829574042641 390.9323675934346,915.1898357682082C394.0459378776442,917.1342925931405 396.0,914.664198920528 396.0,908.7839356694478C396.0,904.6205635177839 395.66836050114694,903.7260350926384 393.95910826434965,903.279055591841C391.8883990591443,902.7375529704528 391.8070162107518,900.2904480468337 393.875,900.75C394.49375,900.8874999999999 395.0,900.3249999999999 395.0,899.5C395.0,898.675 394.4375,898.0074026889469 393.75,898.016450419882C391.3913155322428,898.0474914997731 384.49986225813535,902.5385677003432 383.56151108260104,904.6561646103012C383.0453421780316,905.8210138755139 380.23441565119447,908.062406083056 377.3150076896295,909.6370361826167C374.3955997280646,911.2116662821775 372.0054197408942,912.78125 372.0034966070285,913.125C372.0015734731628,913.46875 372.28125,915.15625 372.625,916.875C373.3507548001087,920.5037740005434 374.3659358513653,920.6324589225337 381.5,918.0zM467.45041653781556,917.9263253971745C461.0510104343581,917.0910982340761 458.72662178696373,915.6175310497154 455.8254171498878,910.5565520008594C453.69518105761847,906.8404817539297 453.50552570936685,905.3668939342879 453.56583415155023,893.0C453.607728561153,884.409101259468 454.0744334449233,878.6830041798584 454.8492698759095,877.2532662316466C456.85869895094504,873.5454423762797 463.7053599540053,870.6146359053978 470.5,870.553758091663C477.9887120000833,870.4866616139733 486.1034706293461,874.1188727201239 487.135722433351,878.0C487.5014270671223,879.375 487.84549596070656,886.9348469670979 487.9003199746494,894.7996599268843C487.9749568586889,905.5067404679831 487.634994864233,909.8051619541629 486.5471582524563,911.9088059955793C484.2037894219736,916.4403816234989 475.96245318837185,919.037285400165 467.45041653781556,917.9263253971745zM544.5,918.1261422387457C540.1464130122088,916.9958857508223 537.1896252121002,915.2228350416705 536.022918271701,913.0428231823882C534.7314288062331,910.6296530422543 534.6812399801202,893.9686017106292 535.9553651673285,890.6173985066457C537.5662248368996,886.3805164953404 541.4826761239342,884.5787632650871 548.9331862627151,884.6469856592627C552.5920637523325,884.6804890540218 556.6029902417631,885.2523430669423 557.8463562392277,885.9177723546417C561.7245017448558,887.9932928423071 563.99213983344,892.9092490678869 563.9962619395624,899.25L564.0,905.0L553.6666666666667,905.0C547.9833333333333,905.0 543.0822762424652,905.2510570908681 542.7754286869598,905.5579046463736C541.6129937849288,906.7203395484044 543.2667057854324,909.8004892475298 545.6318072329284,910.8781015828861C548.7046055049232,912.2781621703372 553.5271921436381,912.3234066025864 556.0452220043636,910.9757979177383C558.6199572715364,909.5978414203412 563.1856953555593,910.8071970136057 562.8000285490093,912.7649857611611C561.9700462017767,916.9782861346551 551.6848300250226,919.991431889138 544.5,918.1261422387457zM571.5077002556766,917.0124592754069C570.8113934081769,915.885811129553 571.7440656407197,886.922601025947 572.5010284596209,886.1656382070457C573.5070219552255,885.1596447114414 578.4459765413258,885.1252382242616 579.63966059104,886.1159079957977C580.4868134018307,886.8189823827959 581.5611929266304,886.7700261772651 583.0760032033116,885.9593243199945C586.5562400004662,884.0967581104652 596.6500812759102,885.2056368314659 599.1720292612356,887.7275848167912C601.0424899897922,889.5980455453478 601.3205390950573,891.3280456637267 601.7730547925952,903.9109653490527L602.2797344426406,918.0L597.6398672213203,918.0L593.0,918.0L593.0,905.5351837584881C593.0,894.2350411448043 592.8192689026316,892.9736431690108 591.0657414540893,892.0351837584881C587.7987809932835,890.2867595802421 584.9766435930176,890.8695102531362 581.9230769230769,893.9230769230769C579.0607925407926,896.7853613053612 579.0,897.0661268556005 579.0,907.4230769230769L579.0,918.0L575.5590169943749,918.0C573.6664763412812,918.0 571.8433838088669,917.5556066739331 571.5077002556766,917.0124592754069zM607.0,917.6672579947076C607.0,917.4210022783327 609.25,911.5397902367797 612.0,904.5978979023678C614.75,897.6560055679558 617.0,891.7378481227497 617.0,891.446436913021C617.0,891.1550257032922 618.2914099399951,888.1228637211551 619.8697998666557,884.7082991749388C621.4481897933164,881.2937346287225 623.2830882306088,876.8125 623.9473519495277,874.75C625.095756158602,871.1842720914062 625.3666886514676,871.0 629.460920718911,871.0C632.6915699285684,871.0 633.900099461821,871.4369770118883 634.3008244796449,872.75C634.5945724438068,873.7125 636.04700869541,877.65 637.5284605943189,881.5C645.5239371955821,902.278659730725 650.0,914.9030989699545 650.0,916.6751524333571C650.0,917.5519928497489 648.6604039397873,918.0 646.0385440730967,918.0C642.3121116449169,918.0 642.0154894650194,917.7775216646415 641.0388070298328,914.25C639.280197735087,907.8983629034748 639.2750089670782,907.895855242417 628.5447032021398,908.2117694284573L618.7546959782748,908.5L617.0035845513248,913.0C615.360607699142,917.2221161492278 614.9976699010199,917.5189885958271 611.1262365621874,917.807497830422C608.8568064529843,917.976621637154 607.0,917.9135137110826 607.0,917.6672579947076zM656.4245975015456,917.0833333333333C656.1910688756955,916.8541666666666 656.0,915.4188310344433 656.0,913.8936985950593C656.0,911.411222647731 656.3928445758897,911.088217107555 659.75,910.810365261726L663.5,910.5L663.7804147962561,897.0504513340302C663.9346429341969,889.6531995677468 663.8475812937232,883.0451865093413 663.5869444840923,882.3659778709069C663.219799293919,881.409212841905 662.428221587494,881.389550466204 660.0726370591389,882.2786843148137C657.4279928423008,883.2769260091428 656.842896679392,883.170767222825 655.5778470937682,881.463157777937C654.3873382963886,879.8561661708646 654.3521932234884,879.1371497239118 655.3841304276048,877.5C657.1371839756363,874.7188122293543 664.7623277282246,871.0 668.7118897590915,871.0L672.0,871.0L672.0,891.0L672.0,911.0L675.0633584840882,911.0C677.9170332489504,911.0 678.1052679041063,911.2224457371437 677.8133584840882,914.2498042224938L677.5,917.4996084449876L667.1745975015456,917.4998042224938C661.4956261273957,917.4999119001222 656.6581261273957,917.3125 656.4245975015456,917.0833333333333zM405.5,913.0C405.0161763857499,912.2171569475835 404.4409312452915,912.1590687547085 403.7742645786248,912.8257354213752C403.2242645786248,913.3757354213751 403.10084551824366,914.3541544817564 403.5,915.0C403.9838236142501,915.7828430524165 404.5590687547085,915.8409312452915 405.2257354213752,915.1742645786248C405.7757354213752,914.6242645786249 405.89915448175634,913.6458455182436 405.5,913.0zM477.3651413081987,909.9274198509671C479.9766469217036,907.8732092359994 480.0,907.7364639002082 480.0,894.4988484223957C480.0,883.835645551409 479.69109402945276,880.8339511723099 478.4678538292412,879.6107109720983C474.5285194733323,875.6713766161896 463.70509828252074,877.0152516527754 461.9379820746769,881.6631195051584C461.4220919336046,883.0200134046133 461.0,888.390357858724 461.0,893.5972182920709C461.0,903.6600177717468 462.4390045695491,908.9972923412498 465.6563024220194,910.8674653995884C468.7192427775143,912.6479124687788 474.49622924284347,912.1841064104696 477.3651413081987,909.9274198509671zM518.5491974239053,910.3079454332376C519.9222740767647,908.9348687803782 520.1482517935837,907.3160911386972 519.7479218843276,901.7209556079456C519.2089898259969,894.1886732615402 518.0978793434584,892.3695758686916 513.4708255044832,891.4441651008967C511.2684805888662,891.0036961177733 509.73985199060735,891.4167921788742 507.734218361626,892.9944238213582C505.2487890948476,894.9494627675373 505.0,895.7455803096013 505.0,901.7438394774488C505.0,909.9785496738577 506.49469070431667,912.0 512.5835589906835,912.0C515.26455259024,912.0 517.4877025275039,911.369440329639 518.5491974239053,910.3079454332376zM401.77083333333337,909.8125C401.15275895966863,907.9582768790059 399.0,907.6507398847676 399.0,909.4166666666667C399.0,910.2875 399.7125,911.0 400.58333333333337,911.0C401.4541666666667,911.0 401.98854166666666,910.465625 401.77083333333337,909.8125zM409.1037989559791,907.703798955979C407.8203130451,906.4203130451 406.51874509472583,907.4122962116388 407.4689627902499,908.9497807397083C407.8370413862312,909.5453444185375 408.59631189606245,909.7494929690874 409.1562305898749,909.4034441853748C409.8392341350401,908.9813247800261 409.8219791182567,908.4219791182567 409.1037989559791,907.703798955979zM376.75231868167884,904.1082020098409C379.821136653743,901.4750841546048 378.78311597338035,899.452520800339 372.9237645667926,896.6483378673586C365.89445765675373,893.2842347269237 364.50980664946945,895.2702454384435 367.587359432113,904.3023659962727C369.16843022328334,908.9425535104726 369.18526744582107,908.9552250495924 371.837359432113,907.5008769821883C373.30181174445084,906.6978040113929 375.51354340675545,905.1711002738366 376.75231868167884,904.1082020098409zM363.6069888041843,905.4182125317642C363.27314496188296,904.5482294242345 363.0,902.9983230898314 363.0,901.9739762330905C363.0,900.9496293763497 361.88922055922916,898.8489337370559 360.53160124273154,897.3057637013263C358.32903954920744,894.8021699722239 358.0621643761031,894.7153923169517 358.0535632432224,896.5C358.0398050925275,899.3546124999177 361.68376684017323,907.0 363.0580968067427,907.0C363.70126625840834,907.0 363.9447370008888,906.2983702237733 363.6069888041843,905.4182125317642zM404.0,905.5351837584881C404.0,903.6058157399203 400.36405094253115,901.6019362069733 399.47459846655727,903.0411005444768C398.66662221319467,904.3484335845202 400.7749665872839,907.0 402.62244471544216,907.0C403.380100121949,907.0 404.0,906.3408326913196 404.0,905.5351837584881zM435.4182125317642,902.3930111958157C436.5396576904008,901.9626723105555 437.0,900.4628343909409 437.0,897.2394009884532C437.0,893.1868768156583 436.5472238669795,892.2747789700956 432.8336102073625,888.8463897926375C430.54209582141186,886.7308754066869 427.93209582141185,885.0 427.03361020736247,885.0C423.0096578577958,885.0 421.2452266501709,891.7283556909542 425.0109385171561,892.7131114655648C426.11695470159196,893.0023411950044 427.2907383150356,894.310212368205 427.6193465470308,895.6194918504548C427.9479547790259,896.9287713327046 428.62917032748436,898.0 429.1331588769383,898.0C429.6371474263923,898.0 430.4772259317701,899.125 431.0,900.5C431.98629636821477,903.0941560393138 432.7444972484552,903.4190120177561 435.4182125317642,902.3930111958157zM409.94119162966365,897.1496606850383C415.4370115930856,891.880318641397 416.25723214872284,888.9654351270534 412.75,887.1677733044145C411.5125,886.5334820995035 409.7745416714484,885.4901869059476 408.88787038099645,884.8493395409567C407.5732979138627,883.8992238546546 406.51199762939257,884.2979232267013 403.13787038099645,887.0094458019414C399.45096762981495,889.9723216233248 399.0,890.8007433704906 399.0,894.610660576442C399.0,897.895668866326 399.51505338608854,899.2473494970484 401.2225062434054,900.4432960313509C402.4448846772784,901.2994832141079 403.76842091062707,902.0 404.16369787306905,902.0C404.5589748355111,902.0 407.1588470259787,899.8173473082672 409.94119162966365,897.1496606850383zM635.4207792405418,900.1281818814178C636.1856325519365,898.8906232271736 630.70365396629,882.7345513220966 629.3677872041627,882.2892624013875C628.3956550975249,881.9652183658416 623.0,896.8843644029733 623.0,899.896382485075C623.0,901.218453369083 634.6130112065999,901.4351780153617 635.4207792405418,900.1281818814178zM556.6083881953998,897.5781407131846C558.1606526931538,893.5330042740792 552.5246478110333,889.9955952347353 547.2929128045905,891.7313312191451C544.534578677429,892.6464654519845 541.6537615602598,896.6307574419135 542.6200011022895,898.194165862192C542.8939191898427,898.6373746379863 546.0305994996336,899.0 549.5904017907137,899.0C554.2630380282202,899.0 556.214486406604,898.6046323205053 556.6083881953998,897.5781407131846zM385.23545802827925,895.0379731624068C386.8345690672551,893.1703473875382 386.77252517130137,892.9742120562104 383.94594088242377,890.9615065129897C382.3127395904585,889.7985646164864 381.23333273812335,888.4314766934033 381.5472589883457,887.9235333505828C382.56707976981556,886.273428663731 379.203751423542,886.9472343832535 375.4934977854956,889.1363376037339C372.8987793603602,890.6672589408784 371.566335912239,890.9663359122391 370.7916930931532,890.1916930931532C370.0170502740674,889.4170502740674 370.43931986042526,888.9278417903729 372.28175942607754,888.4654188956167C373.6958360720588,888.1105082498444 375.57978178803324,887.0168296786524 376.46830546157616,886.0350220707452C377.9560471912878,884.3910859637788 377.95328063507174,883.9237097014922 376.43332182211293,880.1249586645479C375.5255571468652,877.8562313990466 374.4777561914799,876.0 374.10487525459,876.0C373.7319943177001,876.0 371.7279276174627,878.2757193825522 369.6513936985067,881.0571541834494C364.6603609380992,887.7424445538542 365.0116572218113,889.8826275095823 371.5,892.3193163005703C374.25,893.3520752660403 377.625,894.7865796910492 379.0,895.5071039117013C382.492774105946,897.3373790685015 383.3199299049607,897.2751471974801 385.23545802827925,895.0379731624068zM396.0,895.0C396.0,893.6666666666666 395.3333333333333,893.0 394.0,893.0C391.73329214912025,893.0 391.4370050048713,894.0370050048713 393.2,895.8C394.96299499512867,897.5629949951287 396.0,897.2667078508798 396.0,895.0zM363.0,894.1186888637687C363.0,893.0839677388416 361.425,891.0360666629434 359.5,889.567797583995C356.126532616877,886.9947285723168 356.0,886.9740878500987 356.0,888.9968576196886C356.0,891.011935161007 360.3775719810533,896.0 362.14602272683516,896.0C362.6157102270758,896.0 363.0,895.153409988696 363.0,894.1186888637687zM394.7774937565946,890.4432960313509C397.1413863228312,888.7875612273479 397.9524535724537,882.7066826692325 395.9726080982415,881.4830708736968C395.01370811565454,880.8904380926463 386.0,884.638353743854 386.0,885.6296988202848C386.0,886.76273194418 390.4934393832503,892.0 391.46555224957194,892.0C392.06474164456137,892.0 393.5551153227216,891.2994832141079 394.7774937565946,890.4432960313509zM426.1578947368421,889.0C426.1578947368421,887.625 426.3848684210526,887.0625 426.6622807017544,887.75C426.93969298245617,888.4375 426.93969298245617,889.5625 426.6622807017544,890.25C426.3848684210526,890.9375 426.1578947368421,890.375 426.1578947368421,889.0zM368.2819061092607,877.1297059654039C373.0065672511202,872.0786610525242 373.04406215264794,871.9858869538223 371.53791576259283,869.0733209998548C369.3088034267348,864.7626930689594 368.50865351556405,864.6566456340429 365.3507426868031,868.2533073687692C363.7828342090614,870.0390564703863 362.2420288801973,871.500096035802 361.92673084488285,871.5000619585819C359.946890831468,871.4998479786764 354.02402995785155,876.7874288030371 354.0857804139706,878.5C354.1254432915499,879.6 354.3848684210526,879.9375 354.6622807017544,879.25C355.6569008960599,876.7850716923733 357.24841052409636,878.0079473795182 356.6886047804586,880.8069760977072C356.2310606003474,883.0946969982631 356.6241588154864,883.9194823816465 358.8136047804586,885.2655792462103C361.4082750279183,886.8608127164857 361.5341818823441,886.8373495011027 362.50110191630745,884.5784003001779C363.0517079702766,883.2920570019222 365.65306985710555,879.9401445512739 368.2819061092607,877.1297059654039zM421.419968284078,884.0884340506684C423.55458940779835,881.7297042591356 423.16042497902515,877.1048696215956 420.6965912790053,875.6008618984255C419.2670501043822,874.7282214409117 418.6866418690353,874.8627952989988 417.8969011654341,876.25C417.34894639951693,877.2125 416.11298032396456,878.0 415.1503098864288,878.0C413.3505175244771,878.0 411.0,879.7987820572991 411.0,881.1761103153656C411.0,881.8876181762321 417.7165800753393,885.8534175602443 419.09501243788793,885.955803995728C419.4222692787263,885.9801117980776 420.46849940951176,885.1397953228008 421.419968284078,884.0884340506684zM432.5798016016299,881.25C432.2294436496643,879.7375 430.97681326633204,875.8483769238936 429.7961785275583,872.6075042753192C427.79711526239663,867.1200243240166 427.5809579748024,866.8794547465308 426.65134818580736,869.1075042753192C425.6640190440476,871.4738931140546 425.6489079100657,871.4762404599461 425.26652873540144,869.3226205102291C424.70773950966367,866.175431269883 422.2117289451899,864.2846682768208 421.40188174884133,866.3950962411249C420.6179284953019,868.4380456721244 423.58947676557557,873.0798849928296 426.10184567889905,873.7368842223879C427.53265598759106,874.1110495232995 428.0,875.1401438273203 428.0,877.916631363961C428.0,881.7554323353925 429.4051802593134,884.0 431.8084080298746,884.0C432.8326142341304,884.0 433.0430438910569,883.2498232060308 432.5798016016299,881.25zM392.25,879.8513654380247C396.4222402101307,877.7463165257242 397.2194280586149,875.0848308946146 393.75,874.8434762005562C392.5125,874.7573881108622 390.29370078082417,874.599906052038 388.81933506849816,874.4935160698359C387.3449693561722,874.3871260876338 384.7846299990845,873.7392179494387 383.1296920527477,873.05372020718C377.3542224102648,870.6614423521896 376.31307758526174,874.0091090560197 381.12728799825834,879.4921918009939C384.5287237527355,883.3662131032539 385.23811326875494,883.3891206470705 392.25,879.8513654380247zM404.39944041734543,881.5985417509772C403.7480452295276,879.9010331019604 400.22249563763404,878.8309775015846 399.4419789343304,880.093880056317C398.50509822269913,881.6097848911404 399.98119758233855,883.0 402.52763219803626,883.0C404.1833533530379,883.0 404.7689751638113,882.5615338638597 404.39944041734543,881.5985417509772zM361.0,877.0590169943749C361.0,876.5414763412812 361.45,875.8399186938125 362.0,875.5C362.55,875.1600813061875 363.0,875.5835236587188 363.0,876.4409830056251C363.0,877.2984423525313 362.55,878.0 362.0,878.0C361.45,878.0 361.0,877.5765576474687 361.0,877.0590169943749zM414.3636363636364,873.3636363636364C417.5372439091425,870.1900288181303 417.55521380950677,869.9755573640105 414.9274198509671,866.6348586918014C413.0826743471171,864.2896448156341 412.1666074610782,864.0 406.59408651763374,864.0C403.15067226626854,864.0 400.14006683279456,864.1932665005388 399.903852221025,864.4294811123084C399.66763760925534,864.665695724078 399.63374418005395,866.8628172875373 399.8285334894663,869.3119734755511C400.11171584033946,872.8725272301169 400.51511732297325,873.6787297214831 401.841347935108,873.3346062386726C402.7536065707986,873.0978980703755 404.4,873.5864649895746 405.5,874.4203105035594C408.4692691352724,876.6711393656143 411.4062660321114,876.3210066951614 414.3636363636364,873.3636363636364zM396.8328797618065,869.0699593380639C397.31024568357293,865.8098139459328 396.1705407205181,861.9943689834281 394.7309479717851,862.0332214806893C392.82081576310907,862.0847731479728 385.62056294887793,867.3779054098264 385.9341830452331,868.5C386.2184118681769,869.5169361858602 393.67496564604346,871.8819334830142 395.5,871.5339929030279C396.05,871.4291360719344 396.6497958928129,870.3203209677007 396.8328797618065,869.0699593380639zM379.89250069258753,869.3999383003882C380.1083760735107,869.2065548066616 379.65837607351074,868.2865627320559 378.89250069258753,867.3555114679309C377.6239148335942,865.8133304590009 377.77923518164295,865.7179733558645 380.63792281806946,866.2839300574658C382.9604518136763,866.7437392485706 384.20244781740263,866.4337790229615 385.41756118750607,865.0910938624411C386.32050474075794,864.0933524668085 388.8459394726267,862.4713459596046 391.0296383694366,861.4866349575439C393.21333726624647,860.501923955483 395.0,859.3452371657979 395.0,858.9162198693548C395.0,857.9288243283186 389.5361873178836,854.0 388.16301717115726,854.0C387.59748416463356,854.0 386.84705251516044,854.906534351031 386.4953912834393,856.014520780069C386.1437300517181,857.1225072091069 385.41685642745875,857.7576314405984 384.88011656286307,857.4259079611612C384.3433766982674,857.094184481724 383.14121143190596,857.1155704860893 382.20863819317105,857.4734324153062C380.72856098380703,858.0413913310601 380.8280740935163,858.3617132203415 382.99158476655043,859.9936523775203C384.354778620644,861.0219114275212 385.13756788710646,862.1957654462269 384.7311164698003,862.602216863533C384.32466505249414,863.0086682808392 382.9523852173666,862.3644450663513 381.6816057250724,861.1706097202266C378.91897905109425,858.5752567171752 377.7188816707443,858.4828646787216 374.46481670565504,860.615009933484C371.5624377217268,862.516721683094 371.5427463185655,862.6613899902108 373.53670837796506,867.4336129293123C374.8330162011851,870.5361142537206 375.419661067069,871.0051010435047 377.28670837796506,870.4315092102938C378.5040187700843,870.0575287035722 379.6766253116644,869.5933217941147 379.89250069258753,869.3999383003882zM419.0,859.4752491529363C419.0,858.2490754610562 415.39843690755094,856.0 413.4349003388255,856.0C411.92620985971837,856.0 413.40150573540893,859.2258339945529 415.25,859.9688379036357C418.46564500343516,861.2613692647236 419.0,861.1910355006744 419.0,859.4752491529363zM409.8,858.8C411.3609167053374,857.2390832946626 411.3352140255164,855.8582749471215 409.75,856.1138825267328C409.0625,856.2247383532358 407.825,856.0584053102343 407.0,855.7442535422849C406.175,855.4301017743356 404.0375,854.9203780949787 402.25,854.6115342548248C398.8896070351067,854.030926328837 398.26734540817387,854.927157802078 399.6069888041843,858.4182125317642C400.34433004824774,860.3396930131713 407.97451234524686,860.6254876547532 409.8,858.8zM397.0,853.0590169943749C397.0,850.4817507934667 395.4707065295556,849.6644879871335 392.19316454340594,850.4902178000012L389.5,851.1687220766348L391.8607839623098,853.0843610383174C394.886106556281,855.5392344723947 397.0,855.5288098068553 397.0,853.0590169943749zM491.4652821370409,615.0484759493063C488.28079388109694,613.7576771835659 486.4633185316345,611.1366814683656 487.81525595527995,609.7847440447201C488.65591284483344,608.9440871551666 489.60571671402676,608.9549529636045 491.51992733234835,609.8271256887774C497.06593071991205,612.3540539390196 502.0,610.3240892063021 502.0,605.5154355393292C502.0,603.3610679348043 501.77410472219964,603.2589941651977 499.17635617244036,604.2395347223139C495.5603797235406,605.6044133831265 491.4755478494783,604.5664569403874 488.413878240691,601.5047873316001C484.32779176634125,597.4187008572504 485.50499119302646,587.1319911103435 490.44203550178605,583.7821614170484C491.02391597580373,583.387350196425 494.9875,583.1080648167331 499.25,583.1615272399551L507.0,583.2587316458133L507.0,596.1645491172517C507.0,610.5671072763012 506.1792070532752,613.044674044699 500.7847927045422,614.9251770141832C497.2081003779401,616.1720186741468 494.3310448587341,616.2100826775339 491.4652821370409,615.0484759493063zM312.75,604.9199012005281C311.6299098098369,604.2675085558714 311.0,602.68481114625 311.0,600.5228900354616C311.0,596.1256282737975 314.563222788501,593.2594807951058 321.1095459651825,592.391080323104C324.85877266557287,591.8937278172183 326.0,591.3329029150399 326.0,589.9878006934048C326.0,587.8806336845765 322.37480979624866,586.7290403675495 319.90406823998353,588.051341119884C317.25545187174663,589.4688375826298 314.0,589.1960989599768 314.0,587.5567039686491C314.0,585.1840434728616 318.1620551220647,583.0 322.6835510959859,583.0C328.9896021402916,583.0 331.0,585.6176111087252 331.0,593.8283188480168C331.0,598.6887912601808 331.4099311198126,600.5792637559877 332.6624799413976,601.4951498158132C333.64724659353817,602.2152287726839 334.0676926785771,603.3812124163427 333.69386473773625,604.3553924144285C332.95460796270527,606.2818646895206 328.94028598409795,606.540285984098 327.1750406089342,604.7750406089342C326.2084280875132,603.8084280875131 325.5364021245451,603.8084280875131 323.9886094533725,604.7750406089342C321.62663170676547,606.2501201255329 315.17658684075417,606.3332582859053 312.75,604.9199012005281zM340.6348586918013,603.9274198509671C338.1212703052105,601.9502309379153 338.0,601.4209393617637 338.0,592.4274198509671C338.0,583.0381720099356 338.0101226026153,583.0 340.5,583.0C342.9697732410902,583.0 343.0,583.1023455838993 343.0,591.4648162415119C343.0,598.9328760113764 343.23775551069616,600.0568753708396 345.01910573514834,601.0102250791454C346.5126810950554,601.8095623538455 347.7490052948936,601.7509563964111 349.76910573514834,600.7850589796304C352.3760972700989,599.5385435396059 352.51317758787616,599.1054611503582 352.7904423428307,591.2396501419971C353.0726994139497,583.2322105467291 353.1502001563963,583.0 355.5404423428307,583.0C357.9574709613322,583.0 358.0,583.1448672988707 358.0,591.3780279397843C358.0,598.871650813786 358.22961740851395,599.90851613619 360.1751809644926,601.2003220185811C361.60179444942304,602.14755794211 362.1288057077725,603.2219544151062 361.7065657608313,604.3222940787969C360.89722082898214,606.4314131627963 357.63546300160334,606.4926058587462 355.5800879261013,604.4372307832442C354.1630623037603,603.0202051609032 353.80924058078256,603.0202051609032 351.78615311126737,604.4372307832442C348.68124519802626,606.6119929397843 343.76182057349627,606.3870884255854 340.6348586918013,603.9274198509671zM397.120600220975,604.2896565973307C390.54600707505074,601.0507962892019 389.33007533144433,591.4794060665452 394.7653564739492,585.75C396.9568259457007,583.4399413007521 398.20255989966427,583.0 402.5522325129647,583.0C408.3293392062757,583.0 413.0,585.7147390152041 413.0,589.0725801490329C413.0,591.4090772586642 409.8106622263289,591.6817145138455 408.0,589.5C406.64456372056657,587.86679919621 400.35296876989406,587.4904419707065 398.1136363636364,588.9086071309943C395.98799767424197,590.2547702661478 396.30648382959146,598.0197202338846 398.55476599874123,599.6637042940611C401.3911710069322,601.7377342737739 406.7358028658369,601.3621739526153 408.0,599.0C409.1180854256375,596.9108382720799 414.0,596.1506765368292 414.0,598.0657414540893C414.0,601.8655121804844 408.3829577031081,606.0185732013754 403.2996599268842,605.9772299063883C401.7598469670979,605.9647063549019 398.97927009943874,605.2052983658259 397.120600220975,604.2896565973307zM525.5600615090332,603.75C522.3892776698106,600.9538569451028 521.7147611426841,596.7447842460477 524.3498989588605,596.198424988116C525.5160695846112,595.9566356920134 527.1978697483415,597.0104031682429 528.9001862897151,599.0495037905572C531.2693287242165,601.8873542696728 531.8666476748372,602.1417355155597 533.7696592886527,601.1232746076316C535.7875755744709,600.0433185854732 535.9583015091944,599.1099956125089 536.2193719577983,587.7312078722526L536.5,575.5L539.25,575.1835776543028L542.0,574.8671553086056L542.0,587.9790321997573C542.0,600.5669508743135 541.9019149379152,601.1889941529939 539.5454545454545,603.5454545454545C536.2107685732749,606.8801405176342 529.2254468181748,606.9823053842077 525.5600615090332,603.75zM551.6348586918014,603.9274198509671C549.1212703052105,601.9502309379153 549.0,601.4209393617637 549.0,592.4274198509671C549.0,583.0381720099356 549.0101226026153,583.0 551.5,583.0C553.9502956753104,583.0 554.0003044444466,583.1540834065379 554.015312774517,590.75C554.0351164966917,600.7729286784593 555.2167139101807,602.506134772292 560.75,600.6286615525825C562.8450966101632,599.9177841978903 563.0,599.2846734433255 563.0,591.4326123294429L563.0,583.0L566.0,583.0L569.0,583.0L569.0,591.6397574013847C569.0,598.5406825282942 569.3345896931442,600.5241727597536 570.6624799413976,601.4951498158132C571.6472465935383,602.2152287726839 572.0676926785771,603.3812124163427 571.6938647377362,604.3553924144285C570.9546079627054,606.2818646895206 566.940285984098,606.540285984098 565.1750406089342,604.7750406089342C564.2084280875131,603.8084280875131 563.536402124545,603.8084280875131 561.9886094533724,604.7750406089342C559.0399487105151,606.6165097207561 554.5903910975723,606.2522419801708 551.6348586918014,603.9274198509671zM603.805804617873,602.9596507717192C600.9473976005967,600.1012437544427 600.791905444464,599.5536332716425 601.2074496001328,593.808794026658C601.5777479761668,588.689471292905 602.0924458137906,587.3172322290256 604.380485606663,585.3491432549388C608.5378056192914,581.7731671272102 615.2143999724475,582.0605538186013 619.1382199188431,585.9843737649969C621.5765044356942,588.422658281848 622.0656316972589,589.6577925898281 621.81129684192,592.7343737649969L621.5,596.5L614.0421881052339,596.6234356842986C606.5231051933287,596.7478854770293 605.2871487666607,597.3211095647393 606.9312222822565,599.921429698216C607.8828658476143,601.4265801062844 612.3040872308012,601.6530714131933 617.75,600.4756564360506C620.2018159480971,599.9455699398411 621.0,600.116316656494 621.0,601.1708931146069C621.0,603.3804355170961 615.5856579113661,606.0 611.0187848664405,606.0C607.7035557282055,606.0 606.2214158480541,605.3752620019003 603.805804617873,602.9596507717192zM668.5,604.8452676412157C664.5752472028793,602.698594688729 664.0,600.9042839616832 664.0,590.8088703648951C664.0,582.3754522000264 664.2768839010674,580.7231160989326 665.9745639227922,579.0254360772078C670.2157880851373,574.7842119148627 678.7227669357112,575.3631425354249 682.2627485576359,580.1339058411647C683.876515833091,582.3087481211536 684.1959503054002,584.275518137105 684.095523784511,591.4183715913396C684.0286303360405,596.176179541295 683.4415251207653,600.9213981148047 682.7908455283439,601.9633017546942C680.4478199276732,605.7150820934762 672.8804092483341,607.2411653041511 668.5,604.8452676412157zM719.3850917006012,604.1525200128888C714.724460963624,601.2216753043883 713.9138589137754,593.6017589396262 718.4477905319682,595.3415917467792C719.3180145116576,595.6755280204009 720.4387374369107,597.0237675869027 720.9382859214197,598.3376796723388C722.0579799692633,601.2826981982154 725.5634528977462,602.3183635264955 728.9378075269872,600.7010775187173C734.461010648422,598.0538752806932 732.1947871640003,593.0 725.4845440887422,593.0C722.7433088392269,593.0 721.0212831532734,592.4978462993602 720.6758898061457,591.5977656647053C719.9425098968843,589.6866082563168 720.8358664693169,589.0 724.0558827043569,589.0C725.5532848584198,589.0 727.8407848584199,588.1281923422089 729.1392160376902,587.062649649353C731.0572163711416,585.4886646181612 731.2935271097448,584.7853225780899 730.3991510611559,583.312649649353C728.966979737941,580.9544470338653 723.7317573795976,580.4133600101729 722.0423804832789,582.4489346416308C721.3343820304891,583.3020205887339 719.6522148176199,584.0 718.3042311213474,584.0C714.8455387363695,584.0 715.6414379764758,581.1582512063587 719.904805473862,578.2851682647868C723.8626250402616,575.6179940441705 725.7903453968739,575.4677339933946 730.5479071960665,577.455570237404C734.8523189280587,579.2540682940021 736.2247698607523,582.3987929501382 734.5190302789969,586.554685093869C733.4283071899674,589.2121408773703 733.5080998835488,589.9092538205842 735.1326344248159,591.9154690561788C737.6604748321239,595.0372198158377 737.482760392266,599.3272301929283 734.6911583617696,602.5726609715864C731.5524707878493,606.2216027425524 723.9269745663754,607.0086899424583 719.3850917006012,604.1525200128888zM287.0,590.0L287.0,575.0L290.12232227611173,575.0L293.2446445522235,575.0L292.87232227611173,587.75L292.5,600.5L299.75,600.7938095527206C306.1790814192069,601.0543510059871 307.0,601.3091188414056 307.0,603.0438095527206C307.0,604.8549841192745 306.25868219565643,605.0 297.0,605.0L287.0,605.0L287.0,590.0zM365.66666666666663,604.3333333333333C365.3,603.9666666666666 365.0,599.0783257869898 365.0,593.470353600718L365.0,583.2740405347695L373.9799266241524,583.1893177644301C385.4310652674101,583.0812798895116 386.0,583.6981674383829 386.0,596.2225062434054C386.0,604.3333333333334 385.84809635070013,605.0 384.0,605.0C382.1783259035728,605.0 382.0,604.3333333333334 382.0,597.5230529798542C382.0,590.6945424718632 381.7878085501459,589.9070727818951 379.5532774620987,588.4429517802826C377.447838081518,587.0634149140382 376.71553740247583,587.0267359585977 374.3032774620987,588.1799935152234C371.6335568881075,589.4563383131034 371.48608514732774,589.8889426757867 371.2079357460527,597.2600947147951C370.9318588715734,604.5763233563573 370.7904491313058,605.0 368.6246024127194,605.0C367.36440441905705,605.0 366.0333333333333,604.7 365.66666666666663,604.3333333333333zM419.0,587.5L419.0,570.0L421.5,570.0C423.9454820585555,570.0 424.0,570.1643210827675 424.0,577.5351837584881C424.0,584.6751215769046 424.10145841983723,585.0160686185172 425.93425854591067,584.0351837584881C428.1539637830992,582.8472335669139 434.96717151508085,582.6748464847794 436.6002959998886,583.765312774517C439.00740843272797,585.3725845949066 440.0,589.2377505657195 440.0,597.0038094989866C440.0,604.8684241295507 439.92513790938654,605.1284697939718 437.75,604.8195509530758C435.6664858706398,604.5236447638385 435.4783344352419,603.92351311808 435.2071972503225,596.7089755765143C434.93246973085456,589.3989048332036 434.75701053018497,588.858113874111 432.36491331719105,587.9486401347376C430.57559402383276,587.2683421519367 429.0229985665313,587.3581248476418 427.15771606686855,588.2497592730185C424.663187026856,589.4421834594779 424.4820668965181,589.995429109022 424.2079357460527,597.2600947147951C423.925879222689,604.7347881988667 423.8316490704789,605.0 421.4579357460527,605.0L419.0,605.0L419.0,587.5zM447.0,594.0L447.0,583.0L449.5,583.0L452.0,583.0L452.0,594.0L452.0,605.0L449.5,605.0L447.0,605.0L447.0,594.0zM460.0,594.0L460.0,583.0L462.5,583.0C463.875,583.0 465.0,583.4658326913196 465.0,584.0351837584881C465.0,584.7487621031387 465.6009252125773,584.7487621031387 466.93425854591067,584.0351837584881C470.00457017076,582.3920028433718 475.56418120482004,582.8265675482035 478.13921603769023,584.9110146422021C480.2489865191433,586.618838122076 480.53716083736293,587.7884276878754 480.84949799737063,595.9110146422021L481.19899599474127,605.0L478.09949799737063,605.0L475.0,605.0L475.0,597.0351837584881C475.0,590.0687010675928 474.74691933416676,588.9349228550348 472.98089426485166,587.9897749208546C471.48736795038985,587.1904638944802 470.2509283698358,587.2490089067915 468.23089426485166,588.2146858771616C465.6482910670436,589.4492989094736 465.48414053578693,589.9404762302663 465.2079357460527,597.2600947147951C464.925879222689,604.7347881988667 464.8316490704789,605.0 462.4579357460527,605.0L460.0,605.0L460.0,594.0zM578.0,594.0L578.0,583.0L580.5,583.0C581.875,583.0 583.0,583.4658326913196 583.0,584.0351837584881C583.0,584.7487621031387 583.6009252125773,584.7487621031387 584.9342585459107,584.0351837584881C588.2297959045484,582.2714656886546 593.509409292598,582.8005588425475 595.5950124378879,585.1035445426982C597.0994161364939,586.7647523390939 597.5740918631703,589.0938942431176 597.852345889717,596.1798428207285L598.2046917794339,605.1525965560606L595.352345889717,604.8262982780303L592.5,604.5L592.836608722113,597.836608722113C593.1230335952141,592.166639776537 592.8655135131656,590.8655135131656 591.1092899244668,589.1092899244668C589.0766513076834,587.0766513076834 587.0296121971661,587.1269042935367 584.25,589.2776793791513C583.4503563480687,589.8964180815133 583.0,592.9029125153868 583.0,597.6224447154422C583.0,604.8251703523039 582.9407562393799,605.0 580.5,605.0L578.0,605.0L578.0,594.0zM637.3800023847535,603.5478870500192C636.5796453807318,601.4621901304893 637.1844041475431,600.7909546837719 645.5080097906969,594.5264276161749C651.6016433263374,589.94022617168 652.9971419182567,588.3849851007355 652.984687225483,586.1938962269527C652.9652340941885,582.7716087154296 652.0791959752122,581.4503806560197 649.2010367731439,580.5518532520923C646.5340804423049,579.7192608970155 642.0,582.2196979292611 642.0,584.5230529798542C642.0,585.4317964680097 641.0382127384396,586.0 639.5,586.0C635.2641822674824,586.0 637.2032745574243,578.9804831284866 642.1450253375721,576.4250044832966C649.7565611789337,572.4889263269803 658.0,576.9414894759082 658.0,584.9888183771662C658.0,590.4128010753208 656.8890231198428,592.2922546634575 651.4850056837474,596.0103163606693C649.0182525576864,597.707487108718 647.0,599.5244630517691 647.0,600.0480406785607C647.0,600.5716183053523 649.925,601.0 653.5,601.0C659.3333333333334,601.0 660.0,601.2051282051282 660.0,603.0C660.0,604.8791327328391 659.3333333333334,605.0 648.9686152036613,605.0C640.2471138129545,605.0 637.8205513333669,604.6959392072537 637.3800023847535,603.5478870500192zM690.0,602.6397485913735C690.0,600.7956355877805 691.8034049796083,598.8305370411326 697.5,594.4672974411832C704.178742698154,589.3517934402589 705.0,588.3585393322644 705.0,585.3965643186715C705.0,583.0444868865719 704.386996895409,581.7422982114962 702.9068592314658,580.9501525734274C699.9461601501132,579.3656345113171 696.0951885232021,580.6194358884295 694.989381332829,583.5279292111975C693.5914258454736,587.2048307867137 690.0,586.888806898151 690.0,583.0888936419931C690.0,575.9706816598582 702.1574766486376,572.0665675577283 707.5454545454545,577.4545454545455C709.5407452084104,579.4498361175013 710.0,580.9116610732459 710.0,585.2674542497795C710.0,590.9534006045261 708.4918698517845,593.1604725566663 701.75,597.3409106598253C697.4377531006282,600.014809985187 698.4671624532866,601.0 705.5733241632106,601.0C711.2946536044376,601.0 712.103204392805,601.2268244690891 711.8114689512263,602.75C711.5212134850257,604.2654484537001 710.0370618820764,604.5380418094612 700.7381447880157,604.7838317103739L690.0,605.0676634207477L690.0,602.6397485913735zM324.74440562116587,599.7971613502413C325.43498252952463,599.2240334206222 326.0,598.0763316214258 326.0,597.2467129075825C326.0,595.2822577139503 319.35441099957217,596.2168124731733 317.06925377813116,598.5026243677288C315.6809076523793,599.8913682398036 315.6729238969188,600.184588499137 317.0,601.0461154458109C318.63951128617407,602.1104727566956 322.7571847060142,601.446408226311 324.74440562116587,599.7971613502413zM677.4285714285714,600.4285714285714C678.5876097651699,599.269533091973 679.0,596.8171200814041 679.0,591.0835589906835C679.0,584.6332459753853 678.6664060052186,583.0080767081517 677.040294703458,581.5364662054485C674.4187405669082,579.1639923184673 670.2443759340649,580.227043261475 668.9646304857653,583.593028872372C668.4340837185944,584.9884726198594 668.0,588.8009044748205 668.0,592.0650996611746C668.0,596.6666666666666 668.4493195360369,598.4493195360369 670.0,600.0C672.4022811389406,602.4022811389406 675.2883573229699,602.568785534173 677.4285714285714,600.4285714285714zM500.96481624151204,598.0657414540893C501.5341673086804,597.0018992538385 502.0,594.5157613726598 502.0,592.5409906070256C502.0,589.5971798016001 501.5331052372151,588.7729852334534 499.40771606686855,587.9649137111596C495.0806946549157,586.3197831025454 491.5691777775974,588.6672934722008 491.17710836527357,593.4672187272226C490.9412912972026,596.3542184905814 491.32992241976916,597.7680768022498 492.6182380003785,598.7101161548101C495.286355624389,600.661091394812 499.76069516188744,600.3156622719903 500.96481624151204,598.0657414540893zM616.6000919734397,591.8380477849737C617.6887385129894,590.0765806822473 613.1288208098031,586.8331748710513 610.610624870288,587.5778234404082C608.1361284357979,588.309549753245 605.8355413550869,590.9248833284119 606.5910499647961,592.1473219377145C607.3844287775488,593.4310358227026 615.7758210222586,593.1717461999237 616.6000919734397,591.8380477849737zM446.7542963922932,576.75C445.9413067423528,574.5392569309189 447.1025373341719,573.0 449.58333333333337,573.0C451.49444444444447,573.0 452.0,573.5229885057471 452.0,575.5C452.0,577.470194092873 451.4928674130544,578.0 449.6069888041843,578.0C448.29083264648574,578.0 447.00712106113474,577.4375 446.7542963922932,576.75zM350.0,492.9604237161188C334.7488054403146,489.7861337591107 323.0778717124106,479.9959438183906 320.54258197997405,468.25L319.8410894683618,465.0L327.6705447341809,465.03852013926826C335.37550434395723,465.0764277723217 335.53199819661353,465.1279038974638 337.51234691181935,468.27582200077995C338.61913771332,470.0351519480138 341.54413771331997,472.605317885343 344.01234691181935,473.98730186151164C347.827716361535,476.12357922644327 349.77336289473953,476.49922425802623 357.0,476.49482173793183C370.11881058596015,476.4868296627274 376.98686261415946,471.84236328001884 376.9962619395625,462.9725062434054C377.0037977278998,455.8612123638209 374.1755830369024,454.41789544614556 352.5,450.4713798650861C336.37825655002456,447.5360626645821 329.3976335593677,443.2112220218126 324.7496225227196,433.27865071661716C322.15661879475874,427.7375291014709 321.80950026329424,426.0374867289357 322.25898166092065,421.0805263987905C322.8880406664255,414.1431524561211 327.19193640545103,404.8633089158256 331.451937665838,401.2591369945552C342.42362005709913,391.97655063210726 360.9916500974431,390.69388116383715 373.819574062877,398.3324035968186C379.9892972506014,402.0062302504307 383.53055289506125,406.25882442736827 386.14092609763395,413.1287682696093C389.0807035206771,420.86563355197217 388.9931591016872,421.0 381.0125445806225,421.0L374.0250891612449,421.0L371.5129654271458,417.0205385652829C368.11270558695827,411.63417852323005 362.69190196441264,409.0 355.0077194363997,409.0C348.10363840686944,409.0 343.5364753401559,410.6172551019056 340.19339510890234,414.245825745646C338.2746047766842,416.3284758136549 337.93834037320846,417.64749952571174 338.19339510890234,422.09098389157487C338.4639834954418,426.8050906965379 338.86845423457777,427.6801422713415 341.6366139455492,429.5402101862579C343.36175161560124,430.69941831148253 348.3117516156012,432.43756176385426 352.6366139455492,433.4027511915284C379.5630676172789,439.41198950386666 388.10478691052947,444.29886527477294 391.1211554446962,455.4204699844212C392.58500297352504,460.8177990529421 391.5546495100848,471.2227983073128 389.04243955323665,476.4123315815758C383.28760459712345,488.3002342671098 364.9509201891854,496.0722164100505 350.0,492.9604237161188zM438.28795165331013,490.0786817488962C433.7713250626307,488.50973731155676 427.7454140986697,485.51531918201727 424.8970384000634,483.42441923880847C418.55985259253805,478.77249728499385 411.86551494712575,469.8832401335675 408.9319658952001,462.22476627028016C406.17399842515084,455.0246747049783 405.1533926686367,438.42951881804424 406.9590804705541,430.14544380899645C410.9690154844733,411.74879605990225 429.2194673940315,395.69490829138294 448.5921342223753,393.5232069622242C469.57329135319804,391.1711917630759 491.5907816342179,405.98478845568354 498.01166164566007,426.7731795360235C500.3969353438476,434.4957973677234 500.6913395666714,449.81436574124007 498.6050728902297,457.6498111154339C496.50479412057376,465.5378820682262 492.10923234494555,472.91770991010605 485.74446264815896,479.24183834031214C472.6006539340196,492.3017192677002 455.75891163586255,496.1475840434033 438.28795165331013,490.0786817488962zM547.1892219062881,490.0805036341943C537.5611323260183,486.72924554423804 532.5441345063304,483.5113081652584 526.545698789075,476.83960398460204C517.0407130643073,466.26777226277665 512.3642499262824,449.3410064983885 514.9864104721539,435.0C519.877525199264,408.2497279023254 544.4563951656548,389.6454738466119 569.3739226223707,393.8329693397445C588.1976026020338,396.99636808450083 603.7007991659141,411.2133852648177 608.4250668686343,429.64434452114807C610.2124866686686,436.6176710939459 610.4517035460836,449.3275334182273 608.9205927598655,455.9721936416671C602.5078299297157,483.80207406795444 574.1564423699926,499.46700912826634 547.1892219062881,490.0805036341943zM628.2404873414905,443.25L628.5,394.5L636.612178359903,394.2117844961216L644.7243567198061,393.9235689922432L648.8933096749685,400.7117844961216C651.1862338003077,404.4453030232547 657.6607535383514,414.55521772408997 663.2811313150654,423.17826160908885C668.9015090917794,431.8013054940877 677.1,444.4777966107843 681.5,451.34824186841456L689.5,463.8399605186515L690.0,429.1699802593257L690.5,394.5L698.0,394.5L705.5,394.5L705.7595126585095,443.25L706.0190253170191,492.0L697.1133077455747,492.0L688.2075901741304,492.0L677.2648851102173,475.25C671.2463973250651,466.0375 661.1871895358858,450.4 654.9110900231522,440.5L643.5,422.5L643.2370420462851,457.25L642.9740840925701,492.0L635.4775293877756,492.0L627.9809746829809,492.0L628.2404873414905,443.25zM459.20077889709967,475.9007262103129C476.93640818884137,472.2216360109347 487.57028495477084,456.15332013979787 484.8731956899874,437.10842954525543C482.5808016018908,420.9212031240042 469.6919842801538,409.6528072023353 453.3919326080357,409.58508681594424C447.1533951438863,409.5591681148207 445.34983247930586,410.0171795748485 438.64851256534246,413.3291515341658C425.57333171754954,419.7912564458654 420.4050908914483,429.1339071327106 421.20580137021045,444.8604139522476C421.88924721003883,458.28376227342847 427.1824409402434,466.8551188796339 438.3550511469674,472.63047922053556C442.5146701977102,474.7806749630185 448.25264043424335,476.4845617276484 452.70077889709967,476.8904343326768C453.36120729050447,476.95069544970454 456.2862072905044,476.5053267946408 459.20077889709967,475.9007262103129zM576.2343119011767,473.3081391848141C583.6704334670204,469.9790729951357 590.0360581064045,463.17835718007564 592.9504787479432,455.4494204129536C594.7922767221271,450.5650396624911 595.1167793007553,448.0678743964072 594.763183319744,441.5C594.2063853305442,431.1577465423188 591.366070554345,424.5514828128423 584.8596724340091,418.46550913752753C577.7653926034986,411.8296409512793 572.2631701755512,409.652481645645 562.5,409.6180716614681C555.463273435761,409.5932709414787 553.7775449231792,409.9652421688633 548.5,412.7072981558391C541.5704348160982,416.30769492673215 536.1480082567651,421.60183272404834 532.8722396372816,427.965322569515C531.1060267143059,431.39635794040134 530.4808421953113,434.5514984965228 530.1731338700645,441.58699395239614C529.8097509999949,449.8954416652273 530.0266930560896,451.3093887660053 532.5158565492055,456.85598328405786C540.1635446005669,473.8973004730532 559.0459894245307,481.00315367692843 576.2343119011767,473.3081391848141zM261.60448158151064,354.4068205161061C244.95599352598444,350.37834322239985 230.12304796430902,334.81911996764876 227.00528044260943,318.1135102819523C224.7893204359903,306.2399620805413 226.59398377660278,291.68155702309 231.4760645563931,282.0472343244704C234.86726192001393,275.35502843736623 244.9798123752602,265.2939048862563 252.0,261.62767239822983C270.8418301362202,251.78768898584252 291.94001835656246,254.90938330243046 307.3392151752767,269.81567942958884C312.0504653352023,274.37613091544995 317.9717295375816,283.2342448932638 317.9906159383653,285.75C317.99738601757605,286.65180556595305 315.7019167352903,286.99284641285544 309.75,286.974318992332L301.5,286.94863798466395L296.6601708893475,282.0125585966533C290.43526033636397,275.6638524811496 283.4857698596317,272.94160407634797 273.36854408454974,272.888782669931C260.75763072050427,272.822941875735 249.80957894783853,279.57898399320317 244.27978207789604,290.83945602650283C241.79296874346255,295.9034199772649 241.50327620953678,297.55392701748866 241.5310857344238,306.5C241.55854402661123,315.33308459536363 241.88302697254406,317.16063326419265 244.3117752740731,322.1613638106742C248.72772668922903,331.25369467083186 256.7491179110267,337.3759523662424 267.5848938958127,339.9243709547413C277.0828579677756,342.15815543200154 291.63451270344615,337.11106538023705 297.73310161063216,329.4677787664314L300.5,326.00005898025324L309.25,326.0000294901266C319.32194750013105,325.9999955446401 319.50605049477673,326.2336434634697 315.0145840590012,333.31595105292536C303.8589931946573,350.9064923545573 282.30825271349573,359.4165650419224 261.60448158151064,354.4068205161061zM369.0,354.3277822124504C367.625,354.0435294021006 363.2250098962506,352.3020030599522 359.22224421389024,350.4577236743429C342.95470183226644,342.9624328055396 331.0,324.3423161426242 331.0,306.50000000000006C331.0,287.66156353707294 343.3333582103256,268.51832770437056 360.86398846727013,260.14657667565143C368.28844555714824,256.60102780667984 368.8186056074388,256.5003886657917 380.0,256.5140288070903C390.6651779921215,256.52703921792823 392.0256108846867,256.75562976161547 398.74049571867204,259.6629530419509C411.89245050595093,265.3573149379958 421.3558820440368,275.7434491085951 426.13982909078095,289.73377369959803C429.1407616425565,298.50979485217766 429.3570923592118,312.7936477328402 426.61335995105946,321.0C421.82765601935364,335.3137764430745 412.62435208632434,345.614246314596 399.0659985837556,351.83140227342574C394.3244187824052,354.0056442350804 391.87071345419963,354.4178152785788 382.5,354.61414266379415C376.45,354.7408972259049 370.375,354.6120350228002 369.0,354.3277822124504zM745.0,353.63996578396177C736.9903070471449,351.4594655282652 730.6476608270815,347.6375275994214 724.0051294321072,340.9889224574757C713.325722489519,330.2997505605777 707.9492837910885,314.4594286404547 710.027374015227,299.8069881058833C712.5613025400061,281.94046980128377 722.3379807876922,268.58879571198753 738.6117854921417,260.77023795360856C747.4152107780703,256.5407359828254 747.604934623304,256.5 758.5,256.5C769.3507925550695,256.5 769.6152966619918,256.55599379347507 778.0,260.62802275725807C782.675,262.89843527375 788.4338719643416,266.4392943369099 790.7974932540924,268.49659845316893C794.9204803338537,272.08526061628976 800.9710184962772,281.1395309340864 800.9906159383653,283.75C800.9973102866778,284.64171786337056 798.8107043052776,285.0 793.3618306953617,285.0C785.8128058742706,285.0 785.6718873025357,284.95227631197884 781.2875007284174,280.9108898897234C774.6748736100841,274.81558305495963 768.9611259706475,272.5661132453059 760.0,272.53012244366994C745.2840883719399,272.4710185477942 734.1487210231177,278.8878968912676 728.3003643499303,290.79738737772215C725.8299120217571,295.8281729716491 725.5,297.6191987238271 725.5,306.0C725.5,314.55102591984576 725.7965684189427,316.0853111047345 728.4688903405013,321.359438746814C731.7652101037555,327.8650962577072 736.8664848539449,332.75348540943867 743.8638752411739,336.11196255014863C750.3676848604755,339.23353998476205 763.5107971675253,339.3432704146116 770.1224049989482,336.33119218847355C777.9935859774871,332.74528488060685 786.0,324.28305270945356 786.0,319.5496599268842C786.0,318.2075081698121 783.5896988804973,318.0 768.0,318.0L750.0,318.0L750.0,311.0L750.0,304.0L776.8333333333337,304.0C791.5916666666674,304.0 803.8722987499985,304.2056320833313 804.1236268518476,304.4569601851806C804.3749549536966,304.7082882870299 804.2645301382183,308.59167992004177 803.8782383730069,313.0867193696514C803.10955957581,322.0313612922863 798.9429812671415,332.07795947418964 793.0814344862629,339.1203475084187C788.4960831275259,344.629443443104 777.3491786899791,351.7264440907137 770.5399012392525,353.47206972407605C763.4906807570686,355.27920712712154 751.3154780505506,355.35924535998646 745.0,353.63996578396177zM446.0,305.5L446.0,257.0L455.84812565871664,257.0L465.6962513174332,257.0L467.3129224569995,260.75C468.20209158376093,262.8125 471.3702006935185,270.575 474.35316492312734,278.0C488.7711723433332,313.88836367275684 495.8475191025264,330.4858142308066 496.46661457207006,329.8667187612632C496.67665327878944,329.6566800545439 499.77922361949993,321.6132434077836 503.36121532920447,311.99241510179587C506.943207038909,302.3715867958081 512.0756241686427,288.875 514.7665867286125,282.0C517.4575492885824,275.125 520.6907819329396,266.6875 521.9515481605174,263.25L524.2438503924769,257.0L534.1219251962384,257.0L544.0,257.0L544.0,305.5L544.0,354.0L537.0,354.0L530.0,354.0L530.0,319.8000000000005C530.0,300.35402591497444 529.6248024567254,286.0098340531945 529.1302878242225,286.5500000000005C528.3456951075416,287.40702270429944 513.9922782561073,323.6245477145056 508.541912300995,338.5C507.3327922482617,341.8 505.59122195896504,346.24245577960266 504.6717561025581,348.37212395467253C503.7522902461511,350.5017921297424 503.0,352.63929212974244 503.0,353.12212395467253C503.0,353.6049557796026 499.6838769460735,354.0 495.63083765794113,354.0L488.2616753158822,354.0L477.94599766333886,328.25C472.27237495444,314.0875 466.5020852785546,299.6875 465.1231317169269,296.25C463.7441781552991,292.8125 462.2523561528701,290.0 461.8079717115291,290.0C461.3635872701881,290.0 461.0,304.4 461.0,322.0L461.0,354.0L453.5,354.0L446.0,354.0L446.0,305.5zM571.6666666666667,353.33333333333337C571.3,352.9666666666667 571.0,331.14166666666665 571.0,304.83333333333337L571.0,257.0L578.5,257.0L586.0,257.0L586.0,305.5L586.0,354.0L579.1666666666667,354.0C575.4083333333334,354.0 572.0333333333334,353.7 571.6666666666667,353.33333333333337zM612.0,305.5L612.0,257.0L620.75,257.00101667929675L629.5,257.0020333585935L632.2672876516265,261.75101667929675C635.5669479697269,267.4136126170319 654.3802277172568,296.6731144113385 665.5408582922616,313.5L673.5,325.5L673.763127632086,291.25L674.0262552641719,257.0L681.513127632086,257.0L689.0,257.0L689.0,305.5L689.0,354.0L680.5709510333454,354.0L672.1419020666908,354.0L666.3209510333454,344.9248270198059C663.1194279650055,339.9334818806991 659.6640310081973,334.7383853609506 658.6422911293274,333.38016808703145C657.6205512504575,332.0219508131123 652.1916611678295,323.6182786541997 646.5780909457096,314.7053410672256C640.9645207235897,305.7924034802515 634.3754897153923,295.3628324240623 631.9357998163821,291.52851649791626L627.5,284.55703299583246L627.2370420462851,319.27851649791626L626.9740840925701,354.0L619.4870420462851,354.0L612.0,354.0L612.0,305.5zM389.9343958317833,337.43795310885093C404.17967410841936,333.43986198109053 413.02832678862393,321.2451058670603 413.11054257307705,305.4977846575203C413.15320061186605,297.3272144507613 411.6242745722379,292.2211527007216 407.2169583454595,285.81533814585407C401.90062299624503,278.08830958556206 390.3314182942459,271.9810602792443 381.06849877257224,272.01186887538654C372.35039212556666,272.04086541650776 361.3749828146054,276.7980807856572 355.33728184571055,283.16488715135495C341.65453755503063,297.59345588950816 344.5447515107366,323.11225759854244 361.0410843251684,333.52593539604493C369.3504729824245,338.77142220479715 380.03083899572067,340.21749324493044 389.9343958317833,337.43795310885093z"/></svg>