<svg version="1.1" xmlns="http://www.w3.org/2000/svg" xmlns:xlink="http://www.w3.org/1999/xlink" width="1024" height="1024" viewBox="0 0 1024 1024"><path stroke="none" fill="black" fill-rule="evenodd" d="M0.0,512.0L0.0,0.0L512.0,0.0L1024.0,0.0L1024.0,512.0L1024.0,1024.0L512.0,1024.0L0.0,1024.0L0.0,512.0zM616.8790360430232,762.6457526515719C618.1731205517199,761.0864762091121 630.0,735.1316395241931 630.0,733.8509654770426C630.0,732.5363422142709 626.2191543344924,732.8456664420811 625.3090169943749,734.2347512287656C624.8640576474687,734.9138644045867 623.0661437014201,738.8513644045867 621.3136526698224,742.9847512287656L618.1273053396449,750.5L615.0378176761398,743.5C613.338599461212,739.65 611.576498364139,735.825 611.122037460422,735.0C610.2284994942013,733.3779268665292 606.0,732.3148608731931 606.0,733.7122940777845C606.0,734.1805618689494 608.0228214560285,739.0493597978335 610.4951587911746,744.5318450308603C615.5222904184744,755.6796663735842 615.5809066149865,755.9759703304978 613.5398824963055,759.922875756523C612.7368178692735,761.4758315030381 612.3618178692735,763.0284845359402 612.7065491629721,763.3732158296389C613.7506648784678,764.4173315451343 615.68926290321,764.0793415836042 616.8790360430232,762.6457526515719zM418.6,752.6C421.50212765957446,749.6978723404255 422.0,748.5117647058825 422.0,744.5C422.0,740.4882352941175 421.50212765957446,739.3021276595745 418.6,736.4C415.975458195417,733.7754581954171 414.36760038212134,733.0 411.55034007311576,733.0C406.7294538198679,733.0 402.38871509904544,735.3476277402074 400.5169269039901,738.967266977106C398.5733141039342,742.725799684495 398.6015774129504,745.3581284778377 400.63147514089815,749.6358204032701C402.60397760099215,753.7925607800231 406.18640544407015,755.9062641637126 411.35,755.9599623693448C414.42436060429134,755.9919338276242 415.8849802455609,755.315019754439 418.6,752.6zM432.3480865287281,748.2401126648675C432.53437292339277,742.2887122315987 432.9701797695217,740.585375786034 434.76607680304323,738.7894787525124C436.5856555451047,736.9699000104508 437.4264004840838,736.763171134719 439.72841169013293,737.5693014256544C442.4026093056171,738.5057658946911 442.5175694734381,738.8378512176831 443.0,747.0199353380096C443.4508651545389,754.6666666666666 443.6965393818442,755.5 445.5,755.5C447.35724890701096,755.5 447.5,754.8333333333334 447.5,746.1597329280293C447.5,737.5496209373056 447.3154508439079,736.6701766344034 445.13921603769023,734.9097329280293C442.5289474317037,732.7981818554033 436.99279649764566,732.3983039220003 433.82689925383846,734.0926407079278C432.3504201977422,734.8828283184981 431.4828283184982,734.8828283184981 430.6926407079278,734.0926407079278C428.39799913123255,731.7979991312325 428.0,733.346590877355 428.0,744.5695509530758C428.0,755.6889201690307 428.08017286893295,756.1266678882942 430.0604214158178,755.8195509530758C431.89714574976534,755.5346932016738 432.1455143631596,754.711804148846 432.3480865287281,748.2401126648675zM476.8195509530758,753.25C477.0892410974402,751.3510764669013 476.67684152739236,751.0 474.1765397572602,751.0C470.6864076466667,751.0 470.0,749.6812207984159 470.0,742.9757103621862L470.0,738.114995660844L474.25,737.807497830422C477.730834056526,737.5556510256124 478.5,737.1380395560122 478.5,735.5C478.5,733.8619604439878 477.730834056526,733.4443489743876 474.25,733.192502169578C470.2825674245412,732.9054487791547 470.0,732.6893678074467 470.0,729.942502169578C470.0,727.6666666666666 469.54687090901126,727.0 468.0,727.0C466.4549928396581,727.0 466.0,727.6666666666666 466.0,729.9304490469242C466.0,732.2080848131934 465.49876969094026,732.9320841485019 463.75,733.1804490469242C462.2731836510253,733.3901904121832 461.5,734.1872743564669 461.5,735.5C461.5,736.8127256435331 462.2731836510253,737.6098095878168 463.75,737.8195509530758C465.8291483238333,738.1148370990612 466.0,738.6508459140327 466.0,744.8784213179711C466.0,753.5452308562792 467.9347732601762,756.1606599336886 474.0,755.6928320036809C475.75683888025435,755.5573220991113 476.59499113764144,754.8311549922289 476.8195509530758,753.25zM488.0,747.6670003675854C488.514637252627,739.6046935462773 489.9806004557298,736.9764085194503 493.94112963510486,737.015312774517C497.6173866243571,737.0514246255156 498.4937142791784,738.8175622287465 499.0,747.2108841822615C499.44973327966113,754.6666666666666 499.7010668813554,755.5 501.5,755.5C503.2802087619361,755.5 503.53306889871897,754.7330293691102 503.8009118926692,748.5209171425968C504.158626961435,740.2243919301375 503.6139844459311,737.6139844459311 500.97456392279213,734.9745639227922C498.85519854313645,732.8551985431365 491.6233742013354,732.1823423601545 490.5,734.0C489.18446351260974,736.128582750038 488.10212724772117,734.8221426287886 487.807497830422,730.75C487.5518749657343,727.2169761297777 487.1204244018824,726.4460916692699 485.25,726.1804490469242C483.00167607074235,725.8611361338496 483.0,725.872175518635 483.0,741.0C483.0,756.127824481365 483.00167607074235,756.1388638661504 485.25,755.8195509530758C487.31359469157024,755.5264737750965 487.54142340187326,754.8510610167066 488.0,747.6670003675854zM528.4558107766086,754.036673798106C530.9176664130374,751.9935150900037 529.2554456654331,751.0 523.3752415515357,751.0C517.276182118496,751.0 514.0,749.7345797840604 514.0,747.3788276232715C514.0,746.2133169468025 514.931679558667,745.8841138398553 517.75,746.0537887302662C519.8125,746.1779600119771 523.9213790696389,746.2166548901854 526.8808423769754,746.1397773485066L532.2616847539507,746.0L531.6618661168811,742.303751012633C530.7810605351076,736.8759824531186 527.2313586252436,733.8247328307631 521.1138775622874,733.2369203572534C516.3679472895604,732.7808965487601 515.8281632633503,732.9718367366496 512.5248422388806,736.2751577611193C509.5442704110934,739.2557295889065 509.0,740.4894618626039 509.0,744.2651413081987C509.0,749.0845011914358 511.5701524885634,753.4333830798117 515.3881174468619,755.0742930566245C518.2014166802477,756.2834112204223 526.5471365649187,755.6207327001955 528.4558107766086,754.036673798106zM556.7324493815256,753.0C557.4470562888617,751.625 558.5190482973542,749.15 559.1146538448422,747.5L560.1975730220933,744.5L562.8487865110467,750.0C564.9755744515312,754.4120678026887 565.9767611573958,755.5 567.9102479659646,755.5C570.072438020091,755.5 570.6642165479485,754.4747619486031 573.6602479659646,745.5383023073275C575.497111584684,740.0593685763577 577.0,734.9968685763577 577.0,734.2883023073275C577.0,732.6322979434022 573.0721699454177,732.5987399369532 572.5168685568606,734.25C572.2856695391065,734.9375 571.1237003888996,738.7864076914407 569.9347148897341,742.8031282032015C568.7457293905686,746.8198487149623 567.5976746570575,749.9310079903908 567.3834821485982,749.7168154819315C567.1692896401388,749.5026229734722 565.9078182858815,746.2162152820315 564.5802124724706,742.41368727873C563.2526066590598,738.6111592754285 561.5078501474648,735.3648848503732 560.7029757800373,735.1997441119405C559.6934861071855,734.9926212654921 558.3827061002548,737.2488547471077 556.4770919452208,742.473718804198C554.9577302034993,746.6395456233724 553.4413274396658,749.7806632952347 553.1073080255908,749.4539802972255C552.7732886115159,749.1272972992163 551.3392169816335,745.4040086877003 549.9204821814077,741.180005604968C547.8648486757763,735.0597622280007 546.9001526893293,733.4351011532847 545.1704821814077,733.1804490469242C543.9767169816334,733.0046960227324 543.0,733.2577815220292 543.0,733.7428612675836C543.0,735.1094091585126 548.6315165052762,751.4429652002332 549.9558625981786,753.9175285103081C551.4939813671971,756.7915297194703 555.0093027945713,756.3155662683065 556.7324493815256,753.0zM596.2679420440292,754.8566017698195C597.8708761639489,753.9987374629122 598.499579154304,753.9987374629122 598.7855339232731,754.8566017698195C598.9951569321396,755.4854707964188 599.8041666666667,756.0 600.5833333333333,756.0C601.7062939288212,756.0 602.0,754.0273943325897 602.0,746.4853015660098L602.0,736.9706031320195L598.75,734.9296341550778C596.2683791065274,733.3711999224291 594.3319196675495,732.9896632910172 590.559390542748,733.3158551733811C575.8165119676157,734.5905987617795 576.5191030204993,755.6035205572464 591.3157414540893,755.9366136995809C592.8643992538384,755.9714761648114 595.0928895193114,755.4854707964188 596.2679420440292,754.8566017698195zM405.55670396864906,748.7774937565946C403.1684145464581,745.3677329679169 403.6028064731773,741.4575927717991 406.63485869180124,739.0725801490329C408.08403097229194,737.9326610670648 410.1294855177465,737.0 411.1803132372558,737.0C413.9173106763901,737.0 418.0,741.4627552845831 418.0,744.4545454545455C418.0,750.3785907214874 408.89398400855384,753.5421284424799 405.55670396864906,748.7774937565946zM586.5714285714286,749.4285714285714C584.3371121209539,747.1942549780968 584.5741707109131,741.4258292890869 587.0,739.0C589.2049180466413,736.7950819533587 592.1012338553035,736.4486274397035 595.0657414540893,738.0351837584881C597.6332292752196,739.4092615404727 597.9191362879338,749.4333167042373 595.4182125317642,750.3930111958157C592.5357121470574,751.4991303785181 588.1655730462248,751.0227159033677 586.5714285714286,749.4285714285714zM514.2468430228546,740.75C515.6111389878486,736.6258645819966 523.915235029901,736.1045810209398 526.0063191703191,740.0118074777472C527.0184426205569,741.9029774435498 526.7473880062041,742.0 520.4518504251547,742.0C515.6031649172863,742.0 513.9439083305166,741.6657424239827 514.2468430228546,740.75zM461.73876961300186,705.7756875954399C463.8498731736061,703.7924087769968 464.0,702.8330492630819 464.0,691.3256859732905C464.0,679.3843343751748 463.6163133703442,677.7836866296557 461.3073592920722,680.0926407079278C460.5171716815018,680.8828283184982 459.64957980225785,680.8828283184982 458.17310074616154,680.0926407079278C451.3399507433283,676.4356498070993 441.98532990995136,681.9687285471399 442.014741802397,689.6500000000001C442.03435406921903,694.7719806934776 443.7879051468826,697.9720127324188 447.88684457525096,700.3659222496813C450.7500346893214,702.038115309273 451.87005690994613,702.1809519886757 455.18369541162446,701.2964912369494C458.5932416215279,700.3864312523342 459.0584904700734,700.4611616619575 458.7904652289003,701.8758271916852C458.4192192890026,703.8353024706776 451.1026359204325,704.6604803531169 448.14321119777173,703.0766443070811C446.69938668331673,702.303932876838 445.9084930106778,702.4053328896458 445.018915309675,703.477208446141C440.89315277664906,708.4484481771609 456.59595308268683,710.6071128661139 461.73876961300186,705.7756875954399zM580.0,704.6467925711223L580.0,701.2935851422446L584.75,701.7024599820543C590.8685780336358,702.2291405322367 595.3097542548201,699.6214949123823 596.9959688309264,694.5122145622672C598.6832657234472,689.3996547612043 597.528521119898,684.6225084864262 593.8590449654873,681.5348478683816C591.0498496067113,679.1710658153871 590.1300953423745,678.9747762198336 583.1430492557292,679.24789085673L575.5,679.5466478130138L575.2186512547046,692.4704387402935C575.0639094447921,699.5785237502973 575.1622862864397,705.9805279923693 575.4372664583659,706.6971148337866C575.712246630292,707.4137016752039 576.851353565675,708.0 577.9686152036613,708.0C579.6065925988395,708.0 580.0,707.3506022972484 580.0,704.6467925711223zM331.8,700.8C333.14614139821975,699.4538586017803 333.4339629483681,696.0 332.2,696.0C331.76,696.0 330.8831059379311,696.5168940620689 330.2513465287358,697.1486534712642C329.3864752337168,698.0135247662832 328.4810588602947,697.8899965729053 326.5865298230807,696.6486534712642C323.37732808774774,694.5459037336365 323.0,694.5769021971237 323.0,696.9432960313509C323.0,700.6244264495998 329.2405700124748,703.3594299875253 331.8,700.8zM353.59486548049983,699.9212686439799C355.9199237883372,697.9916416349023 354.1480920818765,697.0 348.37524155153574,697.0C342.34848087604075,697.0 339.0,695.7373663768004 339.0,693.4648162415119C339.0,692.2868994929413 340.7627435874187,692.0 348.0,692.0C357.9485587012014,692.0 358.1949978329996,691.7957951264533 355.6364319023986,685.6722849183936C351.89553007893977,676.7190466104333 338.0893582448679,676.7552139424208 334.34025816886356,685.7280734305707C331.77700313829166,691.8628062345366 333.87381674897773,697.0256087630805 340.5,700.8946721873212C342.8436118458619,702.2631195317321 351.55320796293813,701.6156938873787 353.59486548049983,699.9212686439799zM375.521520398428,700.4227637627391C377.34959865234987,699.5552838322457 379.09752029526715,698.188249475186 379.40579071602184,697.38490963594C380.1627845525787,695.4122153194337 377.19168834424335,694.3991950701509 374.8811032166441,695.8421793649757C369.9335863380252,698.9319547941304 364.0,695.9732394561862 364.0,690.4164410093165C364.0,684.7431650375438 368.89658380080596,681.8041941371458 374.05845213374744,684.3792731946323C377.00771607925884,685.8505598163039 380.0,685.6422212528057 380.0,683.9655913448486C380.0,683.514354269118 378.8143135886894,682.212499231001 377.3651413081987,681.0725801490329C371.0449219224801,676.1010948556724 360.6227711236278,680.1401594612345 359.36727550476485,688.0475840753156C358.5495692797742,693.1977018721693 361.14630842999435,698.7266849496414 365.21256717400775,700.4933927809732C369.4931370670789,702.353214506235 371.48211408205316,702.3395875655748 375.521520398428,700.4227637627391zM396.75,701.3697139527466C398.0734490136182,701.0150433335174 399.0,699.9911652421035 399.0,698.883368636039C399.0,697.3613984364509 398.2529725023919,697.0 395.1069888041843,697.0C390.587229398898,697.0 390.0,696.0707120420735 390.0,688.9182125317642L390.0,684.0L393.79999999999995,684.0C397.93596950226134,684.0 400.14738872682693,682.54766380178 399.3148662339327,680.378144961883C398.97661730355475,679.4966823788374 397.2027845528369,679.0 394.3930111958157,679.0C390.039093638693,679.0 390.0,678.968853315112 390.0,675.5C390.0,672.6666666666666 389.6190476190476,672.0 388.0,672.0C386.3940845579553,672.0 386.0,672.6666666666666 386.0,675.383368636039C386.0,677.9727334011636 385.51023218309007,678.8948144333045 383.9130264582135,679.3124931130258C381.5195085463166,679.9384121075296 381.60512990110357,683.5 384.01369504303216,683.5C385.1642726701333,683.5 385.56618925511606,685.1288843616959 385.7930277318087,690.7112654697405C386.0527099861039,697.101915467078 386.38099628871225,698.1545314263129 388.67788642361,699.9612654697405C391.38755474572775,702.0926908825566 393.00144538088415,702.3742877400974 396.75,701.3697139527466zM410.0,690.5C410.0,679.6666666666666 409.8840579710145,679.0 408.0,679.0C406.12307692307695,679.0 406.0,679.6666666666666 406.0,689.8333333333333C406.0,700.7928853532022 406.26457307327075,702.0 408.66666666666663,702.0C409.7004830917874,702.0 410.0,699.4166666666667 410.0,690.5zM422.1497618381642,694.0389179620151C422.53648736898157,685.5230622838812 423.9615695984333,683.1015520073091 428.62755528455784,683.0318033718704C432.07804410076557,682.9802243695511 433.4663349203774,685.7858268397571 434.0,693.8889983858833C434.40815183159094,700.0863765440828 434.82146858943173,701.5421379451326 436.25,701.8138238139002C437.8130580927003,702.1110946983258 438.0,701.1725443926831 438.0,693.027869617756C438.0,684.6795366678152 437.7926154153457,683.7017063244366 435.54545454545456,681.4545454545455C432.85769309383994,678.7667840029308 427.46438721389694,678.1459162300089 423.8070845820892,680.1032451984278C422.25342282678525,680.9347397360503 421.5555178414855,680.8988467488805 420.97375081315,679.9575279234996C420.54920512058607,679.2705985631538 419.59393340430574,678.9408145279498 418.85092477697145,679.224674511935C417.8014215359995,679.6256280974181 417.5696998115567,682.2240481195118 417.812383791921,690.8703917868631C418.0932990462127,700.8788390950123 418.30929028510945,702.0 419.9564987496372,702.0C421.54847489455835,702.0 421.83555077522885,700.9579751516817 422.1497618381642,694.0389179620151zM485.7706977336533,693.9893952230582C485.9937188795863,687.8190683331757 486.4095115134914,686.1917815772426 488.1314816959631,684.75C489.2810291217242,683.7875 490.95921514158016,683.0068907485327 491.8607839623098,683.015312774517C495.622793635702,683.050455674864 496.49102095664625,684.7729117039396 497.0,693.2108841822615C497.44973327966113,700.6666666666666 497.7010668813554,701.5 499.5,701.5C501.2802087619361,701.5 501.53306889871897,700.7330293691102 501.8009118926692,694.5209171425968C502.158626961435,686.2243919301376 501.6139844459311,683.6139844459311 498.97456392279213,680.9745639227922C496.8013233682512,678.8013233682512 490.23509308615564,678.2686307230928 486.99494690939275,680.0027043320231C485.7425313940356,680.6729767747207 484.91592252041664,680.6729767747207 484.50167136910716,680.0027043320231C484.16083342228575,679.4512169494104 483.2335236587188,679.0 482.44098300562507,679.0C481.2750148753942,679.0 481.0,681.067566241337 481.0,689.8333333333333C481.0,695.7916666666666 481.3155563197325,700.982222986399 481.7012362660721,701.3679029327388C482.0869162124118,701.7535828790785 483.0994162124118,701.9363107294547 483.9512362660721,701.7739648224637C485.1554242023533,701.5444621453863 485.5602260276706,699.812516710269 485.7706977336533,693.9893952230582zM523.8507767347735,700.9021748573656C525.582849530648,700.2983710289167 527.0,699.1733710289167 527.0,698.4021748573656C527.0,696.7948038835407 526.2999831538827,696.6575132562857 519.6855721765845,696.9676345467166C515.0765316995816,697.1837326369747 511.0,695.2487996964203 511.0,692.8450124378879C511.0,692.3802555970495 515.05,692.0 520.0,692.0L529.0,692.0L529.0,688.9C529.0,686.7078431372548 528.0043010752688,684.8043010752688 525.6,682.4C522.6978723404255,679.4978723404255 521.5117647058823,679.0 517.5,679.0C513.4882352941177,679.0 512.3021276595745,679.4978723404255 509.4,682.4C506.56893351585876,685.2310664841411 506.0,686.532500856938 506.0,690.1774937565946C506.0,695.3362889518459 508.0542417522549,698.681145007041 512.3783023445405,700.5630791900439C516.2201918851644,702.235161044475 519.7294282192058,702.3388846873445 523.8507767347735,700.9021748573656zM540.603055288502,701.234687225483C541.2097356971781,700.8306092514673 542.6040072471224,698.0734425662263 543.7014365106003,695.1076501471696L545.6967624441966,689.715300294339L547.5671983191337,694.9168074926581C549.7182771793817,700.8987565803857 551.1343153405041,702.4095329786285 553.7977393990778,701.5641950209722C555.1263591707258,701.1425074865928 556.6115916407196,698.208398923244 558.7749663134248,691.731576622065C560.4708978935337,686.6542094799292 562.1634656267587,681.7125 562.5362279428139,680.75C563.0668379148482,679.3799256226118 562.690731977905,679.0 560.8038220441911,679.0C558.6865568830461,679.0 558.1187997140911,679.881044963881 556.1318249910641,686.25C554.8878121721422,690.2375 553.6296051750912,694.175 553.3358094420621,695.0C553.0331819336112,695.8498002741492 551.652594758028,693.2529197797375 550.1508176910046,689.0090397046534C548.6170678230244,684.6748075154612 546.8642449697851,681.397605960367 545.9913443512535,681.2321942166947C544.9398468963182,681.0329389706847 543.6118780325725,683.227120481111 541.6089494718206,688.4731545120412C540.0283928949432,692.6129195304186 538.6228237702496,696.0 538.4854625280572,696.0C538.3481012858647,696.0 537.0431411558537,692.175 535.5855511280329,687.5C533.2249208351307,679.9286346581168 532.6730181433788,679.0 530.5338627822596,679.0L528.1323381234334,679.0L531.5384291782291,689.1141123415523C535.7564421249037,701.6391611774378 537.1660036820882,703.5239268809015 540.603055288502,701.234687225483zM607.0147418023971,695.75C607.0346425299812,687.3127991713044 608.5106906758566,684.5862138713477 613.2729929968434,684.189634738274C616.4723966678233,683.9232054675831 617.0,683.533909401797 617.0,681.439634738274C617.0,679.393155104997 616.5143535395429,679.0 613.9864311555618,679.0C612.3289682911208,679.0 610.0201742320907,679.5625 608.8557776910505,680.25C607.1621099949922,681.25 606.6481570972131,681.25 606.2860132021555,680.25C606.0370392743033,679.5625 605.1958333333333,679.0 604.4166666666667,679.0C603.2765700483092,679.0 603.0,681.2450980392156 603.0,690.5C603.0,701.3333333333334 603.1159420289855,702.0 605.0,702.0C606.7850942077444,702.0 607.0015840493617,701.328419399201 607.0147418023971,695.75zM636.0327330228941,700.48307309601C641.4339200735113,697.6900107218454 643.4521733955272,690.7088738377591 640.5057112640454,685.0110443668177C638.3536521077854,680.8494208547646 635.1759645571382,679.0 630.1774937565946,679.0C626.532500856938,679.0 625.2310664841411,679.5689335158588 622.4,682.4C612.8584395656198,691.9415604343801 623.9919783302046,706.7095893365191 636.0327330228941,700.48307309601zM661.5,701.0532992520211C662.6192492490092,700.6021689288082 664.0311786304321,700.6710326984066 664.7061951235,701.2096744115563C667.3994745706689,703.3588258327609 668.0,700.6813961451835 668.0,686.5243163389584C668.0,675.9374103319113 667.671713010894,672.0521534034086 666.75,671.7306409214423C664.2795435959429,670.8688948457434 663.0000107663182,672.2770742930128 663.0006216145541,675.8569888041843L663.0012432291081,679.5L657.99735527546,679.153266339094C653.4028018009765,678.8348966311403 652.707423016839,679.0925769831609 649.496733660906,682.303266339094C646.5452464504338,685.2547535495662 646.0,686.4962504683155 646.0,690.2651413081987C646.0,698.8319243080682 653.7054630927358,704.1950051386959 661.5,701.0532992520211zM686.4800726676517,700.8271256887774C688.4491369965589,699.9299599404808 689.3299599404809,699.9299599404808 690.2271256887775,700.8271256887774C692.6099003983917,703.2099003983918 693.0,701.7472522719974 693.0,690.4304490469242C693.0,679.0043811094897 692.9720959969404,678.8648610941915 690.75,679.1804490469242C688.6783529198226,679.4746698464386 688.4763818168508,680.0909678441576 688.2020463015772,686.9553175281728C688.0381717674445,691.0557421686678 687.4205716454956,694.9932421686678 686.8296015861349,695.7053175281728C685.2833889364631,697.5683897954506 679.3526245591522,697.3613081621057 678.6069888041843,695.4182125317642C678.273144961883,694.5482294242345 678.0,690.4982294242345 678.0,686.4182125317642C678.0,679.0964022590309 677.9662186169215,679.0 675.4005020026293,679.0L672.8010040052587,679.0L673.1505020026293,688.0872522453283C673.4779930015065,696.6023033679695 673.6766717921491,697.3264290699146 676.3057637013263,699.5872522453283C679.3892623939734,702.2388314013707 682.5392254331109,702.6226958518213 686.4800726676517,700.8271256887774zM715.75,700.0109603735527C717.5375,698.9211004454879 719.0,697.3959275345678 719.0,696.6216872381746C719.0,694.4726685856244 715.9194252802197,693.7629439949977 714.0266415351407,695.475889742062C711.4714600627078,697.7882971935533 706.4037785013032,697.4145620518734 704.5567039686491,694.7774937565946C702.4897067593905,691.8264418577128 702.5905651166761,688.7271986022337 704.8441676382276,685.9441172956431C707.0616759425354,683.2056104605161 712.1145607891216,682.8887134029245 714.8007483410993,685.3196797269646C716.2097264732132,686.5947874118157 716.8985250815269,686.7014749184731 717.8136536063687,685.7863463936313C719.7529541209128,683.8470458790872 719.1824693204528,682.1457188452442 716.0496599268843,680.5256801462316C711.1239239191112,677.9784830616932 705.3117916707773,678.5343621753765 701.9742887699942,681.8718650761596C698.3250065339189,685.5211473122349 697.4253006713203,689.1384586669202 698.9233244081315,694.1384162766044C701.0518540024524,701.2428148792703 709.1145089340074,704.056697892913 715.75,700.0109603735527zM737.8106554026012,699.3178823341759C738.0693155446099,697.5009917840829 737.5671971830049,697.0825598160786 734.8106554026012,696.8178823341759L731.5,696.5L731.2038335913662,690.3097536434977L730.9076671827324,684.1195072869954L735.2038335913662,683.8097536434977C739.0371434556429,683.5333719617432 739.5,683.2306572299975 739.5,681.0C739.5,678.7387717429231 739.0604680660448,678.4714670505231 734.8979904764449,678.2012528667793C730.6178277258293,677.9233989542831 730.3285858142536,677.7319444181102 730.7621900161043,675.4636905455886C731.082952439954,673.7857303068473 730.6933192457636,672.8195459598109 729.513274762688,672.3667204038812C727.5362044917969,671.6080473560696 726.0379594112629,673.4557011442049 726.015312774517,676.6804490469242C726.0050107213355,678.1474008404148 725.2893747954917,678.9654631272176 723.8283279403892,679.1804490469242C720.6643230273344,679.646016940119 720.4279827446894,681.8320211212864 723.4187175604566,682.9690964715667C725.8322617873002,683.8867243510721 726.0,684.3774467454266 726.0,690.5207036983909C726.0,696.2071887456466 726.3385015617642,697.4294106526734 728.5166612926839,699.6075703835929C731.7766933290811,702.8676024199902 737.329944412763,702.6945110175933 737.8106554026012,699.3178823341759zM319.0,699.0C319.0,697.140350877193 318.3333333333333,697.0 309.5,697.0L300.0,697.0L300.0,692.5L300.0,688.0L307.07332416321054,688.0C313.2702662653891,688.0 314.10530766123134,687.7831756934338 313.8129857162286,686.25C313.5415370195853,684.826300716308 312.22266231036593,684.4448663830335 306.7396615530181,684.2043100892237L300.0,683.9086201784473L300.0,679.9543100892237L300.0,676.0L309.5,676.0C318.3333333333333,676.0 319.0,675.859649122807 319.0,674.0C319.0,672.1111111111111 318.3333333333333,672.0 307.0,672.0L295.0,672.0L295.0,686.5L295.0,701.0L307.0,701.0C318.3333333333333,701.0 319.0,700.8888888888889 319.0,699.0zM448.65498756211207,695.171259328416C447.74474440295046,694.1654519590447 447.0,691.9475948161876 447.0,690.2426878998444C447.0,685.112375090223 451.49096317806783,682.09556759468 456.3679182402227,683.949782604438C458.72530812770214,684.8460606421701 459.0,685.4712243511124 459.0,689.9400653944483C459.0,693.8496482830961 458.5813326825604,695.1536964315274 457.06574145408933,695.9648162415119C454.1138785757233,697.5446053112972 450.49372649543346,697.2030429797073 448.65498756211207,695.171259328416zM581.25,696.3377192982457C579.6967296315136,695.7109610793826 579.5386067572225,685.4031906949658 581.0677649980621,684.4581189279501C581.6550357469963,684.0951656445102 583.6592068730234,683.7550137222128 585.5214786114558,683.7022257672893C591.8726139928399,683.5221964829979 595.0995780358963,689.557419968381 591.4432960313509,694.7774937565946C590.2886852441834,696.4259315680623 588.9326218915538,696.9796080698852 586.1932960313509,696.921052631579C584.161983214108,696.8776315789473 581.9375,696.6151315789474 581.25,696.3377192982457zM625.6369373832847,695.4940802404276C621.9855124459333,691.8426553030762 623.0388618590571,685.6961216980919 627.6141489535058,683.9566006452303C632.5795905283422,682.0687431233137 637.0,685.1111033088047 637.0,690.4164410093165C637.0,692.3178441252279 636.2334509059009,694.3837422716838 635.171259328416,695.3450124378879C632.8882097060956,697.4111439497725 627.6361168369111,697.493259694054 625.6369373832847,695.4940802404276zM653.3125611336943,696.2143351381059C651.4841929032754,695.0517574833541 650.2583018370748,690.7779702335747 650.9563652184434,688.0C651.7841438199422,684.7058230293572 656.4623890453879,682.4265721829821 659.9166437414676,683.6345335861665C662.1410380811592,684.4124097835582 662.5427921820799,685.206120400776 662.8079642869902,689.3466639900673C662.9800579763034,692.0338298300976 662.59514456285,694.7828946715044 661.935519571548,695.5776941632554C660.6843235116687,697.0852931863153 655.3067129038525,697.4823271375283 653.3125611336943,696.2143351381059zM329.6116717310308,689.8193113436096C330.03780347222454,689.129815702673 329.43832215772227,688.0390164003146 328.1706887254058,687.1973392833938C324.8404502636244,684.9861436524546 325.32661813566824,682.6153236271336 328.96122652092936,683.3422453041859C332.1920664589682,683.9884132917937 333.3456163787383,683.0642367821872 332.39625552816176,680.5902420628057C331.5847583864366,678.4755144097728 326.19199919992036,678.5162679879123 323.82874067158406,680.6549875621121C321.3220817815434,682.9234826800566 321.53653719475466,685.6274462856638 324.4545454545455,688.5454545454545C327.1702611811056,691.2611702720146 328.51523086087917,691.5933899381695 329.6116717310308,689.8193113436096zM338.64903382073646,686.4722199114283C339.9961087657083,682.9617988755838 346.02007745516283,681.9249071466329 349.7774937565946,684.5567039686491C353.4891816284064,687.1564713517915 352.3264936576239,688.0 345.03138479633867,688.0C339.1915861926531,688.0 338.15773606352764,687.7525213439557 338.64903382073646,686.4722199114283zM511.0,687.0567039686491C511.0,685.6146528742483 515.1894217113096,683.0 517.5,683.0C519.8105782886904,683.0 524.0,685.6146528742483 524.0,687.0567039686491C524.0,687.5755167858921 521.075,688.0 517.5,688.0C513.925,688.0 511.0,687.5755167858921 511.0,687.0567039686491zM412.0,674.0C412.0,672.4533631546946 411.3333333333333,672.0 409.05901699437493,672.0C405.98481680335567,672.0 404.4470246894119,673.2962501581541 405.5,675.0C405.8399186938125,675.55 407.4414763412812,676.0 409.05901699437493,676.0C411.3333333333333,676.0 412.0,675.5466368453054 412.0,674.0zM366.87255631751486,607.8951079592048C376.99875303757676,605.612547445866 386.47880164627594,598.3856592527615 390.3469049968051,590.0C391.9139974827259,586.602701010381 392.41420343975454,583.5396426482116 392.3881897924463,577.5C392.3130262813518,560.0491311611628 384.81943084530843,553.2697841533042 358.0,546.3895039017234C345.4631406057229,543.1732870250561 343.41950470111635,542.287264828615 340.47975217061787,538.7935674489582C337.6165545832788,535.3908504499767 337.39099602600663,533.0783639704573 339.5206065958032,528.9601512377815C341.67020680891915,524.8032827974343 347.7002246417068,522.0 354.4922805636003,522.0C361.0640593414043,522.0 365.3304277327481,523.5951991200525 370.20474250233576,527.8749041712813C373.6345322411279,530.8862994470533 374.0957702231917,531.0 382.882015008385,531.0C389.2398560970257,531.0 392.0,530.6415028951805 392.0,529.8157243476471C392.0,527.0206679599232 387.5706755247032,519.8589825529115 383.5496597519693,516.1525396394303C372.0091777925502,505.51489482672093 353.7682210179431,502.20871615971686 338.59451974837395,508.0044075711074C319.374779796924,515.3455091116507 312.6795522211411,538.0114283132801 325.86292227079616,551.1057594621525C331.0246799076847,556.2326552067963 335.8563817672169,558.338602551448 353.4041526022441,563.1098902159008C369.68222935701715,567.5359445307905 373.0,570.2283723657254 373.0,579.0122567928197C373.0,592.3820500959458 348.5603386822554,597.0144187297514 338.07568597329055,585.631918773857C335.81152226804454,583.17386470278 335.0722452989318,583.0 326.8847029676655,583.0C322.0630350292619,583.0 317.8789967874863,583.3867703162202 317.58684020816406,583.8594895916004C316.5611964401051,585.5190160686694 322.1429411027307,594.8770384721777 326.6198637231909,599.0037216434614C336.64766295048815,608.2470242029428 351.1247202400245,611.4448502558158 366.87255631751486,607.8951079592048zM573.0,608.4711339617766C580.8395189458033,607.2952636353667 589.9276433665261,602.2484249260316 597.1095733494025,595.0825487694491C604.6512104353818,587.5577695659663 608.2967987822059,581.0694154831027 611.0654350839093,570.2441512735136C618.1030598066889,542.727302279968 603.2867329084497,515.0374254755116 577.2167946536294,506.9852416969311C547.6902792829402,497.86542998959396 515.9669420576818,522.9888300695751 516.0075541572769,555.4600987607473C516.043750596392,584.4008408524949 533.4962012402643,605.6502766503437 559.9924242373122,609.0143927630397C563.0215909067905,609.3989935569706 566.175,609.5859645867992 567.0,609.4298839404366C567.825,609.273803294074 570.525,608.842365803677 573.0,608.4711339617766zM465.6976479995594,607.4971483174434C473.45492242021766,605.193485375268 479.90309913538937,601.1969661057313 486.5845445821235,594.551646300318C494.1747132573142,587.0025166058855 498.65555950078254,577.9970298881965 500.6913264188395,566.2002078538274C502.01428815492585,558.5339352464566 502.00318413606846,556.6452104472112 500.5858302617978,548.2559652702578C498.5341276242623,536.1120421689466 495.2456505896166,529.3579444081785 487.26630408371204,520.8994166350949C469.39634837107064,501.9563219108215 443.15807943235706,499.9253135211039 423.35100038607425,515.9519668492701C404.4355507162706,531.2571692819943 398.7949514552269,559.7399784228336 410.1966040895808,582.3764976014622C415.7686906585656,593.439160930089 427.36242659135064,603.4068933054092 438.9846071946197,607.1270277355381C445.89520146465287,609.3390342904331 458.88909835586713,609.5190702778638 465.6976479995594,607.4971483174434zM649.0,576.2501624807982L649.5,545.0003249615963L658.5,557.2033063587196C663.45,563.9149461271375 674.1692963754574,578.1113810163528 682.3206586121275,588.7509394458648L697.1413172242552,608.0955911358867L702.8206586121275,607.7977955679434L708.5,607.5L708.7592490331208,557.25L709.0184980662417,507.0L699.5237009141771,507.0L690.0289037621125,507.0L689.7644518810562,537.622102013986L689.5,568.244204027972L679.5,555.3418281426186C674.0,548.2455214056743 663.43239627252,534.4655754993805 656.0164361611555,524.7197261286326L642.532872322311,507.0L636.2664361611555,507.0L630.0,507.0L630.0,557.5375258137888L630.0,608.0750516275776L639.25,607.7875258137888L648.5,607.5L649.0,576.2501624807982zM444.3190474936665,588.2040538691301C436.92551861938756,585.5640343463311 430.66377191684046,580.0520890443156 427.31809204047534,573.2388467166473C424.943089315095,568.4023203020316 424.44658619552547,565.9870866637469 424.16028289982813,557.8777209569824C423.85254362841573,549.161194351384 424.0690523008122,547.7301845845852 426.46036708946417,542.6753602228985C429.6877911956838,535.8531459017087 437.2622783233376,528.780105493758 443.6839366732337,526.5920265816827C457.2091461048711,521.9835245521023 471.14352723508165,527.8022441414746 478.5337015132221,541.1445931768234C481.2937372536908,546.1276096542963 481.5,547.2301216805729 481.5,557.0C481.5,565.9515709010213 481.15912110231574,568.1920464227826 479.1884776784125,572.1928125052743C472.37763587433415,586.0200653468875 457.4276393523418,592.8847603371469 444.3190474936665,588.2040538691301zM557.9505613296863,588.6760374404627C548.6661285623392,586.0944200527115 542.6286137685796,580.8013779178839 538.3586938358264,571.5C536.0543830242889,566.4804057134726 535.5986367926502,564.1110919059139 535.5695654655451,557.0C535.5405855946723,549.9112790601451 535.9637958944228,547.5792432209329 538.118520983605,542.954369200897C541.5183242990975,535.657075404118 545.7228072726516,531.0047695292403 551.6573197195723,527.9735419994768C555.6856094642604,525.9159740221277 557.9294397219993,525.5 565.0,525.5C572.4094842484269,525.5 574.0773318684799,525.8413681736529 578.0,528.1607863956697C586.4438162494286,533.1534955965615 591.1687120517072,540.1358307392611 593.0725483088269,550.434628645483C595.072365687028,561.2526362080678 591.8737412601322,572.7064698380412 584.6064776406549,580.750461951035C578.3207695382625,587.7079894397467 566.7943460157392,591.1351287916692 557.9505613296863,588.6760374404627zM297.751355137023,468.8298814662042C304.4886334383812,466.6810538924133 313.7602435474504,460.4437253826423 318.4170137354971,454.92738772098375C321.3685378106411,451.4310581282542 325.972583592833,442.50811799355597 325.990231084296,440.25C325.99737578730446,439.33578607583354 323.41090956078114,439.0 316.36183069536173,439.0L306.7236613907234,439.0L302.4612437665346,442.92895937006733C295.41393514537293,449.4249416228947 290.6383850370948,451.39728063963963 282.0,451.37961081269583C273.0892503410158,451.3613838635916 268.86938655912553,449.76433063807355 262.6958177628437,444.0737336324545C252.69687811832483,434.85703290746466 249.53277648962364,418.22430728431107 255.35780136211417,405.5C260.71369707252614,393.8004683595682 268.78086534153545,387.99197691394795 280.76036882453957,387.20974115302437C287.4087281790237,386.775617614772 288.5688009672121,387.00546539951404 294.52250277451986,389.9364631604132C298.1129314192605,391.70402536943857 302.2502194926294,394.67374204356935 303.7621339499803,396.56860631264016L306.5,399.99994101974676L316.25,399.9999705098734C327.5566661771961,400.0000047083367 327.70646685820185,399.81712144559526 323.4296715696395,391.23471154541505C315.63500014954894,375.5928440603515 294.75816613524785,364.4595653059153 277.7997199050039,366.9009945131371C265.1529405888332,368.7216929415535 252.27462642962533,375.81503561779664 245.04636548763074,384.94145880113985C225.27606952976805,409.90349169111516 231.54413574236077,448.38777612442163 258.0,464.47338110559633C270.0920622297927,471.8255558273146 283.6874067938331,473.31552071761 297.751355137023,468.8298814662042zM403.0,468.4579517396691C418.36790541682075,462.298987523906 429.7847092958286,449.79708075060773 434.4046206831639,434.06849877257207C436.72714124544746,426.1614304336226 436.5417223992418,409.9635246759254 434.0358737767722,401.8553351141633C427.66010427419735,381.225219126538 408.6119397622149,367.0 387.36311946142655,367.0C351.42195929413367,367.0 327.9028413207891,408.27028057113694 344.17372417963963,442.7867902613189C349.73914888871064,454.59309712045354 362.03473928314725,465.1688729194124 375.2698968231002,469.53346443743334C381.1146007746614,471.46088730454477 397.0491399342065,470.8428658320034 403.0,468.4579517396691zM767.4650376100055,469.4670909820238C780.5005000493168,466.0717843408743 790.4492755387892,457.5786842974839 796.6255073052116,444.5732950876738C799.4353933811338,438.6564734017926 800.3822427407468,435.0889349274825 801.2079043262577,427.30774221891613C801.9540424950985,420.27599339972573 801.9373849535315,416.72163718429283 801.1490522865855,414.75L800.0495016941275,412.0L778.5247508470637,412.0L757.0,412.0L757.0,420.5L757.0,429.0L769.4409830056251,429.0C776.2835236587189,429.0 782.114191671165,429.3757490108022 782.3980230332834,429.8349978017828C783.5283213155514,431.6638588399183 780.3569136227527,438.4989597282048 776.2677777157865,443.0470630024133C770.6588620594785,449.28552712823404 765.0076141185505,451.50865313929665 754.8473061715549,451.4735924976645C748.1060156015571,451.45033001644396 746.3888121844913,451.03349491548784 740.428626108516,447.9735924976645C729.0814387875498,442.14805526169226 723.2881577983594,430.92905205567996 724.2172510608409,416.5793844533641C725.3555370890743,398.99877462536097 737.4539964887049,386.86865523313446 753.9534544758596,386.76536551251246C764.2002526602404,386.70121862219895 773.6703036116104,391.69794809074125 777.614956554384,399.25C779.0373599814623,401.97319635543136 779.1496344213633,402.0 789.1340881761062,402.0L799.2168160597492,402.0L798.5497367224341,399.25C795.9745016073665,388.6337266869353 785.5630595236951,377.0684064090985 773.3673301939917,371.2766804033911C766.5126548892287,368.0214096319593 764.4545750912641,367.5248443868719 756.3478284075002,367.170283224704C749.0265172249565,366.8500743045616 745.7218043833404,367.1945895866932 740.3129624582289,368.8419129944342C709.6696271072472,378.1746840966127 695.4729705799366,413.2242924765252 710.0314780811109,443.60276718138044C718.1598578906456,460.5638313849386 734.556050836535,470.7446599154069 754.0399012392525,470.9287575224283C758.1868469208414,470.9679408850928 764.2281582876802,470.3101909419107 767.4650376100055,469.4670909820238zM472.03754658191957,435.19098300562507L472.07509316383914,401.5L475.51533897974167,405.5C477.4074741784881,407.7 483.8030782166243,416.12591531250644 489.7277923978221,424.2242562500144C495.6525065790199,432.32259718752226 500.76969031349506,438.96009718752225 501.09931180776687,438.9742562500144C501.4289333020387,438.98841531250645 507.95393330203865,430.6957336387783 515.5993118077669,420.5460747528406C523.2446903134951,410.3964158669029 529.8375,402.07141586690284 530.25,402.0460747528406C530.6625,402.02073363877827 531.0,417.075 531.0,435.5L531.0,469.0L540.5,469.0L550.0,469.0L550.0,419.0L550.0,369.0L540.75,369.0213514116905L531.5,369.0427028233809L528.5519204014397,373.2713514116905C526.9304766222316,375.5971081352607 520.198965844932,384.8460417705617 513.5930075629963,393.82453726791493C502.6711271967576,408.6690230345081 501.4606733371681,409.98365428052483 500.2420538128646,408.32453726791493C499.50498753222803,407.3210417705617 492.75649961573464,398.0625 485.24541399843486,387.75L471.58889469425344,369.0L462.2944473471267,369.0L453.0,369.0L453.0,418.96106711656216L453.0,468.9221342331243L461.75,469.21106711656216C466.5625,469.36998020245295 470.8375,469.36094235253125 471.25,469.19098300562507C471.6625,469.02102365871883 472.0168959618638,453.7210236587188 472.03754658191957,435.19098300562507zM588.0,418.8863269645407L588.0,368.92494837242236L578.75,369.2124741862112L569.5,369.5L569.2380944411702,418.5C569.0227380406066,458.79110216207545 569.2169873194473,467.6777326089372 570.3310243205113,468.5C571.0761838115053,469.05 575.3565413129786,469.3532337502483 579.842929879341,469.17385277832955L588.0,468.84770555665904L588.0,418.8863269645407zM627.2355481189438,438.400040133943L627.5,407.80008026788596L631.0,412.8154218032504C632.925,415.5738596477008 643.275,429.32378207596474 654.0,443.3708049771703L673.5,468.9108466157258L680.75,468.95542330786293L688.0,469.0L688.0,419.0L688.0,369.0L678.0142466333592,369.0L668.0284932667184,369.0L667.7642466333592,399.9434750313063L667.5,430.8869500626126L658.0774880260169,418.6934750313063C652.8951064403261,411.98706376408785 642.1316632022397,398.0429983901081 634.1587252747136,387.70666308912917L619.6624744973935,368.91332617825833L613.5812372486968,369.20666308912917L607.5,369.5L607.2406647282703,419.25L606.9813294565406,469.0L616.9762128472141,469.0L626.9710962378875,469.0L627.2355481189438,438.400040133943zM376.39659282026946,448.6041533046416C365.08755146203623,443.3383035936705 359.0,433.02819636723325 359.0,419.1406262247979C359.0,409.76774401253283 360.7571950915316,404.17116128373976 365.7890703029016,397.5177604514462C375.70590478060774,384.40521850712327 394.5585672193562,382.7714152101297 407.26041396523647,393.9237843631131C416.056897583983,401.6471992749056 419.61052533318457,418.9640299140394 414.97151799921926,431.5C412.19540506400836,439.00187835579584 403.6081772961573,447.925293536521 397.38398044061074,449.7760844226839C390.6575307477346,451.77622228411957 382.19402420957084,451.3036219367464 376.39659282026946,448.6041533046416zM940.6622807017543,358.75C940.3848684210526,358.0625 940.1578947368421,358.625 940.1578947368421,360.0C940.1578947368421,361.375 940.3848684210526,361.9375 940.6622807017543,361.25C940.9396929824561,360.5625 940.9396929824561,359.4375 940.6622807017543,358.75zM940.6831140350878,353.8125C940.3638876676575,353.0147673031026 940.1269312900389,353.2517236807212 940.078947368421,354.41666666666663C940.0355263157894,355.4708333333333 940.271875,356.0614583333333 940.6041666666667,355.72916666666663C940.9364583333333,355.396875 940.9719846491229,354.534375 940.6831140350878,353.8125zM940.6831140350878,349.8125C940.3638876676575,349.0147673031026 940.1269312900389,349.2517236807212 940.078947368421,350.41666666666663C940.0355263157894,351.4708333333333 940.271875,352.0614583333333 940.6041666666667,351.72916666666663C940.9364583333333,351.396875 940.9719846491229,350.534375 940.6831140350878,349.8125zM940.6893255136858,340.25C940.4377979666814,339.2875 940.2320027009505,340.075 940.2320027009505,342.0C940.2320027009505,343.925 940.4377979666814,344.7125 940.6893255136858,343.75C940.9408530606902,342.7875 940.9408530606902,341.2125 940.6893255136858,340.25zM940.7072608668476,332.76165916591856C940.468067649298,331.51774662466335 940.2632827911553,332.3 940.2521834043084,334.5C940.2410840174616,336.7 940.4367875590931,337.71774662466333 940.6870801634896,336.76165916591856C940.9373727678861,335.8055717071738 940.9464540843973,334.0055717071738 940.7072608668476,332.76165916591856zM940.7499366622601,82.82888991536117C940.6059906252586,37.54800046191252 940.488200879988,74.29999999999998 940.4881816727698,164.5C940.4881624655515,254.70000000000002 940.6059364958253,291.7480004619125 940.7499017400451,246.82888991536117C940.8938669842647,201.90977936880984 940.8938826992616,128.10977936880982 940.7499366622601,82.82888991536117zM491.7086473823034,283.40588115680805C494.7753904824589,281.4650177100551 496.18658662978146,275.8274698495124 495.8153825896371,267.0L495.5,259.5L492.5,259.5L489.5,259.5L489.0,268.78947321564175C488.49027742651,278.2595816033291 487.721847641186,279.9480438010395 483.90498756211207,279.98468722548296C480.4964183191358,280.0174108902041 479.0980719462155,276.73020763305146 478.79399492090585,267.969873168813L478.5,259.5L475.5,259.5C472.5366359221194,259.5 472.4959734276314,259.5732718442388 472.17027670092557,265.5C471.7846945901591,272.51646705310986 473.4871685696032,281.3294982840982 475.56058553448065,283.05028152769296C479.1560154646038,286.03422334069 487.27318345675513,286.21297308506644 491.7086473823034,283.40588115680805zM470.0,282.54771740564684C470.0,280.23800727984263 469.6366332614019,280.07812591485947 463.75,279.79771740564684L457.5,279.5L457.0,269.5L456.5,259.5L453.5,259.5L450.5,259.5L450.2161431395738,270.2524793317076C449.82821628251554,284.9471233380944 449.86700753196124,285.0 461.03518375848796,285.0C469.8844702423974,285.0 470.0,284.9683973875129 470.0,282.54771740564684zM505.51410516760893,281.0834877665216C504.7919913461607,276.8093329462135 505.6418113535785,269.162904229801 507.08873421132887,266.91544202447983C508.33169083895314,264.9847944930821 509.19618937868563,266.3838835958998 513.1931982113919,276.7947982853636C517.4482014347689,287.8777048827902 518.89663781337,287.70338941590546 523.9520423517724,275.5C526.0788930161642,270.3659327478369 528.2683700284098,266.5 529.049206321124,266.5C530.9985941648923,266.5 532.0979841032163,272.51777489542457 531.3915350143334,279.32129871801163L530.7870760188638,285.14259743602327L534.143538009432,284.82129871801163L537.5,284.5L537.7785451107393,276.5C538.0120415164198,269.7938286352011 537.6885843576196,267.77893884327136 535.7785451107393,264.0415353340575C531.5926906325382,255.85100875642854 525.0830509721937,256.7549844499538 521.6754012384908,266.0C520.5604068516615,269.025 519.4915932199474,271.69821428571424 519.3002598346818,271.94047619047615C518.4969827938155,272.95756699092215 516.1210620396558,269.1455791640112 514.5722333276569,264.35470993184293C512.8306877679524,258.96772493229486 511.34622039554387,257.91142084846945 507.01123826583296,258.97452434471916C501.73471320362836,260.2685301961464 497.69677192831335,271.67343526467175 499.51534301333993,280.14619771226296C500.4938065415208,284.70488068383787 500.7450130339868,285.0 503.64691482531794,285.0C506.03425710930196,285.0 506.1387616057674,284.7807973137018 505.51410516760893,281.0834877665216zM561.8024691031699,284.3559929740418C563.437603210024,283.9180355764506 564.0172722230823,283.1249482818894 563.8024691031699,281.6196476573342C563.5297084638356,279.7081914321572 562.9597909360537,279.5308431663964 558.0,279.81402178619663C551.8583695666132,280.1646773787151 548.2379051418812,278.4283706565949 549.3061352622638,275.6446075855715C549.7946189752461,274.3716394347485 551.2913669120015,274.0 555.9296600562418,274.0C560.8064265685476,274.0 562.3016998513717,273.5925363381344 563.9610448525805,271.81143855336785C566.3820677458634,269.21277552129544 566.4862175768251,267.8409212607952 564.5471582524563,264.0911940044207C561.8256363368295,258.82835094562506 552.2342483733092,256.9766263819708 547.1159629081541,260.7259070703851C539.3403299938649,266.421765678549 539.410854470406,279.32595652556614 547.2413839080953,283.67476963333354C549.6320408589611,285.00246022779845 557.9380471744372,285.3910470188493 561.8024691031699,284.3559929740418zM549.0,268.40021575479136C549.0,266.6063477108168 553.4547061246911,263.7465026568544 555.5936477994933,264.16720677077933C557.320586344823,264.50687482207536 559.8058518404512,267.56778143458655 558.9646303997204,268.31898168168783C558.7090836798742,268.5471817129752 556.3625,268.9634886415711 553.75,269.2441081896786C550.1706986046971,269.628575917943 549.0,269.4205877714089 549.0,268.40021575479136zM531.3157414540893,240.88296003025266C536.5917429962046,238.18478832616327 536.9555283088224,236.74101175771332 536.9555283088224,218.5C536.9555283088224,194.6259376715621 537.3587837849698,195.0 511.62150515541566,195.0C494.7770558843361,195.0 494.0095971832387,195.08767668358723 491.42975506173605,197.3067634538573C487.8910784853252,200.35060490040436 487.39413964547225,203.95237194295896 488.0,222.16531294669272L488.5,237.19595562501343L491.5,239.59301066756646C494.4049538614284,241.91412210154007 495.0485981205718,241.99022307943494 511.81574145408933,241.99503285505975C522.6086903972518,241.99812889006787 529.9542871365145,241.57921409438964 531.3157414540893,240.88296003025266zM498.894490584722,234.8858828264863C494.9514479276104,233.4387854430055 494.0,230.0608088915905 494.0,217.5087106802005C494.0,206.9056092296462 494.1680165088342,205.91603998161148 496.4114831491453,203.30576370132633L498.8229662982905,200.5L514.1614831491453,200.5L529.5,200.5L529.7749248529753,216.15781395875922L530.0498497059508,231.81562791751847L527.3900661611741,233.90781395875922C525.022014974841,235.7705232934039 523.4563020422449,235.99134083597608 513.1151413081986,235.92105263157896C506.7268135886894,235.87763157894736 500.32752076312494,235.41180516665568 498.894490584722,234.8858828264863zM515.289488579722,229.99900407129465C514.8343246029114,228.25845435014338 515.2596998836231,228.0 518.5795354197121,228.0L522.3923335673461,228.0L519.3217082879671,224.75C516.6516268399511,221.9239421399515 516.166445212352,220.53137489391995 515.6022377727749,214.07438386492936C514.9675372381079,206.81064473112312 513.6625493268285,203.4724880080467 511.8866931696398,204.57002747232013C511.3990119263379,204.8714310563565 511.0,206.7928194070967 511.0,208.8397793628539C511.0,212.08119517156908 510.60102508774645,212.71212094565288 507.90861620633086,213.72839178711388C504.59791020505514,214.97804372407276 504.75964385867974,217.0 508.17030789363287,217.0C509.98193821810787,217.0 510.1440282288324,217.4187265254468 509.5526555909545,220.5710136958567C509.18419617679575,222.53507122857786 508.64487129640656,224.7618756304622 508.35415585675634,225.5194679222663C507.75621549295397,227.07767553284313 513.657668036171,233.32960677783174 514.9642313712061,232.52210622832564C515.4306360550942,232.23385228117064 515.5770017989264,231.09845631050672 515.289488579722,229.99900407129465z"/></svg>