<svg version="1.1" xmlns="http://www.w3.org/2000/svg" xmlns:xlink="http://www.w3.org/1999/xlink" width="1024" height="1024" viewBox="0 0 1024 1024"><path stroke="none" fill="black" fill-rule="evenodd" d="M357.87945071734543,787.7546414344815C354.2381486118854,786.4787569588201 349.65567347022784,784.2120098960185 347.6961726247731,782.7174257393667C343.3757211734988,779.4220567663775 343.003731438184,779.3851387297505 342.98634531670757,782.25C342.947417483739,788.6644749682977 342.4645507550047,789.0 333.2721657146095,789.0L324.77759415714104,789.0L325.3414702235426,774.25C326.1406426225109,753.3450643463078 326.1905815343307,730.3577644630772 325.4989733285323,701.75L324.9006286687948,677.0L329.7473665689117,677.0C334.0915222331782,677.0 335.0028081113116,677.4185505106752 338.5355080676204,681.036363561021L342.47691166621235,685.0727271220419L342.8494662524198,703.0123484596438L343.2220208386272,720.9519697972457L347.36101041931363,717.5800430962477C355.3068001362539,711.1068157578441 365.0458264512101,708.8342057866133 375.54459387121506,711.0033802239601C394.3677297604881,714.8924715399479 404.0,728.2077795850826 404.0,750.339122342153C404.0,773.0915505688276 391.72809043492447,787.8686630398863 371.47004512870944,789.5097827240986C365.7585984819272,789.9724713683227 363.30451085713185,789.6555411158081 357.87945071734543,787.7546414344815zM486.3324546380625,788.1489342320708C472.6359984094125,783.4157824861326 466.0506948313184,772.4622888314058 468.04889821701283,757.7374555707074C468.9879394403311,750.8176267198132 472.09031908281924,744.7849658575607 476.2273606576898,741.8342148442744C479.7226860443958,739.341168849949 479.1145694396304,739.3776217091672 503.5439791179312,740.1967511748958C510.8739648229293,740.4425290038897 513.1007968776423,740.1639752161494 515.2939791179313,738.7269470201458C518.6499522086576,736.5280289969138 518.9332565957774,732.1557622054697 515.8980026455397,729.4049875621121C514.0645541248705,727.7433790828073 511.6903508444625,727.4361205585675 497.31453332297605,727.0C482.4827071522586,726.5500454631898 480.69127948712315,726.3057105365996 479.4165306774364,724.558870364895C477.50028693712324,721.9329635831671 477.6205435557079,720.8466024017137 480.25,717.02956571105C483.56695110831447,712.2145309881677 488.4959415980523,710.7852391158144 502.0,710.7225747991372C511.5029746858413,710.6784771362447 514.465782819423,711.0454715205586 519.0615231036982,712.8359358014679C525.7049421465657,715.4241596269236 530.5520461633087,719.8727535875714 533.404838995822,726.0C535.3544717334304,730.1874334725317 535.5220698639833,732.5316824285443 535.8177383987006,759.75L536.1354767974012,789.0L528.0677383987006,789.0L520.0,789.0L520.0,784.9491087202261L520.0,780.8982174404524L516.5590831720345,783.5227326517434C508.3138827016995,789.8116536389244 496.41414754279873,791.6329144366913 486.3324546380625,788.1489342320708zM657.0,788.4146870907987C653.975,787.6151572138906 649.025,785.2771124019599 646.0,783.2190319531749C635.5631013795803,776.1182131113117 629.5007532685197,758.6700830041199 631.9610240117695,742.8132559853648C634.6927624190419,725.2067777132236 644.5551057662595,714.4947030854311 661.1984882876127,711.0567161627471C670.3076650333919,709.1750535567098 682.2152761511262,712.3000136513125 688.75,718.2871651416326L691.0,720.348628053419L691.0,698.6220544458829L691.0,676.8954808383467L696.1468419363335,677.1977404191733C700.7515696621621,677.4681631540167 701.6205379133713,677.9046822278757 704.3968419363335,681.3420602540175L707.5,685.184120508035L707.7761098757483,737.132924464476L708.0522197514964,789.0817284209169L699.7761098757483,788.7908642104585L691.5,788.5L691.1924124870062,784.2481645986975L690.8848249740124,779.9963291973949L686.2901140941318,783.5046518556403C678.1725591851615,789.7028659677394 668.1992627383496,791.3747350771307 657.0,788.4146870907987zM418.7038158754851,788.3704825421516C417.8217133972845,787.4883800639511 417.7857581997037,739.8915870080875 418.6572525704538,726.7308826320359C419.27187718210075,717.4492474458351 419.4258406191895,716.9312248645682 421.7426717787106,716.3497372589936C424.9343388741299,715.5486798105561 431.5810271149356,717.5810271149355 434.14064620319004,720.14064620319C435.25495745810207,721.2549574581021 436.25986906193594,722.0166666666665 436.3737831005987,721.8333333333333C442.0543561999639,712.6910150223001 448.10633493092206,709.4571207692256 457.6268615232592,710.4766826862314C463.5397861523385,711.1099032031287 464.0,711.3362883949081 464.0,713.6117125937947C464.0,716.8910282437636 461.71739373594835,722.1118595551834 459.3880161034645,724.1603518024056C458.349607246559,725.0735452937286 454.97322065424675,726.5503246394818 451.884934787215,727.4420836818572C444.57736960788554,729.5521821659323 439.8601736881453,734.2172539074971 437.3732265069351,741.7934401597315C435.7887549480039,746.620342690082 435.5,750.6600430658887 435.5,768.0L435.5,788.5L427.4538158754851,788.7871492088184C423.0284146070019,788.9450812736685 419.0909146070019,788.7575812736685 418.7038158754851,788.3704825421516zM551.0136546832924,753.25C551.0211647591033,733.5875 551.2919271903088,716.5132037536604 551.6153489748601,715.3071194525786C552.8519070490312,710.6958243825761 562.7907975274395,712.0078341590166 566.475723447386,717.2688028650156C567.865647430011,719.2531973237279 567.9197342420333,719.2453264665351 571.0618397597102,716.6014189831711C576.2719178492207,712.2174273023471 580.8407241907819,710.7022941838123 589.1266682316168,710.6106595041683C595.9632526037426,710.5350533673525 597.4551023445201,710.8875348151737 603.5274725103709,714.0131578947369C609.339618590782,717.0048361743135 610.7417230116633,718.2810508646677 613.4008042787541,723.0L616.5,728.5L617.0,752.5C617.4794044803774,775.5114150581169 617.5968258733277,776.6557390056117 619.8506538097154,780.2808952739666C621.4497070535873,782.8528830450234 622.0031622113236,784.8512647365797 621.5816017815006,786.5308952739666C621.0257462033404,788.7456003017766 620.4453837772576,789.0 615.9488293408887,789.0C610.1046003661603,789.0 605.3842346323039,787.2254680376799 602.326326963491,783.8788786211859C600.2486079977579,781.6050126140178 600.1382486323381,780.4826332431616 599.826326963491,758.4533207950003C599.461992667011,732.7223926347064 599.085161187895,731.1870093589006 592.4543375343236,728.4164743364356C587.4257856944312,726.3154112238313 579.1565605672599,726.6071821691922 575.1898243972242,729.025634595316C569.1377515223011,732.7154817895912 568.5684042267592,735.5392511823744 568.1884652978968,763.75L567.8484013734758,789.0L559.4242006867379,789.0L551.0,789.0L551.0136546832924,753.25zM512.6081365147895,770.4292302948886C518.5519924379678,767.0330937719972 520.4930283986445,763.634894210993 520.228463478808,757.0882143279264C520.108177659516,754.1117322082858 519.7966092683696,751.4632759350362 519.5360892762604,751.2027559429271C519.2755692841513,750.9422359508179 517.8108728365844,751.5557320156586 516.2812082816674,752.5660805314619C514.1843983010397,753.9510304834228 510.6518573586043,754.567735920577 501.9259240714264,755.0722034522187C487.9289161395617,755.8814046928622 485.9917917923888,756.6990689609682 486.02223584558885,761.7851837584881C486.0840739298914,772.1161207581124 501.1070042499698,777.0006236536753 512.6081365147895,770.4292302948886zM375.9961294233951,769.5020015529512C379.8540958190042,767.5069695943496 384.47976913365295,761.6797418087897 385.8585695314499,757.0777162388375C387.69085490627066,750.9620927157754 387.2056963108386,746.7310794376291 383.91764108251505,740.1510985993777C379.6298755881932,731.5705204665899 373.9561240659223,727.6822561996074 365.0,727.1866979646281C359.3879211555928,726.8761716849306 357.7644253829538,727.2145137340991 353.1152482338274,729.6635207159984C339.36908363789865,736.9044693806649 337.30669358326855,756.6480991272457 349.2838659475575,766.3420302481297C355.9974034486584,771.7757476677097 368.69457744116954,773.2777808258115 375.9961294233951,769.5020015529512zM682.842115913298,769.581645034307C693.8201776589659,763.9046686741611 694.9547828903849,743.9547828903849 684.8729672694502,733.8729672694502C677.7699203785661,726.7699203785661 669.5530089919049,725.1016052305928 661.3145138269831,729.089792315818C654.1702294818919,732.5482810310372 648.0,742.1514490012048 648.0,749.8121192725189C648.0,758.3813174469616 655.071094273285,767.6881077400407 663.6701373736814,770.4367463477911C669.4703336517033,772.2907483845486 678.3709676002346,771.8937656858405 682.842115913298,769.581645034307zM445.14577026637517,651.8437220007777C441.6509439128815,651.3435397057115 437.0932479904811,650.0678954404517 435.0175571054854,649.0089569668671C429.80690583572215,646.3506810444404 423.51062181981877,638.8920952716747 420.7833469822009,632.1470941849585L418.5,626.5L418.5,556.0C418.5,503.301813038101 418.8086301172483,484.48996805457585 419.72225883506553,481.5C423.29236928372956,469.8163521629275 431.98498069951563,461.1829096149795 442.34381546257464,459.0324237853221C446.0305344002153,458.2670638761556 470.70544312069353,458.0152626822345 522.583851247959,458.2135945430374C596.2835873477122,458.49534963786397 597.5730664486426,458.53409118694856 602.0,460.59960035171457C608.1391511523453,463.4639923336463 615.1945771053063,471.32883561077733 618.1035382798143,478.55057958704583L620.5,484.5L620.8101701681478,552.0C621.1346844166317,622.6215942798855 620.9125321377561,627.2451007625295 616.7993072080073,635.4754025079911C614.1770533288085,640.7223659120405 608.4710724318506,646.668333296121 603.6907576028398,649.1352814687643C601.5956742844016,650.2164784503084 596.1956742844017,651.5249328092573 591.6907576028398,652.0429578219843C581.3122479571857,653.236393343951 453.66393597278494,653.0628485729828 445.14577026637517,651.8437220007777zM584.8094764169837,588.3616742908699C588.2796884463247,584.7836573111663 590.9796884463246,581.2305306376767 590.8094764169837,580.4658372386709C590.3319862475049,578.3206681686345 523.072646905495,510.08892746731505 519.7333130676554,508.3620908275474C515.3603615324032,506.10074970332846 512.8691397571349,507.26374065695103 505.8489993406908,514.8437824304472C502.35704970331085,518.6142375142633 487.6875,533.877993796204 473.25,548.7632408347599C454.6923740229871,567.8963904186187 447.0,576.4875528545239 447.0,578.0803298463702C446.99999999999994,581.2737075501889 458.8721997026148,593.0050339973028 462.08333333333337,592.984687225483C463.4125,592.9762651994986 464.97720408338927,592.6387651994986 465.56045351864276,592.234687225483C466.14370295389625,591.8306092514673 476.42988942599374,581.15 488.4186456788593,568.5C500.4074019317249,555.85 511.1175506313751,544.7125 512.2189761225263,543.75C513.3204016136776,542.7875 515.5795651796003,542.0 517.2393396023544,542.0C519.8672976274033,542.0 523.7005371495758,545.5051365920657 546.9146513424148,569.135278257304C570.9192647557255,593.5700859292156 573.8173962269602,596.2007243249661 576.0360957023702,595.5688581115605C577.3912430660665,595.1829239898843 581.3392643876426,591.9396912705736 584.8094764169837,588.3616742908699zM326.5,370.3672262814145C318.24754888071016,369.08911354962584 304.8160312611663,363.2404139488613 299.1130966494075,358.4417108460093C296.0502118768118,355.8644632248236 293.0,351.197862974141 293.0,349.08912174443185C293.0,348.169364838757 305.6388885953723,335.0 306.5215966992163,335.0C306.7295733105151,335.0 308.8840534851684,336.3391997272832 311.30933042066806,337.9759993939627C320.6555817248601,344.2837083386538 327.95574246080326,347.0000684416943 335.5,346.97724910447937C354.70811266838524,346.91914976230237 360.9693104147919,333.04243651996353 345.2665374674036,325.33163986246194C340.0546536341129,322.7723609009898 338.44196647299526,322.49041676513724 328.5,322.40036649992663C315.27643220632166,322.2805928324047 309.25008563883495,320.1647160771047 303.0859000803428,313.4773643667619C298.08639803528416,308.05354507471844 296.6375586324937,302.9752940162447 296.6730443962776,291.0C296.6973172697356,282.80869269013874 297.05546785210953,280.80247295447015 299.27291414277346,276.43654470414185C302.2815729471225,270.512798760526 308.5522639341026,264.5136023229179 314.3775950010515,261.98583300676495C316.64491775047316,261.00198010468335 322.3900363761459,259.4386782553635 327.1445252803242,258.5118288971653C334.3799962317583,257.1013320503423 337.24214364629347,257.00332722325396 344.70375289396225,257.91057088461844C359.4598740600123,259.7047411433207 368.02954860794716,263.0630776500181 371.5458361350561,268.42961073381537C373.1072940228243,270.8126966871287 373.0800503135438,271.2031894229813 371.0614018875941,275.3731606258053C367.9685566996964,281.76212623394906 364.64070453345175,285.0 361.1670389258852,285.0C359.5563865457133,285.0 353.887573560769,283.425 348.5696767371202,281.5C337.4748026826439,277.48381968226823 337.19695253879013,277.4553753525971 329.98415527093897,279.59734595648894C319.83748660086115,282.6105827371218 315.489477605137,289.941440215013 319.6607609790985,297.0028601391831C321.6641185877546,300.39427425918984 323.82246633784086,300.94876268023285 339.0,301.9711902465273C353.5885483374202,302.9539410876331 360.44446366241453,305.41561117665316 367.6975366951036,312.275265539486C374.3252238657939,318.54345600317157 377.25979072667815,325.5712458862223 377.39539864527853,335.5C377.4479823310691,339.35 376.89109627991155,344.5694614682187 376.1578740871505,347.0988032627083C373.2770953686412,357.0364102873452 363.85731885172845,365.33660765092094 351.7699525396352,368.58812010248005C346.1431486511381,370.1017354288911 331.4603247827686,371.13546521637096 326.5,370.3672262814145zM437.5,369.98872321339144C428.6806390173527,368.4130622015956 414.84223149546705,360.7382156446404 407.24885635359203,353.2112952260014C396.32138968389177,342.37946215264515 391.60472777626046,330.39613346597974 391.6184118925627,313.5C391.6310033715312,297.9529742011969 396.9018987283868,285.17860179600916 407.72716939781833,274.459333580897C422.3549798117667,259.97476058359604 444.0346526691819,254.5100887425794 465.296906358625,259.94805739451067C477.1165496897652,262.9710130440176 483.23417371764316,266.4614538377614 490.9507157737438,274.5849658559349C520.8715815707673,306.0838563083121 506.8296420866765,357.822071057689 465.5,368.3593764150453C457.78998957612566,370.3251019825297 443.90519706392826,371.13307134772435 437.5,369.98872321339144zM562.4479490557032,368.6910260671782C551.5208959192458,365.04860780291534 545.1656380285164,361.1491861380799 536.8206284571386,352.966765797662C530.8227875014894,347.08578322786093 528.2725705535548,343.64454430990276 525.1932339627148,337.27686832401L521.2487632129211,329.120205052696L521.7443508364927,315.31010252634803C522.1810374515932,303.14134237257747 522.5897862954255,300.5817195459384 525.183525706502,293.7736734087856C533.7915625139967,271.1793019443805 553.5509102625007,257.9334626950212 578.7028897696655,257.89653302279913C589.8045372078374,257.8802329061065 598.8270204060881,259.9584735181673 609.0,264.87517554562146C618.4307172397866,269.4331348087025 624.8221289101689,275.81058177003337 629.4409496660385,285.2714634171235C634.1885930574488,294.99621668269265 636.0,302.69841075151317 636.0,313.1608776578473C636.0,324.37626181214034 634.6470080393949,330.72829603631214 630.3134583220899,339.8580853331325C621.8148559972174,357.76267939691206 603.0033185640875,369.0916292960306 579.5,370.4596842496611C570.7107478431576,370.97127923651755 568.6461744529355,370.7571393285451 562.4479490557032,368.6910260671782zM659.0,367.70586783096337L656.5,366.4412192667208L656.2413127807285,312.72060963336037L655.982625561457,259.0L662.3098115533007,259.0C673.0239162518436,259.0 677.8929803854993,261.06172772564145 684.9204502443149,268.57411514904913C691.9633559082096,276.10300349672644 708.5350978445939,296.55589695783937 714.4723000745453,305.0470965940149C725.1837365912882,320.36625574191413 728.5590623176379,324.9181630968979 729.2361469111081,324.9573714686956C729.6410277122176,324.98081716091303 730.0910277122175,310.4875 730.2361469111081,292.75L730.5,260.5L741.25,260.2161682896262L752.0,259.93233657925236L752.0,311.3411682896261C752.0,339.61602573033167 751.71875,364.1562499999999 751.375,365.87499999999994L750.75,369.0L742.8253400731157,369.0C731.0043683765857,369.0 728.2382060022773,366.9768313288421 717.0228727773506,350.12809864084005C713.5419801075518,344.89877295493733 706.5224097366407,336.48100202722514 701.1422404633649,331.08426576463995C695.8390082085142,325.76470343026784 688.8,317.3855031666451 685.5,312.4638207343671L679.5,303.51530722113444L678.7017520444065,334.0076536105672C678.2627156688301,350.77844412475525 677.6916422561334,365.5125 677.4327000161916,366.75C676.9932119280614,368.8503390917734 676.4476645236101,368.99901943487305 669.2309479717851,368.985258197603C664.9789265873032,368.9771502062846 660.375,368.40142454129676 659.0,367.70586783096337zM457.1642896862952,347.6094507989693C461.3796490137575,346.8662907304689 466.1046490137575,345.3392832428274 467.6642896862952,344.2161008264325C479.06123856859847,336.00853557723565 484.46734543627116,323.16018442421677 482.061148509639,310.0C480.802178957131,303.1143326998307 474.23165991197095,288.38473753085566 471.26572613132714,285.7991415567453C470.2945767590972,284.95252794605557 465.08421119439015,282.80484603082186 459.6871359875337,281.02651507844826L449.87427197506736,277.79318607413256L441.1871359875337,280.77471166232283C436.40921119439014,282.4145507358275 431.37238542993134,284.01707779454523 429.99418984429184,284.33588290391776C425.642538006055,285.3425098694197 420.40513271248045,291.89104448313105 417.4662985468376,300.0C415.2458413838778,306.12677930999047 414.74920798086106,309.1857719861312 414.7538790867146,316.7070342283412C414.75889396367256,324.78182548676455 415.0752837258021,326.4527468742833 417.3266584696016,330.29442740850766C420.01209858719284,334.87678450120745 428.375299012053,342.0004953636965 433.5024663776627,344.07285823047584C436.226373469855,345.17384119199943 447.798873967594,348.78520379545404 449.0,348.90908298418606C449.275,348.93744535081726 452.94893035883285,348.3526108674697 457.1642896862952,347.6094507989693zM591.2404391462126,346.0556693518114C595.8650472061244,344.64075796454256 603.579402514149,338.1218804862854 607.2733517024644,332.5073443913192C611.2873945302396,326.4062890723745 613.4680447889422,315.1370619587918 611.907798852452,308.5573151417052C610.3242884909739,301.87945941583394 605.1833926860515,288.9550073078241 603.2319326959337,286.7457825041324C602.3796849354131,285.7809628814053 599.8413532677059,284.5160785740475 597.5911956565844,283.9349284877818C595.341038045463,283.35377840151614 591.5798422680894,282.16661570203075 589.2329828179763,281.29678915559214C582.506820098869,278.80384272521945 570.2971235345542,280.13437953056774 562.0,284.26447027427264C553.8367614645658,288.32791657267273 547.4082196581551,294.749725739865 545.9246669253142,300.322967584151C545.3131258481711,302.620335412868 544.4048998947806,305.2813940200028 543.9063870288907,306.2364311555618C542.6074844688789,308.72483268973195 542.7860345166745,324.73168474552523 544.1409337755276,327.26333716838815C546.352715407791,331.3960889516491 557.1278636769537,340.80993491556075 563.7743700886662,344.4163396679555C570.304815419586,347.9597694967723 570.7466785944797,348.0531165146488 579.0,347.6328719075028C583.675,347.39482913152494 589.1831976157957,346.6850879814638 591.2404391462126,346.0556693518114zM235.6011240006793,206.40605796889832C225.70083042130628,204.01054231651005 217.1638113325746,199.15847355212472 209.37947457337006,191.5028177612192C197.19400340843208,179.51878164170503 192.37906127137705,166.6498228237084 193.28989948194666,148.5C194.10160277289702,132.3255897203117 199.66702567857186,120.15282055707226 211.0822429301121,109.58434285438533C228.84978388611827,93.1347338555035 259.10261829059357,89.2227362482432 280.11292338591204,100.65797737205907C286.0703225364334,103.90040033774014 293.0,111.12635301672121 293.0,114.09603509890093C293.0,115.39125855591756 290.2948062203807,119.01245086967965 286.15070275125134,123.2645548325707L279.3014055025027,130.2923532916043L273.8496722845449,126.17625477035659C270.8512190146681,123.91240058367036 265.3089031112063,120.89744624558192 261.5334147212964,119.47635624127116C254.97012299226955,117.00593988496017 254.27619654515036,116.94030317073273 245.7201370982679,117.98061906530556C240.7983227955121,118.57905362283525 235.28446399983375,119.68995666695959 233.46711755231604,120.44929249669298C226.69724130426175,123.27792740283884 217.10437888907543,135.6271239806839 214.9355447536776,144.30557495778027C210.39217083307014,162.48559490355487 227.82149337804594,184.09219115476913 248.35998181002205,185.7408237769455C260.860071883316,186.74421097085855 271.6295302327673,183.42162220625616 277.92431402670945,176.61964842450607C279.2576867413997,175.17884179102774 280.88010575660394,174.0 281.5296896160522,174.0C283.21627941463646,174.0 296.0,185.91612367333954 296.0,187.48824913493115C296.0,189.79206591915633 285.1141079961964,198.84337730439785 278.6101145192017,201.9474471855272C275.1525314416704,203.59759943897416 269.4382898704054,205.6278346187184 265.9117999163906,206.45908091829213C257.97540272283146,208.3298081527715 243.44664644529502,208.30439276741353 235.6011240006793,206.40605796889832zM347.65080713689895,205.60791881173478C330.00359523666765,199.2077186467488 315.39682022063846,185.22242960995024 310.3699456040962,169.9132755037524C308.26370555497596,163.49880210699882 308.22245778703274,161.47732850890793 309.8536770503929,144.61194884111748C311.2161390167461,130.5252844290403 312.17765282027693,127.82776877640424 319.5411578661848,117.43383549604815C329.32689147484155,103.62081281274865 344.0572244482526,96.20784731485197 363.5,95.31177072985034C389.50951355868597,94.11304701752904 407.5601651508045,103.43140276565158 417.24254681807696,123.05548776439957C428.6191657019042,146.11342367795865 425.26987372730326,171.71319163511583 408.5077803904329,189.81825297070708C397.46517288466276,201.74558699628855 384.96986640385495,206.99556414807697 366.0,207.6781490977674C355.6522149311137,208.05048921868772 353.8137615406137,207.8430674581303 347.65080713689895,205.60791881173478zM783.0716129537577,206.4639842881069C758.040506276104,199.48132434636437 743.6453539593182,180.9671352725813 742.279815810334,154.0C741.4107658412973,136.8376907001234 745.765641607075,124.66871861128934 757.1204133718693,112.53043181458264C768.6524942937541,100.20260097022562 785.1273791247648,94.34448662714654 805.5,95.3276924178847C830.8277554047853,96.55003862129618 842.4469679128134,105.17681918045287 832.0660930335964,115.05190821621275C826.7757900852988,120.08445251025634 821.4025539314096,120.83247504489098 810.5900374661242,118.04164718532681C801.0870026133862,115.58881074317388 800.7404922854697,115.58020869555573 791.9525828164001,117.57897620711374C782.1642880503142,119.80527651674555 774.3919397125316,126.40465674270641 769.21021234754,136.8891696571526C765.8043832863887,143.78039651275483 765.5,145.09786323303697 765.5,152.94813712234748C765.5,160.81627157124336 765.7783172642395,162.01345998579507 768.981105918892,167.92219806431922C773.22929403143,175.75956530015696 780.7306216092533,181.6934580463625 789.8994340388704,184.46955107698483C795.5585055664164,186.18298006770857 796.8880858442669,186.24077849049783 803.8262273677699,185.07496520829534C808.0449648362165,184.36609235550333 813.8774812594969,182.89532575990162 816.7873749750597,181.8065949958471L822.0780908215373,179.827084515748L821.7890454107687,171.66354225787398L821.5,163.5L814.0,163.24696980545767C803.7843306791995,162.9023200993747 802.2739668354669,162.4304735864749 800.518188643223,159.03517295752255C798.4570648772927,155.04939909968243 798.6095828680133,150.70402785860327 800.9103980224743,147.86078396230985C802.8048266395409,145.5197342730312 802.9908189124275,145.5 823.1603980224743,145.5L843.5,145.5L843.7758123653089,161.96717540125556C843.9287722669346,171.09953437512488 843.5698891741971,180.75485854993747 842.9700947450847,183.64405284142893C841.0001145862375,193.13339644489523 833.2168514169122,200.85159154860688 821.2330781292724,205.19934803877794C813.5411999600869,207.9899893859547 791.1964210111466,208.73047503848682 783.0716129537577,206.4639842881069zM447.37285776190333,205.79427953735393C446.9959122581591,205.1843689003892 446.3255848064375,199.24364710754443 445.8832412025222,192.59267555325448C445.44089759860685,185.9417039989645 444.6219450664204,178.7 444.0633466865522,176.5C443.4655276388446,174.14553218849795 443.0378990536956,156.7645984474883 443.02385663430505,134.25L443.0,96.0L452.43490033882546,95.99999999999999C457.6240955251795,95.99999999999997 462.91159552517945,96.39813510592685 464.18490033882546,96.8847446798375C465.45820515247146,97.37135425374815 469.85395698952976,101.98385425374815 473.95323775451055,107.13474467983752C494.49460649006795,132.9456968016421 499.43460532472017,139.0 499.9536409371912,139.0C500.2645369540877,139.0 501.1377680582397,137.9875 501.8941545019735,136.75C505.99956303160303,130.0332706118607 529.6631014902855,97.71548636914598 530.9994514307496,97.00029358535326C532.5349158209285,96.17853798199279 539.7037294121949,95.75364960129093 549.2584667837892,95.91810008599722L554.0169335675785,96.00000000000001L553.7584667837892,151.25L553.5,206.5L544.1078253091193,206.4158071231421C536.4521612360331,206.34718059054612 534.4836330595996,206.01431132793203 533.4607493122742,204.6154344495405C531.689760620004,202.19346309650268 530.5789370033333,175.10982768468963 531.4361608344386,155.25276753307503C531.8220559644033,146.31374538988376 531.8954991984025,139.0 531.5993680211036,139.0C530.9188830648368,139.0 522.0852938609253,151.67724780145912 515.3768192461141,162.28128080720944C507.0547290369928,175.43594327839426 500.3581458856795,180.04212733696573 492.64990859076113,177.91378042617322C488.30916748982816,176.71524403461567 486.7747675332118,174.92255068223605 482.40572684186,165.94514314706294C480.4219606791133,161.86894460473414 477.5768625136572,156.95125162932865 476.0832864741797,155.01693653505075C474.5897104347022,153.08262144077284 472.19404484885496,149.475 470.7595851722968,147.0C464.55349783577986,136.29208927313 464.8499566267312,134.94339814838247 465.19120899616826,172.3324231131731L465.5,206.16484622634619L456.7791066116283,206.53402709727254C451.0953130561291,206.7746386678466 447.8195343558014,206.51701744826005 447.37285776190333,205.79427953735393zM585.9880615630041,205.91707315258026C579.9448540621821,203.69163605316277 578.8972998484792,197.17022161043306 578.3363887157708,158.28256491972897C577.9589585289089,132.1155400997284 578.0939210030837,128.72241769913367 579.6290860879351,125.78256491972897C581.2560418371456,122.66693232198236 581.8050630839043,117.0021603417347 581.9471191445568,101.86522331234335L582.0,96.23044662468669L587.4147532555406,95.55391786802693C590.3928675460879,95.18182705186405 594.442867546088,95.18005746597558 596.4147532555406,95.54998545494142L600.0,96.22258179851569L600.0,151.61129089925785L600.0,207.0L594.25,206.92105263157896C591.0875,206.87763157894736 587.3696277033519,206.42584081339797 585.9880615630041,205.91707315258026zM631.8880528986101,205.5003583306808C626.2872926484322,202.45640269075489 626.169709600599,200.449561854724 626.7766969518347,118.26263120492439L626.9483153444804,95.02526240984876L633.2241576722402,95.59352304171637C643.4878811903263,96.5228755823153 649.8757603609257,98.89274725519655 654.4365440352763,103.46321378153908C662.0343565677026,111.07715698348804 675.5499768444276,127.46232028850294 684.9736636394882,140.48376343706872C690.1416934239645,147.6248333274565 695.7909279137635,155.32893703314653 697.5275180612639,157.60399389415764L700.6849546930825,161.74046091417785L701.3663515013382,129.7361097603623C701.7411197458788,112.13371662576375 702.2885625874039,97.34211292007373 702.5828911491718,96.86587930327337C702.8772197109397,96.38964568647302 707.5914763412811,96.0 713.0590169943749,96.0L723.0,96.0L723.0,149.41821253176386C723.0,178.79822942423402 722.7700356882384,203.435729424234 722.4889681960854,204.16821253176386C722.1212724285217,205.1264554661827 719.7453675190038,205.49194164537442 714.0182234849224,205.47126978249344C706.339981092146,205.44355551985822 705.8541451717393,205.298480164205 700.279255288837,201.3686795588486C695.8400132910261,198.23940951822883 692.8006049206886,194.76807982444814 687.1707906065515,186.39740977635518C683.1274095409689,180.38552254701833 675.6783977084425,171.24096366483545 670.5553858905298,166.0C665.4479784631145,160.775 659.2109738188199,153.35 656.6953755698751,149.5C654.1797773209302,145.65 651.2042155736549,141.375 650.0830161314855,140.0L648.0444716911776,137.5L648.0222358455887,172.25L648.0,207.0L641.25,206.9599623693448C637.3881688346061,206.93705591455182 633.382408264315,206.31252511524298 631.8880528986101,205.5003583306808zM372.72976355547206,185.58522693668303C374.8033935999624,184.80710175185868 377.67811228245256,183.91343370744283 379.11802729433896,183.59929794909223C383.2174097508591,182.70496557105764 392.4051967721085,174.51883563259358 395.20610692950544,169.26514870844943C396.60335699149834,166.64431691880225 398.5539662836888,161.8686881999397 399.5407942454843,158.65264044431044C401.26693837261774,153.02717971470187 401.26677421330743,152.5338485433279 399.5364684068643,145.65264044431044C398.5472612338278,141.7186881999397 396.51364627696597,136.475 395.01732405828255,134.0C393.52100183959914,131.525 391.753550034567,128.10551341620987 391.08965338043345,126.4011409249108C389.5427443989187,122.42987657492247 384.6375895641291,119.75439496621038 374.7287442578282,117.47720010475983C368.03640064137267,115.93920349432094 366.18624917737714,115.86384980426368 361.40235757094354,116.93443783284397C349.29145286857664,119.6447395403897 340.50658085102003,125.12653370188356 336.8790536323735,132.2370744657204C333.6401109597622,138.58592659478202 331.0490412792516,149.89048777425208 331.02353592737563,157.78407485382795L331.0,165.0681497076559L337.25,171.62896817211188C343.91800450771547,178.62857890735916 349.8498972014212,182.2120110806031 359.5,185.07010238873045C366.99696374420796,187.29049395987747 368.0736664168727,187.33241730757828 372.72976355547206,185.58522693668303z"/></svg>