<svg version="1.1" xmlns="http://www.w3.org/2000/svg" xmlns:xlink="http://www.w3.org/1999/xlink" width="1024" height="1024" viewBox="0 0 1024 1024"><path stroke="none" fill="black" fill-rule="evenodd" d="M86.66666666666666,1023.3333333333333C85.53891197075193,1022.2055786374186 85.87085473109401,753.0 87.0,753.0C87.66174661746618,753.0 88.0,798.8333333333334 88.0,888.5C88.0,963.025 87.85,1024.0 87.66666666666666,1024.0C87.48333333333333,1024.0 87.03333333333333,1023.7 86.66666666666666,1023.3333333333333zM433.0,1007.9624957478334C442.075,999.1621752936745 450.4441393358996,991.2885198128987 451.5980874131102,990.4654835683316C453.60243605797285,989.0359118102515 454.4960000502237,989.7497126883022 471.5980874131102,1006.4419751065074L489.5,1023.9148961802598L453.0,1023.9389872860091L416.5,1023.9630783917585L433.0,1007.9624957478334zM751.5249327624498,1023.2673304967425C745.0359526833738,1021.622415911225 746.1495972724181,1010.9774636956973 752.8067039686491,1011.015312774517C756.0594152624126,1011.0338061128024 757.3371321473658,1011.809482885466 758.8502959998887,1014.6842585459107C760.4934154117151,1017.8059295298214 760.307526317065,1018.7833827738441 757.5454545454545,1021.5454545454545C755.0200281396087,1024.0708809513005 754.8672301976518,1024.1145813332846 751.5249327624498,1023.2673304967425zM805.0,1023.2588235352985C798.5466212293217,1020.7493982553704 800.5348622353401,1011.0 807.5,1011.0C813.5972586277081,1011.0 815.9521959835489,1017.1387131073603 811.5454545454545,1021.5454545454545C809.084298575752,1024.006610515157 807.7925893075865,1024.3447344129856 805.0,1023.2588235352985zM860.0,1023.3060189322417C853.6677308661576,1021.0429236480181 855.3708867022148,1010.9728902821715 862.078740671584,1011.015312774517C865.0601965800879,1011.0341684012249 866.3659470765617,1011.8642267633163 867.8502959998887,1014.6842585459107C869.4934154117151,1017.8059295298214 869.307526317065,1018.7833827738441 866.5454545454545,1021.5454545454545C864.1010992887149,1023.9898098021943 862.8527801889384,1024.325576575174 860.0,1023.3060189322417zM938.4920235094664,779.0C938.4920235094664,643.9749999999999 938.6080965323875,588.7375000000002 938.7499635604022,656.2500000000002C938.8918305884167,723.7625000000005 938.8918305884167,834.2375000000004 938.7499635604022,901.7500000000002C938.6080965323875,969.2625000000002 938.4920235094664,914.0250000000001 938.4920235094664,779.0zM347.4575327903283,1001.7627933228798C345.8263937905124,1000.5182569952959 334.36866477640024,989.3474292750618 321.9959127589679,976.9387317223595C309.62316074153557,964.5300341696574 293.2,948.3472580252425 285.5,940.9770069569931C277.8,933.6067558887438 253.725,910.2566630676233 232.0,889.0879117989477C210.275,867.919160530272 184.62226830331295,842.9269366746869 174.99392956291769,833.5496365643141C155.82854596149198,814.8839499275343 137.96345445343374,797.4705324671181 80.5,741.4447490963687C59.6,721.0676436197471 32.94955608582884,695.1939864689916 21.276791301841854,683.9477332058011L0.05358260368370793,663.5L0.026791301841882387,605.0950124378879L5.684341886080802e-14,546.6900248757759L2.2368058653081846,548.5950124378879C7.276853285570653,552.8873955172448 73.43609009624424,616.7009296358799 111.5,653.9842355146016C124.15,666.3748128504126 149.125,690.6709166130427 167.0,707.9755772093351C184.875,725.2802378056276 206.475,746.2234380986855 215.0,754.5160223050194C223.525,762.8086065113533 237.25,776.1244027835276 245.5,784.1066806876288C376.06514475508664,910.4348346299697 410.0,943.8333300210202 410.0,946.0066638222652C410.0,946.9490074321659 406.5125,951.0255278562877 402.25,955.0655980980916C397.9875,959.1056683398956 384.9207046965203,971.6561647758356 373.21267710337844,982.9555901779585C361.50464951023656,994.2550155800814 351.58737852434876,1003.618256995296 351.1742971347388,1003.7627933228798C350.7612157451288,1003.9073296504638 349.08867179014413,1003.0073296504638 347.4575327903283,1001.7627933228798zM748.6988869981872,972.2197676592626C744.7022128193845,967.8034924018712 748.0588090605421,961.5929815057925 754.1252635543843,962.1796650352826C758.822664464032,962.6339481339028 761.1725995877416,966.7921981694708 758.9685824946307,970.75C757.0066358951451,974.2731105362639 751.2966843936135,975.0903014700959 748.6988869981872,972.2197676592626zM802.3944646065875,971.4792766815116C800.2567063329257,968.2166451667898 801.3888328805274,964.1130428390131 804.911184273577,962.3569601827968C807.9778226395669,960.8280751152737 811.0865461996623,961.9801607216046 813.0,965.35465617941C814.3362673917012,967.7112473042719 814.3328380116343,968.3001764485477 812.9685824946307,970.75C810.7306778170744,974.7686545091085 804.816985291899,975.1765105691508 802.3944646065875,971.4792766815116zM857.6988869981872,972.2197676592626C853.69344251583,967.7938013255275 857.0587264950848,961.5949087035889 863.1495051281051,962.1796650352826C867.6597606263208,962.6126803554977 870.0439591696296,967.0428823591683 867.8655558952572,970.9428016526944C866.0034952526062,974.276383782056 860.2177596485582,975.0030906084669 857.6988869981872,972.2197676592626zM748.5567039686491,922.7774937565946C743.5151247614912,915.579631163455 752.5174082848175,907.7571434900676 757.9274198509671,914.6348586918014C760.6070662552299,918.0414770667387 760.5451198093434,920.1392584759016 757.6855487786324,922.8256859732905C754.6689506664652,925.6596327541412 750.5602401883632,925.6379424012189 748.5567039686491,922.7774937565946zM803.0,923.0C801.9,921.9 801.0,919.875 801.0,918.5C801.0,917.125 801.9,915.1 803.0,914.0C804.1,912.9 806.125,912.0 807.5,912.0C808.875,912.0 810.9,912.9 812.0,914.0C813.1,915.1 814.0,917.125 814.0,918.5C814.0,919.875 813.1,921.9 812.0,923.0C810.9,924.1 808.875,925.0 807.5,925.0C806.125,925.0 804.1,924.1 803.0,923.0zM858.0,923.0C855.5882565228142,920.5882565228142 855.4356427743667,917.250745293267 857.5960636305831,914.1663124543817C859.7654642413221,911.0690592200373 864.5969434231281,911.55093452531 867.2566577075308,915.1298272590145C871.8675769172512,921.3342475428545 863.472169868098,928.472169868098 858.0,923.0zM449.3396476594421,696.75C450.3120806855102,695.1710942851482 450.78890685177214,690.3981621185058 450.9383185136461,680.7476325046882C451.1195179612128,669.0439233509484 450.9173752083421,666.9055242998388 449.5813614419956,666.3928477142081C447.34475521850226,665.5345813767314 448.43438076258957,664.3631238474821 452.1629148420202,663.617417031596C454.26203355210527,663.1975932895789 455.63466157349643,663.4088700085208 456.1420834983275,664.2298959295345C456.759010029734,665.2281040259116 457.16950483150026,665.2304951684997 458.1583592135001,664.2416407864998C458.841261646075,663.5587383539249 461.25655868798066,663.0 463.5256859732905,663.0C469.48699008853646,663.0 472.25957796421926,666.2379809044293 472.74232249958175,673.7636960173344C473.024882836401,678.1686523479351 472.66070319558116,680.2148501677183 471.1732018264049,682.5800353744808C468.730268491331,686.4643946799266 462.7601154080057,689.4020230816012 458.88424151217896,688.6268483024357C456.1271268654512,688.0754253730902 456.0,688.2107138365793 456.0,691.6962593284159C456.0,693.7017019590447 456.74474440295046,696.1654519590447 457.65498756211207,697.171259328416C459.2398503186541,698.9225129620495 459.06938631368564,699.0 453.6319345822579,699.0C447.99966924417413,699.0 447.96506570311766,698.9818609592562 449.3396476594421,696.75zM243.1352621743564,686.71403708095C246.16491573962165,684.1686488455014 247.96527033027706,680.695651436005 254.0027336830189,665.75C256.3911543032865,659.8375 258.83520307347555,655.0 259.43395317232796,655.0C260.0327032711803,655.0 263.1894936253874,661.6017440427111 266.4490428483437,669.6705423171356C269.7085920713,677.7393405915601 273.1910093852684,685.0393489786384 274.1877479904957,685.8927831773094C277.176860434805,688.4521410373019 276.32299788581946,689.0 269.34501243788793,689.0C262.9611103177154,689.0 262.75743943222574,688.9255077536175 264.34501243788793,687.171259328416C266.3922272684959,684.9091124036227 266.41972114723484,683.2487820113946 264.48657997913665,678.6221239546725C263.0086062209163,675.084834847731 262.8449714430601,675.0 257.5,675.0C252.15502855693987,675.0 251.9913937790837,675.084834847731 250.51342002086335,678.6221239546726C248.44675223999522,683.5683561785346 248.60880459279747,685.4831718474385 251.25,687.3255760247139C253.39503078440964,688.8218733705309 253.19675559940563,688.8958654307385 247.0,688.9115851658796L240.5,688.9280741618999L243.1352621743564,686.71403708095zM291.34501243788793,687.171259328416C292.64485282713014,685.7349518655724 293.0,683.2671432961887 293.0,675.671259328416C293.0,667.2355642742206 292.7828142959621,666.0 291.3,666.0C288.6389449079687,666.0 291.07883264267645,664.343165479921 294.75,663.6572368421052C297.59694368372016,663.1253078906733 298.0,663.3165521828105 298.0,665.1993140267095L298.0,667.348628053419L300.31445122136756,665.1743140267095C303.1962589909123,662.4669961978641 311.0224365237705,662.1171817827733 313.08586219066774,664.603457610617C313.9157366936092,665.6033952143348 314.56753266283147,669.8377448052815 314.81758143024797,675.853457610617C315.1011825482996,682.676378175663 315.6709918917336,686.0122393074256 316.76426208625014,687.25C318.2173058057276,688.895083173018 317.93167651372744,689.0 312.0,689.0C305.95034032002866,689.0 305.75830071109726,688.924556051177 307.34501243788793,687.171259328416C308.61460839285974,685.7683715892642 309.0,683.3423160931001 309.0,676.7530467966517C309.0,672.0288372735525 308.72685503811704,667.4517705757653 308.39301119581563,666.5817874682357C307.4670636865296,664.1688069382228 302.4057417481302,664.5826350206477 300.55670396864906,667.2225062434054C298.3088264842137,670.4318009096891 298.37890740230006,684.6562190614535 300.65498756211207,687.171259328416C302.24169928890274,688.924556051177 302.04965967997134,689.0 296.0,689.0C289.95034032002866,689.0 289.75830071109726,688.924556051177 291.34501243788793,687.171259328416zM326.3722496359988,687.41153404627C319.39658914804795,683.9704262043091 318.06158531147736,671.7845685346765 324.0087295559389,665.8374242902149C326.35664798786325,663.4895058582906 327.6952747467316,663.0 331.76808936096484,663.0C337.2732609408119,663.0 339.45799105513765,664.6233290299615 340.94883836629214,669.8216098086504L341.83710193841966,672.9188038800032L334.16855096920983,673.2094019400016L326.5,673.5L326.73837658892484,677.4077877772077C327.10462892231436,683.4118857393806 329.2811152149822,686.0 333.96403598547926,686.0C336.1188974996532,686.0 338.1600813061875,685.55 338.5,685.0C339.26498045557275,683.762235622154 341.0,683.6831593700339 341.0,684.8860585571297C341.0,686.1553948641606 334.62786268620096,689.0041696178207 331.84887087746677,688.9772299063883C330.55699189486006,688.9647063549019 328.09251233619943,688.2601432178486 326.3722496359988,687.41153404627zM353.13873954612535,686.8227630520357C352.6618413188807,685.5452433734162 350.77443946394135,680.45 348.94451320181565,675.5C347.11458693969,670.55 344.9587208681887,665.7125 344.15369970959057,664.75C342.78791353427164,663.1170377111159 343.06878976983273,663.0 348.3534863214897,663.0C353.6646480145488,663.0 353.9432333157023,663.1180355988204 352.83193713088133,664.8975036403052C351.87689606901597,666.4267674595354 352.1178333432596,668.3573052482407 354.07346324727956,674.8453753048112C355.4080584612758,679.2730777181216 356.77316356488365,682.5817010799843 357.10703014418596,682.197871664506C357.4408967234882,681.8140422490277 358.75718896329374,678.247497747189 360.03212401042055,674.2722172159754C362.28286489923187,667.2543487714129 362.2970372234304,666.9857037805431 360.5201063041225,665.0222172159754C358.7057269964806,663.0173506480776 358.73441819779976,663.0 363.86406446610283,663.0C368.8138991250969,663.0 369.0122237430245,663.1031153818943 368.4408568622081,665.3796223620998C367.66132212075973,668.4855361625014 371.8928052527047,682.9550369665246 372.99305924824404,680.945818428808C373.4285131873215,680.1506182929636 374.5699861446548,676.6786895335357 375.52966582009583,673.2304211856348C377.1992238284051,667.2314569662544 377.1971785696146,666.8753612101074 375.48228141651856,664.9804211856348C373.71953294746004,663.032606052193 373.76921727236555,663.0 378.5,663.0L383.3099751242242,663.0L381.40498756211207,665.0862384054288C380.35724440295047,666.2336695284147 377.8874267066726,671.9711695284147 375.9165037926058,677.8362384054288C373.8126395858927,684.096913742952 371.74813063283733,688.6025293117441 370.9165037926058,688.748314039986C369.94181915984717,688.9191768926913 368.5994586633899,686.1703921934691 366.6128001349062,679.9355139050798C365.0248402091046,674.9519011088892 363.3803824745514,671.2401597908954 362.958449613677,671.6871998650938C362.5365167528025,672.1342399392922 361.0689375439585,676.1 359.6971624829125,680.5C357.0711372478691,688.9230362267857 354.7559694511099,691.1550144852332 353.13873954612535,686.8227630520357zM403.2250743538593,686.9958021831487C399.0730345684284,684.4643041224534 397.7106200474155,680.9218673533131 398.2584553941989,674.082013208021C398.62197391039916,669.5433983769005 399.20684770065554,668.2043735775371 401.8619799681343,665.832013208021C404.3271803881368,663.6293569219437 406.0122063526456,663.0 409.4443479710306,663.0C414.15861516872724,663.0 416.49774658959194,664.5487740979481 418.0837494107201,668.7202776433232C419.6204551839133,672.7621201266257 419.25451053946534,673.0 411.5,673.0L404.0,673.0L404.0,676.5657414540893C404.0,680.2278405050166 405.4540497213161,683.9355392289602 407.3997040001114,685.234687225483C409.0278767834659,686.3218471760151 414.78616192689975,686.1550142647399 415.5,685.0C416.31468033949494,683.6818195207309 418.0,683.7162180048442 418.0,685.0510266463382C418.0,686.3648662386541 411.84014796801205,689.0012709247778 408.78211863089643,688.9962619395624C407.5269533839034,688.9942060063217 405.0262834592367,688.0939991159356 403.2250743538593,686.9958021831487zM422.0,688.1743140267095C422.0,687.7201867413997 423.1689952438423,686.2576867413998 424.59776720853847,684.9243140267095C426.02653917323465,683.5909413120193 428.0716260130523,681.2773239100039 429.1424046303555,679.782942022231C431.00616909109226,677.1818666849083 431.0152629474195,676.9470890218354 429.3554411226056,674.282942022231C428.4018325760399,672.752323910004 426.10161842019795,669.5875 424.24385410962344,667.25L420.8661008176698,663.0L426.500438079392,663.0C431.7356013265351,663.0 432.0884240047527,663.1460401290323 431.4805266875108,665.0613549746749C430.8883907757831,666.9270100289134 434.4809288597792,673.9733034867609 436.03439247360006,673.9931669544503C436.93628959917015,674.0046991231177 440.0,668.2896423604145 440.0,666.5957079433635C440.0,665.7180685745136 439.55,665.0 439.0,665.0C438.45,665.0 438.0,664.55 438.0,664.0C438.0,663.45 439.86974440295046,663.0 442.15498756211207,663.0C446.06572883037813,663.0 446.21586958992026,663.1039854449317 444.70910201208085,664.7689448774381C443.82862180040195,665.741864560029 441.78338996680105,668.5105273378255 440.16414238185655,670.9215288280968L437.2200558637757,675.3051679013176L440.7771313238664,680.9025839506588C442.73352282691627,683.9811627777965 444.7090102575667,686.65 445.16710339197857,686.8333333333333C447.7325424389033,687.8600470223305 445.2725709446165,689.0 440.4915261163982,689.0C435.3895996759364,689.0 435.0680069812853,688.863965824797 436.13413809309486,687.1568185607186C437.073224275167,685.6531025649091 436.8202283459812,684.6293345781946 434.7604565892579,681.5981079834535L432.23568922512254,677.8825788454698L430.006488409901,681.4895015322472C427.8688468321118,684.9482782608751 427.84983605556357,685.1765893659518 429.54363135945187,687.0482121095123C431.2713962391856,688.9573708118722 431.20830509056685,689.0 426.65498756211207,689.0C424.0947444029504,689.0 422.0,688.6284413120193 422.0,688.1743140267095zM483.21256717400775,687.5456341014249C477.68017980219594,685.054006411916 475.4334112580719,676.6851373540003 478.3943665264642,669.5985739026726C480.2586423910454,665.1367337167835 483.5672010067867,663.0 488.61172228109564,663.0C493.48685037398985,663.0 496.30587688960156,665.063000899223 497.8353871799069,669.75L498.8959609791782,673.0L490.81792805774376,673.0L482.7398951363093,673.0L483.25168428228767,677.5405798684784C483.53316831257575,680.0378987961416 484.5614363098566,682.9628987961415 485.5367242762451,684.0405798684784C487.42187949710467,686.1236529401789 493.4094444502209,686.7645559461623 494.5,685.0C494.8399186938125,684.45 495.8664763412812,684.0 496.7812392165972,684.0C498.19975410229256,684.0 498.13910131490167,684.3053431295428 496.36897107317566,686.0754733712688C493.6920558598184,688.752388584626 487.44262559669625,689.4507303981723 483.21256717400775,687.5456341014249zM503.34501243788793,687.171259328416C504.64485282713014,685.7349518655724 505.0,683.2671432961887 505.0,675.671259328416C505.0,667.2355642742206 504.7828142959621,666.0 503.3,666.0C500.6389449079687,666.0 503.07883264267645,664.343165479921 506.75,663.6572368421052C509.30859679354165,663.1791832306803 510.0,663.3882578357881 510.0,664.640009933484C510.0,666.0865946834417 510.22233621370685,666.0843395845819 512.464816705655,664.615009933484C515.1248840527899,662.8720668661546 520.0,662.4212526002763 520.0,663.9182125317642C520.0,665.7279113516512 518.7676101632388,668.0 517.7860223916314,668.0C517.2360223916314,668.0 517.0450441951618,667.325 517.361626399477,666.5C518.287019781676,664.088463502028 514.3357143600083,664.682613122101 512.5567039686491,667.2225062434054C510.41543504831566,670.2795958635859 510.37409048400013,684.231233341143 512.5,686.3571428571429C514.86892585708,688.7260687142228 514.3864379058821,689.0 507.84501243788793,689.0C501.9455021881177,689.0 501.7587190477885,688.9240937943364 503.34501243788793,687.171259328416zM524.4432960313509,686.7774937565946C525.566246672724,685.1742571350206 526.0,682.1002854280449 526.0,675.7452695525398C526.0,667.5255034221517 525.8493264342834,666.8791459600244 523.75,666.0932494196768C521.6875292591325,665.3211500484949 521.8255636003686,665.160267903248 525.4061536541977,664.1629648951184C527.5545381640065,663.5645746013287 529.6920381640065,663.3096691181181 530.1561536541977,663.5965082657617C530.620269144389,663.8833474134052 531.0,669.2441157901741 531.0,675.5093268808037C531.0,685.3032129007901 531.2454034017568,687.0435541326849 532.75,687.9199012005281C534.0857481419433,688.697903070887 533.1254640524585,688.9463808308474 528.6932960313509,688.9695913140993C522.8905204638531,688.9999794276551 522.8876452174168,688.9984964110221 524.4432960313509,686.7774937565946zM544.3881174468619,688.0711042443786C540.1210935425428,686.2436377162654 538.0,682.1575984823555 538.0,675.7651413081987C538.0,670.3145884478943 538.2933041536562,669.5066958463437 541.4,666.4C547.5428948451778,660.2571051548222 556.5567773699692,662.2824864912324 558.5342784178875,670.25L559.2168160597492,673.0L551.6674250242495,673.0C547.5152599547247,673.0 543.8577330252401,673.421175806263 543.5395874031728,673.93594623614C542.5484113784045,675.539702733049 544.7979665469644,683.3791011711621 546.6347560754737,684.7221944662133C548.7084332048764,686.2385042041409 554.6200715513895,686.4237541375198 555.5,685.0C555.8399186938125,684.45 556.6414763412812,684.0 557.2812392165972,684.0C557.9210020919131,684.0 557.5104814273735,684.9339630170709 556.3689710731757,686.0754733712688C554.0532872228497,688.3911572215948 547.632600318236,689.4606403663748 544.3881174468619,688.0711042443786zM564.3450124378879,687.171259328416C566.736690520685,684.5284847943491 566.7582239473638,667.5237036816926 564.371583783198,666.1880726946365C562.4705093748889,665.1241779665745 563.2666295869385,664.4997245557792 567.75,663.538141820206C570.3764469478789,662.9748276595866 571.0,663.1550070327953 571.0,664.4772487028299C571.0,665.9682941485279 571.1971179178357,665.9753411733027 573.2225062434054,664.5567039686491C576.3367588439568,662.3753965383374 583.2654783638163,662.5308813847466 585.3450124378879,664.828740671584C586.6364027739013,666.2557109307105 587.0,668.7100127012072 587.0,676.0C587.0,683.2899872987928 587.3635972260987,685.7442890692895 588.6549875621121,687.171259328416C590.2397750557685,688.9224297974972 590.0701059414799,689.0 584.6549875621121,689.0C578.616114912052,689.0 578.15221501657,688.7049278405729 580.5,686.3571428571429C581.6042007637752,685.2529420933677 582.0,682.5539682539683 582.0,676.1285714285715C582.0,666.9103374092555 581.2198003722799,665.0 577.4549875621121,665.0C573.6637868641047,665.0 571.7801594206313,668.340326771113 571.2292180268857,676.0404553306721C570.7869877679683,682.2212032019474 571.0004829417683,683.5093786621156 572.8908324453864,686.0662131971251L575.0598748103102,689.0L568.874949843043,689.0C562.9464367219167,689.0 562.7586366080745,688.9241848891951 564.3450124378879,687.171259328416zM599.3138218934112,687.0497727841441C597.5614239347872,685.9812596819047 595.6489239347873,684.2125254634418 595.0638218934112,683.119252298671C593.732415973256,680.6314975807093 593.68222354615,672.9660147359236 594.9750743538593,669.5655594175882C597.0689586583276,664.0582263388986 606.8871679727534,661.131386456817 611.7774937565946,664.5567039686491C614.5923679349742,666.5283185896352 614.7292788633597,670.6337605392575 612.0089485592928,671.4971598376112C609.0207809983062,672.445567379027 607.7226236574801,671.1368817125997 608.3818675170185,667.8406624149077C609.1468850603655,664.0155746981724 606.7700583118269,663.0345666105429 603.1983561471673,665.7012273133505C598.575935532017,669.1523626090739 598.2259308631177,680.0830737202605 602.5978547617021,684.4549976188449C604.318657400212,686.1758002573549 610.5379947410747,686.5565572062974 611.5,685.0C612.2649804555726,683.762235622154 614.0,683.6831593700339 614.0,684.8860585571297C614.0,686.1459908791584 607.644132781681,689.0007103994744 604.8488708774669,688.9962619395624C603.5569918948601,688.9942060063217 601.066219852035,688.1182858863835 599.3138218934112,687.0497727841441zM623.1980892471349,687.3807473387117C617.5796792844966,684.5206988485855 615.8091746608942,678.8278146075472 618.0400216123658,670.7954859613983C619.3776482062503,665.9792629565792 623.2044151245357,663.0 628.0530712235654,663.0C633.2269064777482,663.0 634.8291510242949,663.7689343658805 636.5369851612729,667.0715214153398C639.3275386458314,672.4678568084436 638.7739822788164,673.0 630.3699475681547,673.0L622.7398951363093,673.0L623.2516842822877,677.5405798684784C624.1317408028741,685.3484182173343 628.5817699245817,687.693691134104 636.5,684.5227625004976C638.4297526719827,683.7499751547036 638.426126113315,683.7996271200037 636.3967488509534,685.9363953517812C633.5904102239593,688.8912403364899 627.479129119889,689.5600083228088 623.1980892471349,687.3807473387117zM662.9179181475713,684.75C662.2803746483291,682.4125 660.9511387695934,677.1377029847192 659.9640606392696,673.0282288549317C658.9769825089459,668.9187547251441 657.6812641754323,665.3937547251442 657.084686564795,665.1948955215984C654.0864318845939,664.1954772948646 656.6569759609135,663.0036337479643 661.75,663.0318033718704C667.0296073194332,663.0610049918548 667.3408235301696,663.183992275633 665.5542539471028,664.5351789789761C663.6328292539652,665.9883569136333 663.6370615920143,666.0954075865827 665.8928474770341,673.0993968685472C667.9200816995184,679.39375612516 668.3188042607658,679.9842704537941 669.4354330069691,678.3460212614416C670.1274682778778,677.3307095676487 671.4368348750965,674.2845865344292 672.345136556344,671.5768589653981C673.8807705551962,666.9989983267143 673.8806424173273,666.525592698871 672.343309517194,664.8268589653981C670.7600974051393,663.0774292733922 670.9387871358845,663.0 676.5592981521736,663.0C681.9004590539766,663.0 682.2868649678791,663.1417064606924 680.8536908106485,664.5748806179229C679.420516653418,666.0080547751535 679.467997855553,666.8628569495258 681.3813818177691,674.0748806179229C682.537796211543,678.4336962780653 683.7458373978259,682.0 684.0659177872867,682.0C684.3859981767474,682.0 685.7160364083458,678.5940664868193 687.0215583019497,674.4312588595983C688.9554232000139,668.2649068534638 689.1717614995811,666.5046806112924 688.1891433524675,664.9312588595983C687.0576432205036,663.1194391563839 687.2928024728822,663.0 691.9915261163982,663.0C696.9183720884878,663.0 697.9462321253852,663.6537678746149 696.0308181401169,665.569181859883C695.4052423269396,666.1947576730604 695.817202199197,669.2808475145122 697.1928001221556,674.2738665445111C698.3649402352127,678.5283930981208 699.5317758017196,681.8015575316138 699.7857680477268,681.5475652856064C700.0397602937339,681.2935730395992 701.3449256537648,677.8270641920386 702.686135514462,673.8442122910274L705.1246988975477,666.6026633800977L702.8123494487738,664.8235675356377C700.5119573274484,663.0536715253919 700.528440900661,663.044521165553 706.0,663.0540392174593C711.1111139956876,663.0629302570015 711.3585869075227,663.1696052613211 709.5,664.5627397550242C708.3682575595221,665.4110559814195 705.7301573841601,670.9323911643504 703.4232313121141,677.2809363831536C701.1758383909194,683.4656493470892 698.7820605352509,688.5 698.0886910905635,688.5C697.3806774712823,688.5 695.5101921500102,684.3756517032072 693.8092744060896,679.0640505631582C690.443214955605,668.5525691710868 690.597160940652,668.5171074051874 686.4902608090202,680.75C684.9353938916474,685.3813568360116 683.1553937656995,689.0 682.4321096253913,689.0C681.0524433298945,689.0 677.5971850811334,680.7001914198124 676.4654767268584,674.6676672593633C676.0870445379026,672.6504502667134 675.4829819070761,671.0 675.1231153250217,671.0C674.7632487429673,671.0 673.1822593751649,675.05 671.6098056187941,680.0C669.0843011985762,687.9501523204925 668.4782052183028,689.0 666.4139434676111,689.0C664.5131991676877,689.0 663.8607603283984,688.2068521211545 662.9179181475713,684.75zM714.0,687.0C710.3664637459452,683.3664637459452 711.9141500521415,679.1047689715433 717.9935976570628,676.0032662316466C720.1532970716522,674.901469804241 722.5570009956905,674.0 723.3351619327036,674.0C725.1651571024396,674.0 726.2873077327496,668.4053565010764 724.9561886811349,665.9181378018855C724.2861035725924,664.6660723235988 722.8624570020077,664.0 720.8564082116374,664.0C718.0909740868369,664.0 717.84501981695,664.2463737567912 718.4006030461644,666.4599936599693C718.8575098566865,668.2804553954672 718.512824524411,669.1903608850928 717.0747525301284,669.9599936599693C714.4612527597421,671.3586962898922 714.2343216648243,671.3063511275295 713.012265486787,669.022918271701C711.1914659172645,665.6207231552677 714.8846925843201,663.0 721.5,663.0C729.8717812032133,663.0 731.0,664.6032582901704 731.0,676.5C731.0,685.6757619638902 731.0767932190786,686.001085459246 733.25,686.0318033718704C735.4437108677043,686.0628111063157 735.4514379987407,686.1003371945128 733.5588703648951,687.5318033718704C731.0490744752825,689.4301175265681 728.5389589764941,689.396101833637 726.5800879261013,687.4372307832442C725.1630623037603,686.0202051609032 724.8092405807826,686.0202051609032 722.7861531112674,687.4372307832442C719.7465308497113,689.5662650893562 716.3997154396299,689.3997154396299 714.0,687.0zM738.3450124378879,687.171259328416C740.8268749483947,684.4288321234336 740.7505733468333,667.5207479724074 738.25,666.1169398602883C736.3268889656094,665.037315911644 736.7445134917073,664.7708224834739 742.25,663.5644707257757L745.0,662.9618959435702L745.0,675.4076238085745C745.0,686.4198130846795 745.2015705756855,687.9060275722287 746.75,688.3106744863142C747.7125,688.5622020333186 745.8427555970495,688.8201979067634 742.5950124378879,688.8839986495248C736.934753969625,688.9951923852357 736.7586149620626,688.924208807769 738.3450124378879,687.171259328416zM756.5714285714286,687.4285714285714C754.669938354859,685.5270812120019 754.5761085040216,684.8863257668252 754.5335943828405,673.5123886674177C754.5105896463,667.3578588516319 754.1322424671821,664.5208721698943 753.3333333333333,664.5123886674177C752.6916666666666,664.5055749003379 751.8291666666665,664.1625 751.4166666666666,663.75C751.0041666666667,663.3375 751.6416666666668,663.0 752.8333333333334,663.0C754.574074074074,663.0 755.0,662.4102564102564 755.0,660.0C755.0,658.35 755.4131956392939,657.0 755.9182125317642,657.0C756.4232294242345,657.0 757.5482294242345,656.726855038117 758.4182125317642,656.3930111958157C759.680427318956,655.9086539356359 760.0,656.5147518232371 760.0,659.3930111958157C760.0,662.749574067876 760.2123813584647,663.0 763.0590169943749,663.0C764.8437176497914,663.0 765.8605752000789,663.416577070772 765.5,664.0C765.1600813061875,664.55 763.7835236587189,665.0 762.4409830056251,665.0C760.015228731376,665.0 760.0,665.0625835018274 760.0,675.0313847963387C760.0,683.3874547587344 760.2726337327966,685.1673889721919 761.6324656277941,685.6892054313631C762.5303217230809,686.0337451426402 764.1053217230809,685.790808736667 765.1324656277941,685.1493467514226C767.782392342366,683.4944401280355 767.4623349641076,685.562760048458 764.7774937565946,687.4432960313509C761.9325914306987,689.4359431855634 758.5727716153801,689.429914472523 756.5714285714286,687.4285714285714zM773.5,688.0681003563134C772.4,687.6328693411571 770.9375,687.4876426712146 770.25,687.7453744231079C769.3661326857713,688.0767208541442 769.0117272681949,686.9377887981676 769.0400376306552,683.8569888041843L769.0800752613104,679.5L770.6853963713544,682.5C771.5683229818786,684.15 772.7878060480838,685.8306092514673 773.3953587406992,686.234687225483C775.2276105022107,687.4533018225 778.6784833860484,687.0923301071962 779.9601736834651,685.5479877757175C781.9334371865964,683.1703507091112 780.270172043026,680.462544148756 774.47155342974,676.612478011813C769.3776452684775,673.2303132887464 769.0,672.706625303487 769.0,669.0249692276807C769.0,664.4045183748881 770.804834839993,662.9926150846686 776.6842585459107,663.0136546832924C783.6844625961857,663.0387050097988 785.006755539577,663.8158768699428 784.9411926275193,667.866631363961C784.8890146407084,671.090408464916 784.7481014909177,671.2844309244638 783.6911926275193,669.587748767091C780.3802243661995,664.2725688427354 775.630684412915,662.1928878287662 774.3607683707833,665.5022359869338C773.1802143271016,668.5787105100184 775.0530470637339,671.5469006394003 780.0254387767204,674.4799831483485C785.239979776297,677.555903124264 786.6920602110471,680.1064764793762 785.6323845675649,684.3285605380356C784.6760327662158,688.1389696191364 778.4945620682439,690.0442715556068 773.5,688.0681003563134zM463.15039955418143,685.9195086013183C469.75451232716347,682.3850947059952 469.3174437556246,664.0 462.6293074158805,664.0C458.2549762715813,664.0 456.5350021215541,667.3748868935312 456.14227475915214,676.7286805390388C455.8737627321807,683.1239723676163 456.12315305662344,685.46335631775 457.14227475915214,686.1090923708177C458.9727959748392,687.2689475107304 460.7327151546949,687.2134140250732 463.15039955418143,685.9195086013183zM723.0657414540893,684.9648162415119C724.534702155428,684.1786523322984 725.0,682.8555933490222 725.0,679.4648162415119C725.0,677.0091673086804 724.7526530329021,675.0 724.4503400731157,675.0C724.1480271133295,675.0 722.5730271133294,675.6865560658042 720.9503400731157,676.5256801462316C718.5853742556478,677.7486515003158 718.0,678.707628713851 718.0,681.359013479565C718.0,686.0875186195213 719.2737921819466,686.9942059049732 723.0657414540893,684.9648162415119zM261.6374559212421,671.6916453444417C260.75159448516433,668.1620922491619 257.934295769168,661.7323708974988 257.4749085090424,662.1917581576242C257.2505473634596,662.4161193032071 255.93258333049053,665.1647578227528 254.54609954688897,668.2998437566147L252.0252199403407,674.0L257.12101800004496,674.0C261.94437439167416,674.0 262.1858411583301,673.8765861626578 261.6374559212421,671.6916453444417zM336.0,670.1107839623098C336.0,666.9505610602663 332.68042915140904,663.6492648355411 330.27150703258803,664.4138270153871C328.6309876486039,664.9345076411736 326.0,669.3910701660276 326.0,671.6492232652265C326.0,671.842150469352 328.25,672.0 331.0,672.0C335.235599705469,672.0 336.0,671.7111765408714 336.0,670.1107839623098zM413.0,669.5714285714286C413.0,667.0532539919499 410.6749224008312,664.0 408.75731210015545,664.0C406.75366532088,664.0 404.0,667.2732649891284 404.0,669.6549875621121C404.0,671.7675948959052 404.4459775784254,672.0 408.5,672.0C412.5980392156863,672.0 413.0,671.7830687830688 413.0,669.5714285714286zM493.0,671.4678813691036C493.0,671.1752161221106 492.3479619908522,669.3752161221105 491.55102664633824,667.4678813691036C489.6104100046014,662.8233319856078 486.6629402568304,662.9095010682477 484.1497040001114,667.6842585459107C482.20680533054656,671.3754634320591 482.763986680474,672.0 488.0,672.0C490.75,672.0 493.0,671.7605466160966 493.0,671.4678813691036zM553.0,670.2225062434054C553.0,667.8994413014091 550.2415881830684,664.0 548.5982835934631,664.0C546.9006422161223,664.0 544.4201016516339,666.9326024691383 543.7346485130495,669.75C543.223249132712,671.8519895749878 543.509992761793,672.0 548.0936196151099,672.0C552.1286068255544,672.0 553.0,671.6843098566335 553.0,670.2225062434054zM632.5280140955581,669.2555943788341C631.7101178604335,665.9968362133549 630.2057909833707,664.0 628.5686849196627,664.0C626.4856710077925,664.0 624.1301530050272,666.414213351499 623.4463250806539,669.25C622.7872070586059,671.9833164091283 622.8148331129031,672.0 628.0,672.0C633.189150067433,672.0 633.2131631822795,671.9854457768956 632.5280140955581,669.2555943788341zM525.9304334702806,656.4161774596279C524.4058190671948,654.5791294874205 525.7060987415018,651.698620659831 528.2897117257311,651.1896696737649C530.7839800089654,650.6983188754778 532.3407369048399,654.516405952303 530.4265888301915,656.4305540269514C528.4510996773233,658.4060431798196 527.579562532994,658.4032564183696 525.9304334702806,656.4161774596279zM740.0461634452123,656.5556235486467C737.3454704844391,653.301487606403 741.8148844688241,649.3863130402527 744.8105908087316,652.38201938016C746.084137529311,653.6555661007395 746.2145586492524,654.4369606204513 745.3758660537662,655.7687636344449C743.9157069332274,658.0874252371706 741.6010547369481,658.4291529398848 740.0461634452123,656.5556235486467zM86.67295372003233,624.3396203866989C85.54564452545624,623.2123111921229 85.86861827678787,1.1992323591954226 86.99687488098675,0.5019314297690585C87.6668911199852,0.08783862105368767 88.00000000000001,103.67378830351129 88.0,312.44098300562507C88.0,484.3484423525313 87.85,625.0 87.66666666666666,625.0C87.48333333333333,625.0 87.03616250734788,624.7028291740146 86.67295372003233,624.3396203866989zM322.5,584.3815255429631C321.4,584.101979058455 317.02885836831393,582.745268730806 312.78635192958654,581.3666137037432C306.07531393723536,579.1857787660501 304.4180852979971,578.1437111851417 300.03635192958654,573.349396681299C295.08082484574413,567.9272604227277 293.50383866285324,564.4886386179804 296.5,565.638373600523C298.59308592157436,566.4415660306721 298.36978327076173,565.0225186969387 296.00737842619253,562.5078539747724C294.91143656059836,561.3412773173928 293.72527076875,558.2747742677775 293.3714544443073,555.6934027534048C292.528298570022,549.5419099994061 293.7803765200507,549.5633001015312 302.29108627583287,555.8457829113577C311.98359608588305,563.0006534231082 317.881653394796,565.2618599496427 328.240748174773,565.7944052752969C336.172376678225,566.2021582473524 337.4831997858658,565.998293240612 342.40129214827016,563.5920948523457C349.3025802904751,560.215609178413 355.2378254298465,553.8480765119614 354.8097613051713,550.2798674983136C354.31933187502153,546.1918007523641 350.38314595566544,544.1433268999405 332.88131042317275,538.8678409385324C314.791668829252,533.4151756967375 303.88160597418533,528.6083339814992 299.8569587954951,524.3177111059713C298.4032861330174,522.767969997687 295.8157861330174,518.849154184023 294.1069587954951,515.609231520051C291.46672148725094,510.60336316494397 291.0,508.6402379403303 291.0,502.5407327474787C291.0,491.9541163823138 293.00417635860657,486.44124720264244 299.4372485109193,479.33247211845224C308.0275345041219,469.839898494419 319.79279641222405,466.1373337967522 336.947809164889,467.52778143226914C353.07399767250547,468.8348408325504 363.42861905557277,473.1357970098696 370.9091970380802,481.6341823869572C374.8108235044163,486.066664126457 377.8213074597083,492.5120258736219 376.57303425492427,493.76029907840933C376.2285719036622,494.10476142967235 371.9733987497677,494.5765620263494 367.11709391293647,494.8087448488028C358.3693319360499,495.22698055150005 358.24020728245955,495.1983990233014 353.1932959049138,491.7267352221944C344.88134444818,486.00911927250945 329.7616137265171,484.5393128590978 321.70577745146306,488.6657973379639C318.4264706590105,490.3455743491228 315.0090562600705,495.52109826760795 315.0037380604375,498.81574145408933C314.9936621316998,505.0578143837321 319.9598697635983,507.9333857268294 337.8387427711994,512.0378396893693C355.42973679532054,516.0762052561826 359.35694990429295,517.3666520620835 365.64886936472647,521.1759964530875C375.19140594500504,526.9533762219523 378.0140599438867,532.4998673528343 377.9762645437089,545.3992232652267C377.95821167683926,551.5605644309624 377.39337060999384,554.8594879648924 375.6169949468248,559.1784090448899C368.9104821939418,575.4840249696344 355.3113818215489,583.8793878928872 334.5,584.5618598202739C329.0,584.7422224522612 323.6,584.6610720274714 322.5,584.3815255429631zM438.5,584.324441895045C423.66020673411333,581.0333066463479 414.52467054649367,576.2990441603158 406.1159224938085,567.5422060050391C395.7519666455165,556.7492219076092 392.03664146982754,545.3946127929368 392.0321447104707,524.5C392.02788670895916,504.7147978592747 395.6285111278152,493.9788550587058 406.0576129017224,482.68041352385274C412.6873820006614,475.4980060473674 416.33514812342406,473.17446834441563 426.361656171891,469.7472351146869C431.31663681617044,468.0535373452691 435.00616808386303,467.63949893924917 445.5,467.59953428292044C465.28749099008445,467.5241757024375 475.5124452295457,471.30554867782166 487.24418548693825,483.03728893521406C499.23638783503674,495.0294912833122 503.8026627128111,509.13048067264566 502.45195863011395,530.0C501.1269969144391,550.4717780063737 495.11233268989844,562.1331371280149 479.86095146108573,573.7999259281562C471.9154346185779,579.8779765334601 467.1577724971996,582.1014151441484 458.20077889709967,583.922558171529C452.9936369702685,584.9812783890497 442.4330630308432,585.1967075758555 438.5,584.324441895045zM558.0,582.9943657068497C554.975,581.8558998560851 551.3621876741232,580.5514341381163 549.9715281647182,580.0955530002523C544.8236624967818,578.4079976767543 538.3535401848399,574.5891158624994 533.2136354951595,570.2044862668006C515.8345312784551,555.3791267911109 511.0818870759692,520.6547268896844 522.9582812464752,495.2754558386789C526.9852509582165,486.6700193432919 536.6414208805368,476.61352191691043 544.4567308547988,472.885719028274C562.1472218732658,464.4475810993605 587.7545162455444,465.440793677419 602.3864743434797,475.13260028953476C613.6641702735649,482.6026358960511 622.3968865257353,494.89097275335615 624.8903833296501,506.7992211029005C626.3333414297921,513.6903883133411 626.3180853827798,535.4183768052568 624.8655331388975,542.1913943351534C622.1693096500143,554.7634508870846 612.1295107244658,569.2299246348124 601.0,576.5795440570394C590.2909880742525,583.6514777647188 568.4167197735059,586.9147226454024 558.0,582.9943657068497zM646.0,526.0389328834378L646.0,469.0L660.25,469.0505157142843L674.5,469.10103142856855L682.4009697737237,482.3005157142843C686.7465031492717,489.56023207142795 694.7925745725477,502.925 700.2811284921147,512.0C705.7696824116819,521.075 712.0488873339409,531.9875 714.2349172082461,536.25C716.4209470825513,540.5125 718.6767476567886,544.0 719.247807373218,544.0C719.95601394837,544.0 720.1261470299958,532.0783417955618 719.782967034027,506.5L719.2798363013279,469.0L728.639918150664,469.0L738.0,469.0L738.0,525.5L738.0,582.0L727.0421538394528,582.0L716.0843076789055,582.0L713.3943992984921,577.25C707.1126425253914,566.1573007506507 678.1121917418665,519.020330681009 671.0967932278928,508.5C668.5294514686119,504.65 665.7698968180847,500.18650120956625 664.9644495600546,498.5811137990361C662.7064316570506,494.08051679768784 652.9702698539885,487.70271445540254 653.0097060679118,490.75C653.0150444052632,491.1625 654.5900444052631,493.4758287910724 656.5097060679118,495.8907306468275C658.4293677305603,498.30563250258257 660.0,499.66800469305014 660.0,498.9182244034221C660.0,498.16844411379395 660.7875,498.6676153227216 661.75,500.0274937565946C663.34629156261,502.28283138793654 663.5,506.0133357117735 663.5,542.5L663.5,582.5L654.75,582.7889328834378L646.0,583.0778657668757L646.0,526.0389328834378zM580.6665220246538,562.9084765007558C586.4638652734748,560.1172132585849 595.2836015404085,551.3575995516604 598.24493975971,545.4498876861071C604.0108851040891,533.9471341319527 604.9596033030493,519.0697012428816 600.6500249695362,507.7342690325354C597.1417795930956,498.50657328962416 593.8907280969429,494.60120124468244 586.7446858340647,491.03028178429645C581.3883357097242,488.3536820397065 579.6779333958742,488.0025633144646 572.0902776549568,488.02196200049093C562.1216746237266,488.04744784314454 557.560066259803,489.70611948344066 551.7416078134489,495.4210543580879C544.2772169895886,502.75263674036074 540.428883309264,514.9691982431716 541.321423656548,528.5C542.2860291220381,543.1233000746944 547.0036593701712,552.9549763493675 556.5310848527797,560.1973686498609C564.5823375668315,566.3176296555247 571.8826605249318,567.1376671275966 580.6665220246538,562.9084765007558zM455.4047351588217,563.9046946714755C460.0036645431747,562.6277998751852 468.8316687505659,554.6693216332329 472.39630222814446,548.5867345027818C479.96818713192835,535.6662898178772 481.1776844765907,518.3547548437608 475.37169074083084,506.0C471.9095724479747,498.632850689299 466.5316509796614,492.92322011347346 460.1369929692657,489.82562915384653C456.7465198341836,488.1832740951374 453.9342983966053,487.72063702466227 447.5207315114503,487.75013461305434C428.0820146752991,487.83953810386873 417.8646285268165,499.0549657119404 416.3187022691485,522.0C415.4103382109987,535.4821724884382 418.73524592594856,545.8954010008379 426.9085235322121,555.1661020911715C434.44910824719864,563.7191588092506 444.7242884041735,566.8701254801038 455.4047351588217,563.9046946714755zM231.5472380695054,420.8775170092342C210.53544288069153,417.85517152750623 195.79271648186466,405.4877904342205 189.3749260817927,385.5C184.29189344843243,369.6692257439929 185.2268567856705,341.46969971650867 191.2316220714452,329.5C196.16688351775554,319.6622137213687 205.8521257412007,310.66960540141736 215.5,306.9671595983673C221.03457478446234,304.8432240419196 237.26412186197467,302.885914626241 244.0,303.5300138739414C250.87120459483575,304.18705333036286 261.1617085574444,307.09853359700634 267.0,310.03737700951945C272.265612981596,312.6879490434898 280.08898515349904,320.7077806705638 284.4861448086418,327.9626315021519C287.5093450211435,332.95059379960304 288.4965984705199,335.7173004148515 288.8127118937956,340.08752383184884L289.2222828660057,345.74978465939387L281.86114143300284,347.36473844629745C269.6430058719593,350.04526353507555 269.8117815343948,350.0697555921131 268.4330704131112,345.41610985507793C266.4678451436138,338.7827679921384 264.2999822540556,335.37971208599305 259.5710120696971,331.50467655760303C250.66509986926718,324.2069510816557 237.36308069655595,321.83589737772456 228.33193857133435,325.9363850099844C215.52077499824287,331.75314849990997 208.01488045107183,350.29282941869843 210.88377226903953,369.03363795292967C212.77907460527626,381.41455032314803 214.83889711294057,386.2541807232233 220.84142413196773,392.4295152626885C230.62605490029065,402.49583702150846 244.7302179561902,405.3307181067597 256.2656537178535,399.5496455401542C262.17754730545914,396.5868544898516 272.0,387.2824747889682 272.0,384.6451876916945C272.0,383.5287522578567 273.63927243206115,383.078913090693 278.75,382.7928937599671C282.4625,382.5851255408233 285.88839227046736,382.7326206256484 286.36309393437193,383.12066061513394C287.5114115947812,384.05934106804443 281.8764764850489,395.7132028866661 276.8030329127338,402.89225122872233C275.8731988911765,404.2079894045196 272.8983236088656,407.5829894045196 270.1921989520428,410.39225122872233C265.9656853135217,414.77984785485484 264.089614637169,415.87785071988895 256.8859861516371,418.1799427916028C247.1221447503835,421.3002122397623 239.86046008239057,422.0732943696865 231.5472380695054,420.8775170092342zM343.2697004978416,419.9459431926206C333.5106268156516,418.01981498269566 320.4421526531957,409.60968658133083 314.0671361861466,401.15282989894786C305.80579929602,390.1936516057153 301.31814102749365,373.7881969500284 302.3373357891429,358.2724016179209C303.45444427591974,341.2660086331858 307.6818110946196,330.2441343034815 317.17071371346833,319.59782371195C326.3345588427163,309.3162194656514 336.77615546075094,305.11518621276537 355.2344682982731,304.2833938799962C366.01120468380515,303.7977586663846 367.67540628256353,303.9748660325478 375.6248517059581,306.45337563165936C386.20546481456086,309.75224111943055 390.7965489639047,312.55706866647125 398.2534058025599,320.2778209729456C419.91993856682404,342.7111244991484 418.8791906136384,384.77812020164976 396.1266373760907,406.24172604972125C385.0349483791673,416.70506343141255 373.2983656017763,421.08299769836424 356.855655478852,420.8904343326768C351.7100449654834,420.83017321564904 345.5963652240287,420.40515220262375 343.2697004978416,419.9459431926206zM780.5,420.1309608499303C778.85,419.69942539190146 774.757009717736,418.1131624595767 771.4044660394134,416.6059321114309C761.0657777184367,411.95788385536963 749.1779440092172,398.0133551256914 745.7388934309943,386.5C744.917465707549,383.75 743.6276760714386,379.475 742.8726942396379,377.0C739.989225037063,367.54734037857565 742.159262586503,344.210385128802 746.9231356329794,333.4408599461169C752.178278298895,321.5607383041181 763.5410342379504,310.89417130773757 775.6435319676699,306.4801443143031C782.5202522045976,303.9720646244754 783.8184561381235,303.8289062674002 796.2414094255649,304.20873054027436C811.1652041072906,304.66501652415866 817.4950434227464,306.378841889106 825.6135059175149,312.1613248291482C831.9846668054348,316.69926894928216 839.0,326.40587201052176 839.0,330.6832368804502C839.0,333.5871298131736 838.4513985870661,334.2511039400686 834.25,336.432177784348C831.6375,337.78840602599143 828.15,339.8180215262556 826.5,340.94243445160174C824.85,342.06684737694786 822.9450806428304,342.9897867311609 822.2668458729563,342.99341079429735C821.5886111030824,342.9970348574338 819.9456544068314,340.8625 818.6158309923985,338.25C815.5889497707096,332.3035509407951 812.8010560616301,329.6842318673319 806.560746448715,326.92384621779286C792.1527354165073,320.55049788113445 774.3798285965094,328.3082117130594 769.4609481172796,343.1175742101977C762.0757729820934,365.3522546712586 769.853943461646,392.4656291131824 785.698697810612,399.7195976149194C790.5042776075928,401.9196648240497 792.1389287123391,402.1828547994071 797.7458544815222,401.6592719944474C808.7691770474011,400.62989825443117 815.594608883719,395.1183837317778 819.4611083632693,384.12427347676856C820.3074987634712,381.7176238889913 821.0,378.6224398955167 821.0,377.2460868246028L821.0,374.7436266956685L806.9624690559837,375.19162350556894L792.9249381119673,375.6396203154694L793.2124690559837,367.5698101577347L793.5,359.5L817.7401403524957,359.5L841.9802807049915,359.5L842.1881495902664,389.5L842.3960184755415,419.5L834.4576308634377,419.5L826.5192432513338,419.5L825.6297922962685,414.5C825.1405942709825,411.75 824.5856571894783,409.3243926500459 824.3965987818146,409.1097614445465C824.207540374151,408.89513023904715 822.2998362750312,410.3032710963224 820.1572563393263,412.2389633496027C814.0513962624907,417.75524111053295 806.3497624814341,420.21518270674244 794.0,420.59372608450343C788.225,420.7707406635171 782.15,420.5624963079592 780.5,420.1309608499303zM440.25,419.2646677210972L432.0,418.91911531433857L432.0,362.4595576571693L432.0,306.0L450.3217382655145,306.0L468.643476531029,306.0L471.37846909531646,315.25C475.7941676127822,330.1843043267834 485.9623886512915,363.8763016211458 488.5055790999216,372.0C489.79694420376467,376.125 491.57404533110525,382.0875 492.4546927162339,385.25C493.33534010136265,388.4125 494.4003327980977,391.0 494.8213431534229,391.0C495.2423535087481,391.0 496.0714450545838,389.3125 496.66376881083556,387.25C497.2560925670873,385.1875 501.5792224630439,371.35 506.2707241351835,356.5C510.96222580732314,341.65 516.445570189363,324.2125 518.4559338730498,317.75L522.1111405706624,306.0L539.0555702853312,306.0L556.0,306.0L556.0,362.5L556.0,419.0L544.0223071530256,419.0L532.0446143060512,419.0L531.7723071530256,378.91742848842483C531.5211421841008,341.94690562013704 531.6403601952703,338.55011437123966 533.3078115766074,335.16742848842483C535.3267711902525,331.07165318757365 536.7673291738305,321.9817154644458 535.3892909524629,322.03326928470574C534.9001809286083,322.05156739129393 533.4794939781498,322.91768193983 532.2322088403328,323.95796828145257C529.688301828076,326.07968980203475 527.7432965889523,330.9652157943399 525.049390394114,342.0C524.0423600030705,346.125 523.0567801862405,350.11875000000003 522.859213023381,350.8750000000001C522.1413584513774,353.6228125019371 524.5845538887306,352.9389888106253 525.6594582593912,350.0912419736912C526.4731265358417,347.93558857435517 526.4659259590957,346.8634895301365 525.6321338308412,346.0228881785332C524.7862481978647,345.1700945597323 524.9406701979681,345.0492687689573 526.2428848219299,345.5450128018672C528.5036721450205,346.40567878155855 528.6755625751827,345.7532271525389 517.2973368363845,379.5C512.1049980853719,394.9 507.41780693643807,408.9625 506.88135650542046,410.75C506.34490607440284,412.5375 505.4468194144253,414.0 504.8856083721371,414.0C504.3243973298489,414.0 504.0991796275015,413.2125 504.38512458914283,412.25C506.1675313939601,406.25036097929717 505.6891421900612,405.47189498994027 503.5381454276388,410.87174048755446C502.14216544243743,414.37619775570937 501.0,417.8636977557094 501.0,418.62174048755446C501.0,419.7045934906451 498.76612537020026,420.0 490.577552082872,420.0L480.15510416574404,420.0L479.11108632333276,416.75C477.79759780542935,412.6611448964062 456.8797115597244,343.6788705677324 454.39737913382777,335.25C453.38502313127077,331.8125 452.22752095671876,329.0 451.82515207926764,329.0C451.4227832018165,329.0 451.08240546165916,349.3625 451.0687571011402,374.25C451.04906522670564,410.1577212466729 450.781331796728,419.5113779796537 449.7719709500983,419.55511006392794C449.07238692754424,419.5854205990883 444.7875,419.4547215448145 440.25,419.2646677210972zM502.0,419.0C502.0,418.45 502.45,418.0 503.0,418.0C503.55,418.0 504.0,418.45 504.0,419.0C504.0,419.55 503.55,420.0 503.0,420.0C502.45,420.0 502.0,419.55 502.0,419.0zM630.0,363.01147628276453L630.0,305.9450867986534L644.0725459596133,306.2225433993267L658.1450919192266,306.5L665.1813271351696,318.0C683.4029659150619,347.7813872813625 696.2803897405422,369.53073317866216 699.2132709534301,375.47830681756795C700.9820667539932,379.06523806790557 702.8196937690728,382.0 703.2968865424962,382.0C704.0520312967672,382.0 703.5853885083764,313.90332021151886 702.7932166858561,308.5C702.5205336161141,306.6400576236252 703.1477665092664,306.4798649088949 711.75,306.21247418621124L721.0,305.92494837242253L721.0,362.46247418621124L721.0,419.0L710.0,419.0C703.95,419.0 698.9996726898382,418.6625 698.9992726440851,418.25C698.9980232045289,416.9616628216317 673.1815946743891,374.90098573378157 654.3460405611854,345.5C647.6076519932512,334.9818456115591 642.5709867170812,329.0 640.4531749719736,329.0C638.3487794531508,329.0 640.0289190726634,333.2218748371545 643.4942540165027,336.6416596256563L646.6777592824016,339.7833192513126L647.2065729223577,358.1416596256563C647.4974204243337,368.2387468315453 647.6193298633789,386.175 647.4774827869028,398.0L647.2195790114916,419.5L638.6097895057458,419.78893288343784L630.0,420.0778657668757L630.0,363.01147628276453zM581.0,362.5L581.0,306.0L592.5,306.0L604.0,306.0L604.0,362.5L604.0,419.0L592.5,419.0L581.0,419.0L581.0,362.5zM369.55577541692395,398.21901705987557C376.6598557396951,394.62664205761274 383.94210977993816,386.2595126701275 387.1532107923406,378.0C390.08245410997944,370.46547455141484 390.74078160370624,357.4401645501238 388.6122732160052,349.13178386052243C386.54050838886087,341.04489494681116 380.9750477849635,332.6478272251589 375.6366507886822,329.55439610998815C369.0376523196269,325.7304865717205 360.48844936176994,323.6672295457251 354.270831862485,324.3979884035705C347.9577828987247,325.1399633563254 340.60060568805596,328.62930511796554 336.85746330010664,332.6567529263862C329.910922030901,340.13090953363536 325.37417935787863,355.4070583882508 326.4472760024149,367.7100019699385C327.2432078112904,376.8352789795384 328.32821204321834,379.8911204415037 333.40383951126785,387.3026953231938C343.33248434047334,401.8007835080702 355.3165779580826,405.4194616887833 369.55577541692395,398.21901705987557zM518.9693744509659,368.5C518.9693744509659,367.95 518.5331559480312,368.175 518.0,369.0C517.4668440519688,369.825 517.0306255490341,370.95 517.0306255490341,371.5C517.0306255490341,372.05 517.4668440519688,371.825 518.0,371.0C518.5331559480312,370.175 518.9693744509659,369.05 518.9693744509659,368.5zM521.0,363.5C521.0,362.675 520.8231449618829,362.0 520.6069888041843,362.0C520.3908326464857,362.0 519.9549558048382,362.675 519.638373600523,363.5C519.3217913962079,364.325 519.498646434325,365.0 520.0313847963387,365.0C520.5641231583525,365.0 521.0,364.325 521.0,363.5zM523.5,356.0C523.9831928260221,354.3333333333333 523.8914559056998,353.8333333333333 523.2247892390332,354.5C522.6747892390332,355.05 521.8986340814682,356.625 521.5,358.0C521.0168071739779,359.6666666666667 521.1085440943002,360.1666666666667 521.7752107609668,359.5C522.3252107609668,358.95 523.1013659185318,357.375 523.5,356.0zM528.5,341.0C528.8399186938125,340.45 529.3164763412811,340.0 529.5590169943749,340.0C529.8015576474687,340.0 530.0,340.45 530.0,341.0C530.0,341.55 529.5234423525313,342.0 528.9409830056251,342.0C528.3585236587188,342.0 528.1600813061875,341.55 528.5,341.0zM380.5,197.93465186865689C360.20520506635626,195.18897511395997 341.887515847009,181.97950400052648 333.04681573765663,163.71464413472296C326.73832491744804,150.68132105277337 324.85777319406026,144.38993559337186 324.3142957338764,134.5C322.3656298512186,99.03913642348968 339.55127934548756,74.00366935828615 371.97990051490734,65.06237536809684C384.54849615870177,61.596933278904565 398.318247526353,62.5347863506486 409.9094152864573,67.64574168957073C417.12181683976314,70.82594432214712 430.25430918187635,80.37653489156317 434.36424777678053,85.43049164215643C447.49936586415873,101.58263532864646 453.8036838025051,122.43550395770806 451.23981219479043,141.25C449.9884328957697,150.43301478045473 444.07814676783477,166.11916667574178 439.195723770658,173.21552525067358C434.36802655990056,180.23234262158604 422.7758920791645,190.49447376254255 415.8497217721861,193.88296441155356C405.7933109095525,198.80286280566517 395.57465287502527,199.97409716088148 380.5,197.93465186865689zM404.21679465362945,189.0147583030689C412.76814439910913,186.3735153882419 421.2587664235546,180.73869292054738 428.13234217482704,173.143145585924C435.36430362226906,165.15156922393385 439.2431167412315,157.7188389355205 442.0124949704915,146.5454650769601C444.91211735645913,134.84660624115435 444.4621693882958,118.04619157481105 440.9801720166996,108.0C437.2177008294841,97.14459078866373 440.51773745829007,98.0 402.40171640653693,98.0C362.45521226356607,98.00000000000001 366.0,96.43973336300265 366.0,114.02250624340552C366.0,121.69389027631311 366.40486583426184,126.00486583426193 367.2000000000001,126.80000000000008C368.06575878939213,127.66575878939196 374.9950122854585,128.0 392.07755528455795,128.0C411.59383504572565,128.0 415.9676268427717,128.25606644459793 416.9643229344291,129.4570117658415C417.83398795176254,130.50489400633367 418.07897080000754,135.54143353100346 417.83676764987126,147.3933788376245L417.5,163.87273414356605L414.5,167.0256434799354C408.75963582678395,173.05859274523317 408.3825152211792,173.12327572676875 379.6911904889191,172.99598174684024C365.2860357200136,172.93207080863397 353.0783089578553,172.90682953178327 352.56290879523397,172.93989002050535C350.9712953762142,173.04198451194236 357.21093256689767,178.94184288742585 363.0,182.80863047420775C375.05813115349787,190.862817509156 390.6382153395325,193.208754277299 404.21679465362945,189.0147583030689zM409.7774566006733,149.85201279580662L409.5,135.70402559161323L384.53690674131303,135.30558620378628C370.80720544903517,135.08644454048147 359.33220544903514,134.66587380674144 359.03690674131303,134.37098457325294C358.74160803359086,134.07609533976444 358.375682508006,126.33448730617359 358.22373890668,117.16741116527328C357.91954269286373,98.8146155918379 357.60221857669933,99.92320210109987 364.9299986085585,93.73878203057883L369.359997217117,89.99999999999999L380.2189314919963,90.0L391.0778657668756,90.0L390.78893288343784,81.25L390.5,72.5L382.5780081255116,72.20483965708542C374.04797880279455,71.88702484234513 364.40762542785103,74.15868014234233 358.31845724929076,77.92136634237838C353.43641989386856,80.93812890281914 344.488852388074,92.43644806777283 339.62637213484265,101.94214745022872C333.2187959051349,114.46836663009984 331.65184851186325,123.11275106501938 333.13550830904614,137.75031973847922C333.9773592263663,146.05589668980357 337.05600578501253,154.80526030679974 341.58029769946666,161.75L343.0461059597084,164.0L376.55050958052755,164.0L410.0549132013466,164.0L409.7774566006733,149.85201279580662zM542.0,157.93457166212056C534.9182858338572,156.51198890373854 527.0480379680929,150.3585538171661 523.5020032545272,143.47172066348287C520.856034080174,138.33292488016806 520.5043393930487,136.64240415749796 520.5068414720326,129.07462213906803C520.5091269172773,122.1620700020485 520.9317397277111,119.72465621220755 522.6871017234861,116.5C528.222066088389,106.33209317132781 534.3259829736821,103.05379995362001 547.7821186308964,103.0219620004909C558.6322865864744,102.99628990951227 562.0276256350946,104.14073851746262 568.3263419444239,109.9466924724426C574.5814890871985,115.71248577206825 577.3195692788416,122.48729651929223 576.8047480731357,130.92474751094656C576.3398787110439,138.54353324995282 574.349633185637,143.18515575650028 568.8864757796612,149.39163032574345C562.345295293548,156.82280378881882 552.3211343465316,160.00789281344822 542.0,157.93457166212056zM603.8032105951726,157.65185877481068C590.8269433468647,154.0169594915356 583.0,143.4336725545042 583.0,129.5225703434082C583.0,114.02604885920647 591.8972822427165,104.24668643563956 607.5005105427417,102.59306921894589C615.3183020825353,101.76454614422401 623.4847623774278,103.3696313791983 627.6619360756663,106.55571708232561C630.6483447823274,108.83356204912701 631.0,109.61985031262488 631.0,114.01950648343511C631.0,118.27001160031438 630.7625663965005,118.85402470145311 629.25,118.32396428523367C628.2875,117.98666791808469 626.15,116.448597669818 624.5,114.90603040019657C619.9573193935578,110.65912711544392 614.4563027035131,108.7044856336506 609.2457936944818,109.48584971422284C601.4463424995083,110.6554496518422 593.0797364002306,120.49634365354088 593.0219620004909,128.56849877257218C592.9370602094015,140.43085356373683 602.1146107362556,151.0 612.5,151.0C620.3700376227201,151.0 625.0,147.12525222592944 625.0,140.53893288343784L625.0,136.07786576687565L616.25,135.78893288343784L607.5,135.5L607.5,132.0L607.5,128.5L620.2456035013001,128.5L632.9912070026004,128.5L632.9956035013001,138.66821253176417C632.9980215755851,144.26072942423446 632.7183713105301,149.5703376639394 632.3741584678445,150.46734195333067C632.0299456251589,151.36434624272195 629.1785379108148,153.39547916761344 626.0376968804131,154.98097067531174C619.0992897921394,158.48346742982105 610.4717391765653,159.51984047533898 603.8032105951726,157.65185877481068zM664.6725637125033,158.00106675713073C660.8487211375618,157.32189557511342 658.6658370238714,156.0535728284226 654.1725637125033,151.90024410844734C644.04185156749,142.53598451639624 641.162601822687,133.8322504579155 644.4522065647698,122.51640766979446C646.3557462864851,115.96846105593042 654.1293739745521,106.72300994744579 659.7178813691036,104.36039921338889C664.0650172486789,102.52259366597173 679.0548334309425,102.57824415015547 683.5317261622347,104.44880936978444C689.2501039200602,106.83810015437753 693.5153927650939,110.69362636962668 696.493463893336,116.16532410843618C698.93592574325,120.65293115534796 699.3186644939966,122.4775679717514 699.3785941311737,129.91965350886636C699.459007923326,139.90546933806448 697.8224056426167,144.23363759986637 691.7306304186261,150.14550446742365C684.5344555112878,157.12915478996018 675.1321713776551,159.85884828504504 664.6725637125033,158.00106675713073zM481.68897167047595,157.3556383371426C481.31003725171416,156.97670391838085 481.0,144.5670106307654 481.0,129.77854214244164L481.0,102.89041761821662L485.75,103.19520880910831L490.5,103.5L490.5,126.75081153455295L490.5,150.0016230691059L504.310365261726,150.00081153455295L518.120730523452,150.0L517.810365261726,153.75L517.5,157.5L499.93897167047595,157.77230500380927C490.2804060892377,157.9220727559044 482.06790608923774,157.73457275590437 481.68897167047595,157.3556383371426zM677.7455202385734,149.46186176142976C679.7702258758027,148.61588573021612 682.2945530857876,147.15338573021612 683.3551362607623,146.21186176142976C686.5140226116226,143.40758644933226 689.9795783201358,134.9119947045613 689.990231084296,129.94634432360172C690.0025449105891,124.20641097820207 685.9603890277963,115.82004572830945 681.7293494900508,112.80727983814465C677.712512819638,109.94703984297993 668.5455111074199,109.14942485299946 664.3895515819311,111.2985550479753C657.0803501877444,115.07828998549456 652.0591179017246,123.19160212215185 652.0219620004909,131.28211863089643C651.9935590136387,137.46673066819258 653.8973436020174,141.8932860233722 658.1140256229239,145.44698634575747C664.7410244004122,151.03203344564406 670.9489848035751,152.30163558710592 677.7455202385734,149.46186176142976zM553.9049307946581,149.02726548933998C561.7541911223095,146.77612724724955 567.2556171052031,140.50730876080567 568.5643373302396,132.32302208475744C569.2916452282042,127.77468835779248 566.5928432978625,120.33727383426361 562.701153782207,116.16513884627412C551.3348641601685,103.97976423584832 531.5902750896187,110.83691584029772 530.2127442981407,127.44812622188685C529.431548093834,136.8683254503281 533.6143601467992,144.5571792622321 541.4586298099563,148.12033635010934C546.0497691088464,150.2058014394989 549.0367124888311,150.4234521287977 553.9049307946581,149.02726548933998zM938.4713048245145,64.0C938.4713048245145,28.52499999999999 938.5964951290001,14.012499999999932 938.7495055011492,31.749999999999858C938.9025158732983,49.487499999999784 938.9025158732983,78.51249999999978 938.7495055011492,96.24999999999986C938.5964951290001,113.98749999999994 938.4713048245145,99.47500000000001 938.4713048245145,64.0zM400.1035689581407,83.77519046862238C399.8604964303615,77.03933472056919 399.38985477370585,75.75116773671768 397.99595199019234,78.00654981745564C397.17782396547585,79.33030876859569 397.54866778658453,86.52680600666605 398.6084811072111,89.89312806941263C399.546284319019,92.871905162493 400.3178953416198,89.71445318706643 400.1035689581407,83.77519046862238zM424.0,89.48590366116349C424.0,87.16840615608531 407.39794178700663,76.16390201095786 406.065988066395,77.59852764246814C405.6056619096272,78.09433743911066 405.4582229086443,81.0875 405.7383458419886,84.25L406.2476602662508,90.0L415.1238301331254,90.0C420.0057235599064,90.0 424.0,89.76865664752357 424.0,89.48590366116349z"/></svg>