<svg version="1.1" xmlns="http://www.w3.org/2000/svg" xmlns:xlink="http://www.w3.org/1999/xlink" width="1024" height="1024" viewBox="0 0 1024 1024"><path stroke="none" fill="black" fill-rule="evenodd" d="M722.1573505153326,782.0354801716039C718.243768333461,781.0745099484432 716.502627439323,779.613782702622 717.4478206527945,778.0844279572893C717.9105748156044,777.3356759934275 718.7077453912358,777.3084063215581 719.9949469093929,777.9972956679769C723.3709788170701,779.8040931131029 731.475091231632,779.2007335725118 734.3651413081986,776.9274198509671C736.5964772151162,775.172250770784 737.0,774.0735204348092 737.0,769.7531058242577L737.0,764.6513719465811L734.5982928548246,766.9076586574832C729.0016877206043,772.1653961863386 718.5933661357946,770.0435795096507 714.9501199271965,762.9022269800903C709.6584668927646,752.5297301409213 717.0487932702287,740.8043093155356 727.9559708741829,742.2672688257812C730.2883090336895,742.5801010189896 733.1938569745937,743.7729423395014 734.4127440761922,744.9180273158073C737.2192821791299,747.5546329644267 737.6775165468789,747.5303183976562 737.5794009839742,744.75C737.5311032124821,743.3813773404559 738.0875848936373,742.5 739.0,742.5C741.1962990356336,742.5 741.7090002196777,770.3673608863254 739.6053307882531,775.4021505251782C737.342929743139,780.8168383894955 729.4362254261521,783.8227895271634 722.1573505153326,782.0354801716039zM202.0,781.1977545292771C202.0,780.6758629408478 203.132309226003,777.6885085886677 204.5162427244511,774.5591893022101L207.03248544890224,768.8695178722872L201.5162427244511,756.4045540803988C198.482309226003,749.5488239948601 196.0,743.5031824735955 196.0,742.9697951442552C196.0,740.4374356217485 199.26671025840213,742.4129170123284 200.597423071677,745.75C205.0069136108735,756.8078599047514 208.3549584855164,763.9783748478169 208.8687068949621,763.4646264383713C209.1873959650063,763.1459373683272 211.2842781463357,758.2999741983624 213.52844507569415,752.6958193940052C216.18946620624124,746.0506923501292 218.19855071024696,742.3928615112713 219.3043742918093,742.1798993480128C220.23696843131418,742.0002981270742 221.0,742.2476195661527 221.0,742.729502545965C221.0,743.2113855257775 217.43906882426376,752.1318813992222 213.08681960947501,762.5528267091756C208.05364208741074,774.6041742088764 204.59611604855832,781.6176738645569 203.58681960947501,781.8233241632106C202.71406882426376,782.0011524529764 202.0,781.7196461177062 202.0,781.1977545292771zM127.49961286500996,769.6140864356807C123.3959239742156,767.8256150721087 121.33834400947171,765.2616559905282 122.81875291346455,763.7812470865354C123.66407241393081,762.9359275860692 124.43280397363117,763.0817070887447 125.8385791380559,764.3539161276751C130.43182975689507,768.5107508073884 139.6988765007211,768.2996885887943 142.00767678001046,763.9856558053402C143.55573164318602,761.0930888344197 143.1764815691762,756.4696887492706 141.24799339746917,754.7244309401956C140.28438976607723,753.8523816389798 136.57188976607722,751.8268893821363 132.99799339746917,750.2233370360989C125.02461886013398,746.6458064849937 123.5,744.9034724329986 123.5,739.3690325572852C123.5,733.147553295225 127.03417217650525,729.8111830906031 134.18507012863947,729.2819887373828C138.34167144170274,728.9743840200193 140.23739702800236,729.3511640128125 142.8835076093984,731.0108239838966C147.2524292685835,733.751043703182 145.77220896082034,735.9678051630513 141.1645617425395,733.5850981843448C132.96255829633554,729.343677362649 124.68552516720246,734.8050003307683 127.64140510234122,742.5078999671045C127.9941779086289,743.4272111640714 131.5118760672465,745.6509075066199 135.45851212149148,747.4494473949899C146.26124150424587,752.3724094900768 149.27127881790756,757.7071509379945 145.4335823059123,765.1284376577325C142.73922858623567,770.3387432187932 134.11300304822421,772.4963368385658 127.49961286500996,769.6140864356807zM161.7720023816991,770.2188457864809C156.59815373985813,769.5598922222019 155.0,765.9365059843361 155.0,754.8651413081986L155.0,745.0L152.41666666666669,745.0C149.28395021919914,745.0 149.62683201207997,742.651533560183 152.82832794038913,742.1804490469242C154.57308467861398,741.9237166014714 155.0,741.1865277390405 155.0,738.4304490469242C155.0,735.6666666666666 155.3886760348558,735.0 157.0,735.0C158.645358605708,735.0 159.0,735.6666666666666 159.0,738.7596663976443C159.0,742.313450498155 159.17276053477772,742.5188034557299 162.15482188845746,742.5096663976443C166.81033338565803,742.4954018759183 166.94590996537764,744.8041608482642 162.31197990604795,745.1859397181438L158.5,745.5L158.51239821410078,754.6112442186429C158.52541342556395,764.1759096804712 159.56284757967444,767.0 163.06342772106723,767.0C165.1595945928041,767.0 166.63619954698808,768.8431729820301 165.3628677106876,769.8702772875431C164.88829046980942,770.2530842774481 163.2724010717646,770.4099401019702 161.7720023816991,770.2188457864809zM173.4652821370409,770.093799481012C169.20369372556206,768.2714822320021 167.21131191578397,763.3182750317695 169.00147321395875,758.9964433468806C170.75822986338486,754.7552576180468 176.0147073179063,752.6328794142619 183.1578625353554,753.2805980112971L188.99028238739857,753.8094632940587L188.3896163402634,751.1547316470294C187.41809300875764,746.8609418677058 184.17038739272274,744.7141533868088 179.511769004473,745.2863240236483C177.30529605201284,745.5573226179015 174.7125,746.101907735749 173.75,746.4965131744204C172.55921962433126,746.9847089276694 172.0,746.751751022069 172.0,745.7675038244925C172.0,742.6281302126613 180.9324109609834,740.8832064202479 186.38700424238078,742.9570390895249C190.6182746720107,744.5657652395457 192.0,748.74892791935 192.0,759.9503400731157C192.0,769.3333333333334 191.86732552712888,770.0 190.0,770.0C188.88888888888889,770.0 188.0,769.3333333333334 188.0,768.5C188.0,766.6117501119531 187.1025142843592,766.5972507234919 185.052615812255,768.4523833443388C183.03986366694707,770.2738990014569 176.16416914384445,771.2478828580879 173.4652821370409,770.093799481012zM267.7751413757946,769.4411980056395C263.62132864153034,767.1870062176046 263.0,765.0562755495683 263.0,753.0657414540893C263.0,743.8961934948989 263.25703566761877,742.0 264.5,742.0C265.73850574712645,742.0 266.0,743.8383838383838 266.0,752.5454545454545C266.0,762.5332438778934 266.135710553814,763.2266196447231 268.5662878787879,765.657196969697C270.63414206152635,767.7250511524354 271.75092781887395,768.1048778296215 274.3162878787879,767.6128123412675C276.0673295454545,767.276942462298 278.5125,765.851564705792 279.75,764.4453062156988C281.76343950711083,762.1572929622331 282.0,760.8352463571648 282.0,751.8709121354632C282.0,742.86914231552 282.17745174887244,741.8873965138429 283.75,742.1890962962191C285.2988986627006,742.4862588087999 285.5319716139573,744.1034955570685 285.77821955426384,756.2624204594297C286.04607988804617,769.4884952794915 285.9809204283141,770.0 284.02821955426384,770.0C282.9009448882879,770.0 282.0,769.3402218952829 282.0,768.5146984339902C282.0,767.3027603335798 281.4018512580011,767.3940952427648 278.75,769.0109603735527C274.91881614286984,771.346878562607 271.5314470288592,771.4796705844925 267.7751413757946,769.4411980056395zM330.0199333001233,769.2484460009207C322.7724531498768,765.6071859969387 320.02414954484357,756.9660539976879 323.66996462551924,749.283069028788C325.9061549782073,744.570647667001 330.33938675054236,742.0083866621411 336.2646851746845,742.0037380604376C340.27312055824115,742.0005933041369 341.60657824752406,742.5289715655098 344.66601785303226,745.3327387400074C347.74525772487567,748.154651504533 348.3177886035994,749.3425337895916 348.4013326783478,753.0827387400074L348.5,757.5L337.25,757.2388084797739C326.14801775479486,756.9810534913162 326.00043772842895,757.0073677588352 326.03326928470574,759.2388084797739C326.0814351005376,762.5124627012851 329.38943198275655,765.9926287913255 333.543117064797,767.1395165264234C336.513623438777,767.9597128725735 337.87939243395954,767.7739169371911 341.2923233016843,766.0853331130263C343.7308357451268,764.8788531617441 345.803756946095,764.403756946095 346.3306017891123,764.9306017891122C347.61517703921936,766.2151770392194 346.5211228052453,767.5248281517094 342.6150054581143,769.3784021973056C338.2084860417594,771.4694325724097 334.3615299127172,771.4297396051985 330.0199333001233,769.2484460009207zM360.29858937123595,769.3758593153884C354.38114927882754,766.4579974862276 351.3751754319794,759.3670434641515 353.11933961790567,752.4403394114993C355.4651888026346,743.124127562932 365.5192884672718,739.0975558416101 373.25,744.378200529867L377.0,746.9397263993976L377.0,738.3965390364883C377.0,730.7987191806552 377.1936505740897,729.8905667453466 378.75,730.1896603878678C380.3350625177082,730.4942720092379 380.5255549354098,732.3861826084992 380.7711399273576,750.2629845510783C381.035295372693,769.4915804879172 380.99021590520977,770.0 379.0211399273576,770.0C377.676973759799,770.0 377.0,769.3402012010454 377.0,768.0301368003013C377.0,766.1619056942851 376.8122231201159,766.1877024332917 373.36045315967806,768.5301368003013C369.1854860179921,771.3633460309014 364.89287819506995,771.6412814881289 360.29858937123595,769.3758593153884zM426.11883720680584,768.8837932568881C418.61526715368655,765.0771920313508 415.9467977498969,755.3087209290728 420.508627688311,748.3464884328896C426.2746033576773,739.5464972628074 440.8578811348065,740.0456642065171 445.6129552216238,749.2057774514631C452.29479910854025,762.0775951291076 439.052306103583,775.4450112110613 426.11883720680584,768.8837932568881zM488.49961286500996,769.6140864356807C484.8702555333805,768.0323384453907 482.58706059983234,765.4771669791402 483.4930897098252,764.011181084375C483.93295357190505,763.2994664051071 485.3368753665404,763.6631154546199 487.6366699188475,765.0844666550875C493.82274210765644,768.9076695246318 502.3495773793046,767.439671483353 503.6318468232855,762.3307030819012C504.90179159946683,757.2708400682777 503.01687832132296,754.7515017839083 495.0671968450995,750.883359147057C485.70965176542916,746.3301806068614 483.6140435392006,743.9144938368481 484.3380453726156,738.51546092011C485.11452293266785,732.7251055475866 489.52907869586653,729.0 495.614647419926,729.0C500.1349055897485,729.0 507.0,731.4450221431066 507.0,733.0549244484953C507.0,734.8129811623488 504.9336212520561,735.0170345078554 502.0790276123355,733.5408667665952C493.9578220866331,729.341228173426 485.70275501453585,734.8499005931842 488.6414051023412,742.5078999671045C488.9941779086289,743.4272111640714 492.51187606724653,745.6509075066199 496.4585121214915,747.4494473949899C504.3712625218473,751.0554037147901 508.0,754.7450053681014 508.0,759.1845186186855C508.0,768.1701651240951 497.7568727380004,773.6485892034534 488.49961286500996,769.6140864356807zM521.0199333001233,769.2484460009207C513.5504774292463,765.4956615364875 510.6298340273263,755.3994632211635 514.9595155119005,748.2985485148422C520.5581978026987,739.1164030022012 535.273572499525,740.1180595223859 540.2484460009207,750.0199333001233C543.865526138133,757.2192863997723 541.3104982452475,764.8525173346285 533.9873804442223,768.725075199212C528.8267713850414,771.4540709276945 525.6640288822657,771.58172034557 521.0199333001233,769.2484460009207zM602.2864081499538,770.2990380508268C598.7452986855512,769.6134049369579 594.2680419238962,764.7091481913629 593.0484950673126,760.1800969307255C591.4820474948631,754.362754764309 593.0759882486907,749.0184774523829 597.5487432245134,745.0913465698286C600.5521918887026,742.4542837154892 601.8614473890383,742.0 606.4580709463627,742.0C613.0220352915709,742.0 617.0434621171411,744.8639951602848 618.8239671573726,750.8067913298152C620.7328942110668,757.1782219780146 621.0282887019836,757.0 608.5590169943749,757.0C602.2664763412812,757.0 596.8632570433435,757.4122377572174 596.5518629989579,757.9160839049275C595.5766170464485,759.4940650034788 597.7979630908637,763.8215143730989 600.4879550372075,765.5840647908926C603.8097719280396,767.7606028124015 610.2108669240772,767.747079717111 613.554173967344,765.5564608069199C616.422089202807,763.6773305725961 617.5847190711569,764.0338632347891 616.6375966285965,766.5020247563843C615.4274775370922,769.6555445590877 608.470067745162,771.4963243324254 602.2864081499538,770.2990380508268zM774.6484639480841,770.024659192957C765.9369280688865,767.2567926723323 760.7513308768243,760.4213361753001 760.2157454699882,751.0C759.9088043544399,745.6006829187439 760.2532578038376,743.7379887485619 762.2498893482637,740.0C765.5760055854984,733.773019811341 771.1727707081817,730.044081176829 778.296196401229,729.308878789904C786.8511275198811,728.4259320098807 797.3898188248488,733.0101811751508 794.1812470865354,736.2187529134645C793.3359275860691,737.0640724139308 792.5924724859861,736.9411677928232 791.2607149713818,735.735943806357C788.1278992365204,732.9007845319185 780.7313043378942,731.4643206241738 776.2220153150195,732.8153364766532C768.0920954682827,735.2511197091342 764.0,741.0097903902 764.0,750.014974609162C764.0,759.8596710366354 769.6284341166007,766.1605228054557 778.9545625551,766.756128538515C785.9739528134214,767.2044162827817 790.3112584156868,764.7320700334178 793.0361795571566,758.7293404418149C796.0276743465578,752.1393756820357 795.9130109841789,752.0 787.5,752.0C781.5,752.0 780.0,751.7 780.0,750.5C780.0,749.2704908314017 781.7368521229585,749.0 789.6316691066258,749.0L799.2633382132517,749.0L798.7258211799601,753.007488728296C797.1029315859204,765.107034142804 785.3391308888794,773.4213437178107 774.6484639480841,770.024659192957zM828.5,769.1145475805536C823.4529549415385,766.7909783544467 820.9989050280685,762.6108456350466 821.0037380604376,756.3457079433635C821.0105712272756,747.4877637290255 826.5075804111252,742.0 835.3736147911723,742.0C840.9536613528779,742.0 845.455046807114,745.4490692330204 847.1177342512344,750.9986253144571C849.1319727467999,757.7215542281599 848.5457959078237,758.0740302166553 835.8584014453414,757.7690130143333C829.0417524972758,757.6051341976465 824.5395215309461,757.890814540728 824.3382800139765,758.5C824.1565901317762,759.05 824.8856263976993,760.9396288831387 825.9583606049168,762.6991752958636C828.8368708199584,767.4206359231018 834.7469743046385,768.8289534729671 840.2521081907945,766.1052299666009C844.6661241696207,763.921348642799 846.8812237726947,764.2325338240059 844.7985583055001,766.7439316759189C843.1537080046156,768.7273868094617 837.7616102862702,771.0067111790328 834.7821186308964,770.9780379995091C833.5269533839034,770.965958899239 830.7,770.1273882107091 828.5,769.1145475805536zM855.3454300997489,769.0689948820304C851.4048497767845,766.6661885546138 850.2485095471425,762.353902437356 852.419184038559,758.156280836567C854.4146386895545,754.2974970440015 859.5262326862324,752.568088123361 866.7365920902284,753.3122628607462L872.1853487254633,753.8746241538397L871.5500332561961,751.1873120769199C870.535684010145,746.896730293555 867.1949187323071,744.7125239558138 862.511769004473,745.2780570353415C860.3052960520129,745.544508786026 857.88125,745.9284489419906 857.125,746.1312573819293C854.5187573043545,746.8301902945983 854.8425223454484,744.0103712034182 857.483817221631,743.0061526813696C862.3520215446285,741.1552646967093 868.6275511356644,741.775768009005 871.6942362986737,744.4112312454176C874.4239352521428,746.7570935873096 874.5091104553387,747.136636051808 874.8360529760757,758.4112312454176C875.1605090585934,769.6000817511477 875.1001180929687,770.0 873.0860529760757,770.0C871.8972512083119,770.0 871.0,769.3539858332937 871.0,768.4980574419283C871.0,767.251375342849 870.3651910768476,767.3363521143042 867.2648091220635,768.9980574419283C862.5855700706061,771.5059795542459 859.3734142089305,771.5250964993157 855.3454300997489,769.0689948820304zM890.3742735029214,770.2480125079991C889.2051239295282,770.0530133622691 887.3101514758823,768.8945923386794 886.1632236059304,767.6737435666887C884.3874016956692,765.7834677653797 884.035014537867,763.9732413823067 883.788950103009,755.4770092633528C883.5142824685952,745.9931520009623 883.3887851085555,745.4842049668634 881.25,745.1804490469242C878.1314145056118,744.7375392838218 878.3465994719037,742.0 881.5,742.0C883.6904761904761,742.0 884.0,741.5666666666667 884.0,738.5C884.0,736.0555555555555 884.452380952381,735.0 885.5,735.0C886.5426047891444,735.0 887.0,736.0488483042527 887.0,738.439634738274C887.0,741.6784496721111 887.2144271213313,741.897389857317 890.6727003963947,742.189634738274C895.7131486909483,742.6155829195335 896.1760494537368,744.7852001836328 891.311979906048,745.1859397181438L887.5,745.5L887.2138971470195,754.6424685755909C886.9082488083066,764.4095166939634 887.9265228981158,767.0 892.0714285714286,767.0C893.1321428571429,767.0 894.0,767.6484423525313 894.0,768.4409830056251C894.0,770.2438897027156 893.0846851632401,770.7000743915823 890.3742735029214,770.2480125079991zM247.0,752.0499038559878L247.0,734.0998077119758L241.25,733.7999038559878C236.93884615821685,733.57504617583 235.5,733.1246488282912 235.5,732.0C235.5,730.7435897435897 237.61111111111111,730.5 248.5,730.5C259.3888888888889,730.5 261.5,730.7435897435897 261.5,732.0C261.5,733.1246488282912 260.06115384178315,733.57504617583 255.75,733.7999038559878L250.0,734.0998077119758L250.0,752.0499038559878C250.0,767.3388782062209 249.7776233253213,770.0 248.5,770.0C247.2223766746787,770.0 247.0,767.3388782062209 247.0,752.0499038559878zM294.0,756.0C294.0,744.2222222222222 294.23809523809524,742.0 295.5,742.0C296.325,742.0 297.0,742.675 297.0,743.5C297.0,745.3663701320621 297.94304292399613,745.3576544055474 300.4411296351049,743.4681966281296C303.81590570848874,740.915644360611 309.753096308692,741.5992501548459 313.0769230769231,744.9230769230769C315.9558404558405,747.8019943019942 316.0,748.0134952766531 316.0,758.9230769230769C316.0,768.1025641025641 315.74305555555554,770.0 314.5,770.0C313.26803368906997,770.0 313.0,768.2372065213112 313.0,760.1348586918014C313.0,751.6687568464589 312.7060740107169,749.8960510392781 310.9274198509671,747.6348586918014C308.14374313820866,744.0959872106674 302.89558626750636,744.0135046415845 299.45454545454544,747.4545454545455C297.17427670368846,749.7348142054024 297.0,750.6223344556678 297.0,759.9545454545455C297.0,768.2171717171717 296.7337858220211,770.0 295.5,770.0C294.23809523809524,770.0 294.0,767.7777777777778 294.0,756.0zM404.0,757.5733241632106L404.0,745.0L401.5,745.0C399.94444444444446,745.0 399.0,744.4333333333333 399.0,743.5C399.0,742.5666666666667 399.94444444444446,742.0 401.5,742.0C403.69925569811335,742.0 404.0,741.5710494302726 404.0,738.4342585459107C404.0,732.1314344258016 407.83299149665083,728.3590479022384 412.8926784941241,729.6821857748322C416.1240175723512,730.5271999260494 415.5026813315841,733.0 412.05901699437493,733.0C408.65325972339633,733.0 408.4150266431772,733.2707965329133 407.4919239379402,738.1913569855091C406.80335220835303,741.8617598585159 406.8081494571947,741.8679743240679 410.5738397565594,742.1837410208168C415.69142237195103,742.6128687581866 416.22454362597074,744.7812048600017 411.31197990604795,745.1859397181438L407.5,745.5L407.3442753032133,757.5C407.21321311336885,767.5995302003192 406.93606126758203,769.5512056506407 405.5942753032133,769.8233241632106C404.20263032842416,770.1055542435819 404.0,768.5485950921772 404.0,757.5733241632106zM453.22178044573616,756.25C453.45226387583796,744.8591861074067 453.75568076225034,742.5 454.9901793758045,742.5C455.8630318071781,742.5 456.6970438136565,743.7427905414356 457.0034196894495,745.5C457.51760048235934,748.4490682005378 457.5517217426882,748.4644954314741 459.0132403136451,746.40869934496C461.78330407588305,742.512282046564 468.0,740.4869758557153 468.0,743.4809479717851C468.0,744.295469356267 466.9243104687331,745.2318768298802 465.60957881940686,745.5618534687035C464.29484717008063,745.8918301075269 461.9323471700806,747.5043919852919 460.35957881940686,749.1453243081814C457.72351024147815,751.895640419911 457.47268255686527,752.8272600250448 457.15050200262937,761.064418811263C456.836109813468,769.1024532277431 456.60727090929026,770.0 454.87228244836547,770.0C453.04734471202926,770.0 452.9585317866707,769.2601173935352 453.22178044573616,756.25zM548.0,756.0C548.0,744.2222222222222 548.2380952380952,742.0 549.5,742.0C550.325,742.0 551.0,742.675 551.0,743.5C551.0,745.3663701320621 551.9430429239961,745.3576544055474 554.441129635105,743.4681966281296C557.3244439067496,741.2873673754568 563.5969097923858,741.5969097923858 566.0406247309838,744.0406247309838L568.0812494619676,746.0812494619676L570.6754834227851,744.0406247309838C574.3190327135645,741.1746084411577 580.1201915337527,741.3397507762587 583.6942362986737,744.4112312454178C586.4239352521428,746.7570935873097 586.5091104553387,747.1366360518081 586.8360529760757,758.4112312454178C587.1605090585934,769.6000817511477 587.1001180929687,770.0 585.0860529760757,770.0C583.0995499198316,770.0 583.0,769.4824579571342 583.0,759.1549875621121C583.0,749.9185075515371 582.7287611528122,748.0645073411577 581.171259328416,746.6549875621121C578.5209029343008,744.2564479902737 574.3057949067601,744.6032960023308 571.4545454545455,747.4545454545455C569.1742767036885,749.7348142054024 569.0,750.6223344556678 569.0,759.9545454545455C569.0,769.3333333333334 568.867269984917,770.0 567.0,770.0C565.1220043572985,770.0 565.0,769.3333333333334 565.0,759.0714285714286C565.0,747.219246951545 564.1342123351943,745.0 559.5103588968072,745.0C552.9628931327521,745.0 551.0,748.6789063039781 551.0,760.9503400731157C551.0,768.3278155636796 550.7228319434381,770.0 549.5,770.0C548.2380952380952,770.0 548.0,767.7777777777778 548.0,756.0zM629.0389551474195,767.8114385533679C627.2603370854438,765.9023161660264 627.0,764.3062959827645 627.0,755.3114385533679L627.0,745.0L624.5,745.0C622.9444444444445,745.0 622.0,744.4333333333333 622.0,743.5C622.0,742.5765640928312 622.9377371931415,742.0 624.439634738274,742.0C626.536925500417,742.0 626.9228217657842,741.4737778199539 627.189634738274,738.25C627.589115651153,733.4232567782716 629.4072105393241,733.3836840705161 629.8069689753468,738.1930310246532C630.0939760101293,741.64590727232 630.3490659978905,741.9060239898707 633.7296693717415,742.1930310246532C638.725670789204,742.6171823946975 639.1479383434317,744.7875161935393 634.311979906048,745.1859397181438L630.5,745.5L630.2122152436275,753.5855188982193C629.8594206148694,763.4975367339462 630.9113913798719,766.7409659664444 634.6209721285226,767.1785686626882C638.8504401622687,767.6775001432653 638.8515237356401,770.0 634.6222884807528,770.0C632.2638796023551,770.0 630.3956641863815,769.2676947641665 629.0389551474195,767.8114385533679zM643.0,750.0C643.0,731.3477419758386 643.1298073499166,729.8789835439619 644.75,730.1989081709496C646.2233931115514,730.4898456354514 646.5,731.6869762796312 646.5,737.7727565268796C646.5,741.7483170490871 646.725,744.9865009813733 647.0,744.9687208208488C647.275,744.9509406603245 648.3735083357972,744.2757047736008 649.441129635105,743.4681966281296C651.7149510325361,741.748364604393 658.2565778561365,741.5317650259279 661.1503995541814,743.0804913986817C664.5358155104137,744.8923110341833 666.0,750.1418871577235 666.0,760.4678813691036C666.0,769.3333333333334 665.8601220374019,770.0 664.0,770.0C662.1269841269841,770.0 662.0,769.3333333333334 662.0,759.5C662.0,750.3333333333334 661.7460317460317,748.7460317460317 660.0,747.0C657.2902577112241,744.2902577112241 652.7315367893677,744.466621327153 649.3057637013263,747.4137288102437C646.5919329088096,749.748370022876 646.4986374772667,750.1495639415779 646.4584162311736,759.6580420693615C646.4226460140097,768.1142775311315 646.1779900894368,769.5346233564844 644.7084162311736,769.8176374223283C643.1428400754726,770.1191398413608 643.0,768.4621942016264 643.0,750.0zM673.2217804457362,756.25C673.4530952672468,744.8180975796728 673.7528833723279,742.5 675.0,742.5C676.2471166276721,742.5 676.5469047327532,744.8180975796728 676.7782195542638,756.25C677.0473199380149,769.5493178224531 676.9890354390423,770.0 675.0,770.0C673.0109645609577,770.0 672.9526800619851,769.5493178224531 673.2217804457362,756.25zM685.0,756.5590169943749C685.0,743.0811933936866 685.865108497764,739.7274581921213 688.4351298552317,743.242171827306C689.4125756537353,744.578908607984 689.826909936334,744.5997349058107 691.4745555941928,743.3949469857237C692.5237926160022,742.6277261435757 695.1258345887528,742.0 697.2568710891942,742.0C705.7411249552327,742.0 708.0,745.77427987441 708.0,759.9503400731157C708.0,769.3333333333334 707.8673255271289,770.0 706.0,770.0C704.1218401959989,770.0 704.0,769.3333333333334 704.0,759.0567039686491C704.0,748.881830035684 703.843938891323,748.0040984818354 701.7774937565946,746.5567039686491C698.4945717904973,744.2572559160045 694.2857735167131,744.6233173923778 691.4545454545455,747.4545454545455C689.1742767036885,749.7348142054024 689.0,750.6223344556678 689.0,759.9545454545455C689.0,769.3333333333334 688.867269984917,770.0 687.0,770.0C685.0991990937549,770.0 685.0,769.3333333333334 685.0,756.5590169943749zM805.2217804457362,756.25C805.452263875838,744.8591861074066 805.7556807622503,742.5 806.9901793758045,742.5C807.8453281739988,742.5 808.7372071978521,743.7784311498084 809.0830860387568,745.5C809.5812250224803,747.9794247465422 809.8208635053785,748.1899132489151 810.4640880051763,746.7130148387271C811.3153119774806,744.7585318676878 815.9896725697228,742.0 818.4503400731157,742.0C821.3606220100496,742.0 820.006840348806,744.6120862557123 816.2338055407374,746.2767453224462C810.6363713708727,748.746327506365 809.0,752.2814612514998 809.0,761.9042920566365C809.0,769.370879773039 808.8423863663028,770.0 806.9717804457362,770.0C805.0190028582329,770.0 804.9539095888413,769.488552883352 805.2217804457362,756.25zM900.3318709493765,768.4224585399991C899.9989232475061,767.5548107369985 900.4905495251749,766.0923107369986 901.4243737886402,765.1724585399991C903.0121463054326,763.6084425949787 903.2144347627881,763.6243606480467 904.5441724075677,765.4179550978683C905.5979074963712,766.8392681021893 905.6798468777132,767.6808346257344 904.8606096492005,768.6679550978683C903.3628336320772,770.472664793322 901.0709332785808,770.3484240973894 900.3318709493765,768.4224585399991zM185.0,765.0969517085286C186.81904643531763,763.7779300150361 187.5,762.3602194924576 187.5,759.8920794672047L187.5,756.5L181.7984579828958,756.2015420171042C177.08637113093775,755.9548789331795 175.73091050847057,756.2690894915294 173.98788104747194,758.012118952528C171.19148025344813,760.8085197465518 171.68167385985544,765.0338263415025 175.0,766.7362492330809C177.91666745268284,768.2326065014332 181.48159243689526,767.6482092312499 185.0,765.0969517085286zM370.40142609732743,766.6056334735358C374.9183680811971,764.7183346077285 377.0,761.4286012791787 377.0,756.1774937565946C377.0,750.3028810297316 372.0734661292923,745.0 366.6157765424592,745.0C355.5543099093714,745.0 352.1372663420994,762.1098724871696 362.3147146335077,766.5363425642049C366.3285652242939,768.282083640463 366.3878993003667,768.2825920439227 370.40142609732743,766.6056334735358zM439.06035518099475,765.5C443.73229779520693,762.5058467000866 445.21831025170997,756.2566323856219 442.50571126404543,751.0110443668177C440.41252511831914,746.9632687033007 437.20252854133065,745.0 432.6774937565946,745.0C427.17576378761385,745.0 421.998413341551,750.1658276449424 422.00373806043757,755.65C422.0086154047565,760.6734007559483 425.1463560361751,765.771464963448 428.7189807976019,766.5606336897999C430.2485413589209,766.8985033068633 431.95,767.2886321514769 432.5,767.4275866778303C433.7774132098172,767.7503182187899 437.04896455064335,766.7890594749518 439.06035518099475,765.5zM530.6587105451589,767.0C531.4810351299369,767.0 533.4692307692308,765.6846153846154 535.0769230769231,764.0769230769231C537.474358974359,761.6794871794872 538.0,760.3128205128205 538.0,756.4769230769231C538.0,752.4914027149321 537.4973684210527,751.2973684210526 534.6,748.4C531.876630124285,745.676630124285 530.4109017481842,745.0 527.2348586918013,745.0C517.3231888527945,745.0 512.4957583435815,757.2230310708543 519.6011758618885,764.3284485891612C522.148217905721,766.8754906329938 525.3109141568314,768.040237221573 527.8317874682358,767.3595891190329C528.5642705757655,767.1618151035648 529.8363859603809,767.0 530.6587105451589,767.0zM868.0,765.1027239097002C871.3327950529906,762.6937522192312 872.9606209170553,758.2194378581407 870.9637484224154,756.9564335589864C868.8408865394484,755.6137420792373 860.9134036123532,755.8203359098808 858.0,757.2942747717289C856.0627459675823,758.274363487053 855.5,759.3336146457569 855.5,762.0C855.5,767.895146141048 861.9289521812683,769.4909272328193 868.0,765.1027239097002zM733.4652037716938,763.8964078053115C736.5882182830265,761.1543647467457 737.0,760.2344824808445 737.0,756.0C737.0,751.7655175191555 736.5882182830265,750.8456352532543 733.4652037716938,748.1035921946885C726.1221580164608,741.6563126291271 717.068960864167,746.1839280851678 717.0222358455887,756.3269230769231C717.0037268829409,760.3448201511798 717.4899280972322,761.6437742510784 719.9230769230769,764.0769230769231C723.9775352142398,768.131381368086 728.7137400532529,768.0682482049957 733.4652037716938,763.8964078053115zM901.0,744.5C901.0,730.3331884608108 901.0493628426356,730.0 903.1482173076282,730.0C905.2241439193027,730.0 905.2748228410138,730.2776247260927 904.6542110640214,738.25C904.300988110842,742.7875 904.0092903224094,749.3125 904.0059937563931,752.75C904.0013078616228,757.6362249971586 903.6726939993181,759.0 902.5,759.0C901.235632183908,759.0 901.0,756.7222222222222 901.0,744.5zM345.0,752.5888936419932C345.0,749.1313581599428 339.7445990414294,745.0 335.3463516411334,745.0C331.29959225135116,745.0 326.0,749.4925633745261 326.0,752.9230769230769C326.0,754.8798920377868 326.54938271604937,755.0 335.5,755.0C344.8732667112334,755.0 345.0,754.967835006493 345.0,752.5888936419932zM615.5757270507238,752.2697952809824C614.123678946857,746.092041381272 607.2065879913979,743.2904486128222 601.1450253375721,746.4250044832966C598.3714638067323,747.8592688925127 595.5385324093442,752.4443127592374 596.4823534932691,753.9714473523267C596.7616225266405,754.423314140327 601.3183587615093,754.8485009575866 606.6084340151997,754.916306946237L616.2267526582733,755.0395905619649L615.5757270507238,752.2697952809824zM844.0,752.9230769230769C844.0,749.4925633745261 838.7004077486489,745.0 834.6536483588666,745.0C830.2554009585706,745.0 825.0,749.1313581599428 825.0,752.5888936419932C825.0,754.967835006493 825.1267332887667,755.0 834.5,755.0C843.4506172839507,755.0 844.0,754.8798920377868 844.0,752.9230769230769zM672.3318709493765,733.4224585399991C671.9989232475061,732.5548107369985 672.4630464058586,731.10838216557 673.3632557457152,730.2081728257133C674.8789147514283,728.6925138200003 675.1210852485717,728.6925138200003 676.6367442542848,730.2081728257133C678.6812259966388,732.2526545680673 677.7428153055392,735.0 675.0,735.0C673.8654767240274,735.0 672.6648186512468,734.2901063429996 672.3318709493765,733.4224585399991zM288.0,640.4073468761076C275.98659375946943,637.2160818340326 256.36598124149606,625.1400905272795 257.1957648015996,621.4481183542508C257.4691583726946,620.2317030077694 273.74519719431646,603.0 274.6207570025608,603.0C274.8198222552468,603.0 277.1240877148603,604.6441061414982 279.7413469128131,606.6535692033295C293.5185392619501,617.2313366414915 308.7405152064987,618.8260282127347 317.45754521023315,610.6048107335578C320.54797013628445,607.6901648726106 321.0,606.6577837715768 321.0,602.5142758601291C321.0,598.3446637399203 320.5420970790926,597.3167990824139 317.25,594.0965692029822C313.55366423856634,590.4809252601065 308.23601742600505,588.272622750168 291.5,583.4031569408905C281.6242003442097,580.5297213116698 275.40766180592044,577.416959809609 270.48752312432237,572.881734339117C264.6567230652076,567.5070905226028 262.3558917265156,563.0402634975834 260.91070577851985,554.2893300135463C258.1389481042152,537.5056994535136 266.93518331780353,521.1368610715122 282.6872261965858,513.765590642068C298.88330282294,506.1865317461791 327.17105696622434,510.625202078411 342.335598730773,523.1250986536387L346.0319083389096,526.1719093340472L338.29323013900296,534.8359546670235C334.0369571290543,539.6011796001607 330.486279714593,543.6309980382068 330.4028358846445,543.7911067515706C330.319392054696,543.9512154649344 326.89920057164653,542.3168879297478 322.8024103667568,540.1592677844892C314.06281916592144,535.556464835551 307.11926832287855,534.2921138460124 299.98299119257996,536.0040803500262C292.79849984820254,537.727613265772 289.0,541.592389610464 289.0,547.1787035569037C289.0,555.1589517926975 292.98382004767467,558.2441368744265 309.5,563.0544944858545C331.22012224141673,569.3805066537246 341.5720534586973,575.9285980657908 345.9532226377373,586.112900602178C348.9498135797311,593.0786641880868 349.55930848828405,601.2681942877214 347.6389942333466,608.7639138093723C342.04983701805554,630.580527803939 326.3702495434848,642.1081598021609 302.5216423147723,641.9341888880431C297.55973904164756,641.8979927764668 291.025,641.2109138710957 288.0,640.4073468761076zM414.0,640.5103315319413C403.228631976995,638.0718853554384 393.52515669475537,632.6327776063088 385.5463260086421,624.5611386710221C373.7961652791412,612.6743022947113 367.9374981003938,600.461492756213 365.77610977857586,583.3487130482457C363.6982774384724,566.8974873488429 367.6378904682378,550.6894483601382 377.1834116319935,536.4177094701788C388.54615755653504,519.4289940165119 407.04850318043907,510.0 429.02240849138,510.0C452.2896015103915,510.0 471.69234406933447,520.4674441048023 483.4248311157624,539.3491662973227C496.34334599853725,560.1396268528069 497.41566211919724,585.3421775802027 486.3457813192712,608.0C479.2502552207158,622.5231166641993 463.43266528888626,635.2824852466042 447.2494386584194,639.5373358636634C438.6794019019484,641.7905469824424 421.83279889836695,642.2835379142917 414.0,640.5103315319413zM559.5122167541523,640.3858660581172C534.612878551821,634.3666109398232 516.7281227989016,612.940887275507 512.9586893519953,584.61529655761C510.89494065321054,569.1071567244612 515.0807578944842,550.2165883306237 523.3293633955409,537.8125060826533C528.4589958759177,530.0986709161751 538.7981600087,520.6354772608619 546.1525192964984,516.9230085040858C563.8368896144345,507.99596677014137 587.298336715336,507.6917051449391 604.7868586307602,516.1626044547628C609.531376985008,518.4607024556577 613.8669518335163,521.7728099416792 619.5714703381849,527.4571212893482C628.587990668416,536.4417023346504 632.5487537457808,542.7255145911844 636.6169247741336,554.5C639.0956020507908,561.674022238436 639.3838349413462,563.8938374726393 639.4086017801542,576.0C639.433641179223,588.2393914323801 639.175537770793,590.2470272993303 636.6445431315735,597.5C632.6406321084366,608.9738517801359 628.6057029994971,615.5211508814315 620.5652199719357,623.5911989356382C612.3233029941716,631.8634216169552 600.7984226146096,638.1366550667574 589.5,640.5006479394651C580.7426625483181,642.3329641862396 567.3546332205746,642.2817198784766 559.5122167541523,640.3858660581172zM664.0,576.0282195542638L664.0,512.0L676.87811447543,512.0L689.7562289508601,512.0L715.5598144114588,549.5C729.7517864147882,570.125 741.7316349008446,587.0 742.1816999360287,587.0C742.631764971213,587.0 743.0,570.125 743.0,549.5L743.0,512.0L756.4146729207948,512.0L769.8293458415897,512.0L770.2425094336801,518.75C770.4697494093298,522.4625 770.745673665619,551.2625 770.8556744476562,582.75L771.0556758695418,640.0L757.7778379347709,639.9721533721688L744.5,639.9443067443377L729.8812069561326,618.7221533721688C721.8408707820055,607.049969017476 710.1408707820055,589.937846269176 703.8812069561326,580.6952139315022L692.5,563.8904278630044L692.0,601.6952139315022L691.5,639.5L677.75,639.7782195542638L664.0,640.0564391085277L664.0,576.0282195542638zM443.6105956300796,612.5779983936783C450.7327510224478,609.3173677936155 457.4803532642074,602.3175054346735 461.3256040437735,594.2007117457001C464.0804052152111,588.3857066798345 464.5452934351053,586.2156569808897 464.84266226000466,577.7834510006533C465.1195194376089,569.9328743658764 464.7826053360922,566.8602240004919 463.0882727319945,561.7834510006533C454.1817537151971,535.0966156309796 422.5012391874737,527.4470744069408 404.13051233970407,547.5475768262245C396.6968015382143,555.6812409532778 394.5569014505283,561.9291857980205 394.5569014505283,575.5C394.5569014505283,584.6292682437368 394.94671913983547,587.4773143414292 396.8490497331576,592.2466591454C401.03425109924507,602.7394033923732 411.856547591024,612.2366715641571 422.7459228692234,614.9728475445735C428.3386124632352,616.3781240220676 437.64267503527464,615.3102028231152 443.6105956300796,612.5779983936783zM588.4429147714268,613.1282763356098C599.7684225391603,608.1184657564852 607.7275050096022,598.1064347596352 610.5811790198636,585.2797160656348C614.7100575419607,566.7211970707532 605.9605896708973,547.0391253564846 590.1245379838332,539.2621659885849C585.3070571927561,536.8963393855782 583.2803467310301,536.5026902067297 576.0,536.5187485720601C568.2492615193975,536.5358444872276 566.9423719950616,536.8381794228264 561.1739870936017,539.9485883356951C545.2591049502869,548.5301570263166 537.7196768611593,567.4934660865289 542.4875293917331,586.9491125733524C547.955659438244,609.2623037735192 569.4726018787441,621.519747708737 588.4429147714268,613.1282763356098zM318.86997612435505,458.9696599367725C305.0600276662118,456.8411162912824 293.9620902560779,450.8974703755643 284.05052219597644,440.32164477136314C271.6802264751642,427.12231148500433 265.88052205165127,412.03970909570734 265.85395734433393,393.0C265.8259747644578,372.9440598301023 271.8715097857008,357.97631833022865 285.44331546711845,344.5C298.32269545457336,331.7112356541795 311.05674514649814,326.6212646331371 330.0,326.6900936031441C350.63265482793906,326.7650608878742 366.8271115192237,334.14128312516425 379.7008225587658,349.3277355789239C392.3618443232143,364.26328947253177 397.9458872680424,389.15426601438884 393.13857573925236,409.22677333624443C387.20491653648895,434.00224650447535 370.17429355657913,451.5703963770123 346.433735043443,457.4057296835762C338.6117677041948,459.32833763369314 325.88283425927114,460.0505600331806 318.86997612435505,458.9696599367725zM183.03161925326282,456.93464737073305C173.59490014824152,454.4641049614422 166.250077078704,450.1312442501015 158.55300397022137,442.4942136906071C147.40728839975264,431.435442490254 141.05064359957964,419.32299868433876 139.0189213850857,405.272458338456C135.48466296013345,380.83100653056874 141.58173700899758,360.2475748761782 156.90561236248521,344.88784133924173C165.11125508672552,336.66299724228503 170.39624767898775,333.49852014811233 182.0252230017927,329.8470572520497C188.32132059265183,327.87010175039626 191.54993838601487,327.5084590378004 202.5,327.5536442910455C217.25693379105022,327.6145385411398 223.83795246218452,329.3135643792906 233.88656951889504,335.6567352027032C240.67177089252087,339.9398809471636 249.0,347.83592440541156 249.0,349.98586836437914C249.0,351.5704010113027 234.1498339381396,367.0 232.62480577930728,367.0C232.1677850299733,367.0 229.60375807436102,365.03091098839286 226.92696810016895,362.624246640873C214.34346669264588,351.31059689754846 198.13837852776538,349.94032163383446 184.114905196862,359.00412991036944C173.73570769437458,365.7125290356791 168.38807847461948,375.12831789485153 167.30469888968474,388.6025457247624C165.83920714385118,406.8291857139257 174.73478872045914,424.15533466104 189.0,430.85903174005364C193.4945445902753,432.97116768048227 195.9624805959632,433.44101752524574 202.5,433.42918464907916C212.01739841976197,433.41195820737096 216.00283711016866,432.2224420914135 226.08788962343752,426.3890124050439C230.26122891632815,423.97505558226976 234.08622891632817,422.0170781017761 234.58788962343752,422.0379513372803C235.08955033054687,422.05882457278443 236.75268426708865,423.8861587693204 238.2837428157526,426.0986939962491C247.4875918293534,439.3991913441103 249.14503382745139,442.17966461311335 248.64554028363804,443.4813239231729C247.86570975665873,445.5135297009729 226.74849621920714,455.5843323369771 219.35565547885193,457.4496748411178C210.51145655467852,459.6812202981006 192.5499248273358,459.42654919843756 183.03161925326282,456.93464737073305zM816.5068277184864,457.38464214295163C813.2105829636539,456.5878395077218 806.7570071638451,454.11758784466997 802.1655481633554,451.8951940028363C792.5819885110682,447.2564846183427 783.6282112139929,438.98971026493456 778.1347352253724,429.7082106218493C773.4029799167336,421.7136757773768 769.0748992261273,408.49156212529 767.8314812177912,398.2321811267815C763.9098319119357,365.87484505671085 787.0764840064455,334.7780058500206 819.8379682090717,328.42333015103156C840.004143226543,324.51173989667996 860.9472227314303,329.67767511490433 874.0419123098455,341.7935732297301L879.1285511207823,346.5L869.0368094050302,354.3528607896721L858.9450676892783,362.2057215793442L853.7225338446392,358.6967715931082C846.4449669838384,353.80707266616866 842.1594948822802,352.6883010800366 832.6249086198086,353.18899483548523C825.820816152241,353.5463010170251 823.4860896602567,354.1561155647387 818.2630011223617,356.9402265771597C800.9845400995473,366.15032387156475 792.1178737128141,386.769253134734 797.7662844529651,404.60417745793916C801.8119178020336,417.37831304039184 812.4681690911087,428.6697407326964 824.1352933660766,432.5449372413898C831.0866513243573,434.8538076584474 840.8640851983808,434.12446818628746 848.242076610891,430.74671198169676C857.1318038639486,426.6768602148297 858.0,425.3647943324246 858.0,416.0L858.0,408.0L847.0,408.0L836.0,408.0L836.0,397.0L836.0,386.0L860.5,386.0L885.0,386.0L885.0,409.3499615002231L885.0,432.69992300044623L882.0678487188018,436.74764023895045C871.2232929322789,451.7181145396799 854.997947875423,459.04371232201004 833.0,458.90133388913745C827.225,458.8639560639651 819.8030724733189,458.18144477818146 816.5068277184864,457.38464214295163zM419.0,393.0L419.0,329.0L433.7920091745632,329.0L448.5840183491264,329.0L466.2304133209111,360.2294680487827C475.93593055539276,377.4056754756131 484.2800904479147,391.5933634826382 484.77299085984873,391.75766361994954C485.26589127178283,391.9219637572609 493.73110940592625,377.87400348007424 503.5845867135008,360.53997411509033L521.5,329.02355708784677L536.25,329.01177854392336L551.0,329.0L551.0,393.0L551.0,457.0L537.0,457.0L523.0,457.0L522.9681966281298,419.25C522.9407712563832,386.69660321999675 522.7439026765959,381.75405800980445 521.538072261818,383.3455690119294C520.7689957148751,384.36063196849057 514.4375553830314,394.6138755113584 507.4682048577207,406.1305546627468L494.79665844806493,427.0699713016349L485.22925526762623,426.7849856508175L475.6618520871875,426.5L467.08092604359376,412.42662385010715C462.3614167196172,404.68626696766614 456.025,394.56126696766614 453.0,389.92662385010715L447.5,381.5L447.237974836748,419.25L446.97594967349596,457.0L432.987974836748,457.0L419.0,457.0L419.0,393.0zM581.0,393.0L581.0,329.0L595.0,329.0L609.0,329.0L609.0,393.0L609.0,457.0L595.0,457.0L581.0,457.0L581.0,393.0zM638.0,393.0L638.0,329.0L651.2828434638648,329.0L664.5656869277295,329.0L684.6045344081672,357.75C695.6259005224078,373.5625 707.0861209636687,390.0306347578649 710.0716909443024,394.3458550174775L715.5,402.191710034955L715.7623497337008,365.5677158655953L716.0246994674017,328.94372169623557L729.7623497337008,329.2218608481178L743.5,329.5L743.7574022466106,393.25L744.0148044932212,457.0L732.0700190064132,457.0L720.1252335196052,457.0L709.3723646420572,441.25C690.426248007201,413.499142029245 668.8519331581283,382.54502862993843 667.4043734528434,381.0357142857142C666.1975104829265,379.7773650892296 666.0,385.0161891884142 666.0,418.2857142857142L666.0,457.0L652.0,457.0L638.0,457.0L638.0,393.0zM345.7740731077833,429.5295482575926C360.4544557074917,421.5308533185723 369.16343912613104,403.2585393217117 366.2901982545907,386.48467577809913C363.867201097351,372.33931675697795 355.77383699483056,360.927215468526 344.21677091681124,355.3598943681567C339.48966317228917,353.08273107150904 337.11507387762714,352.59737088961316 330.5,352.55622030031964C323.7350796882048,352.5141375568003 321.53751600011543,352.950511298383 316.2656880988233,355.3827504149359C291.63180777231196,366.74797106410387 286.6721497031513,402.7720901900061 306.9438935520732,423.0909336276841C314.6224010865979,430.787281489604 320.68455692295646,433.1140950193726 332.0,432.70812082315183C339.1231505538543,432.45255722736766 341.35430642792744,431.9376847713178 345.7740731077833,429.5295482575926zM434.0021864424469,185.16666666666669C432.5049543166031,184.6686781146935 432.65841858162554,149.28052713945814 434.1599808431931,148.7800063856023C434.7979703069493,148.56734323101688 436.5979703069493,148.58091794256384 438.1599808431931,148.81017241126216L441.0,149.22699871798642L441.0,163.57143510504596L441.0,177.9158714921055L448.75,178.20793574605275L456.5,178.5L456.80698362540033,181.66452642931722C457.03479893405165,184.01294994633744 456.64796242129427,184.9731461588025 455.30698362540033,185.3877900592969C453.46660067466553,185.95685466153563 435.8275018034811,185.77377770699616 434.0021864424469,185.16666666666669zM477.0,184.82505067398824C467.20439598378795,182.04149603620502 461.3557412686691,171.8200272305526 463.9806915255187,162.07170619990404C467.4224351317723,149.2900462460086 483.6969044288131,143.92703944787957 494.7483701816384,151.93268004896086C499.7119046790511,155.52824593914116 502.0044651535334,160.35040899930317 501.983549580118,167.15112912253318C501.9597932169565,174.87553494199898 498.94820409432225,179.76647076641868 492.0706850155897,183.25C486.398980497943,186.1227726183347 482.8661360385842,186.4919933300046 477.0,184.82505067398824zM520.5578246634814,184.50787849323075C514.7704839275535,182.44623246586562 511.7759392359666,179.92293963400724 509.25,174.97956756254513C506.5296428842206,169.65571131174306 506.4006880014081,163.90076981863663 508.8807311366459,158.5C511.06552855146526,153.74218439182098 513.2956238173606,151.6100805465207 518.2544797614266,149.5381382385702C524.8287465083242,146.79123420056348 533.1844967576509,147.91442776182757 539.25,152.3603902738385C542.6722018384191,154.8688352410947 542.743565961962,156.70408625746674 539.47678405184,158.1925317053325C537.3687127624062,159.15303326339858 536.3179989152779,158.98497596387537 533.0906295384686,157.1710929141827C528.5595778369046,154.62449941366623 525.0112691991777,154.42569208067167 521.0110443668177,156.49428873595457C511.5647243238352,161.37917067748188 513.4667979573734,174.96232202486848 524.0407839067286,178.1303652727077C527.2916942332513,179.10436169738608 528.6821912549834,179.01118459657758 532.4670882289724,177.56571925404984C536.3428662133738,176.08554613697822 537.0,175.431372935277 537.0,173.0532296109494C537.0,170.48560843817788 536.7118306331807,170.2806399282589 533.25,170.3859373838808C529.8553436234866,170.48919162044902 529.4696201095643,170.23530830410218 529.1793959941759,167.70666477738558L528.8587919883519,164.9133295547712L536.6793959941759,165.20666477738558L544.5,165.5L544.7944394348319,171.62371303889395C545.0722094564281,177.40073779114232 544.913836088364,177.89471486767243 541.9970185343095,180.3490550276024C538.8914857796078,182.9621885598137 530.427986501966,186.03800416234887 526.5684987725722,185.95610717594218C525.4308244476575,185.93196612271038 522.7260210985667,185.28026321549024 520.5578246634814,184.50787849323075zM560.6551887788396,184.54135068513324C556.2613049815352,182.97471573033994 552.4445772669885,179.71969199699558 550.4049859777911,175.7996599268842C548.5727013705178,172.2780649582625 548.599013853805,161.67610184835283 550.4489168990538,158.09878382448176C554.3054233752878,150.6411226448646 562.7362002812629,146.90266803202684 572.262523646846,148.42598857934638C583.8411759015165,150.2774897527718 590.3422004379183,164.04396296945626 585.0945657284597,175.5989307275812C581.2312435114662,184.1057278139226 570.4734295605452,188.04203479804326 560.6551887788396,184.54135068513324zM576.3765064482562,175.06793799618825C577.6650446758869,173.77939976855765 578.4778740768561,171.28260944872105 578.7749156254256,167.70067887708808C579.1789701673948,162.82831228912522 578.9359164170694,161.95985770099963 576.3621160692014,159.0795123983783C570.4276087190841,152.4381929256219 560.5851465866025,154.2824873334035 557.3958924556855,162.6334300742925C554.6921446004781,169.7130927784211 558.1150871367118,176.41979022522895 565.2090441005965,177.94202600710702C569.2683115160735,178.81307190427114 573.796849097349,177.6475953470955 576.3765064482562,175.06793799618825zM491.0769230769231,175.0769230769231C493.5376225476298,172.61622360621638 494.0,171.3532650872985 494.0,167.09269961938224C494.0,160.46622132011208 490.4755287386536,156.1414287064639 484.4127474030865,155.3284160881068C476.2858742830224,154.2386109263013 470.2386109263013,160.28587428302237 471.3284160881068,168.41274740308648C472.14142870646396,174.47552873865362 476.4662213201121,178.0 483.09269961938224,178.0C487.35326508729844,178.0 488.61622360621635,177.53762254762978 491.0769230769231,175.0769230769231zM518.0,130.1180339887499C518.0,129.56803398874987 518.45,128.83991869381242 519.0,128.5C519.55,128.16008130618755 520.0,128.3319660112501 520.0,128.8819660112501C520.0,129.4319660112501 519.55,130.16008130618755 519.0,130.5C518.45,130.83991869381245 518.0,130.6680339887499 518.0,130.1180339887499zM491.5,127.0C491.8399186938125,126.45 492.3164763412812,126.0 492.55901699437493,126.0C492.8015576474687,126.0 493.0,126.45 493.0,127.0C493.0,127.55 492.5234423525313,128.0 491.94098300562507,128.0C491.3585236587188,128.0 491.1600813061875,127.55 491.5,127.0zM535.9577783055245,119.38894852780203C535.3866162420634,117.88667845553509 535.1102583078269,115.94710000721588 535.3436495627768,115.0787741982038C535.6182383120723,114.05717423324904 535.8089359992008,114.26885210479976 535.8839986495248,115.67857142857143C535.9477993922861,116.87678571428572 536.6784518494129,118.53559470655577 537.5076707764731,119.364813633616C538.4446325987407,120.3017754558836 538.6331921752352,121.10866571429416 538.0057981687455,121.49641653464279C537.450549307435,121.83957920314731 536.5289403689856,120.89121860006897 535.9577783055245,119.38894852780203zM482.0,120.73861311992846C482.0,119.69327699300048 486.980274268285,114.6469409349516 487.4994986567081,115.16616532337477C487.76330029222584,115.4299669588925 486.6338319453601,116.93468965417149 484.98956899700653,118.50999353510588C483.34530604865296,120.08529741604025 482.0,121.08817622921042 482.0,120.73861311992846zM501.8125,119.31688596491227C502.534375,119.0280153508772 503.396875,119.06354166666667 503.72916666666663,119.39583333333334C504.0614583333333,119.728125 503.4708333333333,119.96447368421053 502.41666666666663,119.92105263157895C501.2517236807213,119.87306870996106 501.01476730310264,119.63611233234239 501.8125,119.31688596491227zM491.55729807456544,111.58176104300361C492.6240546141918,110.8017296166556 493.70953079408264,110.3761974607493 493.96946736321183,110.63613402987849C494.51982609659615,111.18649276326282 491.94112714941156,112.96219703319012 490.55887036489514,112.98468722548293C490.0412490655874,112.99310925146732 490.49054153493904,112.36179246935163 491.55729807456544,111.58176104300361zM525.5829492190055,110.13421465569132C525.1521780872087,109.43721232307162 525.0697899590155,108.59687670765119 525.3998644896874,108.26680217697927C526.294825482819,107.37184118384769 527.2706318178107,108.68810454656811 526.7872513959849,110.1382458120454C526.4485263781536,111.15442086553918 526.2129840557058,111.15363243556875 525.5829492190055,110.13421465569132zM537.078947368421,109.41666666666666C537.1269312900389,108.25172368072126 537.3638876676575,108.0147673031026 537.6831140350878,108.8125C537.9719846491229,109.534375 537.9364583333333,110.396875 537.6041666666667,110.72916666666666C537.271875,111.06145833333333 537.0355263157894,110.47083333333333 537.078947368421,109.41666666666666zM494.08559803712745,108.5C494.1897282116811,106.60577657724231 495.85635656049453,103.41615130428116 495.91440196287255,105.0C495.94463683132386,105.825 495.5331559480312,107.175 495.0,108.0C494.4668440519688,108.825 494.05536316867614,109.05 494.08559803712745,108.5zM491.20944527958545,95.82235633681972C490.00632507197844,92.97465232207055 489.2156528641418,90.45101380252488 489.45239592883735,90.21427073782931C489.8757229111779,89.79094375548874 492.10177504529406,94.59458326704437 493.4482990973885,98.83710488022174C494.7028585225303,102.78987161164491 493.4276809730203,101.07276992800904 491.20944527958545,95.82235633681972zM520.2860141450129,92.5C520.2935216655535,89.75 520.4877268525671,88.74368738486518 520.7175812272653,90.26374974414486C520.9474356019635,91.78381210342454 520.9412930851577,94.03381210342454 520.7039311899189,95.26374974414486C520.4665692946801,96.49368738486518 520.2785066244724,95.25 520.2860141450129,92.5zM532.0783159698669,89.14633472825878C531.4684580251463,88.0068047349654 531.3833194420528,86.88112954501263 531.8836055546822,86.57193572330813C532.3725633749829,86.26974317129726 533.0309319047592,87.01028182736435 533.346646731963,88.21757718123499C534.1138217840177,91.15125908700446 533.422317778267,91.65762507869317 532.0783159698669,89.14633472825878zM517.9799440228546,83.4758340259209C517.2842240484382,82.6375427401774 516.9676647906388,81.6990018760279 517.2764790055223,81.39018766114424C517.585293220406,81.08137344626057 518.34025122339,81.76724813459617 518.954163456598,82.91435363522334C520.2640091405683,85.36182268337022 519.7777583937443,85.64206782101303 517.9799440228546,83.4758340259209zM486.045836543402,80.08564636477666C485.431535658105,78.93781466107828 485.3469970234302,78.0 485.85782743732767,78.0C486.88558879449704,78.0 488.3044559216012,81.02887741173218 487.604558899144,81.72877443418929C487.3611738366938,81.97215949663952 486.6597487766099,81.23275186540383 486.045836543402,80.08564636477666zM529.564292944946,79.29312806941263C529.0216083070949,77.86792961529756 529.1364718605714,77.75306606182103 530.1240876810253,78.73333333333333C530.8075061231281,79.41166666666666 531.114759035431,80.21857429790235 530.8068719305874,80.52646140274597C530.4989848257437,80.83434850758958 529.9398242822051,80.27934850758957 529.564292944946,79.29312806941263zM512.8302405520465,73.25C512.6085783553149,72.2875 512.7218556807235,69.925 513.0819679418435,68.0C513.6709543172145,64.85154076936138 513.7499395832257,65.02731115404208 513.868358753758,69.75C514.0010416656726,75.04154279101283 513.574228223948,76.48053793007612 512.8302405520465,73.25zM527.0,69.05901699437496C527.0,67.44147634128117 527.3559545543496,65.89804197571148 527.7910101207771,65.62916284866452C528.2260656872045,65.36028372161758 528.4018329773564,66.68372607414885 528.1816040988926,68.57014585428958C527.6909624150233,72.77284707979993 527.0,73.05872251295483 527.0,69.05901699437496zM515.564292944946,59.70687193058737C515.9398242822051,58.72065149241042 516.4989848257437,58.16565149241042 516.8068719305874,58.473538597254034C517.114759035431,58.78142570209765 516.8075061231281,59.58833333333333 516.1240876810253,60.266666666666666C515.1364718605714,61.24693393817898 515.0216083070949,61.13207038470244 515.564292944946,59.70687193058737zM532.0,60.606988804184326C532.0,60.39083264648571 532.6983720044093,59.94598712523187 533.5519377875762,59.61844320139803C534.4418629270829,59.276946883409664 534.843259591517,59.44459431396118 534.4929207932014,60.0114543972137C533.90566285155,60.96165770696884 532.0,61.416901932649345 532.0,60.606988804184326zM484.60129641271334,55.364734859807314C484.74251373189054,50.53093366880947 486.8,48.6554707164404 486.8,53.36054791328345C486.8,55.31884926558934 486.2825,57.351063338223646 485.65,57.87657918580412C484.81828736135475,58.56761186918918 484.5280359721019,57.872404649488836 484.60129641271334,55.364734859807314zM518.5,56.0C518.8399186938125,55.45 519.3164763412811,55.0 519.5590169943749,55.0C519.8015576474687,55.0 520.0,55.45 520.0,56.0C520.0,56.55 519.5234423525313,57.0 518.9409830056251,57.0C518.3585236587188,57.0 518.1600813061875,56.55 518.5,56.0zM537.0,56.0C537.0,55.45 537.4765576474687,55.0 538.0590169943749,55.0C538.6414763412812,55.0 538.8399186938125,55.45 538.5,56.0C538.1600813061875,56.55 537.6835236587189,57.0 537.4409830056251,57.0C537.1984423525313,57.0 537.0,56.55 537.0,56.0zM525.045836543402,48.914353635223335C525.65974877661,47.76724813459617 526.4061738366938,47.07284050336049 526.7045588991441,47.371225565810704C527.5288200354535,48.19548670212016 526.2085086117412,51.0 524.9962010378507,51.0C524.256642044832,51.0 524.2718602742153,50.36054152286261 525.045836543402,48.914353635223335z"/></svg>