<svg version="1.1" xmlns="http://www.w3.org/2000/svg" xmlns:xlink="http://www.w3.org/1999/xlink" width="1024" height="1024" viewBox="0 0 1024 1024"><path stroke="none" fill="black" fill-rule="evenodd" d="M0.0,512.0L0.0,0.0L512.0,0.0L1024.0,0.0L1024.0,512.0L1024.0,1024.0L512.0,1024.0L0.0,1024.0L0.0,512.0zM413.7583736452906,926.0205210000532C419.7978566293982,921.5553381715227 420.1359940196156,919.8477013992302 419.8018891554302,895.5L419.5,873.5L416.25,873.1866415159118C414.1056332367105,872.9798859718277 412.9689646961682,873.3200808138924 412.9087719741916,874.1866415159118C412.85859655999695,874.9089886821604 412.74609655999694,885.1016123486706 412.6587719741916,896.8369163303792C412.5015549122767,917.9648723998737 412.4768799752964,918.1925681920088 410.1392160376902,920.0869163303792C408.8407848584198,921.1391123486707 406.9889712697304,922.0 406.02407472949153,922.0C403.2980828730104,922.0 399.0,918.1005714417524 399.0,915.627419850967C399.0,910.9391727846222 393.51024518951317,909.1188398887058 392.4239730275665,913.4468929175077C391.1978672398791,918.3320874883809 394.63442690203334,924.4781422073258 400.5,927.8903213936296C403.4155584116518,929.5863888643664 410.2363476825537,928.624467379542 413.7583736452906,926.0205210000532zM459.16612319503406,925.4358152609241C466.825607115973,920.0248114566974 467.5,917.4809665437367 467.5,894.0L467.5,873.5L464.0,873.5L460.5,873.5L460.0,894.0C459.4510574880871,916.5066429884292 459.17502244061774,917.5923794932792 453.2882302097694,920.3995950521837C449.0451984851466,922.4229558584086 446.6778536642672,922.4154972314556 442.357078229836,920.3651550398688C436.4837150327299,917.5780617154677 436.0,915.4996044218957 436.0,893.0496599268843L436.0,873.0L432.0,873.0L428.0,873.0L428.009768915704,892.75C428.01898385207085,911.3800095895218 428.15271724821804,912.7835418760704 430.3680342626187,917.5C431.65970729978466,920.25 433.58120035506744,923.2675502416325 434.6380188299138,924.2056672036277C441.0097866056243,929.8617600621081 452.1127932488535,930.4186046453259 459.16612319503406,925.4358152609241zM514.766673872525,928.1653652111635C515.7486906043795,927.5420393944892 515.9734186475206,921.3092774071779 515.766673872525,900.4306779856805L515.5,873.5L512.0,873.5L508.5,873.5L508.7594640737361,891.3364880245787C508.958966275556,905.0509826071961 508.73608331224983,909.0786944374165 507.7950158372533,908.7650052790843C507.1218640666329,908.5406213555443 500.84389122499044,900.5142017444839 493.84396507804786,890.9285172545058C482.64286510004445,875.5897539481616 480.7501097588985,873.462426974151 478.05841331453064,873.1866415159118L475.0,872.8732830318237L475.0,900.4970067776378L475.0,928.120730523452L478.75,927.810365261726L482.5,927.5L482.64661846372064,908.5C482.72725861876694,898.05 483.02570830240074,889.5 483.30983998290685,889.5C483.5939716634129,889.5 489.5367403159584,897.6 496.51599254411906,907.5C512.6845686738641,930.434964728544 512.1480787266484,929.827493670788 514.766673872525,928.1653652111635zM623.7898380672964,927.1064096688248C630.3679613559337,923.749070856509 634.0,917.6097185550027 634.0,909.8478429785437C634.0,899.5804540377844 626.9441032859614,892.5333333333333 616.6639280303993,892.5333333333333L610.8190065663817,892.5333333333333L611.4119328424847,888.8253761026328C612.7617934399898,880.3838116709588 613.1776978014965,880.0 620.9752491529363,880.0L628.0,880.0L628.0,876.5L628.0,873.0L618.5590169943749,873.0C612.5931605550235,873.0 608.8597407512061,873.41792723741 608.4163208224484,874.1353957534292C608.0303785809824,874.7598634178153 606.4676533434905,880.1992506054016 604.9435980724661,886.2229228369546L602.1725884887853,897.1750541670508L606.2499633358835,899.0005493587873C609.2080498507354,900.32492421077 610.9865596963679,900.5754089778567 612.7287687526655,899.9130222752619C617.1783479161226,898.2212952925772 620.0866091631525,898.8866091631525 623.6,902.4C626.224541804583,905.024541804583 627.0,906.6323996178786 627.0,909.4496599268841C627.0,916.359604453747 621.9539674974366,922.0 615.7721661702897,922.0C613.3373081070692,922.0 609.2970404465688,919.6441341465884 607.3712338631515,917.1014459381738C606.3782341097422,915.7903647601918 605.9271894502004,915.8176874375625 603.6212338631515,917.3286075683426C602.1795552384182,918.2732316835938 601.0,919.3856043092417 601.0,919.8005467364488C601.0,921.7768419873722 604.6730442838931,925.4017276069123 608.3825000247589,927.0862520282019C613.668994165731,929.4869353374447 619.111658959748,929.4940560536025 623.7898380672964,927.1064096688248zM557.0,925.0C557.0,923.298757406087 556.4588510807971,921.9739511965694 555.75,921.9398298635867C555.0625,921.9067362885594 549.9851644280047,921.9300904876627 544.4670320622329,921.9917280838162C538.9488996964609,922.0533656799696 533.6613996964609,921.8072972794727 532.7170320622329,921.4449094160451C531.2830446696169,920.8946368224518 531.0,919.4024739225825 531.0,912.3930111958157L531.0,904.0L543.5633584840882,904.0L556.1267169681763,904.0L555.8133584840882,900.75L555.5,897.5L543.25,897.219221127694L531.0,896.9384422553882L531.0,888.469221127694L531.0,880.0L544.0,880.0L557.0,880.0L557.0,876.5L557.0,873.0L540.5,873.0L524.0,873.0L524.0,900.5L524.0,928.0L540.5,928.0L557.0,928.0L557.0,925.0zM593.9510424985206,926.0914779282873C594.5128180070436,925.0417907888452 594.8045712547342,920.8792907888452 594.599383048944,916.8414779282873C594.3941948431539,912.8036650677293 594.1753930275,901.2875 594.1131567919356,891.25L594.0,873.0L589.4503400731157,873.0C584.3457327104218,873.0 580.6192119163973,874.6117155837791 577.15949536598,878.3157749673807C572.3892769622264,883.4228905309726 576.6804540273043,887.1295565421209 582.0917824128165,882.5762239016649C583.7756998959053,881.1593007557492 585.5689241870124,880.0 586.0767252819435,880.0C586.6123734301154,880.0 587.0057327661464,889.1314943755164 587.0136546832924,901.75C587.0211647591033,913.7125 587.2986488728857,924.5125 587.6302860472534,925.75C588.3897793438883,928.5840398098543 592.4982740389729,928.8060006254108 593.9510424985206,926.0914779282873zM354.97655062099295,787.1681859289063C356.9993564486504,785.6579433159031 357.5,784.4206884562054 357.5,780.9319126383357C357.5,777.0755515900448 357.10121779670305,776.3099092921823 354.0,774.2120840693482C350.99383398920315,772.1785568246056 349.7587410774986,771.9362357223794 345.2464000342683,772.4946570061356C340.97057659333575,773.0238082365337 339.87959051776505,772.8497928555781 339.38452437673106,771.5596711722173C339.0499727462381,770.6878435982264 339.2899529050199,769.3555544099314 339.9178136184685,768.5990285315618C340.6131693156294,767.7611761730592 340.81314951806894,765.6836951483291 340.42943544942574,763.2840791881488C339.90932067385836,760.0314600673795 340.2092506960972,758.878536216852 342.1497461734201,756.6712458038608C343.44238577803907,755.2008837030097 345.9326704545455,753.7230575377021 347.6837121212121,753.3871876587325C354.1246375725857,752.1517442692426 358.3619982086824,760.4655016756127 354.384990066516,766.535183294345C352.22230487064314,769.8358581009456 354.30702917793826,769.6964282280155 356.9274198509671,766.3651413081986C359.37034129116404,763.25946995788 359.563330148774,759.6037619631276 357.49383925842517,755.6356930806116C355.6114161873255,752.0263104798014 355.48820513456667,752.3523589730867 359.0,751.65C362.494124747084,750.9511750505832 363.0503824767651,748.9944880568163 359.75,749.01180700596C358.5125,749.0183008592381 353.9,749.903892546787 349.5,750.9797885338464C339.8575506839135,753.3375777439832 338.05592129707645,755.0998075241788 337.86455038621506,762.3607839623098C337.79005309863334,765.1873527830394 337.6185601941824,771.1 337.4834550429907,775.5C337.34834989179905,779.9 337.6697339802729,784.3241211990558 338.1976419062659,785.3313804423462C340.6150262427668,789.9437997632831 349.89782991441814,790.9599984329727 354.97655062099295,787.1681859289063zM341.0,785.0C337.81497075879565,781.8149707587957 338.37085661767054,777.3568713489811 342.25,774.9752365106981C346.2655781831624,772.5098363039322 350.57629516587457,773.1301894280884 353.75,776.6301957567835C356.53284838302227,779.6991600938719 356.5630193604095,781.0145194860212 353.9274198509671,784.3651413081986C351.2469458882787,787.7728117531908 344.12268061957536,788.1226806195754 341.0,785.0zM284.0,774.5C284.0,772.6666666666666 283.46666666666664,772.0 282.0,772.0C279.5345323194318,772.0 279.37283625269816,774.5353304244387 281.75,775.9199012005281C284.0891005501466,777.2823021995099 284.0,777.3385306342303 284.0,774.5zM294.7830543592253,775.1658531011569C295.0818225191823,774.2593456382498 294.49096806375195,773.9388116428503 292.9397102400035,774.1658531011569C291.6840303424296,774.3496338955206 290.4587862727767,775.1003661044795 290.2169456407747,775.8341468988431C289.9181774808177,776.7406543617502 290.50903193624805,777.0611883571497 292.0602897599965,776.8341468988431C293.3159696575704,776.6503661044794 294.5412137272233,775.8996338955205 294.7830543592253,775.1658531011569zM210.25373923439741,774.5C210.40323023780778,773.8929564742293 206.2757179020343,773.388466491817 199.75,773.2161682896261L189.0,772.9323365792523L189.0,766.0011513841134L189.0,759.0699661889745L199.25,758.7849830944872C205.2266779370085,758.6188121507563 209.5,758.0830905304399 209.5,757.5C209.5,756.9169094695601 205.2266779370085,756.3811878492437 199.25,756.2150169055128L189.0,755.9300338110255L189.0,749.4988486158866L189.0,743.0676634207477L199.75,742.7838317103739C214.64603790601086,742.3905323692895 213.40435335410052,740.5 198.25,740.5L186.5,740.5L186.22421430417324,756.9616119083191C186.07253217146854,766.0154984578948 186.17641770376702,774.0173538756189 186.4550710426143,774.7435128365951C187.07482262119728,776.3585595617802 209.85344629289725,776.1254840291779 210.25373923439741,774.5zM256.97976355547206,774.3914202971948C259.1908935999624,773.506701460652 261.0,772.156701460652 261.0,771.3914202971948C261.0,769.6311796182117 260.018797007245,769.6712084191028 257.55887036489514,771.5318033718704C254.74389760788077,773.6609417021406 248.7407093115987,773.3704823045566 245.67204277930415,770.9566688584597C240.75264166415275,767.0870673773181 241.2458177027988,758.0346294180151 246.56594488002446,754.5487482087127C249.57171265584105,752.5792935208437 254.26752226923324,752.5698607519951 258.0496599268842,754.5256801462316C260.4642873188616,755.7743324985674 261.0,755.8034782681267 261.0,754.6861951665396C261.0,752.7074587247465 256.5850788017967,751.0 251.46872352133335,751.0C248.00981926634404,751.0 246.33275500309148,751.6243760041357 243.86197996813428,753.832013208021C241.18828205907025,756.2209619761155 240.6316299739157,757.5116627465213 240.30392855310245,762.082013208021C239.8294112751391,768.6999590654034 241.33118081642672,771.8998247037852 246.0139114896797,774.2484460009207C250.32002331873517,776.4081742994824 251.8882961331029,776.4286216573945 256.97976355547206,774.3914202971948zM435.8808848255318,773.0637485067648C437.47188673191374,772.2122701267458 437.88908148042253,771.4890814804226 437.19162989531014,770.79162989531C436.4941783101977,770.0941783101977 435.43432125128356,770.2828088813138 433.8617643598325,771.3842706032378C430.05027541205976,774.053941381021 424.32122165141936,773.4750678052654 420.9230769230769,770.0769230769231C416.1123048518792,765.2661510057253 416.90709785139927,764.0017819427708 424.75,763.9889943361188C428.4625,763.9829412209842 433.23057612743827,763.6920718581755 435.3457247276406,763.3426179743217C439.01754437905686,762.7359789713338 439.164622816967,762.5669002823804 438.5982070464678,759.6036236382029C437.70235072081203,754.916836538305 432.84768130352995,751.0 427.93456353065665,751.0C425.7159276692229,751.0 422.63370734538853,751.6551770982862 421.08518503324694,752.4559491073028C418.09052011818915,754.0045505201207 415.0,759.3596220969176 415.0,763.0C415.0,765.6581075941175 417.647428893264,771.4625025395084 419.59827825143464,773.0815637043312C422.9924949772806,775.8985133897556 430.59963014287473,775.8901902373616 435.8808848255318,773.0637485067648zM566.7664858828675,774.4531017559132C569.1589011095768,773.4534868482981 570.5921966140411,773.2765898421234 570.8177005853044,773.9531017559132C571.0096319300536,774.5288957901608 571.5791666666667,775.0 572.0833333333333,775.0C572.5875,775.0 573.0,770.6415030496154 573.0,765.3144512213676C573.0,756.7463741906241 572.7491381695122,755.3618722608779 570.8256859732905,753.3144512213676C569.1434415633341,751.5237841045506 567.5740023240947,751.0 563.890785634465,751.0C557.9885443165334,751.0 553.2268182418235,752.6268182418235 554.7298012952253,754.1298012952252C555.4704414560657,754.8704414560657 556.394277137758,754.8593567965047 557.8268992538385,754.0926407079278C563.3869587359528,751.116987176873 571.0,754.1511590005426 571.0,759.3427700226238C571.0,761.5719067989539 570.6807419198346,761.6810403467165 564.4178747497976,761.5927700226238C558.3913899537284,761.5078313273511 557.6316408002094,761.7368529552285 555.4178747497976,764.3057637013263C554.088043637409,765.8489337370559 553.0,767.9079924250366 553.0,768.8814496746168C553.0,770.9801230116534 556.6758594882475,774.6009683916523 559.5,775.2841685612447C562.7782806168566,776.0772317477565 562.9175049202579,776.0613086868826 566.7664858828675,774.4531017559132zM626.013123445264,773.488123445264C628.1013083514983,771.5983420777318 629.0,771.6019154964381 629.0,773.5C629.0,774.325 629.675,775.0 630.5,775.0C631.75,775.0 632.0,773.0 632.0,763.0C632.0,753.0 631.75,751.0 630.5,751.0C629.2786811139194,751.0 629.0,752.658602205663 629.0,759.9274198509671C629.0,768.3807816932343 628.8600854574454,768.9648964971476 626.3651413081986,770.9274198509671C624.915969027708,772.0673389329352 622.2857134306585,773.0 620.5201288703108,773.0C615.373362645349,773.0 614.12546751778,770.6905271647255 613.7921093446487,760.5484902645753C613.5948055069658,754.5457491782431 613.0943064271024,751.5270245325172 612.25,751.2473673007406C610.5293542125702,750.677442659243 610.5588447032326,767.5698375746986 612.2844494457427,770.9802923566543C614.7588597257247,775.8706731976397 621.9324516554764,777.1810806600835 626.013123445264,773.488123445264zM685.6977261811035,773.4624017839251C690.6858261999218,770.1940731243859 687.5188379168409,764.0144310971718 679.8027474997872,761.9597201342305C675.6341927993387,760.8496793519579 672.0,758.5007312818944 672.0,756.9164410093165C672.0,756.4909698827638 672.7071428571428,755.4357142857143 673.5714285714286,754.5714285714286C675.4265519724308,752.7163051704263 679.8789697128278,752.5321020013859 683.4571730832281,754.1624405623127C684.860376602242,754.8017828715847 686.3112000739574,755.022133259376 686.6812252425957,754.6521080907377C688.058432318005,753.2749010153282 683.3476420240642,751.062536505409 678.9725062434054,751.0318033718704C667.754981575734,750.95300588972 666.4970396219157,760.0438886728425 677.2404806629654,763.5487891368782C683.9815818615141,765.7479810558013 685.1686860922396,766.7475275088601 684.8005580590282,769.9144041776624C684.5356520275086,772.1932980813015 683.9861781882084,772.5369486596561 680.1683168607756,772.8114890850804C677.3816780665526,773.0118748336599 674.943110201521,772.5375190740183 673.3315530235526,771.4815862556368C670.7099584353174,769.7638515081183 669.2898665430134,770.0419629356725 670.5199125463148,772.0322191767398C672.8444413837972,775.7933858436155 680.9714436003051,776.5591810693498 685.6977261811035,773.4624017839251zM707.034613804876,770.9321513373361L709.0406477308143,767.0L719.5,767.0L729.9593522691857,767.0L732.0,771.0C733.1223562519478,773.2 734.7440019913811,775.0 735.6036571987404,775.0C736.4633124060998,775.0 737.015460239093,774.6625 736.8306523831699,774.25C731.4713854473919,762.2878591052593 720.401589821909,741.032803392697 719.6596797454068,741.2801067515311C717.9653917803829,741.844869406539 701.8284068995446,774.4950735662113 702.7754850659012,775.4421517325679C703.672100333758,776.3387670004245 704.9863220568174,774.9471348489516 707.034613804876,770.9321513373361zM836.0,773.9409830056251C836.0,773.4234423525313 835.55,773.0 835.0,773.0C834.45,773.0 834.0,773.7015576474687 834.0,774.5590169943749C834.0,775.4164763412812 834.45,775.8399186938125 835.0,775.5C835.55,775.1600813061875 836.0,774.4585236587188 836.0,773.9409830056251zM222.34182407451004,770.49821191597C223.9048273154906,768.0241953621866 225.70482731549058,766.0098929362612 226.34182407451004,766.0219843028026C226.97882083352954,766.0340756693441 228.85,768.0580962663439 230.5,770.519807851691C232.21224645245903,773.0743878086533 234.2799277605753,774.99658134199 235.3169495911651,774.9978235488884C236.79779404295013,774.999597393121 236.43600449435758,774.1213298267502 233.36115274254928,770.25C231.28614220066976,767.6375 229.2359349838093,765.0098199421858 228.80513670508157,764.410710982635C228.34716881544014,763.7738173843574 229.88623282109532,760.9204872447876 232.51093355369738,757.5403912295741C237.52402083586665,751.0845251813411 237.56375091806376,751.0 235.5851686754594,751.0C234.8070114469621,751.0 232.51868554300535,753.25 230.5,756.0C228.48131445699465,758.75 226.48525259780024,761.0 226.06430697956796,761.0C225.64336136133568,761.0 223.90027444097896,758.75 222.19078048988632,756.0C220.48128653879365,753.25 218.61402249403136,751.0 218.04130483485892,751.0C216.30646319557133,751.0 216.83767170060477,752.4196368433018 220.5,757.5707800417508C222.425,760.2783337743456 224.0,762.9773811927919 224.0,763.5686631938539C224.0,764.159945194916 222.6625189876103,766.4113840676423 221.02781997246734,768.5718606888015C218.14381901037012,772.3834593967549 217.2157235315266,775.0018698029711 218.75,774.99821191597C219.1625,774.9972284697536 220.77882083352952,772.9722284697535 222.34182407451004,770.49821191597zM270.0,762.9166666666667C270.0,753.6953712267928 269.7039271144697,750.9316127024906 268.75,751.2482622830971C267.8675063942364,751.5411999991072 267.41716837695293,755.093761810059 267.2182646875465,763.3315956164304C266.9783750643765,773.2669108106583 267.1640355382051,775.0 268.4682646875465,775.0C269.7594022363376,775.0 270.0,773.1020069499278 270.0,762.9166666666667zM303.78498309448725,764.995313097198C303.4041949599772,751.6272707965508 301.5846999494528,751.4535930422352 301.21501690551275,764.75C300.9712248730463,773.518479187431 301.1569545509275,775.0 302.5,775.0C303.84099617746324,775.0 304.02840313947473,773.5408773186399 303.78498309448725,764.995313097198zM314.0,766.4522511005375C314.0,758.4933743921572 314.1822900063082,757.7355615249227 316.64602272683516,755.4522511005375C319.7411122315336,752.5838189562539 324.48553388859233,752.2244394438237 327.17125932841594,754.6549875621121C328.6943868158375,756.0333989937396 329.0,757.871683162744 329.0,765.6549875621121C329.0,773.2949986180124 329.2736756200144,775.0 330.5,775.0C331.7163696168169,775.0 332.0,773.3833711192351 332.0,766.4503400731157C332.0,757.5548771543242 330.544815056915,752.806778767129 327.4551976930371,751.621181342224C324.49058456562915,750.483552543659 319.4734807150318,750.9800600767788 317.0942609193778,752.6465304901568C314.8978131766055,754.1849823744875 314.6786182588035,754.1771070299421 313.7549218088308,752.5265530458202C311.9214230193363,749.2502724755395 311.0312529818028,753.059524483587 311.01531277451704,764.25C311.0026413545107,773.145694566452 311.2587402930532,775.0 312.5,775.0C313.7163434671403,775.0 314.0,773.3835834556153 314.0,766.4522511005375zM382.0,761.5590169943749C382.0,747.8827567180426 382.81694789840344,744.8659440373419 385.4878396522348,748.6791761726089C388.1637986561435,752.4996428207702 407.16816375110545,774.5101408881521 408.0699343377705,774.8333333333333C408.62083701965275,775.0307755513954 409.0,767.9644375572959 409.0,757.5C409.0,743.8123142470988 408.7184683315732,739.9266691414861 407.75,740.2477441200233C406.863506307487,740.5416421588312 406.3545974770052,744.6903248936861 406.0,754.5139433901816L405.5,768.3657318736501L393.5,754.3005068183832C386.9,746.5646330379863 381.1625,740.4339010138837 380.75,740.676657875933C379.5819584446764,741.3640520643294 379.82695169019195,775.0 381.0,775.0C381.6170671197892,775.0 382.0,769.8530056647917 382.0,761.5590169943749zM457.0929460909767,766.3294987019183C458.97948002460924,761.5607229879733 461.03774172901274,757.4874194236625 461.6668609896512,757.2777130034497C462.29598025028963,757.0680065832368 463.3636837890793,758.6072321673736 464.03953552029486,760.6982143015314C467.0758135581487,770.0919952719056 469.2332742513825,774.9990080270317 470.32184898178826,774.9869530877945C470.9698320418047,774.9797772860815 473.4125,770.0572561329839 475.75,764.0480171920221C480.17899634441505,752.6619648702098 480.604094079855,751.0 479.08742467108186,751.0C478.29916803340706,751.0 476.6567658549487,754.7999885075591 472.06397306146334,767.25C471.50601380942857,768.7625 470.70086381294874,769.9951268339786 470.27475084706373,769.9891707421746C469.84863788117866,769.9832146503707 467.9520630894107,765.6991936205671 466.0601401986904,760.4691240092778C464.16821730797017,755.2390543979885 462.1483940603805,751.1172019798732 461.5716440929356,751.3094519690214C460.99489412549076,751.5017019581697 458.97948002460924,755.5607229879733 457.0929460909767,760.3294987019183C455.2064121573441,765.0982744158632 453.3226465713939,769.0 452.9068003444206,769.0C452.4909541174473,769.0 450.7019663992024,765.161485108717 448.93127208165413,760.4699669082601C445.92431420260766,752.5029239930903 444.51545763145447,750.151209035212 443.4111273694791,751.2555392971875C443.03365064524445,751.6330160214222 445.5912619878823,758.814181370713 451.0664971908726,772.75C451.5526978041226,773.9875 452.33578517558044,775.0 452.80669134966774,775.0C453.2775975237551,775.0 455.2064121573441,771.0982744158632 457.0929460909767,766.3294987019183zM502.0,767.0L502.0,759.0L512.0,759.0C520.2222222222222,759.0 522.0,758.7333333333333 522.0,757.5C522.0,756.2666666666667 520.2222222222222,756.0 512.0,756.0L502.0,756.0L502.0,749.5349830944872L502.0,743.0699661889745L512.25,742.7849830944872C526.3480624959363,742.3930114382564 525.1118829667175,740.5760292243577 510.5037392343974,740.2182646875465L499.0,739.936529375093L499.0,757.4682646875465C499.0,772.3853627430607 499.22370608587863,775.0 500.5,775.0C501.7083333333333,775.0 502.0,773.4444444444445 502.0,767.0zM545.1645617425395,773.4149018156552C547.2080563350535,772.3581696927588 547.8964702979771,771.4964702979771 547.2298036313105,770.8298036313105C546.5631369646438,770.1631369646439 545.2080563350535,770.3581696927588 543.1645617425395,771.4149018156552C538.5652674642281,773.7932893212304 533.7654103829753,773.4386998105011 530.5784242293228,770.4851007263238C528.8942570120741,768.924267227011 527.9852888867111,767.1605704322219 528.1824015024877,765.8360294490737C528.4801442859778,763.8352822233537 529.1051186535982,763.6947723421672 538.1790664382081,763.5885289512087C543.5025529792225,763.5261982793484 548.159902103006,763.1734312303274 548.5287311577267,762.8046021756065C548.8975602124476,762.4357731208856 548.6580878537151,760.4940257825314 547.9965703605434,758.4896080903748C545.5221315364437,750.9919848099925 534.9269289056217,748.4129820438609 528.8619799681343,753.832013208021C526.1809752688526,756.2274905923178 525.6202356220325,757.5343165620842 525.2241981418724,762.3100079242182C524.7770750449595,767.7017246649515 524.9146016866364,768.1146016866363 528.2779947161973,771.4779947161973C531.3954288499663,774.5954288499663 532.3915391008875,775.0 536.9496599268841,775.0C539.7819728866705,775.0 543.4786787037153,774.2867058170449 545.1645617425395,773.4149018156552zM589.0,774.0C589.0,773.45 587.6611470853245,773.0 586.0247713007212,773.0L583.0495426014425,773.0L582.7747713007212,756.9978521417449C582.4074143027478,735.603692770278 580.5929833693602,735.1543996712711 580.2240168827695,756.3662291153962C580.0352741924731,767.217018823665 580.3110608065793,772.6698790555265 581.0964615982118,773.6162291153962C582.4075690960306,775.1960170049367 589.0,775.516124646741 589.0,774.0zM598.3503960755819,763.9820141807918C598.4880535202665,754.3655181883476 598.6597081063207,753.5050840576213 600.5,753.2069301785034C604.8562456763042,752.5011554308986 605.455856105794,751.6504953930013 602.0,751.0788983863755C599.0991378772364,750.599097128671 598.4458341107111,750.0292488107428 598.1835776543028,747.75C598.0095453641693,746.2375 597.4769354197331,745.0 597.0,745.0C596.5230645802669,745.0 595.9904546358307,746.2375 595.8164223456972,747.75C595.5527614274047,750.0414548708842 594.9580830292267,750.5522505478348 592.25,750.8133584840882C590.4625,750.9857056503366 589.0,751.519694332497 589.0,752.0C589.0,752.480305667503 590.4625,753.0142943496634 592.25,753.1866415159118L595.5,753.5L595.7845601758763,764.3218132747079C596.1622753894779,778.6863092904514 598.1436643886301,778.423909740003 598.3503960755819,763.9820141807918zM653.171259328416,773.3450124378879C655.5332354701817,771.2074534075845 655.5102620992899,767.417325076657 653.1229394384666,765.3732356922146C652.0905561296231,764.4892815468817 648.833901135424,762.8045358977358 645.8859283402463,761.6293564718906C640.345494554015,759.4207187916215 638.807117733486,757.1422614877806 641.0398690376985,754.4519607484294C642.5952559087493,752.5778342206471 647.9624191057187,752.5849489312606 650.6461322805912,754.4646948093368C652.5782320499632,755.8179901657534 654.0,755.618389449177 654.0,753.9938483536414C654.0,752.6978000747641 648.8694504593128,751.0 644.9529469788743,751.0C640.6331577993409,751.0 637.0,753.661357668622 637.0,756.8256859732905C637.0,759.4486140076692 640.8270411861369,762.6114041317361 645.7618751258447,764.0667818404354C650.7860438532742,765.5485061010655 652.2725240464008,767.050497776073 651.8267638663142,770.1949579440613C651.5511496114448,772.1391828544112 650.8187322819488,772.5489155673977 647.1477934581001,772.8124919129261C644.0931579806128,773.0318171849376 642.2279490968555,772.611278659561 640.8916626545258,771.4019560498336C638.3558323034148,769.1070611224518 637.1845971290077,770.4415086262749 639.4944516990196,772.9938691964257C641.8474761628552,775.5939319623096 650.4423947174301,775.8146009695179 653.171259328416,773.3450124378879zM663.0,763.0C663.0,755.6666666666666 662.6111111111111,751.0 662.0,751.0C661.3888888888889,751.0 661.0,755.6666666666666 661.0,763.0C661.0,770.3333333333334 661.3888888888889,775.0 662.0,775.0C662.6111111111111,775.0 663.0,770.3333333333334 663.0,763.0zM751.1489297511798,766.3331774689759C752.9920183880309,761.5664250769128 754.9668196245212,757.5108185354056 755.5373769433804,757.3207184878491C756.1079342622396,757.1306184402927 758.0892988984899,761.0306885792534 759.940409468381,765.9875410188731C761.7915200382719,770.944393458493 763.8496455726798,775.0 764.5140217670653,775.0C765.1783979614506,775.0 767.5845333252004,770.1603084106222 769.8609892420648,764.2451298013825C774.1314897809675,753.1485945022239 774.6541095534375,751.0 773.0827077729314,751.0C772.2150108405469,751.0 771.4910123428097,752.6702898580818 767.2675881560542,764.4156843556418C766.2954146702244,767.1193107512447 765.1354080488832,769.3693107512447 764.6897956641847,769.4156843556418C764.2441832794863,769.4620579600388 762.2324522536254,765.3330770086203 760.2192822733828,760.2401711302673C758.2061122931401,755.1472652519143 756.1431466187685,751.1189511270771 755.6349141081124,751.2883619639625C755.1266815974564,751.4577728008479 753.0884126233173,755.735971095861 751.1054274989144,760.7954692862139C749.1224423745115,765.8549674765668 747.1044707089753,769.8639385043957 746.6210460199452,769.7042937925004C746.137621330915,769.544649080605 744.3246268620537,765.4165422873513 742.5921694224758,760.5307231408252C740.8597119828977,755.6449039942992 738.824502401151,751.4415008003837 738.0694814630386,751.1898271543462C736.4163222813917,750.6387740937972 736.5262710593512,751.0534322632928 741.659953126546,764.7308453925241C743.7719789069457,770.3578103584123 746.0170183880309,774.9703103584123 746.6489297511798,774.9808453925241C747.2808411143288,774.9913804266358 749.3058411143288,771.0999298610392 751.1489297511798,766.3331774689759zM792.1731007461615,773.9073592920722C793.6495798022578,773.1171716815019 794.5171716815018,773.1171716815019 795.3073592920722,773.9073592920722C797.7415665596423,776.3415665596423 798.2179188782377,774.6341156368422 797.826105434516,764.8790933273019C797.4597395792724,755.7576424209511 797.1904349365988,754.5726231747485 795.0990141046161,752.8790933273019C792.2616864106775,750.5815647461618 783.3382330660439,750.300974893693 780.4427019254347,752.4182389569963C778.0037576937643,754.2016385211363 779.131352267717,755.5352536751413 781.8486121811341,754.08102030189C784.8772601792263,752.4601370831339 791.0942132153463,752.7752866638507 793.171259328416,754.6549875621121C794.1770666977872,755.5652307212737 795.0,757.581622054778 795.0,759.1358571921216C795.0,761.8978026691364 794.901013337261,761.9481716286325 790.6249679356927,761.3620744091081C784.9090458651489,760.5786201381748 779.6086986248463,762.368636231566 778.147334917222,765.5759801963857C776.5500536448819,769.0816307214617 776.6884068297269,770.0394218265978 779.1743140267095,772.6855487786324C781.5886684477559,775.2555112909296 788.4491508052552,775.9003568178676 792.1731007461615,773.9073592920722zM806.0,766.1743140267095C806.0,758.2917597237721 806.2404398099725,757.1310268051993 808.25,755.3123479193159C811.1790949547683,752.6614777560733 814.7994920076959,751.8271591492135 817.4116732141058,753.2010451199953C820.6869737844495,754.9237010722883 820.9684012472356,755.9121160410657 820.984687225483,765.75C820.9971836908632,773.2987498779925 821.2758783981634,775.0 822.5,775.0C823.7314114801248,775.0 824.0,773.2431734940702 824.0,765.1885614466321C824.0,756.8330962767877 823.7097518428471,755.065578067227 822.044090646601,753.2777006429153C818.9696644330666,749.977691474017 814.5996473101322,749.4855121556686 809.9396776783574,751.9144241256561C806.5155069207353,753.6992017095607 805.8542738058416,753.7838185618491 805.3617249353256,752.5002567803053C803.8167351927781,748.4740780493845 803.0,752.1051147016166 803.0,763.0C803.0,773.0 803.25,775.0 804.5,775.0C805.7200276930662,775.0 806.0,773.3527015585232 806.0,766.1743140267095zM557.2,771.8C555.5706996943139,770.1706996943141 555.6855442199954,766.5058645488898 557.4107702066041,765.0740541511457C561.2942988280255,761.8510116609164 571.0,763.1570451587181 571.0,766.9026690039034C571.0,771.424388528426 560.5373602602123,775.1373602602125 557.2,771.8zM781.6550302149262,771.7724596375385C778.9870359991378,769.7703246519372 779.862601538647,765.8233096446781 783.3437276130744,764.159878200235C785.2198846944398,763.2633698241714 787.6866773375324,763.0258453370028 790.5937276130744,763.4617844480933C794.6026292253225,764.0629563713985 795.0,764.3765265372085 795.0,766.9388281841194C795.0,768.4877834958673 794.3247537277969,770.3155152007888 793.4994527284375,771.0004541950559C791.1990402895551,772.9096269496157 783.8119968346414,773.3911057000186 781.6550302149262,771.7724596375385zM287.05347198205044,763.236071924639C287.7131325160067,761.1812323660876 288.9407068505234,758.7125 289.78141494764304,757.75C291.15610775990837,756.1761578586686 291.14338137275854,755.8159159767049 289.65498756211207,754.171259328416C288.74474440295046,753.1654519590447 288.0,751.3920096065134 288.0,750.2302763227908C288.0,749.0685430390683 287.63097412123966,747.8899634529477 287.1799424916437,747.6112105758561C286.7289108620478,747.3324576987646 286.3021683216089,750.2170267449338 286.23162573511286,754.0213640117879C286.16108314861674,757.8257012786419 285.6301090273771,761.8226305126351 285.0516832434691,762.9034289762174C283.75193604801166,765.3320288259763 283.67167705948594,768.3209487252739 284.9270445965195,767.5450889190139C285.43691912460525,767.2299691306591 286.3938114480942,765.2909114831904 287.05347198205044,763.236071924639zM836.0,755.0C836.0,747.1683245010049 835.610010966401,742.0 835.0190520282149,742.0C834.4795306437331,742.0 833.7518389713024,743.1405709472527 833.4019594228134,744.5346021050061C832.5308513626959,748.0053730683796 833.9745222776646,768.0 835.0962302169135,768.0C835.5933035976111,768.0 836.0,762.15 836.0,755.0zM711.0,763.5995678881857C711.0,760.9446217546431 719.0554666558211,744.6548069775894 719.9100376585623,745.5816343138881C721.4934558143949,747.2989348388419 728.8081181270579,763.8585485396087 728.2359826809279,764.4306839857388C727.9228588730842,764.7438077935824 723.9166666666667,765.0 719.3333333333334,765.0C712.8559184283346,765.0 711.0,764.6881094683263 711.0,763.5995678881857zM418.5127727394721,761.0206667265952C417.6836453419058,759.6791104163293 419.5524613800601,756.4268761886703 422.2302432215297,754.5512847782252C425.80760419406533,752.0456036177062 430.23717100003137,752.5943403705196 433.4428058184691,755.9403021380884C437.9467550328866,760.6414121297305 436.5225422658762,762.0 427.09040179071366,762.0C422.7055994996336,762.0 418.8456664265749,761.5593000269679 418.5127727394721,761.0206667265952zM528.4909652701717,761.1576319368385C527.3296320005855,759.9962986672521 528.1842531976703,757.7337421005733 530.6460227268351,755.4522511005375C534.4455251734199,751.9309910744466 539.2991738907688,752.1453277369226 543.1586538461538,756.0048076923076C547.6620889113898,760.5082427575436 546.6055638081657,761.4883898725583 537.1551602177806,761.5742986035051C532.6598838951902,761.6151628354329 528.7609961687662,761.4276628354329 528.4909652701717,761.1576319368385zM270.0,742.9409830056251C270.0,741.8734423525312 269.325,741.0 268.5,741.0C267.0167527145466,741.0 266.4032710227055,744.0699376893721 267.63948017322923,745.3061468398959C268.6820687148615,746.3487353815282 270.0,745.0282112426024 270.0,742.9409830056251zM303.8195509530758,743.1716720596108C304.0317647915528,741.7294643013574 303.61188998924945,741.0 302.5695509530758,741.0C301.54852842288676,741.0 301.0,741.9028262232247 301.0,743.5833333333333C301.0,746.7160497808009 303.348466439817,746.37316798792 303.8195509530758,743.1716720596108zM663.0,743.5C663.0,740.9468501779124 661.6351180007948,740.163340493472 660.4704041754671,742.0478870500192C659.6385386588206,743.3938737300224 660.6264980536971,746.0 661.9686152036613,746.0C662.5358768416476,746.0 663.0,744.875 663.0,743.5zM447.68794697717533,639.4337143615949C460.00445470370227,636.6017973018295 468.5012177696027,631.7490076300246 478.00526399234184,622.1184659844242C490.9239138824874,609.0278735297803 496.3501139587883,596.2617884881628 496.3326856452542,579.0C496.3216268793569,568.0468990310404 494.7663816373043,561.4663811713459 489.75090621289223,551.1513264068475C474.1730623870078,519.1132246160007 431.44864335989774,507.3984886735096 401.28456191532575,526.894475480779C389.478104097227,534.5253574715072 380.39052445610685,545.9005672940377 375.89163022383076,558.6796083111899C372.91257510451817,567.1415693168371 372.24665312962816,582.5162371698565 374.4334608360788,592.3455194171106C377.0585027665471,604.1445806557092 382.1185245204906,613.2400039569491 390.9423777010067,622.0204090585386C406.59869479665707,637.5996354675065 427.6154214982859,644.048961524053 447.68794697717533,639.4337143615949zM333.0,637.4779686226329C344.5369259670397,632.9056567641877 353.5853716027858,623.9672452742077 356.0889029642596,614.6698395964199C356.72400524834,612.3112497769145 357.03097846690923,605.9945776970377 356.8012099154936,600.0125041710936C356.45585307035844,591.0210646222204 356.00696331187834,588.7452086612715 353.6988069081218,584.2834253845796C350.6453718565089,578.3809807202671 345.4788819060868,572.8161198479118 340.81168200669026,570.402616980941C339.07554106396407,569.504823607386 330.870173135889,566.308804097418 322.57753105541224,563.3003514032343C305.97620953422637,557.277627888493 302.0,554.6178203992692 302.0,549.5354150386395C302.0,537.8170590711085 319.9550414177335,537.3420205685603 329.5623878330322,548.806193916937L331.62477566606435,551.2671826860955L339.8051560736666,543.8835913430478C344.3043652978478,539.8226161043715 347.98879077298335,535.7740788433447 347.9927682406344,534.8868418740992C348.00382405022356,532.4206689588291 338.576265246376,524.1510781129874 332.71806526873206,521.4882997384785C312.4043720729164,512.2549408305123 287.6834843293853,519.4125304994604 279.65893403553093,536.850834187004C276.5606395884796,543.5837970949055 276.6338006757615,556.5657259485811 279.80911833926655,563.5C284.4178927614755,573.5646638451567 291.04051499446706,578.3072540443384 309.3561445849033,584.6592073588986C327.9478813121593,591.1069160300649 333.0032228773293,595.0620303628771 332.9962619395625,603.1543704993999C332.98967308558235,610.8141498714938 328.3272465506712,615.9099764055579 319.874672591022,617.4956888388342C312.3292745776735,618.9112140387201 306.4846512617098,615.6334295134369 298.42056086698176,605.4637833402056L295.34112173396346,601.580294333774L286.67056086698176,608.4515664602898C281.9017523901418,612.2307661298735 278.0,615.7325684445793 278.0,616.2333493818584C278.0,618.13662004304 283.05415817023095,625.6490041710622 286.6998198007502,629.1645608688195C291.25716509512677,633.5592654238214 297.45938652987996,636.8852405502076 304.39265191989176,638.6524387465518C311.372767417405,640.4315784193601 327.1854457662678,639.7823914255894 333.0,637.4779686226329zM594.4321551509302,637.1697866920103C612.4288281333321,630.657968342286 626.5058460693006,615.8918566923228 632.250662285194,597.5C635.0270852659175,588.6113651577805 635.2263725740024,572.7059380212766 632.6829305965019,563.0C627.0130949292069,541.3635427643329 611.9773883329955,525.8162628770247 590.5,519.381841834027C582.418658319371,516.9607488147419 565.7508704107262,516.9728845806918 557.5522795483221,519.4058309696084C537.4020614056283,525.3854439651731 521.737681387114,540.5900734624599 515.436517247855,560.28549304481C512.2012438308511,570.397920844383 511.7262493265571,584.9195898746249 514.3097073241156,594.7346511395058C519.8463067608125,615.7692732319256 537.6821063123396,633.124827794424 559.4516053714743,638.6610628684714C567.3618554465859,640.6727308352612 587.0735320718863,639.8323908767773 594.4321551509302,637.1697866920103zM679.0,599.0C679.0,577.55 679.3375,560.0231751353276 679.75,560.0515003007281C680.423026119206,560.0977150307774 686.6128789915649,568.9324230960556 723.6783885317503,622.75L734.1814444663701,638.0L744.983733429001,638.0C752.7685039035407,638.0 755.8857438784753,637.6508241796565 756.1430111958159,636.75C756.3393550381171,636.0625 756.3768831928312,609.2875 756.2264070951803,577.25L755.9528141903606,519.0L744.9764070951803,519.0L734.0,519.0L734.0,557.0833333333334C734.0,586.8799506586688 733.7309950950038,595.0769983650014 732.7637318021536,594.7545772673845C732.0837842933382,594.5279280977794 720.0462842933382,577.4092415912162 706.0137318021536,556.7130516972442L680.5,519.0836155263859L668.25,519.041807763193L656.0,519.0L656.0,578.5L656.0,638.0L667.5,638.0L679.0,638.0L679.0,599.0zM422.0791004559718,615.4128454311851C405.35717807079124,609.3475609750294 395.8736341792577,594.0761712230668 397.2801370926203,575.4789726829945C399.2862023456981,548.9541831206068 427.60812388869556,532.7669925947324 451.53186439909484,544.4717881974907C457.4035755100445,547.344548766108 465.7665975910766,555.6620076849166 468.83922541234017,561.6848557735232C472.22919988261924,568.3297546830012 473.51699503298425,577.6802597558104 472.06927450324497,585.1378019982146C470.2928632058466,594.288506169425 467.8134631412826,599.2596038982089 461.9153760464546,605.4959613280726C454.22342630705555,613.6290639995306 447.892845642606,616.3772142269715 436.0333305579735,616.7315419115785C429.1887265686235,616.93603869465 425.2531545256969,616.5641210063645 422.0791004559718,615.4128454311851zM560.2678601384494,615.0997977647557C550.3171318898167,611.4136873207763 542.678111182188,603.7882257225293 538.876135814354,593.7460433246385C535.729992362198,585.4361140537181 535.7139019123615,573.0585738956763 538.8387667763864,565.0C543.0931608731602,554.0285338080122 553.8735858212591,544.2906737006691 564.3643920384957,541.9429341466991C572.5414797031419,540.1129821154599 583.4746538551248,541.1049426315471 590.0382250550936,544.2723060468497C597.1190460782891,547.6892772011021 604.3249781128318,554.9015867553562 607.7120519544628,561.9617749449066C611.5552153278442,569.9726592444327 612.1184604512407,583.1290237487659 609.0172263335544,592.4482348533331C606.3421023107468,600.4869847681705 598.9232854137842,609.0806986208211 590.8294725807149,613.5163314980105C586.1110690851117,616.102146873853 584.3534154630555,616.4714811668147 575.5,616.7375008148915C567.5339676261154,616.9768571556746 564.4357996906298,616.643753657158 560.2678601384494,615.0997977647557zM236.42860160339612,469.3512805804696C239.68933248526398,468.5270520116304 244.62601774491282,466.70298784893157 247.39901329150464,465.29780466336103C252.8895621431473,462.51553300217347 265.0,451.5183843150544 265.0,449.3148426795544C265.0,448.5623643541401 263.71238421219516,446.49619270902537 262.138631582656,444.7233501348551C260.56487895311676,442.9505075606848 257.8905298448951,439.925 256.19563356438573,438.0C253.83568784306732,435.3196616419663 252.76401583713715,434.73418904056183 251.61953553964779,435.5C250.7975779065513,436.05 247.73442701477293,438.1832283358741 244.81253355791802,440.24050741305354C226.98150371369368,452.79517621421184 203.72392685209917,451.2728764084396 190.2635208594806,436.6700601592373C184.74962428650184,430.68818869737584 182.25307153090705,425.51291810557643 180.80352245351844,417.0597989944653C177.00135978980077,394.8872941944718 192.94319912530443,374.6659138343312 215.35953767026092,373.2273206509944C226.70439435404032,372.4992519943542 237.60932849342902,376.3280307151721 246.55077596900165,384.17872557904593C250.47618273667658,387.6252783697201 249.46577261848932,387.99515832282606 259.25,379.5299316838551C262.4125,376.7937647693029 264.99120252123106,374.0926891299369 264.98045004718017,373.52754137415286C264.9460247875628,371.7181570294041 255.30582914870038,362.22348819131884 249.77373486608832,358.55038425324324C241.73942651669623,353.2159036514534 233.96608956305838,350.810770621426 222.92197420596773,350.24223334415115C200.31218770471864,349.07830974850225 181.34789619742338,357.2615538259344 169.11895675341367,373.45866743804936C156.59743639381068,390.04330168122925 153.27174418971984,409.90640854761557 159.62585540705197,430.1573860699999C164.03254776688505,444.2018094165135 175.898564941826,458.0338355514779 189.77214232196474,465.29842980283803C195.6426110474363,468.37237188621896 199.2384140191973,469.40603335846623 211.0,471.40066031781737C215.27682354964517,472.12595940302873 230.2142971546664,470.922096280284 236.42860160339612,469.3512805804696zM363.59960918442164,468.498364416001C383.45232790182394,461.83402629129796 398.45859416965396,445.5236261290101 403.6084680321991,425.0124974990131C405.79127339710703,416.31873085367823 405.0730357052561,400.1154558801445 402.09167674509837,390.79403948546155C396.14150453020426,372.1904316756298 377.33977820248367,355.0027661056103 358.5,350.944551812274C349.7327973095313,349.05603768601185 332.7777051734109,349.3030219221776 325.5522795483215,351.4245001076787C314.5929971794743,354.6422868071256 308.0222406001698,358.7113087921986 298.99473600765816,367.87058622154484C285.84396606392926,381.21331555386047 281.0,392.8232339550579 281.0,411.0000000000001C281.0,427.12268864662315 285.76790336473016,439.6370161982576 296.4843543737904,451.6418225655804C305.2434742444489,461.45398313128686 315.5157619643802,467.3492660575878 329.5,470.5895562416284C338.6097443630247,472.7003766641241 353.8698543262059,471.7645355217641 363.59960918442164,468.498364416001zM828.6446648858364,468.90419303672525C843.5879038885353,464.33575927904786 856.0612704659077,453.9536069780368 862.3733370422957,440.83027978587313C866.7847643116409,431.65854454838166 868.2059355148286,425.19962041630953 868.3711265270973,413.57158839416826L868.5,404.5L838.75,404.2351194252062L809.0,403.97023885041244L809.0,414.4851194252062L809.0,425.0L827.5,425.0C841.7375832604075,425.0 846.0,425.29107660895113 846.0,426.26334837595226C846.0,428.39367830837773 839.2240547425237,437.72732255710736 835.7585838838904,440.3705660406024C826.2183610734457,447.6472487205268 813.8757673364686,450.3532646134894 802.9115198366396,447.57202460297333C783.7855115120542,442.7204358738215 773.1806471210222,427.8090249766483 774.1844409589173,407.17911987300226C774.6983908909351,396.6164545872874 777.7315358013069,389.21583261974564 784.1962624443161,382.75110597673654C798.1291776891553,368.8181907318977 820.7417498806868,369.20451768182284 835.7998696718635,383.6327334190503C838.3067321622437,386.03473003857266 840.8397961412301,387.9805585316396 841.4289007362775,387.9567967369768C842.0180053313248,387.93303494231407 845.6053215056645,384.9926769305009 849.4007144570321,381.4226678218365C856.170835469491,375.05458051416286 856.2749209159509,374.88034532346575 854.9007144570321,372.2158710848597C850.6271761588482,363.9298288898856 835.2839119611925,353.9891995516118 822.1042490986752,350.96762159028503C814.3568569219748,349.1914494906597 797.1890150226302,350.2565119402596 789.2772188790746,353.00415229832424C773.1067788736909,358.61988768385294 760.0571801323304,371.7827235306743 754.1878990644007,388.3979575678504C750.8420967067813,397.86952462531093 750.0060948252651,414.52354778951155 752.3997859831159,424.0190217476568C756.7446286630764,441.2544701823851 769.4991284232124,457.88351620953944 783.9152514609239,465.1082166085671C796.2809410236794,471.3053336895319 815.4651876609583,472.9334111099821 828.6446648858364,468.90419303672525zM449.01531277451704,433.25C449.0237348005015,413.0375 449.4030189595979,395.91286298665625 449.85816646139807,395.1952510814583C450.429064465266,394.29514023253796 455.42332466495816,400.73027869122774 465.96207779273436,415.9452510814583L481.23844821170667,438.0L487.86922410585333,437.97279100132647L494.5,437.94558200265294L502.5806142102706,426.72279100132647C507.02495202591945,420.5502559505969 513.973027353559,410.6625 518.0207816050254,404.75C522.0685358564916,398.8375 525.7393481384064,394.0 526.1781422315028,394.0C526.616936324599,394.0 527.0938609969594,410.9875 527.237974836748,431.75L527.5,469.5L538.75,469.78275112283075L550.0,470.0655022456615L550.0,410.53275112283075L550.0,351.0L538.1415800025784,351.0L526.2831600051569,351.0L522.4918545290191,356.75C515.0141914228415,368.09083315922163 489.7962527706434,403.92420575071435 488.5856963971888,404.9288783072499C487.2058131598949,406.0740796792243 487.3413677160744,406.2563173872304 464.32560481238966,372.31394000465116L449.9596890658264,351.1278800093023L439.2298445329132,350.81394000465116C433.32843003981094,350.64127300209304 427.9375,350.892600121949 427.25,351.37244471544216C426.27430753381753,352.0534349042563 426.0,365.01903766936505 426.0,410.4557780487755C426.0,442.47176678861564 426.3,468.9666666666667 426.66666666666663,469.33333333333337C427.0333333333333,469.7 432.2083333333333,470.0 438.16666666666663,470.0L449.0,470.0L449.01531277451704,433.25zM600.5,410.5L600.5,351.5L588.75,351.2182646875465L577.0,350.936529375093L577.0,409.80159802087985C577.0,442.1773857760626 577.3139064698839,468.98057313655056 577.6975699330753,469.364236599742C578.0812333962667,469.74790006293347 583.3687333962667,469.93540006293347 589.4475699330753,469.7809032664087L600.5,469.5L600.5,410.5zM651.0332692847057,429.75L651.0665385694116,389.5L653.1558172960961,392.0C655.1961631304737,394.44144762534324 669.7105469458414,414.99046624224394 695.1197454241783,451.41124000243303L707.7394908483565,469.5L718.3697454241783,469.7838317103739L729.0,470.0676634207477L729.0,410.5L729.0,350.93233657925236L718.25,351.2161682896262L707.5,351.5L707.0,389.5L706.5,427.5L696.0733859393675,412.5C690.3387482060197,404.25 679.2877289361982,388.5 671.5155653397642,377.5C663.7434017433303,366.5 656.5411330572995,356.063364224946 655.5105238152512,354.3074760554355L653.6366888297091,351.11495211087095L642.4412938382104,350.8074760554355C636.283826592886,350.638364224946 630.5155716062015,350.64549587344476 629.6229494233557,350.8233241632106C628.1475174192685,351.11725988987627 628.0,356.54821520767416 628.0,410.5733241632106L628.0,470.0L639.5,470.0L651.0,470.0L651.0332692847057,429.75zM334.69848043346667,447.904471657659C323.42731659581926,445.25198554636324 313.217155077886,437.21370868954926 308.2359835054099,427.0710229157661C305.78210114398564,422.07441572092824 305.5,420.41736846878194 305.5,411.0C305.5,401.69314475564823 305.80546443457405,399.84822597648497 308.18817052402403,394.76421042835693C311.6178172344522,387.44632205026136 318.8946541277075,380.1694851570061 326.52180739609446,376.43057355628645C331.99136754307983,373.7493370366063 333.3933537528003,373.501722319153 343.0,373.5202432138997C352.2527492924571,373.5380818218127 354.1814401280267,373.85750813903326 359.2367146003676,376.2093387666481C366.553131381713,379.6131051031564 374.37099345184623,387.42244724460096 377.81182947597597,394.76421042835693C380.2029476922499,399.8661750570514 380.4969616436566,401.6602869697073 380.47250443861014,411.0C380.4475947293583,420.51251525423845 380.1830842242394,422.0022265504325 377.6599442287748,426.84021290169323C369.09756623268294,443.2581159724265 351.53840584853435,451.8674757379939 334.69848043346667,447.904471657659zM376.90493079465807,226.02726548933998C380.995698819485,224.85404865669554 386.9836923509449,220.92331619131016 386.99316695445043,219.40498756211207C386.9969251295027,218.80273072127372 386.0910573413447,217.48739332346804 384.9801274252105,216.48201556698837C383.01936489211,214.70754986227698 382.84711103658674,214.71764639006855 379.0939729118393,216.82702800487627C368.95357841040965,222.52624850176431 356.99514258112976,216.72742334058196 357.0037380604375,206.1151413081987C357.0128140208444,194.9096403578699 367.326560180596,188.81328520244057 377.5,194.0C379.6575861095371,195.1 381.92669410838,196.0 382.54246221965093,196.0C384.1387661197103,196.0 386.3795934901474,191.42321216334162 385.48889869367827,189.98203770905184C383.97441463096743,187.5315510201658 375.5428572726724,184.67515642924658 369.8113731435601,184.67089561781066C350.2832759897715,184.6563783413426 340.80100942669753,206.8536410056449 354.4883327271711,220.5409643061185C360.4489319270778,226.50156350602515 368.43558968151643,228.45624056077926 376.90493079465807,226.02726548933998zM425.120369076855,224.20577836772856C432.54349958462404,220.32788868670508 436.2,214.37997824781658 436.2,206.18290268318407C436.2,195.64879763830902 430.750218940577,188.43679588922797 420.5491615792514,185.47126806258618C404.491931868662,180.8033047486984 389.32142209473824,194.45298621955573 392.8822792560923,210.36457333911284C396.0685671505033,224.60240853512818 411.5980874278687,231.26990265001288 425.120369076855,224.20577836772856zM455.0,213.53340280948015L455.5,200.5668056189603L460.97098805071784,209.26121507708194C463.98003147861266,214.04314027904886 467.04252013517447,218.18607490367546 467.776518398633,218.46773646514112C469.68073486965926,219.19845288682666 473.1633887874667,215.36600495795668 477.5914927783076,207.66695662280256C479.70046609145965,204.00013048026116 481.7801420262663,201.0 482.21299485565567,201.0C482.64584768504506,201.0 483.0,206.87716436777671 483.0,214.06036526172602L483.0,227.12073052345207L486.75,226.81036526172602L490.5,226.5L490.7702884171557,205.75L491.0405768343115,185.0L487.5245290119509,185.0C484.1573330572661,185.0 483.7013729488443,185.46464823460877 476.7542405947952,195.9755116880308C472.7644082676578,202.01204311644776 469.16690311671067,206.96204311644775 468.7597847038015,206.9755116880308C468.3526662908923,206.98898025961387 464.8054652415212,202.02639479507593 460.87711570519906,195.94754398905758C453.7843171190434,184.97192585637364 453.70951392359626,184.89719068525324 450.1173310013976,185.19754398905758L446.5,185.5L446.2276351016691,204.97052636369784C446.0778344075871,215.6793158637317 446.18671792926506,225.04419583300012 446.4695984831757,225.78137073984993C446.8055562549362,226.6568626592459 448.28722453467077,227.0138870398946 450.7419633815066,226.81084437615206L454.5,226.5L455.0,213.53340280948015zM512.2022825943532,220.75L512.5,214.5L521.0119722317229,213.98758493148347C533.7865549442831,213.21856354634187 538.2857142857142,209.42003812151836 538.2857142857142,199.40380529742893C538.2857142857144,188.478762421493 532.0399568380692,184.75215314635525 514.5,185.21176146352406L503.5,185.5L503.2276351016691,204.97052636369784C503.0778344075871,215.6793158637317 503.17621124923465,225.01681586373167 503.4462503053304,225.72052636369784C503.73137106146277,226.46353914395849 505.6075122778984,227.0 507.9208977980145,227.0L511.90456518870633,227.0L512.2022825943532,220.75zM551.5649748827727,222.5L553.6341304389333,218.5L562.5,218.5L571.3658695610667,218.5L573.4415797101054,222.5C575.3366278653045,226.15185506478676 575.864682372246,226.5 579.508644929572,226.5C582.5159570604048,226.5 583.4300451957022,226.1301846407179 583.216257846482,225.0C583.0601996620471,224.175 579.247722677133,214.8165111167512 574.7440867688952,204.20335803722486L566.5556578448262,184.90671607444972L562.708715237006,185.20335803722486L558.8617726291858,185.5L550.430886314593,204.90875779167948C545.7938988415668,215.58357457710318 542.0,224.9482389448799 542.0,225.7191230534055C542.0,226.72715953236258 543.0524119999534,227.03358004354402 545.7479096633061,226.81036526172602C548.9816770858916,226.54257623727378 549.7796682903318,225.951275738309 551.5649748827727,222.5zM600.0,213.03930029982772L600.5,199.57860059965543L610.7735848237857,213.28930029982772C620.5257523104177,226.30413807343814 621.2236088530788,227.0 624.5235848237857,227.0L628.0,227.0L628.0,206.0L628.0,185.0L624.0,185.0L620.0,185.0L620.0,198.08333333333331C620.0,205.81058002959085 619.6155197388218,211.03020586062652 619.0608285940971,210.83333333333331C618.5442843208504,210.65 613.8109117326628,204.7625 608.5422228425692,197.75C599.5850357081719,185.82819628559523 598.7435986887051,185.0 595.5883830526566,185.0C593.7324600582982,185.0 591.988555173111,185.58744144981216 591.7130388633516,186.30542544402698C590.9500511117084,188.29373965286715 590.8449657389575,223.43241225542778 591.5961529897786,225.38997485206244C592.0843438335866,226.66217979805077 593.1907577376271,227.02730807853303 595.8772422126762,226.80277953649318L599.5,226.5L600.0,213.03930029982772zM659.0,219.3948235737606C659.0,211.9579561417876 659.1438505041062,211.51848541402174 665.5,199.53698749438487C669.075,192.7980246851599 672.0,186.77035407696764 672.0,186.14216392062428C672.0,185.47595976654657 670.3300923522039,185.0 667.9927111488304,185.0L663.9854222976608,185.0L659.7698539668634,193.5C657.4512913849248,198.175 655.3170713679513,201.99761447095358 655.0271428180331,201.99469882434127C654.7372142681148,201.99178317772896 652.4943707362858,198.16678317772897 650.043046080635,193.49469882434127L645.58609216127,185.0L641.293046080635,185.0C638.9318707362858,185.0 637.0,185.4740940320294 637.0,186.0535422933987C637.0,186.63299055476799 639.925,192.42552228106138 643.5,198.92583501849515C649.8631639433357,210.4957806496125 650.0,210.90165304641494 650.0,218.2056260584298C650.0,222.30919839296007 650.3,225.96666666666667 650.6666666666667,226.33333333333331C651.0333333333334,226.7 653.0583333333334,227.0 655.1666666666667,227.0L659.0,227.0L659.0,219.3948235737606zM409.0199333001233,218.29785150088037C398.75900458778045,212.99691112333937 398.4015024796989,198.35907497666557 408.4168917131568,193.60646160387037C415.15031860396124,190.41124133434045 422.79271116762305,192.7592455949576 426.17273470273005,199.0616635766923C432.3901692910482,210.65474011674547 420.35377872817116,224.1530757741058 409.0199333001233,218.29785150088037zM556.7606117746784,211.42727844134504C556.4456149174182,211.1122815840848 557.5793305083231,207.52099717498976 559.2799797544671,203.44664642113386C560.9806290006113,199.37229566727797 562.5917812344081,196.2584479010748 562.8603180517935,196.52698471846014C563.9351994579864,197.6018661246528 568.7186120829797,210.94805458368702 568.2109357978396,211.45573086882703C567.4851475751724,212.18151909149424 557.4900159435764,212.15668261024308 556.7606117746784,211.42727844134504zM512.4145928998169,205.63802848734005C512.1271422706886,204.8889441553771 512.0287654290411,201.62644415537707 512.1959776961555,198.38802848734005L512.5,192.5L518.4601819668305,192.71167257339135C528.5391595133871,193.06962189881574 533.1239696138629,198.9669394770461 527.6100316477527,204.4808774431564C525.4705947279874,206.62031436292165 524.1749994577539,207.0 519.0140697491158,207.0C514.8086387743622,207.0 512.7762802571765,206.58057063201719 512.4145928998169,205.63802848734005zM521.2249038475761,143.27681952815897C524.9512067314092,139.57907026864643 528.0,136.15724198331597 528.0,135.6727566718691C528.0,135.18827136042225 520.7753743988417,127.33815640784016 511.94527644187053,118.22805677724227L495.890552883741,101.66423926706429L501.7509187212622,95.58211963353214C522.0238877322423,74.54202994114111 531.0,64.75054154156813 531.0,63.67609712670013C531.0,62.18778943023437 516.8831621511057,47.99999999999997 515.4022973184564,47.99999999999998C514.8244284137892,47.999999999999986 511.6823709208665,50.812499999999986 508.4199473341836,54.24999999999999C505.1575237475007,57.6875 493.74486398930486,69.6380279370459 483.0584812048594,80.8067287489909L463.6286943240495,101.11345749798181L488.0566933046026,125.5567287489909C501.4920927439069,139.00052793704592 512.926843252405,150.0 513.4672499901541,150.0C514.0076567279032,150.0 517.4986009637431,146.97456878767153 521.2249038475761,143.27681952815897zM558.9622138729668,89.47792222725666C558.982996242835,88.91577945224782 555.1539479461148,84.64077945224781 550.4532176580329,79.97792222725666L541.9064353160659,71.5L530.4372991515012,83.5C524.1292742609905,90.1 517.7632568385862,97.00662986321551 516.2905937683805,98.84806636270113L513.6130245498246,102.19613272540225L522.4189698759075,110.84516685248578L531.2249152019904,119.4942009795693L545.074671473962,104.99710048978466C552.6920374235464,97.02369522040308 558.9414315030986,90.0400650022655 558.9622138729668,89.47792222725666z"/></svg>