<svg version="1.1" xmlns="http://www.w3.org/2000/svg" xmlns:xlink="http://www.w3.org/1999/xlink" width="1024" height="1024" viewBox="0 0 1024 1024"><path stroke="none" fill="black" fill-rule="evenodd" d="M337.0,926.2371284697313C337.0,925.8175491280834 335.99855379946587,925.0300491280834 334.77456399881305,924.4871284697313C333.55057419816023,923.9442078113791 331.52557419816026,921.9709525510937 330.27456399881305,920.1021167802082C327.2636634808844,915.6042489023772 327.12041170011753,906.6813431527572 330.0,903.0C331.0755405698523,901.625 331.9655344393373,900.0457460549471 331.97776415441115,899.4905467887713C332.02315154021494,897.4300700614145 341.23263505728323,893.0301126763345 345.5,893.0301126763345C348.25690435412014,893.0301126763345 354.39858160868897,895.2561867844015 356.5387355847963,897.031144064435C363.48929465995644,902.7956570707362 361.9095306197905,921.4098227548118 354.1282429295066,925.4336830037914C351.002914418406,927.0498531881329 337.0,927.7066968670622 337.0,926.2371284697313zM373.6409750312406,923.6839684460068C369.82669367998847,920.3877141181172 369.8071339371964,920.3325459635086 370.36140872872267,914.4339684460068C370.6680889431415,911.170285800703 371.211417004295,905.0125 371.56880442017496,900.75C372.20790184307964,893.1275918118882 372.2636982883322,893.0 374.9579125792949,893.0L377.697225436815,893.0L376.811812338574,898.6462121339471C376.32483513454144,901.751628807618 376.0554594112581,908.1593681357502 376.2131996201665,912.8856328631299C376.4905020740571,921.1942614348077 376.59277418990655,921.5232110821621 379.30141928499967,922.8186313276908C382.91050162243977,924.5446892509563 389.4598584378646,923.4961470252608 391.98249986284,920.7884093031411C394.0774913145179,918.5396999443458 394.62263192687584,915.7188155631627 395.56507838575635,902.25C396.13820484100904,894.0592593510966 396.4297006175272,893.0 398.1105701295881,893.0C399.90091416570266,893.0 399.97503611965686,893.6679066911264 399.4145441285504,904.75C399.0876943726812,911.2125 398.40144006975675,917.8848469212925 397.8895345664962,919.5774376028724C396.533075198601,924.0625046150783 390.7801765844446,927.0 383.3529163484343,927.0C378.1390730815514,927.0 377.04644792179,926.6269356055476 373.6409750312406,923.6839684460068zM411.3341101230408,922.25C411.65958442832493,919.6375 412.23130653817486,911.9875 412.604603700485,905.25L413.2833258137761,893.0L422.9937796870963,893.0C431.45222580356534,893.0 433.14144375549574,893.2946359079141 436.095194526138,895.2851682647868C439.85458101754745,897.818618455479 440.4937071620996,899.5547775624772 439.5394578464387,904.6413637223047C439.0443145986914,907.2807041439213 438.0902806823508,908.4661721565866 435.4469015897207,909.7267117893647C433.5511057153743,910.6307538323442 432.0,911.6403802989813 432.0,911.9703261596692C432.0,912.3002720203569 433.06345643609404,915.816926486531 434.3632365246534,919.7851138622781L436.7264730493068,927.0L434.44647096479247,927.0C432.50598780135147,927.0 431.8533621331536,925.9948462184266 430.0638348536893,920.25C427.1467499857483,910.8854017819519 427.0919546436128,910.8280726913413 421.4032519492697,911.1889498683856L416.5,911.5L416.2079357460527,919.25C415.9217485929077,926.8440496205839 415.863818949637,927.0 413.3291050754966,927.0C410.8267491449241,927.0 410.76164914497986,926.8449996079667 411.3341101230408,922.25zM473.1414651189608,913.2515957682451C473.4942709343892,905.6882180957103 473.8317709343892,898.0375 473.8914651189608,896.25C473.9789697939822,893.6297345968726 474.41460500578864,893.0 476.13973676451144,893.0C478.2626863069985,893.0 478.27387188113187,893.1176819198242 477.5654749938964,908.0L476.85147645876987,923.0L487.92573822938493,923.0C498.3333333333333,923.0 499.0,923.1203992971226 499.0,925.0C499.0,926.8992907789562 498.3328014105849,927.0000803542885 485.75,927.0015957682451L472.5,927.0031915364904L473.1414651189608,913.2515957682451zM505.3188318986761,925.75C506.09197123247316,923.9361731923542 510.15165587532516,913.8442752930819 511.051203226453,911.5C512.9426335361206,906.570817186021 513.4604026575341,905.1483839281076 515.4192320407374,899.5C517.4612726126468,893.611672386671 517.5747220428099,893.4944908113999 521.5147100838818,893.203999058443L525.5294201677636,892.9079981168859L527.2160747903753,898.703999058443C528.1437348328117,901.8917995762994 529.1846237074141,905.85 529.5291611783805,907.5C529.873698649347,909.15 530.5479202347539,911.4 531.0274313681734,912.5C532.5613848694065,916.0188940021538 535.0,924.020573136217 535.0,925.5349472252246C535.0,926.4291479873134 534.03048957096,927.0 532.5118175767584,927.0C530.3822090493896,927.0 529.9314581843689,926.4235569023822 529.384009355038,923.0L528.7443835565592,919.0L520.4123332946626,919.0L512.0802830327659,919.0L510.8818538829589,923.0C509.9077173910637,926.2513778292262 509.2251367366441,927.0 507.23472356239165,927.0C505.65826422202616,927.0 504.97581228728126,926.5547426117107 505.3188318986761,925.75zM548.25,924.4164328387265L545.0,921.855044256318L545.0110056638812,911.177522128159C545.0252683669808,897.3400717390333 545.7375973002183,893.0 547.9944528797416,893.0C549.5790350594336,893.0 549.6844596254966,894.189048277339 549.2272035727611,906.9037810888261L548.7271861399897,920.8075621776522L551.8139331431107,922.4037810888261C556.8572974355573,925.0118061234023 563.8333658108699,923.9763155862053 566.5887525049866,920.2106853771843C567.2835320158522,919.2611697537291 568.1198068342046,913.8280231883958 568.468232208501,908.0C569.2786882229632,894.4437070491846 569.6113720553716,893.0 571.9247904409648,893.0C573.698473727036,893.0 573.7812717516694,893.7337138633789 573.3071764805136,905.25C572.7361942616144,919.1197747305895 571.9379201812031,921.8186541301372 567.5088577372571,924.8534963331458C562.7410199524828,928.1204711183198 552.6595437544782,927.8916805391422 548.25,924.4164328387265zM585.007109043428,916.75C585.0183184026612,900.5880601691028 585.9631230474392,893.0 587.9642693470386,893.0C589.8862244497035,893.0 592.8413846515264,896.1762461625822 594.9551504538822,900.5138935868802C595.7554832035174,902.1562521140961 598.3429832035174,906.2806374508174 600.7051504538822,909.6791943351498C603.067317704247,913.077751219482 605.0,916.5652512194821 605.0,917.4291943351498C605.0,918.2931374508173 605.45,919.0 606.0,919.0C606.6153846153846,919.0 607.0,914.0 607.0,906.0L607.0,893.0L609.5,893.0L612.0,893.0L612.0,908.4182125317642C612.0,916.8982294242345 611.726855038117,924.5482294242345 611.3930111958157,925.4182125317642C611.0509032359367,926.3097315844877 609.6300820909396,927.0 608.1371225715434,927.0C606.103901651408,927.0 605.1611970278283,926.2446084938088 604.0812257266316,923.75C603.3073773629785,921.9625 601.454515934688,918.7 599.9637558859858,916.5C598.4729958372837,914.3 595.6264449711886,909.575 593.6380872946631,906.0L590.0228915191625,899.5L590.0054520031881,905.0C589.9958602694022,908.025 589.699011889158,914.2125 589.3457889359786,918.75C588.7905953714086,925.8820132980089 588.452623757465,927.0 586.8517826923718,927.0C585.1693845431245,927.0 585.0006502718046,926.0624215388892 585.007109043428,916.75zM628.3756923311425,923.4478077003637L624.5,919.8956154007274L624.5,910.4636088434847L624.5,901.0316022862422L628.233018328375,897.2994494814127C631.7125281135532,893.8207464422459 632.4430427908701,893.540343417271 638.9901496075863,893.1703987663459C645.3771957560565,892.8094983527761 646.3310556855565,893.0151307537678 649.5071312792113,895.4376417078281C653.2855704609264,898.3195977687108 653.9450433054838,900.4233752488152 651.3787167631008,901.4081671443062C650.3598978144062,901.7991246577312 648.8912524279002,901.095687024692 647.4264656625631,899.5151559484905C645.480026948689,897.4149138190552 644.186986920677,897.0 639.5882178898187,897.0C634.8700904470112,897.0 633.7169075696236,897.3925904485353 631.5404689903563,899.7397817051329C629.2677585859631,902.1907978012391 629.0,903.3078817284828 629.0,910.3385719048239C629.0,917.8408458966306 629.1409758059525,918.3292715199866 632.1057552548546,921.0987901996909C633.8139206450246,922.6944555898609 636.3033740289279,924.0 637.637873885751,924.0C641.0728493711182,924.0 646.6180429645102,921.5049367428575 647.7740839803414,919.4392060533598C648.3735540931606,918.3680123910858 649.3812410628713,917.9323183141273 650.3762098948523,918.3141236790406C655.9450509552033,920.4510885013025 646.4537628622139,927.0 637.7878347856914,927.0C632.8390155752968,927.0 631.8400242106712,926.6229753799454 628.3756923311425,923.4478077003637zM666.0,910.0L666.0,893.0L668.4054392718415,893.0C670.7922895702037,893.0 670.8066193441865,893.062140423189 670.259732147834,901.0410580214734L669.7085857519851,909.082116042947L678.6042928759925,908.7910580214734L687.5,908.5L687.7920642539473,900.75C688.0741574384557,893.2645848887934 688.1680423989952,893.0 690.5420642539473,893.0L693.0,893.0L693.0,910.0L693.0,927.0L690.5,927.0C688.0555555555555,927.0 688.0,926.8333333333334 688.0,919.5L688.0,912.0L679.0,912.0L670.0,912.0L670.0,919.5C670.0,926.3333333333334 669.8222222222222,927.0 668.0,927.0C666.0784313725491,927.0 666.0,926.3333333333334 666.0,910.0zM353.4287979189527,920.6319229189527C356.6799551588958,917.5656869742419 357.0,916.7724959507591 357.0,911.7811461841792C357.0,904.991197784166 355.4344285965892,900.272657621409 352.9164187324259,899.4734723361825C351.86238842959165,899.1389361136693 351.0,898.4455491106365 351.0,897.9326123294429C351.0,896.4744701425706 342.21101942254273,896.8395173231797 339.14502533757206,898.4250044832966C333.6647381068201,901.2589711503238 331.2570498739591,912.9285986571972 334.94442275747383,918.7845621474168C337.36082556889477,922.6220819991809 339.91759525300256,923.8492246154372 345.6787979189527,923.9366136995809C349.09703289998265,923.9884633639133 350.5075731757321,923.3869924677876 353.4287979189527,920.6319229189527zM527.0,913.9678813691036C527.0,912.8502161221105 526.3758174086463,910.441883520895 525.6129275747694,908.6160311441802C524.8500377408926,906.7901787674652 523.9065946850292,903.4066131699898 523.5163874506283,901.0969964831236C523.1261802162273,898.7873797962575 522.3515037900321,897.049498736656 521.7948842813053,897.2350385728982C520.8627497901447,897.5457500699517 514.0,913.3562884167442 514.0,915.1930467484794C514.0,915.6368710368158 516.925,916.0 520.5,916.0C526.3675785618767,916.0 527.0,915.8022837866172 527.0,913.9678813691036zM434.0,906.0C436.4333471859365,903.5666528140634 436.54436925208864,901.2590025959223 434.34501243788793,898.828740671584C433.012942572824,897.3568200388241 431.1781540124472,897.0 424.9415258086737,897.0L417.1930267415716,897.0L416.84651337078583,902.0838231067689C416.65593101685363,904.8799258154919 416.6875,907.3549258154919 416.91666666666663,907.5838231067689C417.1458333333333,907.812720398046 420.6333333333333,908.0 424.66666666666663,908.0C430.6666666666667,908.0 432.3636363636364,907.6363636363636 434.0,906.0zM275.8860303906197,863.3568659228683C274.44834710546047,863.1019640588838 271.97334710546045,861.5339646620207 270.3860303906197,859.8724228187282C267.5826545029086,856.9379571910691 267.5553448237153,856.8107872326549 269.43246390196555,855.4320553633318C271.18218632063866,854.1468955196939 271.6088421474695,854.3048431162155 273.9442855697058,857.1023276144978C279.06552655749,863.236748229824 292.03701854775085,861.6609109219061 293.56169302007515,854.7191135194555C293.907438548454,853.1449444398419 294.03499897145576,851.7478991812695 293.8451606267456,851.6145685004059C293.6553222820355,851.4812378195422 292.2018135886894,850.3884155375067 290.6151413081987,849.1860745403269C288.2541558570175,847.3969781802252 286.39281660611533,847.0 280.3651413081987,847.0C276.12171376939955,847.0 273.0,846.5761501865654 273.0,846.0C273.0,845.45 272.325,845.0 271.5,845.0C270.38515406162463,845.0 270.0,843.8247863247864 270.0,840.4230769230769C270.0,834.3836408936354 273.99071911081575,830.0 279.48881837716624,830.0C281.4922838692231,830.0 284.0562039637068,829.5051043099495 285.1864185871301,828.9002317998877C286.6806547645177,828.1005408664047 287.05589631605346,828.1005408664047 286.5616601386658,828.9002317998877C286.117126872686,829.619501733373 287.0867707695023,830.0 289.3642577236816,830.0C293.86093031669253,830.0 299.665204845014,834.4935509085764 297.90621246342334,836.6130070682382C296.2613533409446,838.594941063746 294.8309016483643,838.3143009380004 292.1450401485171,835.4827234443424C290.1722022146664,833.4028531708959 288.861820380188,833.0 284.06935417522664,833.0C279.3825147783825,833.0 277.9556719215833,833.4182826344763 276.17431402670945,835.3144512213676C271.0908786305362,840.7255202375674 274.7921772039663,845.0 284.56109086732266,845.0C295.1107993867807,845.0 298.95118754867667,848.1161974507969 297.55742575687907,855.5455865254372C296.6385044041598,860.4438584529096 292.54210198105955,862.9796246406194 284.7992479227347,863.443188525225C281.33466156523065,863.6506129579134 277.32371367577883,863.6117677868527 275.8860303906197,863.3568659228683zM467.52282792289645,862.5004280405553C465.8853832804895,861.6107819558091 464.20477402902225,860.3467395211061 463.78814069741355,859.6914448523265C463.37150736580486,859.036150183547 463.0237348005015,852.0875 463.01531277451704,844.25C463.00001025366595,830.0095420160349 463.0015525780053,830.0 465.31861238703993,830.0L467.6372247740798,830.0L467.1949986090753,843.856713570983C466.7597426467515,857.4950228282438 466.7897511064753,857.7393280053229 469.0988924654408,859.356713570983C471.5914478379729,861.1025673124568 479.0,861.6359513717496 479.0,860.0695509530758C479.0,859.5578039772676 479.9998574774984,858.9953039772676 481.22190550555194,858.8195509530758C483.97375229316395,858.4237846788113 485.8123825996248,852.9758459980953 485.9231483651021,844.8895712654876C486.06144814366456,834.7932206458242 487.0698978874279,830.0 489.0557778509799,830.0C490.67876818298055,830.0 490.7960853878495,830.8796089322441 490.35617704605636,839.75C489.3858985372864,859.3148706781639 487.3454756437525,862.9200214296667 476.8188577645948,863.668608703889C472.2073626581248,863.9965494149011 469.69556466997255,863.6809056519263 467.52282792289645,862.5004280405553zM542.718561714282,863.25C542.4988519633248,862.8375 542.5260587893699,855.1875 542.7790213277156,846.25L543.2389532156168,830.0L555.7419213232506,830.0C566.7422882770958,830.0 568.0952791720175,830.1802693337518 567.0,831.5C566.0645039314809,832.6272038045836 563.5487646793273,833.0 556.8775552845578,833.0L548.0,833.0L548.0,839.0895232382107L548.0,845.1790464764215L556.0263726558869,844.8333228089602C562.7576514053317,844.543383321257 564.005827403767,844.7306318390117 563.7619705563492,845.9937995707494C563.5319333559905,847.1853821392493 561.8031497165738,847.5 555.4855979004623,847.5L547.5,847.5L547.2043100892237,854.25L546.9086201784473,861.0L557.5767548046658,861.0C566.9461586639197,861.0 568.0933375183893,861.1826088832493 567.0,862.5C566.027610067477,863.6716581911603 563.277544345369,864.0 554.4365722789328,864.0C548.2113762193321,864.0 542.9382714652394,863.6625 542.718561714282,863.25zM578.2517194551324,863.3408666620285C577.4559492349417,863.0180484331772 577.2359733162407,861.9079887670262 577.6449009038652,860.2786914820738C578.6086030016723,856.4389964872186 578.7334961833536,854.5444781364886 578.8723768117381,841.6589750072509L579.0,829.8179500145018L589.6677627358604,830.1589750072509C597.0591758886014,830.3952622850271 600.4631580960581,830.8839077677583 600.7510960691936,831.75C600.9796598978038,832.4375 601.6113095238095,833.0 602.1547619047619,833.0C605.0516018711489,833.0 606.508901018347,836.565281514894 606.8441980662653,844.4727028380055C607.1216618857216,851.0162239813709 606.8223001400414,853.2453523490937 605.3001672439519,855.9699731349716C601.9048913908355,862.0475233849907 599.1689345404632,863.310408054513 588.7834963646488,863.5938691193621C583.6775733640919,863.7332306317292 578.9382737548096,863.619379525929 578.2517194551324,863.3408666620285zM683.5,863.3870854217986C679.2102359877703,862.3357033588054 676.7375995962923,860.4059765829331 674.7909738822647,856.5902749610743C673.0975722476888,853.2709335402006 672.873160147538,851.5422586617906 673.4300379266472,846.1068126343107C674.7167993433615,833.5472843263533 678.3083013197397,830.0 689.7376253899699,830.0C696.336495140292,830.0 696.8351406155119,830.1684739488452 700.202292401611,833.5356257349442C702.8143357571605,836.1476690904939 703.8977624908362,838.2374431754973 704.3498286982872,841.5356257349443C705.0377204896074,846.5543435057588 704.148037581301,855.0 702.9314636886719,855.0C702.4932850975151,855.0 701.852837281782,855.8883081653341 701.5082463203759,856.9740181451871C700.0719166571442,861.4994921836418 690.1764951495409,865.02343353416 683.5,863.3870854217986zM716.0,859.1570015832062C716.0,856.4933524539697 716.2941544195252,848.8433524539697 716.6536764878338,842.1570015832062L717.3073529756674,830.0L727.6191982320611,830.0C737.702110418396,830.0 737.9984118794505,830.0658546878155 740.9655217442273,832.9662964375908C742.8233313311226,834.7823628235818 744.0,836.9521598565567 744.0,838.561925938191C744.0,841.9884177856653 740.3960078095804,847.0 737.9319057893617,847.0C735.8872542853669,847.0 735.1775782590578,850.6989342113335 736.8670850272224,852.55C737.3439817921948,853.0725 738.4416676919848,855.6375 739.3063870267556,858.25L740.8786039990663,863.0L738.500624167846,863.0C736.4082652730746,863.0 735.8520732481228,862.0991693893944 733.8699642657213,855.5L731.6172841948168,848.0L726.3086420974084,848.0L721.0,848.0L721.0,855.3930111958157C721.0,861.2119798133461 720.6632223651696,862.9152560958721 719.4182125317642,863.3930111958157C716.4385449993641,864.5364169116136 716.0,863.9929513384213 716.0,859.1570015832062zM315.5892140360674,860.75C315.7607426972738,859.5125 316.11975205850075,852.7832307796712 316.3870126165717,845.7960683992692L316.8729409039735,833.0921367985385L310.68647045198674,832.7960683992692C307.20465036419847,832.6294375379509 304.6082482944468,832.062812045222 304.7476012736943,831.5C304.89517329217466,830.9039932982633 311.0933115591276,830.3882785946884 320.0897821801532,830.2234572806235C331.9809224802469,830.0056036964178 335.0948986020134,830.2178281776957 334.7628119032862,831.2234572806235C334.49804479580916,832.0252283536518 332.0864455919971,832.6096845088449 328.2786222315584,832.7949143283331C321.0603856896966,833.1460421315717 321.3958370166028,832.3841381484185 320.3733514278181,850.75C319.7186172696817,862.5103193920191 319.6031325158946,863.0 317.48434947259307,863.0C315.76986344391116,863.0 315.34694132553153,862.4978856138647 315.5892140360674,860.75zM335.9468411908475,861.0715519391138C336.52607853588137,859.9321983726012 337.45,858.1061059799972 338.0,857.0135688444382C338.55,855.9210317088792 339.0,854.3835317088792 339.0,853.5969021777715C339.0,852.8102726466639 339.359754203472,852.0166666666667 339.79945378549337,851.8333333333333C340.2391533675147,851.65 341.5761851846998,848.575 342.7706356014602,845.0C347.867369302268,829.7454337788204 347.3856588811457,830.5314157013981 351.8441045039838,830.1952911547176L355.8858438857276,829.890582309435L358.0267288867875,836.6952911547176C359.20421563737045,840.4378810196229 360.527102027597,845.75 360.9664764206243,848.5C361.40585081365157,851.25 362.44909712282396,855.6375 363.28480155211844,858.25C364.7904592780464,862.9568445147614 364.78387800437383,863.0 362.5604197088419,863.0C360.8090060514836,863.0 360.0535697770178,862.1221659123607 359.1181461170411,859.0L357.9197169672341,855.0L350.45985848361704,855.0C344.495539831513,855.0 343.0,855.3007174669863 343.0,856.5C343.0,857.325 342.5812979288841,858.0 342.0695509530758,858.0C341.55780397726755,858.0 340.99530397726755,859.0125 340.8195509530758,860.25C340.5890023163852,861.8733230649474 339.719255568451,862.589559637184 337.6968411908475,862.8215519391138C335.1554212512224,863.1130796638436 334.9920187996105,862.9496772122317 335.9468411908475,861.0715519391138zM380.40622565047624,857.126081997463C381.10989197005165,850.9064939170258 380.8530166242501,850.2087992145382 372.37843205885827,835.3219300884556C369.40271920390546,830.0946475607208 369.4099873256579,829.9913368156436 372.75,830.0403783817126C375.205506808877,830.0764327057951 375.9398791416286,830.9995687286292 379.6076251537962,838.6606933476145L383.7152503075925,847.2406299318037L389.3921706985397,838.6203149659018C394.12697533414166,831.4305880629162 395.503967667018,830.0 397.6895331068555,830.0C400.0994380279117,830.0 400.18745875402084,830.1406022022638 398.7850797498734,831.75C397.9463872939804,832.7125 394.72664289103,837.5254914220773 391.6300921877613,842.445536493505C386.4640405740868,850.6537685608082 386.0,851.8694855046017 386.0,857.195536493505L386.0,863.0L382.8708337250085,863.0L379.74166745001696,863.0L380.40622565047624,857.126081997463zM435.49788658512466,858.25C435.8966223595123,855.6375 436.5142117408131,848.8875 436.87030743245975,843.25L437.51775414454454,833.0L431.2588770722723,833.0C426.3620974524747,833.0 425.0,832.6735602640666 425.0,831.5C425.0,830.2306771348242 427.40249385727134,830.0 440.62244471544216,830.0C454.39567976511717,830.0 456.09753339216354,830.1775531646407 455.0,831.5C454.13156423392286,832.5464010833398 451.82654245710506,833.0 447.37755528455784,833.0L441.0,833.0L441.0,838.8463752901257C441.0,842.0618816996947 440.707615780142,848.8118816996947 440.3502572892045,853.8463752901257C439.71954477427255,862.7319011538009 439.6283527579793,863.0 437.2367135141417,863.0C434.8623579798929,863.0 434.7992318214818,862.8275565857366 435.49788658512466,858.25zM502.34578893597865,854.75C502.699011889158,850.2125 502.9907096775907,842.7875 502.9940062436069,838.25L503.0,830.0L506.03138479633867,830.0C508.0046623775506,830.0 509.28916683704887,830.610838857775 509.711377932843,831.75C510.068112519934,832.7125 511.3354987229216,835.075 512.5277917172598,837.0C513.720084711598,838.925 516.6157169701472,843.7625 518.9625300695915,847.75C521.3093431690357,851.7375 523.5655822446745,855.0 523.9763946821222,855.0C524.3872071195698,855.0 524.8001820772838,849.7583988487556 524.8941168103754,843.3519974416791C524.9880515434671,836.9455960346027 525.3018607539572,831.3205960346027 525.5914706114643,830.8519974416791C525.8810804689713,830.3833988487556 527.0456022883008,830.0 528.1792968766407,830.0C530.1973374428165,830.0 530.2228602673584,830.2673528956951 529.3964746897445,842.75C528.9322278986118,849.7625 528.5625274611007,857.1875 528.5749181619422,859.25C528.596425519136,862.8300173678358 528.4479198613072,863.0 525.2987233544634,863.0C523.3078225986869,863.0 522.0,862.4991287905822 522.0,861.7366516240477C522.0,861.041810017274 520.4911204819289,858.229310017274 518.6469344042863,855.4866516240477C516.8027483266437,852.7439932308215 513.8308957607984,847.6851011693161 512.0428175912966,844.244669265147C510.2547394217948,840.8042373609779 508.388618939866,837.7401797135092 507.8958831870103,837.4356522707722C507.1332077751611,836.9642929438654 506.74470818030545,843.3605456887863 506.5405005624634,859.7506558060977C506.506202396694,862.5034949005573 506.1327286784291,863.0012111797737 504.1017826923718,863.0006558060977C501.7127605491222,863.0000025144698 501.70602777674725,862.9683681266569 502.34578893597865,854.75zM641.1440325185066,852.7510290811393C641.4982504036852,847.1129630865127 641.8357504036852,839.6875 641.8940325185066,836.25L642.0,830.0L654.5,830.0C664.9444444444445,830.0 667.0,830.2466666666667 667.0,831.5C667.0,832.7331424493785 665.224339114246,833.0 657.0190520282149,833.0C647.362644734806,833.0 647.0188308135766,833.0767907160174 646.4453733234816,835.3616273470573C646.1193714203602,836.6605223879387 645.9982980076635,839.183544244246 646.1763212952667,840.9683425832956L646.5,844.2134304724766L653.5,844.3567152362383C658.9918734383282,844.4691297774126 660.5,844.8231699775012 660.5,846.0C660.5,847.1683853284854 658.8971957543464,847.5649543722088 653.25,847.7938095527206L646.0,848.0876191054413L645.8815789473684,854.7938095527206C645.8164473684211,858.4822142987243 645.8164473684211,861.8375 645.8815789473684,862.25C645.9467105263158,862.6625 644.7625,863.0004630865127 643.25,863.0010290811393L640.5,863.0020581622787L641.1440325185066,852.7510290811393zM596.9126378253292,859.25C598.6037321294272,858.2875 599.9901999249499,856.975 599.9936773709355,856.3333333333333C599.997154816921,855.6916666666666 600.5358314103103,854.9880561965632 601.190736467356,854.7697545108813C602.9897842633289,854.1700719122236 603.5468276421591,841.390273887476 601.9074380648321,838.3270464420868C599.9558287644643,834.6804311077922 595.8998081168138,833.0 589.0496599268843,833.0L583.0,833.0L583.0,839.3491223373276C583.0,842.8411396228578 582.7089687939697,849.1411396228578 582.3532639865994,853.3491223373276L581.7065279731986,861.0L587.772224440993,861.0C591.711090823067,861.0 594.9160164709203,860.386393191652 596.9126378253292,859.25zM694.633166317178,858.7683187296882C698.9440589664725,855.8144477670871 700.0,853.1928166470536 700.0,845.4438453432067C700.0,839.6992703321034 699.6826504323398,838.6497208259632 697.1417368887217,835.9908983643325C694.6706014775014,833.4050920296045 693.5652896569329,833.0 688.9809361950047,833.0C684.2843576510055,833.0 683.3539429241667,833.3634138177309 680.839199306283,836.1801083971922C677.9363460375184,839.4315138323042 677.3024689852549,842.6650092492964 677.8421528568304,851.4684611214517C678.092918348801,855.5590075617537 680.29179537705,859.0 682.6549875621121,859.0C683.3947444029504,859.0 684.0,859.45 684.0,860.0C684.0,861.8908733765726 691.3122152291504,861.0438708682337 694.633166317178,858.7683187296882zM356.9643784711311,851.25C356.9447866302532,850.8375 356.228929468554,847.8 355.37358477846624,844.5C354.5182400883785,841.2 353.5831950648225,837.2625 353.29570694834194,835.75C352.6931549396257,832.5799214439188 351.0,832.0267732271412 351.0,835.0C351.0,836.1 350.60848247504026,837.0 350.12996105564497,837.0C349.6514396362497,837.0 348.68509819895144,839.1375 347.98253563942666,841.75C347.2799730799019,844.3625 346.3214906048616,846.9275 345.8525745837817,847.45C345.3836585627018,847.9725 345.0,849.21 345.0,850.2C345.0,851.7333333333333 345.88888888888886,852.0 351.0,852.0C354.3,852.0 356.983970312009,851.6625 356.9643784711311,851.25zM738.3416582248087,841.75L740.3905018457978,839.0L738.3416582248087,836.25C736.4614821829452,833.7263890898474 735.663337080299,833.4759563052262 728.6464073019099,833.2079357460527L721.0,832.9158714921056L721.0,839.0L721.0,845.0841285078944L728.6464073019099,844.7920642539473C735.663337080299,844.5240436947738 736.4614821829452,844.2736109101526 738.3416582248087,841.75zM324.0,728.0C324.0,727.45 321.9688940200028,727.0 319.4864311555617,727.0C317.0039682911207,727.0 314.1914682911207,726.6025021352079 313.2364311555617,726.1166714115732C312.2813940200028,725.6308406879384 310.15,724.6706325151085 308.5,723.9828754719512C306.85,723.2951184287938 304.496892350927,722.2716020631066 303.2708718909489,721.7083946593127C300.1097121365102,720.2562259260874 290.0,709.5042965913266 290.0,707.5944936050141C290.0,706.7175221222564 289.55,706.0 289.0,706.0C288.45,706.0 288.0,705.175 288.0,704.1666666666667C288.0,703.1583333333334 287.6781967505289,702.0115300838623 287.2848816678421,701.6182150011755C284.89664574794614,699.2299790812793 281.6491246266177,671.9380929106429 283.61204543306064,670.7520174621611C284.1004204448773,670.4569217001382 291.25,670.0544967775971 299.5,669.8577398565143L314.5,669.5L315.0968875666689,678.0C315.42517572833685,682.675 316.4037358610408,688.075 317.2714656393444,690.0C318.93213841370607,693.6840905666461 324.98925769368776,699.9901089256902 328.68425854591067,701.88176726759C333.90388188999975,704.5539571899502 345.65600294507897,702.0314506750861 346.70675442976005,698.0133708251051C346.99633399374915,696.9060168712973 347.6307786141396,696.0 348.116631363961,696.0C348.60248411378245,696.0 349.0,695.1 349.0,694.0C349.0,692.9 349.45,692.0 350.0,692.0C350.57142857142856,692.0 351.0,689.0 351.0,685.0C351.0,681.0 350.57142857142856,678.0 350.0,678.0C349.45,678.0 349.0,676.65 349.0,675.0C349.0,673.35 348.55,672.0 348.0,672.0C347.45,672.0 347.0,671.169766320812 347.0,670.155036268471C347.0,665.145568687912 335.3306668711262,651.831548048924 320.0,639.3496291999893C318.075,637.7823331399952 316.35,636.1625 316.16666666666663,635.75C315.9833333333333,635.3375 315.40123008484073,635.0 314.87310389223865,635.0C313.80680697816996,635.0 307.0960332784241,629.0837035256347 303.0885930207816,624.6106375746867C301.6648668593517,623.0214882407644 300.03518935153846,621.2214882407643 299.4670874478632,620.6106375746867C295.9971527611468,616.8795958356706 290.0,606.6546595217039 290.0,604.4695836298405C290.0,603.6613126334282 289.6024597186766,603.0 289.11657715261464,603.0C288.6306945865527,603.0 287.9315116644389,601.7625 287.5628373256951,600.25C287.19416298695126,598.7375 286.41356723922263,595.475 285.8281801085203,593.0C284.1488405017941,585.899800305379 283.69265201717127,570.0226069722955 285.0380415075758,565.5C286.82003135560313,559.5097348992788 289.79161118531727,552.4530492697239 291.5,550.1546240567748C295.37628332244975,544.9395657256252 301.9048398209834,538.6699821603554 304.91714785896744,537.2697038254385C306.8877165365353,536.3536804334514 308.725,535.3294789859656 309.0,534.9937006088035C311.58173242941797,531.8413736072885 338.84706008458477,530.38408954219 349.0,532.8557705849591C355.616702388103,534.4665727757106 360.0,536.2152458401074 360.0,537.2441113757274C360.0,537.6598501190773 360.5765865710682,538.0 361.28130349126275,538.0C361.9860204114573,538.0 365.0695321458747,540.5875 368.1335517899681,543.75C376.7615753714276,552.6553360440968 381.0,564.8063666883314 381.0,580.6364897180478C381.0,587.9843570454756 380.9941579323862,588.0001611211298 378.25,588.0758435431453C376.7375,588.1175574918752 370.1,588.4946199592546 363.5,588.9137601373216C356.9,589.3329003153885 350.9375,589.4756257590903 350.25,589.2309277899922C349.3788281220787,588.9208565328827 349.0,586.127895397611 349.0,580.015135150489C349.0,564.7243494755451 344.10741393196145,558.0 332.98195335995126,558.0C325.5773016266189,558.0 318.65355959854406,563.2662730450933 317.382431405481,569.8651650584402C316.56986740062916,574.0834824171552 317.72620786836,587.1262078683594 319.0281899525635,588.4281899525636C319.5626854786536,588.9626854786541 320.0,590.2100000000006 320.0,591.2000000000004C320.0,592.1900000000002 320.3375,593.0051628719964 320.75,593.0114730488808C321.1625,593.0177832257654 322.37156435949004,594.8417709845182 323.4368096877557,597.0647791794429C325.6406677343408,601.663902374835 341.5281031202186,617.9639837511675 350.5,624.8308845122694C357.50951543342734,630.1958198776358 367.0209043428796,639.8032434180162 370.9625095367039,645.5C378.81545984525394,656.8497786202224 381.4445624995529,666.3523316335685 381.47609475143975,683.5C381.50812553673177,700.9187776273058 379.08908145625895,708.0491916936431 370.1473924600271,716.8926689571724C366.41834465013864,720.5807584820103 358.9277482181193,725.0 356.4054992560933,725.0C355.632474665242,725.0 355.0,725.45 355.0,726.0C355.0,726.55 352.975,727.0 350.5,727.0C348.025,727.0 346.0,727.45 346.0,728.0C346.0,728.6060606060606 341.6666666666667,729.0 335.0,729.0C328.3333333333333,729.0 324.0,728.6060606060606 324.0,728.0zM442.0,728.0C442.0,727.45 440.425,727.0 438.5,727.0C436.575,727.0 435.0,726.55 435.0,726.0C435.0,725.45 433.875,725.0 432.5,725.0C431.125,725.0 430.0,724.5987836134436 430.0,724.1084080298747C430.0,723.6180324463056 428.842836928953,722.926386616638 427.4285265087844,722.5714172972797C424.00461781746793,721.712070918741 411.9894631937584,709.5309577487112 409.60286198724157,704.49953693717C408.55943608022443,702.2997916217265 407.3906296911156,699.825 407.0055144558885,699.0C406.62039922066145,698.175 405.7610378226823,695.025 405.09582246037917,692.0C404.430607098076,688.975 403.4619134871849,684.58104195556 402.9431699917322,682.2356487901334C401.7343202330059,676.7700805719334 401.6915766421377,575.7264377784911 402.8975743902081,574.4500000000004C403.3912403048226,573.9275000000001 404.0407550072931,571.7 404.3409403956981,569.5C405.31026799400684,562.3959876174866 406.2069895090641,559.0 407.1134993589932,559.0C407.60107471154697,559.0 408.0,558.2935788702349 408.0,557.4301752671886C408.0,555.2968205406064 412.8901808857582,548.3451132318897 417.95074687719864,543.2845472404481C422.462168842056,538.7731252755899 431.04063118987597,534.0 434.63732732922676,534.0C435.8718786043396,534.0 437.1600813061875,533.55 437.5,533.0C439.01937764555385,530.541595327747 473.45702785422134,532.4345170020044 476.45000000000164,535.1409503484002C476.9725000000025,535.6134276567801 478.21000000000254,536.0 479.20000000000164,536.0C480.19000000000074,536.0 481.0,536.3401498809227 481.0,536.7558886242725C481.0,537.1716273676225 482.32423900788865,538.097942411804 483.94275335086365,538.8143665002315C486.7336035073113,540.0497168620918 494.0,546.7335514415665 494.0,548.0653030539193C494.0,548.4082933117177 495.07729805677144,549.9426517068973 496.3939956817143,551.4749883765406C497.71069330665716,553.007325046184 499.785926547836,557.2398176626801 501.0056251065562,560.8805275243097C503.05095032568386,566.9856718177747 503.2790787330899,570.1417751958152 503.9416682127566,601.5C504.83232816798574,643.6520654300253 504.4789950074714,680.0590760046953 503.12158846459306,686.0C502.5560903709836,688.475 501.6376144168627,692.6287753728737 501.0805307887688,695.2306119397196C499.492164107382,702.6490143209418 496.60952419330187,708.0095144613234 490.7183060545468,714.5C485.5773772559372,720.16387515058 478.5245538776165,725.0 475.4054992560933,725.0C474.632474665242,725.0 474.0,725.45 474.0,726.0C474.0,726.55 472.2265576474687,727.0 470.05901699437493,727.0C467.8914763412812,727.0 465.8399186938125,727.45 465.5,728.0C465.14624739213394,728.5723837431361 459.9896156835418,729.0 453.44098300562507,729.0C446.4803276685417,729.0 442.0,728.6083966153661 442.0,728.0zM566.0,728.0541156033604C566.0,727.4743520215122 564.6765576474687,727.0 563.0590169943749,727.0C561.4414763412811,727.0 559.8399186938125,726.55 559.5,726.0C559.1600813061875,725.45 557.7835236587189,725.0 556.4409830056251,725.0C555.0984423525313,725.0 554.0,724.55 554.0,724.0C554.0,723.45 553.4375,722.9939634863961 552.75,722.9865855253247C548.1455874152699,722.9371729045147 534.2601856881786,707.0288067457608 532.460014383012,699.7405515325789C532.0851490836899,698.2228548754973 531.3782918614259,696.7337972280286 530.8892205557586,696.431534538204C530.4001492500913,696.1292718483794 530.0,693.6850813061876 530.0,691.0C530.0,688.3149186938124 529.55,685.8399186938125 529.0,685.5C528.3536358617393,685.1005249934459 528.0,666.0930141299406 528.0,631.7511783448213C528.0,580.8483993216662 528.51186903991,569.8146776723416 531.107644405995,564.763568844439C531.5984399826978,563.8085317088804 532.0,562.402710553508 532.0,561.6395218325003C532.0,556.6904559043885 547.8275298583726,538.0 552.0185185185182,538.0C553.1083333333332,538.0 554.0,537.55 554.0,537.0C554.0,536.45 554.9,536.0 556.0,536.0C557.1,536.0 558.0,535.6428243446632 558.0,535.2062763214738C558.0,534.7697282982842 560.5875,533.8400479530313 563.75,533.1403199986894C569.6479566307764,531.8353507882387 590.6422902142466,532.0205416444003 596.5,533.4292074985083C599.5228187421894,534.1561369130784 604.0739361201913,536.0680305374052 605.0,537.0C605.275,537.2767536968039 606.8235769534606,538.1774711182236 608.4412821188012,539.0015942698217C613.6121205129784,541.6358243663277 625.0,554.6628546697133 625.0,557.9437441116274C625.0,558.5396105791151 625.406140989214,559.8085317088802 625.9025355315866,560.7635688444389C629.3023838545607,567.3046991884333 629.500036938943,571.0866884820175 629.4948163586039,629.5C629.4891456014645,692.9503602675701 629.5650829252462,692.0138897629116 623.4046001281777,704.6054630682264C620.6246703072188,710.2874349651188 611.3648482051148,721.0 609.2333446967953,721.0C608.5550051135579,721.0 607.9964891155992,721.3375 607.9921980346649,721.75C607.982855815799,722.6480639939372 603.1403552123675,725.0 601.3006354578844,725.0C600.585285956048,725.0 600.0,725.400767290152 600.0,725.8905939781155C600.0,727.3134222474376 593.4778719201191,728.1848314040112 579.25,728.6629621035868C570.3482458065928,728.9621074700788 566.0,728.762302621666 566.0,728.0541156033604zM655.0,629.9763860727294L655.0,534.9527721454589L672.25,535.2263860727294L689.5,535.5L690.8094813950568,540.0C691.529696162338,542.475 692.4849762757354,545.1897704178185 692.9323260914955,546.0328231507078C693.3796759072555,546.875875883597 694.0753743545379,549.125875883597 694.4783226410119,551.0328231507078C694.881270927486,552.9397704178185 695.771906050564,555.85 696.4575118034076,557.5C698.113883897323,561.4862762872472 706.3500809228284,588.7130455179506 710.0701759798748,602.5C713.2610450556988,614.3256028493781 718.6552306970692,632.2414483112875 720.0059686581317,635.5C721.5130413765839,639.1356972953234 726.013400727374,656.4607297470795 726.0066383179634,658.6007767347733C726.0029872430836,659.7562039388986 726.4696029007348,662.0486572322307 727.043562001633,663.6951173866224C727.6175211025311,665.3415775410142 728.489848590551,669.5712280103662 728.982067530566,673.0943406518492C729.7719816923184,678.748240456824 729.8220091763093,678.3264134848304 729.4083461503716,669.5C729.1505804512495,664.0 728.457612173914,652.075 727.8684166451815,643.0C727.279221116449,633.925 726.7302928368016,606.025 726.648576023743,581.0L726.5,535.5L740.25,535.2217804457362L754.0,534.9435608914723L754.0,629.9717804457362L754.0,725.0L737.6549875621122,725.0C723.3578867739272,725.0 721.111681606237,724.7807376775883 719.7273335984898,723.25C717.9604192953492,721.2962410595087 715.9789219231081,715.7128676872021 713.6054378569845,706.0C712.7318332934658,702.425 711.0792196530729,696.35 709.9329631005558,692.5C708.7867065480385,688.65 707.2441389269396,683.25 706.5050350536694,680.5C705.7659311803992,677.75 704.4334038623646,672.8 703.5438632358148,669.5C702.6543226092651,666.2 701.5443426061129,662.6 701.0772410065878,661.5C700.6101394070627,660.4 699.7322280644509,657.7 699.1263269118949,655.5C698.520425759339,653.3 697.3172318877158,649.025 696.4525627527324,646.0C695.587893617749,642.975 694.4628936177489,638.925 693.9525627527323,637.0C693.4422318877158,635.075 692.3897070795168,631.25 691.6136187345123,628.5C685.435035504113,606.6067400470979 682.0281084227993,592.2652955087858 681.9297147373896,587.7356487901338C681.891057842954,585.9560419555602 681.467523264702,583.6 680.9885267857187,582.5C680.4778549748665,581.3272586196676 680.3528095610563,587.7385129220919 680.6862140365074,598.0C680.9989385034246,607.625 681.6474730816765,615.9275000000001 682.1274019881785,616.4500000000004C682.6073308946803,616.9725000000007 683.0,641.6100000000006 683.0,671.2000000000004L683.0,725.0L669.0,725.0L655.0,725.0L655.0,629.9763860727294zM653.078947368421,721.4166666666667C653.1269312900389,720.2517236807213 653.3638876676575,720.0147673031026 653.6831140350878,720.8125C653.9719846491229,721.534375 653.9364583333333,722.396875 653.6041666666667,722.7291666666667C653.271875,723.0614583333333 653.0355263157894,722.4708333333334 653.078947368421,721.4166666666667zM653.1578947368421,717.0C653.1578947368421,715.625 653.3848684210526,715.0625 653.6622807017543,715.75C653.9396929824561,716.4375 653.9396929824561,717.5625 653.6622807017543,718.25C653.3848684210526,718.9375 653.1578947368421,718.375 653.1578947368421,717.0zM653.3494144433799,704.0C653.3494144433799,699.325 653.5216702173094,697.4125 653.732205052112,699.75C653.9427398869145,702.0875 653.9427398869145,705.9125 653.732205052112,708.25C653.5216702173094,710.5875 653.3494144433799,708.675 653.3494144433799,704.0zM588.665012315197,701.3435620229625C592.5375389331257,699.5195218265501 597.013533748699,693.2642914776417 598.8586910953895,687.0978330844414C600.7168004947417,680.8880893345817 601.6968341156855,593.4734124712613 600.0089478882614,584.5C599.3882225434344,581.2 598.6325565492344,577.0333292300957 598.3296901233726,575.2407316224349C598.0268236975108,573.448134014774 597.378743518263,571.7340763673053 596.8895119472666,571.4317146280599C596.40028037627,571.1293528888145 596.0,570.065085207733 596.0,569.0666753367677C596.0,566.4365215148215 590.0618392677536,560.4870545535681 586.1007767347728,559.1486039988333C581.3461241465058,557.5419978568323 574.4457077655002,557.7181552643902 570.930624406056,559.5358755139034C567.0915022342364,561.5211627456622 562.6067039731055,567.7517058810761 561.0935369193237,573.2021307932371C560.2177250442436,576.3568035376456 559.9800979635467,592.2625254767712 560.200173314334,633.0C560.5120683976827,690.7339441531165 560.6577713149737,692.7382953152223 564.7289439047788,695.2996901135712C565.4280247571505,695.7395196760353 566.0,696.6549962891554 566.0,697.3340825871712C566.0,698.8428738224243 571.2544905900536,702.0506757078512 575.4306437222319,703.0913746014019C579.1854747623916,704.0270798749594 584.4414618751916,703.332941705591 588.665012315197,701.3435620229625zM463.3030607616947,700.3507813922074C468.61384737152787,697.748902445112 470.88344531806314,693.9043194022705 473.0252347897466,683.8819149725575C474.8215422743035,675.4761774673683 475.0,670.6674950857861 475.0,630.6703286585113C475.0,594.2453242550474 474.72338577997556,585.309572482598 473.3881094788029,578.5997822473064C471.0563484119646,566.8826360480031 467.13439660417856,560.9634973966109 460.4780926797964,559.1155603164259C449.3673772604186,556.0309801584128 442.0089303646996,559.3807879977826 436.8057337777766,569.8919992240025C434.5330600552619,574.4831295314117 434.523460471849,574.6919647384071 434.1837030034384,626.9332598656838C433.96156034970204,661.090036428938 434.2052322629058,680.7840495273512 434.8827714476003,683.4332598656838C435.45481235552865,685.6699669395578 436.1857450743038,688.8932251464452 436.5070663782117,690.5960558809891C437.2542911392271,694.5559467229424 444.1032296507907,701.7210646109565 447.7205730443419,702.3272310207865C452.05842007224487,703.0541338533963 459.78569134017016,702.074023186573 463.3030607616947,700.3507813922074zM653.2723641076665,564.0C653.2723641076665,561.525 653.4673801123256,560.5125 653.7057330069091,561.75C653.9440859014926,562.9875 653.9440859014926,565.0125 653.7057330069091,566.25C653.4673801123256,567.4875 653.2723641076665,566.475 653.2723641076665,564.0zM214.53973393543112,487.0642908580343C214.17796157713155,486.47893088611545 212.0819660112501,486.0 209.8819660112501,486.0C207.46994335208353,486.0 206.12732200375004,485.6030056647916 206.5,485.0C206.83991869381245,484.45 206.24291445500592,484.0 205.17332391376328,484.0C200.0284442121545,484.0 185.62394762577316,472.6881856743749 182.88877406125823,466.5C182.4025748618022,465.4 181.60585148372988,463.825 181.11827766554197,463.0C179.75909567812272,460.70019410847715 178.2322823270297,456.81845280838394 177.38162297527825,453.5C176.95865841575707,451.85 176.46769541686888,424.0451886815224 176.29059408886005,391.7115304033831C175.9816576780622,335.3085409468943 176.05131130387815,332.59070106859383 178.00715839584947,324.73229030568115C180.28532201065104,315.57884188748784 182.70734922081826,311.5532215367058 190.58533661534807,303.82626166833927C198.43412621685724,296.1279398471817 203.0951486799747,293.8638806913536 216.8262900734765,291.07990152855143C223.30129498042197,289.76709888357186 229.71144713919932,289.69533731995506 233.60077673477258,290.8921113853743C235.19534953064766,291.3827726473302 239.0875,292.3546443228601 242.25,293.0518262198852C245.4125,293.74900811691026 248.0,294.5877078744145 248.0,294.9156034587835C248.0,295.24349904315244 249.34739590466685,296.10819265069574 250.99421312148192,296.83714480887977C256.030161680885,299.0662723243061 264.33816307398257,308.25819848451886 266.3343372500376,313.8093721360599C269.4409398059385,322.4485432369544 271.0,332.11910902401945 271.0,342.7496264864895L271.0,353.0L256.6079262251453,353.0L242.2158524502906,353.0L241.73228945151865,341.75C241.46632980219408,335.5625 240.70033985702864,328.73546147153445 240.03008957337326,326.5788032700766C237.1935625954154,317.45173638200856 228.0339368859457,313.7466792825157 219.26188526410354,318.1780907016333C215.40266184606307,320.1276695984386 214.09110460953926,321.6115254669333 211.0828138531893,327.43164271899644L207.5,334.3632854379929L207.5,390.52861968402703C207.5,433.3792747955373 207.79632778192413,447.32288547513804 208.75,449.34697696503054C209.4375,450.80613963426373 210.46813902850027,453.0125 211.0403089522228,454.25C213.0686780207388,458.6369952233031 218.30077900821843,461.0 225.98597559402032,461.0C229.99532519800678,461.0 233.0,460.5716189981558 233.0,460.0C233.0,459.45 233.46881604911917,459.0 234.04181344248704,459.0C235.45786269366346,459.0 238.45731547520592,456.0207936931778 239.97751721907048,453.1043625572488C240.6795515917128,451.75754466868256 241.50507882097435,444.7526813419147 241.86312655247616,437.1043625572488L242.5,423.5L257.4044204783522,423.22238251756767L272.3088409567045,422.9447650351354L271.69788934673306,439.22238251756767C271.0341241769924,456.9071145894018 269.70394831150503,462.4845645179405 264.28065526060016,470.3229706405519C261.2045728661295,474.76890097257626 252.61517779464427,482.0 250.4102023668902,482.0C249.63459106510058,482.0 249.0,482.45 249.0,483.0C249.0,483.55 247.65,484.0 246.0,484.0C244.35,484.0 243.0,484.40273403665975 243.0,484.8949645259106C243.0,486.89237008910027 215.7186610983876,488.9718350779584 214.53973393543112,487.0642908580343zM332.55150415739763,487.08333547723123C332.18325817701646,486.4875009647541 330.3274176787216,486.0 328.4274141611868,486.0C326.527410643652,486.0 324.1914682911207,485.60250213520794 323.2364311555617,485.1166714115732C322.2813940200028,484.6308406879384 320.15,483.6285488937303 318.5,482.8893563133329C314.938335279272,481.2937465342872 305.18385630094934,474.01016358799484 302.8623567206164,471.2128667578131C299.6376892672662,467.32729549944867 296.13842333819525,460.3838551715911 293.93565349784774,453.5C291.7665539958211,446.7213676838948 291.6812790565867,444.8999056403209 291.23912361535486,395.9024587478793C290.7688460006389,343.78865373045454 291.42041172559254,329.12833754046335 294.5490389377927,321.4289201152454C297.8213305761315,313.3759506971018 298.5064767132247,312.0 299.2441113757279,312.0C299.6598501190776,312.0 300.0020823583094,311.4375 300.0046274629098,310.75C300.01369595134463,308.30036166373014 309.83100522076745,299.127725827241 314.795852131165,296.9300709609735C316.55813345902425,296.150009419138 318.0,295.1716273676226 318.0,294.75588862427264C318.0,294.3401498809227 318.90610597999773,294.0 320.0135688444394,294.0C321.12103170888105,294.0 322.80853170888105,293.59843998269764 323.7635688444394,293.1076444059948C328.9165127834604,290.4595357638205 352.1483123819743,288.81292349186185 353.5,291.0C353.8399186938125,291.55 355.3540991291695,292.0 356.86484541190464,292.0C360.4000014860254,292.0 372.0,295.9024987987951 372.0,297.0918043246699C372.0,297.5913119461015 372.5024356982326,298.0 373.11652377385025,298.0C375.2272952287489,298.0 385.91193721481045,309.8272604496076 388.3307724962767,314.84126453838974C389.6624095257922,317.60161517570845 391.07486017069886,322.02906500620117 391.4695517071803,324.6800419394846C391.86424324366175,327.3310188727681 392.7075588290159,330.13152302487936 393.3435863413006,330.9033844997318C394.187682285401,331.9277507853821 394.4959095240288,346.91687948500044 394.48485426198204,386.4033844997318C394.46840115488664,445.1695804596673 393.9577473989302,451.9050963806478 388.6452223161324,463.4280484430492C385.48238125917385,470.28830139476497 374.0325748148354,482.0 370.48856905956154,482.0C369.6698560768027,482.0 369.0,482.45 369.0,483.0C369.0,483.55 368.1,484.0 367.0,484.0C365.9,484.0 365.0,484.40468783619474 365.0,484.89930630265496C365.0,486.8620891231082 333.7161243606701,488.967730550111 332.55150415739763,487.08333547723123zM806.5,487.0C806.1600813061875,486.45 803.8569660112502,486.0 801.3819660112501,486.0C798.6366100187503,486.0 797.1229503745371,485.6100791094444 797.5,485.0C797.8505230083192,484.4328418587006 797.0103843164582,484.0 795.5590169943749,484.0C794.1515576474687,484.0 793.0,483.55 793.0,483.0C793.0,482.45 792.2772569533934,482.0 791.3939043408741,482.0C788.1245864310661,482.0 776.6242729516757,471.75093830535855 774.0015942698217,466.5C773.1774711182236,464.85 772.2585998270133,463.275 771.9596580671321,463.0C771.0056157943355,462.12236542287263 769.0029193910606,454.7478980282223 767.4787255623646,446.5C765.3167604669154,434.8009186153865 765.3432009643128,346.5993365263206 767.5126831371629,333.22256137616654C768.340235414375,328.11997013305813 769.4634258219183,323.05747013305813 770.0086618205925,321.97256137616654C770.5538978192666,320.88765261927495 771.45,319.10610597999755 772.0,318.01356884443896C772.55,316.9210317088804 773.0,315.3460317088804 773.0,314.51356884443896C773.0,313.68110597999754 773.45,313.0 774.0,313.0C774.55,313.0 775.0,312.2863412242299 775.0,311.41409160939975C775.0,308.9543172073856 785.9577338878307,298.7776004740009 791.5144311452802,296.0767335845671C801.2607259280534,291.3394870415483 804.1244151941942,290.7399869825465 817.5,290.6367753300898C828.6387314182994,290.5508241815871 841.6019481261418,293.55263125354503 845.0,297.0047699674782C845.275,297.28414714639507 847.5965918427847,299.0848645678148 850.159092983966,301.00636423729986C854.404406359101,304.18972603803707 857.0458804632582,308.1198070903871 860.9086867291722,317.0C862.5407795275452,320.7520128886175 863.9578966082529,332.4017447532742 863.9801914387721,342.25L864.0,351.0L850.139290952463,351.0L836.2785819049261,351.0L835.5763454562074,345.75C835.1901154094121,342.8625 834.5138712876001,337.54747656492447 834.0735807410695,333.9388368109433C833.0668507516681,325.68763566682054 830.5669952073155,320.3445649093452 826.8024318053078,318.3978335159002C822.8509203721077,316.35442753833985 815.20613008787,316.31259123562194 811.3503687790453,318.31327172122076C807.380631653912,320.37309206877023 801.0920401320458,327.6451900939637 800.4026338641538,330.97318152425044C800.1147417549572,332.3629316859127 799.4563750908512,334.28139402000244 798.9395968328072,335.2364311555609C797.7218221117355,337.486951689784 797.674783896149,447.0 798.8915919701253,447.0C799.3819675536944,447.0 800.0709425026105,448.1465214345112 800.4226474121613,449.547825410025C801.1430265464634,452.418044498135 807.4657292494926,459.0 809.5025158209655,459.0C810.2344654527678,459.0 811.0148180919194,459.5444542757582 811.236632796858,460.2098983905738C811.7735047481615,461.82051424448423 826.2474704801787,461.75758855946384 826.7859007265306,460.1422978204083C826.9953219936054,459.5140340191837 827.5979827157857,459.0 828.1251467758203,459.0C829.4737601491925,459.0 832.4839109600978,455.95863333709127 834.0635642266643,453.0C834.9943660380007,451.2566419305226 835.5250237510646,444.68568606061115 835.8168959270942,431.2890836311009L836.2354447340483,412.0781672622017L826.8677223670242,411.7890836311009L817.5,411.5L817.5,399.5L817.5,387.5L840.75,387.23156957411084L864.0,386.9631391482216L863.998632915144,419.23156957411084C863.9969059253879,459.9951319415233 862.7649605438077,468.81012711111487 856.099388194439,475.7533968381709C853.0519693826478,478.92777552203216 843.9488901217344,484.0 841.2992778007629,484.0C840.5697492814612,484.0 839.1914682911207,484.40245502907777 838.2364311555618,484.89434450906174C833.3391618618226,487.41667076900217 807.8045739809346,489.11084504199107 806.5,487.0zM419.24494702709165,388.77541860100473L419.5,293.5L439.8721195717119,293.22890552730996C453.360819954114,293.04940961847393 460.6833902727687,293.32227412094153 461.5439477723797,294.0364734115642C462.25878751830544,294.6297377078836 463.1293413217819,297.00173022059414 463.47851178010524,299.30756788425424C463.82768223842857,301.6134055479144 464.51083895431793,304.4 464.99663781541494,305.5C466.4255538611084,308.7355111881351 470.99999999999994,328.3408687508361 471.0,331.22946726960663C471.0,332.6883415775106 471.40246505245557,334.13070309295165 471.89436678323455,334.43471508169796C472.3862685140135,334.73872707044427 473.035232772475,336.67778471791297 473.3365095798156,338.7437320760729C474.39065710071907,345.97234454427155 475.8175209011424,353.5537351702798 477.3370684124793,360.0C478.17978624932397,363.575 479.62237001669405,370.775 480.54281011774617,376.0C481.4632502187983,381.225 482.6176616200085,386.5336738595066 483.1081687871023,387.79705302112586C483.59867595419604,389.0604321827451 484.0,391.9025158370853 484.0,394.1127944752152C484.0,396.3230731133451 484.40933556189043,398.8963334018612 484.9096345819787,399.83115067191767C485.72950736315346,401.3630969766618 487.1419035191552,414.26677021771707 488.9232933959054,436.5L489.5642762469601,444.5L490.39737366201473,432.0C490.85557724029474,425.125 491.89711763537906,416.575 492.7119078733132,413.0C494.2646582519635,406.18710221940137 495.39342430001926,399.3961634293082 496.5815991601381,389.7189696123048C496.9719893193282,386.5394028990725 497.6758345734204,383.7003452516038 498.14569972478733,383.4099526179299C498.6155648761543,383.119559984256 499.0,381.3399817031588 499.0,379.4553342154917C499.0,377.57068672782464 499.4244264962794,374.10974437529336 499.943169991732,371.7643512098667C500.4619134871846,369.41895804444 501.34728550906925,365.25 501.91066337369796,362.5C509.70517330696623,324.4528851553029 516.8135170479995,294.858468529432 518.4201891368793,293.76531277451704C519.0140851115957,293.3612348005014 528.1647720044397,293.0237348005014 538.7550488987549,293.01531277451704L558.0100977975098,293.0L557.7550488987549,388.25L557.5,483.5L542.0,483.5L526.5,483.5L526.6445115577485,438.5C526.7239929145102,413.75 527.3141824116827,385.4 527.9560437736875,375.5C528.5979051356921,365.6 529.2870817617193,350.975 529.487547387081,343.0L529.8520303422841,328.5L528.9096596081033,339.0C528.3913557043039,344.775 527.5494998055209,351.75 527.0388687219188,354.5C526.5282376383168,357.25 525.4252783212562,364.45 524.5878480173396,370.5C522.9442496692268,382.3741463732307 521.0901822445702,392.4400998713267 518.5095142534058,403.5C517.6111723470241,407.35 516.651123935636,412.075 516.37607333921,414.0C516.101022742784,415.925 515.4817897401394,418.4 515.0,419.5C514.5182102598606,420.6 513.9271120986532,423.075 513.6864485306505,425.0C512.9292130629524,431.0569129237798 506.880067689542,460.4068625114362 505.9575442330333,462.5C505.472733365279,463.6 504.6197061599174,467.1119840395617 504.0619282211187,470.3044089768038C503.50415028232,473.4968339140459 502.5696897156207,477.8843339140459 501.9853491840093,480.0544089768038L500.9229118538067,484.0L489.0839006423455,484.0C480.81562128858445,484.0 476.9416254228669,483.62299091179136 476.23939640199467,482.75C475.17930334536095,481.432122816649 469.0,452.69382362959465 469.0,449.0814894727741C469.0,447.9217445338664 468.59077958490406,446.19146829112094 468.09062129978673,445.2364311555619C467.5904630146694,444.28139402000284 466.22536920864513,438.1 465.05707950862165,431.5C459.95672371719184,402.686642985246 457.74936039973414,391.3866706160907 456.9041863753731,389.7635688444382C456.4068838689179,388.80853170887923 456.0,386.6107405106043 456.0,384.87958840382726C456.0,383.1484362970502 455.58169121951124,380.104830317053 455.0704249322472,378.116019559389C452.84725134292154,369.46793995635807 450.1924108215507,353.42427882494417 448.510078597536,338.47071030198975L447.16332904712147,326.5L447.4560555788752,339.0C447.61705517133976,345.875 448.3152197052136,356.675 449.0075323208172,363.0C449.8452318780864,370.6532618073255 450.305371657713,392.7301940435443 450.3831412655027,429.0L450.5,483.5L434.74494702709165,483.77541860100473L418.9898940541833,484.0508372020094L419.24494702709165,388.77541860100473zM584.4607057252708,482.75C584.1986171501424,482.0625 584.1002403084948,439.20000000000005 584.2420905216095,387.5L584.5,293.5L600.25,293.22460705634523L616.0,292.9492141126905L616.0,388.47460705634523L616.0,484.0L600.4686152036613,484.0C588.9643205303512,484.0 584.8136736307933,483.6758909318265 584.4607057252708,482.75zM642.6666666666667,483.33333333333337C642.3,482.9666666666667 642.0,439.9916666666667 642.0,387.83333333333337L642.0,293.0L658.922447917128,293.0L675.844895834256,293.0L676.9921198574268,296.75C677.6230930701706,298.8125 678.5284565889573,301.4 679.0040387880636,302.5C680.2988704842816,305.49488683242566 683.4536684695007,315.22180233115034 686.950293759437,327.0C688.6647335758774,332.775 691.8522792230933,343.12591595444104 694.0337285310279,350.00203545431344C696.2151778389626,356.87815495418585 698.0,363.02419107527317 698.0,363.65989350117417C698.0,364.29559592707517 700.2008617363085,371.71967997263414 702.8908038584634,380.1578580468607C709.7137687571076,401.5610668128679 710.758644963934,405.167077490517 712.0396633836235,411.73182338409805C712.658731865028,414.9043205228441 714.0072072334337,421.775 715.0362753134139,427.0L716.9073081861052,436.5L716.3537280661062,426.0C716.0492590001069,420.225 715.3951146582332,413.30107962687856 714.9000739730536,410.61351028195236C714.4050332878742,407.92594093702616 714.0,380.36344093702616 714.0,349.36351028195236L714.0,293.0L728.0,293.0L742.0,293.0L742.0,388.5L742.0,484.0L724.5287833386867,484.0L707.0575666773734,484.0L705.0617769619713,477.25C703.9640926185001,473.5375 701.2180694775512,463.975 698.9595033154183,456.0C696.7009371532852,448.025 694.4623341808361,440.15 693.9848300433093,438.5C693.5073259057825,436.85 691.7713336158885,430.775 690.1270693991005,425.0C688.4828051823125,419.225 686.1743348111356,411.35 684.9971352409298,407.5C678.2760117859901,385.51874384222543 674.5273486993211,373.01385596743523 672.856214304232,367.0C670.8595948400111,359.8148317006174 669.0023179642903,349.3645640139417 669.001178016562,345.30901699437493C669.0005301074528,343.00397634128115 668.4791962199457,340.79615955120687 667.842658266546,340.40275746087656C666.99206107587,339.8770594863036 666.8717101845906,340.9878473622529 667.3885764828096,344.59374046650163C668.9232222467069,355.30012352256296 669.9469231600989,391.8064598040393 669.9727976528508,436.75L670.0,484.0L656.6666666666667,484.0C649.3333333333334,484.0 643.0333333333334,483.7 642.6666666666667,483.33333333333337zM354.57778024780464,458.6669524323462C356.27055938409717,457.5606868671409 358.71010133202833,455.04684164771425 359.99898457654047,453.08062972250923C363.5179463885579,447.71239741086276 364.19091366447645,435.17788953907717 363.7615551506252,383.0C363.42088363818897,341.5998181669423 363.2160031689064,336.981891110771 361.487780809236,331.75C360.44312924888425,328.5875 359.2310211102986,326.0 358.7942071679346,326.0C358.35739322557055,326.0 358.0,325.3466183053523 358.0,324.5480406785607C358.0,323.74946305176917 355.8625,321.62092235627375 353.25,319.81795024412656C349.174103820297,317.005040332543 347.6811109336663,316.5499770905536 342.7297863504592,316.61139609865756C337.88883647286445,316.6714459569867 336.3718862345884,317.1586272483232 333.3103650463822,319.6365222489907C331.30330083638717,321.2609742995345 329.1748969786805,323.4698053596432 328.5805786959229,324.54503571589885C327.9862604131653,325.6202660721545 327.2421763181914,326.725 326.9270584848698,327.0C325.60686814965646,328.1521161413075 324.78219439170766,332.1830994052917 323.4491343738001,344.0C320.81706184404715,367.3319873256525 322.0799487917637,443.642720028678 325.1894141381675,449.1574918619948C327.0061411041178,452.3795360350347 333.5259987623651,459.0 334.88235294117646,459.0C335.4970588235294,459.0 336.0,459.42283563222327 336.0,459.939634738274C336.0,462.5135717955417 350.17799843085305,461.5422992594403 354.57778024780464,458.6669524323462zM796.749144908107,373.3176502499914C796.589514727911,361.3179426124961 796.4587138844444,370.85 796.45847636707,394.5C796.4582388496956,418.15 796.588845360765,427.96794261249613 796.7487130583354,416.3176502499914C796.9085807559059,404.6673578874866 796.9087750883031,385.31735788748665 796.749144908107,373.3176502499914zM355.7500000000001,174.25092059015077C368.53750000000014,174.09264079708976 389.46250000000015,174.09264079708976 402.2500000000001,174.25092059015077C415.0375,174.40920038321178 404.575,174.5387020320799 379.0,174.5387020320799C353.425,174.5387020320799 342.96250000000003,174.40920038321178 355.7500000000001,174.25092059015077zM327.25,169.68128724083516L325.0,166.37624057276955L325.0,121.34175830066125C325.0,72.45146822239731 324.90352498501227,73.36920228771498 330.64676941703465,67.62595785569253L333.2727272727272,65.00000000000001L380.49999999999994,65.0L427.7272727272727,64.99999999999999L430.3636363636364,67.63636363636365L433.0,70.27272727272731L433.0,118.55963835442027L433.0,166.84654943611324L430.41110635800675,169.92327471805663L427.8222127160135,173.0L378.66110635800675,172.99316695445037L329.5,172.98633390890078L327.25,169.68128724083516zM359.0,147.2342724701258C365.325,140.75223930258537 375.6453137303714,129.83528715554053 381.9340305119365,122.97437881002614C388.2227472935016,116.11347046451176 398.68524729350156,105.0002629204981 405.1840305119365,98.27836204555133C412.14427650214367,91.079155357336 417.0,85.24647940797074 417.0,84.08506601420041C417.0,83.00065407190415 415.99987219046756,81.41289115140606 414.77749375659454,80.55670396864906C411.4443182858847,78.22205699123175 346.5556817141152,78.22205699123177 343.2225062434054,80.55670396864907L341.0,82.11340793729813L341.0,119.50701385507784C341.0,154.06500751861262 341.1327050794684,156.9779133859202 342.75,157.91990120052802C343.7125,158.4805059857468 345.175,158.95731868389868 346.0,158.9794849741989C346.825,159.00165126449912 352.675,153.7163056376662 359.0,147.2342724701258zM416.34354146086,157.5136013962828C417.5742665597239,156.28287629741897 417.8355980911129,151.8966542184587 417.86283390215794,132.0136013962828C417.88092551282733,118.80612062832726 417.7196651515635,108.0 417.5044775437939,108.0C417.0063342505716,108.00000000000001 408.3798588002784,117.12474064468631 403.3484121431117,122.97371969290782C401.2317854644003,125.43426552400712 395.225,131.9032463458024 390.0,137.34923263023063C384.775,142.79521891465885 380.0347986823422,147.75704505285034 379.4662192940938,148.3755129373228C378.8976399058454,148.99398082179525 376.4778278978748,151.6375 374.0888592763814,154.25L369.7452799645752,159.0L392.30121141085897,159.0C410.92586173773117,159.0 415.11620778561314,158.74093507152966 416.34354146086,157.5136013962828zM470.9991845870147,119.75L470.9983691740295,87.5L478.49687244377736,87.5L485.9953757135252,87.5L485.9976878567626,113.25L486.0,139.0L500.0,139.0L514.0,139.0L514.0110056638811,141.75C514.0170587790157,143.2625 514.3009378486546,146.1875 514.6418480408564,148.25L515.2616847539507,152.0L493.13084237697535,152.0L471.0,152.0L470.9991845870147,119.75zM536.0,151.0C536.0,150.45 535.3941371064245,150.0 534.6536380142767,150.0C530.5884070049907,150.0 523.6452582907299,144.58585845153368 519.7688176785066,138.39308683453294C511.10197358278964,124.54745072297105 515.0286569403272,102.06306141210196 527.8169428552156,92.30911132161725C533.6136297015902,87.8878312090198 538.7241069259514,86.7108107506286 550.0,87.20001662404025C563.7019434159215,87.79447696099132 570.4888208115907,91.95172440737271 575.7941225316256,103.0C578.1006656731815,107.80336946680333 578.4373484992402,109.76660096944849 578.4522827113487,118.5C578.4623367372496,124.379508032809 577.9114345934793,130.09742024283256 577.1153012339987,132.3767706758121C575.1885524341255,137.89310240458136 570.1512404908306,145.008733127994 566.8394509283539,146.89228152110763C565.2847078097302,147.77652668449844 564.0098000750501,148.8375 564.0063226290645,149.25C564.002845183079,149.6625 562.6234423525312,150.0 560.9409830056251,150.0C559.1562823502086,150.0 558.1394247999211,150.41657707077198 558.5,151.0C558.8984074311811,151.64463676502157 555.0103843164582,152.0 547.5590169943749,152.0C540.5196723314583,152.0 536.0,151.608991635391 536.0,151.0zM604.0,151.0C604.0,150.45 602.9559993738513,150.0 601.6799986085584,150.0C598.0914710981654,150.0 591.4349454126952,143.60165819019846 588.3895537729238,137.22504608547962C585.9179438703263,132.04985041697472 585.6493519882636,130.39550587003185 585.5929733657365,120.0C585.5375041242908,109.77217251487332 585.8002575372232,107.94688151527247 587.9681734375787,103.5C589.3088362606161,100.75 590.7644502102215,98.35000000000001 591.2028711033688,98.16666666666667C591.641291996516,97.98333333333333 592.0,97.25063318824954 592.0,96.53844412203601C592.0,95.82625505582249 594.5295509065883,93.50125505582248 597.6212242368629,91.37177745536934L603.2424484737256,87.5L615.195430492307,87.14248172057228C624.4553730761461,86.86551328415807 628.1008869340893,87.14871674218357 631.3759442383505,88.39947253834794C636.0636137871317,90.18970987282536 644.0,97.03559832107267 644.0,99.28892211787783C644.0,100.08384007171516 642.2,101.92541112515823 640.0,103.3813022366402C637.8,104.83719334812216 636.0,106.42384720132866 636.0,106.9071996882102C636.0,107.39055217509174 635.2643300905004,108.06832542387087 634.3651779788896,108.41336246327495C633.2585903220796,108.83799999013664 631.5602853846274,107.7732880617479 629.10912782777,105.11820670608685C626.257857846091,102.02972561390536 624.4963232902528,101.04701481193263 620.824367806179,100.4963710810145C614.591393585528,99.56167887288129 608.4056095709154,100.71596632701481 605.5444254538955,103.34765811519797C600.2745721632584,108.19482245789156 598.293756304939,122.87813075388017 601.9773077225353,129.78983806729644C606.0317803280117,137.3975309653647 607.3598178946486,138.28244337331478 614.8252256035262,138.3508021806862C624.4911081533521,138.43931016699653 629.9956081118193,134.92758478200895 630.0023275911103,128.66821253176425C630.0045401067159,126.60719586888656 629.6337420392427,126.51626587685608 622.5023275911103,126.82900407828967L615.0,127.15800815657934L615.0,121.57900407828967L615.0,116.0L629.5,116.0L644.0,116.0L644.0,126.0C644.0,132.0 643.6,136.0 643.0,136.0C642.45,136.0 642.0,137.3153846153846 642.0,138.9230769230769C642.0,142.04926906216974 637.0326525646078,148.0 634.4230769230769,148.0C633.6403846153846,148.0 633.0,148.45 633.0,149.0C633.0,149.55 631.6234423525312,150.0 629.9409830056251,150.0C628.1562823502086,150.0 627.1394247999211,150.41657707077198 627.5,151.0C627.8989719559675,151.64555018531343 623.8437176497914,152.0 616.0590169943749,152.0C608.6863389981249,152.0 604.0,151.6113830007611 604.0,151.0zM671.5,151.0C671.8399186938125,150.45 671.2606134477056,150.0 670.2126550086516,150.0C664.8466400183438,150.0 656.4357285376033,142.46792081200073 652.9041370420332,134.5C651.1382744192352,130.51588871165444 650.6946755539752,127.67140031902203 650.7208326103028,120.5C650.7725468457502,106.32166586546694 655.1794114925514,97.30185428115595 665.1949483925266,90.87490196120974C669.9079223348126,87.85059491559382 670.9382917048006,87.61087526710477 681.0077088298203,87.19599856590227C690.9024199877606,86.78832004056262 692.2152285246125,86.95503883468737 697.1394946681057,89.24463841439619C700.0877726006476,90.61547738176844 703.3016922218015,92.58373149790886 704.28153827067,93.61853645026378C711.923991668239,101.68964990025778 713.4180678740626,106.75536604310413 712.8207185971432,122.5709174987579C712.3796549345843,134.24861649321682 711.4870340158149,137.01338334531076 706.3520779637033,142.606615548604C702.7758127939002,146.50204937749385 697.6867327055027,150.0 695.5956295006001,150.0C694.71803327527,150.0 694.0,150.45 694.0,151.0C694.0,151.608991635391 689.4803276685417,152.0 682.4409830056251,152.0C674.9896156835418,152.0 671.1015925688189,151.64463676502157 671.5,151.0zM557.4239859135332,135.62577635424105C562.0486328062271,132.09838620691775 563.3783272191874,127.54537803892536 562.7456254579276,117.40394427269055C562.1371892035849,107.65145684147302 560.0118443889829,103.81782909797076 553.5989307275812,100.90543427154032C548.342190907859,98.51811040236109 545.8315246027942,98.53514007073369 541.0180939022292,100.99076917986858C535.4918784082844,103.81003395679582 532.105929497679,108.70490854773159 531.0056697404486,115.46516377857736C529.4863863276701,124.79999909440154 531.3007970076704,130.422883994257 537.6236690340438,135.9744391622533C541.1826424613828,139.09925921884994 541.6330130145313,139.22300846773345 547.6799334977611,138.73761975933957C552.4416396700798,138.35539571403535 554.8562815732186,137.58425993178176 557.4239859135332,135.62577635424105zM692.7235551259655,135.21894839253625C697.244768821408,131.63808087098343 697.9708730046532,129.16496089187655 697.9889943361188,117.28479622830613C697.9991744486067,110.6108157386625 697.7638305009278,109.8006102572144 694.851556248634,106.48371312735988C693.1199121853826,104.51147949627106 690.4422591524806,102.2458211935333 688.9012161755181,101.44891689905374C685.2273316204986,99.54907735980338 679.0965199663907,99.60627327074515 675.1456105433431,101.57724646438311C671.6130860114683,103.33950178655715 667.0,108.83748460261793 667.0,111.28537388327089C667.0,112.16349955365946 666.4933333637109,113.19510321344235 665.8740741415797,113.5778264605662C663.8575763229139,114.82409065074175 665.4349260200005,126.14761521247198 668.2401914047216,130.56377890637344C672.8394554427782,137.80412877635578 675.152278882614,139.0652617869393 683.1080471870036,138.670901741899C687.6574772633634,138.44539071880507 689.4725727667154,137.7937740759836 692.7235551259655,135.21894839253625z"/></svg>