<svg width="1080" height="1080" viewBox="0 0 1080 1080" xmlns="http://www.w3.org/2000/svg" preserveAspectRatio="xMidYMid meet">
  <g id="background-layer">
    <image href="/static/images/sessions/parallel_20250625_155112_16351f39/background_20250625_155201_cbb6ac34.png" x="0" y="0" width="1080" height="1080"/>
  </g>
  <g id="elements-layer" opacity="0.8">
    <path d="M0 0 C337.92 0 675.84 0 1024 0 C1024 337.92 1024 675.84 1024 1024 C686.08 1024 348.16 1024 0 1024 C0 686.08 0 348.16 0 0 Z" fill="#000C25" transform="translate(0,0)"/>
    <path d="M0 0 C1.098 0.391 1.098 0.391 2.217 0.79 C8.589 3.164 14.11 6.398 19.625 10.375 C20.615 11.035 21.605 11.695 22.625 12.375 C22.625 13.035 22.625 13.695 22.625 14.375 C23.21 14.639 23.795 14.904 24.398 15.176 C31.224 18.852 35.663 25.573 39.875 31.875 C40.287 32.491 40.699 33.108 41.124 33.743 C45.955 41.167 49.177 48.333 51.312 56.938 C51.525 57.749 51.737 58.56 51.955 59.396 C57.973 82.919 53.786 106.162 41.5 126.938 C34.67 137.146 26.17 146.028 15.625 152.375 C14.857 152.883 14.088 153.391 13.297 153.914 C-5.717 165.574 -29.604 167.399 -51.062 162.75 C-71.847 157.635 -87.821 146.374 -99.375 128.375 C-99.974 127.458 -100.574 126.542 -101.191 125.598 C-109.165 112.767 -113.792 97.891 -113.688 82.75 C-113.682 81.879 -113.676 81.008 -113.67 80.111 C-113.234 56.535 -103.448 36.172 -87.324 19.219 C-65.071 -1.903 -29.082 -10.527 0 0 Z" fill="#00102E" transform="translate(544.375,138.625)"/>
    <path d="M0 0 C0.779 0.78 1.558 1.56 2.361 2.363 C4.705 4.705 7.062 7.033 9.426 9.355 C11.055 10.966 12.684 12.577 14.312 14.188 C15.566 15.416 15.566 15.416 16.846 16.67 C17.635 17.453 18.425 18.236 19.238 19.043 C20.322 20.111 20.322 20.111 21.427 21.2 C23 23 23 23 23 25 C23.66 25 24.32 25 25 25 C26.27 26.293 26.27 26.293 27.812 28.188 C31.836 32.956 36.246 37.278 40.732 41.606 C42.191 43.035 43.6 44.514 45 46 C45 46.66 45 47.32 45 48 C45.66 48 46.32 48 47 48 C48.621 49.645 48.621 49.645 50.438 51.812 C52.87 54.735 52.87 54.735 55.587 57.379 C58.146 60.315 57.397 64.411 57.361 68.13 C57.363 69.076 57.366 70.022 57.369 70.997 C57.373 74.18 57.357 77.363 57.341 80.546 C57.34 82.822 57.34 85.098 57.342 87.374 C57.343 93.566 57.325 99.758 57.304 105.95 C57.285 112.416 57.284 118.882 57.28 125.349 C57.272 136.206 57.253 147.063 57.226 157.92 C57.199 169.104 57.178 180.287 57.165 191.471 C57.164 192.16 57.163 192.849 57.162 193.559 C57.158 197.017 57.155 200.474 57.151 203.932 C57.12 232.621 57.067 261.311 57 290 C55.886 289.052 54.773 288.102 53.66 287.152 C53.04 286.624 52.42 286.095 51.781 285.55 C49.442 283.515 47.239 281.367 45.046 279.176 C44.139 278.271 43.231 277.367 42.296 276.435 C41.329 275.466 40.362 274.497 39.395 273.527 C38.383 272.516 37.371 271.506 36.359 270.495 C34.251 268.388 32.144 266.279 30.038 264.169 C27.349 261.473 24.654 258.782 21.959 256.093 C19.873 254.011 17.79 251.926 15.707 249.841 C14.715 248.848 13.722 247.856 12.728 246.864 C11.338 245.477 9.952 244.086 8.566 242.695 C7.778 241.907 6.991 241.119 6.18 240.307 C5.461 239.546 4.741 238.784 4 238 C3.305 237.322 2.61 236.645 1.894 235.946 C-0.779 231.789 -0.544 228.398 -0.481 223.553 C-0.484 222.597 -0.488 221.642 -0.491 220.657 C-0.498 217.452 -0.476 214.248 -0.454 211.044 C-0.453 208.747 -0.454 206.451 -0.456 204.155 C-0.457 197.918 -0.433 191.681 -0.406 185.444 C-0.381 178.927 -0.378 172.41 -0.373 165.893 C-0.362 154.953 -0.337 144.014 -0.302 133.074 C-0.265 121.808 -0.237 110.541 -0.22 99.274 C-0.219 98.579 -0.218 97.884 -0.217 97.169 C-0.211 93.684 -0.206 90.199 -0.201 86.714 C-0.16 57.809 -0.089 28.905 0 0 Z" fill="#001337" transform="translate(0,551)"/>
    <path d="M0 0 C1.098 0.391 1.098 0.391 2.217 0.79 C8.589 3.164 14.11 6.398 19.625 10.375 C20.615 11.035 21.605 11.695 22.625 12.375 C22.625 13.035 22.625 13.695 22.625 14.375 C23.21 14.639 23.795 14.904 24.398 15.176 C31.224 18.852 35.663 25.573 39.875 31.875 C40.287 32.491 40.699 33.108 41.124 33.743 C45.955 41.167 49.177 48.333 51.312 56.938 C51.525 57.749 51.737 58.56 51.955 59.396 C57.973 82.919 53.786 106.162 41.5 126.938 C34.67 137.146 26.17 146.028 15.625 152.375 C14.857 152.883 14.088 153.391 13.297 153.914 C-5.717 165.574 -29.604 167.399 -51.062 162.75 C-71.847 157.635 -87.821 146.374 -99.375 128.375 C-99.974 127.458 -100.574 126.542 -101.191 125.598 C-109.165 112.767 -113.792 97.891 -113.688 82.75 C-113.682 81.879 -113.676 81.008 -113.67 80.111 C-113.234 56.535 -103.448 36.172 -87.324 19.219 C-65.071 -1.903 -29.082 -10.527 0 0 Z M-89.625 26.562 C-101.465 40.154 -109.359 58.326 -110.375 76.375 C-110.428 77.192 -110.481 78.01 -110.535 78.852 C-111.342 102.647 -100.367 124.415 -84.475 141.437 C-80.221 145.769 -75.823 148.758 -70.375 151.375 C-68.838 152.141 -68.838 152.141 -67.27 152.922 C-43.871 163.8 -21.922 163.392 2.137 155.176 C23.754 146.844 36.433 129.765 45.625 109.375 C46.864 106.404 47.853 103.499 48.625 100.375 C48.827 99.599 49.03 98.823 49.238 98.023 C53.088 80.686 51.349 60.043 42.625 44.375 C42.109 43.424 41.594 42.472 41.062 41.492 C32.164 25.528 32.164 25.528 17.625 15.375 C17.625 14.715 17.625 14.055 17.625 13.375 C-13.335 -13.619 -63.812 -0.275 -89.625 26.562 Z" fill="#4A5F7B" transform="translate(544.375,138.625)"/>
    <path d="M0 0 C3.846 2.107 7.434 4.453 11 7 C11.99 7.66 12.98 8.32 14 9 C14 9.66 14 10.32 14 11 C14.585 11.264 15.17 11.529 15.773 11.801 C22.599 15.477 27.038 22.198 31.25 28.5 C31.662 29.116 32.074 29.733 32.499 30.368 C37.33 37.792 40.552 44.958 42.688 53.562 C42.9 54.374 43.112 55.185 43.33 56.021 C45.174 63.229 46.14 70.099 46.125 77.562 C46.129 79.452 46.129 79.452 46.133 81.379 C45.777 91.072 45.777 91.072 42 95 C41.34 95 40.68 95 40 95 C40.165 93.886 40.33 92.772 40.5 91.625 C42.285 74.602 41.511 56.293 33 41 C32.473 40.025 31.946 39.051 31.402 38.047 C28.076 32.11 24.518 27.068 20 22 C20 21.34 20 20.68 20 20 C19.01 19.67 18.02 19.34 17 19 C15.312 17.355 13.646 15.687 12 14 C11.01 13.34 10.02 12.68 9 12 C9 11.34 9 10.68 9 10 C8.361 9.773 7.721 9.546 7.062 9.312 C4.517 8.222 2.363 7.039 0 5.625 C-4.861 2.846 -9.898 1.373 -15.277 -0.105 C-18 -1 -18 -1 -20 -3 C-21.317 -3.697 -22.649 -4.37 -24 -5 C-16.557 -7.481 -7.02 -2.972 0 0 Z" fill="#455A75" transform="translate(553,142)"/>
    <path d="M0 0 C3.063 -0.027 6.125 -0.047 9.188 -0.062 C10.052 -0.071 10.916 -0.079 11.807 -0.088 C20.972 -0.123 20.972 -0.123 24 1 C24.66 2.32 25.32 3.64 26 5 C17.75 4.34 9.5 3.68 1 3 C0.67 2.01 0.34 1.02 0 0 Z" fill="#526782" transform="translate(508,135)"/>
    <path d="M0 0 C0 3 0 3 -2.625 5.918 C-3.742 7.016 -4.868 8.105 -6 9.188 C-6.572 9.746 -7.145 10.305 -7.734 10.881 C-9.15 12.261 -10.574 13.631 -12 15 C-12.66 14.67 -13.32 14.34 -14 14 C-12.233 12.038 -10.462 10.08 -8.688 8.125 C-8.188 7.569 -7.688 7.014 -7.174 6.441 C-4.891 3.932 -2.836 1.891 0 0 Z" fill="#020922" transform="translate(465,156)"/>
    <path d="M0 0 C0.763 0.124 1.526 0.248 2.312 0.375 C2.869 0.581 3.426 0.787 4 1 C4.33 1.99 4.66 2.98 5 4 C-1.055 4.195 -1.055 4.195 -3 4 C-3.66 3.34 -4.32 2.68 -5 2 C-6.317 1.303 -7.649 0.63 -9 0 C-5.467 -1.178 -3.609 -0.737 0 0 Z" fill="#415571" transform="translate(538,137)"/>
    <path d="M0 0 C0.866 0.248 1.733 0.495 2.625 0.75 C-0.5 3.395 -3.463 4.594 -7.375 5.75 C-8.035 5.09 -8.695 4.43 -9.375 3.75 C-4.206 -0.312 -4.206 -0.312 0 0 Z" fill="#4C617D" transform="translate(480.375,144.25)"/>
    <path d="M0 0 C0.33 0.66 0.66 1.32 1 2 C1.66 2 2.32 2 3 2 C3.33 4.97 3.66 7.94 4 11 C3.01 11 2.02 11 1 11 C-0.283 7.15 -0.066 4.053 0 0 Z" fill="#516682" transform="translate(432,227)"/>
    <path d="M0 0 C0.33 0 0.66 0 1 0 C2.346 7.341 2.346 7.341 0.688 10.5 C-1 12 -1 12 -3 12 C-2.885 10.562 -2.758 9.124 -2.625 7.688 C-2.521 6.487 -2.521 6.487 -2.414 5.262 C-2 3 -2 3 0 0 Z" fill="#415572" transform="translate(596,225)"/>
    <path d="M0 0 C3.235 0.558 4.979 1.372 7 4 C7 4.99 7 5.98 7 7 C5.35 6.67 3.7 6.34 2 6 C1.34 4.02 0.68 2.04 0 0 Z" fill="#455B78" transform="translate(450,271)"/>
    <path d="M0 0 C0.66 1.32 1.32 2.64 2 4 C0.68 5.65 -0.64 7.3 -2 9 C-2.99 8.67 -3.98 8.34 -5 8 C-3.891 5.781 -2.486 3.982 -1 2 C-0.67 1.34 -0.34 0.68 0 0 Z" fill="#425875" transform="translate(588,254)"/>
    <path d="M0 0 C4.714 4.351 4.714 4.351 5.938 7.125 C6 9 6 9 4 12 C2.335 8.076 1.128 4.109 0 0 Z" fill="#4B607B" transform="translate(581,168)"/>
    <path d="M0 0 C2 3 2 3 1.875 5.5 C0.831 8.482 -0.348 9.375 -3 11 C-3.33 9.68 -3.66 8.36 -4 7 C-3.34 6.67 -2.68 6.34 -2 6 C-1.273 4.021 -0.602 2.02 0 0 Z" fill="#435875" transform="translate(593,241)"/>
    <path d="M0 0 C0.99 0 1.98 0 3 0 C2.502 3.688 1.899 5.605 -1 8 C-1.931 5.394 -2.149 4.358 -1.062 1.75 C-0.712 1.173 -0.361 0.595 0 0 Z" fill="#516581" transform="translate(438,186)"/>
    <path d="M0 0 C1.32 0 2.64 0 4 0 C3.436 3.27 2.5 4.826 0 7 C0.33 5.68 0.66 4.36 1 3 C0.34 2.67 -0.32 2.34 -1 2 C-0.67 1.34 -0.34 0.68 0 0 Z" fill="#4E617E" transform="translate(582,262)"/>
    <path d="M0 0 C0.66 0.66 1.32 1.32 2 2 C0.848 4.468 -0.048 6.048 -2 8 C-2.688 5.688 -2.688 5.688 -3 3 C-1.562 1.188 -1.562 1.188 0 0 Z" fill="#425772" transform="translate(455,160)"/>
  </g>
  <g id="text-layer">
    <style>
      .title {
        font-family: 'Arial', sans-serif;
        font-weight: bold;
        font-size: 96px;
        fill: #d0eaff;
        filter: drop-shadow(2px 2px 2px rgba(0,0,0,0.5));
      }
      .subtitle {
        font-family: 'Arial', sans-serif;
        font-weight: normal;
        font-size: 48px;
        fill: #e1ebf7;
      }
    </style>
    <text x="540" y="540" class="title" text-anchor="middle" dominant-baseline="middle">Coming Soon</text>
    <text x="540" y="640" class="subtitle" text-anchor="middle" dominant-baseline="middle">
      Stay juneid for our
    </text>
    <text x="540" y="700" class="subtitle" text-anchor="middle" dominant-baseline="middle" >
      eacking new laünch!
    </text>
  </g>
</svg>